<?xml version="1.0" encoding="UTF-8"?>
<svg id="Layer_1" xmlns="http://www.w3.org/2000/svg" version="1.1" viewBox="0 0 1080 439.3">
  <!-- Generator: Adobe Illustrator 30.1.0, SVG Export Plug-In . SVG Version: 2.1.1 Build 136)  -->
  <defs>
    <style>
      .st0 {
        fill: #fff;
      }

      .st1 {
        fill: #ffcb06;
      }
    </style>
  </defs>
  <g>
    <polygon points="0 1.8 7.11 333.71 185.42 439.3 363.73 333.71 370.84 1.8 0 1.8"/>
    <path class="st0" d="M291.23,38.85h-73.78l9.43,16.32v62.29l-4.64,15.76h29.47l-3.79-13.03v-10.66h43.31c16.16,0,29.31-13.15,29.31-29.3v-12.06c0-16.16-13.15-29.31-29.31-29.31M246.42,62.84h38.78c6.26,0,11.35,5.09,11.35,11.35s-5.09,11.35-11.35,11.35h-34.35v-12.45l-4.44-10.25Z"/>
    <polygon class="st0" points="250.86 301.85 250.86 238.84 217.81 238.84 226.88 257.6 226.88 325.83 301.73 325.83 308.9 296.92 292.14 301.85 250.86 301.85"/>
    <polygon class="st0" points="250.86 206.5 250.86 143.5 217.81 143.5 226.88 162.25 226.88 230.48 306.82 230.48 313.98 201.58 297.22 206.5 250.86 206.5"/>
    <path class="st0" d="M172.08,31.3l-2.58.03v.08c-10.43.33-19.96,1.28-28.75,2.89-9.89,1.81-18.82,4.48-26.99,8.05-13.95,6.11-25.69,14.9-36.12,26.76-.43.49-.88.95-1.31,1.45-4.45,5.21-8.21,10.17-11.42,14.91-10.22,15.08-14.56,27.87-15.31,38.91-.7,10.42,1.77,19.28,5.54,27.03,3.46,7.13,8,13.33,12.12,18.95,1.55,2.12,3.09,4.21,4.53,6.31,13.45,19.57,24.09,37.11,30.67,50.19,4.69,9.34,7.32,16.43,7.34,20.28l.05,7.84.27,48v1.22c.02,1.95.23,3.76.44,5.58l.24,2.18c.59,6.28,1.86,12.1,3.76,17.41.69,1.93,1.46,3.82,2.32,5.61,3.38,7.02,7.44,12.61,12.42,17.1,10.94,9.88,24.18,13.9,33.88,15.52l3.45,36.67,8.53,5.05v-60.37h-.21c-4.6-.08-20.48-1.12-31.72-11.33-1.78-1.62-3.28-3.57-4.51-5.25-4.02-5.52-6.55-12.61-7.5-21.06l-.11-.96c-.24-2.1-.47-4.09-.48-6.24l-.32-57.05c-.08-14.03-14.01-41.37-41.41-81.26-1.55-2.26-3.2-4.51-4.88-6.8-14.03-19.14-26.14-35.67,8.17-75.89,18.97-22.24,42.82-31.53,82.72-32.06h.25v-19.73h-3.06Z"/>
    <path class="st0" d="M144.51,136.9c-9.3,8.18-16.6,17.83-22.63,28.07l5.97,10.26c6.99-10.67,15.44-20.41,25.29-27.62,6.8-5.03,14.34-8.59,22-10.15v-16.67c-4.17.93-8.21,2.24-12.01,3.96-6.96,3.14-13.15,7.38-18.63,12.15"/>
    <path class="st0" d="M129.59,99.01c-11.49,9.13-20.11,20.53-27.23,32.41l6.14,10.54c8.26-12.4,17.83-23.76,29.48-31.58,11.1-7.6,23.94-11.33,37.17-11.7v-17.54c-7.27.68-14.52,2.12-21.48,4.56-8.76,3.04-16.95,7.64-24.07,13.3"/>
    <path class="st1" d="M0,1.8l7.11,331.9,178.31,105.59,178.31-105.59L370.84,1.8H0ZM27.42,321.84l-.94-43.85,88.06,51.39c-1.9-5.3-3.17-11.13-3.76-17.41l-.24-2.18c-.21-1.81-.42-3.63-.43-5.58v-1.22s-84.15-49.11-84.15-49.11l-1.04-48.43,84.91,49.55-.04-7.83c-.02-3.86-2.66-10.95-7.34-20.29l-78.04-45.54-1.04-48.44,31.76,18.53c-3.77-7.75-6.24-16.62-5.54-27.03l-26.74-15.61-1.04-48.44,43.08,25.14c3.21-4.75,6.98-9.7,11.43-14.92.43-.5.87-.97,1.31-1.45L21.3,36.24l-.3-13.88h58.49l34.26,20c8.17-3.58,17.1-6.24,26.99-8.05l-20.46-11.94h54.86v386.96l-8.53-5.05L27.42,321.84ZM343.42,321.84l-147.72,87.48V22.36h154.14l-6.42,299.48Z"/>
  </g>
  <g>
    <path d="M467.05,30.5c0,16.39-11.33,28.81-30.13,28.81h-11.69v31.46h-21.82V1.81h33.87c18.45,0,29.77,12.66,29.77,28.69M444.39,30.5c0-5.55-3.14-8.68-8.2-8.68h-10.97v17.47h10.85c5.18,0,8.32-3.01,8.32-8.8"/>
    <path d="M558.78,70.75v19.77c-2.89.72-5.55,1.08-8.07,1.08-25.43,0-25.55-34.95-39.3-34.95v34.11h-21.82V1.81h37.6c16.51,0,27.36,10.13,27.36,25.8,0,12.17-7.83,21.46-19.41,23.99,7.6,6.75,9.65,19.77,19.29,19.77,1.33,0,2.65-.24,4.34-.61M523.1,37.85c4.94,0,8.44-2.65,8.44-8.2s-3.74-8.07-8.68-8.07h-11.45v16.27h11.69Z"/>
    <polygon points="603.74 22.3 603.74 36.16 634.84 36.16 634.84 56.17 603.74 56.17 603.74 70.27 637.26 70.27 637.26 90.76 593.02 90.76 581.44 90.76 581.44 1.81 603.74 1.81 637.26 1.81 637.26 22.3 603.74 22.3"/>
    <polygon points="752 0 752 90.76 729.7 90.76 729.7 43.63 706.68 61.23 683.66 43.63 683.66 90.76 661.36 90.76 661.36 0 706.68 34.83 752 0"/>
    <rect x="779.73" y="1.81" width="22.3" height="88.96"/>
    <polygon points="852.05 22.3 852.05 36.16 883.15 36.16 883.15 56.17 852.05 56.17 852.05 70.27 885.57 70.27 885.57 90.76 841.33 90.76 829.75 90.76 829.75 1.81 852.05 1.81 885.57 1.81 885.57 22.3 852.05 22.3"/>
    <path d="M978.85,70.75v19.77c-2.89.72-5.54,1.08-8.07,1.08-25.43,0-25.55-34.95-39.29-34.95v34.11h-21.82V1.81h37.61c16.51,0,27.36,10.13,27.36,25.8,0,12.17-7.83,21.46-19.41,23.99,7.59,6.75,9.65,19.77,19.29,19.77,1.32,0,2.65-.24,4.33-.61M943.18,37.85c4.94,0,8.44-2.65,8.44-8.2s-3.74-8.07-8.68-8.07h-11.45v16.27h11.69Z"/>
    <polygon points="457.77 191.79 457.77 212.28 403.41 212.28 403.41 123.33 425.71 123.33 425.71 191.79 457.77 191.79"/>
    <path d="M532.14,201.2h-28.45l-4.46,11.09h-23.62l42.31-90.76,42.43,90.76h-23.74l-4.46-11.09ZM525.75,185.28l-7.83-19.52-7.84,19.52h15.67Z"/>
    <path d="M570.6,167.8c0-25.91,20.73-46.04,45.92-46.04,13.26,0,24.47,5.43,34.36,13.98l-14.23,16.27c-5.19-4.7-11.93-8.08-19.16-8.08-12.41,0-22.78,10.01-22.78,23.87s10.37,23.87,23.02,23.87c6.03,0,12.66-2.29,18.81-7.35l13.62,16.27c-11.09,9.29-22.9,13.26-33.87,13.26-24.95,0-45.68-20.13-45.68-46.04"/>
    <path d="M741.15,192.27v19.77c-2.89.72-5.54,1.08-8.07,1.08-25.43,0-25.55-34.95-39.29-34.95v34.11h-21.82v-88.96h37.61c16.51,0,27.36,10.13,27.36,25.8,0,12.17-7.83,21.46-19.41,23.99,7.59,6.75,9.65,19.77,19.29,19.77,1.32,0,2.65-.24,4.33-.61M705.48,159.37c4.94,0,8.44-2.65,8.44-8.2s-3.74-8.07-8.68-8.07h-11.45v16.27h11.69Z"/>
    <path d="M757.44,167.8c0-25.67,20.61-46.04,46.53-46.04s46.52,20.37,46.52,46.04-20.61,46.04-46.52,46.04-46.53-20.37-46.53-46.04M826.38,167.8c0-13.38-9.4-23.87-22.42-23.87s-22.42,10.48-22.42,23.87,9.4,23.87,22.42,23.87,22.42-10.48,22.42-23.87"/>
    <path d="M866.64,202.28l10.97-15.19c5.91,4.7,11.21,6.51,15.55,6.51,6.03,0,9.77-3.62,9.77-8.08,0-12.66-31.46-11.33-31.46-36.4,0-14.83,12.78-27.36,30.13-27.36,8.44,0,17.48,3.02,25.32,9.04l-9.89,15.67c-4.22-3.14-8.68-5.3-13.01-5.3-6.03,0-9.04,3.49-9.04,7.35,0,11.21,32.54,10.73,32.54,37.25,0,14.1-11.57,28.08-32.67,28.08-9.28,0-18.56-3.25-28.2-11.57"/>
    <path d="M941.74,202.28l10.97-15.19c5.91,4.7,11.21,6.51,15.55,6.51,6.03,0,9.77-3.62,9.77-8.08,0-12.66-31.46-11.33-31.46-36.4,0-14.83,12.78-27.36,30.13-27.36,8.44,0,17.48,3.02,25.32,9.04l-9.89,15.67c-4.22-3.14-8.68-5.3-13.01-5.3-6.03,0-9.04,3.49-9.04,7.35,0,11.21,32.54,10.73,32.54,37.25,0,14.1-11.57,28.08-32.67,28.08-9.28,0-18.56-3.25-28.2-11.57"/>
    <polygon points="1046.49 143.82 1046.49 157.68 1077.58 157.68 1077.58 177.69 1046.49 177.69 1046.49 191.79 1080 191.79 1080 212.28 1035.76 212.28 1024.19 212.28 1024.19 123.33 1046.49 123.33 1080 123.33 1080 143.82 1046.49 143.82"/>
    <polygon points="457.77 313.31 457.77 333.8 403.41 333.8 403.41 244.85 425.71 244.85 425.71 313.31 457.77 313.31"/>
    <polygon points="501.53 265.34 501.53 279.2 532.62 279.2 532.62 299.21 501.53 299.21 501.53 313.31 535.03 313.31 535.03 333.8 490.8 333.8 479.23 333.8 479.23 244.85 501.53 244.85 535.03 244.85 535.03 265.34 501.53 265.34"/>
    <path d="M607.84,322.71h-28.45l-4.46,11.09h-23.62l42.31-90.76,42.42,90.76h-23.74l-4.46-11.09ZM601.45,306.8l-7.83-19.52-7.84,19.52h15.67Z"/>
    <path d="M731.75,279.8v39.41c-8.92,10-25.55,16.15-38.93,16.15-26.28,0-46.53-20.25-46.53-46.17s20.25-45.92,46.53-45.92c11.09,0,22.9,4.1,31.58,10.97l-11.93,17.24c-4.94-3.74-11.57-6.03-18.08-6.03-13.86,0-23.99,10.61-23.99,23.99s10.37,23.74,23.51,23.74c6.03,0,11.93-1.93,16.51-5.18v-9.76h-17.96v-18.44h39.3Z"/>
    <path d="M754.66,304.87v-60.03h22.3v57.02c0,6.99,5.18,12.05,12.41,12.05s12.42-5.06,12.42-12.05v-57.02h22.3v60.03c0,17.36-15.67,30.5-34.72,30.5s-34.71-13.14-34.71-30.5"/>
    <polygon points="872.91 265.34 872.91 279.2 904 279.2 904 299.21 872.91 299.21 872.91 313.31 906.42 313.31 906.42 333.8 862.18 333.8 850.61 333.8 850.61 244.85 872.91 244.85 906.42 244.85 906.42 265.34 872.91 265.34"/>
  </g>
</svg>