<?xml version="1.0" encoding="UTF-8"?>
<svg id="Layer_1" xmlns="http://www.w3.org/2000/svg" version="1.1" viewBox="0 0 1080 439.3">
  <!-- Generator: Adobe Illustrator 30.1.0, SVG Export Plug-In . SVG Version: 2.1.1 Build 136)  -->
  <defs>
    <style>
      .st0 {
        fill: #fff;
      }
    </style>
  </defs>
  <path class="st0" d="M291.23,38.85h-73.78l9.43,16.32v62.29l-4.64,15.76h29.47l-3.79-13.03v-10.66h43.31c16.16,0,29.31-13.15,29.31-29.3v-12.06c0-16.16-13.15-29.31-29.31-29.31ZM285.21,85.54h-34.35v-12.45l-4.44-10.25h38.78c6.26,0,11.35,5.09,11.35,11.35s-5.09,11.35-11.35,11.35Z"/>
  <polygon class="st0" points="250.86 301.85 250.86 238.84 217.81 238.84 226.88 257.6 226.88 325.83 301.73 325.83 308.9 296.92 292.14 301.85 250.86 301.85"/>
  <polygon class="st0" points="250.86 206.5 250.86 143.5 217.81 143.5 226.88 162.25 226.88 230.48 306.82 230.48 313.98 201.58 297.22 206.5 250.86 206.5"/>
  <path class="st0" d="M144.51,136.9c-9.3,8.18-16.6,17.83-22.63,28.07l5.97,10.26c6.99-10.67,15.44-20.41,25.29-27.62,6.8-5.03,14.34-8.59,22-10.15v-16.67c-4.17.93-8.21,2.24-12.01,3.96-6.96,3.14-13.15,7.38-18.63,12.15Z"/>
  <path class="st0" d="M129.59,99.01c-11.49,9.13-20.11,20.53-27.23,32.41l6.14,10.54c8.26-12.4,17.83-23.76,29.48-31.58,11.1-7.6,23.94-11.33,37.17-11.7v-17.54c-7.27.68-14.52,2.12-21.48,4.56-8.76,3.04-16.95,7.64-24.07,13.3Z"/>
  <path class="st0" d="M7.11,333.71l178.31,105.59,178.31-105.59L370.84,1.8H0l7.11,331.9ZM195.7,22.36h154.14l-6.42,299.48-147.72,87.48V22.36ZM21.82,60.35l43.08,25.14c1.46-2.15,3.04-4.35,4.73-6.6-1.7,2.24-3.27,4.44-4.73,6.59-10.22,15.08-14.56,27.87-15.31,38.91,0,0,0,0,0,0l-26.74-15.61-1.04-48.44ZM23.37,132.89l31.76,18.53c-.75-1.55-1.45-3.15-2.09-4.79.64,1.64,1.34,3.24,2.09,4.8,3.46,7.13,8,13.33,12.12,18.95,1.55,2.12,3.09,4.21,4.53,6.31,13.45,19.57,24.09,37.11,30.67,50.19,2.49,4.96,4.39,9.27,5.64,12.81-1.25-3.54-3.15-7.86-5.64-12.81l-78.04-45.54-1.04-48.44ZM24.93,205.44l84.91,49.55-.02-4.71.03,4.72.27,47.99-84.15-49.11-1.04-48.43ZM27.42,321.84l-.94-43.85,88.06,51.39s0,0,0,0c.69,1.93,1.46,3.82,2.32,5.61,3.38,7.02,7.44,12.61,12.42,17.1,10.94,9.88,24.18,13.9,33.88,15.52l3.45,36.67.94.56-.94-.56L27.42,321.84ZM110.11,303.48v.73c.02,1.95.22,3.76.43,5.58l.24,2.18c.18,1.92.43,3.79.74,5.62-.31-1.83-.56-3.7-.74-5.62l-.24-2.18c-.21-1.81-.42-3.63-.43-5.58v-.73ZM175.15,22.36v386.96h0v-60.37h-.21c-4.6-.08-20.48-1.12-31.72-11.33-1.78-1.62-3.28-3.57-4.51-5.25-4.02-5.52-6.55-12.61-7.5-21.06l-.11-.96c-.24-2.1-.47-4.09-.48-6.24l-.32-57.05c-.08-14.03-14.01-41.37-41.41-81.26-1.55-2.26-3.2-4.51-4.88-6.8-14.03-19.14-26.14-35.67,8.17-75.89,18.97-22.24,42.82-31.53,82.72-32.06h.25v-19.73h-3.06s-2.58.02-2.58.02v.08c-10.43.33-19.96,1.28-28.75,2.89h0s-20.46-11.94-20.46-11.94h54.86ZM124.2,38.42c2.82-.91,5.72-1.73,8.72-2.45-3,.73-5.9,1.55-8.72,2.45ZM79.49,22.36l34.26,19.99c-13.95,6.11-25.68,14.9-36.12,26.76L21.3,36.24l-.3-13.88h58.49Z"/>
  <path class="st0" d="M437.28,1.81h-33.87v88.96h21.82v-31.46h11.69c18.8,0,30.13-12.42,30.13-28.81s-11.33-28.69-29.77-28.69ZM436.07,39.29h-10.85v-17.47h10.97c5.06,0,8.2,3.13,8.2,8.68s-3.14,8.8-8.32,8.8Z"/>
  <path class="st0" d="M511.41,56.65c13.74,0,13.86,34.95,39.3,34.95,2.53,0,5.18-.36,8.07-1.08v-19.77c-1.69.36-3.01.61-4.34.61-9.64,0-11.69-13.02-19.29-19.77,11.57-2.53,19.41-11.82,19.41-23.99,0-15.67-10.85-25.8-27.36-25.8h-37.6v88.96h21.82v-34.11ZM511.41,21.58h11.45c4.94,0,8.68,2.77,8.68,8.07s-3.5,8.2-8.44,8.2h-11.69v-16.27Z"/>
  <polygon class="st0" points="637.26 90.76 637.26 70.27 603.74 70.27 603.74 56.17 634.84 56.17 634.84 36.16 603.74 36.16 603.74 22.3 637.26 22.3 637.26 1.81 603.74 1.81 581.44 1.81 581.44 90.76 593.02 90.76 637.26 90.76"/>
  <polygon class="st0" points="683.66 43.63 706.68 61.23 729.7 43.63 729.7 90.76 752 90.76 752 0 706.68 34.83 661.36 0 661.36 90.76 683.66 90.76 683.66 43.63"/>
  <rect class="st0" x="779.73" y="1.81" width="22.3" height="88.96"/>
  <polygon class="st0" points="885.57 90.76 885.57 70.27 852.05 70.27 852.05 56.17 883.15 56.17 883.15 36.16 852.05 36.16 852.05 22.3 885.57 22.3 885.57 1.81 852.05 1.81 829.75 1.81 829.75 90.76 841.33 90.76 885.57 90.76"/>
  <path class="st0" d="M931.49,56.65c13.74,0,13.86,34.95,39.29,34.95,2.53,0,5.19-.36,8.07-1.08v-19.77c-1.69.36-3.01.61-4.33.61-9.64,0-11.7-13.02-19.29-19.77,11.57-2.53,19.41-11.82,19.41-23.99,0-15.67-10.85-25.8-27.36-25.8h-37.61v88.96h21.82v-34.11ZM931.49,21.58h11.45c4.94,0,8.68,2.77,8.68,8.07s-3.5,8.2-8.44,8.2h-11.69v-16.27Z"/>
  <polygon class="st0" points="457.77 191.79 425.71 191.79 425.71 123.33 403.41 123.33 403.41 212.28 457.77 212.28 457.77 191.79"/>
  <path class="st0" d="M503.7,201.2h28.45l4.46,11.09h23.74l-42.43-90.76-42.31,90.76h23.62l4.46-11.09ZM517.92,165.75l7.83,19.52h-15.67l7.84-19.52Z"/>
  <path class="st0" d="M616.28,213.85c10.97,0,22.78-3.97,33.87-13.26l-13.62-16.27c-6.15,5.06-12.78,7.35-18.81,7.35-12.65,0-23.02-10.25-23.02-23.87s10.37-23.87,22.78-23.87c7.23,0,13.98,3.38,19.16,8.08l14.23-16.27c-9.89-8.56-21.1-13.98-34.36-13.98-25.19,0-45.92,20.13-45.92,46.04s20.73,46.04,45.68,46.04Z"/>
  <path class="st0" d="M736.94,149.12c0-15.67-10.85-25.8-27.36-25.8h-37.61v88.96h21.82v-34.11c13.74,0,13.86,34.95,39.29,34.95,2.53,0,5.19-.36,8.07-1.08v-19.77c-1.69.36-3.01.61-4.33.61-9.64,0-11.7-13.02-19.29-19.77,11.57-2.53,19.41-11.82,19.41-23.99ZM705.48,159.37h-11.69v-16.27h11.45c4.94,0,8.68,2.77,8.68,8.07s-3.5,8.2-8.44,8.2Z"/>
  <path class="st0" d="M803.96,213.85c25.91,0,46.52-20.37,46.52-46.04s-20.61-46.04-46.52-46.04-46.53,20.37-46.53,46.04,20.61,46.04,46.53,46.04ZM803.96,143.94c13.02,0,22.42,10.48,22.42,23.87s-9.4,23.87-22.42,23.87-22.42-10.48-22.42-23.87,9.4-23.87,22.42-23.87Z"/>
  <path class="st0" d="M871.46,149.12c0,25.07,31.46,23.74,31.46,36.4,0,4.46-3.74,8.08-9.77,8.08-4.34,0-9.64-1.81-15.55-6.51l-10.97,15.19c9.64,8.32,18.92,11.57,28.2,11.57,21.09,0,32.67-13.98,32.67-28.08,0-26.52-32.54-26.04-32.54-37.25,0-3.86,3.01-7.35,9.04-7.35,4.33,0,8.79,2.17,13.01,5.3l9.89-15.67c-7.84-6.02-16.88-9.04-25.32-9.04-17.36,0-30.13,12.53-30.13,27.36Z"/>
  <path class="st0" d="M979.11,141.17c4.33,0,8.79,2.17,13.01,5.3l9.89-15.67c-7.84-6.02-16.88-9.04-25.32-9.04-17.36,0-30.13,12.53-30.13,27.36,0,25.07,31.46,23.74,31.46,36.4,0,4.46-3.74,8.08-9.77,8.08-4.34,0-9.64-1.81-15.55-6.51l-10.97,15.19c9.64,8.32,18.92,11.57,28.2,11.57,21.09,0,32.67-13.98,32.67-28.08,0-26.52-32.54-26.04-32.54-37.25,0-3.86,3.01-7.35,9.04-7.35Z"/>
  <polygon class="st0" points="1080 143.82 1080 123.33 1046.49 123.33 1024.19 123.33 1024.19 212.28 1035.76 212.28 1080 212.28 1080 191.79 1046.49 191.79 1046.49 177.69 1077.58 177.69 1077.58 157.68 1046.49 157.68 1046.49 143.82 1080 143.82"/>
  <polygon class="st0" points="457.77 313.31 425.71 313.31 425.71 244.85 403.41 244.85 403.41 333.8 457.77 333.8 457.77 313.31"/>
  <polygon class="st0" points="535.03 265.34 535.03 244.85 501.53 244.85 479.23 244.85 479.23 333.8 490.8 333.8 535.03 333.8 535.03 313.31 501.53 313.31 501.53 299.21 532.62 299.21 532.62 279.2 501.53 279.2 501.53 265.34 535.03 265.34"/>
  <path class="st0" d="M593.62,243.04l-42.31,90.76h23.62l4.46-11.09h28.45l4.46,11.09h23.74l-42.42-90.76ZM585.78,306.8l7.84-19.52,7.83,19.52h-15.67Z"/>
  <path class="st0" d="M731.75,319.21v-39.41h-39.3v18.44h17.96v9.76c-4.58,3.25-10.48,5.18-16.51,5.18-13.14,0-23.51-10.48-23.51-23.74s10.12-23.99,23.99-23.99c6.51,0,13.14,2.29,18.08,6.03l11.93-17.24c-8.68-6.87-20.49-10.97-31.58-10.97-26.28,0-46.53,20.01-46.53,45.92s20.25,46.17,46.53,46.17c13.38,0,30.01-6.15,38.93-16.15Z"/>
  <path class="st0" d="M789.37,335.37c19.05,0,34.72-13.14,34.72-30.5v-60.03h-22.3v57.02c0,6.99-5.19,12.05-12.42,12.05s-12.41-5.06-12.41-12.05v-57.02h-22.3v60.03c0,17.36,15.67,30.5,34.71,30.5Z"/>
  <polygon class="st0" points="906.42 265.34 906.42 244.85 872.91 244.85 850.61 244.85 850.61 333.8 862.18 333.8 906.42 333.8 906.42 313.31 872.91 313.31 872.91 299.21 904 299.21 904 279.2 872.91 279.2 872.91 265.34 906.42 265.34"/>
</svg>