<?xml version="1.0" encoding="UTF-8"?>
<svg id="Layer_2" xmlns="http://www.w3.org/2000/svg" version="1.1" viewBox="0 0 590.8 346.3">
  <!-- Generator: Adobe Illustrator 30.3.0, SVG Export Plug-In . SVG Version: 2.1.3 Build 182)  -->
  <g id="Layer_2-2">
    <g id="uuid-ae5a5a29-faaa-49e3-b561-94f965881861">
      <g>
        <g>
          <path d="M115.9,134.4v8.6c0,3.3-1,5.9-2.9,7.9-2,1.9-4.8,2.9-8.4,2.9h-30.3c-1.9,0-3.8-.4-5.4-1.1s-3-1.8-4-3.3-1.5-3.5-1.5-5.9v-9.4h14.1v8h24.3v-7.4l-32-7.9c-1.7-.4-2.9-1-3.9-1.8s-1.6-1.8-2-3c-.4-1.2-.5-2.8-.5-4.6v-10.3c0-3.2.9-5.5,2.6-6.8,1.7-1.4,4.2-2.1,7.2-2.1h32.3c2.9,0,5.1.5,6.6,1.4s2.5,2.3,3,4.1.8,3.8.8,6.2v7h-14.2v-7.2h-24.3v6.7l32.1,7.9c1.8.5,3.1,1.1,4,1.8.9.7,1.5,1.8,1.9,3.1.4,1.3.6,3.1.6,5.3h0Z"/>
          <path d="M163.7,153.7l-4.2-13,3.3,2.6h-28l3.3-2.5-4.2,12.9h-14.7l18.8-55.6h21.8l18.6,55.6h-14.7,0ZM148.2,109.5l-8,24.9-1.8-2.3h21l-1.7,2.5-8-25s-1.5,0-1.5,0Z"/>
          <path d="M192.8,153.7v-43.4h-19.1v-12.1h52.6v12.1h-19.1v43.4h-14.5Z"/>
          <path d="M269.8,98.1h14.2v44.6c0,1.8-.4,3.5-1.2,5.2s-2,3.1-3.7,4.1c-1.6,1.1-3.7,1.6-6.1,1.6h-30.6c-1.9,0-3.8-.4-5.4-1.1s-3-1.8-4-3.3-1.5-3.5-1.5-5.9v-45.3h14.1v43.2h24.3v-43.2h0Z"/>
          <path d="M306.4,153.7h-14.4v-55.6h43.5c3.1,0,5.4.9,6.7,2.7,1.3,1.8,2,4.3,2,7.6v19.9c0,3.2-.7,5.6-2.1,7.1-1.4,1.5-3.7,2.3-7,2.3h-3.1l2.3-7.1,9.2,23.1h-14.5l-6.1-16h-16.7v16h0ZM306.4,126.3h23.6v-15.7h-23.6v15.7Z"/>
          <path d="M351.5,153.7v-55.6h43.8c3.6,0,6,1,7.2,3.1,1.2,2.1,1.8,4.9,1.8,8.5v33c0,1.8-.4,3.5-1.3,5.2-.9,1.7-2.1,3.1-3.9,4.1-1.7,1.1-3.8,1.6-6.2,1.6h-41.4,0ZM365.9,141.3h24.3v-30.7h-24.3v30.7Z"/>
          <path d="M452.2,153.7l-4.2-13,3.3,2.6h-28l3.3-2.5-4.2,12.9h-14.7l18.8-55.6h21.8l18.5,55.6h-14.7,0ZM436.6,109.5l-8,24.9-1.8-2.3h21l-1.7,2.5-8-25s-1.5,0-1.5,0Z"/>
          <path d="M496,153.7h-14.5v-21.9l-21.2-33.7h15.2l13.3,22h0l13.4-22h15.3l-21.7,33.6v22h0Z"/>
          <path d="M120.5,226.2h-19l-17.8-27.9c-.8-1.2-1.6-2.5-2.4-3.9s-1.7-2.9-2.7-4.6c-.9-1.6-2-3.5-3.2-5.6l1.3-.3v42.2h-13v-55.6h18.2l17.5,28c1,1.5,1.9,3,2.9,4.7s1.9,3.4,3,5.2c1.1,1.8,2.2,3.8,3.5,6l-1.2.3c0-3.4,0-6.4-.1-8.9s0-4.7,0-6.5v-28.8h13v55.6h0Z"/>
          <path d="M129.4,226.2v-55.6h14.4v55.6h-14.4Z"/>
          <path d="M205.1,187.8h-13.9v-4.9h-24.7v31.2h24.6v-9.7h-14.8v-10.6h28.8v21.5c0,1.8-.4,3.5-1.1,5.2s-1.9,3.1-3.7,4.1c-1.7,1.1-4,1.6-6.9,1.6h-28.9c-3.9,0-6.9-1-9-3.1s-3.1-4.9-3.1-8.5v-32.6c0-4.4,1-7.4,2.9-8.9,1.9-1.6,4.5-2.4,7.8-2.4h31.2c3.8,0,6.6.9,8.2,2.7,1.6,1.8,2.5,4.7,2.5,8.6v5.7h0Z"/>
          <path d="M212.9,226.2v-55.6h14.4v22.2h25.5v-22.2h14.3v55.6h-14.3v-21.4h-25.5v21.4h-14.4,0Z"/>
          <path d="M291.2,226.2v-43.4h-19.1v-12.1h52.6v12.1h-19.1v43.4h-14.5Z"/>
          <path d="M63.7,298.8v-55.6h14.4v43.2h33.6v12.4h-48,0Z"/>
          <path d="M160,298.8l-4.2-13,3.3,2.6h-28l3.3-2.5-4.2,12.9h-14.7l18.8-55.6h21.8l18.6,55.6h-14.7,0ZM144.4,254.6l-8,24.9-1.8-2.3h21l-1.7,2.5-8-25h-1.5Z"/>
          <path d="M216.5,276.4h14.2v11.5c0,1.8-.4,3.5-1.1,5.2-.7,1.7-2,3-3.7,4.1-1.7,1-4,1.6-6.9,1.6h-28.8c-3.9,0-6.9-1-9-3.1s-3.1-4.9-3.1-8.5v-32.4c0-4.4.9-7.4,2.9-9.1s4.5-2.5,7.8-2.5h31.2c3.8,0,6.6.9,8.2,2.8,1.6,1.9,2.5,4.8,2.5,8.9v7.3h-14.2v-6.6h-24.4v30.7h24.4v-10h0Z"/>
          <path d="M252.2,298.8h-14.4v-55.6h43.5c3.1,0,5.4.9,6.7,2.7,1.3,1.8,2,4.3,2,7.6v19.9c0,3.2-.7,5.6-2.1,7.1-1.4,1.5-3.7,2.3-7,2.3h-3.1l2.3-7.1,9.2,23.1h-14.5l-6.1-16h-16.7v16h0ZM252.2,271.4h23.6v-15.7h-23.6v15.7Z"/>
          <path d="M308.2,298.8c-1.9,0-3.7-.4-5.4-1.1-1.6-.7-3-1.8-4-3.3-1-1.5-1.5-3.5-1.5-5.9v-36.4c0-3.2.9-5.5,2.6-6.8s4-2.1,6.8-2.1h36.2c3.5,0,5.9,1,7.2,3.1s1.9,4.9,1.9,8.6v32.9c0,1.8-.4,3.5-1.3,5.2-.9,1.7-2.2,3.1-3.9,4.1-1.7,1-3.8,1.6-6.2,1.6h-32.3,0ZM311.2,286.4h26.5v-30.7h-26.5v30.7Z"/>
          <path d="M412,279.5v8.5c0,3.3-1,5.9-3,7.9-2,1.9-4.8,2.9-8.4,2.9h-30.3c-1.9,0-3.8-.4-5.4-1.1-1.7-.7-3-1.8-4-3.3-1-1.5-1.5-3.5-1.5-5.9v-9.4h14.1v8h24.3v-7.4l-32-8c-1.6-.4-3-1-3.9-1.8s-1.6-1.8-2-3-.5-2.8-.5-4.6v-10.3c0-3.2.9-5.5,2.6-6.8s4.1-2.1,7.2-2.1h32.3c2.9,0,5.1.5,6.6,1.4,1.5.9,2.5,2.3,3,4.1s.8,3.9.8,6.2v7h-14.2v-7.2h-24.3v6.7l32,7.9c1.8.5,3.1,1,4,1.8.9.7,1.5,1.8,1.9,3.1s.6,3.1.6,5.3h0Z"/>
          <path d="M471.9,279.5v8.5c0,3.3-1,5.9-3,7.9-2,1.9-4.8,2.9-8.4,2.9h-30.3c-1.9,0-3.8-.4-5.4-1.1-1.7-.7-3-1.8-4-3.3-1-1.5-1.5-3.5-1.5-5.9v-9.4h14.1v8h24.3v-7.4l-32-8c-1.6-.4-3-1-3.9-1.8s-1.6-1.8-2-3-.5-2.8-.5-4.6v-10.3c0-3.2.9-5.5,2.6-6.8s4.1-2.1,7.2-2.1h32.3c2.9,0,5.1.5,6.6,1.4,1.5.9,2.5,2.3,3,4.1s.8,3.9.8,6.2v7h-14.2v-7.2h-24.3v6.7l32,7.9c1.8.5,3.1,1,4,1.8.9.7,1.5,1.8,1.9,3.1s.6,3.1.6,5.3h0Z"/>
          <path d="M479.5,298.8v-55.6h47.2v11.5h-32.8v10.2h23.8v11.4h-23.9v10.9h32.8v11.5h-47.2,0Z"/>
        </g>
        <path d="M548.5,346.3H42.2c-23.3,0-42.2-18.9-42.2-42.2V42.2C0,18.9,18.9,0,42.2,0h506.3c23.3,0,42.2,18.9,42.2,42.2v261.9c0,23.3-18.9,42.2-42.2,42.2ZM42.2,15.5c-14.7,0-26.7,12-26.7,26.7v261.9c0,14.7,12,26.7,26.7,26.7h506.3c14.7,0,26.7-12,26.7-26.7V42.2c0-14.7-12-26.7-26.7-26.7H42.2Z"/>
        <g>
          <path d="M168.1,41.4h-55.5c-5.7,0-9.5,3-10,7.5-.2,1.7-.4,3.1-.4,3.1h74s.1-1.1.2-2c.6-4.5-1.4-8.6-8.3-8.6"/>
          <path d="M175.6,56s-.2,1.5-.4,3.1c-.4,3.2-2.9,5.6-7.3,5.6h-15.8l-1.8,14.3h-12.5l2.8-23.1h34.9Z"/>
          <polygon points="67.4 41.3 100.9 41.4 99.6 51.9 66.1 51.9 67.4 41.3"/>
          <polygon points="65.6 56 99.1 56 98 64.7 77 64.7 76.5 69 97.5 69 96.3 79.1 62.7 79.1 65.6 56"/>
          <path d="M180,41.4h27.4c4.3,0,8.8,2,7.9,9-.2,1.2-.2,1.6-.2,1.6h-36.4l1.3-10.6h0Z"/>
          <polygon points="178.2 56 190.8 56 187.9 79 175.3 79.1 178.2 56"/>
          <polygon points="202 56 214.6 56 211.7 79 199.2 79.1 202 56"/>
          <path d="M129.2,56h-27.6c-.9,6,2.1,8.8,6.4,8.8h17l-.5,4.3h-24.4l-1.2,10h27.7c.9,0,7.1-.2,9.2-5.3.7-1.7,1.3-7.6,1.5-8.8,1-7.2-4-8.9-7.9-8.9"/>
        </g>
      </g>
      <g>
        <g>
          <path d="M382.7,175.4h-9.4l1.2,2.1v7.9l-.6,2h3.7l-.5-1.7v-1.4h5.5c2,0,3.7-1.7,3.7-3.7v-1.5c0-2.1-1.7-3.7-3.7-3.7ZM377,178.4h4.9c.8,0,1.4.6,1.4,1.4s-.6,1.4-1.4,1.4h-4.4v-1.6l-.6-1.3h0Z"/>
          <polygon points="377.6 208.8 377.6 200.8 373.4 200.8 374.5 203.2 374.5 211.8 384 211.8 384.9 208.1 382.8 208.8 377.6 208.8"/>
          <polygon points="377.6 196.7 377.6 188.7 373.4 188.7 374.5 191.1 374.5 199.7 384.7 199.7 385.6 196.1 383.5 196.7 377.6 196.7"/>
        </g>
        <g>
          <g>
            <path d="M367.6,174.4h-.3c-1.3,0-2.5.2-3.6.4-1.3.2-2.4.6-3.4,1-1.8.8-3.3,1.9-4.6,3.4,0,0-.1.1-.2.2-.6.7-1,1.3-1.5,1.9-1.3,1.9-1.9,3.5-1.9,4.9,0,1.3.2,2.4.7,3.4.4.9,1,1.7,1.5,2.4.2.3.4.5.6.8,1.7,2.5,3.1,4.7,3.9,6.4.6,1.2.9,2.1.9,2.6v7.1s0,.2,0,.2c0,.2,0,.5,0,.7v.3c.1.8.3,1.5.5,2.2,0,.2.2.5.3.7.4.9,1,1.6,1.6,2.2,1.4,1.2,3.1,1.8,4.3,2l.4,4.7,1.1.6v-7.7h0c-.6,0-2.6-.1-4-1.4-.2-.2-.4-.4-.6-.7-.5-.7-.8-1.6-1-2.7h0c0-.4,0-.6,0-.9v-7.2c0-1.8-1.8-5.2-5.3-10.3-.2-.3-.4-.6-.6-.9-1.8-2.4-3.3-4.5,1-9.6,2.4-2.8,5.4-4,10.5-4.1h0v-2.5h-.4,0Z"/>
            <path d="M364.1,187.8c-1.2,1-2.1,2.3-2.9,3.6l.8,1.3c.9-1.4,2-2.6,3.2-3.5.9-.6,1.8-1.1,2.8-1.3v-2.1c-.5.1-1,.3-1.5.5-.9.4-1.7.9-2.4,1.5h0s0,0,0,0Z"/>
            <path d="M362.2,183c-1.5,1.2-2.5,2.6-3.5,4.1l.8,1.3c1-1.6,2.3-3,3.7-4,1.4-1,3-1.4,4.7-1.5v-2.2c-.9,0-1.8.3-2.7.6-1.1.4-2.1,1-3.1,1.7h0Z"/>
          </g>
          <path d="M345.7,170.7l.9,42.1,22.6,13.4,22.6-13.4.9-42.1h-47.1,0ZM349.2,211.3v-5.6c-.1,0,11.1,6.5,11.1,6.5-.2-.7-.4-1.4-.5-2.2v-.3c0-.2,0-.5,0-.7v-.2l-10.7-6.2v-6.1c-.1,0,10.6,6.3,10.6,6.3v-1c0-.5-.3-1.4-.9-2.6l-9.9-5.8v-6.1c-.1,0,3.9,2.4,3.9,2.4-.5-1-.8-2.1-.7-3.4l-3.4-2v-6.1c-.1,0,5.3,3.2,5.3,3.2.4-.6.9-1.2,1.5-1.9,0,0,.1-.1.2-.2l-7.1-4.2v-1.8s7.4,0,7.4,0l4.4,2.5c1-.4,2.2-.8,3.4-1l-2.6-1.5h7v49.1l-1.1-.6-17.7-10.5ZM389.3,211.3l-18.8,11.1v-49.1h19.6l-.8,38Z"/>
        </g>
      </g>
    </g>
  </g>
</svg>