<?xml version="1.0" encoding="UTF-8"?>
<svg id="Layer_2" xmlns="http://www.w3.org/2000/svg" xmlns:xlink="http://www.w3.org/1999/xlink" viewBox="0 0 590.77 346.34">
  <defs>
    <style>
      .cls-1 {
        fill: url(#radial-gradient);
      }

      .cls-2 {
        fill: #ef4135;
      }

      .cls-3 {
        fill: #fff;
      }

      .cls-4 {
        fill: #ef4135;
      }
    </style>
    <radialGradient id="radial-gradient" cx="337.37" cy="-198.79" fx="337.37" fy="-198.79" r="629.11" gradientTransform="translate(94 403.74) scale(1 -1)" gradientUnits="userSpaceOnUse">
      <stop offset="0" stop-color="#ffe766"/>
      <stop offset="1" stop-color="#ffcb06"/>
    </radialGradient>
  </defs>
  <g id="Layer_2-2" data-name="Layer_2">
    <g>
      <g>
        <path class="cls-3" d="M115.94,134.38v8.55c0,3.31-.98,5.93-2.95,7.86-1.97,1.94-4.77,2.91-8.42,2.91h-30.26c-1.94,0-3.75-.36-5.43-1.07-1.68-.71-3.02-1.82-4.02-3.33-1-1.51-1.5-3.46-1.5-5.85v-9.4h14.1v8.03h24.27v-7.44l-31.97-7.95c-1.65-.4-2.95-.98-3.89-1.75-.94-.77-1.6-1.77-1.97-2.99-.37-1.22-.55-2.75-.55-4.57v-10.34c0-3.19.87-5.47,2.61-6.84,1.74-1.37,4.15-2.05,7.22-2.05h32.31c2.91,0,5.1.47,6.58,1.41,1.48.94,2.49,2.29,3.03,4.06.54,1.77.81,3.85.81,6.24v7.01h-14.19v-7.18h-24.27v6.67l32.05,7.86c1.77.46,3.09,1.06,3.97,1.79.88.74,1.51,1.78,1.88,3.12.37,1.34.56,3.09.56,5.26Z"/>
        <path class="cls-3" d="M163.72,153.69l-4.19-12.99,3.33,2.56h-28.04l3.33-2.48-4.19,12.91h-14.7l18.8-55.56h21.8l18.55,55.56h-14.7ZM148.17,109.5l-8.04,24.87-1.79-2.31h21.03l-1.71,2.48-8.03-25.04h-1.45Z"/>
        <path class="cls-3" d="M192.78,153.69v-43.42h-19.06v-12.14h52.57v12.14h-19.06v43.42h-14.45Z"/>
        <path class="cls-3" d="M269.79,98.14h14.19v44.62c0,1.77-.41,3.5-1.24,5.21s-2.05,3.09-3.67,4.15c-1.62,1.05-3.66,1.58-6.11,1.58h-30.6c-1.94,0-3.75-.36-5.43-1.07-1.68-.71-3.02-1.82-4.02-3.33-1-1.51-1.5-3.46-1.5-5.85v-45.3h14.1v43.16h24.27v-43.16Z"/>
        <path class="cls-3" d="M306.38,153.69h-14.36v-55.56h43.51c3.13,0,5.36.9,6.67,2.69,1.31,1.79,1.97,4.32,1.97,7.56v19.92c0,3.25-.7,5.63-2.09,7.14-1.4,1.51-3.72,2.27-6.97,2.27h-3.08l2.31-7.09,9.23,23.08h-14.45l-6.07-15.98h-16.67v15.98ZM306.38,126.34h23.59v-15.73h-23.59v15.73Z"/>
        <path class="cls-3" d="M351.51,153.69v-55.56h43.76c3.59,0,5.98,1.04,7.18,3.12,1.2,2.08,1.79,4.91,1.79,8.5v32.99c0,1.77-.43,3.5-1.28,5.21-.86,1.71-2.14,3.09-3.85,4.15-1.71,1.05-3.79,1.58-6.24,1.58h-41.37ZM365.87,141.3h24.27v-30.69h-24.27v30.69Z"/>
        <path class="cls-3" d="M452.19,153.69l-4.19-12.99,3.33,2.56h-28.04l3.33-2.48-4.19,12.91h-14.7l18.8-55.56h21.8l18.55,55.56h-14.7ZM436.64,109.5l-8.04,24.87-1.79-2.31h21.03l-1.71,2.48-8.03-25.04h-1.45Z"/>
        <path class="cls-3" d="M495.96,153.69h-14.45v-21.88l-21.2-33.68h15.21l13.33,21.97h.08l13.42-21.97h15.3l-21.71,33.59v21.97Z"/>
        <path class="cls-3" d="M120.47,226.24h-18.97l-17.78-27.95c-.8-1.2-1.61-2.49-2.44-3.89-.83-1.4-1.71-2.92-2.65-4.57-.94-1.65-2.01-3.5-3.21-5.56l1.28-.26v42.22h-12.99v-55.56h18.21l17.52,28.04c.97,1.48,1.92,3.03,2.86,4.66s1.95,3.35,3.03,5.17c1.08,1.82,2.25,3.82,3.5,5.98l-1.2.34c-.06-3.42-.1-6.38-.13-8.89-.03-2.51-.04-4.67-.04-6.5v-28.8h12.99v55.56Z"/>
        <path class="cls-3" d="M129.36,226.24v-55.56h14.36v55.56h-14.36Z"/>
        <path class="cls-3" d="M205.09,187.77h-13.93v-4.87h-24.7v31.2h24.62v-9.66h-14.79v-10.6h28.8v21.54c0,1.77-.36,3.49-1.07,5.17-.71,1.68-1.94,3.05-3.68,4.1-1.74,1.05-4.03,1.58-6.88,1.58h-28.89c-3.93,0-6.92-1.04-8.97-3.12s-3.08-4.92-3.08-8.5v-32.65c0-4.39.97-7.36,2.91-8.93,1.94-1.57,4.53-2.35,7.78-2.35h31.2c3.82,0,6.55.91,8.21,2.73,1.65,1.82,2.48,4.7,2.48,8.63v5.73Z"/>
        <path class="cls-3" d="M212.95,226.24v-55.56h14.36v22.22h25.47v-22.22h14.27v55.56h-14.27v-21.45h-25.47v21.45h-14.36Z"/>
        <path class="cls-3" d="M291.16,226.24v-43.42h-19.06v-12.14h52.57v12.14h-19.06v43.42h-14.45Z"/>
        <path class="cls-3" d="M63.72,298.78v-55.56h14.36v43.16h33.59v12.39h-47.95Z"/>
        <path class="cls-3" d="M159.96,298.78l-4.19-12.99,3.33,2.56h-28.04l3.33-2.48-4.19,12.91h-14.7l18.8-55.56h21.8l18.55,55.56h-14.7ZM144.41,254.59l-8.04,24.87-1.79-2.31h21.03l-1.71,2.48-8.03-25.04h-1.45Z"/>
        <path class="cls-3" d="M216.54,276.38h14.19v11.54c0,1.77-.37,3.49-1.11,5.17-.74,1.68-1.97,3.05-3.67,4.1-1.71,1.05-4.02,1.58-6.92,1.58h-28.8c-3.93,0-6.92-1.04-8.97-3.12-2.05-2.08-3.08-4.92-3.08-8.5v-32.39c0-4.39.95-7.41,2.86-9.06,1.91-1.65,4.52-2.48,7.82-2.48h31.2c3.82,0,6.55.94,8.21,2.82,1.65,1.88,2.48,4.84,2.48,8.89v7.35h-14.19v-6.58h-24.36v30.69h24.36v-10Z"/>
        <path class="cls-3" d="M252.19,298.78h-14.36v-55.56h43.51c3.13,0,5.36.9,6.67,2.69,1.31,1.79,1.97,4.32,1.97,7.56v19.92c0,3.25-.7,5.63-2.09,7.14-1.4,1.51-3.72,2.27-6.97,2.27h-3.08l2.31-7.09,9.23,23.08h-14.45l-6.07-15.98h-16.67v15.98ZM252.19,271.43h23.59v-15.73h-23.59v15.73Z"/>
        <path class="cls-3" d="M308.17,298.78c-1.94,0-3.73-.36-5.38-1.07-1.65-.71-2.99-1.82-4.02-3.33-1.03-1.51-1.54-3.46-1.54-5.85v-36.41c0-3.19.85-5.47,2.56-6.84,1.71-1.37,3.99-2.05,6.84-2.05h36.24c3.53,0,5.93,1.04,7.18,3.12,1.25,2.08,1.88,4.94,1.88,8.59v32.91c0,1.77-.44,3.5-1.33,5.21-.88,1.71-2.18,3.09-3.89,4.15-1.71,1.05-3.79,1.58-6.24,1.58h-32.31ZM311.25,286.38h26.5v-30.69h-26.5v30.69Z"/>
        <path class="cls-3" d="M412.02,279.46v8.55c0,3.3-.98,5.93-2.95,7.86-1.97,1.94-4.77,2.91-8.42,2.91h-30.26c-1.94,0-3.75-.36-5.43-1.07-1.68-.71-3.02-1.82-4.02-3.33-1-1.51-1.5-3.46-1.5-5.85v-9.4h14.1v8.03h24.27v-7.44l-31.97-7.95c-1.65-.4-2.95-.98-3.89-1.75-.94-.77-1.6-1.77-1.97-2.99-.37-1.22-.55-2.75-.55-4.57v-10.34c0-3.19.87-5.47,2.61-6.84,1.74-1.37,4.15-2.05,7.22-2.05h32.31c2.91,0,5.1.47,6.58,1.41,1.48.94,2.49,2.29,3.03,4.06.54,1.77.81,3.85.81,6.24v7.01h-14.19v-7.18h-24.27v6.67l32.05,7.86c1.77.46,3.09,1.05,3.97,1.79.88.74,1.51,1.78,1.88,3.12.37,1.34.56,3.09.56,5.26Z"/>
        <path class="cls-3" d="M471.85,279.46v8.55c0,3.3-.98,5.93-2.95,7.86-1.97,1.94-4.77,2.91-8.42,2.91h-30.26c-1.94,0-3.75-.36-5.43-1.07-1.68-.71-3.02-1.82-4.02-3.33-1-1.51-1.5-3.46-1.5-5.85v-9.4h14.1v8.03h24.27v-7.44l-31.97-7.95c-1.65-.4-2.95-.98-3.89-1.75-.94-.77-1.6-1.77-1.97-2.99-.37-1.22-.55-2.75-.55-4.57v-10.34c0-3.19.87-5.47,2.61-6.84,1.74-1.37,4.15-2.05,7.22-2.05h32.31c2.91,0,5.1.47,6.58,1.41,1.48.94,2.49,2.29,3.03,4.06.54,1.77.81,3.85.81,6.24v7.01h-14.19v-7.18h-24.27v6.67l32.05,7.86c1.77.46,3.09,1.05,3.97,1.79.88.74,1.51,1.78,1.88,3.12.37,1.34.56,3.09.56,5.26Z"/>
        <path class="cls-3" d="M479.46,298.78v-55.56h47.18v11.54h-32.82v10.17h23.85v11.37h-23.85v10.94h32.82v11.54h-47.18Z"/>
      </g>
      <path class="cls-3" d="M548.55,346.34H42.21c-23.27,0-42.21-18.94-42.21-42.21V42.21C0,18.94,18.94,0,42.21,0h506.34c23.28,0,42.21,18.94,42.21,42.21v261.92c0,23.28-18.94,42.21-42.21,42.21ZM42.21,15.49c-14.73,0-26.72,11.99-26.72,26.72v261.92c0,14.73,11.99,26.72,26.72,26.72h506.34c14.73,0,26.72-11.99,26.72-26.72V42.21c0-14.73-11.98-26.72-26.72-26.72H42.21Z"/>
      <g>
        <path class="cls-4" d="M168.07,41.36s-14.67,0-27.01,0c-12.63,0-25.52,0-28.52,0-5.69,0-9.46,2.99-9.99,7.47-.2,1.65-.39,3.11-.39,3.11h73.99s.14-1.09.25-1.97c.56-4.51-1.35-8.61-8.33-8.61"/>
        <path class="cls-4" d="M175.65,55.97s-.17,1.49-.39,3.12c-.45,3.23-2.85,5.63-7.32,5.63h-15.75l-1.79,14.33h-12.54s2.84-23.08,2.84-23.08h34.95Z"/>
        <polygon class="cls-4" points="67.38 41.35 100.94 41.36 99.63 51.94 66.08 51.94 67.38 41.35"/>
        <polygon class="cls-4" points="65.58 55.97 99.13 55.97 98.04 64.72 77.03 64.72 76.5 69.03 97.51 69.03 96.26 79.05 62.71 79.05 65.58 55.97"/>
        <path class="cls-4" d="M180.01,41.36h27.36c4.32,0,8.83,2.01,7.93,8.95-.16,1.24-.21,1.63-.21,1.63h-36.4l1.31-10.58Z"/>
        <polygon class="cls-4" points="178.2 55.97 190.75 55.97 187.88 79.04 175.33 79.05 178.2 55.97"/>
        <polygon class="cls-2" points="202.04 55.97 214.58 55.97 211.72 79.04 199.17 79.05 202.04 55.97"/>
        <path class="cls-4" d="M129.22,55.97c-2.17,0-23.27,0-27.56,0-.93,6.02,2.09,8.75,6.36,8.75,2.32,0,16.98,0,16.98,0l-.53,4.33h-24.42s-1.24,10.02-1.24,10.02c0,0,26.58,0,27.66,0,.89-.07,7.11-.23,9.23-5.32.69-1.65,1.3-7.57,1.47-8.81.99-7.22-4.01-8.94-7.94-8.94"/>
      </g>
    </g>
    <g>
      <g>
        <polygon points="346.57 171.69 347.44 212.3 369.26 225.22 369.26 171.69 346.57 171.69"/>
        <polygon points="369.26 171.69 369.26 225.22 391.08 212.3 391.95 171.69 369.26 171.69"/>
      </g>
      <g>
        <path class="cls-3" d="M382.7,175.38h-9.37l1.2,2.07v7.91l-.59,2h3.74l-.48-1.66v-1.35h5.5c2.05,0,3.72-1.67,3.72-3.72v-1.53c0-2.05-1.67-3.72-3.72-3.72ZM377.01,178.43h4.93c.79,0,1.44.65,1.44,1.44s-.65,1.44-1.44,1.44h-4.36v-1.58l-.56-1.3Z"/>
        <polygon class="cls-3" points="377.57 208.78 377.57 200.78 373.37 200.78 374.53 203.16 374.53 211.83 384.03 211.83 384.94 208.15 382.81 208.78 377.57 208.78"/>
        <polygon class="cls-3" points="377.57 196.67 377.57 188.67 373.37 188.67 374.53 191.05 374.53 199.72 384.68 199.72 385.59 196.05 383.46 196.67 377.57 196.67"/>
      </g>
      <g>
        <g>
          <path class="cls-3" d="M367.57,174.42h-.33c-1.32.06-2.54.18-3.65.38-1.26.23-2.39.57-3.43,1.02-1.77.78-3.26,1.89-4.59,3.4-.05.06-.11.12-.17.18-.56.66-1.04,1.29-1.45,1.89-1.3,1.92-1.85,3.54-1.94,4.94-.09,1.32.22,2.45.7,3.43.44.91,1.02,1.69,1.54,2.41.2.27.39.53.58.8,1.71,2.49,3.06,4.71,3.9,6.37.6,1.19.93,2.08.93,2.58v1s.04,6.09.04,6.09v.16c0,.25.03.48.06.71l.03.28c.08.8.24,1.54.48,2.21.09.25.19.48.29.71.43.89.95,1.6,1.58,2.17,1.39,1.25,3.07,1.76,4.3,1.97l.44,4.66,1.08.64v-7.67h-.03c-.58,0-2.6-.14-4.03-1.44-.23-.21-.42-.45-.57-.67-.51-.7-.83-1.6-.95-2.67l-.02-.12c-.03-.27-.06-.52-.06-.79l-.04-7.24c0-1.78-1.78-5.25-5.26-10.32-.2-.29-.41-.57-.62-.86-1.78-2.43-3.32-4.53,1.04-9.64,2.41-2.82,5.44-4,10.51-4.07h.03v-2.51h-.39Z"/>
          <path class="cls-3" d="M364.06,187.83c-1.18,1.04-2.11,2.27-2.87,3.56l.76,1.3c.89-1.36,1.96-2.59,3.21-3.51.86-.64,1.82-1.09,2.79-1.29v-2.12c-.53.12-1.04.28-1.53.5-.88.4-1.67.94-2.37,1.54Z"/>
          <path class="cls-3" d="M362.17,183.02c-1.46,1.16-2.55,2.61-3.46,4.12l.78,1.34c1.05-1.57,2.26-3.02,3.74-4.01,1.41-.96,3.04-1.44,4.72-1.49v-2.23c-.92.09-1.84.27-2.73.58-1.11.39-2.15.97-3.06,1.69Z"/>
        </g>
        <path class="cls-1" d="M345.71,170.68l.9,42.15,22.64,13.41,22.64-13.41.9-42.15s-47.09,0-47.09,0ZM349.2,211.32l-.12-5.57,11.18,6.53c-.24-.67-.4-1.41-.48-2.21l-.03-.28c-.03-.23-.05-.46-.05-.71v-.16s-10.69-6.24-10.69-6.24l-.13-6.15,10.78,6.29v-1c0-.49-.34-1.39-.94-2.58l-9.91-5.78-.13-6.15,4.03,2.35c-.48-.98-.79-2.11-.7-3.43l-3.4-1.98-.13-6.15,5.47,3.19c.41-.6.89-1.23,1.45-1.89.05-.06.11-.12.17-.18l-7.15-4.17-.04-1.76h7.43l4.35,2.54c1.04-.45,2.17-.79,3.43-1.02l-2.6-1.52h6.97v49.14l-1.08-.64-17.68-10.47ZM389.32,211.32l-18.76,11.11v-49.14h19.57l-.81,38.03Z"/>
      </g>
    </g>
  </g>
</svg>