<?xml version="1.0" encoding="UTF-8"?>
<svg id="Layer_2" data-name="Layer 2" xmlns="http://www.w3.org/2000/svg" viewBox="0 0 675.77 35.67">
  <defs>
    <style>
      .cls-1 {
        fill: #fff;
      }
    </style>
  </defs>
  <g id="Layer_2-2" data-name="Layer 2">
    <g id="Layer_1-2" data-name="Layer 1-2">
      <g>
        <g>
          <path class="cls-1" d="M96.47,0h-50.84c-5.21,0-8.66,2.74-9.15,6.84-.18,1.51-.35,2.84-.35,2.84h67.75s.13-1,.23-1.8c.5-4.12-1.25-7.88-7.64-7.88"/>
          <path class="cls-1" d="M103.42,13.38s-.15,1.37-.36,2.86c-.41,2.95-2.61,5.15-6.7,5.15h-14.42l-1.63,13.12h-11.48l2.61-21.13h32-.02Z"/>
          <polygon class="cls-1" points="4.28 0 35.01 0 33.81 9.69 3.08 9.69 4.28 0"/>
          <polygon class="cls-1" points="2.62 13.38 33.35 13.38 32.36 21.39 13.12 21.39 12.63 25.35 31.86 25.35 30.72 34.52 0 34.52 2.62 13.38"/>
          <path class="cls-1" d="M107.41,0h25.06c3.96,0,8.08,1.84,7.26,8.2-.15,1.14-.19,1.49-.19,1.49h-33.33l1.2-9.69Z"/>
          <polygon class="cls-1" points="105.75 13.38 117.24 13.38 114.62 34.51 103.13 34.52 105.75 13.38"/>
          <polygon class="cls-1" points="127.58 13.38 139.07 13.38 136.44 34.51 124.95 34.52 127.58 13.38"/>
          <path class="cls-1" d="M60.9,13.39h-25.24c-.85,5.52,1.91,8.01,5.82,8.01h15.54l-.49,3.96h-22.36l-1.13,9.17h25.33c.81-.06,6.51-.21,8.45-4.87.63-1.51,1.19-6.93,1.35-8.07.9-6.61-3.67-8.19-7.27-8.19"/>
        </g>
        <g>
          <path class="cls-1" d="M175.94,22.6v5.46c0,2.16-.5,3.84-1.49,5.04s-2.49,1.8-4.51,1.8h-7.85c-1.24,0-2.3-.25-3.18-.74s-1.58-1.25-2.09-2.28-.77-2.28-.77-3.77v-5.14h7.27v5.3h5.36v-5.25l-9.23-5.09c-.85-.46-1.52-.94-2.01-1.43-.5-.49-.85-1.1-1.06-1.8-.21-.71-.32-1.61-.32-2.71v-5.52c0-2.23.54-3.79,1.62-4.69,1.08-.9,2.55-1.35,4.43-1.35h7.58c1.56,0,2.79.26,3.71.77.92.51,1.57,1.28,1.96,2.31s.58,2.37.58,4.03v4.4h-7.27v-4.88h-5.36v4.61l9.23,4.88c.92.46,1.61.94,2.07,1.43.46.5.8,1.11,1.01,1.83.21.73.32,1.65.32,2.78h0Z"/>
          <path class="cls-1" d="M192.17,34.9l-1.01-8.01,1.75,1.59h-9.02l1.75-1.49-1.01,7.9h-7.48L182.15.43h12.68l4.83,34.48h-7.49ZM188.03,7.11l-1.96,16.39-1.43-1.43h7.48l-1.38,1.27-1.86-16.23h-.85,0Z"/>
          <path class="cls-1" d="M204.69,34.9V7.16h-6.63V.43h20.63v6.74h-6.52v27.74h-7.48Z"/>
          <path class="cls-1" d="M233.49.43h7.37v27.63c0,1.41-.22,2.63-.66,3.66s-1.11,1.81-1.99,2.36-2,.82-3.34.82h-8.38c-1.17,0-2.2-.25-3.1-.74-.9-.5-1.6-1.24-2.1-2.23s-.74-2.23-.74-3.71V.43h7.32v27.79h5.62V.43h0Z"/>
          <path class="cls-1" d="M251.26,34.9h-7.37V.43h15.38c1.7,0,2.91.5,3.63,1.48.72.99,1.09,2.6,1.09,4.83v11.51c0,2.16-.36,3.7-1.09,4.64-.73.94-1.94,1.41-3.63,1.41h-.9l2.39-1.75,3.61,12.36h-7.42l-2.81-10.24h-2.86v10.24h-.02ZM251.26,18.14h5.41V7.16h-5.41v10.98h0Z"/>
          <path class="cls-1" d="M266.69,34.9V.43h14.75c2.23,0,3.72.65,4.48,1.94.76,1.29,1.14,3.05,1.14,5.28v20.47c0,1.1-.18,2.17-.53,3.24-.35,1.06-.97,1.92-1.86,2.57-.88.66-2.09.98-3.61.98h-14.37ZM274.06,28.22h5.68V7.16h-5.68v21.06Z"/>
          <path class="cls-1" d="M303.5,34.9l-1.01-8.01,1.75,1.59h-9.02l1.75-1.49-1.01,7.9h-7.48L293.47.43h12.68l4.83,34.48h-7.48,0ZM299.36,7.11l-1.96,16.39-1.43-1.43h7.48l-1.38,1.27-1.86-16.23h-.85Z"/>
          <path class="cls-1" d="M323.44,34.9h-7.48v-13.21l-7.37-21.27h7.64l3.5,13.47h.21l3.66-13.47h7.58l-7.74,21.22v13.26Z"/>
          <path class="cls-1" d="M365.08,34.9h-9.49l-3.92-11.4c-.32-.99-.64-2.22-.95-3.69-.32-1.47-.67-3.13-1.06-4.99-.39-1.86-.79-3.86-1.22-6.02l.27-.05c.11,1.98.19,3.83.24,5.54.05,1.72.1,3.22.13,4.51.04,1.29.05,2.34.05,3.16v12.94h-6.21V.43h8.8l4.35,13.63c.39,1.27.77,2.71,1.14,4.32.37,1.61.78,3.36,1.22,5.25s.89,3.84,1.35,5.86l-.21.11c-.25-2.86-.43-5.41-.56-7.64-.12-2.23-.19-4.1-.19-5.62V.43h6.26v34.48h0Z"/>
          <path class="cls-1" d="M368.21,34.9V.43h7.42v34.48h-7.42Z"/>
          <path class="cls-1" d="M398.86,11.57h-7.32v-4.4h-5.52v21.06h5.62v-7.16h-3.02v-5.83h10.24v12.84c0,1.17-.17,2.28-.5,3.34-.34,1.06-.94,1.91-1.8,2.55-.87.64-2.06.96-3.58.96h-8.17c-1.84,0-3.31-.53-4.4-1.59-1.1-1.06-1.64-2.72-1.64-4.99V6.26c0-2.12.53-3.62,1.59-4.51,1.06-.88,2.49-1.33,4.3-1.33h8.33c2.3,0,3.85.61,4.67,1.83.81,1.22,1.22,2.96,1.22,5.22v4.08l-.02.02Z"/>
          <path class="cls-1" d="M401.83,34.9V.43h7.37v14.11h5.94V.43h7.37v34.48h-7.37v-13.68h-5.94v13.68h-7.37Z"/>
          <path class="cls-1" d="M430.95,34.9V7.16h-6.63V.43h20.63v6.74h-6.52v27.74h-7.48Z"/>
          <path class="cls-1" d="M457.31,34.9V.43h7.37v27.79h9.97v6.68h-17.34Z"/>
          <path class="cls-1" d="M490.72,34.9l-1.01-8.01,1.75,1.59h-9.02l1.75-1.49-1.01,7.9h-7.48L480.7.43h12.68l4.83,34.48h-7.49ZM486.59,7.11l-1.96,16.39-1.43-1.43h7.48l-1.38,1.27-1.86-16.23h-.85Z"/>
          <path class="cls-1" d="M512.31,21.01h7.32v7.05c0,1.17-.18,2.28-.53,3.34-.35,1.06-.97,1.91-1.86,2.55-.88.64-2.14.96-3.77.96h-7.74c-1.84,0-3.31-.53-4.4-1.59-1.1-1.06-1.64-2.72-1.64-4.99V6.31c0-2.16.52-3.68,1.56-4.56,1.04-.88,2.48-1.33,4.32-1.33h7.8c2.47,0,4.14.61,4.99,1.83s1.27,2.98,1.27,5.28v5.14h-7.32v-5.52h-5.36v21.06h5.36v-7.21h0Z"/>
          <path class="cls-1" d="M529.65,34.9h-7.37V.43h15.38c1.7,0,2.91.5,3.63,1.48.72.99,1.09,2.6,1.09,4.83v11.51c0,2.16-.36,3.7-1.09,4.64-.73.94-1.94,1.41-3.63,1.41h-.9l2.39-1.75,3.61,12.36h-7.42l-2.81-10.24h-2.86v10.24h-.02ZM529.65,18.14h5.41V7.16h-5.41v10.98Z"/>
          <path class="cls-1" d="M551.08,34.9c-1.2,0-2.25-.25-3.13-.74-.88-.5-1.57-1.24-2.07-2.23s-.74-2.23-.74-3.71V7.16c0-2.16.51-3.82,1.54-4.99,1.03-1.17,2.42-1.75,4.19-1.75h8.86c2.09,0,3.61.62,4.56,1.86.95,1.24,1.43,2.99,1.43,5.25v20.53c0,1.41-.23,2.63-.69,3.66s-1.13,1.81-2.02,2.36c-.88.55-2,.82-3.34.82h-8.59,0ZM552.41,28.22h5.99V7.16h-5.99v21.06Z"/>
          <path class="cls-1" d="M588.42,22.6v5.46c0,2.16-.5,3.84-1.49,5.04s-2.49,1.8-4.51,1.8h-7.85c-1.24,0-2.3-.25-3.18-.74s-1.58-1.25-2.09-2.28-.77-2.28-.77-3.77v-5.14h7.27v5.3h5.36v-5.25l-9.23-5.09c-.85-.46-1.52-.94-2.01-1.43-.5-.49-.85-1.1-1.06-1.8-.21-.71-.32-1.61-.32-2.71v-5.52c0-2.23.54-3.79,1.62-4.69,1.08-.9,2.55-1.35,4.43-1.35h7.58c1.56,0,2.79.26,3.71.77.92.51,1.57,1.28,1.96,2.31s.58,2.37.58,4.03v4.4h-7.27v-4.88h-5.36v4.61l9.23,4.88c.92.46,1.61.94,2.07,1.43.46.5.8,1.11,1.01,1.83.21.73.32,1.65.32,2.78h0Z"/>
          <path class="cls-1" d="M610.86,22.6v5.46c0,2.16-.5,3.84-1.49,5.04s-2.49,1.8-4.51,1.8h-7.85c-1.24,0-2.3-.25-3.18-.74s-1.58-1.25-2.09-2.28-.77-2.28-.77-3.77v-5.14h7.27v5.3h5.36v-5.25l-9.23-5.09c-.85-.46-1.52-.94-2.01-1.43-.5-.49-.85-1.1-1.06-1.8-.21-.71-.32-1.61-.32-2.71v-5.52c0-2.23.54-3.79,1.62-4.69,1.08-.9,2.55-1.35,4.43-1.35h7.58c1.56,0,2.79.26,3.71.77.92.51,1.57,1.28,1.96,2.31s.58,2.37.58,4.03v4.4h-7.27v-4.88h-5.36v4.61l9.23,4.88c.92.46,1.61.94,2.07,1.43.46.5.8,1.11,1.01,1.83.21.73.32,1.65.32,2.78h0Z"/>
          <path class="cls-1" d="M613.61,34.9V.43h17.18v6.63h-9.81v7.37h7.16v6.58h-7.16v7.32h9.81v6.58h-17.18Z"/>
        </g>
        <g>
          <g>
            <path class="cls-1" d="M669.31,3.16h-5.99l.77,1.32v5.06l-.38,1.28h2.39l-.31-1.06v-.87h3.52c1.31,0,2.38-1.07,2.38-2.38v-.98c0-1.31-1.07-2.38-2.38-2.38h0ZM665.67,5.11h3.15c.51,0,.92.41.92.92s-.41.92-.92.92h-2.79v-1.01l-.36-.83h0Z"/>
            <polygon class="cls-1" points="666.03 24.51 666.03 19.4 663.35 19.4 664.09 20.92 664.09 26.46 670.16 26.46 670.75 24.11 669.38 24.51 666.03 24.51"/>
            <polygon class="cls-1" points="666.03 16.77 666.03 11.66 663.35 11.66 664.09 13.18 664.09 18.72 670.58 18.72 671.16 16.37 669.8 16.77 666.03 16.77"/>
          </g>
          <g>
            <g>
              <path class="cls-1" d="M659.64,2.55h-.21c-.85.04-1.62.11-2.33.24-.8.15-1.53.36-2.19.65-1.13.5-2.08,1.21-2.93,2.17-.04.04-.07.08-.11.12-.36.42-.67.83-.93,1.21-.83,1.22-1.18,2.26-1.24,3.16-.06.85.14,1.56.45,2.19.28.58.65,1.08.98,1.54.13.17.25.34.37.51,1.09,1.59,1.96,3.01,2.49,4.07.38.76.59,1.33.6,1.65v.64l.03,3.9v.1c0,.16.02.31.04.45l.02.18c.05.51.15.98.31,1.41.06.16.12.31.19.46.27.57.6,1.02,1.01,1.39.89.8,1.96,1.13,2.75,1.26l.28,2.98.69.41v-4.9h-.02c-.37,0-1.66-.09-2.57-.92-.14-.13-.27-.29-.37-.43-.33-.45-.53-1.02-.61-1.71v-.08c-.03-.17-.05-.33-.05-.51l-.03-4.63c0-1.14-1.14-3.36-3.36-6.6-.13-.18-.26-.37-.4-.55-1.14-1.55-2.12-2.9.66-6.16,1.54-1.8,3.48-2.56,6.71-2.6h.02v-1.6s-.25,0-.25,0Z"/>
              <path class="cls-1" d="M657.4,11.12c-.76.66-1.35,1.45-1.84,2.28l.48.83c.57-.87,1.25-1.66,2.05-2.24.55-.41,1.16-.7,1.79-.82v-1.35c-.34.07-.67.18-.97.32-.56.25-1.07.6-1.51.99h0Z"/>
              <path class="cls-1" d="M656.19,8.04c-.93.74-1.63,1.67-2.21,2.63l.5.86c.67-1.01,1.45-1.93,2.39-2.56.9-.62,1.94-.92,3.02-.95v-1.42c-.59.06-1.18.17-1.74.37-.71.25-1.38.62-1.95,1.08h-.01Z"/>
            </g>
            <path class="cls-1" d="M645.67.16l.58,26.94,14.47,8.57,14.47-8.57.58-26.94s-30.1,0-30.1,0ZM647.9,26.13l-.08-3.56,7.15,4.17c-.15-.43-.26-.9-.31-1.41l-.02-.18c-.02-.15-.03-.29-.03-.45v-.1l-6.83-3.99-.08-3.93,6.89,4.02v-.64c0-.31-.22-.89-.6-1.65l-6.33-3.7-.08-3.93,2.58,1.5c-.31-.63-.51-1.35-.45-2.19l-2.17-1.27-.08-3.93,3.5,2.04c.26-.38.57-.79.93-1.21.03-.04.07-.08.11-.12l-4.57-2.67-.02-1.13h4.75l2.78,1.62c.66-.29,1.39-.51,2.19-.65l-1.66-.97h4.45v31.41l-.69-.41-11.3-6.69-.03.02ZM673.55,26.13l-11.99,7.1V1.82h12.51l-.52,24.31Z"/>
          </g>
        </g>
      </g>
    </g>
  </g>
</svg>