<?xml version="1.0" encoding="UTF-8"?>
<svg id="Layer_2" xmlns="http://www.w3.org/2000/svg" version="1.1" viewBox="0 0 675.8 35.7">
  <!-- Generator: Adobe Illustrator 30.3.0, SVG Export Plug-In . SVG Version: 2.1.3 Build 182)  -->
  <g id="Layer_2-2">
    <g id="Layer_1-2">
      <g>
        <g>
          <path d="M96.5,0h-50.8c-5.2,0-8.7,2.7-9.1,6.8-.2,1.5-.3,2.8-.3,2.8h67.8s.1-1,.2-1.8c.5-4.1-1.2-7.9-7.6-7.9"/>
          <path d="M103.4,13.4s-.2,1.4-.4,2.9c-.4,3-2.6,5.1-6.7,5.1h-14.4l-1.6,13.1h-11.5l2.6-21.1h32s0,0,0,0Z"/>
          <polygon points="4.3 0 35 0 33.8 9.7 3.1 9.7 4.3 0"/>
          <polygon points="2.6 13.4 33.3 13.4 32.4 21.4 13.1 21.4 12.6 25.4 31.9 25.4 30.7 34.5 0 34.5 2.6 13.4"/>
          <path d="M107.4,0h25.1c4,0,8.1,1.8,7.3,8.2-.1,1.1-.2,1.5-.2,1.5h-33.3l1.2-9.7h0Z"/>
          <polygon points="105.8 13.4 117.2 13.4 114.6 34.5 103.1 34.5 105.8 13.4"/>
          <polygon points="127.6 13.4 139.1 13.4 136.4 34.5 124.9 34.5 127.6 13.4"/>
          <path d="M60.9,13.4h-25.2c-.8,5.5,1.9,8,5.8,8h15.5l-.5,4h-22.4l-1.1,9.2h25.3c.8,0,6.5-.2,8.4-4.9.6-1.5,1.2-6.9,1.3-8.1.9-6.6-3.7-8.2-7.3-8.2"/>
        </g>
        <g>
          <path d="M175.9,22.6v5.5c0,2.2-.5,3.8-1.5,5s-2.5,1.8-4.5,1.8h-7.9c-1.2,0-2.3-.2-3.2-.7s-1.6-1.2-2.1-2.3-.8-2.3-.8-3.8v-5.1h7.3v5.3h5.4v-5.2l-9.2-5.1c-.9-.5-1.5-.9-2-1.4-.5-.5-.9-1.1-1.1-1.8-.2-.7-.3-1.6-.3-2.7v-5.5c0-2.2.5-3.8,1.6-4.7,1.1-.9,2.6-1.4,4.4-1.4h7.6c1.6,0,2.8.3,3.7.8.9.5,1.6,1.3,2,2.3s.6,2.4.6,4v4.4h-7.3v-4.9h-5.4v4.6l9.2,4.9c.9.5,1.6.9,2.1,1.4.5.5.8,1.1,1,1.8.2.7.3,1.6.3,2.8h0Z"/>
          <path d="M192.2,34.9l-1-8,1.8,1.6h-9l1.8-1.5-1,7.9h-7.5L182.1.4h12.7l4.8,34.5h-7.5,0ZM188,7.1l-2,16.4-1.4-1.4h7.5l-1.4,1.3-1.9-16.2h-.9,0Z"/>
          <path d="M204.7,34.9V7.2h-6.6V.4h20.6v6.7h-6.5v27.7h-7.5Z"/>
          <path d="M233.5.4h7.4v27.6c0,1.4-.2,2.6-.7,3.7s-1.1,1.8-2,2.4-2,.8-3.3.8h-8.4c-1.2,0-2.2-.2-3.1-.7-.9-.5-1.6-1.2-2.1-2.2s-.7-2.2-.7-3.7V.4h7.3v27.8h5.6V.4h0Z"/>
          <path d="M251.3,34.9h-7.4V.4h15.4c1.7,0,2.9.5,3.6,1.5.7,1,1.1,2.6,1.1,4.8v11.5c0,2.2-.4,3.7-1.1,4.6-.7.9-1.9,1.4-3.6,1.4h-.9l2.4-1.8,3.6,12.4h-7.4l-2.8-10.2h-2.9v10.2h0,0ZM251.3,18.1h5.4V7.2h-5.4v11h0Z"/>
          <path d="M266.7,34.9V.4h14.8c2.2,0,3.7.6,4.5,1.9.8,1.3,1.1,3,1.1,5.3v20.5c0,1.1-.2,2.2-.5,3.2-.4,1.1-1,1.9-1.9,2.6-.9.7-2.1,1-3.6,1h-14.4ZM274.1,28.2h5.7V7.2h-5.7v21.1Z"/>
          <path d="M303.5,34.9l-1-8,1.8,1.6h-9l1.8-1.5-1,7.9h-7.5L293.5.4h12.7l4.8,34.5h-7.5,0ZM299.4,7.1l-2,16.4-1.4-1.4h7.5l-1.4,1.3-1.9-16.2h-.9Z"/>
          <path d="M323.4,34.9h-7.5v-13.2l-7.4-21.3h7.6l3.5,13.5h.2l3.7-13.5h7.6l-7.7,21.2v13.3Z"/>
          <path d="M365.1,34.9h-9.5l-3.9-11.4c-.3-1-.6-2.2-1-3.7-.3-1.5-.7-3.1-1.1-5-.4-1.9-.8-3.9-1.2-6h.3c.1,1.9.2,3.8.2,5.5,0,1.7.1,3.2.1,4.5,0,1.3,0,2.3,0,3.2v12.9h-6.2V.4h8.8l4.4,13.6c.4,1.3.8,2.7,1.1,4.3.4,1.6.8,3.4,1.2,5.2s.9,3.8,1.4,5.9h-.2c-.2-2.8-.4-5.3-.6-7.5-.1-2.2-.2-4.1-.2-5.6V.4h6.3v34.5h0Z"/>
          <path d="M368.2,34.9V.4h7.4v34.5h-7.4Z"/>
          <path d="M398.9,11.6h-7.3v-4.4h-5.5v21.1h5.6v-7.2h-3v-5.8h10.2v12.8c0,1.2-.2,2.3-.5,3.3-.3,1.1-.9,1.9-1.8,2.6-.9.6-2.1,1-3.6,1h-8.2c-1.8,0-3.3-.5-4.4-1.6-1.1-1.1-1.6-2.7-1.6-5V6.3c0-2.1.5-3.6,1.6-4.5,1.1-.9,2.5-1.3,4.3-1.3h8.3c2.3,0,3.9.6,4.7,1.8.8,1.2,1.2,3,1.2,5.2v4.1h0Z"/>
          <path d="M401.8,34.9V.4h7.4v14.1h5.9V.4h7.4v34.5h-7.4v-13.7h-5.9v13.7h-7.4Z"/>
          <path d="M431,34.9V7.2h-6.6V.4h20.6v6.7h-6.5v27.7h-7.5Z"/>
          <path d="M457.3,34.9V.4h7.4v27.8h10v6.7h-17.3Z"/>
          <path d="M490.7,34.9l-1-8,1.8,1.6h-9l1.8-1.5-1,7.9h-7.5L480.7.4h12.7l4.8,34.5h-7.5ZM486.6,7.1l-2,16.4-1.4-1.4h7.5l-1.4,1.3-1.9-16.2h-.9Z"/>
          <path d="M512.3,21h7.3v7.1c0,1.2-.2,2.3-.5,3.3-.3,1.1-1,1.9-1.9,2.5-.9.6-2.1,1-3.8,1h-7.7c-1.8,0-3.3-.5-4.4-1.6-1.1-1.1-1.6-2.7-1.6-5V6.3c0-2.2.5-3.7,1.6-4.6,1-.9,2.5-1.3,4.3-1.3h7.8c2.5,0,4.1.6,5,1.8s1.3,3,1.3,5.3v5.1h-7.3v-5.5h-5.4v21.1h5.4v-7.2h0Z"/>
          <path d="M529.7,34.9h-7.4V.4h15.4c1.7,0,2.9.5,3.6,1.5.7,1,1.1,2.6,1.1,4.8v11.5c0,2.2-.4,3.7-1.1,4.6-.7.9-1.9,1.4-3.6,1.4h-.9l2.4-1.8,3.6,12.4h-7.4l-2.8-10.2h-2.9v10.2h0ZM529.7,18.1h5.4V7.2h-5.4v11Z"/>
          <path d="M551.1,34.9c-1.2,0-2.2-.2-3.1-.7-.9-.5-1.6-1.2-2.1-2.2s-.7-2.2-.7-3.7V7.2c0-2.2.5-3.8,1.5-5,1-1.2,2.4-1.8,4.2-1.8h8.9c2.1,0,3.6.6,4.6,1.9,1,1.2,1.4,3,1.4,5.2v20.5c0,1.4-.2,2.6-.7,3.7s-1.1,1.8-2,2.4c-.9.5-2,.8-3.3.8h-8.6,0ZM552.4,28.2h6V7.2h-6v21.1Z"/>
          <path d="M588.4,22.6v5.5c0,2.2-.5,3.8-1.5,5s-2.5,1.8-4.5,1.8h-7.8c-1.2,0-2.3-.2-3.2-.7s-1.6-1.2-2.1-2.3-.8-2.3-.8-3.8v-5.1h7.3v5.3h5.4v-5.2l-9.2-5.1c-.8-.5-1.5-.9-2-1.4-.5-.5-.8-1.1-1.1-1.8-.2-.7-.3-1.6-.3-2.7v-5.5c0-2.2.5-3.8,1.6-4.7,1.1-.9,2.5-1.4,4.4-1.4h7.6c1.6,0,2.8.3,3.7.8.9.5,1.6,1.3,2,2.3s.6,2.4.6,4v4.4h-7.3v-4.9h-5.4v4.6l9.2,4.9c.9.5,1.6.9,2.1,1.4.5.5.8,1.1,1,1.8.2.7.3,1.6.3,2.8h0Z"/>
          <path d="M610.9,22.6v5.5c0,2.2-.5,3.8-1.5,5s-2.5,1.8-4.5,1.8h-7.8c-1.2,0-2.3-.2-3.2-.7s-1.6-1.2-2.1-2.3-.8-2.3-.8-3.8v-5.1h7.3v5.3h5.4v-5.2l-9.2-5.1c-.8-.5-1.5-.9-2-1.4-.5-.5-.8-1.1-1.1-1.8-.2-.7-.3-1.6-.3-2.7v-5.5c0-2.2.5-3.8,1.6-4.7,1.1-.9,2.5-1.4,4.4-1.4h7.6c1.6,0,2.8.3,3.7.8.9.5,1.6,1.3,2,2.3s.6,2.4.6,4v4.4h-7.3v-4.9h-5.4v4.6l9.2,4.9c.9.5,1.6.9,2.1,1.4.5.5.8,1.1,1,1.8.2.7.3,1.6.3,2.8h0Z"/>
          <path d="M613.6,34.9V.4h17.2v6.6h-9.8v7.4h7.2v6.6h-7.2v7.3h9.8v6.6h-17.2Z"/>
        </g>
        <g>
          <g>
            <path d="M669.3,3.2h-6l.8,1.3v5.1l-.4,1.3h2.4l-.3-1.1v-.9h3.5c1.3,0,2.4-1.1,2.4-2.4v-1c0-1.3-1.1-2.4-2.4-2.4h0ZM665.7,5.1h3.2c.5,0,.9.4.9.9s-.4.9-.9.9h-2.8v-1l-.4-.8h0Z"/>
            <polygon points="666 24.5 666 19.4 663.3 19.4 664.1 20.9 664.1 26.5 670.2 26.5 670.8 24.1 669.4 24.5 666 24.5"/>
            <polygon points="666 16.8 666 11.7 663.3 11.7 664.1 13.2 664.1 18.7 670.6 18.7 671.2 16.4 669.8 16.8 666 16.8"/>
          </g>
          <g>
            <g>
              <path d="M659.6,2.5h-.2c-.8,0-1.6.1-2.3.2-.8.2-1.5.4-2.2.7-1.1.5-2.1,1.2-2.9,2.2,0,0,0,0-.1.1-.4.4-.7.8-.9,1.2-.8,1.2-1.2,2.3-1.2,3.2,0,.9.1,1.6.5,2.2.3.6.7,1.1,1,1.5.1.2.2.3.4.5,1.1,1.6,2,3,2.5,4.1.4.8.6,1.3.6,1.6v4.5s0,.1,0,.1c0,.2,0,.3,0,.5v.2c0,.5.2,1,.3,1.4,0,.2.1.3.2.5.3.6.6,1,1,1.4.9.8,2,1.1,2.8,1.3l.3,3,.7.4v-4.9h0c-.4,0-1.7,0-2.6-.9-.1-.1-.3-.3-.4-.4-.3-.5-.5-1-.6-1.7h0c0-.2,0-.4,0-.6v-4.6c0-1.1-1.2-3.4-3.4-6.6-.1-.2-.3-.4-.4-.6-1.1-1.6-2.1-2.9.7-6.2,1.5-1.8,3.5-2.6,6.7-2.6h0v-1.6s-.2,0-.2,0Z"/>
              <path d="M657.4,11.1c-.8.7-1.3,1.4-1.8,2.3l.5.8c.6-.9,1.2-1.7,2-2.2.5-.4,1.2-.7,1.8-.8v-1.4c-.3,0-.7.2-1,.3-.6.2-1.1.6-1.5,1h0Z"/>
              <path d="M656.2,8c-.9.7-1.6,1.7-2.2,2.6l.5.9c.7-1,1.5-1.9,2.4-2.6.9-.6,1.9-.9,3-.9v-1.4c-.6,0-1.2.2-1.7.4-.7.2-1.4.6-2,1.1h0Z"/>
            </g>
            <path d="M645.7.2l.6,26.9,14.5,8.6,14.5-8.6.6-26.9s-30.1,0-30.1,0ZM647.9,26.1v-3.6c0,0,7.1,4.2,7.1,4.2-.2-.4-.3-.9-.3-1.4v-.2c0-.1,0-.3,0-.5h0c0-.1-6.8-4.1-6.8-4.1v-3.9c0,0,6.8,4,6.8,4v-.6c0-.3-.2-.9-.6-1.6l-6.3-3.7v-3.9c0,0,2.5,1.5,2.5,1.5-.3-.6-.5-1.4-.5-2.2l-2.2-1.3v-3.9c0,0,3.4,2,3.4,2,.3-.4.6-.8.9-1.2,0,0,0,0,.1-.1l-4.6-2.7v-1.1s4.7,0,4.7,0l2.8,1.6c.7-.3,1.4-.5,2.2-.6l-1.7-1h4.5v31.4l-.7-.4-11.3-6.7h0s0,0,0,0ZM673.5,26.1l-12,7.1V1.8h12.5l-.5,24.3Z"/>
          </g>
        </g>
      </g>
    </g>
  </g>
</svg>