<?xml version="1.0" encoding="UTF-8"?>
<svg id="ICON" xmlns="http://www.w3.org/2000/svg" viewBox="0 0 1080 1080">
  <defs>
    <style>
      .cls-1 {
        fill: #ff5216;
      }

      .cls-2 {
        fill: #fff;
      }

      .cls-3 {
        fill: #b3b3b3;
      }

      .cls-4 {
        fill: #0a0203;
      }
    </style>
  </defs>
  <g id="FULL_COLOR" data-name="FULL COLOR">
    <path class="cls-2" d="m657.48,523.47c-9.8.83-19.65,1.31-29.35,1.41l-17.74,23.85c-9.17,13.01-25.31,21.18-40.19,20.35-.67-.04-1.33-.09-2-.17-6.3-.7-12.33-2.86-17.12-6.02-12.28,12.4-24.88,17.96-37.51,16.56-.62-.07-1.23-.15-1.85-.26-6.71-1.1-12.81-4.18-17.71-8.87-12.82,11.75-25.92,17-39.04,15.62l-.25-.03c-18.3-2.03-34.52-16.99-48.23-44.47-105.89,11.5-151.97,29.73-152.43,29.92l-23.29,9.4,16.01-19.36c1.83-2.21,44.81-53.1,139.18-76.7l-68.32-180.52,126.09,168.86c14.55-1.9,28.67-2.85,42.06-2.83,4.51-6.02,8.77-11.53,12.7-16.41,11.26-13.97,27.82-21.96,42.19-20.36,1.14.13,2.28.31,3.38.56,7.67,1.71,12.83,6.04,16.43,10.64,9.44-9.19,22.48-17.49,37.9-15.78,2.2.24,4.42.69,6.58,1.34,5.5,1.63,9.69,4.14,13.1,7.97,8.2-7.1,16.98-10.89,26.18-11.27,1.9-.08,3.82,0,5.72.2,17.78,1.98,32.68,15.93,43.96,28.7,106.66-3.88,169-29.23,169.62-29.49l37.73-15.63-31.18,26.37c-1.59,1.35-39.43,33.16-79.55,51.69-30.22,13.96-48.91,20.09-59.27,22.77l104.44,143.53-178.27-131.56Z"/>
    <path class="cls-4" d="m866.02,432.18s-63.71,26.49-174.86,30.08c-12.13-14.07-28.27-29.74-46.61-29.01-9.64.4-18.84,5.38-27.43,14.76-3.42-6.54-7.48-9.79-13.92-11.71-12.72-3.77-27.83.13-43.6,18.64-.03.04.03.09-.01.13-4.14-8.01-9.17-13.13-16.88-14.86-12.7-2.82-28.49,4.24-39.24,17.58-4.75,5.89-9.69,12.35-14.48,18.81-15.26-.21-31.31.88-48.1,3.25l-101.29-135.64,54.87,144.99c-98.35,22.53-142.79,76.25-142.79,76.25,0,0,47.39-19.13,158.59-30.82,13.17,28.05,28.41,43.2,45.36,44.97,12.8,1.34,26-5.13,38.78-18.62,4.38,6.43,10.75,10.68,18.34,11.92,13.09,2.16,25.66-4.92,37.76-18.75,4.61,5.02,12.71,8.14,20.04,8.57,12.8.71,26.73-6.41,34.68-17.73l19.68-26.46c11.45-.02,22.96-.57,34.53-1.63.08.07.12.17.19.24l146.69,108.26-85.99-118.18s17.11-.96,67.58-24.28c39.8-18.38,78.11-50.78,78.11-50.78Z"/>
    <path class="cls-2" d="m744.01,477.31s8.1-4.54,16.37-10.65c-32.71,5.66-67.47,9.4-104.62,9.28-3.02,4.05-20.85,27.97-20.85,27.97l-.95,1.25c48.75-1.34,96.89-11.66,145.43-30.28-18.1,2.04-35.39,2.43-35.39,2.43"/>
    <path class="cls-2" d="m343.32,516.08c20.98-3.25,44.39-3.61,44.39-3.61,0,0-13.52,6.19-23.17,14.66,30.03-4.51,61.84-7.79,94.71-9.63,3.06-4.52,10.39-15.28,19.23-27.65-39.4.81-86.9,8.62-135.16,26.23"/>
    <path class="cls-1" d="m371.53,404.11s44.43,62.03,55.31,77.83c-7.14,1.25-14.41,2.74-21.79,4.44-2.91-7-33.52-82.27-33.52-82.27m174.38,136.01c1.66-2.38,40.31-54.04,62.1-82.04-1.82-5.34-5.32-9.09-9.93-10.44-8.71-2.58-21.49,2.84-31.45,16.21-10.09,13.55-42.64,57.68-64.97,87.54,2.71,4.58,6.9,7.53,12.2,8.39,10.96,1.81,21.79-5.7,32.04-19.67m160.18-30.11c-9.75,1.93-19.52,3.52-29.29,4.83,19.25,14.63,84.12,63.45,84.12,63.45l-54.55-67.75c-.14-.17-.17-.36-.28-.53m-166.69-56.82c-8.98-1.99-20.78,3.62-28.91,13.53-21.11,25.75-46.52,63.85-46.52,63.85-1,1.4-7.39,12.93-18.95,5.1,0,0,3.16-.48,5.97-4.5-9.8.62-19.49,1.37-29.06,2.25,10.59,20.61,22.1,31.73,34.27,32.99,12.67,1.33,24.46-8.21,33.3-18.55,1.54-1.68,36.69-50.19,61-82.52-2.58-6.88-5.44-10.89-11.11-12.15m125.74,7.56s-2.68.03-4.99,2.46c6.16.17,13.7-.56,13.7-.56-8.85-8.77-18.74-18.03-29.42-17.97-10.35.05-17.76,7.74-25.34,18.29-8.86,12.06-52.05,67.5-61.78,81.19,3.44,3.79,9.82,5.14,13.35,5.34,9.26.53,16.24-5.3,22.49-12.26,18.03-20.13,57.38-73.12,58.39-74.47,1.01-1.37,6.86-8.7,13.6-2"/>
    <path class="cls-2" d="m480.3,517.13s31.56-43.55,38.79-50.78c10.51-10.51,17.23-6.37,17.23-6.37l-56.02,57.15m113.1-62.48s-6.72-4.14-17.23,6.37c-7.22,7.22-38.79,50.79-38.79,50.79l56.02-57.16Zm53.69-3.03s-6.72-4.13-17.23,6.37c-7.22,7.22-38.79,50.79-38.79,50.79l56.02-57.16Z"/>
    <path class="cls-3" d="m364.54,527.13c30.03-4.51,61.84-7.79,94.71-9.63,1.54-2.27,5.57-8.17,5.57-8.17-36.85,3.36-84.38,10.03-100.28,17.81m276.26-31.14c-3.33,4.47-5.89,7.91-5.89,7.91l-.95,1.25c48.75-1.34,96.89-11.66,145.43-30.28-18.1,2.04-59.55,18.66-138.6,21.12"/>
  </g>
</svg>