<?xml version="1.0" encoding="UTF-8"?>
<svg id="Layer_1" data-name="Layer 1" xmlns="http://www.w3.org/2000/svg" version="1.1" viewBox="0 0 1080 1080">
  <defs>
    <style>
      .cls-1 {
        fill: #010101;
      }

      .cls-1, .cls-2, .cls-3, .cls-4, .cls-5 {
        stroke-width: 0px;
      }

      .cls-2 {
        fill: #171717;
      }

      .cls-3 {
        fill: #ef5225;
      }

      .cls-4 {
        fill: #fff;
      }

      .cls-5 {
        fill: #b1b7bc;
      }
    </style>
  </defs>
  <path class="cls-3" d="M693,727.1c-19.3,0-33.6-2.1-40.5-12.2-1.6-2.2-4.6-7.4-6.9-17.1-2-5.5-6.2-14.9-10-19.4-1.4-1.4-5.3-5.7-9.1-11.7l-13.8-6.2c-.7-.3-1.5-.7-2.4-1.2l-8.5,1.1,1.9-5.7c-2.2-1.9-4.7-4.4-6.9-7.5l-7.3-3.7c-4.8-2.4-14.3-9.7-24.2-31.7-.4-.8-14.2-27-53.9-31h-.9c-.3-.2-3.4-.6-7.1-.6s-6.6.5-8.1.9c.2.7.4,1.6.9,2.8l17,45.4-41.9-24.4c-1.4-.8-13.9-8.4-23.6-26.6-5.3-9-15.1-18.4-19.3-18.4h-1.3c0,.1,0,.1,0,.1.2,0-4.1,1.1-7.7,9.1-1.3,5.3-5.3,20.8-11.6,31.8l-.5.8c-.7,1-11.2,17.6.6,39.9,4.9,7.9,15,21.3,21.9,25.1,18.7,10.8,25.2,18.8,24.1,29.3-.8,7.3-5.7,13.2-12.8,15.5l-2.1.7h-2.3c-1.5.2-8.9.6-18.1.6-19.5,0-55.8,0-55.8-25.1-.1-2.2-1.6-7.8-3.6-9.4-12-9.4-40.1-33.7-42.5-55.4-.5-2.9-1.7-11.7-.4-22.5-20.8,14.1-35.6,26.1-42.3,34.5-2.5,4.2-18.2,31.3-20.7,64.4l-1.7,23.3-21.7-8.5c-17.7-6.9-47.8-21.7-50.4-43.2-1.7-7.7.8-20.6,22.5-35.9l.7-.4c1.2-.9,14.4-11.5,21.1-43.1h0s3.1-18.1,15.2-36.2c-7.8-5.1-15.7-14.4-18.6-31.6-5.3-2.4-9.9-5.8-13.5-10.1-5.2-6.2-10.9-17.2-8.3-34.8l4.4-30.2,23.6,19.3c1.5,1.2,5.6,3.5,8.6,3.5s1.8,0,3.7-2.3c4-6.8,13.8-22.3,24.4-29.3l.8-.5c1.2-1.1,6.6-6.8,9.6-23.4.3-2.1,9.4-55.1,79.5-65.3,7.7-.9,72.4-8.3,103-18.5,14.6-4.4,38.3-13.6,46.1-20.1,4-3.6,21.1-15.5,66.6-15.5s12.3.2,18.8.6c3.8.2,16.9.8,29.7.8s18.2-.6,20.7-.9c2.1-.6,5.3-1.3,9.2-1.3s6.9.6,10,1.7c3.3-1.6,6.9-2.6,11-2.8.3,0,.9,0,1.6,0h.9c8.3.9,16.2,4.5,22.5,10.1h0c4,.4,7.7,1.5,11.1,3.4,1.5-.5,3.3-.7,4.9-.9.4,0,.8,0,1.3,0,1.6,0,4.4.3,4.4.3,3.8.2,7.8,1.7,11.9,4.6.3,0,.6,0,.9,0,2.5,0,5.2.4,7.8,1.2l1.4.4,1.3.6c3.7,1.8,6.8,4.6,9.1,8.1,2.5,1.2,4.7,2.8,6.5,4.7.4,0,.8,0,1.3,0,1.5,0,3.1.1,4.8.4l1.9.2c7.4.9,14.2,4.9,18.7,10.9,1,1.1,2.1,2.7,3,4.4,1.4,2.5,2.3,5.2,2.8,8.1,1.7,1.3,3.2,2.7,4.5,4.3l25.1,25.3,10.1-20.1,15.5,17.6,9.1,10.7-2.9-17.9,38.7,40.9.2.3c2.6,3.6,8.6,12.4,12.7,22.7l4.2-1.2,1.7,5.2c1.4,4.4,3.2,8.6,3.8,9.8l.5.7.2.5c1.4,2.2,7.7,13.5,6.9,29.7l11.1,37.6c.7,2.3,6.2,22.7-7.2,39l-.5.6c-1.9,2.1-3.8,4.6-4.7,6.1,0,5.8-.4,16.9-5,25.2-2.4,5.1-4.2,11.3-4.2,12.9.2,2.2.7,14.9-11.6,27-3.3,4.3-12,13.3-26.3,13.3-.6,0-1.3.2-1.8.4-3.6,2.8-8.1,4.4-12.8,4.4s-1.6,0-2.4-.1c-3,3.1-6.9,5.3-11.3,6.3l-.8.2c-.3,0-23.9,4.9-26.6,20.8l-3.5,20.9c2.3,6.2,1.2,10.3.6,12.6-1.2,4.5-4,8.5-7.8,11.1l-.9.6-15.3,3.5h-.4c-6.7.7-16.7,1.4-25.7,1.4s-26.2,0-33.2-11.5c-.9,5.3-2.8,9.5-6.4,11.4-5.6,2.9-7.4,3.5-9.1,3.5l-1,.2-11.6.4c-1.7,0-3.5,0-5.4,0ZM280,513.2c-.8,1-1.4,2.2-1.8,3.4,0,.2,0,.3-.1.5.7-1.2,1.4-2.5,1.9-3.9Z"/>
  <path class="cls-2" d="M922.3,518.7l-9-30.4-1.5,3.4c-1-4.6-1.1-8.1-1.1-9.2,1.8-16.7-5-28.4-5.8-29.7l-.2-.4-.4-.6c-.9-1.3-3-6.7-4.5-11.3l-4.1,1.1c-3.7-11.5-10.8-22.1-13.8-26.3l-25.6-27.1,3.2,19.8c-1.2-1.5-2.4-2.9-3.6-4.3l-6.3-7.4-7.4-8.7-5-5.9-9.8-11.2-9.4,18.7c-.2.2-.5.4-.7.7l-30.8-31.1c-1.7-2-3.6-3.6-5.5-4.8-.2-3.5-1.3-6.4-2.4-8.6-.7-1.4-1.6-2.6-2.6-3.7-3.5-4.8-8.9-7.9-14.7-8.6l-2.1-.2c-1.4-.2-2.8-.3-4-.3s-2.6.1-3.8.3c-1.9-2.8-4.6-4.9-8-6.2-1.8-3.3-4.6-5.9-7.7-7.5l-.8-.4-.9-.3c-2.1-.6-4.2-1-6.1-1s-1.7,0-2.6.2c0,0,0,0,0,0-3.2-2.5-6.8-4.5-10.9-4.7,0,0-3.2-.4-4.2-.3-8.7,1.2-4,2-5.2,2.5-3.7-3.1-8.5-5-13.9-5.1l-1.5-1.4c-5.3-4.8-12-7.9-19.1-8.6-.2,0-.3,0-.3,0-.6,0-1.1,0-1.3,0-4.7.2-8.3,1.7-10.8,3.4-3.2-1.5-6.7-2.3-10.5-2.3s-6.2.7-7.9,1.2c-2.7.4-8.9,1.1-22,1.1s-30-.8-30.1-.8c-6.4-.4-12.6-.6-18.5-.6-43.9,0-59.5,11.2-62.9,14.2-8.8,7.4-33.9,16.8-47.9,21.1-32.8,11-102.8,18.6-104,18.8-65.9,9.6-74.4,58.8-74.7,60.6-3.5,19-10.2,25.6-11.8,27l-1.1.7c-10.1,6.6-20.1,23-22.8,27.7-3.3,4.2-6.3,4.8-8.5,4.8-5.1,0-10.6-3.5-12.3-4.8l-15.7-12.8-2.9,20.1c-2.2,15.4,2.6,24.9,7,30.2,4.3,5.2,9.7,8.1,14.3,9.7,2.6,21.1,12.8,30,21.9,33.7-14.4,18.4-18,38.5-18.2,39.4-7.6,35.6-23.5,46.6-23.4,46.6l-.6.4c-19.4,13.7-21.4,24.4-20.1,30.5,2.4,19.2,33.4,33.3,46.8,38.6l14.5,5.7,1.2-15.5c2.6-35.2,19.6-63.8,21.7-67.3,10.1-12.8,35.3-30.7,55.6-43.8-5.2,15.7-3.1,30.9-2.5,34.4,2.1,20,31.5,44.5,40.4,51.5,4.2,3.4,5.6,11.8,5.7,13.9,0,17.9,25.8,19.4,50,19.4s17.5-.4,17.8-.4h1.5c0,0,1.4-.6,1.4-.6,4.9-1.6,8.3-5.7,8.8-10.7.7-6.6-2.6-12.9-21.2-23.7-8.3-4.6-19.2-19.2-24.2-27.5-13.4-25.3-1-44.7-.5-45.4l.3-.4.2-.4c6.1-10.7,10.1-26.3,11.1-30.8,5-11.6,12.2-12.9,12.6-12.9h.9c.3-.1.7-.2,1-.2,8.2,0,19.5,13,24.4,21.5,9,16.8,20.2,23.6,21.5,24.4l27.9,16.2-11.4-30.2c-1.9-5.1-1.6-7.6-1.1-8.3.9-1.3,5.3-3.2,13.8-3.2s7.9.5,7.9.5h.7c43.1,4.5,58.1,33.6,58.6,34.5,9.5,21.1,18.2,27.3,21.5,28.9l8.6,4.3c2.9,4.4,6.6,7.7,9.8,9.9l-.3.8,1.2-.2c1.2.8,2.4,1.4,3.5,1.9l15.4,6.9c3.8,6.4,8.1,11,9.5,12.5,5,5.8,9.6,17,11.2,21.5,2.2,9,4.8,13.7,6.2,15.5,4.8,6.9,14.9,9.7,35.8,9.7s3.5,0,5.2,0l11.2-.4c.8-.2.7-.1,1.5-.3,0,0-.1.8,6.6-2.7,6.5-3.4,2.5-29.5,2.5-29.5l8.8,6.6c0,3.9.6,7.3.9,8.8,2.4,13.6,20.9,13.6,30,13.6s18.6-.7,25.1-1.3l13.9-3.2c2.7-1.8,4.6-4.5,5.5-7.8.6-2.2,1.3-5.2-1-10.5l3.8-22.5c3.4-20.1,30.9-25.5,31.2-25.5h.6c4.3-1.1,7.9-3.6,10.3-7.1,1.5.4,3.1.7,4.7.7,4.2,0,7.6-1.6,9.9-3.7.9-.4,2.8-.8,4.3-1h.4c12.1,0,19.3-7.8,22-11.4,10.7-10.3,10.4-21,10.2-22.8-.2-3,2.4-10.7,4.9-16,4.4-7.9,4.4-19.5,4.3-23.9.9-1.9,3.7-5.7,6.2-8.5l.4-.5c11.5-13.9,6.7-31.7,6.1-33.7ZM274.5,530.3c-2.5-5.9-3.1-11-1.8-15.4,2.6-8.3,11.6-12.5,11.6-12.5l1.1-.5s1.9-1.3,2.3-1.6c1,15.1-8.1,25.4-13.3,29.9Z"/>
  <path class="cls-4" d="M702.3,715.4c-2.5.1-5.8.2-9.3.2-23.3,0-28.8-3.7-31.2-7.4-.3-.3-3-4.3-5.2-13.7-.7-2.1-6-16.4-12.6-23.9-.7-.7-5.7-5.9-9.7-13l-17-7.6c-.4-.2-7.8-3.6-12.7-11.7l-10-5c-1.5-.8-9.7-5.6-18.8-26.1-.6-1.2-16.7-33.1-63.2-37.8-.4,0-4.2-.7-9.2-.7-9.2,0-16,2.1-18.5,5.7-2,2.9-1.8,7.4.5,13.6l5.7,15.1-14-8.1c-.4-.3-10.9-6.5-19.3-22.1-3.9-6.7-16.9-24.5-29.5-24.5s-1.2,0-1.8.1c-.8,0-11.6,1.2-18.2,16.9-.7,3.1-4.7,19.2-10.6,29.7-.9,1.3-15.3,23.4,0,52,3.6,6,15.8,23.6,26.3,29.5,19,11,18.5,15.4,18.2,18-.3,2.7-2.1,4.9-4.9,5.8l-.7.2h-.8c-.3,0-7.9.5-17.5.5-31.4,0-44.3-3.9-44.3-13.6-.2-3.3-1.9-13.5-7.9-18.4-3.7-2.9-36.5-29.2-38.3-47.9-.4-2.6-3-19.4,3.5-35.1,1.2-3,2.8-7.5,3.8-11.9-18.2,11.2-57.2,36.2-71,54h0s-19.7,31-22.6,70l-.6,7.8-7.2-2.8c-7-2.7-41.5-17.1-43.2-34.2-.9-3.9.2-12.4,17.8-24.8.5-.3,18.2-12,26.4-50.5.2-1.1,4.5-25.4,23.1-44-9-.7-25.1-6-27.2-34.7-4.4-1.1-10.6-3.5-15.3-9-5.4-6.4-7.3-15-5.7-25.7l1.5-10.1,7.9,6.4c0,0,7.6,6.1,15.9,6.1,5.2,0,9.5-2.4,13.3-7.3,1.8-3.2,11.8-20,21.2-26.1l.3-.2.3-.2s10.2-6,14.8-31.1c.3-1.8,8.1-47,69.8-56,.9-.1,71.6-7.8,105-19,10.4-3.2,39.3-13.2,49.9-22.3,1.2-1.1,14.7-12.7,59.1-12.7s11.8.2,18.1.6c.1,0,15.5.8,30.4.8s20.1-.6,23.4-1.2c1.1-.4,3.5-1,6.5-1s7.9,1.3,11.1,3.7c1.8-2.1,5-4.5,10.6-4.8,0,0,.4,0,.9,0,1.7,0,5.7.3,9.1,2.9l-2.8-12.7,11.4,20c.7,0,1.6-.2,2.7-.2,5.8,0,10.5,2.4,13.4,6.6,1.6-1.4,4-2.7,7.5-2.9,0,0,.6,0,1.5,0h.1l1.1-3,1,3.1c2.4.3,5.5,1.2,8,3.8.2.2.4.5.7.7,1.2-.5,2.6-.8,4.2-.8s2.9.2,4.5.7h.5c0,.1.4.3.4.3,2.3,1.2,5,3.7,6,7.1,4.7.9,8,3.9,9,8.3,1.9-.9,4.2-1.5,6.9-1.5s2,0,3.2.2c.9.1,6.7,1.2,11.3,5l.5-1.9.4,2.7c1.1,1.1,2.1,2.3,2.9,3.8,1.1,2.1,2.1,5.2,1.6,9.3,2.4,1,4.9,2.6,7,5,2.8,3.3,4,7.6,3.6,12.4-.3,1.6-.8,3.6-1.6,5.5.2,0,.5.1.7.2,3.8.7,11.5,4.6,13.2,13.9.1.6.5,2.7.3,5.2,3.3.7,6.1,2.3,8,4.7,0-.6,0-1.2-.1-1.6l-8.5-27.8,18.5,22.5c.3.4,1,1.2,1.8,2.4,1-2.3,2.3-4.8,4-6.4l9.6-8.8v13c0,1.1.4,4.9,1.9,7.1.3.3,1.4,2,2.4,4.4.1-.1.2-.2.3-.3l5.4-7.3v-5.7c0,0,2.3,2.6,2.3,2.6h0s0,0,0,0l7.7,9c3.6,4.2,10.3,12.2,14.9,19.6.4-1.4.6-2.9.4-4.4l-2.3-21.6,12.7,17.6c1.3,1.8,9.1,12.9,12.9,24.7l4.1-1.1c1.6,4.9,4.2,11.4,5.3,12.8l.2.3.2.3c.3.4,6.8,11.2,4.9,26.7h0s0,8,3.2,17.5c0,0,1.6,3.6,2.5,9.1l1.7-4,4.5,15.2c.2.7,4.7,16.5-5.1,28.4-4.1,4.5-7.8,10-8,11.9.1,1.8.7,14.9-3.7,22.2-2.1,4.4-5.7,13.9-5.4,18.8,0,.9.6,9.8-8.8,18.6-2.7,3.8-8.9,9.5-17.7,9.5,0,0-.5,0-.7,0-2.2.2-5.7,1-7.4,2.1-1.4,1.4-3.6,2.7-6.5,2.7s-4.9-.8-7.5-2.6c-.3,1.1-.6,2.2-1.2,3.2-1.6,3-4.2,5-7.6,5.8-.6.1-32.1,6.1-36.1,30.3l-2.4,14.1-7-10.2-1.6,10.8c9.9,11.7,8.8,16,8.3,17.8-.8,3-3.1,5.2-6.4,5.9-1.2.2-18.1,2.2-32.5,2.2s-23-1.1-24.3-8.9c-.3-1.2-1.1-5.6-.7-9.8v-.4s.1-.4.1-.4c0,0,.6-3.2-1.9-7.6l.8,7-10.7-8c-.4-.3-2.2-1.7-4.3-4.3-2,2.1-4.7,6-4.5,8.4l2.5,31.7-3.1-6.5c-1.4,1.6-3.4,2.4-5.8,2.4,0,0-1.5.1-4.1.2v4.1c0,0-1.4-4-1.4-4ZM758.3,648.8c2.3,5.3,5.4,11,8.9,14.6l-8.9-14.6ZM631.5,651.5c-.8-2.1-1.4-4.3-1.7-6.5-.6.2-1.2.3-1.9.4h-.7c0,0,4.3,6.1,4.3,6.1ZM749.9,624.6c1.6,3.9,3.4,8.8,4.6,13.3v.3c-.2-2.3,0-4.9.6-7.5l-1-1.6c-.2-.3-1.2-2-2.1-4.9l-2,.4ZM621.1,622.4c-.7,0-1.4.3-2.3.9-.4.4-2.6,2.9-.3,8.1.1.4.9,2.4,3.3,6.2,2.1-6.3,2.5-13,1.4-14.3-.1-.1-1-.9-2.1-.9ZM598.1,613.4c0,1.8.1,5.8,2.2,9.3-.5-3.6-1.4-7.2-2.2-9.3ZM291.3,490.4c-2.2,1.9-4.9,4-8.2,6.3l-.5.3-.5.2c0,0-11.4,5.1-14.9,16-2.3,7.3-.6,16,5.1,25.7.7-.4,1.4-.8,2.2-1.2.6-.4,22.8-15,18.5-41.5-.3-1.1-1-3.3-1.7-5.8ZM798.6,432.6c0-.1,0-.2,0-.3-.1,0-.2,0-.4.1.1,0,.3.2.4.2Z"/>
  <path class="cls-4" d="M911.2,521.9c-3.3,7.7-8.6,6.5-8.6,6.5,5.9-13.6,0-26.7,0-26.7-3.7-10.9-3.5-20-3.5-20,1.7-13.6-4.1-23-4.1-23-2.6-3.2-6.3-14.6-6.3-14.6,1.9,8.6-3,15.7-3,15.7,4.4-13.2-13.3-37.6-13.3-37.6,1,9.5-6.8,16.8-6.8,16.8-1-7.1-18.6-27.6-18.6-27.6,0,6.7-6.2,10.5-6.2,10.5,1.3-3.2,0-9.7,0-9.7-2,3.3-10.1,6.9-10.1,6.9,2.1-5-2.1-10.7-2.1-10.7-3-4.2-3-10.4-3-10.4-2.2,2-3.9,8.1-3.9,8.1-1.8,4.5-6,7.2-6,7.2,1.2-5.3-4.2-11.9-4.2-11.9,2.1,6.7-4.8,16.9-4.8,16.9-6.3,7-1,16.8-1,16.8-1.2,1.2-.6,3-.6,3,.6,3.3,3.5,2.9,3.5,2.9-1.2-1.6.6-2.9.6-2.9,3.4-1.1,4.5,2.6,4.5,2.6,1.4,3.7-1.7,4.7-1.7,4.7-6.8,2.1-10.7-3.9-10.7-3.9-4.1-3.8-13.8-7.5-13.8-7.5-8.5-5.8-7.2-15.3-7.2-15.3,1-9.9,12.6-8.4,12.6-8.4,10.2,1.1,7.9,8.8,7.9,8.8-1.6,6-6.9,4.4-6.9,4.4-4.2-.8-3.2-3.4-3.2-3.4.8-2.1,3.7-2.4,3.7-2.4-.8-1.4-2.7-1.4-2.7-1.4-4.8-.4-4.4,4.3-4.4,4.3-.3,3.7,4.1,5.9,4.1,5.9,8.4,3.3,10.8-5.8,10.8-5.8,5-18-9.9-15.1-9.9-15.1-2.7.6-1.7-1.4-1.7-1.4,2.7-3,1.5-8.3,1.5-8.3-1.5-7.9-9.1-9.4-9.1-9.4-7.8-2.2-10.9,3.5-10.9,3.5-3.2,4.8.3,9,.3,9,3.5,3.9,6.6,1.7,6.6,1.7,4-3.3-.6-6.2-.6-6.2.8,4.2-2.7,3.2-2.7,3.2-2.3-.8-1.4-4-1.4-4,.6-3.3,4.1-3.6,4.1-3.6,6.2-.3,8.6,5,8.6,5,2.1,3.9-.7,7.7-.7,7.7-5.9,5.9-16.2-1.2-16.2-1.2-3-3.1-7.3-3.1-7.3-3.1-6.5-.1-8.5-6.4-8.5-6.4-2.2-6.7,3.2-8.5,3.2-8.5,5.3-1.2,5,3.2,5,3.2,0,3.9-5.5,2-5.5,2,.6,3.3,4.2,3.2,4.2,3.2,4.1-.2,6.2-5.9,6.2-5.9,10.4.9,12.3-11.2,12.3-11.2,1.1-11.8-12-13-12-13,6.6-14.5-10.4-17.2-10.4-17.2-9.6-1.4-10.4,5.6-10.4,5.6-.8,5.9,3,6.7,3,6.7,5.9,1.2,4.2-3.4,4.2-3.4-2.5,2.4-4.1-.2-4.1-.2-1.5-3,2.2-4.1,2.2-4.1,6.6-1.3,9.6,5,9.6,5,2.9,7.9-3.7,11.6-3.7,11.6-6.1,3.3-8.9-4.7-8.9-4.7-2.2-4.9-12.8-4.7-12.8-4.7-6.8-1.9-5.7-10-5.7-10,1-5,5.3-5,5.3-5,4.6-.6,3.6,3.7,3.6,3.7-.4,3.3-5.1,2.2-5.1,2.2,1.9,3,5,1.9,5,1.9,3.4-1,3.2-6.4,3.2-6.4-.4-7.4-9.4-5.2-9.4-5.2,2-5.4-2.8-7.8-2.8-7.8-6.8-2.1-6.9,3.3-6.9,3.3-.3,2.8,2.8,3.8,2.8,3.8-1.7-3.1,1.5-4.1,1.5-4.1,3.8,0,3.1,4.1,3.1,4.1-1.1,7.9-7.3,5.6-7.3,5.6-3.6-.4-2.9-8.7-2.9-8.7,0-9.5-9.2-8.3-9.2-8.3-6.8.5-6.2,6.6-6.2,6.6.5,6.3,4.7,6.3,4.7,6.3,4.5,0,3.2-4,3.2-4-.6,1.7-2.4,1.5-2.4,1.5-1.7.2-2.1-1.7-2.1-1.7-1.1-4,3.7-4.2,3.7-4.2,5.4-.4,4.7,6.8,4.7,6.8,0,8.5-8.8,7.3-8.8,7.3-6.4-1.2-7.4-12.4-7.4-12.4-2.1-12.2-13.5-9.4-13.5-9.4-11.7,4.1-7.1,13.7-7.1,13.7,1.5,4.7,7,4.2,7,4.2,6.3-1.3,2.6-7.9,2.6-7.9.4,1.9-1.7,3.5-1.7,3.5-2.2,1.5-4.4-.6-4.4-.6-2.9-4,2.8-6.5,2.8-6.5,6.1-2,7.9,3.3,7.9,3.3,2.3,6.5-3.8,11.2-3.8,11.2-7.8,3.8-13.4-2.7-13.4-2.7-5.5-5.5-1.8-10.7-1.8-10.7,3-3.5,2.7-8.5,2.7-8.5.3-10.1-9.1-9.2-9.1-9.2-10.3.4-8.1,10.4-8.1,10.4,1.1,6.4,7.3,4.9,7.3,4.9-3.1-1.4-3.8-4.2-3.8-4.2-1.4-4.7,4.3-5.7,4.3-5.7,5.4-.9,5.6,5,5.6,5,0,7.7-4.8,9-4.8,9-15.1,5.1-21.3-3.9-21.3-3.9-2.5-4.1.7-6.5.7-6.5,4.7-2.3,6.5,1.2,6.5,1.2,2.2,3.3-1.8,5.7-1.8,5.7,5.8,1.4,5.6-4.7,5.6-4.7.2-3.5-3.3-6.3-3.3-6.3-6-5.9-13.9-2.7-13.9-2.7-14.4,2.8-55.7.6-55.7.6-58-3.6-73.1,10.8-73.1,10.8-13.9,11.8-51.8,23.3-51.8,23.3-34.4,11.5-106,19.2-106,19.2-58.2,8.5-65,51.3-65,51.3-5.3,29.1-18,35.2-18,35.2-8.9,5.8-19.5,24.5-19.5,24.5-15.4,20.7-37.6,2.6-37.6,2.6-4.1,28.2,20.9,28.9,20.9,28.9.7,43.6,31.8,32.8,31.8,32.8-22.6-36.6,11.6-51.1,11.6-51.1,10.9-7.5,14.9-13.2,14.9-13.2.2,4.3,3.9,16.1,3.9,16.1,5.3,31-21.4,47.9-21.4,47.9-30.6,16.2-36.8,52.3-36.8,52.3-8.9,41.9-28.7,54-28.7,54-18,12.7-15.4,19.1-15.4,19.1.6,14.6,39.6,29.8,39.6,29.8,3.1-41.1,23.8-73,23.8-73,19-24.6,82.2-61.2,82.2-61.2,1.4,9-5.1,24.8-5.1,24.8-6.3,15.4-3.1,32.2-3.1,32.2,1.3,16.7,36.2,44.1,36.2,44.1,9.4,7.6,10,22.8,10,22.8,0,10.5,55.7,7.4,55.7,7.4,5.5-1.8-14.4-13.3-14.4-13.3-14.2-8-28.6-31.8-28.6-31.8-17.3-32.3,0-57.6,0-57.6,6.2-10.8,10.1-28.6,10.1-28.6,8.2-20,22.9-20.9,22.9-20.9,19.8-2.7,37.1,27.4,37.1,27.4,7.7,14.4,17.1,19.8,17.1,19.8-12.7-33.7,33.2-26.3,33.2-26.3,50.6,5.1,67.9,41.1,67.9,41.1,8.8,19.7,16.2,23.3,16.2,23.3-6.2-7-4.8-16.7-4.8-16.7.6-6.4,6.8-4.8,6.8-4.8,5.6.3,7.1,18,7.1,18,1,14.5,13.4,20.1,13.4,20.1-5.2-7.4-6.5-11.1-6.5-11.1-4.4-10,2.3-15.2,2.3-15.2,6.6-4.5,11.5.5,11.5.5,5.5,4.9,0,20.7,0,20.7,4.4-.6,5.7-4.5,5.7-4.5,3-1.2,2.4,5.9,2.4,5.9,0,12.7,13.1,25.8,13.1,25.8,8,9.1,13.8,26.1,13.8,26.1,2.1,8.9,4.5,12.1,4.5,12.1,4.4,6.8,41.1,4.3,41.1,4.3,7.4,0-11.1-19.2-11.1-19.2-11.3-14.7-5.3-20.7-5.3-20.7.2,3.1,3.3,7.4,3.3,7.4,1.6,1.9,3.9,8.9,3.9,8.9.2-8.1,6.8-12.1,6.8-12.1,0,7.8,3.1,14.4,3.1,14.4-.5-6.5,6.4-13.2,6.4-13.2,2.9-2.9,4.3-6.8,4.3-6.8,2.2,6.9,7.4,10.8,7.4,10.8-.6-5.1,4.8-12.7,4.8-12.7.7,4.2,6.2,14.8,6.2,14.8,4.3,7,2.9,12.6,2.9,12.6-.4,3.8.6,8.1.6,8.1,1,8,49.9,2.2,49.9,2.2,11.5-2.4-26.9-35.6-26.9-35.6-9.7-8.7-15.2-28.9-15.2-28.9-2.4-9.4-7.8-20.5-7.8-20.5-2.3-3.2-3.4-7.9-3.4-7.9-1.1-4.6,2-2.4,2-2.4,4.3,2.6,8.4,15.7,8.4,15.7-1.2-14.8,2.3-17.2,2.3-17.2,5.8-5.2,6,9.2,6,9.2.3,6.2,2.6,9.8,2.6,9.8-1.2-5,1.2-8.4,1.2-8.4,3.1-4.5,5.9,0,5.9,0,2,4.4-2.4,8.4-2.4,8.4-7,8.9-1.2,18.5-1.2,18.5-1.6-7.7,4.6-11.8,4.6-11.8,3-2.5,1.7,8.3,1.7,8.3-.5,13.6,8,28.4,8,28.4-3.4-14.6,6.4-23.3,6.4-23.3,3.6-4.1,2.8,3.5,2.8,3.5-.7,5.4,1.5,16.9,1.5,16.9.6-4,5.1-8,5.1-8,.2,7.4,3.1,11.6,3.1,11.6,4.8-28.6,40.5-34.9,40.5-34.9,9.4-2.2,2.1-20.4,2.1-20.4,13.9,19.5,18.1,12.6,18.1,12.6,3.7-3,11.2-3.6,11.2-3.6,9.2.5,14.1-7.4,14.1-7.4,8.1-7.3,7.4-14.5,7.4-14.5-.5-8.2,6.2-22.1,6.2-22.1,3.6-6,3-18.6,3-18.6-.9-5.1,9.2-16.2,9.2-16.2,8-9.6,4-23.1,4-23.1ZM752.9,378.7c-3.4,1.6-8.1-.6-8.1-.6-4.2-2.2-8.8-1.5-8.8-1.5-4.8-.3-4.5-10.5-4.5-10.5-.4-4.5,4.6-6.7,4.6-6.7,8.3-1.5,10.4,5,10.4,5,2.1,5.6-2.6,6.9-2.6,6.9-4.4.8-5.3-4.1-5.3-4.1-2.9,4.8.7,6.9.7,6.9,6.2,3.6,16-4,16-4,3.8-2.6,4.8,1.5,4.8,1.5.9,4.9,5.7,4.6,5.7,4.6,3.7.3,2.9-4.6,2.9-4.6-.7,3-4.6,1.6-4.6,1.6-3-.9-2-4.6-2-4.6,1.4-3.7,7-2.1,7-2.1,8.7,2.9,4.7,10.8,4.7,10.8-3.3,9.2-13,2-13,2-3.1-2.6-8.1-.6-8.1-.6Z"/>
  <g>
    <path class="cls-3" d="M381.5,546.6s10-3.6,8.2,4.1c0,0-1.7,16.8-9.9,29.6,0,0-16.4,27.4-6.8,46.9,0,0,5.1,10.6,7.7,21.9,0,0-16.4-17.4-20.7-19.8,0,0-15.7-11.1-10.1-35.1,0,0,4.1-27.4,13.5-33.5,0,0,15.9-13.5,18-14.1Z"/>
    <g>
      <path class="cls-5" d="M240.4,635c-.8,1.8-1.5,3.5-2,5.2,0,0,.8-2,2-5.2Z"/>
      <path class="cls-5" d="M404,425c-21.4-18.6-53.8-18-53.8-18-42.3,5.6-32.8,68.2-32.8,68.2,9,55.7-32.6,83.9-32.6,83.9-19.8,14.1-28.2,38.3-28.2,38.3-3.9,5.7-12.4,27.5-16.2,37.6,16-35.5,88.4-78.9,88.4-78.9,42.1-21.2,86.2-57.5,86.2-57.5,40.5-39.3-10.9-73.6-10.9-73.6ZM369.3,519.1s-26.1,15.7-42.5,30.3c0,0-34.4,26.4-45.2,27.5,0,0,4.4-8.5,20.8-25.9,0,0,24.6-20.8,22.8-65.4,0,0-9-70,35.7-63.6,0,0,44.9,3.8,44.1,48.7,0,0,1.3,27.5-35.8,48.5Z"/>
    </g>
    <path class="cls-3" d="M384.7,443.9s-20.2-28.6-44.4-1.9c0,0-12,14.2-8.3,43,0,0,3.3,36.7-11.8,59.9,0,0,32.4-28.6,42.5-34.6,0,0,45.5-27.8,22.1-66.5ZM347.7,498.8c-12.3-42.8,7.7-52.6,7.7-52.6,15.1-6.4,21.6,10.3,21.6,10.3,8,31.6-29.2,42.3-29.2,42.3Z"/>
    <path class="cls-5" d="M369.5,468.7c-.7,6.1-5.4,10.6-10.5,10-5.1-.6-8.7-6-8-12.1.7-6.1,5.4-10.6,10.5-10,5.1.6,8.7,6,8,12.1Z"/>
    <path class="cls-3" d="M647.1,633.3s-1.2,6,3.7,14.6c0,0,10,17.3,12.3,24.5,0,0,5.6,16.8,15.3,18.7,0,0,12.4,2.1,5.1-8,0,0-14-16.9-21-30.4,0,0-9.6-16.4-15.4-19.5Z"/>
    <path class="cls-3" d="M607.1,558.1c5.3-16.3,3.5-30.5,3.5-30.5-.8-10.8,1.7-20.8,1.7-20.8-5,2.6-12.6,12.8-12.6,12.8-13.3-34.6,11.9-66.9,11.9-66.9,6.5-10.3,3.7-17.4,3.7-17.4-4.4-12.1-19.2-2.4-19.2-2.4,3.1-41.6-21.3-45.2-21.3-45.2-22.6-4.7-28.5,20.3-28.5,20.3-21.6-62.3-62.3-34.4-62.3-34.4-20.8,15.1-60.3,6.7-60.3,6.7-67.7-9.5-74.2,12.3-74.2,12.3,32.7-6.8,86,45.8,86,45.8,52.3,46.2,13.4,83.8,13.4,83.8-7.2,5.6.1,9.9.1,9.9,15.7,6,24.1,21.2,24.1,21.2,63.1-21.3,128.1,29.9,128.1,29.9,11.6,12.6,16.1,9.8,16.1,9.8-18.2-18.7-10.3-34.9-10.3-34.9ZM539,541.2c-13.3-5-34.8-1.8-34.8-1.8-17.2,2.3-32.3,0-32.3,0-21-8-14.6-12.6-14.6-12.6,72.9-80.6-70-139.4-70-139.4,45.5-4.1,89.5,46.5,89.5,46.5,42.6,47.7,3.9,92,3.9,92,29.1-16.4,21.9-61.6,21.9-61.6-1.7-34.2-43.4-72.2-43.4-72.2,23.9-3.4,43.3,26.9,43.3,26.9,38.5,50.8,4.3,101.9,4.3,101.9,31.5-16.6,26.8-69.1,26.8-69.1-1.8-41.8-41.3-72.1-41.3-72.1,30.8-4.1,49.1,48.3,49.1,48.3,13.7,38.3-2.9,81.5-2.9,81.5,25.7-27.2,18.6-78.9,18.6-78.9-1.7-21.6,3.6-27.4,3.6-27.4,8.7-10.9,20.5-1.5,20.5-1.5,9.1,7.9,10.3,27.4,10.3,27.4-.5,10.4,2.8,18.8,2.8,18.8,4.6-8.9,10.4-6.5,10.4-6.5,7.2,6.2-8,18.5-8,18.5-23.9,22.6-16.9,54.1-16.9,54.1-2.3,35.9-40.6,27.2-40.6,27.2ZM587.3,549.6c-.5,4.5-4.1,7.8-8.2,7.4-4.1-.4-7-4.4-6.6-8.9.5-4.5,4.1-7.8,8.2-7.4,4.1.4,7,4.4,6.6,8.9ZM596.6,565c-.9,2.9-3.5,4.7-5.8,3.9-2.3-.7-3.5-3.6-2.6-6.5.9-2.9,3.5-4.7,5.8-3.9,2.3.7,3.5,3.6,2.6,6.5Z"/>
    <circle class="cls-5" cx="571.6" cy="421.3" r="11.3"/>
    <circle class="cls-5" cx="571.6" cy="451" r="9.2"/>
    <ellipse class="cls-5" cx="567.3" cy="483.6" rx="8" ry="8.5"/>
    <path class="cls-5" d="M563.2,510.8c0,3.4-2.8,6.2-6.2,6.2s-6.2-2.8-6.2-6.2,2.8-6.2,6.2-6.2,6.2,2.8,6.2,6.2Z"/>
    <path class="cls-5" d="M544.3,526.6c0,2.1-1.7,3.8-3.8,3.8s-3.8-1.7-3.8-3.8,1.7-3.8,3.8-3.8,3.8,1.7,3.8,3.8Z"/>
    <path class="cls-3" d="M738.4,637.5s7.2,36.6,21.4,43.3c0,0,18.1,9.6,9.8,12.6,0,0-16.8,2.3-20.1-6.5,0,0-.4-5.8-4.1-12.7,0,0-11.4-24.9-11.8-41.3,0,0,1.3-12.9,4.9,4.7Z"/>
    <path class="cls-3" d="M826.9,511.7s17.8,4.4,20.5,17.4c0,0,1.2,12.7,8.4,21.9,0,0,11.5,14.7,3.4,26.9,0,0-10.6,12.1-10.8,23.9,0,0,.4,9.8-3.2,4.9,0,0-8.9-9.5-18.6-5.4,0,0-8.8,3.2-15.1.3,0,0-10.2-3.4-13.3,3,0,0-3.4-7.7,2.4-18.6,0,0,7.4-8.1,2.9-25.6,0,0-4-13.1,7.3-27.4,0,0,6.7-6.7,1.8-14.8,0,0-4-6.1,1.4-7.4,0,0,6.1-1.6,12.9.9Z"/>
    <path class="cls-1" d="M911.2,521.9c-3.3,7.7-8.6,6.5-8.6,6.5,5.9-13.6,0-26.7,0-26.7-3.7-10.9-3.5-20-3.5-20,1.7-13.6-4.1-23-4.1-23-2.6-3.2-6.3-14.6-6.3-14.6,1.9,8.6-3,15.7-3,15.7,4.4-13.2-13.3-37.6-13.3-37.6,1,9.5-6.8,16.8-6.8,16.8-1-7.1-18.6-27.6-18.6-27.6,0,6.7-6.2,10.5-6.2,10.5,1.3-3.2,0-9.7,0-9.7-2,3.3-10.1,6.9-10.1,6.9,2.1-5-2.1-10.7-2.1-10.7-3-4.2-3-10.4-3-10.4-2.2,2-3.9,8.1-3.9,8.1-1.8,4.5-6,7.2-6,7.2,1.2-5.3-4.2-11.9-4.2-11.9,2.1,6.7-4.8,16.9-4.8,16.9-6.3,7-1,16.8-1,16.8-1.2,1.2-.6,3-.6,3,.6,3.3,3.5,2.9,3.5,2.9-1.2-1.6.6-2.9.6-2.9,3.4-1.1,4.5,2.6,4.5,2.6,1.4,3.7-1.7,4.7-1.7,4.7-6.8,2.1-10.7-3.9-10.7-3.9-4.1-3.8-13.8-7.5-13.8-7.5-8.5-5.8-7.2-15.3-7.2-15.3,1-9.9,12.6-8.4,12.6-8.4,10.2,1.1,7.9,8.8,7.9,8.8-1.6,6-6.9,4.4-6.9,4.4-4.2-.8-3.2-3.4-3.2-3.4.8-2.1,3.7-2.4,3.7-2.4-.8-1.4-2.7-1.4-2.7-1.4-4.8-.4-4.4,4.3-4.4,4.3-.3,3.7,4.1,5.9,4.1,5.9,8.4,3.3,10.8-5.8,10.8-5.8,5-18-9.9-15.1-9.9-15.1-2.7.6-1.7-1.4-1.7-1.4,2.7-3,1.5-8.3,1.5-8.3-1.5-7.9-9.1-9.4-9.1-9.4-7.8-2.2-10.9,3.5-10.9,3.5-3.2,4.8.3,9,.3,9,3.5,3.9,6.6,1.7,6.6,1.7,4-3.3-.6-6.2-.6-6.2.8,4.2-2.7,3.2-2.7,3.2-2.3-.8-1.4-4-1.4-4,.6-3.3,4.1-3.6,4.1-3.6,6.2-.3,8.6,5,8.6,5,2.1,3.9-.7,7.7-.7,7.7-5.9,5.9-16.2-1.2-16.2-1.2-3-3.1-7.3-3.1-7.3-3.1-6.5-.1-8.5-6.4-8.5-6.4-2.2-6.7,3.2-8.5,3.2-8.5,5.3-1.2,5,3.2,5,3.2,0,3.9-5.5,2-5.5,2,.6,3.3,4.2,3.2,4.2,3.2,4.1-.2,6.2-5.9,6.2-5.9,10.4.9,12.3-11.2,12.3-11.2,1.1-11.8-12-13-12-13,6.6-14.5-10.4-17.2-10.4-17.2-9.6-1.4-10.4,5.6-10.4,5.6-.8,5.9,3,6.7,3,6.7,5.9,1.2,4.2-3.4,4.2-3.4-2.5,2.4-4.1-.2-4.1-.2-1.5-3,2.2-4.1,2.2-4.1,6.6-1.3,9.6,5,9.6,5,2.9,7.9-3.7,11.6-3.7,11.6-6.1,3.3-8.9-4.7-8.9-4.7-2.2-4.9-12.8-4.7-12.8-4.7-6.8-1.9-5.7-10-5.7-10,1-5,5.3-5,5.3-5,4.6-.6,3.5,3.7,3.5,3.7-.4,3.3-5.1,2.2-5.1,2.2,1.9,3,5,1.9,5,1.9,3.4-1,3.2-6.4,3.2-6.4-.4-7.4-9.4-5.2-9.4-5.2,2-5.4-2.8-7.8-2.8-7.8-6.8-2.1-6.9,3.3-6.9,3.3-.3,2.8,2.8,3.8,2.8,3.8-1.7-3.1,1.5-4.1,1.5-4.1,3.8,0,3.1,4.1,3.1,4.1-1.1,7.9-7.3,5.6-7.3,5.6-3.6-.4-2.9-8.7-2.9-8.7,0-9.5-9.2-8.3-9.2-8.3-6.8.5-6.2,6.6-6.2,6.6.5,6.3,4.7,6.3,4.7,6.3,4.5,0,3.2-4,3.2-4-.6,1.7-2.4,1.5-2.4,1.5-1.7.2-2.1-1.7-2.1-1.7-1.1-4,3.7-4.2,3.7-4.2,5.4-.4,4.7,6.8,4.7,6.8,0,8.5-8.8,7.3-8.8,7.3-6.4-1.2-7.4-12.4-7.4-12.4-2.1-12.2-13.5-9.4-13.5-9.4-11.7,4.1-7.1,13.7-7.1,13.7,1.5,4.7,7,4.2,7,4.2,6.3-1.3,2.6-7.9,2.6-7.9.4,1.9-1.7,3.5-1.7,3.5-2.2,1.5-4.4-.6-4.4-.6-2.9-4,2.8-6.5,2.8-6.5,6.1-2,7.9,3.3,7.9,3.3,2.3,6.5-3.8,11.2-3.8,11.2-7.8,3.8-13.4-2.7-13.4-2.7-5.5-5.5-1.8-10.7-1.8-10.7,3-3.5,2.7-8.5,2.7-8.5.3-10.1-9.1-9.2-9.1-9.2-10.3.4-8.1,10.4-8.1,10.4,1.1,6.4,7.3,4.9,7.3,4.9-3.1-1.4-3.8-4.2-3.8-4.2-1.4-4.7,4.3-5.7,4.3-5.7,5.4-.9,5.6,5,5.6,5,0,7.7-4.8,9-4.8,9-15.1,5.1-21.3-3.9-21.3-3.9-2.5-4.1.7-6.5.7-6.5,4.7-2.3,6.5,1.2,6.5,1.2,2.2,3.3-1.8,5.7-1.8,5.7,5.8,1.4,5.6-4.7,5.6-4.7.2-3.5-3.3-6.3-3.3-6.3-6-5.9-13.9-2.7-13.9-2.7-14.4,2.8-55.7.6-55.7.6-58-3.6-73.1,10.8-73.1,10.8-13.9,11.8-51.8,23.3-51.8,23.3-34.4,11.5-106,19.2-106,19.2-58.2,8.5-65,51.3-65,51.3-5.3,29.1-18,35.2-18,35.2-8.9,5.8-19.5,24.5-19.5,24.5-15.4,20.7-37.6,2.6-37.6,2.6-4.1,28.2,20.9,28.9,20.9,28.9.7,43.6,31.8,32.8,31.8,32.8-22.6-36.6,11.6-51.1,11.6-51.1,10.9-7.5,14.9-13.2,14.9-13.2.2,4.3,3.9,16.1,3.9,16.1,5.3,31-21.4,47.9-21.4,47.9-30.6,16.2-36.8,52.3-36.8,52.3-8.9,41.9-28.7,54-28.7,54-18,12.7-15.4,19.1-15.4,19.1.6,14.6,39.6,29.8,39.6,29.8,3.1-41.1,23.8-73,23.8-73,19-24.6,82.2-61.2,82.2-61.2,1.4,9-5.1,24.8-5.1,24.8-6.3,15.4-3.1,32.2-3.1,32.2,1.3,16.7,36.2,44.1,36.2,44.1,9.4,7.6,10,22.8,10,22.8,0,10.5,55.7,7.4,55.7,7.4,5.5-1.8-14.4-13.3-14.4-13.3-14.2-8-28.6-31.8-28.6-31.8-17.3-32.3,0-57.6,0-57.6,6.2-10.8,10.1-28.6,10.1-28.6,8.2-20,22.9-20.9,22.9-20.9,19.8-2.7,37.1,27.4,37.1,27.4,7.7,14.4,17.1,19.8,17.1,19.8-12.7-33.7,33.2-26.3,33.2-26.3,50.6,5.1,67.9,41.1,67.9,41.1,8.8,19.7,16.2,23.3,16.2,23.3-6.2-7-4.8-16.7-4.8-16.7.6-6.4,6.8-4.8,6.8-4.8,5.6.3,7.1,18,7.1,18,1,14.5,13.4,20.1,13.4,20.1-5.2-7.4-6.5-11.1-6.5-11.1-4.4-10,2.3-15.2,2.3-15.2,6.6-4.5,11.5.5,11.5.5,5.5,4.9,0,20.7,0,20.7,4.4-.6,5.7-4.5,5.7-4.5,3-1.2,2.4,5.9,2.4,5.9,0,12.7,13.1,25.8,13.1,25.8,8,9.1,13.8,26.1,13.8,26.1,2.1,8.9,4.5,12.1,4.5,12.1,4.4,6.8,41.1,4.3,41.1,4.3,7.4,0-11.1-19.2-11.1-19.2-11.3-14.7-5.3-20.7-5.3-20.7.2,3.1,3.3,7.4,3.3,7.4,1.6,1.9,3.9,8.9,3.9,8.9.2-8.1,6.8-12.1,6.8-12.1,0,7.8,3.1,14.4,3.1,14.4-.5-6.5,6.4-13.2,6.4-13.2,2.9-2.9,4.3-6.8,4.3-6.8,2.2,6.9,7.4,10.8,7.4,10.8-.6-5.1,4.8-12.7,4.8-12.7.7,4.2,6.2,14.8,6.2,14.8,4.3,7,2.9,12.6,2.9,12.6-.4,3.8.6,8.1.6,8.1,1,8,49.9,2.2,49.9,2.2,11.5-2.4-26.9-35.6-26.9-35.6-9.7-8.7-15.2-28.9-15.2-28.9-2.4-9.4-7.8-20.5-7.8-20.5-2.3-3.2-3.4-7.9-3.4-7.9-1.1-4.6,2-2.4,2-2.4,4.3,2.6,8.4,15.7,8.4,15.7-1.2-14.8,2.3-17.2,2.3-17.2,5.8-5.2,6,9.2,6,9.2.3,6.2,2.6,9.8,2.6,9.8-1.2-5,1.2-8.4,1.2-8.4,3.1-4.5,5.9,0,5.9,0,2,4.4-2.4,8.4-2.4,8.4-7,8.9-1.2,18.5-1.2,18.5-1.6-7.7,4.6-11.8,4.6-11.8,3-2.5,1.7,8.3,1.7,8.3-.5,13.6,8,28.4,8,28.4-3.4-14.6,6.4-23.3,6.4-23.3,3.6-4.1,2.8,3.5,2.8,3.5-.7,5.4,1.5,16.9,1.5,16.9.6-4,5.1-8,5.1-8,.2,7.4,3.1,11.6,3.1,11.6,4.8-28.6,40.5-34.9,40.5-34.9,9.4-2.2,2.1-20.4,2.1-20.4,13.9,19.5,18.1,12.6,18.1,12.6,3.7-3,11.2-3.6,11.2-3.6,9.2.5,14.1-7.4,14.1-7.4,8.1-7.3,7.4-14.5,7.4-14.5-.5-8.2,6.2-22.1,6.2-22.1,3.6-6,3-18.6,3-18.6-.9-5.1,9.2-16.2,9.2-16.2,8-9.6,4-23.1,4-23.1ZM900.4,503.7c4.7,13.5-1.3,20.2-1.3,20.2,0-4.9-4.1-14.2-4.1-14.2-5.1-11.2,1.8-18.4,1.8-18.4,0,3.7,3.6,12.4,3.6,12.4ZM874.8,554.6s-6.3-2.1-6.7-7.7c0,0,4.5,2.1,8.4-1.1,0,0-2.2,6.5-1.8,8.8ZM871.2,545.2c-2.9,0-5.3-2.4-5.3-5.3s2.4-5.3,5.3-5.3,5.3,2.4,5.3,5.3-2.4,5.3-5.3,5.3ZM864.4,525.3c4.2.9,6,5.5,6,5.5-3-.9-6.3,2.6-6.3,2.6.8-2.8.3-8.1.3-8.1ZM872.7,526.5c-5.6-12.6,3.4-19.2,3.4-19.2.1,3.1,4.4,9.6,4.4,9.6,5.9,8,4.5,18.2,4.5,18.2-9.9-3.2-12.3-8.7-12.3-8.7ZM882.7,512.9c-3.8-7.8-.9-11.6-.9-11.6,2.4-3.4,4.4-10,4.4-10,.2,2.6,4.2,12.1,4.2,12.1,3.6,10.7-2.8,18.5-2.8,18.5,0-1.4-4.8-9-4.8-9ZM887.3,530.4s1-3,3.4-6.3c0,0,3.3-5.8,3.4-7.2,0,0,4.6,11.2.6,19.7,0,0-2.9,4.8-2.9,8.6,0,0-6.4-5.1-4.5-14.8ZM893.9,491.6s-2.2,2.8-2.2,4.6c0,0-3.7-4.4,0-10.1,0,0,3.9-3.7,4.7-6,0,0,1.3,6.7-2.5,11.5ZM884,472.7s.6-2.9,3.2-6.6c0,0,4-5.6,4.2-8.1,0,0,6.8,7.8,3.5,16.3,0,0-3.3,8.4-7,12.1,0,0-5.3-6.6-3.8-13.7ZM870.1,438.7c3.6-3.6,4.5-8.9,4.5-8.9,11.5,24.5,6.7,28.2,6.7,28.2-1.5-7.3-8.6-12.8-8.6-12.8,2.6,12.1-.9,16.6-.9,16.6-2.6-3.3-3.6-11.4-3.6-11.4-1.5-9.2,1.9-11.7,1.9-11.7ZM847.9,417.8s15.6,18.5,15.7,29.6c0,0-27.2-7.8-15.7-29.6ZM869.1,469.1s.6,6.8-5.5,7.1c0,0-15.4.7-20.3-34.2,0,0,26.2,9.9,25.8,27.1ZM853.5,494.1c-9.2-.6-6-21.9-6-21.9,6.2,4.3,10.4,10.9,10.4,10.9,5.1,11-4.4,10.9-4.4,10.9ZM839.2,418.5c-1.7,8.3,2.4,18,2.4,18-1.7-.3-4.7-1.5-4.7-1.5,5.6,12.2,2.4,17.6,2.4,17.6-19.7-21.6,0-34,0-34ZM839.6,461.2c8.2,5,3.8,17.4,3.8,17.4-1.2-3.1-7.4-6.3-7.4-6.3-14.6-10.6-11.2-24.8-11.2-24.8,1.7,3.8,14.8,13.8,14.8,13.8ZM844.6,493.2s-1.1,9.1-10.1,3.7c0,0-4.5-3.9,0-20,0,0,11.2,3.9,10.1,16.3ZM824.1,406.2s5.6,6.8,4,16c0,0-3.5,15.1-1.5,19.8,0,0-20.2-17.1-2.6-35.8ZM815.9,438.9s-1.6-3.9-6.8-4.9c0,0-7.9-6.9,1.8-19,0,0-.5,15.9,10.8,26.9,0,0-1.7,8.2,0,11,0,0-5.9-3.7-8.9-3.2,0,0,5.3-5,3.1-10.9ZM819,455c3.4,6.2-1.6,9.2-1.6,9.2-6.9,3.7-7.6-2.1-7.6-2.1-.4-1.7,3.1-2.8,3.1-2.8-2.9-2-4.7.7-4.7.7-2.1,5.9,3.4,8.2,3.4,8.2,9.9,2.7,12.3-6.8,12.3-6.8.6,5.3,3.4,8,3.4,8,3.8,2.9,3,12.6,3,12.6-3.3-8.3-10.3-9.4-10.3-9.4-7.6-2.2-10.2,6.3-10.2,6.3-3.2,11.6,4,13.5,4,13.5,12,2.1,6.7-9.5,6.7-9.5.2,3.7-3.1,4.6-3.1,4.6-5.8.7-4.6-4.9-4.6-4.9.9-4.4,5.5-4.9,5.5-4.9,7.5-.6,7.6,9.9,7.6,9.9.4,13-16.1,9.9-16.1,9.9-20.3-1.3-22.8-14.4-22.8-14.4-2.5-9.2,5.6-13.3,5.6-13.3,7.4-2.5,8.9,4.8,8.9,4.8.4,4.6-4.6,3.1-4.6,3.1-3-.6-3.9-2.8-3.9-2.8-3.8,4.9-.3,8.7-.3,8.7,10.6,8.6,14.5-5,14.5-5,1.8-8.4-8.3-14-8.3-14,1.8-3.6,8.7-9.1,8.7-9.1,6.1-5.3,11.3-.6,11.3-.6ZM771.1,470.7c.2,5.5,4.6,3.7,4.6,3.7-3.7-2.2,0-4.5,0-4.5,6.3-2.7,6.5,3.2,6.5,3.2,0,10.2-7.7,8.6-7.7,8.6-5.6-1-7-7.1-7-10.7s0-.3,0-.4c-.3-3.6-4.3-9.3-4.3-9.3,8.7,3.8,17.2-3.3,17.2-3.3,0,3.9,7.9,8.1,7.9,8.1.5,2.9-2.6,2.7-2.6,2.7-2.3-4.2-7.3-4.7-7.3-4.7-7.6-1.2-7.2,6.5-7.2,6.5ZM773.2,501.3c-2.6-5.4-9.2-2.9-9.2-2.9-8,3.3-4.4,13.9-4.4,13.9-5.8-5.8-3-14.9-3-14.9,2.3-8,12.5-8,12.5-8,11.9.6,12.4,10.3,12.4,10.3.8,14.7-8.4,14.7-8.4,14.7-9.7-.3-8.7-8.6-8.7-8.6-.1-4,3.9-3.2,3.9-3.2,3.7,1.7,1.8,4.7,1.8,4.7,5.6-.3,3.2-6.1,3.2-6.1ZM743.8,501s-1-4.7-7.3-3c0,0-6.2,3-5.8,10.5,0,0,.5,10.1,9.1,11.7,0,0-5.6,4.6-5.2,11.1,0,0-10.5-5.9-5-29,0,0,2.7-14.4,13.8-11,0,0,11.1,4,6.8,15.7,0,0-4.5,11.9-12.9,5.5,0,0-4.9-3.9-1.7-9.8,0,0,2.2-3.2,4.9-.6,0,0,1.8,3.4-.9,4.9,0,0,5.4,1.7,4.3-5.9ZM621.8,525.6s-.3-18.8,8.5-31.3c0,0,21,35.9-12.1,59.9,0,0,4.1-17.9,3.6-28.5ZM599,335.9s20.9,8.6,13.3,35c0,0-11.3-8.5-10.3-16.3,0,0,.6-14.8-3.1-18.7ZM608.4,392s-13-1.4-7.3-27.3c0,0,13.8,8.6,7.3,27.3ZM614.8,389c14.9,19.9-5.8,26.3-5.8,26.3-3-18,5.8-26.3,5.8-26.3ZM618.5,361.4s13.7,14.4,5.3,38.3c0,0-14.7-27-5.3-38.3ZM697.2,400.6s15.8,15.4,4.9,35.7c0,0-11-7.4-6-24.6,0,0,1.9-7.6,1-11ZM711.5,450.2s-4.6,3,.8,8.3c0,0,5.6,4.3,11.5-1.8,0,0,3.2-3,2.5-11.2,0,0,1.2-9.3,13.4-9.2,0,0,14.1,1.2,11,15.7,0,0-1.5,10.2-13.7,6.7,0,0-4.5-2.8-1.1-7.2,0,0,3.4-3.3,6.9,1.1,0,0,1.7-7.2-6.3-6.3,0,0-8.5,1.3-5.8,11.3,0,0,1.3,6.7,11.4,6.7,0,0,.1,4-3.5,6.6,0,0-3.3-8.3-11.8-6.5,0,0-7.9.8-8.3,9.3,0,0,.2,9,9.4,5.9,0,0-6.4-2.1-6.4-5.3,0,0-.5-6.2,6.1-7,0,0,9.7.2,7.2,11.5,0,0-5,19.2-23.8,7.4,0,0,9.1-9.9.6-18.8,0,0-5.9-2.8-9.7.6,0,0-4.3,3.8,1.6,8,0,0-1.5-5.8,1.5-6.4,0,0,6.4-2.1,6.8,7,0,0,.1,7.9-10.1,6.8,0,0-9.4-2.6-7.1-10.5,0,0,1.4-6.8,8-9.9,0,0,4.4-2.3,3.8-10.6,0,0-1.9-9.6,7.4-9.5,0,0,8.6.4,8,8.8,0,0-.8,6.7-7.2,5.5,0,0-3.2-1.8-.9-4.1,0,0,1.4-.8,2.5.6,0,0,.9-4.2-4.8-3.3ZM700.5,488.1c12.1,0,10.6,28.4,10.6,28.4-13.3-11.5-10.6-28.4-10.6-28.4ZM704.6,543.9s-2.7-12.1-5-14.7c0,0-5.5-8.2-.5-21.7,0,0,4.2,8.3,7.5,12.3,0,0,6.4,8-2.1,24ZM710.2,538.3s1.8-5.6,1.1-11.7c0,0,15.8,9.4,9.4,24.3,0,0-5.6,9.3-6.2,15.6,0,0-7.1-19.8-4.4-28.1ZM714.3,502.5s.6-6-2.1-12.4c0,0,19.1,11,10,39,0,0-9.1-8.2-7.9-26.7ZM658,519.5c-4.2-12.4,8-24,8-24-1.3,7.5,1.8,19.2,1.8,19.2,2.5,10.9-7.6,15.7-7.6,15.7.4-4-2.2-10.9-2.2-10.9ZM638.5,505.5c-3.9-12.5,3.5-21.2,3.5-21.2-.6,3.4,3.4,19.4,3.4,19.4,4.7,23.4-5.7,23.9-5.7,23.9,2.9-8.5-1.2-22.1-1.2-22.1ZM636.3,416.7s-1.8-8.3,4.3-18c0,0,12.7,25.8-4.6,52.3,0,0-1.4-5.8,1.4-19.9,0,0,1.7-5.1-1-14.4ZM634.6,404.3s-8.4-9.9-2.7-22.4c0,0,9.8,10.3,2.7,22.4ZM689.4,423.1c8,10.8,3.3,16.8,3.3,16.8-2.1,2.8-3.3,16.8-3.3,16.8-8.6-13.7-3.3-21.3-3.3-21.3,3.2-5.6,3.3-12.4,3.3-12.4ZM687.4,391.9c9.6,3.5,3.8,26.5,3.8,26.5-7-8.3-3.8-26.5-3.8-26.5ZM683.2,490.8s-11.8-10.8-4.5-21c0,0,6.1-7.1,5.9-12.4,0,0,8,8.4,2,21.4,0,0-4.1,8.1-3.4,12.1ZM669.4,454.2s11.7,26.2-11,43.5c0,0-3.3-30.9,11-43.5ZM667.5,441.1s-5.9-6.3-2.3-27.6c0,0,8,7.1,2.3,27.6ZM679.2,440.2c6.7,16.3-3.2,27.1-3.2,27.1,1.3-5.1-3.5-16.3-3.5-16.3-2.7-8.2,1.5-23.3,1.5-23.3-.4,2.3,5.2,12.4,5.2,12.4ZM671.8,512s-4.6-13.3,1.8-28.5c0,0,9.9,12.6-1.8,28.5ZM673.7,518.1s13.3,12.6-4.7,27.5c0,0-2.5-20,4.7-27.5ZM676.6,510.2c4.5-6.4,4-17.3,4-17.3,5.7,8.4-2.2,25.8-2.2,25.8-4.1-6.2-1.8-8.5-1.8-8.5ZM682.5,434.4s-8.7-7.5-5-25.8c0,0,15.4,10.6,5,25.8ZM683.5,407.6c-15.2-12.3-11.2-28.9-11.2-28.9.9,2.2,9.7,8.5,9.7,8.5,5.5,3.8,1.5,20.4,1.5,20.4ZM673.1,417.4s-8.2-5.5-8.9-18.7c0,0-2.1-12.9-6.7-18.7,0,0,18.6,6.3,15.5,37.3ZM645.1,453.8s-3.9-11.5,3.2-24c0,0,14.9,23.5-1.8,39.3,0,0,.7-11.4-1.4-15.3ZM652.3,469.1c6.4,30.4-1.7,40-1.7,40-5.7-16.1-6.2-27.3-6.2-27.3-.6-6.8,7.8-12.7,7.8-12.7ZM654.4,431.5s-5.8-6.3-4.6-22.9c0,0-.9-12.3-2.6-15.2,0,0,20.7,13.2,7.2,38.1ZM657.6,396.8c-20.5-11.2-17.5-24.5-17.3-24.1,1.4,2.6,11.5,8.8,11.5,8.8,9.4,5,5.7,15.4,5.7,15.4ZM632.3,349.8c8.7,3.5,14.9,22.2,14.9,22.2-16.8-8.9-14.9-22.2-14.9-22.2ZM641.3,451.6s8.6,15.4-6.4,40.8c0,0-6.7-13.7,6.4-40.8ZM650,527.8s-.2-10.1,3.8-11.8c0,0,11.3,25.8-7.8,34.9,0,0,4.8-13.5,4.1-23.1ZM660.2,433s8.5,13.3,3.9,21.2c0,0-5.6,9.1-6,13.1,0,0-3.5-20.9,2.1-34.3ZM663.9,534.3s4.7,13.2-2.7,21.5c0,0-3.3-18,2.7-21.5ZM665.2,556.7s3.9-6,8.3-10.3c0,0,1.3,17.1-3,27.2,0,0-9.3-11.4-5.2-16.9ZM673.5,573.6s9.4,20.1,0,38.5c0,0-9-25.8,0-38.5ZM681.3,539.2s7.7,11.8-2.9,33.9c0,0-4-29.5,2.9-33.9ZM681.6,573.6s3.8-6.9,4-9.5c0,0,7.4,13.7-4,27.2,0,0-4.1-13,0-17.7ZM682.2,534.7s-3.8-7.9,3.5-27.9c0,0,10.8,13.1-3.5,27.9ZM691.1,481.5s11.2,15.2,2,33.3c0,0-13.4-18-2-33.3ZM696.8,435.5s13.8,15.9-2.6,23.8c0,0-.2-17.3,2.6-23.8ZM709.1,416c.3-4.4-6.6-15.4-6.6-15.4-3.3-6.4-3-22.2-2.7-21.9,12.5,9.2,11.2,15.6,11.2,15.6-.8,3.5.3,9.3.3,9.3,1.6,9.2-2.3,12.4-2.3,12.4ZM698.3,366.7s15.1,5.3,14.1,18.1c0,0-13.3-5.1-14.1-18.1ZM694.9,394.7s-10-6-9.6-18.8c0,0,1.1-5.2-2.8-9.2,0,0,19.1,3.9,12.4,28ZM683.8,383.4s-12.2-6-15.2-16.7c0,0-6.1-12-10.3-14.9,0,0,13.7,1.8,18.5,17,0,0,3.8,10.3,7.1,14.6ZM669,383.4s-7-5.3-11.4-7.1c0,0-10.1-5.2-11.2-14.3,0,0,11.7,4.8,15,8.6,0,0-5.7-12.6-5.6-17.1,0-.8,15.3,16.1,13.2,30ZM656.7,363.2s-20-7-27.5-23.6c0,0,22.5,8,27.5,23.6ZM637.8,381.9s-24.5-28.8-19.5-34.3c0,0,19.3,12.6,19.5,34.3ZM627.6,400.6s13.7,26.9,3.3,45c0,0-13.4-31.3-3.3-45ZM612.2,492.4s-2.8-9.7,6.7-21c0,0,8.7-11,10.4-18.5,0,0,9.4,31-17.1,39.5ZM645.8,529.2s2.3,23.2-13.7,34.9c0,0-4.8,3.9-6.9,9.5,0,0-5.3-12.7,20.7-44.4ZM647.1,556.3s8.3-5.6,9.1-7.7c0,0,8,16.7-13.7,27.7,0,0-1.3-15.5,4.6-20ZM651.7,577.1s7.2-10.9,7.5-14.2c0,0,15.4,18.7-7.5,47.6,0,0-5.5-23.9,0-33.4ZM666.4,595.4c-.2,1.5,3.1,15.1,3.1,15.1,2.1,12.3-6.5,21.4-6.5,21.4-7-19.8,3.4-36.4,3.4-36.4ZM670.9,626.5s6.4-10,6.7-12.1c0,0,6.5,10.9,1,23.4,0,0-4.9,8.5-5.3,12.7,0,0-8.1-9.5-2.5-24ZM686.7,592.2s5.5,16.8-2.8,31.5c0,0-10.3-20.7,2.8-31.5ZM694.3,524.4c12.5,27.5-3,45.8-3,45.8-10.7-26.6,3-45.8,3-45.8ZM699.5,562.3s12.8,33.3-7.8,51.3c0,0-3.3-43.4,7.8-51.3ZM704.9,600.6c.7,4.5.5,12.1.5,12.1-.3,4.2-4.7,12.1-4.7,12.1-5.6-15.3,4.2-24.2,4.2-24.2ZM705.8,548.4c-.9,3.7,3.3,13.9,3.3,13.9,5.2,13.3-.7,30.1-.7,29.9,1.2-5.6-3-21-3-21-3.9-18.4.4-22.8.4-22.8ZM710.6,597.2c-.3,4.5,6.2,14.9,6.2,14.9,7.6,13.1-1,22.1-1,22.1.3-8.1-5.2-16.6-5.2-16.6-6.2-8.6,0-20.4,0-20.4ZM717.5,604.6s-6.2-9.2-1.8-22.3c0,0,12.8,18,8,35.3,0,0-2.9-8.7-6.2-13ZM723.8,588.5s-15.2-12.2,1.5-35.2c0,0,2.4,7.4,0,15,0,0-3.2,13.7-1.5,20.2ZM726.6,528.7s12.8,21.6,11.1,35.4c0,0-14.1-6.7-11.1-35.4ZM742.1,484.5s-5.4-5.8.9-13.3c0,0,7.4-12.8,11.3-15.3,0,0,2.6,2.6,3.8,3,0,0-8.3,3.8-9.8,11,0,0-1.1,5.6,3.5,7.9,0,0,3.9,1.3,5.3-3,0,0-5.4,2.2-6.6-2.8,0,0-1.2-6.1,6-7.4,0,0,10.3-1.1,7.9,10.8,0,0-6,18.8-22.3,9.2ZM784.8,448.1c2.1,9.6,9.4,9,9.4,9,7.8-.6,4.9-7,4.9-7-2.5-5.6-6.7-2.6-6.7-2.6,3.3,1.2,2.1,3.8,2.1,3.8-1.5,1.9-4.1,0-4.1,0-3.9-3.8-1.5-8.2-1.5-8.2,1.3-3.1,7.8-1.3,7.8-1.3,9,4.4,6.8,11.7,6.8,11.7-3.7,12.7-15.3,7.5-15.3,7.5-7.1-3.9-3.5-12.8-3.5-12.8ZM780.2,430.2s6.8,5.7,1,18.7c0,0-5.8,11.9-15,9.7,0,0-9.6-2.1-9.1-15.1,0,0,11.6,13.3,18.1-1.7,0,0,2.7-6.3-6-7.8,0,0,4.9,4.7,2.6,8,0,0-2.6,6.6-12.2-.2,0,0-4-4.4,1.6-11.7,0,0,6.4-7.3,19,0ZM736.2,359.5c8.3-1.5,10.4,5,10.4,5,2.1,5.6-2.6,6.9-2.6,6.9-4.4.8-5.3-4.1-5.3-4.1-2.9,4.8.7,6.9.7,6.9,6.2,3.6,16-4,16-4,3.8-2.6,4.8,1.5,4.8,1.5.9,4.9,5.7,4.6,5.7,4.6,3.7.3,2.9-4.6,2.9-4.6-.7,3-4.6,1.6-4.6,1.6-3-.9-2-4.6-2-4.6,1.4-3.7,7-2.1,7-2.1,8.7,2.9,4.7,10.8,4.7,10.8-3.3,9.2-13,2-13,2-3.1-2.6-8.1-.6-8.1-.6-3.4,1.6-8.1-.6-8.1-.6-4.2-2.2-8.8-1.5-8.8-1.5-4.8-.3-4.5-10.5-4.5-10.5-.4-4.5,4.6-6.7,4.6-6.7ZM743.7,387.1c-3.1-2.3-4.9.4-4.9.4,5.5,3,1,5.5,1,5.5-5.4,1.3-5.6-4.9-5.6-4.9,0-4.6,4.5-6,4.5-6,7.1-1.9,10,4.2,10,4.2,4.7,8.7-1,14.3-1,14.3-10.8,6.9-14.7-4.2-14.7-4.2,6.9,2.5,10.1-1,10.1-1,4-4.7.6-8.4.6-8.4ZM731.4,404.7s3.1,3.6,7.8,3.7c0,0,10.7,6,9.7,12,0,0-1.9,10.1-10.8,5.7,0,0-6.5-4.1-1.9-7.8,0,0,3-1.2,4,1.5,0,0,.2,2.4-1.6,2.4,0,0,4.2,2.7,4.6-3.7,0,0,0-5.2-8.1-4.1,0,0-4.7,1.7-3.5,6.9,0,0,2.1,11.7,13.5,9.2,0,0,6.8-1.3,5.8-13.1,0,0-.4-5-6.5-9.2,0,0,8.7-4.1,9.1-10,0,0,4.2,3.6,9.4,3.3,0,0,11.6,1.9,11.7,10.3,0,0,.7,8.2-8.9,7.9,0,0-7.8-.3-7.6-7.1,0,0,1.1-3.3,4-2.4,0,0,2.2,1,2.1,3.4,0,0,4.6-4.8-1.3-7.8,0,0-6.2-2.1-8.8,3.3,0,0-3.5,9.7,5.9,14.1,0,0-9,4.9-5.8,14.4,0,0-12.6-7.6-22.5-3.7,0,0,2.2-9.4-6.4-12,0,0-6.9-1.2-8.6,2.2,0,0-2.9,4.2,1.6,8.1,0,0-1.4-7.1,4.7-7.7,0,0,3.3-.1,5,4.6,0,0,2.5,6-3.6,9.1,0,0-7.1,2.6-10.6-4,0,0-4-6.2.8-13.1,0,0,3.4-7.6,2.9-13.3,0,0,9,7.4,13.9-2.9ZM716.4,403.3s-4-13.3,7.6-11.4c0,0,6,1.9,5.3,9.6,0,0-.8,8.1-8,4.7,0,0-5.3-3.6,1.9-4.9,0,0-3.8-5.3-6.9,2ZM720.6,383.6s-2.3-1.7-3-5c0,0,9.4,4.1,8-5.1,0,0-5.6,4.5-8-.5,0,0-1.4-5.5,4.7-5.3,0,0,8.2,1.2,8.1,9.6,0,0-1,10.8-9.9,6.3ZM714.9,348.2c6.2-3.1,9.1,2.1,9.1,2.1,1.8,6.8-2.8,5.7-2.8,5.7-2.9-.8-3.7-4-3.7-4-1.8,3.4,1.3,6.4,1.3,6.4,5,4.2,10.9-2.5,10.9-2.5,1.2,6.3-3.8,8.4-3.8,8.4-7.5,1.5-10.9-3.8-10.9-3.8-5.5-8.1,0-12.2,0-12.2ZM709.9,346.5c.9,0,1.7.7,1.7,1.7s-.7,1.7-1.7,1.7-1.7-.7-1.7-1.7.7-1.7,1.7-1.7ZM699.8,345.1s4,.5,4.3,4c0,0-.6,4.9-4.9,2,0,0,2.5,5.9,10,2,0,0-1.5,5.7,0,8.3,0,0-13-5-14.3-11.1,0,0-1.1-5.4,4.9-5.1ZM703.7,361.4s10.4,1.3,10.3,11.8c0,0-9-7.9-13.3-8.5,0,0-9.7-3.7-9.9-12,0,0,6.8,7.5,13,8.7ZM694.6,367.5s-15.5-2.5-25-15.1c0,0,15.5-6.7,25,15.1ZM679.2,347.7c-13.9,7.3-25.7-1.6-25.7-1.6,15.1-9.7,25.7,1.6,25.7,1.6ZM645.5,330.9s4.9,4.7,15.9,4.2c0,0,5.8.6,7.8,3.3,0,0-4.8-.3-9.4,2.2,0,0-10.7,8.6-16,0,0,0-8-13.9-12.5-17.5,0,0,10.2,2.5,14.2,7.8ZM601.5,319c6.2-.4,10.6,0,10.6,0,16.3,1.1,24.7,18.8,24.7,18.8-35.9-9.2-35.3-18.8-35.3-18.8ZM610.5,329.7c14.3,5.6,16,17.4,16,17.4-21.7-5-32-23.3-32-23.3,3.6,2.4,16,5.9,16,5.9ZM585.2,327.4s16.7,11.5,14.4,32.3c0,0-5.4-9.6-9.9-13.6,0,0-7.2-7.8-4.5-18.7ZM596.3,374.1s-18.1-19.9-17.4-34c0,0,22.3,17.7,17.4,34ZM594.5,383.4s-14.6-5.5-9.8-20.3c0,0,10.7,11.8,9.8,20.3ZM580.6,372c-14.2-9.1-17.8-29.1-17.8-29.1,2.8,2.4,12.8,8.2,12.8,8.2,8,4.5,5,20.9,5,20.9ZM580.7,336.3s-10.9-3.4-16.3-16.8c0,0,19-3.5,16.3,16.8ZM555,320.1s17.8,9,21.4,24.8c0,0-27.5-8-21.4-24.8ZM548,321.7c3.5-.3,4.2,9.2,4.2,9.2-1.6-2.7-10.9-7.1-10.9-7.1.2-1.8,6.7-2.1,6.7-2.1ZM543.5,329.6c13.3,1.3,18.8,20.6,18.8,20.6-2.2-4.1-13.1-7.4-13.1-7.4-11-4.4-11.8-8.8-11.8-8.8-1.3-4.5,6.1-4.4,6.1-4.4ZM560.4,357.8s-3.2,6.1-9.2,4.4c0,0-3.4-2.1-3.3-7.3,0,0-.2-7.4-1.2-9.6-.3-.6,16.7,6.8,13.6,12.5ZM532,326.3s2.1,3.5,0,6.8c0,0-9.3-1-11.1-2.2-.4-.2,6.3-5.6,11.1-4.6ZM538,340.1c13.3,12.4,2.8,23,2.8,23,3.2-9.3-23.4-27.8-23.4-27.8,12.2-1.7,20.6,4.7,20.6,4.7ZM537.3,367.4s-19.6-8.6-14.8-22.5c0,0,15.7,12.2,14.8,22.5ZM505.3,338.5s1.7-3.8,6.5-.7c0,0,6,2.3,8.7,18.3,0,0-17.1-8-15.2-17.7ZM218.1,487.8c27.6,13.6,41.3-10.2,41.3-10.2,6.9-13,11.9-15.4,11.9-15.4-1,12.2-16.4,29.9-16.4,29.9-28,24.2-36.8-4.3-36.8-4.3ZM240.9,524.7c-4.1-16.9,8.3-24.6,8.3-24.6,20.3-14.6,24.8-34.6,24.8-34.6,1.4-8.6,4.1-10.1,4.1-10.1.5,23.2-20.8,42.2-20.8,42.2-6.9,5-8.7,16.4-8.7,16.4-2.8,17.1,12.8,27.7,12.8,27.7-16.9-.3-20.5-16.9-20.5-16.9ZM263.8,498.5s-7.4,4.5-7,20.6c0,0,.9,11.8,5.6,18.5,0,0-10.4-4.3-10.8-20.7,0,0-.5-12,9.7-20.4,0,0,7.4-6.8,9.5-11.4,0,0,2.7-4.2,4.4-4.9,0,0-.5,10-11.4,18.3ZM274.7,489.5s6.6-11.6,6.2-35.6c0,0,4.5-.7,3.9,11,0,0-.5,25.6-10.2,24.6ZM284.3,482.7s5.1-18.1.9-29.4c0,0,3.4-1.5,5.3,4.1,0,0,3.9,19-6.2,25.3ZM690.4,699s-16.4,4.5-21-5.1c0,0-9.6-19.6-17.1-29,0,0-13-15.7-13.6-29.6,0,0,.1-31.4-22.1-31.4,0,0-12.4.9-19.4-8.3,0,0-57-52.4-119.4-33.6,0,0-11.5,4.9-5.3,15.6,0,0-3.9-.8-7.2-9.3,0,0-16.2-34.4-38.3-34.9,0,0-16.1-.2-25.1,17.6,0,0-4.7,9.9-7.2,13,0,0-5.5,9.6-7.3,16.7,0,0-2.8,10.3-5.4,14.9,0,0-9,23,1.3,45.8,0,0,4.6,9,6,13.6,0,0,8.9,19,26.8,28.1,0,0-25.8,2.6-30.1-1.9,0,0-4-3.5-4-10.3,0,0,2.1-8.3-27.3-31.3,0,0-24.2-16.7-11.9-48,0,0,6.5-17.8,2.2-29.8,0,0,28.6-18.3,48.9-28.4,0,0,54.6-22.7,53.5-60.4,0,0-9,25.1-42.3,45.2,0,0-34.7,22.1-65.8,42.8,0,0-29,18.5-37.1,23.1,0,0-42.2,23.3-56.3,57.6,0,0-12.1,30.1-12.1,45.7,0,0-29.1-11.6-23.8-25.3,0,0,9.4-18.3,19.8-28.4,0,0,9.9-14.5,14.4-33.7,0,0,8.2-35.1,34.1-53,0,0,32.6-12.3,23.7-67.7,0,0-12.4-44.8,26.1-76.5,0,0-31,9.7-33.4,50.5,0,0-8-9.2,0-28.1,0,0,6.1-19.5,17.6-32.2l5-4.6c19.5-19,52.9-17.3,52.9-17.3,45.7-.3,63.6-6.5,63.6-6.5,8.5-4.6,19.4-5.8,19.4-5.8,14-1.3,24.7-6.8,24.7-6.8,19.3-8,28.4.9,28.4.9,3.3,3.3,13.5,7.7,13.5,7.7,11.1,5.3,23.2,24.3,23.2,24.3,0-17.4,13.2-19.7,13.2-19.7,11.9-2.3,14.5,4.2,14.5,4.2,6.5,12.8,15.2,14.6,15.2,14.6,6.1,1.3,12.7,8.3,12.7,8.3,7.4,6.3,8.1,30.7,8.1,30.7,2.8-4.4,7.6-4.2,7.6-4.2,5.6-.4,6.6,6.5,6.6,6.5.6,3.8,2.9,9.3,2.9,9.3,5,12.3-1.5,20.4-1.5,20.4-7.5,9-11.2,21.1-11.2,21.1-2.1,7.3-4.2,13.2-4.2,13.2-3.8,9.1-.4,15.2-.4,15.2,3.9-8.8,19.2-16.1,19.2-16.1.3,3.5-2.6,9.9-2.6,9.9-6.5,10.4-5.6,26.9-5.6,26.9,1.7,17.4-5.3,39.1-5.3,39.1,2.4-3.8,11.3-9.4,11.3-9.4-3.5,9.6,0,28.5,0,28.5,4.2-13.3,14.5-16.6,14.5-16.6-.9,4.8,0,23.9,0,23.9-.2-6.8,7.5-11.8,7.5-11.8-3.8,15.6,5.3,50.8,5.3,50.8v.7s1.2-10.5,4.1-15.1c0,0,1.7,8.1,3.3,11.9,0,0,2.7,7.4,3.2,14.4,0,0,2.4-5.8,4.5-7.6,0,0,.3,16.5,8.9,25.5,0,0,0-7.3,3.1-11.7,0,0,2.6,1.8,4.1,15.7,0,0-.1,8.6,4.6,18.2,0,0,10.9,15.1,3.6,17.3ZM688,668.9c-.2.3-.5-5.2-3.7-15.5,0,0-6.9-14.7,3.4-27.4,0,0,10.6,25.7.3,42.8ZM695.4,615.2c-.6,3.7,4,15.7,4,15.7,3.5,12.3-4.5,21.4-4.5,21.4,2.2-8.1-2.1-19-2.1-19-4.4-11,2.6-18.1,2.6-18.1ZM697.4,677.1c-8.9-15.4,3.1-28.1,3.1-28.1,3.1,6.1,4.2,10.7,4.2,10.7,1.5,9-7.3,17.3-7.3,17.3ZM706.5,617.6s14,18.2,1.2,39.6c0,0-10.2-18.1-1.2-39.6ZM715.1,669.1s-4.6,5.9-5.9,9.6c0,0-3.7-13.3-.3-17.7,0,0,5-7.2,5.2-9h.3s5.1,9.2.8,17.2ZM719.3,636.5s4.2-6.2,4.1-9.3c0,0,4.9,8,1.9,15.5,0,0-5,7.1-5.5,12.7,0,0-6.5-10.1-.6-18.9ZM724.2,671.4c-8.5-13.3,1.8-23.9,1.8-23.9,3.3,5.4,3.8,11.7,3.8,11.7.3,4.7-5.6,12.3-5.6,12.3ZM745.7,641.1s4.2,12.8,4.5,16.3c0,0,1.5,9.7,13.9,19,0,0,25.8,20.1,11.4,22.2,0,0-26.9,3.5-29.8-9.4,0,0-2.3-11.3-8.3-21.9,0,0-8.6-17.6-8.5-41.7,0,0,1.3-14,8.1-6,0,0,4.7,4.5,8.7,21.6ZM738.7,602.8s-14-11.9-11.8-25.1c0,0,1.1-8.7,4.7-10.8,0,0,9,7.7,7.1,35.9ZM764.3,573c0,1.4-3.6.5-3.6.5-8.6-1.3-9.3,7-9.3,7-.5,6.7,4.8,7.1,4.8,7.1,5.6.4,4.1-3.2,4.1-3.2-1.9,2-4,.7-4,.7-3.7-3.7.6-6.7.6-6.7,6.5-2.8,8.2,3.3,8.2,3.3,2.6,10.6-5.5,13.3-5.5,13.3-7,2.3-9.5-2.7-9.5-2.7-1.4-4.2-4.7-8.6-4.7-8.6-6.7-9.1-1.1-18.3-1.1-18.3,7.4,7.3,21.3,3,21.3,3-1.5,1.2-1.3,4.5-1.3,4.5ZM798.5,645.7s-4.7-.4-3.6-3.5c0,0,.7-2.1,2.7-1.2,0,0-1.3-4.4-5.3-1,0,0-2.5,2.8,1.3,6.5,0,0-6.3.8-5.2-5.6,0,0,1-6.3,7.2-6.8,0,0,5.8.1,7,6.2,0,0,.8,5.5-4.2,5.2ZM877.7,613.8c-4.2,1.7-5.2-4.1-5.2-4.1-1.1-4.3-4.7-6.2-4.7-6.2-2-.3,0,2.2,0,2.2,1.7,1.3,1.9,3.7,1.9,3.7,1.5,13.2-3.5,12.5-3.5,12.5-4.4.4-6.2-2.4-6.2-2.4-2-4.1,0-15.7,0-15.7,1.2-13.3,6.2-11.3,6.2-11.3,3.9.3,11.5,12.2,11.5,12.2,3.9,6.6,0,9,0,9ZM891.3,571.5c-4.6,5-5,12.1-5,12.1.3,3.5-1.1,11.3-1.1,11.3-2.7,10.2-9.7-.4-9.7-.4-8-11.2-12.7-7.5-12.7-7.5-8,5.3-7.1,27.2-7.1,27.2.1,7.6-3.2,8.5-3.2,8.5-2.2,2-5.7-2.5-5.7-2.5-6.2-7.2-12.4-10.8-12.4-10.8,2.2,4.6.8,8.9.8,8.9-1.2-3.9-7.9-7.3-7.9-7.3-8.1-3.3-11.4,1.5-11.4,1.5-4.6,7.3-.6,11.4-.6,11.4,6.1,4.9,10.2-.6,10.2-.6,2.8-4.1-2.1-5.4-2.1-5.4,1,1.2.2,2.8.2,2.8-2.8,3.8-5.8.2-5.8.2-2.3-6.4,4-7.8,4-7.8,7.2-1,9.5,6,9.5,6,1.9,9-8,12.4-8.4,12.6-9.3,3.7-17.1,8.6-17.1,8.6-.5-3.4-5.4-8-5.4-8-6.9-5-6-10.5-6-10.5,0-9.4,8.3-8.4,8.3-8.4,7.9,1.3,6.6,9.5,6.6,9.5-1.2,4.7-5.5,2.3-5.5,2.3-1.8-1.9.6-5.6.6-5.6-2.7-.3-3.6,2.3-3.6,2.3-1.6,4.3,2.7,7.2,2.7,7.2,5.3,2,7.9-3.5,7.9-3.5,3.9-14.2-7.6-16-7.6-16-11.4-1.9-12,10.6-12,10.6-9.6-7.2-13.5,5.6-13.5,5.6-1.2,7,4.3,8.5,4.3,8.5,6,.2,5-4,5-4,0-1.9-2.1-2-2.1-2,.6,3.5-3,2.8-3,2.8-3.4-3.6,0-7.1,0-7.1,7.1-4.2,9.4,2.4,9.4,2.4,2,9.4-7.8,11.7-7.8,11.7-8.4,1-9.8-9.9-9.8-9.9-1.5-9.3,11.5-15.8,11.5-15.8,9.2-5.5,3.7-14.8,3.7-14.8-6.2-7.8-12.2-2.3-12.2-2.3-4.4,5.4,0,9.3,0,9.3,3.5,2.7,4.8-.9,4.8-.9-2,.5-3.4-1-3.4-1-2.3-2.9,1.2-5,1.2-5,4.6-2.4,7,3.8,7,3.8,1.2,7.7-6.4,8.9-6.4,8.9-12.5.9-9.5-9.2-9.5-9.2,1.5-8.7-.8-16.5-.8-16.5-3.1-8.1-.8-15.4-.8-15.4,4-9.6,13.3-5.7,13.3-5.7,10.2,5.3,4.9,15.7,4.9,15.7-3.3,6.8-9.5,4.5-9.5,4.5-3.9-2.7-1.8-5.9-1.8-5.9,4.6-3.2,6.3,1.1,6.3,1.1,1.2-4.8-3-6.5-3-6.5-6.2-2.1-7,3.8-7,3.8-1.5,11,6.9,12.1,6.9,12.1,14.3,1.3,14.5-13.4,14.5-13.4,1.5-16.8-12.8-17.6-12.8-17.6-9.2-.8-13.1-9.5-13.1-9.5-5.6-8.7-13.5-6.9-13.5-6.9-10.5,1.1-8.3,10.3-8.3,10.3,2.7,8,9.7,5.7,9.7,5.7,6-3.4.4-8.1.4-8.1.6,4.3-3.5,3.8-3.5,3.8-4.5-1.3-1.8-6.2-1.8-6.2,3.1-4.7,11.3.4,11.3.4,6.3,4.2,1.5,13.5,1.5,13.5-4.6,7.7-14.1,2.4-14.1,2.4-19.1-19.2-11.9-35.7-11.9-35.7,4.2-7.6,10.6-3.8,10.6-3.8,6.5,6,.6,11.2.6,11.2-6.9,2.1-6.7-2.6-6.7-2.6-.3-3,4.2-1.3,4.2-1.3.1-2.3-1.9-3.1-1.9-3.1-4.2-1.3-5,3.3-5,3.3-.6,8.5,6.9,8,6.9,8,14.3-2.2,8-14.7,8-14.7-1.9-3.1,0-5.3,0-5.3,9.2-6,13.3,2.4,13.3,2.4,1.2,2.3,4.7,5.6,4.7,5.6,2.8,4.4-.6,9-.6,9-5.8,3.7-9.8-2.2-9.8-2.2-2-6,2.1-6.5,2.1-6.5,4.4,0,2.1,4.6,2.1,4.6,1.7,1,2.8-1.4,2.8-1.4,1.2-2.8-1.9-5.1-1.9-5.1-4.6-3.3-7.3.6-7.3.6-4.2,9.4,4.6,13.5,4.6,13.5,12.1,5.3,13.9-9,13.9-9,2.3-6.9,11.6,2.6,11.6,2.6,4.7,5.7,1.9,12.8,1.9,12.8-4.5,6.9-11.4,3.1-11.4,3.1-5.1-5.4.2-8.4.2-8.4,3.4-1.8,5.5,2.3,5.5,2.3,1.3-1.9-1.6-4-1.6-4-7.5-4.2-8.9,4.7-8.9,4.7-.4,13.8,10.3,12.1,10.3,12.1,18-2.7,10.3-18.8,10.3-18.8-4.6-7.4-3.7-11.9-3.7-11.9.2-3.8,7.5-3.3,7.5-3.3,11.5-2.9-.9-13.9-.9-13.9-5.8-4.6-9.7-1.4-9.7-1.4-2.6,4.7,2.3,5.7,2.3,5.7-1.9-3.8,1.7-3.8,1.7-3.8,3.8.4,4.3,4.6,4.3,4.6.3,6.6-7.3,5.4-7.3,5.4-9.9-4.4-5.6-13.6-5.6-13.6,2.9-9.8,15.3-3.5,15.3-3.5,9.6,3.9,26.2,1.9,26.2,1.9,17.6-.8,19.5,7.9,19.5,7.9,1.2,5.2,6.9,10.1,6.9,10.1,4.2,3.2,4,10.9,4,10.9.1,11.8,12.2,24.8,12.2,24.8,7.2,7.7,7.8,14.4,7.8,14.4,1.7-3.2.9-21,.9-21,1.5-2.4,1.9-7.9,1.9-7.9-.3-2.1,3.2-1.1,3.2-1.1,4.7.9,6,8.3,6,8.3,0,2.4,2.5,6.8,2.5,6.8,3.3,8.6-.4,15.4-.4,15.4ZM904.1,541.5s-6.4,6.2-7.7,12.3c0,0-5.3-7.1,0-14.9,0,0,2.8-3.4,6.4-4.7,0,0,2.7-.3,4.1-1.7,0,0,1.1,5.1-2.8,9Z"/>
  </g>
</svg>