<?xml version="1.0" encoding="UTF-8"?>
<svg id="Layer_2" data-name="Layer 2" xmlns="http://www.w3.org/2000/svg" viewBox="0 0 314.71 220.13">
  <g id="Layer_2-2" data-name="Layer 2">
    <g id="_1_color-black" data-name="1 color-black">
      <path d="M311.39,54.1l3.33-3.51c-.05.03-4.22,2.33-4.27,2.35-2.72,1.43-5.53,2.71-8.39,3.95,0,0,0,0,0,0-20.6,8.83-42.49,14.81-64.58,18.95l6.97-47.46L222.31,0H75.46l12.18,29.76-8.12,55.29c-2.17-2.32-44.49-47.56-47.77-51.06l38.14,74.63.43.84C23.7,125.48.96,156.58,0,159.4c5.04-2.83,10.44-5.04,15.82-7.15,18.32-7.04,37.17-12.28,56.3-16.81l-8.3,56.48-19.83,28.21h144.78l31.87-29.7,10.01-68.17c.84.49,61.69,35.74,64.37,37.29l-53.37-58.48c9.15-3.48,14.84-5.88,32.28-16.24,19.29-11.65,36.72-29.96,37.46-30.73ZM144.92,30.01h41.59l-6.11,41.61c-8.62-4.47-17.21-.92-24.13,7.46,0,0-1.8,2.19-1.8,2.19l-1.98-2.02c-3.84-4.08-9.32-4.7-14.38-2.92l6.8-46.31ZM179.52,81.67c-9.62,15.66-26.55,44.46-27.27,45.78-4.48,7.77-9.62,12.26-15.37,11.96-2.78-.14-5.1-1.42-6.76-3.62,9.78-16.65,24.01-41.22,28.43-48.77,5.71-9.68,16.16-14.69,20.96-5.34ZM54.72,67.42s26.42,29.39,32.92,36.9c-3.6,1.05-7.26,2.23-10.96,3.53-1.9-3.44-21.96-40.43-21.96-40.43ZM58.16,131.14s0,0,0,0c0,0,0,0,0,0,4.48-4.91,11.09-8.87,11.09-8.87,0,0-12.03,1.52-22.64,4.4,23.83-11.83,47.83-18.57,68.07-21.23-3.54,6.35-5.29,9.6-8.32,15.33-16.81,2.83-33,6.34-48.2,10.38ZM107.58,146.11c-6.34.05-12.9-5.02-19.52-15.02,4.87-1,9.82-1.94,14.83-2.82-1.22,2.23-2.82,2.66-2.82,2.66,6.4,3.37,9.02-2.93,9.46-3.71,0,0,10.9-21.06,20.29-35.53,5.38-8.09,16.05-13.22,20.52-3-10.66,18.03-25.98,45.01-26.68,45.96-3.96,5.83-9.48,11.41-16.08,11.45ZM162.99,190.12h-41.59l6.85-46.6c9.44,7.45,20.09,2.23,27.28-7.85,4.43,2.66,10.12,3.65,15.19,1.94l-7.71,52.51ZM176.4,123.26c-2.82,3.94-6.08,7.34-10.87,7.6-1.83.1-5.19-.23-7.18-1.99,4.23-7.6,23.29-38.61,27.16-45.32,7.92-14.95,16.53-12.97,28.16-3.29,0,0-3.84.81-7.02,1.07,1.05-1.38,2.43-1.55,2.43-1.55-3.85-3.06-6.44,1.04-6.88,1.81-.44.75-17.66,30.28-25.79,41.67ZM265.1,134.8s-36.18-21.42-46.93-27.85c4.96-1.23,9.9-2.61,14.8-4.16.07.31,31.95,31.75,32.13,32.01ZM268.7,80.51s-14.37,7.75-23.62,11.55c-17.97,7.56-30.85,9.18-49.5,12.35.96-1.61,1.47-2.51,2.99-5.11,0,0,0,0,0,0,2.4-4.1,5.73-9.78,6.55-11.18,19.13-2.06,36.81-5.98,53.32-10.76-3.91,3.62-7.82,6.42-7.82,6.42,0,0,8.87-1.19,18.08-3.27,0,0,0,0,0,0,0,0,0,0,0,0Z"/>
      <path d="M163.31,85c-3.3,4.13-17.06,28.36-17.06,28.36l25.56-32.62s-3.7-1.75-8.5,4.26Z"/>
      <path d="M134.23,91.01c-3.31,4.14-17.06,28.36-17.06,28.36l25.56-32.62s-3.69-1.74-8.5,4.26Z"/>
      <path d="M192.03,79.63c-3.61,3.87-16.8,28.01-16.8,28.01l25.6-31.62s-3.55-2.01-8.8,3.61Z"/>
    </g>
  </g>
</svg>