<?xml version="1.0" encoding="UTF-8"?>
<svg id="ICON" xmlns="http://www.w3.org/2000/svg" viewBox="0 0 1080 1080">
  <defs>
    <style>
      .cls-1 {
        fill: #0a0203;
      }
    </style>
  </defs>
  <g id="_1_COLOR_DARK" data-name="1 COLOR DARK">
    <path class="cls-1" d="m691.16,494.36c-12.13-14.07-28.27-29.74-46.61-29.01-9.64.4-18.84,5.38-27.43,14.76-3.42-6.54-7.48-9.79-13.92-11.71-12.72-3.77-27.83.13-43.6,18.64-.03.04.03.09-.01.13-4.14-8.01-9.17-13.13-16.88-14.86-12.7-2.82-28.49,4.24-39.24,17.58-4.75,5.89-9.69,12.35-14.48,18.81-15.26-.21-31.31.88-48.1,3.25l-101.29-135.64,54.87,144.99c-98.35,22.53-142.79,76.25-142.79,76.25,0,0,47.39-19.13,158.59-30.82,13.17,28.05,28.41,43.2,45.36,44.97,12.8,1.34,26-5.13,38.78-18.62,4.38,6.43,10.75,10.68,18.34,11.92,13.09,2.16,25.66-4.92,37.76-18.75,4.61,5.02,12.71,8.14,20.04,8.57,12.8.71,26.73-6.41,34.68-17.73l19.68-26.46c11.45-.02,22.96-.57,34.53-1.63.08.07.12.17.19.24l146.69,108.26-85.99-118.18s17.11-.96,67.58-24.28c39.8-18.38,78.11-50.78,78.11-50.78,0,0-63.71,26.49-174.86,30.08Zm-319.63-58.15s44.43,62.03,55.31,77.83c-7.14,1.25-14.41,2.74-21.79,4.44-2.91-7-33.52-82.27-33.52-82.27Zm-6.99,123.03c9.65-8.47,23.17-14.66,23.17-14.66,0,0-23.41.36-44.39,3.61,48.26-17.62,95.76-25.43,135.16-26.23-5.31,7.42-10.07,14.25-13.69,19.52-.29.43-4.07,5.95-5.55,8.13-32.86,1.84-64.68,5.12-94.71,9.63Zm124.96,20.73c-8.85,10.34-20.63,19.88-33.3,18.55-12.17-1.26-23.68-12.38-34.27-32.99,9.57-.88,19.26-1.63,29.06-2.25-2.82,4.02-5.97,4.5-5.97,4.5,11.56,7.82,17.94-3.7,18.95-5.1,0,0,25.41-38.1,46.52-63.85,8.13-9.9,19.94-15.52,28.91-13.53,5.67,1.26,8.53,5.27,11.11,12.15-24.31,32.33-59.46,80.83-61,82.52Zm56.41-7.74c-10.25,13.96-21.08,21.47-32.04,19.67-5.3-.87-9.49-3.82-12.2-8.39,22.33-29.86,54.87-73.99,64.97-87.54,9.96-13.38,22.74-18.8,31.45-16.21,4.6,1.36,8.1,5.11,9.93,10.44-21.79,28-60.43,79.66-62.1,82.04Zm47.24-2.89c-6.25,6.96-13.23,12.8-22.49,12.26-3.53-.2-9.91-1.55-13.35-5.34,9.74-13.68,52.92-69.13,61.78-81.19,7.57-10.55,14.98-18.24,25.34-18.29,10.68-.06,20.57,9.21,29.42,17.97,0,0-7.54.73-13.7.56,2.31-2.42,4.99-2.46,4.99-2.46-6.74-6.7-12.59.63-13.6,2-1.01,1.35-40.36,54.34-58.39,74.47Zm167.77,41.06s-64.87-48.82-84.12-63.45c9.78-1.31,19.55-2.9,29.29-4.83.11.17.14.36.28.53l54.55,67.75Zm-126.95-73.14l.95-1.25s2.56-3.44,5.89-7.91c0,0,0,0,0,0,5.48-7.35,13.08-17.54,14.95-20.06,37.15.12,71.91-3.62,104.62-9.28-8.28,6.11-16.37,10.65-16.37,10.65,0,0,17.29-.39,35.39-2.43-48.54,18.61-96.68,28.93-145.43,30.28Z"/>
    <path d="m629.87,490.09c-7.22,7.22-38.79,50.79-38.79,50.79l56.02-57.16s-6.72-4.13-17.23,6.37Z"/>
    <path d="m519.09,498.45c-7.22,7.23-38.79,50.78-38.79,50.78l56.02-57.15s-6.72-4.14-17.23,6.37Z"/>
    <path d="m576.18,493.12c-7.22,7.22-38.79,50.79-38.79,50.79l56.02-57.16s-6.72-4.14-17.23,6.37Z"/>
  </g>
</svg>