<?xml version="1.0" encoding="UTF-8"?>
<svg id="Layer_2" data-name="Layer 2" xmlns="http://www.w3.org/2000/svg" viewBox="0 0 321.38 220.21">
  <defs>
    <style>
      .cls-1 {
        fill: #fff;
      }
    </style>
  </defs>
  <g id="Layer_2-2" data-name="Layer 2">
    <g>
      <path class="cls-1" d="M93.57,104.69c-6.11-7.06-30.96-34.69-30.96-34.69,0,0,18.86,34.78,20.65,38.01,3.48-1.22,6.92-2.33,10.31-3.32Z"/>
      <path class="cls-1" d="M119,105.75c-19.03,2.51-41.6,8.84-64.01,19.97,9.98-2.7,21.29-4.14,21.29-4.14,0,0-6.21,3.72-10.43,8.34,0,0,0,0,0,0,0,0,0,0,0,0,14.29-3.8,29.51-7.1,45.32-9.76,2.85-5.39,4.49-8.44,7.82-14.42Z"/>
      <path class="cls-1" d="M160.26,88.42c-4.16,7.1-17.54,30.21-26.74,45.86,1.56,2.07,3.74,3.27,6.35,3.41,5.4.28,10.24-3.93,14.45-11.24.68-1.24,16.6-28.32,25.64-43.05-4.52-8.8-14.35-4.09-19.71,5.02ZM148.69,113.21s12.94-22.78,16.04-26.67c4.52-5.65,8-4.01,8-4.01l-24.04,30.68Z"/>
      <path class="cls-1" d="M152.54,90.01c-4.2-9.61-14.24-4.79-19.3,2.82-8.83,13.6-19.08,33.41-19.08,33.41-.41.73-2.88,6.65-8.9,3.49,0,0,1.5-.4,2.65-2.5-4.71.83-9.36,1.71-13.94,2.65,6.23,9.4,12.4,14.17,18.36,14.12,6.21-.04,11.4-5.29,15.12-10.77.66-.9,15.06-26.26,25.09-43.22ZM121.34,118.85s12.93-22.78,16.04-26.66c4.52-5.65,8-4.01,8-4.01l-24.04,30.67Z"/>
      <path class="cls-1" d="M154.56,81.13l1.86,1.9s1.69-2.06,1.69-2.06c6.5-7.88,14.58-11.22,22.69-7.01l5.75-39.13h-39.11l-6.4,43.55c4.75-1.67,9.91-1.09,13.52,2.75Z"/>
      <path class="cls-1" d="M230.24,103.26c-4.61,1.46-9.26,2.76-13.92,3.91,10.1,6.05,44.13,26.19,44.13,26.19-.17-.24-30.15-29.81-30.21-30.1Z"/>
      <path class="cls-1" d="M207.77,81.62s-1.29.16-2.28,1.46c2.99-.25,6.6-1.01,6.6-1.01-10.94-9.1-19.04-10.96-26.48,3.1-3.64,6.31-21.56,35.47-25.54,42.62,1.87,1.65,5.03,1.96,6.75,1.87,4.51-.24,7.58-3.44,10.23-7.15,7.64-10.71,23.84-38.48,24.25-39.19.41-.72,2.85-4.58,6.47-1.7ZM175.94,107.83s12.4-22.71,15.8-26.34c4.94-5.29,8.28-3.39,8.28-3.39l-24.07,29.74Z"/>
      <path class="cls-1" d="M263.84,82.31s0,0,0,0c0,0,0,0,0,0-8.65,1.96-17,3.08-17,3.08,0,0,3.67-2.63,7.35-6.04-15.53,4.5-32.15,8.18-50.14,10.12-.77,1.32-3.9,6.66-6.16,10.51,0,0,0,0,0,0-1.43,2.44-1.91,3.28-2.82,4.8,17.53-2.99,29.65-4.51,46.55-11.62,8.7-3.57,22.21-10.86,22.21-10.86Z"/>
      <path class="cls-1" d="M272.17,92.03c18.89-11.41,31.26-24.09,36.56-30.89,4.86-6.23,12.65-21.67,12.65-21.67,0,0-13.71,8.62-28.42,15.18-15,6.69-31.97,10.99-50.6,14.97l5.6-38.15L223.44,0H72.28l14.5,35.42-5.38,36.65L19.15,7.16l48.88,98.77c-20.32,8.08-35.11,18.81-44.24,26.76-10.1,8.8-15.17,16.4-17.13,19.63-2.82,4.64-6.65,16.2-6.65,16.2,0,0,15.39-7.99,28.36-12.84,12.53-4.68,26.25-8.81,42.66-12.97l-6.15,41.85-25.06,35.64h151.46l33.57-31.28,8.23-56.2,77.91,41.75-60.68-70.68c5.63-2.51,11.17-5.41,21.88-11.77ZM288.59,156.64c-2.52-1.46-59.74-34.61-60.53-35.07l-9.42,64.11-29.97,27.92H52.53l18.65-26.53,7.8-53.11c-17.99,4.27-35.71,9.19-52.94,15.81-5.06,1.98-10.14,4.06-14.88,6.72.9-2.65,22.29-31.9,66.13-46.96l-.4-.79L41.02,38.57c3.08,3.3,42.88,45.84,44.92,48.02l7.64-51.99-11.46-27.99h138.1l20.81,26.69-6.56,44.63c20.78-3.89,41.36-9.52,60.73-17.82,0,0,0,0,0,0,2.69-1.17,5.33-2.37,7.89-3.72.05-.02,3.97-2.19,4.02-2.21l-3.13,3.3c-.69.73-17.08,17.94-35.22,28.9-16.4,9.74-21.76,12-30.36,15.27l50.19,55Z"/>
      <path class="cls-1" d="M157.41,134.17c-6.75,9.48-16.77,14.39-25.65,7.38l-6.44,43.82h39.11l7.25-49.38c-4.76,1.6-10.12.68-14.28-1.83Z"/>
    </g>
  </g>
</svg>