<?xml version="1.0" encoding="UTF-8"?>
<svg id="SECONDARY_WORDMARK" xmlns="http://www.w3.org/2000/svg" version="1.1" viewBox="0 0 1080 1080">
  <!-- Generator: Adobe Illustrator 30.1.0, SVG Export Plug-In . SVG Version: 2.1.1 Build 136)  -->
  <defs>
    <style>
      .st0 {
        fill: #ff5216;
      }

      .st1 {
        fill: #0a0203;
      }

      .st2 {
        fill: #fff;
      }

      .st3 {
        fill: #b3b3b3;
      }
    </style>
  </defs>
  <g id="Layer_1-2">
    <g id="FULL_COLOR">
      <g>
        <path class="st1" d="M263.9,457.6c4.9,5.6,9.8,11.2,14.7,16.8v99.5c-4.9,7.4-9.8,14.9-14.7,22.3-18.6,3.6-37.2,7.5-55.8,11.8-4.9-5.4-9.7-10.8-14.6-16.1v-99.5c4.9-7.7,9.7-15.3,14.6-23,18.5-4.3,37.1-8.2,55.8-11.8ZM227.2,578.5c5.8-1.3,11.7-2.5,17.5-3.7v-88.2c-5.8,1.2-11.7,2.4-17.5,3.7v88.2Z"/>
        <path class="st1" d="M338.2,445.2c.1,0,.2,0,.4,0,17.9-2.5,35.8-4.8,53.7-6.7-.9,2.1-1.8,4.2-2.7,6.3-.4.7-2.2,5-4.2,9.2-.9,2.2-1.8,4.2-2.5,5.7-.2.9-.5,1.3-.7,1.8v97.2c-4.9,7.1-9.9,14.2-14.8,21.3-19.3,2.4-38.5,5.1-57.7,8.2-5-5.7-10-11.4-14.9-17.1v-97.2c-.2-.4-.5-1-.7-1.5-.7-1.3-1.6-3-2.5-5-1.8-3.8-3.8-7.7-3.9-8-.9-1.9-1.8-3.7-2.7-5.6,17.8-3.2,35.6-6,53.5-8.6h0ZM347.9,465.7c-.2-.4-.4-1-.7-1.6-.5-1.4-1.4-3.1-2.4-5.1-2-3.9-3.8-7.8-4-8.2-.8-1.8-1.7-3.5-2.5-5.3-.8,2-1.7,4-2.5,6-.2.4-2.2,4.9-4,9.3-.9,2.2-1.8,4.2-2.5,5.8-.2.7-.5,1.3-.7,1.8v91.6c6.4-1,12.9-1.9,19.3-2.8v-91.6h0Z"/>
        <path class="st1" d="M421.5,552.3v-91.6c-1.7.1-3.4.3-5.1.5-6.9,4.5-13.8,9.1-20.6,13.7v-36.8c28.5-3,57.1-5.2,85.8-6.6v36.8c-6.8-3.5-13.7-7-20.5-10.5-1.8.1-3.5.2-5.3.3v91.6c3.4,7.1,6.8,14.1,10.2,21.2-18.1,1.1-36.3,2.5-54.4,4.2,3.3-7.6,6.6-15.2,10-22.8h0Z"/>
        <path class="st1" d="M530.1,451.6v91.6c6.2-.1,12.4-.2,18.5-.2,6.9-3.9,13.7-7.8,20.5-11.7v36.8c-27.8-.2-55.5.4-83.2,1.7,3.3-7.4,6.7-14.9,10-22.3v-94.9c-3.3-7.1-6.7-14.3-10-21.4,18-.9,36.1-1.4,54.1-1.6-3.3,7.3-6.7,14.7-10,22h0Z"/>
        <path class="st1" d="M600.8,451.2c-2.2-7.1-4.4-14.3-6.5-21.4,24,.5,48.1,1.6,72.1,3.2-2.1,6.9-4.1,13.9-6.2,20.8,5,32,10,63.9,15.1,95.9,4.5,7.8,9.1,15.7,13.6,23.5-14.9-1.2-29.7-2.2-44.6-3-1.5-9.7-2.9-19.4-4.4-29.2-6.2-.3-12.5-.6-18.7-.8-1.6,9.6-3.1,19.2-4.7,28.7-14.8-.5-29.7-.9-44.5-1,1.3-2.1,2.7-4.3,4-6.4,3.3-5.3,6.5-10.6,9.8-15.9,5-31.6,10-63.1,15.1-94.6h0ZM630.4,469.3c-1.8,15.3-3.5,30.6-5.3,46,3.6.2,7.1.3,10.7.5-1.8-15.5-3.6-31-5.5-46.5h0Z"/>
        <path class="st1" d="M693.5,457.6c-.4-.5-.7-1.1-1.1-2-.9-1.5-2.2-3.5-3.4-5.7-2.4-4.1-5.1-8.5-5.3-9.2-1.3-2.3-2.7-4.5-4-6.8,14.9,1.1,29.7,2.5,44.6,4.1,3.1,26.5,6.2,53.1,9.2,79.7,6.2-25.5,12.3-51,18.4-76.5,6,.7,12,1.5,18.1,2.3,6.2,26.6,12.4,53.3,18.6,80,3.1-25.3,6.1-50.7,9.2-76,14.7,2.3,29.4,4.7,44.1,7.4-1.3,1.9-2.5,3.8-3.8,5.8-.4.6-2.9,4.3-5.4,7.8-1.3,1.9-2.3,3.5-3.2,4.8-.5.7-.9,1.3-1.1,1.7-4.9,30.8-9.8,61.6-14.8,92.4,2,7.4,4.1,14.8,6.1,22.2-15.6-2.6-31.2-5-46.8-7.1,1-6.7,1.9-13.3,2.9-20-4.9-16.3-9.9-32.6-14.8-48.6-4.9,14.8-9.9,29.8-14.6,44.8,1,6.9,2,13.8,3.1,20.8-15.7-1.9-31.5-3.6-47.2-5,2.1-6.9,4.2-13.8,6.3-20.6-5-32.1-10-64.2-15-96.2h0Z"/>
        <path class="st1" d="M892.4,513.4v-23.1c-4.6-1-9.3-2-13.9-3v31.6c11,2.3,22,4.7,33,7.2,4.9,7.6,9.7,15.3,14.6,23v42.7c-4.9,5.4-9.7,10.7-14.6,16.1-17.3-4-34.8-7.7-52.2-11.1-4.9-7.5-9.8-14.9-14.7-22.4v-28.5c11.3,2.1,22.6,4.3,33.9,6.6v22.9c4.7,1,9.3,1.9,13.9,3v-31.4c-11-2.4-22-4.7-33.1-6.8-4.9-7.5-9.8-14.9-14.7-22.3v-42.9c4.9-5.6,9.8-11.2,14.7-16.8,17.4,3.4,34.8,7.1,52.2,11.1,4.9,7.6,9.7,15.3,14.6,23v28.7c-11.2-2.7-22.4-5.3-33.7-7.7h0Z"/>
      </g>
      <path class="st2" d="M612.2,628.4c-5.6.5-11.3.8-16.9.8l-10.2,13.8c-5.3,7.5-14.6,12.2-23.2,11.7-.4,0-.8,0-1.1-.1-3.6-.4-7.1-1.6-9.9-3.5-7.1,7.1-14.4,10.4-21.6,9.6-.4,0-.7,0-1.1-.1-3.9-.6-7.4-2.4-10.2-5.1-7.4,6.8-15,9.8-22.5,9h-.1c-10.5-1.2-19.9-9.8-27.8-25.7-61.1,6.6-87.6,17.1-87.9,17.2l-13.4,5.4,9.2-11.2c1.1-1.3,25.8-30.6,80.3-44.2l-34.1-90.2-6.3-14.4,6.3,7.6,67.5,90.4c8.4-1.1,16.5-1.6,24.2-1.6,2.6-3.5,5.1-6.6,7.3-9.5,6.5-8.1,16-12.7,24.3-11.7.7,0,1.3.2,2,.3,4.4,1,7.4,3.5,9.5,6.1,5.4-5.3,13-10.1,21.9-9.1,1.3.1,2.5.4,3.8.8,3.2.9,5.6,2.4,7.5,4.6,4.7-4.1,9.8-6.3,15.1-6.5,1.1,0,2.2,0,3.3.1,10.2,1.1,18.8,9.2,25.4,16.6,61.5-2.2,97.4-16.9,97.8-17l16.2-6.7-3,2.9,3.4-.9-12.8,10.8c-.9.8-22.7,19.1-45.9,29.8-17.4,8.1-28.2,11.6-34.2,13.1l60.2,82.8-102.8-75.9h0Z"/>
      <g>
        <path class="st1" d="M732.5,575.8s-36.7,15.3-100.8,17.3c-7-8.1-16.3-17.1-26.9-16.7-5.6.2-10.9,3.1-15.8,8.5-2-3.8-4.3-5.6-8-6.8-7.3-2.2-16,0-25.1,10.8,0,0,0,0,0,0-2.4-4.6-5.3-7.6-9.7-8.6-7.3-1.6-16.4,2.4-22.6,10.1-2.7,3.4-5.6,7.1-8.4,10.8-8.8-.1-18,.5-27.7,1.9l-58.4-78.2,31.6,83.6c-56.7,13-82.3,44-82.3,44,0,0,27.3-11,91.4-17.8,7.6,16.2,16.4,24.9,26.2,25.9,7.4.8,15-3,22.4-10.7,2.5,3.7,6.2,6.2,10.6,6.9,7.5,1.2,14.8-2.8,21.8-10.8,2.7,2.9,7.3,4.7,11.5,4.9,7.4.4,15.4-3.7,20-10.2l11.4-15.3c6.6,0,13.2-.3,19.9-.9,0,0,0,.1.1.1l84.6,62.4-49.6-68.1s9.9-.6,39-14c22.9-10.6,45-29.3,45-29.3h0Z"/>
        <path class="st2" d="M662.1,601.8s4.7-2.6,9.4-6.1c-18.9,3.3-38.9,5.4-60.3,5.4-1.7,2.3-12,16.1-12,16.1l-.5.7c28.1-.8,55.9-6.7,83.9-17.5-10.4,1.2-20.4,1.4-20.4,1.4"/>
        <path class="st2" d="M431.1,624.2c12.1-1.9,25.6-2.1,25.6-2.1,0,0-7.8,3.6-13.4,8.4,17.3-2.6,35.7-4.5,54.6-5.6,1.8-2.6,6-8.8,11.1-15.9-22.7.5-50.1,5-77.9,15.1"/>
        <path class="st0" d="M447.4,559.6s25.6,35.8,31.9,44.9c-4.1.7-8.3,1.6-12.6,2.6-1.7-4-19.3-47.4-19.3-47.4M547.9,638c1-1.4,23.2-31.2,35.8-47.3-1-3.1-3.1-5.2-5.7-6-5-1.5-12.4,1.6-18.1,9.4-5.8,7.8-24.6,33.3-37.5,50.5,1.6,2.6,4,4.3,7,4.8,6.3,1,12.6-3.3,18.5-11.3M640.3,620.7c-5.6,1.1-11.2,2-16.9,2.8,11.1,8.4,48.5,36.6,48.5,36.6l-31.5-39.1c0-.1-.1-.2-.2-.3M544.2,587.9c-5.2-1.1-12,2.1-16.7,7.8-12.2,14.9-26.8,36.8-26.8,36.8-.6.8-4.3,7.4-10.9,2.9,0,0,1.8-.3,3.4-2.6-5.6.4-11.2.8-16.8,1.3,6.1,11.9,12.7,18.3,19.8,19,7.3.8,14.1-4.7,19.2-10.7.9-1,21.2-28.9,35.2-47.6-1.5-4-3.1-6.3-6.4-7M616.7,592.3s-1.5,0-2.9,1.4c3.5.1,7.9-.3,7.9-.3-5.1-5.1-10.8-10.4-17-10.4-6,0-10.2,4.5-14.6,10.6-5.1,6.9-30,38.9-35.6,46.8,2,2.2,5.7,3,7.7,3.1,5.3.3,9.4-3.1,13-7.1,10.4-11.6,33.1-42.2,33.7-42.9.6-.8,4-5,7.8-1.1"/>
        <path class="st2" d="M510.1,624.8s18.2-25.1,22.4-29.3c6.1-6.1,9.9-3.7,9.9-3.7l-32.3,32.9M575.3,588.7s-3.9-2.4-9.9,3.7-22.4,29.3-22.4,29.3l32.3-33ZM606.2,587s-3.9-2.4-9.9,3.7c-4.2,4.2-22.4,29.3-22.4,29.3l32.3-33Z"/>
        <path class="st3" d="M443.3,630.5c17.3-2.6,35.7-4.5,54.6-5.6.9-1.3,3.2-4.7,3.2-4.7-21.2,1.9-48.6,5.8-57.8,10.3M602.6,612.6c-1.9,2.6-3.4,4.6-3.4,4.6l-.5.7c28.1-.8,55.9-6.7,83.9-17.5-10.4,1.2-34.3,10.8-79.9,12.2"/>
      </g>
    </g>
  </g>
</svg>