<?xml version="1.0" encoding="UTF-8"?>
<svg id="ICON" xmlns="http://www.w3.org/2000/svg" viewBox="0 0 1080 1080">
  <defs>
    <style>
      .cls-1 {
        fill: #fff;
      }
    </style>
  </defs>
  <g id="_1_COLOR_LIGHT" data-name="1 COLOR LIGHT">
    <path class="cls-1" d="m870.13,508.73l31.18-26.37-37.73,15.63c-.62.26-62.96,25.61-169.62,29.49-11.28-12.77-26.18-26.72-43.96-28.7-1.9-.21-3.82-.28-5.72-.2-9.2.39-17.98,4.17-26.18,11.27-3.41-3.83-7.6-6.33-13.1-7.97-2.17-.64-4.38-1.09-6.58-1.34-15.42-1.71-28.46,6.59-37.9,15.78-3.6-4.6-8.76-8.92-16.43-10.64-1.1-.24-2.24-.43-3.38-.56-14.37-1.6-30.93,6.39-42.19,20.36-3.93,4.88-8.2,10.39-12.7,16.41-13.39-.02-27.51.92-42.06,2.83l-126.09-168.86,68.32,180.52c-94.37,23.6-137.36,74.49-139.18,76.7l-16.01,19.36,23.29-9.4c.46-.19,46.54-18.42,152.43-29.92,13.71,27.48,29.93,42.43,48.23,44.47l.25.03c13.12,1.38,26.23-3.88,39.04-15.62,4.91,4.69,11,7.77,17.71,8.87.62.1,1.24.19,1.85.26,12.63,1.4,25.23-4.16,37.51-16.56,4.79,3.17,10.82,5.32,17.12,6.02.67.07,1.33.13,2,.17,14.88.83,31.02-7.35,40.19-20.35l17.74-23.85c9.7-.1,19.55-.57,29.35-1.41l178.27,131.56-104.44-143.53c10.36-2.69,29.05-8.81,59.27-22.77,40.12-18.53,77.96-50.35,79.55-51.69Zm-149.8,70.19l85.99,118.18-146.69-108.26c-.07-.07-.11-.17-.19-.24-11.56,1.06-23.08,1.6-34.53,1.63l-19.68,26.46c-7.95,11.32-21.88,18.44-34.68,17.73-7.32-.43-15.43-3.55-20.04-8.57-12.09,13.83-24.66,20.92-37.76,18.75-7.6-1.24-13.97-5.49-18.34-11.92-12.78,13.49-25.99,19.96-38.78,18.62-16.95-1.77-32.2-16.92-45.36-44.97-111.19,11.69-158.59,30.82-158.59,30.82,0,0,44.44-53.72,142.79-76.25l-54.87-144.99,101.29,135.64c16.79-2.37,32.84-3.46,48.1-3.25,4.79-6.46,9.73-12.92,14.48-18.81,10.75-13.34,26.54-20.4,39.24-17.58,7.71,1.72,12.73,6.85,16.88,14.86.04-.03-.02-.09.01-.13,15.77-18.52,30.88-22.41,43.6-18.64,6.44,1.91,10.5,5.16,13.92,11.71,8.58-9.37,17.79-14.35,27.43-14.76,18.35-.73,34.48,14.94,46.61,29.01,111.16-3.59,174.86-30.08,174.86-30.08,0,0-38.31,32.39-78.11,50.78-50.47,23.31-67.58,24.28-67.58,24.28Z"/>
    <path class="cls-1" d="m760.38,538.34c-32.71,5.66-67.47,9.4-104.62,9.28-1.88,2.52-9.47,12.71-14.95,20.06,0,0,0,0,0,0-3.33,4.47-5.89,7.91-5.89,7.91l-.95,1.25c48.75-1.34,96.89-11.66,145.43-30.28-18.1,2.04-35.39,2.43-35.39,2.43,0,0,8.1-4.54,16.37-10.65Z"/>
    <path class="cls-1" d="m706.09,581.69c-9.75,1.93-19.52,3.52-29.29,4.83,19.25,14.63,84.12,63.45,84.12,63.45l-54.55-67.75c-.14-.17-.17-.36-.28-.53Z"/>
    <path class="cls-1" d="m665.14,532.44s-2.68.03-4.99,2.46c6.16.17,13.7-.56,13.7-.56-8.85-8.77-18.74-18.03-29.42-17.97-10.35.05-17.76,7.74-25.34,18.29-8.86,12.06-52.05,67.5-61.78,81.19,3.44,3.79,9.82,5.14,13.35,5.34,9.26.53,16.24-5.3,22.49-12.26,18.03-20.13,57.38-73.12,58.39-74.47,1.01-1.37,6.86-8.7,13.6-2Zm-74.06,48.03s31.57-43.57,38.79-50.79c10.51-10.5,17.23-6.37,17.23-6.37l-56.02,57.16Z"/>
    <path class="cls-1" d="m598.08,519.32c-8.71-2.58-21.49,2.84-31.45,16.21-10.09,13.55-42.64,57.68-64.97,87.54,2.71,4.58,6.9,7.53,12.2,8.39,10.96,1.81,21.79-5.7,32.04-19.67,1.66-2.38,40.31-54.04,62.1-82.04-1.82-5.34-5.32-9.08-9.93-10.44Zm-60.7,64.17s31.57-43.57,38.79-50.79c10.51-10.51,17.23-6.37,17.23-6.37l-56.02,57.16Z"/>
    <path class="cls-1" d="m539.4,524.88c-8.98-1.99-20.78,3.62-28.91,13.53-21.11,25.75-46.52,63.85-46.52,63.85-1,1.4-7.39,12.93-18.95,5.1,0,0,3.16-.48,5.97-4.5-9.8.62-19.49,1.37-29.06,2.25,10.59,20.61,22.1,31.73,34.27,32.99,12.67,1.33,24.46-8.21,33.3-18.55,1.54-1.68,36.69-50.19,61-82.52-2.58-6.88-5.44-10.89-11.11-12.15Zm-59.1,63.94s31.56-43.55,38.79-50.78c10.51-10.51,17.23-6.37,17.23-6.37l-56.02,57.15Z"/>
    <path class="cls-1" d="m426.84,553.62c-10.88-15.79-55.31-77.83-55.31-77.83,0,0,30.61,75.26,33.52,82.27,7.38-1.7,14.65-3.19,21.79-4.44Z"/>
    <path class="cls-1" d="m464.8,581.05c3.62-5.26,8.38-12.1,13.69-19.52-39.4.81-86.9,8.62-135.16,26.23,20.98-3.25,44.39-3.61,44.39-3.61,0,0-13.52,6.19-23.17,14.66,30.03-4.51,61.84-7.79,94.71-9.63,1.48-2.18,5.25-7.7,5.55-8.13Z"/>
  </g>
</svg>