<?xml version="1.0" encoding="UTF-8"?>
<svg id="SECONDARY_WORDMARK" data-name="SECONDARY WORDMARK" xmlns="http://www.w3.org/2000/svg" viewBox="0 0 1080 1080">
  <defs>
    <style>
      .cls-1 {
        fill: none;
      }

      .cls-2 {
        fill: #fff;
      }
    </style>
  </defs>
  <g id="_1_COLOR_LIGHT" data-name="1 COLOR LIGHT">
    <path class="cls-1" d="m346.64,485.95c-1.99-3.89-3.79-7.79-3.97-8.19-.84-1.75-1.68-3.51-2.53-5.26-.84,1.99-1.68,3.99-2.52,5.98-.18.44-2.16,4.89-3.97,9.32-.9,2.21-1.8,4.22-2.52,5.78-.18.65-.54,1.33-.72,1.77v91.56c6.43-.96,12.86-1.88,19.3-2.75v-91.56c-.18-.39-.36-.99-.72-1.57-.54-1.38-1.44-3.13-2.35-5.09Z"/>
    <path class="cls-1" d="m229,605.44c5.83-1.27,11.68-2.5,17.52-3.7v-88.23c-5.85,1.2-11.69,2.43-17.52,3.7v88.23Z"/>
    <path class="cls-1" d="m632.17,496.26c-1.76,15.32-3.51,30.64-5.27,45.97,3.57.15,7.14.31,10.71.48-1.82-15.49-3.63-30.97-5.45-46.45Z"/>
    <path class="cls-2" d="m209.91,496.3c-4.87,7.64-9.74,15.31-14.6,22.99v99.47c4.86,5.35,9.73,10.73,14.6,16.13,18.54-4.26,37.13-8.19,55.78-11.77,4.9-7.46,9.8-14.9,14.71-22.31v-99.47c-4.91-5.63-9.81-11.23-14.71-16.81-18.64,3.58-37.24,7.5-55.78,11.77Zm36.61,105.45c-5.85,1.2-11.69,2.43-17.52,3.7v-88.23c5.83-1.27,11.68-2.5,17.52-3.7v88.23Z"/>
    <path class="cls-2" d="m383.86,585.51v-97.18c.18-.44.54-.89.72-1.75.72-1.54,1.63-3.51,2.53-5.7,1.99-4.18,3.8-8.54,4.16-9.2.9-2.11,1.81-4.22,2.71-6.33-17.91,1.92-35.8,4.16-53.66,6.7-.12.02-.24.03-.36.05-17.86,2.55-35.68,5.4-53.46,8.57.9,1.85,1.8,3.7,2.69,5.56.18.38,2.16,4.2,3.95,8.05.9,1.93,1.8,3.64,2.52,4.98.18.59.54,1.16.72,1.54v97.18c4.97,5.67,9.95,11.36,14.93,17.08,19.2-3.1,38.44-5.84,57.71-8.23,4.94-7.13,9.88-14.24,14.82-21.32Zm-34.15-1.35c-6.44.88-12.87,1.79-19.3,2.75v-91.56c.18-.44.54-1.12.72-1.77.72-1.56,1.62-3.57,2.52-5.78,1.8-4.43,3.79-8.87,3.97-9.32.84-1.99,1.68-3.99,2.52-5.98.84,1.75,1.68,3.51,2.53,5.26.18.39,1.98,4.3,3.97,8.19.9,1.96,1.8,3.71,2.35,5.09.36.58.54,1.18.72,1.57v91.56Z"/>
    <path class="cls-2" d="m487.72,596.71c27.72-1.31,55.47-1.88,83.22-1.71v-36.83c-6.85,3.84-13.69,7.73-20.54,11.67-6.18.04-12.36.12-18.54.24v-91.56c3.33-7.35,6.66-14.68,9.99-22.01-18.05.23-36.1.77-54.14,1.62,3.33,7.13,6.66,14.26,9.99,21.41v94.89c-3.33,7.42-6.66,14.85-9.99,22.29Z"/>
    <path class="cls-2" d="m622.9,567.24c6.24.24,12.47.53,18.7.84,1.45,9.72,2.91,19.43,4.36,29.15,14.89.8,29.76,1.82,44.63,3.04-4.53-7.87-9.06-15.71-13.6-23.54-5.02-32-10.04-63.98-15.06-95.93,2.06-6.94,4.11-13.88,6.17-20.82-24.01-1.63-48.04-2.71-72.09-3.24,2.18,7.12,4.36,14.25,6.54,21.38-5.03,31.5-10.05,63.02-15.08,94.57-3.27,5.29-6.54,10.59-9.81,15.89-1.33,2.14-2.67,4.27-4,6.42,14.84.11,29.68.44,44.52.97,1.57-9.59,3.15-19.17,4.72-28.75Zm9.26-70.99c1.82,15.48,3.63,30.97,5.45,46.45-3.57-.17-7.14-.33-10.71-.48,1.76-15.33,3.51-30.65,5.27-45.97Z"/>
    <path class="cls-2" d="m790.41,550.57c-6.19-26.72-12.38-53.4-18.58-80.04-6.02-.81-12.04-1.59-18.06-2.34-6.14,25.46-12.29,50.96-18.44,76.5-3.07-26.56-6.15-53.12-9.23-79.66-14.84-1.57-29.7-2.92-44.57-4.06,1.33,2.25,2.66,4.51,3.99,6.76.18.64,2.9,5.02,5.26,9.17,1.27,2.19,2.54,4.16,3.44,5.7.36.86.73,1.52,1.09,1.97,5.01,32.06,10.03,64.14,15.04,96.25-2.11,6.87-4.23,13.75-6.34,20.63,5.83.53,11.65,1.11,17.47,1.7-15.16,4.54-44.98,11.67-86.43,13.17-6.51-7.36-15.1-15.41-25.35-16.55-1.1-.12-2.2-.16-3.3-.12-5.3.22-10.36,2.41-15.09,6.5-1.97-2.21-4.38-3.65-7.55-4.59-1.25-.37-2.53-.63-3.8-.77-8.89-.99-16.41,3.8-21.85,9.1-2.08-2.65-5.05-5.14-9.48-6.13-.63-.14-1.29-.25-1.95-.32-8.29-.92-17.84,3.69-24.33,11.74-2.27,2.81-4.73,5.99-7.32,9.46-7.72-.01-15.86.53-24.25,1.63l-26.13-34.99c-2.35-4.91-4.7-9.82-7.05-14.71v-91.56c1.75-.12,3.51-.23,5.26-.34,6.84,3.45,13.67,6.95,20.51,10.5v-36.83c-28.63,1.43-57.22,3.64-85.76,6.64v36.83c6.88-4.61,13.76-9.17,20.64-13.68,1.69-.16,3.38-.31,5.07-.46v48.25h-.04s.04.04.04.04v6.82s0,.03,0,.03v36.42c-3.32,7.58-6.64,15.17-9.96,22.76,10.45-.99,20.9-1.87,31.36-2.65l12.74,33.65c-54.42,13.61-79.2,42.95-80.25,44.23l-9.23,11.16,13.43-5.42c.26-.11,26.83-10.62,87.89-17.25,7.91,15.84,17.26,24.47,27.81,25.64l.14.02c7.56.79,15.12-2.23,22.51-9.01,2.83,2.7,6.34,4.48,10.21,5.11.36.06.71.11,1.07.15,7.28.81,14.54-2.4,21.63-9.55,2.76,1.83,6.24,3.07,9.87,3.47.38.04.76.07,1.15.1,8.58.48,17.89-4.24,23.17-11.73l10.23-13.75c5.59-.06,11.27-.33,16.92-.81l102.79,75.86-60.22-82.76c5.98-1.55,16.75-5.08,34.18-13.13,23.13-10.69,44.95-29.03,45.87-29.81l.77-.65c4.62.52,9.23,1.06,13.85,1.62-1.02-6.92-2.05-13.84-3.07-20.77,4.7-15.05,9.76-30.02,14.64-44.79,4.88,16.03,9.93,32.32,14.8,48.6-.96,6.66-1.92,13.33-2.89,20,15.64,2.14,31.26,4.53,46.84,7.14-2.04-7.42-4.08-14.83-6.12-22.24,4.92-30.82,9.83-61.63,14.75-92.4.18-.38.54-.95,1.08-1.69.9-1.3,1.98-2.98,3.23-4.84,2.52-3.51,5.03-7.22,5.39-7.78,1.26-1.92,2.51-3.85,3.77-5.77-14.66-2.68-29.35-5.15-44.06-7.41-3.06,25.33-6.13,50.68-9.19,76.03Zm-101.19,81.42c-29.1,13.44-38.97,14-38.97,14l49.58,68.14-84.58-62.42s-.06-.1-.11-.14c-6.67.61-13.31.92-19.91.94l-11.35,15.26c-4.58,6.53-12.61,10.64-20,10.22-4.22-.25-8.9-2.05-11.55-4.94-6.97,7.97-14.22,12.06-21.77,10.81-4.38-.72-8.05-3.17-10.58-6.87-7.37,7.78-14.98,11.51-22.36,10.74-9.77-1.02-18.56-9.75-26.16-25.93-64.11,6.74-91.44,17.77-91.44,17.77,0,0,25.62-30.98,82.33-43.97l-31.64-83.6,58.4,78.21c9.68-1.37,18.93-1.99,27.73-1.87,2.76-3.72,5.61-7.45,8.35-10.84,6.2-7.69,15.3-11.76,22.63-10.14,4.45.99,7.34,3.95,9.73,8.57.03-.02-.01-.05,0-.07,9.09-10.68,17.8-12.92,25.14-10.75,3.71,1.1,6.06,2.98,8.03,6.75,4.95-5.41,10.25-8.28,15.81-8.51,10.58-.42,19.88,8.61,26.88,16.73,64.09-2.07,100.83-17.34,100.83-17.34,0,0-22.09,18.68-45.04,29.28Z"/>
    <path class="cls-2" d="m927.85,548.01v-28.72c-4.86-7.69-9.73-15.35-14.6-22.99-17.35-3.99-34.75-7.68-52.19-11.07-4.9,5.57-9.8,11.16-14.71,16.77v42.87c4.91,7.43,9.81,14.87,14.71,22.35,11.05,2.15,22.09,4.42,33.1,6.81v31.42c-4.64-1.01-9.29-1.99-13.94-2.96v-22.89c-11.27-2.34-22.56-4.55-33.86-6.64v28.51c4.91,7.43,9.81,14.88,14.71,22.35,17.44,3.39,34.84,7.08,52.19,11.07,4.87-5.4,9.74-10.78,14.6-16.13v-42.66c-4.86-7.69-9.73-15.35-14.6-22.99-10.99-2.53-22-4.94-33.04-7.22v-31.63c4.65.96,9.3,1.95,13.94,2.96v23.1c11.25,2.44,22.49,5.01,33.7,7.7Z"/>
    <path class="cls-2" d="m673.34,622.58c-18.86,3.26-38.9,5.42-60.32,5.35-1.08,1.45-5.46,7.33-8.62,11.57,45.58-1.42,69.47-11,79.91-12.18-10.44,1.17-20.4,1.4-20.4,1.4,0,0,4.67-2.62,9.44-6.14Z"/>
    <path class="cls-2" d="m502.91,647.2c2.09-3.03,4.83-6.97,7.89-11.25-22.72.46-50.11,4.97-77.93,15.13,12.1-1.87,25.6-2.08,25.6-2.08,0,0-7.8,3.57-13.36,8.45,9.17-4.48,36.57-8.33,57.82-10.27,0,0,0,.01-.01.02Z"/>
    <path class="cls-2" d="m642.04,647.58c-5.62,1.11-11.25,2.03-16.89,2.78,11.1,8.44,48.51,36.59,48.51,36.59l-31.45-39.07c-.08-.1-.1-.21-.16-.31Z"/>
    <path class="cls-2" d="m579.76,611.62c-5.02-1.49-12.39,1.63-18.13,9.35-5.82,7.81-24.59,33.26-37.46,50.48,1.56,2.64,3.98,4.34,7.03,4.84,6.32,1.04,12.57-3.29,18.48-11.34.96-1.37,23.24-31.16,35.81-47.3-1.05-3.08-3.07-5.24-5.72-6.02Zm-35,37s18.2-25.12,22.37-29.29c6.06-6.06,9.93-3.67,9.93-3.67l-32.3,32.96Z"/>
    <path class="cls-2" d="m481.02,631.4c-6.27-9.11-31.89-44.88-31.89-44.88,0,0,17.65,43.4,19.33,47.43,4.26-.98,8.44-1.84,12.56-2.56Z"/>
    <path class="cls-2" d="m545.92,614.82c-5.18-1.15-11.98,2.09-16.67,7.8-12.17,14.85-26.82,36.82-26.82,36.82-.58.81-4.26,7.45-10.92,2.94,0,0,1.82-.27,3.44-2.59-5.65.36-11.24.79-16.75,1.3,6.11,11.88,12.74,18.29,19.76,19.02,7.31.77,14.1-4.73,19.2-10.7.89-.97,21.16-28.94,35.17-47.58-1.48-3.96-3.14-6.28-6.4-7.01Zm-34.08,36.87s18.2-25.11,22.36-29.28c6.06-6.06,9.93-3.67,9.93-3.67l-32.3,32.95Z"/>
    <path class="cls-2" d="m618.43,619.18s-1.54.02-2.88,1.42c3.55.1,7.9-.32,7.9-.32-5.1-5.06-10.8-10.4-16.96-10.36-5.97.03-10.24,4.46-14.61,10.55-5.11,6.95-30.01,38.92-35.62,46.81,1.98,2.19,5.66,2.96,7.7,3.08,5.34.31,9.37-3.06,12.97-7.07,10.4-11.61,33.09-42.16,33.67-42.94.58-.79,3.95-5.02,7.84-1.15Zm-42.7,27.69s18.2-25.12,22.37-29.29c6.06-6.05,9.93-3.67,9.93-3.67l-32.3,32.96Z"/>
    <path class="cls-2" d="m502.91,647.2s.01-.02.01-.02c-21.25,1.94-48.65,5.79-57.82,10.27,17.31-2.6,35.66-4.49,54.61-5.56.86-1.28,3.09-4.53,3.2-4.7Z"/>
    <path class="cls-2" d="m604.39,639.5c-1.92,2.58-3.4,4.56-3.4,4.56l-.55.72c28.11-.77,55.87-6.73,83.86-17.46-10.44,1.17-34.33,10.76-79.91,12.18,0,0,0,0,0,0Z"/>
  </g>
</svg>