<?xml version="1.0" encoding="UTF-8"?>
<svg id="SECONDARY_WORDMARK" data-name="SECONDARY WORDMARK" xmlns="http://www.w3.org/2000/svg" viewBox="0 0 1080 1080">
  <defs>
    <style>
      .cls-1 {
        fill: #fff;
      }

      .cls-2 {
        fill: #0a0203;
      }
    </style>
  </defs>
  <g id="_1_COLOR_DARK" data-name="1 COLOR DARK">
    <g>
      <path d="m265.69,494.3c4.9,5.58,9.8,11.18,14.71,16.81v99.47c-4.91,7.41-9.81,14.85-14.71,22.31-18.64,3.58-37.24,7.5-55.78,11.77-4.87-5.4-9.74-10.78-14.6-16.13v-99.47c4.86-7.69,9.73-15.35,14.6-22.99,18.54-4.26,37.13-8.19,55.78-11.77Zm-36.69,120.91c5.83-1.27,11.68-2.5,17.52-3.7v-88.23c-5.85,1.2-11.69,2.43-17.52,3.7,0,29.41,0,58.82,0,88.23Z"/>
      <path d="m339.96,481.88c.12-.02.24-.03.36-.05,17.86-2.54,35.75-4.78,53.66-6.7-.9,2.11-1.81,4.22-2.71,6.33-.36.66-2.17,5.02-4.16,9.2-.9,2.18-1.81,4.16-2.53,5.7-.18.85-.54,1.31-.72,1.75v97.18c-4.94,7.08-9.88,14.19-14.82,21.32-19.27,2.38-38.52,5.13-57.71,8.23-4.98-5.72-9.96-11.41-14.93-17.08v-97.18c-.18-.38-.54-.95-.72-1.54-.72-1.33-1.62-3.05-2.52-4.98-1.8-3.85-3.77-7.66-3.95-8.05-.9-1.85-1.8-3.71-2.69-5.56,17.78-3.17,35.6-6.02,53.46-8.57Zm9.74,20.49c-.18-.39-.36-.99-.72-1.57-.54-1.38-1.44-3.13-2.35-5.09-1.99-3.89-3.79-7.79-3.97-8.19-.84-1.75-1.68-3.51-2.53-5.26-.84,1.99-1.68,3.99-2.52,5.98-.18.44-2.16,4.89-3.97,9.32-.9,2.21-1.8,4.22-2.52,5.78-.18.65-.54,1.33-.72,1.77v91.56c6.43-.96,12.86-1.88,19.3-2.75,0-30.52,0-61.04,0-91.56Z"/>
      <path d="m423.32,589v-91.56c-1.69.15-3.38.3-5.07.46-6.88,4.52-13.77,9.08-20.64,13.68,0-12.28,0-24.56,0-36.83,28.54-3,57.13-5.21,85.76-6.64,0,12.28,0,24.56,0,36.83-6.84-3.54-13.68-7.04-20.51-10.49-1.75.11-3.51.22-5.26.34v91.56c3.39,7.06,6.77,14.13,10.16,21.21-18.15,1.09-36.28,2.49-54.4,4.21,3.32-7.6,6.64-15.19,9.96-22.76Z"/>
      <path d="m531.87,488.28v91.56c6.18-.12,12.36-.2,18.54-.24,6.85-3.93,13.69-7.82,20.54-11.67v36.83c-27.75-.17-55.49.4-83.22,1.71,3.33-7.44,6.66-14.87,9.99-22.29v-94.89c-3.33-7.15-6.66-14.28-9.99-21.41,18.04-.85,36.09-1.39,54.14-1.62-3.33,7.33-6.66,14.66-9.99,22.01Z"/>
      <path d="m602.56,487.91c-2.18-7.13-4.36-14.26-6.54-21.38,24.05.53,48.08,1.61,72.09,3.24-2.06,6.94-4.11,13.88-6.17,20.82,5.02,31.95,10.04,63.93,15.06,95.93,4.53,7.83,9.07,15.67,13.6,23.54-14.86-1.23-29.74-2.24-44.63-3.04-1.45-9.72-2.9-19.44-4.36-29.15-6.23-.32-12.47-.6-18.7-.84-1.57,9.58-3.15,19.16-4.72,28.75-14.83-.54-29.67-.86-44.52-.97,1.33-2.14,2.67-4.28,4-6.42,3.27-5.31,6.54-10.61,9.81-15.89,5.03-31.55,10.05-63.07,15.08-94.57Zm29.61,18.12c-1.76,15.32-3.51,30.64-5.27,45.97,3.57.15,7.14.31,10.71.48-1.82-15.49-3.63-30.97-5.45-46.45Z"/>
      <path d="m695.31,494.34c-.36-.45-.73-1.1-1.09-1.97-.91-1.53-2.18-3.51-3.44-5.7-2.36-4.15-5.08-8.53-5.26-9.17-1.33-2.26-2.66-4.51-3.99-6.76,14.87,1.14,29.73,2.49,44.57,4.06,3.08,26.54,6.15,53.1,9.23,79.66,6.15-25.53,12.3-51.03,18.44-76.5,6.02.74,12.04,1.52,18.06,2.34,6.2,26.64,12.39,53.32,18.58,80.04,3.06-25.35,6.13-50.7,9.19-76.03,14.71,2.26,29.4,4.73,44.06,7.41-1.26,1.92-2.51,3.84-3.77,5.77-.36.56-2.87,4.27-5.39,7.78-1.26,1.86-2.34,3.54-3.23,4.84-.54.74-.9,1.3-1.08,1.69-4.91,30.78-9.83,61.58-14.75,92.4,2.04,7.41,4.08,14.82,6.12,22.24-15.59-2.62-31.2-5-46.84-7.14.96-6.67,1.93-13.33,2.89-20-4.87-16.28-9.93-32.57-14.8-48.6-4.88,14.77-9.94,29.75-14.64,44.79,1.02,6.92,2.05,13.84,3.07,20.77-15.72-1.91-31.47-3.59-47.23-5.03,2.11-6.88,4.23-13.76,6.34-20.64-5.01-32.11-10.02-64.19-15.04-96.25Z"/>
      <path d="m894.16,550.08v-23.1c-4.64-1.01-9.29-1.99-13.94-2.96v31.63c11.03,2.29,22.04,4.7,33.03,7.22,4.87,7.64,9.74,15.31,14.6,22.99v42.66c-4.86,5.35-9.73,10.73-14.6,16.13-17.35-3.99-34.75-7.68-52.19-11.07-4.9-7.47-9.8-14.92-14.71-22.35,0-9.5,0-19.01,0-28.51,11.31,2.09,22.59,4.3,33.86,6.64v22.89c4.65.96,9.3,1.95,13.94,2.96v-31.42c-11.01-2.39-22.05-4.66-33.1-6.81-4.9-7.47-9.8-14.92-14.71-22.35,0-14.29,0-28.58,0-42.87,4.91-5.62,9.81-11.21,14.71-16.77,17.44,3.39,34.84,7.08,52.19,11.07,4.87,7.64,9.74,15.31,14.6,22.99v28.72c-11.21-2.69-22.44-5.26-33.7-7.7Z"/>
    </g>
    <path d="m614.01,665.12c-5.65.48-11.33.75-16.92.81l-10.23,13.75c-5.29,7.5-14.59,12.21-23.17,11.73-.39-.02-.77-.05-1.15-.1-3.63-.4-7.11-1.65-9.87-3.47-7.08,7.15-14.35,10.36-21.63,9.55-.36-.04-.71-.09-1.07-.15-3.87-.63-7.38-2.41-10.21-5.11-7.39,6.77-14.95,9.8-22.51,9.01h-.14c-10.55-1.19-19.9-9.81-27.81-25.66-61.06,6.63-87.63,17.14-87.89,17.25l-13.43,5.42,9.23-11.16c1.05-1.27,25.84-30.62,80.25-44.23l-34.15-90.22,2.77-5.85-2.79-1.02,67.48,90.37c8.39-1.1,16.53-1.64,24.25-1.63,2.6-3.47,5.06-6.65,7.32-9.46,6.49-8.05,16.04-12.66,24.33-11.74.66.07,1.31.18,1.95.32,4.42.99,7.4,3.48,9.48,6.13,5.44-5.3,12.96-10.09,21.85-9.1,1.27.14,2.55.4,3.8.77,3.17.94,5.59,2.39,7.55,4.59,4.73-4.09,9.79-6.28,15.09-6.5,1.09-.04,2.2,0,3.3.12,10.25,1.14,18.84,9.19,25.35,16.55,61.5-2.24,97.44-16.86,97.8-17.01l16.22-6.72-3.04,2.94,3.43-.88-12.83,10.84c-.92.78-22.74,19.12-45.87,29.81-17.42,8.05-28.2,11.58-34.18,13.13l60.22,82.76-102.79-75.86Z"/>
    <g>
      <path class="cls-2" d="m734.25,612.48s-36.73,15.27-100.83,17.34c-7-8.11-16.3-17.15-26.88-16.73-5.56.23-10.86,3.1-15.81,8.51-1.97-3.77-4.31-5.65-8.03-6.75-7.34-2.17-16.05.07-25.14,10.75-.02.02.02.05,0,.07-2.39-4.62-5.29-7.57-9.73-8.57-7.32-1.62-16.42,2.45-22.63,10.14-2.74,3.4-5.59,7.12-8.35,10.84-8.8-.12-18.05.51-27.73,1.87l-58.4-78.21,31.64,83.6c-56.71,12.99-82.33,43.97-82.33,43.97,0,0,27.33-11.03,91.44-17.77,7.59,16.17,16.38,24.91,26.16,25.93,7.38.77,14.99-2.96,22.36-10.74,2.53,3.71,6.2,6.16,10.58,6.87,7.55,1.25,14.8-2.84,21.77-10.81,2.66,2.89,7.33,4.69,11.55,4.94,7.38.41,15.41-3.7,20-10.22l11.35-15.26c6.6-.01,13.24-.33,19.91-.94.05.04.07.1.11.14l84.58,62.42-49.58-68.14s9.86-.55,38.97-14c22.95-10.6,45.04-29.28,45.04-29.28Z"/>
      <path class="cls-1" d="m663.9,638.5s4.67-2.62,9.44-6.14c-18.86,3.26-38.9,5.42-60.32,5.35-1.74,2.34-12.02,16.13-12.02,16.13l-.55.72c28.11-.77,55.87-6.73,83.86-17.46-10.44,1.17-20.4,1.4-20.4,1.4"/>
      <path class="cls-1" d="m432.87,660.86c12.1-1.87,25.6-2.08,25.6-2.08,0,0-7.8,3.57-13.36,8.45,17.31-2.6,35.66-4.49,54.61-5.56,1.76-2.61,5.99-8.81,11.09-15.94-22.72.46-50.11,4.97-77.93,15.13"/>
      <path class="cls-1" d="m449.13,596.29s25.62,35.77,31.89,44.88c-4.12.72-8.31,1.58-12.56,2.56-1.68-4.04-19.33-47.43-19.33-47.43m100.55,78.42c.96-1.37,23.24-31.16,35.81-47.3-1.05-3.08-3.07-5.24-5.72-6.02-5.02-1.49-12.39,1.64-18.13,9.35-5.82,7.81-24.59,33.26-37.46,50.48,1.56,2.64,3.98,4.34,7.03,4.84,6.32,1.04,12.57-3.29,18.48-11.34m92.36-17.36c-5.62,1.11-11.25,2.03-16.89,2.78,11.1,8.44,48.51,36.59,48.51,36.59l-31.45-39.07c-.08-.1-.1-.21-.16-.31m-96.11-32.76c-5.18-1.15-11.98,2.09-16.67,7.8-12.17,14.85-26.82,36.82-26.82,36.82-.58.81-4.26,7.45-10.92,2.94,0,0,1.82-.27,3.44-2.59-5.65.36-11.24.79-16.75,1.3,6.11,11.88,12.74,18.29,19.76,19.02,7.31.77,14.1-4.73,19.2-10.7.89-.97,21.16-28.94,35.17-47.58-1.48-3.96-3.14-6.28-6.4-7.01m72.5,4.36s-1.54.02-2.88,1.42c3.55.1,7.9-.32,7.9-.32-5.1-5.06-10.8-10.4-16.96-10.36-5.97.03-10.24,4.46-14.61,10.55-5.11,6.95-30.01,38.92-35.62,46.81,1.98,2.19,5.66,2.96,7.7,3.08,5.34.31,9.37-3.06,12.97-7.07,10.4-11.61,33.09-42.16,33.67-42.94.58-.79,3.95-5.02,7.84-1.15"/>
      <path d="m511.85,661.46s18.2-25.11,22.36-29.28c6.06-6.06,9.93-3.67,9.93-3.67l-32.3,32.95m65.22-36.03s-3.87-2.39-9.93,3.67c-4.16,4.16-22.37,29.29-22.37,29.29l32.3-32.96Zm30.96-1.75s-3.87-2.38-9.93,3.67c-4.16,4.17-22.37,29.29-22.37,29.29l32.3-32.96Z"/>
      <path class="cls-1" d="m445.1,667.23c17.31-2.6,35.66-4.49,54.61-5.56.89-1.31,3.21-4.71,3.21-4.71-21.25,1.94-48.65,5.79-57.82,10.27m159.29-17.96c-1.92,2.58-3.4,4.56-3.4,4.56l-.55.72c28.11-.77,55.87-6.73,83.86-17.46-10.44,1.17-34.34,10.76-79.91,12.18"/>
    </g>
  </g>
</svg>