<?xml version="1.0" encoding="UTF-8"?>
<svg id="ICON" xmlns="http://www.w3.org/2000/svg" viewBox="0 0 1080 1080">
  <defs>
    <style>
      .cls-1 {
        fill: none;
      }

      .cls-2 {
        fill: #fff;
      }

      .cls-3 {
        fill: #ff0e11;
      }
    </style>
  </defs>
  <g id="FULL_COLOR" data-name="FULL COLOR">
    <path class="cls-1" d="m562.21,698.81c-1.17,1.53-2.48,3.03-4.02,4.45,3.68-1.58,7.44-2.9,11.42-3.99l-7.39-.47Z"/>
    <path class="cls-1" d="m447.12,594.69c12.92-9.99,27.18-13.24,39.79-14.93-.25-1.93-.54-4.1-.85-6.36l-.66-.09c-10.37-1.38-21.14-3.42-31.64-8.17-.55,1.34-1.12,2.6-1.67,3.76-.65,1.36-1.27,2.74-1.9,4.13-4.4,9.69-10.65,23.49-25.48,27.99l-.03,5.04c5.03-5.69,12.02-10.09,22.44-11.38Z"/>
    <path class="cls-1" d="m570.02,684.26l10.91-5.64,3.43-1.77c9.83-5.05,19.11-9.83,27.12-16.22,1.95-1.56,3.79-3.43,5.62-5.49-3.48-3.55-5.86-7.57-8.18-11.87-.75-1.4-2.11-3.94-3.6-6.9-1.49.1-2.97.15-4.47.15-7.22,0-14.54-1.21-22.79-3.78-.26.36-.53.72-.83,1.08l.49,2.78c.65,3.63,1.41,7.54,2.4,12.3l.5,2.41-.6,2.39c-2.9,11.59-6.12,21.44-9.99,30.55Z"/>
    <path class="cls-1" d="m632.81,518.78c.84-.22,1.74-.39,2.69-.5-4.65-5.61-7.61-12.19-10-17.54-.62-1.39-1.24-2.77-1.88-4.13-.44-.93-.88-1.92-1.32-2.97-3.73,1.82-7.71,3.39-12.02,4.73l-13.12,8.69,5.79,5.8c3.23-.84,6.5-1.34,9.87-1.34,7.51,0,14.21,2.44,20,7.26Z"/>
    <path class="cls-1" d="m622.94,569.7c-.64-1.37-1.27-2.74-1.92-4.08-.49-1-.98-2.08-1.48-3.22-8.53,4.18-17.14,6.45-25.15,8-.45,2.33-.91,4.64-1.36,6.92l-.73,3.72c10.41,2.03,21.59,5.65,31.96,13.64,12,.71,19.49,6.24,24.6,12.88l-.18-10.1c-14.87-4.35-21.26-18.11-25.74-27.76Z"/>
    <path class="cls-1" d="m400.17,554.54c1.9-5.47,4.27-11.76,7.91-17.38-1.19-.32-2.37-.63-3.52-.93-6.05-1.57-12.21-3.19-18.21-6.19,2.53,6.81,5.19,13.25,9.08,18.99,1.32,1.95,2.92,3.77,4.74,5.51Z"/>
    <path class="cls-1" d="m631.88,396.9c-8.76-8.28-16.44-18.44-21.79-28.34-.45,3.66-1.26,7.17-2.23,10.46,7.95,8.35,15.13,14.2,24.03,17.88Z"/>
    <path class="cls-1" d="m518.63,351.1c1.11-.88,9.8-7.69,13.02-10.24l8.04-6.33s21.27,16.3,22.69,17.39c1.01-7-3.29-15.16-11.15-27.91l-10.67-17.35-10.66,17.26c-7.61,12.3-11.9,20.33-11.28,27.18Z"/>
    <path class="cls-1" d="m684.11,530.92c-4.05,1.59-8.13,2.75-12.17,3.89-1.52.43-3.08.87-4.68,1.35l-.82.25c2.67,4.72,4.59,9.72,6.18,14.18,1.73-1.74,3.26-3.54,4.52-5.46,2.87-4.39,5.04-9.16,6.97-14.2Z"/>
    <path class="cls-1" d="m467.02,636.43c-1.13,2.49-2.29,4.94-3.33,7.15l-.94,1.99c-2.41,5.15-4.74,10.11-8.6,14.64,2.16,2.23,4.31,4.23,6.53,5.78,7.55,5.27,16.03,9.02,24.99,12.84l.22-.28c.19-1.51.51-3.17.95-5.18.17-.8.37-1.71.58-2.75,1.42-6.89,2.24-20.08,2.79-28.8l.24-3.87.98-1.98c.26-.52.51-1,.77-1.47-6.91,1.38-13.46,2.07-19.87,2.07-1.78,0-3.54-.05-5.31-.15Z"/>
    <path class="cls-1" d="m460.17,442.25c1,.03,1.99.09,2.98.18.11-.65.21-1.31.32-1.96-1.07.62-2.16,1.22-3.3,1.78Z"/>
    <path class="cls-1" d="m478.2,500.97c-7.66-1.41-16.08-3.42-24.55-7.4-.45,1.15-.91,2.24-1.35,3.25-.58,1.32-1.15,2.67-1.72,4.02-2.71,6.44-6.19,14.65-12.34,20.98.57.09,1.12.2,1.64.33,5.92-5.03,12.82-7.58,20.6-7.58,5.83,0,11.47,1.48,16.9,3.55-.03-.14-.06-.29-.09-.43l-1.24-5.74,4.26-4.33c1.57-1.59,3.1-3.02,4.59-4.41.08-.08.16-.15.24-.23-.25-.29-.49-.58-.74-.88l-6.21-1.14Z"/>
    <path class="cls-1" d="m472.85,377.78c-.86-3.18-1.57-6.57-1.94-10.09-5.01,9.79-12.47,20-21.1,28.47,8.45-4.05,15.39-10.07,23.04-18.39Z"/>
    <path class="cls-1" d="m616.93,442.36c1.07,0,2.19.05,3.35.16-1.25-.59-2.46-1.23-3.63-1.9l.24,1.73h.04Z"/>
    <path class="cls-1" d="m585.29,746.62c-1.27-2.97-2.71-6.35-4.7-10.16,0,0-1.87-1.62-9.98-1.62-6.52,0-14.08,1.07-20.15,1.92-2.52.36-4.9.69-7.01.93l-9.96,1.11c-.04.18-.08.37-.12.57-.12.59-.26,1.25-.44,1.96l8.17,14.52-5.37-.48-1.13,2.96c-.41,1.09-.92,2.28-1.44,3.49-.63,1.48-1.35,3.15-1.61,4.09-2.83,10.21-1.73,19.22.13,30.84.19,1.2.46,2.48.75,3.83.57,2.69,1.23,5.74,1.42,9.12l.18,3.09-.35.65c.54.25,1.13.53,1.74.85,1.13.58,2.63,1.41,4.22,2.27,2,1.09,4.26,2.33,5.57,2.97,12.88,6.27,24.67,9.32,36.04,9.32.69,0,1.39-.01,2.08-.03,2.44-.08,4.04-.22,5.89-.38.96-.08,1.93-.17,3.01-.24,7.88-10.27,15.03-20.75,22.53-31.79-1.45-8.96-1.87-18.13-1.3-28.34-19.23-.49-23.98-11.61-28.18-21.45Z"/>
    <path class="cls-1" d="m420.69,324.19c.9-2.08,1.83-4.24,2.96-6.28,5.58-10.07,4.77-23.05,3.91-36.79-.12-1.89-.23-3.78-.33-5.65-3.32,7.62-6.76,18.41-8.48,29.09-2.15,13.27-.74,20.11.48,22.91.54-1.14,1.06-2.35,1.46-3.28Z"/>
    <path class="cls-1" d="m659.15,322.79c.41.96.95,2.21,1.5,3.37,1.25-2.75,2.77-9.62.7-23.11-1.71-11.16-5.28-22.48-8.68-30.21-.11,2.26-.25,4.54-.39,6.84-.85,13.73-1.66,26.71,3.91,36.78,1.14,2.06,2.07,4.23,2.97,6.34Z"/>
    <path class="cls-3" d="m714.67,246.49c-18.66-28.47-48.23-51.69-89.28-51.48-8.7.04-34.33,5.17-34.33,5.17l24.49,15.28c10.34,7.84,17.59,20.28,24.29,32.97l-10.45,16.33c-1.9,2.96-3.73,5.76-5.49,8.43-12.62,19.22-22.85,34.81-22.21,63.05-8.64-13.07-20.78-21.32-33.52-29.18l-20.16-12.44-7.28-4.49-7.5,4.57-20.24,12.33c-13.36,8.14-26.08,16.73-34.87,31.07.74-28.34-9.5-43.99-22.13-63.3-1.77-2.71-3.62-5.53-5.53-8.53l-10-15.7c6.78-12.67,14.1-25.13,24.5-32.9l19.71-14.73s-21.86-5.54-29.36-5.78c-40.38-1.3-70.99,22.71-89.58,50.61-16.5,24.76-23.27,57.74-19.58,95.38,1.39,14.14,5.47,55.89,42.18,72.53,5.52,12.95,16.57,32.69,44.25,32.69.58,0,1.17,0,1.76-.03,2.43-.07,4.76-.25,7-.54-.88.64-1.74,1.35-2.59,2.14-1.21-.24-2.52-.38-3.95-.38-.97,0-1.97.07-2.97.2-20.84,2.71-27.59,21.14-31.8,34.46-1.85-1.68-3.5-3.44-4.85-5.34-4.88-6.86-7.93-14.77-11.15-23.15-.94-2.44-1.88-4.89-2.88-7.33l-14.48-35.59-9.5,37c-5.2,20.25-3.59,38.51,4.75,54.5l-4.01,14.77c-7.14,26.28-2.8,49.43,12.9,68.82,10.01,12.36,21.61,15.7,32.83,18.94,1.5.43,3.03.88,4.61,1.35l12.15,3.68c-1.76,2.85-3.22,5.84-4.51,8.81-1.63,3.76-2.96,8.16-3.98,13.14l-16.6-2.18,3.19,17.9c2.04,11.69,4.16,23.79,17.45,35.04,14.66,12.4,32.39,19.11,52.76,19.99-2.22,6.39-3.1,13.26-2.65,20.75.12,1.94.49,3.57.92,4.89l-.29.86c-.35,1.05-.75,2.23-1.18,3.48-1.57,4.59-3.34,9.79-4.25,13.45-1.24,4.97-2.14,8.77-2.54,12.29-2.46,21.69,3.27,38.74,9.21,52.57,1.05,2.45,2.25,4.52,3.65,6.31,4.74,6.07,8.98,11.87,13.35,17.89l-7.25,8.07,8.24,7.47c3.15,2.86,6.32,5.69,9.48,8.52,3.78,3.38,7.56,6.76,11.32,10.2l2.38,2.17,3.23.79c1.17.29,2.9.88,4.57,1.45,2.1.72,4.28,1.46,6.41,1.98,14.53,3.57,25.45,5.09,36.51,5.09,8.09,0,16.56-.85,25.91-2.59.17-.03,17.38-3.48,23.98-7.58l1.83-1.14.88-1.11,3.75,2.18,7.09-6.74c7.3-6.94,14.07-14.24,20.62-21.3,8.89-9.59,17.29-18.64,26.84-26.79l4.47-3.82-.47-5.61c-1.25-14.9-1.39-30.75-.43-48.44l.25-4.58-3.2-3.5c-2.71-2.96-5.42-6.07-8.07-9.14,1.49-2.79,2.67-6,3.06-9.8l.51-5.01-3.61-3.77c-12.53-13.06-28.82-22.06-46.48-26,15.51-3.55,28.98-10.9,40.22-21.98,11.58-11.41,13.28-21.86,15.08-32.91.17-1.02.34-2.07.52-3.15l2.95-17.31-17.27,4c-.88-3.19-2.02-6.42-3.52-9.49-1.29-2.63-2.79-5.36-4.61-7.97l15.14-4.81c1.58-.5,3.12-.97,4.62-1.42,11.14-3.37,22.66-6.85,32.46-19.34,15.39-19.6,19.38-42.83,11.87-69.04l-2.5-8.71c9.85-17.09,11.86-36.73,5.94-58.56l-10.12-37.27-13.9,36.21c-.93,2.43-1.82,4.87-2.7,7.3-3.09,8.51-6.01,16.54-10.77,23.54-1.29,1.9-2.86,3.67-4.63,5.38-4.44-13.04-11.56-30.78-32.11-33.04-.86-.09-1.71-.14-2.53-.14-1.46,0-2.8.14-4.04.39-1.29-1.19-2.62-2.2-3.98-3.05,4.02.83,8.36,1.28,13.07,1.29,0,0,0,0,0,0,28.94,0,40.07-20.06,45.57-33.2,13.59-6.2,24.1-16.51,31.28-30.71,5.72-11.31,9.32-25.03,11.02-41.95,3.78-37.72-2.83-70.8-19.12-95.65Zm-104.58,122.06c5.36,9.9,13.04,20.06,21.79,28.34-8.9-3.69-16.07-9.54-24.03-17.88.97-3.29,1.79-6.8,2.23-10.46Zm-69.52-61.89l10.67,17.35c7.86,12.75,12.16,20.91,11.15,27.91-1.42-1.09-22.69-17.39-22.69-17.39l-8.04,6.33c-3.23,2.54-11.91,9.36-13.02,10.24-.63-6.85,3.66-14.88,11.28-27.18l10.66-17.26Zm-67.72,71.12c-7.65,8.32-14.6,14.34-23.04,18.39,8.63-8.47,16.09-18.68,21.1-28.47.38,3.52,1.09,6.9,1.94,10.09Zm-12.68,64.48c1.13-.56,2.23-1.15,3.3-1.78-.11.65-.21,1.31-.32,1.96-.99-.09-1.98-.16-2.98-.18Zm31.26,193.72l-.98,1.98-.24,3.87c-.55,8.73-1.38,21.92-2.79,28.8-.21,1.04-.41,1.95-.58,2.75-.43,2.01-.76,3.66-.95,5.18l-.22.28c-8.96-3.83-17.44-7.58-24.99-12.84-2.22-1.55-4.37-3.55-6.53-5.78,3.86-4.52,6.18-9.49,8.6-14.64l.94-1.99c1.04-2.21,2.2-4.66,3.33-7.15,1.77.1,3.53.15,5.31.15,6.41,0,12.96-.68,19.87-2.07-.25.46-.51.94-.77,1.47Zm-6.53-132.77c-1.49,1.38-3.03,2.82-4.59,4.41l-4.26,4.33,1.24,5.74c.03.14.06.29.09.43-5.43-2.08-11.07-3.55-16.9-3.55-7.78,0-14.67,2.54-20.6,7.58-.52-.13-1.08-.24-1.64-.33,6.15-6.33,9.63-14.53,12.34-20.98.57-1.35,1.13-2.69,1.72-4.02.45-1.01.9-2.1,1.35-3.25,8.47,3.98,16.89,5.99,24.55,7.4l6.21,1.14c.25.29.49.58.74.88-.08.08-.16.15-.24.23Zm-67.78,87.52c-.92.11-1.88.17-2.89.17-.44,0-.7-.12-.91-.29-.35-.27-.55-.66-1.17-.75.02.61.03,1.21.03,1.81.02,1.8,0,3.57-.01,5.49-1.58-.48-3.11-.92-4.61-1.35-1.5-.43-2.95-.85-4.38-1.28-.71-.21-1.41-.43-2.11-.66-3.47-1.11-6.72-2.36-9.8-4.08-3.7-2.07-7.14-4.82-10.41-8.85-.89-1.1-1.74-2.21-2.53-3.33-4.79-6.71-7.94-13.75-9.65-21.07-.14-.61-.27-1.22-.4-1.84-.73-3.68-1.11-7.43-1.15-11.25,0-.64,0-1.27,0-1.91.08-4.47.6-9.03,1.53-13.66.4-1.98.87-3.98,1.42-5.99.54,1.42,1.07,2.84,1.59,4.26.26.71.52,1.42.78,2.13.52,1.42,1.03,2.84,1.55,4.26.26.71.52,1.42.79,2.12.53,1.41,1.07,2.82,1.63,4.22,1.41,3.5,2.95,6.96,4.76,10.32,1.09,2.02,2.28,4.01,3.6,5.96,2.79,4.11,6.31,7.61,10.15,10.82.48.4.96.8,1.45,1.19,2.44,1.97,4.99,3.84,7.54,5.71,1.02.75,2.04,1.49,3.05,2.24.51-3.7,2.33-8.9,3.45-12.15,4.18-12.05,8.66-28.28,23.47-29.81,2.52-.26,3.93.46,5.03,1.53.31.3.6.64.89.98.28.35.56.7.85,1.06s.59.71.93,1.05c.33.34.7.66,1.12.95.21.14.43.28.66.41.03-.48-.03-1.13-.01-1.77,0-.16.01-.32.03-.48.03-.31.1-.62.21-.88.06-.13.13-.26.21-.37,10.76-14.5,23.23-9.84,37.98-2.73,1.8,9.64,3.59,19.27,5.39,28.9-16.05-2.13-29.67-5.7-41.92-15.85.48,5.88-2.35,13.36-4.67,18.26-.37.77-.73,1.54-1.08,2.32-.36.78-.71,1.56-1.07,2.35-.36.78-.71,1.57-1.07,2.35-3.06,6.63-6.42,12.98-12.03,16.59-.33.21-.67.42-1.01.61-2.08,1.16-4.45,1.96-7.21,2.29Zm-30.77-60.7c6,3.01,12.16,4.62,18.21,6.19,1.15.3,2.32.61,3.52.93-3.64,5.62-6.01,11.91-7.91,17.38-1.81-1.75-3.42-3.57-4.74-5.51-3.89-5.74-6.55-12.18-9.08-18.99Zm38.36,70.99c14.83-4.51,21.09-18.3,25.48-27.99.63-1.39,1.26-2.77,1.9-4.13.55-1.16,1.12-2.42,1.67-3.76,10.5,4.74,21.27,6.79,31.64,8.17l.66.09c.31,2.26.6,4.43.85,6.36-12.61,1.69-26.87,4.94-39.79,14.93-10.42,1.3-17.41,5.69-22.44,11.38l.03-5.04Zm32.67,90.63c-1.33-.25-2.65-.53-3.96-.85-3.93-.95-7.74-2.22-11.45-3.83-3.7-1.61-7.29-3.55-10.76-5.85-2.31-1.54-4.57-3.23-6.78-5.1-3.03-2.56-5.29-5.15-7.01-7.81-.38-.59-.74-1.19-1.08-1.78-.5-.9-.95-1.81-1.35-2.73-.67-1.53-1.23-3.1-1.7-4.72-.38-1.29-.71-2.61-1-3.96-.15-.68-.29-1.36-.43-2.05-.48-2.42-.9-4.96-1.37-7.62,1.05.14,2.08.29,3.1.45,3.06.47,6.01.99,9.07,1.34.33-3.61.85-7.52,1.64-11.34.39-1.91.86-3.8,1.4-5.62.54-1.82,1.16-3.57,1.87-5.2,2.56-5.9,5.25-10.57,9.05-13.81,3.8-3.24,8.73-5.06,15.76-5.27,2.03-1.8,4.11-3.39,6.24-4.78,8.53-5.58,17.93-8.16,28.69-9.7.9-.13,1.8-.25,2.72-.37,1.83,10.25,3.62,20.51,5.41,30.77-12.41,3.17-23.78,4.13-36.52,2.02-1.29,3.32-3.09,7.31-4.81,11-.34.74-.68,1.47-1.02,2.17-.66,1.41-1.29,2.75-1.85,3.94-.97,2.07-1.85,3.95-2.76,5.68-.23.43-.45.86-.69,1.27-.46.83-.94,1.63-1.44,2.39-.75,1.15-1.57,2.22-2.49,3.24-1.84,2.04-4.12,3.85-7.2,5.55,2.56,2.75,5.12,5.7,7.81,8.51,2.69,2.81,5.53,5.47,8.65,7.65,9.26,6.45,19.26,10.7,29.51,15.06,1.46.62,2.93,1.25,4.4,1.88-10.41,1.28-20.31,1.2-29.64-.54Zm104.83,7.15l7.39.47c-3.97,1.08-7.74,2.41-11.42,3.99,1.54-1.42,2.86-2.92,4.02-4.45Zm17.9-49.9c-.99-4.76-1.75-8.67-2.4-12.3l-.49-2.78c.3-.36.57-.72.83-1.08,8.25,2.57,15.56,3.78,22.79,3.78,1.49,0,2.98-.05,4.47-.15,1.49,2.96,2.85,5.5,3.6,6.9,2.32,4.3,4.7,8.32,8.18,11.87-1.82,2.06-3.67,3.93-5.62,5.49-8,6.39-17.29,11.16-27.12,16.22l-3.43,1.77-10.91,5.64c3.87-9.11,7.09-18.96,9.99-30.55l.6-2.39-.5-2.41Zm80.04-10.68c-2.03,11.94-2.55,20.26-12.36,29.93-16.06,15.84-36.92,22.07-60.72,20.58,11.32-5.86,22.64-11.36,32.62-19.33,5.89-4.7,10.43-10.93,15.15-16.63-7.85-3.21-10.81-7.49-14.7-14.69-2.25-4.16-5.22-9.95-7.22-14.55-12.04,2.71-22.08,1.26-33.58-2.66.93-9.9,2.2-19.76,3.59-29.61,14.24,2.02,26.02,5.55,36.48,15.01,12.86-.8,18.71,5.26,23.84,15.73,2.83,5.78,4.15,12.69,5.01,19.07,3.97-.92,7.76-1.9,11.87-2.85Zm-35.9-43.55c-10.37-8-21.55-11.62-31.96-13.64l.73-3.72c.45-2.28.91-4.59,1.36-6.92,8.01-1.55,16.62-3.82,25.15-8,.49,1.14.99,2.22,1.48,3.22.65,1.34,1.29,2.71,1.92,4.08,4.48,9.65,10.87,23.4,25.74,27.76l.18,10.1c-5.11-6.63-12.6-12.17-24.6-12.88Zm67.91-17.81c-8.53,10.87-18.46,12.62-31,16.6-.05-2.56-.11-4.88-.07-7.31-.99.16-.9,1.05-2.07,1.06-16.08.14-20.62-14.17-26.56-26.37-2.36-4.86-5.22-12.3-4.79-18.17-11.2,10.06-23.79,14.27-38.97,16.92.91-9.82,1.81-19.64,2.73-29.46,14.54-7.21,26.79-12.21,37.6,2.21.68.91.4,2.54.46,3.5,3.72-2.06,3.6-6.61,9.35-6.09,14.77,1.34,19.36,17.55,23.63,29.5,1.15,3.22,3.03,8.42,3.57,12.1,8.02-6.09,16.39-11.95,21.83-20.26,6.86-10.48,10.01-22.1,14.18-33.49,6.12,21.37,4.07,41.47-9.9,59.26Zm-95.02-69.81l13.12-8.69c4.31-1.34,8.29-2.91,12.02-4.73.44,1.05.89,2.04,1.32,2.97.64,1.36,1.26,2.74,1.88,4.13,2.39,5.34,5.36,11.93,10,17.54-.95.11-1.85.28-2.69.5-5.79-4.82-12.49-7.26-20-7.26-3.37,0-6.64.5-9.87,1.34l-5.79-5.8Zm69.29,29.33l.82-.25c1.6-.48,3.16-.92,4.68-1.35,4.04-1.14,8.12-2.3,12.17-3.89-1.94,5.03-4.1,9.81-6.97,14.2-1.26,1.92-2.79,3.73-4.52,5.46-1.59-4.46-3.51-9.47-6.18-14.18Zm54.85-195.32c-2.53,25.24-10.6,54.68-39.73,65.1-6.54,16.79-14.52,30.27-35.74,30.22-23.68-.05-35.61-14.39-46.87-31.81,2.4,16.84,4.76,34.01,7.12,50.98,11.59-2.78,20.12-2.92,25.98,7.8.61,1.12.37,2.49.41,3.58,3.76-2.02,3.7-6.55,9.46-5.91,14.78,1.63,19.16,17.88,23.29,29.94,1.11,3.25,2.91,8.46,3.42,12.17,8.1-5.94,16.59-11.6,22.16-19.79,7.03-10.33,10.34-21.84,14.68-33.14,5.8,21.38,3.48,41.36-10.78,58.89-8.71,10.71-18.68,12.26-31.27,16.01,0-2.56-.03-4.87.04-7.3-.99.14-.91,1.04-2.08,1.02-16.1-.16-20.45-14.54-26.24-26.85-2.3-4.9-5.07-12.39-4.57-18.27-10.26,9.39-21.62,13.77-35.65,16.46-.04-2.01-.09-4.02-.13-6.03-6.77,7.88-13.55,15.75-20.31,23.64.01,0,.02,0,.04,0-6.69,4.42-13.38,8.84-20.07,13.26,9.55-3.65,19.09-7.31,28.64-10.97,2.12,2.12,4.24,4.24,6.35,6.36-1.65,7.01-3.29,13.87-4.88,20.93-1.05,4.68-2.79,7.35-7.92,9.46-.18.08.41-.09-1.39.38-1.81.47-8.94,2.43-11.71,3.15-3.25,3.11-6.22,6.21-9.25,9.32-1.01,1.04-2.02,2.07-3.06,3.11,8.92-4.37,17.82-8.74,26.72-13.13,2.04,2.64,4.1,5.27,6.16,7.89-1.46,7.87-3.01,15.56-4.55,23.45-.91,4.63-2.09,8.09-6.93,10.52-2.03,1.02-4.29,1.52-6.78,2.5-2.49.97-6.13,2.2-8.84,3.18-1.61,1.6-3.19,3.21-4.76,4.81-1.57,1.6-3.14,3.21-4.73,4.81,3.49-1.7,6.97-3.43,10.44-5.16,3.47-1.73,6.94-3.48,10.41-5.22,1.59,2,3.14,4,4.75,6-1.4,6.14-1.96,12.23-3.52,18.37-1.07,4.22-1.11,5.99-5.91,8.7-2.4,1.35-5.48,3-8.62,4.67-3.14,1.67-6.33,3.37-8.98,4.84,3.17-.05,6.38-.15,9.6-.25,3.22-.1,6.45-.21,9.66-.27.75,4.21,1.58,8.41,2.45,12.6-2.91,11.6-6.46,22.73-11.56,33.69-.26.56-.52,1.11-.8,1.66-1.09,2.18-2.29,4.25-3.81,6.13-1.13,1.41-2.44,2.72-4,3.89-.95.23-1.9.46-2.84.7-3.77.97-7.49,2.08-11.19,3.24-2.78.87-5.54,1.77-8.33,2.66,3.08.27,6.14.6,9.21.92,3.07.32,6.14.65,9.21.91-.31,1.13-.5,2.17-.95,3.34-2.66,2.01-6.17,4.97-8.91,7.51-.91.85-1.74,1.65-2.43,2.35-5.07,5.22-7.8,10.19-9.62,16.12-.53,1.74-.7,2.97-.98,4.12-.27,1.15-.65,2.23-1.6,3.66.03,0,.05.01.06.03.04.06.02.17.05.23-2.8-.25-5.6-.38-8.41-.47s-5.62-.15-8.42-.25c6.16,2.61,12.33,5.17,18.75,7.18.27.96.54,1.92.8,2.88.26.96.51,1.92.75,2.9-1.01,2.64-2.65,5.97-3.37,8.55-1.07,3.85-1.67,7.55-1.94,11.2-.11,1.46-.16,2.9-.17,4.35,0,.72,0,1.44.02,2.17.15,5.77.97,11.54,1.96,17.7.24,1.5.56,2.98.87,4.45.21.98.42,1.96.6,2.94s.34,1.97.46,2.98c.06.5.1,1.01.13,1.51-3.23,5.92-6.6,11.8-10.01,17.64,3.79-2.09,7.64-4.15,11.38-6.28,2.42,1.07,3.99,1.36,6.6,2.71,2.6,1.35,7.4,4.09,10.07,5.39,14.19,6.91,28.92,11.13,44.42,10.62,4.96-.16,7.07-.55,11.57-.79,3.26,2.52,6.83,4.95,10.21,7.44-1.39-3.54-2.75-7.12-4.29-10.61,9.49-12.22,18.01-24.89,26.66-37.63-2.27-11.21-2.58-21.71-1.75-33.04,3.59-5.52,7.74-10.53,11.1-16.2-3.93,1.82-7.99,3.51-11.3,6.01-27.83,3.53-23.38-3.6-34.09-24.19-6.93-13.31-36.51-6.76-49.96-5.26,1.03-.71,2.05-1.39,3.06-2.06,1.01-.67,2-1.32,2.98-1.95,3.94-2.52,7.73-4.73,11.59-6.62,1.45-.71,2.91-1.37,4.39-1.99,1.97-.83,3.98-1.57,6.06-2.23.52-.17,1.04-.33,1.57-.48,2.11-.62,4.3-1.16,6.58-1.62,4.57-.91,9.54-1.49,15.12-1.72,22.35-.93,44.98,8.06,60.54,24.27-.47,4.65-3.08,8.01-5.91,11.69,4.58,5.3,9.09,10.65,13.83,15.83-.91,16.75-.95,33.18.46,49.92-17.51,14.94-31.36,32.77-47.94,48.53-2.11-1.23-4.24-2.43-6.31-3.7-1.75,3.04-2.9,6-5.25,8.98-3.63,2.26-16.93,5.36-19.45,5.83-9.53,1.78-17.7,2.5-25.58,2.34-2.25-.05-4.48-.17-6.7-.35-2.23-.19-4.45-.44-6.7-.76-5.63-.8-11.41-2.01-17.73-3.56-.8-.2-1.67-.46-2.58-.75-2.73-.88-5.83-2.05-8.41-2.69-3.47-3.16-6.94-6.28-10.42-9.39-3.48-3.11-6.95-6.21-10.41-9.35,1.95-2.18,3.87-4.4,5.85-6.55-2.35-3.23-4.63-6.4-6.92-9.55-3.82-5.25-7.66-10.45-11.88-15.85-.16-.2-.33-.43-.5-.69-.52-.76-1.09-1.77-1.67-3.12-2.9-6.74-5.24-13.28-6.8-19.96-.44-1.91-.83-3.82-1.14-5.76-.16-.97-.29-1.94-.41-2.92-.72-5.87-.78-11.95-.05-18.44.26-2.25.84-4.92,1.55-7.87.24-.98.49-2,.75-3.04.39-1.56,1-3.56,1.69-5.7.35-1.07.71-2.17,1.08-3.27.62-1.83,1.24-3.65,1.8-5.28.11-.33.22-.64.32-.95.1-.31.21-.61.3-.9,2.01.28,3.89.89,5.85,1.38-1.02-1.65-2.04-3-3.04-4.49-.4-.6-.8-1.21-1.19-1.88-.2-.34-.39-.68-.58-1.05-.53-.99-1.02-1.98-1.13-3.76-.34-5.77.2-11.26,2.05-16.56,1.11-3.18,2.69-6.31,4.82-9.39.8-1.16,2.06-2.63,3.26-4.05.24-.28.48-.56.71-.84.46-.55.9-1.08,1.27-1.56,1.59.75,3.19,1.51,4.79,2.26,4.79,2.27,9.61,4.53,14.44,6.38-2.03-3.01-7.73-9.87-9.29-11.76-.39-.47-.65-.75-.83-.92-.09-.08-.15-.13-.2-.17-.05-.03-.08-.04-.1-.05-.03,0-.04.02-.04.03,0,.02,0,.01,0,0,0-.02,0-.06-.03-.15-.36-1.3-.63-2.37-.82-3.29-.06-.31-.12-.6-.17-.87-.19-1.11-.25-2.03-.2-2.98.11-1.9.66-3.94,1.49-7.99.52-2.53.96-5.68,1.34-9.11.83-7.54,1.35-16.4,1.76-22.88.94-1.9,1.89-3.32,2.85-5.02,6.6,1.04,13.16,2.26,19.76,3.33-5.07-3.8-10.15-7.59-15.12-11.49,0,.01,0,.03.01.04,0,.01,0,.01,0,0-.02-.02-.06-.09,0-.05,0,0,0,0,0,0-1.07-3.64-2.59-3.98-3.29-8.54-.09-.57-.18-1.2-.28-1.87-.05-.34-.1-.68-.15-1.04-.59-4.27-1.28-9.89-1.79-14.1-.04-.35-.08-.69-.12-1.02,1.56-1.98,3.24-3.63,4.83-5.49,3.25,1.82,6.5,3.65,9.75,5.47,3.25,1.82,6.51,3.63,9.79,5.42-1.58-1.76-3.14-3.53-4.7-5.29-1.56-1.77-3.12-3.54-4.71-5.3-2.38-1.1-5.52-2.08-7.74-3.2-.28-.14-.55-.26-.82-.37-1.62-.67-3.13-.92-4.55-1.73-.24-.14-.47-.29-.7-.46-4.77-3.57-5.63-5.13-6.44-11.45-.25-1.98-.56-4.25-.88-6.64-.72-5.27-1.56-11.14-2.26-15.87.99-1.27,2-2.48,3.02-3.67.51-.59,1.02-1.19,1.53-1.78.51-.6,1.02-1.2,1.52-1.81,8.43,4.45,16.84,8.93,25.24,13.43-2.85-3.09-5.54-6.17-8.4-9.24-.95-1.03-1.93-2.05-2.93-3.08-1.32-.4-3.48-1.04-5.67-1.68-.63-.18-1.25-.37-1.86-.55-2.14-.63-4.06-1.2-4.95-1.48-2.04-.65-1.7-.36-2.1-.6-3.31-1.9-5.07-3.03-6.22-5.06-.46-.81-.83-1.77-1.15-2.98-.08-.3-.16-.62-.24-.96-.08-.34-.16-.69-.23-1.06-.46-2.23-.97-4.74-1.51-7.34-.18-.87-.36-1.74-.54-2.62-.37-1.76-.74-3.53-1.1-5.25s-.72-3.4-1.06-4.99c2.21-2.25,4.52-4.28,6.77-6.44,7.26,2.96,14.51,5.78,21.76,8.74,2.42.99,4.84,1.99,7.25,3.03-7.4-6.11-14.28-8.55-21.73-15.56-.93-.88-1.87-1.81-2.81-2.8-.47-.49-.94-1-1.41-1.51-5.19-5.67-10.47-12.57-15.64-18.41-.94-1.06-1.88-2.09-2.81-3.06-.18,3.3-.21,6.81-.35,10.18-13.9-2.55-25.31-6.62-35.58-15.81.03.37.05.75.06,1.13.06,3.07-.63,6.52-1.59,9.78-.84,2.85-1.9,5.56-2.86,7.75-1.55,3.53-3,7.21-4.64,10.7-1.27,2.71-2.66,5.31-4.3,7.61-.47.66-.96,1.29-1.47,1.9-1.29,1.52-2.72,2.87-4.36,3.98-.65.45-1.34.86-2.07,1.22-.36.18-.73.36-1.11.52-1.14.49-2.36.88-3.68,1.16-.44.09-.89.18-1.35.24-.92.14-1.89.23-2.9.26-.88.03-1.06-.47-1.52-.78-.15-.1-.34-.18-.59-.21.02.61.04,1.2.06,1.8.04,1.79.05,3.56.07,5.48-7.92-2.17-14.82-3.52-21.06-6.8-1.25-.66-2.47-1.39-3.67-2.22-2.4-1.66-4.7-3.72-6.94-6.36-7.77-9.16-12.15-19.05-13.73-29.52-.19-1.23-.33-2.47-.44-3.72-.16-1.87-.24-3.76-.24-5.66,0-1.27.04-2.55.12-3.83.04-.64.08-1.29.14-1.93.38-4.52,1.2-9.13,2.4-13.81,4.55,11.19,8.05,22.58,15.29,32.77,3.23,4.54,7.38,8.24,11.86,11.63,3.48,2.64,7.17,5.09,10.77,7.61.35-2.82,1.44-6.48,2.4-9.54.32-1.02.63-1.97.9-2.8.12-.38.25-.77.37-1.16,1.36-4.31,2.78-9.07,4.69-13.5.52-1.21,1.08-2.39,1.68-3.54.4-.76.82-1.51,1.27-2.23s.91-1.42,1.41-2.09c2.47-3.36,5.57-6.04,9.63-7.46.41-.14.82-.27,1.25-.39.85-.23,1.74-.41,2.67-.53,1.09-.14,1.97-.1,2.71.08,1.97.48,2.93,1.91,4.1,3.31.73.88,1.54,1.74,2.74,2.35.05-1.09-.25-2.48.4-3.6,1.11-1.89,2.29-3.46,3.54-4.73,1.51-1.53,3.12-2.64,4.84-3.41.57-.26,1.16-.48,1.75-.66s1.2-.33,1.82-.45c.31-.06.62-.11.93-.15.63-.08,1.27-.14,1.92-.16.33-.01.65-.02.98-.02,1.32,0,2.69.12,4.1.33,3.17.45,6.56,1.35,10.14,2.42,2.27-14.2,4.62-28.51,6.97-42.7.78-4.73,1.57-9.45,2.35-14.15-10.98,19.71-22.99,36.25-48.94,37.01-11.24.33-18.77-3.42-24.34-9.49-.66-.71-1.28-1.46-1.89-2.23-3.93-5.04-6.83-11.3-9.5-18-29.13-10.37-37.09-39.72-39.55-64.91-1.14-11.59-1.26-22.85-.28-33.58.09-.98.19-1.95.29-2.92.43-3.87,1-7.67,1.72-11.39.18-.93.37-1.86.57-2.78,9.35-43.26,39.4-75.4,96.11-82.78-18.2,13.6-27.46,37.5-37.72,54.95-3.85,6.54-8.03,17.31-10.86,28.74-4.72,19.06-5.7,39.98,4.82,46.31,5.84,3.51,9.74,2.97,12.61.54.44-.37.86-.79,1.26-1.25,1.19-1.37,2.2-3.07,3.1-4.88.3-.61.59-1.22.88-1.85.28-.62.56-1.25.83-1.88.27-.63.54-1.25.81-1.87.67-1.53,1.33-3,2.04-4.28,1.33-2.39,2.37-4.86,3.19-7.4.33-1.01.62-2.04.88-3.07.13-.52.25-1.03.36-1.55.57-2.6.94-5.25,1.16-7.94.05-.54.08-1.08.12-1.61.62-9.71-.49-19.8-.9-29.45,9.48,14.88,17.46,25.58,21.97,38.32,3.51,9.91,4.94,21.06,3.34,36.37-1.78,17.11-24.38,48.48-45.83,55.91.32.66.72,1.33,1.19,1.98,3.32,4.6,10.12,8.79,15.02,7.96,6.69-1.14,12.53-2.88,17.8-5.15,1.76-.76,3.45-1.58,5.09-2.45,1.09-.58,2.16-1.19,3.21-1.83.52-.32,1.04-.64,1.55-.97,8.73-5.61,16.04-13.01,23.73-21.84-.64-1.9-1.23-3.8-1.74-5.71-.51-1.91-.94-3.83-1.25-5.75-.31-1.92-.51-3.84-.56-5.75-.02-.64-.01-1.28,0-1.91.04-1.27.15-2.54.35-3.81.39-2.53,1.11-5.05,2.24-7.53,7.13-15.64,19.33-24.27,34.14-33.29-10.2,16.51-21.45,33.5-7.07,50.49.65.77,1.87.64,2.75,1.05.13.06.25.13.36.21,7.96-6.29,15.91-12.51,23.87-18.77,4.14,3.18,8.28,6.34,12.42,9.51,4.14,3.17,8.28,6.34,12.43,9.53,1.04-.79,2.76-.43,3.63-1.46,14.4-16.97,3.05-34.06-7.09-50.56,14.75,9.1,27.07,17.81,34.12,33.48,4.69,10.44,2.37,21.03-1.49,31.5,14.39,16.01,27.2,27.06,50.53,30.54,5.71.85,13.71-4.94,16.28-10.32-21.44-7.64-44.02-39.5-45.78-56.63-1.13-10.95-.73-19.76.87-27.51.32-1.55.69-3.06,1.1-4.53s.87-2.91,1.37-4.33c4.51-12.72,12.49-23.39,22-38.26-.2,4.83-.58,9.77-.83,14.71-.17,3.3-.28,6.6-.24,9.88.02,1.64.07,3.27.17,4.89.48,7.56,2,14.89,5.7,21.6,4.53,8.2,7.11,24.22,21.55,15.59,3.17-1.9,5.31-5.12,6.64-9.21.44-1.37.79-2.83,1.06-4.37.93-5.4.84-11.8.06-18.47-1.91-16.21-7.91-34.07-13.3-43.42-10.15-17.6-19.31-41.59-37.48-55.35,9.66,1.35,18.54,3.42,26.68,6.12,1.02.34,2.02.69,3.01,1.04,5.96,2.15,11.49,4.65,16.62,7.49,11.97,6.61,21.72,15.01,29.43,24.85,1.1,1.4,2.16,2.84,3.18,4.3,2.04,2.92,3.91,5.96,5.61,9.11.85,1.57,1.67,3.17,2.44,4.79,2.71,5.68,4.93,11.67,6.69,17.91.5,1.79.97,3.59,1.39,5.42,3.83,16.45,4.62,34.55,2.72,53.56Zm-101,101.45c-1.16-.11-2.28-.16-3.35-.16h-.04l-.24-1.73c1.17.67,2.38,1.3,3.63,1.9Zm-5.51,353.89c-7.5,11.04-14.65,21.52-22.53,31.79-1.08.08-2.04.16-3.01.24-1.85.16-3.46.3-5.89.38-.7.02-1.39.03-2.08.03-11.37,0-23.16-3.05-36.04-9.32-1.31-.64-3.57-1.88-5.57-2.97-1.58-.87-3.09-1.69-4.22-2.27-.62-.32-1.2-.6-1.74-.85l.35-.65-.18-3.09c-.2-3.38-.85-6.43-1.42-9.12-.29-1.35-.56-2.62-.75-3.83-1.86-11.62-2.96-20.63-.13-30.84.26-.94.98-2.61,1.61-4.09.52-1.21,1.03-2.4,1.44-3.49l1.13-2.96,5.37.48-8.17-14.52c.18-.72.32-1.37.44-1.96.04-.2.08-.39.12-.57l9.96-1.11c2.11-.24,4.49-.57,7.01-.93,6.08-.86,13.64-1.92,20.15-1.92,8.11,0,9.97,1.62,9.98,1.62,1.99,3.81,3.43,7.19,4.7,10.16,4.2,9.84,8.96,20.96,28.18,21.45-.57,10.21-.15,19.38,1.3,28.34Zm-196.03-491.86c1.73-10.67,5.16-21.47,8.48-29.09.1,1.87.22,3.76.33,5.65.86,13.74,1.66,26.72-3.91,36.79-1.13,2.04-2.06,4.2-2.96,6.28-.4.93-.92,2.14-1.46,3.28-1.22-2.8-2.63-9.65-.48-22.91Zm233.52-24.87c.14-2.29.28-4.58.39-6.84,3.4,7.74,6.96,19.05,8.68,30.21,2.07,13.49.56,20.36-.7,23.11-.55-1.17-1.09-2.42-1.5-3.37-.9-2.1-1.83-4.28-2.97-6.34-5.56-10.07-4.76-23.04-3.91-36.78Z"/>
    <path class="cls-3" d="m583.78,396.05c3.78-.32,7.55-.64,11.33-.96-1.17-3.47-2.2-6.96-3.11-10.5-2.74,3.82-5.48,7.64-8.22,11.46Z"/>
    <path class="cls-3" d="m488.12,382.84c-.98,4.05-2.13,8.04-3.45,12,4.28.37,8.55.74,12.83,1.1-3.13-4.36-6.26-8.73-9.38-13.1Z"/>
    <path class="cls-2" d="m443.9,348.6c2.64-8.53,5.13-17.05,7.69-25.58,2.53,7.88,5.07,15.76,7.6,23.64-.42-9.43-.84-18.87-1.26-28.3-2.91-6.98-5.74-14-8.72-20.95-1.41,8.62-4.49,17.36-5.38,25.95-.89,8.6.45,16.72.07,25.24Z"/>
    <path class="cls-2" d="m632.79,744.47c-11.23,1.96-19.71.9-29.65-4.16,1.59,5.51,5.66,11.37,12.12,11.68,8.42.4,13.82-3.9,20.03-8.18-.78.07-1.83.54-2.51.66Z"/>
    <path class="cls-2" d="m637.04,347.15c-.37-8.54.98-16.69.09-25.3-.89-8.61-3.96-17.37-5.37-26.01-2.99,6.94-5.82,13.94-8.74,20.91-.42,9.45-.85,18.9-1.27,28.35,2.54-7.88,5.08-15.76,7.62-23.64,2.56,8.57,5.05,17.13,7.68,25.69Z"/>
    <path class="cls-2" d="m681.78,239.21c-10.96-5.59-21.87-11.04-32.85-16.73,5.37,8.73,9.48,15.42,15.15,24.63,5.67,9.22,12.89,20.97,18.85,30.68-2.37-10.6-4.9-21.36-7.34-32.02,8.86,7.43,17.73,14.86,26.59,22.3-6.8-9.62-13.61-19.25-20.41-28.87Z"/>
    <path class="cls-2" d="m591.03,710.69c-4.19,1.07-8.38,1.04-12.57,2.37-4.2,1.32-9.01,3.49-12.41,5.65,6.58.58,17.49,1.7,24.71,2.1-4.07-1.51-8.48-3.05-12.67-4.58,4.33-1.81,8.66-3.6,12.95-5.53Z"/>
    <path class="cls-2" d="m397.26,279.33c6.02-9.63,13.32-21.28,19.04-30.43,5.72-9.15,9.87-15.79,15.29-24.46-11.02,5.57-21.97,10.91-32.96,16.39-6.86,9.55-13.72,19.1-20.57,28.65,8.91-7.34,17.82-14.69,26.73-22.03-2.5,10.61-5.09,21.33-7.53,31.88Z"/>
    <path d="m425.34,587.83c5.61-3.61,8.97-9.96,12.03-16.59.36-.78.72-1.56,1.07-2.35.36-.78.71-1.57,1.07-2.35.36-.78.72-1.56,1.08-2.32,2.33-4.89,5.15-12.37,4.67-18.26,12.25,10.15,25.87,13.72,41.92,15.85-1.8-9.63-3.59-19.26-5.39-28.9-14.75-7.1-27.22-11.77-37.98,2.73-.08.11-.15.24-.21.37-.11.27-.18.57-.21.88-.02.16-.03.32-.03.48-.02.64.04,1.29.01,1.77-.24-.13-.46-.26-.66-.41-.42-.29-.78-.61-1.12-.95-.33-.34-.64-.69-.93-1.05s-.57-.71-.85-1.06c-.28-.35-.57-.68-.89-.98-1.1-1.06-2.51-1.79-5.03-1.53-14.81,1.53-19.28,17.76-23.47,29.81-1.13,3.24-2.94,8.44-3.45,12.15-1.01-.75-2.03-1.49-3.05-2.24-2.55-1.87-5.1-3.74-7.54-5.71-.49-.39-.97-.79-1.45-1.19-3.84-3.21-7.36-6.71-10.15-10.82-1.32-1.95-2.51-3.94-3.6-5.96-1.82-3.37-3.35-6.82-4.76-10.32-.56-1.4-1.1-2.81-1.63-4.22-.27-.71-.53-1.41-.79-2.12-.52-1.42-1.03-2.84-1.55-4.26-.26-.71-.52-1.42-.78-2.13-.52-1.42-1.05-2.84-1.59-4.26-.55,2.01-1.02,4.01-1.42,5.99-.93,4.63-1.46,9.18-1.53,13.66-.01.64-.01,1.28,0,1.91.04,3.81.42,7.57,1.15,11.25.12.61.25,1.23.4,1.84,1.71,7.32,4.86,14.36,9.65,21.07.8,1.12,1.64,2.23,2.53,3.33,3.27,4.03,6.71,6.78,10.41,8.85,3.08,1.72,6.33,2.97,9.8,4.08.69.22,1.4.44,2.11.66,1.42.43,2.88.85,4.38,1.28,1.5.43,3.03.87,4.61,1.35,0-1.92.03-3.7.01-5.49,0-.6-.02-1.2-.03-1.81.62.09.82.48,1.17.75.21.16.47.29.91.29,1.01,0,1.97-.06,2.89-.17,2.76-.33,5.13-1.13,7.21-2.29.35-.19.68-.4,1.01-.61Z"/>
    <path d="m702.06,517.62c-4.17,11.4-7.32,23.01-14.18,33.49-5.44,8.31-13.82,14.17-21.83,20.26-.54-3.69-2.42-8.89-3.57-12.1-4.27-11.95-8.86-28.16-23.63-29.5-5.75-.52-5.63,4.03-9.35,6.09-.06-.96.22-2.59-.46-3.5-10.81-14.41-23.05-9.42-37.6-2.21-.92,9.82-1.82,19.64-2.73,29.46,15.17-2.65,27.77-6.86,38.97-16.92-.42,5.86,2.43,13.31,4.79,18.17,5.94,12.2,10.48,26.51,26.56,26.37,1.17-.01,1.08-.91,2.07-1.06-.03,2.44.03,4.75.07,7.31,12.53-3.98,22.46-5.73,31-16.6,13.97-17.79,16.02-37.89,9.9-59.26Z"/>
    <path d="m643.27,622.02c-5.13-10.47-10.98-16.53-23.84-15.73-10.46-9.46-22.24-12.98-36.48-15.01-1.39,9.85-2.67,19.71-3.59,29.61,11.5,3.93,21.54,5.37,33.58,2.66,2,4.6,4.97,10.39,7.22,14.55,3.89,7.2,6.84,11.47,14.7,14.69-4.73,5.7-9.27,11.93-15.15,16.63-9.98,7.97-21.3,13.47-32.62,19.33,23.81,1.5,44.66-4.74,60.72-20.58,9.81-9.67,10.33-17.99,12.36-29.93-4.11.95-7.9,1.93-11.87,2.85-.86-6.38-2.18-13.29-5.01-19.07Z"/>
    <path d="m482.62,690.31c-10.24-4.36-20.25-8.61-29.51-15.06-3.12-2.18-5.96-4.84-8.65-7.65-2.69-2.81-5.25-5.76-7.81-8.51,3.08-1.7,5.36-3.51,7.2-5.55.92-1.02,1.74-2.09,2.49-3.24.5-.76.98-1.56,1.44-2.39.23-.42.46-.84.69-1.27.91-1.73,1.79-3.62,2.76-5.68.56-1.19,1.19-2.53,1.85-3.94.33-.71.67-1.43,1.02-2.17,1.72-3.69,3.52-7.68,4.81-11,12.74,2.11,24.11,1.15,36.52-2.02-1.8-10.26-3.59-20.52-5.41-30.77-.92.12-1.82.24-2.72.37-10.76,1.55-20.16,4.12-28.69,9.7-2.13,1.4-4.21,2.98-6.24,4.78-7.03.21-11.96,2.03-15.76,5.27-3.8,3.24-6.49,7.91-9.05,13.81-.71,1.63-1.33,3.38-1.87,5.2-.54,1.82-1,3.71-1.4,5.62-.79,3.82-1.31,7.73-1.64,11.34-3.06-.36-6.02-.88-9.07-1.34-1.02-.16-2.05-.31-3.1-.45.48,2.67.9,5.2,1.37,7.62.14.69.28,1.38.43,2.05.3,1.35.62,2.67,1,3.96.47,1.61,1.03,3.18,1.7,4.72.4.92.85,1.83,1.35,2.73.33.6.69,1.19,1.08,1.78,1.73,2.66,3.98,5.24,7.01,7.81,2.2,1.87,4.46,3.56,6.78,5.1,3.47,2.3,7.06,4.25,10.76,5.85,3.7,1.61,7.52,2.87,11.45,3.83,1.31.32,2.63.6,3.96.85,9.33,1.74,19.23,1.82,29.64.54-1.47-.63-2.94-1.26-4.4-1.88Z"/>
    <path d="m499.47,688.07s0,.02,0,0h0Z"/>
    <path d="m717.18,282.1c-1.76-6.25-3.98-12.24-6.69-17.91-.77-1.62-1.59-3.22-2.44-4.79-1.71-3.14-3.58-6.18-5.61-9.11-1.02-1.46-2.08-2.9-3.18-4.3-7.71-9.83-17.46-18.24-29.43-24.85-5.13-2.83-10.67-5.34-16.62-7.49-.99-.36-2-.71-3.01-1.04-8.13-2.71-17.01-4.77-26.68-6.12,18.17,13.76,27.32,37.75,37.48,55.35,5.39,9.35,11.4,27.21,13.3,43.42.79,6.67.88,13.07-.06,18.47-.27,1.54-.62,3.01-1.06,4.37-1.32,4.1-3.47,7.32-6.64,9.21-14.44,8.64-17.02-7.38-21.55-15.59-3.71-6.71-5.23-14.04-5.7-21.6-.1-1.62-.16-3.25-.17-4.89-.03-3.27.08-6.58.24-9.88.25-4.95.63-9.89.83-14.71-9.51,14.87-17.49,25.53-22,38.26-.5,1.41-.96,2.85-1.37,4.33s-.78,2.98-1.1,4.53c-1.6,7.75-2,16.56-.87,27.51,1.77,17.13,24.34,48.99,45.78,56.63-2.57,5.38-10.57,11.17-16.28,10.32-23.32-3.48-36.14-14.53-50.53-30.54,3.86-10.47,6.18-21.06,1.49-31.5-7.04-15.67-19.36-24.37-34.12-33.48,10.14,16.51,21.49,33.6,7.09,50.56-.88,1.03-2.59.67-3.63,1.46-4.15-3.19-8.29-6.36-12.43-9.53-4.14-3.17-8.28-6.33-12.42-9.51-7.95,6.27-15.9,12.48-23.87,18.77-.11-.08-.23-.15-.36-.21-.89-.41-2.1-.27-2.75-1.05-14.38-16.99-3.12-33.98,7.07-50.49-14.81,9.03-27.01,17.65-34.14,33.29-1.13,2.48-1.85,5-2.24,7.53-.19,1.27-.31,2.54-.35,3.81-.02.64-.02,1.27,0,1.91.05,1.91.24,3.83.56,5.75.31,1.92.74,3.84,1.25,5.75.51,1.91,1.1,3.82,1.74,5.71-7.7,8.83-15.01,16.23-23.73,21.84-.51.33-1.03.65-1.55.97-1.05.63-2.11,1.24-3.21,1.83-1.64.88-3.33,1.69-5.09,2.45-5.27,2.27-11.11,4.01-17.8,5.15-4.89.84-11.7-3.35-15.02-7.96-.47-.66-.88-1.32-1.19-1.98,21.44-7.44,44.05-38.8,45.83-55.91,1.59-15.31.17-26.46-3.34-36.37-4.52-12.74-12.5-23.44-21.97-38.32.41,9.64,1.52,19.74.9,29.45-.03.54-.07,1.08-.12,1.61-.23,2.68-.6,5.34-1.16,7.94-.11.52-.23,1.04-.36,1.55-.26,1.03-.55,2.05-.88,3.07-.82,2.53-1.87,5-3.19,7.4-.71,1.28-1.37,2.75-2.04,4.28-.27.61-.53,1.24-.81,1.87-.27.63-.55,1.26-.83,1.88-.28.62-.58,1.24-.88,1.85-.91,1.82-1.91,3.52-3.1,4.88-.4.46-.82.87-1.26,1.25-2.88,2.43-6.77,2.98-12.61-.54-10.52-6.33-9.54-27.25-4.82-46.31,2.83-11.44,7.01-22.2,10.86-28.74,10.26-17.45,19.53-41.35,37.72-54.95-56.7,7.38-86.76,39.52-96.11,82.78-.2.92-.39,1.85-.57,2.78-.72,3.72-1.29,7.52-1.72,11.39-.11.97-.2,1.94-.29,2.92-.97,10.74-.85,21.99.28,33.58,2.47,25.19,10.42,54.54,39.55,64.91,2.67,6.7,5.57,12.96,9.5,18,.6.77,1.23,1.52,1.89,2.23,5.57,6.07,13.1,9.82,24.34,9.49,25.94-.76,37.96-17.31,48.94-37.01-.78,4.7-1.57,9.42-2.35,14.15-2.35,14.19-4.69,28.5-6.97,42.7-3.59-1.08-6.97-1.97-10.14-2.42-1.41-.2-2.78-.32-4.1-.33-.33,0-.66,0-.98.02-.65.02-1.29.08-1.92.16-.31.04-.63.09-.93.15-.62.12-1.22.26-1.82.45s-1.18.4-1.75.66c-1.72.77-3.33,1.88-4.84,3.41-1.26,1.27-2.44,2.84-3.54,4.73-.65,1.11-.35,2.51-.4,3.6-1.2-.61-2.01-1.48-2.74-2.35-1.17-1.4-2.12-2.83-4.1-3.31-.74-.18-1.62-.22-2.71-.08-.93.12-1.82.3-2.67.53-.43.12-.84.24-1.25.39-4.06,1.42-7.16,4.1-9.63,7.46-.49.67-.96,1.37-1.41,2.09s-.87,1.47-1.27,2.23c-.6,1.14-1.16,2.33-1.68,3.54-1.91,4.43-3.33,9.19-4.69,13.5-.12.39-.25.78-.37,1.16-.26.83-.57,1.78-.9,2.8-.97,3.05-2.05,6.72-2.4,9.54-3.6-2.52-7.28-4.97-10.77-7.61-4.48-3.39-8.63-7.08-11.86-11.63-7.24-10.19-10.74-21.58-15.29-32.77-1.2,4.68-2.01,9.29-2.4,13.81-.05.65-.1,1.29-.14,1.93-.07,1.28-.11,2.56-.12,3.83,0,1.91.07,3.79.24,5.66.11,1.25.26,2.49.44,3.72,1.58,10.47,5.96,20.36,13.73,29.52,2.23,2.63,4.54,4.69,6.94,6.36,1.2.83,2.42,1.56,3.67,2.22,6.24,3.28,13.14,4.63,21.06,6.8-.02-1.91-.03-3.69-.07-5.48-.01-.6-.03-1.19-.06-1.8.25.03.43.11.59.21.46.3.64.8,1.52.78,1.01-.03,1.98-.12,2.9-.26.46-.07.91-.15,1.35-.24,1.32-.28,2.54-.67,3.68-1.16.38-.16.75-.34,1.11-.52.72-.37,1.41-.78,2.07-1.22,1.64-1.12,3.07-2.46,4.36-3.98.51-.61,1-1.24,1.47-1.9,1.64-2.31,3.03-4.9,4.3-7.61,1.64-3.49,3.08-7.17,4.64-10.7.96-2.18,2.02-4.89,2.86-7.75.96-3.26,1.65-6.71,1.59-9.78,0-.38-.03-.76-.06-1.13,10.27,9.19,21.68,13.26,35.58,15.81.14-3.38.17-6.88.35-10.18.93.98,1.87,2,2.81,3.06,5.17,5.84,10.45,12.74,15.64,18.41.47.52.94,1.02,1.41,1.51.94.99,1.87,1.92,2.81,2.8,7.44,7.01,14.33,9.45,21.73,15.56-2.42-1.03-4.84-2.04-7.25-3.03-7.25-2.97-14.51-5.78-21.76-8.74-2.25,2.16-4.56,4.19-6.77,6.44.34,1.58.7,3.26,1.06,4.99s.73,3.49,1.1,5.25c.18.88.36,1.75.54,2.62.54,2.6,1.05,5.11,1.51,7.34.08.37.15.73.23,1.06.08.34.16.65.24.96.33,1.21.69,2.17,1.15,2.98,1.15,2.03,2.92,3.16,6.22,5.06.4.23.07-.05,2.1.6.89.28,2.82.85,4.95,1.48.61.18,1.24.36,1.86.55,2.19.64,4.35,1.28,5.67,1.68,1,1.03,1.98,2.05,2.93,3.08,2.86,3.08,5.55,6.15,8.4,9.24-8.41-4.5-16.81-8.98-25.24-13.43-.5.61-1.01,1.21-1.52,1.81-.51.6-1.02,1.19-1.53,1.78-1.02,1.19-2.04,2.39-3.02,3.67.7,4.73,1.54,10.6,2.26,15.87.33,2.39.63,4.66.88,6.64.81,6.33,1.67,7.88,6.44,11.45.23.17.46.32.7.46,1.41.82,2.93,1.07,4.55,1.73.27.11.54.23.82.37,2.22,1.12,5.36,2.1,7.74,3.2,1.58,1.77,3.15,3.54,4.71,5.3,1.56,1.77,3.12,3.53,4.7,5.29-3.27-1.79-6.53-3.6-9.79-5.42-3.25-1.82-6.5-3.65-9.75-5.47-1.59,1.86-3.27,3.52-4.83,5.49.04.33.08.67.12,1.02.51,4.21,1.2,9.82,1.79,14.1.05.36.1.7.15,1.04.1.67.19,1.3.28,1.87.7,4.56,2.22,4.89,3.29,8.54,4.98,3.9,10.06,7.69,15.12,11.49-6.6-1.08-13.15-2.3-19.76-3.33-.95,1.71-1.91,3.13-2.85,5.02-.41,6.47-.93,15.34-1.76,22.88-.38,3.43-.82,6.58-1.34,9.11-.83,4.05-1.38,6.09-1.49,7.99-.05.95,0,1.86.2,2.98.05.28.1.57.17.87.19.92.46,1.98.82,3.29.02.09.03.13.03.15,0-.01.01-.03.04-.03.02,0,.06.01.1.05.05.03.12.08.2.17.17.16.44.44.83.92,1.56,1.89,7.26,8.75,9.29,11.76-4.83-1.86-9.65-4.11-14.44-6.38-1.6-.76-3.19-1.52-4.79-2.26-.37.48-.81,1.01-1.27,1.56-.23.28-.47.56-.71.84-1.2,1.42-2.46,2.89-3.26,4.05-2.13,3.08-3.71,6.2-4.82,9.39-1.85,5.31-2.4,10.79-2.05,16.56.11,1.79.6,2.77,1.13,3.76.19.36.39.71.58,1.05.39.67.79,1.29,1.19,1.88,1,1.49,2.02,2.83,3.04,4.49-1.95-.49-3.84-1.1-5.85-1.38-.1.29-.2.59-.3.9-.1.31-.21.63-.32.95-.55,1.63-1.18,3.45-1.8,5.28-.37,1.1-.74,2.2-1.08,3.27-.69,2.14-1.3,4.14-1.69,5.7-.26,1.04-.51,2.05-.75,3.04-.71,2.95-1.29,5.62-1.55,7.87-.74,6.49-.67,12.57.05,18.44.12.98.26,1.95.41,2.92.31,1.94.69,3.85,1.14,5.76,1.56,6.67,3.9,13.21,6.8,19.96.58,1.35,1.15,2.36,1.67,3.12.17.25.34.48.5.69,4.21,5.4,8.06,10.6,11.88,15.85,2.29,3.15,4.58,6.31,6.92,9.55-1.98,2.15-3.89,4.37-5.85,6.55,3.46,3.14,6.94,6.24,10.41,9.35,3.48,3.11,6.95,6.23,10.42,9.39,2.58.63,5.68,1.81,8.41,2.69.91.29,1.78.55,2.58.75,6.32,1.55,12.1,2.76,17.73,3.56,2.25.32,4.48.58,6.7.76,2.23.19,4.45.31,6.7.35,7.88.16,16.05-.56,25.58-2.34,2.53-.47,15.82-3.57,19.45-5.83,2.36-2.98,3.5-5.93,5.25-8.98,2.07,1.27,4.2,2.48,6.31,3.7,16.59-15.76,30.44-33.59,47.94-48.53-1.41-16.74-1.37-33.16-.46-49.92-4.74-5.18-9.25-10.54-13.83-15.83,2.83-3.68,5.44-7.03,5.91-11.69-15.56-16.22-38.19-25.2-60.54-24.27-5.59.23-10.55.81-15.12,1.72-2.28.46-4.47,1-6.58,1.62-.53.16-1.05.32-1.57.48-2.08.66-4.09,1.41-6.06,2.23-1.48.62-2.94,1.28-4.39,1.99-3.86,1.89-7.65,4.1-11.59,6.62-.98.63-1.98,1.28-2.98,1.95-1.01.67-2.02,1.35-3.06,2.06,13.45-1.5,43.03-8.04,49.96,5.26,10.72,20.58,6.26,27.72,34.09,24.19,3.3-2.5,7.36-4.19,11.3-6.01-3.36,5.67-7.51,10.68-11.1,16.2-.83,11.33-.52,21.83,1.75,33.04-8.65,12.73-17.17,25.4-26.66,37.63,1.54,3.49,2.9,7.07,4.29,10.61-3.38-2.49-6.95-4.92-10.21-7.44-4.51.23-6.61.62-11.57.79-15.51.51-30.23-3.71-44.42-10.62-2.67-1.3-7.47-4.04-10.07-5.39-2.6-1.35-4.17-1.64-6.6-2.71-3.75,2.13-7.59,4.19-11.38,6.28,3.4-5.85,6.78-11.72,10.01-17.64-.03-.51-.07-1.01-.13-1.51-.11-1-.27-1.99-.46-2.98s-.39-1.96-.6-2.94c-.31-1.47-.63-2.95-.87-4.45-.99-6.16-1.81-11.93-1.96-17.7-.02-.72-.03-1.44-.02-2.17,0-1.44.06-2.89.17-4.35.27-3.64.87-7.34,1.94-11.2.71-2.58,2.36-5.91,3.37-8.55-.24-.98-.49-1.94-.75-2.9-.26-.96-.53-1.91-.8-2.88-6.42-2.01-12.59-4.57-18.75-7.18,2.81.11,5.62.16,8.42.25s5.61.22,8.41.47c-.03-.05-.01-.17-.05-.23-.01-.02-.03-.03-.06-.03.95-1.43,1.32-2.5,1.6-3.66.27-1.15.44-2.38.98-4.12,1.82-5.94,4.55-10.91,9.62-16.12.68-.7,1.51-1.5,2.43-2.35,2.74-2.54,6.25-5.5,8.91-7.51.46-1.16.64-2.21.95-3.34-3.08-.26-6.14-.58-9.21-.91-3.07-.32-6.13-.65-9.21-.92,2.78-.89,5.55-1.79,8.33-2.66,3.7-1.16,7.41-2.27,11.19-3.24.94-.24,1.89-.48,2.84-.7,1.56-1.17,2.87-2.48,4-3.89,1.51-1.88,2.72-3.95,3.81-6.13.27-.55.54-1.1.8-1.66,5.11-10.96,8.66-22.09,11.56-33.69-.87-4.19-1.7-8.39-2.45-12.6-3.2.07-6.44.17-9.66.27-3.22.1-6.44.2-9.6.25,2.64-1.47,5.84-3.17,8.98-4.84,3.14-1.67,6.21-3.31,8.62-4.67,4.8-2.71,4.84-4.48,5.91-8.7,1.56-6.14,2.12-12.23,3.52-18.37-1.61-2-3.16-4-4.75-6-3.47,1.74-6.93,3.48-10.41,5.22-3.47,1.73-6.95,3.46-10.44,5.16,1.59-1.6,3.16-3.2,4.73-4.81,1.57-1.6,3.15-3.21,4.76-4.81,2.71-.98,6.35-2.21,8.84-3.18,2.49-.97,4.75-1.47,6.78-2.5,4.84-2.44,6.02-5.9,6.93-10.52,1.55-7.89,3.1-15.59,4.55-23.45-2.06-2.62-4.12-5.25-6.16-7.89-8.9,4.39-17.8,8.76-26.72,13.13,1.03-1.04,2.05-2.07,3.06-3.11,3.03-3.11,6.01-6.21,9.25-9.32,2.77-.72,9.9-2.68,11.71-3.15,1.81-.47,1.21-.3,1.39-.38,5.13-2.1,6.87-4.78,7.92-9.46,1.58-7.06,3.23-13.92,4.88-20.93-2.11-2.12-4.24-4.24-6.35-6.36-9.54,3.66-19.09,7.33-28.64,10.97,6.69-4.42,13.38-8.84,20.07-13.26-.01,0-.02,0-.04,0,6.76-7.89,13.54-15.76,20.31-23.64.04,2.01.09,4.02.13,6.03,14.03-2.69,25.39-7.07,35.65-16.46-.5,5.88,2.27,13.37,4.57,18.27,5.79,12.31,10.14,26.69,26.24,26.85,1.17.01,1.09-.89,2.08-1.02-.07,2.43-.05,4.74-.04,7.3,12.58-3.74,22.55-5.3,31.27-16.01,14.26-17.53,16.59-37.51,10.78-58.89-4.34,11.29-7.65,22.8-14.68,33.14-5.57,8.19-14.06,13.86-22.16,19.79-.51-3.71-2.31-8.92-3.42-12.17-4.13-12.06-8.5-28.31-23.29-29.94-5.76-.63-5.7,3.89-9.46,5.91-.04-1.09.2-2.46-.41-3.58-5.86-10.72-14.39-10.58-25.98-7.8-2.36-16.97-4.72-34.14-7.12-50.98,11.26,17.42,23.2,31.76,46.87,31.81,21.22.05,29.2-13.43,35.74-30.22,29.13-10.41,37.2-39.86,39.73-65.1,1.9-19.01,1.12-37.11-2.72-53.56-.43-1.83-.89-3.63-1.39-5.42Zm-94.16,34.66c2.92-6.97,5.75-13.97,8.74-20.91,1.41,8.63,4.48,17.39,5.37,26.01.89,8.61-.46,16.76-.09,25.3-2.63-8.56-5.11-17.13-7.68-25.69-2.54,7.88-5.08,15.76-7.62,23.64.42-9.45.85-18.9,1.27-28.35Zm-179.19,6.6c.89-8.6,3.97-17.34,5.38-25.95,2.98,6.95,5.81,13.97,8.72,20.95.42,9.43.84,18.87,1.26,28.3-2.53-7.88-5.07-15.76-7.6-23.64-2.56,8.53-5.05,17.06-7.69,25.58.37-8.52-.97-16.65-.07-25.24Zm-45.19-82.54c10.99-5.48,21.94-10.82,32.96-16.39-5.42,8.67-9.57,15.31-15.29,24.46-5.72,9.15-13.02,20.81-19.04,30.43,2.44-10.55,5.03-21.27,7.53-31.88-8.91,7.34-17.82,14.68-26.73,22.03,6.85-9.55,13.71-19.11,20.57-28.65Zm167.41,477.89c3.4-2.16,8.22-4.33,12.41-5.65,4.2-1.32,8.38-1.3,12.57-2.37-4.29,1.93-8.61,3.72-12.95,5.53,4.19,1.54,8.6,3.07,12.67,4.58-7.22-.4-18.13-1.52-24.71-2.1Zm49.22,33.28c-6.46-.31-10.53-6.17-12.12-11.68,9.94,5.06,18.42,6.12,29.65,4.16.67-.12,1.73-.6,2.51-.66-6.21,4.28-11.61,8.59-20.03,8.18Zm-93.44-370.11c-.86,3.67-1.72,7.35-2.58,11.02-1.4-3.68-2.8-7.35-4.2-11.03,4.71-3.18,9.43-6.37,14.14-9.55-2.46,3.19-4.91,6.37-7.37,9.56Zm40.24,11.07c-.86-3.68-1.72-7.36-2.59-11.04-2.46-3.19-4.91-6.38-7.37-9.57,4.71,3.19,9.43,6.39,14.14,9.59-1.4,3.67-2.79,7.35-4.18,11.02Zm120.88-115.15c-5.96-9.7-13.18-21.46-18.85-30.68-5.67-9.22-9.78-15.9-15.15-24.63,10.98,5.69,21.89,11.14,32.85,16.73,6.8,9.62,13.61,19.24,20.41,28.87-8.86-7.43-17.73-14.87-26.59-22.3,2.45,10.66,4.97,21.42,7.34,32.02Z"/>
    <path d="m510.33,627.67s0,0,0,0c0-.01,0-.03-.01-.04,0,0,0,0,0,0-.05-.04-.01.03,0,.05Z"/>
    <path class="cls-2" d="m515.05,381.87c1.4,3.68,2.8,7.35,4.2,11.03.86-3.67,1.72-7.35,2.58-11.02,2.45-3.19,4.91-6.38,7.37-9.56-4.72,3.18-9.43,6.37-14.14,9.55Z"/>
    <path class="cls-2" d="m559.48,381.91c.86,3.68,1.72,7.36,2.59,11.04,1.39-3.67,2.79-7.35,4.18-11.02-4.71-3.2-9.42-6.39-14.14-9.59,2.46,3.19,4.91,6.38,7.37,9.57Z"/>
  </g>
</svg>