<?xml version="1.0" encoding="UTF-8"?>
<svg id="Layer_2" data-name="Layer 2" xmlns="http://www.w3.org/2000/svg" viewBox="0 0 700.33 484.44">
  <defs>
    <style>
      .cls-1 {
        fill: none;
      }

      .cls-2 {
        fill: #b0b7bc;
      }

      .cls-3 {
        fill: #fff;
      }

      .cls-4 {
        fill: #ff4d00;
      }
    </style>
  </defs>
  <g id="Layer_1-2" data-name="Layer 1">
    <g>
      <path class="cls-3" d="M653.03,138.27l47.31-49.95-61.27,31.87c-.49.27-40.61,21.87-113.05,38.43l12.48-84.93L481.05,0H142.3l35.27,86.16-10.56,71.88L58.96,44.11l95.07,191.47c-91.27,35.48-128.83,91.52-130.41,93.93L0,364.54l38.77-18.5c.37-.2,32.5-17.09,105.98-36.46l-12.58,85.62-62.75,89.25h342.87l76.31-71.1,18.26-124.29,143.38,80.48-125.4-141.12c11.07-4.75,27.89-13.08,51.87-27.57,39.37-23.78,74.82-61,76.31-62.57Z"/>
      <g id="SILVER">
        <path class="cls-2" d="M354.56,298.41l-13.27,90.33h-57.98l10.92-74.35c-3.67-.99-7.13-2.68-10.23-5.04l-1.12-.85-13.56,92.33h82.4l15.28-104.04c-2.89.9-5.84,1.47-8.78,1.64-1.23.07-2.45.05-3.67,0Z"/>
        <path class="cls-2" d="M302.44,175.38c3.54-1.21,7.11-1.87,10.6-1.87.63,0,1.25.03,1.87.07l11.44-77.88h57.98l-9.81,66.75c.94.09,1.89.21,2.82.38,3.52.63,6.36,1.67,8.86,3.23l12.11-82.44h-82.4l-13.48,91.76Z"/>
        <path class="cls-2" d="M465.92,401.44l-63.14,58.83H115.95l39.29-55.88,16.44-111.9c-4.33,1.02-8.55,2.04-12.66,3.05l-15.32,104.25-51.02,72.57h314.85l69.73-64.96,19.76-134.49-11.25-6.52-19.84,135.06Z"/>
        <path class="cls-2" d="M202.44,83.13l-24.14-58.97h290.95l43.84,56.24-13.81,94.03c4.27-.79,8.47-1.61,12.57-2.44l13.95-94.94-50.64-64.96H160.3l29.7,72.57-14.21,96.74,10.55,11.28,16.09-109.54Z"/>
      </g>
      <g>
        <path class="cls-1" d="M202.43,230.82c-12.88-14.87-65.22-73.1-65.22-73.1,0,0,39.75,73.28,43.51,80.09,7.33-2.57,14.57-4.91,21.71-6.99Z"/>
        <path class="cls-1" d="M244.21,254.57c3.1-5.79,7.19-13.32,11.78-21.52-40.09,5.29-87.64,18.63-134.85,42.07,21.03-5.69,44.86-8.71,44.86-8.71,0,0-13.09,7.85-21.97,17.58,0,0,0,0,0,0,0,0,0,0,0,0,30.11-8,62.18-14.95,95.48-20.56,1.21-2.3,4.25-8.01,4.7-8.85Z"/>
        <path class="cls-1" d="M326.65,199.89c-3.41-6.72-6.78-10.49-12.7-11.13-9.38-1.02-20.78,6.05-27.95,17.07-18.6,28.65-40.2,70.38-40.2,70.38-.86,1.54-6.07,14.02-18.74,7.35,0,0,3.17-.84,5.58-5.27-9.92,1.75-19.72,3.61-29.37,5.59,13.13,19.81,26.13,29.85,38.68,29.76,13.07-.08,24.01-11.14,31.86-22.69,1.38-1.89,31.73-55.33,52.85-91.06Z"/>
        <path class="cls-1" d="M354.56,298.41l.22-1.49c-6.61-.32-13.55-2.54-18.04-6.46-10.77,15.47-22.78,24.12-36.37,23.4-2.04-.11-4.01-.43-5.91-.95l-.22,1.47c-3.67-.99-7.13-2.68-10.23-5.04l-1.12-.85-13.56,92.33h82.4l15.28-104.04c-2.89.9-5.84,1.47-8.78,1.64-1.23.07-2.45.05-3.67,0Z"/>
        <path class="cls-1" d="M342.94,196.54c-8.76,14.96-36.95,63.65-56.33,96.63,3.28,4.36,7.89,6.89,13.39,7.18,11.39.6,21.58-8.29,30.45-23.69,1.43-2.61,34.98-59.67,54.03-90.69-2.47-5.24-6.46-8.66-11.3-9.53-9.17-1.65-21.59,5.33-30.23,20.1Z"/>
        <path class="cls-1" d="M314.91,173.58l-.22,1.48c.39.02.77.05,1.15.1,8.06.88,13.76,5.54,18.89,13.24.04-.04-.03-.09,0-.13,13.02-19.25,26.9-25.5,39.57-24.32l.22-1.48c.94.09,1.89.21,2.82.38,3.52.63,6.36,1.67,8.86,3.23l12.11-82.44h-82.4l-13.48,91.76c3.54-1.21,7.11-1.87,10.6-1.87.63,0,1.25.03,1.87.07Z"/>
        <path class="cls-1" d="M490.72,228.31c-.16-.15-.22-.35-.35-.51-9.72,3.07-19.5,5.81-29.32,8.25,21.29,12.74,92.97,55.17,92.97,55.17l-63.3-62.91Z"/>
        <path class="cls-1" d="M443.03,182.22s-2.72.34-4.81,3.07c6.3-.53,13.91-2.12,13.91-2.12-10.01-7.94-21.15-16.27-32.03-15-10.55,1.22-17.24,9.9-23.76,21.52-7.66,13.3-45.42,74.73-53.8,89.79,3.94,3.48,10.6,4.13,14.22,3.94,9.51-.51,15.96-7.25,21.54-15.06,16.1-22.57,50.23-81.06,51.1-82.56.87-1.51,6.01-9.65,13.64-3.58Z"/>
        <path class="cls-1" d="M561.14,183.67s0,0,0,0c0,0,0,0,0,0-18.23,4.13-35.81,6.49-35.81,6.49,0,0,7.74-5.55,15.49-12.72-32.71,9.47-67.74,17.23-105.63,21.32-1.63,2.78-8.22,14.03-12.98,22.15,0,0,0,0,0,0-2.15,3.68-3.93,6.72-4.7,8.03-.26.45-.41.7-.41.7l-.72,1.21-.1.17c8.1-1.13,16.14-2.52,24.16-4.13,22.06-4.43,43.83-10.67,65.4-18.68,18.56-6.89,36.98-15.08,55.31-24.55Z"/>
        <path d="M643.91,129.01s-.03.02-.07.04c0,0-.02.01-.03.02-.03.02-.07.04-.12.06-.02.01-.05.02-.07.04-.05.03-.1.05-.16.08-.03.02-.07.04-.11.06-.06.03-.12.06-.19.1-.05.03-.1.05-.16.08-.07.03-.14.07-.21.11-.07.04-.15.08-.23.12-.06.03-.12.06-.18.09-.1.05-.2.1-.32.16-.03.01-.06.03-.09.05-.28.14-.59.3-.94.47-.04.02-.07.04-.11.06-.15.08-.32.16-.48.24-.08.04-.15.07-.23.11-.16.08-.33.16-.49.24-.1.05-.19.1-.29.14-.18.09-.36.18-.55.27-.09.05-.19.09-.29.14-.2.1-.4.19-.61.29-.1.05-.21.1-.31.15-.22.1-.44.21-.67.32-.08.04-.17.08-.25.12-1.18.56-2.51,1.18-3.99,1.85-.07.03-.15.07-.22.1-.33.15-.66.3-1,.45-.11.05-.22.1-.33.15-.34.15-.68.3-1.03.46-.11.05-.23.1-.34.15-.36.16-.73.32-1.11.49-.09.04-.18.08-.27.12-.41.18-.83.36-1.26.55,0,0,0,0,0,0-1.92.83-4,1.71-6.23,2.64-.08.03-.15.06-.23.1-.49.2-1,.41-1.5.62-.11.05-.22.09-.33.14-.5.21-1.02.41-1.53.62-.11.05-.22.09-.34.14-.53.21-1.07.43-1.62.65-.08.03-.16.06-.24.1-3.09,1.23-6.43,2.52-10,3.84-.08.03-.16.06-.24.09-.65.24-1.32.49-1.99.73-.12.04-.23.09-.35.13-.66.24-1.33.49-2.01.73-.12.04-.24.09-.36.13-.7.25-1.41.51-2.12.76-.05.02-.1.04-.16.06-3.9,1.39-8.04,2.8-12.41,4.24-.12.04-.23.08-.35.12-.78.26-1.57.51-2.37.77-.16.05-.32.1-.47.15-.79.25-1.58.51-2.38.76-.16.05-.32.1-.48.15-.83.26-1.66.52-2.5.79-.08.02-.15.05-.23.07-3.78,1.18-7.71,2.36-11.78,3.54-.01,0-.03,0-.04.01-.91.26-1.83.53-2.75.79-.19.06-.39.11-.58.17-.87.25-1.75.49-2.63.74-.24.07-.48.13-.72.2-.88.24-1.76.49-2.65.73-.23.06-.47.13-.7.19-.92.25-1.84.5-2.78.75-.14.04-.28.07-.42.11-4.23,1.13-8.59,2.25-13.09,3.35-.17.04-.34.08-.52.13-.96.23-1.92.47-2.89.7-.31.07-.62.15-.93.22-.92.22-1.85.44-2.78.66-.36.08-.72.17-1.08.25-.92.21-1.85.43-2.78.64-.36.08-.72.16-1.08.24-4.77,1.08-9.66,2.13-14.7,3.16-4.1.84-8.3,1.65-12.57,2.44l13.81-94.03-43.84-56.24H178.3l24.14,58.97-16.09,109.54-10.55-11.28-84.08-89.88,75.57,147.86.85,1.67-1.16.43-4.15,1.54c-92.05,34.19-129.24,89.68-130.78,92.03l-3.23,4.93,5.19-2.8s.05-.02.1-.05c.02-.01.04-.02.06-.03.02,0,.04-.02.06-.03.03-.02.06-.03.1-.05.03-.02.07-.04.11-.06.04-.02.08-.04.12-.06.04-.02.08-.04.12-.06.06-.03.12-.06.18-.09.05-.02.09-.05.14-.07.07-.03.13-.07.21-.1.06-.03.12-.06.19-.09.07-.03.14-.07.21-.11.08-.04.16-.08.24-.12.07-.04.15-.08.23-.11.09-.04.18-.09.27-.13.08-.04.18-.09.26-.13.1-.05.2-.1.31-.15.09-.04.18-.09.27-.13.24-.12.49-.24.76-.36.09-.04.17-.08.25-.12.14-.06.28-.13.43-.2.11-.05.22-.1.34-.16.15-.07.3-.14.45-.21.12-.05.23-.11.36-.17.16-.07.32-.15.49-.23.13-.06.26-.12.4-.18.17-.08.34-.16.52-.24.14-.06.28-.13.42-.19.18-.08.37-.17.56-.25.15-.07.3-.14.46-.21.2-.09.4-.18.6-.27.15-.06.3-.13.45-.2.22-.1.45-.2.68-.3.13-.06.27-.12.41-.18.25-.11.51-.22.77-.34.11-.05.23-.1.35-.15.97-.42,2.01-.86,3.1-1.32.13-.05.25-.1.37-.16.31-.13.63-.26.95-.4.16-.07.32-.13.48-.2.31-.13.63-.26.95-.39.19-.08.38-.16.57-.23.31-.13.63-.26.95-.39.2-.08.4-.16.61-.25.33-.13.67-.27,1.01-.41.21-.08.41-.17.62-.25.34-.14.69-.28,1.04-.42.21-.09.43-.17.65-.26.37-.15.74-.29,1.12-.44.19-.08.39-.15.59-.23.41-.16.81-.32,1.23-.48.17-.07.35-.14.53-.2.45-.17.9-.35,1.36-.52.09-.03.18-.07.27-.1,1.66-.63,3.39-1.29,5.2-1.96.14-.05.27-.1.41-.15.49-.18.99-.36,1.49-.55.22-.08.45-.16.67-.25.48-.17.96-.35,1.45-.53.26-.09.52-.19.78-.28.48-.17.97-.35,1.46-.52.28-.1.56-.2.84-.3.5-.18,1-.35,1.51-.53.28-.1.56-.2.85-.3.51-.18,1.03-.36,1.55-.54.29-.1.58-.2.87-.3.54-.19,1.07-.37,1.62-.56.28-.1.56-.19.84-.29.57-.19,1.14-.39,1.72-.59.24-.08.48-.16.72-.24.64-.22,1.27-.43,1.93-.65.02,0,.04-.01.06-.02,2.37-.79,4.82-1.6,7.36-2.42.21-.07.42-.14.63-.21.65-.21,1.31-.42,1.97-.63.32-.1.64-.21.97-.31.62-.2,1.25-.4,1.89-.6.37-.12.74-.23,1.11-.35.64-.2,1.28-.4,1.92-.6.37-.12.75-.23,1.12-.35.65-.2,1.3-.4,1.96-.6.39-.12.78-.24,1.18-.36.66-.2,1.32-.4,1.99-.6.4-.12.81-.25,1.22-.37.68-.2,1.35-.41,2.04-.61.39-.12.78-.23,1.17-.35.72-.22,1.45-.43,2.19-.65.32-.09.65-.19.97-.28.81-.24,1.62-.47,2.44-.71.01,0,.02,0,.03,0,2.08-.6,4.21-1.21,6.38-1.83.12-.03.24-.07.36-.1.81-.23,1.64-.46,2.46-.69.4-.11.79-.22,1.19-.33.78-.22,1.56-.43,2.35-.65.46-.13.91-.25,1.38-.38.76-.21,1.53-.42,2.3-.63.51-.14,1.01-.27,1.52-.41.75-.2,1.51-.41,2.27-.61.54-.14,1.07-.29,1.61-.43.76-.2,1.53-.4,2.3-.61.55-.15,1.11-.29,1.67-.44,4.78-1.25,9.71-2.51,14.83-3.77,4.11-1.01,8.33-2.03,12.66-3.05l-16.44,111.9-39.29,55.88h286.83l63.14-58.83,19.84-135.06,11.25,6.52,116.28,67.37-105.74-115.87,6.91-2.64c10.07-3.84,28.14-12.08,57.05-29.54,38.22-23.09,72.76-59.35,74.21-60.88l6.59-6.96-8.4,4.63ZM315.92,83.62h82.4l-12.11,82.44c-2.5-1.56-5.34-2.6-8.86-3.23-.94-.17-1.88-.29-2.82-.38-1.05-.1-2.11-.15-3.15-.15-11.76,0-22.85,6.24-32.97,18.55l-3.56,4.33-3.92-4c-4.33-4.42-9.21-6.88-14.92-7.5-.36-.04-.72-.06-1.09-.09-.62-.04-1.24-.07-1.87-.07-3.49,0-7.07.66-10.6,1.87l13.48-91.76ZM384.47,185.97c-19.05,31.02-52.6,88.08-54.03,90.69-8.87,15.4-19.06,24.29-30.45,23.69-5.5-.28-10.11-2.82-13.39-7.18,19.38-32.98,47.57-81.67,56.33-96.63,8.64-14.77,21.06-21.75,30.23-20.1,4.85.86,8.84,4.29,11.3,9.53ZM137.21,157.73s52.34,58.22,65.22,73.1c-7.14,2.08-14.38,4.42-21.71,6.99-3.76-6.81-43.51-80.09-43.51-80.09ZM144.03,283.97s0,0,0,0c0,0,0,0,0,0,8.88-9.73,21.97-17.58,21.97-17.58,0,0-23.83,3.02-44.86,8.71,47.21-23.43,94.76-36.78,134.85-42.07-4.59,8.2-8.68,15.74-11.78,21.52-.45.84-3.48,6.55-4.7,8.85-33.3,5.6-65.38,12.56-95.48,20.56ZM241.95,313.64c-12.55.09-25.55-9.94-38.68-29.76,9.66-1.98,19.45-3.84,29.37-5.59-2.42,4.42-5.58,5.27-5.58,5.27,12.67,6.67,17.88-5.81,18.74-7.35,0,0,21.6-41.73,40.2-70.38,7.17-11.02,18.57-18.08,27.95-17.07,5.92.64,9.3,4.41,12.7,11.13-21.13,35.72-51.47,89.17-52.85,91.06-7.85,11.55-18.78,22.61-31.86,22.69ZM351.72,400.82h-82.4l13.56-92.33,1.12.85c3.09,2.36,6.56,4.06,10.23,5.04,1.96.53,3.98.86,6.04.97.57.03,1.11.05,1.66.05,11.4,0,22.31-6.47,32.43-19.23l2.56-3.24,3.67,1.88c4.09,2.09,8.95,3.35,13.96,3.59,1.22.06,2.44.07,3.67,0,2.94-.16,5.89-.74,8.78-1.64l-15.28,104.04ZM378.29,268.36c-5.58,7.81-12.04,14.55-21.54,15.06-3.62.19-10.28-.46-14.22-3.94,8.38-15.06,46.13-76.49,53.8-89.79,6.53-11.62,13.21-20.3,23.76-21.52,10.88-1.27,22.02,7.06,32.03,15,0,0-7.61,1.6-13.91,2.12,2.08-2.73,4.81-3.07,4.81-3.07-7.63-6.07-12.76,2.06-13.64,3.58-.88,1.49-35,59.99-51.1,82.56ZM416.27,231.03l.1-.17.72-1.21s.15-.25.41-.7c.77-1.31,2.54-4.35,4.7-8.03,0,0,0,0,0,0,4.76-8.12,11.35-19.37,12.98-22.15,37.89-4.09,72.92-11.84,105.63-21.32-7.75,7.17-15.49,12.72-15.49,12.72,0,0,17.58-2.36,35.81-6.49,0,0,0,0,0,0,0,0,0,0,0,0-18.34,9.47-38.1,18.36-56.66,25.26-21.57,8.01-41.85,10.21-63.91,14.64-8.01,1.61-16.2,6.33-24.29,7.46ZM461.05,236.05c9.82-2.44,19.6-5.17,29.32-8.25.13.16.19.36.35.51l63.3,62.91s-71.69-42.43-92.97-55.17Z"/>
      </g>
      <path class="cls-3" d="M435.19,198.76c-1.63,2.78-8.22,14.03-12.98,22.15,80.32-11.47,120.7-33.11,138.93-37.24,0,0,0,0,0,0-18.23,4.13-35.81,6.49-35.81,6.49,0,0,7.74-5.55,15.49-12.72-32.71,9.47-67.74,17.23-105.63,21.32Z"/>
      <path class="cls-3" d="M440.43,226.9c22.06-4.43,43.83-10.67,65.4-18.68-21.57,8.01-43.34,14.25-65.4,18.68Z"/>
      <path class="cls-3" d="M244.27,254.45s-.02.05-.06.12c3.1-5.79,7.19-13.32,11.78-21.52-40.09,5.29-87.64,18.63-134.85,42.07,21.03-5.69,44.86-8.71,44.86-8.71,0,0-13.09,7.85-21.97,17.58,0,0,0,0,0,0,15.34-9.73,63.04-21.92,100.24-29.52Z"/>
      <g>
        <path class="cls-4" d="M299.99,300.35c11.39.6,21.58-8.29,30.45-23.69,1.43-2.61,34.98-59.67,54.03-90.69-2.47-5.24-6.46-8.66-11.3-9.53-9.17-1.65-21.59,5.33-30.23,20.1-8.76,14.96-36.95,63.65-56.33,96.63,3.28,4.36,7.89,6.89,13.39,7.18ZM352.34,192.57c9.52-11.91,16.85-8.45,16.85-8.45l-50.65,64.63s27.26-48,33.8-56.19Z"/>
        <path class="cls-4" d="M490.72,228.31c-.16-.15-.22-.35-.35-.51-9.72,3.07-19.5,5.81-29.32,8.25,21.29,12.74,92.97,55.17,92.97,55.17l-63.3-62.91Z"/>
        <path class="cls-4" d="M180.72,237.82c7.33-2.57,14.57-4.91,21.71-6.99-12.88-14.87-65.22-73.1-65.22-73.1,0,0,39.75,73.28,43.51,80.09Z"/>
        <path class="cls-4" d="M232.64,278.29c-9.92,1.75-19.72,3.61-29.37,5.59,13.13,19.81,26.13,29.85,38.68,29.76,13.07-.08,24.01-11.14,31.86-22.69,1.38-1.89,31.73-55.33,52.85-91.06-3.41-6.72-6.78-10.49-12.7-11.13-9.38-1.02-20.78,6.05-27.95,17.07-18.6,28.65-40.2,70.38-40.2,70.38-.86,1.54-6.07,14.02-18.74,7.35,0,0,3.17-.84,5.58-5.27ZM294.73,204.47c9.53-11.9,16.84-8.45,16.84-8.45l-50.64,64.63s27.25-47.98,33.8-56.18Z"/>
        <path class="cls-4" d="M378.29,268.36c16.1-22.57,50.23-81.06,51.1-82.56.87-1.51,6.01-9.65,13.64-3.58,0,0-2.72.34-4.81,3.07,6.3-.53,13.91-2.12,13.91-2.12-10.01-7.94-21.15-16.27-32.03-15-10.55,1.22-17.24,9.9-23.76,21.52-7.66,13.3-45.42,74.73-53.8,89.79,3.94,3.48,10.6,4.13,14.22,3.94,9.51-.51,15.96-7.25,21.54-15.06Z"/>
        <path class="cls-3" d="M352.34,192.57c-6.55,8.18-33.8,56.19-33.8,56.19l50.65-64.63s-7.32-3.46-16.85,8.45Z"/>
        <path class="cls-3" d="M311.58,196.02s-7.32-3.46-16.84,8.45c-6.55,8.19-33.8,56.18-33.8,56.18l50.64-64.63Z"/>
        <path class="cls-3" d="M426.68,174.78s-7.04-3.99-17.44,7.15c-7.15,7.66-33.28,55.5-33.28,55.5l50.72-62.65Z"/>
      </g>
      <path class="cls-2" d="M239.51,263.42c1.21-2.3,4.25-8.01,4.7-8.85.04-.07.06-.12.06-.12-37.2,7.6-84.91,19.79-100.24,29.52,0,0,0,0,0,0,30.11-8,62.18-14.95,95.48-20.56Z"/>
      <path class="cls-2" d="M422.21,220.91s0,0,0,0c-2.15,3.68-3.93,6.72-4.7,8.03-.26.45-.41.7-.41.7l-.72,1.21-.1.17c8.1-1.13,16.12-2.65,24.16-4.13,30.5-5.6,43.74-7.98,73.91-20.35,18.33-7.52,46.8-22.88,46.8-22.88,0,0,0,0,0,0-.9.02-41.53,16.52-74.66,25.39-18.42,4.93-42.88,8.79-64.27,11.85Z"/>
    </g>
  </g>
</svg>