<?xml version="1.0" encoding="UTF-8"?>
<svg id="ICON" xmlns="http://www.w3.org/2000/svg" version="1.1" viewBox="0 0 1080 1080">
  <!-- Generator: Adobe Illustrator 30.1.0, SVG Export Plug-In . SVG Version: 2.1.1 Build 136)  -->
  <defs>
    <style>
      .st0 {
        fill: #00b1ff;
      }

      .st1 {
        fill: #fff;
      }

      .st2 {
        fill: #011e41;
      }
    </style>
  </defs>
  <g id="FULL_COLOR">
    <path class="st1" d="M972.5,196.2c-10.4-20.2-19.3-37.6-22.7-53.5-1.9-9.1-9.6-15.4-18.8-15.4s-19.7,8.6-20.3,19.6c-1,18,3.8,39.9,9.4,65.2,7.2,32.7,16.1,73.4,14.4,116.9-2,51.9-22.3,89.9-60.5,112.9-30.9,18.6-66.9,24-92.5,25.1h-2.4c-2,0-3.9,0-5.9,0-3.3,0-6.6,0-9.8-.1-6.3-8.1-15.8-13.1-26.2-13.1h-2.8c-30.8,0-61.9-7.4-89.9-21.5-25.7-12.9-53.3-19.5-81.8-19.5h-1.5c-28.6,0-56.1,6.6-81.8,19.5-28,14-59.1,21.5-89.9,21.5h-2.8c-10.2,0-19.6,4.8-25.9,12.7-1.5,0-3.1,0-4.9,0-21.1,0-61.8-2.9-97.2-22-41.6-22.5-63.7-61.5-65.8-115.7-1.6-43.6,7.3-84.3,14.4-116.9,5.6-25.3,10.4-47.2,9.4-65.2-.6-11-9.5-19.6-20.3-19.6s-16.8,6.3-18.8,15.4c-3.4,15.9-12.3,33.3-22.7,53.5-28.7,55.9-68,132.5-24.3,254.6,28.5,79.6,100.5,118.9,158.4,138.1l-79.1,38.5,20.1,19.4c2.8,2.7,29,26.3,89.9,26.3s37.8-2.1,58.6-6.2l17.3,49.7,31.7,45.1c8,11.3,13.7,24.6,16.8,38.5-12.6,11.7-20,28-20.4,45.3l-.5,22.4c-.4,18.4,6.4,35.7,19.2,48.8,4.5,4.6,9.4,8.4,14.8,11.5,1,12,7.4,23,17.4,29.3l17,10.7c21.2,13.4,45.5,20.5,70.2,20.5s48.9-7.1,70.2-20.5l17-10.7c10-6.3,16.4-17.3,17.4-29.3,5.4-3.1,10.4-7,14.8-11.5,12.8-13.1,19.7-30.5,19.2-48.8l-.5-22.5c-.4-17.3-7.9-33.6-20.4-45.3,3-13.9,8.8-27.2,16.8-38.5l31.7-45.1,17.3-49.7c20.8,4.1,40.5,6.2,58.6,6.2,60.9,0,87.1-23.6,89.9-26.3l20.1-19.4-77.6-37.8c21-6.8,44.2-16.4,66.5-29.6,46.3-27.5,78-64.2,94-109.2,43.8-122.1,4.4-198.7-24.3-254.6h0ZM982,445.6c-33.9,94.5-135.5,128.3-190.3,139.8l95.2,46.4-4,3.9c-1.2,1.2-23.6,21.9-79.1,21.9s-41.7-2.4-68.8-8.8l-21.1,60.8-30.4,43.3c-10,14.3-16.9,30.8-20.1,48.4l-1,5.5c12.9,8.5,21.6,22.9,21.9,39.3l.5,22.5c.3,14.1-4.9,27.5-14.8,37.5-5.6,5.7-12.2,9.9-19.4,12.6l.2,5.9c.3,8.2-3.7,15.9-10.2,20l-17,10.7c-18.8,11.8-40.1,18.1-61.8,18.1s-43.1-6.2-61.8-18.1l-17-10.7c-6.6-4.1-10.5-11.8-10.2-20l.2-5.9c-7.2-2.6-13.8-6.9-19.4-12.6-9.9-10.1-15.1-23.4-14.8-37.5l.5-22.5c.4-16.4,9.1-30.8,21.9-39.3l-1-5.5c-3.2-17.6-10.1-34.1-20.1-48.4l-30.4-43.3-21.1-60.8c-27.1,6.4-49.9,8.8-68.8,8.8-55.5,0-77.8-20.7-79.1-21.9l-4-3.9,96.3-46.9c-55.3-12-154.4-46.2-187.8-139.2-57.1-159.3,33.7-234.2,47.5-299.6,1.1-5,7.9-3.4,8.2,1.8,2.1,37.9-26.8,103.6-23.8,181.9,6,159.4,170.1,153.8,192.6,152.3,2.6-7.2,9.1-12.4,16.8-12.4h2.8c33.5,0,66.6-7.9,96.9-23.1,22.8-11.4,48.2-17.8,74.8-17.8h1.5c26.6,0,52,6.4,74.8,17.8,30.3,15.2,63.4,23.1,96.9,23.1h2.8c7.8,0,14.5,5.4,17,12.9h.9c0,0,.1,0,.1,0,8.1.4,16.2.5,24.2.4h0c51.2-1.7,165.8-20.4,170.8-153.1,3-78.3-25.9-143.9-23.8-181.9.3-5.2,7.2-6.8,8.2-1.8,13.9,65.5,104.7,140.3,47.5,299.6h0Z"/>
    <path class="st1" d="M697.1,607.2c-2.1,21.2-9.5,49.5-32.7,59.3-16.7,7-31.1,7-42.2,4.7l33.6,37.7-58.3-24.9,47,111.6c3.8-19.5,11.8-38.2,23-54.2l28.9-41.1,12.4-55.5s16-25.3,23.8-31.3c2.1-1.6,7.6-8.4,10.9-19.7v-.5c-.2,0-.5,0-.8,0-15.9-.1-32,5.2-45.6,13.7h0Z"/>
    <path class="st1" d="M626.7,921.2l-3-.4c-12.1,7-34.3,17.2-61.8,17.2s-50-10.1-62.3-17.1l-2.5.3c-1.5.2-3,.3-4.5.3v3.5c-.2,1.5.6,2.6,1,2.9l17,10.7c15.6,9.9,33.4,15.1,51.4,15.1s35.8-5.2,51.4-15.1l17-10.7c.5-.3,1.2-1.3,1.1-2.9v-3.5c-1.6,0-3.2-.1-4.7-.3Z"/>
    <path class="st1" d="M525.7,683.8l-59,25.2,33.7-37.8c-11.1,2.4-25.7,2.5-42.7-4.6-23.5-9.9-30.7-38.8-32.8-60.1-7-3.9-14.4-7.1-22-9.3-8-2.4-19.2-4.7-28.8-3.2v.2c3.3,11.3,8.8,18,10.9,19.7,7.8,6,23.8,31.3,23.8,31.3l18.5,55.5,28.9,41.1c11.2,15.9,19,34.4,22.9,53.8l46.6-111.6h0Z"/>
    <path class="st1" d="M352.8,613.1l-92.3,20.8c12.4,7.4,46.4,21.4,111.6,7.2-11.6-4.7-17.5-21.9-19.3-28h0Z"/>
    <path class="st1" d="M751.6,641.1c65.1,14.2,99.1.2,111.5-7.2l-92.2-20.8c-1.8,6.1-7.6,23.2-19.3,28Z"/>
    <path class="st2" d="M934.5,145.9c-1.1-5-7.9-3.4-8.2,1.8-2.1,37.9,26.8,103.6,23.8,181.9-5,132.7-119.6,151.5-170.8,153.2h0c-8.1,0-16.1,0-24.2-.4h-1c-2.5-7.4-9.2-12.8-17-12.8h-2.8c-33.5,0-66.6-7.9-96.9-23.1-22.8-11.4-48.2-17.8-74.8-17.8h-1.5c-26.6,0-52,6.4-74.8,17.8-30.3,15.2-63.4,23.1-96.9,23.1h-2.8c-7.6,0-14.2,5.1-16.8,12.4-22.5,1.5-186.6,7.2-192.6-152.3-3-78.3,25.9-143.9,23.8-181.9-.3-5.2-7.2-6.8-8.2-1.8-13.9,65.5-104.7,140.3-47.5,299.6,33.4,93.1,132.5,127.2,187.8,139.2l-96.3,46.9,4,3.9c1.2,1.2,23.6,21.9,79.1,21.9s41.7-2.4,68.8-8.8l21.1,60.8,30.4,43.3c10,14.3,16.9,30.8,20.1,48.4l1,5.5c-12.9,8.5-21.6,22.9-21.9,39.3l-.5,22.5c-.3,14.1,4.9,27.5,14.8,37.5,5.6,5.7,12.2,9.9,19.4,12.6l-.2,5.9c-.3,8.2,3.7,15.9,10.2,20l17,10.7c18.8,11.8,40.1,18.1,61.8,18.1s43.1-6.2,61.8-18.1l17-10.7c6.6-4.1,10.5-11.8,10.2-20l-.2-5.9c7.2-2.6,13.8-6.9,19.4-12.6,9.9-10.1,15.1-23.4,14.8-37.5l-.5-22.5c-.4-16.4-9.1-30.8-21.9-39.3l1-5.5c3.2-17.6,10.1-34.1,20.1-48.4l30.4-43.3,21.1-60.8c27.1,6.4,49.9,8.8,68.8,8.8,55.5,0,77.8-20.7,79.1-21.9l4-3.9-95.2-46.4c54.8-11.5,156.4-45.3,190.3-139.8,57.1-159.3-33.7-234.2-47.5-299.6h0ZM278.2,543.3c-28.9-9.3-48.7-20.2-67-36-21.6-18.7-38.3-35-47.2-59.9-20.1-56-20.1-99.5-11.5-136.3-.6,10.4-.7,21.1-.3,32.1,1.2,32.9,8.6,62,21.8,86.7,11.5,21.5,27.6,39.6,47.6,53.8,35.7,25.2,75.1,33.3,104.1,37.7,7.1,1.1,17.6,3.6,23.1,3.8l.2,38.6c-34-9-43.5-11.8-70.8-20.5ZM260.5,633.9l92.3-20.8c1.8,6.1,7.7,23.3,19.3,28-65.2,14.2-99.2.2-111.6-7.2h0ZM456.2,741.5l-28.9-41.1-18.5-55.5s-16-25.3-23.8-31.3c-2.1-1.6-7.6-8.4-10.9-19.7v-.2c9.6-1.4,20.8.8,28.8,3.2,7.6,2.2,15,5.4,22,9.3,2,21.3,9.3,50.2,32.8,60.1,17,7.1,31.6,7,42.7,4.6l-33.7,37.8,59-25.2-46.6,111.6c-3.9-19.4-11.8-38-22.9-53.8h0ZM486.4,645.6c3,0,5.9-.8,8.4-2.2,9.3,5.2,17.3,6.6,19.8,6.9l-.3.2c-.2.1-.6.5-1.3.9-7.5,3-31.4,11-47.4-2-19.8-16.1-5.1-44.7-5.1-44.7,0,0,2,5.9,8.8,15.1-.7,2.1-1.1,4.3-1.1,6.6,0,10.6,8.1,19.2,18.2,19.2h0ZM630.2,927.9l-17,10.7c-15.6,9.9-33.4,15.1-51.4,15.1s-35.8-5.2-51.4-15.1l-17-10.7c-.5-.3-1.2-1.3-1.1-2.9v-3.5c1.6,0,3.2-.1,4.7-.3l2.5-.3c12.3,7,34.9,17.1,62.3,17.1s49.7-10.1,61.8-17.2l3,.4c1.5.2,3,.3,4.5.3v3.5c.2,1.5-.5,2.6-1,2.9ZM521.4,918.3l40.4-4.8,40.2,4.8c-10.8,4.3-24.6,8-40.2,8s-29.5-3.7-40.4-8ZM743.4,594.1c-3.3,11.3-8.8,18-10.9,19.7-7.8,6-23.8,31.3-23.8,31.3l-12.4,55.5-28.9,41.1c-11.2,16-19.1,34.6-23,54.2l-47-111.6,58.3,24.9-33.6-37.7c11,2.3,25.4,2.3,42.2-4.7,23.2-9.8,30.5-38,32.7-59.3,13.6-8.5,29.7-13.8,45.6-13.7.3,0,.6,0,.9,0v.5c-.1,0-.1,0-.1,0ZM653.2,619.1c6.4-8.7,8.3-14.3,8.3-14.3,0,0,14.7,28.7-5.1,44.7-16.1,13-39.9,5-47.4,2-.7-.4-1.1-.8-1.3-.9l-.3-.2c2.8-.4,12.2-2,22.8-8.7,1.7.5,3.5.8,5.3.8,10,0,18.2-8.6,18.2-19.2s-.2-2.9-.5-4.2h0ZM746.5,583.5c-19.8-5.6-43.5-4.5-64.5-.8-9.8,1-22.5,3.1-33.4,7.4-22.1,8.8-21.2,30.3-41.7,38.9-20.5,8.6-33.5,4.8-33.5,4.8l5.1,14.1,43.3,152.4-25.5,4.2c13.1,4.6,26.8,9,34.2,10.2,25.6,4.1,37.6,11.6,38,31.5l.5,22.5c.5,22.1-18.7,39.6-40.7,37l-34-4c-21.7-2.6-43.6-2.6-65.3,0l-34,4c-22,2.6-41.2-14.8-40.7-37l.5-22.5c.5-19.9,14.4-27.1,38-31.5,7.2-1.3,20.7-5.7,34-10.2l-25.4-4.2,46.3-164.7.7-1.9s-13,3.7-33.5-4.8c-20.5-8.6-19.6-30.1-41.7-38.9-8.4-3.3-17.8-5.3-26.2-6.5-5-.8-10.1-1.6-15.1-2.2-15.5-2-41.7-3.2-60.6,3.2l.4-57.5c6-5.8,16.9-12.8,35.4-15.2,18.1-2.3,52.2,13,52.2,13,0,0-27-31.2-52.1-36.6,30.2-2.4,60.2-10.7,87.5-24.4,20.8-10.4,43-15.7,66.1-15.7h1.5c23,0,45.3,5.3,66.1,15.7,28.5,14.3,59.7,22.7,91.2,24.7-24.8,6.1-51,36.3-51,36.3,0,0,34.1-15.3,52.2-13,17.4,2.2,28.1,8.5,34.3,14.1v20.2h.1l-6.9,30.2-2.1,7.1h0ZM863.1,634c-12.4,7.4-46.4,21.4-111.5,7.2,11.6-4.7,17.5-21.9,19.3-28l92.2,20.8ZM963.4,447.4c-8.9,24.9-25.6,41.2-47.2,59.9-18.3,15.8-38,26.7-67,36-27.3,8.7-36.8,11.5-70.8,20.5l.2-38.6c5.5-.1,16-2.7,23.1-3.8,29-4.4,68.4-12.5,104.1-37.7,20.1-14.2,36.1-32.3,47.6-53.8,13.2-24.7,20.6-53.8,21.8-86.7.4-11,.3-21.7-.3-32.1,8.6,36.7,8.5,80.3-11.5,136.3h0Z"/>
    <path class="st0" d="M975.3,343.2c-1.2,32.9-8.6,62-21.8,86.7-11.5,21.5-27.6,39.6-47.6,53.8-35.7,25.2-75.1,33.3-104.1,37.7-7.1,1.1-17.6,3.6-23.1,3.8l-.2,38.6c34-9,43.5-11.8,70.8-20.5,28.9-9.3,48.7-20.2,67-36,21.6-18.7,38.3-35,47.2-59.9,20.1-56,20.1-99.5,11.5-136.3.6,10.4.7,21.1.3,32.1h0Z"/>
    <path class="st0" d="M348.8,525.2c-5.5-.1-16-2.7-23.1-3.8-29-4.4-68.4-12.5-104.1-37.7-20.1-14.2-36.1-32.3-47.6-53.8-13.2-24.7-20.6-53.8-21.8-86.7-.4-11-.3-21.7.3-32.1-8.6,36.7-8.5,80.3,11.5,136.3,8.9,24.9,25.6,41.2,47.2,59.9,18.3,15.8,38,26.7,67,36,27.3,8.7,36.8,11.5,70.8,20.5l-.2-38.6Z"/>
    <path class="st1" d="M602.1,918.3l-40.2-4.8-40.4,4.8c11,4.3,24.9,8,40.4,8s29.4-3.7,40.2-8Z"/>
    <path class="st1" d="M755.5,546.2v-20.2c-6.3-5.6-17-11.9-34.4-14.1-18.1-2.3-52.2,13-52.2,13,0,0,26.2-30.2,51-36.3-31.5-2-62.7-10.4-91.2-24.7-20.8-10.4-43-15.7-66.1-15.7h-1.5c-23,0-45.3,5.3-66.1,15.7-27.4,13.7-57.3,22.1-87.5,24.4,25.1,5.5,52.1,36.6,52.1,36.6,0,0-34.1-15.3-52.2-13-18.5,2.3-29.4,9.4-35.4,15.2l-.4,57.5c18.9-6.5,45-5.2,60.6-3.2,5,.6,10.1,1.4,15.1,2.2,8.4,1.2,17.8,3.2,26.2,6.5,22.1,8.8,21.2,30.3,41.7,38.9,20.5,8.6,33.5,4.8,33.5,4.8l-.7,1.9-46.3,164.7,25.4,4.2c-13.2,4.5-26.8,8.9-34,10.2-23.6,4.4-37.6,11.6-38,31.5l-.5,22.5c-.5,22.1,18.7,39.6,40.7,37l34-4c21.7-2.6,43.6-2.6,65.3,0l34,4c22,2.6,41.2-14.8,40.7-37l-.5-22.5c-.5-19.9-12.5-27.4-38-31.5-7.4-1.2-21-5.6-34.2-10.2l25.5-4.2-43.3-152.4-5.1-14.1s13,3.7,33.5-4.8c20.5-8.6,19.6-30.1,41.7-38.9,10.9-4.3,23.6-6.4,33.4-7.4,21-3.6,44.6-4.7,64.5.8l2.1-7.1,6.9-30.2h0ZM542,613.1l-98.5-68.5,100,46.4-1.6,22.1h0ZM525.2,887.1c1.2-2.4,1.8-5.1,1.8-8s-.8-6.1-2.1-8.6c-1.3,10.2-7.6,17.6-14.5,16.8-7.2-.9-12.5-10.2-11.9-21-3.3,3.2-5.3,7.8-5.3,12.9s1,6.8,2.7,9.6l-8.3.5s-34.3-74.3,10.4-52.2c44.6,22.1,54.3,48.7,54.3,48.7l-27,1.5h0ZM633.3,836.9c44.6-22.1,10.4,52.2,10.4,52.2l-8.3-.5c1.7-2.8,2.7-6.1,2.7-9.6,0-5.1-2.1-9.6-5.3-12.9.6,10.8-4.7,20.2-11.9,21-7,.8-13.3-6.5-14.5-16.8-1.3,2.6-2.1,5.5-2.1,8.6s.7,5.6,1.8,8l-27-1.5s9.6-26.6,54.3-48.7h0ZM580.7,613.1l-1.6-22.1,100-46.4-98.5,68.5h0Z"/>
    <path class="st1" d="M460.6,604.7s-14.7,28.7,5.1,44.7c16.1,13,39.9,5,47.4,2,.7-.4,1.1-.8,1.3-.9l.3-.2c-2.5-.3-10.5-1.7-19.8-6.9-2.5,1.4-5.4,2.2-8.4,2.2-10,0-18.2-8.6-18.2-19.2s.4-4.5,1.1-6.6c-6.8-9.1-8.8-15.1-8.8-15.1h0Z"/>
    <path class="st1" d="M635.5,642.5c-1.9,0-3.6-.3-5.3-.8-10.5,6.7-20,8.3-22.8,8.7l.3.2c.2.1.6.5,1.3.9,7.5,3,31.4,11,47.4-2,19.8-16.1,5.1-44.7,5.1-44.7,0,0-1.9,5.6-8.3,14.3.3,1.4.5,2.8.5,4.2,0,10.6-8.1,19.2-18.2,19.2h0Z"/>
    <path class="st2" d="M497.9,836.9c-44.6-22.1-10.4,52.2-10.4,52.2l8.3-.5c-1.7-2.8-2.7-6.1-2.7-9.6,0-5.1,2.1-9.6,5.3-12.9-.6,10.8,4.7,20.2,11.9,21,7,.8,13.3-6.5,14.5-16.8,1.3,2.6,2.1,5.5,2.1,8.6s-.7,5.6-1.8,8l27-1.5s-9.6-26.6-54.3-48.7h0Z"/>
    <path class="st2" d="M604.2,879.1c0-3.1.8-6.1,2.1-8.6,1.3,10.2,7.6,17.6,14.5,16.8,7.2-.9,12.5-10.2,11.9-21,3.3,3.2,5.3,7.8,5.3,12.9s-1,6.8-2.7,9.6l8.3.5s34.3-74.3-10.4-52.2c-44.6,22.1-54.3,48.7-54.3,48.7l27,1.5c-1.2-2.4-1.8-5.1-1.8-8h0Z"/>
    <polygon class="st2" points="542 613.1 543.6 591 443.6 544.6 542 613.1"/>
    <polygon class="st2" points="580.7 613.1 679.2 544.6 579.1 591 580.7 613.1"/>
  </g>
</svg>