<?xml version="1.0" encoding="utf-8"?>
<!-- Generator: Adobe Illustrator 25.0.1, SVG Export Plug-In . SVG Version: 6.00 Build 0)  -->
<svg version="1.1" id="Layer_1" xmlns="http://www.w3.org/2000/svg" xmlns:xlink="http://www.w3.org/1999/xlink" x="0px" y="0px"
	 viewBox="0 0 92.961 108.484" style="enable-background:new 0 0 92.961 108.484;" xml:space="preserve">
<style type="text/css">
	.st0{fill:#FFFFFF;}
	.st1{fill:#FFCC06;}
	.st2{fill:#006FBA;}
	.st3{fill:url(#SVGID_1_);}
</style>
<g>
	<g>
		<polygon points="6.934,8.38 8.425,77.965 45.809,100.105 45.809,8.38 		"/>
		<polygon points="45.809,8.38 45.809,100.105 83.193,77.965 84.684,8.38 		"/>
	</g>
	<g>
		<path class="st0" d="M68.832,14.706H52.779l2.051,3.55V31.81l-1.009,3.429h6.413l-0.825-2.836v-2.32h9.423
			c3.516,0,6.378-2.861,6.378-6.377v-2.623C75.21,17.567,72.348,14.706,68.832,14.706z M59.082,19.925h8.439
			c1.362,0,2.47,1.108,2.47,2.47c0,1.362-1.108,2.47-2.47,2.47h-7.473v-2.71L59.082,19.925z"/>
		<polygon class="st0" points="60.048,71.931 60.048,58.221 52.856,58.221 54.83,62.302 54.83,77.149 71.117,77.149 72.676,70.858 
			69.029,71.931 		"/>
		<polygon class="st0" points="60.048,51.185 60.048,37.474 52.856,37.474 54.83,41.555 54.83,56.403 72.223,56.403 73.783,50.112 
			70.135,51.185 		"/>
	</g>
	<g>
		<g>
			<g>
				<path class="st0" d="M42.906,13.063l-0.561,0.006v0.017c-2.27,0.072-4.344,0.28-6.257,0.631
					c-2.152,0.394-4.095,0.974-5.873,1.752c-3.036,1.328-5.589,3.242-7.859,5.822c-0.094,0.107-0.191,0.207-0.284,0.316
					c-0.968,1.135-1.787,2.214-2.487,3.246c-2.223,3.282-3.168,6.064-3.33,8.465c-0.153,2.266,0.385,4.195,1.205,5.882
					c0.754,1.551,1.742,2.901,2.638,4.124c0.338,0.46,0.672,0.916,0.986,1.372c2.926,4.259,5.243,8.075,6.674,10.922
					c1.02,2.031,1.593,3.572,1.598,4.413l0.01,1.705l0.059,10.442l0.002,0.266c0.002,0.425,0.047,0.82,0.093,1.214l0.052,0.476
					c0.129,1.366,0.405,2.633,0.818,3.787c0.151,0.422,0.317,0.83,0.505,1.22c0.736,1.527,1.62,2.744,2.702,3.722
					c2.38,2.15,5.26,3.023,7.373,3.375l0.75,7.978l1.856,1.099V82.18l-0.045-0.001c-1.001-0.016-4.456-0.242-6.901-2.465
					c-0.388-0.354-0.714-0.776-0.981-1.143c-0.875-1.201-1.424-2.743-1.631-4.583L33.99,73.78c-0.053-0.457-0.103-0.889-0.106-1.359
					l-0.07-12.413c-0.017-3.053-3.049-9.002-9.012-17.68c-0.337-0.491-0.696-0.982-1.061-1.48
					c-3.053-4.164-5.689-7.761,1.777-16.514c4.128-4.838,9.317-6.859,18-6.975h0.055v-4.293L42.906,13.063z"/>
				<path class="st0" d="M36.907,36.041c-2.024,1.779-3.61,3.881-4.924,6.108l1.299,2.233c1.521-2.322,3.36-4.44,5.503-6.011
					c1.481-1.094,3.121-1.87,4.788-2.209v-3.627c-0.907,0.201-1.788,0.486-2.613,0.861C39.446,34.078,38.098,35,36.907,36.041z"/>
				<path class="st0" d="M33.66,27.795c-2.501,1.986-4.374,4.466-5.925,7.053l1.334,2.294c1.799-2.698,3.88-5.171,6.416-6.871
					c2.414-1.653,5.21-2.465,8.087-2.546v-3.815c-1.582,0.149-3.161,0.461-4.674,0.992C36.991,25.563,35.209,26.564,33.66,27.795z"
					/>
			</g>
			<radialGradient id="SVGID_1_" cx="152.2335" cy="746.5952" r="1077.9364" gradientUnits="userSpaceOnUse">
				<stop  offset="0" style="stop-color:#FFE766"/>
				<stop  offset="1" style="stop-color:#FFCB06"/>
			</radialGradient>
			<path class="st3" d="M5.463,6.645l1.548,72.217l38.798,22.977l38.798-22.977l1.548-72.217H5.463z M11.43,76.28l-0.204-9.542
				l19.162,11.182c-0.413-1.154-0.689-2.421-0.818-3.787l-0.052-0.476c-0.046-0.395-0.091-0.79-0.093-1.214l-0.002-0.266
				L11.113,61.493l-0.226-10.54l18.476,10.783l-0.01-1.705c-0.005-0.841-0.577-2.382-1.598-4.413l-16.981-9.91l-0.226-10.54
				l6.91,4.033c-0.82-1.687-1.358-3.616-1.205-5.882l-5.818-3.395l-0.226-10.54l9.374,5.47c0.699-1.032,1.519-2.111,2.487-3.246
				c0.093-0.109,0.19-0.209,0.284-0.316l-12.257-7.153l-0.065-3.02h12.726l7.455,4.351c1.778-0.778,3.721-1.358,5.873-1.752
				l-4.452-2.598h11.937v1.947v4.293v6.55v3.815v4.812v3.627V82.18v13.137l-1.856-1.099L11.43,76.28z M80.188,76.28L48.045,95.316
				V11.118h33.539L80.188,76.28z"/>
		</g>
	</g>
</g>
</svg>
