<?xml version="1.0" encoding="UTF-8"?>
<svg id="ICON" xmlns="http://www.w3.org/2000/svg" viewBox="0 0 1080 1080">
  <defs>
    <style>
      .cls-1 {
        fill: #024;
      }

      .cls-2 {
        fill: #ff5216;
      }

      .cls-3 {
        fill: #fff;
      }

      .cls-4 {
        fill: #ccc;
      }
    </style>
  </defs>
  <g id="FULL_COLOR" data-name="FULL COLOR">
    <g>
      <polygon class="cls-2" points="561.23 301.01 882.06 853.01 622.44 687.05 561.29 747.98 500.11 687.09 240.97 853.36 561.23 301.01"/>
      <polygon class="cls-1" points="561.25 337.08 828.85 797.5 619.95 663.97 561.29 722.42 502.58 663.99 381.09 741.94 294.17 797.71 344.66 710.63 561.25 337.08"/>
      <polygon class="cls-4" points="561.28 384.92 363.84 725.42 506.05 634.18 561.28 689.14 616.44 634.18 759.18 725.42 561.28 384.92"/>
      <polygon class="cls-3" points="561.28 689.14 616.44 634.18 759.18 725.42 561.26 384.96 561.28 689.14"/>
      <polygon class="cls-1" points="561.27 546.24 610.34 572.84 561.27 489.47 561.27 489.47 561.27 489.47 561.27 489.47 561.27 489.47 512.37 572.84 561.27 546.24"/>
    </g>
  </g>
</svg>