<?xml version="1.0" encoding="UTF-8"?>
<svg id="Layer_2" xmlns="http://www.w3.org/2000/svg" viewBox="0 0 707.92 929.24">
  <defs>
    <style>
      .cls-1 {
        fill: #010101;
      }

      .cls-2 {
        fill: #fff;
      }

      .cls-3 {
        fill: #ffcb06;
      }
    </style>
  </defs>
  <g id="Layer_1-2" data-name="Layer_1">
    <g id="ICON_x5F_3C">
      <g>
        <path class="cls-1" d="M353.44,856.32c-16.04-28.75-38.09-53.21-63.77-70.71-31.87-21.72-54.83-53.09-70.2-95.87l-20.26-56.42c-38.52-25.36-50.38-37.47-73.82-77.17-23.43-39.7-44.81-100.42-44.81-100.42l32.2,10.35c-20.36-18.49-47.67-53.71-63.93-87.36-19-39.31-25.55-84.51-25.55-84.51l30.79,11.14c-24.86-29.38-44.51-74.96-50.92-115.22-10.26-64.44,7.54-122.22,7.54-122.22,0,0,12.15,32.54,45.79,63.01,16.1,14.59,34.05,27.4,48.53,36.4l-.17-.29c29-57.15,77.52-106.95,134.37-137.12C275.09,10.9,331.17,0,393.13,0s119.33,10.85,155.58,29.77c35.64,18.28,72.99,49.51,102.18,85.55,26.02,32.12,57.04,82.53,57.04,140.32-.39,54.11-33.03,99.48-61.83,139.49-6.8,9.44-13.22,18.36-18.84,26.88l-6.28,9.04c-21.98,31.5-42.74,61.26-41.59,80.53l.08,1.27v115.66c0,18.59-2.99,66.55-30.63,110.26-12.12,19.48-29.01,36.79-48.66,49.79-28.61,18.92-52.39,44.45-68.76,73.8l-37.31,66.88-40.67-72.93Z"/>
        <path class="cls-2" d="M290.21,272.93c0-58.1,47.1-105.2,105.2-105.2s105.2,47.1,105.2,105.2-47.1,105.2-105.2,105.2-105.2-47.1-105.2-105.2"/>
        <path class="cls-3" d="M530.76,64.53h0c-62.39-32.55-205.77-33.88-269.66,0-46.43,24.65-92.83,69.4-119.05,121.07,13.05,8.02,29.15,16.67,49,25.8,5.88-12.16,14.03-24.8,24.29-37.47,51.75-60.51,90.84-77.25,180.47-79.52,92.01,2.38,127.9,17.52,180.71,79.52,22.68,28,35.17,55.91,35.17,78.6.47,24.26-30.95,63.97-50.42,92.3-18.69,27.02-39.81,55.26-54.8,82.48-29.05-36.65-66.81-62.2-114.55-82.5-12.35-5.12-31.78-11.07-56.38-18.61-81.88-25.06-233.12-71.37-288.09-144.1,2.8,24.11,23.53,102.5,88.49,130.18l-.03.02c63.22,30.02,132.45,51.22,183.43,66.82,22.26,6.81,41.49,12.7,51.38,16.8,51.04,21.17,110.49,64.07,112.51,116.04v5.07c-27.91-18.37-64.66-31.15-97.72-44.86-83.48-29.9-191.88-53.81-283.01-110.01,17.6,51.91,58.21,92.94,109.78,111.52,51.86,19.26,109.01,33.88,152.04,49.61,54.23,22.05,118.14,42.72,118.92,83.64-.29,15.98,1.15,22.96-2.48,42.54-28.02-24.57-62.85-45.73-96.74-59.79-64.4-22.75-142.72-37.77-219.3-69,13.44,29.63,40,70.72,88.1,87.96,33.32,10.08,86.13,22.87,110,32.16,33.15,13.85,65.73,34.75,90.62,58.83-13.14,11.81-31.64,12.87-57.65,55.35-43.78-70.22-86.25-72.38-134.27-82.79,10.78,30.03,26.73,56.39,54.05,75.02,32.04,21.84,58.12,51.34,77.01,85.21l3.37,6.03c19.95-35.76,48.35-66.02,82.5-88.61,14.92-9.87,27.2-22.66,36.12-37,21.67-34.26,24.01-72.55,24.01-87.42v-114.39c-2.17-36.37,24.61-72.11,54.86-115.64,28.83-43.69,73.25-91.86,73.61-142.85,0-45.28-25.83-86.68-47.51-113.44-25.21-31.12-58.39-58.99-88.75-74.57"/>
      </g>
    </g>
  </g>
</svg>