<?xml version="1.0" encoding="UTF-8"?>
<svg id="Layer_2" xmlns="http://www.w3.org/2000/svg" viewBox="0 0 600.09 449.44">
  <defs>
    <style>
      .cls-1 {
        fill: none;
      }

      .cls-2 {
        fill: #00b3ff;
      }

      .cls-3 {
        fill: #fff;
      }

      .cls-4 {
        fill: #001f44;
      }
    </style>
  </defs>
  <g id="PAGE3">
    <g>
      <path class="cls-2" d="M568.46,372.12c-11.22-10.42-21.97-16.28-32.02-17.46-3.48-5.83-9.66-11.68-20.62-14.48-7.59-2.35-15.59-8.14-21.84-15.56,4.87-6.26,6.73-15.83,5.08-27.55-.57-4.07-2.2-8.28-3.76-12.36-1.1-2.85-2.87-7.46-3.01-9.57,1.41-2.04,2.71-3.54,3.98-5,5.48-6.31,7.95-11.23,6.58-20.94,2.49-2.23,4.77-5.46,6.46-10.12,14.08-.89,29.2-7.56,40.14-17.85l10.66-10.03-13.39-5.7c-9.13-3.88-18.91-11.08-27.03-19.68,19.07-4.88,37.5-12.24,49.55-20.03l30.85-19.94-12.18-4.92c4.04-5.96,6.44-12.52,7.07-19.44l1.33-14.58-5.3-1.96c0-.69-.02-1.38-.06-2.08-.82-14.04-8.91-27.52-21.65-36.05-7.62-5.11-24.97-8.6-28.37-9.25l-31.64-6.03,23.61,22.32c2.7,2.56,7.57,8.09,9.1,12.05.9,2.32,1.26,5.48,1.22,6.92-.39.49-1.47,1.51-3.67,2.68l-33.01,17.6,1.35.66-17.1,2.33c-8.23-4.2-15.3-5.96-23-5.96-6.27,0-12.37,1.18-19.77,2.77-8.32-7.09-21.76-10.55-40.82-10.55-9.4,0-18.48.79-25.77,1.42-.9.08-1.76.15-2.59.22l-6.26-30.3c-3.02-14.62,11.07-32.63,24.06-43.61,3.77-3.19,13.92-9.72,17.51-11.96l23.3-14.57-27.18-2.95c-.23-.03-5.75-.62-12.23-.62-4.28,0-8.07.26-11.25.77-17.6,2.82-30.3,7.8-39.97,15.67-3.48,2.84-6.67,5.85-9.55,9.03l-3.41-4.28-14.51,17.35c-10.4,12.43-16.92,26.98-19,42l-9.6-3.69.82,28.3c.02.85.08,1.71.16,2.58-13.44,1.99-26.03,5.83-36.26,11.13-12.98,6.73-22.05,15.68-26.66,26.21-1.87-.11-3.73-.17-5.56-.17-20.91,0-39.11,7.35-52.65,21.25-11.14,11.45-18.18,26.66-19.94,42.71-15.62,2.95-33.08,11.65-45.77,23.97l-.25-.49c-9.06-18.11-12.51-34.18-10.41-48.7l9.66,9.37,2.72-17.92c5.26-34.59,23.43-55.54,55.08-81.12,5.24-4.24,23.01-15.76,23.01-15.76,0,0-13.85-.47-25.56,2.47-39.17,9.86-60.28,31.23-73.97,52.88l-4.29-4.79-6.89,7.29c-4.49,4.75-14.03,24.23-18.08,41.51-1.55,5.66-2.55,11.17-3.2,15.96l-9.8-6.14-.64,16.18c-.46,11.8,2.37,31.31,11.69,50.68,4.41,9.59,10.64,19.49,17.78,28.35-10.64,7.39-20.16,19.4-26.72,34.12-8.13,18.23-10.26,36.96-6.17,52.59-14.51,12.06-24.26,30.45-32.64,48.79l-6.21,13.6,14.73-.12c11.75-.09,23.48-.17,35.21-.24,9.26-.06,18.51-.12,27.77-.18l4.78-.04,17.71-16.47.21-9.38c11.33-1.01,30.61-6.52,54.82-28.14,1.2.07,2.39.1,3.58.1,6.64,0,12.65-1.04,17.91-2.5-1.86,11.02,1.13,22.46,8.49,30.94,3.7,4.26,6.45,10.91,7.01,16.94l.79,8.56,8.44.04c7.28.03,18.21.05,32.5.05,12.3,0,22.46-.01,22.46-.01h9.69s-.47-11.58-.47-11.58c-.52-12.81-6.21-24.8-15.44-33.32,4.47-3.04,8.94-6.08,13.5-9.2.06-.01.12-.03.18-.05,1.46-.36,2.62-.65,3.92-.65,2.85,0,6.71,1.44,11.52,4.29l7.76,15.13c-.41,1.63-.86,3.31-1.32,5.04-3.61,13.54-8.11,30.4,1.96,44.57l2.81,3.95,4.79-.03c7.21-.05,13.92-.11,20.32-.17,13.54-.12,25.23-.22,37.31-.22l50.56-.36s-.11-8.7-.07-11.96c.17-16.33-2.65-28.28-7.89-41.05-5.56-13.56-14.2-22.8-25.25-27.13-.15-3.22-.56-7.14-1.52-11.32,8.33,8.89,16.16,10.38,23.5,10.38.51,0,1.03,0,1.54-.01.44,0,.88-.01,1.32-.01,3.25,0,4.74,0,7.61,3.69,11.01,14.42,27.49,17.5,40.73,19.97,16.6,3.1,22.27,4.96,23.71,14.61.05,3.83-.21,5.15-.49,6.56-.53,2.68-.91,5.16-.43,10.53l.54,6.11,5.69,2.01c18.9,6.66,40.13,9.89,64.92,9.89,16.8,0,33.44-1.51,46.06-2.83l7.12-.74,1.12-7.2c3.62-23.21-12.32-47.92-23.21-58.04Z"/>
      <path class="cls-2" d="M585.72,120.64l.66-7.29-5.42-2.01c.62-2.51.86-5.16.7-7.89-.61-10.49-6.64-21.44-17.47-28.69-6.45-4.32-24.97-7.85-24.97-7.85,0,0,8.53,8.01,11.44,15.54,1.74,4.49,2.26,10.61,1.56,13.05-.88,3.07-3.77,5.99-8.36,8.44l-16.51,8.8,10.33,5.02c-7.94,2.63-17.42,3.92-22.14,4.56l-20.73,2.82,8.5,7.37c-1.25-.23-2.56-.48-3.95-.75-.45-.09-.9-.18-1.36-.27-22.84-15.56-31.1-12.9-53.06-8.21-12.1-16.38-52.35-10.68-69.22-9.5-9.58-6.05-18.19-15.15-21.46-25.27l13.5,7.91-4.28-20.74c-4.46-21.59,15.9-43.29,27.22-52.86,5.11-4.32,18.59-12.75,18.59-12.75,0,0-12.22-1.32-21.06.09-13.1,2.1-25.85,5.77-35.6,13.71-6.21,5.06-11.35,10.73-15.26,16.79l-3.69-4.62-7.26,8.68c-12.14,14.51-18.22,32.28-17.43,49.31l-8.54-3.28.41,14.15c.1,3.52.86,7.29,2.17,11.15-30.32,2.17-62.71,14.86-67.76,39.23-48.58-6.87-76.03,28.1-75.76,62.05-20.52,1.04-51.66,17.52-60.77,40.3-7.68-7.21-13.07-13.83-17.84-27.66,5.18,2.26,10.32,4.49,15.42,6.69-10.49-20.96-17.22-46.07-6.77-70.66,2.6,2.56,5.21,5.11,7.84,7.65,4.88-32.09,20.63-61.83,62.37-86.71-36.23,15.98-62.25,38.24-72.62,62.89-2.16-2.39-4.32-4.79-6.46-7.18-2.93,3.1-11.93,20.77-15.77,37.31-4.57,16.5-3.98,31.88-4.53,29.5-2.93-1.82-5.87-3.65-8.82-5.5-.46,11.64,2.81,29.67,10.78,46.2,6.3,13.75,15.81,26.46,24.4,35.27-27.09,9-49.73,56.76-36.88,87.45-16.76,10.89-27.25,31.8-35.22,49.24,21.02-.17,41.99-.27,62.99-.42l8.59-12.38,9.23-13.31c19.35.39,41.13-14.24,56.55-28.64,24.6,2.97,40.47-11.11,44.86-11.1,0,0-8.94,13.26-8.93,13.26-4.39,9.96-2.78,21.8,4.24,29.88,5.27,6.07,8.61,14.79,9.31,22.33,18.31.08,54.9.04,54.9.04l-.07-1.7c-.56-13.8-8.4-25.86-20.04-32.15-1.03-.56-1.83-1.2-2.29-1.94,8.68-5.91,17.12-11.64,25.94-17.67,5.2-1.08,10.96-4.2,26.43,5.72l10.58,20.63c-3.33,15.07-10.9,32.33-1.69,45.28,37.62-.27,61.81-.73,97.16.04,2.1-27.06-6.16-59.92-31.56-64.27,0,0,2.23-18.69-8.3-31.65,7.96-2.16,8.06-.69,15.93-2.91,18.25,30.08,28.15,7.01,41.59,24.29,19.46,25.5,62.14,7.13,66.38,39.66.21,10.77-1.72,8.28-.95,16.99,34.96,12.32,72.84,10.16,106.98,6.6,2.86-18.31-10.23-40.19-20.29-49.54-10.06-9.35-21.22-16.16-31.69-15.1-2.56-7.86-8.6-12.57-17.13-14.7-13.56-4.1-25.59-15.62-32.38-26.76,10.03-2.99,10-16.08,8.86-24.15-1.14-8.07-9.3-20.56-6.16-27.25,7.66-11.94,13.04-9.81,8.63-26.93,6.57-1.27,8.88-8.87,9.83-14.73,14.73,1.51,30.89-5.75,40.98-15.24-13.83-5.89-27.78-17.59-37.47-30.53-.92-1.31-1.75-2.63-2.51-3.97,22.61-4.09,46.93-12.81,61.1-21.96l15.43-9.97-7.87-3.18c8.27-6.76,13.08-14.96,13.91-24.02Z"/>
      <g>
        <path class="cls-4" d="M66.37,273.62s0-.02,0-.03c-.02.03-.02.04,0,.03Z"/>
        <g>
          <path class="cls-1" d="M96.46,283.92c1.46-.92.95-.69-.34,0,.11,0,.23,0,.34,0Z"/>
          <path class="cls-4" d="M296.94,394.64c-3.33,15.07-10.9,32.33-1.69,45.28,37.62-.27,61.81-.73,97.16.04,2.1-27.06-6.16-59.92-31.56-64.27,0,0,2.23-18.69-8.3-31.65,7.96-2.16,8.06-.69,15.93-2.91,18.25,30.08,28.15,7.01,41.59,24.29,19.46,25.5,62.14,7.13,66.38,39.66.21,10.77-1.72,8.28-.95,16.99,34.96,12.32,72.84,10.16,106.98,6.6,2.86-18.31-10.23-40.19-20.29-49.54-10.06-9.35-21.22-16.16-31.69-15.1-2.56-7.86-8.6-12.57-17.13-14.7-13.56-4.1-25.59-15.62-32.38-26.76,10.03-2.99,10-16.08,8.86-24.15-1.14-8.07-9.3-20.56-6.16-27.25,7.66-11.94,13.04-9.81,8.63-26.93,6.57-1.27,8.88-8.87,9.83-14.73,14.73,1.51,30.89-5.75,40.98-15.24-13.83-5.89-27.78-17.59-37.47-30.53-10.84-15.46-10.03-33.06-15-50.49-2-.78,15.76,4,13.81,2.82-27.96-20.64-35.62-17.92-59.54-12.81-13.42-18.17-61.51-9.17-73.85-9.31-21.84-1.29,3.61,12.83-21.13,9.82-26.78-16.82-106.5-7.96-114.68,31.47-48.58-6.87-76.03,28.1-75.76,62.05-21.87,1.11-55.8,19.75-62.27,44.86l-7.46,22.4c-28.4,6.26-53.26,56.46-39.93,88.3-16.76,10.89-27.25,31.8-35.22,49.24,21.02-.17,41.99-.27,62.99-.42l14.26-13.73,1.9-12.08c19.35.39,42.78-14.12,58.21-28.52,24.6,2.97,40.47-11.11,44.86-11.1,0,0-8.94,13.26-8.93,13.26-4.39,9.96-2.78,21.8,4.24,29.88,5.27,6.07,8.61,14.79,9.31,22.33,18.31.08,54.9.04,54.9.04l-.07-1.7c-.56-13.8-8.4-25.86-20.04-32.15-1.03-.56-1.83-1.2-2.29-1.94,8.68-5.91,17.12-11.64,25.94-17.67,5.2-1.08,10.96-4.2,26.43,5.72M96.46,283.92c-.11,0-.23,0-.34,0,1.29-.69,1.81-.92.34,0Z"/>
        </g>
      </g>
      <path class="cls-4" d="M92.03,290.45c5.08-9.52,1.61-8.65,4.67-14.79,2.11-3.79,7.68-5.34,14.49-6.55-15.3-14.04-23.71-18.77-30.88-39.16,5.19,2.26,10.35,4.49,15.47,6.69-10.62-20.96-17.41-46.07-6.89-70.66,2.6,2.56,5.21,5.11,7.83,7.65,4.93-32.09,20.91-61.83,63.06-86.71-36.51,15.98-62.77,38.24-73.25,62.89-2.16-2.39-4.3-4.79-6.43-7.18-2.95,3.1-12.04,20.77-15.89,37.31-4.59,16.5-3.94,31.88-4.51,29.5-2.94-1.82-5.88-3.65-8.83-5.5-.44,11.64,2.9,29.67,11.01,46.2,7.76,16.65,20.3,31.8,30.15,40.3Z"/>
      <path class="cls-2" d="M336.03,197.38l-12.26-9.33s11.26,3.53,18.5-2.04c7.24-5.57,7.57-4.85,12.29-4.85s12.04,3.88,12.04,3.88c0,0,.15-13.84-19.49-10.68-19.64,3.16-20.08,5.42-29.09,5.27-9.01-.15-20.37-5.12-20.37-5.12,0,0,3.94,13.3,16.38,20.31,15.21,8.58,22,2.56,22,2.56Z"/>
      <path class="cls-2" d="M381.31,194.37s16.74-10.36,30.38,1.98c13.64,12.34,8.85,22.62,19.36,31.33,5.23,4.33,20.38,4.04,20.38,4.04,0,0-8.8,11.68-24.71,5.25-12.5-5.05-9.6-27.52-22.72-35.54-13.36-8.16-22.69-7.06-22.69-7.06Z"/>
      <path class="cls-2" d="M380.78,234.68s-2.96-6.22-2.38-12.63c.57-6.41,2.38-11.86,2.38-11.86,0,0-.95,14.29,9.83,25.08,10.78,10.79,19.08,12.63,19.08,12.63,0,0-14.5,4.18-26.04-2.82-11.54-7-12.69-16.13-12.69-16.13l9.83,5.73Z"/>
      <path class="cls-2" d="M463.54,232.7s10.43,2.56,19.64-10.45c6.38-9.02,1.93-23.1,1.93-23.1l-6.21,3.22s3.97,6.97-3.91,17.79c-4.39,6.03-17.84,11.86-17.84,11.86l6.39.68Z"/>
      <path class="cls-2" d="M457.15,280.04l1.2,4.57s4.17-1.38,8.55,0c4.38,1.38,7.19,3.67,7.19,3.67,0,0,.63-5.58-5.84-7.49-6.46-1.91-11.1-.74-11.1-.74Z"/>
      <path class="cls-2" d="M405.27,316.72s-8.73-27.72,5.76-37.17c14.49-9.45,31.48,2.56,31.48,2.56,0,0-9.7-28.97-38.99-7.54-22.21,16.25,1.75,42.15,1.75,42.15Z"/>
      <path class="cls-2" d="M421.3,319.81s5.52,7.43,20.19,8.49c14.67,1.05,20.59-1.36,20.59-1.36,0,0-3.89,9.32-18.22,9.84-13.5.48-22.74-10.11-22.56-16.96Z"/>
      <path class="cls-2" d="M357.86,148.68c-1.13-8.53-9.71-13.45-17.42-15.33-8.37-2.1-17.13-1.97-25.68-1.17-9.36.89-18.64,2.88-27.7,5.37-1.99.54-4.24,1.17-6.08,1.85-10.26,3.75-18.24,11.71-23.8,20.99-2.44,4.07-4.51,8.43-6,12.94-.37,1.02-1.63,5.85-1.97,7.01-1.44-.54-6.05-2.5-7.54-2.92-6.02-1.89-12.55-2.56-18.79-1.82-8.95,1-17.25,5.25-23.68,11.52-29.76,28.19-2.28,92.98,16.42,121.86,0,0-7.07-1.38-7.07-1.38,4.1-2.74,21.5-14.47,25.14-16.91.78,2.05,2.49,7.1,3.33,9.11,3.05,7.65,6.68,15.13,10.88,22.19,4.75,7.89,10.33,15.54,17.36,21.42,3.89,3.23,8.13,5.78,12.84,7.14,1.74.56,3.6.69,5.34,1.2,5.53,1.62,9.76,5.34,13.32,9.5,4.93,5.89,8.59,12.59,11.5,19.66,0,0-3.7-1.3-3.7-1.3.28-.14.49-.23.72-.33,6.74-2.9,14.02-4.57,21.3-5.23,7.39-.69,14.94-.21,22.15,1.5-3.67-.26-7.34-.26-10.96-.04-7.19.5-14.34,1.97-21.1,4.4-3.12,1.13-6.17,2.41-9.06,4.01-.18.1-.38.22-.5.29,0,0-2.38,1.5-2.38,1.5s-1.31-2.8-1.31-2.8c-3.8-7.79-9.3-16.65-16.41-21.72-1.74-1.2-3.57-2.11-5.38-2.53-1.79-.36-3.61-.47-5.37-.95-23.16-5.77-39.35-33.75-48.16-54.27-.43-1.06-1.05-2.53-1.44-3.58,0,0,7.34,2.38,7.34,2.38,0,0-19.71,13.71-19.71,13.71,0,0-4.19,2.92-4.19,2.92-10.43-15.02-18.83-31.25-25.13-48.39-11.3-30.54-18.28-73.34,12.12-95.24,14.23-10.83,34.07-12.62,50.45-5.9,0,0,.49.22.49.22l-6.64,3.15s.1-.37.1-.37c0,0,.09-.31.09-.31,3.8-11.82,10.57-22.82,20.48-30.53,6.21-4.85,13.78-8.07,21.52-9.31,2.82-.52,5.95-1.04,8.77-1.5,16.06-2.32,32.94-4.4,48.87-.17,8.54,2.29,17.68,8.01,19.28,17.4.03.27.06.41.07.69,0,0-2.7.09-2.7.09h0Z"/>
      <path class="cls-3" d="M394.9,205.82l16.79,27.9s-17.3-.05-21.69-11.42c-4.39-11.37,4.9-16.47,4.9-16.47Z"/>
      <path class="cls-3" d="M423.65,291.57s6.28,14.14,25.35,15.34c19.9,1.25,18.55-15.34,18.55-15.34,0,0,15.3,23.81-14.46,25.15-38.06,1.71-29.45-25.15-29.45-25.15Z"/>
      <path class="cls-4" d="M491.17,174.96c-2.33-4.85-4.03-9.65-5.52-15.57-1.38-5.58-2.36-11.23-3.42-18l-2.04-13.08,12.81,2.24c2.29.4,4.39.81,6.37,1.19,1.39.27,2.7.53,3.95.75l-8.5-7.37,20.73-2.82c4.72-.64,14.2-1.93,22.14-4.56l-10.33-5.02,16.51-8.8c4.59-2.45,7.48-5.36,8.36-8.44.7-2.44.17-8.55-1.56-13.05-2.91-7.52-11.44-15.54-11.44-15.54,0,0,18.52,3.54,24.97,7.85,10.83,7.25,16.86,18.2,17.47,28.69.16,2.73-.08,5.38-.7,7.89l5.42,2.01-.66,7.29c-.83,9.06-5.64,17.26-13.91,24.02l7.87,3.18-15.43,9.97c-14.61,9.44-40.01,18.41-63.2,22.33l-6.84,1.16-3.05-6.34Z"/>
      <path class="cls-4" d="M499.53,170.79c-2.33-4.85-3.71-9.18-4.86-13.75-1.22-4.93-2.16-10.17-3.24-17.14,14.04,2.46,20.93,5.28,36.13.35-3.82-2.77-7.41-5.63-10.77-8.54,15.95-2.17,33.22-5.64,40.15-15.3-3.01-1.34-5.92-2.7-8.74-4.07,13.82-7.37,16.77-18.85,10.55-29.89,14.34,10.58,17.55,25.8,8.9,33.93,2.87,1.14,5.8,2.27,8.82,3.39-1.02,11.2-10.87,20.23-25.91,26.31,2.83,1.27,5.74,2.51,8.73,3.72-13.24,8.56-37.39,17.21-59.74,20.99Z"/>
      <path class="cls-3" d="M504.02,171.19c-2.19-4.87-1.45-8.12-.21-13.64,1.54-7.07.14-8.34-1.21-15.21,10.57.54,11.92-.6,24.4-1.79-3.63-2.8-7.02-5.68-10.19-8.63,16.02-2.24,33.44-5.8,40.9-15.52-2.92-1.35-5.75-2.72-8.49-4.1,14.2-7.41,17.79-18.88,12.22-29.85,6.35,5.34,11.04,11.72,12.11,17.86,1.24,6.13-1.13,12.02-5.17,16.06,2.79,1.15,5.65,2.28,8.59,3.4-1.69,11.23-12.1,20.35-27.49,26.58,2.73,1.27,5.53,2.5,8.43,3.71-14,8.75-31.63,17.18-53.89,21.13Z"/>
      <path class="cls-4" d="M382.47,174.89c-14.35-2.7-36.85-10.57-53.13-23.86-16.35-12.54-28.05-31.5-28.47-46.16l-.41-14.15,8.54,3.28c-.79-17.02,5.29-34.8,17.43-49.31l7.26-8.68,3.69,4.62c3.91-6.07,9.05-11.74,15.26-16.79,9.75-7.94,22.5-11.61,35.6-13.71,8.84-1.42,21.05-.09,21.05-.09,0,0-13.47,8.42-18.59,12.75-11.32,9.57-31.68,31.27-27.22,52.86l4.28,20.74-13.5-7.91c3.45,10.67,12.81,20.2,23.01,26.22l23.09,13.65,1.78-.17-.28,1.07,6.47,3.82-7.42-.14-2.18,8.41c-.38,1.48-.81,3.04-1.24,4.66-1.83,6.77-3.91,14.45-4.02,19.76l-.24,11.15-10.76-2.03Z"/>
      <path class="cls-2" d="M384.17,165.57c.17-7.89,3.47-18.52,5.57-26.63-17.92,1.75-35.05-7.59-39.21-17.08,7.26.57,14.62.93,22.07,1.07-19.65-11.62-33.02-31.78-27.96-51.58,3.08,2.18,6.33,4.28,9.73,6.27-5.08-24.61,6.8-49.54,35.19-62.3-22.52,6.39-43.79,22-49.97,42.4-2.18-2.23-4.21-4.52-6.07-6.86-13.76,16.45-19.21,38.58-12.26,57.67-3.77-1.22-7.47-2.53-11.09-3.92.31,10.55,9.48,27.18,24.88,38.95,14.91,12.22,36.05,19.57,49.11,22.03Z"/>
      <path class="cls-3" d="M384.93,165.56c.03-7.89,3.19-18.52,5.21-26.63-18.01,1.75-35.32-7.59-39.55-17.08,7.29.57,14.69.93,22.17,1.07-19.82-11.62-33.29-31.78-28.16-51.58,3.09,2.18,6.34,4.28,9.75,6.27-5.06-24.61,7.09-49.54,35.96-62.3-22.84,6.4-44.41,22-50.72,42.39-2.18-2.23-4.2-4.52-6.06-6.86-13.93,16.45-19.44,38.58-12.39,57.67-3.79-1.22-7.51-2.53-11.14-3.92.33,10.55,9.61,27.18,25.2,38.95,15.1,12.22,36.5,19.57,49.72,22.03Z"/>
      <path class="cls-4" d="M395.94,214.13c.97-3.28,4.26-3.88,7.36-1.34,3.1,2.54,4.82,7.26,3.84,10.55-.98,3.28-4.28,3.88-7.37,1.33-3.09-2.55-4.8-7.26-3.83-10.54Z"/>
      <path class="cls-3" d="M476.63,236.32l1.44-.77c5.12-2.74,9.38-6.87,12.33-11.93h0s0,0,0,0c.41,6.7-4.7,12.42-11.28,12.63l-2.5.08Z"/>
      <path class="cls-2" d="M500.44,194.68s6.76,5.55,15.22,11.04,13.15,7.98,13.15,7.98h0c-4.19,3.68-9.22,6.22-14.63,7.37l-1.56.33,8.79-7.51-4.76-3.08c-6.45-4.17-11.97-9.67-16.21-16.14h0Z"/>
      <path class="cls-3" d="M491.75,419.2s25.05,3.78,44.81,3.78,36.47-2.52,36.47-2.52c0,0,1.84-13.27-13.53-30.2-2.24-2.46-.35-.76-2.53-2.66-8.6-7.55-12.92-11.6-27.44-11.65-4.74-.02-13.87,2.57-13.87,2.57,0,0,33.82.19,43.18,27.38,4.16,12.11-67.09,13.3-67.09,13.3Z"/>
      <path class="cls-3" d="M378.43,399.46c-3.24-6.91-12.05-14.26-26.57-14.26-12.78,0-25.64,3.92-25.64,3.92,0,0,30.52-2.91,30.55,25.9,0,3.46-54.47,16.22-54.47,16.22l81.28-.17s3.09-14.03-5.15-31.6Z"/>
      <path class="cls-2" d="M474.81,386.1c6.49-6.24,13.49-12.12,21.62-16.22,6.3-3.09,12.69-5.98,19.21-8.6,0,0-1.23,5.19-1.23,5.19-1.34-1.23-2.86-2.29-4.44-3.18-1.61-.91-3.3-1.61-5-2.01-1.07-.23-2.22-.41-3.25-.74-10.38-3.32-19.81-14.01-26.29-22.39-.33-.44-.64-.86-.99-1.35,0,0,5.36.03,5.36.03-.14.19-.32.36-.48.53-4.15,4.22-9.45,7.35-14.97,9.32-5.49,1.97-11.44,2.74-17.22,2.42,8.27-1.12,16.27-4.57,22.36-10.26,1.8-1.68,3.45-3.5,4.78-5.55,0,0,.11-.18.11-.18l.05-.08s.03-.06.02-.05c0,0,5.36.03,5.36.03,2.34,3.26,4.94,6.43,7.66,9.39,4.06,4.33,8.39,8.46,13.62,11.08,1.21.58,2.41,1.04,3.69,1.3.48.09,1.18.23,1.66.35,4.4,1.11,8.22,3.33,11.6,6.23.61.46,3.92,4,4.51,4.58,0,0-5.02,1.27-5.02,1.27-6.62,1.69-13.28,3.71-19.77,5.9-8.3,2.91-15.87,7.77-22.96,12.98h0Z"/>
      <path class="cls-2" d="M277.21,227.89c9.07,4,16.75,12.04,16.82,22.44.13,10.21-6.08,19.77-13.37,26.44,0,0-4.66-6.72-4.66-6.72,0,0,.47-.26.47-.26l.41-.21c5.91-2.98,12.43-4.68,19.05-5.03,28.62-1.01,41.54,24.94,45.28,49.66.66,4.21,1.1,8.43,1.32,12.66l-.69.05c.1-1.01.22-2.02.35-3.04.13,1.01.24,2.02.35,3.04,0,0-.69.05-.69.05-2.79-10.55-5.9-21.03-10.93-30.73-5.92-11.59-15.3-22.1-28.95-23.41-7.23-.73-14.8.95-21.37,4.09,0,0-.52.27-.52.27l-4.66-6.72c4.59-4.05,8.67-9.01,11.04-14.67,4.68-11.09-1.16-20.2-9.21-27.91h0Z"/>
      <g>
        <path class="cls-3" d="M432.08,132.3c2.34,8.49,3.67,17.12,3.97,25.72-7.01-9.05-14.36-19.25-22.43-30.07-3.1-.76-6.2-1.53-9.29-2.32,1.43,15.84-.57,32.86-6.33,50.3,4.23.88,8.52,1.67,12.86,2.37,2.72-9.86,4.19-19.72,4.45-29.39,7.89,12.43,14.96,23.57,21.92,32.65,3.19.42,6.43.79,9.7,1.09,2.04-15.38.38-31.91-5.15-48.2-3.24-.7-6.48-1.42-9.7-2.15Z"/>
        <path class="cls-3" d="M473.93,164.02c-5.28-9.93-12.47-19.29-21.2-27.55,5.01.4,10.03.85,15.05,1.35,4.38,5.67,8.08,11.68,11.03,17.9-.67-.11-1.33-.23-2-.34,2.38-5.22,4.19-10.58,5.4-15.97,3.75.45,7.49.93,11.24,1.44-1.6,9.59-5.02,19.09-10.05,28.04-1.43,4.66-3.3,9.23-5.58,13.65-4.41.03-8.82.04-13.23.03,3.93-5.9,7.06-12.13,9.35-18.55Z"/>
      </g>
      <path class="cls-3" d="M345.51,125.37l6.28-4.22s10.53,7.38,19.16,9.66c9.71,2.56,20.42,2.94,20.42,2.94l-7.2,31.81-13.72-8.03s-25.65-22.27-27.12-23.64c-1.47-1.38,2.18-8.52,2.18-8.52Z"/>
    </g>
  </g>
</svg>