<?xml version="1.0" encoding="UTF-8"?>
<svg id="Layer_2" xmlns="http://www.w3.org/2000/svg" viewBox="0 0 118.13 117.89">
  <defs>
    <style>
      .cls-1 {
        fill: #ffd200;
      }

      .cls-2 {
        fill: #004b37;
      }

      .cls-3 {
        fill: #fff;
      }

      .cls-4 {
        fill: #ea6cb4;
      }
    </style>
  </defs>
  <g id="Layer_9">
    <g id="WLL_x5F_CAL_x5F_ICON_x5F_FULL">
      <g>
        <polygon class="cls-3" points="59.06 110.52 51.65 117.89 46.3 108.91 37.28 114.21 34.33 104.17 24.28 107.06 23.92 96.61 13.46 96.9 15.72 86.69 5.52 84.38 10.24 75.05 .93 70.27 7.83 62.4 0 55.46 8.63 49.56 2.78 40.89 12.61 37.32 9.1 27.47 19.51 26.46 18.55 16.04 28.89 17.65 30.55 7.32 40.16 11.45 44.35 1.86 52.63 8.25 59.06 0 65.5 8.25 73.78 1.86 77.96 11.45 87.57 7.32 89.24 17.65 99.58 16.04 98.62 26.46 109.03 27.47 105.52 37.32 115.35 40.89 109.49 49.56 118.13 55.46 110.3 62.4 117.2 70.27 107.89 75.05 112.61 84.38 102.41 86.69 104.66 96.9 94.21 96.61 93.85 107.06 83.8 104.17 80.85 114.21 71.83 108.91 66.48 117.89 59.06 110.52"/>
        <path class="cls-1" d="M65.87,113.02l-5.21-5.18c-.88-.87-2.3-.87-3.18,0l-5.21,5.18-3.76-6.31c-.63-1.06-2.02-1.42-3.08-.79l-6.34,3.72-2.07-7.05c-.35-1.19-1.6-1.87-2.79-1.53l-7.06,2.03-.25-7.34c-.04-1.24-1.08-2.21-2.32-2.18l-7.35.21,1.58-7.18c.27-1.21-.5-2.41-1.7-2.69l-7.17-1.62,3.32-6.56c.56-1.1.12-2.46-.98-3.03l-6.54-3.36,4.84-5.53c.82-.93.73-2.35-.2-3.18l-5.5-4.88,6.07-4.15c1.02-.7,1.29-2.1.6-3.13l-4.11-6.09,6.91-2.51c1.16-.42,1.77-1.71,1.35-2.88l-2.47-6.92,7.31-.71c1.23-.12,2.14-1.22,2.03-2.45l-.67-7.32,7.26,1.13c1.22.19,2.38-.65,2.57-1.87l1.17-7.25,6.75,2.9c1.14.49,2.46-.04,2.96-1.17l2.94-6.74,5.82,4.49c.98.76,2.4.58,3.16-.4l4.52-5.79,4.52,5.79c.76.98,2.18,1.15,3.16.4l5.82-4.49,2.94,6.74c.49,1.13,1.82,1.66,2.96,1.17l6.75-2.9,1.17,7.25c.2,1.22,1.35,2.06,2.57,1.87l7.26-1.13-.67,7.32c-.11,1.23.8,2.33,2.03,2.45l7.31.71-2.47,6.92c-.42,1.16.19,2.46,1.35,2.88l6.91,2.51-4.11,6.09c-.69,1.02-.42,2.43.6,3.13l6.07,4.15-5.5,4.88c-.93.82-1.02,2.25-.2,3.18l4.84,5.53-6.54,3.36c-1.1.56-1.54,1.92-.98,3.03l3.32,6.56-7.17,1.62c-1.21.27-1.97,1.48-1.7,2.69l1.58,7.18-7.35-.21c-1.24-.03-2.28.94-2.32,2.18l-.25,7.34-7.06-2.03c-1.19-.34-2.44.35-2.79,1.53l-2.07,7.05-6.34-3.72c-1.07-.63-2.45-.27-3.08.79l-3.76,6.31Z"/>
      </g>
      <polygon class="cls-4" points="59.06 80.12 60.56 84.72 65.39 84.72 61.48 87.56 62.97 92.15 59.06 89.31 55.16 92.15 56.65 87.56 52.74 84.72 57.57 84.72 59.06 80.12"/>
      <g>
        <path class="cls-2" d="M78.81,46.61l-1.01-1.09s-1.03-.96-2.82-.47c-.73.2-1.79.8-1.79.8,0,0,.27-1.01.78-1.47s1.07-.33,1.07-.33c0,0-2.5.05-4.22,1s-2.96,2.33-2.96,2.33c0,0,.25-2.08.82-2.6s1.52-.05,1.52-.05c0,0-2.21-.21-4.97,1.17-2.43,1.21-3.34,2.5-3.34,2.5,0,0,1.36-7.33,8.09-8.72s10.26,2.94,10.26,2.94l-1.44,3.97Z"/>
        <path class="cls-2" d="M78.13,41.55s-.88-2.2-3.25-3.46c-2.37-1.25-4.13-1.16-4.13-1.16,0,0,.91-.69,1.65-.88,2.25-.57,1.5.41,1.5.41,0,0-1.65-1.02-2.83-.99-2.17.06-3.93,1.02-3.93,1.02,0,0,.32-1.39,1.09-1.92.77-.53,1.18-.28,1.18-.28,0,0-1.1-.1-3.25.11-1.9.18-3.76,1.33-3.76,1.33,0,0,4.12-6.57,10.52-4.32,6.4,2.25,8.04,9.79,8.04,9.79l-1.32,1.54-1.52-1.2Z"/>
        <path class="cls-2" d="M77.8,43.85s2.73-5.81,1.82-7.87-2.34-2.81-2.34-2.81c0,0,.79-.2,1.83.31,1.91.94,1.3,1.54,1.3,1.54,0,0-.1-1.11-2.68-3.23-1.77-1.45-3.62-1.53-3.62-1.53,0,0,1.37-.75,2.43-.51,2.52.57,1.14.64,1.14.64,0,0-.99-1.06-3.42-1.82-2.8-.88-4.94-.95-4.94-.95,0,0,6.02-4.62,11.97,1.28,6.71,6.66.09,17.01.09,17.01l-3.59-2.07Z"/>
        <path class="cls-2" d="M80.4,40.34s3.99-.5,4.59-3.9c.54-3.06-.55-4.83-.55-4.83,0,0,1.22.79,1.84,1.93.78,1.44-.08,1.34-.08,1.34,0,0,.54-2.97-.13-4.96-.67-1.99-1.93-4.21-1.93-4.21,0,0,5.59,2.89,5.49,9.24-.1,6.35-3.32,7.08-3.32,7.08l-4.03,4.63-1.74-.36-.29-2.75.14-3.2Z"/>
        <path class="cls-2" d="M85.97,40.2s3.42-2.05,8.74.99c5.31,3.04,4.77,7.6,4.77,7.6h0c-.67-.99-1.62-1.76-2.73-2.19h0s0,0,0,0c.7,1.33.91,2.87.57,4.34l-.09.39s-.51-2.45-3.5-5.06-4.84-2.14-4.84-2.14c0,0,4.64,2.42,5.84,7.02,1.2,4.61-2.04,7.98-2.04,7.98,0,0,.48-3.78-.83-6.65-1.31-2.86-1.85-3.6-1.85-3.6,0,0,.47-.01.37,1.28-.03.44-.47,1.12-.47,1.12,0,0-.39-2.5-2.72-4.16-2.33-1.66-2.83-1.36-2.83-1.36,0,0,5.53,3.36,6,10.71.38,5.89-4.93,6.43-4.93,6.43,0,0,1.59-1.51,2.02-3.15s.17-2.29.17-2.29c0,0,.59.08-.46,1.06-.51.47-1.49.56-1.49.56,0,0,1.22-1.04,1.23-3.16.02-1.83-.17-2.62-.17-2.62,0,0,1,.81.01,1.79-.36.36-.83.48-.83.48,0,0,.81-1.35.18-2.88s-1.69-1.91-1.69-1.91c0,0,2.2,2.67-.42,6.42-2.08,2.98-6.46,2.16-6.46,2.16,0,0,3.33-1.85,4.25-3.21,1.22-1.8.8-2.35.8-2.35,0,0,.98.42-.13,1.37-1.41,1.2-3.84.47-3.84.47,0,0,1.6-.86,1.84-1.07.66-.57.59-.59.76-.86.25-.4.58-1.1.18-2.25h0s0,0,0,0c0,.01-.02.03-.02.04-1.03,1.71-2.72,2.93-4.67,3.34l-.7.15,1.32-1.1c1.14-.95,1.62-2.1,2.14-3.75,0-.01,0-.02,0-.03l.37-2.21,4.05-6.67,2.09-1.04Z"/>
        <polygon class="cls-2" points="31.09 94.9 84.33 43.84 81.72 41.25 28.49 92.31 31.09 94.9"/>
      </g>
      <g>
        <path class="cls-2" d="M39.32,46.61l1.01-1.09s1.03-.96,2.82-.47c.73.2,1.79.8,1.79.8,0,0-.27-1.01-.78-1.47s-1.07-.33-1.07-.33c0,0,2.5.05,4.22,1,1.72.95,2.96,2.33,2.96,2.33,0,0-.25-2.08-.82-2.6s-1.52-.05-1.52-.05c0,0,2.21-.21,4.97,1.17,2.43,1.21,3.34,2.5,3.34,2.5,0,0-1.36-7.33-8.09-8.72-6.73-1.39-10.26,2.94-10.26,2.94l1.44,3.97Z"/>
        <path class="cls-2" d="M39.99,41.55s.88-2.2,3.25-3.46,4.13-1.16,4.13-1.16c0,0-.91-.69-1.65-.88-2.25-.57-1.5.41-1.5.41,0,0,1.65-1.02,2.83-.99,2.17.06,3.93,1.02,3.93,1.02,0,0-.32-1.39-1.09-1.92s-1.18-.28-1.18-.28c0,0,1.1-.1,3.25.11,1.9.18,3.76,1.33,3.76,1.33,0,0-4.12-6.57-10.52-4.32-6.4,2.25-8.04,9.79-8.04,9.79l1.32,1.54,1.52-1.2Z"/>
        <path class="cls-2" d="M40.33,43.85s-2.73-5.81-1.82-7.87,2.34-2.81,2.34-2.81c0,0-.79-.2-1.83.31-1.91.94-1.3,1.54-1.3,1.54,0,0,.1-1.11,2.68-3.23,1.77-1.45,3.62-1.53,3.62-1.53,0,0-1.37-.75-2.43-.51-2.52.57-1.14.64-1.14.64,0,0,.99-1.06,3.42-1.82,2.8-.88,4.94-.95,4.94-.95,0,0-6.02-4.62-11.97,1.28-6.71,6.66-.09,17.01-.09,17.01l3.59-2.07Z"/>
        <path class="cls-2" d="M37.73,40.34s-3.99-.5-4.59-3.9c-.54-3.06.55-4.83.55-4.83,0,0-1.22.79-1.84,1.93-.78,1.44.08,1.34.08,1.34,0,0-.54-2.97.13-4.96.67-1.99,1.93-4.21,1.93-4.21,0,0-5.59,2.89-5.49,9.24.1,6.35,3.32,7.08,3.32,7.08l4.03,4.63,1.74-.36.29-2.75-.14-3.2Z"/>
        <path class="cls-2" d="M32.16,40.2s-3.42-2.05-8.74.99c-5.31,3.04-4.77,7.6-4.77,7.6h0c.67-.99,1.62-1.76,2.73-2.19h0s0,0,0,0c-.7,1.33-.91,2.87-.57,4.34l.09.39s.51-2.45,3.5-5.06c2.99-2.61,4.84-2.14,4.84-2.14,0,0-4.64,2.42-5.84,7.02-1.2,4.61,2.04,7.98,2.04,7.98,0,0-.48-3.78.83-6.65,1.31-2.86,1.85-3.6,1.85-3.6,0,0-.47-.01-.37,1.28.03.44.47,1.12.47,1.12,0,0,.39-2.5,2.72-4.16,2.33-1.66,2.83-1.36,2.83-1.36,0,0-5.53,3.36-6,10.71-.38,5.89,4.93,6.43,4.93,6.43,0,0-1.59-1.51-2.02-3.15s-.17-2.29-.17-2.29c0,0-.59.08.46,1.06.51.47,1.49.56,1.49.56,0,0-1.22-1.04-1.23-3.16-.02-1.83.17-2.62.17-2.62,0,0-1,.81-.01,1.79.36.36.83.48.83.48,0,0-.81-1.35-.18-2.88s1.69-1.91,1.69-1.91c0,0-2.2,2.67.42,6.42,2.08,2.98,6.46,2.16,6.46,2.16,0,0-3.33-1.85-4.25-3.21-1.22-1.8-.8-2.35-.8-2.35,0,0-.98.42.13,1.37,1.41,1.2,3.84.47,3.84.47,0,0-1.6-.86-1.84-1.07-.66-.57-.59-.59-.76-.86-.25-.4-.58-1.1-.18-2.25h0s0,0,0,0c0,.01.02.03.02.04,1.03,1.71,2.72,2.93,4.67,3.34l.7.15-1.32-1.1c-1.14-.95-1.62-2.1-2.14-3.75,0-.01,0-.02,0-.03l-.37-2.21-4.05-6.67-2.09-1.04Z"/>
        <polygon class="cls-2" points="87.04 94.9 33.8 43.84 36.41 41.25 89.64 92.31 87.04 94.9"/>
      </g>
    </g>
  </g>
</svg>