<?xml version="1.0" encoding="UTF-8"?>
<svg id="ICON" xmlns="http://www.w3.org/2000/svg" viewBox="0 0 1080 1080">
  <defs>
    <style>
      .cls-1 {
        fill: #fff;
      }
    </style>
  </defs>
  <g id="_1_COLOR_LIGHT" data-name="1 COLOR LIGHT">
    <path class="cls-1" d="m728.48,646.61c0-.1-.02-.21-.03-.31-1.52-16.97-8.69-32.62-20.06-44.23l212.87-148.98-156.73,33.61,67.85-128.92-82.74,65.7c1.39-19.66-4.38-39.16-17.14-57.34-16.73-23.83-44.16-43.75-79.33-57.61-33.2-13.09-71.21-20-109.93-20s-76.27,6.9-109.41,19.96c-35.03,13.81-62.48,33.63-79.38,57.32-13.57,19.01-19.59,39.52-17.85,60.16l-85.89-68.2,67.85,128.92-156.73-33.61,212.79,148.92c-11.36,11.57-18.55,27.2-20.08,44.12-.02.16-.03.31-.04.47-8.08,7.59-13.28,17.79-14.78,29.16-1.63,12.33,1.3,24.86,8.25,35.28,7.24,10.84,18.06,18.27,30.46,20.94,1.6.35,3.25.61,4.92.79l1.55.16h.42c.96.06,1.95.09,2.93.09,7.95,0,15.59-2,22.43-5.84.47.12,1.02.25,1.62.38,4.8,1.03,9.68,1.55,14.49,1.55,4.32,0,8.56-.41,12.68-1.21,19.8,39.2,56.54,60.74,103.74,60.74,23.66,0,44.58-5.4,62.19-16.04,16.97-10.26,30.5-25.16,40.26-44.31,3.43.55,6.93.82,10.47.82,4.81,0,9.69-.52,14.47-1.54.61-.13,1.16-.26,1.64-.39,6.84,3.84,14.48,5.84,22.43,5.84,1,0,2-.03,2.98-.1h.49s1.47-.16,1.47-.16c1.66-.18,3.31-.44,4.88-.78,12.41-2.67,23.23-10.11,30.49-20.96,6.94-10.4,9.86-22.92,8.24-35.25-1.5-11.37-6.7-21.58-14.78-29.16Zm-3.8,57.52c-5.44,8.15-13.52,13.72-22.76,15.71-1.17.25-2.38.45-3.6.58l-.88.09h-.29s-.15.02-.15.02c-.76.05-1.53.08-2.29.08-7.37,0-14.38-2.36-20.29-6.84-.04-.03-.09-.06-.13-.1-1.24.42-2.51.79-3.77,1.12l-.39.1c-.43.12-1.19.34-2.07.52-3.94.84-7.94,1.27-11.89,1.27-5.99,0-11.79-.96-17.26-2.87l-3.11,6.45c-17.62,36.6-49.63,55.95-92.55,55.95s-76.33-19.88-93.66-55.99l-3.44-7.17c-6.06,2.41-12.55,3.63-19.32,3.63-3.95,0-7.95-.43-11.89-1.27-.88-.19-1.64-.4-2.09-.53l-.38-.1c-1.25-.33-2.51-.7-3.76-1.12-.05.03-.09.07-.14.1-5.9,4.47-12.92,6.83-20.28,6.83-.76,0-1.53-.03-2.28-.08l-.22-.02h-.2l-.9-.09c-1.22-.13-2.43-.32-3.61-.58-9.23-1.98-17.3-7.56-22.74-15.69-5.27-7.91-7.5-17.41-6.27-26.75,1.26-9.56,5.99-17.99,13.32-23.74l1.26-.99c0-.43.01-.87.02-1.3.04-1.34.13-2.61.26-4.02,1.54-16.91,9.75-32.17,22.54-41.86,1.91-1.44,3.93-2.74,6.12-3.96l-176.3-123.39,122.66,26.3-52.74-100.21,65.57,52.07c.42-1.04.88-2.1,1.37-3.17l-1.41-4.29c-.87-2.64-1.66-5.04-2.33-7.16-7.49-23.23-3.28-46.96,12.17-68.61,15.5-21.74,41.03-40.06,73.82-52.98,31.7-12.49,67.96-19.09,104.85-19.09s73.61,6.62,105.37,19.14c32.89,12.97,58.38,31.36,73.71,53.19,15.04,21.43,18.89,44.85,11.14,67.72-.92,2.7-1.89,5.54-2.89,8.49l-2.3,6.82,65.62-52.11-52.74,100.21,122.66-26.3-176.36,123.42c2.17,1.21,4.15,2.49,6.01,3.89,12.84,9.73,21.07,25.03,22.59,41.97.13,1.32.21,2.62.25,3.88.01.46.02.91.03,1.37l1.26.99c7.33,5.75,12.06,14.19,13.32,23.75,1.23,9.34-.99,18.84-6.26,26.74Z"/>
    <path class="cls-1" d="m464.22,453.12c7.22,5.21,14.93,10.77,22.98,16.58l-.04-6.12c-5.63-4.9-10.7-9.45-15.87-14.2-2.43,1.3-4.77,2.53-7.07,3.74Z"/>
    <path class="cls-1" d="m531.47,501.66c1.14-.82,2.3-1.65,3.51-2.51l-.07-15.91-.07-15.28c-5.16-3.76-10.22-7.56-15.81-11.89-5.24,3.47-10.33,6.75-15.53,10.03l.07,15.42c9.05,6.53,18.4,13.28,27.9,20.14Z"/>
    <path class="cls-1" d="m551.32,498.97c.68.47,1.34.93,2.01,1.39,10-7.22,19.84-14.32,29.31-21.15l-.07-13.87c-5.05-3.03-10.11-6.14-15.73-9.73-5.26,4.19-10.4,8.19-15.66,12.19l.05,12.45.11,18.72Z"/>
    <path class="cls-1" d="m598.97,467.43c7.85-5.66,15.33-11.06,22.33-16.12-2.15-1.06-4.33-2.13-6.55-3.26-5.1,4.79-10.28,9.53-15.8,14.47l.02,4.77v.15Z"/>
    <path class="cls-1" d="m534.42,390.32l-.03-3.91-.03-2.83c-10.75.54-21.27,2.05-31.29,4.4v.17c5.05,4.14,10.09,8.16,15.76,12.55,5.56-3.59,10.55-6.91,15.58-10.38Z"/>
    <path class="cls-1" d="m581.93,387.64c-10-2.24-20.48-3.66-31.21-4.11l.04,6.67c5.1,3.39,10.11,6.61,15.68,10.09,5.58-4.44,10.54-8.48,15.49-12.65Z"/>
    <path class="cls-1" d="m462.1,404.18c-10.4,6.25-19.03,13.67-25.08,22.01-.93,1.27-1.75,2.57-2.55,3.86,1.7,1.76,3.43,3.55,5.2,5.35,3.01,2.17,6.22,4.49,9.61,6.94,4.8-2.31,9.17-4.48,13.51-6.68l-.08-15.32-.09-15.67c-.18-.17-.34-.33-.52-.49Z"/>
    <path class="cls-1" d="m510.39,444.15l-.1-22.24-.04-8.36c-5.36-4.25-10.56-8.52-15.85-12.99-5.03,2.87-10.1,5.68-15.46,8.54l.17,30.83c5.29,4.77,10.46,9.3,15.78,13.81,5.14-3.09,10.22-6.24,15.5-9.59Z"/>
    <path class="cls-1" d="m558.09,444.82l-.17-30.51c-5.65-3.67-10.7-7.05-15.76-10.56-5.24,3.72-10.35,7.25-15.59,10.78l.17,30.54c5.07,3.84,10.1,7.54,15.7,11.53,5.17-3.81,10.18-7.58,15.64-11.78Z"/>
    <path class="cls-1" d="m605.87,438.92l-.05-8.91-.11-21.86c-5.75-2.96-10.77-5.61-15.67-8.3-5.16,4.45-10.2,8.68-15.76,13.23l.05,9.42.12,21.14c5.24,3.24,10.38,6.31,15.65,9.35,5.56-4.85,10.61-9.35,15.76-14.07Z"/>
    <path class="cls-1" d="m622.56,402.99c-.15.15-.31.3-.45.44l.06,12.29.11,18.66c4.86,2.37,9.26,4.45,13.58,6.42,3.4-2.45,6.6-4.76,9.59-6.92,1.85-1.92,3.65-3.8,5.42-5.68-.41-.63-.77-1.26-1.22-1.89-6.39-8.92-15.76-16.8-27.09-23.32Z"/>
    <path class="cls-1" d="m615.98,712.69c-8.08-1.14-14.35-5.5-15.89-10.43-12.06,19.02-33.28,31.7-57.51,31.7s-44.87-12.32-57-30.94c-1.93,4.62-7.98,8.59-15.64,9.67-1.76.25-3.44.28-5.1.21,10.06,20.96,31.83,46.39,78.41,46.39,36.57,0,62.5-15.62,77.3-46.36-1.49.03-3-.01-4.58-.24Z"/>
    <path class="cls-1" d="m668.58,412.34c.75,1.04,1.45,2.09,2.12,3.15l.55-.41c2.08-1.51,7.58-1.65,10.01-1.07,0,0,.01,0,.02,0,3.83.62,8.51,3.04,13.4,6.87,0,0,0,0,0,0,0,0,0,0,0,0-1.71-8.06-5.13-16.25-11.24-24.08-.26-.33-.51-.66-.77-.98-.99-1.22-2.06-2.44-3.22-3.68.01.01.03.03.04.04-.03-.03-.05-.06-.08-.08-.01-.01-.02-.02-.03-.03-.44-.47-.91-.94-1.38-1.42-.06-.06-.11-.12-.17-.17-.04-.04-.08-.09-.13-.13-.17-.17-.34-.33-.51-.5-.07-.07-.15-.14-.22-.21-.05-.05-.11-.1-.16-.15-.31-.3-.62-.61-.95-.91-.21-.2-.42-.39-.63-.59-.04-.04-.08-.08-.13-.12-.1-.09-.2-.19-.3-.28-.12-.11-.26-.23-.38-.34-.18-.16-.35-.32-.53-.48-.22-.2-.44-.39-.66-.58-.12-.11-.25-.22-.38-.33-.25-.22-.5-.43-.75-.65-.12-.1-.24-.21-.37-.31-.19-.16-.39-.33-.58-.49-.29-.24-.58-.48-.88-.72.09.08.18.15.27.23-.29-.24-.59-.48-.88-.72.05.04.11.09.17.13-.25-.2-.5-.4-.75-.61-.03-.03-.07-.05-.1-.08-.37-.29-.75-.58-1.12-.87.09.07.18.14.27.21-.34-.26-.68-.53-1.03-.79.08.06.16.11.23.17-.24-.18-.47-.36-.71-.54-.14-.11-.29-.21-.43-.32-.4-.29-.79-.59-1.2-.88.2.15.4.3.6.45-.39-.29-.78-.58-1.18-.86.13.09.27.18.39.28-.19-.14-.39-.28-.59-.42-.24-.17-.48-.34-.72-.51-.44-.31-.87-.62-1.32-.92-.19-.13-.39-.26-.58-.39-.24-.16-.47-.32-.71-.48-.46-.31-.91-.61-1.38-.91-.28-.18-.56-.36-.84-.55-.15-.1-.3-.19-.45-.29-.5-.32-1.01-.64-1.53-.96-.36-.22-.71-.45-1.08-.67-.05-.03-.09-.05-.14-.08-.64-.39-1.29-.77-1.94-1.16.51.3,1.01.6,1.5.9-.75-.45-1.52-.9-2.29-1.35-.23-.14-.47-.27-.7-.41-.82-.47-1.64-.94-2.48-1.4.08.04.16.08.23.13-.08-.04-.16-.09-.24-.13-.12-.06-.23-.13-.35-.19-.33-.18-.66-.36-1-.54.22.12.44.24.66.36-.79-.43-1.58-.86-2.39-1.28.08.04.16.08.24.12-.34-.18-.69-.36-1.03-.54-.02-.01-.04-.02-.07-.04,0,0,0,0,0,0-.22-.11-.43-.22-.65-.34.21.11.43.22.64.33-.78-.4-1.57-.81-2.38-1.21.11.06.23.11.35.17-.38-.19-.76-.38-1.13-.56-.02,0-.04-.02-.06-.03,0,0,0,0,0,0-.23-.12-.47-.23-.7-.35.24.12.47.23.7.35-.88-.43-1.77-.86-2.67-1.29.33.16.67.32,1,.47-.47-.23-.95-.45-1.43-.68-.01,0-.02-.01-.04-.02-.91-.43-1.84-.85-2.78-1.27-.2-.09-.4-.18-.6-.27-.09-.04-.18-.08-.27-.12-.06-.03-.13-.06-.19-.09.06.03.12.06.19.08-1.1-.49-2.23-.97-3.36-1.44.3.13.61.26.91.38-.36-.15-.72-.31-1.08-.46-.07-.03-.14-.06-.21-.09-.74-.31-1.49-.62-2.25-.92.69.28,1.36.56,2.04.84-1.04-.43-2.09-.86-3.15-1.28.02,0,.04.02.07.03-.04-.01-.07-.03-.11-.04-.14-.06-.29-.11-.43-.17-.12-.05-.24-.09-.35-.13-.35-.13-.7-.27-1.05-.4-.69-.27-1.38-.53-2.08-.8-.15-.06-.3-.11-.45-.17-.59-.22-1.16-.44-1.75-.65-.62-.22-1.26-.43-1.89-.65-.12-.04-.24-.09-.37-.13-.04-.01-.09-.03-.13-.04-1.88-.65-3.78-1.27-5.72-1.88-.06-.02-.11-.04-.17-.05-1.98-.62-3.99-1.21-6.03-1.78-.03,0-.06-.02-.09-.03-.21-.06-.42-.12-.63-.17-1.17-.32-2.36-.64-3.55-.95-.08-.02-.15-.04-.22-.06-.13-.03-.26-.07-.4-.1-1.29-.33-2.59-.65-3.9-.96-.19-.05-.39-.09-.58-.14-.37-.09-.73-.18-1.1-.26.35.08.7.17,1.05.25-1.36-.32-2.73-.63-4.11-.92,1.01.22,2.02.43,3.02.66-1.01-.23-2.04-.45-3.06-.67-.05-.01-.1-.02-.15-.03-.22-.05-.43-.1-.65-.14.22.05.43.09.64.14-6.13-1.31-12.49-2.4-19.08-3.24-7.05-.9-14.34-1.53-21.87-1.81-.88-.03-1.78-.04-2.66-.07-1.19-.03-2.38-.07-3.58-.09-.62,0-1.24,0-1.87-.01-.45,0-.9,0-1.35,0l-2.91-.04c-64.51,0-113.31,24.53-134.83,46.88-1.43,1.49-2.75,2.97-3.94,4.43-.1.13-.19.25-.29.38-1.17,1.46-2.25,2.93-3.24,4.42-4.64,6.98-7.31,14.19-8.7,21.3,5.04-4.16,9.92-6.89,13.94-7.74.35-.12.7-.22,1.05-.3,2.43-.58,4.67-.27,6.74,1.23l2.98,2.22c1.07-1.75,2.21-3.5,3.46-5.22,23.16-31.88,72.24-52.5,125.02-52.5s102.44,20.71,125.37,52.76Z"/>
    <path class="cls-1" d="m371.13,444.45c1.37-2.33,2.92-4.7,4.62-7.05,0,0,0,0,0,0,0,0,0,0,0,0-.06-.62-.12-1.25-.17-1.88-.6-7.61-.15-16.35,2.75-25.55,1.95-6.2,5.03-12.61,9.64-19.02,1.73-2.4,3.66-4.79,5.84-7.18h0s0,0,0,0c0,0,0,0,0,0,.09-.1.19-.21.29-.31-.1.1-.2.21-.29.31,0,0,0,0,0,0,.24-.26.51-.55.79-.85.02-.03.05-.05.07-.08,4.47-4.7,14.12-13.57,29.38-22.69.76-.45,1.54-.91,2.32-1.36.27-.15.53-.31.8-.46.21-.12.42-.24.63-.35.53-.3,1.05-.59,1.59-.89.18-.1.36-.2.54-.3.42-.23.85-.46,1.28-.69.57-.31,1.15-.62,1.73-.92.55-.29,1.11-.58,1.68-.87.55-.28,1.11-.56,1.67-.84.61-.3,1.22-.6,1.84-.9.54-.26,1.09-.52,1.64-.78.62-.29,1.24-.59,1.88-.88.03-.01.06-.03.09-.04.04-.02.08-.03.11-.05.5-.23,1.01-.46,1.53-.69.57-.26,1.15-.51,1.73-.77.21-.09.42-.18.63-.28.45-.19.9-.39,1.35-.58.76-.32,1.51-.64,2.28-.96,1.23-.51,2.48-1.01,3.76-1.51,22.58-8.76,51.7-15.47,87.89-15.47l2.91.03c36.77,0,66.24,6.92,88.97,15.88,33.48,13.21,52.31,30.85,58.24,37.32,2.55,2.79,4.77,5.6,6.71,8.4,1.77,2.56,3.27,5.12,4.58,7.67,1.08,2.1,2.03,4.19,2.83,6.26.5,1.28.94,2.55,1.34,3.82,3,9.48,3.41,18.49,2.73,26.26,1.95,2.63,3.69,5.26,5.24,7.88,1.01-2.97,1.98-5.83,2.89-8.5,6.03-17.81,3.01-35.5-8.97-52.57-27.35-38.95-93.75-65.13-165.23-65.13s-137.18,26.11-164.9,64.98c-12.4,17.37-15.69,35.42-9.82,53.66.73,2.32,1.61,4.97,2.58,7.92Z"/>
    <polygon class="cls-1" points="425.94 582.53 351.58 534.05 401.96 547.3 376.27 508.76 446.32 567.49 457.36 559.34 341.61 467.43 373.79 528.56 297.51 512.2 412.34 592.56 425.94 582.53"/>
    <polygon class="cls-1" points="636.81 567.49 706.85 508.76 681.16 547.3 731.55 534.05 657.19 582.52 670.79 592.56 785.61 512.2 709.34 528.56 741.51 467.43 625.77 559.34 636.81 567.49"/>
    <path class="cls-1" d="m406.49,429.68c.38.3.57.8.64,1.42,1.89-4.98,2.24-8.84.39-10.19-1.53-1.11-13.8,7.02-24.39,20.7-10.61,13.69-16.1,27.38-14.03,28.88,1.86,1.35,5.4.18,9.76-2.88-.63.08-1.17.03-1.56-.26-2.54-1.99,1.94-12.03,9.99-22.41,8.08-10.42,16.69-17.22,19.2-15.24Z"/>
    <path class="cls-1" d="m707.17,666.96c-5.1,10.93-13.48,14.95-18.2,16.36.8-1.02,1.59-2.08,2.33-3.17,3.47-5.22,5.79-10.91,7.04-16.73.82-3.85,1.18-7.74,1.07-11.59-.03-.96-.1-1.93-.19-2.91-1.06-11.79-6.47-22.81-15.92-29.96-1.8-1.36-3.71-2.49-5.64-3.46-4.54-2.3-9.37-3.57-14.28-3.87-1.26-5.04-3.26-8.03-4.25-8.76-.79-.61-5.55-4.07-13.27-9.66-8.81-6.39-21.5-15.57-36.67-26.52-1.71-1.24-3.44-2.49-5.17-3.74,47.76-40.12,89.74-75.4,100.81-84.7,0,0,0,0-.01-.01-6.62-5.02-16.44-14.82-22.97-24.78-6.38-9.75-12.44-18.14-14.65-26.37-.31.23-.64.46-.97.7-20.67,14.92-71.68,51.72-124.72,90.01-53.03-38.29-104.05-75.09-124.71-90.01-.33-.24-.66-.47-.97-.7-2.21,8.24-8.27,16.62-14.65,26.37-6.53,9.96-16.35,19.76-22.97,24.78,0,0,0,0-.01.01,11.07,9.3,53.05,44.58,100.81,84.7-1.74,1.26-3.46,2.5-5.18,3.74-15.16,10.95-27.86,20.14-36.67,26.52-7.72,5.59-12.48,9.06-13.27,9.66-.98.73-2.98,3.72-4.25,8.76-4.91.3-9.74,1.57-14.28,3.87-1.93.97-3.84,2.1-5.64,3.46-9.45,7.16-14.86,18.18-15.92,29.96-.1.98-.16,1.95-.19,2.91-.11,3.85.25,7.74,1.07,11.59,1.24,5.81,3.56,11.51,7.04,16.73.74,1.1,1.53,2.16,2.33,3.17-4.72-1.42-13.09-5.44-18.2-16.36-3.82,3-6.31,7.47-6.99,12.64-.7,5.29.57,10.66,3.56,15.14,2.99,4.47,7.33,7.5,12.23,8.55.61.13,1.23.23,1.84.29h0c.22.02.44.04.66.05,4.05.27,7.97-.89,11.25-3.39,2.56-1.91,4.45-4.54,5.72-7.55,3.88,2.62,8.14,4.54,12.64,5.71.58.14,1.14.33,1.72.45,10.73,2.29,21.64.23,30.09-6.6,3.78-3.05,6.37-5.94,8.12-8.33-2.69-2.27-5.67-5.39-7.18-9.02-3.15-7.57-2.29-6.39-2.29-6.39,0,0,4.79,4.97,13.56,8.78,1.43.62,2.76,1.12,3.94,1.52,1.34.45,2.82.13,3.86-.84l14.44-13.49c2.09-1.75,4.22-3.54,6.39-5.36,1.69-9.48,5.89-18.09,11.88-25.13h0c4.26-5,9.43-9.21,15.25-12.36h0c7.49-4.05,16.06-6.36,25.16-6.39.05,0,.1,0,.15,0,6.69,0,13.09,1.24,18.99,3.49h0c10.65,4.06,19.66,11.44,25.76,20.88h0c3.89,6.01,6.6,12.85,7.81,20.19,1.89,1.59,3.76,3.15,5.58,4.68l14.44,13.49c1.03.97,2.51,1.29,3.86.84,1.18-.4,2.51-.9,3.94-1.52,8.76-3.81,13.56-8.78,13.56-8.78,0,0,.86-1.17-2.29,6.39-1.51,3.62-4.49,6.75-7.18,9.02,1.75,2.39,4.34,5.28,8.13,8.33,8.45,6.82,19.36,8.89,30.09,6.6.57-.12,1.14-.31,1.71-.45,4.5-1.17,8.76-3.09,12.64-5.71,1.27,3.01,3.17,5.64,5.72,7.55,3.29,2.5,7.2,3.66,11.25,3.39.22-.02.44-.03.66-.05h0c.61-.07,1.23-.16,1.84-.29,4.9-1.05,9.24-4.08,12.23-8.55,2.99-4.49,4.26-9.86,3.56-15.14-.68-5.17-3.17-9.64-6.99-12.64Zm-286.32-31.79s0,0,0,0c-.5.15-1,.32-1.5.51-2.39.9-4.78,2.28-6.99,4.09t0,0c-.22.18-.43.37-.64.56-.4.35-.79.71-1.18,1.09-.03.02-.05.05-.08.08-.33.32-.66.65-.97,1,0,0,0,.01-.01.02,0,0,0,0,0,0-.3.33-.6.67-.88,1.01,0,0,0,.01-.01.02,0,0,0,0,0,0-.09.11-.17.24-.26.35-.48.6-.96,1.21-1.4,1.86t0,0c-.24.35-.47.71-.7,1.07-.02.03-.04.07-.07.1,0,0,0,0,0,0,0,.01-.01.02-.02.04-.21.34-.4.7-.6,1.05-.15.27-.31.53-.46.81-.22.42-.41.86-.61,1.29-.11.23-.22.45-.32.68,0,.01,0,.02-.01.03,0,0,0,.01,0,.02-.29.68-.56,1.37-.81,2.09-.25.71-.47,1.45-.67,2.2,0,.01,0,.02,0,.03-.26.99-.46,2.03-.64,3.08-.09.54-.18,1.08-.24,1.64,0,0,0,0,0,0,0,0,0,0,0,0-.02.21-.03.42-.05.63-.03.34-.07.68-.09,1.02,0,0,0,.01,0,.02,0,0,0,0,0,.01-.05.84-.07,1.69-.06,2.56,0,.18.01.36.02.54,0,.26.01.51.03.77.01.25.03.51.05.76.01.19.02.38.04.57,0,.03,0,.05,0,.08.11,1.17.29,2.38.52,3.61.12.63.22,1.25.37,1.89.01.05.02.1.03.15.09.39.2.78.3,1.17.06.23.11.45.18.68.01.05.03.09.04.14.11.39.23.78.35,1.17.03.1.07.21.1.31.11.35.23.69.35,1.05.02.07.05.14.07.2.02.05.03.1.05.15.13.36.26.73.41,1.09.04.1.07.19.11.28.18.45.36.9.55,1.35.05.13.11.26.17.39.08.18.16.37.24.55.06.14.12.28.18.42.09.2.19.4.28.6.12.25.24.5.36.76.11.23.23.46.34.69.11.22.22.44.33.65.14.26.27.52.41.78.02.04.05.09.07.13.06.11.12.22.18.33.16.29.31.57.48.86,0,0,0,0,0,0,0,0,0,0,0,0,0,0,0,0,0,0h0s0,0,0,0c-.46-.26-.92-.56-1.37-.86-.09-.06-.18-.11-.27-.17,0,0,0,0,0,0-.22-.15-.45-.32-.67-.48-.08-.06-.17-.12-.25-.18-.1-.08-.2-.17-.31-.24-.14-.11-.29-.23-.43-.34-.04-.03-.07-.06-.11-.08-.14-.12-.29-.24-.43-.36-.18-.15-.35-.3-.52-.46-.13-.12-.26-.23-.4-.36-.15-.14-.3-.29-.45-.43-.13-.12-.26-.24-.38-.37-.1-.1-.21-.21-.31-.32,0,0-.02-.02-.02-.02-.19-.19-.37-.38-.55-.58-.13-.13-.25-.27-.37-.41-.03-.03-.06-.07-.09-.1-.14-.16-.29-.32-.43-.48-.11-.13-.23-.26-.34-.4-.26-.31-.52-.63-.77-.95-.07-.1-.15-.19-.22-.29-.2-.27-.4-.53-.6-.81-.1-.14-.2-.28-.3-.42-.17-.25-.35-.49-.51-.75-.07-.1-.13-.2-.2-.3-.02-.03-.04-.07-.07-.1-.06-.09-.12-.19-.18-.29-.17-.26-.34-.53-.51-.79-.01-.02-.02-.03-.03-.05-.01-.02-.02-.04-.04-.06-.2-.34-.4-.68-.6-1.03-.03-.05-.06-.1-.09-.15-.07-.12-.13-.24-.2-.37-.17-.31-.33-.62-.5-.94-.02-.03-.03-.06-.05-.09-.05-.09-.1-.18-.14-.28-.08-.15-.15-.31-.23-.46-.13-.26-.25-.51-.38-.77,0-.01-.01-.02-.02-.04,0,0,0-.01-.01-.02-.21-.45-.41-.91-.6-1.37-.04-.09-.08-.19-.12-.28-.09-.22-.17-.43-.26-.65-.06-.16-.13-.32-.19-.48-.04-.11-.08-.21-.12-.32-.17-.45-.33-.9-.48-1.36,0-.02-.01-.03-.02-.05-.17-.5-.32-1-.47-1.5,0,0,0-.02,0-.03,0,0,0-.01,0-.02-.08-.26-.15-.53-.22-.79-.04-.15-.08-.29-.11-.44-.05-.21-.1-.41-.15-.62-.04-.18-.09-.37-.13-.55-.06-.25-.11-.5-.16-.76-.03-.16-.07-.33-.1-.49-.04-.23-.08-.46-.12-.69-.04-.22-.07-.43-.11-.65-.02-.13-.04-.27-.06-.4,0-.07-.02-.13-.03-.2-.02-.17-.05-.33-.07-.5-.04-.29-.07-.58-.1-.87,0-.08-.01-.15-.02-.23,0-.09-.02-.19-.03-.28-.02-.19-.03-.39-.05-.58-.01-.14-.02-.28-.03-.43,0-.1-.01-.2-.02-.29,0-.1,0-.19-.01-.29,0-.12-.01-.24-.02-.36,0-.1,0-.21-.01-.31,0-.07,0-.15,0-.22,0-.23,0-.46-.01-.69,0-.23,0-.47,0-.7,0-.08,0-.16,0-.23,0-.11,0-.22,0-.34,0-.11,0-.22.01-.33,0-.07,0-.13,0-.2.01-.29.03-.59.05-.88.01-.18.03-.36.04-.54.02-.19.03-.39.05-.58.03-.26.06-.52.09-.78,0-.07.02-.14.03-.2.02-.13.03-.27.05-.4.02-.12.04-.25.05-.37,0-.06.02-.12.03-.18.02-.1.03-.19.05-.29.03-.16.05-.31.08-.47.04-.22.08-.44.13-.66.02-.11.04-.21.07-.32.02-.08.03-.16.05-.24.02-.08.04-.16.05-.24.02-.1.05-.21.07-.31.05-.21.1-.43.16-.64.02-.07.04-.15.06-.22.01-.04.02-.09.04-.13.04-.14.07-.28.11-.41.04-.14.08-.29.12-.43.01-.05.03-.1.04-.15.03-.09.06-.19.09-.28.05-.17.11-.34.16-.51.06-.19.13-.38.19-.57.05-.14.1-.28.15-.42.01-.04.03-.08.04-.12.11-.29.22-.58.33-.86.07-.18.15-.35.22-.53.08-.18.15-.36.23-.54.1-.23.21-.46.31-.69.11-.23.22-.46.33-.69.04-.08.08-.15.12-.23.05-.1.1-.21.16-.31.06-.11.11-.21.17-.32.04-.08.08-.16.13-.24.14-.26.29-.52.44-.78.1-.17.2-.35.31-.52.11-.18.21-.36.33-.53.07-.12.15-.24.23-.36.1-.15.19-.31.3-.46.11-.16.22-.33.33-.49,0-.01.02-.03.03-.04.11-.16.23-.32.34-.49.18-.25.37-.51.56-.76.14-.18.28-.37.42-.55.14-.17.27-.35.41-.52,0,0,0,0,0,0,.14-.17.28-.34.42-.5.22-.26.45-.52.68-.78.13-.15.27-.3.41-.45.16-.17.32-.35.48-.52.13-.14.27-.27.4-.41.11-.11.22-.22.33-.33.16-.16.33-.32.49-.48.01-.01.02-.02.04-.04.15-.14.29-.28.44-.41.15-.14.31-.28.47-.43.13-.12.26-.24.4-.36.16-.14.32-.28.48-.42.09-.08.19-.16.28-.23.11-.09.22-.18.33-.27.09-.07.18-.15.28-.22.08-.06.15-.12.23-.19.32-.26.65-.52.99-.77.16-.12.32-.24.48-.36.09-.06.18-.13.27-.19.22-.16.44-.32.67-.48.05-.03.1-.07.14-.1.18-.13.36-.25.54-.37.24-.16.49-.33.73-.49.08-.05.15-.1.23-.15.09-.06.19-.12.28-.18.41-.26.83-.52,1.25-.77.17-.1.35-.21.52-.31.27-.16.55-.32.83-.47.17-.1.35-.19.52-.29.46-.26.94-.51,1.42-.76.15-.08.29-.15.44-.23.03-.02.06-.03.1-.05.52-.26,1.05-.52,1.59-.77.11-.05.22-.1.33-.15.05-.02.09-.04.14-.07.32-.15.65-.3.98-.44.1-.04.2-.09.3-.13.08-.03.15-.07.23-.1.12-.05.24-.11.37-.16.16-.07.31-.14.47-.21h0c0,.08-.01.14-.02.21-.01.12-.02.23-.03.35-.04.48-.09.95-.12,1.46,0,.14-.01.29-.01.44,0,.09,0,.18,0,.28,0,1.01.03,2.08.11,3.18.1,1.47.3,3.02.58,4.64.37,2.12.89,4.37,1.63,6.74,0,0,0,0,0,0,0,0,0,0,0,0,0,0,0,0,0,0,0,0,0,0,0,0Zm58.1-129.49h0s-61.03-47.7-61.03-47.7h0c-7.07,10.48-15.14,15.72-20.55,18.26,0,0-.02,0-.03.01-.44.21-.87.4-1.28.57-.44.19-.85.35-1.24.5,0,0,0,0,0,0-.12.05-.23.09-.34.13-.07.02-.14.05-.2.08-.24.09-.47.17-.68.24-.02,0-.04.01-.06.02-.41.14-.77.25-1.08.34-.05.01-.09.02-.14.04-.11.03-.21.06-.31.09-.25.07-.44.11-.57.14-.01,0-.03,0-.03,0-.14.03-.21.05-.21.05h0c22.35-19.79,27.44-40.14,27.44-40.14h0s.14.11.4.3c.2.15.49.37.84.63,6.07,4.54,34.07,25.47,69.53,51.99h0s0,0,0,0h0c14.33,10.72,29.13,21.79,43.66,32.65-3.97,2.87-7.94,5.73-11.91,8.6-1.28.93-2.57,1.86-3.85,2.78l-38.38-29.57Zm-43.5,129.88s-11.75-17.1,2.24-27.71c3.97-3,26.4-19.79,56.5-42.31,29.18-21.83,65.58-49.05,99.38-74.33h0s0,.01,0,.01c31-23.18,56.29-42.09,66.23-49.52.32-.24.63-.47.91-.68.43-.32.82-.61,1.17-.88.14-.1.28-.21.41-.31,1.34-1,2.06-1.54,2.06-1.54,0,0,5.09,20.35,27.44,40.14h0s-3.19-.6-7.8-3.01c-.66-.34-1.35-.73-2.06-1.15-.26-.15-.52-.31-.78-.48-.09-.06-.18-.11-.27-.16-3.72-2.34-7.99-5.78-12.13-10.76-.09-.11-.18-.21-.27-.32,0,0,0-.01-.01-.02-1.15-1.4-2.29-2.92-3.4-4.57l-61.03,47.69h0s0,.01,0,.01h0s-168.6,129.88-168.6,129.88Zm212.1,0l-67.8-52.23c5.18-4.35,10.35-8.69,15.47-12.99,2.94,2.2,5.78,4.32,8.53,6.38,19.45,14.55,33.98,25.43,39.62,29.67.85.64,1.51,1.14,1.94,1.46,3.75,2.84,5.65,6.15,6.42,9.47.18.77.3,1.53.37,2.29.02.27.04.54.05.81.01.29.02.57.02.86-.03,7.6-4.62,14.28-4.62,14.28Zm41.26,33.75c-.19.46-.39.92-.6,1.37-.01.02-.02.04-.03.06-.19.42-.39.82-.6,1.23-.06.12-.13.25-.19.37-.16.32-.33.63-.5.93-.07.12-.13.25-.2.37-.22.4-.45.79-.68,1.17-.03.04-.05.08-.07.12-.22.37-.45.72-.68,1.08-.09.14-.18.27-.27.4-.17.25-.34.5-.51.74-.1.14-.2.28-.3.42-.2.27-.4.54-.6.8-.08.1-.15.2-.23.3-.25.32-.51.64-.77.95-.11.14-.23.27-.34.4-.17.2-.34.39-.52.59-.12.14-.25.28-.38.41-.18.2-.37.39-.55.58-.11.11-.22.23-.33.34-.28.27-.55.54-.83.8-.13.12-.26.24-.4.35-.17.15-.35.31-.53.46-.14.12-.29.24-.43.36-.18.15-.36.29-.54.43-.1.08-.2.17-.31.24-.08.06-.17.12-.26.18-.22.17-.45.33-.67.48,0,0,0,0,0,0-.54.37-1.09.72-1.64,1.03h0s0,0,0,0c.17-.29.32-.58.48-.87.08-.15.17-.3.25-.45.14-.26.27-.52.41-.78.11-.22.22-.43.33-.65.12-.23.23-.47.35-.7.12-.25.24-.5.36-.75.1-.2.19-.4.28-.6.15-.32.29-.64.42-.96.06-.13.12-.26.17-.4.19-.45.37-.9.55-1.35.04-.1.07-.19.11-.29.14-.37.28-.73.4-1.09.04-.12.08-.24.12-.36.12-.35.24-.7.35-1.05.03-.1.07-.2.1-.3.12-.4.24-.79.35-1.18.01-.05.03-.09.04-.14.18-.62.33-1.24.48-1.85.01-.05.02-.1.03-.15.31-1.34.55-2.66.72-3.95.07-.52.13-1.04.17-1.55,0-.03,0-.05,0-.08.04-.45.07-.89.09-1.34.02-.44.04-.88.04-1.31.01-.87,0-1.72-.06-2.56,0,0,0-.02,0-.03-.03-.56-.08-1.11-.14-1.65,0,0,0,0,0-.01-.18-1.64-.48-3.22-.88-4.72,0-.01,0-.02-.01-.03-.4-1.5-.9-2.93-1.48-4.28,0-.01-.01-.03-.02-.04-.59-1.35-1.26-2.63-2-3.83l-.03-.04c-.25-.4-.5-.79-.76-1.17,0,0,0,0,0,0-.53-.77-1.09-1.51-1.67-2.2,0,0-.01-.01-.01-.02-.29-.35-.58-.68-.88-1.01,0,0-.01-.01-.02-.02-.23-.25-.46-.49-.69-.73-.23-.24-.47-.47-.71-.7-.48-.45-.97-.89-1.47-1.3,0,0,0,0,0,0-2.67-2.2-5.6-3.76-8.49-4.61,0,0,0,0,0,0h0c1.72-5.53,2.33-10.43,2.31-14.56,0-.25-.01-.49-.02-.72-.03-.5-.07-.97-.12-1.45-.02-.19-.03-.37-.05-.57h0c.29.11.56.24.84.36.18.08.36.15.53.23.33.15.66.29.98.44.15.07.3.15.46.22.54.25,1.08.51,1.6.78.18.09.36.18.53.27.48.25.96.5,1.42.76.17.1.35.19.52.29.28.16.55.32.83.47.17.1.35.21.52.31.43.26.85.52,1.26.78.17.11.34.22.51.33.25.16.49.32.74.49.23.15.45.31.68.47.32.22.63.45.94.68.16.12.32.24.48.36.34.26.67.52,1,.78.17.14.34.27.5.41.21.17.41.34.61.51.16.14.32.28.48.42.3.26.59.52.87.79.15.14.3.28.44.41.18.17.36.34.53.51.25.25.49.49.73.74.17.17.33.35.49.52.14.15.27.3.4.45.23.26.46.52.68.78.14.17.28.33.42.5.14.18.28.35.42.53.14.18.28.36.42.54.19.25.38.51.56.76.12.16.23.32.34.48.12.18.24.35.36.53.18.27.35.54.52.82.11.18.22.36.33.54.1.17.21.35.3.52.15.26.3.53.44.79.1.18.2.37.3.55.09.18.19.36.28.54.11.23.22.45.33.68.11.23.21.46.32.7.08.18.15.35.23.53.07.18.15.36.22.54.11.29.22.57.33.86.07.18.13.36.19.55.07.19.13.38.19.57.09.26.17.53.25.8.06.19.11.38.17.57.05.18.1.36.15.55.08.29.15.57.22.86.04.18.08.37.12.55.04.18.08.37.12.55.04.22.09.44.13.66.05.25.09.5.13.75.03.18.05.37.08.55.03.2.05.4.08.61.03.26.06.52.09.78.02.19.04.39.05.58.01.18.03.36.04.54.02.29.04.59.05.88,0,.18.01.36.02.53,0,.19,0,.38.01.57,0,.23,0,.47,0,.7,0,.23,0,.46,0,.69,0,.18-.01.36-.02.53,0,.22-.02.43-.03.65-.01.24-.03.48-.05.72-.01.19-.03.39-.05.58-.01.17-.03.34-.05.51-.03.29-.06.59-.1.88-.02.17-.04.33-.07.5-.03.2-.06.39-.09.59-.03.22-.07.44-.11.65-.04.23-.08.46-.12.69-.03.16-.06.32-.1.49-.05.25-.11.51-.16.76-.04.18-.08.37-.13.55-.05.21-.1.41-.15.62-.04.15-.07.29-.11.44-.07.26-.15.53-.22.79,0,.02-.01.03-.02.05-.15.51-.3,1.01-.47,1.5,0,.02-.01.03-.02.05-.15.46-.31.91-.48,1.35-.04.11-.08.21-.12.32-.14.38-.29.76-.45,1.13-.04.1-.08.19-.12.29Z"/>
    <path class="cls-1" d="m704.15,467.6c4.36,3.07,7.9,4.23,9.76,2.88,2.07-1.5-3.42-15.19-14.03-28.88-10.6-13.67-22.86-21.81-24.39-20.7-1.86,1.35-1.51,5.21.39,10.19.08-.62.26-1.12.64-1.42,2.52-1.98,11.12,4.83,19.2,15.24,8.05,10.38,12.53,20.42,9.99,22.41-.39.29-.93.34-1.56.26Z"/>
    <path class="cls-1" d="m575.98,641.22c0-6.36-5.16-11.52-11.52-11.52s-11.52,5.16-11.52,11.52,5.16,11.52,11.52,11.52,11.52-5.16,11.52-11.52Z"/>
    <path class="cls-1" d="m498.18,669c0,24.35,19.79,44.09,44.16,44.09,20.18,0,37.17-13.48,42.48-31.9-7.57,13.48-22,22.59-38.58,22.59-24.39,0-44.17-19.74-44.17-44.1,0-4.22.62-8.3,1.72-12.18-3.56,6.36-5.61,13.69-5.61,21.5Z"/>
  </g>
</svg>