<?xml version="1.0" encoding="UTF-8"?>
<svg id="PRIMARY" xmlns="http://www.w3.org/2000/svg" version="1.1" viewBox="0 0 611.4 611.4">
  <!-- Generator: Adobe Illustrator 30.5.1, SVG Export Plug-In . SVG Version: 2.1.4 Build 3)  -->
  <defs>
    <style>
      .st0 {
        fill: none;
      }

      .st1 {
        fill: #091f40;
      }
    </style>
  </defs>
  <path class="st0" d="M301.8,223.6v-2.2s0-1.6,0-1.6c-5.9.3-11.6,1.1-17.1,2.4h0c2.8,2.4,5.5,4.6,8.6,7,3-2,5.8-3.8,8.5-5.8h0Z"/>
  <path class="st0" d="M301.8,283.8v-10.4c0,0,0-6.9,0-6.9-2.9-2.2-5.7-4.4-8.5-6.8-3.1,2-5.8,3.7-8.6,5.4v7.7c5.1,3.8,10.5,7.7,16,11.7.4-.2.7-.5,1.1-.8h0Z"/>
  <path class="st0" d="M263.5,258.4c3.9,2.9,8.1,6,12.5,9.2v-3.4c-3.1-2.7-5.9-5.2-8.7-7.9-1.3.7-2.6,1.4-3.9,2.1h0Z"/>
  <path class="st0" d="M222.7,342.9c1-.8,2.1-1.5,3.3-2.2l-37.8-26.8c1.4,21.1,8.5,40.6,19.6,57.2.5-.5,1.1-1,1.7-1.5l.7-.5c0-.2,0-.5,0-.7,0-.7,0-1.5.1-2.2.8-9.4,5.3-17.8,12.3-23.2h0Z"/>
  <path class="st0" d="M383.4,227.4c-.2-.2-.4-.5-.6-.8-8.8-11-30.1-23.7-59.2-27.4-3.7-.5-7.5-.8-11.5-.9-.5,0-1,0-1.5,0-.6,0-1.3,0-1.9,0h-3.4c-37.6,0-65.4,15.5-75.8,28.4,0,0,0,0,0,0-.7.9-1.3,1.7-1.9,2.6-2.5,3.9-4,7.9-4.8,11.8,2.8-2.3,5.4-3.8,7.6-4.3.2,0,.4-.1.6-.2,1.3-.3,2.5-.1,3.7.7l1.6,1.2c.6-1,1.2-1.9,1.9-2.9,12.6-17.7,39.4-29.1,68.3-29.1s56,11.5,68.5,29.2c.4.6.8,1.2,1.2,1.8l.3-.2c1.1-.8,4.1-.9,5.5-.6h0c2.1.3,4.7,1.7,7.3,3.8h0c-.9-4.4-2.8-8.9-6-13.1h0Z"/>
  <path class="st0" d="M350,230.6c0,0-.2.2-.2.2v6.8s0,10.3,0,10.3c2.7,1.3,5.1,2.5,7.4,3.6,1.8-1.4,3.6-2.6,5.2-3.8,1-1.1,2-2.1,3-3.1-.2-.4-.4-.7-.7-1-3.5-5-8.6-9.3-14.8-12.9h0Z"/>
  <path class="st0" d="M288.7,253.4v-12.3c0,0,0-4.6,0-4.6-2.9-2.4-5.8-4.7-8.7-7.2-2.8,1.6-5.5,3.1-8.4,4.7v17.1c3,2.6,5.8,5.1,8.7,7.7,2.8-1.7,5.6-3.5,8.5-5.3h0Z"/>
  <path class="st0" d="M314.8,253.8v-16.9c-3.2-2-5.9-3.9-8.7-5.9-2.9,2.1-5.7,4-8.5,6v16.9c2.9,2.1,5.6,4.2,8.7,6.4,2.8-2.1,5.6-4.2,8.5-6.5Z"/>
  <path class="st0" d="M340.8,250.5v-4.9s0-12.1,0-12.1c-3.1-1.6-5.9-3.1-8.6-4.6-2.8,2.5-5.6,4.8-8.6,7.3v5.2s.1,11.7.1,11.7c2.9,1.8,5.7,3.5,8.5,5.2,3-2.7,5.8-5.2,8.6-7.8h0Z"/>
  <path class="st0" d="M262.3,231.3c-5.7,3.5-10.4,7.6-13.7,12.2-.5.7-1,1.4-1.4,2.1.9,1,1.9,2,2.8,3,1.6,1.2,3.4,2.5,5.2,3.9,2.6-1.3,5-2.5,7.4-3.7v-8.5s0-8.7,0-8.7c-.1,0-.2-.2-.3-.3h0Z"/>
  <path class="st0" d="M337.1,266.3c4.3-3.1,8.4-6.1,12.2-8.9-1.2-.6-2.4-1.2-3.6-1.8-2.8,2.7-5.6,5.3-8.6,8v2.6h0Z"/>
  <path class="st0" d="M311,283.8c.4.3.7.5,1.1.8,5.5-4,10.8-7.9,16-11.7v-7.7c-2.8-1.7-5.6-3.4-8.6-5.4-2.9,2.3-5.7,4.5-8.5,6.8v6.9s0,10.4,0,10.4h0Z"/>
  <path class="st0" d="M327.8,222.1c-5.5-1.2-11.2-2-17-2.3v3.7c2.8,1.9,5.5,3.7,8.6,5.6,3-2.5,5.8-4.7,8.5-7h0Z"/>
  <path class="st0" d="M203.7,256c-.5-1.5-.9-2.8-1.3-4-.2-.6-.4-1.2-.5-1.8-1.1,2.1-2.2,4.2-3.2,6.4l5,3.5c.2-.6.5-1.2.8-1.8l-.8-2.4h0Z"/>
  <path class="st0" d="M211.5,268c1,.8,3,.1,5.3-1.6-.3,0-.6,0-.9-.1-1.4-1.1,1.1-6.7,5.5-12.4,4.4-5.8,9.1-9.5,10.5-8.5.2.2.3.4.4.8,1-2.8,1.2-4.9.2-5.6-.8-.6-7.5,3.9-13.3,11.5-5.8,7.6-8.8,15.2-7.7,16h0Z"/>
  <polygon class="st0" points="357.8 321.8 396 289.2 382 310.6 409.5 303.3 368.9 330.1 376.3 335.7 439 291.1 397.4 300.2 414.9 266.3 351.7 317.3 357.8 321.8"/>
  <path class="st0" d="M506.8,281.7v11.9c0,5.7,1.4,10.3,11.5,10.3s11.5-4.6,11.5-9.9v-11.9c0-5.7-1.4-10.4-11.5-10.4s-11.5,4.6-11.5,9.9h0ZM520.1,281.8v12.1c0,1.9-.1,3.4-1.9,3.4s-1.8-1.5-1.8-3.4v-12.1c0-1.9.1-3.4,1.9-3.4s1.8,1.5,1.8,3.4Z"/>
  <path class="st0" d="M275.1,396.9c-1,2.6-4.4,4.8-8.5,5.4-1,.1-1.9.2-2.8.1,5.5,11.6,17.4,25.7,42.8,25.7s34.1-8.7,42.2-25.7c-.8,0-1.6,0-2.5-.1-4.4-.6-7.8-3-8.7-5.8-6.6,10.5-18.2,17.6-31.4,17.6s-24.5-6.8-31.1-17.2h0Z"/>
  <polygon class="st0" points="235.1 335.7 242.6 330.1 202 303.3 229.5 310.6 215.4 289.2 253.7 321.8 259.7 317.3 196.5 266.3 214.1 300.2 172.4 291.1 235.1 335.7"/>
  <path class="st0" d="M417.7,158.7c17.6,13.5,26.3,7,32.4-1l18.2-23.8c3.9-5.2,5.6-9.6,5.1-14-.6-5.8-4.7-11.5-12.7-17.6-6.9-5.2-12.7-7.8-17.9-7.8s-1.6,0-2.4.2c-4.3.7-8.2,3.5-12.2,8.6l-18.2,23.8c-6.1,8-10,18.1,7.6,31.5h0ZM423.4,143.2c.5-1.7,1.7-3.5,2.9-5.1l16.8-21.9c1.2-1.6,2.6-3.2,4.1-4.2,2-1.2,4-1.1,5.9.3,4.5,3.4.7,8.3-1.1,10.7l-16.8,21.9c-1.4,1.8-3.8,5-6.9,5s-2-.3-3.1-1.2c-1.9-1.4-2.5-3.4-1.9-5.6h0Z"/>
  <path class="st0" d="M189.7,285.3l7,1.5-5.6-8.3c-.5,2.2-1,4.5-1.4,6.8h0Z"/>
  <path class="st0" d="M373.8,394.4c2.5-.7,4.8-1.7,6.9-3.2.7,1.7,1.7,3.1,3.1,4.2,1.8,1.4,3.9,2,6.2,1.9.1,0,.2,0,.4,0h0c.3,0,.7,0,1-.2,2.7-.6,5-2.3,6.7-4.7,1.6-2.5,2.3-5.5,1.9-8.4-.4-2.9-1.7-5.3-3.8-7-2.8,6.1-7.4,8.3-9.9,9.1.4-.6.9-1.2,1.3-1.8,1.9-2.9,3.2-6,3.8-9.3.5-2.1.6-4.3.6-6.4,0-.5,0-1.1-.1-1.6-.6-6.5-3.5-12.6-8.7-16.6-1-.8-2-1.4-3.1-1.9-2.5-1.3-5.1-2-7.8-2.1-.7-2.8-1.8-4.5-2.3-4.8-.4-.3-3-2.3-7.2-5.4-4.8-3.5-11.8-8.6-20-14.7-.9-.7-1.9-1.4-2.8-2.1,26.1-22.2,49-41.8,55.1-47h0c-3.6-2.8-9-8.2-12.5-13.7-3.5-5.4-6.8-10-8-14.6-.2.1-.3.3-.5.4-11.3,8.3-39.2,28.7-68.1,49.9-29-21.2-56.8-41.6-68.1-49.9-.2-.1-.4-.3-.5-.4-1.2,4.6-4.5,9.2-8,14.6-3.6,5.5-8.9,11-12.5,13.7h0c6,5.2,29,24.7,55.1,46.9-1,.7-1.9,1.4-2.8,2.1-8.3,6.1-15.2,11.2-20,14.7-4.2,3.1-6.8,5-7.2,5.4-.5.4-1.6,2.1-2.3,4.8-2.7.2-5.3.9-7.8,2.1-1,.5-2.1,1.2-3.1,1.9-5.2,4-8.1,10.1-8.7,16.6,0,.5,0,1.1-.1,1.6,0,2.1.1,4.3.6,6.4.7,3.2,2,6.4,3.8,9.3.4.6.8,1.2,1.3,1.8-2.6-.8-7.1-3-9.9-9.1-2.1,1.7-3.5,4.1-3.8,7-.4,2.9.3,5.9,1.9,8.4,1.6,2.5,4,4.2,6.7,4.7.3,0,.7.1,1,.2h.4c2.2.2,4.4-.5,6.1-1.8,1.4-1.1,2.4-2.5,3.1-4.2,2.1,1.5,4.4,2.5,6.9,3.2.3,0,.6.2.9.2,5.9,1.3,11.8.1,16.4-3.7,2.1-1.7,3.5-3.3,4.4-4.6-1.5-1.3-3.1-3-3.9-5-1.7-4.2-1.2-3.5-1.2-3.5,0,0,2.6,2.8,7.4,4.9.8.3,1.5.6,2.1.8.7.2,1.5,0,2.1-.5l7.9-7.5c1.1-1,2.3-2,3.5-3,.9-5.3,3.2-10,6.5-13.9h0c2.3-2.8,5.2-5.1,8.3-6.8h0c4.1-2.2,8.8-3.5,13.7-3.5h0c3.7,0,7.2.7,10.4,1.9h0c5.8,2.2,10.7,6.3,14.1,11.6h0c1.5,2.3,2.6,4.8,3.4,7.5h0c.4,1.2.7,2.5.9,3.7,1,.9,2,1.7,3,2.6l7.9,7.5c.6.5,1.4.7,2.1.5.7-.2,1.4-.5,2.2-.8,4.8-2.1,7.4-4.9,7.4-4.9,0,0,.5-.7-1.2,3.5-.8,2-2.5,3.7-3.9,5,1,1.3,2.4,2.9,4.4,4.6,4.6,3.8,10.6,4.9,16.4,3.7.3,0,.6-.2.9-.2h0ZM239.8,359.3h0c-.4.1-.8.2-1.1.4-1.2.5-2.4,1.2-3.5,2.1h0c-.3.3-.6.5-.9.8,0,0,0,0,0,0,0,0,0,0,0,0-.2.2-.4.4-.5.6h0c-.2.2-.3.4-.5.6h0c-.3.4-.6.8-.9,1.2q-.2.3,0,0c-.1.2-.2.4-.4.6,0,0,0,0,0,0h0s0,0,0,0c-.1.2-.2.4-.3.6,0,.2-.2.3-.3.5s-.2.5-.3.7c0,.1-.1.3-.2.4h0c-.2.4-.3.8-.4,1.2-.1.4-.3.8-.4,1.2h0c-.1.6-.2,1.1-.4,1.7,0,.3-.1.6-.1.9h0c0,.1,0,.2,0,.4,0,.2,0,.4,0,.6h0c0,.5,0,1,0,1.4,0,0,0,.2,0,.3,0,.1,0,.3,0,.4,0,.1,0,.3,0,.4,0,.1,0,.2,0,.3h0c0,.7.2,1.4.3,2.1,0,.3.1.7.2,1,0,0,0,0,0,0,0,.2.1.5.2.7,0,.1,0,.2,0,.3,0,0,0,0,0,0,0,.2.1.4.2.7,0,0,0,.1,0,.2,0,.2.1.4.2.6,0,0,0,0,0,.1,0,0,0,0,0,0,0,.2.1.4.2.6,0,0,0,0,0,.2.1.2.2.5.3.8,0,0,0,.2,0,.2,0,0,0,.2.1.3,0,0,0,.2.1.2,0,.1.1.2.1.3,0,.1.1.3.2.4,0,.1.1.3.2.4l.2.4c0,.1.1.3.2.4,0,0,0,0,0,0,0,0,0,.1,0,.2,0,.2.2.3.3.5h0c-.3-.2-.5-.3-.8-.5,0,0,0,0,0,0h0c-.1,0-.2-.2-.4-.3,0,0,0,0-.1,0,0,0-.1,0-.2-.1,0,0-.2-.1-.2-.2,0,0,0,0,0,0,0,0-.1-.1-.2-.2,0,0,0,0,0,0-.1,0-.2-.2-.3-.2q0,0,0,0c.1,0,0,0,0,0,0,0-.1-.1-.2-.2,0,0-.2-.2-.2-.2,0,0-.1-.1-.2-.2,0,0-.1-.1-.2-.2,0,0,0,0,0,0-.1-.1-.2-.2-.3-.3,0,0-.1-.2-.2-.2,0,0,0,0,0,0,0,0-.1-.2-.2-.3,0,0-.1-.2-.2-.2-.1-.2-.3-.3-.4-.5,0,0,0-.1-.1-.2-.1-.2-.2-.3-.3-.5,0,0-.1-.2-.2-.2,0-.1-.2-.3-.3-.4,0,0,0-.1-.1-.2,0,0,0,0,0,0,0,0,0-.1-.1-.2,0-.2-.2-.3-.3-.4,0,0,0,0,0,0,0,0,0,0,0,0-.1-.2-.2-.4-.3-.6,0,0,0,0,0,0,0,0,0-.1-.1-.2,0-.2-.2-.3-.3-.5s0,0,0,0c0,0,0,0,0-.1,0,0,0-.2-.1-.2,0-.1-.1-.3-.2-.4h0c-.1-.3-.2-.5-.3-.8,0,0,0-.1,0-.2,0-.1,0-.2-.1-.3,0,0,0-.2-.1-.3,0,0,0-.1,0-.2,0-.2-.2-.5-.3-.8h0c0-.3-.2-.6-.2-.9h0c0-.2,0-.3-.1-.5,0,0,0-.2,0-.2,0-.1,0-.2,0-.3,0,0,0-.2,0-.3,0-.1,0-.3,0-.4,0,0,0-.2,0-.3,0-.1,0-.2,0-.4,0-.1,0-.2,0-.4,0,0,0-.2,0-.2,0,0,0,0,0-.1,0,0,0-.2,0-.3,0-.2,0-.3,0-.5,0,0,0,0,0-.1,0,0,0-.1,0-.2,0-.1,0-.2,0-.3,0,0,0-.2,0-.2v-.2h0c0-.2,0-.3,0-.4v-.2h0v-.9h0v-.5h0c0-.3,0-.5,0-.6,0,0,0-.2,0-.3,0-.1,0-.2,0-.3,0-.1,0-.3,0-.4,0,0,0,0,0-.1,0,0,0-.1,0-.2,0,0,0-.1,0-.2,0,0,0,0,0-.1,0,0,0-.1,0-.2,0,0,0-.2,0-.2,0-.1,0-.2,0-.4,0,0,0-.1,0-.2,0,0,0,0,0-.1s0,0,0-.1c0,0,0-.1,0-.2v-.4c.1,0,.1,0,.1-.1,0,0,0,0,0,0,0,0,0-.2,0-.2,0,0,0-.2,0-.2,0,0,0,0,0,0,0,0,0,0,0-.2,0,0,0-.2,0-.3,0-.1,0-.2.1-.3,0,0,0-.2,0-.2,0,0,0,0,0,0,0-.2.1-.3.2-.5,0,0,0-.2.1-.3,0,0,0-.2.1-.3,0-.1.1-.2.2-.4,0-.1.1-.2.2-.4,0,0,0,0,0-.1,0,0,0-.1,0-.2,0,0,0-.1,0-.2,0,0,0,0,0-.1,0-.2.2-.3.2-.4,0,0,.1-.2.2-.3,0,0,.1-.2.2-.3,0,0,0-.1.1-.2,0,0,.1-.2.2-.3,0,0,.1-.2.2-.3,0,0,0,0,0,0,0,0,.1-.2.2-.3.1-.1.2-.3.3-.4h0c0,0,.1-.2.2-.3,0,0,.1-.2.2-.3,0,0,0,0,0,0,0,0,.1-.2.2-.2,0,0,0,0,0,0t0,0c.1-.1.2-.3.4-.4,0,0,.1-.2.2-.2,0,0,.2-.2.3-.3,0,0,.1-.2.2-.2l.2-.2c0,0,.2-.2.3-.3,0,0,0,0,0,0,0,0,.2-.2.2-.2,0,0,.2-.2.3-.2,0,0,.1-.1.2-.2,0,0,.2-.2.3-.2,0,0,.1,0,.1-.1,0,0,.1,0,.2-.2,0,0,.1,0,.1-.1,0,0,0,0,.1-.1.2-.1.4-.3.5-.4,0,0,.2-.1.3-.2,0,0,0,0,0,0,.1-.1.3-.2.5-.3,0,0,0,0,0,0,0,0,.2-.1.3-.2.1,0,.3-.2.4-.3,0,0,0,0,.1,0,0,0,.1,0,.1,0,.2-.2.5-.3.7-.4,0,0,.2-.1.3-.2.1,0,.3-.2.5-.3,0,0,.2-.1.3-.2.2-.1.5-.3.8-.4,0,0,.1,0,.2-.1,0,0,0,0,0,0,.3-.1.6-.3.9-.4,0,0,.1,0,.2,0s0,0,0,0c.2,0,.4-.2.5-.2,0,0,.1,0,.2,0,0,0,0,0,.1,0,0,0,.1,0,.2,0,0,0,.2,0,.3-.1h0s0,0,0,.1c0,0,0,.1,0,.2,0,.3,0,.5,0,.8v.4c0,.6,0,1.2,0,1.8,0,.8.2,1.6.3,2.5.2,1.2.5,2.4.9,3.8h0ZM359.8,296h0s0,0,0,0ZM223.6,272.4c12.2-11,15-22.2,15-22.2,0,0,.3.2.9.7.2.1.4.3.6.5.1,0,.2.1.3.2,4.8,3.6,18.5,14,35.6,27,.4.3.8.6,1.3,1h0c7.8,5.9,15.9,12.1,23.8,18.1-2.2,1.6-4.3,3.2-6.5,4.8-.7.5-1.4,1-2.1,1.6h0l-15.1-11.8-5.9-4.6h0l-24.6-19.5-8.7-6.9c-6.5,9.8-14.6,11.4-14.6,11.4h0ZM228.6,277.3h0s.4-.1,1.2-.5c-.9.4-1.2.5-1.2.5ZM250.8,296.3h0s0,0,0,0ZM233.9,274.3s0,0,0,0c0,0-.1.1-.3.3.2-.2.3-.2.3-.3,0,0,0,0,0,0l47,38.1h0l-47-38.1ZM247.8,359.5s-6.4-9.5,1.2-15.4c2-1.6,13.1-10,28.1-21.4.3-.2.6-.5.9-.7.5-.4,1-.7,1.5-1.1,16-12.1,36-27.3,54.6-41.4h0c17-12.9,30.8-23.4,36.2-27.5,1.6-1.2,2.4-1.9,2.4-1.9,0,0,2.8,11.3,15,22.2,0,0-2.5-.5-5.9-2.6-2.3-1.5-5.1-3.8-7.7-7.3-.3-.5-.7-.9-1-1.4l-33.3,26.4h0l-92.1,72h0ZM363.6,359.5l-37-29c2.8-2.4,5.7-4.8,8.5-7.2,2.2,1.7,4.3,3.2,6.2,4.8,9.3,7.1,16.4,12.5,19.6,14.9.7.5,1.2.9,1.5,1.2,2.6,2,3.6,4.5,3.7,6.8,0,.2,0,.4,0,.6,0,4.2-2.5,7.9-2.5,7.9h0ZM371.6,359.3c.9-3.1,1.3-5.8,1.3-8.1,0-.1,0-.3,0-.4,0-.3,0-.5,0-.8,0,0,0-.2,0-.3h0c.2,0,.3.1.5.2,0,0,.2,0,.3.1.2,0,.4.2.5.2,0,0,.2,0,.2.1.3.1.6.3.9.4,0,0,.2,0,.3.2.3.1.5.3.8.4,0,0,.2,0,.3.2.2,0,.3.2.5.3,0,0,.2.1.3.2.2.1.5.3.7.4,0,0,.2.1.3.2.1,0,.3.2.4.3.1,0,.2.2.4.3.2.1.3.2.5.4,0,0,.2.1.3.2.2.1.4.3.5.4,0,0,.2.2.3.2.1,0,.2.2.3.3,0,0,.2.2.3.2.2.2.3.3.5.4,0,0,.2.2.2.2,0,0,.2.2.3.3.1.1.3.3.4.4,0,0,.2.2.3.3,0,0,.2.2.2.2.1.1.2.3.4.4,0,0,.2.2.2.3,0,0,.2.2.2.3,0,0,.2.2.2.3,0,.1.2.3.3.4,0,0,.1.2.2.3,0,0,.1.2.2.3,0,.2.2.3.3.5,0,0,.1.2.2.3s.1.2.2.3c0,.2.2.3.2.4,0,0,.1.2.2.3s0,.2.2.3c0,.1.1.2.2.4s.1.3.2.4c0,0,0,.2.1.3,0,0,0,.2.1.3,0,.2.1.3.2.5,0,0,0,.2.1.3s0,.2,0,.3c0,.2,0,.3.1.4,0,.1,0,.2,0,.3,0,0,0,.2,0,.3,0,.2,0,.3.1.5,0,0,0,.2,0,.3,0,0,0,.2,0,.3,0,.1,0,.2,0,.4,0,.1,0,.3,0,.4,0,0,0,.2,0,.3,0,.1,0,.2,0,.3,0,.1,0,.3,0,.4,0,.1,0,.2,0,.3,0,0,0,.2,0,.3,0,.2,0,.3,0,.5v1.7c0,.1,0,.2,0,.4,0,.1,0,.3,0,.4,0,.1,0,.2,0,.3,0,0,0,.2,0,.3,0,.2,0,.3,0,.5,0,0,0,.2,0,.3,0,.1,0,.2,0,.3,0,.1,0,.2,0,.4,0,.1,0,.2,0,.4,0,0,0,.2,0,.3,0,.1,0,.3,0,.4,0,0,0,.2,0,.3,0,.1,0,.2,0,.3,0,0,0,.2,0,.2,0,.2,0,.3-.1.4h0c0,.3-.2.6-.2.9h0c0,.3-.2.5-.3.8,0,0,0,.1,0,.2,0,.2-.2.4-.2.6,0,0,0,.1,0,.2-.1.3-.2.5-.3.8,0,0,0,0,0,0-.1.2-.2.5-.3.7,0,0,0,.1,0,.2,0,.2-.2.3-.3.5,0,0,0,.1-.1.2-.1.2-.2.4-.4.7,0,0,0,0,0,0-.1.2-.2.4-.4.6,0,0,0,.2-.2.2,0,.1-.2.3-.3.4,0,0-.1.2-.2.2-.1.2-.2.3-.3.5,0,0,0,.1-.1.2-.1.2-.3.3-.4.5,0,0-.1.2-.2.2,0,.1-.2.2-.3.3,0,0-.1.2-.2.2,0,.1-.2.2-.3.3,0,0-.1.1-.2.2-.2.2-.3.3-.5.4,0,0-.1.1-.2.2,0,0-.2.2-.3.2,0,0-.2.1-.2.2,0,0-.2.2-.3.2,0,0-.1,0-.2.1,0,0,0,0-.1,0-.1,0-.2.2-.4.3h0c-.3.2-.6.4-.9.6h0c0-.2.2-.3.3-.5,0,0,0-.2.1-.2,0-.2.2-.3.2-.4l.2-.4c0-.1.1-.3.2-.4,0-.1.1-.3.2-.4,0-.1,0-.2.2-.3,0-.2.2-.4.2-.5,0,0,0-.2,0-.2,0-.2.2-.5.3-.8,0,0,0-.1,0-.2,0-.2.2-.4.2-.6,0,0,0-.1,0-.2,0-.2.1-.4.2-.6,0,0,0-.1,0-.2,0-.2.1-.4.2-.7,0,0,0,0,0,0,0-.3.2-.7.3-1,0,0,0,0,0,0,.2-.7.3-1.5.4-2.2,0-.3,0-.6,0-.9h0c0-.3,0-.5,0-.8s0-.5,0-.7c0-.5,0-1,0-1.4h0c0-.3,0-.6,0-.9h0c0-.9-.3-1.8-.5-2.6h0c-.2-.9-.5-1.6-.8-2.4,0,0,0,0,0,0-.3-.8-.7-1.5-1.1-2.1h0c-.2-.2-.3-.5-.4-.7h0c-.3-.4-.6-.8-.9-1.2h0c-.2-.2-.3-.4-.5-.6h0c-.1-.1-.2-.3-.4-.4l-.4-.4c-.3-.2-.5-.5-.8-.7h0c-1.5-1.2-3.1-2.1-4.6-2.5h0Z"/>
  <path class="st0" d="M358.9,402.9l-1.7,3.6c-1.2,2.4-2.4,4.7-3.8,6.8,5.7-2.5,11.1-5.5,16.3-8.9-.5,0-.9,0-1.4,0-3.3,0-6.4-.5-9.4-1.6h0Z"/>
  <path class="st0" d="M466.6,189.6l-9.2,4.9,9.4,17.8,9.1-4.8c0-2.6,2-4.2,5.5-6l17.3-9.2-4.7,5.5c-1.9,2.2-3.5,4.1-4.7,5.7l-16.4,20.1,9.1,17.1,44.5-23.5c3.6-1.9,5.5-2.4,8.1-1l9.2-4.9-9.7-18.4-9.1,4.8c0,2.8-2.2,4.3-5.5,6.2l-17.8,9.4,26.6-31.1-10.4-19.6-9.2,4.9c-.2,2.9-1.6,4.1-5.4,6.1l-28.6,15.2c-3.6,1.9-5.5,2.4-8,1h0Z"/>
  <path class="st0" d="M282,378.1c0,13.5,10.8,24.4,24.1,24.4s20.3-7.5,23.2-17.7c-4.1,7.5-12,12.5-21.1,12.5-13.3,0-24.1-10.9-24.1-24.5s.3-4.6.9-6.8c-1.9,3.5-3.1,7.6-3.1,11.9Z"/>
  <path class="st0" d="M533.5,272.4v5.5c1,.5,1.2,1,1.2,3v14.1c0,1.9-.2,2.4-1.2,2.9v5.5h12.1v-5.5c-1-.5-1.2-1-1.2-2.9v-22.5h-10.8Z"/>
  <path class="st0" d="M324,365.2c.3-.8.5-1.6.5-2.5,0-3.5-2.8-6.4-6.3-6.4s-4.9,1.7-5.8,4c-.3.7-.4,1.5-.4,2.3,0,3.5,2.8,6.4,6.3,6.4s4.8-1.6,5.8-3.9h0Z"/>
  <path class="st0" d="M537.8,345.5c-11.9-3.4-17.3-1-24.5,10.5l-3.5,5.5c-3.4,5.4-5.5,7.4-10,6.2-1.8-.5-3.2-1.4-4-2.7-.9-1.3-1.1-2.9-.6-4.5.7-2.5,2.3-3.8,4.6-4,1.8-.2,4.1.4,6.5,1.1l4.9-17.2-15-4.3c-6.8,6.2-10.9,12.7-13.4,21.7-4.8,16.6-.9,25.4,13,29.3,13.2,3.8,17.4-.7,25.1-13.5,4.7-7.8,7.3-10.2,13-8.5,4.5,1.3,6.5,4.1,5.4,7.6-.7,2.5-2.3,3.8-4.8,4-2.1.1-4.9-.6-7.7-1.4l-.5-.2-5.2,18.1,17.1,4.9c7.1-6.3,10.6-12.2,13.4-22,4.8-16.9.6-26.3-13.9-30.5Z"/>
  <path class="st0" d="M472.4,413.4l-7.9-6.8-13.6,15.7,7.8,6.7c2.6-1.1,4.8.5,7.7,2.9l15.2,13.2-38.7-13.5-14.5,16.8,7.9,6.8c2.7-.9,4.4,0,7.7,2.8l24.5,21.2c3.1,2.7,4.3,4.3,3.8,7.1l7.9,6.8,13.2-15.2-7.8-6.7c-2.4,1-4.6-.3-7.6-2.9l-14.8-12.8,6.8,2.4c2.8,1,5.1,1.7,7,2.3l24.7,8,12.7-14.6-38-33c-3.1-2.7-4.2-4.3-3.9-7.2h0Z"/>
  <path class="st0" d="M171.8,435.6l-18.6-22.3-44.4,24.9c-3.7,2.1-5.4,2.8-8,2.5l-8.1,6.8,14,16.7,7.9-6.6c-.5-2,.2-3.9,1.8-5.2.5-.4,1.1-.7,2.1-1.3l1-.5,8.2,9.8-.6.9c-.8,1.1-1.2,1.5-1.6,1.8-1.4,1.2-3.1,1.5-5.1,1l-8,6.7,16.1,19.2,8-6.7c-.2-2.5,1.2-4.8,4.2-8.7l31.2-39.2h0ZM134.2,453l-6.4-7.7,12.1-7.6c.7-.4,1.4-.9,2.1-1.3,2.1-1.3,4.2-2.7,6.1-4l1-.8,1.7,2.1-.8.9c-2.5,2.6-4,4.4-5.4,6-.4.5-.8.9-1.1,1.3l-9.2,11h0Z"/>
  <path class="st0" d="M512.2,99.2C457,44,383.7,13.7,305.7,13.7s-151.4,30.4-206.5,85.5S13.6,227.7,13.6,305.7s30.4,151.3,85.5,206.5c55.2,55.2,128.5,85.5,206.5,85.5s151.4-30.4,206.5-85.5,85.5-128.5,85.5-206.5-30.4-151.4-85.5-206.5h0ZM305.7,584.1c-153.8,0-278.4-124.6-278.4-278.4S151.9,27.3,305.7,27.3s278.4,124.6,278.4,278.4-124.6,278.4-278.4,278.4Z"/>
  <path class="st0" d="M83.9,293.6h-9.1v.4c0,2.2-.7,2.8-3,2.9h-1.2v-.3c0-1.7,0-2,4.5-4.3l3.3-1.7c4.4-2.3,6-4.4,6-9.3s-3.7-9.4-11.3-9.4-7.7.9-11.4,3.3v8.4h9.1v-2.3c0-1.9.6-2.7,2-2.7s2,.9,2,2.4-.6,2.2-2.2,3.2c-.6.3-.9.5-3.5,1.8-6.6,3.2-7.9,4.9-7.9,10.6v6.9h22.8v-9.7h0Z"/>
  <path class="st0" d="M311.9,502.2c2.5,1.3,2.7,4,2.8,7.8l-.3,20.1-14.5-38.3-22.2-.4-.2,10.4c2.4,1.5,2.8,3.4,2.8,7.7l-.5,32.4c0,4.1-.5,6-3,7.5l-.2,10.4,20.2.3.2-10.3c-2.3-1.2-2.7-3.7-2.7-7.7l.3-19.6,2.5,6.8c1,2.8,1.9,5,2.7,6.9l9.7,24.1,19.4.3.8-50.3c0-4.1.5-6,3-7.5l.2-10.4-20.8-.3-.2,10.3h0Z"/>
  <path class="st0" d="M413,482.5c-2.9-6.4-7.1-12.3-16.2-12.3s-9,1.2-15.2,4c-9.1,4.1-14.5,8.8-16.3,14.2-1.4,4.2-.8,8.9,1.8,14.8l12.3,27.3c4.2,9.2,11.2,17.4,31.4,8.3,9.1-4.1,14.5-8.8,16.3-14.2,1.4-4.2.8-8.9-1.8-14.8l-12.3-27.3h0ZM405.7,527.4c-.8.4-1.6.5-2.3.5-1.3,0-2.5-.5-3.5-1.5-1.3-1.3-2.2-3.2-3.1-5l-11.4-25.2c-1.2-2.7-3.8-8.3,1.4-10.7,2.1-1,4.2-.6,5.8,1,1.3,1.3,2.2,3.2,3.1,5l11.4,25.2c1.2,2.7,3.8,8.3-1.4,10.7h0Z"/>
  <path class="st0" d="M88,281.7v11.9c0,5.7,1.4,10.3,11.5,10.3s11.5-4.6,11.5-9.9v-11.9c0-5.7-1.4-10.4-11.5-10.4s-11.5,4.6-11.5,9.9h0ZM101.3,281.8v12.1c0,1.9-.1,3.4-1.9,3.4s-1.8-1.5-1.8-3.4v-12.1c0-1.9.1-3.4,1.9-3.4s1.8,1.5,1.8,3.4Z"/>
  <path class="st0" d="M227.6,486c1.8,2.2.8,4.7-.7,8.2l-8.6,18.1,2.8-40.9-20-9.6-4.5,9.4c1.6,2.4,1.1,4.3-.7,8.1l-13.9,29.2c-1.8,3.7-3,5.3-5.8,5.5l-4.5,9.4,18.2,8.7,4.4-9.3c-1.6-2-.9-4.5.8-8.1l8.4-17.7-.5,7.2c-.2,2.9-.3,5.3-.4,7.4l-1.2,25.9,17.5,8.3,21.6-45.4c1.8-3.7,3-5.2,5.9-5.6l4.5-9.4-18.8-9-4.4,9.3h0Z"/>
  <path class="st0" d="M401.2,368.2c0,.2,0,.5,0,.8l.7.5c.6.5,1.2,1,1.7,1.5,11.1-16.6,18.1-36.2,19.6-57.2l-37.7,26.8c1.2.7,2.3,1.4,3.3,2.2,7,5.4,11.5,13.9,12.3,23.3,0,.7.1,1.5.1,2.2h0Z"/>
  <path class="st0" d="M88.3,373l-7.2,2c-2.8.8-4.5,1-5.9.7-1.8-.3-2.9-1.5-3.5-3.4-1.3-4.8,3.2-6.5,7.6-7.9l26.7-7.5c2.7-.8,4.7-1,6.2-.7,1.9.4,3.1,1.5,3.7,3.5,1,3.4-.7,5.7-4.8,6.9l-5.7,1.6,5.1,18.2,17.1-4.8c2.8-7.8,2.8-16.2.1-25.7-4.2-14.9-11-19-18.5-19s-5.9.6-8.8,1.4l-27.7,7.8c-9.8,2.8-19,8.4-13.1,29.4,2.8,9.9,6.4,15.8,13.1,21.6l20.7-5.8-5.1-18.2h0Z"/>
  <path class="st0" d="M171.9,237.9l10.9,7.6c22.3-45.4,69-76.7,122.9-76.7s99.5,30.6,122.1,75.1l10.5-8.5c-25.2-47.5-75.2-79.9-132.6-79.9s-109,33.5-133.8,82.2Z"/>
  <path class="st0" d="M257.2,96.2c9.1.6,12.4,1.8,13.5,7.6.4,2.1.3,3.8-.2,5.2-.7,1.6-2.1,2.7-4,3.1-2.5.5-4.5-.3-5.8-2.5-1.1-1.8-1.7-4.6-2.3-7.5v-.5c-.1,0-18.5,3.7-18.5,3.7l3.5,17.5c8.9,3.4,15.7,3.8,25.7,1.8,8.7-1.8,14.6-4.7,18-9.1,3.3-4.3,4.2-9.9,2.7-17.3-2.4-12.1-7-15.9-20.5-16.9l-6.5-.5c-6.3-.5-9.1-1.5-10.1-6-.4-1.9-.2-3.5.5-4.8.8-1.4,2-2.3,3.7-2.6,2.5-.5,4.4.2,5.7,2.2,1,1.6,1.6,3.9,2.1,6.3l17.6-3.5-3.1-15.3c-8.6-3.2-16.3-3.8-25.4-2-16.9,3.4-22.9,10.9-20.1,25,2.7,13.4,8.6,15.1,23.5,16.1h0Z"/>
  <path class="st0" d="M341.8,71c.6-2.5,2.2-5.3,6.6-4.3l1.4.3-8.3,37.3c-.9,3.9-2.2,5.7-5.3,6.8l-2.3,10.2,25.4,5.7,2.3-10.2c-2.4-2.3-2.8-4.4-1.9-8.5l8.3-37.3,1.4.3c1.6.4,2.7,1,3.5,2,.8,1.2,1,2.7.6,4.6l-2.6,11.8,12.7,2.9,6.5-28.8-57.1-12.8-6.5,28.8,12.7,2.9,2.6-11.8h0Z"/>
  <path class="st0" d="M306.6,183.4c-38.7,0-74.9,14.5-90.1,36-6.8,9.6-8.6,19.6-5.4,29.8.4,1.3.9,2.8,1.4,4.4.8-1.3,1.6-2.6,2.5-3.9h0c0-.3,0-.7,0-1-.3-4.2-.1-9.1,1.5-14.2,1.1-3.5,2.8-7.1,5.4-10.7.9-1.3,1.9-2.5,3.1-3.8h0c3.3-3.6,13.7-13.6,32.4-20.9,12.3-4.9,28.2-8.6,48-8.6h1.6c19.8,0,35.8,3.8,48.1,8.6,1,.4,2,.8,3,1.2.2,0,.3.1.5.2,16.4,7.1,25.8,16.1,28.8,19.5,1.9,2.1,3.4,4.1,4.7,6.2.5.7.8,1.5,1.2,2.2.7,1.3,1.3,2.7,1.8,4,.2.5.4,1.1.6,1.6,1.8,5.4,2,10.6,1.7,15,1.1,1.5,2,2.9,2.9,4.4.5-1.6,1.1-3.2,1.6-4.7,3.3-9.9,1.7-19.7-4.9-29.1-14.9-21.6-51.2-36.1-90.2-36.1h0Z"/>
  <path class="st0" d="M155.6,305.7c0,82.7,67.3,150,150.1,150s150.1-67.3,150.1-150-.2-9.7-.7-14.5l-12.6,9c0,1.8.1,3.7.1,5.5,0,75.5-61.4,136.9-136.8,136.9s-136.9-61.4-136.9-136.8,0-3.7.1-5.6l-12.6-9c-.5,4.8-.7,9.6-.7,14.5h0Z"/>
  <path class="st0" d="M164.6,154.5c3.8,5.2,7.6,8.1,12,8.9,5.7,1.1,12.4-1.3,20.5-7.2,8.1-5.9,12.4-11.5,13.1-17.3.5-4.4-1-8.9-4.8-14.1l-17.6-24.2c-3.8-5.2-7.6-8.1-12-8.9-.9-.2-1.8-.2-2.7-.2-5.1,0-10.9,2.4-17.7,7.4-8.1,5.9-12.4,11.5-13.1,17.3-.5,4.4,1,8.9,4.8,14.1l17.6,24.2h0ZM162.6,109.1c1.9-1.4,3.9-1.5,5.9-.2,1.5,1,2.8,2.6,4,4.3l16.2,22.3c1.2,1.6,2.4,3.4,2.8,5.1.6,2.2-.1,4.2-2,5.6-1.1.8-2.1,1.1-3.1,1.1-3.1,0-5.5-3.4-6.9-5.2l-16.2-22.3c-1.2-1.6-2.4-3.4-2.8-5.1-.6-2.3.1-4.2,2-5.6h0Z"/>
  <path class="st0" d="M158.1,278.4l12.9,2.8c1.5-8,3.6-15.8,6.4-23.3l-8.8-13.2c-4.8,10.6-8.3,21.9-10.5,33.7h0Z"/>
  <path class="st0" d="M88.3,212.3l26.4,14.8c4.5,2.5,5.9,3.6,6.1,6.7l9.1,5.1,15.7-28c3.6-6.5,5.1-11.3,4.8-15.4-.4-5.1-3.8-9.4-10.4-13.1-8.2-4.6-13.5-4-19.1,2.1l-3.2,3.5.9-4.7c1.4-7.9-.6-12.1-8-16.2-10.3-5.8-17.3-2.8-24.8,10.6l-15.5,27.7,9.1,5.1c2.7-1.5,4.4-.8,9,1.7h0ZM116.3,201.7c2.8-4.9,6.4-5.8,11.7-2.8,5.5,3.1,6.8,6.6,4.1,11.6l-1.9,3.4-15.8-8.8,1.9-3.3h0ZM93.5,188.9c.9-1.6,2.2-3.5,4.2-4.2,1.8-.6,3.8-.2,6.4,1.2,2.3,1.3,3.7,2.8,4.2,4.5s.1,3.7-1.2,6l-1.9,3.3-13.5-7.6,1.9-3.3h0Z"/>
  <path class="st1" d="M587.4,186.7c-15.4-36.4-37.4-69.1-65.5-97.2-28.1-28.1-60.8-50.1-97.2-65.5C387,8.1,347,0,305.7,0s-81.3,8.1-119,24c-36.4,15.4-69.1,37.4-97.2,65.5s-50.1,60.8-65.5,97.2C8.1,224.4,0,264.5,0,305.7s8.1,81.3,24,119c15.4,36.4,37.4,69.1,65.5,97.2s60.8,50.1,97.2,65.5c37.7,16,77.8,24,119,24s81.3-8.1,119-24c36.4-15.4,69.1-37.4,97.2-65.5s50.1-60.8,65.5-97.2c16-37.7,24-77.8,24-119s-8.1-81.3-24-119ZM512.2,512.2c-55.2,55.2-128.5,85.5-206.5,85.5s-151.4-30.4-206.5-85.5S13.6,383.7,13.6,305.7s30.4-151.4,85.5-206.5S227.7,13.7,305.7,13.7s151.3,30.4,206.5,85.5c55.2,55.2,85.5,128.5,85.5,206.5s-30.4,151.3-85.5,206.5Z"/>
  <path class="st1" d="M97.7,281.8v12.1c0,1.9,0,3.4,1.8,3.4s1.9-1.5,1.9-3.4v-12.1c0-1.9,0-3.4-1.8-3.4s-1.9,1.5-1.9,3.4Z"/>
  <path class="st1" d="M516.5,281.8v12.1c0,1.9,0,3.4,1.8,3.4s1.9-1.5,1.9-3.4v-12.1c0-1.9,0-3.4-1.8-3.4s-1.9,1.5-1.9,3.4Z"/>
  <path class="st1" d="M305.7,27.3C152,27.3,27.3,152,27.3,305.7s124.6,278.4,278.4,278.4,278.4-124.6,278.4-278.4S459.5,27.3,305.7,27.3h0ZM545.6,297.8v5.5h-12.1v-5.5c1-.5,1.2-1,1.2-2.9v-14.1c0-2-.2-2.5-1.2-3v-5.5h10.8v22.6c0,2,.2,2.4,1.2,2.9h0ZM503.2,173.5c3.8-2,5.2-3.3,5.4-6.1l9.2-4.9,10.4,19.6-26.6,31.1,17.8-9.4c3.3-1.9,5.6-3.4,5.5-6.2l9.1-4.8,9.7,18.4-9.2,4.9c-2.5-1.4-4.4-.9-8.1,1l-44.5,23.5-9.1-17.1,16.4-20.1c1.3-1.6,2.8-3.5,4.7-5.7l4.7-5.5-17.3,9.2c-3.5,1.9-5.5,3.4-5.5,6l-9.1,4.8-9.4-17.8,9.2-4.9c2.4,1.5,4.3,1,8-1l28.6-15.2h0ZM529.8,282.2v11.9c0,5.2-1.7,9.9-11.5,9.9s-11.5-4.7-11.5-10.3v-11.9c0-5.2,1.7-9.9,11.5-9.9s11.5,4.7,11.5,10.3ZM410.1,127.2l18.2-23.8c3.9-5.2,7.8-7.9,12.2-8.6.8-.1,1.6-.2,2.4-.2,5.2,0,11,2.6,17.9,7.8,8,6.1,12.1,11.8,12.7,17.6.5,4.4-1.2,8.8-5.1,14l-18.2,23.8c-6.1,8-14.8,14.5-32.4,1-17.6-13.5-13.7-23.5-7.6-31.5h0ZM214.1,300.2l-17.6-33.9,63.2,51-6,4.5-38.3-32.6,14,21.4-27.5-7.3,40.6,26.9-7.4,5.6-62.7-44.5,41.7,9.1h0ZM189.8,285.3c.4-2.3.9-4.6,1.4-6.8l5.6,8.3-7-1.5h0ZM198.7,256.6c1-2.2,2.1-4.3,3.2-6.4.2.6.3,1.2.5,1.8.4,1.2.8,2.5,1.3,4l.8,2.4c-.3.6-.5,1.2-.8,1.8l-5-3.5h0ZM414.9,266.3l-17.6,33.9,41.7-9.1-62.7,44.5-7.4-5.6,40.6-26.9-27.5,7.3,14-21.4-38.2,32.6-6-4.5,63.2-51h0ZM407.7,260.2l1.3-3.8c.5-1.5,1-3,1.5-4.4.7,1.4,1.4,2.8,2.1,4.3l-4.8,3.9ZM420.1,278c.6,2.4,1.1,4.8,1.5,7.3l-6.9,1.5,5.4-8.8h0ZM433.4,256.4l8.5-13.8c5.2,11.3,9.2,23.3,11.5,35.9l-12.9,2.8c-1.6-8.6-3.9-16.9-7-24.9ZM356.5,391c-2.1-1.7-3.5-3.3-4.4-4.6,1.5-1.3,3.1-3,3.9-5,1.7-4.2,1.2-3.5,1.2-3.5,0,0-2.6,2.8-7.4,4.9-.8.3-1.5.6-2.2.8-.7.2-1.5,0-2.1-.5l-7.9-7.5c-1-.8-2-1.7-3-2.6-.2-1.3-.5-2.5-.9-3.7h0c-.8-2.7-1.9-5.2-3.4-7.5h0c-3.3-5.2-8.3-9.3-14.1-11.6h0c-3.2-1.2-6.7-1.9-10.4-1.9h0c-5,0-9.7,1.3-13.7,3.5h0c-3.2,1.8-6,4.1-8.3,6.8h0c-3.3,3.9-5.6,8.7-6.5,13.9-1.2,1-2.4,2-3.5,3l-7.9,7.5c-.6.5-1.4.7-2.1.5-.6-.2-1.4-.5-2.1-.8-4.8-2.1-7.4-4.9-7.4-4.9,0,0-.5-.7,1.2,3.5.8,2,2.5,3.7,3.9,5-1,1.3-2.4,2.9-4.4,4.6-4.6,3.8-10.6,4.9-16.4,3.7-.3,0-.6-.2-.9-.2-2.5-.7-4.8-1.7-6.9-3.2-.7,1.7-1.7,3.1-3.1,4.2-1.8,1.4-3.9,2-6.1,1.9-.1,0-.2,0-.4,0h0c-.3,0-.7,0-1-.2-2.7-.6-5-2.3-6.7-4.7-1.6-2.5-2.3-5.5-1.9-8.4.4-2.9,1.7-5.3,3.8-7,2.8,6.1,7.4,8.3,9.9,9.1-.4-.6-.9-1.2-1.3-1.8-1.9-2.9-3.2-6-3.8-9.3-.5-2.1-.6-4.3-.6-6.4,0-.5,0-1.1.1-1.6.6-6.5,3.5-12.6,8.7-16.6,1-.8,2-1.4,3.1-1.9,2.5-1.3,5.1-2,7.8-2.1.7-2.8,1.8-4.5,2.3-4.8.4-.3,3-2.3,7.2-5.4,4.8-3.5,11.7-8.6,20-14.7.9-.7,1.9-1.4,2.8-2.1-26.1-22.2-49-41.8-55.1-47h0c3.6-2.8,9-8.2,12.5-13.7,3.5-5.4,6.8-10,8-14.6.2.1.4.3.5.4,11.3,8.3,39.2,28.7,68.1,49.9,29-21.2,56.8-41.6,68.1-49.9.2-.1.4-.3.5-.4,1.2,4.6,4.5,9.2,8,14.6,3.6,5.5,8.9,11,12.5,13.7h0c-6,5.2-29,24.7-55.1,46.9,1,.7,1.9,1.4,2.8,2.1,8.3,6.1,15.2,11.2,20,14.7,4.2,3.1,6.8,5,7.2,5.4.5.4,1.6,2.1,2.3,4.8,2.7.2,5.3.9,7.8,2.1,1,.5,2.1,1.2,3.1,1.9,5.2,4,8.1,10.1,8.7,16.6,0,.5,0,1.1.1,1.6,0,2.1-.1,4.3-.6,6.4-.7,3.2-2,6.4-3.8,9.3-.4.6-.8,1.2-1.3,1.8,2.6-.8,7.2-3,9.9-9.1,2.1,1.7,3.5,4.1,3.8,7,.4,2.9-.3,5.9-1.9,8.4-1.6,2.5-4,4.2-6.7,4.7-.3,0-.7.1-1,.2h-.4c-2.2.2-4.3-.5-6.2-1.8-1.4-1.1-2.4-2.5-3.1-4.2-2.1,1.5-4.5,2.5-6.9,3.2-.3,0-.6.2-.9.2-5.9,1.3-11.8.1-16.4-3.7h0ZM369.7,404.5c-5.2,3.4-10.6,6.3-16.3,8.9,1.4-2.1,2.6-4.4,3.8-6.8l1.7-3.6c3,1,6.2,1.6,9.4,1.6s.9,0,1.4,0h0ZM308.3,397.4c9,0,16.9-5,21.1-12.5-2.9,10.2-12.2,17.7-23.2,17.7s-24.1-11-24.1-24.4,1.1-8.4,3.1-11.9c-.6,2.2-.9,4.4-.9,6.8,0,13.5,10.8,24.5,24.1,24.5ZM311.9,362.7c0-.8.2-1.6.4-2.3.9-2.4,3.2-4,5.8-4s6.3,2.9,6.3,6.4-.2,1.7-.5,2.5c-1,2.3-3.2,3.9-5.8,3.9s-6.3-2.9-6.3-6.4h0ZM306.3,414.1c13.2,0,24.8-7,31.4-17.6.8,2.7,4.3,5.2,8.7,5.8.9.1,1.7.2,2.5.1-8.1,17-22.2,25.7-42.2,25.7s-37.3-14.1-42.8-25.7c.9,0,1.8,0,2.8-.1,4.2-.6,7.5-2.8,8.5-5.4,6.6,10.3,18.1,17.2,31.1,17.2h0ZM259.9,414.1c-6.4-2.7-12.4-6-18.2-9.7.5,0,.9,0,1.4,0,3.7,0,7.2-.7,10.5-2l1.9,4c1.3,2.7,2.8,5.3,4.4,7.7h0ZM210.4,366c0,.8-.1,1.5-.1,2.2,0,.2,0,.5,0,.7l-.7.5c-.6.5-1.1,1-1.7,1.5-11.1-16.6-18.1-36.2-19.6-57.2l37.8,26.8c-1.2.7-2.3,1.4-3.3,2.2-7,5.4-11.5,13.8-12.3,23.2h0ZM389.9,253.8c-4.4-5.8-9.1-9.5-10.5-8.5-.2.2-.3.4-.3.8-1-2.8-1.2-4.9-.2-5.6.8-.6,7.5,3.9,13.3,11.5,5.8,7.6,8.8,15.2,7.7,16-1,.8-3,.1-5.3-1.6.3,0,.6,0,.8-.1,1.4-1.1-1.1-6.7-5.5-12.4h0ZM389.4,240.5c-2.7-2.1-5.2-3.5-7.3-3.8h0c-1.3-.3-4.3-.2-5.5.6l-.3.2c-.4-.6-.8-1.2-1.2-1.8-12.5-17.8-39.4-29.2-68.5-29.2s-55.6,11.4-68.3,29.1c-.7,1-1.3,1.9-1.9,2.9l-1.6-1.2c-1.1-.8-2.4-1-3.7-.7-.2,0-.4.1-.6.2-2.2.5-4.9,2-7.6,4.3.8-3.9,2.2-7.9,4.8-11.8.6-.9,1.2-1.7,1.9-2.6,0,0,0,0,0,0,10.4-13,38.2-28.4,75.8-28.4h1.6c.2,0,.5,0,.8,0h1c.6,0,1.3,0,1.9,0,.5,0,1,0,1.5,0,3.9.1,7.8.5,11.5.9,29.1,3.7,50.4,16.4,59.2,27.4.2.2.4.5.6.8,3.2,4.3,5.1,8.8,6,13.1h0ZM365.4,244.6c-1,1-2,2.1-3,3.1-1.6,1.2-3.4,2.5-5.2,3.8-2.4-1.1-4.8-2.2-7.4-3.6v-10.3c0,0,0-6.8,0-6.8,0,0,.2-.2.2-.2,6.2,3.6,11.3,8,14.8,12.9.2.4.4.7.7,1h0ZM271.6,251.1v-17.1c2.8-1.6,5.6-3.1,8.3-4.7,2.9,2.5,5.7,4.9,8.7,7.2v4.6s0,12.3,0,12.3c-2.9,1.9-5.7,3.6-8.5,5.3-2.9-2.5-5.7-5-8.6-7.7h0ZM276,267.6c-4.4-3.2-8.6-6.3-12.5-9.2,1.3-.7,2.5-1.4,3.9-2.1,2.8,2.6,5.6,5.1,8.7,7.9v3.4ZM284.7,222.4h0c5.5-1.4,11.2-2.2,17.1-2.5v3.7c-2.7,1.9-5.4,3.8-8.5,5.8-3.1-2.4-5.8-4.7-8.6-7h0ZM284.8,265.2c2.8-1.7,5.5-3.4,8.6-5.4,2.9,2.3,5.7,4.5,8.5,6.8v6.9s0,10.4,0,10.4c-.4.3-.7.5-1.1.8-5.5-4-10.8-7.9-16-11.7v-7.7h0ZM297.6,253.9v-16.9c2.8-2,5.6-3.9,8.4-6,2.8,2,5.5,3.8,8.6,5.9v16.9c-2.9,2.3-5.6,4.4-8.4,6.5-3.1-2.2-5.8-4.3-8.6-6.4ZM310.7,219.8c5.9.2,11.6,1,17,2.3-2.7,2.3-5.4,4.5-8.5,7-3-1.9-5.8-3.7-8.6-5.6v-3.7s0,0,0,0ZM319.5,259.8c3.1,2,5.8,3.7,8.6,5.4v7.7c-5.1,3.8-10.5,7.7-16,11.7-.4-.2-.7-.5-1.1-.8v-10.4c0,0,0-6.9,0-6.9,2.9-2.2,5.7-4.4,8.5-6.8h0ZM323.7,253.1v-11.7c0,0-.1-5.2-.1-5.2,3-2.5,5.8-4.9,8.6-7.3,2.7,1.5,5.4,3,8.6,4.6v12.1c0,0,0,4.9,0,4.9-2.8,2.6-5.6,5.1-8.6,7.8-2.9-1.7-5.7-3.4-8.5-5.2h0ZM345.7,255.6c1.2.6,2.4,1.2,3.6,1.8-3.8,2.8-7.9,5.8-12.2,8.9h0c0,0,0-2.7,0-2.7,3-2.7,5.8-5.4,8.6-8ZM262.7,248.7c-2.4,1.2-4.8,2.4-7.4,3.7-1.9-1.4-3.6-2.6-5.2-3.9-1-1-1.9-2-2.8-3,.4-.7.9-1.4,1.4-2.1,3.3-4.6,8-8.7,13.7-12.2.1,0,.2.2.3.3v8.7s0,8.5,0,8.5h0ZM232.5,240.5c1,.8.8,2.9-.2,5.6,0-.3-.1-.6-.4-.8-1.4-1.1-6.1,2.7-10.5,8.5-4.4,5.8-6.8,11.3-5.5,12.4.2.2.5.2.9.1-2.4,1.7-4.3,2.3-5.3,1.6-1.1-.8,1.9-8.4,7.7-16,5.8-7.6,12.5-12.1,13.3-11.5h0ZM388.7,342.8c-1-.8-2.1-1.5-3.3-2.2l37.7-26.8c-1.5,21.1-8.5,40.6-19.6,57.2-.5-.5-1.1-1.1-1.7-1.5l-.7-.5c0-.2,0-.5,0-.8,0-.7,0-1.4-.1-2.2-.8-9.4-5.3-17.9-12.3-23.3h0ZM401.8,248.7c-.5,1.5-1,3.1-1.6,4.7-.8-1.5-1.8-2.9-2.9-4.4.4-4.4.1-9.6-1.7-15-.2-.5-.3-1.1-.6-1.6-.5-1.3-1.1-2.6-1.8-4-.4-.7-.8-1.5-1.2-2.2-1.3-2.1-2.8-4.1-4.7-6.2-3.1-3.4-12.4-12.3-28.8-19.5-.2,0-.3-.1-.5-.2-1-.4-2-.8-3-1.2-12.3-4.9-28.3-8.6-48.1-8.6h-1.6c-19.8,0-35.7,3.7-48,8.6-18.6,7.3-29.1,17.3-32.4,20.9h0c-1.1,1.3-2.1,2.5-3.1,3.8-2.6,3.6-4.3,7.2-5.4,10.7-1.6,5.1-1.8,10-1.5,14.2,0,.3,0,.7,0,1h0c-.9,1.3-1.8,2.6-2.5,3.9-.5-1.6-1-3.1-1.4-4.4-3.2-10.1-1.4-20.1,5.4-29.8,15.1-21.5,51.3-36,90.1-36s75.3,14.5,90.2,36.1c6.5,9.5,8.2,19.3,4.9,29.1h0ZM171.1,281.3l-12.9-2.8c2.2-11.8,5.7-23,10.5-33.7l8.8,13.2c-2.8,7.5-5,15.2-6.4,23.3h0ZM169,300.1c0,1.8-.1,3.7-.1,5.6,0,75.5,61.4,136.8,136.8,136.8s136.8-61.4,136.8-136.8,0-3.7-.1-5.5l12.6-9c.5,4.8.7,9.6.7,14.5,0,82.7-67.3,150-150.1,150s-150-67.3-150-150,.2-9.8.7-14.5l12.6,9h0ZM332.9,51.1l57.1,12.8-6.5,28.8-12.7-2.9,2.6-11.8c.4-1.9.2-3.5-.6-4.6-.7-1-1.8-1.7-3.5-2l-1.4-.3-8.3,37.3c-.9,4-.5,6.2,1.9,8.5l-2.3,10.2-25.4-5.7,2.3-10.2c3.1-1.1,4.5-2.9,5.3-6.8l8.3-37.3-1.4-.3c-4.5-1-6.1,1.8-6.6,4.3l-2.6,11.8-12.7-2.9,6.5-28.8h0ZM438.3,235.5l-10.5,8.5c-22.6-44.5-68.8-75.1-122.1-75.1s-100.6,31.3-122.9,76.7l-10.9-7.6c24.8-48.8,75.5-82.2,133.8-82.2s107.4,32.4,132.6,79.9h0ZM253.7,55.1c9.2-1.9,16.8-1.3,25.4,2l3.1,15.3-17.6,3.5c-.5-2.4-1.1-4.7-2.1-6.3-1.3-2-3.2-2.8-5.7-2.2-1.7.3-3,1.3-3.7,2.6-.7,1.3-.9,3-.5,4.8.9,4.5,3.7,5.5,10.1,6l6.5.5c13.5,1,18.1,4.8,20.5,16.9,1.5,7.4.6,13-2.7,17.3-3.4,4.3-9.2,7.3-18,9.1-10,2-16.8,1.6-25.7-1.8l-3.5-17.5,18.4-3.7v.5c.7,2.9,1.3,5.7,2.4,7.5,1.3,2.1,3.2,3,5.8,2.5,1.9-.4,3.3-1.5,4-3.1.6-1.4.7-3.1.2-5.2-1.2-5.9-4.4-7-13.5-7.6-14.9-1-20.8-2.6-23.5-16.1-2.9-14.1,3.1-21.6,20.1-25h0ZM142.2,116.2c.7-5.7,5-11.4,13.1-17.3,6.8-5,12.6-7.4,17.7-7.4s1.9,0,2.7.2c4.3.8,8.1,3.6,12,8.9l17.6,24.2c3.8,5.2,5.4,9.7,4.8,14.1-.7,5.7-5,11.4-13.1,17.3-8.1,5.9-14.8,8.2-20.5,7.2-4.3-.8-8.1-3.6-12-8.9l-17.6-24.2c-3.8-5.2-5.4-9.7-4.8-14.1h0ZM85.8,177.7c7.5-13.4,14.4-16.4,24.8-10.6,7.3,4.1,9.4,8.4,8,16.2l-.9,4.7,3.2-3.5c5.6-6.1,10.9-6.7,19.1-2.1,6.6,3.7,10,8,10.4,13.1.3,4.1-1.1,8.9-4.8,15.4l-15.7,28-9.1-5.1c-.1-3-1.6-4.2-6.1-6.7l-26.4-14.8c-4.6-2.6-6.3-3.2-9-1.7l-9.1-5.1,15.5-27.7h0ZM111,282.2v11.9c0,5.2-1.7,9.9-11.5,9.9s-11.5-4.7-11.5-10.3v-11.9c0-5.2,1.7-9.9,11.5-9.9s11.5,4.7,11.5,10.3ZM61.2,296.5c0-5.7,1.2-7.4,7.9-10.6,2.6-1.2,3-1.4,3.5-1.8,1.6-.9,2.2-1.7,2.2-3.2s-.8-2.4-2-2.4-2,.9-2,2.7v2.3h-9.1v-8.4c3.7-2.4,6.8-3.3,11.4-3.3,7.7,0,11.3,3,11.3,9.4s-1.6,7-6,9.3l-3.3,1.7c-4.6,2.4-4.5,2.6-4.5,4.3v.3h1.2c2.3,0,3-.7,3-2.9v-.4h9.1v9.7h-22.8v-6.9h0ZM59.7,375.4c-5.9-21,3.3-26.6,13.1-29.4l27.7-7.8c3-.8,6-1.4,8.8-1.4,7.5,0,14.3,4.1,18.5,19,2.7,9.5,2.6,17.9-.1,25.7l-17.1,4.8-5.1-18.2,5.7-1.6c4.1-1.2,5.8-3.5,4.8-6.9-.5-1.9-1.8-3.1-3.7-3.5-1.5-.3-3.5,0-6.2.7l-26.7,7.5c-4.4,1.3-8.9,3.1-7.6,7.9.5,1.9,1.7,3.1,3.5,3.4,1.4.3,3.1,0,5.9-.7l7.2-2,5.1,18.2-20.7,5.8c-6.8-5.7-10.4-11.6-13.1-21.6h0ZM136.3,483.5l-8,6.7-16.1-19.2,8-6.7c2,.5,3.6.2,5.1-1,.4-.4.9-.7,1.6-1.8l.6-.9-8.2-9.8-1,.5c-1,.5-1.5.8-2.1,1.3-1.6,1.4-2.2,3.2-1.8,5.2l-7.9,6.6-14-16.7,8.1-6.8c2.6.3,4.3-.5,8-2.5l44.4-24.9,18.6,22.3-31.2,39.2c-3,3.8-4.5,6.2-4.2,8.7h0ZM246.3,495.1c-2.9.4-4.1,1.9-5.9,5.6l-21.6,45.4-17.5-8.3,1.2-25.9c0-2.1.2-4.5.4-7.4l.5-7.2-8.4,17.7c-1.7,3.6-2.4,6-.8,8.1l-4.4,9.3-18.2-8.7,4.5-9.4c2.8-.3,4.1-1.8,5.8-5.5l13.9-29.2c1.8-3.8,2.2-5.7.7-8.1l4.5-9.4,20,9.6-2.8,40.9,8.6-18.1c1.6-3.5,2.5-6,.7-8.2l4.4-9.3,18.8,9-4.5,9.4h0ZM332.7,502.7c-2.5,1.5-2.9,3.5-3,7.5l-.8,50.3-19.4-.3-9.7-24.1c-.8-1.9-1.7-4.1-2.7-6.9l-2.5-6.8-.3,19.6c0,4,.4,6.5,2.7,7.7l-.2,10.3-20.2-.3.2-10.4c2.4-1.4,2.9-3.3,3-7.5l.5-32.4c0-4.3-.3-6.2-2.8-7.7l.2-10.4,22.2.4,14.5,38.3.3-20.1c0-3.8-.2-6.5-2.8-7.8l.2-10.3,20.8.3-.2,10.4h0ZM427.2,524.6c-1.9,5.5-7.2,10.1-16.3,14.2-20.2,9.1-27.2.9-31.4-8.3l-12.3-27.3c-2.7-5.9-3.2-10.6-1.8-14.8,1.9-5.5,7.2-10.1,16.3-14.2,6.2-2.8,11.2-4,15.2-4,9,0,13.3,5.9,16.2,12.3l12.3,27.3c2.7,5.9,3.2,10.6,1.8,14.8h0ZM501.6,468.1l-24.7-8c-2-.6-4.3-1.4-7-2.3l-6.8-2.4,14.8,12.8c3,2.6,5.2,3.9,7.6,2.9l7.8,6.7-13.2,15.2-7.9-6.8c.5-2.8-.7-4.4-3.8-7.1l-24.5-21.2c-3.2-2.8-4.9-3.7-7.7-2.8l-7.9-6.8,14.5-16.8,38.7,13.5-15.2-13.2c-2.9-2.4-5.1-4-7.7-2.9l-7.8-6.7,13.6-15.7,7.9,6.8c-.4,2.9.8,4.5,3.9,7.2l38,33-12.7,14.6h0ZM538.3,398.1l-17.1-4.9,5.2-18.1.5.2c2.9.8,5.6,1.5,7.7,1.4,2.5-.2,4.1-1.5,4.8-4,1-3.6-1-6.3-5.4-7.6-5.7-1.6-8.3.7-13,8.5-7.7,12.8-11.9,17.3-25.1,13.5-13.9-4-17.8-12.8-13-29.3,2.6-9,6.6-15.5,13.4-21.7l15,4.3-4.9,17.2c-2.4-.7-4.7-1.2-6.5-1.1-2.4.2-3.9,1.6-4.6,4-.5,1.7-.3,3.2.6,4.5.8,1.2,2.2,2.2,4,2.7,4.5,1.3,6.6-.8,10-6.2l3.5-5.5c7.1-11.5,12.6-13.9,24.5-10.5,14.5,4.1,18.8,13.5,13.9,30.5-2.8,9.8-6.4,15.7-13.4,22Z"/>
  <path class="st1" d="M107,196.5c1.3-2.3,1.7-4.3,1.2-6-.5-1.8-1.9-3.2-4.2-4.5-2.5-1.4-4.6-1.8-6.4-1.2-2,.7-3.3,2.6-4.2,4.2l-1.9,3.3,13.5,7.6,1.9-3.3h0Z"/>
  <path class="st1" d="M395.7,491.6c-.8-1.8-1.8-3.7-3.1-5-1.7-1.6-3.7-2-5.8-1-5.1,2.3-2.6,8-1.4,10.7l11.4,25.2c.8,1.8,1.8,3.7,3.1,5,1,1,2.2,1.5,3.5,1.5s1.5-.2,2.3-.5c5.1-2.3,2.6-7.9,1.4-10.7l-11.4-25.2h0Z"/>
  <path class="st1" d="M163.4,119.8l16.2,22.3c1.3,1.8,3.8,5.2,6.9,5.2s2-.3,3.1-1.1c1.9-1.4,2.6-3.3,2-5.6-.5-1.7-1.6-3.5-2.8-5.1l-16.2-22.3c-1.2-1.6-2.5-3.3-4-4.3-2-1.3-4-1.2-5.9.2-1.9,1.4-2.6,3.3-2,5.6.5,1.7,1.6,3.5,2.8,5.1h0Z"/>
  <path class="st1" d="M132.1,210.5c2.7-5,1.5-8.5-4.1-11.6-5.3-3-8.9-2.1-11.7,2.8l-1.9,3.3,15.8,8.8,1.9-3.4h0Z"/>
  <path class="st1" d="M144.6,440.6c1.4-1.6,2.9-3.4,5.4-6l.8-.9-1.7-2.1-1,.8c-1.9,1.3-4,2.7-6.1,4-.7.5-1.4.9-2.1,1.3l-12.1,7.6,6.4,7.7,9.2-11c.4-.4.8-.9,1.1-1.3h0Z"/>
  <path class="st1" d="M425.3,148.8c1.1.8,2.1,1.2,3.1,1.2,3.1,0,5.5-3.2,6.9-5l16.8-21.9c1.8-2.4,5.5-7.3,1.1-10.7-1.9-1.4-3.9-1.5-5.9-.3-1.5.9-2.9,2.6-4.1,4.2l-16.8,21.9c-1.2,1.6-2.4,3.4-2.9,5.1-.6,2.2,0,4.2,1.9,5.6h0Z"/>
  <path class="st1" d="M233.9,274.3s-.1.1-.3.3c.2-.2.3-.2.3-.3Z"/>
  <path class="st1" d="M228.6,277.3s.4-.1,1.2-.5c-.9.4-1.2.5-1.2.5h0Z"/>
  <polygon class="st1" points="250.8 296.3 250.8 296.3 250.8 296.3 250.8 296.3"/>
  <path class="st1" d="M362.4,344.2c-.3-.2-.8-.6-1.5-1.2-3.2-2.4-10.2-7.8-19.6-14.9-2-1.5-4.1-3.1-6.2-4.8-2.8,2.4-5.6,4.8-8.5,7.2l37,29s2.5-3.7,2.5-7.9c0-.2,0-.4,0-.6-.1-2.3-1.1-4.8-3.7-6.8h0Z"/>
  <path class="st1" d="M238.2,261.1l8.7,6.9,24.6,19.5h0l5.8,4.6,15.1,11.8h0c.7-.5,1.4-1,2.1-1.6,2.2-1.6,4.3-3.2,6.5-4.8-7.9-6-16-12.2-23.8-18.1h0c-.4-.3-.8-.6-1.3-1-17.1-13-30.8-23.4-35.6-27-.1,0-.2-.2-.3-.2-.2-.2-.5-.3-.6-.5-.6-.4-.9-.7-.9-.7,0,0-2.8,11.3-15,22.2h0s8.1-1.5,14.6-11.4h0Z"/>
  <path class="st1" d="M376.2,361.9h0c.3.2.5.5.8.7.1.1.3.2.4.4.1.1.2.3.4.4h0c.2.2.3.4.5.6h0c.3.4.6.8.9,1.2h0c.1.2.3.4.4.7h0c.4.7.8,1.4,1.1,2.1,0,0,0,0,0,0,.3.8.6,1.5.8,2.4h0c.2.9.4,1.7.5,2.6h0c0,.3,0,.6,0,.9h0c0,.5,0,1,0,1.4,0,.2,0,.5,0,.7,0,.2,0,.5,0,.7h0c0,.3,0,.6,0,.9,0,.7-.2,1.4-.4,2.2,0,0,0,0,0,0,0,.3-.2.7-.3,1,0,0,0,0,0,0,0,.2-.1.4-.2.7,0,0,0,.1,0,.2,0,.2-.1.4-.2.6,0,0,0,.1,0,.2,0,.2-.1.4-.2.6,0,0,0,.1,0,.2,0,.2-.2.5-.3.8,0,0,0,.2,0,.2,0,.2-.2.3-.2.5,0,.1,0,.2-.2.3,0,.1-.1.3-.2.4,0,.1-.1.3-.2.4l-.2.4c0,.1-.2.3-.2.4,0,0,0,.2-.1.2,0,.2-.2.3-.3.5h0c.3-.2.6-.4.9-.6h0c.1,0,.2-.2.4-.3,0,0,0,0,.1,0,0,0,.1,0,.2-.1,0,0,.2-.2.3-.2,0,0,.2-.1.2-.2,0,0,.2-.2.3-.2,0,0,.1-.1.2-.2.2-.1.3-.3.5-.4s.1-.1.2-.2c0-.1.2-.2.3-.3,0,0,.1-.2.2-.2,0-.1.2-.2.3-.3,0,0,.1-.2.2-.2.1-.2.3-.3.4-.5,0,0,0-.1.1-.2.1-.2.2-.3.3-.5,0,0,.1-.2.2-.2,0-.1.2-.3.3-.4,0,0,0-.2.2-.2.1-.2.2-.4.4-.6,0,0,0,0,0,0,.1-.2.2-.4.4-.7,0,0,0-.1.1-.2,0-.2.2-.3.3-.5,0,0,0-.1,0-.2.1-.2.2-.5.3-.7,0,0,0,0,0,0,.1-.2.2-.5.3-.8,0,0,0-.1,0-.2,0-.2.2-.4.2-.6,0,0,0-.1,0-.2,0-.2.2-.5.3-.8h0c0-.3.2-.6.2-.9h0c0-.2,0-.3.1-.5,0,0,0-.2,0-.2,0-.1,0-.2,0-.3,0,0,0-.2,0-.3,0-.1,0-.3,0-.4,0,0,0-.2,0-.3,0-.1,0-.2,0-.4,0-.1,0-.2,0-.4,0-.1,0-.2,0-.3,0,0,0-.2,0-.3,0-.2,0-.3,0-.5,0,0,0-.2,0-.3,0-.1,0-.2,0-.3,0-.1,0-.3,0-.4,0-.1,0-.2,0-.4v-1.7c0-.2,0-.3,0-.5,0,0,0-.2,0-.3,0-.1,0-.2,0-.3,0-.1,0-.3,0-.4,0-.1,0-.2,0-.3,0,0,0-.2,0-.3,0-.1,0-.3,0-.4,0-.1,0-.2,0-.4,0,0,0-.2,0-.3s0-.2,0-.3c0-.2,0-.3-.1-.5,0,0,0-.2,0-.3,0-.1,0-.2,0-.3,0-.2,0-.3-.1-.4,0-.1,0-.2,0-.3,0,0,0-.2-.1-.3,0-.2-.1-.3-.2-.5,0,0,0-.2-.1-.3s0-.2-.1-.3c0-.1-.1-.3-.2-.4s-.1-.2-.2-.4c0,0,0-.2-.2-.3,0,0-.1-.2-.2-.3,0-.2-.2-.3-.2-.4,0,0-.1-.2-.2-.3s-.1-.2-.2-.3c0-.2-.2-.3-.3-.5,0,0-.1-.2-.2-.3,0,0-.1-.2-.2-.3,0-.1-.2-.3-.3-.4,0,0-.2-.2-.2-.3,0,0-.2-.2-.2-.3,0,0-.2-.2-.2-.3-.1-.2-.2-.3-.4-.4,0,0-.2-.2-.2-.2,0,0-.2-.2-.3-.3-.1-.1-.3-.3-.4-.4,0,0-.2-.2-.3-.3s-.2-.2-.2-.2c-.2-.2-.3-.3-.5-.4,0,0-.2-.2-.3-.2-.1,0-.2-.2-.3-.3,0,0-.2-.2-.3-.2-.2-.1-.4-.3-.5-.4,0,0-.2-.1-.3-.2-.2-.1-.3-.2-.5-.4-.1,0-.2-.2-.4-.3-.1,0-.3-.2-.4-.3,0,0-.2-.1-.3-.2-.2-.2-.5-.3-.7-.4,0,0-.2-.1-.3-.2-.2,0-.3-.2-.5-.3,0,0-.2-.1-.3-.2-.3-.1-.5-.3-.8-.4,0,0-.2,0-.3-.2-.3-.2-.6-.3-.9-.4,0,0-.2,0-.2-.1-.2,0-.4-.2-.5-.2,0,0-.2,0-.3-.1-.2,0-.3-.1-.5-.2h0c0,.1,0,.2,0,.3,0,.3,0,.5,0,.8,0,.1,0,.3,0,.4,0,2.3-.3,5-1.3,8.1h0c1.6.5,3.2,1.3,4.6,2.5h0Z"/>
  <path class="st1" d="M339.9,287.5h0l33.3-26.4c.3.5.7,1,1,1.4,2.6,3.5,5.3,5.8,7.7,7.3,3.4,2.1,5.9,2.6,5.9,2.6-12.2-11-15-22.2-15-22.2,0,0-.9.7-2.4,1.9-5.4,4.1-19.2,14.6-36.2,27.5h0c-18.6,14.1-38.6,29.3-54.6,41.4-.5.4-1,.8-1.5,1.1-.3.2-.6.5-.9.7-15.1,11.4-26.1,19.8-28.1,21.4-7.6,5.9-1.2,15.4-1.2,15.4l92.1-72h0Z"/>
  <path class="st1" d="M238.9,355.5c-.1-.9-.2-1.7-.3-2.5,0-.6,0-1.2,0-1.8v-.4c0-.3,0-.5,0-.8,0,0,0-.1,0-.2,0,0,0,0,0-.1h0c0,0-.2,0-.3.1,0,0-.1,0-.2,0,0,0,0,0-.1,0,0,0-.1,0-.2,0-.2,0-.4.2-.5.2,0,0,0,0,0,0,0,0-.1,0-.2,0-.3.1-.6.3-.9.4,0,0,0,0,0,0,0,0-.1,0-.2.1-.3.1-.5.3-.8.4-.1,0-.2.1-.3.2-.1,0-.3.2-.5.3-.1,0-.2.1-.3.2-.2.1-.5.3-.7.4,0,0-.1,0-.1,0,0,0,0,0-.1,0-.1,0-.3.2-.4.3,0,0-.2.1-.3.2,0,0,0,0,0,0-.2.1-.3.2-.5.3,0,0,0,0,0,0,0,0-.2.1-.3.2-.2.1-.4.3-.5.4,0,0,0,0-.1.1,0,0-.1,0-.1.1,0,0-.1,0-.2.2,0,0-.1,0-.1.1,0,0-.2.2-.3.2,0,0-.1.1-.2.2,0,0-.2.2-.3.2,0,0-.2.2-.2.2,0,0,0,0,0,0,0,0-.2.2-.3.3l-.2.2c0,0-.1.2-.2.2,0,0-.2.2-.3.3,0,0-.1.2-.2.2-.1.1-.2.3-.4.4q0,0,0,0c.1-.1,0,0,0,0,0,0-.1.2-.2.2,0,0,0,0,0,0,0,0-.1.2-.2.3,0,0-.1.2-.2.3h0c-.1.1-.2.3-.3.4,0,0-.1.2-.2.3,0,0,0,0,0,0,0,0-.1.2-.2.3s-.1.2-.2.3c0,0,0,.1-.1.2,0,0-.1.2-.2.3s-.1.2-.2.3c0,.1-.2.3-.2.4,0,0,0,0,0,.1,0,0,0,.1,0,.2,0,0,0,.1,0,.2,0,0,0,0,0,.1,0,.1-.1.2-.2.4s-.1.2-.2.4c0,0,0,.2-.1.3,0,0,0,.2-.1.3,0,.2-.1.3-.2.5,0,0,0,0,0,0,0,0,0,.2,0,.2,0,.1,0,.2-.1.3,0,0,0,.2,0,.3,0,0,0,0,0,.2,0,0,0,0,0,0,0,0,0,.2,0,.2,0,0,0,.2,0,.2,0,0,0,0,0,0,0,0,0,0,0,.1v.4c-.1,0-.1.1-.1.2,0,0,0,0,0,.1,0,0,0,0,0,.1,0,0,0,.1,0,.2,0,.1,0,.2,0,.4,0,0,0,.2,0,.2,0,0,0,.1,0,.2,0,0,0,0,0,.1,0,0,0,.1,0,.2,0,0,0,.1,0,.2,0,0,0,0,0,.1,0,.1,0,.3,0,.4,0,.1,0,.2,0,.3,0,0,0,.2,0,.3,0,.2,0,.3,0,.5h0v.5h0v.9h0v.3c0,0,0,.2,0,.2h0v.3c0,0,0,.2,0,.2,0,.1,0,.2,0,.3,0,0,0,.1,0,.2,0,0,0,0,0,.1,0,.2,0,.3,0,.5,0,0,0,.2,0,.3,0,0,0,0,0,.1,0,0,0,.2,0,.2,0,.1,0,.2,0,.4,0,.1,0,.2,0,.4,0,0,0,.2,0,.3,0,.1,0,.3,0,.4,0,0,0,.2,0,.3,0,.1,0,.2,0,.3,0,0,0,.2,0,.2,0,.2,0,.3.1.4h0c0,.3.2.6.2.9h0c0,.3.2.5.3.8,0,0,0,.1,0,.2,0,0,0,.2.1.3,0,.1,0,.2.1.3,0,0,0,0,0,.2.1.3.2.5.3.8h0c0,.2.1.3.2.5,0,0,0,.2.1.2,0,0,0,0,0,.1,0,0,0,0,0,0,0,.2.2.3.3.5,0,0,0,.1.1.2,0,0,0,0,0,0,.1.2.2.4.3.6,0,0,0,0,0,0,0,0,0,0,0,0,0,.2.2.3.3.4,0,0,0,.1.1.2,0,0,0,0,0,0,0,0,0,.1.1.2,0,.1.2.3.3.4,0,0,.1.2.2.2.1.2.2.3.3.5,0,0,0,.1.1.2.1.2.3.4.4.5,0,0,.1.2.2.2,0,0,.1.2.2.3,0,0,0,0,0,0,0,0,.1.2.2.2.1.1.2.2.3.3,0,0,0,0,0,0,0,0,.1.1.2.2,0,0,.1.1.2.2,0,0,.2.2.2.2,0,0,.1.1.2.2h0s0,0,0,0c0,0,.2.2.3.2,0,0,0,0,0,0,0,0,.1.1.2.2,0,0,0,0,0,0,0,0,.2.1.2.2,0,0,.1,0,.2.1,0,0,0,0,.1,0,.1,0,.2.2.4.3h0s0,0,0,0c.3.2.5.4.8.5h0c0-.2-.2-.3-.3-.5,0,0,0-.1,0-.2,0,0,0,0,0,0,0-.2-.1-.3-.2-.4l-.2-.4c0-.1-.1-.3-.2-.4,0-.1-.1-.3-.2-.4,0-.1-.1-.2-.1-.3,0,0,0-.2-.1-.2,0-.1,0-.2-.1-.3,0,0,0-.2,0-.2-.1-.2-.2-.5-.3-.8,0,0,0,0,0-.2,0-.2-.1-.4-.2-.6,0,0,0,0,0,0,0,0,0,0,0-.1,0-.2-.1-.4-.2-.6,0,0,0-.1,0-.2,0-.2-.1-.4-.2-.7,0,0,0,0,0,0,0-.1,0-.2,0-.3,0-.2-.1-.5-.2-.7,0,0,0,0,0,0,0-.3-.1-.7-.2-1-.1-.7-.2-1.4-.3-2h0c0-.2,0-.3,0-.4s0-.3,0-.4c0-.1,0-.3,0-.4,0,0,0-.2,0-.3,0-.5,0-1,0-1.4h0c0-.2,0-.4,0-.6,0-.1,0-.2,0-.4h0c0-.3,0-.6.1-.9,0-.6.2-1.2.4-1.7h0c.1-.4.2-.8.4-1.2.1-.4.3-.8.4-1.2h0c0-.2.1-.3.2-.4.1-.2.2-.5.3-.7s.2-.3.3-.5c.1-.2.2-.4.3-.6,0,0,0,0,0,0h0s0,0,0,0c.1-.2.2-.4.4-.6q0-.1,0,0c.3-.4.6-.8.9-1.2h0c.2-.2.3-.4.5-.6h0c.2-.2.4-.4.5-.6,0,0,0,0,0,0,0,0,0,0,0,0,.3-.3.6-.6.9-.8h0c1.1-.9,2.3-1.6,3.5-2.1.4-.2.8-.3,1.1-.4h0c-.4-1.3-.7-2.6-.9-3.8h0Z"/>
</svg>