<?xml version="1.0" encoding="UTF-8"?>
<svg id="Layer_1" xmlns="http://www.w3.org/2000/svg" version="1.1" viewBox="0 0 1000 1000">
  <!-- Generator: Adobe Illustrator 30.3.0, SVG Export Plug-In . SVG Version: 2.1.3 Build 182)  -->
  <defs>
    <style>
      .st0 {
        fill: #0b2343;
      }

      .st1 {
        fill: #fff;
      }

      .st2 {
        fill: #b0b5ba;
      }

      .st3 {
        fill: #c52032;
      }
    </style>
  </defs>
  <path class="st1" d="M882.4,526.6c-.2-2-6.4-49.8-45.1-72-4.7-3.1-23.4-14.6-49.7-16.8,3.3-10.1,5.1-21.9,3-34.6-2.2-13.4-15.2-39.5-48.1-42.6h-.5s-1.4,0-1.4,0c-6.4,0-15.4,1.9-23.7,7.1-6.9-18.2-22.4-37.5-53.1-46.2l-.8-.2-.8-.2c-.7-.1-7.1-1.3-16.1-1.3-20.8,0-38.6,5.7-51.9,16.3,2.3-12.1,6-26.1,11.6-42.1,1-2.7,23.4-67.4-14.8-120.9-1.7-2.4-41.5-58.2-101.1-58.6h-.9c-31,1.2-92.8,19.9-104.6,82v.9c-.5,2.2-6.1,45.3,15.7,80-4-.6-8.2-1-12.6-1.1-1.1,0-2.9-.2-5.4-.2-14.9,0-52.8,3.8-82,39.2l-.5.7c-2.1,2.8-20.4,28.8-10.6,74.6.1.5,1.2,5.3,3.5,12.2-15.2,1.6-34.3,8.7-50.3,30.3l-.6.9-.5.9c-3.6,6.2-7.2,16.8-7.6,29.2-15.7-8.8-31.5-10.9-42.9-10.9s-18.1,1.8-19.4,2.2h-.4c-36.9,10.8-50,36.8-52,50.2-5.7,37.3,12.2,60.9,16,65.4,7.5,9.6,16.1,15.8,24.3,20-7.9,3.6-13.4,11.5-13.4,20.7s10.2,22.7,22.7,22.7,14.7-3.9,18.8-9.9c11.7,5.6,29.8,17.2,31.1,35.8v.7s.2.9.2.9c0,.1,1.9,13.5-3.6,32.5-2,5.2-9.1,26.3-4.5,48.5v.5c.9,3.2,6.8,25.6,23.4,39.3-14.8,8-21.9,21.9-24.7,34.4l-3.2,1.4c-3.1-1.4-6.5-2.2-10-2.2-13.1,0-23.8,10.7-23.8,23.8s10.7,23.8,23.8,23.8,11.8-2.4,16-6.2c1.6.4,3.1.7,4.6.8h1.5c0,.1,1.5,0,1.5,0,1.1,0,2.2-.1,3.1-.1,2.5,0,4.2.3,5.1.5h0s2.6.9,2.6.9c10.7,3.8,21.7,5.7,32.7,5.7s20.4-2.2,24.2-3.4c2.6-.4,5.4-.7,8.3-.7s5.8.3,7,.4c12.5,3.7,24.2,5.5,34.7,5.5s17.9-2.1,20.4-3c7-2.5,13.5-3.8,19.4-3.8s7.4.9,8,1.1c25.9,12.7,49.9,15.4,65.5,15.4s20.1-1.6,21-1.8h.5c0-.1.5-.2.5-.2,4.9-1.3,9.7-2,14.3-2,9.8,0,15.9,3,17,3.6l.7.5,1.7.7c12.1,5.3,24.7,8,37.6,8,25.6,0,44.2-10.6,49.4-13.9,6.3-3.1,12.9-4.7,19.8-4.7s13.1,1.9,14.2,2.3c11.9,6,23.7,9.1,35,9.1,19.6,0,32.3-9.1,37-13.2,1.6-1,3.8-1.4,6.4-1.4s4.8.5,4.9.5c0,0,0,0,0,0l1.1.3,1.1.2c8.6,1.6,17.5,2.4,26.4,2.4h0c15.2,0,27.3-2.3,34.4-4.2,4.1,3.6,9.4,5.8,15.3,5.8,12.8,0,23.2-10.4,23.2-23.2s-10.4-23.2-23.2-23.2-7.6,1-10.8,2.7c-2.1-16.1-11.7-26.5-14.7-29.4-1.6-1.7-3.5-3.1-5.4-4.5l.3-.3.4-.4c26.3-29.6,58.7-96.6,29.8-169.1,7,2.4,16.1,4.5,26.3,4.5h0c13.1,0,25.1-3.6,35.5-10.6,3.8-2.2,12.5-8.1,20.1-20.2,11.2-17.8,15.3-40.8,12.3-68.6Z"/>
  <polygon class="st1" points="230.7 832.1 233.1 812.5 242.4 801 281.8 793.7 297.3 782.8 317.1 766.7 344.2 762.5 372.8 776 388.5 798.5 419.9 788.8 449.3 787.9 489.2 798.5 522.2 797.3 559.8 786.7 588.3 797.3 604.8 793.7 623.1 785.7 641.9 793.7 671.1 782.3 689.2 785.7 704.3 808.7 722.4 804.8 748.6 812.5 757.9 832.1 755.8 844.7 736.9 846.8 701.3 839.9 678.3 853.3 660.5 857.2 636.6 842.9 612.7 844.9 592.3 848 548.4 863.5 516 856.1 496.9 849.6 470.2 851.9 429.2 854.4 400.1 841.9 385.7 838 365.6 838 331.5 844.2 293 838 261.8 844.2 230.7 836.8 230.7 832.1"/>
  <polygon class="st1" points="432.8 687.8 440.1 667.1 429.2 629.3 408.5 599.6 412 533.1 401.3 503.1 386.4 540.9 367.7 577.7 367.7 629.3 395.6 660.3 432.8 687.8"/>
  <polygon class="st1" points="198.5 605.2 225.6 625.9 240.1 650.5 243.4 671.9 233.6 709.9 233.1 745.4 251.7 770.7 282.3 766.7 315 738.4 352.7 741.4 383.1 758.4 416.4 763.8 449.7 759.6 491.6 778.7 528.7 775.9 564.2 766.7 663.7 764 701.5 773.6 719.1 788.8 750.6 768 775.2 708.1 777.1 646.1 756.4 606.7 749.5 648.7 739 687.1 696.3 731.8 699.8 701.4 708.3 642.9 688.3 559.6 667.9 529.2 658.3 589.7 630.8 639.4 618.1 572.3 587 507.5 556.6 457.1 521.4 405 510.9 457.1 530.1 519.1 561 579.2 564.9 629.3 552.5 653.1 557.8 632.4 525.6 582 491.6 544.4 471.5 509.4 471.5 494.3 446.1 519.1 441.8 577.7 461.6 637.2 461.6 668.3 447.9 704.1 437.1 736 409.9 691.4 370.6 666.8 348 639.4 335.4 610.7 332.1 553.5 336.9 532.5 307.5 567.8 289.7 629.3 295.9 682 312.3 729.8 290.1 714.2 274.6 690.1 268 643.6 246.4 610.7 216.7 601.6 198.5 605.2"/>
  <g>
    <path class="st3" d="M674,616.1s13.8,70.1-37.3,107.4c0,0,10-38.5,9.9-60.5,0,0-2.3-8.6,18.1-31.1,0,0,8.3-9.3,9.3-15.8Z"/>
    <path class="st0" d="M743.8,582.9s31.9,82.3-43.1,137.9c0,0,62.9-101.1-58.6-235.8,0,0,36.9,62.1,3.6,117.9,0,0-9.6,16.9-12,21.7,0,0,0-79.2-86.5-183.4,0,0-17.3-20.6-19.1-42.6,0,0-3.5-24.6-11.7-35,0,0,3.9,24.6-3.9,53.5,0,0-19.9,57,23.7,120.4,0,0,35,47.1,22.9,91.1,0,0-13.8-40.6-61.3-81.6,0,0-32.8-28.1-24.6-91.5,0,0-59.1,83.7-25,155.4,0,0,23.3,44.9,0,81.2,0,0-7.3,11.8-10.6,28.6,0,0-21.4-35-63.1-57.5,0,0-51.5-31.2-38.1-102.2,0,0,8-31.9,7.2-52.6,0,0-11.6,20.7-31.2,46,0,0-37,48.9-25,108,0,0,4.3,29.4,14.9,52.6,0,0-24.6-8.3-28.3-51.8,0,0-5.7-87-91.7-60.9,0,0,51.1,15.2,54,56.2,0,0,2.9,17-4.3,41.3,0,0-7.9,19.5-3.9,38.8,0,0,7.2,30.2,28.4,35.1,0,0,15.5,6.9,33.9-10.1,0,0,36.2-33,77.3-8.6,0,0,24.4,21.3,55.2,12.4,0,0,23.8-10.1,48.6,5.2,0,0,29.3,25.2,73,2.5,0,0,15.8-8.9,37.1-2.2,0,0,19,5.2,33.9-.3,0,0,8.9-4,23.8,2,0,0,10.6,4,26.4-.9,0,0,21.5-7.1,35.9,10.8,0,0,16.7,19.3,42.8-6.5,0,0,83-93.5-.8-195.2ZM286.3,756.2s-6.3,9.5-19.2,5.2c0,0-24.7-11-15.7-53.7,0,0,8.4-29.6,8.2-35.8,0,0,4.4,58,39.1,71.5,0,0-7,4.7-12.3,12.8ZM265.8,678.3c-4.6-35.5-23.6-48.5-23.6-48.5,20.4,27.8,7.1,71.4,7.1,71.4-14.9,40.4,10.7,63,10.7,63-41.7-14.9-17.1-77.9-17.1-77.9,14.2-62.1-39.8-81.1-39.8-81.1,19.4-.3,34.6,6.8,34.6,6.8,29.4,12,33.6,61.4,33.6,61.4,3.2,42.7,43.6,65,43.6,65-44.3-2.3-49.1-60.1-49.1-60.1ZM405.7,759.6c-18.8-1.4-29.6-11.2-29.6-11.2-8.2-10.4-19.6-13.6-19.6-13.6-12.6-4.4-21-17.8-21-17.8-34.2-56.6-20.4-101-20.4-101,10.1,49.2,51.1,74.5,51.1,74.5,50,29.8,39.5,69.1,39.5,69.1ZM424.6,751.9c-7.2,4.2-8-4.8-8-4.8-1.6-37.6-52.3-66.6-52.3-66.6-48.6-35.5-46.6-95.2-46.6-95.2-35.5,82.1,17.6,142.9,17.6,142.9-20-7.9-28-25.5-28-25.5-13.5-28.4-14.4-63.6-14.4-63.6,1.8-63.9,37.9-91.4,37.9-91.4-9,41.7,4,76.6,4,76.6,8.6,32.5,37.2,48.6,37.2,48.6,39.2,22.5,52.5,47.2,52.5,47.2,10.3,24.4,0,31.7,0,31.7ZM440.2,753s-3.3-30.1,19.8-66.8c0,0,21-40.2-5.1-82.5,0,0-28.6-57.7,10-100.7,0,0,4.4,29.6,39.5,64.4,0,0,39.3,38.7,47.4,69,0,0,2.1,9.9-4.8,33.5,0,0-4.2-57.2-53.4-98.6,0,0-26.7-22.8-30-45.9,0,0-13.7,33.8,4.5,83.4,0,0,21,42.2,3,78.2,0,0-23.4,38.8-15,68.5,0,0-14.1-.3-15.9-2.6ZM518.3,773.9c-19.5,8.2-47.6-11.4-47.6-11.4-21.3-20,1.1-62.8,1.1-62.8,26.2-44.9,10-76.5,10-76.5-21.8-37.9-16-73.3-16-73.3.5,6,37,40.6,37,40.6,53.5,51,30.3,114.2,30.3,114.2-13.9,31-12.2,53.8-12.2,53.8,1.6,14.3-2.7,15.3-2.7,15.3ZM541.6,770.2c-11.5,5.8-12.3-2.9-12.3-2.9-2.3-42.3,27-101,27-101,35.1-83.2-24.7-153.1-24.7-153.1-30.2-55.4-7.4-97.3-7.4-97.3,7,27.9,32.7,57,32.7,57,110.7,146.6,57,258.9,57,258.9,17.9-113.8-17.5-173.6-17.5-173.6-23.2-51.5-70.8-108.6-70.8-108.6-6.9,33.1,20.9,73,20.9,73,55.1,83.7,14.2,160.1,14.2,160.1-28.5,61.5-19.2,87.5-19.2,87.5ZM636.6,663.7c2.1-17,20.7-36.5,20.7-36.5,15.5-16.5,18.6-27.7,18.6-27.7,9.1,26,4.3,64.9,4.3,64.9-11.7,74.9-60.6,75.8-60.6,75.8,12.6-25.5,16.9-76.6,16.9-76.6ZM574.9,762.5s-8.3-1.4-13.6,0c0,0-13.3,6.1-13-6.9,0,0-3.8-19.4,21.4-75.1,0,0,37.1-82.4-17.6-159.9,0,0-14.1-16-11.8-34.3,0,0,47.8,38.5,66.7,125.6,0,0,12.7,46.8,0,111.5,0,0-12.5,39.6-32.1,39.1ZM611.5,758.6s3.7-6.8,5.9-8.8c0,0,44.4,3.8,64.1-59.3,0,0,18.8-63.2-7.6-112.9,0,0,.9,20.2-14.3,38.1,0,0-20.3,23-23.4,32.4,0,0-3.5-12.7,9.6-32,0,0,25.3-32.4,22.1-75.3,0,0,48.1,79.3,22.9,156.1,0,0-27.9,78.8-79.5,61.6ZM713.7,773.6s-5.2,6.4-12.1,0c0,0-7.5-5.6-13.2-6,0,0-1.2-8.7,23.6-24.5,0,0,23.4-13.8,45.9-55.9,0,0-2,48-44.2,86.4ZM727.7,778s-3.7,2.3-6.1,1.4c0,0-5.1-1.7,2.3-8.3,0,0,44.9-41.9,39-120.7,0,0-1.5,50.5-58.6,93.2,0,0-13.5,7.9-21.3,19.1,0,0-3.7,5.7-9,.6,0,0,0-11.3,24.2-27,0,0,58.5-36.8,60.2-112.9,0,0,28.2,32.6,2.6,106.6,0,0-10.5,31.3-33.3,48.1Z"/>
    <path class="st3" d="M479.5,582s59.4,47,43.3,105.9c0,0-17.3,36-12,65.2,0,0,3.8,15.7-14.7,9.2,0,0-20.6-4.5-18.8-30.5,0,0-1.2-14.5,10.3-33.1,0,0,23.8-37.5,6.1-82.6,0,0-7.4-24-14.1-34.1Z"/>
    <path class="st3" d="M745.1,720.8s-18.9,41.5-39.3,47.2c0,0-7.4.9-5.9-6.2,0,0-.5-4.1,8.6-10.9,0,0,28.1-19.2,36.5-30.1Z"/>
    <path class="st3" d="M564.5,525.8s47.2,57.8,39.4,165.9c0,0-5.2,44.6-23.9,57.7,0,0-15.2,12.3-18.7-9.1,0,0-3.7-10.1,15.1-56.3,0,0,27.7-89.1-12-158.2Z"/>
    <circle class="st3" cx="557.8" cy="515.8" r="3.3"/>
    <path class="st3" d="M320,650.5s9,57.4,36.2,73c0,0,12.7,4.2,19.5,12,0,0,8.6,9.6,18.9,11.8,0,0,5.6-20.9-30.1-46.9,0,0-33.7-21.1-44.5-49.9Z"/>
    <path class="st3" d="M260.3,702.2s-10.2,30.1,7.5,47.1c0,0,7.1,5.7,16.9-3.4,0,0-23.6-13.4-24.3-43.6Z"/>
    <path class="st0" d="M429.2,623.2c-25.4-33.7-16.1-61.2-16.1-61.2,12.7-61.8-18.1-89.1-18.1-89.1,4.5,38.6-11.2,61.7-11.2,61.7-27.4,38.6-22.7,77.6-22.7,77.6.3,35.5,39.5,55.6,39.5,55.6,22.5,13.7,32.1,29,32.1,29,22.3-40.1-3.5-73.6-3.5-73.6ZM432.2,680.5s-7.6-12.3-27.7-22.4c0,0-33.5-13.9-34-54.3,0,0-1.4-32.9,15.3-55.9,0,0,13.5-21.1,15.4-38.5,0,0,9.1,17.7,2.5,50.3,0,0-11.1,37.8,16.6,69.7,0,0,15.7,23.6,11.8,51.2Z"/>
    <path class="st3" d="M395,553.5s-32.5,47,6.3,85.8c0,0,14.6,11.4,20.2,21,0,0,0-15.7-9.8-28.3,0,0-28.3-32.8-16.7-78.5Z"/>
    <circle class="st3" cx="168.3" cy="611.4" r="4.3"/>
    <circle class="st3" cx="279.8" cy="656.9" r="2"/>
    <circle class="st3" cx="350.9" cy="610.7" r="5.3"/>
    <circle class="st3" cx="636.7" cy="563" r="4.8"/>
    <circle class="st3" cx="627" cy="472.9" r="7.3"/>
    <circle class="st3" cx="615" cy="452.3" r="4.7"/>
    <circle class="st3" cx="611.5" cy="434.3" r="3.5"/>
    <circle class="st1" cx="788.4" cy="845.5" r="4.7"/>
    <circle class="st1" cx="195.7" cy="839.7" r="5.4"/>
    <path class="st2" d="M274.9,809s-1.5,10.3,1.6,16.9c0,0,2.9,4.4-3.7,5.6,0,0-19.1,2.9-24.5-4.5,0,0-5.1-7.1,1.2-13.8,0,0,11.1-9.9,25.3-4.2Z"/>
    <ellipse class="st2" cx="336.9" cy="802.5" rx="28.5" ry="24.7" transform="translate(-192 111.3) rotate(-14.6)"/>
    <ellipse class="st2" cx="667.9" cy="818.2" rx="23.6" ry="21.3" transform="translate(-385.8 890.8) rotate(-54.7)"/>
    <ellipse class="st2" cx="728.4" cy="824.9" rx="9.8" ry="13.5" transform="translate(-267 1294.2) rotate(-73.8)"/>
    <ellipse class="st2" cx="551.9" cy="825" rx="26.5" ry="21.9" transform="translate(-286.4 293.4) rotate(-23.8)"/>
    <path class="st2" d="M486,819.7s-1.7-9-14.5-10.4c0,0-11.5-1-20.7-4.8,0,0-15.3-7.6-31.3,0,0,0-20.7,7.6-23.5,14.2,0,0-3.7,6.5,13.2,12.1,0,0,26.5,12,51,9.8,0,0,27.9-1.5,25.8-20.9Z"/>
    <path class="st0" d="M759.6,829.8c-.6-13.1-9.5-21-9.5-21-11.7-12.2-33-6.1-33-6.1-14.2,3.6-17.3-7.5-17.3-7.5-3.5-8.5-11.5-12.1-11.5-12.1-16.5-9.9-42,3.3-42,3.3-6.6,2.8-11.1-.9-11.1-.9-10.5-8.8-24.6,3.6-24.6,3.6-12.7,8.1-23.6-1.4-23.6-1.4-22.9-16.1-51.8.8-51.8.8-37.9,15.7-73.6-1.7-73.6-1.7-31.6-12.8-54.9,1.6-54.9,1.6-13.8,6.6-24.1-7.8-24.1-7.8-20.3-25.8-47.1-22.2-47.1-22.2-21.4-.6-42.5,26.5-42.5,26.5-6.5,5.9-20.9,6.1-20.9,6.1-15.3,1.4-24.4,5.5-24.4,5.5-24.4,8-21.8,37.3-21.8,37.3-4.9,2.8-16.4,1.7-16.4,1.7,2.4,3.9,8.3,4.4,8.3,4.4,12.4-1,18.5,2.3,18.5,2.3,26.4,9.3,46.2,1.8,46.2,1.8,12.7-2.5,24-.3,24-.3,30.2,9.2,44.7,3.3,44.7,3.3,26.9-9.8,41.6-2.1,41.6-2.1,40.1,19.7,74.7,12.2,74.7,12.2,28.2-7.7,46,3.8,46,3.8,38.7,17.1,70.3-5,70.3-5,26.9-13.9,51-3.1,51-3.1,34.1,17.7,52.9-1.9,52.9-1.9,12.4-8.9,28.2-3.9,28.2-3.9,32.9,6.1,57.9-3,57.9-3-14.7-5.2-14.1-13.8-14.1-13.8ZM289.6,837.8s-30.9,8.8-48.9-1.6c0,0-10.9-5.9-6.6-18.9,0,0,3.3-15.3,24.7-17.9,0,0,24.1-3.6,26.9,4.3,0,0-3.6,17.9,3.9,26.4,0,0,5.8,6.4,0,7.7ZM340.2,837.5c-23.2,3.1-44.2-10.1-46.8-29.5-2.6-19.4,14.1-37.7,37.3-40.9,23.2-3.1,44.2,10.1,46.8,29.5,2.6,19.4-14.1,37.7-37.3,40.9ZM501.4,832c-3.7,16.1-14.1,15.4-14.1,15.4-11.3-.1-23.2,3.3-23.2,3.3-31,4.5-54.1-9-54.1-9-15.3-7.5-21.9-8.7-21.9-8.7-11.1-1-9.5-7.6-9.5-7.6-.6-5,14.2-18.3,14.2-18.3,32.4-29.3,63.7-13.4,63.7-13.4,8.1,3.2,21.7,7,21.7,7,31.9,7.5,23.1,31.3,23.1,31.3ZM560.2,856.8c-21.2,6-42.4-3.2-47.3-20.6-4.9-17.3,8.4-36.2,29.7-42.1,21.2-6,42.4,3.2,47.3,20.6,4.9,17.3-8.4,36.2-29.7,42.1ZM633.5,804.9c-3.9,5.6-5.1,19.1-5.1,19.1-1.3,18-14,16.1-14,16.1-11.3-.3-13.8-7.2-13.8-7.2-3.9-12.2,5.5-31.5,5.5-31.5,8.5-15.8,20.3-12.2,20.3-12.2,14.2,4,7.2,15.8,7.2,15.8ZM694.1,833.9c-9.4,16.2-28.7,22.6-43.2,14.3-14.5-8.4-18.6-28.3-9.2-44.6,9.4-16.2,28.7-22.6,43.2-14.3,14.5,8.4,18.6,28.3,9.2,44.6ZM752.6,829.9c-1.9,9.5-14.5,15-28,12.2-13.6-2.7-23-12.6-21.1-22.1,1.9-9.5,14.5-15,28-12.2,13.6,2.7,23,12.6,21.1,22.1Z"/>
    <path class="st2" d="M624.3,793.8s-8.2-2.2-14,13.3c0,0-6.1,17.3,0,23,0,0,8.2,5,10.3-5.1,0,0,0-11.4,5-19.6,0,0,7.5-8.7-1.3-11.6Z"/>
    <circle class="st3" cx="386.4" cy="458.9" r="5.6"/>
    <circle class="st3" cx="378.9" cy="437.2" r="3.3"/>
    <circle class="st3" cx="506.8" cy="346.3" r="8.4"/>
    <circle class="st3" cx="515.3" cy="323" r="5.1"/>
    <circle class="st3" cx="526.5" cy="305.1" r="3.3"/>
    <path class="st2" d="M411.9,386.8s9.1-7.3,4.4-21.3c0,0-7.4-13.7-24.4-8.3,0,0-20.9,6.9-18.7,38.9,0,0,4.2,27.7,34,33.5,0,0,31.8,6.6,54.3-27.2,0,0,22.3-38.9,0-67.8,0,0-26.8-38.9-75.2-40.1,0,0-41.8-4.4-72.1,32.3,0,0-15.7,20.8-7.3,59.5,0,0,5.1,22.5,16.6,39.4,0,0-38.7-19.6-66.6,18.1,0,0-12.7,22.3,1.2,46.2,0,0,14.2,23.2,38.2,24.5,0,0,15.9,2,25.7-14.2,0,0,7.6-18.6-2.7-31.8,0,0-8.8-9.5-20.1-6.4,0,0-10,2.9-11.5,13,0,0-1,7.8,9.1,10.3,0,0-7-9.1,2.4-16.2,0,0,8.8-3.4,13.7,7.8,0,0,5.1,12.5-3.9,21.8,0,0-12,11-34.7-4.4,0,0-18.8-12.7-10-41.1,0,0,3.7-16.4,32.8-17.4,0,0,21.3.2,38.7,19.3,0,0,31.3,33.3,18.6,83,0,0-13,30.1-5.4,58,0,0-.5-25,14.7-52.4,0,0,17.6-36.5-.7-77.6,0,0-8.6-18.8-21-35.7,0,0-31.3-42.6-9.5-83,0,0,23.5-39.4,70.7-34.5,0,0,46,7.2,53.6,45.5,0,0,3.7,38.9-24.2,51.1,0,0-28.1,11.5-45-9.8,0,0-9.3-15.9,3.2-30.8,0,0,7.1-8.6,15.9-1.2,0,0,7.8,5.9,5.4,18.8Z"/>
    <path class="st2" d="M277.8,646.2s-10.6-18.3-3.8-49.9c0,0,10.2-34-9.5-64.4,0,0-18.7-30.2-51.8-43.5,0,0-30.9-10.9-55.2,12.9,0,0-16.3,20.4-1,48.2,0,0,11.5,19.8,37.7,19.2,0,0,22.6-2.2,24.9-20.6,0,0,2.5-21.4-12.7-25.6,0,0-11.2-3.2-17.3,1.9,0,0-5.9,5.5-2.5,12.7,0,0,3,5.5,9.5,3.6,0,0,0,4.2-6.3,5.9,0,0-6.3.6-10.4-6.3,0,0-5.5-8.7,2.1-19.4,0,0,14.2-18.6,38.9,2.5,0,0,10.6,10.1,6.3,35.1,0,0-6.8,24.1-34,22,0,0-25.8,1.9-43.7-21.1,0,0-16.9-19-12-50.9,0,0,3.6-25,38.9-35.2,0,0,31.7-8.3,58.3,13.6,0,0,40.4,31.9,46.7,68.5,0,0,3.4,21.8,0,45.4,0,0-6.2,24.1-3,45.7Z"/>
    <path class="st2" d="M579.4,410s-21.3-35.7,8.8-122.2c0,0,20.6-57.8-12.5-104.1,0,0-35.3-50.4-86.1-50.8,0,0-75.1,2.9-87.2,67,0,0-8.1,57.4,29.8,85.7,0,0,35,29.1,71.7,5.9,0,0,30.2-15.8,22.4-52.2,0,0-1.8-27.6-38.3-36.1,0,0-24.3-3.3-30.5,20.6,0,0-1.1,15.1,10.3,19.9,0,0,12.5,4.9,21-3.4,0,0-18.3,0-20-11.5,0,0-.7-9.8,13.9-13.9,0,0,18.4-5.1,30.5,22.7,0,0,8.5,24.7-18.1,41.3,0,0-41.8,15.9-62.3-19.8,0,0-20.3-30.5-1-73.7,0,0,19.3-38.8,73.7-32,0,0,79.1,20.5,66.9,107.2,0,0-3.2,31.1-11,57.3,0,0-19.8,56.3,10.7,113,0,0,59.6,86,58.1,117,0,0,9.7-14.8-10.9-54.2,0,0-32.6-53.5-26.9-85,0,0,3.2-45.5,46.6-54,0,0,38.1-9.2,50.1,28.9,0,0,5.6,34.4-15.9,45.7,0,0-22.7,8.8-33-8.3,0,0-8.8-14.4,6.8-24.9,0,0,15.9-8.1,16.1,11.2,0,0,11.2-3.9,2-18.1,0,0-9.5-11.7-28.6,2.9,0,0-14.9,12.4-1,38.7,0,0,12.9,18.9,44,10.4,0,0,23.9-5.9,23.2-45.2,0,0,3.9-43.2-44.4-56.9,0,0-43.7-8.1-63.2,22.7,0,0-12.2,18.6-16,48.1Z"/>
    <path class="st2" d="M722.4,687.8s32-33.8,9.9-105.9c0,0-19.9-47.7,2.7-88.4,0,0,21.2-36.1,65.9-18.5,0,0,51.5,16.5,49.7,72.8,0,0-3.2,44.5-37.9,47,0,0-41.8-2.3-43-36.7,0,0-1.5-25,14.5-32.4,0,0,14.2-7.3,29.3,8.4,0,0,7.9,11.5-.2,21.1,0,0-8.5,6-14.3-4,0,0-4.6,7,1.2,12.9,0,0,10.7,9.9,23.8-3.8,0,0,10.7-10.7-2.4-29.4,0,0-11.5-19.3-40.3-13.5,0,0-21.5,5.8-20.7,36.2,0,0,0,28.9,23.5,45.9,0,0,30.8,17.7,56.2,0,0,0,29.9-14.4,23.7-70.8,0,0-4.9-40.8-36.6-58.5,0,0-33.2-23.6-73.9-10.2,0,0,23.7-24.2,18.8-53.8,0,0-4.1-24.7-31.7-27.3,0,0-21.1-.8-26.3,22.9,0,0-4.1,15.2,12.4,24.2,0,0,14.3,7.1,23.8-5.6,0,0,6.4-13-8.8-19.8,0,0-7-1.6-9.6,5.2,0,0,11.4-2.1,10.4,7,0,0-.7,9.3-13.9,5.2,0,0-10.8-5.2-3.4-21.4,0,0,4.8-10,18.6-7,0,0,17.5,2.9,17,21.6,0,0-.7,27.5-17.3,42.7,0,0-26.1,21.8-30.7,70.5,0,0-3.8,39.3,10.3,85.7,0,0,12.2,32-.7,77.8Z"/>
  </g>
</svg>