<?xml version="1.0" encoding="UTF-8"?>
<svg id="ICON" xmlns="http://www.w3.org/2000/svg" viewBox="0 0 1080 1080">
  <defs>
    <style>
      .cls-1 {
        fill: none;
      }

      .cls-2 {
        fill: #0b2343;
      }
    </style>
  </defs>
  <g id="_1_COLOR_DARK" data-name="1 COLOR DARK">
    <path class="cls-1" d="m396.98,634.28c-.11.16-.22.33-.33.49-.1.15-.2.31-.29.46.1-.15.19-.31.3-.46.11-.16.22-.33.33-.49Z"/>
    <path class="cls-1" d="m402.44,628c.15-.14.31-.28.47-.43-.16.14-.32.28-.47.42-.15.14-.3.28-.44.42-.01.01-.02.02-.04.04.01-.01.02-.02.04-.04.15-.14.29-.28.44-.41Z"/>
    <path class="cls-1" d="m399.85,630.64c.13-.15.27-.3.41-.45.16-.17.32-.35.48-.52.13-.14.27-.27.4-.41-.13.14-.27.27-.4.41-.17.17-.32.35-.48.52-.14.15-.27.3-.41.45-.23.26-.46.52-.68.78-.14.17-.28.34-.42.5.14-.17.28-.34.42-.5.22-.26.45-.52.68-.78Z"/>
    <path class="cls-1" d="m394.92,637.66c-.06.11-.11.21-.17.32-.05.1-.1.21-.16.31.05-.1.1-.21.16-.31.06-.11.11-.21.17-.32Z"/>
    <path class="cls-1" d="m397.58,675.72c.06.09.12.19.18.29.02.03.04.07.07.1-.02-.03-.04-.07-.07-.1-.06-.09-.12-.19-.18-.29Z"/>
    <path class="cls-1" d="m410.49,622c.17-.1.35-.21.52-.31.27-.16.55-.32.83-.47.17-.1.35-.19.52-.29.46-.26.94-.51,1.42-.76.15-.08.29-.15.44-.23-.15.07-.29.15-.44.22-.48.25-.95.5-1.42.76-.17.1-.35.19-.52.29-.28.16-.55.32-.83.47-.17.1-.35.21-.52.31-.43.25-.84.51-1.25.77-.09.06-.19.12-.28.18.09-.06.19-.12.28-.18.41-.26.83-.52,1.25-.77Z"/>
    <path class="cls-1" d="m392.38,643.88c-.04.14-.08.28-.13.43-.04.14-.08.28-.11.42.04-.14.07-.28.11-.41.04-.14.08-.29.12-.43Z"/>
    <path class="cls-1" d="m417.35,618.46c.1-.04.2-.09.3-.13-.1.04-.2.09-.3.13-.33.15-.66.29-.98.44-.05.02-.09.04-.14.07.05-.02.09-.04.14-.07.32-.15.65-.3.98-.44Z"/>
    <path class="cls-1" d="m407.45,623.96s-.1.07-.14.1c-.23.16-.45.32-.67.48.22-.16.44-.32.67-.48.05-.03.1-.07.14-.1Z"/>
    <path class="cls-1" d="m404.67,626.06c-.09.07-.19.15-.28.22-.11.09-.22.18-.33.27.11-.09.22-.18.33-.27.09-.07.18-.15.28-.22Z"/>
    <path class="cls-1" d="m396.4,673.79c.2.35.39.69.6,1.03.01.02.03.04.04.06-.01-.02-.02-.04-.04-.06-.2-.34-.4-.68-.6-1.03Z"/>
    <path class="cls-1" d="m392.32,663.82c-.04-.15-.08-.29-.11-.44-.05-.21-.1-.41-.15-.62-.04-.18-.09-.37-.13-.55-.06-.25-.11-.5-.16-.76-.03-.16-.07-.33-.1-.49-.04-.23-.08-.46-.12-.69-.04-.22-.07-.43-.11-.65-.02-.13-.04-.27-.06-.4.02.13.04.27.06.4.03.22.07.43.11.65.04.23.08.46.12.69.03.16.06.33.1.49.05.25.11.51.16.76.04.18.08.37.13.55.05.21.1.41.15.62.04.15.08.29.11.44.07.26.14.53.22.79,0,0,0,.01,0,.02,0,0,0-.01,0-.02-.08-.26-.15-.53-.22-.79Z"/>
    <path class="cls-1" d="m394.2,669.31c-.04-.09-.08-.19-.12-.28-.09-.22-.17-.43-.26-.65.09.22.17.44.26.65.04.09.08.19.12.28.19.46.39.92.6,1.37,0,0,0,.01.01.02,0,0,0-.01-.01-.02-.21-.45-.41-.91-.6-1.37Z"/>
    <path class="cls-1" d="m392.05,645.08c-.05.21-.11.43-.16.64-.02.1-.05.21-.07.31.02-.1.05-.21.07-.31.05-.21.1-.43.16-.64Z"/>
    <path class="cls-1" d="m391.07,656.57c-.01-.14-.02-.28-.03-.43,0,.14.02.29.03.43.01.19.03.39.05.58,0,.1.02.19.03.29,0-.09-.02-.19-.03-.28-.02-.19-.03-.39-.05-.58Z"/>
    <path class="cls-1" d="m418.72,617.87c0,.07-.01.14-.02.21,0-.07.01-.14.02-.21h0c-.16.06-.32.13-.47.2.16-.07.31-.14.47-.21h0Z"/>
    <path class="cls-1" d="m395.2,671.51c.08.15.15.31.22.46.05.09.1.19.14.28-.05-.09-.1-.18-.14-.28-.08-.15-.15-.31-.23-.46Z"/>
    <path class="cls-1" d="m390.98,654.88c0,.1,0,.21,0,.31,0,.12.01.24.02.36,0-.12-.01-.24-.02-.36,0-.1,0-.21-.01-.31Z"/>
    <path class="cls-1" d="m391.37,648.41c-.02.12-.04.24-.05.37-.02.13-.04.27-.05.4.02-.13.03-.27.05-.4.02-.12.04-.25.05-.37Z"/>
    <path class="cls-1" d="m391.65,646.82c.02-.11.04-.21.07-.32-.02.11-.05.21-.07.32-.04.22-.09.44-.13.66-.03.16-.05.31-.08.47.03-.16.05-.31.08-.47.04-.22.08-.44.13-.66Z"/>
    <path class="cls-1" d="m390.99,652.37c0,.11,0,.22-.01.34,0,.11,0,.22,0,.33,0-.11,0-.22,0-.34,0-.11,0-.22.01-.33Z"/>
    <path class="cls-1" d="m392.86,642.37c.05-.14.1-.28.15-.42-.05.14-.1.28-.15.42-.07.19-.13.38-.19.57-.06.17-.11.34-.16.51.05-.17.11-.34.16-.51.06-.19.13-.38.19-.57Z"/>
    <path class="cls-1" d="m662.99,378.18c-.26-.18-.52-.37-.79-.55-.17-.11-.34-.23-.5-.34.44.3.86.59,1.29.89Z"/>
    <path class="cls-1" d="m648.91,369.5c-.22-.12-.44-.24-.66-.36-.5-.27-.99-.53-1.5-.8-.08-.04-.16-.08-.24-.12.81.42,1.61.85,2.4,1.28Z"/>
    <path class="cls-1" d="m657.57,374.59c-.29-.18-.57-.36-.86-.54-.27-.17-.53-.33-.8-.5.56.34,1.11.69,1.66,1.04Z"/>
    <path class="cls-1" d="m652.09,371.29c-.1-.06-.2-.12-.3-.17-.65-.37-1.3-.74-1.96-1.11-.08-.04-.16-.09-.24-.13.85.47,1.68.94,2.5,1.41Z"/>
    <path class="cls-1" d="m653.55,372.13c-.26-.15-.53-.3-.79-.46.78.45,1.55.91,2.3,1.36-.5-.3-1.01-.6-1.52-.91Z"/>
    <path class="cls-1" d="m660.29,376.35c-.25-.17-.5-.34-.76-.5-.18-.12-.36-.23-.54-.35.44.28.87.57,1.3.86Z"/>
    <path class="cls-1" d="m670.58,383.91c-.09-.08-.18-.15-.27-.23-.15-.12-.29-.24-.44-.36-.06-.04-.11-.09-.17-.13.3.24.59.48.89.72Z"/>
    <path class="cls-1" d="m418.64,623.79c-.08-1.11-.11-2.17-.11-3.18,0-.1,0-.18,0-.28,0,.09,0,.18,0,.28,0,1.01.03,2.08.11,3.18Z"/>
    <path class="cls-1" d="m668.15,381.98c-.09-.07-.18-.14-.27-.21-.18-.14-.35-.27-.53-.41-.08-.06-.16-.12-.23-.17.35.26.69.53,1.03.79Z"/>
    <path class="cls-1" d="m665.62,380.06c-.2-.15-.4-.3-.61-.45-.06-.05-.12-.09-.18-.14-.13-.09-.27-.19-.4-.28.4.29.79.58,1.18.86Z"/>
    <polygon class="cls-1" points="408.16 686.26 408.16 686.26 408.16 686.26 408.16 686.26"/>
    <path class="cls-1" d="m408.16,686.27h0c-.46-.26-.92-.56-1.37-.86.45.3.91.6,1.37.86Z"/>
    <path class="cls-1" d="m645.66,367.78c-.22-.11-.43-.22-.65-.34-.46-.24-.93-.47-1.39-.7-.11-.06-.23-.11-.35-.17.8.4,1.6.8,2.39,1.21Z"/>
    <path class="cls-1" d="m420.85,635.16h0c-.74-2.37-1.26-4.61-1.63-6.74.37,2.12.89,4.37,1.63,6.74,0,0,0,0,0,0Z"/>
    <path class="cls-1" d="m598.66,350.72c-.32-.08-.64-.15-.96-.23-.05-.01-.1-.02-.14-.03-1.01-.23-2.02-.45-3.04-.67,1.4.3,2.78.61,4.15.93Z"/>
    <path class="cls-1" d="m631.7,361.3c-.68-.28-1.36-.56-2.04-.84-.35-.14-.71-.28-1.07-.42-.02,0-.04-.02-.06-.02,1.07.42,2.13.85,3.17,1.29Z"/>
    <path class="cls-1" d="m642.42,366.14c-.23-.11-.46-.23-.7-.35-.33-.16-.67-.32-1-.48-.33-.16-.66-.31-.99-.47.91.43,1.8.86,2.69,1.29Z"/>
    <path class="cls-1" d="m639.15,364.57c-.86-.4-1.74-.8-2.62-1.2-.21-.09-.41-.19-.62-.28,1.1.49,2.18.98,3.24,1.48Z"/>
    <path class="cls-1" d="m635.65,362.98c-.07-.03-.13-.06-.2-.09-.74-.33-1.5-.65-2.25-.97-.3-.13-.61-.26-.92-.39,1.14.48,2.26.96,3.37,1.45Z"/>
    <path class="cls-1" d="m476.43,578.84c2.32-1.74,4.72-3.53,7.19-5.38-2.47,1.85-4.87,3.64-7.19,5.38Z"/>
    <path class="cls-1" d="m681.33,666.85c-.05.51-.11,1.03-.18,1.55-.17,1.29-.4,2.6-.72,3.95.31-1.34.55-2.66.72-3.95.07-.52.13-1.04.17-1.55Z"/>
    <path class="cls-1" d="m682.57,679.62c.26-.31.52-.62.77-.95.08-.1.15-.2.23-.3-.08.1-.15.2-.23.3-.25.32-.51.64-.77.95Z"/>
    <polygon class="cls-1" points="640.6 521.01 640.6 521.01 640.57 520.96 640.6 521.01"/>
    <path class="cls-1" d="m401.67,681.02c-.13-.13-.25-.27-.37-.41-.03-.03-.06-.07-.09-.1.03.03.06.07.09.1.12.14.25.28.38.41.18.2.37.39.55.58,0,0,.02.02.02.02,0,0-.02-.02-.02-.02-.19-.19-.37-.38-.55-.58Z"/>
    <path class="cls-1" d="m412.36,639.78c-.22.18-.43.37-.64.56.21-.19.43-.38.64-.55,0,0,0,0,0,0,2.21-1.82,4.59-3.19,6.99-4.1-2.39.9-4.78,2.28-6.99,4.09t0,0Z"/>
    <path class="cls-1" d="m604.06,505.68l-168.6,129.88s-11.75-17.1,2.24-27.71c1.77-1.33,7.18-5.4,15.31-11.48-8.12,6.08-13.54,10.14-15.31,11.48-13.99,10.61-2.24,27.71-2.24,27.71l168.6-129.88h0Z"/>
    <path class="cls-1" d="m652.1,619.61c-.36-4.06-2.18-8.26-6.79-11.76-.43-.33-1.09-.82-1.94-1.46.85.64,1.51,1.14,1.94,1.46,4.61,3.5,6.43,7.7,6.79,11.76Z"/>
    <path class="cls-1" d="m579.75,583.33c5.18-4.35,10.35-8.69,15.47-12.99,2.94,2.2,5.78,4.32,8.53,6.38-2.75-2.06-5.59-4.19-8.53-6.38-5.12,4.3-10.28,8.64-15.47,12.99l67.8,52.23s4.03-5.87,4.56-12.86c-.53,7-4.56,12.86-4.56,12.86l-67.8-52.23Z"/>
    <path class="cls-1" d="m674.28,623.1c-.17-.11-.34-.22-.51-.33-.41-.26-.83-.52-1.26-.78.43.26.85.52,1.26.78.17.11.34.22.51.33Z"/>
    <path class="cls-1" d="m668.7,619.9c-.52-.26-1.05-.52-1.6-.78-.15-.07-.3-.14-.46-.22.15.07.3.15.46.22.54.25,1.08.51,1.6.78Z"/>
    <path class="cls-1" d="m403.29,652.93c-.25.71-.47,1.45-.67,2.2,0,.01,0,.02,0,.03-.26.99-.46,2.03-.64,3.08.17-1.05.37-2.09.64-3.08,0-.01,0-.02,0-.03.2-.75.42-1.48.67-2.2.25-.71.52-1.41.81-2.09,0,0,0-.01,0-.02,0,0,0,.01,0,.02-.29.68-.56,1.37-.81,2.09Z"/>
    <path class="cls-1" d="m404.44,650.11c.2-.43.4-.87.62-1.29.15-.28.31-.54.46-.81-.15.27-.31.53-.46.81-.22.42-.41.86-.61,1.29Z"/>
    <path class="cls-1" d="m409.47,642.51s0,0,.01-.01c.32-.35.64-.68.97-1-.33.32-.66.65-.97,1,0,0,0,.01-.01.02Z"/>
    <path class="cls-1" d="m401.67,660.51c.02-.21.03-.42.05-.63h0s0,0,0,0c-.02.21-.03.42-.05.63Z"/>
    <path class="cls-1" d="m401.67,666.86c.11,1.17.29,2.38.52,3.61-.23-1.22-.41-2.43-.52-3.61,0-.03,0-.06,0-.08-.02-.19-.03-.38-.04-.57.01.19.02.38.04.57,0,.03,0,.05,0,.08Z"/>
    <path class="cls-1" d="m404.32,683.55c-.18-.15-.35-.3-.52-.46-.13-.12-.26-.23-.4-.36-.15-.14-.3-.29-.45-.43.15.14.3.29.45.43.13.12.26.24.4.35.18.15.35.31.52.46.14.12.29.24.43.36.04.03.07.06.11.08-.04-.03-.07-.06-.11-.08-.14-.12-.29-.24-.43-.36Z"/>
    <path class="cls-1" d="m405.99,682.06c.12.25.24.5.36.76.11.23.23.46.34.69.11.22.22.44.33.65.14.26.27.52.41.78.02.04.05.09.07.13-.02-.04-.05-.09-.07-.13-.14-.26-.27-.52-.41-.78-.11-.22-.23-.44-.33-.65-.12-.23-.23-.46-.34-.69-.12-.25-.24-.51-.36-.76-.1-.2-.19-.4-.28-.6-.06-.14-.12-.28-.18-.42.06.14.12.28.18.42.09.2.19.4.28.6Z"/>
    <path class="cls-1" d="m403.12,674.49c.11.39.23.78.35,1.17.03.1.07.21.1.31.11.35.23.69.35,1.05.02.07.05.14.07.2-.02-.07-.05-.14-.07-.21-.12-.35-.24-.7-.35-1.04-.03-.1-.07-.21-.1-.31-.12-.39-.24-.79-.35-1.18-.01-.05-.03-.09-.04-.14-.06-.23-.12-.45-.18-.68.06.23.11.45.18.68.01.05.03.09.04.14Z"/>
    <path class="cls-1" d="m401.53,664.13c0,.18.01.36.02.54,0-.18-.02-.36-.02-.54-.01-.87,0-1.72.06-2.56h0s0,0,0,0c-.05.84-.07,1.69-.06,2.55Z"/>
    <path class="cls-1" d="m408.31,643.89c.09-.11.17-.24.26-.35,0,0,0,0,0,0-.09.11-.17.24-.26.35Z"/>
    <polygon class="cls-2" points="376.27 508.76 401.96 547.3 351.58 534.05 425.94 582.53 446.32 567.49 376.27 508.76"/>
    <path class="cls-2" d="m423.61,360.43c-.68.41-1.34.81-1.99,1.22-.06.04-.13.08-.19.12-.62.39-1.23.77-1.83,1.16-.09.06-.18.12-.27.17-.58.37-1.14.74-1.7,1.11-.11.07-.22.14-.33.21-.54.36-1.07.71-1.59,1.07-.12.08-.24.16-.35.24-.5.34-1,.69-1.48,1.03-.13.09-.26.18-.38.27-.47.33-.93.66-1.39.99-.13.1-.27.19-.4.29-.44.32-.87.64-1.3.95-.14.1-.27.2-.41.3-.42.31-.82.62-1.22.92-.14.1-.27.21-.41.31-.39.3-.77.59-1.15.89-.14.11-.27.21-.4.32-.36.29-.72.57-1.07.85-.14.11-.27.22-.41.33-.34.27-.67.54-.99.81-.14.11-.27.23-.41.34-.31.26-.62.52-.92.77-.14.12-.27.23-.41.34-.29.25-.57.49-.85.73-.13.12-.26.23-.4.35-.26.23-.53.46-.78.69-.14.12-.26.24-.4.36-.24.22-.48.43-.71.64-.13.12-.26.24-.39.35-.22.2-.44.4-.65.6-.13.12-.24.23-.37.35-.2.19-.4.38-.59.56-.12.12-.24.23-.35.34-.18.17-.36.34-.52.51-.12.12-.24.24-.36.36-.15.15-.31.3-.45.45-.07.07-.13.14-.2.2,4.8-4.88,14.17-13.19,28.44-21.73-.11.07-.22.13-.33.2-.03.02-.06.04-.09.05Z"/>
    <path class="cls-2" d="m394.1,383.47c-.1.1-.2.21-.29.31,0,0,0,0,0,0,.24-.26.51-.55.79-.85-.07.07-.14.15-.2.22-.11.11-.2.21-.3.32Z"/>
    <path class="cls-2" d="m395.06,382.45c-.11.12-.21.22-.32.34-.02.02-.04.04-.06.06.28-.3.59-.61.91-.94-.04.04-.09.09-.13.14-.13.14-.27.28-.4.41Z"/>
    <path class="cls-2" d="m441.73,350.87s.09-.04.14-.06c-.04.02-.07.03-.11.05-.01,0-.02.01-.03.02Z"/>
    <path class="cls-2" d="m426.4,358.79c.25-.15.51-.29.76-.44-.17.09-.34.19-.5.28-.09.05-.17.1-.26.15Z"/>
    <path class="cls-2" d="m429.43,357.08c.17-.09.34-.19.51-.28-.06.03-.13.07-.19.1-.11.06-.21.12-.32.18Z"/>
    <path class="cls-2" d="m445.11,349.35c.21-.09.42-.19.63-.28-.08.03-.16.07-.24.1-.13.06-.26.12-.39.17Z"/>
    <path class="cls-2" d="m439.77,351.79c.64-.31,1.29-.61,1.95-.91-.58.27-1.15.53-1.71.8-.08.04-.16.08-.24.12Z"/>
    <path class="cls-2" d="m436.38,353.44s-.05.03-.08.04c.61-.3,1.23-.61,1.85-.91-.13.06-.26.12-.39.19-.47.23-.92.46-1.38.68Z"/>
    <path class="cls-2" d="m429.94,356.81c.43-.24.87-.47,1.31-.71-.28.15-.57.3-.84.45-.16.09-.31.17-.46.26Z"/>
    <path class="cls-2" d="m433.24,355.04c-.09.05-.18.1-.28.15.56-.29,1.12-.58,1.69-.87-.08.04-.16.08-.24.12-.39.2-.79.4-1.17.6Z"/>
    <path class="cls-2" d="m427.17,358.35c.22-.13.45-.25.67-.38-.14.08-.29.16-.44.25-.08.04-.15.09-.23.13Z"/>
    <path class="cls-2" d="m443.36,350.13c.58-.26,1.16-.52,1.75-.78-.32.14-.64.28-.95.42-.27.12-.53.24-.79.36Z"/>
    <path class="cls-2" d="m447.8,348.2c-.24.1-.48.21-.72.31.76-.32,1.52-.65,2.29-.97,0,0-.01,0-.02,0-.52.22-1.03.43-1.55.65Z"/>
    <path class="cls-2" d="m597.55,350.46c-1.02-.23-2.05-.45-3.08-.68.01,0,.03,0,.04,0,1.02.22,2.04.44,3.04.67Z"/>
    <path class="cls-2" d="m662.21,377.63c-.19-.13-.39-.26-.58-.39.03.02.05.04.08.05.17.11.34.23.5.34Z"/>
    <path class="cls-2" d="m631.9,361.38c-.74-.31-1.49-.62-2.25-.92.69.28,1.37.56,2.04.84.07.03.13.05.2.08Z"/>
    <path class="cls-2" d="m598.71,350.73c-.34-.08-.67-.16-1.01-.24.32.07.64.15.96.23.02,0,.03,0,.05.01Z"/>
    <path class="cls-2" d="m593.69,349.61c.22.05.43.1.65.14,0,0,0,0,0,0-.22-.05-.44-.1-.66-.14Z"/>
    <path class="cls-2" d="m643.61,366.74c-.26-.13-.52-.26-.79-.39.15.07.29.15.44.22.11.06.23.11.35.17Z"/>
    <path class="cls-2" d="m642.43,366.15c-.24-.12-.47-.23-.7-.35.23.11.46.23.7.35,0,0,0,0,0,0Z"/>
    <path class="cls-2" d="m646.51,368.22c.08.04.16.08.24.12-.58-.3-1.16-.61-1.74-.91.22.11.43.22.65.34.29.15.57.3.86.44Z"/>
    <path class="cls-2" d="m640.72,365.32c-.47-.22-.93-.45-1.41-.67.14.07.28.14.42.2.33.16.66.31.99.47Z"/>
    <path class="cls-2" d="m649.59,369.87c.08.04.16.09.24.13-.52-.29-1.05-.57-1.58-.86.22.12.44.24.66.36.23.12.46.25.68.37Z"/>
    <path class="cls-2" d="m628.59,360.03s-.07-.03-.1-.04c.01,0,.03.01.04.02.02,0,.04.02.06.02Z"/>
    <path class="cls-2" d="m623.92,358.25c.07.03.15.05.22.08-.59-.22-1.16-.44-1.76-.65-.62-.22-1.26-.43-1.88-.65.11.04.22.08.33.11,1.04.36,2.07.73,3.1,1.11Z"/>
    <path class="cls-2" d="m639.29,364.64c-.91-.43-1.83-.85-2.77-1.26.88.4,1.76.79,2.62,1.2.05.02.1.04.15.07Z"/>
    <path class="cls-2" d="m628.07,359.83c-.44-.17-.89-.34-1.34-.51.33.13.67.25,1,.38.11.04.23.09.34.13Z"/>
    <path class="cls-2" d="m659.53,375.84c-.28-.18-.56-.36-.84-.55.1.06.2.13.3.2.18.12.36.23.54.35Z"/>
    <path class="cls-2" d="m603.18,351.82c-.25-.06-.5-.12-.74-.18.17.04.35.08.53.13.07.02.15.04.22.05Z"/>
    <path class="cls-2" d="m656.71,374.05c-.36-.22-.71-.44-1.07-.67.09.06.18.11.27.17.27.17.54.33.8.5Z"/>
    <path class="cls-2" d="m666.22,380.5c-.4-.3-.8-.59-1.21-.89.21.15.4.3.61.45.2.15.4.29.6.44Z"/>
    <path class="cls-2" d="m667.36,381.36c-.24-.18-.47-.36-.71-.54.16.12.32.25.48.37.08.06.16.11.23.17Z"/>
    <path class="cls-2" d="m669.01,382.64c-.37-.29-.75-.58-1.12-.87.09.07.18.14.27.21.28.22.58.44.86.66Z"/>
    <path class="cls-2" d="m664.83,379.48c-.19-.14-.39-.28-.59-.42.07.05.13.09.19.14.13.09.27.19.4.28Z"/>
    <path class="cls-2" d="m663.53,378.55c-.44-.31-.88-.62-1.32-.93.27.18.52.37.79.55.18.12.36.25.54.37Z"/>
    <path class="cls-2" d="m635.9,363.1c.21.09.42.19.62.28-.36-.16-.71-.32-1.08-.48.07.03.13.06.2.09.09.04.17.08.25.11Z"/>
    <path class="cls-2" d="m633.2,361.92c-.36-.15-.72-.31-1.09-.46.06.02.11.05.17.07.31.13.61.26.92.39Z"/>
    <path class="cls-2" d="m655.51,373.3c-.64-.39-1.3-.78-1.95-1.17.51.3,1.02.6,1.52.91.14.09.29.17.44.26Z"/>
    <path class="cls-2" d="m658.25,375.01c-.51-.32-1.02-.64-1.53-.96.29.18.57.36.86.54.22.14.45.28.68.42Z"/>
    <path class="cls-2" d="m660.91,376.76c-.46-.31-.92-.61-1.38-.91.26.17.5.34.76.5.21.14.42.27.62.41Z"/>
    <path class="cls-2" d="m669.86,383.32c-.26-.21-.51-.42-.77-.62.21.16.4.33.6.49.06.04.11.09.17.13Z"/>
    <path class="cls-2" d="m679.5,392.18s-.05-.06-.08-.09c.01.01.03.03.04.04.01.01.03.03.04.04Z"/>
    <path class="cls-2" d="m674.83,387.58c-.12-.11-.26-.23-.38-.34.23.21.46.42.68.62-.1-.09-.2-.19-.3-.28Z"/>
    <path class="cls-2" d="m671.18,384.4c-.29-.24-.59-.48-.88-.72.09.08.18.15.27.23.2.16.41.33.61.49Z"/>
    <path class="cls-2" d="m679.39,392.06c-.27-.28-.55-.57-.83-.85.17.18.35.36.52.53.1.11.21.21.31.32Z"/>
    <path class="cls-2" d="m676.98,389.63c.07.07.15.14.22.21-.43-.42-.87-.85-1.32-1.28.09.08.17.16.25.24.29.27.57.55.85.82Z"/>
    <path class="cls-2" d="m521.18,532.46c3.97-2.86,7.93-5.73,11.91-8.6-14.52-10.86-29.32-21.93-43.66-32.65h0s0,0,0,0h0c-35.46-26.51-63.46-47.45-69.53-51.99-.35-.26-.64-.48-.84-.63-.26-.19-.4-.3-.4-.3h0s-5.09,20.35-27.44,40.14h0s14.8-2.8,26.72-20.47l61.03,47.69h0s38.38,29.58,38.38,29.58c1.28-.92,2.57-1.85,3.85-2.78Z"/>
    <path class="cls-2" d="m652.1,619.61c-.36-4.06-2.18-8.26-6.79-11.76-.43-.33-1.09-.82-1.94-1.46-5.64-4.23-20.17-15.12-39.62-29.67-2.75-2.06-5.59-4.19-8.53-6.38-5.12,4.3-10.28,8.64-15.47,12.99l67.8,52.23s4.03-5.87,4.56-12.86c.04-.47.05-.94.06-1.41,0-.28,0-.57-.02-.86-.01-.27-.03-.54-.05-.81Z"/>
    <path class="cls-2" d="m689.5,667.58c.17-.45.33-.9.48-1.35,0-.02.01-.03.02-.05.17-.5.32-1,.47-1.5,0-.02.01-.03.02-.05.07-.26.15-.53.22-.79.04-.15.08-.29.11-.44.05-.21.1-.41.15-.62.04-.18.09-.36.13-.55.06-.25.11-.5.16-.76.03-.16.06-.32.1-.49.04-.23.08-.46.12-.69.04-.22.07-.44.11-.65.03-.2.06-.39.09-.59.02-.17.05-.33.07-.5.04-.29.07-.58.1-.88.02-.17.03-.34.05-.51.02-.19.03-.39.05-.58.02-.24.03-.48.05-.72.01-.22.02-.43.03-.65,0-.18.01-.36.02-.53,0-.23,0-.46,0-.69,0-.23,0-.47,0-.7,0-.19,0-.38-.01-.57,0-.18-.01-.36-.02-.53-.01-.29-.03-.59-.05-.88-.01-.18-.03-.36-.04-.54-.02-.19-.03-.39-.05-.58-.03-.26-.06-.52-.09-.78-.03-.2-.05-.4-.08-.61-.03-.18-.05-.37-.08-.55-.04-.25-.08-.5-.13-.75-.04-.22-.08-.44-.13-.66-.04-.18-.08-.37-.12-.55-.04-.18-.08-.37-.12-.55-.07-.29-.14-.57-.22-.86-.05-.18-.1-.36-.15-.55-.06-.19-.11-.38-.17-.57-.08-.27-.16-.53-.25-.8-.06-.19-.12-.38-.19-.57-.06-.18-.13-.36-.19-.55-.11-.29-.21-.57-.33-.86-.07-.18-.15-.36-.22-.54-.08-.18-.15-.35-.23-.53-.1-.23-.21-.46-.32-.7-.11-.23-.21-.45-.33-.68-.09-.18-.18-.36-.28-.54-.1-.18-.19-.37-.3-.55-.14-.26-.29-.53-.44-.79-.1-.17-.2-.35-.3-.52-.11-.18-.22-.36-.33-.54-.17-.27-.35-.54-.52-.82-.12-.18-.24-.35-.36-.53-.11-.16-.23-.32-.34-.48-.18-.26-.37-.51-.56-.76-.14-.18-.28-.36-.42-.54-.14-.18-.28-.35-.42-.53-.14-.17-.28-.33-.42-.5-.22-.26-.45-.52-.68-.78-.13-.15-.27-.3-.4-.45-.16-.17-.32-.35-.49-.52-.24-.25-.48-.5-.73-.74-.17-.17-.35-.34-.53-.51-.14-.14-.29-.28-.44-.41-.28-.27-.58-.53-.87-.79-.16-.14-.32-.28-.48-.42-.2-.17-.4-.34-.61-.51-.17-.14-.33-.27-.5-.41-.33-.26-.66-.52-1-.78-.16-.12-.32-.24-.48-.36-.31-.23-.62-.45-.94-.68-.22-.16-.45-.32-.68-.47-.24-.17-.49-.33-.74-.49-.17-.11-.34-.22-.51-.33-.41-.26-.83-.52-1.26-.78-.17-.1-.34-.21-.52-.31-.27-.16-.55-.32-.83-.47-.17-.1-.35-.19-.52-.29-.47-.26-.94-.51-1.42-.76-.18-.09-.35-.18-.53-.27-.52-.26-1.05-.52-1.6-.78-.15-.07-.3-.14-.46-.22-.32-.15-.65-.3-.98-.44-.18-.08-.36-.15-.53-.23-.28-.12-.56-.25-.84-.37h0c.01.2.03.39.05.57.04.48.09.95.12,1.45.01.23.02.47.02.72.02,4.12-.59,9.02-2.31,14.56h0s0,0,0,0c2.89.85,5.82,2.41,8.49,4.61,0,0,0,0,0,0,.5.41.99.84,1.47,1.3.24.23.48.46.71.7.23.24.47.48.69.73,0,0,.01.01.02.02.3.33.59.66.88,1.01,0,0,.01.01.01.02.58.7,1.14,1.43,1.67,2.2,0,0,0,0,0,0,.26.38.51.77.76,1.17l.03.04c.74,1.2,1.41,2.48,2,3.83,0,.01.01.03.02.04.58,1.36,1.08,2.79,1.48,4.28,0,.01,0,.02.01.03.4,1.51.7,3.08.88,4.72,0,0,0,0,0,.01.06.54.11,1.09.14,1.65,0,.01,0,.02,0,.03.05.84.07,1.69.06,2.56,0,.43-.02.87-.04,1.31-.02.44-.06.89-.09,1.34,0,.03,0,.05,0,.08-.05.51-.11,1.03-.17,1.55-.17,1.29-.4,2.6-.72,3.95-.01.05-.02.1-.03.15-.14.61-.3,1.22-.48,1.85-.01.04-.03.09-.04.14-.11.39-.23.78-.35,1.18-.03.1-.07.2-.1.3-.11.35-.23.69-.35,1.05-.04.12-.08.24-.12.36-.13.36-.26.73-.4,1.09-.04.1-.07.19-.11.29-.17.45-.36.9-.55,1.35-.06.13-.12.26-.17.4-.14.32-.28.64-.42.96-.09.2-.19.4-.28.6-.12.25-.24.5-.36.75-.11.23-.23.46-.35.7-.11.22-.22.43-.33.65-.14.26-.27.52-.41.78-.08.15-.17.3-.25.45-.16.29-.32.58-.48.87,0,0,0,0,0,0h0c.55-.3,1.1-.65,1.64-1.02,0,0,0,0,0,0,.22-.15.45-.31.67-.48.08-.06.17-.12.26-.18.1-.08.21-.16.31-.24.18-.14.36-.28.54-.43.14-.12.29-.24.43-.36.18-.15.35-.3.53-.46.13-.12.26-.23.4-.35.28-.26.56-.52.83-.8.11-.11.22-.23.33-.34.19-.19.37-.38.55-.58.13-.14.25-.27.38-.41.17-.19.35-.39.52-.59.11-.13.23-.26.34-.4.26-.31.52-.62.77-.95.08-.1.15-.2.23-.3.2-.26.4-.53.6-.8.1-.14.2-.28.3-.42.17-.25.34-.49.51-.74.09-.13.18-.27.27-.4.23-.35.46-.71.68-1.08.03-.04.05-.08.07-.12.23-.39.46-.77.68-1.17.07-.12.14-.25.2-.37.17-.31.34-.62.5-.93.06-.12.13-.25.19-.37.21-.41.4-.81.6-1.23.01-.02.02-.04.03-.06.21-.45.41-.91.6-1.37.04-.09.08-.19.12-.29.15-.37.3-.75.45-1.13.04-.11.08-.21.12-.32Z"/>
    <path class="cls-2" d="m435.45,635.56l168.6-129.88h0,0s0-.01,0-.01l61.03-47.69c1.11,1.65,2.25,3.17,3.4,4.57,0,0,0,.01.01.02.09.11.18.21.27.32,4.15,4.98,8.41,8.41,12.13,10.76.09.06.18.11.27.16.26.16.52.32.78.48.52.31,1.02.59,1.51.85,4.89,2.65,8.34,3.31,8.34,3.31h0c-22.35-19.79-27.44-40.14-27.44-40.14,0,0-.72.54-2.06,1.54-.13.1-.27.2-.41.31-.35.26-.75.56-1.17.88-9.22,6.9-35.14,26.27-67.14,50.2h0s0-.01,0-.01c-33.8,25.27-70.19,52.49-99.38,74.33-1.88,1.41-3.73,2.79-5.55,4.15-1.71,1.28-3.38,2.53-5.03,3.76-2.47,1.85-4.87,3.64-7.19,5.38-1.96,1.47-3.86,2.89-5.71,4.27-1.23.92-2.44,1.82-3.61,2.7-2.98,2.23-5.78,4.33-8.39,6.28-.71.53-1.4,1.05-2.07,1.55-1.27.95-2.48,1.86-3.64,2.73-8.12,6.08-13.54,10.15-15.31,11.48-13.99,10.61-2.24,27.71-2.24,27.71Z"/>
    <path class="cls-2" d="m420.85,635.16c-.74-2.37-1.26-4.61-1.63-6.74-.28-1.62-.47-3.17-.58-4.64-.08-1.11-.11-2.17-.11-3.18,0-.1,0-.18,0-.28,0-.15,0-.3.01-.44.03-.5.07-.98.12-1.46.01-.12.02-.23.03-.35,0-.07.01-.14.02-.21h0c-.16.06-.32.13-.47.2-.12.05-.24.11-.37.16-.08.03-.16.07-.23.1-.1.04-.2.09-.3.13-.33.15-.66.29-.98.44-.05.02-.09.04-.14.07-.11.05-.22.1-.33.15-.54.25-1.07.51-1.59.77-.03.02-.06.03-.1.05-.15.07-.29.15-.44.23-.48.25-.95.5-1.42.76-.17.1-.35.19-.52.29-.28.16-.55.32-.83.47-.18.1-.35.21-.52.31-.43.25-.84.51-1.25.77-.09.06-.19.12-.28.18-.08.05-.15.1-.23.15-.25.16-.49.32-.73.49-.18.12-.36.25-.54.37-.05.03-.1.07-.14.1-.23.16-.45.32-.67.48-.09.06-.18.13-.27.19-.16.12-.32.24-.48.36-.34.26-.67.51-.99.77-.08.06-.15.12-.23.19-.09.07-.19.15-.28.22-.11.09-.22.18-.33.27-.09.08-.19.16-.28.23-.16.14-.32.28-.48.42-.14.12-.27.24-.4.36-.16.14-.32.28-.47.43-.15.14-.3.28-.44.41-.01.01-.02.02-.04.04-.17.16-.33.32-.49.48-.11.11-.22.22-.33.33-.13.14-.27.27-.4.41-.17.17-.33.34-.48.52-.14.15-.27.3-.41.45-.23.26-.46.52-.68.78-.14.17-.28.34-.42.5,0,0,0,0,0,0,0,0,0,0,0,0-.14.17-.28.34-.41.52-.14.18-.28.36-.42.55-.19.25-.38.5-.56.76-.11.16-.23.32-.34.49,0,.01-.02.03-.03.04-.11.16-.23.33-.33.49-.1.15-.2.31-.3.46-.08.12-.16.24-.23.36-.11.18-.22.36-.33.53-.1.17-.21.35-.31.52-.15.26-.3.52-.44.78-.04.08-.08.16-.13.24-.06.11-.11.21-.17.32-.05.1-.11.21-.16.31-.04.08-.08.15-.12.23-.11.23-.22.46-.33.69-.11.23-.21.46-.31.69-.08.18-.15.36-.23.54-.07.18-.15.35-.22.53-.11.29-.22.58-.33.86-.02.04-.03.08-.04.12-.05.14-.1.28-.15.42-.07.19-.13.38-.19.57-.06.17-.11.34-.16.51-.03.09-.06.19-.09.28-.02.05-.03.1-.04.15-.04.14-.08.29-.12.43-.04.14-.08.28-.11.41-.01.04-.02.09-.04.13-.02.07-.04.15-.06.22-.05.21-.11.43-.16.64-.02.1-.05.21-.07.31-.02.08-.04.16-.05.24-.02.08-.03.16-.05.24-.02.11-.04.21-.07.32-.04.22-.09.44-.13.66-.03.16-.05.31-.08.47-.02.1-.03.19-.05.29,0,.06-.02.12-.03.18-.02.12-.04.24-.05.37-.02.13-.04.27-.05.4,0,.07-.02.14-.03.2-.03.26-.06.52-.09.78-.02.19-.04.39-.05.58-.01.18-.03.36-.04.54-.02.29-.04.59-.05.88,0,.07,0,.13,0,.2,0,.11,0,.22-.01.33,0,.11,0,.22,0,.34,0,.08,0,.16,0,.23,0,.23,0,.47,0,.7,0,.23,0,.46.01.69,0,.07,0,.15,0,.22,0,.1,0,.21.01.31,0,.12.01.24.02.36,0,.1,0,.19.01.29,0,.1.01.2.02.29,0,.14.02.29.03.43.01.19.03.39.05.58,0,.1.02.19.03.28,0,.08.01.15.02.23.03.29.06.58.1.87.02.17.05.33.07.5,0,.07.02.13.03.2.02.13.04.27.06.4.03.22.07.43.11.65.04.23.08.46.12.69.03.16.06.33.1.49.05.25.11.51.16.76.04.18.08.37.13.55.05.21.1.41.15.62.04.15.07.29.11.44.07.26.14.53.22.79,0,0,0,.01,0,.02,0,0,0,.02,0,.03.15.51.3,1.01.47,1.5,0,.02.01.03.02.05.15.46.31.91.48,1.36.04.11.08.21.12.32.06.16.13.32.19.48.09.22.17.44.26.65.04.09.08.19.12.28.19.46.39.92.6,1.37,0,0,0,.01.01.02,0,.01.01.02.02.04.12.26.25.52.38.77.08.15.15.31.23.46.05.09.1.19.14.28.02.03.03.06.05.09.16.32.33.63.5.94.07.12.14.25.2.37.03.05.06.1.09.15.2.35.4.69.6,1.03.01.02.03.04.04.06.01.02.02.03.03.05.16.27.34.53.51.79.06.1.12.19.18.29.02.03.04.07.07.1.07.1.13.2.2.3.17.25.34.5.51.75.1.14.2.28.3.42.2.27.4.54.6.81.07.1.15.2.22.29.25.32.51.64.77.95.11.13.23.27.34.4.14.16.28.32.43.48.03.03.06.07.09.1.12.14.25.28.37.41.18.2.37.39.55.58,0,0,.02.02.02.02.1.11.2.21.31.32.13.13.26.24.38.37.15.14.3.29.45.43.13.12.26.24.4.36.17.15.35.31.52.46.14.12.28.24.43.36.04.03.07.06.11.08.14.12.29.23.43.34.1.08.21.17.31.24.08.06.17.12.25.18.22.17.45.33.67.48,0,0,0,0,0,0,.09.06.18.11.27.17.45.3.91.6,1.37.86,0,0,0,0,0,0h0s0,0,0,0c0,0,0,0,0,0,0,0,0,0,0,0-.16-.29-.32-.57-.48-.86-.06-.11-.12-.22-.18-.33-.02-.04-.05-.09-.07-.13-.14-.26-.27-.52-.41-.78-.11-.22-.23-.44-.33-.65-.12-.23-.23-.46-.34-.69-.12-.25-.24-.51-.36-.76-.09-.2-.19-.4-.28-.6-.06-.14-.12-.28-.18-.42-.08-.18-.16-.37-.24-.55-.06-.13-.12-.26-.17-.39-.19-.45-.37-.9-.55-1.35-.04-.09-.07-.19-.11-.28-.14-.37-.28-.73-.41-1.09-.02-.05-.04-.1-.05-.15-.02-.07-.05-.14-.07-.2-.12-.35-.24-.7-.35-1.05-.03-.1-.07-.21-.1-.31-.12-.39-.24-.79-.35-1.17-.01-.05-.03-.09-.04-.14-.06-.23-.12-.45-.18-.68-.1-.39-.21-.78-.3-1.17-.01-.05-.02-.1-.03-.15-.15-.64-.26-1.26-.37-1.89-.23-1.22-.41-2.43-.52-3.61,0-.03,0-.05,0-.08-.02-.19-.03-.38-.04-.57-.02-.25-.04-.51-.05-.76-.01-.26-.02-.51-.03-.77,0-.18-.02-.36-.02-.54-.01-.87,0-1.72.06-2.55,0,0,0,0,0-.01,0,0,0-.01,0-.02.02-.35.06-.68.09-1.02.02-.21.03-.42.05-.63,0,0,0,0,0,0,0,0,0,0,0,0,.06-.56.15-1.1.24-1.64.17-1.05.37-2.09.64-3.08,0-.01,0-.02,0-.03.2-.75.43-1.48.67-2.2.25-.71.52-1.41.81-2.09,0,0,0-.01,0-.02,0,0,0-.02.01-.03.1-.23.22-.45.32-.68.2-.43.4-.87.61-1.29.15-.28.31-.54.46-.81.2-.35.39-.71.6-1.05,0-.01.02-.03.02-.04,0,0,0,0,0,0,.02-.03.04-.07.07-.1.23-.36.46-.72.7-1.07t0,0c.44-.65.92-1.26,1.4-1.86.09-.11.17-.24.26-.35,0,0,0,0,0,0,0,0,.01-.01.01-.02.29-.35.58-.68.88-1.01,0,0,0,0,0,0,0,0,0-.01.01-.02.32-.35.64-.68.97-1,.03-.02.05-.05.08-.08.39-.38.78-.74,1.18-1.09.21-.19.43-.38.64-.56t0,0c2.21-1.82,4.59-3.19,6.99-4.09.5-.19,1-.36,1.5-.51,0,0,0,0,0,0,0,0,0,0,0,0,0,0,0,0,0,0h0s0,0,0,0Z"/>
    <polygon class="cls-2" points="636.81 567.49 625.77 559.34 620.72 555.61 616.81 560.91 672.18 601.77 676.09 596.47 670.79 592.56 657.19 582.52 636.81 567.49"/>
    <polygon class="cls-2" points="425.94 582.53 412.34 592.56 407.04 596.47 410.95 601.77 472.02 561.57 462.42 555.61 457.36 559.34 446.32 567.49 425.94 582.53"/>
    <g>
      <path class="cls-1" d="m551.32,498.97c.68.47,1.34.93,2.01,1.39,10-7.22,19.84-14.32,29.31-21.15l-.07-13.87c-5.05-3.03-10.11-6.14-15.73-9.73-5.26,4.19-10.4,8.19-15.66,12.19l.05,12.45.11,18.72Z"/>
      <path class="cls-1" d="m534.42,390.32l-.03-3.91-.03-2.83c-10.75.54-21.27,2.05-31.29,4.4v.17c5.05,4.14,10.09,8.16,15.76,12.55,5.56-3.59,10.55-6.91,15.58-10.38Z"/>
      <path class="cls-1" d="m464.22,453.12c7.22,5.21,14.93,10.77,22.98,16.58l-.04-6.12c-5.63-4.9-10.7-9.45-15.87-14.2-2.43,1.3-4.77,2.53-7.07,3.74Z"/>
      <path class="cls-1" d="m510.39,444.15l-.1-22.24-.04-8.36c-5.36-4.25-10.56-8.52-15.85-12.99-5.03,2.87-10.1,5.68-15.46,8.54l.17,30.83c5.29,4.77,10.46,9.3,15.78,13.81,5.14-3.09,10.22-6.24,15.5-9.59Z"/>
      <path class="cls-1" d="m558.09,444.82l-.17-30.51c-5.65-3.67-10.7-7.05-15.76-10.56-5.24,3.72-10.35,7.25-15.59,10.78l.17,30.54c5.07,3.84,10.1,7.54,15.7,11.53,5.17-3.81,10.18-7.58,15.64-11.78Z"/>
      <path class="cls-1" d="m581.93,387.64c-10-2.24-20.48-3.66-31.21-4.11l.04,6.67c5.1,3.39,10.11,6.61,15.68,10.09,5.58-4.44,10.54-8.48,15.49-12.65Z"/>
      <path class="cls-1" d="m531.47,501.66c1.14-.82,2.3-1.65,3.51-2.51l-.07-15.91-.07-15.28c-5.16-3.76-10.22-7.56-15.81-11.9-5.24,3.47-10.33,6.75-15.53,10.03l.07,15.42c9.05,6.53,18.4,13.28,27.9,20.14Z"/>
      <polygon class="cls-1" points="620.72 555.61 616.81 560.91 672.18 601.77 676.09 596.47 670.79 592.56 785.61 512.2 709.34 528.56 741.51 467.43 625.77 559.34 620.72 555.61"/>
      <path class="cls-1" d="m704.15,467.6c4.36,3.06,7.9,4.23,9.76,2.88,2.07-1.5-3.42-15.19-14.03-28.88-10.6-13.67-22.86-21.81-24.39-20.7-1.86,1.35-1.51,5.21.39,10.19.08-.62.26-1.12.64-1.42,2.52-1.98,11.12,4.83,19.2,15.24,8.05,10.38,12.53,20.42,9.99,22.41-.39.29-.93.34-1.56.26Z"/>
      <path class="cls-1" d="m622.56,402.99c-.15.15-.31.3-.45.44l.06,12.29.11,18.66c4.86,2.37,9.26,4.45,13.58,6.43,3.4-2.45,6.6-4.76,9.59-6.92,1.85-1.92,3.65-3.8,5.42-5.68-.41-.63-.77-1.26-1.22-1.89-6.39-8.92-15.76-16.8-27.09-23.32Z"/>
      <path class="cls-1" d="m668.58,412.34c.75,1.04,1.45,2.09,2.12,3.15l.55-.41c2.08-1.51,7.58-1.65,10.01-1.07,0,0,.01,0,.02,0,3.83.62,8.51,3.04,13.4,6.87,0,0,0,0,0,0,0,0,0,0,0,0-1.71-8.06-5.13-16.25-11.24-24.08-.26-.33-.51-.66-.77-.98-.99-1.22-2.06-2.44-3.22-3.68.01.01.03.03.04.04-.03-.03-.05-.06-.08-.09-.01-.01-.02-.02-.03-.03-.27-.28-.55-.57-.83-.85-.24-.25-.47-.49-.72-.74-.04-.04-.08-.09-.13-.13-.17-.17-.34-.33-.51-.5-.43-.42-.87-.85-1.32-1.28-.21-.2-.42-.39-.63-.59-.04-.04-.09-.08-.13-.12-.1-.09-.2-.19-.3-.28-.12-.11-.26-.23-.38-.34-.18-.16-.35-.32-.53-.48-.22-.2-.44-.39-.66-.58-.12-.11-.25-.22-.38-.33-.25-.22-.5-.43-.75-.65-.12-.1-.24-.21-.37-.31-.19-.16-.39-.33-.58-.49-.29-.24-.59-.48-.88-.72-.15-.12-.29-.24-.44-.36-.26-.21-.51-.42-.77-.62-.03-.02-.05-.04-.08-.06-.37-.29-.75-.58-1.12-.87-.18-.14-.35-.27-.53-.41-.24-.18-.47-.36-.71-.54-.14-.11-.29-.21-.43-.31-.4-.3-.8-.59-1.21-.89-.06-.05-.12-.09-.18-.14-.19-.14-.39-.28-.59-.42-.24-.17-.48-.34-.72-.5-.44-.31-.88-.62-1.32-.93-.19-.13-.39-.26-.58-.39-.24-.16-.47-.32-.71-.48-.46-.31-.92-.61-1.38-.91-.28-.18-.56-.36-.84-.55-.15-.1-.3-.19-.45-.28-.51-.32-1.02-.64-1.53-.96-.36-.22-.71-.44-1.07-.67-.04-.03-.09-.05-.13-.08-.64-.39-1.3-.78-1.95-1.17-.26-.15-.53-.3-.79-.46-.22-.13-.45-.26-.68-.39-.1-.06-.2-.12-.3-.17-.65-.37-1.3-.74-1.96-1.11-.52-.29-1.05-.57-1.58-.86-.5-.27-.99-.53-1.5-.8-.58-.3-1.16-.61-1.74-.91-.46-.24-.93-.47-1.39-.7-.26-.13-.52-.26-.79-.39-.13-.07-.27-.13-.4-.2-.24-.12-.47-.23-.7-.35-.33-.16-.67-.32-1-.48-.47-.22-.93-.45-1.41-.67,0,0-.01,0-.02,0-.91-.43-1.83-.85-2.77-1.26-.36-.16-.71-.32-1.08-.48-.74-.33-1.5-.65-2.25-.97-.36-.15-.72-.31-1.09-.46-.07-.03-.14-.06-.21-.09-.74-.31-1.49-.62-2.25-.92-.35-.14-.71-.28-1.07-.42-.03-.01-.07-.03-.1-.04-.14-.06-.28-.11-.42-.17-.44-.17-.89-.34-1.34-.51-.64-.25-1.28-.49-1.93-.74-.08-.03-.15-.06-.23-.09-.15-.05-.29-.11-.44-.16-.59-.22-1.16-.44-1.76-.65-.62-.22-1.26-.43-1.88-.65-.12-.04-.25-.09-.37-.13-.04-.01-.09-.03-.13-.04-1.88-.65-3.78-1.27-5.72-1.88-.06-.02-.12-.04-.18-.06-1.98-.62-3.98-1.21-6.02-1.78-.03,0-.07-.02-.1-.03-.2-.06-.41-.11-.61-.17-1.18-.33-2.37-.65-3.57-.96-.07-.02-.15-.04-.22-.06-.13-.03-.26-.07-.38-.1-.25-.06-.5-.12-.74-.18-1.01-.25-2.02-.51-3.05-.75-.04,0-.08-.02-.12-.03-.19-.04-.37-.09-.56-.13-.34-.08-.67-.16-1.01-.24-.05-.01-.1-.02-.14-.03-1.02-.23-2.05-.45-3.08-.68-.04,0-.08-.02-.12-.03-.22-.05-.44-.1-.66-.14.22.05.43.1.65.14-6.13-1.31-12.5-2.4-19.09-3.24-7.05-.9-14.34-1.53-21.87-1.81-.88-.03-1.78-.04-2.66-.07-1.19-.03-2.38-.07-3.58-.09-.62,0-1.24,0-1.87-.01-.45,0-.9,0-1.35,0l-2.91-.04c-64.51,0-113.31,24.53-134.83,46.88-1.43,1.49-2.75,2.97-3.94,4.43-.1.13-.19.25-.29.38-1.17,1.46-2.25,2.93-3.24,4.42-4.64,6.98-7.31,14.19-8.7,21.3,5.04-4.16,9.92-6.89,13.94-7.74.35-.12.7-.22,1.05-.3,2.43-.58,4.67-.27,6.74,1.23l2.98,2.22c1.07-1.75,2.21-3.5,3.46-5.22,23.16-31.88,72.24-52.5,125.02-52.5s102.44,20.71,125.37,52.76Z"/>
      <path class="cls-1" d="m371.13,444.45c1.37-2.33,2.92-4.7,4.62-7.05,0,0,0,0,0,0,0,0,0,0,0,0-.06-.62-.12-1.25-.17-1.88-.6-7.61-.15-16.35,2.75-25.55,1.95-6.2,5.03-12.61,9.64-19.02,1.73-2.4,3.66-4.79,5.84-7.18h0s0,0,0,0c0,0,0,0,0,0,.09-.1.19-.21.29-.31-.1.1-.2.21-.29.31,0,0,0,0,0,0,.24-.26.51-.55.79-.85.03-.03.05-.05.07-.08.28-.3.59-.61.91-.94,0,0,0,0,0,0,4.8-4.88,14.17-13.19,28.44-21.73.77-.46,1.56-.92,2.36-1.39.25-.15.51-.29.76-.44.22-.13.45-.25.67-.38.53-.3,1.05-.59,1.59-.89.17-.09.34-.19.51-.28.43-.24.87-.47,1.31-.71.57-.31,1.14-.61,1.72-.91.56-.29,1.12-.58,1.69-.87.54-.28,1.09-.56,1.65-.83.61-.3,1.23-.61,1.85-.91.53-.26,1.08-.52,1.62-.78.64-.31,1.29-.61,1.95-.91,0,0,0,0,0,0,.05-.02.09-.04.14-.06.49-.23.99-.45,1.49-.68.58-.26,1.16-.52,1.75-.78.21-.09.42-.19.63-.28.44-.19.89-.38,1.33-.57.76-.32,1.52-.65,2.29-.97,1.23-.51,2.48-1.01,3.76-1.5,22.58-8.76,51.7-15.47,87.89-15.47l2.91.03c36.77,0,66.24,6.92,88.97,15.88,33.48,13.21,52.31,30.85,58.24,37.32,2.55,2.79,4.77,5.6,6.71,8.4,1.77,2.56,3.27,5.12,4.58,7.67,1.08,2.1,2.03,4.19,2.83,6.26.5,1.28.94,2.55,1.34,3.82,3,9.48,3.41,18.49,2.73,26.26,1.95,2.63,3.69,5.26,5.24,7.88,1.01-2.97,1.98-5.83,2.89-8.5,6.03-17.81,3.01-35.5-8.97-52.57-27.35-38.95-93.75-65.13-165.23-65.13s-137.18,26.11-164.9,64.98c-12.4,17.37-15.69,35.42-9.82,53.66.73,2.32,1.61,4.97,2.58,7.92Z"/>
      <path class="cls-1" d="m575.98,641.22c0-6.36-5.16-11.52-11.52-11.52s-11.52,5.16-11.52,11.52,5.16,11.52,11.52,11.52,11.52-5.16,11.52-11.52Z"/>
      <path class="cls-1" d="m498.18,669c0,24.35,19.79,44.09,44.16,44.09,20.18,0,37.17-13.48,42.48-31.9-7.57,13.48-22,22.59-38.58,22.59-24.39,0-44.17-19.74-44.17-44.1,0-4.22.62-8.3,1.72-12.18-3.56,6.36-5.61,13.69-5.61,21.5Z"/>
      <path class="cls-1" d="m615.98,712.69c-8.08-1.14-14.35-5.5-15.89-10.43-12.06,19.02-33.28,31.7-57.51,31.7s-44.87-12.32-57-30.94c-1.93,4.62-7.98,8.59-15.64,9.67-1.76.25-3.44.28-5.1.21,10.06,20.96,31.83,46.39,78.41,46.39,36.57,0,62.5-15.62,77.3-46.36-1.49.03-3-.02-4.58-.24Z"/>
      <path class="cls-1" d="m605.87,438.92l-.05-8.91-.11-21.86c-5.75-2.96-10.77-5.61-15.67-8.3-5.16,4.45-10.2,8.68-15.76,13.23l.05,9.42.12,21.14c5.24,3.24,10.38,6.31,15.65,9.35,5.56-4.85,10.61-9.35,15.76-14.07Z"/>
      <path class="cls-1" d="m707.17,666.96c-5.1,10.93-13.48,14.95-18.2,16.36.8-1.02,1.59-2.08,2.33-3.17,3.47-5.22,5.79-10.92,7.04-16.73.82-3.85,1.18-7.74,1.07-11.59-.03-.96-.1-1.93-.19-2.91-1.06-11.79-6.47-22.81-15.92-29.96-1.8-1.36-3.71-2.49-5.64-3.46-4.54-2.3-9.37-3.57-14.28-3.87-1.26-5.04-3.26-8.03-4.25-8.76-.79-.61-5.55-4.07-13.27-9.66-8.81-6.39-21.5-15.57-36.67-26.52-1.71-1.24-3.44-2.49-5.17-3.74,47.76-40.12,89.74-75.4,100.81-84.7,0,0,0,0-.01-.01-6.62-5.02-16.44-14.82-22.97-24.78-6.38-9.75-12.44-18.14-14.65-26.37-.31.23-.64.46-.97.7-20.67,14.92-71.68,51.72-124.72,90.01-53.03-38.29-104.05-75.09-124.71-90.01-.33-.24-.66-.47-.97-.7-2.21,8.24-8.27,16.62-14.65,26.37-6.53,9.96-16.35,19.76-22.97,24.78,0,0,0,0-.01.01,11.07,9.3,53.05,44.58,100.81,84.7-1.74,1.26-3.46,2.5-5.18,3.74-15.16,10.95-27.86,20.14-36.67,26.52-7.72,5.59-12.48,9.06-13.27,9.66-.98.73-2.98,3.72-4.25,8.76-4.91.3-9.74,1.57-14.28,3.87-1.93.97-3.84,2.1-5.64,3.46-9.45,7.16-14.86,18.18-15.92,29.96-.1.98-.16,1.95-.19,2.91-.11,3.85.25,7.74,1.07,11.59,1.24,5.81,3.56,11.51,7.04,16.73.74,1.1,1.53,2.16,2.33,3.17-4.72-1.42-13.09-5.44-18.2-16.36-3.82,3-6.31,7.47-6.99,12.64-.7,5.29.57,10.66,3.56,15.14,2.99,4.47,7.33,7.5,12.23,8.55.61.13,1.23.23,1.84.29h0c.22.02.44.04.66.05,4.05.27,7.97-.89,11.25-3.39,2.56-1.91,4.45-4.54,5.72-7.55,3.88,2.62,8.14,4.54,12.64,5.71.58.14,1.14.33,1.72.45,10.73,2.29,21.64.23,30.09-6.6,3.78-3.05,6.37-5.94,8.12-8.33-2.69-2.27-5.67-5.39-7.18-9.02-3.15-7.57-2.29-6.39-2.29-6.39,0,0,4.79,4.97,13.56,8.78,1.43.62,2.76,1.12,3.94,1.52,1.34.45,2.82.13,3.86-.84l14.44-13.49c2.09-1.75,4.22-3.54,6.39-5.36,1.69-9.48,5.89-18.09,11.88-25.13l-33.62,27.24c-.25.2-.51.39-.78.56.27-.17.53-.36.78-.56l33.62-27.24c4.26-5,9.43-9.21,15.25-12.36h0c7.49-4.05,16.06-6.36,25.16-6.39.05,0,.1,0,.15,0,6.69,0,13.09,1.24,18.99,3.49h0c10.65,4.06,19.66,11.44,25.76,20.88h0c3.89,6.01,6.6,12.85,7.81,20.19,1.89,1.59,3.76,3.15,5.58,4.68l14.44,13.49c1.03.97,2.51,1.29,3.86.84,1.18-.4,2.51-.9,3.94-1.52,8.76-3.81,13.56-8.78,13.56-8.78,0,0,.86-1.18-2.29,6.39-1.51,3.62-4.49,6.75-7.18,9.02,1.75,2.39,4.34,5.28,8.13,8.33,8.45,6.82,19.36,8.89,30.09,6.6.57-.12,1.14-.31,1.71-.45,4.5-1.17,8.76-3.09,12.64-5.71,1.27,3.01,3.17,5.64,5.72,7.55,3.29,2.5,7.2,3.66,11.25,3.39.22-.02.44-.03.66-.05h0c.61-.07,1.23-.16,1.84-.29,4.9-1.05,9.24-4.08,12.23-8.55,2.99-4.49,4.26-9.86,3.56-15.14-.68-5.17-3.17-9.64-6.99-12.64Z"/>
      <path class="cls-1" d="m598.97,467.43c7.85-5.66,15.33-11.06,22.33-16.12-2.15-1.06-4.33-2.13-6.55-3.26-5.1,4.79-10.28,9.53-15.8,14.47l.02,4.77v.15Z"/>
      <path class="cls-1" d="m462.1,404.18c-10.4,6.25-19.03,13.67-25.08,22.01-.93,1.27-1.75,2.57-2.55,3.86,1.7,1.76,3.43,3.55,5.2,5.35,3.01,2.17,6.22,4.49,9.61,6.94,4.8-2.31,9.17-4.48,13.51-6.68l-.08-15.32-.09-15.67c-.18-.17-.34-.33-.52-.49Z"/>
      <polygon class="cls-1" points="407.04 596.47 410.95 601.77 472.02 561.57 462.42 555.61 457.36 559.34 341.61 467.43 373.79 528.56 297.51 512.2 412.34 592.56 407.04 596.47"/>
      <path class="cls-1" d="m406.49,429.68c.38.3.57.8.64,1.42,1.89-4.98,2.24-8.84.39-10.19-1.53-1.11-13.8,7.02-24.39,20.7-10.61,13.69-16.1,27.38-14.03,28.88,1.86,1.35,5.4.18,9.76-2.88-.63.08-1.17.03-1.56-.26-2.54-1.99,1.94-12.03,9.99-22.41,8.08-10.42,16.69-17.22,19.2-15.24Z"/>
      <path class="cls-2" d="m717.62,653.64l-1.26-.99c0-.46-.01-.91-.03-1.37-.04-1.25-.13-2.56-.25-3.88-1.52-16.94-9.75-32.24-22.59-41.97-1.86-1.4-3.84-2.69-6.01-3.89l176.36-123.42-122.66,26.3,52.74-100.21-65.62,52.11,2.3-6.82c1-2.95,1.97-5.79,2.89-8.49,7.75-22.87,3.89-46.29-11.14-67.72-15.33-21.83-40.82-40.22-73.71-53.19-31.76-12.52-68.2-19.14-105.37-19.14s-73.15,6.6-104.85,19.09c-32.79,12.92-58.32,31.24-73.82,52.98-15.45,21.65-19.66,45.37-12.17,68.61.67,2.12,1.46,4.52,2.33,7.16l1.41,4.29c-.5,1.08-.96,2.14-1.37,3.17l-65.57-52.07,52.74,100.21-122.66-26.3,176.3,123.39c-2.2,1.22-4.21,2.52-6.12,3.96-12.79,9.69-21.01,24.96-22.54,41.86-.14,1.41-.22,2.68-.26,4.02-.01.43-.02.87-.02,1.3l-1.26.99c-7.33,5.75-12.06,14.19-13.32,23.74-1.23,9.35.99,18.85,6.27,26.75,5.44,8.14,13.51,13.71,22.74,15.69,1.18.25,2.39.45,3.61.58l.9.09h.2l.22.02c.75.05,1.52.08,2.28.08,7.36,0,14.38-2.36,20.28-6.83.05-.03.09-.07.14-.1,1.24.42,2.51.79,3.76,1.12l.38.1c.45.13,1.2.34,2.09.53,3.95.84,7.95,1.27,11.89,1.27,6.77,0,13.26-1.22,19.32-3.63l3.44,7.17c17.33,36.11,50.6,55.99,93.66,55.99s74.93-19.35,92.55-55.95l3.11-6.45c5.47,1.9,11.27,2.87,17.26,2.87,3.95,0,7.95-.43,11.89-1.27.89-.19,1.64-.4,2.07-.52l.39-.1c1.26-.33,2.53-.71,3.77-1.12.04.03.09.06.13.1,5.91,4.47,12.93,6.84,20.29,6.84.77,0,1.53-.03,2.29-.08h.15s.29-.02.29-.02l.88-.09c1.22-.13,2.43-.32,3.6-.58,9.23-1.98,17.31-7.56,22.76-15.71,5.27-7.9,7.49-17.39,6.26-26.74-1.26-9.56-5.99-17.99-13.32-23.75Zm23.9-186.22l-32.17,61.13,76.27-16.36-114.82,80.36,5.3,3.91-3.91,5.3-55.37-40.86,3.91-5.3,5.05,3.73,115.75-91.91Zm-45.79-22.51c-8.08-10.41-16.69-17.22-19.2-15.24-.38.29-.57.8-.64,1.42-1.89-4.98-2.24-8.84-.39-10.19,1.53-1.11,13.8,7.02,24.39,20.7,10.61,13.69,16.1,27.38,14.03,28.88-1.86,1.35-5.4.18-9.76-2.88.63.08,1.17.03,1.56-.26,2.54-1.99-1.94-12.03-9.99-22.41Zm-152.51-85.35c-52.79,0-101.86,20.61-125.02,52.5-1.25,1.72-2.39,3.47-3.46,5.22l-2.98-2.22c-2.08-1.51-4.31-1.81-6.74-1.23-.34.08-.69.18-1.05.3-4.02.85-8.9,3.58-13.94,7.74,1.38-7.11,4.06-14.31,8.7-21.3.99-1.48,2.07-2.96,3.24-4.42.1-.13.19-.25.29-.38,1.19-1.46,2.5-2.94,3.94-4.43,21.52-22.35,70.32-46.88,134.83-46.88l2.91.04c.45,0,.9,0,1.35,0,.62,0,1.25,0,1.87.01,1.2.02,2.39.06,3.58.09.89.02,1.78.03,2.66.07,7.53.28,14.82.91,21.87,1.81,6.59.84,12.96,1.94,19.09,3.24-.22-.05-.43-.1-.65-.14.22.05.44.1.66.14.04,0,.08.02.12.03,1.03.22,2.06.44,3.08.68.05.01.1.02.14.03.34.08.67.16,1.01.24.19.04.38.09.56.13.04,0,.08.02.12.03,1.02.24,2.04.5,3.05.75.25.06.5.12.74.18.13.03.26.06.38.1.07.02.15.04.22.06,1.2.31,2.39.63,3.57.96.2.06.41.11.61.17.03,0,.07.02.1.03,2.04.57,4.05,1.17,6.02,1.78.06.02.12.04.18.06,1.94.61,3.84,1.23,5.72,1.88.04.01.09.03.13.04.13.04.25.09.37.13.63.22,1.26.43,1.88.65.59.21,1.17.44,1.76.65.15.05.29.11.44.16.08.03.15.06.23.09.65.24,1.29.49,1.93.74.44.17.9.34,1.34.51.14.06.28.11.42.17.03.01.07.03.1.04.36.14.71.28,1.07.42.75.3,1.5.61,2.25.92.07.03.14.06.21.09.36.15.73.31,1.09.46.76.32,1.51.64,2.25.97.36.16.72.32,1.08.48.93.42,1.86.84,2.77,1.26,0,0,.01,0,.02,0,.47.22.94.45,1.41.67.33.16.67.32,1,.48.24.12.47.23.7.35.13.07.27.13.4.2.26.13.52.26.79.39.47.23.93.47,1.39.7.59.3,1.17.6,1.74.91.5.27,1,.53,1.5.8.53.29,1.06.57,1.58.86.66.37,1.31.74,1.96,1.11.1.06.2.12.3.17.23.13.45.26.68.39.26.15.53.3.79.46.66.39,1.31.77,1.95,1.17.04.03.09.05.13.08.36.22.72.44,1.07.67.52.32,1.03.64,1.53.96.15.09.3.19.45.28.28.18.56.36.84.55.47.3.92.61,1.38.91.24.16.48.32.71.48.19.13.39.26.58.39.45.31.88.62,1.32.93.24.17.48.34.72.5.2.14.4.28.59.42.06.05.12.09.18.14.41.3.81.59,1.21.89.14.1.29.21.43.31.24.18.47.36.71.54.18.14.35.27.53.41.38.29.76.58,1.12.87.03.02.05.04.08.06.26.21.52.42.77.62.15.12.29.24.44.36.3.24.59.48.88.72.2.16.39.33.58.49.12.1.24.21.37.31.25.22.5.43.75.65.12.11.25.22.38.33.22.2.44.39.66.58.18.16.35.32.53.48.13.11.26.23.38.34.1.09.2.19.3.28.04.04.09.08.13.12.21.2.42.39.63.59.45.43.89.85,1.32,1.28.17.17.34.33.51.5.04.04.08.09.13.13.25.25.48.49.72.74.28.28.56.57.83.85.01.01.02.02.03.03.03.03.05.06.08.09-.01-.01-.03-.03-.04-.04,1.16,1.23,2.23,2.46,3.22,3.68.27.33.52.65.77.98,6.11,7.83,9.53,16.02,11.24,24.08,0,0,0,0,0,0,0,0,0,0,0,0-4.89-3.83-9.57-6.25-13.4-6.87,0,0-.01,0-.02,0-2.43-.58-7.93-.44-10.01,1.07l-.55.41c-.68-1.05-1.37-2.11-2.12-3.15-22.93-32.05-72.14-52.76-125.37-52.76Zm107.66,68.63c-1.78,1.88-3.58,3.77-5.42,5.68-2.99,2.16-6.2,4.47-9.59,6.92-4.32-1.98-8.71-4.06-13.58-6.43l-.11-18.66-.06-12.29c.14-.15.3-.29.45-.44,11.34,6.52,20.71,14.4,27.09,23.32.44.63.81,1.27,1.22,1.89Zm-171.76,11.73l-.17-30.83c5.35-2.87,10.43-5.68,15.46-8.54,5.29,4.48,10.49,8.75,15.85,12.99l.04,8.36.1,22.24c-5.28,3.35-10.36,6.5-15.5,9.59-5.32-4.51-10.49-9.04-15.78-13.81Zm8.09,29.78c-8.06-5.81-15.76-11.37-22.98-16.58,2.3-1.2,4.64-2.43,7.07-3.74,5.17,4.75,10.25,9.3,15.87,14.2l.04,6.12Zm15.88-81.56v-.17c10.01-2.35,20.54-3.86,31.29-4.4l.03,2.83.03,3.91c-5.03,3.47-10.02,6.79-15.58,10.38-5.67-4.39-10.72-8.41-15.76-12.55Zm15.94,67.91c5.59,4.33,10.65,8.14,15.81,11.9l.07,15.28.07,15.91c-1.21.86-2.36,1.69-3.51,2.51-9.5-6.86-18.85-13.61-27.9-20.14l-.07-15.42c5.19-3.28,10.29-6.57,15.53-10.03Zm7.72-11l-.17-30.54c5.24-3.52,10.35-7.06,15.59-10.78,5.06,3.51,10.11,6.89,15.76,10.56l.17,30.51c-5.46,4.2-10.47,7.97-15.64,11.78-5.6-4-10.63-7.69-15.7-11.53Zm23.97-61.54c10.72.45,21.21,1.87,31.21,4.11-4.96,4.16-9.92,8.21-15.49,12.65-5.56-3.48-10.57-6.7-15.68-10.09l-.04-6.67Zm16.11,72.09c5.63,3.59,10.69,6.7,15.73,9.73l.07,13.87c-9.47,6.84-19.31,13.93-29.31,21.15-.66-.46-1.33-.92-2.01-1.39l-.11-18.72-.05-12.45c5.26-4,10.4-8,15.66-12.19Zm7.62-11.98l-.12-21.14-.05-9.42c5.56-4.55,10.6-8.78,15.76-13.23,4.89,2.69,9.91,5.34,15.67,8.3l.11,21.86.05,8.91c-5.15,4.72-10.2,9.22-15.76,14.07-5.28-3.04-10.42-6.11-15.65-9.35Zm40.29,4.41c2.23,1.13,4.4,2.2,6.55,3.26-7,5.05-14.49,10.46-22.33,16.12v-.15s-.02-4.77-.02-4.77c5.52-4.94,10.71-9.67,15.8-14.47Zm-151.96-12.39c-4.34,2.2-8.71,4.36-13.51,6.68-3.39-2.45-6.6-4.76-9.61-6.94-1.77-1.8-3.5-3.59-5.2-5.35.79-1.29,1.62-2.59,2.55-3.86,6.05-8.34,14.68-15.76,25.08-22.01.18.16.34.32.52.49l.09,15.67.08,15.32Zm-85.49,31.67c.39.29.93.34,1.56.26-4.36,3.07-7.9,4.23-9.76,2.88-2.07-1.5,3.42-15.19,14.03-28.88,10.6-13.67,22.86-21.81,24.39-20.7,1.86,1.35,1.51,5.21-.39,10.19-.08-.62-.26-1.12-.64-1.42-2.52-1.98-11.13,4.83-19.2,15.24-8.05,10.38-12.53,20.42-9.99,22.41Zm1.06-84.46c27.72-38.87,93.99-64.98,164.9-64.98s137.88,26.18,165.23,65.13c11.98,17.07,15,34.76,8.97,52.57-.91,2.67-1.89,5.53-2.89,8.5-1.55-2.62-3.29-5.25-5.24-7.88.67-7.77.27-16.77-2.73-26.26-.4-1.26-.84-2.54-1.34-3.82-.8-2.07-1.75-4.16-2.83-6.26-1.31-2.55-2.82-5.1-4.58-7.67-1.93-2.8-4.16-5.61-6.71-8.4-5.93-6.48-24.76-24.12-58.24-37.32-22.72-8.96-52.19-15.88-88.97-15.88l-2.91-.03c-36.2,0-65.32,6.71-87.89,15.47-1.28.49-2.52,1-3.76,1.5-.78.32-1.53.64-2.29.97-.44.19-.89.38-1.33.57-.21.09-.42.19-.63.28-.59.26-1.17.52-1.75.78-.5.22-1,.45-1.49.68-.05.02-.09.04-.14.06,0,0,0,0,0,0-.66.3-1.31.61-1.95.91-.54.26-1.09.52-1.62.78-.62.3-1.24.61-1.85.91-.56.28-1.1.56-1.65.83-.57.29-1.14.58-1.69.87-.58.3-1.15.61-1.72.91-.44.24-.88.47-1.31.71-.17.09-.34.19-.51.28-.54.3-1.07.59-1.59.89-.22.13-.45.25-.67.38-.26.15-.51.29-.76.44-.8.46-1.59.93-2.36,1.39-14.28,8.53-23.64,16.85-28.44,21.73,0,0,0,0,0,0-.33.33-.63.64-.91.94-.03.03-.05.05-.07.08-.28.3-.55.58-.79.85,0,0,0,0,0,0,.09-.1.19-.21.29-.31-.09.1-.2.21-.29.31,0,0,0,0,0,0h0s0,0,0,0c-2.18,2.38-4.11,4.78-5.84,7.18-4.61,6.41-7.69,12.82-9.64,19.02-2.9,9.2-3.35,17.94-2.75,25.55.05.63.1,1.26.17,1.88,0,0,0,0,0,0,0,0,0,0,0,0-1.7,2.35-3.25,4.72-4.62,7.05-.97-2.95-1.85-5.6-2.58-7.92-5.88-18.24-2.58-36.29,9.82-53.66Zm-80.85,129.33l76.27,16.36-32.17-61.13,115.75,91.92,5.06-3.73,9.6,5.96-61.06,40.2-3.91-5.3,5.3-3.91-114.83-80.36Zm245.74,247.1c-46.58,0-68.35-25.43-78.41-46.39,1.65.07,3.34.04,5.1-.21,7.66-1.08,13.71-5.05,15.64-9.67,12.13,18.62,33.11,30.94,57,30.94s45.45-12.68,57.51-31.7c1.54,4.93,7.81,9.28,15.89,10.43,1.57.22,3.09.27,4.58.24-14.8,30.74-40.74,46.36-77.3,46.36Zm2.99-55.51c16.58,0,31.01-9.11,38.58-22.59-5.31,18.42-22.3,31.9-42.48,31.9-24.37,0-44.16-19.75-44.16-44.09,0-7.81,2.05-15.14,5.61-21.5-1.11,3.88-1.72,7.97-1.72,12.18,0,24.37,19.78,44.1,44.17,44.1Zm6.69-62.57c0-6.36,5.16-11.52,11.52-11.52s11.52,5.16,11.52,11.52-5.16,11.52-11.52,11.52-11.52-5.16-11.52-11.52Zm157.66,53.52c-2.99,4.47-7.33,7.5-12.23,8.55-.61.13-1.23.23-1.84.29h0c-.22.02-.44.04-.66.05-4.05.27-7.97-.89-11.25-3.39-2.56-1.91-4.45-4.54-5.72-7.55-3.89,2.62-8.14,4.54-12.64,5.71-.58.14-1.14.33-1.71.45-10.73,2.29-21.64.23-30.09-6.6-3.78-3.05-6.37-5.94-8.13-8.33,2.69-2.27,5.67-5.39,7.18-9.02,3.15-7.57,2.29-6.39,2.29-6.39,0,0-4.8,4.97-13.56,8.78-1.43.62-2.76,1.12-3.94,1.52-1.34.45-2.82.13-3.86-.84l-14.44-13.49c-1.82-1.53-3.69-3.09-5.58-4.68-1.21-7.34-3.92-14.18-7.81-20.19h0c-6.11-9.43-15.12-16.81-25.76-20.88h0c-5.9-2.25-12.3-3.49-18.99-3.49-.05,0-.1,0-.15,0-9.11.03-17.68,2.33-25.16,6.39h0c-5.82,3.15-10.99,7.36-15.25,12.36l-33.62,27.24c-.25.2-.51.39-.78.56.27-.17.53-.36.78-.56l33.62-27.24c-5.99,7.03-10.19,15.64-11.88,25.13-2.17,1.82-4.31,3.61-6.39,5.36l-14.44,13.49c-1.04.97-2.51,1.29-3.86.84-1.18-.4-2.51-.9-3.94-1.52-8.76-3.81-13.56-8.78-13.56-8.78,0,0-.86-1.18,2.29,6.39,1.51,3.62,4.49,6.75,7.18,9.02-1.75,2.39-4.34,5.28-8.12,8.33-8.45,6.82-19.36,8.89-30.09,6.6-.57-.12-1.14-.31-1.72-.45-4.5-1.17-8.76-3.09-12.64-5.71-1.28,3.01-3.17,5.64-5.72,7.55-3.29,2.5-7.2,3.66-11.25,3.39-.22-.02-.44-.03-.66-.05h0c-.61-.07-1.22-.16-1.84-.29-4.9-1.05-9.24-4.08-12.23-8.55-2.99-4.49-4.26-9.86-3.56-15.14.68-5.17,3.17-9.64,6.99-12.64,5.1,10.93,13.48,14.95,18.2,16.36-.81-1.02-1.59-2.08-2.33-3.17-3.47-5.22-5.79-10.92-7.04-16.73-.82-3.85-1.18-7.74-1.07-11.59.03-.96.1-1.93.19-2.91,1.06-11.79,6.47-22.81,15.92-29.96,1.8-1.36,3.71-2.49,5.64-3.46,4.54-2.3,9.37-3.57,14.28-3.87,1.26-5.04,3.26-8.03,4.25-8.76.79-.61,5.55-4.07,13.27-9.66,8.81-6.39,21.5-15.57,36.67-26.52,1.71-1.24,3.44-2.49,5.18-3.74-47.76-40.12-89.74-75.4-100.81-84.7,0,0,0,0,.01-.01,6.62-5.02,16.44-14.82,22.97-24.78,6.38-9.75,12.45-18.14,14.65-26.37.31.23.64.46.97.7,20.67,14.92,71.68,51.72,124.71,90.01,53.03-38.29,104.05-75.09,124.72-90.01.33-.24.66-.47.97-.7,2.21,8.24,8.27,16.62,14.65,26.37,6.53,9.96,16.35,19.76,22.97,24.78,0,0,0,0,.01.01-11.07,9.3-53.05,44.58-100.81,84.7,1.73,1.26,3.46,2.5,5.17,3.74,15.16,10.95,27.86,20.14,36.67,26.52,7.72,5.59,12.48,9.06,13.27,9.66.99.73,2.98,3.72,4.25,8.76,4.91.3,9.74,1.57,14.28,3.87,1.93.97,3.84,2.1,5.64,3.46,9.45,7.16,14.86,18.18,15.92,29.96.09.98.16,1.95.19,2.91.11,3.85-.25,7.74-1.07,11.59-1.24,5.81-3.56,11.51-7.04,16.73-.74,1.1-1.53,2.16-2.33,3.17,4.72-1.42,13.09-5.44,18.2-16.36,3.82,3,6.31,7.47,6.99,12.64.7,5.29-.57,10.66-3.56,15.14Z"/>
    </g>
    <path class="cls-2" d="m444.16,349.77c.31-.14.63-.28.95-.42.13-.06.26-.12.39-.17-.45.2-.9.39-1.34.59Z"/>
    <path class="cls-2" d="m426.66,358.64c.16-.09.34-.19.5-.28.08-.04.15-.09.23-.13-.24.14-.49.28-.73.42Z"/>
    <path class="cls-2" d="m429.75,356.91c.06-.03.13-.07.19-.1.16-.09.31-.17.46-.26-.22.12-.44.24-.65.36Z"/>
    <path class="cls-2" d="m673.52,642.5s.01.01.01.02c.3.33.6.66.88,1.01-.29-.35-.58-.68-.88-1.01,0,0-.01-.01-.02-.02Z"/>
    <path class="cls-2" d="m664.29,617.87c.01.19.03.38.05.57.04.48.09.95.12,1.45-.03-.5-.07-.97-.12-1.45-.02-.19-.03-.37-.05-.57Z"/>
    <path class="cls-2" d="m676.11,645.75h0c.26.38.51.77.76,1.17-.25-.4-.5-.79-.76-1.17,0,0,0,0,0,0Z"/>
    <path class="cls-2" d="m691.09,662.22c.06-.25.11-.5.16-.76.03-.16.06-.32.1-.49-.03.16-.06.32-.1.49-.05.25-.11.51-.16.76Z"/>
    <path class="cls-2" d="m419.89,439.24c6.07,4.54,34.07,25.47,69.53,51.99-35.46-26.52-63.46-47.45-69.53-51.99Z"/>
    <rect class="cls-2" x="441" y="521.52" width=".06" height="0" transform="translate(-186.67 252.29) rotate(-26.57)"/>
    <path class="cls-2" d="m517.33,535.24c1.28-.92,2.57-1.85,3.85-2.78-1.28.93-2.57,1.86-3.85,2.78h0Z"/>
    <path class="cls-2" d="m391.21,478.45s0,0,0,0c0,0,14.8-2.79,26.72-20.47l61.03,47.69-61.03-47.69c-11.92,17.68-26.71,20.47-26.72,20.47Z"/>
    <polygon class="cls-2" points="489.43 491.22 489.43 491.22 489.43 491.22 489.43 491.22"/>
    <polygon class="cls-2" points="420.85 635.17 420.85 635.17 420.85 635.16 420.84 635.16 420.85 635.17"/>
    <path class="cls-2" d="m660.72,441.03c-9.22,6.9-35.14,26.27-67.14,50.2h0s0,0,0,0c32-23.93,57.92-43.3,67.14-50.2Z"/>
    <path class="cls-2" d="m604.05,505.67h0s61.03-47.69,61.03-47.69c1.11,1.65,2.25,3.17,3.4,4.57-1.15-1.4-2.29-2.92-3.4-4.57l-61.03,47.69Z"/>
    <path class="cls-2" d="m691.8,478.45s0,0,0,0c0,0-3.45-.66-8.34-3.31,4.9,2.65,8.34,3.31,8.34,3.31Z"/>
    <polygon class="cls-2" points="731.55 534.05 681.16 547.3 706.85 508.76 636.81 567.49 657.19 582.52 731.55 534.05"/>
  </g>
</svg>