<?xml version="1.0" encoding="UTF-8"?>
<svg id="ICON" xmlns="http://www.w3.org/2000/svg" viewBox="0 0 1080 1080">
  <defs>
    <style>
      .cls-1 {
        fill: #fff;
      }

      .cls-2 {
        fill: #c42032;
      }

      .cls-3 {
        fill: #b0b6bb;
      }

      .cls-4 {
        fill: #b0b7bc;
      }

      .cls-5 {
        fill: #c62032;
      }

      .cls-6 {
        fill: #0b2343;
      }
    </style>
  </defs>
  <g id="FULL_COLOR" data-name="FULL COLOR">
    <path class="cls-5" d="m543.25,757.18c-47.2,0-83.93-21.54-103.74-60.74-4.13.81-8.37,1.21-12.68,1.21-4.81,0-9.69-.52-14.49-1.55-.6-.13-1.15-.26-1.62-.38-6.84,3.84-14.48,5.84-22.43,5.84-.99,0-1.97-.03-2.93-.09h-.42l-1.55-.16c-1.67-.18-3.32-.44-4.92-.79-12.4-2.66-23.22-10.1-30.46-20.94-6.95-10.42-9.88-22.95-8.25-35.28,1.49-11.36,6.69-21.57,14.78-29.16.01-.16.03-.31.04-.47,1.54-16.92,8.73-32.55,20.08-44.12l-212.79-148.92,156.73,33.61-67.85-128.92,85.89,68.2c-1.75-20.65,4.27-41.15,17.85-60.16,16.9-23.69,44.35-43.52,79.38-57.32,33.14-13.06,70.97-19.96,109.41-19.96s76.73,6.92,109.93,20c35.16,13.86,62.59,33.78,79.33,57.61,12.76,18.18,18.53,37.68,17.14,57.34l82.74-65.7-67.85,128.92,156.73-33.61-212.87,148.98c11.36,11.61,18.53,27.26,20.06,44.23l.03.31c8.08,7.59,13.28,17.8,14.78,29.16,1.62,12.33-1.3,24.85-8.24,35.25-7.25,10.86-18.08,18.3-30.49,20.96-1.57.34-3.22.6-4.88.78l-1.47.16h-.49c-.98.07-1.98.1-2.98.1-7.95,0-15.59-2-22.43-5.84-.47.12-1.03.26-1.64.39-4.79,1.02-9.66,1.54-14.47,1.54-3.54,0-7.04-.28-10.47-.82-9.75,19.16-23.29,34.06-40.26,44.31-17.61,10.64-38.53,16.04-62.19,16.04Z"/>
    <path class="cls-6" d="m717.62,622.18l-1.26-.99c0-.46-.01-.91-.03-1.37-.04-1.25-.13-2.56-.25-3.88-1.52-16.94-9.75-32.24-22.59-41.97-1.86-1.4-3.84-2.69-6.01-3.89l176.36-123.42-122.66,26.3,52.74-100.21-65.62,52.11,2.3-6.82c1-2.95,1.97-5.79,2.89-8.49,7.75-22.87,3.89-46.29-11.14-67.72-15.33-21.83-40.82-40.22-73.71-53.19-31.76-12.52-68.2-19.14-105.37-19.14s-73.15,6.6-104.85,19.09c-32.79,12.92-58.32,31.24-73.82,52.98-15.45,21.65-19.66,45.37-12.17,68.61.67,2.12,1.46,4.52,2.33,7.16l1.41,4.29c-.5,1.08-.96,2.14-1.37,3.17l-65.57-52.07,52.74,100.21-122.66-26.3,176.3,123.39c-2.2,1.22-4.21,2.52-6.12,3.96-12.79,9.69-21.01,24.96-22.54,41.86-.14,1.41-.22,2.68-.26,4.02-.01.43-.02.87-.02,1.3l-1.26.99c-7.33,5.75-12.06,14.19-13.32,23.74-1.23,9.35.99,18.85,6.27,26.75,5.44,8.14,13.51,13.71,22.74,15.69,1.18.25,2.39.45,3.61.58l.9.09h.2l.22.02c.75.05,1.52.08,2.28.08,7.36,0,14.38-2.36,20.28-6.83l.14-.1c1.24.42,2.51.79,3.76,1.12l.38.1c.45.13,1.2.34,2.09.53,3.95.84,7.95,1.27,11.89,1.27,6.77,0,13.26-1.22,19.32-3.63l3.44,7.17c17.33,36.11,50.6,55.99,93.66,55.99s74.93-19.35,92.55-55.95l3.11-6.45c5.47,1.9,11.27,2.87,17.26,2.87,3.95,0,7.95-.43,11.89-1.27.89-.19,1.64-.4,2.07-.52l.39-.1c1.26-.33,2.53-.71,3.77-1.12.04.03.09.06.13.1,5.91,4.47,12.93,6.84,20.29,6.84.77,0,1.53-.03,2.29-.08h.15s.29-.02.29-.02l.88-.09c1.22-.13,2.43-.32,3.6-.58,9.23-1.98,17.31-7.56,22.76-15.71,5.27-7.9,7.49-17.39,6.26-26.74-1.26-9.56-5.99-17.99-13.32-23.75Z"/>
    <path class="cls-6" d="m453.12,314.57c-34.15,13.25-53.32,31.19-59.31,37.74,0,0,0,0,0,0,5.99-6.55,25.16-24.5,59.31-37.74"/>
    <path class="cls-6" d="m682.68,364.35c-18.13-22.32-65.3-48.72-129.29-51.12,63.99,2.4,111.16,28.8,129.29,51.12"/>
    <path class="cls-6" d="m547.14,313.07c2.1.03,4.18.08,6.24.16-2.06-.08-4.14-.13-6.24-.16"/>
    <path class="cls-3" d="m464.22,421.66c7.22,5.21,14.93,10.77,22.98,16.58l-.04-6.12c-5.63-4.9-10.7-9.45-15.87-14.2-2.43,1.3-4.77,2.53-7.07,3.74"/>
    <path class="cls-3" d="m534.97,467.68l-.07-15.91-.07-15.28c-5.16-3.76-10.22-7.56-15.81-11.89-5.24,3.47-10.33,6.75-15.53,10.03l.07,15.42c9.05,6.53,18.4,13.28,27.9,20.14,1.14-.82,2.3-1.65,3.51-2.51"/>
    <path class="cls-3" d="m582.57,433.88c-5.05-3.03-10.11-6.14-15.73-9.73-5.26,4.19-10.4,8.19-15.66,12.19l.05,12.45.11,18.72c.68.47,1.34.93,2.01,1.39,10-7.22,19.84-14.32,29.31-21.15l-.07-13.87Z"/>
    <path class="cls-3" d="m614.75,416.59c-5.1,4.79-10.28,9.53-15.8,14.47l.02,4.77v.15c7.85-5.66,15.33-11.06,22.34-16.12-2.15-1.06-4.33-2.13-6.55-3.26"/>
    <path class="cls-3" d="m534.37,352.11c-10.75.54-21.27,2.05-31.29,4.4v.17c5.05,4.14,10.09,8.16,15.76,12.55,5.56-3.59,10.55-6.91,15.58-10.38l-.03-3.91-.03-2.83Z"/>
    <path class="cls-3" d="m550.76,358.73c5.1,3.39,10.11,6.61,15.68,10.09,5.58-4.44,10.54-8.48,15.49-12.65-10-2.24-20.48-3.66-31.21-4.11l.04,6.67Z"/>
    <path class="cls-3" d="m462.78,404.2l-.08-15.32-.09-15.67c-.18-.17-.34-.33-.52-.49-10.4,6.25-19.03,13.67-25.08,22.01-.93,1.27-1.75,2.57-2.55,3.86,1.7,1.76,3.43,3.55,5.2,5.35,3.01,2.17,6.22,4.49,9.61,6.94,4.8-2.31,9.17-4.48,13.51-6.68"/>
    <path class="cls-3" d="m478.94,377.63l.17,30.83c5.29,4.77,10.46,9.3,15.78,13.81,5.14-3.09,10.22-6.24,15.5-9.59l-.1-22.24-.04-8.36c-5.36-4.25-10.56-8.52-15.85-12.99-5.03,2.87-10.1,5.68-15.46,8.54"/>
    <path class="cls-3" d="m526.57,383.06l.17,30.54c5.07,3.84,10.1,7.54,15.7,11.53,5.17-3.81,10.18-7.58,15.64-11.78l-.17-30.51c-5.65-3.67-10.7-7.05-15.76-10.56-5.24,3.72-10.35,7.25-15.59,10.78"/>
    <path class="cls-3" d="m605.71,376.68c-5.75-2.96-10.77-5.61-15.67-8.3-5.16,4.45-10.2,8.68-15.76,13.23l.05,9.42.12,21.14c5.24,3.24,10.37,6.31,15.65,9.35,5.56-4.85,10.61-9.35,15.76-14.07l-.05-8.91-.11-21.86Z"/>
    <path class="cls-3" d="m622.56,371.53c-.15.15-.31.3-.45.44l.06,12.29.11,18.66c4.86,2.37,9.26,4.45,13.58,6.42,3.4-2.45,6.6-4.76,9.59-6.92,1.85-1.92,3.65-3.8,5.42-5.68-.41-.63-.77-1.26-1.22-1.89-6.39-8.92-15.76-16.8-27.09-23.32"/>
    <path class="cls-2" d="m615.98,681.23c-8.08-1.14-14.35-5.5-15.89-10.43-12.06,19.02-33.28,31.7-57.51,31.7s-44.87-12.32-57-30.94c-1.93,4.62-7.98,8.59-15.64,9.67-1.76.25-3.44.28-5.1.21,10.06,20.96,31.83,46.39,78.41,46.39,36.57,0,62.5-15.62,77.3-46.36-1.49.03-3-.01-4.58-.24"/>
    <path class="cls-2" d="m553.38,313.23c-2.06-.08-4.15-.13-6.24-.16-1.07-.01-2.14-.02-3.21-.02l-2.91-.04c-68.82,0-119.75,27.9-138.77,51.31-1.29,1.58-2.46,3.18-3.53,4.79-4.64,6.98-7.31,14.19-8.7,21.3,5.04-4.16,9.92-6.89,13.94-7.74.35-.12.7-.22,1.05-.3,2.43-.58,4.67-.27,6.74,1.23l2.98,2.22c1.07-1.75,2.21-3.5,3.46-5.22,23.16-31.88,72.24-52.5,125.02-52.5s102.44,20.71,125.37,52.76c.75,1.04,1.45,2.09,2.12,3.15l.55-.41c2.08-1.51,7.58-1.65,10.01-1.07,0,0,.01,0,.02,0,3.83.62,8.51,3.04,13.4,6.87-1.78-8.4-5.41-16.94-12.01-25.06-18.13-22.32-65.3-48.72-129.29-51.12"/>
    <path class="cls-2" d="m371.13,412.99c1.37-2.33,2.92-4.7,4.62-7.05-.83-8.03-.56-17.47,2.58-27.43,2.69-8.52,7.47-17.44,15.49-26.19h0s0,0,0,0c5.98-6.55,25.16-24.49,59.31-37.74,22.58-8.76,51.7-15.47,87.89-15.47l2.91.03c90.97,0,137.25,42.33,147.21,53.21,6.8,7.44,11.28,14.99,14.12,22.33,4.22,10.88,4.83,21.27,4.07,30.07,1.95,2.63,3.69,5.26,5.24,7.88,1.01-2.97,1.98-5.83,2.89-8.5,6.03-17.81,3.01-35.5-8.97-52.57-27.35-38.95-93.75-65.13-165.23-65.13s-137.18,26.11-164.9,64.98c-12.4,17.37-15.69,35.42-9.82,53.66.73,2.32,1.61,4.97,2.58,7.92"/>
    <path class="cls-1" d="m543.93,299.14l-2.91-.03c-36.2,0-65.31,6.71-87.89,15.47-34.15,13.25-53.32,31.19-59.31,37.74h0c-8.01,8.76-12.8,17.67-15.48,26.2-3.14,9.96-3.41,19.4-2.58,27.43.34-.47.66-.94,1.03-1.41,4.22-5.64,8.79-10.42,13.25-14.11t0,0c1.38-7.11,4.06-14.32,8.7-21.3,1.07-1.61,2.25-3.21,3.53-4.79,19.02-23.4,69.95-51.31,138.77-51.31l2.91.04c1.08,0,2.14,0,3.21.02,2.1.03,4.18.08,6.24.16,63.99,2.4,111.16,28.8,129.29,51.12,6.6,8.12,10.24,16.66,12.01,25.06,4.82,3.79,9.85,8.96,14.47,15.11.05.08.09.15.15.22.77-8.81.15-19.2-4.06-30.08-2.84-7.34-7.32-14.89-14.12-22.33-9.95-10.87-56.24-53.21-147.21-53.21"/>
    <g>
      <polygon class="cls-2" points="459.17 529.31 415.5 563.31 297.51 480.74 373.79 497.09 341.61 435.96 459.17 529.31"/>
      <polygon class="cls-4" points="448.35 537.73 428.82 552.94 351.58 502.59 401.96 515.84 376.27 477.3 448.35 537.73"/>
    </g>
    <g>
      <polygon class="cls-2" points="623.96 529.31 667.62 563.31 785.61 480.74 709.34 497.09 741.51 435.96 623.96 529.31"/>
      <polygon class="cls-4" points="634.78 537.73 654.3 552.94 731.55 502.59 681.16 515.84 706.85 477.3 634.78 537.73"/>
    </g>
    <path class="cls-3" d="m383.13,410.14c-10.61,13.69-16.1,27.38-14.03,28.88,1.86,1.35,5.4.18,9.76-2.88-.63.08-1.17.03-1.56-.26-2.54-1.99,1.94-12.03,9.99-22.41,8.08-10.42,16.69-17.22,19.2-15.24.38.3.57.8.64,1.42,1.89-4.98,2.24-8.84.39-10.19-1.53-1.11-13.8,7.02-24.39,20.7"/>
    <path class="cls-3" d="m714.16,648.13c-.68-5.17-3.17-9.64-6.99-12.64-5.1,10.93-13.48,14.95-18.2,16.36.8-1.02,1.59-2.08,2.33-3.17,3.47-5.22,5.79-10.91,7.04-16.73.82-3.85,1.18-7.74,1.07-11.59-.03-.96-.1-1.93-.19-2.91-1.06-11.79-6.47-22.81-15.92-29.96-1.8-1.36-3.71-2.49-5.64-3.46-4.54-2.3-9.37-3.57-14.28-3.87-1.26-5.04-3.26-8.03-4.25-8.76-.79-.61-5.55-4.07-13.27-9.66-8.81-6.39-21.5-15.57-36.67-26.52-1.71-1.24-3.44-2.49-5.17-3.74,47.76-40.12,89.74-75.4,100.81-84.7,0,0,0,0-.01-.01-6.62-5.02-16.44-14.82-22.97-24.78-6.38-9.75-12.44-18.14-14.65-26.37-.31.23-.64.46-.97.7-20.67,14.92-71.68,51.72-124.72,90.01-53.03-38.29-104.05-75.09-124.71-90.01-.33-.24-.66-.47-.97-.7-2.21,8.24-8.27,16.62-14.65,26.37-6.53,9.96-16.35,19.76-22.97,24.78,0,0,0,0-.01.01,11.07,9.3,53.05,44.58,100.81,84.7-1.74,1.26-3.46,2.5-5.18,3.74-15.16,10.95-27.86,20.14-36.67,26.52-7.72,5.59-12.48,9.06-13.27,9.66-.98.73-2.98,3.72-4.25,8.76-4.91.3-9.74,1.57-14.28,3.87-1.93.97-3.84,2.1-5.64,3.46-9.45,7.16-14.86,18.18-15.92,29.96-.1.98-.16,1.95-.19,2.91-.11,3.85.25,7.74,1.07,11.59,1.24,5.81,3.56,11.51,7.04,16.73.74,1.1,1.53,2.16,2.33,3.17-4.72-1.42-13.09-5.44-18.2-16.36-3.82,3-6.31,7.47-6.99,12.64-.7,5.29.57,10.66,3.56,15.14,2.99,4.47,7.33,7.5,12.23,8.55.61.13,1.23.23,1.84.29h0c.22.02.44.04.66.05,4.05.27,7.97-.89,11.25-3.39,2.56-1.91,4.45-4.54,5.72-7.55,3.88,2.62,8.14,4.54,12.64,5.71.58.14,1.14.33,1.72.45,10.73,2.29,21.64.23,30.09-6.6,3.78-3.05,6.37-5.94,8.12-8.33-2.69-2.27-5.67-5.39-7.18-9.02-3.15-7.57-2.29-6.39-2.29-6.39,0,0,4.79,4.97,13.56,8.78,1.43.62,2.76,1.12,3.94,1.52,1.34.45,2.82.13,3.86-.84l14.44-13.49c2.09-1.75,4.22-3.54,6.39-5.36,1.69-9.48,5.89-18.09,11.88-25.13l-33.62,27.24c-2.23,1.81-5.16,2.5-7.96,1.89-6.17-1.34-10.42-4.67-10.42-4.67l222.22-177.21s2.34,2.15,5.39,3.52c3.05,1.36,4.28,1.82,4.28,1.82l-40.6,34.34.03.05-5.56,4.63-118.51,96.02c7.49-4.05,16.06-6.36,25.16-6.39.05,0,.1,0,.15,0,6.69,0,13.09,1.24,18.99,3.49l-11.85-9.61c3.37-2.83,6.75-5.67,10.14-8.52l73.2,58.38s-4.26,3.33-10.42,4.67c-2.8.61-5.73-.08-7.96-1.89l-27.34-22.16c3.89,6.01,6.6,12.85,7.81,20.19,1.89,1.59,3.76,3.15,5.58,4.68l14.44,13.49c1.03.97,2.51,1.29,3.86.84,1.18-.4,2.51-.9,3.94-1.52,8.76-3.81,13.56-8.78,13.56-8.78,0,0,.86-1.17-2.29,6.39-1.51,3.62-4.49,6.75-7.18,9.02,1.75,2.39,4.34,5.28,8.13,8.33,8.45,6.82,19.36,8.89,30.09,6.6.57-.12,1.14-.31,1.71-.45,4.5-1.17,8.76-3.09,12.64-5.71,1.27,3.01,3.17,5.64,5.72,7.55,3.29,2.5,7.2,3.66,11.25,3.39.22-.02.44-.03.66-.05h0c.61-.07,1.23-.16,1.84-.29,4.9-1.05,9.24-4.08,12.23-8.55,2.99-4.49,4.26-9.86,3.56-15.14m-293.31-44.43c-2.89.85-5.82,2.41-8.49,4.61,0,0,0,0,0,0-.62.51-1.23,1.06-1.82,1.64-.36.35-.71.7-1.05,1.08,0,0-.01.01-.02.02-.3.33-.6.66-.88,1.01,0,0-.01.01-.01.02-.58.7-1.14,1.44-1.67,2.21,0,0,0,0,0,0-.26.38-.51.77-.76,1.17,0,.01-.02.03-.03.04-.37.6-.72,1.22-1.06,1.86-.33.64-.65,1.3-.94,1.97,0,.01-.01.03-.02.04-.29.68-.56,1.37-.81,2.09-.25.71-.47,1.45-.67,2.2,0,.01,0,.02,0,.03-.4,1.51-.7,3.08-.88,4.72h0c-.06.55-.11,1.1-.14,1.66v.03c-.05.84-.07,1.69-.06,2.56,0,.43.02.87.04,1.31.02.44.05.89.09,1.33,0,.03,0,.06,0,.08.16,1.78.45,3.61.89,5.5.01.05.02.1.03.15.14.61.3,1.22.48,1.85.01.05.03.09.04.14.11.39.23.78.35,1.17.03.1.07.21.1.31.11.35.23.69.35,1.04.04.12.08.24.12.36.13.36.27.73.41,1.1.04.09.07.19.11.28.18.45.36.9.55,1.35.06.13.11.26.17.39.14.32.28.64.43.97.09.2.18.4.28.6.12.25.24.51.36.76.11.23.23.46.34.69.11.22.22.43.33.65.13.26.27.52.41.78.08.15.17.31.25.46.16.29.31.57.48.86,0,0,0,0,0,0h0c-.55-.3-1.1-.65-1.64-1.02,0,0,0,0,0,0-.22-.15-.45-.32-.67-.48-.08-.06-.17-.12-.25-.18-.1-.08-.21-.16-.31-.24-.18-.14-.36-.28-.54-.43-.14-.12-.29-.24-.43-.36-.18-.15-.35-.3-.52-.46-.13-.12-.26-.23-.4-.35-.28-.26-.56-.52-.83-.8-.11-.11-.22-.23-.33-.34-.19-.19-.37-.38-.55-.58-.13-.14-.25-.27-.38-.41-.17-.19-.35-.39-.52-.59-.11-.13-.23-.26-.34-.4-.26-.31-.52-.63-.77-.95-.07-.1-.15-.19-.22-.29-.2-.26-.41-.53-.6-.81-.1-.14-.2-.28-.3-.42-.17-.25-.35-.49-.51-.75-.09-.13-.18-.27-.27-.4-.23-.36-.46-.72-.69-1.08-.02-.04-.05-.07-.07-.11-.23-.39-.46-.78-.68-1.17-.07-.12-.14-.25-.2-.37-.17-.31-.34-.62-.5-.93-.06-.12-.13-.25-.19-.37-.21-.41-.41-.82-.6-1.23-.01-.02-.02-.04-.03-.06-.21-.45-.41-.91-.6-1.37-.04-.1-.08-.19-.12-.28-.15-.37-.3-.75-.45-1.13-.04-.11-.08-.21-.12-.32-.17-.45-.33-.9-.48-1.36,0-.01-.01-.03-.02-.05-.17-.5-.32-1-.47-1.51,0-.02-.01-.03-.02-.05-.08-.26-.15-.53-.22-.79-.04-.15-.08-.29-.11-.44-.05-.21-.1-.41-.15-.62-.04-.18-.09-.37-.13-.55-.06-.25-.11-.5-.16-.76-.03-.16-.07-.33-.1-.49-.04-.23-.08-.46-.12-.69-.04-.22-.07-.43-.11-.65-.03-.2-.06-.4-.09-.59-.02-.17-.05-.33-.07-.5-.04-.29-.07-.58-.1-.88-.02-.17-.03-.34-.05-.52-.02-.19-.03-.39-.05-.58-.02-.24-.03-.48-.05-.72-.01-.22-.02-.43-.03-.65,0-.18-.01-.35-.02-.53,0-.23,0-.46-.01-.69,0-.23,0-.47,0-.7,0-.19,0-.38.01-.57,0-.18,0-.35.02-.53.01-.29.03-.59.05-.88.01-.18.03-.36.04-.54.02-.19.03-.39.05-.58.03-.26.06-.52.09-.78.02-.2.05-.41.08-.61.03-.18.05-.36.08-.55.04-.25.08-.5.13-.75.04-.22.08-.44.13-.66.04-.18.08-.37.12-.55.04-.18.08-.37.12-.55.07-.29.14-.57.22-.86.05-.18.1-.36.15-.54.06-.19.11-.39.17-.58.08-.26.16-.53.25-.79.06-.19.13-.38.19-.57.06-.18.13-.36.19-.54.11-.29.22-.58.33-.86.07-.18.15-.35.22-.53.07-.18.15-.36.23-.54.1-.23.21-.46.31-.69.11-.23.22-.46.33-.68.09-.18.18-.36.27-.54.1-.19.2-.37.3-.56.14-.26.29-.53.44-.79.1-.17.2-.35.31-.52.11-.18.21-.36.33-.53.17-.27.35-.55.52-.82.12-.18.24-.35.36-.53.11-.16.23-.32.34-.48.18-.25.37-.51.56-.76.14-.18.28-.37.42-.55.14-.18.28-.35.42-.53.14-.17.28-.34.42-.5.22-.26.44-.52.68-.78.13-.15.27-.3.41-.45.16-.17.32-.35.48-.52.24-.25.48-.5.73-.74.17-.17.35-.34.53-.51.15-.14.29-.28.44-.42.28-.26.57-.53.87-.79.16-.14.32-.28.48-.42.2-.17.4-.34.61-.51.17-.14.34-.27.51-.41.32-.26.65-.52.99-.77.16-.12.32-.24.48-.36.3-.23.62-.45.93-.67.23-.16.45-.32.68-.47.24-.17.49-.33.73-.49.17-.11.34-.22.51-.33.41-.26.83-.52,1.25-.77.17-.1.35-.21.52-.31.27-.16.55-.32.83-.47.17-.1.35-.19.52-.29.46-.26.94-.51,1.42-.76.18-.09.36-.18.54-.27.52-.26,1.05-.52,1.59-.77.16-.07.31-.15.47-.22.32-.15.65-.3.98-.44.18-.08.36-.15.53-.23.28-.12.55-.25.84-.37h0c-.01.19-.03.38-.05.57-.04.48-.09.95-.12,1.46-.01.23-.02.47-.02.72-.02,4.12.59,9.02,2.31,14.56h0s0,0,0,0m-2.2-196.86s30.62,22.89,70.78,52.92h0c14.34,10.71,29.14,21.78,43.66,32.64-5.26,3.8-10.52,7.6-15.76,11.38l-38.38-29.57h0s-61.03-47.7-61.03-47.7c-11.92,17.68-26.72,20.47-26.72,20.47,22.35-19.79,27.44-40.14,27.44-40.14m27.93,87.86h0s-5.56-4.63-5.56-4.63l.03-.05-40.6-34.34s1.23-.46,4.28-1.82c3.05-1.37,5.39-3.52,5.39-3.52l86.12,68.67c-3.5,2.53-6.96,5.03-10.39,7.51l-39.27-31.82Zm218.51-68.19l-61.03,47.69h0s-168.6,129.89-168.6,129.89c0,0-11.75-17.1,2.24-27.71,7.82-5.9,87.22-65.29,155.88-116.63h0c40.16-30.02,70.78-52.91,70.78-52.91,0,0,5.09,20.35,27.44,40.14,0,0-14.8-2.79-26.72-20.47m-17.53,177.58l-67.8-52.23c5.18-4.35,10.35-8.69,15.47-12.99,26.84,20.09,46.41,34.73,50.1,37.51,13.99,10.61,2.24,27.71,2.24,27.71m41.26,33.75c-.19.46-.39.92-.6,1.37-.01.02-.02.04-.03.06-.19.41-.39.82-.6,1.23-.06.12-.13.25-.19.37-.16.32-.33.63-.5.93-.07.12-.13.25-.2.37-.22.4-.45.79-.68,1.17-.03.04-.05.08-.08.12-.22.37-.45.72-.68,1.08-.09.14-.18.27-.27.4-.17.25-.34.5-.51.74-.1.14-.2.28-.3.42-.2.27-.4.54-.6.8-.08.1-.15.2-.23.3-.25.32-.51.64-.77.95-.11.14-.23.27-.34.4-.17.2-.34.39-.52.59-.12.14-.25.28-.38.41-.18.2-.37.39-.55.58-.11.11-.22.23-.33.34-.28.27-.55.54-.83.8-.13.12-.26.24-.4.35-.17.15-.35.31-.52.46-.14.12-.29.24-.43.36-.18.15-.36.29-.54.43-.1.08-.2.17-.31.24-.08.06-.17.12-.26.18-.22.17-.45.33-.67.48,0,0,0,0,0,0-.54.37-1.09.72-1.64,1.03h0s0,0,0,0c.17-.29.32-.58.48-.87.08-.15.17-.3.25-.45.14-.26.27-.52.41-.78.11-.22.22-.43.33-.65.12-.23.23-.47.35-.7.12-.25.24-.5.36-.75.1-.2.19-.4.28-.6.15-.32.29-.64.42-.96.06-.13.12-.26.17-.4.19-.45.37-.9.55-1.35.04-.1.07-.19.11-.29.14-.37.28-.73.4-1.09.04-.12.08-.24.12-.36.12-.35.24-.7.35-1.05.03-.1.07-.2.1-.3.12-.4.24-.79.35-1.18.01-.05.03-.09.04-.14.18-.62.33-1.24.48-1.85.01-.05.02-.1.03-.15.31-1.34.55-2.66.72-3.95.07-.52.13-1.04.18-1.55,0-.03,0-.05,0-.08.04-.45.07-.89.09-1.34.02-.44.04-.88.04-1.31.01-.87,0-1.72-.06-2.56,0,0,0-.02,0-.03-.03-.56-.08-1.11-.14-1.65,0,0,0,0,0-.01-.18-1.64-.48-3.22-.88-4.72,0-.01,0-.02-.01-.03-.4-1.5-.9-2.93-1.48-4.28,0-.01-.01-.03-.02-.04-.59-1.35-1.26-2.63-2-3.83l-.03-.04c-.25-.4-.5-.79-.76-1.17h0c-.53-.77-1.09-1.51-1.67-2.21,0,0-.01-.01-.01-.02-.29-.35-.58-.68-.88-1.01,0,0,0-.01-.01-.02-.23-.25-.46-.49-.69-.73-.23-.24-.47-.47-.71-.7-.48-.45-.97-.89-1.47-1.3,0,0,0,0,0,0-2.67-2.2-5.6-3.76-8.49-4.61,0,0,0,0,0,0h0c1.72-5.53,2.33-10.43,2.31-14.56,0-.25-.01-.49-.02-.72-.03-.5-.07-.97-.12-1.45-.02-.19-.03-.38-.05-.57h0c.29.11.56.24.84.36.18.08.36.15.53.23.33.15.66.29.98.44.15.07.3.15.46.22.54.25,1.08.51,1.6.78.18.09.36.18.53.27.48.25.96.5,1.42.76.17.1.35.19.52.29.28.16.55.32.83.47.17.1.35.21.52.31.43.26.85.52,1.26.78.17.11.34.22.51.33.25.16.49.32.74.49.23.15.45.31.68.47.32.22.63.45.94.68.16.12.32.24.48.36.34.26.67.52,1,.78.17.14.34.27.5.41.21.17.41.34.61.51.16.14.32.28.48.42.3.26.59.52.87.79.15.14.3.28.44.41.18.17.36.34.53.51.25.25.49.49.73.74.17.17.33.35.49.52.14.15.27.3.4.45.23.26.46.52.68.78.14.17.28.33.42.5.14.18.29.35.42.53.14.18.28.36.42.54.19.25.38.51.56.76.12.16.23.32.34.48.12.18.24.35.36.53.18.27.35.54.52.81.11.18.22.36.33.54.1.17.21.35.3.52.15.26.3.53.44.79.1.18.2.37.3.55.09.18.19.36.28.54.11.23.22.45.33.68.11.23.21.46.32.7.08.18.15.35.23.53.07.18.15.36.22.54.11.29.22.57.33.86.07.18.13.36.19.55.07.19.13.38.19.57.09.26.17.53.25.8.06.19.11.38.17.58.05.18.1.36.15.55.08.29.15.57.22.86.04.18.08.37.12.55.04.18.08.37.12.55.04.22.09.44.13.66.05.25.09.5.13.75.03.18.06.37.08.55.03.2.06.4.08.61.03.26.06.52.09.78.02.19.04.39.05.58.01.18.03.36.04.54.02.29.04.59.05.88,0,.18.01.36.02.53,0,.19,0,.38.01.57,0,.23,0,.47,0,.7,0,.23,0,.46,0,.69,0,.18-.01.36-.02.53,0,.22-.02.43-.03.65-.01.24-.03.48-.05.72-.01.19-.03.39-.05.58-.01.17-.03.34-.05.51-.03.29-.06.59-.1.88-.02.17-.04.33-.07.5-.03.2-.06.39-.09.59-.03.22-.07.44-.11.65-.04.23-.08.46-.12.69-.03.16-.06.32-.1.49-.05.25-.11.51-.16.76-.04.18-.08.37-.13.55-.05.21-.1.41-.15.62-.04.15-.07.29-.11.44-.07.26-.15.53-.22.79,0,.02-.01.03-.02.05-.15.51-.3,1.01-.47,1.5,0,.02-.01.03-.02.05-.15.46-.31.91-.48,1.35-.04.11-.08.21-.12.32-.14.38-.29.76-.45,1.13-.04.1-.08.19-.12.29"/>
    <path class="cls-6" d="m417.93,426.51l61.03,47.69h0s38.38,29.58,38.38,29.58c5.24-3.78,10.5-7.58,15.76-11.38-14.52-10.86-29.32-21.93-43.66-32.65h0c-40.16-30.02-70.78-52.91-70.78-52.91,0,0-5.09,20.35-27.44,40.14,0,0,14.8-2.79,26.72-20.47"/>
    <path class="cls-6" d="m645.31,576.39c-3.68-2.78-23.25-17.43-50.1-37.51-5.12,4.3-10.28,8.64-15.47,12.99l67.8,52.23s11.75-17.09-2.24-27.71"/>
    <path class="cls-6" d="m689.5,636.11c.17-.45.33-.9.48-1.35,0-.02.01-.03.02-.05.17-.5.32-1,.47-1.5,0-.02.01-.03.02-.05.08-.26.15-.53.22-.79.04-.15.08-.29.11-.44.05-.21.1-.41.15-.62.04-.18.09-.36.13-.55.06-.25.11-.5.16-.76.03-.16.06-.32.1-.49.04-.23.08-.46.12-.69.04-.22.07-.44.11-.65.03-.2.06-.39.09-.59.02-.17.05-.33.07-.5.04-.29.07-.58.1-.88.02-.17.03-.34.05-.51.02-.19.03-.39.05-.58.02-.24.03-.48.05-.72.01-.22.02-.43.03-.65,0-.18.01-.36.02-.53,0-.23,0-.46,0-.69,0-.23,0-.47,0-.7,0-.19,0-.38-.01-.57,0-.18-.01-.36-.02-.53-.01-.29-.03-.59-.05-.88-.01-.18-.03-.36-.04-.54-.02-.19-.03-.39-.05-.58-.03-.26-.06-.52-.09-.78-.03-.2-.05-.4-.08-.61-.03-.18-.05-.37-.08-.55-.04-.25-.08-.5-.13-.75-.04-.22-.08-.44-.13-.66-.04-.18-.08-.37-.12-.55-.04-.18-.08-.37-.12-.55-.07-.29-.14-.57-.22-.86-.05-.18-.1-.36-.15-.55-.06-.19-.11-.38-.17-.57-.08-.27-.16-.53-.25-.8-.06-.19-.12-.38-.19-.57-.06-.18-.13-.36-.19-.55-.11-.29-.21-.57-.33-.86-.07-.18-.15-.36-.22-.54-.08-.18-.15-.35-.23-.53-.1-.23-.21-.46-.32-.7-.11-.23-.21-.45-.33-.68-.09-.18-.18-.36-.28-.54-.1-.18-.19-.37-.3-.55-.14-.26-.29-.53-.44-.79-.1-.17-.2-.35-.3-.52-.11-.18-.22-.36-.33-.54-.17-.27-.35-.54-.52-.81-.12-.18-.24-.35-.36-.53-.11-.16-.23-.32-.34-.48-.18-.26-.37-.51-.56-.76-.14-.18-.28-.36-.42-.54-.14-.18-.28-.35-.42-.53-.14-.17-.28-.33-.42-.5-.22-.26-.45-.52-.68-.78-.13-.15-.27-.3-.4-.45-.16-.17-.32-.35-.49-.52-.24-.25-.48-.5-.73-.74-.17-.17-.35-.34-.53-.51-.14-.14-.29-.28-.44-.41-.28-.27-.58-.53-.87-.79-.16-.14-.32-.28-.48-.42-.2-.17-.4-.34-.61-.51-.17-.14-.33-.27-.5-.41-.33-.26-.66-.52-1-.78-.16-.12-.32-.24-.48-.36-.31-.23-.62-.45-.94-.68-.22-.16-.45-.32-.68-.47-.24-.17-.49-.33-.74-.49-.17-.11-.34-.22-.51-.33-.41-.26-.83-.52-1.26-.78-.17-.1-.34-.21-.52-.31-.27-.16-.55-.32-.83-.47-.17-.1-.35-.19-.52-.29-.47-.26-.94-.51-1.42-.76-.18-.09-.35-.18-.53-.27-.52-.26-1.05-.52-1.6-.78-.15-.07-.3-.14-.46-.22-.32-.15-.65-.3-.98-.44-.18-.08-.36-.15-.53-.23-.28-.12-.56-.25-.84-.37h0c.01.2.03.39.05.57.04.48.09.95.12,1.45.01.23.02.47.02.72.02,4.12-.59,9.02-2.31,14.56h0s0,0,0,0c2.89.85,5.82,2.41,8.49,4.61,0,0,0,0,0,0,.5.41.99.84,1.47,1.3.24.23.48.46.71.7.23.24.47.48.69.73,0,0,.01.01.02.02.3.33.59.66.88,1.01,0,0,.01.01.01.02.58.7,1.14,1.43,1.67,2.2,0,0,0,0,0,0,.26.38.51.77.76,1.17l.03.04c.74,1.2,1.41,2.48,2,3.83,0,.01.01.03.02.04.58,1.36,1.08,2.79,1.48,4.28,0,.01,0,.02.01.03.4,1.51.7,3.08.88,4.72,0,0,0,0,0,.01.06.54.11,1.09.14,1.65,0,.01,0,.02,0,.03.05.84.07,1.69.06,2.56,0,.43-.02.87-.04,1.31-.02.44-.06.89-.09,1.34,0,.03,0,.05,0,.08-.05.51-.11,1.03-.17,1.55-.17,1.29-.4,2.6-.72,3.95-.01.05-.02.1-.03.15-.14.61-.3,1.22-.48,1.85-.01.04-.03.09-.04.14-.11.39-.23.78-.35,1.18-.03.1-.07.2-.1.3-.11.35-.23.69-.35,1.05-.04.12-.08.24-.12.36-.13.36-.26.73-.4,1.09-.04.1-.07.19-.11.29-.17.45-.36.9-.55,1.35-.06.13-.12.26-.17.4-.14.32-.28.64-.42.96-.09.2-.19.4-.28.6-.12.25-.24.5-.36.75-.11.23-.23.46-.35.7-.11.22-.22.43-.33.65-.14.26-.27.52-.41.78-.08.15-.17.3-.25.45-.16.29-.32.58-.48.87,0,0,0,0,0,0h0c.55-.3,1.1-.65,1.64-1.02,0,0,0,0,0,0,.22-.15.45-.31.67-.48.08-.06.17-.12.26-.18.1-.08.21-.16.31-.24.18-.14.36-.28.54-.43.14-.12.29-.24.43-.36.18-.15.35-.3.53-.46.13-.12.26-.23.4-.35.28-.26.56-.52.83-.8.11-.11.22-.23.33-.34.19-.19.37-.38.55-.58.13-.14.25-.27.38-.41.17-.19.35-.39.52-.59.11-.13.23-.26.34-.4.26-.31.52-.62.77-.95.08-.1.15-.2.23-.3.2-.26.4-.53.6-.8.1-.14.2-.28.3-.42.17-.25.34-.49.51-.74.09-.13.18-.27.27-.4.23-.35.46-.71.68-1.08.03-.04.05-.08.07-.12.23-.39.46-.77.68-1.17.07-.12.14-.25.2-.37.17-.31.34-.62.5-.93.06-.12.13-.25.19-.37.21-.41.4-.82.6-1.23.01-.02.02-.04.03-.06.21-.45.41-.91.6-1.37.04-.09.08-.19.12-.29.15-.37.3-.75.45-1.13.04-.11.08-.21.12-.32"/>
    <path class="cls-1" d="m410.12,450.34s-2.34,2.15-5.39,3.52c-3.05,1.37-4.28,1.82-4.28,1.82l40.6,34.34-.03.05,5.56,4.63h0s39.27,31.82,39.27,31.82c3.43-2.48,6.9-4.98,10.39-7.51l-86.12-68.67Z"/>
    <path class="cls-1" d="m621.91,632.21c6.17-1.33,10.42-4.67,10.42-4.67l-73.2-58.38c-3.39,2.85-6.78,5.69-10.14,8.52l11.85,9.61c10.65,4.06,19.66,11.44,25.76,20.88l27.34,22.16c2.23,1.81,5.16,2.5,7.96,1.89"/>
    <path class="cls-3" d="m675.49,389.44c-1.86,1.35-1.51,5.21.39,10.19.08-.62.26-1.12.64-1.42,2.52-1.98,11.12,4.83,19.2,15.24,8.05,10.38,12.53,20.42,9.99,22.41-.39.29-.93.34-1.56.26,4.36,3.07,7.9,4.23,9.76,2.88,2.07-1.5-3.42-15.19-14.03-28.88-10.6-13.67-22.86-21.81-24.39-20.7"/>
    <path class="cls-1" d="m635.04,494.17l5.56-4.63-.03-.05,40.6-34.34s-1.23-.46-4.28-1.82c-3.05-1.37-5.39-3.52-5.39-3.52l-222.22,177.2s4.25,3.33,10.42,4.67c2.8.61,5.73-.08,7.96-1.89l33.62-27.24c4.26-5,9.43-9.21,15.25-12.36l118.51-96.02Z"/>
    <path class="cls-6" d="m664.36,406.84s-30.62,22.89-70.78,52.92h0c-68.66,51.33-148.06,110.72-155.88,116.62-13.99,10.61-2.24,27.71-2.24,27.71l168.6-129.88h0s61.03-47.7,61.03-47.7c11.92,17.68,26.72,20.47,26.72,20.47-22.35-19.79-27.44-40.14-27.44-40.14"/>
    <path class="cls-6" d="m418.53,589.14c0-.25,0-.49.02-.72.03-.5.07-.98.12-1.46.02-.19.03-.37.05-.56h0c-.29.11-.56.24-.84.36-.18.08-.36.15-.54.23-.33.15-.66.29-.98.44-.16.07-.31.15-.47.22-.54.25-1.07.51-1.59.77-.18.09-.36.18-.54.28-.48.25-.95.5-1.42.76-.17.1-.35.19-.52.29-.28.16-.55.32-.83.47-.18.1-.35.21-.52.31-.43.25-.84.51-1.25.77-.17.11-.34.22-.51.33-.25.16-.49.32-.73.49-.23.16-.46.32-.68.47-.32.22-.63.45-.93.67-.16.12-.32.24-.48.36-.34.26-.67.51-.99.77-.17.14-.34.27-.51.41-.21.17-.41.34-.61.51-.16.14-.32.28-.48.42-.29.26-.59.52-.87.79-.15.14-.3.28-.44.41-.18.17-.36.34-.53.51-.25.25-.49.49-.73.74-.17.17-.33.35-.48.52-.14.15-.27.3-.41.45-.23.26-.46.52-.68.78-.14.17-.28.34-.42.5-.14.18-.28.35-.42.53-.14.18-.28.36-.42.55-.19.25-.38.5-.56.76-.11.16-.23.32-.34.49-.12.18-.24.35-.36.53-.18.27-.36.54-.53.82-.11.18-.22.36-.33.53-.1.17-.21.35-.31.52-.15.26-.3.52-.44.78-.1.19-.2.37-.3.56-.09.18-.19.36-.28.54-.11.23-.22.46-.33.69-.11.23-.21.46-.31.69-.08.18-.15.36-.23.54-.07.18-.15.35-.22.53-.11.29-.22.58-.33.86-.07.18-.13.36-.19.54-.07.19-.13.38-.19.57-.09.26-.17.53-.25.79-.06.19-.11.39-.17.58-.05.18-.1.36-.15.54-.08.29-.15.57-.22.86-.04.18-.08.37-.12.55-.04.19-.08.37-.12.56-.04.22-.09.44-.13.66-.04.25-.09.5-.13.76-.03.18-.06.36-.08.55-.03.2-.06.4-.08.61-.03.26-.06.52-.09.78-.02.19-.04.39-.05.58-.01.18-.03.36-.04.54-.02.29-.04.59-.05.88,0,.18-.01.35-.02.53,0,.19-.01.38-.01.57,0,.23,0,.47,0,.7,0,.23,0,.46.01.69,0,.18.01.36.02.53,0,.22.02.43.03.65.01.24.03.48.05.72.01.19.03.39.05.58.01.17.03.34.05.52.03.29.06.58.1.87.02.17.05.33.07.5.03.2.06.4.09.59.03.22.07.43.11.65.04.23.08.46.12.69.03.16.06.33.1.49.05.25.11.51.16.76.04.18.08.37.13.55.05.21.1.41.15.62.04.15.07.29.11.44.07.26.14.53.22.79,0,.02.01.03.01.05.15.51.3,1.01.47,1.5,0,.02.01.03.02.05.15.46.31.91.48,1.36.04.11.08.21.12.32.15.38.29.76.45,1.13.04.1.08.19.12.28.19.46.39.92.6,1.37,0,.02.02.04.03.06.19.42.4.83.6,1.23.06.12.12.25.19.37.16.32.33.63.5.94.07.12.14.25.2.37.22.4.45.79.69,1.17.02.04.05.08.07.11.22.37.46.73.69,1.08.09.14.18.27.27.4.17.25.34.5.51.75.1.14.2.28.3.41.2.27.4.54.6.81.07.1.15.2.22.29.25.32.51.64.77.95.11.13.23.27.34.4.17.2.34.39.52.59.12.14.25.28.37.41.18.2.37.39.55.58.11.11.22.23.33.34.28.27.55.54.83.8.13.12.26.24.4.36.17.15.35.31.52.46.14.12.28.24.43.36.18.15.36.29.54.43.1.08.21.17.31.24.08.06.17.12.25.18.22.17.45.33.67.48,0,0,0,0,0,0,.54.37,1.09.72,1.64,1.03h0s0,0,0,0c-.16-.29-.32-.57-.48-.86-.08-.15-.17-.31-.25-.46-.14-.26-.27-.52-.41-.78-.11-.22-.23-.44-.33-.65-.12-.23-.23-.46-.34-.69-.12-.25-.24-.51-.36-.76-.09-.2-.19-.4-.28-.6-.15-.32-.29-.65-.43-.97-.06-.13-.12-.26-.17-.39-.19-.45-.37-.9-.55-1.35-.04-.09-.07-.19-.11-.28-.14-.37-.28-.73-.41-1.09-.04-.12-.08-.24-.12-.36-.12-.35-.24-.7-.35-1.05-.03-.1-.07-.21-.1-.31-.12-.39-.24-.79-.35-1.17-.01-.05-.03-.09-.04-.14-.18-.62-.33-1.24-.48-1.84-.01-.05-.02-.1-.03-.15-.44-1.89-.73-3.72-.89-5.5,0-.03,0-.05,0-.08-.04-.45-.07-.89-.09-1.33-.02-.44-.04-.88-.04-1.31-.01-.87,0-1.72.06-2.56,0-.01,0-.02,0-.03.03-.56.08-1.11.14-1.65,0,0,0,0,0,0,.18-1.64.48-3.22.88-4.72,0-.01,0-.02,0-.03.2-.75.43-1.48.67-2.2.25-.71.52-1.41.81-2.09,0-.02.01-.03.02-.05.29-.68.61-1.33.94-1.97.33-.64.69-1.26,1.06-1.86,0-.01.02-.03.03-.04.25-.4.5-.79.76-1.17t0,0c.53-.77,1.09-1.51,1.67-2.2,0,0,.01-.01.01-.02.29-.35.58-.68.88-1.01,0,0,.01-.01.01-.02.34-.37.69-.73,1.05-1.08.59-.58,1.2-1.13,1.82-1.65t0,0c2.67-2.2,5.6-3.76,8.49-4.61,0,0,0,0,0,0,0,0,0,0,0,0-1.72-5.53-2.33-10.43-2.31-14.56"/>
    <path class="cls-1" d="m575.98,609.76c0-6.36-5.16-11.52-11.52-11.52s-11.52,5.16-11.52,11.52,5.16,11.52,11.52,11.52,11.52-5.16,11.52-11.52"/>
    <path class="cls-3" d="m498.18,637.54c0,24.35,19.79,44.1,44.16,44.1,20.18,0,37.17-13.48,42.48-31.9-7.57,13.48-22,22.59-38.58,22.59-24.39,0-44.17-19.74-44.17-44.1,0-4.22.62-8.3,1.72-12.18-3.56,6.36-5.61,13.69-5.61,21.5"/>
    <rect class="cls-6" x="402.28" y="543.93" width="68.82" height="6.58" transform="translate(-239.6 366.17) rotate(-36.42)"/>
    <rect class="cls-6" x="643.16" y="512.82" width="6.58" height="68.82" transform="translate(-177.7 742.5) rotate(-53.58)"/>
  </g>
</svg>