<?xml version="1.0" encoding="UTF-8"?>
<svg id="PRIMARY" xmlns="http://www.w3.org/2000/svg" viewBox="0 0 1080 1080">
  <defs>
    <style>
      .cls-1 {
        fill: #fff;
      }

      .cls-2 {
        fill: #091f40;
      }
    </style>
  </defs>
  <g id="_1_COLOR_LIGHT" data-name="1 COLOR LIGHT">
    <path class="cls-1" d="m748.79,312.48c-55.16-55.16-128.5-85.54-206.51-85.54s-151.35,30.38-206.51,85.54c-55.16,55.16-85.54,128.5-85.54,206.51s30.38,151.35,85.54,206.51c55.16,55.16,128.5,85.54,206.51,85.54s151.35-30.38,206.51-85.54,85.54-128.5,85.54-206.51-30.38-151.35-85.54-206.51Zm-206.51,484.9c-153.75,0-278.39-124.64-278.39-278.39s124.64-278.39,278.39-278.39,278.39,124.64,278.39,278.39-124.64,278.39-278.39,278.39Z"/>
    <path class="cls-1" d="m392.22,518.99c0,82.74,67.31,150.05,150.05,150.05s150.06-67.31,150.06-150.05c0-4.89-.24-9.73-.7-14.51l-12.62,8.97c.07,1.84.12,3.69.12,5.54,0,75.46-61.39,136.85-136.85,136.85s-136.85-61.39-136.85-136.85c0-1.87.05-3.73.12-5.58l-12.62-8.96c-.46,4.79-.71,9.64-.71,14.54Z"/>
    <path class="cls-1" d="m408.45,451.16l10.94,7.65c22.31-45.37,69.01-76.67,122.89-76.67s99.5,30.58,122.11,75.1l10.48-8.45c-25.23-47.46-75.19-79.86-132.59-79.86s-109.02,33.48-133.83,82.23Z"/>
    <path class="cls-1" d="m689.84,491.73c-2.32-12.58-6.21-24.61-11.47-35.88l-8.45,13.82c3.09,7.96,5.45,16.27,7.01,24.87l12.91-2.81Z"/>
    <path class="cls-1" d="m394.72,491.71l12.91,2.81c1.45-8.02,3.61-15.79,6.4-23.26l-8.84-13.24c-4.75,10.64-8.29,21.92-10.46,33.69Z"/>
    <path class="cls-1" d="m595.47,616.19l-1.7,3.58c-1.15,2.42-2.41,4.69-3.77,6.83,5.68-2.53,11.13-5.5,16.29-8.86-.47.02-.93.04-1.4.04-3.27,0-6.44-.53-9.43-1.59Z"/>
    <path class="cls-1" d="m645.55,469.66l-1.26,3.78,4.82-3.89c-.67-1.44-1.36-2.87-2.09-4.28-.47,1.4-.96,2.87-1.47,4.39Z"/>
    <path class="cls-1" d="m490.19,615.77c-3.31,1.33-6.85,2.01-10.55,2.01-.46,0-.92-.02-1.38-.04,5.73,3.73,11.81,6.98,18.17,9.68-1.61-2.39-3.07-4.95-4.36-7.68l-1.88-3.97Z"/>
    <path class="cls-1" d="m440.27,469.28c-.48-1.47-.91-2.79-1.28-3.97-.19-.6-.35-1.21-.52-1.81-1.13,2.1-2.19,4.24-3.2,6.42l5.01,3.5c.23-.57.48-1.16.75-1.76l-.77-2.38Z"/>
    <path class="cls-1" d="m637.76,581.52c0,.25.01.51.01.76l.69.55c.6.47,1.15.99,1.68,1.53,11.12-16.59,18.13-36.15,19.58-57.21l-37.73,26.8c1.19.67,2.27,1.38,3.28,2.16,7.01,5.39,11.51,13.87,12.34,23.27.07.73.12,1.45.14,2.15Z"/>
    <path class="cls-1" d="m426.32,498.6l6.96,1.52-5.56-8.32c-.53,2.24-1,4.51-1.41,6.8Z"/>
    <path class="cls-1" d="m459.24,556.12c1.04-.8,2.14-1.52,3.34-2.2l-37.75-26.82c1.44,21.07,8.45,40.64,19.57,57.24.53-.53,1.08-1.05,1.67-1.52l.69-.55c0-.24,0-.48.01-.72.02-.74.07-1.45.14-2.23.84-9.37,5.33-17.83,12.31-23.21Z"/>
    <path class="cls-1" d="m656.71,491.3l-5.39,8.81,6.91-1.5c-.43-2.46-.94-4.9-1.53-7.31Z"/>
    <path class="cls-2" d="m517.55,525.64s0,0,0,0l-47.04-38.07s-.14.13-.38.32c.23-.19.38-.32.38-.32l47.04,38.07Z"/>
    <path class="cls-2" d="m465.23,490.53h0s.37-.14,1.22-.51c-.85.37-1.22.51-1.22.51Z"/>
    <rect class="cls-2" x="487.38" y="509.59" width=".03" height="0" transform="translate(-209.53 616.98) rotate(-55.03)"/>
    <path class="cls-2" d="m591.88,585.81h0s-.29.23-.8.55c.51-.32.8-.55.8-.55Z"/>
    <path class="cls-2" d="m497.59,588.1c-3.37-.74-5.69-2.59-5.69-2.59h0s2.32,1.85,5.69,2.59c.73.16,1.48.15,2.19,0-.71.16-1.46.16-2.19,0Z"/>
    <path class="cls-2" d="m614.05,487.92c-.49-.37-.78-.64-.78-.64l-90.82,73.51,90.82-73.51s.3.27.78.64Z"/>
    <rect class="cls-2" x="596.37" y="509.29" width=".03" height="0"/>
    <path class="cls-2" d="m618.55,490.24s-.46-.17-1.53-.65c1.07.47,1.53.65,1.53.65h0Z"/>
    <path class="cls-1" d="m500.06,471.67c3.94,2.89,8.15,5.97,12.55,9.19l-.02-3.39c-3.07-2.72-5.84-5.24-8.67-7.87-1.33.72-2.61,1.4-3.86,2.07Z"/>
    <path class="cls-1" d="m547.63,497.09c.37.26.73.52,1.1.77,5.46-4,10.83-7.94,16.01-11.73l-.04-7.69c-2.76-1.68-5.52-3.4-8.59-5.39-2.87,2.32-5.68,4.54-8.55,6.76l.03,6.9.06,10.38Z"/>
    <path class="cls-1" d="m538.4,497.09l.06-10.38.03-6.9c-2.87-2.22-5.68-4.44-8.55-6.76-3.07,1.99-5.84,3.71-8.59,5.39l-.04,7.69c5.17,3.79,10.54,7.72,16.01,11.73.36-.25.73-.51,1.1-.77Z"/>
    <path class="cls-1" d="m573.66,479.6c4.28-3.14,8.37-6.13,12.2-8.93-1.18-.59-2.36-1.18-3.58-1.81-2.78,2.66-5.62,5.28-8.63,8.02v2.64s.01.08.01.08Z"/>
    <path class="cls-1" d="m538.4,436.85l-.02-2.17v-1.57c-5.88.3-11.63,1.14-17.1,2.44v.09c2.76,2.29,5.51,4.52,8.61,6.96,3.04-1.99,5.76-3.83,8.51-5.76Z"/>
    <path class="cls-1" d="m564.35,435.37c-5.46-1.24-11.19-2.03-17.04-2.28l.02,3.7c2.79,1.88,5.52,3.67,8.56,5.59,3.05-2.46,5.76-4.7,8.46-7.01Z"/>
    <path class="cls-1" d="m498.9,444.54c-5.68,3.46-10.4,7.58-13.7,12.2-.51.71-.96,1.42-1.39,2.14.93.98,1.87,1.97,2.84,2.97,1.64,1.21,3.4,2.49,5.25,3.85,2.62-1.28,5.01-2.48,7.38-3.7l-.04-8.49-.05-8.69c-.1-.09-.18-.18-.28-.27Z"/>
    <path class="cls-1" d="m525.28,466.7l-.06-12.33-.02-4.64c-2.93-2.36-5.77-4.72-8.65-7.2-2.75,1.59-5.52,3.15-8.44,4.74l.09,17.09c2.89,2.64,5.71,5.15,8.62,7.66,2.81-1.71,5.58-3.46,8.47-5.32Z"/>
    <path class="cls-1" d="m551.33,467.07l-.09-16.92c-3.08-2.04-5.84-3.91-8.61-5.85-2.86,2.06-5.65,4.02-8.51,5.98l.09,16.93c2.77,2.13,5.52,4.18,8.58,6.39,2.82-2.11,5.56-4.2,8.54-6.53Z"/>
    <path class="cls-1" d="m577.43,463.79l-.03-4.94-.06-12.12c-3.14-1.64-5.88-3.11-8.56-4.6-2.82,2.47-5.57,4.81-8.61,7.33l.03,5.22.07,11.72c2.86,1.8,5.67,3.5,8.55,5.18,3.04-2.69,5.8-5.18,8.61-7.8Z"/>
    <path class="cls-1" d="m586.54,443.88c-.08.08-.17.16-.24.25l.03,6.81.06,10.34c2.66,1.31,5.06,2.47,7.41,3.56,1.85-1.36,3.6-2.64,5.24-3.84,1.01-1.06,1.99-2.11,2.96-3.15-.22-.35-.42-.7-.66-1.05-3.49-4.95-8.61-9.31-14.8-12.93Z"/>
    <path class="cls-1" d="m511.73,610.2c-1.05,2.56-4.36,4.76-8.54,5.36-.96.14-1.88.15-2.78.12,5.5,11.62,17.38,25.72,42.82,25.72,19.97,0,34.14-8.66,42.22-25.7-.81.02-1.64,0-2.5-.13-4.41-.63-7.84-3.05-8.68-5.78-6.59,10.55-18.18,17.57-31.41,17.57s-24.51-6.83-31.13-17.15Z"/>
    <path class="cls-1" d="m619.94,440.65c-.19-.25-.36-.5-.56-.75-8.79-10.98-30.06-23.73-59.16-27.4-3.7-.47-7.52-.79-11.46-.94-.5-.02-1-.02-1.5-.04-.64-.02-1.27-.04-1.91-.05-.33,0-.66,0-1,0-.25,0-.5,0-.76,0l-1.59-.02c-37.58,0-65.4,15.47-75.79,28.44-.02.03-.04.05-.06.08-.68.85-1.3,1.71-1.87,2.58-2.53,3.87-3.99,7.87-4.75,11.81,2.75-2.31,5.42-3.82,7.61-4.29.19-.07.38-.12.57-.17,1.33-.32,2.55-.15,3.68.68l1.63,1.23c.59-.97,1.21-1.94,1.89-2.89,12.65-17.68,39.45-29.1,68.29-29.1s55.95,11.48,68.47,29.25c.41.58.79,1.16,1.16,1.75l.3-.23c1.13-.84,4.14-.91,5.47-.59,0,0,0,0,.01,0,2.09.34,4.65,1.68,7.32,3.81h0s0,0,0,0c-.92-4.4-2.76-8.87-6-13.15Z"/>
    <path class="cls-1" d="m543.23,396.7c-38.73,0-74.92,14.48-90.06,36.02-6.77,9.63-8.57,19.64-5.36,29.75.4,1.29.88,2.75,1.41,4.39.75-1.29,1.59-2.6,2.52-3.91h0s0,0,0,0c-.03-.33-.06-.67-.08-1-.33-4.23-.1-9.08,1.49-14.2,1.08-3.49,2.8-7.11,5.39-10.72.91-1.27,1.93-2.54,3.07-3.81h0s0,0,0,0c0,0,0,0,0,0,3.27-3.63,13.74-13.58,32.39-20.92,12.33-4.86,28.24-8.57,48-8.57l1.59.02c19.83,0,35.76,3.74,48.1,8.62,1.03.41,2.03.82,3.01,1.24.15.07.32.13.47.2,16.43,7.15,25.76,16.06,28.82,19.45,1.86,2.06,3.4,4.14,4.67,6.21.45.73.85,1.46,1.23,2.19.7,1.33,1.31,2.66,1.81,3.98.21.55.39,1.09.56,1.64,1.78,5.43,2.04,10.6,1.66,15.03,1.06,1.46,2.02,2.92,2.86,4.37.55-1.65,1.08-3.23,1.58-4.71,3.3-9.87,1.65-19.68-4.9-29.14-14.94-21.59-51.21-36.1-90.25-36.1Z"/>
    <polygon class="cls-1" points="471.73 548.97 479.16 543.41 438.54 516.53 466.06 523.88 452.03 502.51 490.28 535.07 496.32 530.55 433.1 479.6 450.67 513.49 409.01 504.42 471.73 548.97"/>
    <polygon class="cls-1" points="594.33 535.07 632.58 502.51 618.55 523.88 646.07 516.53 605.46 543.4 612.88 548.97 675.6 504.42 633.94 513.49 651.51 479.6 588.3 530.55 594.33 535.07"/>
    <path class="cls-1" d="m448.11,481.29c1.02.75,2.95.1,5.33-1.6-.34.04-.64.02-.85-.15-1.39-1.11,1.06-6.67,5.46-12.42,4.41-5.77,9.11-9.55,10.49-8.45.21.16.31.44.35.78,1.03-2.76,1.23-4.9.21-5.65-.84-.62-7.53,3.89-13.32,11.47-5.8,7.59-8.79,15.18-7.66,16.01Z"/>
    <path class="cls-1" d="m610.4,607.65c2.46-.65,4.78-1.71,6.9-3.17.7,1.67,1.73,3.13,3.13,4.18,1.79,1.38,3.93,2.03,6.15,1.88.12,0,.24-.02.36-.03h0c.33-.04.67-.09,1-.16,2.68-.58,5.05-2.26,6.68-4.74,1.63-2.49,2.32-5.46,1.94-8.39-.37-2.87-1.73-5.35-3.82-7.01-2.79,6.06-7.36,8.29-9.94,9.07.44-.56.87-1.15,1.27-1.76,1.9-2.89,3.16-6.05,3.84-9.27.45-2.13.64-4.29.58-6.43-.02-.53-.05-1.07-.11-1.61-.58-6.53-3.54-12.64-8.69-16.61-.98-.75-2.03-1.38-3.08-1.92-2.48-1.27-5.12-1.98-7.8-2.14-.69-2.79-1.78-4.45-2.32-4.85-.43-.34-3.03-2.26-7.25-5.36-4.81-3.54-11.75-8.63-20.03-14.7-.94-.69-1.88-1.38-2.83-2.07,26.09-22.24,49.01-41.8,55.06-46.95,0,0,0,0,0,0-3.62-2.78-8.98-8.22-12.55-13.74-3.48-5.41-6.8-10.05-8-14.62-.17.13-.35.26-.53.39-11.29,8.27-39.15,28.67-68.12,49.9-28.97-21.23-56.83-41.63-68.12-49.9-.18-.13-.36-.26-.53-.39-1.21,4.57-4.52,9.21-8,14.62-3.57,5.52-8.93,10.95-12.55,13.74,0,0,0,0,0,0,6.05,5.16,28.97,24.71,55.06,46.95-.95.7-1.89,1.39-2.83,2.07-8.28,6.07-15.21,11.16-20.03,14.7-4.22,3.1-6.82,5.02-7.25,5.36-.54.4-1.63,2.06-2.32,4.85-2.68.16-5.32.87-7.8,2.14-1.05.54-2.1,1.17-3.08,1.92-5.16,3.97-8.12,10.08-8.69,16.61-.05.54-.09,1.08-.11,1.61-.06,2.13.14,4.29.59,6.43.68,3.22,1.95,6.38,3.84,9.27.4.61.83,1.2,1.27,1.76-2.58-.79-7.15-3.02-9.94-9.07-2.09,1.66-3.45,4.14-3.82,7.01-.38,2.93.31,5.91,1.94,8.39,1.63,2.48,4,4.16,6.68,4.74.34.07.67.13,1,.16h0c.12.01.24.02.36.03,2.21.15,4.35-.49,6.15-1.88,1.4-1.06,2.43-2.52,3.13-4.18,2.12,1.45,4.44,2.51,6.9,3.17.31.08.62.18.94.25,5.86,1.27,11.82.13,16.43-3.66,2.07-1.69,3.48-3.29,4.44-4.62-1.47-1.26-3.1-2.99-3.92-5-1.72-4.19-1.25-3.54-1.25-3.54,0,0,2.62,2.75,7.41,4.87.78.34,1.51.62,2.15.84.73.25,1.54.07,2.11-.46l7.89-7.48c1.14-.97,2.3-1.96,3.49-2.97.92-5.26,3.21-10.03,6.49-13.93l-18.36,15.1c-.2.16-.4.3-.62.43-.48.29-1,.5-1.54.62-.71.16-1.46.16-2.19,0-3.37-.74-5.69-2.59-5.69-2.59h0s0,0,0,0l30.55-24.73,90.82-73.51s.3.28.78.64c.53.4,1.29.91,2.16,1.31.31.14.57.26.81.36,1.07.47,1.53.65,1.53.65h0s0,0,0,0l-22.17,19.04.02.03h0s0,0,0,0l-2.33,1.97-.7.59-64.73,53.23c4.09-2.25,8.77-3.53,13.74-3.54.03,0,.06,0,.08,0,3.65,0,7.15.69,10.37,1.93l-6.47-5.33h0s0,0,0,0c1.84-1.57,3.69-3.14,5.54-4.72l39.98,32.36h0s0,0,0,0c0,0-.29.23-.8.55-.95.61-2.7,1.55-4.89,2.03-.29.06-.59.09-.88.11-1.25.05-2.48-.34-3.47-1.15l-14.93-12.28c2.12,3.33,3.6,7.12,4.26,11.19,1.03.88,2.05,1.74,3.05,2.59l7.89,7.48c.56.54,1.37.71,2.11.46.65-.22,1.37-.5,2.15-.84,4.79-2.11,7.41-4.87,7.41-4.87,0,0,.47-.65-1.25,3.54-.83,2.01-2.45,3.74-3.92,5,.96,1.33,2.37,2.93,4.44,4.62,4.61,3.78,10.57,4.93,16.43,3.66.31-.07.62-.17.94-.25Zm-134.03-35.06s0,0,0,0c0,0,0,0,0,0-.38.11-.77.25-1.15.41-1.19.5-2.38,1.22-3.48,2.14,0,0,0,0,0,0-.31.26-.61.54-.9.83-.03.03-.06.06-.09.09-.01.01-.02.02-.03.03-.18.18-.37.37-.54.57,0,0,0,0,0,0,0,0,0,0,0,0-.16.18-.33.37-.48.56,0,0,0,0,0,0,0,0,0,0,0,.01-.31.38-.62.79-.9,1.21t0,0c-.13.19-.25.39-.38.59-.01.02-.03.04-.04.06,0,0,0,0,0,0,0,0,0,.01-.01.02-.11.18-.21.38-.32.57-.09.15-.18.3-.26.46-.11.22-.22.46-.32.69-.06.14-.13.27-.19.4,0,0,0,.01,0,.02,0,0,0,0,0,0-.16.38-.31.76-.44,1.16-.14.4-.26.8-.37,1.22,0,0,0,.01,0,.02-.14.55-.25,1.12-.35,1.7-.05.3-.1.61-.13.92,0,0,0,0,0,0h0c-.01.12-.02.24-.03.36-.02.19-.04.37-.05.56,0,0,0,0,0,.01h0c-.03.47-.04.94-.03,1.42,0,.1,0,.21.01.31,0,.14,0,.28.01.42,0,.13.02.26.03.4,0,.11.01.23.02.34,0,.02,0,.03,0,.05.06.66.16,1.35.29,2.04.06.33.12.67.2,1.01,0,.03.01.05.02.08.05.23.12.47.18.71.03.11.05.21.08.32,0,.03.01.05.02.08.06.22.13.43.19.65.02.06.04.11.05.17.06.19.12.39.19.58.01.04.03.08.04.12,0,.03.02.06.03.08.07.2.14.4.22.61.02.05.04.1.06.16.1.25.2.5.3.75.03.07.06.15.09.22.04.1.09.21.14.32.03.07.06.15.1.22.05.11.1.22.15.33.06.14.13.28.2.42.06.13.12.26.19.39.06.12.12.24.18.36.07.14.15.29.22.43.02.03.03.06.05.1.03.05.06.11.09.16.09.16.17.32.26.48,0,0,0,0,0,0,0,0,0,0,0,0,0,0,0,0,0,0h0s0,0,0,0h0c-.27-.16-.55-.33-.82-.52-.03-.02-.05-.03-.08-.05,0,0,0,0,0,0-.12-.09-.25-.17-.37-.27-.05-.03-.09-.07-.14-.1-.06-.04-.11-.09-.17-.14-.08-.07-.17-.13-.25-.2-.02-.01-.03-.02-.05-.04-.07-.05-.13-.11-.2-.17-.01-.01-.03-.02-.04-.03-.1-.08-.19-.17-.29-.25t0,0s0,0,0,0c-.07-.07-.14-.13-.22-.2-.08-.08-.17-.16-.25-.24-.07-.07-.14-.13-.21-.2-.05-.05-.11-.11-.16-.17,0,0-.01-.01-.02-.02-.1-.11-.2-.21-.3-.32-.07-.08-.14-.15-.21-.23-.02-.02-.03-.04-.05-.06-.08-.09-.15-.18-.23-.27-.06-.07-.13-.15-.19-.22-.14-.17-.28-.35-.42-.53-.04-.05-.08-.11-.12-.16-.11-.15-.22-.3-.33-.45-.05-.08-.11-.15-.16-.23-.09-.14-.19-.27-.28-.41-.04-.06-.07-.11-.11-.17-.01-.02-.02-.04-.04-.06-.03-.05-.07-.11-.1-.16-.09-.15-.19-.29-.28-.44,0,0-.01-.02-.02-.03,0-.01-.01-.02-.02-.03-.11-.19-.22-.38-.33-.57-.02-.03-.03-.05-.05-.08-.04-.07-.07-.14-.11-.2-.09-.17-.18-.34-.27-.52-.01-.02-.02-.04-.03-.07-.02-.05-.05-.09-.07-.14-.04-.08-.08-.17-.12-.25-.07-.14-.14-.29-.21-.43,0,0,0-.01,0-.02,0,0,0,0,0-.01-.11-.25-.22-.5-.33-.76-.02-.05-.04-.11-.06-.16-.05-.12-.09-.24-.14-.35-.04-.09-.07-.18-.11-.27-.02-.06-.04-.12-.07-.18-.09-.25-.18-.5-.26-.75,0,0,0-.02,0-.03-.09-.28-.17-.55-.25-.83,0,0,0-.01,0-.02,0,0,0,0,0-.01-.04-.15-.08-.29-.12-.44-.02-.08-.04-.16-.06-.24-.03-.11-.06-.23-.08-.34-.02-.1-.05-.2-.07-.31-.03-.14-.06-.28-.09-.42-.02-.09-.04-.18-.05-.27-.02-.13-.05-.25-.07-.38-.02-.12-.04-.24-.06-.36-.01-.07-.02-.15-.03-.22,0-.04-.01-.07-.02-.11-.01-.09-.03-.19-.04-.28-.02-.16-.04-.32-.06-.48,0-.04,0-.09-.01-.13,0-.05-.01-.11-.02-.16,0-.11-.02-.21-.03-.32,0-.08-.01-.17-.02-.25,0-.05,0-.1,0-.15,0-.05,0-.09,0-.14,0-.07,0-.15-.01-.22,0-.06,0-.12,0-.18,0-.04,0-.08,0-.12,0-.13,0-.26,0-.38,0-.13,0-.26,0-.39,0-.04,0-.09,0-.13,0-.06,0-.12,0-.19,0-.06,0-.12,0-.18,0-.04,0-.08,0-.12,0-.16.02-.33.03-.49,0-.1.01-.2.02-.3,0-.11.02-.21.03-.32.01-.14.03-.29.05-.43,0-.04.01-.08.02-.12,0-.07.02-.14.03-.22,0-.06.02-.13.03-.19,0-.04.01-.07.02-.11,0-.06.02-.12.03-.17.01-.08.03-.16.04-.24.02-.12.05-.24.07-.37.01-.06.03-.13.04-.19,0-.04.02-.08.02-.12,0-.04.02-.08.03-.12.01-.06.03-.12.04-.18.03-.12.06-.24.09-.36.01-.04.02-.08.03-.12,0-.02.01-.04.02-.07.02-.08.04-.16.06-.23.02-.08.05-.16.07-.24,0-.03.02-.05.02-.08.02-.05.03-.1.05-.15.03-.09.06-.19.09-.28.03-.11.07-.21.11-.32.03-.08.05-.15.08-.22,0-.03.02-.05.03-.08.06-.16.12-.32.18-.48.04-.1.08-.2.12-.29.04-.1.08-.2.13-.3.06-.13.11-.25.17-.38.06-.13.12-.25.18-.38.02-.04.04-.09.07-.13.03-.06.06-.11.08-.17.03-.06.06-.12.09-.17.02-.04.05-.09.07-.13.08-.15.16-.29.24-.43.06-.1.11-.19.17-.29.06-.1.12-.2.18-.3.04-.06.08-.12.12-.19.06-.09.11-.18.17-.27.06-.09.12-.18.18-.27,0,0,.01-.02.02-.03.06-.09.12-.18.19-.27.1-.14.2-.28.3-.42,0,0,0,0,0,0,0,0,0,0,0,0,.07-.1.15-.2.22-.3.07-.09.14-.18.21-.26,0-.01.02-.02.02-.03.07-.08.13-.16.2-.24.01-.01.02-.02.03-.04,0,0,0,0,0,0,.12-.14.24-.29.37-.43.07-.08.15-.17.22-.25.09-.1.17-.19.26-.29.07-.08.15-.15.22-.23.06-.06.12-.12.18-.18.09-.09.18-.18.27-.27,0,0,.01-.01.02-.02.08-.08.16-.15.24-.23.09-.08.18-.16.27-.25.07-.06.14-.13.21-.19.09-.08.17-.16.26-.23.05-.04.1-.09.15-.13.06-.05.12-.1.18-.15.05-.04.1-.08.15-.12.04-.04.09-.07.13-.11.18-.14.36-.29.54-.43.09-.07.17-.13.26-.2.02-.01.04-.03.05-.04.15-.11.3-.22.46-.33.03-.02.06-.04.09-.07.09-.07.18-.13.28-.2.13-.09.27-.18.4-.27.04-.03.09-.06.13-.08.05-.03.1-.07.15-.1.22-.15.45-.29.68-.43.09-.06.19-.12.28-.17.15-.09.3-.18.45-.26.09-.05.19-.11.29-.16.25-.14.51-.28.77-.42.08-.04.15-.08.23-.12.02-.01.04-.02.06-.03.28-.14.57-.29.87-.43.06-.03.12-.06.18-.08.03-.01.05-.02.08-.04.18-.08.36-.16.54-.24.06-.03.12-.05.18-.08.04-.02.08-.03.11-.05.07-.03.14-.06.2-.09.08-.04.17-.08.26-.11h0s0,.08-.01.12c0,.06-.01.13-.02.19-.02.27-.05.53-.06.81,0,.08,0,.16,0,.25,0,.05,0,.1,0,.15,0,.57.02,1.17.06,1.79.06.8.16,1.64.31,2.51.2,1.19.49,2.44.89,3.76h0s0,0,0,0Zm-16.19-86.88c12.21-10.97,14.99-22.25,14.99-22.25,0,0,.31.24.89.68.18.14.39.3.63.48.1.07.2.15.3.23,4.78,3.63,18.49,14.03,35.56,26.99.42.32.84.64,1.27.96h0s0,0,0,0c0,0,0,0,0,0h0c7.83,5.94,15.91,12.08,23.85,18.1-2.16,1.58-4.32,3.17-6.48,4.75-.71.52-1.42,1.04-2.12,1.56h0s-15.11-11.82-15.11-11.82l-5.85-4.57h0,0s-24.64-19.55-24.64-19.55l-8.69-6.9c-6.51,9.8-14.59,11.35-14.59,11.35h0s0,0,0,0Zm30.24,26.45h0s-3.04-2.56-3.04-2.56h0s.02-.03.02-.03l-22.17-19.04h0s.37-.14,1.22-.51c.31-.14.68-.3,1.12-.5,1.13-.51,2.07-1.22,2.56-1.63.23-.19.38-.32.38-.32l47.04,38.07s0,0,0,0h0c-1.91,1.4-3.8,2.79-5.68,4.16l-21.45-17.64Zm128.02-29.1c-2.35-1.49-5.09-3.81-7.68-7.3-.33-.45-.67-.91-1-1.41l-33.33,26.44h0s0,0,0,0h0l-92.09,72s-6.42-9.48,1.22-15.36c2.05-1.57,13.08-9.95,28.15-21.39.31-.24.62-.47.94-.71.49-.37.97-.74,1.47-1.11,15.99-12.14,36.01-27.34,54.58-41.44h0s0,0,0,0c16.97-12.88,30.81-23.39,36.21-27.48,1.58-1.2,2.44-1.85,2.44-1.85,0,0,2.78,11.28,14.99,22.25h0s0,0,0,0c0,0-2.54-.49-5.92-2.64Zm-18.25,89.74l-37.03-28.96c2.83-2.41,5.65-4.82,8.45-7.2,2.18,1.66,4.26,3.24,6.25,4.75,9.34,7.09,16.39,12.45,19.57,14.88.7.53,1.23.94,1.54,1.17,2.63,2.02,3.59,4.47,3.73,6.81.01.21.02.42.02.64-.01,4.21-2.52,7.91-2.52,7.91Zm7.98-.22c.94-3.07,1.27-5.78,1.26-8.07,0-.14,0-.27-.01-.4-.01-.28-.04-.54-.06-.8,0-.1-.02-.21-.03-.31h0c.16.06.31.13.46.2.1.04.19.08.29.13.18.08.36.16.54.24.08.04.17.08.25.12.3.14.59.29.87.43.1.05.2.1.29.15.26.14.52.28.78.42.09.05.19.1.28.16.15.09.3.18.45.26.1.06.19.11.28.17.23.14.46.29.69.43.09.06.19.12.28.18.14.09.27.18.4.27.12.09.25.17.37.26.17.12.34.25.51.37.09.07.18.13.26.2.18.14.37.29.54.43.09.08.18.15.27.23.11.09.22.19.33.28.09.08.18.16.26.23.16.15.32.29.48.44.08.08.16.15.24.23.1.09.19.19.29.29.13.14.27.27.4.41.09.1.18.19.27.29.07.08.15.16.22.25.13.14.25.29.37.43.08.09.15.19.23.28.08.1.16.2.23.29.08.1.15.2.23.3.1.14.21.28.31.42.06.09.13.18.19.27.07.1.13.19.2.29.1.15.19.3.29.45.06.1.12.2.18.3.06.1.11.19.17.29.08.15.16.29.24.44.06.1.11.21.16.31.05.1.1.2.15.3.06.13.12.25.18.38.06.13.12.26.17.39.04.1.08.2.12.29.04.1.08.2.12.3.06.16.12.32.18.47.04.1.07.2.11.3.04.1.07.21.1.31.05.15.09.29.14.44.03.11.06.21.09.32.03.1.06.2.08.3.04.16.08.32.12.48.02.1.05.2.07.31.02.1.04.21.06.31.02.12.05.24.07.37.03.14.05.28.07.42.02.1.03.2.04.3.02.11.03.22.04.34.02.14.03.29.05.43.01.11.02.21.03.32,0,.1.02.2.02.3.01.16.02.33.03.49,0,.1,0,.2,0,.3,0,.1,0,.21,0,.31,0,.13,0,.26,0,.39,0,.13,0,.26,0,.38,0,.1,0,.2,0,.3,0,.12-.01.24-.02.36,0,.13-.02.27-.03.4,0,.11-.02.22-.03.32,0,.09-.02.19-.03.28-.02.16-.03.32-.06.49-.01.09-.02.19-.04.28-.02.11-.03.22-.05.33-.02.12-.04.24-.06.36-.02.13-.04.25-.07.38-.02.09-.03.18-.05.27-.03.14-.06.28-.09.42-.02.1-.05.2-.07.3-.03.11-.05.23-.08.34-.02.08-.04.16-.06.24-.04.15-.08.29-.12.44,0,0,0,.02,0,.03-.08.28-.16.56-.25.83,0,0,0,.02,0,.03-.08.25-.17.5-.26.75-.02.06-.04.12-.07.18-.08.21-.16.42-.24.63-.02.05-.04.11-.06.16-.11.26-.22.51-.33.76,0,.01-.01.02-.02.03-.11.23-.21.46-.33.68-.03.07-.07.14-.1.2-.09.17-.18.35-.27.52-.04.07-.07.14-.11.2-.12.22-.25.44-.37.65-.01.02-.03.04-.04.07-.12.2-.25.4-.37.6-.05.08-.1.15-.15.22-.09.14-.19.28-.28.41-.05.08-.11.15-.16.23-.11.15-.22.3-.33.45-.04.06-.08.11-.12.17-.14.18-.28.35-.42.53-.06.08-.13.15-.19.22-.09.11-.19.22-.28.32-.07.08-.14.15-.21.23-.1.11-.2.22-.3.32-.06.06-.12.13-.18.19-.15.15-.3.3-.46.44-.07.07-.14.13-.22.2-.1.09-.19.17-.29.25-.08.07-.16.13-.23.2-.1.08-.2.16-.29.24-.06.04-.11.09-.17.14-.05.04-.09.07-.14.1-.12.09-.24.18-.37.27,0,0,0,0,0,0-.3.21-.59.4-.9.57h0s0,0,0,0c.09-.16.18-.32.26-.48.04-.08.09-.17.14-.25.08-.15.15-.29.22-.43.06-.12.12-.24.18-.36.06-.13.13-.26.19-.39.07-.14.13-.28.2-.42.05-.11.1-.22.15-.33.08-.18.16-.36.23-.53.03-.07.06-.15.09-.22.1-.25.21-.5.3-.75.02-.05.04-.11.06-.16.08-.2.15-.4.22-.61.02-.07.05-.13.07-.2.07-.19.13-.39.19-.58.02-.06.04-.11.05-.17.07-.22.13-.44.19-.65,0-.03.01-.05.02-.08.1-.34.18-.69.26-1.02,0-.03.01-.05.02-.08.17-.74.3-1.47.39-2.19.04-.29.07-.58.1-.86,0-.01,0-.03,0-.04.02-.25.04-.5.05-.74.01-.24.02-.49.02-.73,0-.48,0-.95-.03-1.42,0,0,0-.01,0-.02-.02-.31-.04-.61-.08-.92,0,0,0,0,0,0-.1-.91-.26-1.78-.48-2.62,0,0,0-.01,0-.02-.22-.83-.49-1.62-.81-2.37,0,0,0-.02-.01-.02-.32-.75-.69-1.46-1.09-2.12v-.02c-.15-.22-.29-.44-.43-.65h0c-.29-.43-.59-.84-.91-1.22,0,0,0,0,0,0-.16-.19-.32-.38-.48-.56,0,0,0,0,0,0-.12-.14-.25-.27-.38-.4-.13-.13-.26-.26-.39-.39-.26-.25-.53-.49-.8-.72,0,0,0,0,0,0-1.46-1.22-3.06-2.08-4.64-2.55,0,0,0,0,0,0h0Z"/>
    <path class="cls-1" d="m517.55,525.64h0s-47.04-38.07-47.04-38.07c0,0-.14.13-.38.32-.49.41-1.43,1.11-2.56,1.63-.44.2-.81.37-1.12.5-.85.37-1.22.51-1.22.51h0s22.17,19.04,22.17,19.04h0s-.02.03-.02.03h0s3.04,2.56,3.04,2.56h0s21.45,17.64,21.45,17.64c1.87-1.37,3.77-2.76,5.68-4.16Z"/>
    <path class="cls-1" d="m591.08,586.36c.51-.32.8-.55.8-.55h0s-39.98-32.36-39.98-32.36c-1.85,1.58-3.7,3.15-5.54,4.72h0s6.47,5.33,6.47,5.33c5.82,2.25,10.74,6.34,14.07,11.57l14.93,12.28c.99.81,2.22,1.21,3.47,1.15.29-.01.59-.04.88-.11,2.19-.48,3.94-1.43,4.89-2.03Z"/>
    <path class="cls-1" d="m631.11,479.69c2.38,1.7,4.31,2.35,5.33,1.6,1.13-.83-1.87-8.42-7.66-16.01-5.79-7.58-12.49-12.09-13.32-11.47-1.02.75-.82,2.89.21,5.65.04-.34.14-.62.35-.78,1.38-1.1,6.08,2.68,10.49,8.45,4.4,5.75,6.84,11.32,5.46,12.42-.21.16-.51.19-.85.15Z"/>
    <path class="cls-1" d="m596.4,509.3l-.02-.03h0s22.17-19.04,22.17-19.04h0s-.46-.18-1.53-.65c-.24-.11-.5-.22-.81-.36-.87-.4-1.63-.91-2.16-1.31-.49-.37-.78-.64-.78-.64l-90.82,73.51-30.55,24.73h0s2.32,1.85,5.69,2.59c.73.16,1.48.15,2.19,0,.54-.12,1.06-.33,1.54-.62.21-.13.42-.27.62-.43l18.36-15.1c2.33-2.77,5.15-5.1,8.33-6.85l64.73-53.23.7-.59,2.33-1.97h0Z"/>
    <path class="cls-1" d="m561.1,575.94c0-3.53-2.82-6.39-6.29-6.39s-6.29,2.86-6.29,6.39,2.82,6.39,6.29,6.39,6.29-2.86,6.29-6.39Z"/>
    <path class="cls-1" d="m518.61,591.35c0,13.5,10.81,24.44,24.12,24.44,11.02,0,20.3-7.47,23.2-17.68-4.13,7.47-12.02,12.52-21.07,12.52-13.32,0-24.13-10.94-24.13-24.45,0-2.34.34-4.6.94-6.75-1.94,3.53-3.06,7.59-3.06,11.92Z"/>
    <path class="cls-1" d="m324.88,425.53l26.4,14.78c4.51,2.52,5.91,3.65,6.07,6.69l9.09,5.09,15.67-28c3.65-6.52,5.13-11.26,4.79-15.37-.42-5.11-3.82-9.38-10.39-13.06-8.17-4.57-13.52-3.97-19.09,2.15l-3.21,3.53.86-4.7c1.44-7.88-.65-12.13-7.99-16.23-10.32-5.78-17.26-2.8-24.75,10.59l-15.52,27.72,9.09,5.09c2.67-1.46,4.39-.84,8.97,1.72Zm28.04-10.58c2.76-4.94,6.37-5.81,11.7-2.83,5.55,3.11,6.77,6.59,4.09,11.63l-1.88,3.36-15.77-8.83,1.86-3.33Zm-22.87-12.8c.89-1.58,2.17-3.49,4.21-4.19,1.78-.6,3.8-.22,6.35,1.2,2.3,1.29,3.66,2.77,4.16,4.53.5,1.76.11,3.73-1.18,6.03l-1.86,3.33-13.54-7.58,1.86-3.33Z"/>
    <path class="cls-1" d="m401.19,367.81c3.82,5.25,7.62,8.07,11.95,8.89,5.68,1.07,12.37-1.27,20.45-7.16,8.08-5.89,12.36-11.54,13.08-17.27.55-4.37-.98-8.85-4.8-14.1l-17.63-24.2c-3.82-5.25-7.62-8.07-11.95-8.89-.89-.17-1.8-.25-2.74-.25-5.07,0-10.89,2.44-17.71,7.41-8.08,5.89-12.36,11.54-13.08,17.27-.55,4.37.98,8.85,4.8,14.1l17.63,24.2Zm-1.99-45.46c1.89-1.38,3.93-1.45,5.9-.19,1.52.97,2.84,2.62,4.03,4.27l16.25,22.3c1.2,1.64,2.37,3.4,2.83,5.15.59,2.25-.1,4.18-1.99,5.56-1.07.78-2.1,1.1-3.06,1.1-3.1,0-5.54-3.35-6.88-5.18l-16.25-22.3c-1.2-1.64-2.37-3.41-2.83-5.15-.59-2.26.1-4.18,1.99-5.56Z"/>
    <path class="cls-1" d="m493.77,309.51c9.13.59,12.37,1.78,13.55,7.63.42,2.08.34,3.84-.25,5.23-.7,1.65-2.09,2.73-4.03,3.12-2.54.51-4.48-.31-5.78-2.46-1.09-1.82-1.72-4.59-2.31-7.52l-.11-.54-18.42,3.72,3.53,17.45c8.88,3.35,15.7,3.81,25.71,1.79,8.73-1.76,14.61-4.73,17.97-9.06,3.31-4.26,4.19-9.93,2.7-17.32-2.44-12.1-7.05-15.89-20.55-16.9l-6.53-.53c-6.34-.54-9.14-1.5-10.06-6.05-.37-1.85-.2-3.52.5-4.83.75-1.39,2.04-2.3,3.73-2.64,2.51-.51,4.44.25,5.72,2.25,1,1.56,1.56,3.85,2.07,6.29l17.58-3.55-3.08-15.26c-8.61-3.22-16.26-3.81-25.42-1.96-16.92,3.42-22.92,10.91-20.07,25.05,2.72,13.44,8.61,15.09,23.53,16.08Z"/>
    <path class="cls-1" d="m578.38,284.25c.56-2.5,2.16-5.28,6.62-4.29l1.44.33-8.35,37.31c-.88,3.94-2.22,5.71-5.35,6.81l-2.28,10.17,25.41,5.68,2.27-10.16c-2.39-2.3-2.84-4.4-1.93-8.45l8.35-37.31,1.44.33c1.6.36,2.73,1.03,3.45,2.05.82,1.17,1.02,2.72.6,4.62l-2.63,11.77,12.72,2.85,6.45-28.84-57.12-12.78-6.45,28.84,12.72,2.85,2.63-11.77Z"/>
    <path class="cls-1" d="m654.29,372c17.63,13.46,26.28,7.04,32.43-1.01l18.17-23.8c3.94-5.16,5.57-9.61,5.11-13.99-.59-5.75-4.74-11.49-12.69-17.56-6.86-5.23-12.74-7.81-17.89-7.81-.82,0-1.61.06-2.4.19-4.35.72-8.2,3.46-12.15,8.62l-18.17,23.8c-6.14,8.05-10.05,18.09,7.58,31.55Zm5.72-15.54c.5-1.73,1.71-3.47,2.94-5.08l16.75-21.94c1.23-1.62,2.59-3.24,4.13-4.18,1.99-1.21,4.03-1.1,5.89.32,4.47,3.42.73,8.32-1.08,10.68l-16.75,21.93c-1.36,1.78-3.84,5.02-6.9,5.02-.99,0-2.04-.34-3.13-1.17-1.86-1.42-2.51-3.36-1.87-5.6Z"/>
    <path class="cls-1" d="m703.17,402.9l-9.19,4.87,9.44,17.83,9.09-4.81c-.04-2.58,1.95-4.16,5.45-6.02l17.32-9.17-4.72,5.49c-1.91,2.22-3.46,4.09-4.73,5.73l-16.41,20.12,9.06,17.11,44.46-23.54c3.62-1.92,5.54-2.41,8.06-1.01l9.22-4.88-9.74-18.4-9.08,4.8c.09,2.81-2.16,4.3-5.48,6.16l-17.75,9.4,26.6-31.14-10.39-19.63-9.19,4.87c-.16,2.85-1.63,4.12-5.39,6.11l-28.63,15.16c-3.64,1.93-5.55,2.42-7.99.98Z"/>
    <path class="cls-1" d="m324.91,586.27l-7.2,2.02c-2.75.77-4.5.99-5.89.73-1.76-.33-2.93-1.47-3.47-3.39-1.34-4.75,3.22-6.55,7.59-7.87l26.69-7.51c2.71-.76,4.67-.98,6.17-.7,1.86.36,3.13,1.55,3.66,3.45.95,3.39-.66,5.7-4.8,6.86l-5.66,1.59,5.12,18.19,17.09-4.81c2.77-7.8,2.82-16.23.15-25.74-4.19-14.88-10.98-19.01-18.49-19.01-2.87,0-5.85.6-8.83,1.44l-27.69,7.79c-9.8,2.76-19.02,8.4-13.11,29.39,2.79,9.92,6.38,15.84,13.14,21.56l20.66-5.81-5.12-18.19Z"/>
    <path class="cls-1" d="m408.36,648.9l-18.65-22.3-44.39,24.9c-3.69,2.06-5.39,2.84-7.96,2.52l-8.12,6.79,13.97,16.7,7.91-6.61c-.46-2.05.16-3.88,1.78-5.24.51-.43,1.06-.73,2.06-1.27l.98-.54,8.24,9.85-.63.86c-.81,1.11-1.21,1.48-1.65,1.85-1.43,1.2-3.06,1.54-5.07,1.05l-8.04,6.73,16.09,19.24,8-6.69c-.22-2.47,1.22-4.79,4.24-8.65l31.25-39.18Zm-37.57,17.36l-6.42-7.68,12.06-7.59c.7-.44,1.41-.89,2.12-1.34,2.08-1.31,4.23-2.66,6.08-4l1.03-.75,1.74,2.07-.84.88c-2.5,2.63-4.03,4.44-5.38,6.04-.39.46-.76.9-1.14,1.34l-9.25,11.02Z"/>
    <path class="cls-1" d="m464.16,699.31c1.75,2.2.83,4.74-.73,8.21l-8.64,18.13,2.77-40.86-20.05-9.56-4.47,9.39c1.57,2.38,1.15,4.27-.68,8.12l-13.94,29.24c-1.77,3.72-3.01,5.26-5.83,5.55l-4.47,9.39,18.21,8.68,4.42-9.28c-1.57-2.05-.92-4.5.78-8.09l8.43-17.69-.52,7.22c-.21,2.91-.33,5.34-.38,7.42l-1.17,25.93,17.47,8.33,21.64-45.42c1.76-3.7,3-5.24,5.87-5.62l4.49-9.42-18.79-8.96-4.42,9.27Z"/>
    <path class="cls-1" d="m548.5,715.44c2.51,1.27,2.73,3.97,2.75,7.77l-.33,20.08-14.46-38.32-22.21-.36-.17,10.4c2.42,1.52,2.82,3.41,2.75,7.67l-.52,32.39c-.07,4.12-.55,6.03-3,7.47l-.17,10.4,20.17.33.17-10.28c-2.28-1.21-2.71-3.71-2.65-7.68l.32-19.59,2.53,6.78c1.04,2.79,1.91,4.99,2.74,6.91l9.71,24.07,19.36.31.81-50.3c.07-4.1.55-6.02,3-7.55l.17-10.43-20.81-.34-.17,10.27Z"/>
    <path class="cls-1" d="m649.61,695.81c-2.88-6.39-7.12-12.28-16.15-12.28-4.02,0-8.99,1.17-15.21,3.98-9.11,4.11-14.45,8.77-16.33,14.24-1.43,4.17-.85,8.86,1.82,14.78l12.32,27.29c4.17,9.23,11.15,17.43,31.36,8.3,9.11-4.11,14.45-8.77,16.33-14.24,1.43-4.17.85-8.86-1.82-14.78l-12.32-27.29Zm-7.33,44.91c-.79.36-1.56.53-2.3.53-1.27,0-2.46-.52-3.51-1.55-1.29-1.26-2.24-3.15-3.08-5l-11.36-25.15c-1.22-2.7-3.76-8.33,1.37-10.65,2.13-.96,4.15-.61,5.81,1.02,1.29,1.26,2.24,3.15,3.08,5l11.36,25.15c1.22,2.7,3.76,8.33-1.37,10.65Z"/>
    <path class="cls-1" d="m708.99,626.67l-7.88-6.83-13.63,15.73,7.76,6.72c2.58-1.1,4.79.46,7.72,2.89l15.17,13.15-38.65-13.54-14.55,16.78,7.86,6.81c2.71-.88,4.42.03,7.65,2.82l24.48,21.21c3.11,2.7,4.27,4.3,3.8,7.1l7.86,6.81,13.21-15.25-7.77-6.73c-2.4.97-4.59-.31-7.58-2.91l-14.81-12.84,6.82,2.42c2.76.98,5.06,1.74,7.05,2.34l24.69,8.03,12.68-14.63-38.01-32.95c-3.1-2.68-4.25-4.29-3.86-7.15Z"/>
    <path class="cls-1" d="m774.37,558.82c-11.87-3.4-17.35-1.05-24.46,10.47l-3.48,5.55c-3.4,5.38-5.54,7.42-10,6.15-1.82-.52-3.22-1.44-4.05-2.67-.89-1.3-1.1-2.87-.63-4.53.71-2.47,2.27-3.83,4.63-4.04,1.85-.17,4.13.38,6.53,1.06l4.94-17.25-14.97-4.29c-6.83,6.16-10.86,12.68-13.43,21.67-4.75,16.6-.86,25.38,13.01,29.35,13.19,3.78,17.36-.7,25.1-13.49,4.73-7.83,7.27-10.16,13.01-8.52,4.48,1.28,6.46,4.06,5.44,7.63-.71,2.49-2.34,3.84-4.84,4-2.12.14-4.87-.59-7.74-1.41l-.53-.15-5.17,18.07,17.12,4.9c7.06-6.34,10.61-12.18,13.42-22,4.85-16.94.57-26.35-13.9-30.49Z"/>
    <path class="cls-1" d="m320.51,506.9h-9.14v.37c0,2.18-.7,2.83-3.02,2.88h-1.25v-.32c0-1.72-.05-1.95,4.55-4.31l3.34-1.72c4.41-2.27,6.03-4.41,6.03-9.28,0-6.4-3.67-9.42-11.32-9.42-4.55,0-7.7.88-11.37,3.29v8.4h9.09v-2.27c0-1.86.65-2.74,1.95-2.74,1.16,0,1.95.93,1.95,2.41s-.56,2.23-2.18,3.15c-.56.33-.88.51-3.53,1.76-6.64,3.2-7.89,4.92-7.89,10.62v6.87h22.78v-9.7Z"/>
    <path class="cls-1" d="m324.54,494.98v11.88c0,5.66,1.44,10.35,11.51,10.35s11.55-4.64,11.55-9.88v-11.88c0-5.66-1.44-10.35-11.51-10.35s-11.55,4.64-11.55,9.88Zm13.36.14v12.06c0,1.86-.14,3.39-1.86,3.39s-1.81-1.53-1.81-3.39v-12.06c0-1.86.14-3.39,1.86-3.39s1.81,1.53,1.81,3.39Z"/>
    <path class="cls-1" d="m743.33,494.98v11.88c0,5.66,1.44,10.35,11.51,10.35s11.55-4.64,11.55-9.88v-11.88c0-5.66-1.44-10.35-11.51-10.35s-11.55,4.64-11.55,9.88Zm13.36.14v12.06c0,1.86-.14,3.39-1.86,3.39s-1.81-1.53-1.81-3.39v-12.06c0-1.86.14-3.39,1.86-3.39s1.81,1.53,1.81,3.39Z"/>
    <path class="cls-1" d="m770.1,485.65v5.47c1.02.51,1.21.97,1.21,2.97v14.1c0,1.9-.23,2.41-1.21,2.92v5.47h12.06v-5.47c-1.02-.51-1.25-.97-1.25-2.92v-22.55h-10.81Z"/>
  </g>
</svg>