<?xml version="1.0" encoding="UTF-8"?>
<svg id="Layer_1" xmlns="http://www.w3.org/2000/svg" version="1.1" viewBox="0 0 812.8 371.2">
  <!-- Generator: Adobe Illustrator 30.5.1, SVG Export Plug-In . SVG Version: 2.1.4 Build 3)  -->
  <defs>
    <style>
      .st0 {
        fill: #010101;
      }

      .st1 {
        fill: #fff;
      }

      .st2 {
        fill: #fdce18;
      }
    </style>
  </defs>
  <g id="PRI_x5F_PC_x5F_W">
    <g>
      <path class="st0" d="M141.2,342.1c-6.4-11.5-15.2-21.3-25.5-28.2-12.7-8.7-21.9-21.2-28-38.3l-8.1-22.5c-15.4-10.1-20.1-15-29.5-30.8-9.4-15.9-17.9-40.1-17.9-40.1l12.9,4.1c-8.1-7.4-19-21.5-25.5-34.9-7.6-15.7-10.2-33.8-10.2-33.8l12.3,4.5C11.7,110.3,3.8,92,1.3,76c-4.1-25.8,3-48.8,3-48.8,0,0,4.9,13,18.3,25.2,6.4,5.8,13.6,11,19.4,14.5h0c11.6-22.9,31-42.9,53.7-54.9C109.9,4.4,132.3,0,157.1,0s47.7,4.3,62.2,11.9c14.2,7.3,29.2,19.8,40.8,34.2,10.4,12.8,22.8,33,22.8,56.1-.1,21.6-13.2,39.7-24.7,55.7-2.7,3.8-5.3,7.3-7.5,10.7l-2.5,3.6c-8.8,12.6-17.1,24.5-16.6,32.2v.5s0,46.2,0,46.2c0,7.4-1.2,26.6-12.2,44-4.8,7.8-11.6,14.7-19.4,19.9-11.4,7.6-20.9,17.8-27.5,29.5l-14.9,26.7-16.2-29.1h0Z"/>
      <path class="st1" d="M115.9,109c0-23.2,18.8-42,42-42s42,18.8,42,42-18.8,42-42,42-42-18.8-42-42"/>
      <path class="st2" d="M212.1,25.8h0c-24.9-13-82.2-13.5-107.7,0-18.6,9.9-37.1,27.7-47.6,48.4,5.2,3.2,11.6,6.7,19.6,10.3,2.4-4.9,5.6-9.9,9.7-15,20.7-24.2,36.3-30.9,72.1-31.8,36.8,1,51.1,7,72.2,31.8,9.1,11.2,14,22.3,14,31.4.2,9.7-12.4,25.6-20.1,36.9-7.5,10.8-15.9,22.1-21.9,33-11.6-14.6-26.7-24.9-45.8-33-4.9-2-12.7-4.4-22.5-7.4-32.7-10-93.1-28.5-115.1-57.6,1.1,9.6,9.4,41,35.3,52h0c25.3,12,52.9,20.5,73.3,26.7,8.9,2.7,16.6,5.1,20.5,6.7,20.4,8.5,44.1,25.6,45,46.4v2c-11.1-7.3-25.8-12.4-39-17.9-33.4-12-76.7-21.5-113.1-44,7,20.7,23.3,37.1,43.9,44.5,20.7,7.7,43.6,13.5,60.7,19.8,21.7,8.8,47.2,17.1,47.5,33.4-.1,6.4.5,9.2-1,17-11.2-9.8-25.1-18.3-38.6-23.9-25.7-9.1-57-15.1-87.6-27.6,5.4,11.8,16,28.2,35.2,35.1,13.3,4,34.4,9.1,43.9,12.8,13.2,5.5,26.3,13.9,36.2,23.5-5.2,4.7-12.6,5.1-23,22.1-17.5-28-34.5-28.9-53.6-33.1,4.3,12,10.7,22.5,21.6,30,12.8,8.7,23.2,20.5,30.8,34l1.3,2.4c8-14.3,19.3-26.4,33-35.4,6-3.9,10.9-9,14.4-14.8,8.7-13.7,9.6-29,9.6-34.9v-45.7c-.9-14.5,9.8-28.8,21.9-46.2,11.5-17.5,29.3-36.7,29.4-57.1,0-18.1-10.3-34.6-19-45.3-10.1-12.4-23.3-23.6-35.5-29.8"/>
      <path d="M512.3,100.5l6.7,2.7c4.5,1.8,6.7,7,4.8,11.5l-32.6,78c-2.3,5.5-7.6,9-13.5,9h-7.2l4.7-1.9c6.7-2.8,10.7-9.7,9.7-16.9l-11.3-77.4c-.4-2.9-2.9-5-5.8-5h-53.8l6.7,2.7c4.5,1.8,6.7,7,4.8,11.5l-32.5,78c-2.3,5.5-7.6,9-13.5,9h-7.6l5-2c6.7-2.8,10.7-9.7,9.7-16.9l-11.2-77.3c-.4-2.9-2.9-5-5.8-5h-62.6l15.2,6.2c2.7,1.1,4.7,3.5,5.3,6.4l26.9,137.4c1.1,5.5-1.9,11-7,13.1l-7.9,3.2h56.4c4.7,0,9-2.8,10.8-7.2l36-85.6,11,77.2c.8,5.3-2.2,10.5-7.2,12.5l-7.7,3.2h55.7c4.5,0,8.6-2.6,10.6-6.7l71.7-151.3c1.8-3.9-1-8.4-5.3-8.4h-59.1Z"/>
      <path d="M734.4,223.4l15.3-6.2c2.9-1.2,4.9-3.8,5.4-6.9l14.6-103.1c.5-3.5-2.2-6.7-5.8-6.7h-56.7l10.1,4.1c3.7,1.5,5.9,5.4,5.4,9.3l-18.4,130.8c-1.2,8.7-7,16.1-15.2,19.5l-6.3,2.6h124.8l5.1-36.7c.5-3.5-2.2-6.6-5.8-6.6h-72.6,0Z"/>
      <path d="M659.2,223.4h-45.8l15.3-6.2c2.9-1.2,4.9-3.8,5.4-6.9l14.6-103.1c.5-3.5-2.2-6.7-5.8-6.7h-56.7l10.1,4.1c3.7,1.5,5.9,5.4,5.4,9.3l-19.4,138.2c-.6,4.1-3.3,7.6-7.2,9.2l-13.2,5.4h87.9c14.9,0,37.3-8.8,39.6-21.6l2.5-15.1c.5-3.5-2.2-6.6-5.8-6.6h-26.7Z"/>
    </g>
  </g>
</svg>