<?xml version="1.0" encoding="UTF-8"?>
<svg id="Layer_1" xmlns="http://www.w3.org/2000/svg" version="1.1" viewBox="0 0 1000 1000">
  <!-- Generator: Adobe Illustrator 30.1.0, SVG Export Plug-In . SVG Version: 2.1.1 Build 136)  -->
  <g>
    <path d="M239.1,397.6c0-26.2,21.3-47.5,47.5-47.5s47.5,21.3,47.5,47.5-21.3,47.5-47.5,47.5-47.5-21.3-47.5-47.5"/>
    <path d="M347.7,303.5h0c-28.2-14.7-92.9-15.3-121.8,0-21,11.1-41.9,31.4-53.8,54.7,5.9,3.6,13.2,7.5,22.1,11.7,2.6-5.5,6.3-11.2,11-16.9,23.4-27.3,41-34.9,81.5-35.9,41.6,1.1,57.8,7.9,81.6,35.9,10.2,12.6,15.9,25.3,15.9,35.5.2,11-14,28.9-22.8,41.7-8.5,12.2-18,25-24.8,37.3-13.1-16.6-30.2-28.1-51.8-37.3-5.6-2.3-14.4-5-25.5-8.4-37-11.3-105.3-32.2-130.1-65.1,1.3,10.9,10.6,46.3,40,58.8h0c28.6,13.6,59.8,23.1,82.9,30.2,10.1,3.1,18.7,5.7,23.2,7.6,23.1,9.6,49.9,28.9,50.8,52.4v2.3c-12.6-8.3-29.2-14.1-44.1-20.3-37.7-13.5-86.7-24.3-127.9-49.7,7.9,23.5,26.3,42,49.6,50.4,23.4,8.7,49.2,15.3,68.7,22.4,24.5,10,53.4,19.3,53.7,37.8-.1,7.2.5,10.4-1.1,19.2-12.6-11.1-28.4-20.7-43.7-27-29.1-10.3-64.5-17.1-99.1-31.2,6.1,13.4,18.1,31.9,39.8,39.7,15.1,4.5,38.9,10.3,49.7,14.5,15,6.3,29.7,15.7,40.9,26.6-5.9,5.3-14.3,5.8-26,25-19.8-31.7-39-32.7-60.6-37.4,4.9,13.6,12.1,25.5,24.4,33.9,14.5,9.9,26.2,23.2,34.8,38.5l1.5,2.7c9-16.2,21.8-29.8,37.3-40,6.7-4.5,12.3-10.2,16.3-16.7,9.8-15.5,10.8-32.8,10.8-39.5v-51.7c-1-16.4,11.1-32.6,24.8-52.2,13-19.7,33.1-41.5,33.2-64.5,0-20.5-11.7-39.2-21.5-51.2-11.4-14.1-26.4-26.6-40.1-33.7"/>
  </g>
  <path d="M459.5,377.5h15.3l5.8,37.1,15.9-37.1h12.8l5.8,37.1,15.8-37.1h15.7l-27.1,57h-14.2l-5.4-34.7-14.9,34.7h-14.3l-11.2-57h0Z"/>
  <g>
    <path d="M545.1,403.6c2.2-15.4,15.8-27,31.8-27s31.3,13.8,28.6,32c-2.2,15.4-16,27-32,27s-31-13.8-28.5-32h0ZM591,407.4c1.4-9.9-5-17.2-14.8-17.2s-15.3,6.2-16.5,14.4c-1.3,9.9,5,17.2,14.8,17.2s15.3-6.2,16.5-14.4Z"/>
    <path d="M620.3,377.5h17.3l10.8,28,18.7-28h17.6l-8,57h-14.2l5-35.7-17.8,26.7h-8l-10.3-26.7-5,35.7h-14.2l8-57h0Z"/>
  </g>
  <path d="M698.2,377.5h38.1l-1.9,13.4h-23.9l-1.2,8.2h21.3l-1.9,13.4h-21.3l-1.2,8.6h24.3l-1.8,13.4h-38.5l8-57h0Z"/>
  <path d="M747.6,377.5h14.2l16.8,33.2,4.6-33.2h14.2l-8,57h-14.2l-16.8-33.2-4.6,33.2h-14.2l8-57Z"/>
  <path d="M809,377.5h13.2l-4.2,23.8h-11.5l2.5-23.8h0Z"/>
  <path d="M825.3,417.2h14.5c-.4,3.1,2.8,5.7,7.3,5.7s6.8-1.8,7.1-4.4c1.2-8.3-28.1-4.1-25-25.6,1.5-9.9,10.9-16.3,21.8-16.3s22,7.5,20.3,17.6h-14.5c.4-2.8-2.3-5-6.4-5s-6,1.6-6.4,4c-1.2,8.5,28.2,3,24.9,25.1-1.5,10.5-11.3,17.2-22.6,17.2s-22.8-8-21.1-18.3h0Z"/>
  <path d="M464.2,451h14.2l-6.2,43.6h21.9l-1.8,13.4h-36.1l8-57h0Z"/>
  <path d="M526.9,451h16.8l13,57h-15.1l-1.8-9h-21.9l-4.3,9h-15.6l29-57h0ZM537.1,485.9l-3.8-19.2-9.2,19.2h13Z"/>
  <g>
    <path d="M562.9,477c2.2-15.4,15.8-27,31.8-27s27.9,9.7,28.4,23.1h-15.1c-1.2-5.6-6.7-9.4-14-9.4s-15.3,6.2-16.5,14.4c-1.3,9.9,5,17.2,14.8,17.2s12-3.8,14-9.4h15.1c-3.5,13.5-14.9,23.1-30,23.1s-31-13.8-28.5-32h0Z"/>
    <path d="M636.2,451h24.3c12.7,0,21.1,9.1,19.3,21.2-1.1,7.4-6.3,13.2-13.3,15.8l9.7,20h-16.8l-8.2-18.6h-6.4l-2.6,18.6h-14.2l8-57h0ZM648.5,464.4l-1.8,12.6h11.6c3.5,0,6.5-2.6,7-6.1.5-3.7-1.8-6.5-5.5-6.5h-11.4Z"/>
    <path d="M686.7,477c2.2-15.4,15.8-27,31.8-27s31.3,13.8,28.6,32c-2.2,15.4-16,27-32,27s-31-13.8-28.5-32h0ZM732.5,480.9c1.4-9.9-5-17.2-14.8-17.2s-15.3,6.2-16.5,14.4c-1.3,9.9,5,17.2,14.8,17.2s15.3-6.2,16.5-14.4Z"/>
    <path d="M753.5,490.6h14.5c-.4,3.1,2.8,5.7,7.3,5.7s6.8-1.8,7.1-4.4c1.2-8.3-28.1-4.1-25-25.6,1.5-9.9,10.9-16.3,21.8-16.3s22,7.5,20.3,17.6h-14.5c.4-2.8-2.3-5-6.4-5s-6,1.6-6.4,4c-1.2,8.5,28.2,3,24.9,25.1-1.5,10.5-11.3,17.2-22.6,17.2s-22.8-8-21.1-18.3h0Z"/>
    <path d="M805.1,490.6h14.5c-.4,3.1,2.8,5.7,7.3,5.7s6.8-1.8,7.1-4.4c1.2-8.3-28.1-4.1-25-25.6,1.5-9.9,10.9-16.3,21.8-16.3s22,7.5,20.3,17.6h-14.5c.4-2.8-2.3-5-6.4-5s-6,1.6-6.4,4c-1.2,8.5,28.2,3,24.9,25.1-1.5,10.5-11.3,17.2-22.6,17.2s-22.8-8-21.1-18.3h0Z"/>
  </g>
  <path d="M865.2,451h38.1l-1.9,13.4h-23.9l-1.2,8.2h21.3l-1.9,13.4h-21.3l-1.2,8.6h24.3l-1.8,13.4h-38.5l8-57h0Z"/>
  <path d="M464.2,524.5h14.2l-6.2,43.6h21.9l-1.8,13.4h-36.1l8-57h0Z"/>
  <path d="M510.2,524.5h38.1l-1.9,13.4h-23.9l-1.2,8.2h21.3l-1.9,13.4h-21.3l-1.2,8.6h24.3l-1.8,13.4h-38.5l8-57h0Z"/>
  <path d="M575.5,524.5h16.8l13,57h-15.1l-1.8-9h-21.9l-4.3,9h-15.6l29-57h0ZM585.8,559.4l-3.8-19.2-9.2,19.2h13Z"/>
  <g>
    <path d="M611.5,550.5c2.2-15.3,15.8-27,31.8-27s26.5,8.2,27.9,19.6h-15.8c-2.3-3.6-6.9-5.9-12.8-5.9s-15.3,6.2-16.5,14.4c-1.3,9.8,5,17.2,14.8,17.2s10.7-3,13.5-7.7h-12l1.8-12.9h27.7c-.2,18.5-12.2,34.3-31.8,34.3s-31-13.8-28.5-32h0Z"/>
    <path d="M680,557.6l4.9-33.1h14.1l-4.8,33.6c-.9,6.5,3,10.7,9.2,10.7s9.5-4.1,10.2-8.8l4.9-35.4h14.2l-5,36.4c-1.7,12.3-11.1,21.5-25.3,21.5s-24.3-10-22.3-24.8h0Z"/>
  </g>
  <path d="M745.3,524.5h38.1l-1.9,13.4h-23.9l-1.2,8.2h21.3l-1.9,13.4h-21.3l-1.2,8.6h24.3l-1.8,13.4h-38.5l8-57h0Z"/>
</svg>