<?xml version="1.0" encoding="UTF-8"?>
<svg id="Layer_1" xmlns="http://www.w3.org/2000/svg" version="1.1" viewBox="0 0 1000 1000">
  <!-- Generator: Adobe Illustrator 30.4.0, SVG Export Plug-In . SVG Version: 2.1.4 Build 226)  -->
  <g id="ICON_x5F_3C">
    <g>
      <path d="M452.1,376.1c0-39.8,32.2-72,72-72s72,32.2,72,72-32.2,72-72,72-72-32.2-72-72"/>
      <path d="M616.8,233.5h0c-42.7-22.3-140.9-23.2-184.6,0-31.8,16.9-63.5,47.5-81.5,82.9,8.9,5.5,20,11.4,33.5,17.7,4-8.3,9.6-17,16.6-25.6,35.4-41.4,62.2-52.9,123.5-54.4,63,1.6,87.5,12,123.7,54.4,15.5,19.2,24.1,38.3,24.1,53.8.3,16.6-21.2,43.8-34.5,63.2-12.8,18.5-27.2,37.8-37.5,56.5-19.9-25.1-45.7-42.6-78.4-56.5-8.5-3.5-21.8-7.6-38.6-12.7-56-17.2-159.6-48.9-197.2-98.6,1.9,16.5,16.1,70.2,60.6,89.1h0c43.3,20.6,90.7,35.1,125.6,45.8,15.2,4.7,28.4,8.7,35.2,11.5,34.9,14.5,75.6,43.9,77,79.4v3.5c-19.1-12.6-44.3-21.3-66.9-30.7-57.1-20.5-131.3-36.8-193.7-75.3,12,35.5,39.8,63.6,75.1,76.3,35.5,13.2,74.6,23.2,104.1,34,37.1,15.1,80.9,29.2,81.4,57.2-.2,10.9.8,15.7-1.7,29.1-19.2-16.8-43-31.3-66.2-40.9-44.1-15.6-97.7-25.8-150.1-47.2,9.2,20.3,27.4,48.4,60.3,60.2,22.8,6.9,59,15.7,75.3,22,22.7,9.5,45,23.8,62,40.3-9,8.1-21.7,8.8-39.5,37.9-30-48.1-59-49.5-91.9-56.7,7.4,20.5,18.3,38.6,37,51.3,21.9,15,39.8,35.1,52.7,58.3l2.3,4.1c13.7-24.5,33.1-45.2,56.5-60.7,10.2-6.8,18.6-15.5,24.7-25.3,14.8-23.5,16.4-49.7,16.4-59.8v-78.3c-1.5-24.9,16.8-49.4,37.5-79.1,19.7-29.9,50.1-62.9,50.4-97.8,0-31-17.7-59.3-32.5-77.6-17.2-21.3-40-40.4-60.8-51"/>
    </g>
  </g>
</svg>