<?xml version="1.0" encoding="UTF-8"?>
<svg id="Layer_1" xmlns="http://www.w3.org/2000/svg" version="1.1" viewBox="0 0 1000 1000">
  <!-- Generator: Adobe Illustrator 30.1.0, SVG Export Plug-In . SVG Version: 2.1.1 Build 136)  -->
  <defs>
    <style>
      .st0 {
        fill: #fff;
      }

      .st1 {
        display: none;
      }
    </style>
  </defs>
  <rect class="st1" x="1" y=".85" width="997.67" height="997.89"/>
  <g id="ICON_x5F_3C">
    <g>
      <path class="st0" d="M452.11,376.12c0-39.77,32.24-72.01,72-72.01s72.01,32.24,72.01,72.01-32.24,72.01-72.01,72.01-72-32.24-72-72.01"/>
      <path class="st0" d="M616.76,233.47h0c-42.7-22.28-140.85-23.19-184.58,0-31.78,16.87-63.54,47.51-81.48,82.87,8.93,5.49,19.95,11.41,33.54,17.66,4.02-8.32,9.6-16.98,16.63-25.65,35.42-41.42,62.18-52.88,123.53-54.43,62.98,1.63,87.54,11.99,123.69,54.43,15.52,19.16,24.07,38.27,24.07,53.8.32,16.61-21.19,43.79-34.51,63.17-12.8,18.49-27.25,37.83-37.51,56.45-19.88-25.09-45.73-42.58-78.41-56.47-8.45-3.51-21.75-7.58-38.59-12.74-56.04-17.16-159.56-48.85-197.19-98.64,1.92,16.5,16.1,70.16,60.57,89.11h-.02c43.27,20.56,90.66,35.07,125.56,45.75,15.24,4.66,28.4,8.69,35.17,11.5,34.94,14.49,75.63,43.85,77.01,79.42v3.47c-19.11-12.58-44.26-21.32-66.89-30.71-57.14-20.47-131.34-36.83-193.72-75.3,12.05,35.53,39.84,63.62,75.14,76.33,35.5,13.18,74.62,23.19,104.07,33.96,37.12,15.09,80.87,29.24,81.4,57.25-.2,10.94.79,15.72-1.7,29.12-19.18-16.82-43.02-31.3-66.21-40.93-44.08-15.57-97.69-25.85-150.1-47.23,9.2,20.28,27.38,48.41,60.3,60.21,22.81,6.9,58.96,15.66,75.29,22.01,22.69,9.48,44.99,23.79,62.02,40.27-8.99,8.09-21.66,8.81-39.46,37.88-29.96-48.06-59.04-49.54-91.9-56.67,7.38,20.55,18.3,38.6,37,51.35,21.93,14.95,39.78,35.14,52.71,58.32l2.3,4.13c13.65-24.48,33.09-45.19,56.47-60.65,10.22-6.76,18.62-15.51,24.73-25.33,14.83-23.45,16.43-49.66,16.43-59.84v-78.3c-1.49-24.9,16.84-49.36,37.55-79.15,19.74-29.91,50.14-62.87,50.38-97.78,0-31-17.68-59.33-32.52-77.64-17.25-21.3-39.97-40.38-60.75-51.04"/>
    </g>
  </g>
</svg>