<?xml version="1.0" encoding="UTF-8"?>
<svg id="Layer_1" xmlns="http://www.w3.org/2000/svg" version="1.1" viewBox="0 0 1000 1000">
  <!-- Generator: Adobe Illustrator 30.1.0, SVG Export Plug-In . SVG Version: 2.1.1 Build 136)  -->
  <g id="PRI_x5F_1C_x5F_Y">
    <g>
      <path d="M200.3,382.77c0-22.37,18.14-40.51,40.51-40.51s40.51,18.14,40.51,40.51-18.14,40.51-40.51,40.51-40.51-18.13-40.51-40.51"/>
      <path d="M292.92,302.52h0c-24.02-12.54-79.23-13.05-103.84,0-17.88,9.49-35.75,26.73-45.84,46.62,5.03,3.09,11.22,6.42,18.87,9.93,2.26-4.68,5.4-9.55,9.35-14.43,19.93-23.3,34.98-29.75,69.49-30.62,35.43.92,49.25,6.75,69.58,30.62,8.73,10.78,13.54,21.53,13.54,30.27.18,9.34-11.92,24.63-19.41,35.54-7.2,10.4-15.33,21.28-21.1,31.76-11.19-14.11-25.73-23.95-44.11-31.77-4.75-1.97-12.24-4.26-21.71-7.16-31.53-9.65-89.76-27.48-110.93-55.49,1.08,9.28,9.06,39.47,34.07,50.13h-.01c24.34,11.56,51,19.73,70.63,25.74,8.57,2.62,15.98,4.89,19.78,6.47,19.65,8.15,42.55,24.67,43.32,44.68v1.95c-10.75-7.07-24.9-11.99-37.63-17.27-32.14-11.51-73.89-20.72-108.98-42.36,6.78,19.99,22.42,35.79,42.27,42.94,19.97,7.42,41.98,13.05,58.54,19.1,20.88,8.49,45.49,16.45,45.79,32.21-.11,6.15.44,8.84-.96,16.38-10.79-9.46-24.2-17.61-37.25-23.02-24.8-8.76-54.95-14.54-84.44-26.57,5.18,11.41,15.4,27.23,33.92,33.87,12.83,3.88,33.17,8.81,42.36,12.38,12.77,5.33,25.31,13.38,34.89,22.65-5.06,4.55-12.18,4.95-22.2,21.31-16.86-27.04-33.21-27.87-51.7-31.88,4.15,11.56,10.29,21.71,20.81,28.89,12.34,8.41,22.38,19.77,29.65,32.81l1.3,2.32c7.68-13.77,18.62-25.42,31.77-34.12,5.75-3.8,10.47-8.72,13.91-14.25,8.34-13.19,9.24-27.94,9.24-33.66v-44.05c-.84-14.01,9.48-27.77,21.12-44.53,11.1-16.82,28.2-35.37,28.34-55,0-17.44-9.95-33.38-18.29-43.68-9.71-11.98-22.48-22.72-34.17-28.71"/>
      <path d="M582.33,374.49l6.46,2.65c4.34,1.78,6.41,6.75,4.6,11.08l-31.39,75.15c-2.2,5.26-7.35,8.69-13.05,8.69h-6.94l4.54-1.85c6.48-2.65,10.32-9.37,9.32-16.3l-10.86-74.58c-.4-2.77-2.78-4.82-5.58-4.82h-51.82l6.42,2.63c4.34,1.78,6.41,6.75,4.6,11.08l-31.29,75.15c-2.2,5.27-7.35,8.71-13.06,8.71h-7.31l4.79-1.96c6.48-2.65,10.32-9.37,9.32-16.3l-10.84-74.48c-.4-2.77-2.78-4.82-5.58-4.82h-60.36l14.68,6.01c2.63,1.08,4.55,3.41,5.09,6.2l25.9,132.39c1.03,5.28-1.81,10.56-6.8,12.59l-7.57,3.09h54.32c4.53,0,8.63-2.72,10.39-6.9l34.73-82.54,10.63,74.37c.73,5.12-2.11,10.07-6.89,12.02l-7.42,3.03h53.71c4.35,0,8.32-2.51,10.18-6.44l69.1-145.8c1.77-3.74-.95-8.05-5.09-8.05h-56.9Z"/>
      <path d="M796.35,492.96l14.72-6.02c2.78-1.14,4.75-3.67,5.17-6.64l14.03-99.39c.48-3.39-2.15-6.42-5.58-6.42h-54.65l9.77,4c3.58,1.46,5.71,5.17,5.17,9l-17.72,126.05c-1.18,8.41-6.74,15.56-14.6,18.77l-6.04,2.47h120.33l4.92-35.4c.47-3.39-2.16-6.41-5.58-6.41h-69.95Z"/>
      <path d="M723.93,492.96h-44.2l14.72-6.02c2.78-1.14,4.75-3.67,5.17-6.64l14.03-99.39c.48-3.39-2.15-6.42-5.58-6.42h-54.65l9.77,4c3.58,1.46,5.71,5.17,5.17,9l-18.73,133.22c-.56,3.97-3.18,7.35-6.9,8.86l-12.74,5.21h84.71c14.33,0,35.94-8.48,38.13-20.82l2.42-14.59c.47-3.39-2.16-6.41-5.58-6.41h-25.75Z"/>
    </g>
  </g>
</svg>