<?xml version="1.0" encoding="UTF-8"?>
<svg id="Layer_1" data-name="Layer 1" xmlns="http://www.w3.org/2000/svg" viewBox="0 0 812.79 371.24">
  <defs>
    <style>
      .cls-1 {
        fill: #010101;
      }

      .cls-2 {
        fill: #fff;
      }

      .cls-3 {
        fill: #fdce18;
      }
    </style>
  </defs>
  <g id="PRI_PC_W">
    <g>
      <path class="cls-1" d="M141.2,342.11c-6.41-11.49-15.22-21.26-25.48-28.25-12.73-8.68-21.9-21.21-28.04-38.3l-8.09-22.54c-15.39-10.13-20.13-14.97-29.49-30.83-9.36-15.86-17.9-40.12-17.9-40.12l12.86,4.13c-8.14-7.39-19.04-21.46-25.54-34.9-7.59-15.7-10.21-33.76-10.21-33.76l12.3,4.45C11.68,110.25,3.83,92.04,1.27,75.96c-4.1-25.75,3.01-48.83,3.01-48.83,0,0,4.86,13,18.3,25.17,6.43,5.83,13.6,10.95,19.39,14.54l-.07-.12c11.59-22.83,30.97-42.73,53.68-54.78C109.9,4.35,132.31,0,157.06,0s47.67,4.33,62.16,11.89c14.24,7.3,29.16,19.78,40.82,34.18,10.39,12.83,22.79,32.97,22.79,56.06-.15,21.62-13.2,39.74-24.7,55.73-2.72,3.77-5.28,7.34-7.53,10.74l-2.51,3.61c-8.78,12.58-17.08,24.47-16.62,32.17l.03.51v46.21c0,7.43-1.19,26.59-12.24,44.05-4.84,7.78-11.59,14.7-19.44,19.89-11.43,7.56-20.93,17.76-27.47,29.48l-14.91,26.72-16.25-29.13Z"/>
      <path class="cls-2" d="M115.94,109.04c0-23.21,18.82-42.03,42.03-42.03s42.03,18.82,42.03,42.03-18.82,42.03-42.03,42.03-42.03-18.82-42.03-42.03"/>
      <path class="cls-3" d="M212.04,25.78h0c-24.92-13.01-82.21-13.54-107.73,0-18.55,9.85-37.09,27.73-47.56,48.37,5.21,3.2,11.65,6.66,19.58,10.31,2.35-4.86,5.6-9.91,9.7-14.97,20.67-24.18,36.29-30.86,72.1-31.77,36.76.95,51.1,7,72.19,31.77,9.06,11.19,14.05,22.34,14.05,31.4.19,9.69-12.37,25.56-20.14,36.87-7.47,10.79-15.91,22.08-21.89,32.95-11.61-14.64-26.69-24.85-45.77-32.96-4.93-2.05-12.7-4.42-22.53-7.43-32.71-10.01-93.13-28.51-115.1-57.57,1.12,9.63,9.4,40.95,35.35,52.01h-.01c25.26,12,52.92,20.47,73.28,26.7,8.89,2.72,16.58,5.07,20.53,6.71,20.39,8.46,44.14,25.6,44.95,46.36v2.03c-11.15-7.34-25.83-12.44-39.04-17.92-33.35-11.95-76.66-21.5-113.07-43.95,7.03,20.74,23.26,37.13,43.86,44.55,20.72,7.69,43.55,13.54,60.74,19.82,21.66,8.81,47.2,17.07,47.51,33.42-.11,6.39.46,9.17-.99,17-11.19-9.82-25.11-18.27-38.65-23.89-25.73-9.09-57.02-15.09-87.61-27.57,5.37,11.84,15.98,28.25,35.2,35.14,13.31,4.03,34.41,9.14,43.95,12.85,13.24,5.53,26.26,13.88,36.2,23.5-5.25,4.72-12.64,5.14-23.03,22.11-17.49-28.05-34.46-28.92-53.64-33.07,4.31,12,10.68,22.53,21.59,29.97,12.8,8.73,23.22,20.51,30.77,34.04l1.34,2.41c7.97-14.29,19.32-26.37,32.96-35.4,5.96-3.94,10.87-9.05,14.43-14.78,8.66-13.69,9.59-28.98,9.59-34.93v-45.7c-.87-14.53,9.83-28.81,21.92-46.2,11.52-17.46,29.26-36.7,29.41-57.07,0-18.09-10.32-34.63-18.98-45.32-10.07-12.43-23.33-23.57-35.46-29.79"/>
      <path class="cls-2" d="M512.32,100.44l6.71,2.74c4.5,1.84,6.65,7,4.77,11.5l-32.57,77.97c-2.28,5.46-7.62,9.02-13.54,9.02h-7.2l4.71-1.92c6.72-2.75,10.71-9.73,9.67-16.92l-11.27-77.38c-.42-2.87-2.88-5-5.79-5h-53.76l6.66,2.72c4.5,1.84,6.65,7,4.77,11.49l-32.46,77.97c-2.28,5.47-7.62,9.03-13.55,9.03h-7.58l4.97-2.03c6.72-2.75,10.71-9.73,9.67-16.91l-11.25-77.28c-.42-2.87-2.88-5-5.79-5h-62.63l15.23,6.23c2.73,1.12,4.72,3.53,5.28,6.43l26.88,137.36c1.07,5.48-1.88,10.95-7.05,13.07l-7.85,3.21h56.36c4.7,0,8.95-2.82,10.78-7.16l36.03-85.63,11.03,77.17c.76,5.31-2.19,10.45-7.15,12.48l-7.7,3.15h55.72c4.52,0,8.63-2.6,10.57-6.68l71.69-151.27c1.84-3.88-.99-8.35-5.28-8.35h-59.04Z"/>
      <path class="cls-2" d="M734.37,223.36l15.28-6.24c2.89-1.18,4.93-3.8,5.37-6.89l14.56-103.12c.5-3.52-2.24-6.66-5.79-6.66h-56.7l10.13,4.15c3.71,1.52,5.92,5.36,5.36,9.34l-18.39,130.78c-1.22,8.72-6.99,16.14-15.15,19.47l-6.27,2.56h124.85l5.1-36.73c.49-3.51-2.24-6.65-5.79-6.65h-72.57Z"/>
      <path class="cls-2" d="M659.23,223.36h-45.85l15.28-6.24c2.89-1.18,4.93-3.8,5.37-6.89l14.56-103.12c.5-3.52-2.23-6.66-5.79-6.66h-56.7l10.14,4.15c3.71,1.52,5.92,5.36,5.36,9.34l-19.43,138.22c-.58,4.12-3.3,7.62-7.15,9.19l-13.22,5.4h87.89c14.87,0,37.29-8.8,39.56-21.6l2.51-15.13c.49-3.51-2.24-6.65-5.79-6.65h-26.72Z"/>
    </g>
  </g>
</svg>