<?xml version="1.0" encoding="UTF-8"?>
<svg id="Layer_1" data-name="Layer 1" xmlns="http://www.w3.org/2000/svg" viewBox="0 0 796.52 360.86">
  <defs>
    <style>
      .cls-1 {
        fill: #fff;
      }
    </style>
  </defs>
  <g>
    <path class="cls-1" d="M132.26,105.4c0-26.25,21.28-47.52,47.52-47.52s47.52,21.28,47.52,47.52-21.28,47.52-47.52,47.52-47.52-21.28-47.52-47.52"/>
    <path class="cls-1" d="M240.92,11.26h0c-28.18-14.71-92.95-15.31-121.82,0-20.97,11.14-41.93,31.35-53.78,54.69,5.9,3.62,13.17,7.53,22.14,11.66,2.65-5.49,6.34-11.2,10.97-16.93,23.38-27.34,41.03-34.9,81.52-35.92,41.56,1.08,57.78,7.92,81.63,35.92,10.25,12.65,15.89,25.26,15.89,35.51.21,10.96-13.98,28.9-22.78,41.69-8.45,12.21-17.98,24.96-24.75,37.26-13.12-16.56-30.18-28.1-51.75-37.27-5.58-2.31-14.36-5-25.47-8.4-36.98-11.32-105.31-32.24-130.14-65.1,1.27,10.89,10.63,46.3,39.97,58.81h0c28.55,13.56,59.83,23.14,82.86,30.19,10.06,3.08,18.74,5.74,23.21,7.59,23.06,9.56,49.91,28.94,50.82,52.42v2.29c-12.61-8.3-29.21-14.07-44.15-20.26-37.71-13.51-86.68-24.31-127.85-49.7,7.95,23.45,26.3,41.99,49.59,50.38,23.43,8.7,49.25,15.31,68.68,22.41,24.49,9.96,53.37,19.3,53.72,37.78-.13,7.22.52,10.37-1.13,19.22-12.65-11.1-28.39-20.66-43.7-27.01-29.1-10.28-64.47-17.06-99.07-31.17,6.08,13.39,18.07,31.95,39.8,39.73,15.05,4.55,38.91,10.33,49.69,14.53,14.98,6.26,29.7,15.7,40.93,26.58-5.93,5.34-14.29,5.81-26.04,25-19.77-31.72-38.96-32.7-60.65-37.4,4.87,13.56,12.08,25.47,24.42,33.89,14.47,9.87,26.25,23.19,34.79,38.49l1.52,2.73c9.01-16.15,21.84-29.82,37.27-40.03,6.74-4.46,12.29-10.24,16.32-16.71,9.79-15.48,10.84-32.77,10.84-39.49v-51.67c-.98-16.43,11.12-32.57,24.78-52.24,13.03-19.74,33.09-41.5,33.25-64.53,0-20.46-11.67-39.16-21.46-51.24-11.39-14.06-26.38-26.65-40.09-33.68"/>
  </g>
  <path class="cls-1" d="M352.64,85.34h15.27l5.78,37.06,15.93-37.06h12.79l5.78,37.06,15.85-37.06h15.68l-27.08,56.96h-14.2l-5.37-34.67-14.94,34.67h-14.28l-11.23-56.96Z"/>
  <g>
    <path class="cls-1" d="M438.33,111.34c2.15-15.44,15.85-26.99,31.78-26.99,18.9,0,31.29,13.79,28.64,31.95-2.23,15.44-16.01,26.99-31.95,26.99-18.9,0-31.04-13.79-28.48-31.95ZM484.15,115.22c1.4-9.91-5.04-17.17-14.78-17.17-8.25,0-15.27,6.19-16.51,14.36-1.32,9.91,4.95,17.17,14.78,17.17,8.17,0,15.35-6.19,16.51-14.36Z"/>
    <path class="cls-1" d="M513.45,85.34h17.34l10.81,27.98,18.66-27.98h17.58l-8.01,56.96h-14.2l5.04-35.66-17.75,26.66h-8.01l-10.32-26.66-4.95,35.66h-14.2l8.01-56.96Z"/>
  </g>
  <path class="cls-1" d="M591.38,85.34h38.14l-1.9,13.37h-23.94l-1.16,8.25h21.3l-1.9,13.37h-21.3l-1.24,8.59h24.35l-1.82,13.37h-38.55l8.01-56.96Z"/>
  <path class="cls-1" d="M640.83,85.34h14.2l16.76,33.19,4.62-33.19h14.2l-8.01,56.96h-14.2l-16.76-33.19-4.62,33.19h-14.2l8.01-56.96Z"/>
  <path class="cls-1" d="M702.16,85.34h13.21l-4.21,23.77h-11.47l2.48-23.77Z"/>
  <path class="cls-1" d="M718.51,124.96h14.53c-.41,3.14,2.81,5.7,7.35,5.7,3.47,0,6.77-1.82,7.1-4.38,1.16-8.34-28.07-4.13-25.01-25.59,1.49-9.91,10.9-16.34,21.79-16.34,13.13,0,21.96,7.51,20.31,17.58h-14.53c.41-2.81-2.31-4.95-6.36-4.95-3.14,0-6.03,1.57-6.36,4.04-1.24,8.5,28.15,3.05,24.93,25.1-1.49,10.48-11.31,17.17-22.62,17.17-13.79,0-22.78-8.01-21.13-18.33Z"/>
  <path class="cls-1" d="M357.35,158.81h14.2l-6.19,43.59h21.88l-1.82,13.37h-36.07l8.01-56.96Z"/>
  <path class="cls-1" d="M420.09,158.81h16.76l12.96,56.96h-15.11l-1.82-9h-21.88l-4.29,9h-15.6l28.97-56.96ZM430.32,193.73l-3.8-19.23-9.25,19.23h13.04Z"/>
  <g>
    <path class="cls-1" d="M456.08,184.81c2.15-15.44,15.85-26.99,31.78-26.99s27.9,9.66,28.4,23.11h-15.11c-1.24-5.61-6.69-9.41-14.03-9.41-8.25,0-15.27,6.19-16.51,14.36-1.32,9.91,4.95,17.17,14.78,17.17,6.52,0,11.97-3.8,14.03-9.41h15.11c-3.55,13.46-14.94,23.11-29.96,23.11-18.9,0-31.04-13.79-28.48-31.95Z"/>
    <path class="cls-1" d="M529.38,158.81h24.35c12.71,0,21.13,9.08,19.32,21.22-1.07,7.35-6.27,13.21-13.29,15.77l9.74,19.98h-16.84l-8.17-18.57h-6.36l-2.56,18.57h-14.2l8.01-56.96ZM541.68,172.18l-1.82,12.63h11.64c3.55,0,6.52-2.64,7.02-6.11.5-3.71-1.82-6.52-5.45-6.52h-11.39Z"/>
    <path class="cls-1" d="M579.9,184.81c2.15-15.44,15.85-26.99,31.78-26.99,18.9,0,31.29,13.79,28.64,31.95-2.23,15.44-16.01,26.99-31.95,26.99-18.9,0-31.04-13.79-28.48-31.95ZM625.72,188.69c1.4-9.91-5.04-17.17-14.78-17.17-8.25,0-15.27,6.19-16.51,14.36-1.32,9.91,4.95,17.17,14.78,17.17,8.17,0,15.35-6.19,16.51-14.36Z"/>
    <path class="cls-1" d="M646.69,198.43h14.53c-.41,3.14,2.81,5.7,7.35,5.7,3.47,0,6.77-1.82,7.1-4.38,1.16-8.34-28.07-4.13-25.01-25.59,1.49-9.91,10.9-16.34,21.79-16.34,13.13,0,21.96,7.51,20.31,17.58h-14.53c.41-2.81-2.31-4.95-6.36-4.95-3.14,0-6.03,1.57-6.36,4.04-1.24,8.5,28.15,3.05,24.93,25.1-1.49,10.48-11.31,17.17-22.62,17.17-13.79,0-22.78-8.01-21.13-18.33Z"/>
    <path class="cls-1" d="M698.28,198.43h14.53c-.41,3.14,2.81,5.7,7.35,5.7,3.47,0,6.77-1.82,7.1-4.38,1.16-8.34-28.07-4.13-25.01-25.59,1.49-9.91,10.9-16.34,21.79-16.34,13.13,0,21.96,7.51,20.31,17.58h-14.53c.41-2.81-2.31-4.95-6.36-4.95-3.14,0-6.03,1.57-6.36,4.04-1.24,8.5,28.15,3.05,24.93,25.1-1.49,10.48-11.31,17.17-22.62,17.17-13.79,0-22.78-8.01-21.13-18.33Z"/>
  </g>
  <path class="cls-1" d="M758.38,158.81h38.14l-1.9,13.37h-23.94l-1.16,8.25h21.3l-1.9,13.37h-21.3l-1.24,8.59h24.35l-1.82,13.37h-38.55l8.01-56.96Z"/>
  <path class="cls-1" d="M357.35,232.28h14.2l-6.19,43.59h21.88l-1.82,13.37h-36.07l8.01-56.96Z"/>
  <path class="cls-1" d="M403.41,232.28h38.14l-1.9,13.37h-23.94l-1.16,8.25h21.3l-1.9,13.37h-21.3l-1.24,8.58h24.35l-1.82,13.37h-38.55l8.01-56.96Z"/>
  <path class="cls-1" d="M468.71,232.28h16.76l12.96,56.96h-15.11l-1.82-9h-21.88l-4.29,9h-15.6l28.97-56.96ZM478.95,267.2l-3.8-19.23-9.25,19.23h13.04Z"/>
  <g>
    <path class="cls-1" d="M504.7,258.28c2.15-15.35,15.85-26.99,31.78-26.99s26.5,8.25,27.9,19.56h-15.85c-2.31-3.63-6.93-5.86-12.79-5.86-8.25,0-15.27,6.19-16.51,14.36-1.32,9.82,5.04,17.17,14.78,17.17,5.7,0,10.73-3.05,13.46-7.68h-12.05l1.82-12.88h27.74c-.25,18.49-12.22,34.26-31.78,34.26s-31.04-13.79-28.48-31.95Z"/>
    <path class="cls-1" d="M573.22,265.38l4.87-33.1h14.12l-4.79,33.6c-.91,6.52,3.05,10.65,9.25,10.65,5.12,0,9.49-4.13,10.15-8.83l4.87-35.41h14.2l-5.04,36.4c-1.73,12.3-11.06,21.54-25.34,21.54s-24.35-9.99-22.29-24.85Z"/>
  </g>
  <path class="cls-1" d="M638.52,232.28h38.14l-1.9,13.37h-23.94l-1.16,8.25h21.3l-1.9,13.37h-21.3l-1.24,8.58h24.35l-1.82,13.37h-38.55l8.01-56.96Z"/>
</svg>