<?xml version="1.0" encoding="UTF-8"?>
<svg id="Layer_2" xmlns="http://www.w3.org/2000/svg" viewBox="0 0 905.72 478.01">
  <defs>
    <style>
      .cls-1 {
        fill: #010101;
      }

      .cls-2 {
        fill: #fff;
      }

      .cls-3 {
        fill: #fdce18;
      }
    </style>
  </defs>
  <g id="Layer_1-2" data-name="Layer_1">
    <g>
      <g>
        <path class="cls-1" d="M181.81,440.5c-8.25-14.79-19.59-27.37-32.8-36.37-16.39-11.18-28.2-27.31-36.11-49.32l-10.42-29.02c-19.82-13.04-25.91-19.27-37.97-39.7-12.06-20.42-23.05-51.66-23.05-51.66l16.56,5.33c-10.47-9.51-24.52-27.63-32.88-44.94-9.77-20.22-13.14-43.48-13.14-43.48l15.84,5.73c-12.79-15.12-22.89-38.56-26.19-59.27-5.28-33.15,3.88-62.87,3.88-62.87,0,0,6.25,16.74,23.56,32.42,8.28,7.5,17.52,14.09,24.96,18.72l-.09-.15c14.92-29.4,39.87-55.01,69.12-70.54C141.51,5.6,170.36,0,202.23,0s61.39,5.58,80.03,15.31c18.34,9.4,37.55,25.47,52.56,44.01,13.39,16.52,29.34,42.46,29.34,72.18-.2,27.84-16.99,51.17-31.81,71.76-3.5,4.85-6.8,9.45-9.69,13.83l-3.23,4.65c-11.31,16.21-21.99,31.51-21.39,41.42l.04.66v59.5c0,9.56-1.54,34.24-15.75,56.72-6.24,10.02-14.92,18.93-25.03,25.61-14.72,9.74-26.95,22.86-35.37,37.96l-19.19,34.41-20.92-37.51Z"/>
        <path class="cls-2" d="M149.29,140.4c0-29.89,24.23-54.12,54.12-54.12s54.12,24.23,54.12,54.12-24.23,54.12-54.12,54.12-54.12-24.23-54.12-54.12"/>
        <path class="cls-3" d="M273.03,33.19h0c-32.09-16.75-105.85-17.43-138.72,0-23.89,12.68-47.75,35.7-61.24,62.28,6.72,4.13,15,8.57,25.21,13.27,3.02-6.25,7.21-12.76,12.49-19.28,26.62-31.13,46.73-39.74,92.83-40.9,47.33,1.22,65.79,9.01,92.96,40.9,11.67,14.4,18.09,28.76,18.09,40.44.24,12.48-15.92,32.9-25.94,47.48-9.62,13.9-20.48,28.43-28.19,42.43-14.94-18.85-34.37-32-58.93-42.44-6.35-2.63-16.35-5.69-29.01-9.57-42.12-12.89-119.92-36.71-148.2-74.13,1.44,12.4,12.1,52.73,45.52,66.97h-.01c32.52,15.45,68.13,26.35,94.36,34.38,11.45,3.51,21.35,6.54,26.43,8.65,26.25,10.89,56.84,32.96,57.88,59.69v2.61c-14.36-9.45-33.27-16.02-50.27-23.07-42.94-15.38-98.71-27.68-145.59-56.59,9.05,26.71,29.94,47.81,56.47,57.37,26.68,9.91,56.08,17.43,78.21,25.52,27.89,11.34,60.77,21.98,61.18,43.03-.15,8.22.59,11.81-1.28,21.88-14.41-12.64-32.33-23.53-49.76-30.76-33.13-11.7-73.42-19.43-112.81-35.5,6.92,15.24,20.58,36.38,45.32,45.25,17.14,5.19,44.31,11.77,56.58,16.54,17.06,7.13,33.82,17.88,46.62,30.27-6.76,6.08-16.28,6.62-29.65,28.47-22.52-36.12-44.37-37.23-69.07-42.59,5.55,15.45,13.75,29.01,27.81,38.59,16.48,11.24,29.9,26.41,39.61,43.83l1.73,3.11c10.26-18.39,24.87-33.96,42.44-45.58,7.68-5.08,13.99-11.66,18.58-19.03,11.15-17.62,12.35-37.32,12.35-44.97v-58.84c-1.12-18.71,12.66-37.09,28.22-59.49,14.83-22.48,37.68-47.25,37.86-73.48,0-23.29-13.29-44.59-24.44-58.35-12.97-16.01-30.04-30.35-45.66-38.36"/>
      </g>
      <g>
        <path class="cls-1" d="M400.25,117.55h17.39l6.58,42.21,18.14-42.21h14.57l6.58,42.21,18.05-42.21h17.86l-30.84,64.87h-16.17l-6.11-39.48-17.02,39.48h-16.26l-12.79-64.87Z"/>
        <g>
          <path class="cls-1" d="M497.83,147.16c2.44-17.58,18.05-30.74,36.19-30.74,21.53,0,35.63,15.7,32.62,36.38-2.54,17.58-18.24,30.74-36.38,30.74-21.53,0-35.35-15.7-32.43-36.38ZM550.01,151.58c1.6-11.28-5.73-19.55-16.83-19.55-9.4,0-17.39,7.05-18.8,16.36-1.5,11.28,5.64,19.55,16.83,19.55,9.31,0,17.49-7.05,18.8-16.36Z"/>
          <path class="cls-1" d="M583.37,117.55h19.74l12.31,31.87,21.25-31.87h20.02l-9.12,64.87h-16.17l5.73-40.61-20.21,30.36h-9.12l-11.75-30.36-5.64,40.61h-16.17l9.12-64.87Z"/>
        </g>
        <path class="cls-1" d="M672.12,117.55h43.43l-2.16,15.23h-27.26l-1.32,9.4h24.25l-2.16,15.23h-24.25l-1.41,9.78h27.73l-2.07,15.23h-43.9l9.12-64.87Z"/>
        <path class="cls-1" d="M728.43,117.55h16.17l19.08,37.79,5.26-37.79h16.17l-9.12,64.87h-16.17l-19.08-37.79-5.26,37.79h-16.17l9.12-64.87Z"/>
        <path class="cls-1" d="M798.27,117.55h15.04l-4.79,27.07h-13.07l2.82-27.07Z"/>
        <path class="cls-1" d="M816.88,162.67h16.55c-.47,3.57,3.2,6.49,8.37,6.49,3.95,0,7.71-2.07,8.08-4.98,1.32-9.5-31.96-4.7-28.48-29.14,1.69-11.28,12.41-18.61,24.82-18.61,14.95,0,25.01,8.56,23.13,20.02h-16.55c.47-3.2-2.63-5.64-7.24-5.64-3.57,0-6.86,1.79-7.24,4.61-1.41,9.68,32.06,3.48,28.39,28.58-1.69,11.94-12.88,19.55-25.76,19.55-15.7,0-25.95-9.12-24.07-20.87Z"/>
        <path class="cls-1" d="M405.61,201.21h16.17l-7.05,49.64h24.91l-2.07,15.23h-41.08l9.12-64.87Z"/>
        <path class="cls-1" d="M477.06,201.21h19.08l14.76,64.87h-17.2l-2.07-10.25h-24.91l-4.89,10.25h-17.77l33-64.87ZM488.71,240.98l-4.33-21.9-10.53,21.9h14.85Z"/>
        <g>
          <path class="cls-1" d="M518.04,230.83c2.44-17.58,18.05-30.74,36.19-30.74s31.78,11,32.34,26.32h-17.2c-1.41-6.39-7.61-10.72-15.98-10.72-9.4,0-17.39,7.05-18.8,16.36-1.5,11.28,5.64,19.55,16.83,19.55,7.43,0,13.63-4.33,15.98-10.72h17.2c-4.04,15.32-17.02,26.32-34.13,26.32-21.53,0-35.35-15.7-32.43-36.38Z"/>
          <path class="cls-1" d="M601.52,201.21h27.73c14.48,0,24.07,10.34,22,24.16-1.22,8.37-7.14,15.04-15.14,17.96l11.09,22.75h-19.18l-9.31-21.15h-7.24l-2.91,21.15h-16.17l9.12-64.87ZM615.53,216.44l-2.07,14.38h13.26c4.04,0,7.43-3.01,7.99-6.96.56-4.23-2.07-7.43-6.21-7.43h-12.97Z"/>
          <path class="cls-1" d="M659.05,230.83c2.44-17.58,18.05-30.74,36.19-30.74,21.53,0,35.63,15.7,32.62,36.38-2.54,17.58-18.24,30.74-36.38,30.74-21.53,0-35.35-15.7-32.43-36.38ZM711.22,235.25c1.6-11.28-5.73-19.55-16.83-19.55-9.4,0-17.39,7.05-18.8,16.36-1.5,11.28,5.64,19.55,16.83,19.55,9.31,0,17.49-7.05,18.8-16.36Z"/>
          <path class="cls-1" d="M735.1,246.34h16.55c-.47,3.57,3.2,6.49,8.37,6.49,3.95,0,7.71-2.07,8.08-4.98,1.32-9.5-31.96-4.7-28.48-29.14,1.69-11.28,12.41-18.61,24.82-18.61,14.95,0,25.01,8.56,23.13,20.02h-16.55c.47-3.2-2.63-5.64-7.24-5.64-3.57,0-6.86,1.79-7.24,4.61-1.41,9.68,32.06,3.48,28.39,28.58-1.69,11.94-12.88,19.55-25.76,19.55-15.7,0-25.95-9.12-24.07-20.87Z"/>
          <path class="cls-1" d="M793.85,246.34h16.55c-.47,3.57,3.2,6.49,8.37,6.49,3.95,0,7.71-2.07,8.08-4.98,1.32-9.5-31.96-4.7-28.48-29.14,1.69-11.28,12.41-18.61,24.82-18.61,14.95,0,25.01,8.56,23.13,20.02h-16.55c.47-3.2-2.63-5.64-7.24-5.64-3.57,0-6.86,1.79-7.24,4.61-1.41,9.68,32.06,3.48,28.39,28.58-1.69,11.94-12.88,19.55-25.76,19.55-15.7,0-25.95-9.12-24.07-20.87Z"/>
        </g>
        <path class="cls-1" d="M862.29,201.21h43.43l-2.16,15.23h-27.26l-1.32,9.4h24.25l-2.16,15.23h-24.25l-1.41,9.78h27.73l-2.07,15.23h-43.9l9.12-64.87Z"/>
        <path class="cls-1" d="M405.61,284.88h16.17l-7.05,49.64h24.91l-2.07,15.23h-41.08l9.12-64.87Z"/>
        <path class="cls-1" d="M458.07,284.88h43.43l-2.16,15.23h-27.26l-1.32,9.4h24.25l-2.16,15.23h-24.25l-1.41,9.78h27.73l-2.07,15.23h-43.9l9.12-64.87Z"/>
        <path class="cls-1" d="M532.43,284.88h19.08l14.76,64.87h-17.2l-2.07-10.25h-24.91l-4.89,10.25h-17.77l33-64.87ZM544.08,324.65l-4.33-21.9-10.53,21.9h14.85Z"/>
        <g>
          <path class="cls-1" d="M573.41,314.49c2.44-17.49,18.05-30.74,36.19-30.74s30.18,9.4,31.78,22.28h-18.05c-2.63-4.14-7.9-6.67-14.57-6.67-9.4,0-17.39,7.05-18.8,16.36-1.5,11.19,5.73,19.55,16.83,19.55,6.49,0,12.22-3.48,15.32-8.74h-13.73l2.07-14.67h31.59c-.28,21.06-13.91,39.01-36.19,39.01s-35.35-15.7-32.43-36.38Z"/>
          <path class="cls-1" d="M651.43,322.58l5.55-37.7h16.08l-5.45,38.26c-1.03,7.43,3.48,12.13,10.53,12.13,5.83,0,10.81-4.7,11.56-10.06l5.55-40.33h16.17l-5.73,41.46c-1.97,14.01-12.6,24.54-28.86,24.54s-27.73-11.37-25.38-28.3Z"/>
        </g>
        <path class="cls-1" d="M725.79,284.88h43.43l-2.16,15.23h-27.26l-1.32,9.4h24.25l-2.16,15.23h-24.25l-1.41,9.78h27.73l-2.07,15.23h-43.9l9.12-64.87Z"/>
      </g>
    </g>
  </g>
</svg>