<?xml version="1.0" encoding="UTF-8"?>
<svg id="PARTIAL" xmlns="http://www.w3.org/2000/svg" viewBox="0 0 1080 1080">
  <defs>
    <style>
      .cls-1 {
        fill: #fff;
      }

      .cls-2 {
        fill: #6c20c4;
      }

      .cls-3 {
        fill: #99a4ad;
      }
    </style>
  </defs>
  <g id="FULL_COLOR" data-name="FULL COLOR">
    <g>
      <path class="cls-1" d="m522.17,849.15c-7.28,0-13.74-4.59-16.08-11.42l-13.06-38.11c-1.1-3.21-1.18-6.63-.31-9.82-2.94-1.58-5.82-3.22-8.64-4.91-5.98,2.27-12.23,3.41-18.64,3.41-3.58,0-7.26-.36-10.92-1.08-10.6-2.07-19.31-7.97-25.19-17.05-11.86-18.34-9.37-44.08-7.42-52.45.68-2.9,1.46-5.73,2.21-8.46,2.65-9.66,5.16-18.78,3.32-30.88-.55-3.6-.36-8.51-.13-14.72.67-18.01,1.68-45.24-13.45-61.56-2.48-2.67-4.64-5.77-6.48-9.27-.03.06-.06.13-.1.19-6.32,12.48-19.06,21.91-37.85,28.01-13.3,4.32-24.86,5.33-25.34,5.37l-14.53,1.22,6.56-12.77c.29-.66,3.87-9.21,5.35-28.47.94-12.12-6.74-23.03-14.16-33.58-4.04-5.75-7.86-11.18-10.27-16.8l-.15-.34c-5.52-12.86-17.01-39.61-1.28-58.24,8.05-9.54,28.3-18.69,49.74-28.39,15.59-7.05,31.71-14.34,38.53-20.05,9.95-8.32,19.9-12.37,30.42-12.37,8.38,0,17.05,2.42,28.1,7.84,13.02,6.39,19.34,7.56,27.07,7.56,3.43,0,7.16-.25,12.46-.69,4.05-.33,8.55-.5,13.38-.5,12.08,0,22.8,1.04,25.38,1.31,3.5-.35,13.55-1.23,24.6-1.23,4.83,0,9.34.17,13.38.5,5.3.44,9.03.69,12.46.69,7.74,0,14.05-1.17,27.07-7.56,11.05-5.42,19.72-7.84,28.1-7.84,10.53,0,20.48,4.05,30.42,12.37,6.82,5.71,22.94,13,38.53,20.05,21.44,9.69,41.69,18.85,49.74,28.39,15.73,18.62,4.24,45.38-1.28,58.24l-.15.34c-2.41,5.62-6.23,11.05-10.27,16.8-7.42,10.55-15.09,21.47-14.16,33.58,1.49,19.26,5.06,27.8,5.35,28.47l6.64,12.93-14.61-1.38c-.49-.04-12.04-1.05-25.34-5.37-18.79-6.1-31.52-15.53-37.85-28.01-.03-.06-.06-.13-.1-.19-1.84,3.5-4,6.6-6.48,9.27-15.13,16.32-14.12,43.54-13.45,61.56.23,6.21.41,11.12-.13,14.72-1.84,12.11.67,21.23,3.32,30.88.75,2.73,1.53,5.56,2.21,8.46,1.96,8.37,4.44,34.11-7.42,52.45-5.87,9.08-14.58,14.98-25.19,17.05-3.66.72-7.34,1.08-10.92,1.08-7.68,0-15.09-1.63-22.1-4.86-4.11,2.59-8.36,5.07-12.7,7.42.57,2.85.39,5.85-.58,8.68l-13.07,38.12c-2.34,6.83-8.8,11.42-16.08,11.42h-28.5Z"/>
      <path d="m758.84,482.71c-12.63-14.95-70.45-33.36-87.28-47.45-16.84-14.09-31.02-12.67-49.77-3.47-18.75,9.2-26.35,9.11-43.76,7.67-16.68-1.38-36.06.66-37.65.83v-.06s-20.35-2.28-37.77-.84c-17.41,1.44-25.01,1.53-43.76-7.67-18.75-9.2-32.94-10.62-49.77,3.47-16.84,14.09-74.66,32.5-87.28,47.45-12.63,14.95-2.33,38.5,2.68,50.17,6.37,14.85,26.78,31.91,25.06,54.2-1.72,22.28-6.12,31.34-6.12,31.34,0,0,43.83-3.67,56.65-28.97,4.74-9.36,7.07-17.59,8.12-24.27.98,10.48,3.88,23.17,11.6,31.51,22.8,24.59,13.83,68.53,15.65,80.56,2.66,17.49-2.58,29.32-5.64,42.4-3.06,13.08-4.08,53.79,26.28,59.72,11.37,2.22,20.95.22,28.68-3.47,6.82,4.28,13.51,7.9,19.72,10.93-.99.59-1.87,1.38-2.56,2.32-1.69,2.29-2.15,5.25-1.23,7.93l13.06,38.11c1.22,3.56,4.61,5.95,8.43,5.95h28.5c3.82,0,7.21-2.39,8.43-5.95l13.07-38.12c.92-2.68.46-5.64-1.23-7.93-.43-.59-.95-1.11-1.5-1.57,7.15-3.53,15.09-7.94,23.21-13.31,8.24,4.72,18.91,7.72,31.93,5.18,30.36-5.93,29.34-46.64,26.28-59.72s-8.3-24.91-5.64-42.4c1.83-12.03-7.14-55.98,15.65-80.56,7.73-8.33,10.62-21.03,11.6-31.51,1.06,6.68,3.38,14.91,8.12,24.27,12.82,25.3,56.65,28.97,56.65,28.97,0,0-4.4-9.06-6.12-31.34-1.72-22.28,18.69-39.35,25.06-54.2,5.01-11.67,15.31-35.22,2.68-50.17Zm-218.54,220.88v-41.35s.02,41.4.02,41.4c-.01-.03-.02-.05-.02-.05Z"/>
      <g>
        <g>
          <g>
            <path d="m630.92,689.57c-4.98,5.03-8.89,13.02-22.04,25.71-26.3,25.38-71.72,29.26-71.57,39.7-.42-29.27-.03-.03-.1,0-12.56-3.47-45.3-14.43-71.48-39.69-7.07-6.83-12.68-12.27-17.13-16.61-2.81,11.98-5.91,23.92-8.89,35.87,6.11,8.21,13.67,16.97,22.56,24.71,33.21,28.91,73.28,39.88,74.9,40.14h2.28c1.64-.25,39.67-11.22,72.88-40.14,15.31-13.33,18.26-28.53,24.29-39.58-3.74-9.57-3.92-20.11-5.7-30.09Z"/>
            <path class="cls-2" d="m634.29,703.59c-4.68,5.13-10.67,11.31-18.37,18.75-32.14,31.02-73.14,40.9-78.3,42.98-.77-.29-44.91-10.09-79-42.98-5.64-5.44-10.38-10.03-14.36-13.92.08,5.87.18,11.73.26,17.6,6.76,8.49,15.09,17.84,24.42,25.97,31.39,27.33,68.12,33.03,68.12,33.03,0,0,37.15-5.71,68.54-33.03,13.61-11.85,25.32-27.96,33.1-40.06-1.49-2.77-2.97-5.55-4.41-8.34Z"/>
          </g>
          <g id="dog_tag" data-name="dog tag">
            <g>
              <path d="m522.17,838.19c-2.59,0-4.89-1.61-5.71-4.01l-13.06-38.11c-.61-1.79-.3-3.77.82-5.3,1.13-1.53,2.95-2.44,4.89-2.44h2.96l-1.29-2.7c-.88-1.83-.73-3.94.38-5.64,1.11-1.7,3.01-2.72,5.08-2.72h40.39c2.07,0,3.97,1.02,5.08,2.72,1.11,1.7,1.25,3.81.38,5.64l-1.29,2.7h2.96c1.93,0,3.76.91,4.88,2.44s1.44,3.51.83,5.29l-13.07,38.11c-.82,2.4-3.12,4.01-5.71,4.01h-28.5Z"/>
              <path d="m550.67,841.06h-28.5c-3.82,0-7.21-2.39-8.43-5.95l-13.06-38.11c-.92-2.68-.46-5.65,1.23-7.93,1.39-1.88,3.47-3.12,5.77-3.49-.71-2.41-.34-5,1.06-7.15,1.64-2.52,4.44-4.02,7.49-4.02h40.39c3.04,0,5.84,1.5,7.48,4.02,1.41,2.16,1.77,4.75,1.06,7.15,2.29.37,4.38,1.62,5.77,3.49,1.69,2.29,2.15,5.25,1.23,7.93l-13.07,38.12c-1.22,3.56-4.61,5.95-8.43,5.95Zm-41.56-49.86c-1.02,0-1.98.48-2.57,1.27-.57.77-.72,1.76-.42,2.66l13.06,38.11c.42,1.24,1.63,2.07,2.99,2.07h28.5c1.36,0,2.57-.83,2.99-2.07l13.07-38.11c.31-.89.15-1.89-.42-2.66-.59-.8-1.55-1.27-2.57-1.27h-7.52l3.26-6.81c.44-.93.37-1.96-.19-2.83-.58-.89-1.58-1.42-2.67-1.42h-40.39c-1.09,0-2.09.53-2.67,1.42-.57.87-.64,1.9-.19,2.83l3.26,6.81h-7.52Z"/>
            </g>
            <path class="cls-3" d="m554.05,791.32l3.67-7.67c.38-.79-.21-1.69-1.11-1.69h-40.39c-.89,0-1.48.9-1.11,1.69l3.67,7.67c.38.79-.21,1.69-1.11,1.69h-8.58c-.83,0-1.42.8-1.16,1.57l13.06,38.11c.17.49.63.81,1.16.81h28.5c.52,0,.99-.33,1.16-.81l13.06-38.11c.26-.77-.32-1.57-1.16-1.57h-8.58c-.89,0-1.48-.9-1.11-1.69Z"/>
            <ellipse cx="537.34" cy="793.97" rx="4.95" ry="4.83"/>
            <path d="m537.34,794.85c2.59-5.78,3.38-10.48,2.33-16.22,0,0-.44-2.42-.44-2.42-1.33-6.63-2.92-13.04-6.16-19.11,9.33,2.71,14.24,14.57,14.14,23.57-.17,6.05-3.87,12.44-9.87,14.18h0Z"/>
          </g>
        </g>
        <g>
          <path class="cls-3" d="m363.02,564.62s0,.06,0,.06c0,0,0-.03,0-.06Z"/>
          <path class="cls-3" d="m368.72,504.23c11.64-22.32,7.83-16.66,16-30.99,8.17-14.32,8.17-15.81,8.17-15.81l-43.73,19.64s-22.28,6.88-22.53,20.46c-.25,13.58,3.71,16.74,3.71,16.74,0,0,.44-9.8,4.86-14.03,6.44-6.17,11.37-6.34,11.37-6.34l-5.07,8.78,6.11-.41s-12.48,13.18.64,31.78c12.6,17.86,14.62,29.66,14.76,30.57-.25-1.65-5.67-38.57,5.7-60.39Z"/>
          <path class="cls-3" d="m504.19,655.82s-.16,0-.44-.04c.18.21.31.33.31.33l.13-.3Z"/>
          <path d="m525.78,748.13,29.07.08c-9.13,1.4-14.51.02-14.51.02v-17.43s0,27.61,0,27.61c0,0,10.27,1.17,20.86-.86,6.42-1.23,10.86-3.63,10.86-3.63,0,0,17.98,32.18,52.5,25.44,30.36-5.93,29.34-46.64,26.28-59.72-3.06-13.08-8.3-24.91-5.64-42.4,1.83-12.03-7.14-55.98,15.65-80.56,7.73-8.33,10.62-21.03,11.6-31.51,1.06,6.68,3.38,14.91,8.12,24.27,12.82,25.3,56.65,28.97,56.65,28.97,0,0-4.4-9.06-6.12-31.34-1.72-22.28,18.69-39.35,25.06-54.2,5.01-11.67,15.31-35.22,2.68-50.17-12.63-14.95-70.45-33.36-87.28-47.45-16.84-14.09-31.02-12.67-49.77-3.47-18.75,9.2-26.35,9.11-43.76,7.67-16.68-1.38-36.06.66-37.65.83v-.06s-20.35-2.28-37.77-.84c-17.41,1.44-25.01,1.53-43.76-7.67-18.75-9.2-32.94-10.62-49.77,3.47-16.84,14.09-74.66,32.5-87.28,47.45-12.63,14.95-2.33,38.5,2.68,50.17,6.37,14.85,26.79,31.91,25.06,54.2-1.72,22.28-6.12,31.34-6.12,31.34,0,0,43.83-3.67,56.65-28.97,4.74-9.36,7.07-17.59,8.12-24.27.98,10.48,3.88,23.17,11.6,31.51,22.8,24.59,13.83,68.53,15.65,80.56,2.66,17.49-2.58,29.32-5.64,42.4-3.06,13.08-4.08,53.79,26.28,59.72,34.52,6.74,52.5-25.44,52.5-25.44,0,0,4.44,2.4,10.86,3.63,10.59,2.03,20.86.86,20.86.86v-27.73s0,17.56,0,17.56m-192.04-214.1c-13.12-18.6-.64-31.78-.64-31.78l-6.11.41,5.07-8.78s-4.93.17-11.37,6.34c-4.42,4.23-4.86,14.03-4.86,14.03,0,0-3.96-3.16-3.71-16.74.25-13.58,22.53-20.46,22.53-20.46l43.73-19.64s0,1.49-8.17,15.81c-8.17,14.32-4.37,8.66-16,30.99-11.37,21.82-5.95,58.75-5.7,60.39,0,.04,0,.06,0,.06,0,0,0-.03,0-.06-.14-.91-2.16-12.7-14.76-30.57Zm192.06,122.82v-25.73s0,25.65,0,25.65l-7.12,15.75s-14.56-7.9-14.88-13.68c-.31-5.77,6.91,3.34,10.14-3.83,1.74-3.84.87-10.67-15.48-8.32-14.23,2.04-10.45,7.64-9.23,9.06.27.03.44.04.44.04l-.13.3s-.13-.12-.31-.33c-2.24-.24-12.23-1.98-8.18-13.56,4.51-12.88,44.04-11.22,44.74-11.19v.08s40.21-1.8,44.75,11.19c4.05,11.57-5.95,13.31-8.18,13.56-.18.21-.31.33-.31.33l-.13-.3s.16,0,.44-.04c1.22-1.42,5-7.02-9.23-9.06-16.35-2.35-17.21,4.48-15.48,8.32,3.24,7.17,10.46-1.95,10.14,3.83-.31,5.77-14.88,13.68-14.88,13.68l-7.12-15.75Zm142.38-102.31c-3.68-24.41,3.51-24.7-4.98-49.57-8.49-24.87-14.17-37.08-25.71-46.57-11.54-9.49-39.21,3.7-39.21,3.7,0,0,23.3,18.82,31.79,32.23,8.49,13.42,11.98,8.84,10.67,42.05-1.31,33.21-1.96,40.03-14.16,54.75-3.22,3.89-5.26,9.42-6.53,15.45-.82,6.25-1.76,15.22-1.86,23.81-1.64-2.07-3.65-4.21-6.11-6.32-2.56-8.56-9.84-28.59-24.34-39.52-18.78-14.17-32.91-13.69-32.91-13.69,0,0,20.72,11.64,31.43,27.57,5.16,7.68,7.64,12.64,8.83,15.73-14.56-4.64-30.82-.76-30.82-.76,0,0,25.3,2.24,36.33,13.53,19.23,19.7,16.6,55.06,16.57,55.37-1,7.66-2.12,14.76-2.95,19.72-1.59,18.12-11.74,27.23-11.74,27.23,0,0,7.17.16,10.13-2.63,3.29-3.1,6.99-7.27,6.99-7.27,0,0,2.14,4.78,3.22,14.24,1.06,9.3-.57,15.78-3.22,21.57-2.64,5.79-28.49,15.14-45.8-2.93-14.58-15.23-31.58-40.8-39.29-54.54-7.71-13.74,16.49-16.51,32.13-28.26,15.64-11.75,21.21-18.24,10.2-34.46-11.01-16.22-51.07-13.16-51.07-13.16v-.08c-.9-.07-40.16-2.88-51.05,13.16-11.01,16.22-5.44,22.71,10.2,34.46,15.64,11.75,39.84,14.52,32.13,28.26-7.71,13.74-24.71,39.31-39.29,54.54-17.3,18.07-43.15,8.72-45.8,2.93-2.64-5.79-4.27-12.27-3.22-21.57,1.07-9.45,3.22-14.24,3.22-14.24,0,0,3.7,4.17,6.99,7.27,2.96,2.79,10.13,2.63,10.13,2.63,0,0-10.15-9.11-11.74-27.23-.83-4.96-1.95-12.06-2.95-19.72-.02-.3-2.66-35.67,16.57-55.37,11.03-11.3,36.33-13.53,36.33-13.53,0,0-16.27-3.88-30.82.76,1.19-3.09,3.67-8.05,8.83-15.73,10.71-15.92,31.43-27.57,31.43-27.57,0,0-14.13-.48-32.91,13.69-14.5,10.94-21.77,30.96-24.34,39.52-2.46,2.11-4.46,4.25-6.11,6.32-.09-8.59-1.04-17.57-1.86-23.81-1.27-6.04-3.31-11.57-6.53-15.45-12.19-14.73-12.85-21.54-14.16-54.75-1.31-33.21,2.18-28.63,10.67-42.05,8.49-13.42,31.79-32.23,31.79-32.23,0,0-27.66-13.19-39.21-3.7-11.54,9.49-17.22,21.7-25.71,46.57-8.49,24.87-1.3,25.16-4.98,49.57-6.53,43.36-42.35,55.47-42.35,55.47,0,0,14.26-10.31,23.44-37.39,8.12-23.97-2.53-43.55,9.5-71.16,12.04-27.61,11.89-31.72,15.52-42.36,2.88-8.43,16.01-23.73,33.12-22.3,17.1,1.43,22.25,12.18,52.01,13.16,28.57.95,49.47.33,51.09.28v.07c.06,0,21.49.71,51.21-.28,29.76-.98,34.91-11.73,52.01-13.16,17.1-1.43,30.24,13.87,33.12,22.3,3.63,10.64,3.48,14.75,15.52,42.36,12.04,27.61,1.38,47.18,9.5,71.16,9.17,27.08,23.44,37.39,23.44,37.39,0,0-35.82-12.11-42.35-55.47Zm67.59-40.21s-.44-9.8-4.86-14.03c-6.44-6.17-11.37-6.34-11.37-6.34l5.07,8.78-6.11-.41s12.48,13.18-.64,31.78c-12.6,17.86-14.62,29.66-14.76,30.57,0,.04,0,.06,0,.06,0,0,0-.03,0-.06.25-1.65,5.67-38.57-5.7-60.39-11.64-22.32-7.83-16.66-16-30.99-8.17-14.32-8.17-15.81-8.17-15.81l43.73,19.64s22.28,6.88,22.53,20.46c.25,13.58-3.71,16.74-3.71,16.74Z"/>
          <path class="cls-3" d="m701.62,572.64c-8.12-23.97,2.53-43.55-9.5-71.16-12.04-27.61-11.89-31.72-15.52-42.36-2.88-8.43-16.01-23.73-33.12-22.3-17.1,1.43-22.25,12.18-52.01,13.16-29.72.98-51.15.28-51.21.28v-.07c-1.63.05-22.53.67-51.09-.28-29.76-.98-34.91-11.73-52.01-13.16-17.1-1.43-30.24,13.87-33.12,22.3-3.63,10.64-3.48,14.75-15.52,42.36-12.04,27.61-1.38,47.18-9.5,71.16-9.17,27.08-23.44,37.39-23.44,37.39,0,0,35.82-12.11,42.35-55.47,3.68-24.41-3.51-24.7,4.98-49.57,8.49-24.87,14.17-37.08,25.71-46.57,11.54-9.49,39.21,3.7,39.21,3.7,0,0-23.3,18.82-31.79,32.23-8.49,13.42-11.98,8.84-10.67,42.05,1.31,33.21,1.96,40.03,14.16,54.75,3.22,3.89,5.26,9.42,6.53,15.45.82,6.25,1.76,15.22,1.86,23.81,1.64-2.07,3.65-4.21,6.11-6.32,2.56-8.56,9.84-28.59,24.34-39.52,18.78-14.17,32.91-13.69,32.91-13.69,0,0-20.72,11.64-31.43,27.57-5.16,7.68-7.64,12.64-8.83,15.73,14.56-4.64,30.82-.76,30.82-.76,0,0-25.3,2.24-36.33,13.53-19.23,19.7-16.6,55.07-16.57,55.37,1,7.66,2.12,14.76,2.95,19.72,1.59,18.12,11.74,27.23,11.74,27.23,0,0-7.17.16-10.13-2.63-3.29-3.1-6.99-7.27-6.99-7.27,0,0-2.14,4.78-3.22,14.24-1.06,9.3.57,15.78,3.22,21.57,2.64,5.79,28.49,15.14,45.8-2.93,14.58-15.23,31.58-40.8,39.29-54.54,7.71-13.74-16.49-16.51-32.13-28.26-15.64-11.75-21.21-18.24-10.2-34.46,10.89-16.04,50.15-13.22,51.05-13.16v.08s40.05-3.07,51.07,13.16c11.01,16.22,5.44,22.71-10.2,34.46-15.64,11.75-39.84,14.52-32.13,28.26,7.71,13.74,24.71,39.31,39.29,54.54,17.3,18.07,43.15,8.72,45.8,2.93,2.64-5.79,4.27-12.27,3.22-21.57-1.07-9.45-3.22-14.24-3.22-14.24,0,0-3.7,4.17-6.99,7.27-2.96,2.79-10.13,2.63-10.13,2.63,0,0,10.15-9.11,11.74-27.23.83-4.96,1.95-12.06,2.95-19.72.02-.31,2.66-35.67-16.57-55.37-11.03-11.3-36.33-13.53-36.33-13.53,0,0,16.27-3.88,30.82.76-1.19-3.09-3.67-8.05-8.83-15.73-10.71-15.92-31.43-27.57-31.43-27.57,0,0,14.13-.48,32.91,13.69,14.5,10.94,21.77,30.96,24.34,39.52,2.46,2.11,4.46,4.25,6.11,6.32.09-8.59,1.04-17.57,1.86-23.81,1.27-6.04,3.31-11.57,6.53-15.45,12.19-14.73,12.85-21.54,14.16-54.75,1.31-33.21-2.18-28.63-10.67-42.05-8.49-13.42-31.79-32.23-31.79-32.23,0,0,27.66-13.19,39.21-3.7,11.54,9.49,17.22,21.7,25.71,46.57,8.49,24.87,1.3,25.16,4.98,49.57,6.53,43.36,42.35,55.47,42.35,55.47,0,0-14.26-10.31-23.44-37.39Z"/>
          <path class="cls-3" d="m717.62,564.7s0,.06,0,.06c0,0,0-.03,0-.06Z"/>
          <path class="cls-3" d="m731.47,477.14l-43.73-19.64s0,1.49,8.17,15.81c8.17,14.32,4.37,8.66,16,30.99,11.37,21.82,5.95,58.75,5.7,60.39.14-.91,2.16-12.7,14.76-30.57,13.12-18.6.64-31.78.64-31.78l6.11.41-5.07-8.78s4.93.17,11.37,6.34c4.42,4.23,4.86,14.03,4.86,14.03,0,0,3.96-3.16,3.71-16.74-.25-13.58-22.53-20.46-22.53-20.46Z"/>
          <path class="cls-3" d="m540.32,656.87l7.12,15.75s14.56-7.9,14.88-13.68c.31-5.77-6.91,3.34-10.14-3.83-1.74-3.84-.87-10.67,15.48-8.32,14.23,2.04,10.45,7.64,9.23,9.06,2.24-.24,12.23-1.98,8.18-13.56-4.55-12.99-44.75-11.27-44.75-11.27h0c-.69-.03-40.23-1.69-44.74,11.19-4.05,11.57,5.95,13.31,8.18,13.56-1.22-1.42-5-7.02,9.23-9.06,16.35-2.35,17.21,4.48,15.48,8.32-3.24,7.17-10.46-1.95-10.14,3.83.31,5.77,14.88,13.68,14.88,13.68l7.12-15.75"/>
          <path class="cls-3" d="m576.57,656.2s.13-.12.31-.33c-.27.03-.44.04-.44.04l.13.3Z"/>
          <g>
            <path d="m507.41,693.65l2.21.29h.11s2.2.31,2.2.31c.08.01.17-.02.2-.08l3.18-4.86c.07-.1,0-.23-.14-.25l-1.42-.19c-.15-.02-.22-.16-.13-.27l.83-1.01c.09-.11.02-.25-.13-.27l-3.33-.46-.12-.02-3.34-.46c-.15-.02-.27.1-.22.22l.45,1.2c.05.12-.07.24-.22.22l-1.43-.2c-.14-.02-.25.08-.22.2l1.36,5.5c.02.07.08.12.17.13Z"/>
            <path d="m489.27,691.13c.03.07.1.12.19.13l2.27.3h.11s2.26.32,2.26.32c.09.01.16-.02.19-.08l2.46-5.03c.05-.11-.04-.24-.18-.26l-1.46-.2c-.15-.02-.25-.17-.18-.27l.69-1.05c.07-.11-.02-.26-.18-.28l-3.43-.47-.12-.02-3.44-.48c-.16-.02-.26.1-.19.23l.64,1.24c.06.13-.04.25-.19.23l-1.47-.2c-.14-.02-.24.08-.2.21l2.22,5.69Z"/>
            <path d="m468.45,681.24l.84,1.28c.09.13,0,.26-.16.23l-1.52-.21c-.15-.02-.23.09-.16.21l3.14,5.89c.04.07.12.13.21.14l2.34.31.12.02,2.33.31c.09.01.16-.02.18-.09l1.69-5.21c.04-.11-.08-.24-.22-.26l-1.5-.21c-.16-.02-.27-.17-.22-.28l.53-1.09c.05-.11-.06-.27-.22-.29l-3.53-.49-.12-.02-3.55-.49c-.16-.02-.24.11-.16.24Z"/>
            <path d="m505.29,707.07l1.96.24h.1s1.96.25,1.96.25c.07,0,.15-.02.18-.06l2.7-3.79c.06-.08,0-.18-.13-.19l-1.25-.16c-.13-.02-.2-.13-.12-.21l.71-.79c.07-.08,0-.19-.12-.21l-2.94-.37h-.1s-2.95-.39-2.95-.39c-.13-.02-.24.07-.19.17l.41.93c.04.09-.06.18-.19.17l-1.26-.16c-.12-.02-.22.06-.19.15l1.29,4.3c.02.05.08.09.15.1Z"/>
            <path d="m495.65,701.45l-1.28-.16c-.13-.02-.22-.13-.16-.21l.6-.81c.06-.08-.02-.2-.16-.22l-3.01-.38h-.1s-3.03-.4-3.03-.4c-.14-.02-.23.08-.17.18l.56.96c.06.1-.03.19-.17.17l-1.3-.16c-.13-.02-.21.06-.17.16l1.95,4.44c.02.05.09.1.17.11l2.01.25h.1s2,.26,2,.26c.08,0,.14-.02.17-.06l2.14-3.91c.05-.08-.04-.18-.16-.2Z"/>
            <path d="m472.9,703.11l2.06.25h.1s2.05.26,2.05.26c.08,0,.14-.02.16-.07l1.54-4.04c.03-.08-.07-.19-.19-.21l-1.32-.17c-.14-.02-.24-.13-.19-.22l.47-.84c.05-.09-.05-.21-.19-.22l-3.09-.39h-.11s-3.11-.41-3.11-.41c-.14-.02-.22.08-.14.18l.71.99c.07.1,0,.2-.14.18l-1.33-.17c-.13-.02-.2.07-.15.16l2.66,4.58c.03.06.11.1.18.11Z"/>
            <path d="m503.61,717.74l1.76.2h.09s1.76.21,1.76.21c.07,0,.13-.01.16-.05l2.35-3.04c.05-.06-.01-.14-.12-.16l-1.12-.13c-.12-.01-.18-.1-.11-.17l.62-.62c.06-.06,0-.16-.11-.17l-2.63-.31h-.09s-2.64-.32-2.64-.32c-.12-.01-.21.06-.17.14l.38.75c.04.08-.05.15-.17.13l-1.13-.13c-.11-.01-.2.05-.17.12l1.21,3.46s.07.08.14.08Z"/>
            <path d="m494.92,713.2l-1.15-.13c-.12-.01-.19-.11-.14-.17l.53-.64c.05-.07-.02-.16-.14-.17l-2.69-.32h-.09s-2.7-.33-2.7-.33c-.12-.01-.2.06-.15.14l.5.77c.05.08-.03.15-.15.14l-1.16-.13c-.11-.01-.19.05-.15.13l1.75,3.56s.08.08.15.09l1.8.21h.09s1.8.21,1.8.21c.07,0,.13-.01.15-.05l1.9-3.12c.04-.07-.03-.15-.15-.16Z"/>
            <path d="m479.73,711.42l-1.17-.14c-.12-.01-.21-.11-.17-.18l.43-.66c.04-.07-.05-.16-.17-.18l-2.75-.32h-.1s-2.76-.34-2.76-.34c-.12-.01-.19.06-.13.14l.62.79c.06.08,0,.16-.13.14l-1.18-.14c-.11-.01-.18.05-.14.13l2.31,3.66s.09.08.16.09l1.84.21h.09s1.84.22,1.84.22c.07,0,.13-.01.15-.05l1.42-3.22c.03-.07-.06-.15-.17-.16Z"/>
          </g>
          <g>
            <path d="m568.7,694.33l2.2-.29h.11s2.21-.31,2.21-.31c.08-.01.15-.06.17-.13l1.36-5.5c.03-.12-.09-.22-.22-.2l-1.43.2c-.15.02-.27-.1-.22-.22l.45-1.2c.05-.12-.07-.24-.22-.22l-3.34.46-.12.02-3.33.46c-.15.02-.22.17-.13.27l.83,1.01c.09.1.01.25-.13.27l-1.41.19c-.14.02-.21.14-.14.25l3.18,4.86c.04.06.12.09.2.08Z"/>
            <path d="m593.39,685.32l-1.47.2c-.15.02-.25-.1-.19-.23l.64-1.24c.07-.13-.04-.25-.19-.23l-3.44.48-.12.02-3.43.47c-.15.02-.25.17-.18.28l.69,1.05c.07.11-.02.25-.18.27l-1.46.2c-.14.02-.23.15-.18.26l2.46,5.03c.03.06.11.1.19.08l2.26-.3h.11s2.27-.32,2.27-.32c.09-.01.16-.07.19-.13l2.22-5.69c.05-.12-.05-.23-.2-.21Z"/>
            <path d="m608.48,681.57l-.12.02-3.53.49c-.16.02-.28.18-.22.29l.53,1.09c.05.11-.06.26-.22.28l-1.5.21c-.15.02-.26.15-.22.26l1.69,5.21c.02.06.09.1.18.09l2.33-.31.12-.02,2.34-.31c.09-.01.17-.07.21-.14l3.14-5.89c.07-.12-.02-.23-.16-.21l-1.52.21c-.16.02-.24-.1-.16-.23l.84-1.28c.09-.13,0-.26-.16-.24l-3.55.49Z"/>
            <path d="m571.33,707.64l1.96-.24h.1s1.96-.25,1.96-.25c.07,0,.13-.05.15-.1l1.29-4.3c.03-.09-.07-.17-.19-.15l-1.26.16c-.13.02-.23-.07-.19-.17l.41-.93c.04-.1-.06-.19-.19-.17l-2.95.37h-.1s-2.94.38-2.94.38c-.13.02-.2.13-.12.21l.71.79c.07.08,0,.19-.12.21l-1.25.16c-.12.02-.19.11-.13.19l2.7,3.79s.11.07.18.06Z"/>
            <path d="m593.2,700.5l-1.3.16c-.13.02-.22-.08-.17-.17l.56-.96c.06-.1-.03-.19-.17-.18l-3.03.38h-.1s-3.01.39-3.01.39c-.14.02-.22.13-.16.22l.6.81c.06.08-.02.2-.16.21l-1.28.16c-.12.02-.21.12-.16.2l2.14,3.91s.09.07.17.06l2-.24h.1s2.01-.26,2.01-.26c.08,0,.14-.05.17-.11l1.95-4.44c.04-.09-.05-.17-.17-.16Z"/>
            <path d="m610.44,698.33l-1.33.17c-.14.02-.21-.08-.14-.18l.71-.99c.07-.1,0-.2-.14-.18l-3.11.39h-.11s-3.09.4-3.09.4c-.14.02-.24.14-.19.22l.47.84c.05.09-.05.2-.19.22l-1.32.17c-.13.02-.23.12-.19.21l1.54,4.04s.08.08.16.07l2.05-.25h.1s2.06-.26,2.06-.26c.08,0,.15-.05.18-.11l2.66-4.58c.06-.1-.02-.18-.15-.16Z"/>
            <path d="m578.2,714.15l-1.13.13c-.12.01-.21-.06-.17-.13l.38-.75c.04-.08-.05-.15-.17-.14l-2.64.31h-.09s-2.63.32-2.63.32c-.12.01-.18.1-.11.17l.62.62c.06.06,0,.15-.11.17l-1.12.13c-.11.01-.17.09-.12.15l2.35,3.04s.09.06.16.05l1.76-.2h.09s1.76-.21,1.76-.21c.07,0,.12-.04.14-.08l1.21-3.46c.03-.07-.06-.13-.17-.12Z"/>
            <path d="m593.05,712.42l-1.16.13c-.12.01-.2-.06-.15-.14l.5-.77c.05-.08-.03-.15-.15-.14l-2.7.32h-.09s-2.69.33-2.69.33c-.12.01-.2.11-.14.17l.53.64c.05.07-.02.16-.14.17l-1.15.13c-.11.01-.19.09-.15.16l1.9,3.12s.08.06.15.05l1.8-.2h.09s1.8-.22,1.8-.22c.07,0,.13-.04.15-.09l1.75-3.56c.04-.07-.04-.14-.15-.13Z"/>
            <path d="m608.41,710.63l-1.18.14c-.12.01-.19-.06-.13-.14l.62-.79c.06-.08,0-.16-.13-.14l-2.76.32h-.1s-2.75.33-2.75.33c-.12.01-.21.11-.17.18l.43.66c.04.07-.05.16-.17.18l-1.17.14c-.11.01-.2.1-.17.16l1.42,3.22s.08.06.15.05l1.84-.21h.09s1.84-.22,1.84-.22c.07,0,.14-.04.16-.09l2.31-3.66c.05-.08-.02-.14-.14-.13Z"/>
          </g>
          <path class="cls-3" d="m540.31,703.59s-9.19,20.43-13.43,26.54c-5.38,7.77-4.22,17.2,4.62,21.74h0c5.33,2.74,11.96,2.74,17.29,0h0c8.84-4.54,9.96-13.94,4.62-21.74-4.18-6.1-13.1-26.54-13.1-26.54Z"/>
        </g>
        <g>
          <path d="m542.21,457.94v.57c-.81,3.47-4.53,20.57-4.53,43.72s3.94,44.56,4.57,47.72v.52s4.65-22.31,4.65-48.15-4.69-44.38-4.69-44.38Z"/>
          <path d="m591.93,516.78c16.15-6.4,14.73-18.83,14.73-18.83,0,0-10.29,9.09-14.73,10.88-8.02,3.23-16.81,2.39-16.81,2.39,0,0,7.78,9.14,16.81,5.56Z"/>
          <path class="cls-2" d="m611.33,527.87c-.7.82-1.39,1.66-2.09,2.49,1.96,1.97,3.29,4.58,3.62,7.55.72,6.49-3.57,12.38-9.79,13.8,1.28.27,2.63.35,4.01.19,6.99-.78,12.02-7.07,11.24-14.06-.5-4.47-3.25-8.13-7-9.99Z"/>
          <path class="cls-1" d="m603.9,541.12c-.14-1.25-.93-2.27-2-2.76-1.48,1.32-3.08,2.53-4.86,3.59.24,1.86,1.93,3.2,3.81,2.99,1.9-.21,3.27-1.92,3.05-3.82Z"/>
          <path d="m577.52,533.95c-16.85-.85-13.94-18.31-13.94-18.31,0,0-14.22,29.58,15.95,30.38.39.01.76,0,1.14,0,4.36,6.65,19,24.99,39.51,8.45,16.33-13.17-2.12-33.34-2.12-33.34l-.19.1c1.67-1.36,3.48-2.58,5.54-3.58,9.61-4.67,23.95-2.91,23.95-2.91,0,0-17.15-19.55-39.22,1.42-13.5,12.83-22.82,18.18-30.62,17.79Zm23.32,10.99c-1.88.21-3.57-1.13-3.81-2.99,1.78-1.06,3.38-2.27,4.86-3.59,1.07.49,1.86,1.51,2,2.76.21,1.9-1.16,3.61-3.05,3.82Zm17.49-7.08c.78,6.99-4.26,13.28-11.24,14.06-1.38.15-2.72.07-4.01-.19,6.21-1.43,10.51-7.31,9.79-13.8-.33-2.97-1.67-5.59-3.62-7.55.69-.83,1.39-1.67,2.09-2.49,3.75,1.86,6.5,5.52,7,9.99Z"/>
          <g>
            <path d="m492.64,516.7c9.03,3.58,16.81-5.56,16.81-5.56,0,0-8.79.84-16.81-2.39-4.44-1.78-14.73-10.88-14.73-10.88,0,0-1.42,12.43,14.73,18.83Z"/>
            <path class="cls-2" d="m471.71,537.83c.33-2.97,1.67-5.59,3.62-7.55-.69-.83-1.39-1.67-2.09-2.49-3.75,1.86-6.5,5.52-7,9.99-.78,6.99,4.26,13.28,11.24,14.06,1.38.15,2.72.07,4.01-.19-6.21-1.43-10.51-7.31-9.79-13.8Z"/>
            <path class="cls-1" d="m483.73,544.85c1.88.21,3.57-1.13,3.81-2.99-1.78-1.06-3.38-2.27-4.86-3.59-1.07.49-1.86,1.51-2,2.76-.21,1.9,1.16,3.61,3.05,3.82Z"/>
            <path d="m466.71,521.14l-.19-.1s-18.45,20.17-2.12,33.34c20.51,16.54,35.15-1.8,39.51-8.45.38,0,.75,0,1.14,0,30.17-.8,15.95-30.38,15.95-30.38,0,0,2.91,17.46-13.94,18.31-7.79.39-17.11-4.96-30.62-17.79-22.07-20.97-39.22-1.42-39.22-1.42,0,0,14.34-1.76,23.95,2.91,2.06,1,3.88,2.22,5.54,3.58Zm13.97,19.89c.14-1.25.93-2.27,2-2.76,1.48,1.32,3.08,2.53,4.86,3.59-.24,1.86-1.93,3.2-3.81,2.99-1.9-.21-3.27-1.92-3.05-3.82Zm-3.19,10.8c-6.99-.78-12.02-7.07-11.24-14.06.5-4.47,3.25-8.13,7-9.99.7.82,1.39,1.66,2.09,2.49-1.96,1.97-3.29,4.58-3.62,7.55-.72,6.49,3.57,12.38,9.79,13.8-1.28.27-2.63.35-4.01.19Z"/>
          </g>
        </g>
      </g>
      <g>
        <path class="cls-1" d="m378.97,260.23c0,15.75,0,31.51,0,47.26,0,6.52-3.18,13.16-8.51,17.86-7.12,6.27-14.2,12.59-21.22,18.97-2.65,2.4-5.79,4.06-9.01,4.76-4.47.97-6.7,1.47-11.16,2.5,0,18.74,0,37.49,0,56.23-9.59,2.27-19.14,4.62-28.68,7.09,0-45.42,0-90.83,0-136.25-3.37.89-5.05,1.34-8.42,2.26,2.36-9,4.73-18.01,7.1-27.01,18.62-4.83,37.3-9.18,56.13-13.07,11.89-1.99,24.54,6.29,23.76,19.4Zm-28.94,10.72c0-2.2-1.77-3.61-3.95-3.15-6.81,1.44-10.22,2.19-17.01,3.76,0,18.31,0,36.62,0,54.93,2.83-.65,4.24-.97,7.07-1.6.8-.18,1.59-.6,2.25-1.21,3.97-3.66,5.96-5.48,9.95-9.09,1.06-.97,1.7-2.31,1.7-3.62,0-13.34,0-26.67,0-40.01Z"/>
        <path class="cls-1" d="m481.18,224.22c0,53.78,0,107.56,0,161.34-9.77.68-19.51,1.45-29.26,2.33,0-18.74,0-37.48,0-56.22-8.5.81-12.75,1.26-21.24,2.26,0,18.74,0,37.48,0,56.22-9.73,1.2-19.43,2.5-29.13,3.9,0-45.42,0-90.83,0-136.25-3.43.51-5.14.78-8.56,1.32,2.4-8.74,4.81-17.47,7.22-26.21,10.15-1.48,20.29-2.84,30.47-4.1,0,26.67,0,53.35,0,80.02,8.49-1,12.74-1.45,21.24-2.26,0-26.67,0-53.35,0-80.02,9.75-.87,19.49-1.65,29.26-2.33Z"/>
        <path class="cls-1" d="m533.28,222.33c0,53.78,0,107.56,0,161.34-9.78.14-19.54.37-29.32.71,0-45.42,0-90.83,0-136.25-3.45.14-5.18.21-8.63.38,2.42-8.47,4.85-16.95,7.28-25.42,10.23-.36,20.44-.62,30.67-.76Z"/>
        <path class="cls-1" d="m619.91,361.8c0,10.04,0,15.05,0,25.09-21.28-1.66-42.53-2.7-63.87-3.15,0-45.42,0-90.83,0-136.25-3.46-.05-5.18-.07-8.64-.09,2.43-8.34,4.85-16.68,7.28-25.02.54,0,.81.01,1.36.02h0c9.78.21,19.54.51,29.31.91,0,45.42,0,90.83,0,136.25,11.53.54,23.05,1.28,34.56,2.24Z"/>
        <path class="cls-1" d="m706.08,372.98c0,10.04,0,15.05,0,25.09-21.09-3.61-42.19-6.61-63.45-9.01,0-45.42,0-90.83,0-136.25-3.44-.37-5.16-.55-8.61-.89,2.42-8.12,4.83-16.24,7.26-24.35.54.06.81.09,1.35.14h0c9.74,1.11,19.44,2.3,29.16,3.6,0,45.42,0,90.83,0,136.25,11.46,1.59,22.89,3.4,34.29,5.41Z"/>
        <path class="cls-1" d="m790.99,255.81c0,23.12,0,46.24,0,69.35.91,13.14-12.01,20.28-23.49,17.76-.49-.12-.73-.18-1.22-.3,0,22.71,0,45.42,0,68.13-9.58-2.29-19.15-4.47-28.77-6.57v-68.12c-.49-.1-.74-.16-1.24-.26-13.28-2.44-23.08-15.57-23.73-28.54v-44.26c-3.41-.63-5.12-.93-8.54-1.53,2.88-9.54,4.32-14.3,7.2-23.81,10.11,1.9,20.17,3.91,30.23,6.03v64.15c0,2.19,1.77,4.36,3.94,4.84,5.23,1.15,7.84,1.75,13.05,2.98,2.17.51,3.93-.85,3.93-3.04,0-21.38,0-42.76,0-64.15,9.58,2.36,19.11,4.8,28.63,7.35Z"/>
      </g>
    </g>
    <g>
      <path d="m526.18,808.32l2.77,18.56c.22,1.45-.37,2.56-1.29,2.56h-3.88s-6.22-21.76-6.22-21.76h-.92s-.8-5.48-.8-5.48l6.63-.02c1.54,0,3.22,2.88,3.71,6.13Zm-2.61.29c-.1-.51-.37-.93-.61-.93h-2.7s4.73,19.51,4.73,19.51h1.85c.16,0,.26-.2.21-.45l-3.49-18.13Z"/>
      <path d="m529.98,802.17h3.7c1.55-.01,2.75,2.88,2.7,6.13l-.3,18.59c-.02,1.45-.79,2.56-1.72,2.56h-2.21c-.92,0-1.81-1.11-1.98-2.57l-2.24-18.57c-.39-3.24.51-6.14,2.05-6.14Zm4.22,24.57l-.49-18.15c-.01-.51-.22-.94-.45-.94h-2.28c-.24,0-.4.43-.36.94l1.41,18.14c.02.25.17.45.33.45h1.56c.16,0,.29-.2.28-.45Z"/>
      <path d="m542.82,814.45l.79-5.87c.07-.51-.07-.94-.3-.94h-2.28c-.24,0-.47.43-.51.94l-1.52,18.17c-.02.25.09.45.26.45h1.57c.16,0,.32-.2.36-.45l.79-5.89h-1.66s.34-3.35.34-3.35h4.05s-1.67,9.38-1.67,9.38c-.26,1.46-1.21,2.57-2.13,2.56h-2.22c-.93,0-1.63-1.12-1.57-2.57l.75-18.59c.13-3.25,1.5-6.15,3.05-6.15h3.71c1.55-.01,2.29,2.89,1.72,6.14l-1.09,6.16h-2.42Z"/>
      <path d="m551.87,802.12h3.72c1.56-.01,1.83,2.89.73,6.15l-1.52,4.48h-2.5s1.24-4.19,1.24-4.19c.15-.52.08-.94-.15-.94h-2.29c-.24,0-.54.43-.66.94l-1.45,5.9c-.06.25-.06.47.01.61l2.43,4.99c.33.68.29,1.75-.08,2.84l-1.36,4c-.49,1.46-1.62,2.57-2.55,2.57h-2.22c-.93,0-1.45-1.12-1.16-2.57l.5-2.49h1.98s-.58,2.35-.58,2.35c-.06.25.02.45.18.45h1.57c.16,0,.36-.2.43-.45l1.03-3.49c.05-.18.05-.34,0-.44l-2.49-4.43c-.42-.74-.51-2-.22-3.42l1.35-6.69c.66-3.26,2.5-6.16,4.05-6.16Z"/>
    </g>
  </g>
</svg>