<?xml version="1.0" encoding="UTF-8"?>
<svg id="PARTIAL" xmlns="http://www.w3.org/2000/svg" version="1.1" viewBox="0 0 499 618.8">
  <!-- Generator: Adobe Illustrator 30.5.1, SVG Export Plug-In . SVG Version: 2.1.4 Build 3)  -->
  <g id="_1_COLOR_DARK">
    <g>
      <g>
        <path d="M212.2,433.5h-.4l.3.3v-.3h.1Z"/>
        <path d="M466.8,260.3c-4.1-4.9-13.2-10.2-24-15.6-2.3-1.1-4.7-2.3-7.1-3.4-.6-.3-1.2-.5-1.8-.8-1.1-.5-2.1-1-3.2-1.5-1.1-.5-2.1-1-3.2-1.5-.9-.4-1.7-.8-2.6-1.2-.2,0-.3-.1-.4-.2-.9-.4-1.9-.9-2.8-1.3-.9-.4-1.8-.8-2.6-1.2-1.7-.8-3.5-1.6-5.2-2.4-.6-.3-1.2-.5-1.8-.8-1.2-.5-2.3-1.1-3.5-1.6-.4-.2-.8-.4-1.2-.5-.8-.4-1.7-.8-2.5-1.2-1.3-.6-2.5-1.2-3.8-1.8-.7-.3-1.3-.6-2-1-.3-.2-.7-.3-1-.5-4.1-2-7.9-4-11.1-6-1.2-.7-2.2-1.4-3.2-2-.4-.2-.7-.5-1-.7-1.1-.8-2.2-1.6-3.1-2.3,0,0-.2-.2-.3-.2-.8-.7-1.7-1.3-2.5-1.9-1.5-1.1-2.9-2.1-4.4-3-6.3-3.8-12.3-5.4-18.5-5.3-4.5,0-9.1,1-14,2.7-.5.2-1.1.4-1.6.6-2.7,1-5.5,2.3-8.5,3.7-9.9,4.9-16.7,7.1-23.4,8-.5,0-.9.1-1.4.1-.8,0-1.6.1-2.4.2h-6.3c-3.1-.1-6.4-.4-10.2-.7-6.8-.6-14-.6-20.2-.3h0c-2.9.1-5.6.2-7.9.4-.8,0-1.5.1-2.3.1-1.4.1-2.7.2-3.7.3-1.3.1-2.2.2-2.8.3h-.5s-3.3-.4-8.4-.8c-.8,0-1.7-.1-2.7-.2-7.4-.4-17.5-.7-26.7,0-4.9.4-9,.7-12.8.7-9.7,0-17.5-1.8-30.9-8.4-8.8-4.3-16.5-6.9-24-7h0c-3.2,0-6.3.4-9.4,1.3-.7.2-1.3.4-2,.6-.4.1-.8.3-1.1.4-3.6,1.4-7.2,3.5-11,6.4-.7.5-1.4,1.1-2.2,1.7-2.7,2.2-6.4,4.6-10.8,7-.5.3-1,.5-1.5.8-1.9,1-3.9,2-5.9,3.1-.5.2-1,.5-1.5.8-1.1.5-2.2,1.1-3.3,1.6-.5.2-.9.4-1.4.7-7.1,3.4-14.9,6.8-22.5,10.3-1.1.5-2.3,1-3.4,1.5-5,2.3-10,4.6-14.5,6.9l-3,1.5c-1,.5-1.9,1-2.9,1.5-.5.2-.9.5-1.4.8-.6.3-1.2.7-1.8,1-3,1.8-5.8,3.5-8.1,5.2-2.2,1.6-4,3.2-5.3,4.8-3.5,4.2-5.3,9.1-5.8,14.2,0,.6-.1,1.1-.1,1.7v1.7c0,2.3.2,4.6.5,7,0,.6.2,1.2.3,1.7,1.6,9.2,5.5,18,8,23.9,6,13.9,24.3,29.8,25.1,50.1v2c0,.7,0,1.4-.1,2.1,0,.7-.1,1.4-.2,2-1.8,20.8-6,29.3-6,29.3,0,0,43.8-3.7,56.6-29h0c4.7-9.3,7.1-17.6,8.1-24.3.1,1.4.3,2.8.5,4.3.2,1.2.4,2.4.6,3.6,0,.2,0,.5.1.7,1.6,8.3,4.7,16.8,10.4,23,5.7,6.2,9.4,13.5,11.8,21.3.3,1,.6,2,.8,2.9.5,2,1,4,1.3,5.9,3.9,20.9.5,42.5,1.7,50.4,1.3,8.7.7,16.1-.7,22.8-.2.8-.4,1.7-.5,2.5-.4,1.9-.9,3.7-1.4,5.6-.5,2-1.1,4-1.6,5.9-.5,1.8-1,3.7-1.4,5.5-.6,2.5-1.1,5.9-1.3,9.9,0,.7,0,1.3-.1,2-.1,3.5,0,7.3.4,11.2.2,1.6.4,3.1.6,4.7.4,2.4.9,4.8,1.6,7.1.2.8.5,1.5.8,2.3.4,1.1.8,2.2,1.3,3.2,1.6,3.8,3.8,7.2,6.5,10.2.8.9,1.6,1.7,2.5,2.5.6.5,1.2,1,1.9,1.5,3.3,2.4,7.3,4.2,12,5.1h0c.6,0,1.3.2,1.9.3h.6c.5,0,.9,0,1.4.2h.6c.5,0,1.1,0,1.6.2h6.1c.6,0,1.1,0,1.7,0h.4c.4,0,.9,0,1.3-.2h.5c.5,0,.9,0,1.4-.2h.3c.5,0,1.1-.2,1.6-.3h.3c.4,0,.9-.2,1.3-.3.1,0,.3,0,.4,0,.4,0,.9-.2,1.3-.4h.2c.5-.2,1-.3,1.5-.5h.1c.4-.2.9-.3,1.3-.5.1,0,.2,0,.3,0,.4-.2.8-.3,1.2-.5h.2c.5-.2.9-.4,1.4-.6h0c.9.6,1.9,1.2,2.8,1.7.3.2.7.4,1,.6.6.4,1.3.8,1.9,1.1.4.2.8.4,1.1.7.6.3,1.2.7,1.8,1,.4.2.7.4,1.1.6.7.4,1.4.8,2.1,1.2.2,0,.5.2.7.4.9.5,1.8,1,2.7,1.4.3.2.6.3.9.5.6.3,1.2.6,1.8.9.4.2.7.3,1,.5.2,0,.5.2.8.4-.5.3-1,.6-1.4,1h0c-.2.2-.4.4-.5.5h0c-.2.2-.4.4-.5.7-1.6,2.2-2.1,5-1.3,7.7v.3l2.7,7.8,10.4,30.4c.5,1.3,1.2,2.5,2.2,3.5,0,0,0,0,.2.2.5.4,1,.8,1.6,1.1,1.3.8,2.9,1.2,4.5,1.2h28.5c2.4,0,4.6-.9,6.2-2.5.3-.3.6-.7.9-1,.5-.7,1-1.5,1.3-2.4l13.1-38.1c.2-.7.4-1.4.4-2,0-1,0-2.1-.3-3.1-.2-.7-.5-1.3-.8-1.9-.2-.3-.4-.6-.6-.9-.2-.3-.4-.5-.7-.8h0c-.2-.3-.5-.5-.8-.8h0s.2,0,.3-.2c.8-.4,1.6-.8,2.5-1.2.4-.2.9-.5,1.3-.7.5-.3,1-.5,1.5-.8s1.1-.6,1.7-.9c.4-.2.8-.4,1.2-.7.6-.3,1.2-.7,1.8-1s.7-.4,1.1-.6c.6-.4,1.3-.7,1.9-1.1.3-.2.7-.4,1-.6.7-.4,1.3-.8,2-1.2.3-.2.7-.4,1-.6.7-.4,1.3-.8,2-1.2.3-.2.7-.4,1-.7.7-.4,1.3-.8,2-1.3.3-.2.6-.4.9-.6.5.3,1,.6,1.5.8h.2c1,.5,2.1,1,3.1,1.5h.2c.5.2,1.1.4,1.6.7h0c.5.2,1.1.4,1.7.6h.3c.5.2,1.1.3,1.7.5h0c.6.2,1.2.3,1.8.5h.3c.6,0,1.1.3,1.7.4h0c.6,0,1.2.2,1.8.3h.4c.6,0,1.2.2,1.8.2h0c.6,0,1.3,0,1.9,0h4.9c.7,0,1.3,0,2-.2h0c.7,0,1.4-.2,2.1-.3h.5c.7,0,1.4-.2,2.2-.4,18.1-3.5,25.1-19.5,27.1-34.6,1.3-10.2.5-19.9-.8-25.2-3.1-13.1-8.3-24.9-5.6-42.4,1.8-12-7.1-56,15.7-80.6,1.3-1.4,2.4-2.8,3.4-4.4,4.5-7,6.8-15.7,7.8-23.6.2-1.2.3-2.4.4-3.5,1.1,6.7,3.4,14.9,8.1,24.3,12.8,25.3,56.7,29,56.7,29,0,0-.7-1.5-1.7-4.8,0-.2-.2-.5-.2-.8-.2-.6-.4-1.3-.5-2-1.3-5.1-2.8-12.8-3.6-23.8-1.4-18.7,12.7-33.7,21-46.8.4-.7.8-1.3,1.2-2,.5-.8,1-1.7,1.4-2.5.3-.5.5-1,.8-1.5.2-.5.4-.9.6-1.4,1.7-3.9,3.9-9.1,5.7-14.9,0-.3.2-.7.3-1,.2-.8.5-1.6.7-2.4,1.2-4.6,2.1-9.5,2-14.3,0-6.3-1.7-12.5-6-17.6h0l-.8.5ZM56.3,311.7c-13.1-18.6-.6-31.8-.6-31.8l-6.1.4,5.1-8.8s-4.9.2-11.4,6.3c-4.4,4.2-4.9,14-4.9,14,0,0-4-3.2-3.7-16.7s22.5-20.5,22.5-20.5l43.7-19.6s0,1.5-8.2,15.8-4.4,8.7-16,31c-11.4,21.8-6,58.8-5.7,60.4-.1-.9-2.2-12.7-14.8-30.6h.1ZM202.6,547.3c7.3-5.8,11.8-12.3,13.4-14.8,13.9,6.2,24.9,9.2,28.5,10.1,1,3.1,1.8,6.2,2.5,9.4h-22.6c-2.4,0-4.6.9-6.2,2.5-4.8-2-10-4.4-15.4-7.3h-.2ZM221,424.4c-14.2,2-10.5,7.6-9.2,9.1h.4v.3c-.1,0-.3,0-.4-.3-2.2-.2-12.2-2-8.2-13.6,4.5-12.9,44-11.2,44.7-11.2,0,0,40.2-1.7,44.8,11.3,4,11.6-6,13.3-8.2,13.6l-.3.3v-.3c0,0,0,0,.3,0,1.2-1.4,5-7-9.2-9.1-16.3-2.3-17.2,4.5-15.5,8.3,3.2,7.2,10.5-2,10.1,3.8-.3,5.8-14.9,13.7-14.9,13.7l-7.1-15.8h0l-7.1,15.7s-14.6-7.9-14.9-13.7c-.3-5.8,6.9,3.3,10.1-3.8,1.7-3.8.9-10.7-15.5-8.3h.1ZM248.3,481.2s8.9,20.4,13.1,26.5c5.3,7.8,4.2,17.2-4.6,21.7-5.3,2.7-12,2.7-17.3,0-8.8-4.5-10-14-4.6-21.7,4.2-6.1,13.4-26.5,13.4-26.5h0ZM272.9,572.2l-13.1,38.1c-.2.5-.6.8-1.2.8h-28.5c-.5,0-1-.3-1.2-.8l-13.1-38.1c-.3-.8.3-1.6,1.2-1.6h8.6c.9,0,1.5-.9,1.1-1.7l-3.7-7.7c-.4-.8.2-1.7,1.1-1.7h23.8c.2,2.6,0,5-.8,7.6-.6-.2-1.2-.4-1.9-.4-2.7,0-5,2.2-5,4.8s2.2,4.8,5,4.8,5-2.2,5-4.8,0-1.2-.3-1.7c2.9-2.6,4.7-6.4,5.2-10.3h9.5c.9,0,1.5.9,1.1,1.7l-3.7,7.7c-.4.8.2,1.7,1.1,1.7h8.6c.8,0,1.4.8,1.2,1.6h0ZM271.2,555c-1.7-1.9-4.1-2.9-6.6-2.9h-10.1c-.8-3.7-2.3-7.4-4.5-10.5,3.8-1.2,9.7-3.1,16.8-5.9.8,0,1.6-.2,2.4-.4,6.4-1.2,10.9-3.6,10.9-3.6,0,0,3.9,6.9,11.5,13.7-7.1,4.1-14,7.3-20.3,9.7h-.1ZM390.7,332.2c-3.7-24.4,3.5-24.7-5-49.6s-14.2-37.1-25.7-46.6-39.2,3.7-39.2,3.7c0,0,23.3,18.8,31.8,32.2,8.5,13.4,12,8.8,10.7,42.1s-2,40-14.2,54.8c-3.2,3.9-5.3,9.4-6.5,15.5-.8,6.2-1.8,15.2-1.9,23.8-1.6-2.1-3.7-4.2-6.1-6.3-2.6-8.6-9.8-28.6-24.3-39.5-18.8-14.2-32.9-13.7-32.9-13.7,0,0,20.7,11.6,31.4,27.6,5.2,7.7,7.6,12.6,8.8,15.7-14.6-4.6-30.8-.8-30.8-.8,0,0,25.3,2.2,36.3,13.5,19.2,19.7,16.6,55.1,16.6,55.4-1,7.7-2.1,14.8-3,19.7-1.6,18.1-11.7,27.2-11.7,27.2,0,0,7.2.2,10.1-2.6,3.3-3.1,7-7.3,7-7.3,0,0,2.1,4.8,3.2,14.2,1.1,9.3-.6,15.8-3.2,21.6-2.6,5.8-28.5,15.1-45.8-2.9-14.6-15.2-31.6-40.8-39.3-54.5s16.5-16.5,32.1-28.3,21.2-18.2,10.2-34.5c-11-16.2-51.1-13.2-51.1-13.2h0c-.9-.2-40.2-3-51,13.1-11,16.2-5.4,22.7,10.2,34.5,15.6,11.8,39.8,14.5,32.1,28.3s-24.7,39.3-39.3,54.5c-17.3,18.1-43.1,8.7-45.8,2.9-2.6-5.8-4.3-12.3-3.2-21.6,1.1-9.5,3.2-14.2,3.2-14.2,0,0,3.7,4.2,7,7.3,3,2.8,10.1,2.6,10.1,2.6,0,0-10.1-9.1-11.7-27.2-.8-5-2-12.1-3-19.7,0-.3-2.7-35.7,16.6-55.4,11-11.3,36.3-13.5,36.3-13.5,0,0-16.3-3.9-30.8.8,1.2-3.1,3.7-8,8.8-15.7,10.7-15.9,31.4-27.6,31.4-27.6,0,0-14.1-.5-32.9,13.7-14.5,10.9-21.8,31-24.3,39.5-2.5,2.1-4.5,4.2-6.1,6.3,0-8.6-1-17.6-1.9-23.8-1.3-6-3.3-11.6-6.5-15.5-12.2-14.7-12.9-21.5-14.2-54.8-1.3-33.2,2.2-28.6,10.7-42s31.8-32.2,31.8-32.2c0,0-27.7-13.2-39.2-3.7s-17.2,21.7-25.7,46.6-1.3,25.2-5,49.6c-6.5,43.4-42.4,55.5-42.4,55.5,0,0,14.3-10.3,23.4-37.4,8.1-24-2.5-43.5,9.5-71.2,12-27.6,11.9-31.7,15.5-42.4,2.9-8.4,16-23.7,33.1-22.3,17.1,1.4,22.2,12.2,52,13.2,28.6,1,49.5.3,51.1.3h0s21.5.8,51.2-.2c29.8-1,34.9-11.7,52-13.2,17.1-1.4,30.2,13.9,33.1,22.3,3.6,10.6,3.5,14.8,15.5,42.4,12,27.6,1.4,47.2,9.5,71.2,9.2,27.1,23.4,37.4,23.4,37.4,0,0-35.8-12.1-42.3-55.5h.3ZM458.3,292s-.4-9.8-4.9-14c-6.4-6.2-11.4-6.3-11.4-6.3l5.1,8.8-6.1-.4s12.5,13.2-.6,31.8c-12.6,17.9-14.6,29.7-14.8,30.6.2-1.7,5.7-38.6-5.7-60.4-11.6-22.3-7.8-16.7-16-31s-8.2-15.8-8.2-15.8l43.7,19.6s22.3,6.9,22.5,20.5-3.7,16.7-3.7,16.7h.1Z"/>
        <path d="M284.6,433.8l.3-.3h-.4v.3h.1Z"/>
        <path d="M215.4,471.3l2.2.3h.1l2.2.3h.2l3.2-4.9s0-.2,0-.2l-1.4-.2c-.2,0-.2-.2,0-.3l.8-1c0,0,0-.2,0-.3l-3.3-.5h-.1l-3.3-.5c-.1,0-.3,0-.2.2l.5,1.2c0,0,0,.2-.2.2l-1.4-.2c-.1,0-.2,0-.2.2l1.4,5.5s0,0,.2,0h-.4Z"/>
        <path d="M197.5,468.9l2.3.3h.1l2.3.3h.2l2.5-5c0,0,0-.2-.2-.3l-1.5-.2c-.1,0-.2-.2-.2-.3l.7-1c0,0,0-.3-.2-.3l-3.4-.5h-.1l-3.4-.5c-.2,0-.3,0-.2.2l.6,1.2c0,0,0,.2-.2.2l-1.5-.2c-.1,0-.2,0-.2.2l2.2,5.7s.1,0,.2,0h0Z"/>
        <path d="M178.8,466.4l2.3.3h.1l2.3.3h.2l1.7-5.2c0,0,0-.2-.2-.3l-1.5-.2c-.2,0-.3-.2-.2-.3l.5-1.1c0,0,0-.3-.2-.3l-3.5-.5h-.1l-3.5-.5c-.2,0-.2,0-.2.2l.8,1.3c0,0,0,.3-.2.2l-1.5-.2c-.1,0-.2,0-.2.2l3.1,5.9s.1,0,.2,0h.1Z"/>
        <path d="M213.3,484.7l2,.2h.1l2,.2h.2l2.7-3.8s0-.2,0-.2l-1.2-.2c-.1,0-.2,0-.1-.2l.7-.8s0-.2-.1-.2l-2.9-.4h-.1l-3-.4c-.1,0-.2,0-.2.2l.4.9s0,.2-.2.2l-1.3-.2c-.1,0-.2,0-.2.2l1.3,4.3h.1v.2Z"/>
        <path d="M203.6,479.1l-1.3-.2c-.1,0-.2,0-.2-.2l.6-.8s0-.2-.2-.2l-3-.4h-.1l-3-.4c-.1,0-.2,0-.2.2l.6,1s0,.2-.2.2l-1.3-.2c-.1,0-.2,0-.2.2l2,4.4h.2c0,0,2,.3,2,.3h.1l2,.3h.2l2.1-3.9s0-.2-.2-.2h.1Z"/>
        <path d="M180.9,480.7l2.1.2h.1l2,.3h.2l1.5-4s0-.2-.2-.2l-1.3-.2c-.1,0-.2,0-.2-.2l.5-.8s0-.2-.2-.2l-3.1-.4h-.1l-3.1-.4c-.1,0-.2,0-.1.2l.7,1s0,.2-.1.2l-1.3-.2c-.1,0-.2,0-.1.2l2.7,4.6s.1,0,.2,0h0l-.2-.2Z"/>
        <path d="M211.6,495.4l1.8.2h0l1.8.2h.2l2.4-3s0,0-.1-.2h-1.1c-.1,0-.2-.2-.1-.3l.6-.6s0-.2-.1-.2l-2.6-.3h0l-2.6-.3c-.1,0-.2,0-.2,0l.4.8s0,.2-.2,0h-1.1c-.1,0-.2,0-.2,0l1.2,3.5h.1-.2Z"/>
        <path d="M202.9,490.8h-1.1c-.1,0-.2-.2-.1-.3l.5-.6s0-.2-.1-.2l-2.7-.3h0l-2.7-.3c-.1,0-.2,0-.1,0l.5.8s0,.2-.1,0h-1.2c-.1-.2-.2,0-.1,0l1.8,3.6h.1l1.8.2h0l1.8.2h.1l1.9-3.1s0-.2-.1-.2h-.2Z"/>
        <path d="M187.7,489.1h-1.2c-.1-.2-.2-.2-.2-.3l.4-.7s0-.2-.2-.2l-2.8-.3h-.1l-2.8-.3c-.1,0-.2,0-.1,0l.6.8s0,.2-.1,0h-1.2c-.1-.2-.2,0-.1,0l2.3,3.7h.2l1.8.2h0l1.8.2h.1l1.4-3.2s0-.2-.2-.2h.4Z"/>
        <path d="M276.7,472l2.2-.3h0l2.2-.3s.2,0,.2,0l1.4-5.5c0,0,0-.2-.2-.2l-1.4.2c-.2,0-.3,0-.2-.2l.5-1.2c0,0,0-.2-.2-.2l-3.3.5h0l-3.3.5c-.2,0-.2.2,0,.3l.8,1s0,.2,0,.3l-1.4.2c0,0-.2,0,0,.2l3.2,4.9h.2-.4Z"/>
        <path d="M301.4,462.9l-1.5.2q-.2,0-.2-.2l.6-1.2c0,0,0-.2-.2-.2l-3.4.5h0l-3.4.5c-.2,0-.2.2-.2.3l.7,1c0,0,0,.2-.2.3l-1.5.2c0,0-.2.2-.2.3l2.5,5h.2l2.3-.3h0l2.3-.3s.2,0,.2,0l2.2-5.7c0,0,0-.2-.2-.2h0Z"/>
        <path d="M313.1,467.1l2.3-.3h0l2.3-.3s.2,0,.2,0l3.1-5.9c0,0,0-.2-.2-.2l-1.5.2q-.2,0-.2-.2l.8-1.3c0,0,0-.3-.2-.2l-3.5.5h0l-3.5.5c-.2,0-.3.2-.2.3l.5,1.1c0,0,0,.3-.2.3l-1.5.2c-.2,0-.3.2-.2.3l1.7,5.2h.3Z"/>
        <path d="M279.3,485.3l2-.2h0l2-.2h.2l1.3-4.3s0-.2-.2-.2l-1.3.2c0,0-.2,0-.2-.2l.4-.9s0-.2-.2-.2l-3,.4h0l-2.9.4c0,0-.2,0,0,.2l.7.8s0,.2,0,.2l-1.2.2c0,0-.2,0,0,.2l2.7,3.8h.2l-.2-.2Z"/>
        <path d="M301.2,478.1l-1.3.2c0,0-.2,0-.2-.2l.6-1s0-.2-.2-.2l-3,.4h0l-3,.4c0,0-.2,0-.2.2l.6.8s0,.2-.2.2l-1.3.2c0,0-.2,0-.2.2l2.1,3.9h.2l2-.2h0l2-.3s0,0,.2,0l2-4.4s0-.2-.2-.2h.1Z"/>
        <path d="M311.5,481.3l2-.2h0l2.1-.3s.2,0,.2,0l2.7-4.6s0-.2-.2-.2l-1.3.2c0,0-.2,0,0-.2l.7-1s0-.2,0-.2l-3.1.4h0l-3.1.4c0,0-.2,0-.2.2l.5.8s0,.2-.2.2l-1.3.2c0,0-.2,0-.2.2l1.5,4h.2v.2Z"/>
        <path d="M286.2,491.8h-1.1c0,0-.2,0-.2,0l.4-.8s0-.2-.2,0l-2.6.3h0l-2.6.3c0,0-.2,0,0,.2l.6.6s0,.2,0,.2h-1.1c0,0-.2.2,0,.3l2.3,3h.2l1.8-.2h0l1.8-.2h0l1.2-3.5s0,0-.2,0h-.1Z"/>
        <path d="M301,490.1h-1.2c0,.2-.2,0-.2,0l.5-.8s0-.2-.2,0l-2.7.3h0l-2.7.3c0,0-.2,0,0,.2l.5.6s0,.2,0,.2h-1.2c0,0-.2.2-.2.3l1.9,3.1h.2l1.8-.2h0l1.8-.2h.2l1.8-3.6s0,0-.2,0h.1Z"/>
        <path d="M310.3,492.6l1.8-.2h0l1.8-.2h.2l2.3-3.7s0,0,0,0h-1.2c0,.2-.2,0,0,0l.6-.8s0-.2,0,0l-2.8.3h0l-2.8.3c0,0-.2,0-.2.2l.4.7s0,.2-.2.2h-1.2c0,.2-.2.2-.2.3l1.4,3.2h.4Z"/>
        <path d="M250.2,236.1c-.8,3.5-4.5,20.6-4.5,43.7s3.9,44.6,4.6,47.7v.5s4.7-22.3,4.7-48.1-4.7-44.4-4.7-44.4v.6h0Z"/>
        <path d="M299.9,294.4c16.2-6.4,14.7-18.8,14.7-18.8,0,0-10.3,9.1-14.7,10.9-8,3.2-16.8,2.4-16.8,2.4,0,0,7.8,9.1,16.8,5.6h0Z"/>
        <path d="M285.5,311.6c-16.8-.8-13.9-18.3-13.9-18.3,0,0-14.2,29.6,16,30.4h1.1c4.4,6.7,19,25,39.5,8.5,16.3-13.2-2.1-33.3-2.1-33.3h-.2c1.7-1.3,3.5-2.5,5.5-3.5,9.6-4.7,24-2.9,24-2.9,0,0-17.2-19.5-39.2,1.4-13.5,12.8-22.8,18.2-30.6,17.8h0ZM308.8,322.6c-1.9.2-3.6-1.1-3.8-3,1.8-1.1,3.4-2.3,4.9-3.6,1.1.5,1.9,1.5,2,2.8.2,1.9-1.2,3.6-3,3.8h-.1ZM320.9,315.5c-.3-3-1.7-5.6-3.6-7.5.7-.8,1.4-1.7,2.1-2.5,3.8,1.9,6.5,5.5,7,10,.8,7-4.3,13.3-11.2,14.1-1.4.2-2.7,0-4-.2,6.2-1.4,10.5-7.3,9.8-13.8h0Z"/>
        <path d="M200.6,294.3c9,3.6,16.8-5.6,16.8-5.6,0,0-8.8.8-16.8-2.4-4.4-1.8-14.7-10.9-14.7-10.9,0,0-1.4,12.4,14.7,18.8h0Z"/>
        <path d="M215,311.5c-7.8.4-17.1-5-30.6-17.8-22.1-21-39.2-1.4-39.2-1.4,0,0,14.3-1.8,24,2.9,2.1,1,3.9,2.2,5.5,3.6h-.2s-18.5,20.1-2.1,33.2c20.5,16.5,35.1-1.8,39.5-8.5h1.1c30.2-.8,16-30.4,16-30.4,0,0,2.9,17.5-13.9,18.3h-.1ZM185.5,329.5c-7-.8-12-7.1-11.2-14.1.5-4.5,3.2-8.1,7-10,.7.8,1.4,1.7,2.1,2.5-2,2-3.3,4.6-3.6,7.5-.7,6.5,3.6,12.4,9.8,13.8-1.3.3-2.6.3-4,.2h0ZM191.7,322.5c-1.9-.2-3.3-1.9-3-3.8.1-1.2.9-2.3,2-2.8,1.5,1.3,3.1,2.5,4.9,3.6-.2,1.9-1.9,3.2-3.8,3h-.1Z"/>
        <path d="M234.2,585.9c-.5-3.2-2.2-6.1-3.7-6.1h-6.6l.8,5.5h.9l6.2,21.8h3.9c.9,0,1.5-1.1,1.3-2.5l-2.8-18.6h0ZM234.8,604.8h-1.8l-4.7-19.5h2.7c.2,0,.5.4.6.9l3.5,18.1c0,.2,0,.5-.2.5h0Z"/>
        <path d="M241.7,579.8h-3.7c-1.5,0-2.5,2.9-2,6.2l2.2,18.6c.2,1.5,1.1,2.6,2,2.6h2.2c.9,0,1.7-1.1,1.7-2.6l.3-18.6c0-3.2-1.2-6.1-2.7-6.1h0ZM241.9,604.8h-1.6c-.2,0-.3-.2-.3-.5l-1.4-18.1c0-.5,0-.9.4-.9h2.3c.2,0,.4.4.5.9l.5,18.2c0,.2,0,.5-.3.5h-.1Z"/>
        <path d="M248.6,595.1l-.3,3.3h1.7l-.8,5.9c0,.2-.2.5-.4.5h-1.6c-.2,0-.3-.2-.3-.5l1.5-18.2c0-.5.3-.9.5-.9h2.3c.2,0,.4.4.3.9l-.8,5.9h2.4l1.1-6.2c.6-3.2-.2-6.2-1.7-6.2h-3.7c-1.5,0-2.9,2.9-3,6.2l-.8,18.6c0,1.5.7,2.6,1.6,2.6h2.2c.9,0,1.9-1.1,2.1-2.6l1.7-9.4h-4Z"/>
        <path d="M263.6,579.7h-3.7c-1.5,0-3.4,2.9-4,6.2l-1.3,6.7c-.3,1.4-.2,2.7.2,3.4l2.5,4.4v.4l-1,3.5c0,.2-.3.5-.4.5h-1.6c-.2,0-.2-.2-.2-.5l.6-2.3h-2l-.5,2.5c-.3,1.5.2,2.6,1.2,2.6h2.2c.9,0,2.1-1.1,2.5-2.6l1.4-4c.4-1.1.4-2.2,0-2.8l-2.4-5v-.6l1.5-5.9c0-.5.4-.9.7-.9h2.3c.2,0,.3.4.2.9l-1.2,4.2h2.5l1.5-4.5c1.1-3.3.8-6.2-.7-6.2h-.3Z"/>
      </g>
      <g>
        <path d="M87,37.9v47.3c0,6.5-3.2,13.2-8.5,17.9-7.1,6.3-14.2,12.6-21.2,19-2.6,2.4-5.8,4.1-9,4.8-4.5,1-6.7,1.5-11.2,2.5v56.2c-9.6,2.3-19.1,4.6-28.7,7.1V56.5c-3.4.9-5,1.3-8.4,2.3,2.4-9,4.7-18,7.1-27,18.6-4.8,37.3-9.2,56.1-13.1,11.9-2,24.5,6.3,23.8,19.4h0v-.2ZM58,48.6c0-2.2-1.8-3.6-4-3.1-6.8,1.4-10.2,2.2-17,3.8v54.9c2.8-.6,4.2-1,7.1-1.6.8-.2,1.6-.6,2.2-1.2,4-3.7,6-5.5,10-9.1,1.1-1,1.7-2.3,1.7-3.6v-40h0Z"/>
        <path d="M189.2,1.9v161.3c-9.8.7-19.5,1.5-29.3,2.3v-56.2c-8.5.8-12.8,1.3-21.2,2.3v56.2c-9.7,1.2-19.4,2.5-29.1,3.9V35.5c-3.4.5-5.1.8-8.6,1.3,2.4-8.7,4.8-17.5,7.2-26.2,10.1-1.5,20.3-2.8,30.5-4.1v80c8.5-1,12.7-1.5,21.2-2.3V4.2c9.8-.9,19.5-1.6,29.3-2.3h0Z"/>
        <path d="M241.3,0v161.3c-9.8.1-19.5.4-29.3.7V25.8c-3.5.1-5.2.2-8.6.4,2.4-8.5,4.9-16.9,7.3-25.4C220.9.4,231.1.2,241.4,0h0Z"/>
        <path d="M327.9,139.4v25.1c-21.3-1.7-42.5-2.7-63.9-3.1V25.2h-8.6c2.4-8.3,4.8-16.7,7.3-25h1.4c9.8.2,19.5.5,29.3.9v136.2c11.5.5,23,1.3,34.6,2.2h0Z"/>
        <path d="M414.1,150.6v25.1c-21.1-3.6-42.2-6.6-63.5-9V30.5c-3.4-.4-5.2-.6-8.6-.9,2.4-8.1,4.8-16.2,7.3-24.4.5,0,.8,0,1.3.1h0c9.7,1.1,19.4,2.3,29.2,3.6v136.2c11.5,1.6,22.9,3.4,34.3,5.4h0Z"/>
        <path d="M499,33.4v69.3c.9,13.1-12,20.3-23.5,17.8-.5-.1-.7-.2-1.2-.3v68.1c-9.6-2.3-19.2-4.5-28.8-6.6v-68.1c-.5-.1-.7-.2-1.2-.3-13.3-2.4-23.1-15.6-23.7-28.5v-44.3c-3.4-.6-5.1-.9-8.5-1.5,2.9-9.5,4.3-14.3,7.2-23.8,10.1,1.9,20.2,3.9,30.2,6v64.2c0,2.2,1.8,4.4,3.9,4.8,5.2,1.1,7.8,1.8,13,3,2.2.5,3.9-.9,3.9-3V26.1c9.6,2.4,19.1,4.8,28.6,7.4h0Z"/>
      </g>
    </g>
  </g>
</svg>