<?xml version="1.0" encoding="UTF-8"?>
<svg id="ICON" xmlns="http://www.w3.org/2000/svg" version="1.1" viewBox="0 0 605.4 561.7">
  <!-- Generator: Adobe Illustrator 30.5.1, SVG Export Plug-In . SVG Version: 2.1.4 Build 3)  -->
  <defs>
    <style>
      .st0 {
        fill: none;
      }
    </style>
  </defs>
  <g id="FULL_COLOR">
    <path d="M597.3,78.2c-6.3-7.5-20.9-15.5-38-23.8-.5-.2-.9-.5-1.4-.7-3.1-1.5-6.2-2.9-9.4-4.4-.7-.3-1.4-.6-2.1-1-1.6-.7-3.2-1.5-4.8-2.2-1-.5-2-.9-2.9-1.3-.3-.1-.5-.2-.8-.4-1.3-.6-2.5-1.1-3.8-1.7-1-.4-1.9-.9-2.9-1.3-1.4-.6-2.8-1.2-4.1-1.9-3.2-1.5-6.4-2.9-9.5-4.3-1-.5-2-.9-2.9-1.4-.6-.3-1.3-.6-1.9-.9-.9-.4-1.8-.9-2.7-1.3-1.3-.6-2.6-1.2-3.8-1.9-.7-.3-1.3-.7-2-1-2-1-3.9-2-5.8-2.9-4.5-2.3-8.5-4.6-12-6.9-.4-.3-.8-.5-1.2-.8-1.5-1-2.8-2-4.1-2.9-.5-.4-1-.8-1.5-1.2-4.3-3.6-8.4-6.4-12.5-8.5-3.4-1.8-6.7-3.1-10.1-4-.7-.2-1.3-.4-2-.5-3.3-.8-6.7-1.1-10.1-1-1.3,0-2.7.1-4.1.2-8.9.9-18.1,4.2-28.4,9.2-15.7,7.7-25.7,10.6-36.6,11.2h-.2c-1.1,0-2.1,0-3.2.1h-3.4c-1.2,0-2.3,0-3.6-.1-3.7-.2-7.6-.5-12-.8-11.9-1-24.8-.7-34.7-.1h-.2c-1.7,0-3.2.2-4.7.3h-.2c-1,0-1.9.1-2.8.2-.5,0-.9,0-1.3.1-.5,0-.9,0-1.3.1-3,.3-5,.5-5.6.5h0s-1.4-.2-3.9-.5c-.9,0-1.9-.2-3-.3-.6,0-1.2,0-1.8-.1-2.8-.2-6.1-.4-9.8-.6h-.2c-9.5-.5-21.3-.6-32.3.3-7.3.6-13.4,1-19,1-12.4-.2-22.6-2.8-40-11.3C180.1,3.2,169-.4,158.2,0c-1.4,0-2.7.1-4,.3-7.9,1-15.7,4.2-23.9,10.2-1.5,1.1-3.1,2.3-4.6,3.6-1.8,1.5-3.9,3-6.2,4.5-.7.5-1.4.9-2.1,1.4-4.4,2.7-9.5,5.5-15.2,8.3h0c-1.3.6-2.6,1.3-4,2h-.1c-2,1-4,2-6.1,2.9,0,0-.2,0-.2.1-21.8,10.2-47.8,21.1-65.6,31.4-.7.4-1.4.8-2,1.2-1.1.7-2.2,1.3-3.3,2-.5.3-.9.6-1.4.9-.4.2-.7.5-1.1.7-4.4,2.9-7.9,5.8-10.2,8.6C.2,87.6-1,99.5.7,111.2c.1.8.2,1.6.4,2.3,2.2,12.4,7.3,24.3,10.7,32.2,8.6,20,36.1,43,33.8,73-.1,1.8-.3,3.5-.5,5.2-2.6,26.3-7.8,37.1-7.8,37.1,0,0,59.1-5,76.4-39,.3-.5.5-1,.8-1.5,5.9-12,8.8-22.5,10.2-31.2.3,2.8.6,5.7,1.1,8.7,2,12,6.2,24.8,14.5,33.8,11,11.8,16.5,27,19.1,42.3.1.8.3,1.5.4,2.3.4,2.7.8,5.4,1,8,2.4,24-.8,46.8.5,55.9,1.5,9.6,1.1,17.9,0,25.6-.4,3-1,5.8-1.6,8.6-.5,2.2-1.1,4.5-1.6,6.6-.4,1.6-.9,3.3-1.3,4.9-.4,1.5-.8,3-1.2,4.5-.4,1.3-.7,2.7-1,4-.2.8-.4,1.7-.6,2.5v.4c-1.8,7.2-3,20.5-1.1,34.3,0,.5.1,1.1.2,1.6.3,2.1.7,4.3,1.2,6.4.1.5.2,1.1.4,1.6.3,1.1.5,2.1.9,3.2.5,1.6,1,3.1,1.6,4.7s.8,2,1.2,3,.9,2,1.4,2.9c.6,1.3,1.3,2.5,2.1,3.7,1,1.6,2.1,3.2,3.3,4.7.6.7,1.2,1.4,1.8,2.1.4.4.8.9,1.2,1.3.4.4.9.8,1.3,1.2,1,1,2.2,1.9,3.3,2.7,1.9,1.4,3.9,2.6,6.1,3.7h0c3.1,1.5,6.6,2.7,10.4,3.4.9.2,1.7.3,2.6.5.2,0,.5,0,.8,0,.6,0,1.2.2,1.9.2h.8c.8,0,1.5.2,2.2.2h.2c.8,0,1.6,0,2.4,0h5.5c.8,0,1.5,0,2.3-.2h.5c.6,0,1.2,0,1.7-.2h.6c.6,0,1.2-.2,1.8-.3h.4c.7,0,1.5-.3,2.2-.4h.4c.6,0,1.2-.3,1.7-.4.2,0,.4,0,.5,0,.6-.2,1.1-.3,1.7-.5h.3c.7-.2,1.4-.4,2-.7h.2c.6-.2,1.2-.4,1.8-.7.1,0,.3,0,.4-.2.5-.2,1.1-.4,1.6-.7.1,0,.2,0,.3,0,.6-.3,1.3-.6,1.9-.9h0c1.1.7,2.2,1.3,3.2,2,.1,0,.2,0,.3.2,1.1.6,2.1,1.3,3.2,1.9.1,0,.2,0,.4.2,2.1,1.2,4.2,2.4,6.3,3.6.1,0,.3.2.4.2,1,.6,2,1.1,3.1,1.7h.1c1,.5,2,1,3,1.6.1,0,.2,0,.4.2l3,1.5c.1,0,.2,0,.4.2,1,.5,2,1,2.9,1.5h0c-.7.4-1.3.8-1.9,1.4h0c-.3.2-.5.5-.8.8h0c-.3.3-.5.6-.8.9-2.3,3.1-2.9,7.1-1.7,10.7l17.6,51.4c.6,1.8,1.6,3.4,3,4.7.3.3.6.5.9.8.3.2.6.4.9.6,1.9,1.3,4.2,2,6.6,2h38.4c5.2,0,9.7-3.2,11.4-8l17.6-51.4c.2-.5.3-.9.4-1.4.2-.9.3-1.9.2-2.8,0-1.1-.2-2.2-.6-3.2-.4-1.2-.9-2.3-1.7-3.3-.3-.4-.6-.7-.9-1.1h0c-.3-.3-.7-.6-1-.9h0c1.2-.6,2.4-1.2,3.6-1.8h0c1.2-.6,2.4-1.2,3.6-1.9h0c1.2-.7,2.5-1.3,3.8-2h0c1.3-.7,2.6-1.4,3.9-2.2h0c1.3-.7,2.6-1.5,4-2.3h0c4-2.3,8-4.9,12.2-7.6h0c.7.4,1.3.8,2,1.1,0,0,0,0,.2,0,.7.4,1.4.7,2.1,1h0c.7.3,1.4.7,2.2,1,0,0,.2,0,.3,0,.7.3,1.4.6,2.2.9h0c.7.3,1.5.5,2.2.8,0,0,.2,0,.4,0,.7.2,1.5.5,2.2.7h0c.8.2,1.6.4,2.3.6.2,0,.3,0,.5,0,.8.2,1.5.3,2.3.5h0c.8.2,1.6.3,2.5.4h.5c.8,0,1.6.2,2.4.3h0c.8,0,1.7,0,2.6.2h6.6c.9,0,1.8,0,2.7-.2h0c.9,0,1.9-.2,2.8-.3h.7c1-.2,1.9-.3,2.9-.5,23-4.5,32.7-23.8,35.9-43,2.6-14.9,1.3-29.8-.5-37.5-4.1-17.6-11.2-33.6-7.6-57.2,1.1-7.3-.8-23.5-.3-42.1h0c0-2,0-3.9.2-5.8v-.2c1.1-21,5.8-44,21.1-60.5,2.6-2.8,4.8-6,6.7-9.4.9-1.7,1.8-3.5,2.5-5.3,3.1-7.4,4.9-15.5,5.9-23.1.2-1.6.4-3.2.5-4.7,1.4,9,4.6,20.1,11,32.7,17.3,34.1,76.3,39,76.3,39h0s-.8-1.7-2-5.5c-.2-.6-.4-1.3-.6-2-.2-.8-.5-1.7-.7-2.7-.2-.6-.3-1.3-.5-2,0-.2,0-.5-.2-.7-1.6-6.8-3.2-16.4-4.2-29.3-2.1-27.1,20.1-48.5,30.8-67.1.8-1.4,1.5-2.7,2.1-4,.3-.6.6-1.3.9-1.9.2-.6.5-1.1.8-1.8.4-.9.8-1.8,1.2-2.8.6-1.5,1.3-3.1,1.9-4.7.3-.9.7-1.7,1-2.6.9-2.4,1.8-4.9,2.6-7.5.2-.8.5-1.6.7-2.4.5-1.7,1-3.4,1.4-5.2,0-.4.2-.7.2-1.1.3-1.2.5-2.4.8-3.7.2-1,.3-2,.5-3.1.2-1.4.3-2.8.5-4.2,0-1.6.2-3.3.2-4.9,0-8.5-2.3-16.8-8.1-23.8h0v-.4ZM570.7,105.2l-8.2-.5s16.8,17.8-.9,42.8c-17,24.1-19.7,40-19.9,41.2h0c.3-2.2,7.6-52-7.7-81.4-15.7-30.1-10.6-22.5-21.6-41.8s-11-21.3-11-21.3l59,26.5s30,9.3,30.4,27.6c.3,18.3-5,22.6-5,22.6,0,0-.6-13.2-6.5-18.9-8.7-8.3-15.3-8.5-15.3-8.5l6.8,11.8h0ZM104,44.1s0,2-11,21.3-5.9,11.7-21.6,41.8c-15.3,29.4-8,79.2-7.7,81.4-.2-1.2-2.9-17.1-19.9-41.2-17.7-25.1-.9-42.8-.9-42.8l-8.2.5,6.8-11.8s-6.6.2-15.3,8.5c-6,5.7-6.5,18.9-6.5,18.9,0,0-5.3-4.3-5-22.6.3-18.3,30.4-27.6,30.4-27.6l59-26.5h0ZM259.1,445c18.7,8.4,33.5,12.4,38.3,13.6,1.4,4.1,2.4,8.4,3.3,12.7h-30.5c-3.2,0-6.2,1.2-8.4,3.4-6.5-2.6-13.5-5.9-20.8-9.8,9.9-7.8,15.9-16.5,18-19.9h.1ZM302.9,312.8l-9.6,21.2s-19.6-10.7-20-18.4c-.4-7.8,9.3,4.5,13.7-5.2,2.3-5.2,1.2-14.4-20.9-11.2h-.2c-19.2,2.8-14.1,10.3-12.4,12.2h.6l-.2.4s-.2-.2-.4-.5c-3-.3-16.5-2.7-11-18.3,6.1-17.4,59.4-15.1,60.3-15.1h0c0,0,54.2-2.3,60.3,15.2,5.5,15.6-8,17.9-11,18.3-.2.3-.4.5-.4.5l-.2-.4h.6c1.7-1.9,6.7-9.5-12.4-12.2-22-3.2-23.2,6-20.9,11.2,4.4,9.7,14.1-2.6,13.7,5.2-.4,7.8-20,18.4-20,18.4l-9.6-21.2M302.7,375.9s12,27.5,17.7,35.8c7.2,10.5,5.7,23.2-6.2,29.3h0c-7.2,3.7-16.1,3.7-23.3,0-11.9-6.1-13.5-18.8-6.2-29.3,5.7-8.2,18.1-35.8,18.1-35.8h0ZM330.9,448.6c8.7-1.7,14.6-4.9,14.6-4.9,0,0,5.2,9.3,15.5,18.5-9.6,5.5-18.9,9.8-27.3,13.1-2.3-2.5-5.5-4-9-4h-13.6c-1.1-5-3.1-10-6.1-14.2,5.2-1.6,13.1-4.2,22.6-8,1.1-.2,2.2-.3,3.2-.5h0ZM322.8,496.4h11.6c1.1,0,1.9,1.1,1.6,2.1l-17.6,51.4c-.2.7-.8,1.1-1.6,1.1h-38.4c-.7,0-1.3-.4-1.6-1.1l-17.6-51.4c-.4-1,.4-2.1,1.6-2.1h11.6c1.2,0,2-1.2,1.5-2.3l-5-10.3c-.5-1.1.3-2.3,1.5-2.3h32.2c.2,3.5-.2,6.8-1.1,10.2-.8-.3-1.7-.5-2.6-.5-3.7,0-6.7,2.9-6.7,6.5s3,6.5,6.7,6.5,6.7-2.9,6.7-6.5-.2-1.6-.4-2.3c3.9-3.5,6.4-8.7,7-13.9h12.8c1.2,0,2,1.2,1.5,2.3l-5,10.3c-.5,1.1.3,2.3,1.5,2.3h-.2ZM453.3,45.4c-15.6-12.8-52.8,5-52.8,5,0,0,31.4,25.4,42.8,43.5,11.5,18.1,16.1,11.9,14.4,56.7s-2.7,54-19.1,73.8c-4.3,5.2-7.1,12.7-8.8,20.8-1.1,8.4-2.4,20.5-2.5,32.1-2.2-2.8-4.9-5.7-8.2-8.5-3.5-11.5-13.3-38.5-32.8-53.3-25.3-19.1-44.3-18.5-44.3-18.5,0,0,27.9,15.7,42.4,37.2,7,10.4,10.3,17,11.9,21.2-19.6-6.3-41.5-1-41.5-1,0,0,34.1,3,49,18.2,25.9,26.5,22.4,74.2,22.3,74.6-1.3,10.3-2.9,19.9-4,26.6-2.2,24.4-15.8,36.7-15.8,36.7,0,0,9.7.2,13.7-3.5,4.4-4.2,9.4-9.8,9.4-9.8,0,0,2.9,6.5,4.3,19.2,1.4,12.5-.8,21.3-4.3,29.1-3.6,7.8-38.4,20.4-61.7-4-19.7-20.5-42.6-55-53-73.5s22.2-22.2,43.3-38.1,28.6-24.6,13.8-46.5-68.8-17.7-68.8-17.7h0c-1.2-.2-54.1-4-68.8,17.6-14.9,21.9-7.3,30.6,13.8,46.5s53.7,19.6,43.3,38.1-33.3,53-53,73.5c-23.3,24.4-58.2,11.8-61.7,4-3.6-7.8-5.8-16.5-4.3-29.1,1.5-12.7,4.3-19.2,4.3-19.2,0,0,5,5.6,9.4,9.8,4,3.8,13.7,3.5,13.7,3.5,0,0-13.7-12.3-15.8-36.7-1.1-6.7-2.6-16.2-4-26.6,0-.4-3.6-48.1,22.3-74.6,14.9-15.2,49-18.2,49-18.2,0,0-21.9-5.2-41.5,1,1.6-4.2,4.9-10.9,11.9-21.2,14.4-21.5,42.4-37.2,42.4-37.2,0,0-19-.6-44.4,18.5-19.5,14.7-29.4,41.7-32.8,53.3-3.3,2.8-6,5.7-8.2,8.5-.1-11.6-1.4-23.7-2.5-32.1-1.7-8.1-4.5-15.6-8.8-20.8-16.4-19.9-17.3-29-19.1-73.8-1.8-44.8,2.9-38.6,14.4-56.7s42.9-43.5,42.9-43.5c0,0-37.3-17.8-52.8-5-15.6,12.8-23.2,29.2-34.7,62.8s-1.8,33.9-6.7,66.8c-8.8,58.4-57.1,74.8-57.1,74.8,0,0,19.2-13.9,31.6-50.4,10.9-32.3-3.4-58.7,12.8-95.9,16.2-37.2,16-42.8,20.9-57.1,3.9-11.4,21.6-32,44.6-30.1s30,16.4,70.1,17.7c38.5,1.3,66.7.4,68.9.4h0c0,.1,29,1.1,69-.3,40.1-1.3,47-15.8,70.1-17.7s40.8,18.7,44.6,30.1c4.9,14.3,4.7,19.9,20.9,57.1s1.9,63.6,12.8,95.9c12.4,36.5,31.6,50.4,31.6,50.4,0,0-48.3-16.3-57.1-74.8-5-32.9,4.7-33.3-6.7-66.8-11.5-33.5-19.1-50-34.7-62.8h-.3Z"/>
    <path class="st0" d="M541.7,188.7h0"/>
    <path d="M258.4,362.5l3,.4h.1l3,.4c.1,0,.2,0,.3,0l4.3-6.5c0,0,0-.3-.2-.3l-1.9-.3c-.2,0-.3-.2-.2-.4l1.1-1.4c.1,0,0-.3-.2-.4l-4.5-.6h-.2l-4.5-.6c-.2,0-.4,0-.3.3l.6,1.6c0,.2-.1.3-.3.3l-1.9-.3c-.2,0-.3,0-.3.3l1.8,7.4s.1.2.2.2h.1Z"/>
    <path d="M234,359.1s.1.2.2.2l3.1.4h.1l3,.4c.1,0,.2,0,.3,0l3.3-6.8c0,0,0-.3-.2-.3l-2-.3c-.2,0-.3-.2-.2-.4l.9-1.4c.1-.2,0-.3-.2-.4l-4.6-.6h-.2l-4.6-.7c-.2,0-.4,0-.3.3l.9,1.7c0,.2,0,.3-.3.3l-2-.3c-.2,0-.3,0-.3.3l3,7.7h.1Z"/>
    <path d="M208.8,355.8s.2.2.3.2l3.1.4h.2l3.1.4c.1,0,.2,0,.2,0l2.3-7c0-.2-.1-.3-.3-.4l-2-.3c-.2,0-.4-.2-.3-.4l.7-1.5c0-.2,0-.4-.3-.4l-4.8-.7h-.2l-4.8-.7c-.2,0-.3,0-.2.3l1.1,1.7c.1.2,0,.3-.2.3l-2-.3c-.2,0-.3,0-.2.3l4.2,7.9h0v.3Z"/>
    <path d="M255.6,380.6l2.6.3h.1l2.6.3h.2l3.6-5.1c0,0,0-.2-.2-.3l-1.7-.2c-.2,0-.3-.2-.2-.3l1-1.1c.1,0,0-.3-.2-.3l-4-.5h-.1l-4-.5c-.2,0-.3,0-.3.2l.6,1.3c0,0,0,.2-.3.2l-1.7-.2c-.2,0-.3,0-.3.2l1.7,5.8s.1,0,.2,0h.4Z"/>
    <path d="M233.2,371.9l-1.8-.2c-.2,0-.3,0-.2.2l2.6,6s.1,0,.2,0l2.7.3h.1l2.7.4h.2l2.9-5.3c0,0,0-.2-.2-.3l-1.7-.2c-.2,0-.3-.2-.2-.3l.8-1.1c0,0,0-.3-.2-.3l-4.1-.5h-.1l-4.1-.5c-.2,0-.3,0-.2.2l.8,1.3c0,0,0,.3-.2.2h0Z"/>
    <path d="M213.8,367.7h-.1l-4.2-.6c-.2,0-.3,0-.2.2l1,1.3c.1,0,0,.3-.2.2l-1.8-.2c-.2,0-.3,0-.2.2l3.6,6.2s.1,0,.2.2l2.8.3h.1l2.8.4h.2l2.1-5.4c0,0,0-.3-.3-.3l-1.8-.2c-.2,0-.3-.2-.3-.3l.6-1.1c0,0,0-.3-.3-.3l-4.2-.5h.2Z"/>
    <path d="M253.3,395l2.4.3h.1l2.4.3h.2l3.2-4.1s0-.2-.2-.2l-1.5-.2c-.2,0-.2,0-.1-.2l.8-.8s0-.2-.1-.2l-3.5-.4h-.1l-3.5-.4c-.2,0-.3,0-.2.2l.5,1s0,.2-.2.2l-1.5-.2c-.1,0-.3,0-.2.2l1.6,4.7h.2c0,0-.3-.2-.3-.2Z"/>
    <path d="M233.2,387.9l-1.6-.2c-.1,0-.3,0-.2.2l2.4,4.8s.1,0,.2,0l2.4.3h.1l2.4.3h.2l2.6-4.2s0-.2-.2-.2l-1.5-.2c-.2,0-.3,0-.2-.2l.7-.9s0-.2-.2-.2l-3.6-.4h-.1l-3.6-.4c-.2,0-.3,0-.2.2l.7,1c0,0,0,.2-.2.2h0v-.2Z"/>
    <path d="M219.9,385.1s0-.2-.2-.2l-3.7-.4h-.1l-3.7-.5c-.2,0-.3,0-.2.2l.8,1.1c0,0,0,.2-.2.2l-1.6-.2c-.1,0-.2,0-.2.2l3.1,4.9s.1,0,.2,0l2.5.3h.1l2.5.3h.2l1.9-4.3s0-.2-.2-.2l-1.6-.2c-.2,0-.3-.2-.2-.2l.6-.9h0v-.2Z"/>
    <path d="M341,363.4l3-.4h.2l3-.4c0,0,.2,0,.2-.2l1.8-7.4c0-.2,0-.3-.3-.3l-1.9.3c-.2,0-.4,0-.3-.3l.6-1.6c0-.2,0-.3-.3-.3l-4.5.6h-.2l-4.5.6c-.2,0-.3.2-.2.4l1.1,1.4c0,0,0,.3-.2.4l-1.9.3c-.2,0-.3.2-.2.3l4.3,6.5s.2,0,.3,0h0Z"/>
    <path d="M364.8,360.1s.2,0,.3,0l3-.4h.2l3.1-.4c0,0,.2,0,.2-.2l3-7.7c0-.2,0-.3-.3-.3l-2,.3c-.2,0-.3,0-.3-.3l.9-1.7c0-.2,0-.3-.3-.3l-4.6.6h-.2l-4.6.7c-.2,0-.3.2-.2.4l.9,1.4c0,0,0,.3-.2.4l-2,.3c-.2,0-.3.2-.2.3l3.3,6.8h0Z"/>
    <path d="M389.8,356.8s0,0,.2,0l3.1-.4h.2l3.2-.4c0,0,.2,0,.3-.2l4.2-7.9c0-.2,0-.3-.2-.3l-2,.3c-.2,0-.3,0-.2-.3l1.1-1.7c0-.2,0-.3-.2-.3l-4.8.7h-.2l-4.8.7c-.2,0-.4.2-.3.4l.7,1.5c0,.2,0,.3-.3.4l-2,.3c-.2,0-.3.2-.3.4l2.3,7h0v-.3Z"/>
    <path d="M344.6,381.4l2.6-.3h0l2.6-.3s.2,0,.2,0l1.7-5.8c0,0,0-.2-.3-.2l-1.7.2c-.2,0-.3,0-.3-.2l.6-1.2c0,0,0-.2-.3-.2l-4,.5h0l-4,.5c-.2,0-.3.2-.2.3l1,1.1c0,0,0,.3-.2.3l-1.7.2c-.2,0-.2.2-.2.3l3.6,5.1h.2l.4-.2Z"/>
    <path d="M374,371.7l-1.8.2c-.2,0-.3,0-.2-.2l.8-1.3c0,0,0-.3-.2-.2l-4.1.5h0l-4.1.5c-.2,0-.3.2-.2.3l.8,1.1c0,0,0,.3-.2.3l-1.7.2c-.2,0-.3.2-.2.3l2.9,5.3h.2l2.7-.3h0l2.7-.4s.2,0,.2,0l2.6-6c0,0,0-.2-.2-.2h0Z"/>
    <path d="M387.7,376h.2l2.8-.3h0l2.8-.4s.2,0,.2-.2l3.6-6.2c0,0,0-.2-.2-.2l-1.8.2c-.2,0-.3,0-.2-.2l1-1.3c0,0,0-.3-.2-.2l-4.2.5h-.2l-4.2.6c-.2,0-.3.2-.3.3l.6,1.1c0,0,0,.3-.3.3l-1.8.2c-.2,0-.3.2-.3.3l2.1,5.4h.3Z"/>
    <path d="M349.9,395.4l2.4-.3s.2,0,.2,0l1.6-4.7s0-.2-.2-.2l-1.5.2c-.2,0-.3,0-.2-.2l.5-1s0-.2-.2-.2l-3.5.4h0l-3.5.4c-.2,0-.2,0-.2.2l.8.8s0,.2-.2.2l-1.5.2c-.2,0-.2,0-.2.2l3.2,4.1h.2l2.4-.3h0v.3Z"/>
    <path d="M365.5,388.8l-1.5.2c-.2,0-.2,0-.2.2l2.6,4.2h.2l2.4-.3h0l2.4-.3s.2,0,.2,0l2.3-4.8s0-.2-.2-.2l-1.6.2c-.2,0-.3,0-.2-.2l.7-1c0,0,0-.2-.2-.2l-3.6.4h0l-3.6.4c-.2,0-.3,0-.2.2l.7.9s0,.2-.2.2h0v.2Z"/>
    <path d="M386.1,391.1h.2l2.5-.3h0l2.5-.3s.2,0,.2,0l3.1-4.9s0-.2-.2-.2l-1.6.2c-.2,0-.3,0-.2-.2l.8-1.1c0,0,0-.2-.2-.2l-3.7.4h0l-3.7.5c-.2,0-.3.2-.2.2l.6.9s0,.2-.2.2l-1.6.2c-.2,0-.3,0-.2.2l1.9,4.3h0v.2Z"/>
    <path d="M305.3,45.6c-1.1,4.7-6.1,27.7-6.1,58.9s5.3,60.1,6.2,64.3v.7s6.3-30.1,6.3-64.9-6.3-59.8-6.3-59.8v.8h-.1Z"/>
    <path d="M372.3,124.1c21.8-8.6,19.9-25.4,19.9-25.4,0,0-13.9,12.3-19.9,14.7-10.8,4.4-22.7,3.2-22.7,3.2,0,0,10.5,12.3,22.7,7.5h0Z"/>
    <path d="M352.9,147.2c-22.7-1.1-18.8-24.7-18.8-24.7,0,0-19.2,39.9,21.5,41h1.5c5.9,9,25.6,33.7,53.3,11.4,22-17.8-2.9-44.9-2.9-44.9h-.2c2.2-1.7,4.7-3.4,7.5-4.7,13-6.3,32.3-3.9,32.3-3.9,0,0-23.1-26.4-52.9,1.9-18.2,17.3-30.8,24.5-41.3,24h0ZM384.3,162.1c-2.5.3-4.8-1.5-5.1-4,2.4-1.4,4.6-3.1,6.5-4.8,1.4.7,2.5,2,2.7,3.7.3,2.6-1.6,4.9-4.1,5.1h0ZM400.6,152.6c-.5-4-2.2-7.5-4.9-10.2.9-1.1,1.9-2.2,2.8-3.4,5,2.5,8.8,7.4,9.4,13.5,1,9.4-5.7,17.9-15.2,19-1.8.2-3.7.1-5.4-.3,8.4-1.9,14.2-9.9,13.2-18.6h.1Z"/>
    <path d="M238.5,124c12.2,4.8,22.7-7.5,22.7-7.5,0,0-11.9,1.1-22.7-3.2-6-2.4-19.9-14.7-19.9-14.7,0,0-1.9,16.8,19.9,25.4h0Z"/>
    <path d="M257.9,147.1c-10.5.5-23.1-6.7-41.3-24-29.8-28.3-52.9-1.9-52.9-1.9,0,0,19.3-2.4,32.3,3.9,2.8,1.4,5.2,3,7.5,4.8h-.2c0-.1-24.9,27.1-2.9,44.8,27.6,22.3,47.4-2.4,53.3-11.4h1.5c40.7-1.1,21.5-41,21.5-41,0,0,3.9,23.5-18.8,24.7h0ZM218.1,171.4c-9.4-1-16.2-9.5-15.1-19,.7-6,4.4-11,9.4-13.5,1,1.1,1.9,2.2,2.8,3.4-2.6,2.6-4.4,6.2-4.9,10.2-1,8.8,4.8,16.7,13.2,18.6-1.7.4-3.5.5-5.4.3ZM226.5,162c-2.6-.3-4.4-2.6-4.1-5.1.2-1.7,1.3-3.1,2.7-3.7,2,1.8,4.1,3.4,6.5,4.8-.3,2.5-2.6,4.3-5.1,4h0Z"/>
    <path d="M283.7,517.1c-.7-4.4-2.9-8.3-5-8.3h-8.9l1.1,7.4h1.2l8.4,29.3h5.2c1.2,0,2-1.5,1.7-3.4l-3.7-25h0ZM284.6,542.5h-2.5l-6.4-26.3h3.6c.3,0,.7.6.8,1.2l4.7,24.4c0,.3,0,.6-.3.6h.1Z"/>
    <path d="M293.8,508.8h-5c-2.1,0-3.3,3.9-2.8,8.3l3,25c.2,2,1.4,3.5,2.7,3.5h3c1.2,0,2.3-1.5,2.3-3.5l.4-25c0-4.4-1.6-8.3-3.6-8.3h0ZM294.1,542.5h-2.1c-.2,0-.4-.3-.4-.6l-1.9-24.5c0-.7.2-1.3.5-1.3h3.1c.3,0,.6.6.6,1.3l.7,24.5c0,.3-.2.6-.4.6h0Z"/>
    <path d="M303.2,529.5l-.5,4.5h2.2l-1.1,7.9c0,.3-.3.6-.5.6h-2.1c-.2,0-.4-.3-.3-.6l2-24.5c0-.7.4-1.3.7-1.3h3.1c.3,0,.5.6.4,1.3l-1.1,7.9h3.3l1.5-8.3c.8-4.4-.2-8.3-2.3-8.3h-5c-2.1,0-3.9,3.9-4.1,8.3l-1,25.1c0,2,.9,3.5,2.1,3.5h3c1.2,0,2.5-1.5,2.9-3.5l2.2-12.7h-5.5,0Z"/>
    <path d="M323.3,508.7h-5c-2.1,0-4.6,3.9-5.5,8.3l-1.8,9c-.4,1.9-.3,3.6.3,4.6l3.4,6v.6l-1.4,4.7c0,.3-.4.6-.6.6h-2.1c-.2,0-.3-.3-.2-.6l.8-3.2h-2.7l-.7,3.3c-.4,2,.3,3.5,1.6,3.5h3c1.2,0,2.8-1.5,3.4-3.5l1.8-5.4c.5-1.5.5-2.9,0-3.8l-3.3-6.7v-.8l2-8c.2-.7.6-1.3.9-1.3h3.1c.3,0,.4.6.2,1.3l-1.7,5.7h3.4l2-6c1.5-4.4,1.1-8.3-1-8.3h0Z"/>
  </g>
</svg>