<?xml version="1.0" encoding="UTF-8"?>
<svg id="PRIMARY" xmlns="http://www.w3.org/2000/svg" version="1.1" viewBox="0 0 499.1 723.6">
  <!-- Generator: Adobe Illustrator 30.5.1, SVG Export Plug-In . SVG Version: 2.1.4 Build 3)  -->
  <defs>
    <style>
      .st0, .st1 {
        fill: none;
      }

      .st2 {
        fill: #99a4ad;
      }

      .st1 {
        stroke: #000;
        stroke-linecap: round;
        stroke-linejoin: round;
      }

      .st3 {
        fill: #fff;
      }
    </style>
  </defs>
  <rect class="st0" x="297.1" y="483.1" width="0" height="0"/>
  <path class="st0" d="M297.5,494.1l1.8-.2s0,0,0,0c0,0,0,0,0,0l-1.8.2h0l-1.8.2c0,0-.2,0-.2,0l-1.9-3.1s0,0,0,0c0,0,0,0,0,.1l1.9,3.1s0,0,.2,0l1.8-.2h0Z"/>
  <path class="st0" d="M297.5,483.1l1.8-.2s0,0,.1,0c0,0,0,0,0,0l-1.8.2Z"/>
  <path class="st0" d="M299.4,482.8h0s2-4.4,2-4.4c0,0,0,0,0,0l-1.9,4.4s0,0,0,0Z"/>
  <path class="st0" d="M295,490.6l-.5-.6s0,0,0,0c0,0,0,0,0,.1h0s.5.7.5.7c0,0,0,0,0,0,0,0,0,0,0-.1Z"/>
  <path class="st0" d="M211.8,433.5c-1.9-.2-9.3-1.5-9.1-8.8-.2,7.4,7.2,8.6,9.1,8.8.2.2.3.3.3.3v-.3q.1,0,.1,0h0s0,0,0,0v.3c-.1,0-.3-.1-.4-.3.3,0,.4,0,.4,0h0s-.2,0-.4,0c-1.2-1.4-5-7,9.2-9.1h0c-14.2,2-10.5,7.6-9.2,9.1Z"/>
  <path class="st0" d="M279.1,492.6h1.1c.1-.1.2-.2.1-.3l-.6-.6c0,0,0-.2.1-.2l2.6-.3h0l-2.6.3c-.1,0-.2.1-.1.2l.6.6c0,0,0,.2-.1.2h-1.1c-.1.1-.2.2-.1.3l2.3,3s0,0,0,0l-2.3-3c0,0,0-.1.1-.2Z"/>
  <path class="st0" d="M295.1,483.4l1.9-.2-1.9.2c0,0-.2,0-.2,0l-2.1-3.9s0,0,0-.1c0,0,0,0,0,.1l2.1,3.9s0,0,.2,0Z"/>
  <path class="st0" d="M294.4,478.8l-.6-.8s0,0,0-.1c0,0,0,0,0,.1l.6.8s0,0,0,.1c0,0,0,0,0-.1Z"/>
  <path class="st0" d="M293,462.6s0,0,0,0c0,0,0,0,0,0Z"/>
  <path class="st0" d="M231.6,313c0,.3-.2.6-.3,1,.1-.3.2-.6.3-1Z"/>
  <path class="st0" d="M226.9,434.7c-.4.2-.6.8-.5,1.9h0c0-1.1.1-1.6.5-1.9Z"/>
  <path class="st0" d="M299.2,469l-1.1.2h1.1c0-.2.2-.2.2-.3l2.2-5.7s0,0,0,0l-2.2,5.7c0,0,0,.1-.2.1Z"/>
  <path class="st0" d="M236.5,432.7c1.5-3.2,1.1-8.6-8.9-8.8,10,.2,10.4,5.6,8.9,8.8-.7,1.7-1.7,2.4-2.7,2.7,1-.3,2-1.1,2.8-2.7Z"/>
  <path class="st0" d="M293.7,463.9s0,0,0,0c0,0,0,0,0,0Z"/>
  <path class="st0" d="M293.7,463.8l-.7-1s0,0,0,0c0,0,0,0,0,0l.7,1s0,0,0,0c0,0,0,0,0,0Z"/>
  <path class="st0" d="M299.7,463s0,0,0,0c0,0,0,0,0,0l.6-1.2s0,0,0,0c0,0,0,0,0,0l-.6,1.2Z"/>
  <path class="st0" d="M284.9,433.5h0c-.2.2-.3.3-.3.3h0s0,0,0,0c0,0,.1-.1.3-.3,1-.1,3.4-.5,5.6-1.9-2.1,1.4-4.6,1.8-5.6,1.9h0Z"/>
  <path class="st0" d="M300,286.5c4.3-1.7,14.1-10.4,14.7-10.9,0,0,0,0,0,0,0,0-10.3,9.1-14.7,10.9h0c-5.5,2.2-11.4,2.5-14.5,2.5,3.1,0,9-.3,14.5-2.5Z"/>
  <path class="st0" d="M240.8,450c-1.6-.9-7.1-4.1-10.8-7.7,3.7,3.6,9.3,6.8,10.8,7.7Z"/>
  <path class="st0" d="M295.8,295.3c-7.1.1-12.6-6.3-12.7-6.4,0,0,0,0,0,0,0,0,5.5,6.5,12.7,6.4Z"/>
  <path class="st0" d="M308.9,489.2h1.2c.1-.2.2-.2.2-.3l-.4-.7c0,0,0-.2.2-.2h.3s-.3,0-.3,0c-.1,0-.2.1-.2.2l.4.7c0,0,0,.2-.2.2h-1.2c0,.1,0,.1,0,.1-.1,0-.2,0-.2.2h0c0,0,0-.1.2-.2Z"/>
  <path class="st0" d="M255.5,450.3s.2,0,.4-.2c-.3.2-.4.2-.4.2h0Z"/>
  <path class="st0" d="M217.5,288.8h0s-.9,0-2.3,0c1.4,0,2.2,0,2.3,0Z"/>
  <path class="st0" d="M200.7,294.4c1.4.6,2.8.8,4.1.8-1.3,0-2.7-.3-4.1-.8-16-6.4-14.7-18.6-14.7-18.8,0,0,0,0,0,0,0,0-1.4,12.4,14.7,18.8Z"/>
  <path class="st0" d="M248.3,481.3s8.9,20.4,13.1,26.5c2,2.9,3.1,6.1,3.2,9.1-.1-3-1.2-6.2-3.2-9.1-4.2-6.1-13.1-26.5-13.1-26.5,0,0-9.2,20.4-13.4,26.5-2,2.9-3.1,6.1-3.2,9.1.1-3,1.2-6.2,3.2-9.1,4.2-6.1,13.4-26.5,13.4-26.5Z"/>
  <path class="st0" d="M315.3,488.4h1.2c0-.1,0-.1.1-.1,0,0,0,0-.1,0h-1.2c0,.1,0,.1-.1.1,0,0,0,0,.1,0Z"/>
  <path class="st0" d="M312.9,467.1c0,0,0,0,.1,0,0,0,0,0,0,0l-1.7-5.2c0-.1,0-.2.2-.3l1.5-.2c.2,0,.3-.2.2-.3l-.5-1.1c0-.1,0-.3.2-.3l3.5-.5h.1s3.5-.5,3.5-.5c0,0,0,0,0,0,0,0,0,0-.1,0l-3.5.5h-.1s-3.5.5-3.5.5c-.2,0-.3.2-.2.3l.5,1.1c0,.1,0,.3-.2.3l-1.5.2h0c-.1,0-.3.1-.2.2l1.7,5.2Z"/>
  <path class="st0" d="M317.1,476.2l1.3-.2c0,0,.1,0,.1,0,0,0,0,0-.1,0l-1.3.2c0,0-.1,0-.1,0,0,0,0,0,.1,0Z"/>
  <path class="st0" d="M317.6,474.8c.1,0,.2,0,.1.1,0,0,0-.2-.2-.1l-3.1.4h0l3.1-.4Z"/>
  <path class="st0" d="M260.2,432.8c3.2,7.2,10.5-1.9,10.1,3.8,0,1.8-1.6,3.8-3.6,5.7,2-1.9,3.5-3.9,3.6-5.7.3-5.8-6.9,3.3-10.1-3.8-1.5-3.2-1.1-8.6,8.9-8.8-10,.2-10.4,5.6-8.9,8.8Z"/>
  <rect class="st0" x="236.1" y="442.3" width="17.3" height="0" transform="translate(-260.3 463.5) rotate(-63.4)"/>
  <path class="st0" d="M321.1,460.3s0,0,0,0l-1.5.2s0,0,0,0c0,0,0,0,.1,0l1.5-.2Z"/>
  <path class="st0" d="M311.3,476.9c.1,0,.2-.1.2-.2l-.5-.8c0,0,0-.2.2-.2l3.1-.4h0l-3.1.4c-.1,0-.2.1-.2.2l.5.8c0,0,0,.2-.2.2l-1.3.2h0c0,0-.1,0-.2,0,0,0,0,0,.2,0l1.3-.2Z"/>
  <path class="st0" d="M315.7,487.4s0,0-.1,0l-1.5.2,1.6-.2c0,0,0,0,.1,0Z"/>
  <path class="st0" d="M294.5,469.6c0,0-.2,0-.2,0h0c0,0,0,.1.2,0l1.1-.2h-1.1c0,.1,0,.1,0,.1Z"/>
  <path class="st0" d="M299.5,227.6c29.8-1,34.9-11.7,52-13.2,9.1-.8,17,3.2,22.9,8.3-5.9-5.1-13.9-9.1-23-8.4-17.1,1.4-22.2,12.2-52,13.2-29.4,1-50.7.3-51.2.3h0c0,0,21.5.7,51.2-.3Z"/>
  <path class="st0" d="M87,350.2c8.1-24-2.5-43.5,9.5-71.2s11.9-31.7,15.5-42.4c2.9-8.4,16-23.7,33.1-22.3,17.1,1.4,22.2,12.2,52,13.2,28.5.9,49.3.3,51.1.3h0c-1.6,0-22.5.6-51.1-.3-29.8-1-34.9-11.7-52-13.2-17.1-1.4-30.2,13.9-33.1,22.3-3.6,10.6-3.5,14.8-15.5,42.4-12,27.6-1.4,47.2-9.5,71.2-9.2,27.1-23.4,37.4-23.4,37.4,0,0,0,0,0,0,1-.8,14.6-11.3,23.4-37.3Z"/>
  <path class="st0" d="M433.1,387.7s-.9-.6-2.4-2c1.3,1.3,2.2,1.9,2.4,2,0,0,0,0,0,0Z"/>
  <path class="st0" d="M334.6,401.8s0,0,0,0c-1.8-6.2-6.1-18.2-13.8-28.6,7.6,10.4,11.9,22.4,13.8,28.6Z"/>
  <path class="st0" d="M320.1,372.2c0-.1-.2-.2-.3-.3,0,.1.2.2.3.3Z"/>
  <path class="st0" d="M147.5,368.7c-12.2-14.7-12.9-21.5-14.2-54.8-1.3-33.2,2.2-28.6,10.7-42,8.5-13.4,31.8-32.2,31.8-32.2,0,0,0,0,0,0-.2.1-23.3,18.9-31.8,32.2-8.5,13.4-12,8.8-10.7,42,1.3,33.2,2,40,14.2,54.8,3.2,3.9,5.3,9.4,6.5,15.5.8,6.2,1.8,15.2,1.9,23.8,0,0,0,0,0,0-.1-8.6-1-17.5-1.9-23.8-1.3-6-3.3-11.6-6.5-15.5Z"/>
  <path class="st0" d="M156.9,459.9c0-.3-2.7-35.7,16.6-55.4,11-11.3,36.3-13.5,36.3-13.5,0,0,0,0,0,0-1,0-25.5,2.5-36.3,13.5-19.2,19.7-16.6,55.1-16.6,55.4,1,7.7,2.1,14.8,3,19.7,1.4,15.9,9.4,24.9,11.3,26.8-2-2-9.9-11-11.3-26.8-.8-5-2-12.1-3-19.7Z"/>
  <path class="st0" d="M161.5,504.2c3,2.8,10.1,2.6,10.1,2.6,0,0,0,0,0,0,0,0-7.2.2-10.1-2.6-.6-.6-1.2-1.2-1.9-1.8.6.6,1.3,1.2,1.9,1.8Z"/>
  <path class="st0" d="M219.3,348.5s0,0,0,0c-.7.4-20.9,11.9-31.4,27.6-5.2,7.7-7.6,12.6-8.8,15.7,0,0,0,0,0,0,1.2-3.1,3.7-8,8.8-15.7,10.7-15.9,31.4-27.6,31.4-27.6Z"/>
  <path class="st0" d="M269.2,535.2h0c-.8.2-1.6.3-2.4.4-7.1,2.8-13,4.7-16.8,5.9,2.2,3.1,3.7,6.8,4.5,10.5h0c-.8-3.7-2.3-7.4-4.5-10.5,3.8-1.2,9.7-3.1,16.8-5.9.8-.1,1.6-.3,2.4-.4,6.4-1.2,10.9-3.6,10.9-3.6h0s-4.4,2.4-10.9,3.6Z"/>
  <path class="st0" d="M265.7,561.3h0l-3.7,7.7c-.4.8.2,1.7,1.1,1.7h0c-.9,0-1.5-.9-1.1-1.7l3.7-7.7c.4-.8-.2-1.7-1.1-1.7h0c.9,0,1.5.9,1.1,1.7Z"/>
  <path class="st0" d="M240.4,571.6c0,2.7,2.2,4.8,5,4.8s0,0,0,0c-2.7,0-4.9-2.2-4.9-4.8s2.2-4.8,4.9-4.8c0,0,0,0,0,0-2.7,0-5,2.2-5,4.8Z"/>
  <polygon class="st0" points="264.6 552.1 264.6 552.1 264.6 552.1 264.6 552.1"/>
  <path class="st0" d="M285.1,490.9s0,0,.1,0c0,0,0,0-.1,0l-2.6.3h0l2.6-.3Z"/>
  <path class="st0" d="M271.8,570.7h0c.8,0,1.4.8,1.2,1.6l-13.1,38.1c-.2.5-.6.8-1.2.8h-28.5s0,0,0,0h28.5c.5,0,1-.3,1.2-.8l13.1-38.1c.3-.8-.3-1.6-1.2-1.6Z"/>
  <path class="st0" d="M282.8,549.9c-2.8,1.4-5.5,2.6-8.1,3.7,2.6-1.1,5.3-2.3,8.1-3.7Z"/>
  <path class="st0" d="M340.7,408.1s0,0,0,0c-.3-.4-.7-.8-1-1.2.3.4.7.8,1,1.2Z"/>
  <polygon class="st0" points="271.3 555 271.3 555 271.3 555 271.3 555"/>
  <path class="st0" d="M276.7,472h0c0,0-.1,0-.2,0l-3.2-4.9c0-.1,0-.2.1-.2l1.4-.2c.1,0,.2-.2.1-.3l-.8-1c0-.1,0-.2.1-.3l3.3-.5h.1s3.3-.5,3.3-.5c0,0,0,0,0,0l-3.3.5h-.1s-3.3.5-3.3.5c-.2,0-.2.2-.1.3l.8,1c0,.1,0,.2-.1.3l-1.4.2h0c-.1,0-.2.1-.1.2l3.2,4.9c0,0,.1,0,.2,0Z"/>
  <path class="st0" d="M283.4,480.4l1.3-.2s0,0,.1,0c0,0,0,0-.2,0l-1.3.2c0,0,0,0-.1,0,0,0,0,0,.2,0Z"/>
  <path class="st0" d="M283.4,479.2c0,0,0,0,.1,0,0,0,0,0-.2,0l-3,.4h0l3-.4Z"/>
  <path class="st0" d="M282.5,465.6s0,0,0,0l-1.4.2s0,0,0,0l1.4-.2Z"/>
  <path class="st0" d="M286.2,491.8s0,0,.1,0c0,0,0,0-.1,0h-1.1c0,.1,0,.1,0,.1,0,0,0,0,0,0h1.1Z"/>
  <path class="st0" d="M151.3,511.2c1.1-9.4,3.2-14.2,3.2-14.2,0,0,0,0,0,0,0,0-2.2,4.8-3.2,14.2-1,9.3.6,15.8,3.2,21.6.2.4.4.7.8,1.1-.3-.4-.6-.8-.8-1.1-2.6-5.8-4.3-12.3-3.2-21.6Z"/>
  <path class="st0" d="M279.2,485.3s0,0,0,0l-2.7-3.8c0,0,0-.2.1-.2l1.2-.2c.1,0,.2-.1.1-.2l-.7-.8c0,0,0-.2.1-.2l2.9-.4h0l-2.9.4c-.1,0-.2.1-.1.2l.7.8c0,0,0,.2-.1.2l-1.2.2h0c-.1,0-.2,0-.1.2l2.7,3.8s0,0,0,0Z"/>
  <path class="st0" d="M288,547.2c-1.2.6-2.3,1.2-3.4,1.8,1.1-.6,2.3-1.2,3.4-1.8Z"/>
  <path class="st0" d="M390.7,332.2c-3.7-24.4,3.5-24.7-5-49.6-8.5-24.9-14.2-37.1-25.7-46.6,0,0,0,0,0,0,11.5,9.5,17.2,21.7,25.7,46.6,8.5,24.9,1.3,25.2,5,49.6,2.9,19,11.3,32,19.9,40.6-8.6-8.6-17.1-21.6-19.9-40.6h0Z"/>
  <path class="st0" d="M335.2,504.3c3.3-3.1,6.9-7.2,7-7.3,0,0,0,0,0,0,0,0-3.7,4.2-7,7.3-2.9,2.7-9.7,2.6-10.1,2.6,0,0,0,0,0,0,0,0,7.2.2,10.1-2.6Z"/>
  <path class="st0" d="M289.2,447.1c15.6-11.8,21.2-18.2,10.2-34.5-.7-1-1.5-2-2.4-2.8.9.9,1.7,1.8,2.4,2.8,11,16.2,5.4,22.7-10.2,34.5s-39.8,14.5-32.1,28.3c7.7,13.7,24.7,39.3,39.3,54.5,0,0,0,0,0,0-14.6-15.2-31.6-40.8-39.3-54.5-7.7-13.7,16.5-16.5,32.1-28.3Z"/>
  <path class="st0" d="M207.5,447c10.7,8.1,25.5,11.9,31.2,18-5.7-6.1-20.5-9.9-31.2-18-3.9-2.9-7.2-5.5-9.7-8.1,2.6,2.5,5.8,5.1,9.8,8.1Z"/>
  <path class="st0" d="M248.3,399.4h0c0,0,0,0,0,0h0c0,0,0,0,0,0Z"/>
  <path class="st0" d="M328.2,246.1c-4.2-3.7-7.2-6.1-7.4-6.3,0,0,0,0,0,0,0,0,3.1,2.5,7.4,6.3Z"/>
  <path class="st0" d="M304.4,370.4c-10.9-12.6-26.3-21.4-27-21.8,0,0,0,0,0,0,0,0,15.9,8.9,27,21.8Z"/>
  <path class="st0" d="M323.1,404.6s0,0,0,0c-10.7-10.9-34.7-13.4-36.3-13.5,0,0,0,0,0,0,0,0,25.3,2.2,36.3,13.5Z"/>
  <path class="st0" d="M388.6,367.1c-4.7-9.4-7.1-17.6-8.1-24.3,0,0,0,0,0,.1,1.1,6.7,3.4,14.8,8.1,24.1,12.8,25.3,56.7,29,56.7,29,0,0,0,0,0,0-1.5-.1-44-4.1-56.6-29Z"/>
  <path class="st0" d="M230.2,618.7c-1.6,0-3.2-.5-4.5-1.2-.6-.3-1.1-.7-1.6-1.1,0,0-.1-.1-.2-.2-1-.9-1.7-2.1-2.2-3.5l-10.4-30.4-2.7-7.8c0,0,0-.2,0-.3-.8-2.6-.3-5.4,1.3-7.7.2-.2.3-.5.5-.7,0,0,0,0,0,0,.2-.2.4-.4.5-.5h0c.4-.4.9-.7,1.4-1-.2-.1-.5-.3-.8-.4-.3-.2-.7-.3-1-.5-.6-.3-1.2-.6-1.8-.9-.3-.2-.6-.3-.9-.5-.9-.5-1.8-.9-2.7-1.4-.2-.1-.5-.2-.7-.4-.7-.4-1.4-.8-2.1-1.2-.3-.2-.7-.4-1.1-.6-.6-.3-1.2-.7-1.8-1-.4-.2-.8-.4-1.1-.7-.6-.4-1.2-.7-1.9-1.1-.3-.2-.7-.4-1-.6-.9-.6-1.8-1.1-2.8-1.7,0,0,0,0,0,0,.9.6,1.8,1.1,2.8,1.7.3.2.7.4,1,.6.6.4,1.2.8,1.9,1.1.4.2.8.4,1.1.7.6.4,1.2.7,1.8,1,.3.2.7.4,1.1.6.7.4,1.4.8,2.1,1.2.2.1.5.2.7.4.9.5,1.8,1,2.7,1.4.3.2.6.3.9.5.6.3,1.2.6,1.8.9.4.2.7.3,1,.5.2.1.5.3.8.4-.5.3-1,.6-1.4,1h0c-.2.2-.4.4-.5.5,0,0,0,0,0,0-.2.2-.4.4-.5.7-1.6,2.2-2.1,5-1.3,7.7,0,0,0,.2,0,.3l2.7,7.8,10.4,30.4c.5,1.3,1.2,2.5,2.2,3.5,0,0,.1.1.2.2.5.4,1,.8,1.6,1.1,1.3.8,2.9,1.2,4.5,1.2h28.5c.6,0,1.2,0,1.8-.2-.6.1-1.2.2-1.7.2h-28.5Z"/>
  <polygon class="st0" points="199.8 469.2 199.7 469.2 199.8 469.2 199.9 469.2 199.9 469.2 199.9 469.2 199.8 469.2"/>
  <path class="st0" d="M211.6,495.4l1.8.2h0l1.8.2s0,0,0,0l-1.8-.2h0l-1.8-.2h0c0,0-.1,0-.1,0l-1.2-3.5s0,0,0,0c0,0,0,0,0,0l1.2,3.5s0,0,.1,0Z"/>
  <path class="st0" d="M195.3,462.9l1.5.2c.1,0,.2,0,.2-.2,0,0,0,.1-.2.1l-1.5-.2h0c-.1,0-.2,0-.2.1,0,0,0-.1.2,0Z"/>
  <path class="st0" d="M253,251.5c0,.4.1.9.2,1.3,0-.5-.1-.9-.2-1.3Z"/>
  <path class="st0" d="M252.1,245.4c.3,1.7.6,3.7.9,5.8-.3-2.1-.6-4.1-.9-5.8Z"/>
  <path class="st0" d="M196.3,461.5c0,0,0-.1.2-.1l3.4.5h.1s3.4.5,3.4.5c.1,0,.2,0,.2.2,0,0,0-.2-.2-.2l-3.4-.5h-.1s-3.4-.5-3.4-.5c-.1,0-.2,0-.2.1Z"/>
  <path class="st0" d="M252,244.6c0,.2,0,.5.1.7,0-.2,0-.5-.1-.7Z"/>
  <path class="st0" d="M251.9,244s0,0,0,0c0,0,0,0,0,0Z"/>
  <path class="st0" d="M203.1,464l1.5.2c.1,0,.2.1.2.2h0c0-.1,0-.2-.2-.3l-1.5-.2c-.1,0-.2,0-.2-.2,0,0,0,.2.2.2Z"/>
  <path class="st0" d="M213.3,484.7l2,.2h.1l2,.2s0,0,0,0l-1.9-.2h-.1l-2-.2h0c0,0-.1,0-.2-.1l-1.3-4.3s0,0,0-.1c0,0,0,0,0,.1l1.3,4.3s0,0,.2,0Z"/>
  <path class="st0" d="M217,491.5s0,0,0,0c0,0,0,0,0,0Z"/>
  <path class="st0" d="M210.5,491.7h0s0,0,0,0h0Z"/>
  <path class="st0" d="M215.4,495.8s0,0-.1,0c0,0,.1,0,.1,0Z"/>
  <path class="st0" d="M330.5,557.4c-.2,0-.4,0-.5,0-.7.1-1.4.2-2.1.3h0c-.7,0-1.4.1-2,.2-.2,0-.3,0-.5,0-.7,0-1.3,0-2,0h0c-.6,0-1.3,0-1.9,0-.2,0-.3,0-.5,0-.6,0-1.3,0-1.9-.1,0,0,0,0,0,0-.6,0-1.2-.1-1.8-.2-.1,0-.3,0-.4,0-.6,0-1.2-.2-1.8-.3,0,0,0,0,0,0-.6-.1-1.2-.2-1.7-.4-.1,0-.2,0-.3,0-.6-.1-1.2-.3-1.8-.5,0,0,0,0,0,0-.6-.2-1.1-.3-1.7-.5-.1,0-.2,0-.3,0-.6-.2-1.1-.4-1.7-.6,0,0,0,0,0,0-.5-.2-1.1-.4-1.6-.7,0,0-.1,0-.2,0-1.1-.5-2.1-1-3.1-1.5,0,0-.1,0-.2,0-.5-.3-1-.5-1.5-.8,0,0,0,0,0,0,.5.3,1,.6,1.5.8,0,0,.1,0,.2,0,1,.5,2.1,1,3.1,1.5,0,0,.1,0,.2,0,.5.2,1.1.4,1.6.7,0,0,0,0,0,0,.5.2,1.1.4,1.7.6.1,0,.2,0,.3,0,.5.2,1.1.4,1.7.5,0,0,0,0,0,0,.6.2,1.2.3,1.8.5.1,0,.2,0,.3,0,.6.1,1.1.3,1.7.4,0,0,0,0,0,0,.6.1,1.2.2,1.8.3.1,0,.3,0,.4,0,.6,0,1.2.2,1.8.2,0,0,0,0,0,0,.6,0,1.3.1,1.9.1.2,0,.3,0,.5,0,.6,0,1.2,0,1.9,0h0c.6,0,1.3,0,2,0,.2,0,.3,0,.5,0,.7,0,1.3,0,2-.2h0c.7,0,1.4-.2,2.1-.3.2,0,.4,0,.5,0,.7-.1,1.4-.2,2.2-.4.5,0,1-.2,1.4-.3-.5.1-.9.2-1.4.3-.7.1-1.4.3-2.2.4Z"/>
  <path class="st0" d="M211.8,491.7l-.4-.8c0,0,0-.1.2-.1h0c-.1,0-.2,0-.2.1l.4.8c0,0,0,.1-.2.1h0c.1,0,.2,0,.2-.1Z"/>
  <path class="st0" d="M216.4,492.4s0,0,0,0c0,0,0,0,0,0Z"/>
  <polygon class="st0" points="214.3 491.2 216.6 491.4 214.3 491.2 214.2 491.2 211.8 490.9 214.2 491.2 214.3 491.2"/>
  <path class="st0" d="M217.7,492.6s0,0,0,0c0,0,0,0,0,0Z"/>
  <path class="st0" d="M355,652.4c-2.6.2-3.9.3-6.4.5-1.1,0-1.9,1-1.9,2.1v50.3c0,1.1.9,1.9,1.9,1.8,2.6-.2,3.9-.3,6.4-.5,1.1,0,1.9-1,1.9-2.1v-50.3c0-1.1-.9-1.9-1.9-1.8Z"/>
  <path class="st0" d="M122,688.1c3.7.4,5.5.5,9.2.9-1.8-8.6-2.8-12.9-4.6-21.6-1.8,8.3-2.8,12.4-4.6,20.7Z"/>
  <path class="st0" d="M287,311.6c7.5-.3,16.5-5.8,29.2-17.8,7.6-7.2,14.6-9.6,20.5-9.7-5.9,0-12.9,2.5-20.5,9.7-12.7,12-21.6,17.5-29.1,17.8Z"/>
  <path class="st0" d="M326.4,315.5c.8,7-4.2,13.3-11.2,14.1-1.4.2-2.7,0-4-.2,0,0,0,0,0,0,1.3.3,2.6.3,4,.2,7-.8,12-7.1,11.2-14.1-.3-2.8-1.5-5.3-3.3-7.2,1.8,1.9,3,4.4,3.3,7.2Z"/>
  <path class="st0" d="M265.4,615.7s0,0,0,0c0,0,0,0,0,0Z"/>
  <path class="st0" d="M308.3,655.6c-3.4.2-5,.2-8.4.4v54.2c3.4-.1,5-.2,8.4-.4,1.1,0,1.9-1,1.9-2v-50.3c0-1.1-.9-1.9-1.9-1.8Z"/>
  <path class="st0" d="M181.4,557.2c-.5,0-.9.1-1.4.2-.2,0-.3,0-.5,0-.4,0-.9.1-1.3.2-.1,0-.3,0-.4,0-.6,0-1.1.1-1.7.1,0,0-.2,0-.3,0-.5,0-1,0-1.5,0h-.5c-.4,0-.9,0-1.3,0h-.5c-.6,0-1.2,0-1.8,0,0,0-.1,0-.2,0-.5,0-1.1,0-1.6-.2-.2,0-.4,0-.6,0-.5,0-.9-.1-1.4-.2-.2,0-.4,0-.6,0-.6-.1-1.3-.2-1.9-.3-4.7-.9-8.7-2.7-12-5.1-.7-.5-1.3-1-1.9-1.5-.9-.8-1.7-1.6-2.5-2.5-2.8-3-4.9-6.5-6.5-10.2-.5-1.1-.9-2.1-1.3-3.2-.3-.8-.5-1.5-.8-2.3-.7-2.3-1.2-4.7-1.6-7.1-.3-1.6-.5-3.2-.6-4.7-.4-3.9-.5-7.7-.4-11.2,0-.7,0-1.4,0-2,.2-4,.7-7.4,1.3-9.9.4-1.9.9-3.7,1.4-5.5.5-2,1.1-4,1.6-5.9.5-1.8,1-3.7,1.4-5.6.2-.8.4-1.7.5-2.5,1.4-6.8,2-14.1.7-22.8-1.2-7.9,2.2-29.5-1.7-50.4-.4-2-.8-4-1.3-5.9-.3-1-.5-2-.8-2.9-2.4-7.8-6.1-15.1-11.8-21.3-5.7-6.2-8.8-14.7-10.4-23,0-.2,0-.5-.1-.7-.2-1.2-.4-2.4-.6-3.6-.2-1.5-.4-2.9-.5-4.3,0,0,0,0,0,.1.1,1.4.3,2.7.5,4.2.2,1.2.4,2.4.6,3.6,0,.2,0,.5.1.7,1.6,8.3,4.7,16.8,10.4,23,5.7,6.2,9.4,13.5,11.8,21.3.3,1,.6,2,.8,2.9.5,2,1,4,1.3,5.9,3.9,20.9.5,42.5,1.7,50.4,1.3,8.7.7,16.1-.7,22.8-.2.9-.3,1.7-.5,2.5-.4,1.9-.9,3.7-1.4,5.6-.5,2-1.1,4-1.6,5.9-.5,1.8-1,3.7-1.4,5.5-.6,2.5-1.1,5.9-1.3,9.9,0,.7,0,1.3-.1,2-.1,3.5,0,7.3.4,11.2.2,1.6.4,3.1.7,4.7.4,2.4,1,4.8,1.6,7.1.2.8.5,1.5.8,2.3.4,1.1.8,2.2,1.3,3.2,1.6,3.8,3.8,7.2,6.5,10.2.8.9,1.6,1.7,2.5,2.5.6.5,1.3,1,1.9,1.5,3.3,2.4,7.3,4.2,12,5.1.6.1,1.3.2,1.9.3.2,0,.4,0,.6,0,.5,0,.9.1,1.4.2.2,0,.4,0,.6,0,.6,0,1.1.1,1.6.2,0,0,.1,0,.2,0,.6,0,1.2,0,1.8,0h2.3c.5,0,1,0,1.5,0,0,0,.2,0,.3,0,.6,0,1.1,0,1.7-.1.1,0,.3,0,.4,0,.4,0,.9,0,1.3-.2.2,0,.3,0,.5,0,.5,0,.9-.1,1.3-.2,0,0,.2,0,.3,0,.5-.1,1.1-.2,1.6-.3,0,0,0,0,0,0-.5.1-1.1.2-1.6.3,0,0-.2,0-.3,0Z"/>
  <path class="st0" d="M258.4,657.1c-3.4,0-5,0-8.4,0v26.8c1.4,0,2.1,0,3.5,0,.4,0,.8-.1,1.1-.3,2-1.4,2.9-2.1,4.9-3.4.5-.4.8-1,.8-1.6v-19.5h0c0-1.1-.9-1.9-2-1.9Z"/>
  <path class="st0" d="M326.1,298.8s0,0,0,0h0c0,0,0,0,0,0h.2Z"/>
  <path class="st0" d="M271.6,293.4c0,0,0,0,0,0,0,0-14.2,29.6,16,30.4h0c-29.2-.8-16.8-28.5-16-30.3Z"/>
  <path class="st0" d="M229,293.2h0s.7,4.4-.7,8.8c1.4-4.5.7-8.8.7-8.8Z"/>
  <path class="st0" d="M250.3,328.1s0,0,0,0v-.5c-.6-3.2-4.6-24.6-4.6-47.7s3.7-40.2,4.5-43.7v-.5s0,0,0,0v.6c-.8,3.5-4.5,19.9-4.5,43.7s3.9,44.6,4.6,47.7v.5Z"/>
  <path class="st0" d="M309.9,316c1.1.5,1.9,1.5,2,2.8,0,0,0,0,0,0,0,0,0,0,0,0-.1-1.2-.9-2.3-2-2.8-1.5,1.3-3.1,2.5-4.9,3.6,0,0,0,0,0,0,1.8-1.1,3.4-2.3,4.9-3.6Z"/>
  <path class="st0" d="M338.3,205.8c.5-.2,1.1-.4,1.6-.6,1.8-.6,3.6-1.2,5.3-1.6-1.8.4-3.6,1-5.4,1.6-.5.2-1.1.4-1.6.6-2.7,1-5.5,2.3-8.5,3.7-7.4,3.6-13.1,5.8-18.3,7,5.2-1.2,10.9-3.4,18.3-7,2.9-1.4,5.8-2.7,8.5-3.7Z"/>
  <path class="st0" d="M57.4,366.7c0-.7.1-1.3.2-2,0-.7,0-1.4.1-2.1s0-1.4,0-2c-.8-20.3-19.2-36.2-25.1-50.1-2.5-5.8-6.3-14.7-8-23.9,0-.6-.2-1.2-.3-1.7-.3-2.3-.5-4.6-.5-7,0-.6,0-1.2,0-1.7,0-.6,0-1.1.1-1.7.5-5.1,2.3-10,5.8-14.2,1.3-1.6,3.1-3.2,5.3-4.8,2.3-1.7,5-3.4,8.1-5.2.6-.3,1.2-.7,1.8-1,.5-.2.9-.5,1.4-.8.9-.5,1.9-1,2.9-1.5s2-1,3-1.5c4.6-2.3,9.5-4.6,14.5-6.9,1.1-.5,2.2-1,3.4-1.5,7.6-3.5,15.4-6.9,22.5-10.3.5-.2.9-.4,1.4-.7,1.1-.5,2.2-1.1,3.3-1.6.5-.2,1-.5,1.5-.8,2.1-1,4-2,5.9-3.1.5-.3,1-.5,1.5-.8,4.4-2.4,8.1-4.8,10.8-7,.7-.6,1.5-1.2,2.2-1.7,3.8-2.9,7.4-5,11-6.4.4-.2.8-.3,1.1-.4.7-.2,1.3-.5,2-.7.8-.2,1.5-.4,2.3-.6-.8.2-1.6.4-2.3.6-.7.2-1.3.4-2,.6-.4.1-.8.3-1.1.4-3.6,1.4-7.2,3.5-11,6.4-.7.5-1.4,1.1-2.2,1.7-2.7,2.2-6.4,4.6-10.8,7-.5.3-1,.5-1.5.8-1.9,1-3.9,2-5.9,3.1-.5.2-1,.5-1.5.8-1.1.5-2.2,1.1-3.3,1.6-.5.2-.9.4-1.4.7-7.1,3.4-14.9,6.8-22.5,10.3-1.1.5-2.3,1-3.4,1.5-5,2.3-10,4.6-14.5,6.9-1,.5-2,1-3,1.5-1,.5-1.9,1-2.9,1.5-.5.3-.9.5-1.4.8-.6.3-1.2.7-1.8,1-3,1.8-5.8,3.5-8.1,5.2-2.2,1.6-4,3.2-5.3,4.8-3.5,4.2-5.3,9.1-5.8,14.2,0,.6-.1,1.1-.1,1.7,0,.6,0,1.1,0,1.7,0,2.3.2,4.6.5,7,0,.6.2,1.2.3,1.7,1.6,9.2,5.5,18,8,23.9,6,13.9,24.3,29.8,25.1,50.1,0,.7,0,1.4,0,2s0,1.4,0,2.1c0,.7-.1,1.4-.2,2-1.8,20.8-6,29.3-6,29.3,0,0,6.2-.5,14.6-2.5-8.4,2-14.5,2.5-14.5,2.5,0,0,4.1-8.5,6-29.3Z"/>
  <path class="st0" d="M348.7,292.1c3.9,0,6.6.3,6.6.3h0s0,0,0,0c-.3,0-2.9-.3-6.6-.3Z"/>
  <path class="st0" d="M288.7,323.7h0c3.1,4.8,11.6,15.6,23.7,15.2-12.1.4-20.5-10.4-23.7-15.2Z"/>
  <path class="st0" d="M43.2,277.9c-4.4,4.2-4.9,14-4.9,14,0,0,0,0,0,0,0,0,.1,0,.1,0,0,0,.4-9.8,4.9-14,6.3-6.1,11.2-6.3,11.4-6.3h0s-4.9.2-11.4,6.3Z"/>
  <path class="st0" d="M247.3,567.2s0,0,0,0c.7-2.5,1-5,.8-7.6h0c.1,2.6-.1,5-.8,7.6Z"/>
  <path class="st0" d="M196.8,478.2h0c.1,0,.2,0,.2,0,0,0,0,0-.2,0l-1.3-.2c0,0-.1,0-.1,0,0,0,0,0,.1,0l1.3.2Z"/>
  <path class="st0" d="M202.2,478.8s0,0,0,0h0s0,0,0,0Z"/>
  <path class="st0" d="M201.8,490.8h1.2c0,.1,0,.2.1.2,0,0,0,0-.1,0h-1.1c0-.1,0-.2-.1-.2,0,0,0,0,.1,0Z"/>
  <path class="st0" d="M196.6,489.1l2.7.3h0l2.7.3c0,0,.1,0,.1,0,0,0,0,0-.1,0l-2.7-.3h0l-2.7-.3c-.1,0-.2,0-.1.1h0s0-.1.1,0Z"/>
  <path class="st0" d="M202.4,479l1.3.2c.1,0,.2.1.2.2h0c0,0,0-.2-.2-.2l-1.3-.2c0,0-.1,0-.2,0,0,0,0,0,.2.1Z"/>
  <path class="st0" d="M197.3,493.7s0,0,0,0c0,0,0,0,0,0Z"/>
  <path class="st0" d="M76.8,281.9h0c-10.8,20.7-6.5,55-5.8,59.9,0,.3,0,.5,0,.5-.2-1.6-5.7-38.6,5.7-60.4,11.6-22.3,7.8-16.7,16-31,8.2-14.3,8.2-15.8,8.2-15.8h0c0,.2-.4,2.2-8.2,15.8-8.2,14.3-4.4,8.7-16,31Z"/>
  <path class="st0" d="M179.7,315.5c.3-3,1.7-5.6,3.6-7.5-.7-.8-1.4-1.7-2.1-2.5-1.4.7-2.7,1.6-3.7,2.8,1.1-1.1,2.3-2.1,3.7-2.8.7.8,1.4,1.7,2.1,2.5-1.9,2-3.3,4.6-3.6,7.5h0c-.7,6.5,3.6,12.3,9.7,13.8,0,0,0,0,0,0-6.2-1.4-10.5-7.3-9.8-13.8Z"/>
  <path class="st0" d="M244.4,542.7c1,3.1,1.8,6.2,2.5,9.4h0c-.7-3.2-1.5-6.3-2.5-9.4-3.6-.9-14.6-3.9-28.5-10.1,0,0,0,0,0,0,13.9,6.2,24.9,9.2,28.4,10.1Z"/>
  <path class="st0" d="M169.2,295.2c-9.6-4.7-23.9-2.9-23.9-2.9h0s14.3-1.8,24,2.9c2.1,1,3.9,2.2,5.5,3.6h0c-1.7-1.4-3.5-2.6-5.5-3.6Z"/>
  <path class="st0" d="M218,554.6s0,0,0,0c1.6-1.6,3.8-2.5,6.2-2.5h0c-2.4,0-4.6.9-6.2,2.5Z"/>
  <path class="st0" d="M195.3,478.2h0s0,0,0,0c0,0,0,0,0,0Z"/>
  <path class="st0" d="M230.8,314.9c-2.3,4.7-7.4,8.4-17.8,8.7h-1.1c-4.4,6.7-19,25-39.5,8.5-3.2-2.6-5.1-5.5-6-8.4.9,2.9,2.8,5.8,6,8.4,20.5,16.5,35.2-1.8,39.5-8.5.4,0,.8,0,1.1,0h0c10.4-.3,15.5-4,17.8-8.7Z"/>
  <path class="st0" d="M190.7,315.9c1.5,1.3,3.1,2.5,4.9,3.6-.2,1.6-1.5,2.9-3.1,3,1.6-.1,2.9-1.4,3.1-3-1.8-1.1-3.4-2.3-4.9-3.6,0,0,0,0,0,0Z"/>
  <polygon class="st0" points="55.6 279.9 49.5 280.3 49.5 280.3 55.6 279.9 55.6 279.9"/>
  <path class="st0" d="M196.5,477l3,.4h0l3,.4c.1,0,.2.1.2.2h0c0,0,0-.2-.2-.2l-3-.4h-.1l-3-.4c-.1,0-.2,0-.2.2h0c0,0,0-.2.2-.2Z"/>
  <path class="st0" d="M215.4,471.3l2.2.3h.1l2.2.3s0,0,0,0l-2.2-.3h-.1l-2.2-.3h0c0,0-.2,0-.2-.1l-1.4-5.5c0-.1,0-.2.2-.2h0s0,0,0,0c-.1,0-.2,0-.2.2l1.4,5.5c0,0,0,.1.2.1Z"/>
  <path class="st0" d="M440.4,311.8c-11.4,16.1-14.1,27.3-14.7,30,0,.3,0,.5,0,.6.1-.9,2.2-12.7,14.8-30.6,13.1-18.6.7-31.7.6-31.8h0s12.5,13.2-.6,31.8Z"/>
  <path class="st0" d="M215.8,465.5l-.5-1.2c0-.1,0-.2.2-.2h0c-.2,0-.3,0-.2.2l.5,1.2c0,.1,0,.2-.2.2h0c.2,0,.3,0,.2-.2Z"/>
  <path class="st0" d="M447.1,280.4h0s-5.1-8.8-5.1-8.8c0,0,0,0,0,0l5.1,8.8Z"/>
  <path class="st0" d="M178.6,466.3c0,0,.1.1.2.1l2.3.3h.1s2.3.3,2.3.3c0,0,0,0,.1,0,0,0,0,0-.1,0l-2.3-.3h-.1s-2.3-.3-2.3-.3h0c0,0-.2,0-.2-.2l-3.1-5.9c0,0,0-.2,0-.2-.1,0-.2,0-.1.2l3.1,5.9Z"/>
  <path class="st0" d="M213.5,480.1l-.4-.9s0,0,0,0c0,0,0,0,0,0l.4.9s0,0,0,.1c0,0,0,0,0-.1Z"/>
  <path class="st0" d="M213.1,479.1s0,0,0,0c0,0,0,0,0,0Z"/>
  <polygon class="st0" points="216.4 479.4 218.5 479.7 216.4 479.4 216.3 479.4 215.2 479.3 216.3 479.4 216.4 479.4"/>
  <path class="st0" d="M462,275.3c-.2-13.6-22.5-20.5-22.5-20.5h0l-43.7-19.6s0,0,0,0l43.7,19.6s22.3,6.9,22.5,20.5c.2,13.1-3.4,16.5-3.7,16.7,0,0,0,0,0,0,0,0,4-3.2,3.7-16.7Z"/>
  <path class="st0" d="M186.7,487.9l-2.8-.3h-.1l-1.6-.2,1.5.2h.1l2.8.3c.1,0,.2.1.2.2l-.4.7h0c0,0,0,.2.2.2h0c-.1,0-.2-.1-.1-.2l.4-.7c0,0,0-.2-.2-.2Z"/>
  <path class="st0" d="M196.8,490.1h-1.2c-.1-.1-.2,0-.1,0l1.8,3.6s0,0,0,0l-1.7-3.5c0,0,0-.1.2-.1h1.2c0,.1,0,.2,0,.2.1,0,.2,0,.2-.1h0s0,0-.1,0Z"/>
  <path class="st0" d="M177.3,460.2l-.8-1.3c0,0,0-.2,0-.2,0,0-.1.1,0,.2l.8,1.3c0,0,0,.2,0,.2,0,0,.1-.1,0-.2Z"/>
  <path class="st0" d="M186.5,492.5s0,0-.2,0l-1.8-.2h0l-1.8-.2c0,0-.1,0-.2,0h0c0,0,0,0,.2,0l1.8.2h0l1.8.2c0,0,.2,0,.2,0l1.4-3.2h0s0,0,0-.1c0,0,0,0,0,0l-1.4,3.2Z"/>
  <path class="st0" d="M179,474.9s0,0,0,0l.7,1s0,0,0,0l-.7-1Z"/>
  <path class="st0" d="M185.3,481.2s0,0-.2,0l-2-.3h-.1l-2.1-.2c0,0-.1,0-.2-.1l-2.6-4.5s0,0,0,0l2.7,4.6c0,0,.1.1.2.1l2.1.3h.1l2,.2c0,0,.2,0,.2,0l1.5-4c0,0,0-.1,0-.1,0,0,0,0,0,.1l-1.5,4Z"/>
  <path class="st0" d="M46.4,101.3c4-3.7,6-5.5,10-9.1,1.1-1,1.7-2.3,1.7-3.6v-40h0c0-2.2-1.8-3.6-4-3.2-6.8,1.4-10.2,2.2-17,3.8v54.9c2.8-.6,4.2-1,7.1-1.6.8-.2,1.6-.6,2.2-1.2Z"/>
  <path class="st0" d="M185.1,476.6s0,.1,0,.1c0,0,0,0,0-.1l.5-.8h0s0,0,0-.1c0,0,0,0,0,0l-.5.8Z"/>
  <path class="st3" d="M473.1,255.2c-8-9.5-28.3-18.7-49.7-28.4-15.6-7-31.7-14.3-38.5-20-10-8.3-19.9-12.4-30.4-12.4s-17,2.4-28.1,7.8c-13,6.4-19.3,7.6-27.1,7.6s-7.2-.2-12.5-.7c-4-.3-8.5-.5-13.4-.5-11,0-21.1.9-24.6,1.2-2.6-.3-13.3-1.3-25.4-1.3s-9.3.2-13.4.5c-5.3.4-9,.7-12.5.7-7.7,0-14-1.2-27.1-7.6-11-5.4-19.7-7.8-28.1-7.8s-20.5,4-30.4,12.4c-6.8,5.7-22.9,13-38.5,20-21.4,9.7-41.7,18.9-49.7,28.4-15.7,18.6-4.2,45.4,1.3,58.2v.3c2.6,5.6,6.4,11,10.4,16.8,7.4,10.5,15.1,21.5,14.2,33.6-1.5,19.3-5.1,27.8-5.3,28.5l-6.6,12.8,14.5-1.2c.5,0,12-1,25.3-5.4,18.8-6.1,31.5-15.5,37.8-28,0,0,0-.1.1-.2,1.8,3.5,4,6.6,6.5,9.3,15.1,16.3,14.1,43.5,13.5,61.6-.2,6.2-.4,11.1.1,14.7,1.8,12.1-.7,21.2-3.3,30.9-.8,2.7-1.5,5.6-2.2,8.5-2,8.4-4.4,34.1,7.4,52.5,5.9,9.1,14.6,15,25.2,17,3.7.7,7.3,1.1,10.9,1.1,6.4,0,12.7-1.2,18.6-3.4,2.8,1.7,5.7,3.3,8.6,4.9-.9,3.2-.8,6.6.3,9.8l13.1,38.1c2.3,6.8,8.8,11.4,16.1,11.4h28.5c7.3,0,13.7-4.6,16.1-11.4l13.1-38.1c1-2.8,1.2-5.8.6-8.7,4.3-2.3,8.6-4.8,12.7-7.4,7,3.2,14.4,4.9,22.1,4.9s7.2-.4,10.9-1.1c10.6-2.1,19.3-8,25.2-17,11.9-18.3,9.4-44.1,7.4-52.5-.7-2.9-1.5-5.7-2.2-8.5-2.7-9.7-5.2-18.8-3.3-30.9.5-3.6.4-8.5.1-14.7-.7-18-1.7-45.2,13.5-61.6,2.5-2.7,4.6-5.8,6.5-9.3,0,0,0,.1,0,.2,6.3,12.5,19.1,21.9,37.8,28,13.3,4.3,24.9,5.3,25.3,5.4l14.6,1.4-6.6-12.9c-.3-.7-3.9-9.2-5.3-28.5-.9-12.1,6.7-23,14.2-33.6,4-5.8,7.9-11.2,10.3-16.8l.2-.3c5.5-12.9,17-39.6,1.3-58.2h0ZM470.9,292.3c-.2.8-.4,1.6-.7,2.4,0,.3-.2.7-.3,1-1.8,5.8-4.1,11-5.7,14.9-.2.5-.4.9-.6,1.4-.2.5-.5,1-.8,1.5-.4.8-.9,1.7-1.4,2.5-.4.7-.8,1.3-1.2,2-8.4,13.1-22.5,28.1-21,46.8.8,11,2.3,18.7,3.6,23.8.2.7.4,1.4.5,2,0,.3.1.5.2.8,1,3.3,1.7,4.8,1.7,4.8,0,0,0,0,0,0,0,0,0,0,0,0,0,0-43.8-3.7-56.7-29-4.7-9.3-7-17.5-8.1-24.1-.1,1.1-.2,2.2-.4,3.4-1,7.9-3.3,16.6-7.8,23.6-1,1.5-2.1,3-3.4,4.4-22.8,24.6-13.8,68.5-15.7,80.6-2.7,17.5,2.6,29.3,5.6,42.4,1.2,5.3,2.1,15,.8,25.2-1.9,14.7-8.6,30.2-25.7,34.3-.5.1-.9.2-1.4.3-.7.1-1.4.3-2.2.4-.2,0-.3,0-.5,0-.7,0-1.4.2-2.1.3h0c-.7,0-1.3.1-2,.2-.2,0-.3,0-.5,0-.7,0-1.3,0-2,0h0c-.6,0-1.3,0-1.9,0-.2,0-.3,0-.5,0-.6,0-1.3,0-1.9-.1,0,0,0,0,0,0-.6,0-1.2-.1-1.8-.2-.1,0-.3,0-.4,0-.6,0-1.2-.2-1.8-.3,0,0,0,0,0,0-.6-.1-1.2-.2-1.7-.4-.1,0-.2,0-.3,0-.6-.1-1.2-.3-1.8-.5,0,0,0,0,0,0-.6-.2-1.1-.3-1.7-.5,0,0-.2,0-.3,0-.6-.2-1.1-.4-1.7-.6,0,0,0,0,0,0-.5-.2-1.1-.4-1.6-.7,0,0-.1,0-.2,0-1.1-.5-2.1-1-3.1-1.5,0,0,0,0-.2,0-.5-.3-1-.5-1.5-.8-.3.2-.6.4-.8.5-.7.4-1.3.9-2,1.3-.3.2-.7.4-1,.7-.7.4-1.3.8-2,1.2-.3.2-.7.4-1,.6-.7.4-1.3.8-2,1.2-.3.2-.7.4-1,.6-.7.4-1.3.8-1.9,1.1-.4.2-.7.4-1.1.6-.6.3-1.2.7-1.8,1-.4.2-.8.4-1.2.7-.6.3-1.1.6-1.7.9-.5.3-1,.5-1.5.8-.4.2-.9.5-1.3.7-.8.4-1.7.8-2.5,1.2,0,0-.2.1-.3.2.3.2.5.4.8.7h0c.2.3.5.6.7.9.2.3.4.6.6.9.3.6.6,1.2.8,1.9.3,1,.4,2,.3,3.1,0,.7-.2,1.4-.4,2l-13.1,38.1c-.3.9-.7,1.7-1.3,2.4-.1.2-.3.4-.5.5,0,0,0,0,0,0-.1.2-.3.3-.4.5-1.2,1.2-2.8,2-4.5,2.3-.6.1-1.2.2-1.8.2h-28.5c-1.6,0-3.2-.5-4.5-1.2-.6-.3-1.1-.7-1.6-1.1,0,0-.1,0-.2-.2-1-.9-1.7-2.1-2.2-3.5l-10.4-30.4-2.7-7.8c0,0,0-.2,0-.3-.8-2.6-.3-5.4,1.3-7.7.2-.2.4-.5.5-.7,0,0,0,0,0,0,.2-.2.4-.4.5-.5h0c.4-.4.9-.7,1.4-1-.2-.1-.5-.2-.8-.4-.3-.2-.7-.3-1-.5-.6-.3-1.2-.6-1.8-.9-.3-.2-.6-.3-.9-.5-.9-.5-1.8-.9-2.7-1.4-.2-.1-.5-.2-.7-.4-.7-.4-1.4-.8-2.1-1.2-.4-.2-.7-.4-1.1-.6-.6-.3-1.2-.7-1.8-1-.4-.2-.8-.4-1.1-.7-.6-.4-1.2-.7-1.9-1.1-.3-.2-.7-.4-1-.6-.9-.6-1.8-1.1-2.8-1.7-.4.2-.9.4-1.4.6,0,0-.2,0-.2,0-.4.2-.8.3-1.2.5-.1,0-.2,0-.3.1-.4.2-.8.3-1.3.5,0,0-.1,0-.2,0-.5.2-1,.3-1.5.5,0,0-.2,0-.2,0-.4.1-.8.2-1.3.4-.1,0-.3,0-.4.1-.4.1-.9.2-1.3.3,0,0-.2,0-.3,0,0,0,0,0,0,0,0,0,0,0,0,0-.5.1-1.1.2-1.6.3,0,0-.2,0-.3,0-.4,0-.9.2-1.3.2-.2,0-.3,0-.5,0-.4,0-.8.1-1.3.2-.1,0-.3,0-.4,0-.6,0-1.1,0-1.7.1,0,0-.2,0-.3,0-.5,0-1,0-1.5,0h-2.3c-.6,0-1.2,0-1.8,0,0,0-.1,0-.2,0-.5,0-1.1,0-1.6-.2-.2,0-.4,0-.6,0-.5,0-.9-.1-1.4-.2-.2,0-.4,0-.6,0-.6,0-1.3-.2-1.9-.3-4.7-.9-8.7-2.7-12-5.1-.7-.5-1.3-1-1.9-1.5-.9-.8-1.7-1.6-2.5-2.5-2.8-3-4.9-6.5-6.5-10.2-.5-1.1-.9-2.1-1.3-3.2-.3-.8-.5-1.5-.8-2.3-.7-2.3-1.2-4.7-1.6-7.1-.3-1.6-.5-3.2-.7-4.7-.4-3.9-.5-7.7-.4-11.2,0-.7,0-1.4.1-2,.2-4,.7-7.4,1.3-9.9.4-1.9.9-3.7,1.4-5.5.5-2,1.1-4,1.6-5.9.5-1.8,1-3.7,1.4-5.6.2-.8.4-1.7.5-2.5,1.4-6.8,2-14.1.7-22.8-1.2-7.9,2.2-29.5-1.7-50.4-.4-2-.8-4-1.3-5.9-.3-1-.5-2-.8-2.9-2.4-7.8-6.1-15.1-11.8-21.3-5.7-6.2-8.8-14.7-10.4-23,0-.2,0-.5-.1-.7-.2-1.2-.4-2.4-.6-3.6-.2-1.4-.4-2.8-.5-4.2-1.1,6.7-3.4,14.8-8.1,24.1-8,15.8-28.1,23.2-42.1,26.5-8.4,2-14.6,2.5-14.6,2.5,0,0,4.1-8.5,6-29.3,0-.7.1-1.3.2-2,0-.7,0-1.4,0-2.1s0-1.4,0-2c-.9-20.3-19.2-36.2-25.1-50.1-2.5-5.8-6.3-14.6-8-23.9,0-.6-.2-1.2-.3-1.7-.3-2.3-.5-4.6-.5-7,0-.6,0-1.1,0-1.7,0-.6,0-1.1.1-1.7.5-5.1,2.3-10,5.8-14.2,1.3-1.6,3.1-3.1,5.3-4.8,2.3-1.7,5-3.4,8.1-5.2.6-.3,1.2-.7,1.8-1,.5-.2.9-.5,1.4-.8.9-.5,1.9-1,2.9-1.5,1-.5,2-1,3-1.5,4.6-2.3,9.5-4.6,14.5-6.9,1.1-.5,2.2-1,3.4-1.5,7.6-3.5,15.4-6.9,22.5-10.3.5-.2.9-.4,1.4-.7,1.1-.5,2.2-1.1,3.3-1.6.5-.2,1-.5,1.5-.8,2.1-1,4.1-2,5.9-3.1.5-.3,1-.5,1.5-.8,4.4-2.4,8.1-4.8,10.8-7,.7-.6,1.4-1.2,2.2-1.7,3.8-2.9,7.4-5,11-6.4.4-.2.8-.3,1.1-.4.7-.2,1.3-.5,2-.6.8-.2,1.6-.4,2.3-.6,2.4-.5,4.7-.7,7.1-.7h0c7.5.1,15.3,2.7,24,7,13.5,6.6,21.2,8.4,30.9,8.4,3.8,0,7.9-.3,12.8-.7,9.2-.8,19.3-.5,26.7,0,.9,0,1.8.1,2.7.2,5.1.3,8.4.7,8.4.7h0c0,0,.3,0,.5,0h0c.6,0,1.6-.2,2.8-.3,1,0,2.3-.2,3.7-.3.7,0,1.5-.1,2.3-.2,2.4-.2,5-.3,7.9-.4h0c6.3-.2,13.5-.2,20.2.4,3.8.3,7.1.6,10.2.7.4,0,.9,0,1.3,0,.4,0,.9,0,1.3,0,1.3,0,2.5,0,3.7,0,.8,0,1.6-.1,2.4-.2.5,0,.9,0,1.4-.2,1.7-.2,3.4-.5,5.1-.9,5.2-1.2,10.9-3.4,18.3-7,2.9-1.4,5.8-2.7,8.5-3.7.5-.2,1.1-.4,1.6-.6,1.8-.6,3.6-1.2,5.4-1.6,2.9-.7,5.8-1.1,8.6-1.1,6.2,0,12.2,1.5,18.5,5.3,1.5.9,2.9,1.9,4.4,3,.8.6,1.6,1.3,2.5,1.9,0,0,.2.2.3.2.9.8,1.9,1.5,3.1,2.3.3.2.7.5,1,.7,1,.7,2.1,1.3,3.2,2,3.2,1.9,7,3.9,11.1,6,.3.2.7.3,1,.5.7.3,1.3.7,2,1,1.2.6,2.5,1.2,3.8,1.8.8.4,1.7.8,2.5,1.2.4.2.8.4,1.2.5,1.1.5,2.3,1.1,3.5,1.6.6.3,1.2.5,1.8.8,1.7.8,3.5,1.6,5.2,2.4.9.4,1.8.8,2.6,1.2.9.4,1.9.8,2.8,1.3.1,0,.3.1.4.2.9.4,1.7.8,2.6,1.2,1.1.5,2.1,1,3.2,1.5,1.1.5,2.2,1,3.2,1.5.6.3,1.2.5,1.8.8,2.4,1.1,4.8,2.3,7.1,3.4,10.8,5.4,19.8,10.6,24,15.6h0c4.3,5.1,6,11.3,6,17.6,0,4.8-.8,9.6-2,14.3Z"/>
  <path class="st3" d="M216,532.6c-1.6,2.5-6.1,9-13.3,14.7,5.4,2.9,10.6,5.3,15.4,7.3,1.6-1.6,3.8-2.5,6.2-2.5h22.6c-.7-3.2-1.5-6.3-2.5-9.4-3.6-.9-14.5-3.9-28.4-10.1Z"/>
  <path class="st3" d="M266.8,535.6c-7.1,2.8-13,4.7-16.8,5.9,2.2,3.1,3.7,6.8,4.5,10.5h10.1s0,0,0,0c2.6,0,5,1.1,6.6,2.9,0,0,0,0,0,0,1.1-.4,2.2-.9,3.4-1.4,2.6-1.1,5.3-2.3,8.1-3.7.6-.3,1.1-.6,1.7-.9,1.1-.6,2.3-1.2,3.4-1.8,1.2-.6,2.4-1.3,3.6-2-7.6-6.7-11.5-13.7-11.5-13.7,0,0-4.4,2.4-10.9,3.6-.8.2-1.6.3-2.4.4Z"/>
  <path class="st3" d="M231.6,586.3h0c0-.5-.4-.9-.6-.9h-2.7l4.7,19.5h1.8c.2,0,.3-.2.2-.5l-3.5-18.1Z"/>
  <path class="st3" d="M241.7,586.3c0-.5-.2-.9-.5-.9h-2.3c-.2,0-.4.4-.4.9l1.4,18.1c0,.2.2.5.3.5h1.6c.2,0,.3-.2.3-.4l-.5-18.1Z"/>
  <path class="st3" d="M259.8,610.3l13.1-38.1c.3-.8-.3-1.6-1.2-1.6h-8.5,0s0,0,0,0h0c-.9,0-1.5-.9-1.1-1.7l3.7-7.7h0c.4-.8-.2-1.7-1.1-1.7h-9.5c-.4,3.9-2.3,7.7-5.2,10.3.2.5.3,1.1.3,1.7,0,2.7-2.2,4.8-5,4.8s0,0,0,0,0,0,0,0c-2.7,0-5-2.2-5-4.8s2.2-4.8,5-4.8,0,0,0,0,0,0,0,0c.7,0,1.3.1,1.9.4.7-2.5.9-5,.8-7.6h-23.8c-.9,0-1.5.9-1.1,1.7l3.7,7.7c.4.8-.2,1.7-1.1,1.7h-8.6c-.8,0-1.4.8-1.2,1.6l13.1,38.1c.2.5.6.8,1.2.8h28.5c.5,0,1-.3,1.2-.8ZM235.7,607.1h-3.9l-6.2-21.8h-.9l-.8-5.5h6.6c1.5,0,3.2,2.9,3.7,6.1h0s2.8,18.6,2.8,18.6c.2,1.5-.4,2.6-1.3,2.6ZM244.1,604.6c0,1.5-.8,2.6-1.7,2.6h-2.2c-.9,0-1.8-1.1-2-2.6l-2.2-18.6c-.4-3.2.5-6.1,2-6.1h0,3.7c1.5,0,2.8,2.9,2.7,6.1l-.3,18.6ZM248.9,607.1h-2.2c-.9,0-1.6-1.1-1.6-2.6l.8-18.6c.1-3.2,1.5-6.2,3-6.2h3.7c1.5,0,2.3,2.9,1.7,6.1l-1.1,6.2h-2.4s.8-5.9.8-5.9c0-.5,0-.9-.3-.9h-2.3c-.2,0-.5.4-.5.9l-1.5,18.2c0,.2,0,.5.3.5h1.6c.2,0,.3-.2.4-.5l.8-5.9h-1.7l.3-3.3h4l-1.7,9.4c-.3,1.5-1.2,2.6-2.1,2.6ZM255.5,607.1h-2.2c-.9,0-1.5-1.1-1.2-2.6l.5-2.5h2l-.6,2.3c0,.2,0,.5.2.5h1.6c.2,0,.4-.2.4-.5l1-3.5c0-.2,0-.3,0-.4l-2.5-4.4c-.4-.7-.5-2-.2-3.4l1.3-6.7c.7-3.3,2.5-6.2,4-6.2h0s3.7,0,3.7,0c1.6,0,1.8,2.9.7,6.2l-1.5,4.5h-2.5l1.2-4.2c.2-.5,0-.9-.2-.9h-2.3c-.2,0-.5.4-.7.9l-1.5,5.9c0,.2,0,.5,0,.6l2.4,5c.3.7.3,1.8,0,2.8l-1.4,4c-.5,1.5-1.6,2.6-2.5,2.6Z"/>
  <path class="st3" d="M55.6,279.9h0s-12.5,13.2.6,31.8h0c11.4,16.2,14.1,27.4,14.7,30-.7-4.8-5-39.1,5.8-59.9h0c11.6-22.3,7.8-16.7,16-31,7.7-13.6,8.1-15.6,8.2-15.8l-43.7,19.6s-22.3,6.9-22.5,20.5c-.2,12.3,3,16,3.6,16.6,0,0,0,0,0,0,0,0,.4-9.8,4.9-14,6.4-6.2,11.4-6.3,11.4-6.3h0s0,0,0,0l-5.1,8.8,6.1-.4s0,0,0,0Z"/>
  <path class="st2" d="M212.1,433.8v-.3c.1,0,0,0-.3,0,.2.2.3.3.3.3Z"/>
  <polygon class="st2" points="212.2 433.5 212.2 433.5 212.2 433.5 212.2 433.5 212.2 433.5"/>
  <line class="st1" x1="263.2" y1="570.7" x2="263.2" y2="570.7"/>
  <path class="st3" d="M430.7,385.7c-4.4-4.2-14.2-15.1-21.1-35.3-8.1-24,2.5-43.5-9.5-71.2-12-27.6-11.9-31.7-15.5-42.4-1.4-4-5-9.4-10.2-14-5.9-5.1-13.9-9.1-22.9-8.3-17.1,1.4-22.2,12.2-52,13.2-29.7,1-51.2.3-51.2.3h0c0,0,0,0,0,0-1.7,0-22.6.7-51.1-.3-29.8-1-34.9-11.7-52-13.2-17.1-1.4-30.2,13.9-33.1,22.3-3.6,10.6-3.5,14.8-15.5,42.4s-1.4,47.2-9.5,71.2c-8.8,26-22.4,36.6-23.4,37.3,0,0,0,0,0,0,0,0,35.8-12.1,42.4-55.5,3.7-24.4-3.5-24.7,5-49.6s14.2-37.1,25.7-46.6c11.4-9.4,38.6,3.4,39.2,3.7,0,0,0,0,0,0,0,0-23.3,18.8-31.8,32.2-8.5,13.4-12,8.8-10.7,42,1.3,33.2,2,40,14.2,54.8,3.2,3.9,5.3,9.4,6.5,15.5.8,6.2,1.8,15.2,1.9,23.8,0,0,0,0,0,0,1.6-2.1,3.7-4.2,6.1-6.3,2.6-8.6,9.8-28.6,24.3-39.5,18.1-13.7,31.9-13.7,32.9-13.7,0,0,0,0,0,0,0,0-20.7,11.6-31.4,27.6-5.1,7.7-7.6,12.6-8.8,15.7,0,0,0,0,0,0,14-4.5,29.7-1,30.8-.8,0,0,0,0,0,0,0,0-25.3,2.2-36.3,13.5-19.2,19.7-16.6,55.1-16.6,55.4,1,7.7,2.1,14.8,3,19.7,1.4,15.8,9.3,24.8,11.3,26.8.2.2.4.4.4.4,0,0,0,0,0,0,0,0-7.2.2-10.1-2.6-.6-.6-1.3-1.2-1.9-1.8-2.7-2.7-5.1-5.4-5.1-5.4h0s-2.1,4.8-3.2,14.2c-1.1,9.3.6,15.8,3.2,21.6.2.4.4.7.8,1.1,5.1,5.7,28.8,12.9,45-4,14.6-15.2,31.6-40.8,39.3-54.5,2.4-4.3,1.7-7.5-.9-10.3-5.7-6.1-20.5-9.9-31.2-18-3.9-2.9-7.2-5.6-9.8-8.1-7.6-7.5-8.7-14.2-.4-26.4,10.9-16,49.9-13.2,51-13.2,0,0,0,0,0,0h0c0,0,35.2-2.6,48.7,10.4.9.9,1.7,1.8,2.4,2.8,11,16.2,5.4,22.7-10.2,34.5s-39.8,14.5-32.1,28.3c7.7,13.7,24.7,39.3,39.3,54.5,0,0,0,0,0,0,17.3,18.1,43.2,8.7,45.8,2.9,2.6-5.8,4.3-12.3,3.2-21.6-1.1-9.5-3.2-14.2-3.2-14.2,0,0,0,0,0,0,0,0-3.7,4.2-7,7.3-3,2.8-10.1,2.6-10.1,2.6,0,0,0,0,0,0,.4-.4,10.2-9.5,11.7-27.2.8-5,2-12.1,3-19.7,0-.3,2.7-35.7-16.6-55.4,0,0,0,0,0,0-11-11.3-36.3-13.5-36.3-13.5,0,0,0,0,0,0,1-.2,16.7-3.7,30.8.8-1.2-3.1-3.7-8-8.8-15.7-1.3-2-2.8-3.9-4.4-5.8-11.1-12.9-27-21.8-27-21.8,0,0,0,0,0,0,.3,0,14.3-.3,32.9,13.7,3.6,2.7,6.8,6,9.6,9.6,0,.1.2.2.3.3.3.3.5.7.8,1,7.6,10.4,11.9,22.4,13.8,28.6,0,0,0,0,0,0,2,1.7,3.7,3.4,5.1,5.1.3.4.7.8,1,1.2,0,0,0,0,0,0,0-8.6,1-17.6,1.9-23.8,1.3-6,3.3-11.6,6.5-15.5,12.2-14.7,12.8-21.5,14.2-54.8,1.3-33.2-2.2-28.6-10.7-42-5.4-8.5-16.8-19.3-24.4-25.9-4.3-3.8-7.4-6.3-7.4-6.3,0,0,0,0,0,0,0,0,27.6-13.2,39.2-3.7,0,0,0,0,0,0,11.5,9.5,17.2,21.7,25.7,46.6,8.5,24.9,1.3,25.2,5,49.6h0c2.9,19,11.3,31.9,19.9,40.5,11.1,11.1,22.4,14.9,22.4,14.9,0,0,0,0,0,0-.2-.1-1-.8-2.4-2ZM273.4,466.8h0s1.4-.2,1.4-.2c.2,0,.2-.2.1-.3l-.8-1c0-.1,0-.2.1-.3l3.3-.5h.1s3.3-.5,3.3-.5c0,0,0,0,0,0h0c.1,0,.3,0,.2.2l-.5,1.2c0,.1,0,.2.2.2l1.4-.2s0,0,0,0h0c.1,0,.2,0,.2.2l-1.4,5.5c0,0,0,.1-.2.1l-2.2.3h-.1l-2.2.3s0,0,0,0h0s0,0,0,0c0,0,0,0,0,0h0c0,0-.2,0-.2,0l-3.2-4.9c0,0,0-.2.1-.2ZM276.6,481.2h0s1.2-.1,1.2-.1c.1,0,.2-.1.1-.2l-.7-.8c0,0,0-.2.1-.2l2.9-.4h0l3-.4c0,0,.1,0,.2,0,0,0,0,0,0,.1l-.4.9s0,0,0,.1c0,0,0,0,.1,0l1.3-.2c0,0,.1,0,.2,0,0,0,0,0,0,.1l-1.3,4.3s0,0-.2,0l-2,.2h0l-2,.2h0c0,0-.1,0-.1,0,0,0,0,0,0,0l-2.7-3.8c0,0,0-.2.1-.2ZM285.2,495.4s0,0-.1,0l-1.8.2h0s0,0,0,0l-1.8.2c0,0-.2,0-.2,0h0s0,0,0,0l-2.3-3c0,0,0-.1.1-.2h1.1c.1-.1.2-.2.1-.3l-.6-.6c0,0,0-.2.1-.2l2.6-.3h0s0,0,0,0l2.6-.3c0,0,.1,0,.1,0,0,0,0,0,0,.1l-.4.8c0,0,0,0,0,.1,0,0,0,0,0,0h1.1c0-.1.1-.1.1,0,0,0,0,0,0,0l-1.2,3.5ZM292.1,464.3l1.5-.2c0,0,.1,0,.2,0,0,0,0,0,0,0,0,0,0,0,0,0,0,0,0,0,0,0l-.7-1s0,0,0,0c0,0,0,0,0,0,0,0,0,0,0,0,0,0,0-.1.2-.1l3.4-.5h.1s3.4-.5,3.4-.5c.1,0,.2,0,.2.1,0,0,0,0,0,0l-.6,1.2s0,0,0,0c0,0,0,.1.2.1l1.5-.2c.2,0,.2,0,.2.2h0s0,0,0,0l-2.2,5.7c0,0,0,.1-.2.1h-1.1c0,.1-1.1.3-1.1.3h-.1l-1.1.2-1.1.2c0,0-.2,0-.2,0h0s0,0,0,0l-2.5-5c0-.1,0-.2.2-.3ZM292.9,479.3s0,0,.1,0l1.3-.2c0,0,.1,0,.1,0,0,0,0,0,0-.1l-.6-.8s0,0,0-.1c0,0,0,0,.2-.1l3-.4h0l3-.4c.1,0,.2,0,.2.2l-.6,1c0,0,0,.2.2.2l1.3-.2h0c.1,0,.2,0,.2.1h0s0,0,0,0l-2,4.4h0s0,0,0,0c0,0,0,0-.1,0l-1.8.2h-.2s0,0,0,0h0s0,0,0,0h-.1s-1.9.3-1.9.3c0,0-.1,0-.2,0l-2.1-3.9s0,0,0-.1ZM295.5,494.2l-1.9-3.1s0,0,0-.1c0,0,0,0,.1,0h1.2c0-.1,0-.2,0-.2,0,0,0,0,.1,0,0,0,0,0,0,0l-.5-.6h0c0,0,0-.1,0-.1,0,0,0,0,.1,0l2.7-.3h0l2.7-.3c.1,0,.2,0,.2.1l-.5.8c0,0,0,.2.2.1h1.2c.1-.1.2,0,.2,0l-1.8,3.6s0,0,0,0c0,0,0,0,0,0l-1.8.2h0l-1.8.2c0,0-.1,0-.2,0ZM311.4,461.6h0s1.5-.2,1.5-.2c.2,0,.3-.2.2-.3l-.5-1.1c0-.1,0-.3.2-.3l3.5-.5h.1s3.5-.5,3.5-.5c0,0,0,0,.1,0,.1,0,.2.1,0,.2l-.8,1.3c0,0,0,.2,0,.2,0,0,0,0,0,0l1.5-.2s0,0,0,0h0c.1,0,.2,0,.2.2l-3.1,5.9c0,0-.1.1-.2.1l-2.3.3h-.1s-2.3.3-2.3.3h0c0,0,0,0-.1,0,0,0-.1,0-.1,0l-1.7-5.2c0-.1,0-.2.2-.3ZM309.9,477.1c0,0,0-.1.2-.1h0s1.3-.1,1.3-.1c.1,0,.2-.1.2-.2l-.5-.8c0,0,0-.2.2-.2l3.1-.4h0s.1,0,.1,0l3.1-.4c.1,0,.2,0,.2.1,0,0,0,0,0,0l-.7,1s0,0,0,.1c0,0,0,0,.1,0l1.3-.2c0,0,.1,0,.1,0,0,0,0,0,0,.1l-2.7,4.6c0,0-.1.1-.2.1l-2.1.3h0l-2,.2h0c0,0-.2,0-.2,0l-1.5-4s0,0,0-.1ZM308.9,489.2h0s1.2-.1,1.2-.1c.1,0,.2-.1.2-.2l-.4-.7c0,0,0-.2.2-.2h.3s2.4-.3,2.4-.3h1.3c0-.1,1.5-.3,1.5-.3,0,0,.1,0,.1,0,0,0,0,0,0,.1l-.6.8s0,0,0,.1c0,0,0,0,.1,0h1.2c0-.1.1-.1.1-.1,0,0,0,0,0,.1l-2.3,3.7c0,0,0,0-.2,0l-1.8.2h0l-1.8.2h0c0,0-.2,0-.2,0l-1.4-3.2s0,0,0,0h0c0,0,0-.2.2-.2ZM283.2,288.9s.9,0,2.3,0c3.1,0,9-.3,14.5-2.5h0c4.4-1.8,14.7-10.9,14.7-10.9,0,0,0,0,0,0,0,0,0,0,0,0,0,0,1.4,12.4-14.7,18.8-1.4.6-2.8.8-4.1.8-7.2.1-12.7-6.4-12.7-6.4,0,0,0,0,0,0,0,0,0,0,0,0ZM185.9,275.5s0,0,0,0c0,0,0,0,0,0,0,0,10.3,9.1,14.7,10.9,5.5,2.2,11.4,2.5,14.5,2.5,1.4,0,2.3,0,2.3,0h0s0,0,0,0c0,0-5.5,6.5-12.7,6.4-1.3,0-2.7-.3-4.1-.8-16.2-6.4-14.7-18.8-14.7-18.8ZM213.1,323.6h0c-.4,0-.8,0-1.1,0-4.4,6.6-19,25-39.5,8.5-3.2-2.6-5.1-5.5-6-8.4-3.8-11.9,8.1-25,8.1-25h.2c-1.7-1.3-3.5-2.5-5.5-3.5-9.6-4.7-24-2.9-24-2.9h0s0,0,0,0c0,0,17.1-19.5,39.2,1.4,13.5,12.8,22.8,18.2,30.6,17.8h0c8.4-.4,11.9-5,13.3-9.5,1.4-4.5.7-8.8.7-8.8h0s0,0,0,0c0,0,5.3,11,2.6,19.7,0,.3-.2.6-.3,1-.1.3-.3.7-.4,1-2.3,4.7-7.4,8.4-17.8,8.7ZM195.3,478.2s0,0,0,0c0,0,0,0,0,0,0,0,0,0,.1,0l1.3.2c0,0,.1,0,.2,0,0,0,0,0,0,0l-.6-1s0,0,0,0h0c0,0,0-.2.2-.2l3,.4h.1l3,.4c.1,0,.2.1.2.2h0s0,0,0,0l-.6.8s0,0,0,0c0,0,0,0,0,0,0,0,0,0,.2,0l1.3.2c.1,0,.2.1.2.2h0s0,0,0,0l-2.1,3.9s0,0-.2,0l-2-.3h0l-2-.2c0,0-.2,0-.2-.1l-2-4.4s0,0,0,0h0ZM196.4,489.3s0,0,0,0h0c0,0,0-.1.1-.1l2.7.3h0l2.7.3c0,0,.1,0,.1,0,0,0,0,0,0,.1l-.5.6s0,0,0,0c0,0,0,0,.1,0h1.1c0,.1.1.2.1.2,0,0,0,0,0,.1l-1.9,3.1s0,0-.2,0l-1.8-.2h0l-1.8-.2s0,0,0,0c0,0,0,0,0,0,0,0,0,0,0,0h0s0,0,0,0l-1.8-3.6c0,0,0-.1.1-.1h1.2c.1.1.2,0,.1,0l-.5-.7ZM186.6,489h1.2c0,.1.1.2.1.2,0,0,0,0,0,.1h0s-1.4,3.2-1.4,3.2c0,0,0,0-.2,0l-1.8-.2h0l-1.8-.2c0,0-.1,0-.2,0h0s0,0,0,0l-2.3-3.7c0,0,0-.1.1-.1h1.2c.1.2.2,0,.1,0l-.6-.8c0,0,0-.2.1-.1h1.2c0,.1,1.6.3,1.6.3h.1l2.8.3c.1,0,.2.1.2.2l-.4.7c0,0,0,.1.1.2ZM185.6,475.8h0s-.5.8-.5.8c0,0,0,0,0,.1,0,0,0,0,.2,0l1.3.2c0,0,.1,0,.2.1,0,0,0,0,0,.1l-1.5,4s0,0-.2,0l-2-.2h-.1l-2.1-.3c0,0-.1,0-.2-.1l-2.7-4.6s0,0,0,0h0c0-.1,0-.2.1-.2l1.3.2c.1,0,.2,0,.1-.2l-.7-1s0,0,0,0h0c0-.1,0-.2.1-.2l3.1.4h.1,0s3.1.4,3.1.4c0,0,.1,0,.2.1,0,0,0,.1,0,.2ZM175.6,460.2s0,0,0,0l1.5.2s0,0,0,0c0,0,.1-.1,0-.2l-.8-1.3c0-.1,0-.2,0-.2,0,0,0,0,.1,0l3.5.5h.1s3.5.5,3.5.5c.2,0,.3.2.2.3l-.5,1.1c0,.1,0,.3.2.3l1.5.2c.1,0,.3.2.2.3l-1.7,5.2s0,0,0,0c0,0,0,0-.1,0l-2.3-.3h-.1s-2.3-.3-2.3-.3c0,0-.2,0-.2-.1l-3.1-5.9c0-.1,0-.2.1-.2ZM214.1,465.5h0s0,0,0,0c0,0,0,0,0,0l1.4.2c.1,0,.3-.1.2-.2l-.5-1.2c0-.1,0-.2.2-.2h0s0,0,0,0l3.3.5h.1s3.3.5,3.3.5c.2,0,.2.2.1.3l-.8,1c0,.1,0,.2.1.3l1.4.2c.1,0,.2.2.1.2l-3.2,4.9c0,0-.1,0-.2,0h0s0,0,0,0l-2.2-.3h-.1l-2.2-.3c0,0-.2,0-.2-.1l-1.4-5.5c0-.1,0-.2.2-.2ZM211.9,480.2s0,0,.2,0l1.3.2c0,0,.1,0,.1,0,0,0,0,0,0-.1l-.4-.9s0,0,0,0c0,0,0,0,0,0,0,0,0,0,0,0,0,0,0,0,.2,0l1.9.2h1.1c0,.1.1.1.1.1l2.2.3h.8c.1.1.2.2.1.3l-.7.8c0,0,0,.2.1.2l1.2.2c.1,0,.2.1.1.2l-2.7,3.8s-.1,0-.2,0h0s0,0,0,0l-2-.2h-.1l-2-.2c0,0-.1,0-.2,0l-1.3-4.3c0,0,0,0,0-.1ZM210.3,491.8s0,0,.1,0h0s0,0,0,0c0,0,0,0,0,0h1.1c.1.1.2,0,.2,0l-.4-.8c0,0,0-.2.2-.1h0s0,0,0,0h.3s2.4.3,2.4.3h0l2.4.3h.3s0,0,0,0c0,0,0,0,0,0,0,0,0,0,0,.1l-.6.6s0,0,0,.1c0,0,0,0,0,0,0,0,0,0,0,0h1.1c0,.1,0,.2,0,.2,0,0,0,0,0,0,0,0,0,0,0,.1l-2.3,3s0,0,0,0c0,0,0,0-.1,0,0,0,0,0,0,0h0s0,0,0,0l-1.8-.2h0l-1.8-.2c0,0-.1,0-.1,0l-1.2-3.5s0,0,0,0ZM199.9,461.9h.1s3.4.5,3.4.5c.1,0,.2.1.2.2,0,0,0,0,0,0l-.7,1s0,0,0,0c0,0,0,.2.2.2l1.5.2c.1,0,.2.2.2.3h0s0,0,0,0l-2.5,5c0,0,0,0-.2,0l-2.2-.3h0s-.1,0-.1,0h0s-2.2-.3-2.2-.3h0c0,0-.2,0-.2-.1l-2.2-5.7s0,0,0-.1c0,0,0-.1.2-.1h0s1.5.2,1.5.2c.1,0,.2,0,.2-.1,0,0,0,0,0,0l-.6-1.2s0,0,0-.1c0,0,0-.2.2-.1l3.4.5ZM245.7,279.9c0-23.8,3.7-40.2,4.5-43.7v-.6s0,0,0,0h0s.8,3,1.7,8.3c0,0,0,0,0,0,0,.2,0,.4.1.6,0,.2,0,.5.1.7,0,0,0,0,0,0,.3,1.7.6,3.7.9,5.8,0,0,0,.2,0,.3,0,.4.1.9.2,1.3.9,7.3,1.7,16.7,1.7,27.2,0,25.8-4.7,48.2-4.7,48.2h0s0,0,0,0v-.5c-.6-3.2-4.6-23.9-4.6-47.7ZM336.7,284.1c11.3-.1,18.7,8.3,18.7,8.3,0,0,0,0,0,0,0,0,0,0,0,0h0s-2.7-.3-6.6-.3c-5,0-11.9.6-17.3,3.2-2,1-3.8,2.2-5.5,3.5h0c0,0,0,0,0,0h0s18.5,20.2,2.1,33.3c-5.8,4.7-11.1,6.6-15.8,6.7-12.1.4-20.6-10.4-23.7-15.2h-1.1c-30.2-.8-16-30.4-16-30.4,0,0,0,0,0,0,0,0,0,0,0,0,0,0-2.9,17.5,13.9,18.3h0c.5,0,1,0,1.4,0,7.5-.3,16.5-5.8,29.1-17.8,7.6-7.2,14.6-9.6,20.5-9.7Z"/>
  <path class="st3" d="M462,275.3c-.2-13.6-22.5-20.5-22.5-20.5l-43.7-19.6h0s0,1.5,8.2,15.8h0c8.2,14.3,4.4,8.7,16,31,11.4,21.8,6,58.8,5.7,60.4,0,0,0-.3.1-.6.5-2.7,3.3-13.9,14.7-30,13.1-18.6.6-31.8.6-31.8h0s6.1.4,6.1.4h0s-5.1-8.8-5.1-8.8c0,0,0,0,0,0,.2,0,5.1.3,11.3,6.3,4.4,4.2,4.9,14,4.9,14,0,0,0,0,0,0,.3-.2,3.9-3.7,3.7-16.7Z"/>
  <path class="st3" d="M229.9,442.3c3.7,3.6,9.3,6.8,10.8,7.7.3.2.4.2.4.2h0s7.1-15.8,7.1-15.8h0c0,0,7.1,15.8,7.1,15.8h0s.2,0,.4-.2c1.6-.9,7.1-4.1,10.8-7.7,2-1.9,3.5-3.9,3.6-5.7.3-5.8-6.9,3.3-10.1-3.8-1.5-3.2-1.1-8.6,8.9-8.8,1.8,0,4,.1,6.6.5,14.2,2,10.5,7.6,9.2,9.1h0s0,0,0,0c1-.1,3.4-.5,5.6-1.9,2.7-1.8,4.9-5.2,2.6-11.7-4.5-13-44.8-11.3-44.8-11.3-.7,0-40.2-1.7-44.7,11.2-.6,1.8-.9,3.4-1,4.7-.2,7.3,7.3,8.6,9.1,8.8-1.2-1.4-5-7,9.2-9.1,2.6-.4,4.7-.5,6.6-.5,10,.2,10.4,5.6,8.9,8.8-.8,1.7-1.7,2.4-2.8,2.7-2.6.8-5.6-1.6-6.9-.8-.4.2-.6.8-.5,1.9h0c0,1.8,1.6,3.8,3.6,5.7Z"/>
  <path class="st2" d="M284.9,433.5s0,0,0,0h0c-.3,0-.4,0-.4,0v.3q.1,0,.1,0h0s.1-.1.3-.3Z"/>
  <path class="st3" d="M239.5,529.5c5.3,2.7,12,2.7,17.3,0,5.5-2.8,8-7.6,7.8-12.6-.1-3-1.2-6.2-3.2-9.1-4.2-6.1-13.1-26.5-13.1-26.5,0,0-9.2,20.4-13.4,26.5-2,2.9-3.1,6.1-3.2,9.1-.2,5.1,2.3,9.8,7.9,12.6Z"/>
  <path class="st3" d="M315.1,329.6c7-.8,12-7.1,11.2-14.1-.3-2.8-1.5-5.3-3.3-7.2-1.1-1.1-2.3-2.1-3.7-2.8-.7.8-1.4,1.7-2.1,2.5,2,2,3.3,4.6,3.6,7.5h0c.7,6.5-3.6,12.4-9.8,13.8,1.3.3,2.6.3,4,.2Z"/>
  <path class="st3" d="M309.9,316c-1.5,1.3-3.1,2.5-4.9,3.6.2,1.9,1.9,3.2,3.8,3h0c1.9-.2,3.2-1.9,3.1-3.8,0,0,0,0,0,0-.1-1.2-.9-2.3-2-2.8Z"/>
  <path class="st3" d="M179.7,315.5h0c.3-3,1.7-5.6,3.6-7.6-.7-.8-1.4-1.7-2.1-2.5-1.4.7-2.7,1.6-3.7,2.8-1.8,1.9-3,4.4-3.3,7.2-.8,7,4.2,13.3,11.2,14.1h0c1.4.1,2.7,0,3.9-.2-6.2-1.5-10.4-7.3-9.7-13.8Z"/>
  <path class="st3" d="M195.6,319.5c-1.8-1.1-3.4-2.3-4.9-3.6-1.1.5-1.9,1.5-2,2.8-.2,1.9,1.2,3.6,3,3.8.2,0,.5,0,.7,0,1.6-.1,2.9-1.4,3.1-3Z"/>
  <path class="st3" d="M37.1,185.5v-56.2c4.5-1,6.7-1.5,11.2-2.5,3.2-.7,6.4-2.4,9-4.8,7-6.4,14.1-12.7,21.2-19,5.3-4.7,8.5-11.3,8.5-17.9v-47.3h0c.8-13.1-11.9-21.4-23.8-19.4-18.8,3.9-37.5,8.2-56.1,13.1-2.4,9-4.7,18-7.1,27,3.4-.9,5.1-1.4,8.4-2.3v136.2c9.5-2.5,19.1-4.8,28.7-7.1ZM37.1,49.2c6.8-1.6,10.2-2.3,17-3.8,2.2-.5,4,.9,4,3.1h0v40c0,1.3-.6,2.6-1.7,3.6-4,3.6-6,5.4-10,9.1-.7.6-1.5,1-2.2,1.2-2.8.6-4.2,1-7.1,1.6v-54.9Z"/>
  <path class="st3" d="M109.6,171.7c9.7-1.4,19.4-2.7,29.1-3.9v-56.2c8.5-1,12.7-1.5,21.2-2.3v56.2c9.8-.9,19.5-1.7,29.3-2.3V1.9c-9.8.7-19.5,1.5-29.3,2.3v80c-8.5.8-12.8,1.3-21.2,2.3V6.5c-10.2,1.3-20.3,2.6-30.5,4.1-2.4,8.7-4.8,17.5-7.2,26.2,3.4-.5,5.1-.8,8.6-1.3v136.2Z"/>
  <path class="st3" d="M212,162c9.8-.3,19.5-.6,29.3-.7V0c-10.2.1-20.4.4-30.7.8-2.4,8.5-4.9,17-7.3,25.4,3.5-.2,5.2-.2,8.6-.4v136.2Z"/>
  <path class="st3" d="M264.1,161.4c21.3.5,42.6,1.5,63.9,3.2v-25.1c-11.5-1-23-1.7-34.6-2.2V1c-9.8-.4-19.5-.7-29.3-.9-.5,0-.8,0-1.4,0-2.4,8.3-4.9,16.7-7.3,25,3.5,0,5.2,0,8.6,0v136.2Z"/>
  <path class="st3" d="M350.7,166.7c21.3,2.4,42.4,5.4,63.5,9v-25.1h0c-11.4-2-22.8-3.8-34.3-5.4V9c-9.7-1.3-19.4-2.5-29.2-3.6-.5,0-.8,0-1.3-.1-2.4,8.1-4.8,16.2-7.3,24.4,3.5.3,5.2.5,8.6.9v136.2Z"/>
  <path class="st3" d="M499,102.8V33.5h0c-9.5-2.5-19-5-28.6-7.3v64.2c0,2.2-1.8,3.5-3.9,3-5.2-1.2-7.8-1.8-13-3-2.2-.5-3.9-2.7-3.9-4.8V21.4c-10.1-2.1-20.1-4.1-30.2-6-2.9,9.5-4.3,14.3-7.2,23.8,3.4.6,5.1.9,8.5,1.5v44.3c.6,13,10.4,26.1,23.7,28.5.5,0,.8.2,1.2.3v68.1c9.6,2.1,19.2,4.3,28.8,6.6v-68.1c.5.1.7.2,1.2.3,11.5,2.5,24.4-4.6,23.5-17.8Z"/>
  <path class="st3" d="M104.7,637c-5.7-.6-8.5-1-14.2-1.7-2.4,13.8-4.7,27.6-7.1,41.4-2.4-14.4-4.8-28.9-7.1-43.3-5.6-.8-8.5-1.2-14.1-2-2.4,13.8-4.7,27.5-7.1,41.3-2.4-14.5-4.7-29-7.1-43.5-5.6-.9-8.4-1.4-14.1-2.3-.3,0-.4,0-.7-.1-1.4,4.7-2.1,7-3.5,11.6,2.6.5,3.9.7,6.5,1.1,4.2,22.8,8.5,45.7,12.8,68.5,4.9.8,7.3,1.2,12.2,1.9,2.7-13.6,5.4-27.2,8.1-40.8,2.7,14.4,5.4,28.7,8.1,43.1,4.9.7,7.3,1,12.2,1.6,5.1-25.6,10.1-51.2,15.2-76.9h0Z"/>
  <path class="st3" d="M116.9,638.4c-1.4,4.8-2.1,7.1-3.5,11.9,1.7.2,2.5.3,4.2.4-5.3,21.6-10.7,43.1-16.1,64.7,5.7.7,8.5,1,14.2,1.6,1.5-6.7,2.2-10.1,3.7-16.8,5.8.6,8.7.9,14.5,1.4,1.5,7,2.2,10.5,3.8,17.5,5.7.5,8.5.7,14.2,1.1-6.4-26.7-12.7-53.5-19.1-80.2-6.3-.6-9.5-.9-15.8-1.5ZM122,688.1c1.8-8.3,2.8-12.4,4.6-20.7,1.8,8.6,2.8,12.9,4.6,21.6-3.7-.3-5.5-.5-9.2-.9Z"/>
  <polygon class="st3" points="151.8 720.1 151.8 720.1 151.8 720.1 151.8 720.1"/>
  <path class="st3" d="M147.4,653.4c4.9.4,7.3.6,12.3.9v66.4c5.7.4,8.5.6,14.2.9v-66.4c4.9.3,7.4.4,12.3.6h0s0-12.2,0-12.2c-11.8-.6-23.5-1.3-35.2-2.2-1.4,4.8-2.1,7.2-3.5,12Z"/>
  <path class="st3" d="M193.1,643.9c-1.4,4.8-2.1,7.2-3.5,12.1,1.7,0,2.5.1,4.2.2v66.4c10.3.4,20.7.7,31,.9v-12.2c-6.7-.1-10.1-.2-16.8-.4v-21c6.7.2,10.1.3,16.8.4v-12.2c-6.7-.1-10.1-.2-16.8-.4v-21h0c6.7.2,10.1.3,16.8.4v-12.2c-10.3-.2-20.7-.5-31-.9-.3,0-.4,0-.6,0Z"/>
  <path class="st3" d="M270.4,692.4c-1.5-1-2.2-1.5-3.6-2.4,1.5-1,2.2-1.5,3.6-2.6h0c2.6-1.9,4.2-4.9,4.2-8.1v-23c0-6.4-5.2-11.5-11.7-11.4-9.3,0-18.5.1-27.8,0-1.4,4.9-2.1,7.3-3.5,12.2,1.7,0,2.5,0,4.2,0v66.4c5.7,0,8.5,0,14.2,0v-27.4c1.4,0,2.1,0,3.5,0s.8.1,1.1.3c2,1.3,2.9,2,4.9,3.3.5.4.8,1,.8,1.6v22.1c5.7,0,8.5-.1,14.2-.2v-23.1c0-3.2-1.6-6.1-4.2-7.9ZM260.4,659.1v19.5c0,.6-.3,1.2-.8,1.6-2,1.4-2.9,2.1-4.9,3.4-.3.2-.7.3-1.1.3-1.4,0-2.1,0-3.5,0v-26.8c3.4,0,5,0,8.4,0,1.1,0,2,.8,2,1.9h0Z"/>
  <path class="st3" d="M312.8,643.2c-9.3.5-18.5.8-27.8,1.2-1.4,4.9-2.1,7.4-3.5,12.3,1.7,0,2.5,0,4.2-.1v66.4c9-.3,18.1-.7,27.1-1.2,6.4-.3,11.7-5.9,11.7-12.3v-55.4c0-6.4-5.2-11.3-11.7-11ZM310.2,707.8c0,1.1-.9,2-1.9,2-3.4.2-5,.2-8.4.4v-54.2c3.4-.1,5-.2,8.4-.4,1.1,0,1.9.8,1.9,1.8v50.3Z"/>
  <polygon class="st3" points="324.4 654.1 324.4 654.1 324.4 654.2 324.4 654.1"/>
  <path class="st3" d="M359.4,639.8c-6.2.6-9.2.8-15.4,1.3-6.4.5-11.7,6.1-11.7,12.5v55.4c0,6.4,5.2,11.3,11.7,10.8,6.2-.5,9.2-.8,15.4-1.3,6.4-.6,11.6-6.3,11.6-12.8v-55.4c0-6.4-5.2-11.1-11.6-10.5ZM356.9,704.5c0,1.1-.9,2-1.9,2.1-2.6.2-3.9.3-6.4.5-1.1,0-1.9-.7-1.9-1.8v-50.3c0-1.1.9-2,1.9-2.1,2.6-.2,3.9-.3,6.4-.5,1.1,0,1.9.7,1.9,1.8v50.3Z"/>
  <path class="st3" d="M404.8,634.9c-6.1.8-9.2,1.2-15.4,1.9-6.4.7-11.6,6.5-11.6,12.9v55.4c0,6.4,5.2,11.1,11.6,10.3,6.1-.7,9.2-1.1,15.4-1.9,6.4-.8,11.6-6.7,11.6-13.2v-33.8c-8.1,1.1-12.2,1.6-20.3,2.6v12.2c2.5-.3,3.7-.5,6.1-.8v19c0,1.1-.9,2-1.9,2.2-2.6.3-3.8.5-6.4.8-1.1.1-1.9-.6-1.9-1.7v-50.3c0-1.1.9-2,1.9-2.2,2.6-.3,3.8-.5,6.4-.8,1.1-.1,1.9.6,1.9,1.7v11.7h0c5.7-.7,8.5-1.1,14.1-1.8v-14.2c0-6.4-5.2-10.9-11.6-10.1Z"/>
  <path class="st3" d="M450,628.2c-6.1,1-9.2,1.5-15.3,2.4h0c-6.4,1-11.6,6.9-11.6,13.3v16.8c0,3.8,1.8,7.1,4.9,8.8,7.4,4.1,11.2,6.2,18.6,10.2.5.3.8.8.8,1.5v11.9c0,1.1-.9,2.1-1.9,2.2-2.5.4-3.8.6-6.4,1-1.1.2-1.9-.6-1.9-1.6v-7.5c-5.6.9-8.5,1.3-14.1,2.1v10c0,6.4,5.2,10.9,11.6,9.9,6.1-.9,9.2-1.4,15.3-2.4,6.4-1.1,11.5-7.2,11.5-13.6v-16.8c0-3.8-1.8-7-4.9-8.7-7.4-4-11.1-6-18.6-10.1-.5-.3-.8-.8-.8-1.5v-11.9c0-1.1.9-2.1,1.9-2.2,2.5-.4,3.8-.6,6.4-1,1.1-.2,1.9.6,1.9,1.6v7.5c5.6-.9,8.5-1.4,14.1-2.4v-10c0-6.4-5.2-10.7-11.5-9.7Z"/>
  <line class="st1" x1="238" y1="579.8" x2="238" y2="579.8"/>
</svg>