<?xml version="1.0" encoding="UTF-8"?>
<svg id="ICON" xmlns="http://www.w3.org/2000/svg" version="1.1" viewBox="0 0 1080 1080">
  <!-- Generator: Adobe Illustrator 30.1.0, SVG Export Plug-In . SVG Version: 2.1.1 Build 136)  -->
  <defs>
    <style>
      .st0 {
        fill: none;
      }

      .st1 {
        fill: #99a4ad;
      }

      .st2 {
        fill: #fff;
      }

      .st3 {
        fill: #553dad;
      }
    </style>
  </defs>
  <g id="FULL_COLOR">
    <path class="st2" d="M543,624.8v-44.8,29.4s0,25.9,0,25.9c0,0,0,0,0,0v-10.6h0Z"/>
    <path class="st2" d="M845.8,330.5c-10.8-12.9-38.2-25.2-67-38.3-21-9.5-42.7-19.3-51.9-27-13.4-11.2-26.8-16.7-41-16.7s-23,3.3-37.9,10.6c-17.5,8.6-26.1,10.2-36.5,10.2s-9.7-.3-16.8-.9c-5.5-.5-11.5-.7-18-.7-14.9,0-28.4,1.2-33.2,1.7-3.5-.4-17.9-1.8-34.2-1.8s-12.6.2-18,.7c-7.1.6-12.2.9-16.8.9-10.4,0-18.9-1.6-36.5-10.2-14.9-7.3-26.6-10.6-37.9-10.6s-27.6,5.4-41,16.7c-9.2,7.7-30.9,17.5-51.9,27-28.9,13.1-56.2,25.4-67,38.3-21.2,25.1-5.7,61.2,1.7,78.5l.2.5c3.2,7.6,8.4,14.9,13.9,22.6,10,14.2,20.3,28.9,19.1,45.3-2,26-6.8,37.5-7.2,38.4l-8.8,17.2,19.6-1.6c.6,0,16.2-1.4,34.2-7.2,25.3-8.2,42.5-20.9,51-37.8,0,0,0-.2.1-.3,2.5,4.7,5.4,8.9,8.7,12.5,20.4,22,19,58.7,18.1,83-.3,8.4-.6,15,.2,19.8,2.5,16.3-.9,28.6-4.5,41.6-1,3.7-2.1,7.5-3,11.4-2.6,11.3-6,46,10,70.7,7.9,12.2,19.7,20.2,34,23,4.9,1,9.9,1.5,14.7,1.5,8.6,0,17.1-1.5,25.1-4.6,3.8,2.3,7.7,4.5,11.6,6.6-1.2,4.3-1.1,8.9.4,13.2l17.6,51.4c3.2,9.2,11.9,15.4,21.7,15.4h38.4c9.8,0,18.5-6.2,21.7-15.4l17.6-51.4c1.3-3.8,1.5-7.8.8-11.7,5.8-3.2,11.6-6.5,17.1-10,9.5,4.3,19.5,6.5,29.8,6.5s9.8-.5,14.7-1.5c14.3-2.8,26-10.7,34-23,16-24.7,12.6-59.4,10-70.7-.9-3.9-2-7.7-3-11.4-3.6-13-7-25.3-4.5-41.6.7-4.8.5-11.5.2-19.8-.9-24.3-2.3-61,18.1-83,3.3-3.6,6.3-7.8,8.7-12.5,0,0,0,.2.1.3,8.5,16.8,25.7,29.5,51,37.8,17.9,5.8,33.5,7.2,34.2,7.2l19.7,1.8-9-17.4c-.4-.9-5.2-12.4-7.2-38.4-1.3-16.3,9.1-31,19.1-45.3,5.5-7.8,10.6-15.1,13.8-22.6l.2-.5c7.4-17.3,22.9-53.4,1.7-78.5h0ZM845.5,366.2c-.1,1.4-.3,2.8-.5,4.2-.1,1-.3,2-.5,3.1-.2,1.2-.5,2.5-.8,3.7,0,.4-.2.7-.2,1.1-.4,1.8-.9,3.5-1.4,5.2-.2.8-.5,1.6-.7,2.4-.8,2.6-1.7,5.1-2.6,7.5-.3.9-.7,1.8-1,2.6-.7,1.6-1.3,3.2-1.9,4.7-.4,1-.8,1.9-1.2,2.8-.3.6-.5,1.2-.8,1.8-.3.6-.6,1.2-.9,1.9-.6,1.3-1.4,2.7-2.1,4-10.7,18.6-32.9,40-30.8,67.1,1,12.9,2.7,22.5,4.2,29.3,0,.2.1.5.2.7.2.7.3,1.4.5,2,.2,1,.5,1.9.7,2.7.2.7.4,1.4.6,2,1.2,3.7,2,5.5,2,5.5h0s-59.1-5-76.3-39c-6.4-12.6-9.5-23.7-11-32.7-.1,1.5-.3,3.1-.5,4.7-1,7.6-2.8,15.7-5.9,23.1-.8,1.8-1.6,3.6-2.5,5.3-1.8,3.4-4,6.6-6.7,9.4-15.3,16.5-20,39.6-21.1,60.5,0,0,0,.1,0,.2,0,1.9-.2,3.8-.2,5.7h0c-.5,18.7,1.4,34.8.3,42.2-3.6,23.6,3.5,39.5,7.6,57.2,1.8,7.7,3.1,22.6.5,37.5-3.3,19.2-12.9,38.5-35.9,43-1,.2-1.9.3-2.9.5-.2,0-.5,0-.7,0-1,.1-1.9.2-2.8.3h0c-.9,0-1.8.2-2.7.2-.2,0-.4,0-.7,0-.9,0-1.8,0-2.7,0h-.1c-.9,0-1.7,0-2.5,0-.2,0-.4,0-.6,0-.9,0-1.7,0-2.6-.2,0,0,0,0-.1,0-.8,0-1.6-.2-2.4-.3-.2,0-.4,0-.5,0-.8-.1-1.7-.3-2.5-.4,0,0,0,0-.1,0-.8-.2-1.5-.3-2.3-.5-.2,0-.3,0-.5-.1-.8-.2-1.6-.4-2.3-.6,0,0,0,0,0,0-.8-.2-1.5-.5-2.2-.7-.1,0-.2,0-.4-.1-.8-.3-1.5-.5-2.2-.8,0,0,0,0,0,0-.7-.3-1.4-.6-2.2-.9,0,0-.2,0-.3-.1-.7-.3-1.4-.6-2.2-1h0c-.7-.3-1.4-.7-2.1-1,0,0-.1,0-.2-.1-.7-.4-1.4-.7-2-1.1h0c-4.1,2.7-8.2,5.2-12.2,7.6h0c-1.3.8-2.6,1.5-4,2.3,0,0,0,0,0,0-1.3.7-2.6,1.5-3.9,2.2,0,0,0,0,0,0-1.3.7-2.5,1.4-3.8,2,0,0,0,0-.1,0-1.2.7-2.4,1.3-3.6,1.9,0,0,0,0,0,0-1.2.6-2.4,1.2-3.6,1.8h0c.3.3.7.6,1,.9h0c.3.4.6.8.9,1.2.8,1,1.3,2.2,1.7,3.3.3,1,.5,2.1.6,3.2,0,.9,0,1.9-.2,2.8,0,.5-.2.9-.4,1.4l-17.6,51.4c-1.7,4.8-6.2,8-11.4,8h-38.4c-2.4,0-4.7-.7-6.6-2-.3-.2-.6-.4-.9-.6-.3-.2-.6-.5-.9-.8-1.3-1.3-2.3-2.8-3-4.7l-17.6-51.4c-1.2-3.6-.6-7.6,1.7-10.7.2-.3.5-.6.8-.9,0,0,0,0,0,0,.2-.3.5-.5.8-.8,0,0,0,0,0,0,.6-.5,1.2-1,1.9-1.4h0c-1-.5-2-1-2.9-1.5s-.2-.1-.4-.2c-1-.5-2-1-3-1.5-.1,0-.2-.1-.4-.2-1-.5-2-1-3-1.6,0,0,0,0-.1,0-1-.5-2-1.1-3.1-1.7-.1,0-.3-.2-.4-.2-2.1-1.2-4.2-2.3-6.3-3.6-.1,0-.2-.1-.4-.2-1-.6-2.1-1.2-3.2-1.9-.1,0-.2-.1-.3-.2-1.1-.7-2.2-1.3-3.2-2h0c-.6.3-1.2.6-1.9.9-.1,0-.2,0-.3.1-.5.2-1.1.5-1.6.7-.1,0-.3.1-.4.2-.6.2-1.2.4-1.8.7,0,0-.1,0-.2,0-.7.2-1.4.5-2,.7-.1,0-.2,0-.3,0-.6.2-1.1.3-1.7.5-.2,0-.4,0-.5.1-.6.2-1.1.3-1.7.4-.1,0-.2,0-.4,0-.7.2-1.4.3-2.2.4-.1,0-.2,0-.4,0-.6.1-1.2.2-1.8.3-.2,0-.4,0-.6,0-.6,0-1.1.2-1.7.2-.2,0-.4,0-.5,0-.8,0-1.5.1-2.3.2-.1,0-.2,0-.3,0-.7,0-1.3,0-2,0h-2.5c-.2,0-.4,0-.7,0-.8,0-1.6,0-2.4-.1,0,0-.1,0-.2,0-.7,0-1.5-.1-2.2-.2-.2,0-.5,0-.8,0-.6,0-1.2-.2-1.9-.2-.2,0-.5,0-.8-.1-.9-.1-1.7-.3-2.6-.5-3.8-.8-7.3-1.9-10.4-3.4,0,0,0,0,0,0-2.2-1.1-4.2-2.3-6.1-3.7-1.2-.9-2.3-1.8-3.3-2.7-.4-.4-.9-.8-1.3-1.2-.4-.4-.8-.9-1.2-1.3-.6-.7-1.2-1.4-1.8-2.1-1.2-1.5-2.3-3.1-3.3-4.7-.7-1.2-1.4-2.4-2.1-3.7-.5-1-1-1.9-1.4-2.9s-.8-2-1.2-3c-.6-1.5-1.1-3.1-1.6-4.7-.3-1-.6-2.1-.9-3.2-.1-.5-.3-1.1-.4-1.6-.5-2.1-.9-4.3-1.2-6.4,0-.5-.2-1.1-.2-1.6-1.9-13.8-.7-27.1,1-34.3v-.4c.3-.8.5-1.7.7-2.5.3-1.3.7-2.7,1-4,.4-1.5.8-3,1.2-4.5.5-1.6.9-3.2,1.3-4.9.6-2.2,1.1-4.4,1.6-6.6.6-2.8,1.2-5.7,1.6-8.6,1.1-7.7,1.5-16,0-25.6-1.4-9.1,1.8-31.8-.5-55.9-.3-2.7-.6-5.4-1-8-.1-.8-.2-1.5-.4-2.3-2.7-15.3-8.2-30.5-19.1-42.3-8.4-9-12.5-21.8-14.5-33.8-.5-3-.9-5.9-1.1-8.7-1.4,8.6-4.3,19.2-10.2,31.2-.2.5-.5,1-.8,1.5-17.3,34.1-76.4,39-76.4,39,0,0,5.2-10.8,7.8-37.1.2-1.7.3-3.4.5-5.2,2.3-30-25.2-53-33.8-73-3.4-7.9-8.5-19.7-10.7-32.2-.1-.8-.3-1.5-.4-2.3-1.7-11.7-.5-23.7,7.5-33.1,2.3-2.8,5.9-5.6,10.2-8.6.4-.2.7-.5,1.1-.7.5-.3.9-.6,1.4-.9,1-.7,2.1-1.3,3.3-2,.7-.4,1.3-.8,2-1.2,17.9-10.3,43.9-21.1,65.6-31.4,0,0,.2,0,.2-.1,2.1-1,4.1-2,6.1-2.9,0,0,0,0,.1,0,1.4-.7,2.7-1.3,4-2h0c5.7-2.8,10.8-5.6,15.2-8.3.7-.5,1.5-.9,2.1-1.4,2.4-1.5,4.5-3,6.2-4.5,1.5-1.3,3.1-2.5,4.6-3.6,8.2-6,16-9.2,23.9-10.2,1.3-.2,2.7-.3,4-.3,10.8-.3,21.9,3.2,34.5,9.4,17.4,8.5,27.7,11.1,40,11.3,5.6,0,11.6-.4,19-1,11-.9,22.8-.7,32.3-.3h.2c3.7.2,7,.4,9.8.6.6,0,1.2,0,1.8.1,1.1,0,2.1.2,3,.3,2.5.2,3.9.4,3.9.4h0c.5,0,2.5-.2,5.6-.4.4,0,.8,0,1.3-.1.4,0,.9,0,1.3-.1.9,0,1.8-.1,2.8-.2,0,0,.1,0,.2,0,1.5-.1,3-.2,4.7-.3,0,0,.1,0,.2,0,9.8-.5,22.8-.9,34.7.1,4.4.4,8.3.7,12,.8,1.2,0,2.4.1,3.6.1,1.2,0,2.3,0,3.4,0h0c1.1,0,2.2,0,3.2-.1h.2c10.9-.6,20.8-3.5,36.6-11.2,10.3-5,19.5-8.4,28.4-9.2,1.4-.1,2.7-.2,4.1-.2,3.4,0,6.7.3,10.1,1,.7.1,1.3.3,2,.5,3.3.9,6.7,2.2,10.1,4,4.1,2.2,8.2,5,12.5,8.5.5.4,1,.8,1.5,1.2,1.2,1,2.6,1.9,4.1,2.9.4.3.8.5,1.2.8,3.5,2.2,7.5,4.5,12,6.9,1.9,1,3.8,2,5.8,2.9.7.3,1.3.6,2,1,1.3.6,2.5,1.2,3.8,1.9.9.4,1.8.9,2.7,1.3.6.3,1.3.6,1.9.9,1,.5,1.9.9,2.9,1.4,3.1,1.4,6.2,2.9,9.5,4.3,1.4.6,2.8,1.2,4.1,1.9,1,.4,1.9.9,2.9,1.3,1.3.6,2.5,1.1,3.8,1.7.3.1.5.2.8.4,1,.4,2,.9,2.9,1.3,1.6.7,3.2,1.5,4.8,2.2.7.3,1.4.6,2.1,1,3.2,1.5,6.3,2.9,9.4,4.4.5.2.9.5,1.4.7,17.1,8.2,31.7,16.3,38,23.8,5.8,6.9,8,15.2,8.1,23.8,0,1.6,0,3.3-.2,4.9h0Z"/>
    <path class="st3" d="M502.1,734.1c2.2-2.1,5.2-3.4,8.4-3.4h30.5c-.9-4.3-2-8.5-3.3-12.7-4.8-1.2-19.6-5.3-38.4-13.6-2.1,3.3-8.2,12.1-18,19.9,7.3,3.9,14.3,7.2,20.8,9.8h0Z"/>
    <path class="st3" d="M551.3,730.7h13.6c3.5,0,6.7,1.5,9,4,8.4-3.3,17.7-7.6,27.3-13.1-10.2-9.1-15.5-18.5-15.5-18.5,0,0-6,3.2-14.6,4.9-1.1.2-2.2.4-3.2.5-9.5,3.8-17.4,6.3-22.6,8,3,4.2,5,9.2,6.1,14.2h0Z"/>
    <path class="st1" d="M533.4,775.6h-3.1c-.3,0-.5.6-.5,1.3l1.9,24.5c0,.3.2.6.4.6h2.1c.2,0,.4-.3.4-.6l-.7-24.5c0-.7-.3-1.3-.6-1.3h0Z"/>
    <path class="st1" d="M520.4,776.9c-.1-.7-.5-1.3-.8-1.3h-3.6l6.4,26.3h2.5c.2,0,.3-.3.3-.6l-4.7-24.4Z"/>
    <path class="st1" d="M566.4,743.2c.5-1.1-.3-2.3-1.5-2.3h-12.8c-.6,5.2-3,10.4-7,13.9.3.7.4,1.5.4,2.3,0,3.6-3,6.5-6.7,6.5s-6.7-2.9-6.7-6.5,3-6.5,6.7-6.5,1.8.2,2.6.5c.9-3.4,1.3-6.7,1.1-10.2h-32.2c-1.2,0-2,1.2-1.5,2.3l4.9,10.3c.5,1.1-.3,2.3-1.5,2.3h-11.6c-1.1,0-1.9,1.1-1.6,2.1l17.6,51.4c.2.7.8,1.1,1.6,1.1h38.4c.7,0,1.3-.4,1.6-1.1l17.6-51.4c.4-1-.4-2.1-1.6-2.1h-11.6c-1.2,0-2-1.2-1.5-2.3l5-10.3h0ZM525.9,804.9h-5.2l-8.4-29.3h-1.2l-1.1-7.4h8.9c2.1,0,4.3,3.9,5,8.2l3.7,25c.3,2-.5,3.5-1.7,3.5h0ZM537.2,801.5c0,2-1.1,3.5-2.3,3.5h-3c-1.2,0-2.4-1.5-2.7-3.5l-3-25c-.5-4.4.7-8.3,2.8-8.3h5c2.1,0,3.7,3.9,3.6,8.3l-.4,25h0ZM543.7,805h-3c-1.2,0-2.2-1.5-2.1-3.5l1-25.1c.2-4.4,2-8.3,4.1-8.3h5c2.1,0,3.1,3.9,2.3,8.3l-1.5,8.3h-3.3l1.1-7.9c0-.7,0-1.3-.4-1.3h-3.1c-.3,0-.6.6-.7,1.3l-2,24.5c0,.3.1.6.3.6h2.1c.2,0,.4-.3.5-.6l1.1-7.9h-2.2l.5-4.5h5.5l-2.2,12.7c-.3,2-1.6,3.5-2.9,3.5h0ZM564.5,776.4l-2,6h-3.4l1.7-5.6c.2-.7.1-1.3-.2-1.3h-3.1c-.3,0-.7.6-.9,1.3l-2,8c0,.3,0,.6,0,.8l3.3,6.7c.4.9.4,2.3,0,3.8l-1.8,5.4c-.7,2-2.2,3.5-3.4,3.5h-3c-1.2,0-2-1.5-1.6-3.5l.7-3.3h2.7l-.8,3.2c0,.3,0,.6.2.6h2.1c.2,0,.5-.3.6-.6l1.4-4.7c0-.2,0-.5,0-.6l-3.4-6c-.6-1-.7-2.7-.3-4.6l1.8-9c.9-4.4,3.4-8.3,5.5-8.3h5c2.1,0,2.5,3.9,1,8.3h0Z"/>
    <path class="st1" d="M254.9,357.6c-.3,18.3,5,22.6,5,22.6,0,0,.6-13.2,6.5-18.9,8.7-8.3,15.3-8.5,15.3-8.5l-6.8,11.8,8.2-.5s-16.8,17.8.9,42.8c17,24.1,19.7,40,19.9,41.2-.3-2.2-7.6-52,7.7-81.4,15.7-30.1,10.6-22.5,21.6-41.8s11-21.3,11-21.3l-59,26.5s-30,9.3-30.4,27.6h0Z"/>
    <path class="st1" d="M494.1,571.3l.2-.4s-.2,0-.6,0c.2.3.4.5.4.5h0Z"/>
    <path d="M837.5,337.6c-6.3-7.5-20.9-15.5-38-23.8-.5-.2-.9-.5-1.4-.7-3.1-1.5-6.2-2.9-9.4-4.4-.7-.3-1.4-.6-2.1-1-1.6-.7-3.2-1.5-4.8-2.2-1-.5-2-.9-2.9-1.3-.3-.1-.5-.2-.8-.4-1.3-.6-2.5-1.1-3.8-1.7-1-.4-1.9-.9-2.9-1.3-1.4-.6-2.8-1.2-4.1-1.9-3.2-1.5-6.4-2.9-9.5-4.3-1-.5-2-.9-2.9-1.4-.6-.3-1.3-.6-1.9-.9-.9-.4-1.8-.9-2.7-1.3-1.3-.6-2.6-1.2-3.8-1.9-.7-.3-1.3-.7-2-1-2-1-3.9-2-5.8-2.9-4.5-2.3-8.5-4.6-12-6.9-.4-.3-.8-.5-1.2-.8-1.5-1-2.8-2-4.1-2.9-.5-.4-1-.8-1.5-1.2-4.3-3.6-8.4-6.4-12.5-8.5-3.4-1.8-6.7-3.1-10.1-4-.7-.2-1.3-.4-2-.5-3.3-.8-6.7-1.1-10.1-1-1.3,0-2.7.1-4.1.2-8.9.9-18.1,4.2-28.4,9.2-15.7,7.7-25.7,10.6-36.6,11.2h-.2c-1.1,0-2.1,0-3.2.1h0c-1.1,0-2.3,0-3.4,0-1.2,0-2.3,0-3.6-.1-3.7-.2-7.6-.5-12-.8-11.9-1-24.8-.7-34.7-.1,0,0-.1,0-.2,0-1.7,0-3.2.2-4.7.3,0,0-.1,0-.2,0-1,0-1.9.1-2.8.2-.5,0-.9,0-1.3.1-.5,0-.9,0-1.3.1-3,.3-5,.5-5.6.5h0c0,0-1.4-.2-3.9-.5-.9,0-1.9-.2-3-.3-.6,0-1.2,0-1.8-.1-2.8-.2-6.1-.4-9.8-.6h-.2c-9.5-.5-21.3-.6-32.3.3-7.3.6-13.4,1-19,1-12.4-.2-22.6-2.8-40-11.3-12.6-6.2-23.7-9.8-34.5-9.4-1.4,0-2.7.1-4,.3-7.9,1-15.7,4.2-23.9,10.2-1.5,1.1-3.1,2.3-4.6,3.6-1.8,1.5-3.9,3-6.2,4.5-.7.5-1.4.9-2.1,1.4-4.4,2.7-9.5,5.5-15.2,8.3h0c-1.3.6-2.6,1.3-4,2,0,0,0,0-.1,0-2,1-4,2-6.1,2.9,0,0-.2,0-.2.1-21.8,10.2-47.8,21.1-65.6,31.4-.7.4-1.4.8-2,1.2-1.1.7-2.2,1.3-3.3,2-.5.3-.9.6-1.4.9-.4.2-.7.5-1.1.7-4.4,2.9-7.9,5.8-10.2,8.6-8,9.5-9.2,21.4-7.5,33.1.1.8.2,1.6.4,2.3,2.2,12.4,7.3,24.3,10.7,32.2,8.6,20,36.1,43,33.8,73-.1,1.8-.3,3.5-.5,5.2-2.6,26.3-7.8,37.1-7.8,37.1,0,0,59.1-5,76.4-39,.3-.5.5-1,.8-1.5,5.9-12,8.8-22.5,10.2-31.2.3,2.8.6,5.7,1.1,8.7,2,12,6.2,24.8,14.5,33.8,11,11.8,16.5,27,19.1,42.3.1.8.3,1.5.4,2.3.4,2.7.8,5.4,1,8,2.4,24-.8,46.8.5,55.9,1.5,9.6,1.1,17.9,0,25.6-.4,3-1,5.8-1.6,8.6-.5,2.2-1.1,4.5-1.6,6.6-.4,1.6-.9,3.3-1.3,4.9-.4,1.5-.8,3-1.2,4.5-.4,1.3-.7,2.7-1,4-.2.8-.4,1.7-.6,2.5v.4c-1.8,7.2-3,20.5-1.1,34.3,0,.5.1,1.1.2,1.6.3,2.1.7,4.3,1.2,6.4.1.5.2,1.1.4,1.6.3,1.1.5,2.1.9,3.2.5,1.6,1,3.1,1.6,4.7s.8,2,1.2,3,.9,2,1.4,2.9c.6,1.3,1.3,2.5,2.1,3.7,1,1.6,2.1,3.2,3.3,4.7.6.7,1.2,1.4,1.8,2.1.4.4.8.9,1.2,1.3.4.4.9.8,1.3,1.2,1,1,2.2,1.9,3.3,2.7,1.9,1.4,3.9,2.6,6.1,3.7,0,0,0,0,0,0,3.1,1.5,6.6,2.7,10.4,3.4.9.2,1.7.3,2.6.5.2,0,.5,0,.8.1.6,0,1.2.2,1.9.2.2,0,.5,0,.8,0,.8,0,1.5.2,2.2.2,0,0,.1,0,.2,0,.8,0,1.6,0,2.4.1.2,0,.4,0,.7,0,.6,0,1.2,0,1.8,0h.7c.7,0,1.3,0,2,0,.1,0,.2,0,.3,0,.8,0,1.5-.1,2.3-.2.2,0,.4,0,.5,0,.6,0,1.2-.1,1.7-.2.2,0,.4,0,.6,0,.6,0,1.2-.2,1.8-.3.1,0,.2,0,.4,0,.7-.1,1.5-.3,2.2-.4.1,0,.2,0,.4,0,.6-.1,1.2-.3,1.7-.4.2,0,.4,0,.5-.1.6-.2,1.1-.3,1.7-.5.1,0,.2,0,.3,0,.7-.2,1.4-.4,2-.7,0,0,.1,0,.2,0,.6-.2,1.2-.4,1.8-.7.1,0,.3-.1.4-.2.5-.2,1.1-.4,1.6-.7.1,0,.2,0,.3-.1.6-.3,1.3-.6,1.9-.9h0c1.1.7,2.2,1.3,3.2,2,.1,0,.2.1.3.2,1.1.6,2.1,1.3,3.2,1.9.1,0,.2.1.4.2,2.1,1.2,4.2,2.4,6.3,3.6.1,0,.3.2.4.2,1,.6,2,1.1,3.1,1.7,0,0,0,0,.1,0,1,.5,2,1,3,1.6.1,0,.2.1.4.2,1,.5,2,1,3,1.5.1,0,.2.1.4.2,1,.5,2,1,2.9,1.5h0c-.7.4-1.3.8-1.9,1.4,0,0,0,0,0,0-.3.2-.5.5-.8.8,0,0,0,0,0,0-.3.3-.5.6-.8.9-2.3,3.1-2.9,7.1-1.7,10.7l17.6,51.4c.6,1.8,1.6,3.4,3,4.7.3.3.6.5.9.8.3.2.6.4.9.6,1.9,1.3,4.2,2,6.6,2h38.4c5.2,0,9.7-3.2,11.4-8l17.6-51.4c.2-.5.3-.9.4-1.4.2-.9.3-1.9.2-2.8,0-1.1-.2-2.2-.6-3.2-.4-1.2-.9-2.3-1.7-3.3-.3-.4-.6-.7-.9-1.1,0,0,0,0,0,0-.3-.3-.7-.6-1-.9h0c1.2-.6,2.4-1.2,3.6-1.8,0,0,0,0,0,0,1.2-.6,2.4-1.2,3.6-1.9,0,0,0,0,.1,0,1.2-.7,2.5-1.3,3.8-2,0,0,0,0,0,0,1.3-.7,2.6-1.4,3.9-2.2,0,0,0,0,0,0,1.3-.7,2.6-1.5,4-2.3h0c4-2.3,8-4.9,12.2-7.6h0c.7.4,1.3.8,2,1.1,0,0,.1,0,.2.1.7.4,1.4.7,2.1,1h0c.7.3,1.4.7,2.2,1,0,0,.2,0,.3.1.7.3,1.4.6,2.2.9,0,0,0,0,0,0,.7.3,1.5.5,2.2.8.1,0,.2,0,.4.1.7.2,1.5.5,2.2.7,0,0,0,0,0,0,.8.2,1.6.4,2.3.6.2,0,.3,0,.5.1.8.2,1.5.3,2.3.5,0,0,0,0,.1,0,.8.2,1.6.3,2.5.4.2,0,.4,0,.5,0,.8.1,1.6.2,2.4.3,0,0,0,0,.1,0,.8,0,1.7.1,2.6.2.2,0,.4,0,.6,0,.8,0,1.7,0,2.5,0h.1c.9,0,1.8,0,2.7,0,.2,0,.4,0,.7,0,.9,0,1.8-.1,2.7-.2h0c.9,0,1.9-.2,2.8-.3.2,0,.5,0,.7,0,1-.2,1.9-.3,2.9-.5,23-4.5,32.7-23.8,35.9-43,2.6-14.9,1.3-29.8-.5-37.5-4.1-17.6-11.2-33.6-7.6-57.2,1.1-7.3-.8-23.5-.3-42.1h0c0-2,.1-3.9.2-5.8,0,0,0-.1,0-.2,1.1-21,5.8-44,21.1-60.5,2.6-2.8,4.8-6,6.7-9.4.9-1.7,1.8-3.5,2.5-5.3,3.1-7.4,4.9-15.5,5.9-23.1.2-1.6.4-3.2.5-4.7,1.4,9,4.6,20.1,11,32.7,17.3,34.1,76.3,39,76.3,39h0s-.8-1.7-2-5.5c-.2-.6-.4-1.3-.6-2-.2-.8-.5-1.7-.7-2.7-.2-.6-.3-1.3-.5-2,0-.2-.1-.5-.2-.7-1.6-6.8-3.2-16.4-4.2-29.3-2.1-27.1,20.1-48.5,30.8-67.1.8-1.4,1.5-2.7,2.1-4,.3-.6.6-1.3.9-1.9.2-.6.5-1.1.8-1.8.4-.9.8-1.8,1.2-2.8.6-1.5,1.3-3.1,1.9-4.7.3-.9.7-1.7,1-2.6.9-2.4,1.8-4.9,2.6-7.5.2-.8.5-1.6.7-2.4.5-1.7,1-3.4,1.4-5.2,0-.4.2-.7.2-1.1.3-1.2.5-2.4.8-3.7.2-1,.3-2,.5-3.1.2-1.4.3-2.8.5-4.2.1-1.6.2-3.3.2-4.9,0-8.5-2.3-16.8-8.1-23.8h0ZM810.9,364.6l-8.2-.5s16.8,17.8-.9,42.8c-17,24.1-19.7,40-19.9,41.2,0,0,0,0,0,0,0,0,0,0,0,0,.3-2.2,7.6-52-7.7-81.4-15.7-30.1-10.6-22.5-21.6-41.8s-11-21.3-11-21.3l59,26.5s30,9.3,30.4,27.6c.3,18.3-5,22.6-5,22.6,0,0-.6-13.2-6.5-18.9-8.7-8.3-15.3-8.5-15.3-8.5l6.8,11.8h0ZM344.2,303.5s0,2-11,21.3c-11,19.3-5.9,11.7-21.6,41.8-15.3,29.4-8,79.2-7.7,81.4-.2-1.2-2.9-17.1-19.9-41.2-17.7-25.1-.9-42.8-.9-42.8l-8.2.5,6.8-11.8s-6.6.2-15.3,8.5c-6,5.7-6.5,18.9-6.5,18.9,0,0-5.3-4.3-5-22.6.3-18.3,30.4-27.6,30.4-27.6l59-26.5h0ZM499.3,704.4c18.7,8.4,33.5,12.4,38.3,13.6,1.4,4.1,2.4,8.4,3.3,12.7h-30.5c-3.2,0-6.2,1.2-8.4,3.4-6.5-2.6-13.5-5.9-20.8-9.8,9.9-7.8,15.9-16.5,18-19.9h0ZM506.1,558.6c-19.2,2.8-14.1,10.3-12.4,12.2.4,0,.6,0,.6,0l-.2.4s-.2-.2-.4-.5c-3-.3-16.5-2.7-11-18.3,6.1-17.4,59.4-15.1,60.3-15.1h0c0,.1,54.2-2.3,60.3,15.2,5.5,15.6-8,17.9-11,18.3-.2.3-.4.5-.4.5l-.2-.4s.2,0,.6,0c1.7-1.9,6.7-9.5-12.4-12.2-22-3.2-23.2,6-20.9,11.2,4.4,9.7,14.1-2.6,13.7,5.2-.4,7.8-20,18.4-20,18.4l-9.6-21.2v-34.7,34.6l-9.6,21.2s-19.6-10.7-20-18.4c-.4-7.8,9.3,4.5,13.7-5.2,2.3-5.2,1.2-14.4-20.9-11.2h0ZM542.9,635.3s12,27.5,17.7,35.8c7.2,10.5,5.7,23.2-6.2,29.3h0c-7.2,3.7-16.1,3.7-23.3,0-11.9-6.1-13.5-18.8-6.2-29.3,5.7-8.2,18.1-35.8,18.1-35.8h0ZM571.1,708c8.7-1.7,14.6-4.9,14.6-4.9,0,0,5.2,9.3,15.5,18.5-9.6,5.5-18.9,9.8-27.3,13.1-2.3-2.5-5.5-4-9-4h-13.6c-1.1-5-3.1-10-6.1-14.2,5.2-1.6,13.1-4.2,22.6-8,1.1-.2,2.2-.3,3.2-.5h0ZM563,755.8h11.6c1.1,0,1.9,1.1,1.6,2.1l-17.6,51.4c-.2.7-.8,1.1-1.6,1.1h-38.4c-.7,0-1.3-.4-1.6-1.1l-17.6-51.4c-.4-1,.4-2.1,1.6-2.1h11.6c1.2,0,2-1.2,1.5-2.3l-5-10.3c-.5-1.1.3-2.3,1.5-2.3h32.2c.2,3.5-.2,6.8-1.1,10.2-.8-.3-1.7-.5-2.6-.5-3.7,0-6.7,2.9-6.7,6.5s3,6.5,6.7,6.5,6.7-2.9,6.7-6.5-.2-1.6-.4-2.3c3.9-3.5,6.4-8.7,7-13.9h12.8c1.2,0,2,1.2,1.5,2.3l-5,10.3c-.5,1.1.3,2.3,1.5,2.3h0ZM693.5,304.8c-15.6-12.8-52.8,5-52.8,5,0,0,31.4,25.4,42.8,43.5,11.5,18.1,16.1,11.9,14.4,56.7s-2.7,54-19.1,73.8c-4.3,5.2-7.1,12.7-8.8,20.8-1.1,8.4-2.4,20.5-2.5,32.1-2.2-2.8-4.9-5.7-8.2-8.5-3.5-11.5-13.3-38.5-32.8-53.3-25.3-19.1-44.3-18.5-44.3-18.5,0,0,27.9,15.7,42.4,37.2,7,10.4,10.3,17,11.9,21.2-19.6-6.3-41.5-1-41.5-1,0,0,34.1,3,49,18.2,25.9,26.5,22.4,74.2,22.3,74.6-1.3,10.3-2.9,19.9-4,26.6-2.2,24.4-15.8,36.7-15.8,36.7,0,0,9.7.2,13.7-3.5,4.4-4.2,9.4-9.8,9.4-9.8,0,0,2.9,6.5,4.3,19.2,1.4,12.5-.8,21.3-4.3,29.1-3.6,7.8-38.4,20.4-61.7-4-19.7-20.5-42.6-55-53-73.5s22.2-22.2,43.3-38.1,28.6-24.6,13.8-46.5c-14.8-21.9-68.8-17.7-68.8-17.7h0c-1.2-.2-54.1-4-68.8,17.6-14.9,21.9-7.3,30.6,13.8,46.5s53.7,19.6,43.3,38.1-33.3,53-53,73.5c-23.3,24.4-58.2,11.8-61.7,4-3.6-7.8-5.8-16.5-4.3-29.1,1.5-12.7,4.3-19.2,4.3-19.2,0,0,5,5.6,9.4,9.8,4,3.8,13.7,3.5,13.7,3.5,0,0-13.7-12.3-15.8-36.7-1.1-6.7-2.6-16.2-4-26.6,0-.4-3.6-48.1,22.3-74.6,14.9-15.2,49-18.2,49-18.2,0,0-21.9-5.2-41.5,1,1.6-4.2,4.9-10.9,11.9-21.2,14.4-21.5,42.4-37.2,42.4-37.2,0,0-19-.6-44.4,18.5-19.5,14.7-29.4,41.7-32.8,53.3-3.3,2.8-6,5.7-8.2,8.5-.1-11.6-1.4-23.7-2.5-32.1-1.7-8.1-4.5-15.6-8.8-20.8-16.4-19.9-17.3-29-19.1-73.8-1.8-44.8,2.9-38.6,14.4-56.7,11.5-18.1,42.9-43.5,42.9-43.5,0,0-37.3-17.8-52.8-5-15.6,12.8-23.2,29.2-34.7,62.8s-1.8,33.9-6.7,66.8c-8.8,58.4-57.1,74.8-57.1,74.8,0,0,19.2-13.9,31.6-50.4,10.9-32.3-3.4-58.7,12.8-95.9,16.2-37.2,16-42.8,20.9-57.1,3.9-11.4,21.6-32,44.6-30.1,23,1.9,30,16.4,70.1,17.7,38.5,1.3,66.7.4,68.9.4h0c0,.1,29,1.1,69-.3,40.1-1.3,47-15.8,70.1-17.7s40.8,18.7,44.6,30.1c4.9,14.3,4.7,19.9,20.9,57.1,16.2,37.2,1.9,63.6,12.8,95.9,12.4,36.5,31.6,50.4,31.6,50.4,0,0-48.3-16.3-57.1-74.8-5-32.9,4.7-33.3-6.7-66.8-11.5-33.5-19.1-50-34.7-62.8h0Z"/>
    <path class="st1" d="M734.9,434.4c8.8,58.4,57.1,74.8,57.1,74.8,0,0-19.2-13.9-31.6-50.4-10.9-32.3,3.4-58.7-12.8-95.9-16.2-37.2-16-42.8-20.9-57.1-3.9-11.4-21.6-32-44.6-30.1s-30,16.4-70.1,17.7c-40.1,1.3-68.9.4-69,.4h0c-2.2,0-30.4.8-68.9-.5-40.1-1.3-47-15.8-70.1-17.7-23-1.9-40.8,18.7-44.6,30.1-4.9,14.3-4.7,19.9-20.9,57.1s-1.9,63.6-12.8,95.9c-12.4,36.5-31.6,50.4-31.6,50.4,0,0,48.3-16.3,57.1-74.8,5-32.9-4.7-33.3,6.7-66.8,11.5-33.5,19.1-50,34.7-62.8,15.6-12.8,52.8,5,52.8,5,0,0-31.4,25.4-42.9,43.5-11.5,18.1-16.1,11.9-14.4,56.7,1.8,44.8,2.6,54,19.1,73.8,4.3,5.2,7.1,12.7,8.8,20.8,1.1,8.4,2.4,20.5,2.5,32.1,2.2-2.8,4.9-5.7,8.2-8.5,3.5-11.5,13.3-38.5,32.8-53.3,25.3-19.1,44.4-18.5,44.4-18.5,0,0-27.9,15.7-42.4,37.2-7,10.4-10.3,17-11.9,21.2,19.6-6.3,41.5-1,41.5-1,0,0-34.1,3-49,18.2-25.9,26.5-22.4,74.2-22.3,74.6,1.4,10.3,2.9,19.9,4,26.6,2.1,24.4,15.8,36.7,15.8,36.7,0,0-9.7.2-13.7-3.5-4.4-4.2-9.4-9.8-9.4-9.8,0,0-2.9,6.5-4.3,19.2-1.4,12.5.8,21.3,4.3,29.1,3.6,7.8,38.4,20.4,61.7-4,19.7-20.5,42.6-55,53-73.5s-22.2-22.2-43.3-38.1-28.6-24.6-13.8-46.5c14.7-21.6,67.6-17.8,68.8-17.7h0c0,.1,54-4,68.8,17.8,14.8,21.9,7.3,30.6-13.8,46.5s-53.7,19.6-43.3,38.1,33.3,53,53,73.5c23.3,24.4,58.2,11.8,61.7,4,3.6-7.8,5.8-16.5,4.3-29.1-1.5-12.7-4.3-19.2-4.3-19.2,0,0-5,5.6-9.4,9.8-4,3.8-13.7,3.5-13.7,3.5,0,0,13.7-12.3,15.8-36.7,1.1-6.7,2.6-16.2,4-26.6,0-.4,3.6-48.1-22.3-74.6-14.9-15.2-49-18.2-49-18.2,0,0,21.9-5.2,41.5,1-1.6-4.2-4.9-10.9-11.9-21.2-14.4-21.5-42.4-37.2-42.4-37.2,0,0,19-.6,44.3,18.5,19.5,14.7,29.3,41.7,32.8,53.3,3.3,2.8,6,5.7,8.2,8.5.1-11.6,1.4-23.7,2.5-32.1,1.7-8.1,4.5-15.6,8.8-20.8,16.4-19.9,17.3-29,19.1-73.8s-2.9-38.6-14.4-56.7c-11.5-18.1-42.8-43.5-42.8-43.5,0,0,37.3-17.8,52.8-5,15.6,12.8,23.2,29.2,34.7,62.8,11.5,33.5,1.8,33.9,6.7,66.8h0ZM459.7,645.7l1.6.2c.1,0,.3.1.2.2l-1.9,4.3s-.1,0-.2,0l-2.5-.3h-.1l-2.5-.3c0,0-.2,0-.2-.1l-3.1-4.9c0,0,0-.2.2-.2l1.6.2c.2,0,.3,0,.2-.2l-.8-1.1c0-.1,0-.2.2-.2l3.7.4h.1s3.7.5,3.7.5c.2,0,.3.2.2.2l-.6.9c0,0,0,.2.2.2h0ZM458.4,627.9l-.6,1.1c0,.1,0,.3.3.3l1.8.2c.2,0,.3.2.3.3l-2.1,5.4c0,0-.1,0-.2,0l-2.8-.3h-.1s-2.8-.4-2.8-.4c-.1,0-.2,0-.2-.2l-3.6-6.2c0-.1,0-.2.2-.2l1.8.2c.2,0,.3-.1.2-.2l-1-1.3c-.1-.1,0-.3.2-.2l4.2.5h.1s4.2.6,4.2.6c.2,0,.3.2.3.3h0ZM445,606.9l2,.3c.2,0,.3-.1.2-.3l-1.1-1.7c-.1-.2,0-.3.2-.3l4.8.7h.2s4.8.7,4.8.7c.2,0,.4.2.3.4l-.7,1.5c0,.2,0,.3.3.4l2,.3c.2,0,.4.2.3.4l-2.3,7c0,0-.1.1-.2.1l-3.1-.4h-.2s-3.1-.4-3.1-.4c-.1,0-.2,0-.3-.2l-4.2-7.9c0-.2,0-.3.2-.3h0ZM473.7,631l-.8-1.3c0-.1,0-.3.2-.2l4.1.5h.1s4.1.5,4.1.5c.2,0,.3.2.2.3l-.8,1.1c0,.1,0,.3.2.3l1.7.2c.2,0,.3.2.2.3l-2.9,5.3c0,0-.1,0-.2,0l-2.7-.3h-.1s-2.7-.4-2.7-.4c-.1,0-.2,0-.2-.1l-2.6-6c0-.1,0-.2.2-.2l1.8.2c.2,0,.3,0,.2-.2h0ZM473.6,647.1l-.7-1c0-.1,0-.2.2-.2l3.6.4h.1l3.6.4c.2,0,.3.1.2.2l-.7.9c0,0,0,.2.2.2l1.5.2c.1,0,.2.1.2.2l-2.6,4.2s-.1,0-.2,0l-2.4-.3h-.1l-2.4-.3c0,0-.2,0-.2-.1l-2.4-4.8c0,0,0-.2.2-.2l1.6.2c.2,0,.3,0,.2-.2h0ZM496.9,614.1l1.9.3c.2,0,.4-.1.3-.3l-.6-1.6c0-.2.1-.3.3-.3l4.5.6h.2s4.5.6,4.5.6c.2,0,.3.2.2.4l-1.1,1.4c-.1.1,0,.3.2.4l1.9.3c.2,0,.3.2.2.3l-4.3,6.5c0,0-.2.1-.3.1l-3-.4h-.1s-3-.4-3-.4c-.1,0-.2,0-.2-.2l-1.8-7.4c0-.2.1-.3.3-.3h0ZM494.1,633.9l1.7.2c.2,0,.3,0,.3-.2l-.6-1.3c0-.1,0-.2.3-.2l4,.5h.1s4,.5,4,.5c.2,0,.3.2.2.3l-1,1.1c-.1.1,0,.3.2.3l1.7.2c.2,0,.2.2.2.3l-3.6,5.1c0,0-.1,0-.2,0l-2.6-.3h-.1s-2.6-.3-2.6-.3c-.1,0-.2,0-.2-.1l-1.7-5.8c0-.1.1-.2.3-.2h0ZM491.9,649.4l1.5.2c.2,0,.3,0,.2-.2l-.5-1c0,0,0-.2.2-.2l3.5.4h.1l3.5.4c.2,0,.2.1.1.2l-.8.8c0,0,0,.2.1.2l1.5.2c.1,0,.2.1.2.2l-3.2,4.1s-.1,0-.2,0l-2.4-.3h-.1l-2.4-.3c0,0-.2,0-.2-.1l-1.6-4.7c0,0,0-.2.2-.2h0ZM471.4,610.6l2,.3c.2,0,.3-.1.3-.3l-.9-1.7c0-.2,0-.3.3-.3l4.6.6h.2s4.6.7,4.6.7c.2,0,.3.2.2.4l-.9,1.4c0,.1,0,.3.2.4l2,.3c.2,0,.3.2.2.3l-3.3,6.8c0,0-.1.1-.3.1l-3-.4h-.1s-3.1-.4-3.1-.4c-.1,0-.2,0-.2-.2l-3-7.7c0-.2,0-.3.3-.3h0ZM458.8,358s13.9,12.3,19.9,14.7c10.8,4.4,22.7,3.2,22.7,3.2,0,0-10.5,12.3-22.7,7.5-21.8-8.6-19.9-25.4-19.9-25.4ZM495.4,422.8c-.5,0-1,0-1.5,0-5.9,9-25.6,33.7-53.3,11.4-22-17.8,2.9-44.9,2.9-44.9h.2c-2.2-1.7-4.7-3.4-7.5-4.7-13-6.3-32.3-3.9-32.3-3.9,0,0,23.1-26.4,52.9,1.9,18.2,17.3,30.8,24.5,41.3,24,22.7-1.1,18.8-24.7,18.8-24.7,0,0,19.2,39.9-21.5,41h0ZM545.6,428.9v-.7c-.8-4.3-6.2-32.3-6.2-64.3s5-54.2,6.1-58.9v-.8s6.3,24.8,6.3,59.8-6.3,64.9-6.3,64.9ZM601.9,612.4l2-.3c.2,0,.3-.2.2-.4l-.9-1.4c0-.2,0-.3.2-.4l4.6-.6h.2s4.6-.7,4.6-.7c.2,0,.3.1.3.3l-.9,1.7c0,.2,0,.3.3.3l2-.3c.2,0,.3.1.3.3l-3,7.7c0,0-.1.2-.2.2l-3.1.4h-.2s-3,.4-3,.4c-.1,0-.2,0-.3-.1l-3.3-6.8c0-.1,0-.3.2-.3h0ZM605.9,648l-.7-.9c0,0,0-.2.2-.2l3.6-.4h.1l3.6-.4c.2,0,.3,0,.2.2l-.7,1c0,.1,0,.2.2.2l1.6-.2c.2,0,.3,0,.2.2l-2.3,4.8c0,0-.1.1-.2.1l-2.4.3h-.1l-2.4.3c0,0-.2,0-.2,0l-2.6-4.2c0,0,0-.2.2-.2l1.5-.2c.2,0,.3-.1.2-.2h0ZM611.8,637.4c0,0-.1.1-.2.1l-2.7.3h-.1s-2.7.4-2.7.4c0,0-.2,0-.2,0l-2.9-5.3c0-.1,0-.2.2-.3l1.7-.2c.2,0,.3-.2.2-.3l-.8-1.1c0-.1,0-.3.2-.3l4.1-.5h.1s4.1-.5,4.1-.5c.2,0,.3,0,.2.2l-.8,1.3c0,.1,0,.3.2.2l1.8-.2c.2,0,.3,0,.2.2l-2.6,6h0ZM576.9,615.9l1.9-.3c.2,0,.3-.2.2-.4l-1.1-1.4c-.1-.1,0-.3.2-.4l4.5-.6h.2s4.5-.6,4.5-.6c.2,0,.4.1.3.3l-.6,1.6c0,.2,0,.3.3.3l1.9-.3c.2,0,.3.1.3.3l-1.8,7.4c0,0-.1.2-.2.2l-3,.4h-.2s-3,.4-3,.4c-.1,0-.2,0-.3-.1l-4.3-6.5c0-.1,0-.3.2-.3h0ZM581.1,635.3l1.7-.2c.2,0,.3-.2.2-.3l-1-1.1c0-.1,0-.3.2-.3l4-.5h.1s4-.5,4-.5c.2,0,.3,0,.3.2l-.6,1.2c0,.1,0,.2.3.2l1.7-.2c.2,0,.3,0,.3.2l-1.7,5.8c0,0,0,.1-.2.1l-2.6.3h-.1s-2.6.3-2.6.3c0,0-.2,0-.2,0l-3.6-5.1c0-.1,0-.2.2-.3h0ZM587.4,655l-3.2-4.1c0,0,0-.2.2-.2l1.5-.2c.2,0,.2-.1.2-.2l-.8-.8c0,0,0-.2.2-.2l3.5-.4h.1l3.5-.4c.2,0,.3,0,.2.2l-.5,1c0,0,0,.2.2.2l1.5-.2c.2,0,.3,0,.2.2l-1.6,4.7c0,0,0,0-.2.1l-2.4.3h-.1l-2.4.3c0,0-.2,0-.2,0h0ZM628,608.8l2-.3c.2,0,.4-.2.3-.4l-.7-1.5c0-.2,0-.4.3-.4l4.8-.7h.2s4.8-.7,4.8-.7c.2,0,.3.1.2.3l-1.1,1.7c-.1.2,0,.3.2.3l2-.3c.2,0,.3.1.2.3l-4.2,7.9c0,0-.2.2-.3.2l-3.2.4h-.2s-3.1.4-3.1.4c-.1,0-.2,0-.2-.1l-2.3-7c0-.2,0-.3.3-.4h0ZM626.1,629.7l1.8-.2c.2,0,.3-.2.3-.3l-.6-1.1c0-.1,0-.3.3-.3l4.2-.5h.2s4.2-.6,4.2-.6c.2,0,.3.1.2.2l-1,1.3c0,.1,0,.3.2.2l1.8-.2c.2,0,.3,0,.2.2l-3.6,6.2c0,0-.1.1-.2.2l-2.8.3h-.1s-2.8.4-2.8.4c0,0-.2,0-.2,0l-2.1-5.4c0-.1,0-.3.3-.3h0ZM624.6,646l1.6-.2c.2,0,.3-.2.2-.2l-.6-.9c0,0,0-.2.2-.2l3.7-.4h.1s3.7-.5,3.7-.5c.2,0,.3,0,.2.2l-.8,1.1c0,.1,0,.2.2.2l1.6-.2c.2,0,.2,0,.2.2l-3.1,4.9c0,0-.1.1-.2.1l-2.5.3h-.1l-2.5.3c0,0-.2,0-.2,0l-1.9-4.3c0,0,0-.2.2-.2h0ZM612.5,372.8c6-2.4,19.9-14.7,19.9-14.7,0,0,1.9,16.8-19.9,25.4-12.2,4.8-22.7-7.5-22.7-7.5,0,0,11.8,1.1,22.7-3.2ZM687.2,380.8s-19.3-2.4-32.3,3.9c-2.8,1.4-5.2,3-7.5,4.8h.2c0-.1,24.9,27.1,2.9,44.8-27.6,22.3-47.4-2.4-53.3-11.4-.5,0-1,0-1.5,0-40.7-1.1-21.5-41-21.5-41,0,0-3.9,23.5,18.8,24.7,10.5.5,23.1-6.7,41.3-24,29.8-28.3,52.9-1.9,52.9-1.9h0Z"/>
    <path class="st0" d="M781.9,448.1s0,0,0,0"/>
    <path class="st1" d="M826,380.2s5.3-4.3,5-22.6c-.3-18.3-30.4-27.6-30.4-27.6l-59-26.5s0,2,11,21.3c11,19.3,5.9,11.7,21.6,41.8,15.3,29.4,8,79.2,7.7,81.4.2-1.2,2.9-17.1,19.9-41.2,17.7-25.1.9-42.8.9-42.8l8.2.5-6.8-11.8s6.6.2,15.3,8.5c6,5.7,6.5,18.9,6.5,18.9h0Z"/>
    <path class="st1" d="M543,572.3l9.6,21.2s19.6-10.7,20-18.4c.4-7.8-9.3,4.5-13.7-5.2-2.3-5.2-1.2-14.4,20.9-11.2,19.2,2.8,14.1,10.3,12.4,12.2,3-.3,16.5-2.7,11-18.3-6.1-17.5-60.3-15.2-60.3-15.2h0c-.9,0-54.2-2.3-60.3,15.1-5.5,15.6,8,17.9,11,18.3-1.6-1.9-6.7-9.5,12.4-12.2,22-3.2,23.2,6,20.9,11.2-4.4,9.7-14.1-2.6-13.7,5.2.4,7.8,20,18.4,20,18.4l9.6-21.2"/>
    <path class="st1" d="M591.8,571.4s.2-.2.4-.5c-.4,0-.6,0-.6,0l.2.4h0Z"/>
    <path d="M498.6,621.9l3,.4h.1s3,.4,3,.4c.1,0,.2,0,.3-.1l4.3-6.5c0-.1,0-.3-.2-.3l-1.9-.3c-.2,0-.3-.2-.2-.4l1.1-1.4c.1-.1,0-.3-.2-.4l-4.5-.6h-.2s-4.5-.6-4.5-.6c-.2,0-.4.1-.3.3l.6,1.6c0,.2-.1.3-.3.3l-1.9-.3c-.2,0-.3.1-.3.3l1.8,7.4c0,0,.1.2.2.2h0Z"/>
    <path d="M474.2,618.5c0,0,.1.2.2.2l3.1.4h.1s3,.4,3,.4c.1,0,.2,0,.3-.1l3.3-6.8c0-.1,0-.3-.2-.3l-2-.3c-.2,0-.3-.2-.2-.4l.9-1.4c.1-.2,0-.3-.2-.4l-4.6-.6h-.2s-4.6-.7-4.6-.7c-.2,0-.4.1-.3.3l.9,1.7c0,.2,0,.3-.3.3l-2-.3c-.2,0-.3.1-.3.3l3,7.7h0Z"/>
    <path d="M449,615.2c0,0,.2.2.3.2l3.1.4h.2s3.1.4,3.1.4c.1,0,.2,0,.2-.1l2.3-7c0-.2-.1-.3-.3-.4l-2-.3c-.2,0-.4-.2-.3-.4l.7-1.5c0-.2,0-.4-.3-.4l-4.8-.7h-.2s-4.8-.7-4.8-.7c-.2,0-.3.1-.2.3l1.1,1.7c.1.2,0,.3-.2.3l-2-.3c-.2,0-.3.1-.2.3l4.2,7.9h0Z"/>
    <path d="M495.8,640l2.6.3h.1s2.6.3,2.6.3c.1,0,.2,0,.2,0l3.6-5.1c0-.1,0-.2-.2-.3l-1.7-.2c-.2,0-.3-.2-.2-.3l1-1.1c.1-.1,0-.3-.2-.3l-4-.5h-.1s-4-.5-4-.5c-.2,0-.3,0-.3.2l.6,1.3c0,.1,0,.2-.3.2l-1.7-.2c-.2,0-.3,0-.3.2l1.7,5.8c0,0,.1.1.2.1h0Z"/>
    <path d="M473.4,631.3l-1.8-.2c-.2,0-.3,0-.2.2l2.6,6c0,0,.1.1.2.1l2.7.3h.1s2.7.4,2.7.4c.1,0,.2,0,.2,0l2.9-5.3c0-.1,0-.2-.2-.3l-1.7-.2c-.2,0-.3-.2-.2-.3l.8-1.1c0-.1,0-.3-.2-.3l-4.1-.5h-.1s-4.1-.5-4.1-.5c-.2,0-.3,0-.2.2l.8,1.3c0,.1,0,.3-.2.2h0Z"/>
    <path d="M454,627.1h-.1s-4.2-.6-4.2-.6c-.2,0-.3.1-.2.2l1,1.3c.1.1,0,.3-.2.2l-1.8-.2c-.2,0-.3,0-.2.2l3.6,6.2c0,0,.1.1.2.2l2.8.3h.1s2.8.4,2.8.4c.1,0,.2,0,.2,0l2.1-5.4c0-.1,0-.3-.3-.3l-1.8-.2c-.2,0-.3-.2-.3-.3l.6-1.1c0-.1,0-.3-.3-.3l-4.2-.5h0Z"/>
    <path d="M493.5,654.4l2.4.3h.1l2.4.3c0,0,.2,0,.2,0l3.2-4.1c0,0,0-.2-.2-.2l-1.5-.2c-.2,0-.2-.1-.1-.2l.8-.8c0,0,0-.2-.1-.2l-3.5-.4h-.1l-3.5-.4c-.2,0-.3,0-.2.2l.5,1c0,0,0,.2-.2.2l-1.5-.2c-.1,0-.3,0-.2.2l1.6,4.7c0,0,0,0,.2.1h0Z"/>
    <path d="M473.4,647.3l-1.6-.2c-.1,0-.3,0-.2.2l2.4,4.8c0,0,.1.1.2.1l2.4.3h.1l2.4.3c0,0,.2,0,.2,0l2.6-4.2c0,0,0-.2-.2-.2l-1.5-.2c-.2,0-.3-.1-.2-.2l.7-.9c0,0,0-.2-.2-.2l-3.6-.4h-.1l-3.6-.4c-.2,0-.3,0-.2.2l.7,1c0,.1,0,.2-.2.2h0Z"/>
    <path d="M460.1,644.5c0,0,0-.2-.2-.2l-3.7-.4h-.1s-3.7-.5-3.7-.5c-.2,0-.3,0-.2.2l.8,1.1c0,.1,0,.2-.2.2l-1.6-.2c-.1,0-.2,0-.2.2l3.1,4.9c0,0,.1.1.2.1l2.5.3h.1l2.5.3c0,0,.2,0,.2,0l1.9-4.3c0,0,0-.2-.2-.2l-1.6-.2c-.2,0-.3-.2-.2-.2l.6-.9h0Z"/>
    <path d="M581.2,622.8l3-.4h.2s3-.4,3-.4c.1,0,.2,0,.2-.2l1.8-7.4c0-.2-.1-.3-.3-.3l-1.9.3c-.2,0-.4-.1-.3-.3l.6-1.6c0-.2,0-.3-.3-.3l-4.5.6h-.2s-4.5.6-4.5.6c-.2,0-.3.2-.2.4l1.1,1.4c.1.1,0,.3-.2.4l-1.9.3c-.2,0-.3.2-.2.3l4.3,6.5c0,0,.2.1.3.1h0Z"/>
    <path d="M605,619.5c0,0,.2.1.3.1l3-.4h.2s3.1-.4,3.1-.4c.1,0,.2,0,.2-.2l3-7.7c0-.2,0-.3-.3-.3l-2,.3c-.2,0-.3-.1-.3-.3l.9-1.7c0-.2,0-.3-.3-.3l-4.6.6h-.2s-4.6.7-4.6.7c-.2,0-.3.2-.2.4l.9,1.4c0,.1,0,.3-.2.4l-2,.3c-.2,0-.3.2-.2.3l3.3,6.8h0Z"/>
    <path d="M630,616.2c0,0,.1.1.2.1l3.1-.4h.2s3.2-.4,3.2-.4c.1,0,.2,0,.3-.2l4.2-7.9c0-.2,0-.3-.2-.3l-2,.3c-.2,0-.3-.1-.2-.3l1.1-1.7c.1-.2,0-.3-.2-.3l-4.8.7h-.2s-4.8.7-4.8.7c-.2,0-.4.2-.3.4l.7,1.5c0,.2,0,.3-.3.4l-2,.3c-.2,0-.3.2-.3.4l2.3,7h0Z"/>
    <path d="M584.8,640.8l2.6-.3h.1s2.6-.3,2.6-.3c0,0,.2,0,.2-.1l1.7-5.8c0-.1,0-.2-.3-.2l-1.7.2c-.2,0-.3,0-.3-.2l.6-1.2c0-.1,0-.2-.3-.2l-4,.5h-.1s-4,.5-4,.5c-.2,0-.3.2-.2.3l1,1.1c0,.1,0,.3-.2.3l-1.7.2c-.2,0-.2.2-.2.3l3.6,5.1c0,0,.1,0,.2,0h0Z"/>
    <path d="M614.2,631.1l-1.8.2c-.2,0-.3,0-.2-.2l.8-1.3c0-.1,0-.3-.2-.2l-4.1.5h-.1s-4.1.5-4.1.5c-.2,0-.3.2-.2.3l.8,1.1c0,.1,0,.3-.2.3l-1.7.2c-.2,0-.3.2-.2.3l2.9,5.3c0,0,.1,0,.2,0l2.7-.3h.1s2.7-.4,2.7-.4c0,0,.2,0,.2-.1l2.6-6c0-.1,0-.2-.2-.2h0Z"/>
    <path d="M627.9,635.4c0,0,.1,0,.2,0l2.8-.3h.1s2.8-.4,2.8-.4c0,0,.2,0,.2-.2l3.6-6.2c0-.1,0-.2-.2-.2l-1.8.2c-.2,0-.3-.1-.2-.2l1-1.3c0-.1,0-.3-.2-.2l-4.2.5h-.2s-4.2.6-4.2.6c-.2,0-.3.2-.3.3l.6,1.1c0,.1,0,.3-.3.3l-1.8.2c-.2,0-.3.2-.3.3l2.1,5.4h0Z"/>
    <path d="M590.1,654.8l2.4-.3c0,0,.2,0,.2-.1l1.6-4.7c0,0,0-.2-.2-.2l-1.5.2c-.2,0-.3,0-.2-.2l.5-1c0,0,0-.2-.2-.2l-3.5.4h-.1l-3.5.4c-.2,0-.2.1-.2.2l.8.8c0,0,0,.2-.2.2l-1.5.2c-.2,0-.2.1-.2.2l3.2,4.1s.1,0,.2,0l2.4-.3h.1,0Z"/>
    <path d="M605.7,648.2l-1.5.2c-.2,0-.2.1-.2.2l2.6,4.2s.1,0,.2,0l2.4-.3h.1l2.4-.3c0,0,.2,0,.2-.1l2.3-4.8c0,0,0-.2-.2-.2l-1.6.2c-.2,0-.3,0-.2-.2l.7-1c0-.1,0-.2-.2-.2l-3.6.4h-.1l-3.6.4c-.2,0-.3.1-.2.2l.7.9c0,0,0,.2-.2.2h0Z"/>
    <path d="M626.3,650.5s0,0,.2,0l2.5-.3h.1l2.5-.3c0,0,.2,0,.2-.1l3.1-4.9c0,0,0-.2-.2-.2l-1.6.2c-.2,0-.3,0-.2-.2l.8-1.1c0-.1,0-.2-.2-.2l-3.7.4h-.1s-3.7.5-3.7.5c-.2,0-.3.2-.2.2l.6.9c0,0,0,.2-.2.2l-1.6.2c-.2,0-.3.1-.2.2l1.9,4.3h0Z"/>
    <path class="st1" d="M531.1,700.4c7.2,3.7,16.1,3.7,23.3,0h0c11.9-6.1,13.4-18.8,6.2-29.3-5.6-8.2-17.7-35.8-17.7-35.8,0,0-12.4,27.5-18.1,35.8-7.3,10.5-5.7,23.2,6.2,29.3h0Z"/>
    <path d="M545.5,305c-1.1,4.7-6.1,27.7-6.1,58.9s5.3,60.1,6.2,64.3v.7s6.3-30.1,6.3-64.9-6.3-59.8-6.3-59.8v.8Z"/>
    <path d="M612.5,383.5c21.8-8.6,19.9-25.4,19.9-25.4,0,0-13.9,12.3-19.9,14.7-10.8,4.4-22.7,3.2-22.7,3.2,0,0,10.5,12.3,22.7,7.5Z"/>
    <path class="st3" d="M627.6,430.6c1.7.4,3.5.5,5.4.3,9.4-1,16.2-9.5,15.2-19-.7-6-4.4-11-9.4-13.5-1,1.1-1.9,2.2-2.8,3.4,2.6,2.6,4.4,6.2,4.9,10.2,1,8.8-4.8,16.7-13.2,18.6h0Z"/>
    <path class="st2" d="M628.7,416.3c-.2-1.7-1.3-3.1-2.7-3.7-2,1.8-4.2,3.4-6.5,4.8.3,2.5,2.6,4.3,5.1,4,2.6-.3,4.4-2.6,4.1-5.1Z"/>
    <path d="M593.1,406.6c-22.7-1.1-18.8-24.7-18.8-24.7,0,0-19.2,39.9,21.5,41,.5,0,1,0,1.5,0,5.9,9,25.6,33.7,53.3,11.4,22-17.8-2.9-44.9-2.9-44.9h-.2c2.2-1.7,4.7-3.4,7.5-4.7,13-6.3,32.3-3.9,32.3-3.9,0,0-23.1-26.4-52.9,1.9-18.2,17.3-30.8,24.5-41.3,24h0ZM624.5,421.5c-2.5.3-4.8-1.5-5.1-4,2.4-1.4,4.6-3.1,6.5-4.8,1.4.7,2.5,2,2.7,3.7.3,2.6-1.6,4.9-4.1,5.1ZM640.8,412c-.5-4-2.2-7.5-4.9-10.2.9-1.1,1.9-2.2,2.8-3.4,5,2.5,8.8,7.4,9.4,13.5,1,9.4-5.7,17.9-15.2,19-1.8.2-3.7.1-5.4-.3,8.4-1.9,14.2-9.9,13.2-18.6h0Z"/>
    <path d="M478.7,383.4c12.2,4.8,22.7-7.5,22.7-7.5,0,0-11.9,1.1-22.7-3.2-6-2.4-19.9-14.7-19.9-14.7,0,0-1.9,16.8,19.9,25.4Z"/>
    <path class="st3" d="M450.5,411.9c.5-4,2.2-7.5,4.9-10.2-.9-1.1-1.9-2.2-2.8-3.4-5,2.5-8.8,7.4-9.4,13.5-1,9.4,5.7,17.9,15.1,19,1.9.2,3.7.1,5.4-.3-8.4-1.9-14.2-9.9-13.2-18.6Z"/>
    <path class="st2" d="M462.6,416.2c-.3,2.6,1.6,4.9,4.1,5.1,2.5.3,4.8-1.5,5.1-4-2.4-1.4-4.6-3.1-6.5-4.8-1.4.7-2.5,2-2.7,3.7Z"/>
    <path d="M498.1,406.5c-10.5.5-23.1-6.7-41.3-24-29.8-28.3-52.9-1.9-52.9-1.9,0,0,19.3-2.4,32.3,3.9,2.8,1.4,5.2,3,7.5,4.8h-.2c0-.1-24.9,27.1-2.9,44.8,27.6,22.3,47.4-2.4,53.3-11.4.5,0,1,0,1.5,0,40.7-1.1,21.5-41,21.5-41,0,0,3.9,23.5-18.8,24.7h0ZM458.3,430.8c-9.4-1-16.2-9.5-15.1-19,.7-6,4.4-11,9.4-13.5,1,1.1,1.9,2.2,2.8,3.4-2.6,2.6-4.4,6.2-4.9,10.2-1,8.8,4.8,16.7,13.2,18.6-1.7.4-3.5.5-5.4.3ZM466.7,421.4c-2.6-.3-4.4-2.6-4.1-5.1.2-1.7,1.3-3.1,2.7-3.7,2,1.8,4.1,3.4,6.5,4.8-.3,2.5-2.6,4.3-5.1,4Z"/>
    <path d="M523.9,776.5c-.7-4.4-2.9-8.3-5-8.3h-8.9s1.1,7.4,1.1,7.4h1.2l8.4,29.3h5.2c1.2,0,2-1.5,1.7-3.4l-3.7-25ZM524.8,801.9h-2.5l-6.4-26.3h3.6c.3,0,.7.6.8,1.2l4.7,24.4c0,.3,0,.6-.3.6h0Z"/>
    <path d="M534,768.2h-5c-2.1,0-3.3,3.9-2.8,8.3l3,25c.2,2,1.4,3.5,2.7,3.5h3c1.2,0,2.3-1.5,2.3-3.5l.4-25c0-4.4-1.6-8.3-3.6-8.3h0ZM534.3,801.9h-2.1c-.2,0-.4-.3-.4-.6l-1.9-24.5c0-.7.2-1.3.5-1.3h3.1c.3,0,.6.6.6,1.3l.7,24.5c0,.3-.2.6-.4.6h0Z"/>
    <path d="M543.4,788.9l-.5,4.5h2.2l-1.1,7.9c0,.3-.3.6-.5.6h-2.1c-.2,0-.4-.3-.3-.6l2-24.5c0-.7.4-1.3.7-1.3h3.1c.3,0,.5.6.4,1.3l-1.1,7.9h3.3l1.5-8.3c.8-4.4-.2-8.3-2.3-8.3h-5c-2.1,0-3.9,3.9-4.1,8.3l-1,25.1c0,2,.9,3.5,2.1,3.5h3c1.2,0,2.5-1.5,2.9-3.5l2.2-12.7h-5.5Z"/>
    <path d="M563.5,768.1h-5c-2.1,0-4.6,3.9-5.5,8.3l-1.8,9c-.4,1.9-.3,3.6.3,4.6l3.4,6c0,.1,0,.4,0,.6l-1.4,4.7c0,.3-.4.6-.6.6h-2.1c-.2,0-.3-.3-.2-.6l.8-3.2h-2.7l-.7,3.3c-.4,2,.3,3.5,1.6,3.5h3c1.2,0,2.8-1.5,3.4-3.5l1.8-5.4c.5-1.5.5-2.9,0-3.8l-3.3-6.7c0-.2,0-.5,0-.8l2-8c.2-.7.6-1.3.9-1.3h3.1c.3,0,.4.6.2,1.3l-1.7,5.7h3.4l2-6c1.5-4.4,1.1-8.3-1-8.3h0Z"/>
  </g>
</svg>