<?xml version="1.0" encoding="UTF-8"?>
<svg id="PARTIAL" xmlns="http://www.w3.org/2000/svg" version="1.1" viewBox="0 0 499 626.9">
  <!-- Generator: Adobe Illustrator 30.5.1, SVG Export Plug-In . SVG Version: 2.1.4 Build 3)  -->
  <defs>
    <style>
      .st0 {
        fill: none;
        stroke: #000;
        stroke-linecap: round;
        stroke-linejoin: round;
      }

      .st1 {
        fill: #fff;
      }
    </style>
  </defs>
  <path class="st1" d="M423.4,226.8c-15.6-7-31.7-14.3-38.5-20-9.9-8.4-22-12.4-30.4-12.4s-17.1,2.4-28.1,7.8c-13.1,6.4-19.4,7.6-27.1,7.6s-7.2-.3-12.5-.7c-4.1-.3-2.3-.5-13.4-.5s-21.1.8-24.6,1.2c-2.6-.3-13.3-1.3-25.4-1.3s-9.4.2-13.4.5c-5.3.5-4.7.7-12.5.7s-14.1-1.2-27.1-7.6c-11.1-5.4-17.6-7.8-28.1-7.8s-20.4,4.1-30.4,12.4c-6.8,5.7-22.9,13-38.5,20-21.4,9.7-41.7,18.9-49.7,28.4-15.8,18.6-4.3,45.3,1.4,58.2v.3c2.4,5.6,6.3,11,10.3,16.8,7.5,10.6,15.1,21.5,14.2,33.6-1.5,19.3-5.1,27.8-5.4,28.5l-6.6,12.8,14.5-1.2c.4-.1,12-1.1,25.3-5.4,18.8-6.1,31.6-15.5,37.9-28,.1-.1.1-.2.1-.2,1.9,3.5,4,6.6,6.5,9.3,15.2,16.4,14.2,43.6,13.5,61.6-.3,6.2-.4,11.1,0,14.7,1.9,12.1-.7,21.2-3.3,30.9-.7,2.8-1.5,5.6-2.2,8.5-2,8.4-4.5,34.2,7.4,52.5,5.9,9,14.6,14.9,25.2,17,3.6.7,4.5,1.1,10.9,1.1s12.6-1.1,18.6-3.4c2.8,1.7,5.7,3.3,8.6,4.9-.9,3.2-.8,6.6.3,9.8l13.1,38.1c2.4,6.8,8.8,11.4,16.1,11.4h0c0,0,28.5,0,28.5,0,7.3,0,13.8-4.6,16.1-11.4l13.1-38.1c1-2.9,1.2-5.9.6-8.7,4.3-2.3,8.6-4.8,12.7-7.4,7,3.3,14.4,4.9,22.1,4.9s7.2-.4,10.9-1.1c10.6-2,19.3-7.9,25.2-17,11.8-18.4,9.4-44.1,7.4-52.5-.7-2.9-1.4-5.8-2.2-8.5-2.6-9.7-5.1-18.8-3.3-30.9.5-3.6.3-8.5,0-14.7-.6-18.1-1.6-45.3,13.5-61.6,2.5-2.7,4.7-5.8,6.5-9.3v.2c6.3,12.5,19,21.9,37.8,28,13.3,4.4,24.8,5.4,25.3,5.4l14.6,1.4-6.6-12.9c-.2-.7-3.8-9.2-5.3-28.5-.9-12.1,6.8-23.1,14.2-33.6,4.1-5.8,7.9-11.2,10.3-16.8l.2-.3c5.5-12.8,17-39.6,1.3-58.2-8-9.5-28.3-18.7-49.7-28.4ZM464.5,310.6c-6.4,14.9-26.8,32-25.1,54.2s6.1,31.3,6.1,31.3c0,0-6.9-.6-16-2.8-13.9-3.4-33.3-10.8-41.1-26.3-4.4-8.8-6.7-16.4-7.8-22.9-1.1,10.2-4.1,22.2-11.5,30.2-22.8,24.6-13.9,68.6-15.7,80.6-2.7,17.5,2.6,29.3,5.6,42.4s4.1,53.8-26.3,59.7c-10.7,2.1-19.9.5-27.4-2.8,0,0,0,0,0,0,0,0,0,0,0,0-1.5-.7-3-1.4-4.4-2.2-8.1,5.4-16.1,9.8-23.2,13.3.6.5,1.1,1,1.5,1.6,1.7,2.3,2.2,5.2,1.2,7.9l-13.1,38.1c-1.2,3.6-4.6,6-8.4,6h-28.6c-1.9,0-3.8-.6-5.3-1.7-1.6-1.1-2.8-2.6-3.4-4.5l-13.1-38.1c-.9-2.7-.5-5.6,1.2-7.9.7-.9,1.6-1.7,2.6-2.3-.5-.3-1.1-.5-1.6-.8-5.7-2.8-11.7-6.1-17.9-10-5.7,2.7-12.4,4.5-20.1,4.3-2.8,0-5.7-.3-8.7-.9-30.4-5.9-29.4-46.6-26.3-59.7,3-13.1,8.3-24.9,5.6-42.4-1.8-12.1,7.2-56-15.6-80.6-7.4-7.9-10.3-19.9-11.4-30.1-1.1,6.4-3.5,14.1-7.9,22.9-12.8,25.3-56.6,29-56.6,29,0,0,0,0,0,0-.3,0-.4,0-.4,0,0,0,4.4-9,6.1-31.3,1.7-22.3-18.7-39.4-25.1-54.2-5-11.7-15.3-35.2-2.7-50.2s70.5-33.4,87.3-47.5c9-7.5,17.2-10.6,25.8-10.5,7.6,0,15.5,2.6,24.4,7,13.4,6.6,21.1,8.4,30.7,8.4,3.8,0,7.8-.3,12.7-.7,4-.3,8-.4,12-.5,12.9,0,24.6,1.2,26,1.3,2-.2,12.9-1.3,25-1.3,4.3,0,8.7.1,12.9.5,4.9.4,9,.7,12.7.7,9.6,0,17.3-1.8,30.7-8.4,8.9-4.4,16.8-7,24.5-7,8.6-.1,16.8,3,25.7,10.5,16.8,14.1,74.7,32.5,87.3,47.5s2.3,38.5-2.7,50.2Z"/>
  <path class="st1" d="M171.8,506.8s-2.5-2.2-5.2-6.7c0,0,0,0,0,0-.3-.3-.5-.5-.8-.8,2.6,4.5,5.1,7,5.6,7.5.3,0,.4,0,.4,0Z"/>
  <path class="st1" d="M280.2,531.6s-4.5,2.4-10.9,3.6c-.7.1-1.4.3-2.1.4-7.3,2.9-13.3,4.8-17.2,6.1,2.2,3.1,3.7,6.8,4.4,10.4h10.3c2.6,0,5,1.1,6.7,3,6.2-2.5,13.2-5.7,20.3-9.8-7.6-6.8-11.5-13.7-11.5-13.7Z"/>
  <path class="st1" d="M218,554.7c1.6-1.6,3.9-2.6,6.3-2.6h22.5c-.7-3.2-1.4-6.3-2.4-9.3-3.5-.9-14.5-3.9-28.4-10.1-1.7,2.6-6.2,9-13.5,14.7,5.4,2.9,10.6,5.3,15.4,7.3Z"/>
  <path class="st1" d="M339.8,499.7c.1-.2.2-.3.4-.5-1.4,1.5-3.3,3.5-5.1,5.2-.1.1-.3.3-.5.4.3-.2.5-.4.8-.6,1.5-1.4,3.1-3.1,4.4-4.5Z"/>
  <path class="st1" d="M291.4,524.1c-.1,0-.2.1-.3.2,1.8,2,3.5,4,5.2,5.8,2.7,2.8,5.7,5,8.7,6.6,0,0,.2-.1.3-.2-3-1.6-5.9-3.8-8.7-6.6-1.7-1.8-3.5-3.7-5.2-5.7Z"/>
  <path class="st1" d="M154.4,497s-1,2.1-1.9,6.4c0,.1,0,.3,0,.4,0,0,.1.1.2.2.8-3.8,1.6-6,1.9-6.8-.1-.1-.2-.2-.2-.2Z"/>
  <path class="st1" d="M187.7,538.2c.8-.3,1.5-.6,2.3-1-.8.3-1.5.6-2.3.9,0,0,0,0,0,0Z"/>
  <path class="st1" d="M241.2,585.3h-2.3c-.2,0-.4.4-.4.9l1.4,18.1c0,.2.2.5.3.5h1.6c.2,0,.3-.2.3-.5h.1c0,.1-.5-18.1-.5-18.1,0-.5-.2-.9-.5-.9Z"/>
  <path class="st1" d="M231.5,586.3h0c0-.5-.4-.9-.6-.9h-2.7l4.7,19.5h1.8c.2,0,.3-.2.2-.5l-3.5-18.1Z"/>
  <path class="st1" d="M263.2,570.7c-.9,0-1.5-.9-1.1-1.7h-.1l3.7-7.7c.4-.8-.2-1.7-1.1-1.7h-9.6c-.4,3.8-2.2,7.7-5.1,10.3.2.6.4,1.2.4,1.8,0,2.7-2.2,4.8-5,4.8s-5-2.1-5-4.8,2.2-4.8,5-4.8,1.3.1,1.9.4c.7-2.6,1-5.1.8-7.7h-23.8c-.9,0-1.5.9-1.1,1.7l3.7,7.7c.4.8-.2,1.7-1.1,1.7h-8.6c-.8,0-1.4.8-1.2,1.6l13.1,38.1c.2.5.6.8,1.2.8h28.5c.5,0,1-.3,1.2-.8l13.1-38.1c.3-.8-.3-1.6-1.2-1.6h-8.6ZM235.7,607.2h-3.9l-6.2-21.8h-.9l-.8-5.5h6.6c1.5,0,3.2,2.9,3.7,6.1h0s2.8,18.6,2.8,18.6c.2,1.5-.4,2.6-1.3,2.6ZM244.4,586l-.3,18.6c0,1.5-.8,2.6-1.7,2.6h-2.2c-.9,0-1.8-1.1-2-2.6l-2.2-18.6c-.4-3.2.5-6.1,2-6.1h3.7c1.5,0,2.8,2.9,2.7,6.1ZM248.9,607.3h-2.2c-.9,0-1.6-1.1-1.6-2.6l.8-18.6c0-3.2,1.5-6.2,3-6.2h3.7c1.5,0,2.3,2.9,1.7,6.1l-1.1,6.2h-2.4l.8-5.9c0-.5,0-.9-.3-.9h-2.3c-.2,0-.5.4-.5.9l-1.5,18.2c0,.2,0,.5.3.5h1.6c.2,0,.3-.2.4-.5l.8-5.9h-1.7l.3-3.3h4l-1.7,9.4c-.3,1.5-1.2,2.6-2.1,2.6ZM264.3,586l-1.5,4.5h-2.5l1.2-4.2c.2-.5,0-.9-.2-.9h-2.3c-.2,0-.5.4-.7.9l-1.5,5.9v.6l2.4,5c.3.7.3,1.8,0,2.8l-1.4,4c-.5,1.5-1.6,2.6-2.5,2.6h-2.2c-.9,0-1.5-1.1-1.2-2.6l.5-2.5h2l-.6,2.3c0,.2,0,.5.2.5h1.6c.2,0,.4-.2.4-.5l1-3.5v-.4l-2.5-4.4c-.4-.7-.5-2-.2-3.4l1.3-6.7c.7-3.3,2.5-6.2,4-6.2h.3s3.7,0,3.7,0c1.6,0,1.8,2.9.7,6.2Z"/>
  <path class="st1" d="M70.8,341.1c-.9-6.7-4.5-39.3,5.9-59.2,11.6-22.3,7.8-16.7,16-31,8.2-14.3,8.2-15.8,8.2-15.8l-43.7,19.6s0,0,0,0c-.2,0-22.2,7.1-22.5,20.5,0,0,0,0,0,0-.2,11.9,2.8,15.8,3.5,16.5.1.1.2.2.2.2h0s.4-9.8,4.9-14c0,0,0,0,0,0,0,0,0,0,0,0,6.4-6.2,11.4-6.3,11.4-6.3,0,0,0,0,0,0h0s0,0,0,0l-5.1,8.8,6.1-.4s-5.4,5.7-5.4,14.8c0,2.1.3,4.3,1,6.7,0,.3.2.5.2.8.5,1.7,1.2,3.4,2.2,5.2.3.5.5,1,.8,1.5.5.9,1.1,1.8,1.8,2.8,10.6,15,13.7,25.7,14.5,29.3Z"/>
  <path class="st1" d="M212,433.7h0c0,0,0,0,0,0h0Z"/>
  <path class="st1" d="M323,308.3c1.7,1.9,2.9,4.4,3.2,7.2.8,7-4.2,13.3-11.2,14.1-1.3,0-2.5,0-3.7-.2,0,0-.1,0-.2,0,1.3.2,2.6.4,4,.2,6.9-.8,12-7.1,11.2-14.1h0c-.3-2.8-1.6-5.3-3.4-7.3Z"/>
  <path class="st1" d="M311.9,318.8h0s-.1,0-.1,0c.3,1.9-1.1,3.6-3,3.8-1.9.2-3.6-1.1-3.8-3h0c.2,1.9,1.9,3.2,3.8,3h.1c1.8-.2,3.2-1.9,3-3.8Z"/>
  <path class="st1" d="M190.6,315.9c1.5,1.3,3.1,2.5,4.9,3.6-.2,1.7-1.5,2.9-3.1,3,1.6-.1,3-1.3,3.2-3-1.8-1.1-3.4-2.3-4.9-3.6,0,0,0,0,0,0Z"/>
  <path class="st1" d="M311.9,318.8c-.1-1.3-.9-2.3-2-2.8,1.1.5,1.9,1.6,2,2.8Z"/>
  <path class="st1" d="M179.8,315.4c.3-2.9,1.6-5.5,3.6-7.5-.7-.8-1.4-1.7-2.1-2.5-1.4.7-2.7,1.7-3.8,2.8,1-1.1,2.3-2,3.7-2.7.7.8,1.4,1.7,2.1,2.5-1.9,1.9-3.3,4.5-3.6,7.5h0c-.7,6.5,3.4,12.3,9.4,13.8.2,0,.4,0,.6,0-6.2-1.4-10.5-7.3-9.8-13.8Z"/>
  <path class="st1" d="M409.9,350.3h-.3c-8.1-24,2.5-43.5-9.5-71.2-12-27.6-11.9-31.7-15.5-42.4-2.9-8.4-16-23.7-33.1-22.3s-22.2,12.2-52,13.2c-29.7,1-51.2.3-51.2.3-1.6,0-22.5.6-51.1-.4-29.8-1-34.9-11.7-52-13.2-17.1-1.5-30.2,13.9-33.1,22.3-3.6,10.6-3.5,14.8-15.5,42.4-12,27.6-1.4,47.2-9.5,71.2-9.2,27.1-23.4,37.4-23.4,37.4,0,0,35.8-12.1,42.4-55.5,3.7-24.4-3.5-24.7,5-49.6,8.5-24.9,14.2-37.1,25.7-46.6s39.2,3.7,39.2,3.7c0,0-23.3,18.8-31.8,32.2-8.5,13.4-12,8.8-10.7,42.1s2,40,14.2,54.8c3.2,3.9,5.3,9.4,6.5,15.5.8,6.2,1.8,15.2,1.9,23.8,1.6-2.1,3.6-4.2,6.1-6.3,2.6-8.6,9.8-28.6,24.3-39.5,18.8-14.2,32.9-13.7,32.9-13.7,0,0-20.7,11.6-31.4,27.6-5.2,7.7-7.6,12.6-8.8,15.7,14.6-4.6,30.8-.8,30.8-.8,0,0-25.3,2.2-36.3,13.5-19.2,19.7-16.6,55.1-16.6,55.4,1,7.7,2.1,14.8,3,19.7.8,9.2,3.8,16,6.5,20.5,2.7,4.4,5.2,6.7,5.2,6.7,0,0-.2,0-.4,0-1.5,0-7.2-.2-9.7-2.6-3.3-3.1-7-7.3-7-7.3,0,0,0,.1-.1.3-.3.8-1.1,3-1.9,6.8-.4,2-.8,4.3-1.2,7.1-1.1,9.3.6,15.8,3.2,21.6,2,4.5,17.9,11,33,5.5.8-.3,1.5-.6,2.3-.9,3.7-1.7,7.3-4.1,10.5-7.5,14.6-15.2,31.6-40.8,39.3-54.5s-16.5-16.5-32.1-28.3c-15.6-11.8-21.2-18.2-10.2-34.5,10.9-16,50.2-13.2,51-13.2,0,0,40-3,51.1,13.2,11,16.2,5.4,22.7-10.2,34.5s-39.8,14.5-32.1,28.3c6.8,12.2,20.8,33.5,34.1,48.8,1.8,2,3.5,4,5.2,5.7,2.7,2.8,5.6,5,8.7,6.6,16.2,8.6,34.9,1.2,37.1-3.7,2.6-5.8,4.3-12.3,3.2-21.6-1.1-9.5-3.2-14.2-3.2-14.2,0,0-1.1,1.2-2.6,2.8-1.3,1.4-2.9,3.1-4.4,4.5-.2.2-.5.4-.8.6-3.3,2.2-9.3,2-9.3,2,0,0,10.2-9.1,11.7-27.2.8-5,2-12.1,3-19.7,0-.3,2.7-35.7-16.6-55.4-11-11.3-36.3-13.5-36.3-13.5,0,0,16.3-3.9,30.8.8-1.2-3.1-3.7-8-8.8-15.7-10.7-15.9-31.4-27.6-31.4-27.6,0,0,14.1-.5,32.9,13.7,14.5,10.9,21.8,31,24.3,39.5,2.5,2.1,4.5,4.2,6.1,6.3,0-8.6,1-17.6,1.9-23.8,1.3-6,3.3-11.6,6.5-15.5,12.2-14.7,12.8-21.5,14.2-54.8,1.3-33.2-2.2-28.6-10.7-42-8.5-13.4-31.8-32.2-31.8-32.2,0,0,27.7-13.2,39.2-3.7s17.2,21.7,25.7,46.6c8.5,24.9,1.3,25.2,5,49.6,6.5,43.4,42.3,55.5,42.3,55.5,0,0-14.3-10.3-23.4-37.4ZM299.9,286.6c4.4-1.8,14.7-10.9,14.7-10.9,0,0,1.5,12.4-14.7,18.8h0c-9,3.6-16.8-5.5-16.8-5.5,0,0,8.8.8,16.8-2.4ZM185.9,275.5s10.3,9.1,14.7,10.9c8,3.2,16.8,2.4,16.8,2.4,0,0-7.8,9.2-16.8,5.6h0c-16.1-6.5-14.7-18.9-14.7-18.9ZM200.1,461.9l3.4.5c.2,0,.2.2.2.3l-.7,1c0,0,0,.3.2.3l1.5.2c.2,0,.2.2.2.3l-2.5,5h-.2l-2.3-.3h-.1l-2.3-.3c0,0-.2,0-.2,0h0c0,0-2.2-5.8-2.2-5.8,0-.2,0-.2.2-.2l1.5.2c.2,0,.2-.1.2-.2l-.6-1.2c0-.2,0-.2.2-.2l3.4.5h0ZM196.2,477.2c0-.2,0-.2.2-.2l3,.4h0l3,.4c.2,0,.2.2.2.2l-.6.8c0,.1,0,.2.2.2l1.3.2h-.1c.2,0,.2.3.2.3l-2.1,3.9h-.2l-2-.3h-.1l-2-.2h-.2c0,0-2-4.5-2-4.5,0-.2.1-.2.2-.2l1.3.2c.2,0,.2-.2.2-.2l-.6-1ZM196.6,489.3c-.1,0,0,0,0,0l2.7.3,2.7.3c.1,0,.1.2.1.2l-.5.6c-.1,0,0,.2,0,.3h1.3c0,0,0,.2,0,.2l-1.9,3.1h-.1l-1.8-.2-1.8-.2h0l-1.8-3.6c-.1,0,0,0,0,0h1.2c.1.1.1,0,.1,0l-.5-.8ZM187.7,489.1h-.2s0,0,0,0l-1.4,3.2h-.1l-1.8-.2-1.8-.2h-.2l-2.3-3.7c0,0,0-.2.1,0h1.2c0,.1,0,0,0,0l-.6-.8c-.1,0,0,0,0,0l2.8.3h.1l2.8.3c.2,0,.2.2.2.2l-.4.7c0,0,.1,0,.2.3h1s0-.1-.2-.1h.4ZM185.6,475.9l-.5.8c0,.1,0,.2.2.2l1.3.2c.2,0,.2.2.2.2l-1.5,4h-.2l-2-.3h-.1l-2.1-.2.2.2c-.1,0-.2,0-.2,0l-2.7-4.6c-.1-.2,0-.2,0-.2l1.3.2c.1,0,.1-.2.1-.2l-.7-1c-.1-.2,0-.2,0-.2l3.1.4h0l3.1.4c.2,0,.2.2.2.2ZM175.6,460.2l1.5.2c.2,0,.2-.1.2-.2l-.8-1.3h-.1c0-.2,0-.3.2-.3l3.5.5h0l3.5.5c.2,0,.2.2.2.3l-.5,1.1c0,0,0,.3.2.3l1.5.2c.2,0,.2.2.2.3l-1.7,5.2h-.2l-2.3-.3h0l-2.3-.3c-.1,0-.2,0-.2,0l-3.1-5.9c0-.2.1-.2.2-.2ZM213.3,484.6l-1.3-4.3c0-.2,0-.2.2-.2l1.3.2c.2,0,.2-.2.2-.2l-.4-.9c0-.2.1-.2.2-.2l3,.4h.1l2.9.4c.1,0,.1.2.1.2l-.7.8c-.1.1,0,.2,0,.2l1.2.2c0,0,0,.2,0,.2l-2.7,3.8h-.2l-2-.2h-.1l-2-.2v-.2h0ZM220.1,472h-.2l-2.2-.3h0l-2.2-.3h.4c-.2-.1-.2-.2-.2-.2l-1.4-5.5c0-.2.1-.2.2-.2l1.4.2c.2,0,.2-.1.2-.2l-.5-1.2c0-.2,0-.2.2-.2l3.3.5h0l3.3.5c0,0,0,.2,0,.3l-.8,1c-.1,0-.1.3,0,.3l1.4.2c0,0,0,.2,0,.2l-3.2,4.9ZM210.7,491.9h1.1c.2.1.2,0,.2,0l-.4-.8c0,0,0,0,.2,0l2.6.3,2.6.3c0,0,0,.2,0,.2l-.6.6c-.1,0,0,.2,0,.3h1.1c0,.1,0,.2,0,.2l-2.4,3h-.2l-1.8-.2-1.8-.2h0l-1.2-3.5s0,0,.2,0ZM213,323.5h-1.1c-4.4,6.7-19,25-39.5,8.5-16.4-13.1,2.1-33.2,2.1-33.2h.2c-1.6-1.5-3.4-2.7-5.5-3.7-9.7-4.7-24-2.9-24-2.9,0,0,17.1-19.6,39.2,1.4,13.5,12.8,22.8,18.2,30.6,17.8,16.8-.8,13.9-18.3,13.9-18.3,0,0,14.3,29.6-15.9,30.4ZM250.3,328.1v-.5c-.7-3.1-4.6-24.6-4.6-47.7s3.7-40.2,4.5-43.7v-.6h0s4.7,18.6,4.7,44.4-4.7,48.1-4.7,48.1ZM316.3,488.5l-2.3,3.7h-.2l-1.8.2-1.8.2h-.2l-1.4-3.2c0,0,.1,0,.2-.3h1.2c.2,0,.2-.2.2-.2l-.4-.7c0-.1.1-.2.2-.2l2.8-.3,2.8-.3c0-.1,0,0,0,0l-.6.8c-.1,0,0,.2,0,0h1.2-.2c0,.1,0,.2,0,.2ZM315.9,480.6c0,0-.2,0-.2,0l-2.1.3-2,.2h-.2l-1.5-4c0-.1.1-.2.2-.2l1.3-.2c.2,0,.2-.2.2-.2l-.5-.8c0-.1.1-.2.2-.2l3.1-.4h0l3.1-.4c0,0,0,.2,0,.2l-.7,1c-.1.2,0,.2,0,.2l1.3-.2v-.2c.2,0,.2.2.2.2l-2.7,4.6ZM318.1,466.5c0,0-.2,0-.2,0l-2.3.3h0l-2.3.3h-.2l-1.7-5.2c0,0,0-.3.2-.3l1.5-.2c.2,0,.2-.2.2-.3l-.5-1.1c0,0,0-.3.2-.3l3.5-.5h0-.1c0,0,3.5-.4,3.5-.4.2,0,.2.1.2.2l-.8,1.3q0,.2.2.2l1.5-.2c.2,0,.2.1.2.2l-3.1,5.9ZM292,464.4l1.5-.2c.2,0,.2-.2.2-.3l-.7-1c0,0,0-.3.2-.3l3.4-.5h0l3.4-.5c.2,0,.2.1.2.2l-.6,1.2q0,.2.2.2l1.5-.2h0c.2,0,.2.2.2.3l-2.2,5.7c0,0-.2,0-.2,0l-2.3.3h0l-2.3.3h-.2l-2.5-5c0,0,.1-.3.2-.3ZM294.4,490c-.1-.1,0-.2,0-.2l2.7-.3,2.7-.3c.2-.1.2,0,.2,0l-.5.8s.1,0,.2,0h1.2-.1c.2,0,.2,0,.2,0l-1.8,3.6h-.2l-1.8.2-1.8.2h-.2l-1.9-3.1c0,0,.1-.2.2-.3h1.2c0,0,0-.2,0-.2l-.5-.6ZM299.3,482.7c-.1,0-.2,0-.2,0l-2,.3-2,.2h-.2l-2.1-3.9c0-.1.1-.2.2-.2l1.3-.2c.2,0,.2-.2.2-.2l-.6-.8c0-.1.1-.2.2-.2l3-.4,3-.4c.2,0,.2.2.2.2l-.6,1c0,.2.1.2.2.2l1.3-.2h-.1c.2,0,.2.1.2.1l-2,4.4ZM273.8,467l1.4-.2c0,0,0-.3,0-.3l-.8-1c-.1,0-.1-.3,0-.3l3.3-.5h0l3.3-.5c.2,0,.2.1.2.2l-.5,1.2c0,.2,0,.2.2.2l1.4-.2c.2,0,.2.1.2.2l-1.4,5.5c0,0-.2,0-.2,0l-2.2.3h0l-2.1.3h0c0,0,.2.1.2.1h-.2c0,0-.2-.1-.2-.1h.1s-3.1-4.8-3.1-4.8c-.1-.1,0-.2,0-.2ZM276.7,481.5l1.2-.2c0,0,0-.2,0-.2l-.7-.8c-.1-.1,0-.2,0-.2l2.9-.4,3-.4c.2,0,.2.2.2.2l-.4.9c0,.2.1.2.2.2l1.3-.2c.2,0,.2.2.2.2l-1.3,4.3h-.2l-2,.2-2,.2.2.2h-.2l-2.7-3.8c-.1-.1,0-.2,0-.2ZM281.4,495.9l-2.3-3c-.1,0,0-.2,0-.3h1.1c0,0,0-.2,0-.2l-.6-.6c-.1-.2,0-.2,0-.2l2.6-.3,2.6-.3c.2-.1.2,0,.2,0l-.4.8s.1,0,.2,0h1.2c.2,0,.2,0,.2,0l-1.2,3.5h0l-1.8.2-1.8.2h-.2ZM326.1,299s18.4,20.1,2.1,33.3c-20.5,16.5-35.1-1.8-39.5-8.5h-1.1c-30.2-.8-16-30.4-16-30.4,0,0-2.9,17.5,13.9,18.3h0c7.8.5,17.1-4.9,30.6-17.7,22-20.9,39.2-1.4,39.2-1.4,0,0-14.4-1.8-24,2.9-2,1-3.8,2.2-5.5,3.5h.2Z"/>
  <path class="st1" d="M425.8,341.9c0,.2,0,.4,0,.5,0,0,0-.2,0-.5Z"/>
  <path class="st1" d="M439.6,254.7h-.1c0,0-43.7-19.5-43.7-19.5,0,0,0,1.5,8.2,15.8s4.4,8.7,16,31c10.9,20.8,6.5,55.4,5.8,59.9.5-2.5,3.2-13.7,14.7-30.1,13.1-18.6.6-31.8.6-31.8l6.1.4-5.1-8.8s4.9.2,11.4,6.3c4.4,4.2,4.9,14,4.9,14,0,0,4-3.2,3.7-16.7s-22.5-20.5-22.5-20.5Z"/>
  <path class="st1" d="M248.3,434.7l7.1,15.7s14.6-7.9,14.9-13.7c.3-5.8-6.9,3.3-10.1-3.8-1.7-3.8-.9-10.7,15.5-8.3,14.2,2,10.5,7.6,9.2,9.1,2.2-.2,12.2-2,8.2-13.6-4.5-13-44.8-11.3-44.8-11.3-.7,0-40.2-1.7-44.7,11.2-4,11.6,6,13.3,8.2,13.6-1.2-1.4-5-7,9.2-9.1,16.3-2.3,17.2,4.5,15.5,8.3-3.2,7.2-10.5-2-10.1,3.8.3,5.8,14.9,13.7,14.9,13.7l7-15.6Z"/>
  <path class="st1" d="M284.6,433.9h0l.3-.3h-.4v.2h0Z"/>
  <line class="st0" x1="300.9" y1="490.1" x2="301" y2="490.1"/>
  <polygon class="st1" points="248.3 481.3 248.3 481.3 248.3 481.3 248.3 481.3"/>
  <path class="st1" d="M239.5,529.5c5.3,2.7,12,2.7,17.3,0,8.8-4.5,10-13.9,4.6-21.7-4.2-6.1-13.1-26.5-13.1-26.5,0,0-9.2,20.4-13.4,26.5-5.4,7.8-4.2,17.2,4.6,21.7Z"/>
  <path class="st1" d="M315,329.6c7-.8,12-7.1,11.2-14.1-.3-2.8-1.5-5.2-3.2-7.2-1-1.1-2.2-2-3.6-2.6-.7.8-1.4,1.7-2.1,2.5,1.9,1.9,3.3,4.5,3.6,7.5.7,6.4-3.5,12.3-9.6,13.7,1.2.2,2.4.2,3.7.2Z"/>
  <path class="st1" d="M308.8,322.6c1.9-.2,3.3-1.9,3-3.8h.1s0,0,0,0c-.1-1.2-.9-2.3-2-2.8,0,0,0,0,0,0-1.5,1.3-3.1,2.5-4.9,3.6.2,1.9,1.9,3.2,3.8,3Z"/>
  <path class="st1" d="M179.6,315.6h0c.3-3.1,1.7-5.7,3.6-7.6-.7-.8-1.4-1.7-2.1-2.5-1.4.7-2.6,1.6-3.7,2.7-1.8,1.9-2.9,4.4-3.2,7.2-.8,7,4.2,13.3,11.2,14.1h0c1.2,0,2.3,0,3.4-.2-6-1.5-10.1-7.3-9.4-13.7Z"/>
  <path class="st1" d="M195.5,319.5c-1.8-1.1-3.4-2.3-4.9-3.6-1.1.5-1.8,1.6-1.9,2.8h.1c-.3,1.9,1.1,3.6,3,3.8.2,0,.4,0,.6,0,1.6-.1,2.9-1.3,3.1-3Z"/>
  <path class="st1" d="M37.1,185.6v-56.2c4.5-1,6.7-1.5,11.2-2.5,3.2-.7,6.4-2.4,9-4.8,7-6.4,14.1-12.7,21.2-19,5.3-4.7,8.5-11.4,8.5-17.9v-47.1c.7-13.1-11.9-21.4-23.8-19.4-18.8,3.9-37.5,8.3-56.1,13.1-2.4,9-4.7,18-7.1,27,3.4-1,5-1.4,8.4-2.3v136.2c9.6-2.5,19.1-4.8,28.7-7.1ZM37,49.4c6.8-1.6,10.2-2.4,17-3.8,2.2-.5,4,.9,4,3.1h0v40.1c0,1.3-.6,2.6-1.7,3.6-4,3.6-6,5.4-10,9.1-.6.6-1.4,1-2.2,1.2-2.9.6-4.3,1-7.1,1.6v-54.9Z"/>
  <path class="st1" d="M109.6,171.7c9.7-1.4,19.4-2.7,29.1-3.9v-56.2c8.4-1,12.7-1.5,21.2-2.3v56.2c9.8-.8,19.5-1.6,29.3-2.3V1.9c-9.8.7-19.5,1.4-29.3,2.3v80c-8.5.8-12.7,1.3-21.2,2.3V6.5c-10.2,1.3-20.4,2.6-30.5,4.1-2.4,8.7-4.8,17.5-7.2,26.2,3.5-.5,5.2-.8,8.6-1.3v136.2Z"/>
  <path class="st1" d="M241.3,0h0s0,0,0,0h0Z"/>
  <path class="st1" d="M212,162c9.8-.3,19.5-.6,29.3-.7V0c-10.3.2-20.4.4-30.6.8-2.4,8.5-4.9,16.9-7.3,25.4,3.4-.2,5.1-.3,8.6-.4v136.2Z"/>
  <path class="st1" d="M264,161.5c21.4.4,42.6,1.4,63.9,3.1v-25c-11.6-.9-23-1.7-34.5-2.2V1.2c-9.8-.4-19.5-.7-29.3-.9h-1.4c-2.5,8.3-4.9,16.7-7.3,25h8.6v136.2Z"/>
  <path class="st1" d="M327.9,139.5h0c0,0,0,0,0,0h0Z"/>
  <path class="st1" d="M350.6,166.8c21.3,2.4,42.4,5.4,63.5,9v-25.1h0c-11.4-2.1-22.8-3.9-34.3-5.5V9c-9.8-1.3-19.5-2.5-29.2-3.6-.5,0-.8,0-1.3,0-2.5,8.2-4.9,16.3-7.3,24.4,3.4.3,5.2.5,8.6.9v136.2Z"/>
  <path class="st1" d="M499,102.9V33.5h0c-9.5-2.5-19-4.9-28.6-7.3v64.1c0,2.1-1.7,3.5-3.9,3-5.2-1.2-7.8-1.9-13-3-2.1-.4-3.9-2.6-3.9-4.8V21.4c-10-2.1-20.1-4.1-30.2-6-2.9,9.5-4.3,14.3-7.2,23.8,3.4.6,5.1.9,8.5,1.5v44.3c.6,12.9,10.4,26.1,23.7,28.5.5,0,.7.2,1.2.3v68.1c9.6,2.1,19.2,4.3,28.8,6.6v-68.1c.5,0,.7.2,1.2.3,11.5,2.5,24.4-4.7,23.5-17.8Z"/>
</svg>