<?xml version="1.0" encoding="UTF-8"?>
<svg id="PARTIAL" xmlns="http://www.w3.org/2000/svg" version="1.1" viewBox="0 0 1080 1080">
  <!-- Generator: Adobe Illustrator 30.1.0, SVG Export Plug-In . SVG Version: 2.1.1 Build 136)  -->
  <defs>
    <style>
      .st0 {
        fill: #99a4ad;
      }

      .st1 {
        fill: #fff;
      }

      .st2 {
        fill: #553dad;
      }
    </style>
  </defs>
  <g id="FULL_COLOR">
    <g>
      <path class="st1" d="M522.2,849.2c-7.3,0-13.7-4.6-16.1-11.4l-13.1-38.1c-1.1-3.2-1.2-6.6-.3-9.8-2.9-1.6-5.8-3.2-8.6-4.9-6,2.3-12.2,3.4-18.6,3.4s-7.3-.4-10.9-1.1c-10.6-2.1-19.3-8-25.2-17-11.9-18.3-9.4-44.1-7.4-52.5.7-2.9,1.5-5.7,2.2-8.5,2.6-9.7,5.2-18.8,3.3-30.9-.5-3.6-.4-8.5-.1-14.7.7-18,1.7-45.2-13.5-61.6-2.5-2.7-4.6-5.8-6.5-9.3,0,0,0,.1-.1.2-6.3,12.5-19.1,21.9-37.9,28-13.3,4.3-24.9,5.3-25.3,5.4l-14.5,1.2,6.6-12.8c.3-.7,3.9-9.2,5.4-28.5.9-12.1-6.7-23-14.2-33.6-4-5.8-7.9-11.2-10.3-16.8v-.3c-5.7-12.9-17.2-39.6-1.4-58.2,8-9.5,28.3-18.7,49.7-28.4,15.6-7,31.7-14.3,38.5-20,10-8.3,19.9-12.4,30.4-12.4s17,2.4,28.1,7.8c13,6.4,19.3,7.6,27.1,7.6s7.2-.2,12.5-.7c4-.3,8.5-.5,13.4-.5,12.1,0,22.8,1,25.4,1.3,3.5-.4,13.5-1.2,24.6-1.2s9.3.2,13.4.5c5.3.4,9,.7,12.5.7,7.7,0,14-1.2,27.1-7.6,11-5.4,19.7-7.8,28.1-7.8s20.5,4,30.4,12.4c6.8,5.7,22.9,13,38.5,20,21.4,9.7,41.7,18.9,49.7,28.4,15.7,18.6,4.2,45.4-1.3,58.2l-.2.3c-2.4,5.6-6.2,11-10.3,16.8-7.4,10.5-15.1,21.5-14.2,33.6,1.5,19.3,5.1,27.8,5.3,28.5l6.6,12.9-14.6-1.4c-.5,0-12-1-25.3-5.4-18.8-6.1-31.5-15.5-37.8-28,0,0,0-.1,0-.2-1.8,3.5-4,6.6-6.5,9.3-15.1,16.3-14.1,43.5-13.5,61.6.2,6.2.4,11.1-.1,14.7-1.8,12.1.7,21.2,3.3,30.9.8,2.7,1.5,5.6,2.2,8.5,2,8.4,4.4,34.1-7.4,52.5-5.9,9.1-14.6,15-25.2,17-3.7.7-7.3,1.1-10.9,1.1-7.7,0-15.1-1.6-22.1-4.9-4.1,2.6-8.4,5.1-12.7,7.4.6,2.8.4,5.8-.6,8.7l-13.1,38.1c-2.3,6.8-8.8,11.4-16.1,11.4h-28.5,0Z"/>
      <path d="M758.8,482.7c-12.6-15-70.5-33.4-87.3-47.5-16.8-14.1-31-12.7-49.8-3.5s-26.3,9.1-43.8,7.7c-16.7-1.4-36.1.7-37.7.8h0c0,0-20.3-2.3-37.8-.9-17.4,1.4-25,1.5-43.8-7.7s-32.9-10.6-49.8,3.5c-16.8,14.1-74.7,32.5-87.3,47.5-12.6,15-2.3,38.5,2.7,50.2,6.4,14.8,26.8,31.9,25.1,54.2-1.7,22.3-6.1,31.3-6.1,31.3,0,0,43.8-3.7,56.6-29,4.7-9.4,7.1-17.6,8.1-24.3,1,10.5,3.9,23.2,11.6,31.5,22.8,24.6,13.8,68.5,15.6,80.6,2.7,17.5-2.6,29.3-5.6,42.4-3.1,13.1-4.1,53.8,26.3,59.7,11.4,2.2,21,.2,28.7-3.5,6.8,4.3,13.5,7.9,19.7,10.9-1,.6-1.9,1.4-2.6,2.3-1.7,2.3-2.1,5.2-1.2,7.9l13.1,38.1c1.2,3.6,4.6,6,8.4,6h28.5c3.8,0,7.2-2.4,8.4-6l13.1-38.1c.9-2.7.5-5.6-1.2-7.9-.4-.6-1-1.1-1.5-1.6,7.2-3.5,15.1-7.9,23.2-13.3,8.2,4.7,18.9,7.7,31.9,5.2,30.4-5.9,29.3-46.6,26.3-59.7s-8.3-24.9-5.6-42.4c1.8-12-7.1-56,15.7-80.6,7.7-8.3,10.6-21,11.6-31.5,1.1,6.7,3.4,14.9,8.1,24.3,12.8,25.3,56.7,29,56.7,29,0,0-4.4-9.1-6.1-31.3s18.7-39.3,25.1-54.2c5-11.7,15.3-35.2,2.7-50.2h0ZM540.3,703.6v-41.3,41.4s0,0,0,0h0Z"/>
      <g>
        <g>
          <g>
            <path d="M630.9,689.6c-5,5-8.9,13-22,25.7-26.3,25.4-71.7,29.3-71.6,39.7-.4-29.3,0,0,0,0-12.6-3.5-45.3-14.4-71.5-39.7-7.1-6.8-12.7-12.3-17.1-16.6-2.8,12-5.9,23.9-8.9,35.9,6.1,8.2,13.7,17,22.6,24.7,33.2,28.9,73.3,39.9,74.9,40.1h2.3c1.6-.2,39.7-11.2,72.9-40.1,15.3-13.3,18.3-28.5,24.3-39.6-3.7-9.6-3.9-20.1-5.7-30.1h0Z"/>
            <path class="st2" d="M634.3,703.6c-4.7,5.1-10.7,11.3-18.4,18.8-32.1,31-73.1,40.9-78.3,43-.8-.3-44.9-10.1-79-43-5.6-5.4-10.4-10-14.4-13.9,0,5.9.2,11.7.3,17.6,6.8,8.5,15.1,17.8,24.4,26,31.4,27.3,68.1,33,68.1,33,0,0,37.2-5.7,68.5-33,13.6-11.8,25.3-28,33.1-40.1-1.5-2.8-3-5.5-4.4-8.3h0Z"/>
          </g>
          <g id="dog_tag">
            <g>
              <path d="M522.2,838.2c-2.6,0-4.9-1.6-5.7-4l-13.1-38.1c-.6-1.8-.3-3.8.8-5.3,1.1-1.5,3-2.4,4.9-2.4h3l-1.3-2.7c-.9-1.8-.7-3.9.4-5.6s3-2.7,5.1-2.7h40.4c2.1,0,4,1,5.1,2.7,1.1,1.7,1.2,3.8.4,5.6l-1.3,2.7h3c1.9,0,3.8.9,4.9,2.4s1.4,3.5.8,5.3l-13.1,38.1c-.8,2.4-3.1,4-5.7,4h-28.5Z"/>
              <path d="M550.7,841.1h-28.5c-3.8,0-7.2-2.4-8.4-6l-13.1-38.1c-.9-2.7-.5-5.7,1.2-7.9,1.4-1.9,3.5-3.1,5.8-3.5-.7-2.4-.3-5,1.1-7.2,1.6-2.5,4.4-4,7.5-4h40.4c3,0,5.8,1.5,7.5,4,1.4,2.2,1.8,4.8,1.1,7.2,2.3.4,4.4,1.6,5.8,3.5,1.7,2.3,2.2,5.2,1.2,7.9l-13.1,38.1c-1.2,3.6-4.6,6-8.4,6h0ZM509.1,791.2c-1,0-2,.5-2.6,1.3-.6.8-.7,1.8-.4,2.7l13.1,38.1c.4,1.2,1.6,2.1,3,2.1h28.5c1.4,0,2.6-.8,3-2.1l13.1-38.1c.3-.9.2-1.9-.4-2.7-.6-.8-1.5-1.3-2.6-1.3h-7.5l3.3-6.8c.4-.9.4-2-.2-2.8-.6-.9-1.6-1.4-2.7-1.4h-40.4c-1.1,0-2.1.5-2.7,1.4-.6.9-.6,1.9-.2,2.8l3.3,6.8h-7.5Z"/>
            </g>
            <path class="st0" d="M554,791.3l3.7-7.7c.4-.8-.2-1.7-1.1-1.7h-40.4c-.9,0-1.5.9-1.1,1.7l3.7,7.7c.4.8-.2,1.7-1.1,1.7h-8.6c-.8,0-1.4.8-1.2,1.6l13.1,38.1c.2.5.6.8,1.2.8h28.5c.5,0,1-.3,1.2-.8l13.1-38.1c.3-.8-.3-1.6-1.2-1.6h-8.6c-.9,0-1.5-.9-1.1-1.7h0Z"/>
            <ellipse cx="537.3" cy="794" rx="5" ry="4.8"/>
            <path d="M537.3,794.8c2.6-5.8,3.4-10.5,2.3-16.2l-.4-2.4c-1.3-6.6-2.9-13-6.2-19.1,9.3,2.7,14.2,14.6,14.1,23.6-.2,6-3.9,12.4-9.9,14.2h0Z"/>
          </g>
        </g>
        <g>
          <path class="st0" d="M363,564.6h0c0,0,0,0,0,0Z"/>
          <path class="st0" d="M368.7,504.2c11.6-22.3,7.8-16.7,16-31,8.2-14.3,8.2-15.8,8.2-15.8l-43.7,19.6s-22.3,6.9-22.5,20.5,3.7,16.7,3.7,16.7c0,0,.4-9.8,4.9-14,6.4-6.2,11.4-6.3,11.4-6.3l-5.1,8.8,6.1-.4s-12.5,13.2.6,31.8c12.6,17.9,14.6,29.7,14.8,30.6-.2-1.7-5.7-38.6,5.7-60.4h0Z"/>
          <path class="st0" d="M504.2,655.8s-.2,0-.4,0c.2.2.3.3.3.3v-.3c.1,0,.1,0,.1,0Z"/>
          <path d="M525.8,748.1h29.1c-9.1,1.5-14.5.1-14.5.1v-17.4,27.6s10.3,1.2,20.9-.9c6.4-1.2,10.9-3.6,10.9-3.6,0,0,18,32.2,52.5,25.4,30.4-5.9,29.3-46.6,26.3-59.7s-8.3-24.9-5.6-42.4c1.8-12-7.1-56,15.7-80.6,7.7-8.3,10.6-21,11.6-31.5,1.1,6.7,3.4,14.9,8.1,24.3,12.8,25.3,56.7,29,56.7,29,0,0-4.4-9.1-6.1-31.3s18.7-39.3,25.1-54.2c5-11.7,15.3-35.2,2.7-50.2-12.6-15-70.5-33.4-87.3-47.5-16.8-14.1-31-12.7-49.8-3.5s-26.3,9.1-43.8,7.7c-16.7-1.4-36.1.7-37.7.8h0c0,0-20.3-2.3-37.8-.9-17.4,1.4-25,1.5-43.8-7.7s-32.9-10.6-49.8,3.5c-16.8,14.1-74.7,32.5-87.3,47.5-12.6,15-2.3,38.5,2.7,50.2,6.4,14.8,26.8,31.9,25.1,54.2-1.7,22.3-6.1,31.3-6.1,31.3,0,0,43.8-3.7,56.6-29,4.7-9.4,7.1-17.6,8.1-24.3,1,10.5,3.9,23.2,11.6,31.5,22.8,24.6,13.8,68.5,15.6,80.6,2.7,17.5-2.6,29.3-5.6,42.4-3.1,13.1-4.1,53.8,26.3,59.7,34.5,6.7,52.5-25.4,52.5-25.4,0,0,4.4,2.4,10.9,3.6,10.6,2,20.9.9,20.9.9v-27.7,17.6M348.3,534.1c-13.1-18.6-.6-31.8-.6-31.8l-6.1.4,5.1-8.8s-4.9.2-11.4,6.3c-4.4,4.2-4.9,14-4.9,14,0,0-4-3.2-3.7-16.7s22.5-20.5,22.5-20.5l43.7-19.6s0,1.5-8.2,15.8-4.4,8.7-16,31c-11.4,21.8-6,58.8-5.7,60.4h0c0,0,0,0,0,0-.1-.9-2.2-12.7-14.8-30.6h0ZM540.3,656.9v-25.7,25.7l-7.1,15.8s-14.6-7.9-14.9-13.7c-.3-5.8,6.9,3.3,10.1-3.8,1.7-3.8.9-10.7-15.5-8.3-14.2,2-10.5,7.6-9.2,9.1.3,0,.4,0,.4,0v.3c-.1,0-.3-.1-.4-.3-2.2-.2-12.2-2-8.2-13.6,4.5-12.9,44-11.2,44.7-11.2h0c0,0,40.2-1.7,44.8,11.3,4,11.6-6,13.3-8.2,13.6-.2.2-.3.3-.3.3v-.3c-.1,0,0,0,.3,0,1.2-1.4,5-7-9.2-9.1-16.3-2.3-17.2,4.5-15.5,8.3,3.2,7.2,10.5-2,10.1,3.8-.3,5.8-14.9,13.7-14.9,13.7l-7.1-15.8h0ZM682.7,554.6c-3.7-24.4,3.5-24.7-5-49.6s-14.2-37.1-25.7-46.6c-11.5-9.5-39.2,3.7-39.2,3.7,0,0,23.3,18.8,31.8,32.2,8.5,13.4,12,8.8,10.7,42.1s-2,40-14.2,54.8c-3.2,3.9-5.3,9.4-6.5,15.5-.8,6.2-1.8,15.2-1.9,23.8-1.6-2.1-3.7-4.2-6.1-6.3-2.6-8.6-9.8-28.6-24.3-39.5-18.8-14.2-32.9-13.7-32.9-13.7,0,0,20.7,11.6,31.4,27.6,5.2,7.7,7.6,12.6,8.8,15.7-14.6-4.6-30.8-.8-30.8-.8,0,0,25.3,2.2,36.3,13.5,19.2,19.7,16.6,55.1,16.6,55.4-1,7.7-2.1,14.8-3,19.7-1.6,18.1-11.7,27.2-11.7,27.2,0,0,7.2.2,10.1-2.6,3.3-3.1,7-7.3,7-7.3,0,0,2.1,4.8,3.2,14.2,1.1,9.3-.6,15.8-3.2,21.6-2.6,5.8-28.5,15.1-45.8-2.9-14.6-15.2-31.6-40.8-39.3-54.5-7.7-13.7,16.5-16.5,32.1-28.3s21.2-18.2,10.2-34.5c-11-16.2-51.1-13.2-51.1-13.2h0c-.9-.2-40.2-3-51,13.1-11,16.2-5.4,22.7,10.2,34.5s39.8,14.5,32.1,28.3-24.7,39.3-39.3,54.5c-17.3,18.1-43.1,8.7-45.8,2.9-2.6-5.8-4.3-12.3-3.2-21.6,1.1-9.5,3.2-14.2,3.2-14.2,0,0,3.7,4.2,7,7.3,3,2.8,10.1,2.6,10.1,2.6,0,0-10.1-9.1-11.7-27.2-.8-5-2-12.1-3-19.7,0-.3-2.7-35.7,16.6-55.4,11-11.3,36.3-13.5,36.3-13.5,0,0-16.3-3.9-30.8.8,1.2-3.1,3.7-8,8.8-15.7,10.7-15.9,31.4-27.6,31.4-27.6,0,0-14.1-.5-32.9,13.7-14.5,10.9-21.8,31-24.3,39.5-2.5,2.1-4.5,4.2-6.1,6.3,0-8.6-1-17.6-1.9-23.8-1.3-6-3.3-11.6-6.5-15.5-12.2-14.7-12.9-21.5-14.2-54.8-1.3-33.2,2.2-28.6,10.7-42,8.5-13.4,31.8-32.2,31.8-32.2,0,0-27.7-13.2-39.2-3.7-11.5,9.5-17.2,21.7-25.7,46.6-8.5,24.9-1.3,25.2-5,49.6-6.5,43.4-42.4,55.5-42.4,55.5,0,0,14.3-10.3,23.4-37.4,8.1-24-2.5-43.5,9.5-71.2,12-27.6,11.9-31.7,15.5-42.4,2.9-8.4,16-23.7,33.1-22.3,17.1,1.4,22.2,12.2,52,13.2,28.6,1,49.5.3,51.1.3h0c0,0,21.5.8,51.2-.2,29.8-1,34.9-11.7,52-13.2,17.1-1.4,30.2,13.9,33.1,22.3,3.6,10.6,3.5,14.8,15.5,42.4,12,27.6,1.4,47.2,9.5,71.2,9.2,27.1,23.4,37.4,23.4,37.4,0,0-35.8-12.1-42.3-55.5h0ZM750.3,514.4s-.4-9.8-4.9-14c-6.4-6.2-11.4-6.3-11.4-6.3l5.1,8.8-6.1-.4s12.5,13.2-.6,31.8c-12.6,17.9-14.6,29.7-14.8,30.6h0c0,0,0,0,0,0,.2-1.7,5.7-38.6-5.7-60.4-11.6-22.3-7.8-16.7-16-31-8.2-14.3-8.2-15.8-8.2-15.8l43.7,19.6s22.3,6.9,22.5,20.5-3.7,16.7-3.7,16.7h0Z"/>
          <path class="st0" d="M701.6,572.6c-8.1-24,2.5-43.5-9.5-71.2-12-27.6-11.9-31.7-15.5-42.4-2.9-8.4-16-23.7-33.1-22.3-17.1,1.4-22.2,12.2-52,13.2-29.7,1-51.2.3-51.2.3h0c-1.6,0-22.5.6-51.1-.4-29.8-1-34.9-11.7-52-13.2s-30.2,13.9-33.1,22.3c-3.6,10.6-3.5,14.8-15.5,42.4-12,27.6-1.4,47.2-9.5,71.2-9.2,27.1-23.4,37.4-23.4,37.4,0,0,35.8-12.1,42.4-55.5,3.7-24.4-3.5-24.7,5-49.6,8.5-24.9,14.2-37.1,25.7-46.6,11.5-9.5,39.2,3.7,39.2,3.7,0,0-23.3,18.8-31.8,32.2-8.5,13.4-12,8.8-10.7,42.1s2,40,14.2,54.8c3.2,3.9,5.3,9.4,6.5,15.5.8,6.2,1.8,15.2,1.9,23.8,1.6-2.1,3.6-4.2,6.1-6.3,2.6-8.6,9.8-28.6,24.3-39.5,18.8-14.2,32.9-13.7,32.9-13.7,0,0-20.7,11.6-31.4,27.6-5.2,7.7-7.6,12.6-8.8,15.7,14.6-4.6,30.8-.8,30.8-.8,0,0-25.3,2.2-36.3,13.5-19.2,19.7-16.6,55.1-16.6,55.4,1,7.7,2.1,14.8,3,19.7,1.6,18.1,11.7,27.2,11.7,27.2,0,0-7.2.2-10.1-2.6-3.3-3.1-7-7.3-7-7.3,0,0-2.1,4.8-3.2,14.2-1.1,9.3.6,15.8,3.2,21.6,2.6,5.8,28.5,15.1,45.8-2.9,14.6-15.2,31.6-40.8,39.3-54.5,7.7-13.7-16.5-16.5-32.1-28.3s-21.2-18.2-10.2-34.5c10.9-16,50.2-13.2,51-13.2h0c0,0,40-3,51.1,13.2,11,16.2,5.4,22.7-10.2,34.5s-39.8,14.5-32.1,28.3,24.7,39.3,39.3,54.5c17.3,18.1,43.2,8.7,45.8,2.9,2.6-5.8,4.3-12.3,3.2-21.6-1.1-9.5-3.2-14.2-3.2-14.2,0,0-3.7,4.2-7,7.3-3,2.8-10.1,2.6-10.1,2.6,0,0,10.2-9.1,11.7-27.2.8-5,2-12.1,3-19.7,0-.3,2.7-35.7-16.6-55.4-11-11.3-36.3-13.5-36.3-13.5,0,0,16.3-3.9,30.8.8-1.2-3.1-3.7-8-8.8-15.7-10.7-15.9-31.4-27.6-31.4-27.6,0,0,14.1-.5,32.9,13.7,14.5,10.9,21.8,31,24.3,39.5,2.5,2.1,4.5,4.2,6.1,6.3,0-8.6,1-17.6,1.9-23.8,1.3-6,3.3-11.6,6.5-15.5,12.2-14.7,12.8-21.5,14.2-54.8,1.3-33.2-2.2-28.6-10.7-42-8.5-13.4-31.8-32.2-31.8-32.2,0,0,27.7-13.2,39.2-3.7,11.5,9.5,17.2,21.7,25.7,46.6,8.5,24.9,1.3,25.2,5,49.6,6.5,43.4,42.3,55.5,42.3,55.5,0,0-14.3-10.3-23.4-37.4h0Z"/>
          <path class="st0" d="M717.6,564.7h0c0,0,0,0,0,0Z"/>
          <path class="st0" d="M731.5,477.1l-43.7-19.6s0,1.5,8.2,15.8,4.4,8.7,16,31c11.4,21.8,6,58.8,5.7,60.4.1-.9,2.2-12.7,14.8-30.6,13.1-18.6.6-31.8.6-31.8l6.1.4-5.1-8.8s4.9.2,11.4,6.3c4.4,4.2,4.9,14,4.9,14,0,0,4-3.2,3.7-16.7s-22.5-20.5-22.5-20.5h0Z"/>
          <path class="st0" d="M540.3,656.9l7.1,15.8s14.6-7.9,14.9-13.7c.3-5.8-6.9,3.3-10.1-3.8-1.7-3.8-.9-10.7,15.5-8.3,14.2,2,10.5,7.6,9.2,9.1,2.2-.2,12.2-2,8.2-13.6-4.5-13-44.8-11.3-44.8-11.3h0c-.7,0-40.2-1.7-44.7,11.2-4,11.6,6,13.3,8.2,13.6-1.2-1.4-5-7,9.2-9.1,16.3-2.3,17.2,4.5,15.5,8.3-3.2,7.2-10.5-2-10.1,3.8.3,5.8,14.9,13.7,14.9,13.7l7.1-15.8"/>
          <path class="st0" d="M576.6,656.2s.1-.1.3-.3c-.3,0-.4,0-.4,0v.3c.1,0,.1,0,.1,0Z"/>
          <g>
            <path d="M507.4,693.7l2.2.3h.1l2.2.3c0,0,.2,0,.2,0l3.2-4.9c0,0,0-.2-.1-.2l-1.4-.2c-.2,0-.2-.2-.1-.3l.8-1c0-.1,0-.2-.1-.3l-3.3-.5h-.1s-3.3-.5-3.3-.5c-.1,0-.3,0-.2.2l.5,1.2c0,.1,0,.2-.2.2l-1.4-.2c-.1,0-.2,0-.2.2l1.4,5.5c0,0,0,.1.2.1h0Z"/>
            <path d="M489.3,691.1c0,0,.1.1.2.1l2.3.3h.1l2.3.3c0,0,.2,0,.2,0l2.5-5c0-.1,0-.2-.2-.3l-1.5-.2c-.1,0-.2-.2-.2-.3l.7-1c0-.1,0-.3-.2-.3l-3.4-.5h-.1s-3.4-.5-3.4-.5c-.2,0-.3,0-.2.2l.6,1.2c0,.1,0,.2-.2.2l-1.5-.2c-.1,0-.2,0-.2.2l2.2,5.7h0Z"/>
            <path d="M468.5,681.2l.8,1.3c0,.1,0,.3-.2.2l-1.5-.2c-.1,0-.2,0-.2.2l3.1,5.9c0,0,.1.1.2.1l2.3.3h.1s2.3.3,2.3.3c0,0,.2,0,.2,0l1.7-5.2c0-.1,0-.2-.2-.3l-1.5-.2c-.2,0-.3-.2-.2-.3l.5-1.1c0-.1,0-.3-.2-.3l-3.5-.5h-.1s-3.5-.5-3.5-.5c-.2,0-.2.1-.2.2h0Z"/>
            <path d="M505.3,707.1l2,.2h.1l2,.2c0,0,.1,0,.2,0l2.7-3.8c0,0,0-.2-.1-.2l-1.2-.2c-.1,0-.2-.1-.1-.2l.7-.8c0,0,0-.2-.1-.2l-2.9-.4h-.1l-3-.4c-.1,0-.2,0-.2.2l.4.9c0,0,0,.2-.2.2l-1.3-.2c-.1,0-.2,0-.2.2l1.3,4.3s0,0,.1,0h0Z"/>
            <path d="M495.6,701.5l-1.3-.2c-.1,0-.2-.1-.2-.2l.6-.8c0,0,0-.2-.2-.2l-3-.4h-.1l-3-.4c-.1,0-.2,0-.2.2l.6,1c0,0,0,.2-.2.2l-1.3-.2c-.1,0-.2,0-.2.2l2,4.4s0,0,.2.1l2,.2h.1l2,.3c0,0,.1,0,.2,0l2.1-3.9c0,0,0-.2-.2-.2h0Z"/>
            <path d="M472.9,703.1l2.1.2h.1l2,.3c0,0,.1,0,.2,0l1.5-4c0,0,0-.2-.2-.2l-1.3-.2c-.1,0-.2-.1-.2-.2l.5-.8c0,0,0-.2-.2-.2l-3.1-.4h-.1l-3.1-.4c-.1,0-.2,0-.1.2l.7,1c0,0,0,.2-.1.2l-1.3-.2c-.1,0-.2,0-.1.2l2.7,4.6c0,0,.1,0,.2.1h0Z"/>
            <path d="M503.6,717.7l1.8.2h0l1.8.2c0,0,.1,0,.2,0l2.4-3c0,0,0-.1-.1-.2h-1.1c-.1-.1-.2-.2-.1-.3l.6-.6c0,0,0-.2-.1-.2l-2.6-.3h0l-2.6-.3c-.1,0-.2,0-.2.1l.4.8c0,0,0,.2-.2.1h-1.1c-.1-.1-.2,0-.2,0l1.2,3.5s0,0,.1,0h0Z"/>
            <path d="M494.9,713.2h-1.1c-.1-.1-.2-.2-.1-.3l.5-.6c0,0,0-.2-.1-.2l-2.7-.3h0l-2.7-.3c-.1,0-.2,0-.1.1l.5.8c0,0,0,.2-.1.1h-1.2c-.1-.1-.2,0-.1,0l1.8,3.6s0,0,.1,0l1.8.2h0l1.8.2c0,0,.1,0,.1,0l1.9-3.1c0,0,0-.2-.1-.2h0Z"/>
            <path d="M479.7,711.4h-1.2c-.1-.2-.2-.2-.2-.3l.4-.7c0,0,0-.2-.2-.2l-2.8-.3h-.1l-2.8-.3c-.1,0-.2,0-.1.1l.6.8c0,0,0,.2-.1.1h-1.2c-.1-.2-.2,0-.1,0l2.3,3.7s0,0,.2,0l1.8.2h0l1.8.2c0,0,.1,0,.1,0l1.4-3.2c0,0,0-.2-.2-.2h0Z"/>
          </g>
          <g>
            <path d="M568.7,694.3l2.2-.3h.1l2.2-.3c0,0,.2,0,.2-.1l1.4-5.5c0-.1,0-.2-.2-.2l-1.4.2c-.2,0-.3,0-.2-.2l.5-1.2c0-.1,0-.2-.2-.2l-3.3.5h-.1s-3.3.5-3.3.5c-.2,0-.2.2-.1.3l.8,1c0,0,0,.2-.1.3l-1.4.2c-.1,0-.2.1-.1.2l3.2,4.9c0,0,.1,0,.2,0h0Z"/>
            <path d="M593.4,685.3l-1.5.2c-.2,0-.2,0-.2-.2l.6-1.2c0-.1,0-.2-.2-.2l-3.4.5h-.1s-3.4.5-3.4.5c-.2,0-.2.2-.2.3l.7,1c0,.1,0,.2-.2.3l-1.5.2c-.1,0-.2.2-.2.3l2.5,5c0,0,.1,0,.2,0l2.3-.3h.1l2.3-.3c0,0,.2,0,.2-.1l2.2-5.7c0-.1,0-.2-.2-.2h0Z"/>
            <path d="M608.5,681.6h-.1s-3.5.5-3.5.5c-.2,0-.3.2-.2.3l.5,1.1c0,.1,0,.3-.2.3l-1.5.2c-.2,0-.3.2-.2.3l1.7,5.2c0,0,0,0,.2,0l2.3-.3h.1s2.3-.3,2.3-.3c0,0,.2,0,.2-.1l3.1-5.9c0-.1,0-.2-.2-.2l-1.5.2c-.2,0-.2,0-.2-.2l.8-1.3c0-.1,0-.3-.2-.2l-3.5.5h0Z"/>
            <path d="M571.3,707.6l2-.2h0l2-.2c0,0,.1,0,.2,0l1.3-4.3c0,0,0-.2-.2-.2l-1.3.2c-.1,0-.2,0-.2-.2l.4-.9c0,0,0-.2-.2-.2l-3,.4h0l-2.9.4c-.1,0-.2.1-.1.2l.7.8c0,0,0,.2-.1.2l-1.2.2c-.1,0-.2.1-.1.2l2.7,3.8s.1,0,.2,0h0Z"/>
            <path d="M593.2,700.5l-1.3.2c-.1,0-.2,0-.2-.2l.6-1c0,0,0-.2-.2-.2l-3,.4h0l-3,.4c-.1,0-.2.1-.2.2l.6.8c0,0,0,.2-.2.2l-1.3.2c-.1,0-.2.1-.2.2l2.1,3.9s0,0,.2,0l2-.2h0l2-.3c0,0,.1,0,.2-.1l2-4.4c0,0,0-.2-.2-.2h0Z"/>
            <path d="M610.4,698.3l-1.3.2c-.1,0-.2,0-.1-.2l.7-1c0,0,0-.2-.1-.2l-3.1.4h-.1l-3.1.4c-.1,0-.2.1-.2.2l.5.8c0,0,0,.2-.2.2l-1.3.2c-.1,0-.2.1-.2.2l1.5,4s0,0,.2,0l2-.2h0l2.1-.3c0,0,.2,0,.2-.1l2.7-4.6c0,0,0-.2-.2-.2h0Z"/>
            <path d="M578.2,714.2h-1.1c-.1.1-.2,0-.2,0l.4-.8c0,0,0-.2-.2-.1l-2.6.3h0l-2.6.3c-.1,0-.2,0-.1.2l.6.6c0,0,0,.2-.1.2h-1.1c-.1.1-.2.2-.1.3l2.3,3s0,0,.2,0l1.8-.2h0l1.8-.2c0,0,.1,0,.1,0l1.2-3.5c0,0,0-.1-.2-.1h0Z"/>
            <path d="M593,712.4h-1.2c-.1.1-.2,0-.2,0l.5-.8c0,0,0-.2-.2-.1l-2.7.3h0l-2.7.3c-.1,0-.2.1-.1.2l.5.6c0,0,0,.2-.1.2h-1.2c-.1.1-.2.2-.2.3l1.9,3.1s0,0,.2,0l1.8-.2h0l1.8-.2c0,0,.1,0,.2,0l1.8-3.6c0,0,0-.1-.2-.1h0Z"/>
            <path d="M608.4,710.6h-1.2c-.1.2-.2,0-.1,0l.6-.8c0,0,0-.2-.1-.1l-2.8.3h0l-2.8.3c-.1,0-.2.1-.2.2l.4.7c0,0,0,.2-.2.2h-1.2c-.1.2-.2.2-.2.3l1.4,3.2s0,0,.2,0l1.8-.2h0l1.8-.2c0,0,.1,0,.2,0l2.3-3.7c0,0,0-.1-.1-.1h0Z"/>
          </g>
          <path class="st0" d="M540.3,703.6s-9.2,20.4-13.4,26.5c-5.4,7.8-4.2,17.2,4.6,21.7h0c5.3,2.7,12,2.7,17.3,0h0c8.8-4.5,10-13.9,4.6-21.7-4.2-6.1-13.1-26.5-13.1-26.5Z"/>
        </g>
        <g>
          <path d="M542.2,457.9v.6c-.8,3.5-4.5,20.6-4.5,43.7s3.9,44.6,4.6,47.7v.5s4.7-22.3,4.7-48.1-4.7-44.4-4.7-44.4h0Z"/>
          <path d="M591.9,516.8c16.2-6.4,14.7-18.8,14.7-18.8,0,0-10.3,9.1-14.7,10.9-8,3.2-16.8,2.4-16.8,2.4,0,0,7.8,9.1,16.8,5.6h0Z"/>
          <path class="st2" d="M611.3,527.9c-.7.8-1.4,1.7-2.1,2.5,2,2,3.3,4.6,3.6,7.5.7,6.5-3.6,12.4-9.8,13.8,1.3.3,2.6.3,4,.2,7-.8,12-7.1,11.2-14.1-.5-4.5-3.2-8.1-7-10h0Z"/>
          <path class="st1" d="M603.9,541.1c-.1-1.2-.9-2.3-2-2.8-1.5,1.3-3.1,2.5-4.9,3.6.2,1.9,1.9,3.2,3.8,3,1.9-.2,3.3-1.9,3-3.8Z"/>
          <path d="M577.5,534c-16.8-.8-13.9-18.3-13.9-18.3,0,0-14.2,29.6,16,30.4.4,0,.8,0,1.1,0,4.4,6.7,19,25,39.5,8.5,16.3-13.2-2.1-33.3-2.1-33.3h-.2c1.7-1.3,3.5-2.5,5.5-3.5,9.6-4.7,24-2.9,24-2.9,0,0-17.2-19.5-39.2,1.4-13.5,12.8-22.8,18.2-30.6,17.8h0ZM600.8,544.9c-1.9.2-3.6-1.1-3.8-3,1.8-1.1,3.4-2.3,4.9-3.6,1.1.5,1.9,1.5,2,2.8.2,1.9-1.2,3.6-3,3.8ZM618.3,537.9c.8,7-4.3,13.3-11.2,14.1-1.4.2-2.7,0-4-.2,6.2-1.4,10.5-7.3,9.8-13.8-.3-3-1.7-5.6-3.6-7.5.7-.8,1.4-1.7,2.1-2.5,3.8,1.9,6.5,5.5,7,10h0Z"/>
          <g>
            <path d="M492.6,516.7c9,3.6,16.8-5.6,16.8-5.6,0,0-8.8.8-16.8-2.4-4.4-1.8-14.7-10.9-14.7-10.9,0,0-1.4,12.4,14.7,18.8Z"/>
            <path class="st2" d="M471.7,537.8c.3-3,1.7-5.6,3.6-7.5-.7-.8-1.4-1.7-2.1-2.5-3.8,1.9-6.5,5.5-7,10-.8,7,4.3,13.3,11.2,14.1,1.4.2,2.7,0,4-.2-6.2-1.4-10.5-7.3-9.8-13.8h0Z"/>
            <path class="st1" d="M483.7,544.8c1.9.2,3.6-1.1,3.8-3-1.8-1.1-3.4-2.3-4.9-3.6-1.1.5-1.9,1.5-2,2.8-.2,1.9,1.2,3.6,3,3.8Z"/>
            <path d="M466.7,521.1h-.2c0,0-18.5,20.1-2.1,33.2,20.5,16.5,35.1-1.8,39.5-8.5h1.1c30.2-.8,15.9-30.4,15.9-30.4,0,0,2.9,17.5-13.9,18.3-7.8.4-17.1-5-30.6-17.8-22.1-21-39.2-1.4-39.2-1.4,0,0,14.3-1.8,24,2.9,2.1,1,3.9,2.2,5.5,3.6h0ZM480.7,541c.1-1.2.9-2.3,2-2.8,1.5,1.3,3.1,2.5,4.9,3.6-.2,1.9-1.9,3.2-3.8,3-1.9-.2-3.3-1.9-3-3.8ZM477.5,551.8c-7-.8-12-7.1-11.2-14.1.5-4.5,3.2-8.1,7-10,.7.8,1.4,1.7,2.1,2.5-2,2-3.3,4.6-3.6,7.5-.7,6.5,3.6,12.4,9.8,13.8-1.3.3-2.6.3-4,.2h0Z"/>
          </g>
        </g>
      </g>
      <g>
        <path class="st2" d="M379,260.2v47.3c0,6.5-3.2,13.2-8.5,17.9-7.1,6.3-14.2,12.6-21.2,19-2.6,2.4-5.8,4.1-9,4.8-4.5,1-6.7,1.5-11.2,2.5v56.2c-9.6,2.3-19.1,4.6-28.7,7.1v-136.2c-3.4.9-5,1.3-8.4,2.3,2.4-9,4.7-18,7.1-27,18.6-4.8,37.3-9.2,56.1-13.1,11.9-2,24.5,6.3,23.8,19.4h0ZM350,271c0-2.2-1.8-3.6-4-3.1-6.8,1.4-10.2,2.2-17,3.8v54.9c2.8-.6,4.2-1,7.1-1.6.8-.2,1.6-.6,2.2-1.2,4-3.7,6-5.5,10-9.1,1.1-1,1.7-2.3,1.7-3.6v-40h0Z"/>
        <path class="st2" d="M481.2,224.2v161.3c-9.8.7-19.5,1.5-29.3,2.3v-56.2c-8.5.8-12.8,1.3-21.2,2.3v56.2c-9.7,1.2-19.4,2.5-29.1,3.9v-136.2c-3.4.5-5.1.8-8.6,1.3,2.4-8.7,4.8-17.5,7.2-26.2,10.1-1.5,20.3-2.8,30.5-4.1v80c8.5-1,12.7-1.5,21.2-2.3v-80c9.8-.9,19.5-1.6,29.3-2.3h0Z"/>
        <path class="st2" d="M533.3,222.3v161.3c-9.8.1-19.5.4-29.3.7v-136.2c-3.5.1-5.2.2-8.6.4,2.4-8.5,4.9-16.9,7.3-25.4,10.2-.4,20.4-.6,30.7-.8h0Z"/>
        <path class="st2" d="M619.9,361.8v25.1c-21.3-1.7-42.5-2.7-63.9-3.1v-136.2c-3.5,0-5.2,0-8.6,0,2.4-8.3,4.8-16.7,7.3-25,.5,0,.8,0,1.4,0h0c9.8.2,19.5.5,29.3.9v136.2c11.5.5,23,1.3,34.6,2.2Z"/>
        <path class="st2" d="M706.1,373v25.1c-21.1-3.6-42.2-6.6-63.5-9v-136.2c-3.4-.4-5.2-.6-8.6-.9,2.4-8.1,4.8-16.2,7.3-24.4.5,0,.8,0,1.3.1h0c9.7,1.1,19.4,2.3,29.2,3.6v136.2c11.5,1.6,22.9,3.4,34.3,5.4h0Z"/>
        <path class="st2" d="M791,255.8v69.4c.9,13.1-12,20.3-23.5,17.8-.5-.1-.7-.2-1.2-.3v68.1c-9.6-2.3-19.2-4.5-28.8-6.6v-68.1c-.5-.1-.7-.2-1.2-.3-13.3-2.4-23.1-15.6-23.7-28.5v-44.3c-3.4-.6-5.1-.9-8.5-1.5,2.9-9.5,4.3-14.3,7.2-23.8,10.1,1.9,20.2,3.9,30.2,6v64.1c0,2.2,1.8,4.4,3.9,4.8,5.2,1.1,7.8,1.8,13,3,2.2.5,3.9-.9,3.9-3v-64.1c9.6,2.4,19.1,4.8,28.6,7.4h0Z"/>
      </g>
    </g>
    <g>
      <path d="M526.2,808.3l2.8,18.6c.2,1.5-.4,2.6-1.3,2.6h-3.9l-6.2-21.8h-.9l-.8-5.5h6.6c1.5,0,3.2,2.9,3.7,6.1h0ZM523.6,808.6c0-.5-.4-.9-.6-.9h-2.7l4.7,19.5h1.8c.2,0,.3-.2.2-.5l-3.5-18.1h0Z"/>
      <path d="M530,802.2h3.7c1.5,0,2.8,2.9,2.7,6.1l-.3,18.6c0,1.5-.8,2.6-1.7,2.6h-2.2c-.9,0-1.8-1.1-2-2.6l-2.2-18.6c-.4-3.2.5-6.1,2-6.1h0ZM534.2,826.7l-.5-18.2c0-.5-.2-.9-.5-.9h-2.3c-.2,0-.4.4-.4.9l1.4,18.1c0,.2.2.5.3.5h1.6c.2,0,.3-.2.3-.5h0Z"/>
      <path d="M542.8,814.5l.8-5.9c0-.5,0-.9-.3-.9h-2.3c-.2,0-.5.4-.5.9l-1.5,18.2c0,.2,0,.5.3.5h1.6c.2,0,.3-.2.4-.5l.8-5.9h-1.7l.3-3.3h4l-1.7,9.4c-.3,1.5-1.2,2.6-2.1,2.6h-2.2c-.9,0-1.6-1.1-1.6-2.6l.8-18.6c.1-3.2,1.5-6.2,3-6.2h3.7c1.5,0,2.3,2.9,1.7,6.1l-1.1,6.2h-2.4Z"/>
      <path d="M551.9,802.1h3.7c1.6,0,1.8,2.9.7,6.2l-1.5,4.5h-2.5l1.2-4.2c.2-.5,0-.9-.2-.9h-2.3c-.2,0-.5.4-.7.9l-1.5,5.9c0,.2,0,.5,0,.6l2.4,5c.3.7.3,1.8,0,2.8l-1.4,4c-.5,1.5-1.6,2.6-2.5,2.6h-2.2c-.9,0-1.5-1.1-1.2-2.6l.5-2.5h2l-.6,2.3c0,.2,0,.5.2.5h1.6c.2,0,.4-.2.4-.5l1-3.5c0-.2,0-.3,0-.4l-2.5-4.4c-.4-.7-.5-2-.2-3.4l1.3-6.7c.7-3.3,2.5-6.2,4-6.2h0Z"/>
    </g>
  </g>
</svg>