<?xml version="1.0" encoding="UTF-8"?>
<svg id="Layer_1" data-name="Layer 1" xmlns="http://www.w3.org/2000/svg" version="1.1" viewBox="0 0 1080 1080">
  <defs>
    <style>
      .cls-1 {
        fill: #010101;
      }

      .cls-1, .cls-2, .cls-3, .cls-4 {
        stroke-width: 0px;
      }

      .cls-2 {
        fill: #68489d;
      }

      .cls-3 {
        fill: #98a3ac;
      }

      .cls-4 {
        fill: #fff;
      }
    </style>
  </defs>
  <path class="cls-4" d="M865.4,668.1l-40.1-42.7c-4.6-4.9-13.6-19.4-19.5-42.8l4.3-17.4c.4-1.8,4.4-18,5.5-38.8,1.1-21-.9-39.2-6-54.4,1.2-.1,2.3-.3,3.4-.6l34.9-8.3-31.5-17.2c-1.6-.9-38.3-21.7-24.7-79.9l.2-.8v-.4c.1-.4,5.5-38.1,4.2-84.3-1.7-63.2-14.4-111.8-37.6-144.4l-6.4-9-10.2,4.3c-1.7.7-39,16.8-75.1,59.3l-57.9,17.1c-2.6.8-22.4,7-41.7,23.5-3.3-9.8-5.9-16.5-7.6-20l-11.9-23.8-12.6,23.4c-.2.4-3.5,6.6-7.5,14.9-7.4-9.6-18-19.4-33.1-26.3l-28.2-13,4,12.6c-6.2-4.7-13.3-9.3-21-13.3l-29.9-15.5,6.9,21.1c-15.2-15.6-37.1-35-68.9-58l-7.3-5.3-7.8,4.6c-1.3.8-13.3,8.3-25.2,27.2-10.5,16.6-23.3,46.3-25,93.4v.8c0,1.1.5,27.3-1.6,56.2-3.7,50.9-12,65.9-15.3,70l-16.8,20.3,17,1.4c-10.7,17.5-23.4,41-27.4,59.2l-7.2,32.5,25.1-16.1c0,.1-.3.6-.3.6-.7,1.3-16.6,32.9-15.4,76.3,0,2.3-1.2,27.9-13.3,45.9l-14.1,21.1,26.1.4c4.9,0,18.7-.3,32.2-3.6-.6,18.9-2.8,48-10.4,71.4l-14.8,45.2,36.7-30.4c6.8-5.6,16.2-12.2,23.4-16.1,6.1,15.6,16.4,44.4,19,68.6l3,28,20.2-19.6c.5-.5,2.7-2.6,5.6-6,2.1,10,3.7,21.9,3.1,33.5-2.9,19-3.7,31.4-2.4,36.9l2.5,10.3-25.9,36.3,49.9-25.3c2.1-1,16.1-8.2,28.9-15.5,1.8,15.4,2.6,27.2,2,31.1l6.6,43.4,20.4-38.4c.4-.9,3-7.1,14.3-17.7,0,0,.1,0,.2-.1,4.8,15.1,7.2,25.5,7,28.4l-2.9,38.8,26.7-28.3c1-1.1,4.4-4.7,8.4-9.2,6.6,15.6,16.3,35.9,28.1,52.9l11.3,16.4,11.3-16.4c2.9-4.3,25.2-36.7,37.5-64,4.8,6,7.2,9.6,7.8,10.9l21.4,54.7,5.1-58.5c0-.2,1.2-13.3,3.9-24.8,2.9,5.8,4.7,11.1,5.1,15.4l6.5,68.5,20.4-65.7c.4-1.2,7-23,9.1-48.8.5.9,1,1.8,1.5,2.8l32.3,60.8-6.5-68.5c0-.2-1.6-17.5,0-35.6,15.6,19.1,23.8,30.7,25.2,34.1l3.3,8.3,26.7,30.9-4.5-36.6,1.2-2.7,2-.7-.7-2.2,21.5-48c1-2.3,7.9-18.7,7.8-46.2v.4c.1,0,24.3,42,24.3,42,0,0-1.7-45.1-3.1-59.9-.9-9.3-4.9-33.5-4.5-45.6v-.7c0-1.9-.2-8.1-1-16,5,2.5,10,4.7,15.1,6.6l54.9,20.3ZM737.2,751.6c4.8,5.4,7.6,9.3,8.4,11.1l1.7,42.3c-2.6-9-9-32.9-10.1-53.5Z"/>
  <path class="cls-1" d="M831.8,645.8l-13.2-14.1c-7-7.5-19.7-29.1-25-63.3l2.8,13.9,4.8-19.4c.7-2.8,15.2-62.4-6-101,3.2.6,6.6,1,9.8,1s4.2-.2,5.9-.6l11.5-2.7-10.4-5.7c-1.8-1-44.5-25.1-29.2-90.1v-.2s0-.2,0-.2c0-.4,5.3-37.3,4.1-82.7-1.7-61.4-13.7-108.2-35.9-139.3l-2.1-3-3.3,1.4c-2,.8-41.6,18-78,64.6l-9.9,1.2c-.8,0-18.7,2.5-40.2,23.3l-.2.2c0,0-4.2,4.7-13.1,11.9,1.9-5.4,5.3-11.8,11.5-16.6l19.5-14.9-23.5,6.9c-1.2.4-27.9,8.5-48.5,31.6-3.2-10.1-8.8-26.9-11.7-32.9l-3.9-7.8-4.1,7.7c-.4.8-8.4,15.8-14.1,30.4-5.5-11.4-16.8-27.9-38.4-37.8l-9.3-4.3,3.1,9.8c1,3.1,2.7,9.3,4.1,15.5-8.9-10.3-23.5-24.5-43.6-34.9l-9.8-5.1,3.4,10.5c1.7,5.1,4.6,16.9,4.3,26.6-9.6-14.6-33.6-43.5-91-85.2l-2.4-1.8-2.6,1.5c-.5.3-11.2,6.8-22.1,24.2-9.9,15.7-22,43.8-23.5,88.8v.3c0,.3.6,27.2-1.6,57.1-2.8,38.8-8.9,64.8-17.4,75.2l-5.5,6.7,8.6.7c0,0,2.1.2,4.9.2s.8,0,1.2,0c-9.9,15.1-29.6,47.1-34.6,69.4l-2.4,10.7,9.2-5.9c0,0,8.6-5.4,19.1-7-1,4-3.4,10.9-9.3,21.6-.6,1.2-15.6,30.9-14.4,72,0,.3-.6,29.8-14.9,51.1l-4.6,6.9h9c4.9.1,26.9-.3,41.6-7.2,0,16.6-1,56.3-11.1,87.2l-4.9,14.9,12.1-10c8.9-7.3,25-18.6,34.3-21.1,4.6,11,19.8,48.6,23.2,79.8l1,9.2,6.7-6.4c.5-.5,9.4-9.2,15.8-20.8,4,12.4,9.7,34.3,8.5,55.9-1,6.7-4.1,27.7-2.6,33.8l3.5,14.4-6.6,9.2,16.4-8.3c1.3-.6,26.7-13.5,40.5-22.5,2.1,15,3,15.9,3.5,30.6.2,4.3.3,17.2.3,17.2l.2,24,8.7-22.6c7.2-14.1,1.7-8,17-22.3.3-.2,5.2-4.5,10.4-10.1,5.9,16.7,12.7,38.7,12.1,45.9l-1,12.8,8.8-9.3c1.5-1.6,11.4-12.1,17.9-20.5,5.4,14,17.3,42.9,32.9,65.3l3.7,5.4,3.7-5.4c1.5-2.2,33.7-48.9,42.1-76.7,8.1,9.3,17.6,21,19.3,25.4l7,18,1.7-19.3c0-.2,1.9-20.8,6.3-34.2.3-1.1,2-6.9,3.4-12.3,6.5,8.7,16.4,23.9,17.6,37.1l2.1,22.6,6.7-21.6c.6-1.8,12.1-39.4,8.7-73.5,5.6,5.7,12.7,14.4,18.9,25.9l10.6,20-2.1-22.6c0-.2-1.7-18.6,0-37.7v-.2s0-.2,0-.2c0-.7.1-12.8-.3-24.2,15.8,18.6,39.9,47.9,43.2,56.5l14.7,23.6c-.1-.3-16.6-60.1-17.9-87.4,0-3-.3-13.4-.7-22.2,14.3,13,27.4,27.6,27.7,33.1l.8,19.3,7.9-17.6c.5-1.2,11.8-27,4.6-69.8,7.5,5.2,15.3,11.8,17.2,16.5l12.3,32c0-.3-5.5-54-10.4-84.5v-.2c0-2.6-.5-19.6-3.8-34,7.5,5.1,17.9,11.2,30.3,15.8l18.1,6.7ZM377.2,841.9l4.9-13.5c2.4-6.7,6.9-16.4,11.8-23.7-2.2,9.7-6.2,22.5-12.9,31.8l-3.8,5.4Z"/>
  <path class="cls-4" d="M782.7,657.4s-.8-34.5-8.6-47.1c0,0,16.7,15.5,41.3,24.6,0,0-25.5-26.9-28.6-88.4,0,0,8.5,7.5,10.1,15.5,0,0,17.9-71.5-12.1-107.3,0,0,16.1,5.6,25.2,3.4,0,0-47.8-25.7-31.5-95.1,0,0,21-145.6-31-218.7,0,0-57.4,24.3-97.3,94.7,0,0-5-14.9,8.1-28.6,0,0-17,2.1-37.5,22.1,0,0-7.2,8-23.2,19.7,0,0,.3-19.4,15.5-31,0,0-31.3,9.2-51.6,36.7,0,0-9.8-31.9-14-40.2,0,0-13.4,25-17.9,41.7,0,0-7.5-31.9-40.5-47.1,0,0,7.2,22.6,6,32.5,0,0-18.2-29.1-51.9-46.5,0,0,9,27.6,1.7,40.3,0,0-11.5-33-95.3-93.8,0,0-40.5,24.1-43.5,109.2,0,0,2.4,108.1-20.1,135.3,0,0,9.8.8,15.2-1.2,0,0-33.2,47.3-39.6,76.3,0,0,12.3-8,26.7-8.2,0,0,1.4,7.2-10.4,28.7,0,0-15.1,29.3-13.9,70,0,0-.4,30.8-15.7,53.5,0,0,33.4.5,46.5-10.8,0,0,2.3,55.4-11.2,96.6,0,0,26.7-22.2,40-22.6,0,0,20.8,46.4,24.9,84.3,0,0,14.4-13.9,19.4-29.7,0,0,14.6,34.3,12.6,68.5,0,0-4.1,26.5-2.7,32.2,0,0,10.7-29.5,23.1-35.6,0,0-3.2,29.7-16.2,48,0,0,36.6-18.5,45.9-26.5,0,0,6.8,44.4,4.9,56.4,0,0,1.2-8.8,18.5-25,0,0,8.6-7.4,15-15.5,0,0,16,42.8,15,55,0,0,19.2-20.4,22.4-27.3,0,0,14.6,42.6,35.4,72.6,0,0,41.5-60,43.2-83.9,0,0,22.9,25,26.2,33.5,0,0,1.9-21.1,6.5-35.1,0,0,5-17.4,5.6-21.1,0,0,22.3,25.2,24.3,46.7,0,0,14.9-48.1,6.6-84.1,0,0,16.7,11.9,29.4,35.7,0,0-1.8-18.7,0-38.5,0,0,.3-25.8-1.3-37.5,0,0,47.6,54.7,52.9,68.1,0,0-10.6-33.7-11.9-62.1,0,0-.5-27.9-1.8-33.2,0,0,37.2,31.2,37.7,43.8,0,0,13.2-29.4,2.3-77.5,0,0,23.6,13.7,27.9,24.3,0,0-7.3-34.5-6.8-50.9Z"/>
  <g>
    <path class="cls-2" d="M327.3,561.8s-16.3,26.4-16.3,60.9c0,0-.7,17.4-3.4,30.7,0,0,30.7-18.6,23.5-61.9,0,0-4.8-22.5-3.8-29.7Z"/>
    <path class="cls-2" d="M473,440.8s-14.6-22.3-67.9-31c0,0,5.2,8,12,24.2,0,0,7.6,21.5,33.5,13.4,0,0,17.3-5.9,22.4-6.6Z"/>
    <path class="cls-3" d="M575.5,440.7s-17.2,20.5,5.3,82.6c0,0,12.9,39.3,10.9,52.8,0,0-57.6-22.2-113.3,4,0,0-6.6-25.7,19.2-93.6,0,0,13.3-35.1,1.7-46.5,0,0-38.1-42.1-114.7-45.5,0,0,8.3,11.2,11.8,27.8,0,0,8,30.1,26.1,39.8,0,0,16.3,10.2,37.9-2.6,0,0,37-18.1,38.7-3.3,0,0-.7,16.2-12.3,50.1,0,0-24.7,61-14.9,101.8,0,0,11.4-13.3,34.3-14.9,0,0,14.7-.6,13.5,9,0,0-.2,3.7-5.4,11.4,0,0-10.1,8.6,17.4,26.9,0,0,7-9.1,9.7-14.5,0,0,5.9,9.9,9.1,14.5,0,0,26.8-14.9,16.5-27.7,0,0-10.6-14,11.8-19,0,0,13.2-2.5,26.8,6.7,0,0-6.5-41.1-22.9-86.5,0,0-12.2-35-6.6-47.7,0,0,5.7-16.2,39.7-4.5,0,0,23.5,11.2,40.9-17.9,0,0,14.9-23.6,35.5-41.5,0,0-69.4-19.7-116.6,38.3ZM464.4,452.7c-19,11.8-38.5,3.4-38.5,3.4-14.5-6.7-23.9-35.1-23.9-35.1-3-9-7.9-19.3-7.9-19.3,55.7-.9,99.1,42.2,99.1,42.2-16.2,1.5-28.9,8.8-28.9,8.8ZM653.8,441.3s-13.9,22.4-44.3,14.9c0,0-22.9-6-31.3-1.7,0,0,23.7-60.1,103.6-47.5,0,0-4.4-1-28,34.3Z"/>
    <path class="cls-2" d="M663.9,414s-47.6-2.5-76.9,34.1c0,0,7.1-1.7,25.7,0,0,0,26.7,6.3,38.4-16.6,0,0,8.4-14.2,12.8-17.5Z"/>
    <path class="cls-3" d="M536.8,480.5s17.6,32.3,24.7,64.7c0,0-28-9.3-51.8,0,0,0,9.4-39.3,27.2-64.7Z"/>
    <circle class="cls-2" cx="374" cy="390.3" r="3.2"/>
    <circle class="cls-2" cx="536.8" cy="471.4" r="3.4"/>
    <circle class="cls-2" cx="701.4" cy="401.7" r="3.5"/>
    <path class="cls-1" d="M782.7,657.4s-.8-34.5-8.6-47.1c0,0,16.7,15.5,41.3,24.6,0,0-25.5-26.9-28.6-88.4,0,0,8.5,7.5,10.1,15.5,0,0,17.9-71.5-12.1-107.3,0,0,16.1,5.6,25.2,3.4,0,0-47.8-25.7-31.5-95.1,0,0,21-145.6-31-218.7,0,0-57.4,24.3-97.3,94.7,0,0-5-14.9,8.1-28.6,0,0-17,2.1-37.5,22.1,0,0-7.2,8-23.2,19.7,0,0,.3-19.4,15.5-31,0,0-31.3,9.2-51.6,36.7,0,0-9.8-31.9-14-40.2,0,0-13.4,25-17.9,41.7,0,0-7.5-31.9-40.5-47.1,0,0,7.2,22.6,6,32.5,0,0-18.2-29.1-51.9-46.5,0,0,9,27.6,1.7,40.3,0,0-11.5-33-95.3-93.8,0,0-40.5,24.1-43.5,109.2,0,0,2.4,108.1-20.1,135.3,0,0,9.8.8,15.2-1.2,0,0-33.2,47.3-39.6,76.3,0,0,12.3-8,26.7-8.2,0,0,1.4,7.2-10.4,28.7,0,0-15.1,29.3-13.9,70,0,0-.4,30.8-15.7,53.5,0,0,33.4.5,46.5-10.8,0,0,2.3,55.4-11.2,96.6,0,0,26.7-22.2,40-22.6,0,0,20.8,46.4,24.9,84.3,0,0,14.4-13.9,19.4-29.7,0,0,14.6,34.3,12.6,68.5,0,0-4.1,26.5-2.7,32.2,0,0,10.7-29.5,23.1-35.6,0,0-3.2,29.7-16.2,48,0,0,36.6-18.5,45.9-26.5,0,0,6.8,44.4,4.9,56.4,0,0,1.2-8.8,18.5-25,0,0,8.6-7.4,15-15.5,0,0,16,42.8,15,55,0,0,19.2-20.4,22.4-27.3,0,0,14.6,42.6,35.4,72.6,0,0,41.5-60,43.2-83.9,0,0,22.9,25,26.2,33.5,0,0,1.9-21.1,6.5-35.1,0,0,5-17.4,5.6-21.1,0,0,22.3,25.2,24.3,46.7,0,0,14.9-48.1,6.6-84.1,0,0,16.7,11.9,29.4,35.7,0,0-1.8-18.7,0-38.5,0,0,.3-25.8-1.3-37.5,0,0,47.6,54.7,52.9,68.1,0,0-10.6-33.7-11.9-62.1,0,0-.5-27.9-1.8-33.2,0,0,37.2,31.2,37.7,43.8,0,0,13.2-29.4,2.3-77.5,0,0,23.6,13.7,27.9,24.3,0,0-7.3-34.5-6.8-50.9ZM798,620.5c-58.6-34.8-51.8-90.9-51.8-90.9,2,3.4,6.6,3.8,6.6,3.8-3.4-17-1.2-32.4-1.2-32.4,28.1,14.8,31.8,58.9,31.8,58.9.3,32.1,14.6,60.6,14.6,60.6ZM544.2,722.1c-47.7-8.7-67.8-46.1-67.8-46.1-29.1-44.9-26.4-110-26.4-110,.6-41.8-32.6-74.6-32.6-74.6-74.6-90.4-48.7-118.3-48.7-118.3,59,4.8,122.7,47.6,122.7,47.6,30.8,21.1,21.8,47.2,21.8,47.2-23.6,73.2-24.3,96.8-24.3,96.8,49.8-22,90.5-1.9,90.5-1.9-5.3-29.5-17.6-76.8-17.6-76.8-14.4-46.5,26.8-69.1,26.8-69.1,79.3-47,117-38.7,117-38.7,12.5,29.9-11.1,52.8-11.1,52.8-84.5,110.1-73.9,177.2-73.9,177.2,2.1,42.4-10.6,66.7-10.6,66.7-26.6,53.3-65.8,47.3-65.8,47.3ZM580.3,756.3c-19-11.6-15.1-30.8-15.1-30.8,5.7-.3,12.3-4.5,12.3-4.5,12.6,13.5,2.8,35.2,2.8,35.2ZM557.3,734.5c.2,15.9-11.3,32.7-11.3,32.7-16.7-20.7-11.7-36.5-11.7-36.5,1.7-4.6,15.6-3.1,15.6-3.1,8,0,7.5,6.9,7.5,6.9ZM507,754.9c-4.9-26.6,6.2-36.2,6.2-36.2,4.2,3,13.7,5.9,13.7,5.9,1.2,11.3-19.9,30.3-19.9,30.3ZM352.8,463.3c11,45.1-34.6,81.5-34.6,81.5.2-9.4-6-37.2-6-37.2-15.2-60.8,16.2-78,16.2-78-.2,8.9,3.9,23.4,3.9,23.4,3.9,20.6,0,29.6,0,29.6,6.3-2.7,20.6-19.2,20.6-19.2ZM362,408.9c12.6,42.5-23.7,59.9-23.7,59.9.1-9.5-3.7-33.7-3.7-33.7-2.9-30,24.7-54.3,24.7-54.3-2.9,13.5,2.7,28.1,2.7,28.1ZM419.9,521.1s-2.9,10.5-13,20.6c0,0-18,18.8-21,23.7,0,0-7.1-31.8,7.1-55.9,0,0,7.4-12.1,8.1-25.1,0,0,22.4,22.9,18.9,36.6ZM428.2,524.9s27.3,33.7-18,85.4c0,0-1.4-11-7-21.5,0,0-16.4-21.5,10.2-48.1,0,0,11.5-10.9,14.8-15.8ZM370.8,524.9s-.5-16.8-7.2-31.4c0,0-14.7-25.7,9.4-55.1,0,0,49.5,50.4-2.2,86.5ZM347.9,519c6.5-12.9,10.4-21.9,10.4-21.9,10.9,25.1,0,49.5,0,49.5,13.4-16.7,17-13.8,17-13.8,8.7,15.2,5.2,51.4,5.2,51.4,3.6-12.1,10.8-18.8,10.8-18.8,5.2,47-25.4,78.5-25.4,78.5-4-15.7-11.7-29-11.7-29-27.6-55.8-6.2-95.9-6.2-95.9ZM398.1,594.4c9.2,17.5,8.6,35,8.6,35,5-6.3,9.7-17.8,9.7-17.8-2.9,21.4,2.9,38.8,2.9,38.8,9.7,40.6-17,61.9-17,61.9-26.9-56.5-4.3-117.9-4.3-117.9ZM432.2,586.1s10.6-16.9,10.7-21.5c0,0,3.2,13.3,1.1,29.9,0,0-.9,8.6,2.4,19.8,0,0,8.3,20.1-5.6,38.1,0,0-7.7,8.9-11.7,20.3,0,0-1.5-14.7-5.7-27,0,0-10.2-29.7,8.8-59.5ZM454,641.1c-.3,6.2,18.7,43.6,18.7,43.6,3.4,38.4-33.8,60.3-33.8,60.3-18.7-70.9,15.1-103.9,15.1-103.9ZM483.5,696.9s6.7,8.9,22.2,16.4c0,0,1.3,12.5-17.5,26.2,0,0-10.3,5.9-15.3,10.8,0,0-10.4-35.5,10.6-53.4ZM661.2,624.8c-6.4-3.7-10.3-9.5-10.3-9.5-2.8-3.5-7.4-7.9-7.4-7.9-11.8-10-14.3-19-14.3-19-3.8-23.3,5.2-42.5,5.2-42.5,4.8,4,12.9,14.7,12.9,14.7,12.9,14.7,10.8,31.6,10.8,31.6-1.1,20.2,3,32.5,3,32.5ZM640.4,537s-2-4.1,2.1-11.5c0,0,9.9-17.2,12.2-23.7,0,0,16.1,7.3,22.2,36.9,0,0,3.8,26.1,6.8,36.9,0,0-34.4-9-43.4-38.5ZM662.7,499.6c-2.3-3.6-.6-8.9-.6-8.9,6.2-15.2,14-20.6,14-20.6,18.4-9.3,35.1,58.3,35.1,58.3-6.6-4.3-25.7-10.3-25.7-10.3-14.8-4.6-22.8-18.5-22.8-18.5ZM601.3,698.4c18.7,12.1,11.2,46.6,11.2,46.6-29-9.3-28.6-27.6-28.6-27.6,8.7-7.3,17.4-19,17.4-19ZM612.8,685.8c5.5-7.6,8.5-16.6,8.5-16.6,34.1,15.6,32.1,59.9,32.1,59.9-57.6-23.3-40.6-43.4-40.6-43.4ZM625.9,648.3s3.5-33,1.6-49.1c0,0,24.3,14.2,29.7,47.6,0,0,1.9,23.1,10,43,0,0-46.8-11.3-41.4-41.5ZM656.4,628.1s7.9,8,18.3,11.7c0,0-17.4-28.4-11.5-61.8,0,0,23.1,13.2,41.9,48.2,0,0,.8,41,6.1,51.8,0,0-48-22.5-54.8-50ZM692.1,599.7s-10.1-9.1-13.8-19.9c0,0,7.8,5.2,13.8,6.6,0,0-7.4-20.2-9-34.9,0,0-3.3-20.2-7-29.2,0,0,12,1.4,24.7,29.3,0,0,4.8,11.7,12.7,19,0,0,17.8,16.9,8.7,67.9,0,0-12.4-20-30.2-38.9ZM701.4,539.8c-1.6-6.6-4.3-11.4-4.3-11.4,13.1,3.7,23.9,12.6,23.9,12.6-4.4-23.1-15.4-46.8-15.4-46.8,5.2,4.8,20.6,12.8,20.6,12.8,20.2,9.2,16.1,56,16.1,56-2,18.6-3.4,26.8-3.4,26.8-33.1-30.2-37.5-49.8-37.5-49.8ZM716.6,496.9s-30-15.2-27-39.2c0,0-.6-11.3,17.9-32,0,0,.4,14.8,18.8,35.3,0,0,25,23.3,19.1,55.1,0,0-8.2-9.1-28.7-19.3ZM716.4,387.7s36.5,25.3,27.4,79.4c0,0-37.9-9.1-27.4-79.4ZM792.7,543.4c-8.1-16.7-29.9-40.1-29.9-40.1-17.8-16.3-19.2-27.7-19.2-27.7,4.8,4.4,11.4,5.8,11.4,5.8-4.9-8.7-3.8-23.7-3.8-23.7,1-19.5-2.6-32-2.6-32,2.2,3.4,26.4,23.1,26.4,23.1,30.7,33.6,17.7,94.5,17.7,94.5ZM790.7,448.1s-34.2-5.7-57.9-51c0,0-6.3-13.3-20.1-21.9,0,0,35.7-9.2,48.6,21.3,0,0,7.5,28.5,29.4,51.6ZM741,157.8s57.4,118.2,23.1,226.6c0,0-17.5-25.8-79.3-60.9,0,0-60-29.6-36.7-67.9,0,0,33.5-63.1,92.9-97.7ZM531.8,269.2s.9-17.1,13.9-30.1c0,0,7.4,8.3,10.3,22.8,0,0,.6,47.7,41.6,74.3,0,0-31.3,17.2-56.8,39,0,0-23.8-21.7-54.9-37.7,0,0,39.9-20.3,46-68.3ZM498.6,227.1c62.4,66-30.4,113.3-30.4,113.3,39.7,7.8,74,47.5,74,47.5,25.3-36.6,70.9-49.6,70.9-49.6-94.5-61.9-18.2-103.3-18.2-103.3-32.9,72.9,42.4,105.5,42.4,105.5-59.8,24.3-98,69.4-98,69.4-22.6-37.7-91.9-65.7-91.9-65.7,70.2-46.7,51.3-117,51.3-117ZM426.2,348.9c91.4,23,113,71.7,113,71.7,45.9-61.4,118.2-75.6,118.2-75.6-67.6-35.4-62.2-71-62.2-71,3.1-22.7,36.7-41.4,36.7-41.4-20.8,25.7-20.1,43.7-20.1,43.7-2.9,30.9,63.6,72.3,63.6,72.3-93.3,25.8-137.2,95.3-137.2,95.3-26.6-68.5-135.1-90.5-135.1-90.5,101.3-60.7,60-131.8,60-131.8,80,48.5-36.9,127.4-36.9,127.4ZM453.2,240.3s-1.5-13.3,1.4-20.8c0,0,46.4,82.6-70.6,134.2,0,0,141.3,28.1,152.4,109.6,0,0,39.9-95.7,160.6-108.2,0,0-56.6-33.6-73.1-61.4,0,0-17.6-32.7,20.3-69,0,0,.5,9-8.7,32.5,0,0-19.3,42.3,49.3,73.2,0,0,25.5,10.6,41.4,30.1,0,0-13.6,7.8-37.1,10.1,0,0-81.6,11.4-122.6,58.9,0,0-22.9,20-8.4,72.7,0,0,11.3,32.7,13.9,52,0,0-47.1-11.5-76.9,3.5,0,0,2.4-25.6,16.2-64.7,0,0,14.3-42,4.7-55.7,0,0-48-58.6-161.8-74.8,0,0,67.1-34.3,88-74.4,0,0,13.7-26.9,11.1-47.8ZM313.7,291.1c-3.1-97.3,40.4-132.8,40.4-132.8,61.1,41,84.4,80.9,84.4,80.9,14.3,31.3-18.4,68-18.4,68-63.5,57.3-116.1,68-116.1,68,9.1-31.3,9.7-84.1,9.7-84.1ZM277.9,446.5c20.5-82,82.1-73.1,82.1-73.1-14.2,9.4-43.9,56.2-43.9,56.2-11.7,18.5-38.1,16.9-38.1,16.9ZM261.9,598.7c8.9-18.5,9-40.8,9-40.8-.6-71.7,34.5-103.7,34.5-103.7-5,27,4.8,68.1,4.8,68.1,14,81.1-48.2,76.4-48.2,76.4ZM294.4,676.1c5.4-16.2,6.7-55,6.7-55,2.2-56.8,35-88.4,35-88.4-4.4,20.3,2.2,54,2.2,54,10.5,73.8-43.9,89.3-43.9,89.3ZM351.5,740.1c-1-11.4-11.8-49.1-11.8-49.1-7.7-22.5,1.5-41.2,1.5-41.2,4.9-15.6,5.9-37.3,5.9-37.3,11.7,17.9,13.9,51.1,13.9,51.1,6.2-16.1,21.2-30.9,21.2-30.9,5.6,65.3-30.7,107.4-30.7,107.4ZM389.2,793.4s-4.7-38.5-10.9-60.7c0,0-6.5-17.8,0-27.9,0,0,7.2-14.6,7.7-20.5,0,0,14,26.6,14,44.4,0,0,5.6-11.2,16.8-24.8,0,0,8.9-11.6,10.7-17.2,0,0,10.6,54.4-38.3,106.8ZM398.3,826.1s11-32.4,13.6-51.7c0,0,13.8-19.5,18.2-36.7,0,0,3.7,21.5,2.8,25.7,0,0,10.5-11.7,19-17.8,0,0-10.6,63.7-53.6,80.4ZM441.1,848.7c-12.5-57.3,24.1-115.8,24.1-115.8,2.8,8.7,2.7,28.9,2.7,28.9,14-15.1,27.7-23.1,27.7-23.1-12.9,17.1-25.3,62-25.3,62-15.4,41.4-29.2,48-29.2,48ZM506.1,833.8s-1.5,21.2-17.2,31.3c0,0-15.7-12.3-12-62,0,0,2.2-35.4,25.4-66.8,0,0-.8,14.4,2.5,28.8,0,0,9.2-14.6,18.6-21.5,0,0-11.4,31.3-17.4,90.3ZM570.6,861.9s-11.4,33.6-26.8,53.1c0,0-33.3-35.6-31.8-83.7,0,0,2.8-53.3,18-88,0,0,6,21.2,16.7,31.9,0,0,13.1-18.9,15.5-33.5,0,0,25.6,63.6,8.4,120.1ZM606,861.9c-19.3-12.4-22.6-46.5-22.6-46.5-.8-24.3-5.2-34.5-5.2-34.5-6.1-17.6-5-25.2-5-25.2,4.2,5.1,11.9,8.6,11.9,8.6-1.8-14.5,2.9-24.5,2.9-24.5,14.3,18.8,25.9,66.9,25.9,66.9,4,38.4-7.9,55.2-7.9,55.2ZM646.4,846.1s-18.6-17.5-30.7-51.6c0,0-16.8-39.5-17.9-51.8,0,0,16,5.6,23.3,19.8,0,0-5.4-32.7-4-40.8,0,0,48.2,49.9,29.3,124.4ZM676.6,798.9s-15-11.2-23.9-26.5c0,0-17.2-40.9-23.4-47.7,0,0,16.3,8.1,32.9,12.8,0,0-6.9-30.5-6.8-42.9,0,0,30.4,29.6,21.3,104.4ZM676.3,716.9s-4.6-14.7-7.4-17.7c0,0,3.2,3.8,12.1,7.2,0,0-17.7-25.5-14.7-49.9,0,0,6,6.6,22.6,13.8,0,0,28.9,12.1,27.9,63.3,0,0,1.2,38.1,4.2,49,0,0-34-34.1-44.8-65.7ZM754.8,739s-29.1-21.3-36.4-36.4c0,0-6.2-14.5-9.7-17.9,0,0,4.8,3.9,15.1,6.6,0,0-17.7-24.7-12.3-57,0,0,10.1,13,13.2,24.6,0,0,2-19.9,4.5-28.3,0,0,38.8,43.8,25.6,108.5ZM730.9,608.2c-.9-16.8-3.5-24.9-3.5-24.9,4,7.7,22.5,23.3,22.5,23.3-6.5-13.3-2.6-35.6-2.6-35.6,2.9,8.9,11,21.7,11,21.7,17,20.7,16.8,44.7,16.8,44.7,1.1,27.2,6.4,52.3,6.4,52.3-45.4-27.6-50.5-81.6-50.5-81.6Z"/>
    <path class="cls-3" d="M545.6,255.6s4.5,2.9,5.3,16.5c0,0,.2,46.5,23.4,61.4,0,0-27,16.3-34.1,28.9,0,0-9.8-19.8-34-27.1,0,0,30.7-11.8,34-63,0,0,.2-9.4,5.4-16.7Z"/>
    <path class="cls-3" d="M412.2,215.9s-34.2-30.3-55-47.3c0,0-32.7,44.4-30.1,113.3,0,0,1.9,50.1-6,73.8,0,0,74.8-32.3,101.2-74.9,0,0,25.1-27.6-10-64.9ZM414.4,276.4c-24.3,38.3-84.1,67.9-84.1,67.9,5.3-16.1,4-62.6,4-62.6-1.6-64.3,27.9-96,27.9-96,79.1,62,52.2,90.7,52.2,90.7Z"/>
    <path class="cls-1" d="M365.9,203.1s-22,26.1-20.6,64.9c0,0,1.4,40.9-5.1,62.2,0,0,43.3-17.2,62.8-57.8,0,0,9.3-20.3-8.8-43.5,0,0-14.6-18-28.2-25.8Z"/>
    <path class="cls-1" d="M352.4,398.1s-13.1,13.2-10.9,40.3c0,0,1.2,13.3,1,17.3,0,0,25-12.5,10-57.6Z"/>
    <path class="cls-3" d="M736.5,167.7c-91.4,75.2-84,101.4-84,101.4.4,33.5,44.6,51.4,44.6,51.4,40.8,18.2,62.1,46.2,62.1,46.2,21.1-97.9-22.7-199-22.7-199ZM754.8,351.3s-34.2-29.3-69.3-47.8c0,0-34.1-17.6-18.7-51.5,0,0,30.1-49.8,65.9-67.3,0,0,34.7,62.2,22.1,166.7Z"/>
    <path class="cls-1" d="M729.7,201.4s22.5,58.3,15.5,128.9c0,0-23.3-20.2-47.4-33.2,0,0-34-13.6-13.7-50.3,0,0,20.8-29.1,45.5-45.4Z"/>
    <ellipse class="cls-1" cx="494.6" cy="610.3" rx="18" ry="9" transform="translate(-197.5 238.7) rotate(-22.7)"/>
    <ellipse class="cls-1" cx="587.6" cy="608.8" rx="8.2" ry="16.3" transform="translate(-173.9 977.7) rotate(-71.9)"/>
    <g>
      <circle class="cls-3" cx="536.8" cy="676" r="3" transform="translate(-316.9 547.9) rotate(-43)"/>
      <circle class="cls-3" cx="518.1" cy="682.5" r="3" transform="translate(-326.3 536.9) rotate(-43)"/>
      <circle class="cls-3" cx="554.2" cy="676" r="3" transform="translate(-312.2 559.8) rotate(-43)"/>
      <circle class="cls-3" cx="535.3" cy="691.2" r="3" transform="translate(-327.7 551) rotate(-43)"/>
      <circle class="cls-3" cx="555.8" cy="690.7" r="3" transform="translate(-321.7 564.8) rotate(-43)"/>
      <circle class="cls-3" cx="572.9" cy="681.2" r="3" transform="translate(-310.7 573.9) rotate(-43)"/>
    </g>
    <g>
      <circle class="cls-3" cx="484.2" cy="634" r="3.8"/>
      <circle class="cls-3" cx="497" cy="633.4" r="3.8"/>
      <circle class="cls-3" cx="491" cy="649.9" r="3.8"/>
      <circle class="cls-3" cx="502.4" cy="646.1" r="3.8"/>
      <circle class="cls-3" cx="515.7" cy="642.7" r="3.8"/>
      <circle class="cls-3" cx="561" cy="650.2" r="3.8"/>
      <circle class="cls-3" cx="574.7" cy="655.8" r="3.8"/>
      <circle class="cls-3" cx="588" cy="660.6" r="3.8"/>
      <circle class="cls-3" cx="594.7" cy="648.2" r="3.8"/>
      <circle class="cls-3" cx="582.3" cy="644.9" r="3.8"/>
      <circle class="cls-3" cx="570" cy="640.3" r="3.8"/>
      <circle class="cls-3" cx="574.3" cy="628.1" r="3.8"/>
      <circle class="cls-3" cx="587.2" cy="631.9" r="3.8"/>
      <circle class="cls-3" cx="600.1" cy="634" r="3.8"/>
      <circle class="cls-3" cx="523.2" cy="654" r="3.8"/>
      <circle class="cls-3" cx="510.4" cy="659.6" r="3.8"/>
      <circle class="cls-3" cx="497.6" cy="662.1" r="3.8"/>
      <circle class="cls-3" cx="508.1" cy="629.9" r="3.8"/>
    </g>
    <path class="cls-1" d="M592.5,668.2s-3.5,4.1-10,1c0,0-13.3-5.8-20.7-6.8,0,0-8.7-2.3-11.3-8.4,0,0-4.8-9.4-8.3-11.8,0,0-4.2,4.7-7.3,14,0,0-1.6,7-11.6,9.9,0,0-10.4,3.2-18.9,7.7,0,0-11.3,4.5-21.8-15.8,0,0-7.8-15.8-8.2-27.7,0,0-4.7,7.7,4.8,30.9,0,0,7.6,17,29.4,31.9,0,0,22.4,18.2,53.1,9.4,0,0,42-11.4,48.1-74.4,0,0-7,25.1-17.2,40.1ZM505.7,681.2c42.9-34.8,76.6-1.6,76.6-1.6-39,47.8-76.6,1.6-76.6,1.6Z"/>
    <path class="cls-3" d="M340.2,380.8s-32.4,2.5-51.6,55.1c0,0,16.6,2.3,32.4-26.1,0,0,11-23.2,19.2-29Z"/>
    <path class="cls-3" d="M322.7,446.5s-11.4,13.2-3.7,53.6c0,0,3.3,18.9,2.5,27.6,0,0,25-18.8,27.7-52.5,0,0-9.5,13.6-19.4,18.6,0,0-7.6-29.7-7-47.3Z"/>
    <path class="cls-3" d="M426.2,536.8s5.5,19.3-3.3,36.7c0,0-8.4,14.3-9.6,19.6,0,0-22-27.4,12.9-56.3Z"/>
    <path class="cls-1" d="M407.2,501.3s8.9,17-1.9,31.4c0,0-10.8,10-12.3,15,0,0-8.3-16.3,7.3-33.8,0,0,5.8-7.4,7-12.6Z"/>
    <path class="cls-3" d="M374.6,452.1s30.9,29.7.7,60.8c0,0,1-14-5.1-28.4,0,0-8.5-16.3,4.4-32.4Z"/>
    <path class="cls-1" d="M296,485.7s-17.5,25.3-14.9,58.2c0,0,2.1,23.1-3.9,38.7,0,0,23.7-10.6,26.4-45.9,0,0-.3-11.6-3.4-25.6,0,0-5.5-19.5-4.3-25.5Z"/>
    <path class="cls-1" d="M358.8,676.3s11.8-11.4,16.7-20c0,0,.9,34.9-20.2,66,0,0-12.8-18.3-9.1-64.3,0,0,3.9-12.9,4.1-20.3,0,0,7.1,20,6.6,30.7,0,0,0,4.6,1.9,7.9"/>
    <path class="cls-3" d="M454.4,663.3s25.3,27.9-9.9,65.7c0,0-8.8-40,9.9-65.7Z"/>
    <path class="cls-1" d="M438.5,593.1s-18.8,15.8-7.2,53.1c0,0,9.6-4.7,8-34.3,0,0-1.9-10.7-.9-18.8Z"/>
    <path class="cls-3" d="M399.3,625.8s-9,22.9,5.3,67.3c0,0,16.7-15.2,4.2-48.2,0,0-7.9-12.9-9.6-19.1Z"/>
    <path class="cls-1" d="M357.2,511.8s-19.5,27.8-3,81.3c0,0,10,24.3,11.8,32.7,0,0,13.8-14,16.9-37.1,0,0-6.1,8.7-9.5,10.9,0,0,1.8-34.4-1.7-54.7,0,0-8.4,8.3-16,13,0,0-6-5,1.3-33.9,0,0,1.6-5.5.2-12Z"/>
    <path class="cls-1" d="M721.3,401.7s18.2,18.1,18.2,53.3c0,0-25.3-16.8-18.2-53.3Z"/>
    <path class="cls-3" d="M705,443.9s1.3,8.9,9.6,20.6c0,0,20,19.1,23.2,35.5,0,0-5.9-5.2-23.2-14.3,0,0-27.7-11.7-9.6-41.7Z"/>
    <path class="cls-2" d="M758.3,448.9s37.1,17.1,30.8,74.8c0,0-38.5-35.5-30.8-74.8Z"/>
    <path class="cls-3" d="M726.2,550.3s1.7-18.4-7.9-38.3c0,0,22,5.1,16.5,61.8,0,0-13.7-6.3-25.5-30.9,0,0,10.5,1.5,17,7.4Z"/>
    <path class="cls-1" d="M636.6,559.6s17.3,9.1,15.6,47.8c0,0-26-10.9-15.6-47.8Z"/>
    <path class="cls-3" d="M632.9,615.1s18.4,16.5,17.9,40.1c0,0,.3,10.5,5.6,21.8,0,0-29.7-9.1-24.5-36.6,0,0,2.2-13.9.9-25.2Z"/>
    <path class="cls-3" d="M673.7,600.9s22.8,10.2,23.4,45.1c0,0,.7,10.5,3.3,15.8,0,0-33.2-18.2-26.8-60.9Z"/>
    <path class="cls-3" d="M727.7,379s21.6.7,29.6,24.5c0,0,4.8,16.4,12.2,28,0,0-13.6-1.4-25.9-30.6,0,0-8.2-16.9-15.8-21.8Z"/>
    <path class="cls-1" d="M757.3,515s18.8,18.6,18.8,47.8c0,0-.4,18.6,7.9,36.3,0,0-32.8-12-26.7-84.2Z"/>
    <path class="cls-3" d="M671.5,562.8s-27.4-17.6-22.6-34.5c0,0,4.5-8.1,6.3-13.4,0,0,17.3,16.1,16.4,47.8Z"/>
    <path class="cls-1" d="M700.5,515s-13.6-43.9-24.4-37.4c0,0-11.7,10-6,18.4,0,0,8.7,12.4,30.4,19Z"/>
    <path class="cls-1" d="M702.5,592.8s1.3-8.2-9.1-24.7c0,0-8-12.8-7.1-28,0,0,5.6,13.3,16.2,27.5,0,0,17.3,18.2,15.2,55.9,0,0-17.7-23.8-25.7-30.3,0,0,7.5-1.2,10.5-.4Z"/>
    <path class="cls-1" d="M647.5,719.6s-6.2-30.3-23.2-40.4c0,0-1.8,5.9-6.1,12,0,0-6.5,11.7,29.3,28.3Z"/>
    <path class="cls-2" d="M676.1,673s28.1,13.6,30.2,38.2c0,0,3.3,38.8,4.9,50.7,0,0-23.2-21.2-24.9-59.4,0,0-1.1-8.5-8-17.8,0,0-4.3-3.8-2.2-11.8Z"/>
    <path class="cls-1" d="M733.1,650.9s19.7,28.3,17.4,74.1c0,0-20.6-12.8-27-24.3,0,0,9.2,4,12.6,4.1,0,0-1.1-8.4-6.1-16.9,0,0-12.4-15.9-13.1-31.5,0,0,7.8,12.7,11.6,16.5,0,0,4.6-6.8,4.6-22.1Z"/>
    <path class="cls-2" d="M751.6,615.1s-9.8-4.1-14-10.2c0,0,0,26.6,31.6,64.4,0,0-2.4-20.1-1.9-27.4,0,0,1.3-25.5-12.9-43.8,0,0-.7,13-2.8,17Z"/>
    <path class="cls-2" d="M399.7,736.3s13.8-12.5,17.8-21.6c0,0,4.3,23.6-22.2,53.6,0,0-1.2-16.4-7.3-32,0,0-9.6-18.4-2.2-34.5,0,0,6.3,7.5,9.4,25.4,0,0,1.2,6.3,4.6,9.1Z"/>
    <path class="cls-1" d="M426.2,774.9s7.7-3.7,12.4-9c0,0-5.9,27.1-30.6,46,0,0,6.7-16.8,9.7-31.8,0,0,1.5-12.7,8.5-22.7,0,0,1.3,11.5,0,17.4Z"/>
    <path class="cls-2" d="M460.9,750.3s-17.5,32.6-16.4,82.6c0,0,5.9-1.2,16.4-30.1,0,0,8.3-27.4,19.1-43.4,0,0-11.5,6.6-15.8,12.3,0,0-1.5-15.3-3.3-21.4Z"/>
    <path class="cls-1" d="M496.8,756.3s-19.1,44.2-6.4,94.9c0,0,9.6-4,15.3-56.3,0,0,2.6-24,8.9-33.4,0,0-10.5,8.1-13.3,13.3,0,0-1.5-11.6-4.5-18.5Z"/>
    <path class="cls-2" d="M545.4,793.4s12.7-12.6,15.7-25c0,0,10.7,56.7-16.9,109.7,0,0-31.3-30-14.1-109.7,0,0,9.4,17.4,15.3,25Z"/>
    <path class="cls-1" d="M663.1,747.3s-13.8-5.7-20.7-10.9c0,0,6.6,10.1,10.4,21.4,0,0,3.9,10.1,16.7,22.8,0,0,9.6-21.8-4.7-61.9,0,0-1.1,3.1,0,13.1,0,0,1,8.2-1.7,15.6Z"/>
    <path class="cls-2" d="M625.3,771.8s1-19.9-1-31.9c0,0,22.8,24.2,18.1,88.5,0,0-28.2-37.9-32.7-68.7,0,0,11.3,10.3,15.6,12.2Z"/>
    <path class="cls-1" d="M593,761.1s22.2,33.7,11.3,82c0,0-12.8-11.2-17-44.2,0,0-3.2-20.8-9.2-30.6,0,0,7.8,3.4,12.3,8.7,0,0,3.2-10.8,2.6-15.9Z"/>
    <circle class="cls-2" cx="545.4" cy="740.7" r="6"/>
    <circle class="cls-2" cx="544.3" cy="890.3" r="7.5"/>
    <path class="cls-1" d="M498.7,716.1s-10.2-5.2-13.2-8.7c0,0-10.3,6.2-7.9,30.3,0,0,18.5-3.2,21.1-21.6Z"/>
    <path class="cls-3" d="M514.1,725.6s2.2,2.1,7.8,3.4c0,0-2.7,7.1-10,15,0,0-5.2-8,2.2-18.4Z"/>
    <path class="cls-1" d="M601,704.9s-2.9,5.5-11,12.4c0,0-2.6,4.8,16.9,15.7,0,0,1.9-19.8-5.9-28Z"/>
    <path class="cls-3" d="M576,726.9s-4.7,2.5-7.3,2.3c0,0,0,9.9,8.6,17.5,0,0,5.4-11.7-1.3-19.8Z"/>
    <path class="cls-1" d="M473,463.3c-25.6,16.5-43.1,10.4-43.1,10.4-22.7-7.5-34.6-42.2-34.6-42.2-8.1-20.6-17.3-31.2-17.3-31.2,4.1,6.7,12.8,34.7,12.8,34.7,13.2,37.3,39.2,53.2,39.2,53.2,31.8,26.5,29.8,68.3,29.8,68.3-.7,18.8,5.5,31.5,5.5,31.5-.5-6.3,1.3-23.4,1.3-23.4,3.4-39.6,22.8-97.9,22.8-97.9,4-13.5-16.5-3.3-16.5-3.3ZM464,534c-8.1-37.2-33.4-51.5-33.4-51.5,2.6.4,11-.8,11-.8,20.2,18.4,25.8,41,25.8,41-.2,2.7-3.5,11.3-3.5,11.3ZM470.4,518.7s-10.5-25.6-26.2-38.2c0,0,2.6-2.2,7.4-2.7,0,0,12.5,12.7,20.2,27.9,0,0,.4,5.1-1.4,12.9ZM474.2,502.2s-12.5-20-19.6-25.4c0,0,4.1-1.3,7.1-2.5,0,0,10.9,11.6,14.3,19.2l-1.7,8.7ZM477.9,491.5c-3.8-8.9-13.3-18.4-13.3-18.4,1.7-.3,6.5-1.7,6.5-1.7.7,3.2,8.1,11.8,8.1,11.8-.5,2.1-1.2,8.3-1.2,8.3ZM481.6,480.5s-6.1-6.3-8.6-11c0,0,7.1-4.1,11-3.8,0,0,0,8.4-2.4,14.8Z"/>
    <path class="cls-1" d="M654.3,459.9c-15.1,19.4-51,9.3-51,9.3-19.7-4.9-22.3,3.9-22.3,3.9-3.6,20.1,9,49.2,9,49.2,10.7,26.1,18.7,63.1,18.7,63.1,3.5-5.8,3.1-11.9,3.1-11.9-.3-48,36.5-98.7,36.5-98.7,15.3-14.9,20.2-26.7,20.2-26.7,12.9-22.3,25.1-37.1,25.1-37.1-8.2,3.4-39.3,48.9-39.3,48.9ZM587,474.8c4.9-1.7,12-.5,12-.5-8.3,6.8-12,18-12,18-3.5-9,0-17.4,0-17.4ZM589,495s8.6-16.4,13.3-20.2c0,0,5.2-1,8.9,0,0,0-14,17.1-20.3,30.9,0,0-1.8-6.1-1.8-10.7ZM591.4,510.7c12.5-24.6,23.4-35,23.4-35,1.3.2,5.6,0,5.6,0-7.2,13.6-26.8,45.4-26.8,45.4-1.4-3.4-2.2-10.4-2.2-10.4ZM597.5,526.4c7.5-23,26.4-49.5,26.4-49.5,1.8.3,5.3,0,5.3,0-15.3,26.4-29.2,61.3-29.2,61.3-1.5-3.1-2.5-11.8-2.5-11.8ZM608.7,557.7s-3.7-5.8-5.2-11.7c0,0,8.5-30.1,29.3-69.1,0,0,4.5-1.4,7.9-1.1,0,0-29.6,53.9-32.1,82Z"/>
  </g>
</svg>