<?xml version="1.0" encoding="UTF-8"?>
<svg id="ICON" xmlns="http://www.w3.org/2000/svg" viewBox="0 0 1080 1080">
  <defs>
    <style>
      .cls-1 {
        fill: #fff;
      }

      .cls-2 {
        fill: #99a4ad;
      }
    </style>
  </defs>
  <path class="cls-1" d="m845.83,351.45c-10.85-12.85-38.15-25.19-67.04-38.26-21.01-9.5-42.74-19.33-51.94-27.02-13.41-11.22-26.82-16.67-41.01-16.67-11.3,0-22.98,3.26-37.88,10.57-17.55,8.61-26.06,10.19-36.49,10.19-4.62,0-9.66-.34-16.79-.93-5.45-.45-11.52-.68-18.04-.68-14.9,0-28.44,1.19-33.16,1.66-3.48-.36-17.93-1.76-34.21-1.76-6.51,0-12.58.23-18.03.68-7.14.59-12.17.93-16.79.93-10.43,0-18.94-1.58-36.49-10.19-14.9-7.31-26.58-10.57-37.88-10.57-14.19,0-27.6,5.45-41,16.67-9.2,7.7-30.92,17.52-51.94,27.02-28.89,13.07-56.19,25.41-67.04,38.26-21.2,25.1-5.72,61.17,1.72,78.5l.2.46c3.25,7.57,8.4,14.89,13.85,22.65,10,14.22,20.34,28.93,19.08,45.27-2.01,25.96-6.82,37.48-7.22,38.37l-8.84,17.21,19.58-1.64c.65-.05,16.23-1.41,34.16-7.23,25.32-8.23,42.49-20.93,51.01-37.76.04-.09.09-.17.13-.26,2.48,4.72,5.39,8.89,8.74,12.5,20.4,22,19.04,58.69,18.13,82.97-.31,8.38-.56,14.99.18,19.84,2.48,16.32-.9,28.61-4.47,41.62-1.01,3.68-2.06,7.49-2.97,11.4-2.64,11.28-5.99,45.98,9.99,70.7,7.92,12.24,19.66,20.19,33.95,22.98,4.94.96,9.89,1.45,14.72,1.45,8.64,0,17.06-1.54,25.12-4.6,3.79,2.27,7.68,4.49,11.64,6.62-1.17,4.3-1.06,8.91.42,13.24l17.61,51.37c3.16,9.21,11.87,15.39,21.67,15.39h38.42c9.81,0,18.52-6.19,21.67-15.39l17.61-51.38c1.31-3.82,1.54-7.85.78-11.7,5.85-3.16,11.58-6.51,17.12-10,9.45,4.35,19.45,6.55,29.79,6.55,4.83,0,9.78-.49,14.72-1.45,14.29-2.79,26.03-10.74,33.95-22.98,15.99-24.72,12.63-59.41,9.99-70.7-.92-3.91-1.96-7.72-2.97-11.4-3.57-13.02-6.95-25.31-4.47-41.63.74-4.85.49-11.46.18-19.84-.9-24.28-2.26-60.98,18.13-82.97,3.34-3.6,6.26-7.78,8.73-12.5.04.09.09.17.13.26,8.52,16.82,25.69,29.53,51.01,37.76,17.92,5.82,33.5,7.18,34.16,7.23l19.69,1.85-8.95-17.43c-.39-.89-5.21-12.41-7.22-38.37-1.26-16.34,9.08-31.04,19.08-45.27,5.45-7.75,10.6-15.08,13.85-22.65l.2-.46c7.44-17.33,22.92-53.39,1.72-78.49Zm-.35,35.69c-.11,1.39-.26,2.79-.45,4.18-.14,1.03-.31,2.05-.5,3.08-.22,1.23-.48,2.46-.75,3.68-.08.36-.16.71-.25,1.07-.42,1.75-.89,3.48-1.39,5.18-.24.8-.48,1.6-.73,2.38-.83,2.61-1.72,5.14-2.63,7.53-.34.89-.67,1.75-1.01,2.6-.65,1.65-1.3,3.22-1.93,4.71-.41.97-.81,1.91-1.19,2.81-.26.6-.51,1.19-.75,1.76-.27.63-.56,1.25-.86,1.89-.64,1.33-1.36,2.68-2.14,4.04-10.66,18.63-32.88,40.01-30.78,67.13,1,12.92,2.67,22.54,4.24,29.31.05.23.11.46.16.68.17.72.34,1.4.51,2.05.25.98.5,1.89.73,2.71.21.73.41,1.41.61,2.03,1.16,3.73,2,5.45,2,5.45h0s-59.08-4.95-76.35-39.05c-6.39-12.61-9.52-23.71-10.95-32.71-.14,1.54-.33,3.13-.54,4.73-1,7.57-2.79,15.67-5.92,23.09-.76,1.8-1.6,3.56-2.52,5.26-1.85,3.4-4.05,6.58-6.65,9.39-15.34,16.54-20.01,39.58-21.14,60.53,0,.07,0,.13-.01.2-.1,1.92-.17,3.82-.22,5.69,0,.03,0,.06,0,.1-.47,18.57,1.4,34.73.28,42.07-3.58,23.57,3.48,39.52,7.61,57.15,1.81,7.71,3.08,22.56.52,37.48-3.29,19.19-12.93,38.52-35.94,43.01-.98.19-1.94.35-2.9.5-.23.04-.47.07-.7.1-.95.13-1.89.25-2.82.34-.02,0-.05,0-.07,0-.91.09-1.81.15-2.7.2-.22.01-.44.02-.66.03-.9.04-1.8.07-2.69.07-.04,0-.08,0-.12,0-.86,0-1.7-.02-2.54-.06-.2,0-.41-.02-.61-.03-.86-.05-1.72-.1-2.57-.18-.05,0-.09-.01-.14-.02-.81-.08-1.61-.18-2.4-.29-.18-.03-.36-.05-.54-.08-.83-.12-1.65-.26-2.46-.41-.04,0-.08-.02-.12-.03-.78-.15-1.54-.32-2.3-.5-.15-.04-.31-.07-.46-.11-.79-.19-1.58-.4-2.35-.62-.03,0-.06-.02-.08-.03-.75-.22-1.49-.45-2.22-.69-.13-.04-.25-.08-.37-.12-.76-.26-1.51-.53-2.25-.81-.01,0-.03-.01-.04-.02-.73-.28-1.44-.57-2.15-.87-.1-.04-.2-.08-.29-.12-.73-.32-1.44-.64-2.15-.98,0,0,0,0,0,0-.7-.34-1.39-.68-2.07-1.04-.07-.04-.14-.07-.21-.11-.69-.36-1.37-.74-2.03-1.12,0,0,0,0,0,0-4.1,2.71-8.17,5.24-12.15,7.6,0,0,0,0,0,0-1.32.78-2.64,1.54-3.95,2.29-.01,0-.02.01-.04.02-1.3.74-2.58,1.46-3.86,2.16-.02.01-.05.03-.07.04-1.26.69-2.51,1.37-3.75,2.02-.04.02-.08.04-.12.06-1.23.65-2.44,1.28-3.64,1.9-.03.02-.07.03-.1.05-1.21.62-2.4,1.22-3.58,1.8,0,0,0,0,0,0,.35.29.69.6,1.01.92.03.03.07.07.1.1.32.34.64.7.92,1.08.76,1.02,1.31,2.15,1.69,3.33.34,1.04.55,2.12.59,3.21.03.93-.05,1.87-.24,2.79-.1.46-.22.92-.38,1.37l-17.61,51.38c-1.65,4.8-6.21,8.02-11.36,8.02h-38.42c-2.43,0-4.72-.72-6.64-1.98-.3-.19-.58-.4-.86-.62-.31-.25-.62-.5-.9-.78-1.32-1.27-2.34-2.85-2.96-4.65l-17.61-51.37c-1.24-3.61-.62-7.61,1.66-10.69.23-.32.48-.62.75-.91.02-.02.03-.03.05-.05.25-.27.51-.53.78-.78,0,0,.02-.01.02-.02.57-.52,1.19-.97,1.85-1.37h0c-.97-.47-1.95-.96-2.93-1.45-.12-.06-.25-.12-.37-.19-.98-.49-1.96-.99-2.95-1.5-.12-.06-.24-.12-.36-.19-.98-.51-1.97-1.03-2.96-1.56-.04-.02-.08-.04-.12-.06-1.01-.54-2.04-1.1-3.06-1.66-.15-.08-.29-.16-.44-.24-2.08-1.15-4.18-2.34-6.31-3.59-.12-.07-.23-.14-.35-.2-1.05-.62-2.11-1.25-3.17-1.89-.11-.06-.21-.13-.32-.19-1.08-.66-2.16-1.32-3.24-2,0,0,0,0,0,0-.62.3-1.25.58-1.89.86-.1.04-.2.08-.3.13-.53.23-1.06.45-1.6.66-.14.06-.29.11-.43.17-.58.23-1.16.44-1.75.65-.06.02-.13.05-.19.07-.67.23-1.35.46-2.03.67-.11.03-.22.06-.33.1-.56.17-1.13.34-1.71.49-.18.05-.35.1-.53.14-.57.15-1.15.29-1.73.43-.12.03-.25.06-.37.09-.71.16-1.43.31-2.16.44-.11.02-.23.04-.35.06-.6.11-1.21.21-1.83.3-.21.03-.41.06-.62.09-.57.08-1.15.15-1.74.21-.18.02-.35.04-.53.06-.75.07-1.51.14-2.28.18-.11,0-.22,0-.33.02-.66.04-1.32.06-1.99.08-.23,0-.47,0-.7,0-.59,0-1.18,0-1.77,0-.22,0-.44,0-.66-.01-.8-.02-1.61-.06-2.42-.11-.08,0-.15-.01-.23-.02-.74-.05-1.49-.12-2.24-.2-.25-.03-.5-.06-.76-.09-.61-.07-1.23-.15-1.85-.24-.25-.04-.5-.07-.75-.11-.85-.13-1.71-.28-2.57-.45-3.84-.75-7.3-1.91-10.43-3.41-.02,0-.03-.02-.05-.03-2.19-1.06-4.22-2.29-6.09-3.66-1.17-.86-2.29-1.78-3.34-2.74-.44-.41-.88-.82-1.3-1.24-.42-.43-.84-.86-1.24-1.31-.62-.68-1.21-1.37-1.78-2.09-1.2-1.5-2.29-3.07-3.3-4.71-.73-1.2-1.42-2.42-2.06-3.68-.49-.96-.95-1.94-1.38-2.94s-.84-2-1.23-3.02c-.58-1.53-1.09-3.08-1.56-4.65-.31-1.05-.6-2.1-.87-3.16-.13-.53-.26-1.06-.38-1.59-.49-2.12-.89-4.26-1.22-6.39-.08-.53-.16-1.06-.23-1.6-1.88-13.82-.66-27.13,1.01-34.29.03-.13.06-.26.09-.4.2-.83.4-1.66.61-2.48.34-1.34.69-2.68,1.05-4.02.41-1.51.82-3.02,1.24-4.53.45-1.63.89-3.25,1.33-4.89.58-2.19,1.14-4.39,1.65-6.63.64-2.8,1.21-5.66,1.65-8.62,1.15-7.68,1.45-16,0-25.57-1.39-9.12,1.84-31.85-.55-55.9-.27-2.67-.6-5.36-1.02-8.05-.12-.77-.25-1.55-.38-2.32-2.67-15.34-8.18-30.49-19.15-42.32-8.35-9-12.5-21.78-14.51-33.77-.5-2.97-.87-5.89-1.13-8.7-1.36,8.63-4.31,19.19-10.18,31.16-.25.52-.5,1.03-.77,1.55-17.28,34.1-76.35,39.05-76.35,39.05,0,0,5.24-10.8,7.8-37.07.16-1.66.31-3.39.45-5.18,2.32-30.03-25.19-53.03-33.78-73.05-3.38-7.87-8.53-19.74-10.72-32.16-.14-.78-.26-1.55-.37-2.33-1.68-11.7-.49-23.69,7.48-33.13,2.34-2.77,5.85-5.64,10.19-8.56.35-.24.72-.48,1.08-.72.45-.3.91-.59,1.38-.89,1.05-.67,2.14-1.33,3.27-2,.66-.39,1.34-.79,2.03-1.18,17.85-10.27,43.86-21.1,65.65-31.35.08-.04.17-.08.25-.12,2.09-.98,4.14-1.96,6.13-2.93.04-.02.07-.03.11-.05,1.35-.66,2.68-1.31,3.98-1.97,0,0,0,0,.01,0,5.66-2.84,10.81-5.61,15.19-8.3.73-.45,1.45-.9,2.14-1.35,2.38-1.54,4.48-3.05,6.24-4.53,1.55-1.3,3.09-2.49,4.61-3.6,8.21-5.97,16.03-9.2,23.94-10.2,1.34-.17,2.68-.27,4.03-.32,10.78-.34,21.88,3.23,34.51,9.44,17.39,8.53,27.66,11.13,40.02,11.3,5.61.07,11.64-.35,18.97-.96,10.97-.91,22.8-.72,32.29-.26.06,0,.13,0,.19,0,3.67.18,6.98.4,9.76.61.63.05,1.23.09,1.8.14,1.12.09,2.13.18,3,.26,2.45.22,3.87.38,3.87.38v.09c.53-.06,2.53-.27,5.57-.53.42-.04.85-.07,1.31-.11.42-.03.86-.07,1.31-.1.87-.07,1.8-.13,2.77-.2.07,0,.14,0,.22-.01,1.46-.1,3.03-.2,4.69-.29.07,0,.13,0,.2-.01,9.84-.54,22.77-.85,34.68.14,4.4.36,8.34.66,11.99.83,1.22.06,2.41.1,3.57.12,1.16.02,2.3.03,3.42.01.02,0,.03,0,.05,0,1.09-.02,2.16-.05,3.22-.1.06,0,.12,0,.17,0,10.91-.59,20.82-3.46,36.57-11.18,10.27-5.04,19.52-8.35,28.41-9.22,1.37-.14,2.73-.21,4.08-.23,3.38-.04,6.72.29,10.07,1.03.67.15,1.34.32,2,.5,3.34.91,6.69,2.25,10.08,4.05,4.07,2.16,8.2,4.98,12.45,8.55.46.39.96.78,1.47,1.17,1.24.95,2.6,1.92,4.09,2.9.41.27.83.54,1.25.81,3.48,2.23,7.53,4.51,11.99,6.85,1.86.97,3.78,1.95,5.77,2.94.66.33,1.32.65,1.99.98,1.26.62,2.55,1.24,3.85,1.87.9.43,1.81.87,2.73,1.3.63.3,1.27.6,1.91.9.97.45,1.94.91,2.92,1.36,3.09,1.43,6.25,2.88,9.45,4.33,1.37.62,2.75,1.25,4.13,1.87.97.44,1.94.88,2.91,1.31,1.26.57,2.53,1.14,3.79,1.72.26.12.53.24.79.36.98.44,1.96.89,2.94,1.34,1.59.72,3.18,1.45,4.76,2.17.7.32,1.39.64,2.08.96,3.18,1.46,6.32,2.93,9.38,4.39.47.22.94.45,1.41.67,17.09,8.2,31.72,16.29,38.02,23.75,5.85,6.93,8.05,15.22,8.14,23.77.02,1.62-.04,3.26-.17,4.89Z"/>
  <path class="cls-1" d="m510.48,751.64h30.51c-.91-4.3-1.95-8.53-3.31-12.67-4.81-1.25-19.61-5.27-38.35-13.63-2.11,3.34-8.16,12.09-18,19.89,7.27,3.92,14.29,7.15,20.79,9.79,2.21-2.14,5.19-3.38,8.38-3.38Z"/>
  <path class="cls-1" d="m585.75,724.04s-5.99,3.24-14.64,4.9c-1.08.21-2.16.39-3.22.55-9.54,3.78-17.44,6.32-22.63,7.96,2.96,4.17,5.01,9.2,6.09,14.19h13.57c3.47,0,6.7,1.47,8.95,3.97,8.4-3.32,17.73-7.61,27.34-13.12-10.24-9.1-15.47-18.45-15.47-18.45Z"/>
  <path class="cls-1" d="m533.43,796.48h-3.07c-.32,0-.53.57-.48,1.27l1.9,24.46c.03.34.23.61.44.61h2.11c.22,0,.39-.27.38-.61l-.67-24.47c-.02-.69-.29-1.26-.61-1.26Z"/>
  <path class="cls-1" d="m520.38,797.76c-.13-.69-.5-1.26-.82-1.26h-3.64s6.38,26.3,6.38,26.3h2.5c.22,0,.34-.27.28-.61l-4.7-24.43Z"/>
  <path class="cls-1" d="m574.52,776.74h-11.56c-1.2,0-2-1.22-1.49-2.28l4.95-10.34c.51-1.06-.29-2.28-1.49-2.28h-12.8c-.57,5.22-3.04,10.43-6.95,13.89.28.72.44,1.5.44,2.31,0,3.59-2.99,6.51-6.67,6.51s-6.67-2.91-6.67-6.51,2.99-6.51,6.67-6.51c.93,0,1.81.19,2.61.52.92-3.42,1.28-6.72,1.08-10.22h-32.16c-1.2,0-2,1.22-1.49,2.28l4.95,10.34c.51,1.06-.29,2.28-1.49,2.28h-11.56c-1.12,0-1.92,1.07-1.56,2.11l17.61,51.37c.22.65.85,1.1,1.56,1.1h38.42c.71,0,1.34-.44,1.56-1.1l17.61-51.37c.36-1.04-.44-2.11-1.56-2.11Zm-48.62,49.1h-5.22s-8.38-29.33-8.38-29.33h-1.24s-1.08-7.38-1.08-7.38l8.93-.02c2.08,0,4.34,3.89,5,8.26l3.73,25.02c.29,1.96-.49,3.45-1.74,3.45Zm11.34-3.44c-.03,1.96-1.07,3.46-2.31,3.45h-2.98c-1.24,0-2.43-1.5-2.67-3.46l-3.02-25.02c-.53-4.37.69-8.27,2.77-8.28h4.99c2.09-.02,3.71,3.88,3.64,8.26l-.41,25.05Zm6.5,3.47h-2.99c-1.25,0-2.2-1.5-2.12-3.47l1.01-25.06c.18-4.38,2.02-8.29,4.11-8.29h5c2.09-.02,3.09,3.89,2.31,8.28l-1.47,8.3h-3.26s1.06-7.91,1.06-7.91c.09-.69-.09-1.26-.41-1.26h-3.08c-.32,0-.63.58-.69,1.27l-2.05,24.49c-.03.34.13.61.35.61h2.11c.22,0,.43-.27.48-.61l1.06-7.94h-2.23s.45-4.52.45-4.52h5.46s-2.25,12.65-2.25,12.65c-.35,1.96-1.63,3.46-2.87,3.46Zm20.79-28.56l-2.05,6.04h-3.37s1.67-5.64,1.67-5.64c.21-.69.11-1.27-.21-1.26h-3.09c-.32,0-.72.58-.89,1.27l-1.95,7.95c-.08.33-.08.64.02.83l3.27,6.73c.44.91.39,2.35-.1,3.82l-1.83,5.39c-.67,1.96-2.19,3.46-3.44,3.46h-2.99c-1.25,0-1.96-1.51-1.56-3.47l.68-3.35h2.68s-.78,3.16-.78,3.16c-.08.34.03.61.25.61h2.12c.22,0,.48-.27.58-.61l1.39-4.71c.07-.24.07-.46-.01-.6l-3.36-5.97c-.56-1-.69-2.7-.3-4.61l1.82-9.02c.88-4.39,3.37-8.3,5.47-8.31h5.02c2.1-.02,2.47,3.9.98,8.29Z"/>
  <path class="cls-1" d="m311.67,387.49c15.68-30.09,10.56-22.46,21.57-41.77,11.01-19.31,11.01-21.31,11.01-21.31l-58.95,26.47s-30.03,9.28-30.37,27.58c-.33,18.3,5.01,22.57,5.01,22.57,0,0,.6-13.21,6.55-18.91,8.68-8.31,15.33-8.55,15.33-8.55l-6.84,11.84,8.23-.55s-16.82,17.76.87,42.83c16.98,24.08,19.71,39.97,19.9,41.2-.34-2.22-7.64-51.99,7.69-81.4Z"/>
  <path class="cls-2" d="m494.09,592.22l.18-.4s-.22-.01-.59-.05c.25.29.42.45.42.45Z"/>
  <path class="cls-1" d="m760.37,479.7c-10.94-32.31,3.42-58.7-12.81-95.91-16.22-37.21-16.02-42.76-20.92-57.1-3.88-11.36-21.58-31.98-44.64-30.06-23.05,1.92-29.99,16.41-70.1,17.74-40.06,1.33-68.94.37-69.02.37v-.1c-2.19.07-30.36.9-68.87-.38-40.11-1.33-47.05-15.81-70.1-17.74-23.05-1.92-40.76,18.7-44.64,30.06-4.9,14.34-4.7,19.89-20.92,57.1-16.22,37.21-1.86,63.6-12.81,95.91-12.36,36.5-31.59,50.4-31.59,50.4,0,0,48.28-16.32,57.09-74.76,4.96-32.91-4.73-33.3,6.71-66.82,11.45-33.52,19.1-49.98,34.66-62.77,15.56-12.79,52.84,4.99,52.84,4.99,0,0-31.4,25.36-42.85,43.45-11.45,18.08-16.14,11.91-14.38,56.68,1.76,44.77,2.65,53.95,19.08,73.8,4.34,5.24,7.09,12.69,8.8,20.83,1.1,8.42,2.38,20.52,2.5,32.1,2.22-2.79,4.92-5.67,8.23-8.52,3.46-11.54,13.26-38.53,32.8-53.27,25.31-19.09,44.35-18.45,44.35-18.45,0,0-27.93,15.7-42.37,37.16-6.96,10.35-10.3,17.04-11.9,21.2,19.62-6.26,41.55-1.03,41.55-1.03,0,0-34.1,3.02-48.97,18.24-25.93,26.55-22.37,74.22-22.34,74.63,1.35,10.33,2.86,19.89,3.98,26.58,2.15,24.42,15.83,36.7,15.83,36.7,0,0-9.67.22-13.66-3.54-4.43-4.18-9.42-9.81-9.42-9.81,0,0-2.89,6.45-4.34,19.19-1.42,12.53.77,21.27,4.34,29.08,3.56,7.81,38.41,20.41,61.73-3.95,19.66-20.53,42.57-54.99,52.96-73.51,10.39-18.52-22.22-22.25-43.3-38.09-21.08-15.84-28.59-24.58-13.75-46.45,14.68-21.61,67.59-17.82,68.8-17.73v.11s53.99-4.13,68.83,17.73c14.85,21.86,7.33,30.61-13.75,46.45-21.08,15.84-53.69,19.57-43.3,38.09,10.39,18.52,33.3,52.98,52.96,73.51,23.32,24.36,58.17,11.75,61.73,3.95,3.56-7.81,5.76-16.54,4.34-29.08-1.45-12.74-4.34-19.19-4.34-19.19,0,0-4.99,5.63-9.42,9.81-3.99,3.76-13.66,3.54-13.66,3.54,0,0,13.68-12.27,15.83-36.7,1.12-6.69,2.62-16.25,3.98-26.58.03-.41,3.58-48.08-22.34-74.63-14.87-15.22-48.97-18.24-48.97-18.24,0,0,21.92-5.23,41.55,1.03-1.6-4.16-4.94-10.85-11.9-21.2-14.44-21.46-42.37-37.16-42.37-37.16,0,0,19.04-.64,44.35,18.45,19.54,14.74,29.35,41.73,32.8,53.27,3.31,2.85,6.02,5.72,8.23,8.52.12-11.58,1.4-23.68,2.5-32.1,1.71-8.13,4.47-15.59,8.8-20.83,16.44-19.85,17.32-29.03,19.08-73.8,1.76-44.77-2.93-38.59-14.38-56.68-11.45-18.08-42.85-43.45-42.85-43.45,0,0,37.29-17.78,52.84-4.99,15.56,12.79,23.21,29.25,34.66,62.77,11.45,33.52,1.76,33.91,6.71,66.82,8.8,58.44,57.09,74.76,57.09,74.76,0,0-19.23-13.89-31.59-50.4Zm-263.52,155.25l1.93.26c.2.03.36-.13.3-.29l-.6-1.61c-.06-.17.1-.33.3-.3l4.51.62.16.02,4.48.62c.2.03.3.22.18.37l-1.12,1.37c-.11.14-.02.33.18.36l1.91.26c.18.03.28.19.19.33l-4.28,6.55c-.05.08-.16.12-.27.11l-2.97-.39-.15-.02-2.98-.4c-.11-.01-.2-.09-.23-.18l-1.84-7.41c-.04-.16.11-.29.3-.27Zm-2.77,19.79l1.7.21c.18.02.32-.1.26-.23l-.56-1.25c-.06-.13.08-.25.26-.23l3.98.5.14.02,3.96.5c.18.02.27.17.17.28l-.96,1.06c-.1.11,0,.26.17.28l1.69.21c.16.02.25.15.18.26l-3.64,5.11c-.04.06-.14.1-.24.08l-2.64-.32-.13-.02-2.64-.32c-.1-.01-.18-.07-.2-.14l-1.73-5.8c-.04-.12.1-.23.26-.21Zm-2.18,15.59l1.52.18c.16.02.28-.08.23-.18l-.52-1c-.05-.1.07-.2.23-.18l3.55.42h.12s3.54.43,3.54.43c.16.02.24.14.15.23l-.84.84c-.09.09,0,.21.15.22l1.51.18c.15.02.23.12.16.21l-3.16,4.09c-.04.05-.13.08-.21.07l-2.37-.27h-.12s-2.38-.28-2.38-.28c-.09-.01-.16-.06-.18-.11l-1.63-4.66c-.03-.1.08-.18.23-.16Zm-9.93-.97l-2.56,4.21c-.03.05-.11.08-.21.07l-2.42-.28h-.12s-2.43-.29-2.43-.29c-.09-.01-.17-.06-.2-.12l-2.35-4.8c-.05-.1.06-.19.21-.17l1.56.18c.16.02.27-.08.2-.19l-.67-1.03c-.07-.11.04-.21.2-.19l3.64.43h.13s3.62.44,3.62.44c.16.02.26.14.19.23l-.71.87c-.07.09.03.21.19.23l1.54.18c.15.02.25.13.2.21Zm1-15.77l-2.89,5.27c-.04.06-.13.1-.23.09l-2.7-.33-.13-.02-2.71-.33c-.1-.01-.19-.07-.23-.14l-2.63-5.98c-.06-.13.06-.23.23-.21l1.75.22c.18.02.3-.1.22-.23l-.75-1.29c-.08-.13.04-.26.23-.24l4.08.52.14.02,4.06.51c.18.02.29.18.21.29l-.81,1.09c-.08.11.03.27.21.29l1.73.22c.17.02.28.16.22.27Zm-11.54-22.12l1.99.27c.21.03.34-.13.26-.3l-.86-1.67c-.09-.17.05-.34.26-.31l4.64.64.16.02,4.62.64c.21.03.33.23.24.38l-.92,1.42c-.09.14.03.34.24.37l1.96.27c.19.03.31.2.24.34l-3.31,6.78c-.04.08-.15.13-.26.11l-3.05-.4-.15-.02-3.06-.41c-.12-.02-.22-.09-.25-.18l-2.99-7.67c-.06-.16.07-.3.26-.28Zm-26.47-3.63l2.05.28c.21.03.32-.14.21-.32l-1.13-1.73c-.12-.18,0-.35.21-.32l4.78.66.17.02,4.76.66c.21.03.37.24.3.39l-.71,1.47c-.07.15.09.35.3.38l2.02.28c.2.03.35.21.3.36l-2.28,7.02c-.03.09-.13.13-.24.12l-3.14-.42-.16-.02-3.15-.42c-.12-.02-.23-.09-.29-.19l-4.23-7.94c-.09-.17.02-.31.22-.29Zm3.49,21.17l1.79.23c.19.02.29-.11.19-.24l-.96-1.34c-.1-.14,0-.27.19-.25l4.19.53.15.02,4.17.53c.19.02.32.19.26.3l-.64,1.13c-.07.12.07.27.26.3l1.77.22c.17.02.3.16.26.28l-2.08,5.44c-.03.07-.11.1-.22.09l-2.77-.34-.14-.02-2.78-.34c-.1-.01-.21-.07-.25-.15l-3.59-6.17c-.08-.13.03-.24.2-.22Zm13.07,17.97l-1.91,4.34c-.02.05-.1.08-.2.07l-2.48-.28h-.12s-2.48-.3-2.48-.3c-.09-.01-.18-.06-.22-.12l-3.12-4.94c-.07-.1.03-.19.18-.17l1.6.19c.17.02.26-.08.17-.19l-.84-1.06c-.09-.11,0-.21.17-.19l3.72.44.13.02,3.71.44c.17.02.29.15.23.24l-.58.89c-.06.09.06.22.23.24l1.58.18c.15.02.27.13.23.22Zm-2.68-288.07s13.88,12.26,19.86,14.66c10.81,4.35,22.66,3.22,22.66,3.22,0,0-10.49,12.32-22.66,7.5-21.77-8.62-19.86-25.38-19.86-25.38Zm36.58,64.79c-.53.01-1.02,0-1.54,0-5.87,8.97-25.61,33.68-53.26,11.39-22.01-17.75,2.86-44.94,2.86-44.94l.25.13c-2.24-1.84-4.7-3.48-7.47-4.83-12.95-6.3-32.28-3.92-32.28-3.92,0,0,23.12-26.35,52.86,1.91,18.2,17.3,30.76,24.51,41.27,23.98,22.71-1.14,18.79-24.68,18.79-24.68,0,0,19.16,39.87-21.5,40.95Zm50.13,6.11v-.7c-.85-4.26-6.16-32.27-6.16-64.32s5.01-54.25,6.11-58.93v-.77s6.32,24.77,6.32,59.82-6.27,64.9-6.27,64.9Zm31.3,186.92l1.91-.26c.2-.03.3-.22.18-.36l-1.12-1.37c-.12-.14-.02-.34.18-.37l4.48-.62.16-.02,4.51-.62c.2-.03.36.13.3.3l-.6,1.61c-.06.16.1.32.3.29l1.93-.26c.19-.03.34.11.3.27l-1.84,7.41c-.02.09-.11.16-.23.18l-2.98.4-.15.02-2.97.39c-.11.01-.22-.03-.27-.11l-4.28-6.55c-.09-.14,0-.31.19-.33Zm4.2,19.47l1.69-.21c.18-.02.26-.17.17-.28l-.96-1.06c-.1-.11-.01-.26.17-.28l3.96-.5.14-.02,3.98-.5c.18-.02.32.1.26.23l-.56,1.25c-.06.13.08.25.26.23l1.7-.21c.17-.02.3.08.26.21l-1.73,5.8c-.02.07-.1.13-.2.14l-2.64.32-.13.02-2.64.32c-.1.01-.2-.02-.24-.08l-3.64-5.11c-.08-.11.01-.24.18-.26Zm11.57,19.06c-.02.06-.09.1-.18.11l-2.38.27h-.12s-2.37.28-2.37.28c-.09.01-.18-.02-.21-.07l-3.16-4.09c-.07-.09.02-.19.16-.21l1.51-.18c.16-.02.24-.14.15-.22l-.84-.84c-.09-.09,0-.21.15-.23l3.54-.42h.12s3.55-.43,3.55-.43c.16-.02.28.08.23.18l-.52,1c-.05.1.07.2.23.18l1.52-.18c.15-.02.27.07.23.16l-1.63,4.66Zm21.62-6.99l-2.35,4.8c-.03.06-.11.11-.2.12l-2.43.28h-.12s-2.42.29-2.42.29c-.09.01-.17-.02-.21-.07l-2.56-4.21c-.05-.09.05-.2.2-.21l1.54-.18c.16-.02.26-.14.19-.23l-.71-.87c-.07-.09.03-.22.19-.23l3.62-.43h.13s3.64-.44,3.64-.44c.16-.02.27.08.2.19l-.67,1.03c-.07.11.04.2.2.19l1.56-.18c.15-.02.26.07.21.17Zm.23-16.02l-2.63,5.98c-.03.07-.12.13-.23.14l-2.71.33-.13.02-2.7.33c-.1.01-.19-.02-.23-.09l-2.89-5.27c-.06-.11.05-.25.22-.27l1.73-.22c.18-.02.29-.18.21-.29l-.81-1.09c-.08-.11.03-.27.21-.29l4.06-.51.14-.02,4.08-.52c.18-.02.3.1.23.24l-.75,1.29c-.08.13.04.26.23.23l1.75-.22c.17-.02.29.09.23.21Zm.29-20.4l-2.99,7.67c-.04.09-.14.17-.25.18l-3.06.41-.15.02-3.05.4c-.11.02-.22-.03-.26-.11l-3.31-6.78c-.07-.14.05-.32.24-.34l1.96-.27c.2-.03.33-.23.24-.37l-.92-1.42c-.1-.15.03-.35.24-.38l4.62-.64.16-.02,4.64-.64c.21-.03.35.14.26.31l-.86,1.67c-.09.17.05.33.26.3l1.99-.27c.19-.03.33.11.26.28Zm13.26-2.13l2.02-.28c.21-.03.37-.23.3-.38l-.71-1.47c-.07-.15.09-.36.3-.39l4.76-.66.17-.02,4.78-.66c.22-.03.33.14.21.32l-1.13,1.73c-.11.18,0,.34.21.32l2.05-.28c.2-.03.31.12.22.29l-4.23,7.94c-.05.1-.17.17-.29.19l-3.15.42-.16.02-3.14.42c-.12.02-.22-.03-.24-.12l-2.28-7.02c-.05-.15.1-.33.3-.36Zm-1.9,20.82l1.77-.22c.18-.02.32-.18.26-.3l-.64-1.13c-.07-.12.07-.28.26-.3l4.17-.53.15-.02,4.19-.53c.19-.02.29.11.19.25l-.96,1.34c-.1.14,0,.27.19.24l1.79-.23c.17-.02.28.09.2.22l-3.59,6.17c-.04.08-.14.14-.25.15l-2.78.34-.14.02-2.77.34c-.1.01-.19-.02-.22-.09l-2.08-5.44c-.04-.11.09-.26.26-.28Zm-1.49,16.32l1.58-.18c.16-.02.29-.15.23-.24l-.58-.89c-.06-.09.06-.22.23-.24l3.71-.44.13-.02,3.72-.44c.17-.02.26.08.17.19l-.84,1.06c-.09.11,0,.21.17.19l1.6-.19c.16-.02.25.07.18.17l-3.12,4.94c-.04.06-.13.11-.22.12l-2.48.28h-.12s-2.48.3-2.48.3c-.09.01-.17-.02-.2-.07l-1.91-4.34c-.04-.09.08-.2.23-.22Zm-12.1-273.17c5.98-2.4,19.86-14.66,19.86-14.66,0,0,1.91,16.75-19.86,25.38-12.17,4.82-22.66-7.5-22.66-7.5,0,0,11.85,1.13,22.66-3.22Zm74.71,7.96s-19.33-2.37-32.28,3.92c-2.77,1.35-5.22,2.99-7.47,4.83l.25-.13s24.87,27.19,2.86,44.94c-27.64,22.29-47.38-2.42-53.26-11.39-.51,0-1.01.01-1.54,0-40.66-1.08-21.5-40.95-21.5-40.95,0,0-3.92,23.54,18.79,24.68,10.5.53,23.06-6.68,41.27-23.98,29.75-28.27,52.86-1.91,52.86-1.91Z"/>
  <path class="cls-1" d="m800.61,350.99l-58.95-26.47s0,2.01,11.01,21.31c11.01,19.31,5.89,11.68,21.57,41.77,15.33,29.41,8.02,79.18,7.69,81.4.19-1.23,2.92-17.12,19.9-41.2,17.69-25.07.87-42.83.87-42.83l8.23.55-6.84-11.84s6.64.24,15.33,8.55c5.95,5.7,6.55,18.91,6.55,18.91,0,0,5.34-4.26,5.01-22.57-.33-18.3-30.37-27.58-30.37-27.58Z"/>
  <path class="cls-1" d="m513.31,595.93c.42,7.78,20.05,18.43,20.05,18.43l9.6-21.23v.1s9.6,21.23,9.6,21.23c0,0,19.63-10.65,20.05-18.43.42-7.78-9.31,4.51-13.67-5.16-2.34-5.18-1.18-14.38,20.86-11.22,19.18,2.75,14.09,10.3,12.44,12.21,3.01-.33,16.49-2.67,11.03-18.27-6.13-17.51-60.32-15.19-60.32-15.19-.94-.04-54.23-2.27-60.3,15.09-5.46,15.6,8.01,17.94,11.03,18.27-1.65-1.92-6.74-9.46,12.44-12.21,22.04-3.17,23.2,6.04,20.86,11.22-4.36,9.66-14.1-2.63-13.67,5.16Z"/>
  <path class="cls-2" d="m591.82,592.33s.17-.16.42-.45c-.37.04-.59.05-.59.05l.18.4Z"/>
  <path class="cls-1" d="m531.07,721.28c7.19,3.69,16.13,3.69,23.31,0h0c11.91-6.11,13.43-18.79,6.22-29.3-5.64-8.23-17.66-35.78-17.66-35.78,0,0-12.39,27.54-18.1,35.78-7.26,10.47-5.69,23.19,6.22,29.3Z"/>
  <path class="cls-1" d="m627.56,451.51c1.73.36,3.55.47,5.4.26,9.42-1.05,16.2-9.53,15.15-18.95-.67-6.02-4.38-10.95-9.43-13.46-.95,1.11-1.88,2.24-2.81,3.36,2.64,2.65,4.44,6.18,4.88,10.18.97,8.75-4.82,16.68-13.19,18.61Z"/>
  <path class="cls-1" d="m628.66,437.22c-.19-1.69-1.26-3.06-2.7-3.72-1.99,1.78-4.15,3.41-6.55,4.84.33,2.51,2.61,4.31,5.13,4.03,2.56-.28,4.4-2.59,4.12-5.15Z"/>
  <path class="cls-1" d="m450.48,432.78c.45-4.01,2.25-7.53,4.88-10.18-.93-1.13-1.87-2.25-2.81-3.36-5.05,2.51-8.76,7.44-9.43,13.46-1.05,9.42,5.74,17.9,15.15,18.95,1.85.21,3.67.1,5.4-.26-8.38-1.93-14.16-9.86-13.19-18.61Z"/>
  <path class="cls-1" d="m462.57,437.1c-.28,2.56,1.56,4.86,4.12,5.15,2.53.28,4.81-1.52,5.13-4.03-2.4-1.43-4.56-3.06-6.55-4.84-1.44.66-2.51,2.03-2.7,3.72Z"/>
</svg>