<?xml version="1.0" encoding="UTF-8"?>
<svg id="Layer_1" data-name="Layer 1" xmlns="http://www.w3.org/2000/svg" version="1.1" viewBox="0 0 1080 1080">
  <defs>
    <style>
      .cls-1 {
        fill: #fcd10d;
      }

      .cls-1, .cls-2, .cls-3, .cls-4 {
        stroke-width: 0px;
      }

      .cls-2 {
        fill: #044c39;
      }

      .cls-3 {
        fill: #4a2c1f;
      }

      .cls-4 {
        fill: #fff;
      }
    </style>
  </defs>
  <path class="cls-1" d="M533.6,930c.4-6.1-13.8-24.4-26.8-36.7-16.5-14.3-28.5-37.9-29-38.9l-.2-.4c-5.8-13.2-14.7-23.7-19.8-29.1-32.7,11.8-52.7,42.8-52.9,43.1l-39.3,62.5,20.6-70.9c5.5-18.7-2.2-46.5-12.3-68.8-25.3,20.6-45.9,52.6-46.1,52.9l-38.9,57.1,18-52c2.3-6.6,2.9-57.4,1.7-84.8-24.1,1.5-58.6,15.6-59,15.7l-31.9,13.1,19.5-28.5c12.5-18.2,22.3-49.4,27.9-69.7-8.9,5.2-18.7,11.7-25.2,16.2l-25.5,17.6,9.8-29.4c9.7-28.9,13-55.3,14.1-71.9-7.8,3.3-14.8,5.1-15.9,5.4l-22.1,5.6,10.4-20.3c9.3-18.3,12.6-45.5,13.7-63.2-1.4,1.1-2.6,2.2-3.5,3l-17.3,15.8v-23.4c0-23.9,17.4-51.2,19.4-54.2l.5-.7h.1c8.9-11.1,14.9-26.4,18.4-37.5-3.5,0-6-.4-6.3-.4l-21.9-3.1,16.4-14.8c10.6-9.6,16.4-19.3,19.6-26.8-3.4-.4-5.8-1-6.1-1.1l-17.9-5.3,14-12.3c17.2-15.2,4.7-45.1,4.6-45.4-12.8-30.1-19.2-58.3-19.1-84,0-19.2,3.9-30.4,4.6-32.4,12.2-36.4,45.4-47.1,46.9-47.6h.4c9.2-2.4,19-3.6,29.2-3.6,34.6,0,63.6,13.2,66.8,14.7,8.7,3.5,15.7,5.9,21.2,7.6l-4.5-15.1,18.1,5.1c6.9,2,13.8,3,20.2,3s7.9-.4,11-1c-1.1-1.8-1.9-3.1-2.1-3.6l-13.1-25,26.1,10.7c5.8,2.4,12.1,3.5,17.2,4-.3-.3-.6-.7-.9-1l-45.8-52.1,59,36.6c5.4,3.4,15.7,6.1,26.2,7.9-.3-.5-.7-1-1-1.5l-12.8-17.8,21.9,1.5c7.8.5,23.8,7.7,37,14.2,13.4-7.3,37-15.9,39.9-17l40.7-14.7-29.6,31.5c-3.4,3.6-5,6.3-5.7,8,1.9.6,4.9,1.1,9.2,1.1s6.5-.3,7.9-.5c20.4-6.8,39.1-7.3,44.4-7.3s2.2,0,2.2,0l53.2,2.2-41.4,14.7c2.5.1,3.9.3,4,.3l38.1,4.2-10,4.4,55.9-17.8-28.8,21.9c17.4-6.6,33.1-14.5,33.4-14.6h.3c15.5-7.1,31.4-10.6,47.2-10.6,23,0,37.6,7.3,39.2,8.2,39.2,19.8,37.1,67.9,37,69.9-2,37.3-22.7,82.3-23.5,84.1-17.3,39.4-.2,57.2.5,58l27.5,27.1-31.9-8.3c9.5,13.5,23,28.7,29.2,34.9l21.6,21.6-40.8-13.3-.8-.5c-2.3-1.5-8.2-2.9-15.4-3.9,4.1,16.9,17.1,36.7,22.5,43.9,14.8,19.7,24.3,40.1,24.7,40.9l.2.4,22,55.7-29.9-36.7c-2.2-2.2-14.7-9.3-25.9-14.2,2.1,10.2,3.4,20,3.5,20.6v.4c3.3,40.3,26,76.6,26.2,77l30.1,47.2-44.9-33.3c-2.8-2.1-9.9-4.2-18.6-5.9,6.5,22.6,24.1,60.2,30.8,73.4l23.2,46.4-39.2-34c-6.6-5.7-22.8-11.2-38.4-15.1,3.5,24.3,13.6,67.2,14.1,69.3l9.3,39.1-27-29.7c-2.4-2.7-6.1-5.7-10.6-8.7-3.7,30.8,3.7,61.3,3.8,61.7l6,23.7-21.2-12.3c-12.3-7.2-34.3-32.6-47.6-49-9.8,17.7-18.4,48.2-21.2,60.1l-8.4,35.3-11.5-34.4c-3.2-9.7-19.3-26.1-34.1-38.9-14.4,17.9-30.6,49.5-30.8,49.8l-11.4,22.3-7.6-23.9c-3.7-11.7-14.9-24.3-22.5-32-10.1,14.7-22.9,28.9-24.6,30.7l-.2.3-.3.2c-19.7,17.8-42.1,52.7-42.3,53.1l-21.5,33.6,2.4-39.8Z"/>
  <path class="cls-2" d="M541,930.5c.7-11.6-20.9-34.7-29.2-42.6-15.5-13.3-26.9-35.8-27.4-36.7-7.8-17.7-20.6-30.7-24.5-34.5-38.1,11.5-60.9,47.2-61.1,47.5l-11.4,18.2,6-20.6c8.5-29.2-10.8-70.8-16.6-82.1-29.7,20.8-54.7,59.8-55,60.3l-7.8,11.4c3.3-9.5,3.2-73.2,1.7-94.6-.9,0-1.9,0-2.9,0-25.6,0-65.5,16.3-65.9,16.4l-9.3,3.8,5.7-8.3c17.2-25.2,29.3-72.4,33-88.1-11.3,4.9-32.3,18.7-40.6,24.4l-7.4,5.1,2.9-8.6c13-38.7,14.8-73.1,15-86.3-10.4,6.6-24.8,10.3-25.6,10.4l-6.4,1.6,3-5.9c13.2-25.9,14.8-67.5,15-80.5-5.8,2.6-13.4,9-16.4,11.6l-5,4.6v-6.8c0-22.1,17.5-49,18.2-50.2l.2-.3c13-16,20.1-40.1,22.7-50.2-3.6.7-7,.9-9.5.9s-5.6-.3-5.7-.3l-6.4-.9,4.8-4.3c17.5-15.8,23.1-32.2,24.9-39.9-1.9.4-3.9.6-6,.6-4.6,0-8.1-1-8.3-1.1l-5.2-1.5,4.1-3.6c21.4-18.9,6.6-53.5,6.4-53.8-29.7-69.9-15-109.4-14.3-111,11-33,40.9-42.6,42.1-43,8.7-2.2,17.9-3.2,27.4-3.2,34.3,0,62.7,13.5,63.9,14.1,19.6,7.8,31,10.7,37.4,11.8-3.8-4.6-5.4-9.7-5.5-10.1l-1.6-5.2,5.3,1.5c7.6,2.2,15.1,3.2,22.2,3.2,11,0,19-2.6,23.4-4.5-4.7-4.5-7.9-10.6-8.1-10.9l-3.8-7.3,7.6,3.1c10.8,4.4,23,4.9,27.7,4.9s2.8,0,2.8,0c1.3,0,1.7-.3,1.7-.3.6-1.3-2.7-7.6-7.6-13.2l-13.3-15.2,17.2,10.6c11,6.8,34.7,10,42.5,10.9-.4-2.9-3.2-9-7.5-15l-3.7-5.2,6.4.4c8.2.6,31.1,11.9,37.7,15.3,11.8-7.4,40.9-18,42.2-18.4l11.8-4.3-8.6,9.2c-10.2,10.8-8.1,16.4-7.7,17.3,2.9,2.7,8.8,4.2,16.5,4.2s8.6-.5,9.6-.7c19.6-6.6,37.7-7.1,42.7-7.1s1.9,0,1.9,0l15.5.6-14.6,5.2c-6.4,2.3-11.2,8-14.1,12.4,7.8-1.1,14.6-1.4,19.3-1.4s9,.4,9.2.4l11.1,1.2-10.2,4.5c-4.1,1.8-6.6,4-7.1,6.2-.3,1.2,0,2.4.4,3.2,18.8-1.1,35.8-6.4,35.9-6.5l16.6-5.3-13.9,10.5c-3,2.3-4,5.2-4.2,7.3,24.6-4,63.7-23.6,64.1-23.8,14.6-6.5,29.5-9.8,44.2-9.8,21.6,0,35.2,7,35.8,7.3,35.1,17.7,33.2,61.2,33.1,63.1-2,35.9-22,79.6-22.9,81.5-19.4,44.4,1.1,65.4,2,66.2l8,7.9-10.9-2.8c-4.4-1.2-9.4-4.1-13.3-6.6,5.2,15.8,32.4,46.7,40.9,55.2l-10.8-3.5c-5.9-3.8-20.1-5.4-27.9-5.9.8,24.2,25,56.2,25.2,56.5,14.4,19.1,23.5,38.8,23.9,39.6l4.6,11.7c-3.5-4.3-29.5-18.1-42-21.2,3.8,12.1,6.5,32.2,6.7,33.2,3.4,42.4,27,80,27.3,80.3l8.7,13.7-13.1-9.7c-6.7-4.9-23.3-7.7-32.4-8.8,3.2,24.3,33.4,84.9,33.7,85.5l6.7,13.5-11.4-9.9c-11.3-9.8-41.2-16.8-51.6-19,1.2,20.7,15.2,79.8,15.4,80.5l2.7,11.4-7.8-8.6c-6.1-6.7-16.2-12.8-21.4-15.8-7.6,35.8,2,75,2.1,75.4l1.7,6.9-6.2-3.6c-13.9-8.1-43.5-44.5-51.9-55-15.3,18.9-27.6,70.3-27.8,70.8l-2.4,10.3-3.3-10c-5.2-15.6-33.8-40.2-41.8-46.9-16.1,17-36.4,56.4-36.6,56.8l-3.3,6.5-2.2-6.9c-5.5-17.1-23.9-34.9-30.9-41.1-10.2,16.8-27.8,36.3-28.6,37.1-20.5,18.5-43.4,54.2-43.6,54.6l-6.2,9.8.7-11.6Z"/>
  <path class="cls-2" d="M541,930.5c.7-11.6-20.9-34.7-29.2-42.6-15.5-13.3-26.9-35.8-27.4-36.7-7.8-17.7-20.6-30.7-24.5-34.5-38.1,11.5-60.9,47.2-61.1,47.5l-11.4,18.2,6-20.6c8.5-29.2-10.8-70.8-16.6-82.1-29.7,20.8-54.7,59.8-55,60.3l-7.8,11.4c3.3-9.5,3.2-73.2,1.7-94.6-.9,0-1.9,0-2.9,0-25.6,0-65.5,16.3-65.9,16.4l-9.3,3.8,5.7-8.3c17.2-25.2,29.3-72.4,33-88.1-11.3,4.9-32.3,18.7-40.6,24.4l-7.4,5.1,2.9-8.6c13-38.7,14.8-73.1,15-86.3-10.4,6.6-24.8,10.3-25.6,10.4l-6.4,1.6,3-5.9c13.2-25.9,14.8-67.5,15-80.5-5.8,2.6-13.4,9-16.4,11.6l-5,4.6v-6.8c0-22.1,17.5-49,18.2-50.2l.2-.3c13-16,20.1-40.1,22.7-50.2-3.6.7-7,.9-9.5.9s-5.6-.3-5.7-.3l-6.4-.9,4.8-4.3c17.5-15.8,23.1-32.2,24.9-39.9-1.9.4-3.9.6-6,.6-4.6,0-8.1-1-8.3-1.1l-5.2-1.5,4.1-3.6c21.4-18.9,6.6-53.5,6.4-53.8-29.7-69.9-15-109.4-14.3-111,11-33,40.9-42.6,42.1-43,8.7-2.2,17.9-3.2,27.4-3.2,34.3,0,62.7,13.5,63.9,14.1,19.6,7.8,31,10.7,37.4,11.8-3.8-4.6-5.4-9.7-5.5-10.1l-1.6-5.2,5.3,1.5c7.6,2.2,15.1,3.2,22.2,3.2,11,0,19-2.6,23.4-4.5-4.7-4.5-7.9-10.6-8.1-10.9l-3.8-7.3,7.6,3.1c10.8,4.4,23,4.9,27.7,4.9s2.8,0,2.8,0c1.3,0,1.7-.3,1.7-.3.6-1.3-2.7-7.6-7.6-13.2l-13.3-15.2,17.2,10.6c11,6.8,34.7,10,42.5,10.9-.4-2.9-3.2-9-7.5-15l-3.7-5.2,6.4.4c8.2.6,31.1,11.9,37.7,15.3,11.8-7.4,40.9-18,42.2-18.4l11.8-4.3-8.6,9.2c-10.2,10.8-8.1,16.4-7.7,17.3,2.9,2.7,8.8,4.2,16.5,4.2s8.6-.5,9.6-.7c19.6-6.6,37.7-7.1,42.7-7.1s1.9,0,1.9,0l15.5.6-14.6,5.2c-6.4,2.3-11.2,8-14.1,12.4,7.8-1.1,14.6-1.4,19.3-1.4s9,.4,9.2.4l11.1,1.2-10.2,4.5c-4.1,1.8-6.6,4-7.1,6.2-.3,1.2,0,2.4.4,3.2,18.8-1.1,35.8-6.4,35.9-6.5l16.6-5.3-13.9,10.5c-3,2.3-4,5.2-4.2,7.3,24.6-4,63.7-23.6,64.1-23.8,14.6-6.5,29.5-9.8,44.2-9.8,21.6,0,35.2,7,35.8,7.3,35.1,17.7,33.2,61.2,33.1,63.1-2,35.9-22,79.6-22.9,81.5-19.4,44.4,1.1,65.4,2,66.2l8,7.9-10.9-2.8c-4.4-1.2-9.4-4.1-13.3-6.6,5.2,15.8,32.4,46.7,40.9,55.2l-10.8-3.5c-5.9-3.8-20.1-5.4-27.9-5.9.8,24.2,25,56.2,25.2,56.5,14.4,19.1,23.5,38.8,23.9,39.6l4.6,11.7c-3.5-4.3-29.5-18.1-42-21.2,3.8,12.1,6.5,32.2,6.7,33.2,3.4,42.4,27,80,27.3,80.3l8.7,13.7-13.1-9.7c-6.7-4.9-23.3-7.7-32.4-8.8,3.2,24.3,33.4,84.9,33.7,85.5l6.7,13.5-11.4-9.9c-11.3-9.8-41.2-16.8-51.6-19,1.2,20.7,15.2,79.8,15.4,80.5l2.7,11.4-7.8-8.6c-6.1-6.7-16.2-12.8-21.4-15.8-7.6,35.8,2,75,2.1,75.4l1.7,6.9-6.2-3.6c-13.9-8.1-43.5-44.5-51.9-55-15.3,18.9-27.6,70.3-27.8,70.8l-2.4,10.3-3.3-10c-5.2-15.6-33.8-40.2-41.8-46.9-16.1,17-36.4,56.4-36.6,56.8l-3.3,6.5-2.2-6.9c-5.5-17.1-23.9-34.9-30.9-41.1-10.2,16.8-27.8,36.3-28.6,37.1-20.5,18.5-43.4,54.2-43.6,54.6l-6.2,9.8.7-11.6Z"/>
  <path class="cls-2" d="M594.4,161.6s-32.7,11.8-43,19.1c0,0-29.4-15.1-38.1-15.7,0,0,10.9,15.1,7.3,20,0,0-32.4-3-46.3-11.7,0,0,15.9,18.1,3.9,18.5,0,0-16.9,1.1-31.8-5.1,0,0,4.8,9.3,11,12.9,0,0-19.4,12.9-52.1,3.6,0,0,3.2,10.5,11.2,13.9,0,0-6.3,4.3-47.3-12,0,0-44.8-21.6-89.1-10.7,0,0-29.5,9.2-40.2,41.2,0,0-15.3,39.2,14.3,108.7,0,0,16.2,36.6-7.2,57.3,0,0,9,2.7,17.1-1,0,0-1.5,23.7-26.7,46.5,0,0,9.9,1.4,18.8-1.8,0,0-6.9,34.9-24.4,56.4,0,0-17.7,27.1-17.7,48.5,0,0,13.5-12.4,21.4-13.5,0,0,.9,54.1-15.4,86,0,0,19.7-5,29.3-13.4,0,0,1.7,42.7-15.2,93.2,0,0,35.1-24.3,46.4-26.4,0,0-13.4,63.1-34.7,94.3,0,0,46.7-19.2,72.7-16.4,0,0,5.2,71.6.8,84.3,0,0,26.8-42.2,58.6-63,0,0,28.7,51.8,18.3,87.3,0,0,23.8-37.9,64.5-49.3,0,0,16.8,14.7,26.4,36.5,0,0,11.5,22.7,26.8,35.9,0,0,31.1,29.4,30.2,45,0,0,23.1-36.2,43.9-55,0,0,20.4-22.4,30.1-39.8,0,0,27.4,22.6,34.5,44.9,0,0,22.1-43.2,39-59.5,0,0,38.5,30.8,44.9,50,0,0,13.7-57.6,30.8-74.8,0,0,37.6,48,53.3,57.1,0,0-10.8-42.7-1.3-80.6,0,0,16.8,8.4,25.7,18.2,0,0-16.2-68-15.5-84.9,0,0,42,7.8,56.6,20.4,0,0-34-67.9-34.3-90.2,0,0,27.5,2.3,37.5,9.7,0,0-24.2-38-27.7-81.5,0,0-3.9-28.1-8.5-37.8,0,0,33.2,7.4,39.4,15,0,0-9.3-19.9-23.6-39,0,0-27.2-35.7-25.8-61.5,0,0,23.6.7,32.5,6.5,0,0-36.1-36.1-35.9-55.9,0,0,10.4,8.4,18.3,10.4,0,0-23.2-22.5-2.6-69.7,0,0,20.6-44.6,22.6-80.4,0,0,2.2-43.2-31.5-60.3,0,0-32.9-17.3-77.3,2.5,0,0-43.2,21.8-68.4,24.6,0,0-1.7-7.8,5.3-13.1,0,0-18.4,5.9-38.5,6.7,0,0-7.3-8.8,7.2-15.2,0,0-15.1-1.7-33.9,2.1,0,0,6.6-14.9,18.8-19.2,0,0-20.7-.8-43.8,7,0,0-21.1,3.5-29.1-4.5,0,0-5.6-7,7.9-21.3Z"/>
  <path class="cls-4" d="M594.4,161.6s-32.7,11.8-43,19.1c0,0-29.4-15.1-38.1-15.7,0,0,10.9,15.1,7.3,20,0,0-32.4-3-46.3-11.7,0,0,15.9,18.1,3.9,18.5,0,0-16.9,1.1-31.8-5.1,0,0,4.8,9.3,11,12.9,0,0-19.4,12.9-52.1,3.6,0,0,3.2,10.5,11.2,13.9,0,0-6.3,4.3-47.3-12,0,0-44.8-21.6-89.1-10.7,0,0-29.5,9.2-40.2,41.2,0,0-15.3,39.2,14.3,108.7,0,0,16.2,36.6-7.2,57.3,0,0,9,2.7,17.1-1,0,0-1.5,23.7-26.7,46.5,0,0,9.9,1.4,18.8-1.8,0,0-6.9,34.9-24.4,56.4,0,0-17.7,27.1-17.7,48.5,0,0,13.5-12.4,21.4-13.5,0,0,.9,54.1-15.4,86,0,0,19.7-5,29.3-13.4,0,0,1.7,42.7-15.2,93.2,0,0,35.1-24.3,46.4-26.4,0,0-13.4,63.1-34.7,94.3,0,0,46.7-19.2,72.7-16.4,0,0,5.2,71.6.8,84.3,0,0,26.8-42.2,58.6-63,0,0,28.7,51.8,18.3,87.3,0,0,23.8-37.9,64.5-49.3,0,0,16.8,14.7,26.4,36.5,0,0,11.5,22.7,26.8,35.9,0,0,31.1,29.4,30.2,45,0,0,23.1-36.2,43.9-55,0,0,20.4-22.4,30.1-39.8,0,0,27.4,22.6,34.5,44.9,0,0,22.1-43.2,39-59.5,0,0,38.5,30.8,44.9,50,0,0,13.7-57.6,30.8-74.8,0,0,37.6,48,53.3,57.1,0,0-10.8-42.7-1.3-80.6,0,0,16.8,8.4,25.7,18.2,0,0-16.2-68-15.5-84.9,0,0,42,7.8,56.6,20.4,0,0-34-67.9-34.3-90.2,0,0,27.5,2.3,37.5,9.7,0,0-24.2-38-27.7-81.5,0,0-3.9-28.1-8.5-37.8,0,0,33.2,7.4,39.4,15,0,0-9.3-19.9-23.6-39,0,0-27.2-35.7-25.8-61.5,0,0,23.6.7,32.5,6.5,0,0-36.1-36.1-35.9-55.9,0,0,10.4,8.4,18.3,10.4,0,0-23.2-22.5-2.6-69.7,0,0,20.6-44.6,22.6-80.4,0,0,2.2-43.2-31.5-60.3,0,0-32.9-17.3-77.3,2.5,0,0-43.2,21.8-68.4,24.6,0,0-1.7-7.8,5.3-13.1,0,0-18.4,5.9-38.5,6.7,0,0-7.3-8.8,7.2-15.2,0,0-15.1-1.7-33.9,2.1,0,0,6.6-14.9,18.8-19.2,0,0-20.7-.8-43.8,7,0,0-21.1,3.5-29.1-4.5,0,0-5.6-7,7.9-21.3Z"/>
  <g>
    <path class="cls-3" d="M362.8,256.3s-31.6,7.9-45.9,24.5c0,0,7.7,7.3,16.3,8.4,0,0-9.9,18.9-38.4,32.8,0,0-18.7-41.8-8.1-64.6,0,0,7.1-16.4,36.4-13.6,0,0,25.3,2.3,39.7,12.5Z"/>
    <path class="cls-3" d="M415.6,438.3s-33.6,2.6-70.7-12.6c0,0-42-24.9-59.2,15.3,0,0-16.5,49.6-28.2,63.1,0,0,8.5,1.2,16.7-3.8,0,0-3.4,19.5-12.7,44.7,0,0-8.3,22.7-9.3,31.1,0,0,15.2-12,25.9-11.7,0,0-.2,61.6-9.3,87.8,0,0,18.1-2.7,27.1-9.5,0,0,7.1,39.4-4.9,78,0,0,29.8.7,48.2-16.9,0,0,2,47.7,6.4,58.9,0,0,45.5-18.1,53.3-25.2,0,0,16.5,50.9,16.7,65.3,0,0,38.6-20.1,52.3-21.5,0,0,53.1,61.1,74.1,99.5,0,0,48.7-51.6,64.8-85.8,0,0,31.1,25.8,42.3,39.4,0,0,26.4-32.5,37.4-63.6,0,0,31.1,31.4,40.3,46.2,0,0,28.6-59.2,37.7-66.5,0,0,18.1,35.9,26.2,40.6,0,0,1.7-32.8,8.3-57,0,0,11.5,6.6,16.9,13.4,0,0-15.9-62.9-13.6-82.7,0,0,23.9,4.7,34.7,15.5,0,0-19.9-67-19.5-87.8,0,0,18.8,4.7,26.6,11.4,0,0-14.5-42-17.2-57.5,0,0-9.1-40.1-15.5-48.2,0,0,19.9,2.4,26.3,1,0,0-9.2-13.4-15-27.9,0,0-28.1-59.1-71-40.9,0,0-43.7,13.7-65.2,7.4,0,0,13.5,53.2,39.2,99.3,0,0-10.2-.1-16.6-2.5,0,0,17,34.6,23.2,65.6,0,0-11.3-.6-16.2-3,0,0,13.8,32.4,12.8,71.7,0,0-16.6-4.4-23.4-12.7,0,0-3.9,21.6-3.8,29.5,0,0-12.4-5-16.4-10.6,0,0-2.6,35.3-1.2,46.2,0,0-11.5-3.1-17.9-10.2,0,0-9.4,26.9-10.9,38.3,0,0-23.6-10.3-36.9-27.8,0,0-18.7,34-25.7,41.7,0,0-12.5-15.8-21.5-21.1,0,0-17.7,33.7-29.5,47,0,0-30.1-39.8-42-64.8,0,0-18.3,13-30.7,20.1,0,0-8-32.1-14.6-42.2,0,0-11.7,6-19.3,14.4,0,0-9.6-36.7-9.6-51.3,0,0-11,3.8-21.6,13.4,0,0-7.3-28.8-6.3-45.7,0,0-8.4,6.7-15.5,16.4,0,0-5.2-59.1.9-78.9,0,0-10.8,2.1-17.3,5.9,0,0,18.5-50,29.9-66.1,0,0-9.7,5-17.3,6.7,0,0,13.1-22.7,16.7-33.8,0,0,10.9-32.7,20.7-44.8Z"/>
    <path class="cls-2" d="M892.2,541.9s-9.3-19.9-23.6-39c0,0-27.2-35.7-25.8-61.5,0,0,23.6.7,32.5,6.5,0,0-36.1-36.1-35.9-55.9,0,0,10.4,8.4,18.3,10.4,0,0-23.2-22.5-2.6-69.7,0,0,20.6-44.6,22.6-80.4,0,0,2.2-43.2-31.5-60.3,0,0-32.9-17.3-77.3,2.5,0,0-43.2,21.8-68.4,24.6,0,0-1.7-7.8,5.3-13.1,0,0-18.4,5.9-38.5,6.7,0,0-7.3-8.8,7.2-15.2,0,0-15.1-1.7-33.9,2.1,0,0,6.6-14.9,18.8-19.2,0,0-20.7-.8-43.8,7,0,0-21.1,3.5-29.1-4.5,0,0-5.6-7,7.9-21.3,0,0-32.7,11.8-43,19.1,0,0-29.4-15.1-38.1-15.7,0,0,10.9,15.1,7.3,20,0,0-32.4-3-46.3-11.7,0,0,15.9,18.1,3.9,18.5,0,0-16.9,1.1-31.8-5.1,0,0,4.8,9.3,11,12.9,0,0-19.4,12.9-52.1,3.6,0,0,3.2,10.5,11.2,13.9,0,0-6.3,4.3-47.3-12,0,0-44.8-21.6-89.1-10.7,0,0-29.5,9.2-40.2,41.2,0,0-15.3,39.2,14.3,108.7,0,0,16.2,36.6-7.2,57.3,0,0,9,2.7,17.1-1,0,0-1.5,23.7-26.7,46.5,0,0,9.9,1.4,18.8-1.8,0,0-6.9,34.9-24.4,56.4,0,0-17.7,27.1-17.7,48.5,0,0,13.5-12.4,21.4-13.5,0,0,.9,54.1-15.4,86,0,0,19.7-5,29.3-13.4,0,0,1.7,42.7-15.2,93.2,0,0,35.1-24.3,46.4-26.4,0,0-13.4,63.1-34.7,94.3,0,0,46.7-19.2,72.7-16.4,0,0,5.2,71.6.8,84.3,0,0,26.8-42.2,58.6-63,0,0,28.7,51.8,18.3,87.3,0,0,23.8-37.9,64.5-49.3,0,0,16.8,14.7,26.4,36.5,0,0,11.5,22.7,26.8,35.9,0,0,31.1,29.4,30.2,45,0,0,23.1-36.2,43.9-55,0,0,20.4-22.4,30.1-39.8,0,0,27.4,22.6,34.5,44.9,0,0,22.1-43.2,39-59.5,0,0,38.5,30.8,44.9,50,0,0,13.7-57.6,30.8-74.8,0,0,37.6,48,53.3,57.1,0,0-10.8-42.7-1.3-80.6,0,0,16.8,8.4,25.7,18.2,0,0-16.2-68-15.5-84.9,0,0,42,7.8,56.6,20.4,0,0-34-67.9-34.3-90.2,0,0,27.5,2.3,37.5,9.7,0,0-24.2-38-27.7-81.5,0,0-3.9-28.1-8.5-37.8,0,0,33.2,7.4,39.4,15ZM789.9,198.9c52.1-12.6,68.9,20.5,68.9,20.5,12.2,24.5,5.1,64.1,5.1,64.1-6.3,26.9-26.7,70.6-26.7,70.6-11.1,25.5-11,38.1-11,38.1-8.4-12.3-6.8-28.3-6.8-28.3.4-15.4,17.3-53,17.3-53,10.8-24.1,13.9-46.5,13.9-46.5,3.2-46.7-38.8-47.9-38.8-47.9-27.2-5.1-83.7,24-83.7,24-19.7,7.7-33.6-6.9-33.6-6.9,56.1-26.7,95.4-34.8,95.4-34.8ZM766.6,288.6s8.7-.9,13.7-8.6c0,0-33.2-2.2-46-19.9,0,0-5.1-7.4-8-9,0,0,53.6-35.9,90.8-25.2,0,0,34.1,12.6,21.4,54.8,0,0-25.1,67.7-27.5,78.5,0,0-9.9-25.1-17.7-34.5,0,0,10.1-1.6,16-5.4,0,0-32.8-14.4-42.7-30.6ZM242.7,266.6s-.5-34.9,22.6-52c0,0,27.8-22,80.4-8.5,0,0,42.8,11.8,51.2,19.4,0,0,7.8,4.5,2.6,11.1,0,0-5.6,8.4-18.9,4.7,0,0-54-25.7-94.2-11.6,0,0-26.8,9.3-21.9,53,0,0,2.2,29.2,17.8,59.7,0,0,20.5,37-17.8,47.3,0,0,10.5-9.2,0-42.3,0,0-21.5-55.9-21.8-80.8ZM348.9,286.8s-14.3,24.5-44,38.2c0,0,11.2,3.8,15.9,2.8,0,0-17.3,18.5-25,30.2,0,0-2.3-11.2-11.8-35.1,0,0-13.7-26.8-9.7-58.4,0,0,.8-21.5,27.8-29.7,0,0,29.5-8.8,78.4,16.3,0,0-15.7,19.4-44.7,30.5,0,0,7.8,5.3,13,5.3ZM831.1,508.4c10.3,12.4,19.1,58.6,19.1,58.6,3.1,23.2,16,59.8,16,59.8-11.2-2.4-23.2-9.6-23.2-9.6-12,26.3,21.5,85.7,21.5,85.7-20.3-2.4-48.8-14.1-48.8-14.1,1,24.9,12.6,80.1,12.6,80.1-5.5-4.6-18.5-11.5-18.5-11.5-5.1,10.4-6.3,68.6-6.3,68.6-14.5-6.2-34.4-49-34.4-49-14.3,9.7-38.6,67.2-38.6,67.2-15.2-11.1-39.1-46-39.1-46-6.3,16.7-38.8,60.1-38.8,60.1-10.1-3.6-37.6-45-37.6-45-4.4,21-41.1,60.1-41.1,60.1-13.9,14.6-27.6,32.3-27.6,32.3-25.4-17.6-51.9-64.7-51.9-64.7-9.1-17.6-27-41.2-27-41.2-16.9,3-57.6,28.6-57.6,28.6-12.1-14.6-24-72.3-24-72.3-15.1,8.7-51.2,42.3-51.2,42.3-6.2-17.8-4.6-68.2-4.6-68.2-16.5,17.4-61.5,20.4-61.5,20.4,12.8-24.5,20-86.4,20-86.4-6.5,0-39.1,13.1-39.1,13.1,12.6-30.1,14-91.1,14-91.1-6.3,7-28.1,16.4-28.1,16.4,4.4-10.6,7.4-36.7,7.4-36.7,1.9-27.1,10.3-49.1,10.3-49.1-5.5.3-17.7,8-17.7,8,3.1-17.4,14.3-37.8,14.3-37.8,14.3-25.3,26-55.9,26-55.9-6.2,1.9-14.1,2.8-14.1,2.8,7.4-29.1,36.7-60.3,36.7-60.3,20.9-24.5,46-64,46-64,39.9-51.2,85.9-80.8,85.9-80.8,98.2-49.9,188.9-22.2,188.9-22.2,67.9,22.5,124.3,77.9,124.3,77.9,4.8,6.2,20.5,20.4,20.5,20.4,23.7,22.1,37.4,63,37.4,63,12.9,37.7,51,66.1,51,66.1-14.4.4-28-4.3-28-4.3,7.8,48,42.2,90.5,42.2,90.5-6.2-.5-35.2-11.7-35.2-11.7Z"/>
    <path class="cls-3" d="M796.9,270.9s-36.8,2-56-16.2c0,0,36.5-25.9,62.7-20.9,0,0,29,2.8,24.8,39.6,0,0-4.7,25.1-9.1,40.4,0,0-24.3-7-34.5-23.8,0,0,10.6-11.6,12.1-19.1Z"/>
    <path class="cls-3" d="M713.2,322s-153.7-158.7-317.3-4.1c0,0,26.2-4.5,52,18,0,0,24.2,20.8,52.5,10.2,0,0,29.8-8.4,44.5,16,0,0,22.4-23.4,54.7-10.3,0,0,33.2,12.6,73.2-13.7,0,0,26.5-14.4,40.5-16Z"/>
    <circle class="cls-2" cx="382.4" cy="322" r="4.5"/>
    <circle class="cls-2" cx="426.3" cy="434.6" r="4.2"/>
    <circle class="cls-2" cx="724.6" cy="331.3" r="5.2"/>
    <circle class="cls-2" cx="672.6" cy="434.6" r="4.2"/>
    <path class="cls-1" d="M801.2,405.6s-22.9-32.2-35.3-56.3c0,0-30.1-61.9-99.3-96.8,0,0-98.5-51.5-186.8-17.2,0,0-52,17.7-83.8,43.4,0,0-31,23.9-49.3,49.2,0,0-43.4,57.9-55,83.3,0,0,27.9-17.3,52.7-2,0,0,43.4,30.9,85.3,14.2,0,0,16.4-6.3,24-2.6,0,0-23.5,23.7-39.1,53.8,0,0-5.7,11.6-11.5,19.3,0,0,9.4-.1,14.4-2.8,0,0-12.1,18.2-15.5,34,0,0-8,21.4-19.7,35.1,0,0,11.7-.8,14.5-2.8,0,0-11.1,42.9-6,65.8,0,0,9.1-6.6,14-15.4,0,0,7.7,30.9,3.5,50.8,0,0,14-7.1,20.3-7.1,0,0,14.8,18.4,11.5,46.7,0,0,14.9-11.8,21.9-13.4,0,0,11.3,22.5,10.9,39.9,0,0,20.8-9.6,28.3-16.8,0,0,37.7,44.8,41.2,62.3,0,0,16.5-40.6,30.7-54.1,0,0,19.2,16.8,20.3,29.7,0,0,15.9-34.9,27.4-42,0,0,24.2,20.4,28.9,31.1,0,0,.2-37.7,5.3-49.4,0,0,14.4,11.5,21.7,14.8,0,0-6.4-27.7,0-49.1,0,0,9.6,10.1,17,13.8,0,0-2.7-27.7,0-37.1,0,0,12.7,5.7,18.4,20,0,0,1.3-23-5.8-48.6,0,0-3.8-14-2.8-22.8,0,0,8.8,6.6,15.1,8.8,0,0-28.5-54.8-30.6-71.8,0,0,14.8,5.1,21.9,11.8,0,0-10.8-19.4-17.1-28,0,0-12.9-21.5-16.9-33.1,0,0-15-35-30.2-44.7,0,0,15.4-1.1,39.9,6.1,0,0,36.9,11.8,76.3-12.4,0,0,18.1-13.3,48.5,13.9,0,0-1.7-13.3-8.9-21.7ZM504.9,237.6s55.5-19.6,151.7,21.9c0,0,68.1,29.2,94.7,90.1,0,0-46-19.5-92.7,9.6,0,0-29.4,24.2-65,5.1,0,0-31.4-12.4-48,9.1,0,0-17.3-18.2-45.2-7.3,0,0-28.3,9.5-49.8-5.8,0,0-48.4-34.8-98.4-20.1,0,0,46.2-75.5,152.6-102.5ZM672.6,476.7c5,15,15.6,29.1,15.6,29.1-3.7-3.2-14.6-6.8-14.6-6.8,18.8,34.3,25,67,25,67-2.6-2.1-6.9-3.6-6.9-3.6,9.3,22.7,9.1,58.4,9.1,58.4-6.9-5-13.6-7.6-13.6-7.6-3.1,7.6-1.2,37.7-1.2,37.7-4.3-5-15.7-9.8-15.7-9.8-5.7,13.8-3.8,43.9-3.8,43.9-6-1.9-20.3-19.6-20.3-19.6,1.2,20.7-5.2,44.4-5.2,44.4-4.8-2.9-19.6-19.6-19.6-19.6-11.7,8.8-27.2,38.6-27.2,38.6-3.1-8.2-19.3-26-19.3-26-7.4,3.6-34.3,43.2-34.3,43.2-5.5-15.1-36.5-49.4-36.5-49.4-3.1,5.7-25.5,15.3-25.5,15.3-1.9-14.8-12.2-35.5-12.2-35.5-3.8-.2-19.3,8.1-19.3,8.1.2-14.3-10.5-42-10.5-42-4.5-1.9-20.5,2.6-20.5,2.6,1.7-16.7-7.6-49.8-7.6-49.8-4.5,1.4-11.9,11-11.9,11-5-33.4,11.7-58.9,11.7-58.9-6.4.2-11.7,2.1-11.7,2.1,6.4-4.8,11.2-21.5,11.2-21.5,7.4-28.4,21.5-45.6,21.5-45.6-6.4,1.9-11.7.7-11.7.7,34.1-58.5,66.6-77.2,66.6-77.2,43.4-29.5,50-.6,50-.6,5,17.8-9.4,58.5-9.4,58.5-16.2,51.6-14.1,59.1-14.1,59.1.9,12.2,35,13.1,35,13.1,34.7-3.4,40-16.6,40-16.6,2.8-8.1-16.6-69.4-16.6-69.4-15-46.9-3.4-55.3-3.4-55.3,21.6-13.8,67.9,23.2,67.9,23.2,25.6,18.9,39.1,58.7,39.1,58.7ZM754.1,405.8c-37.8,23.3-71.8,10.4-71.8,10.4-14.3-4.2-27.5-4.8-27.5-4.8-17.1,0-31.4-9-31.4-9-27.5-15.7-42.6-17.7-42.6-17.7-27.7-2.5-24.9,21.9-24.9,21.9.6,17.7,14,65.9,14,65.9,9.8,35.9,0,43.7,0,43.7-10.7,11.2-29,8.4-29,8.4-27.8-2-16.2-34.2-16.2-34.2,11.5-40.1,16-73,16-73,2.2-24.3-16.8-30.1-16.8-30.1-20.7-4.2-34.8,7.3-34.8,7.3-17.4,12.1-39.3,17.2-39.3,17.2-58.2,17.1-93.1-10.3-93.1-10.3-25.4-19.8-40.8-13-40.8-13,16-29.2,38.6-39.2,38.6-39.2,53-15.4,93.6,19.6,93.6,19.6,23.8,17.4,49.1,7.8,49.1,7.8,36.4-10.7,49,7.3,49,7.3,12.3-19.9,44.1-7.9,44.1-7.9,41.5,15.1,63.3-5.9,63.3-5.9,48.8-30.8,88-15.1,88-15.1,30.3,9.2,44,44.8,44,44.8-18.2-2.8-31.7,5.9-31.7,5.9Z"/>
    <path class="cls-2" d="M549.1,413.7s-6,37.3-13.3,67.2c0,0-8.4,27.5,2.6,31.8,0,0,12.9,4.3,19.9-3.1,0,0,6.2-3.9,0-36.4,0,0-7.6-46.5-9.2-59.4Z"/>
    <circle class="cls-2" cx="548" cy="393.1" r="3.2"/>
    <circle class="cls-2" cx="548.2" cy="405.4" r="2.6"/>
    <path class="cls-3" d="M754.1,379.2c-4-1.3-11.5-8.6-11.5-8.6-21.7-14.5-35.9-12.8-35.9-12.8-46.9,4-66.4,41.5-66.4,41.5,4.6,0,26.5,6.1,26.5,6.1,53.9,14.6,76.8-10,76.8-10,9.1-9.1,20.4-9.1,20.4-9.1-1.5-3.1-9.9-7.1-9.9-7.1ZM696.9,403.3s-27.3-1.6-38.7-5.1c0,0-5.4-1.9-7.6-1.9,0,0,17-35.5,64.6-30.4,0,0,25.6,3.5,25.7,21.1,0,0-4.6,16.6-44,16.3Z"/>
    <path class="cls-2" d="M663.3,390.9s16.8-17.6,39.9-18.3c0,0,23.4.1,23.9,11.3,0,0-3.6,17.7-41,10.6,0,0-17.6-4-22.7-3.6Z"/>
    <circle class="cls-2" cx="594.8" cy="435.1" r="2.9"/>
    <circle class="cls-2" cx="508.7" cy="431.7" r="2.9"/>
    <circle class="cls-2" cx="494.9" cy="477.5" r="2.9"/>
    <circle class="cls-2" cx="479.3" cy="516" r="2.9"/>
    <circle class="cls-2" cx="466.6" cy="561.4" r="2.9"/>
    <circle class="cls-2" cx="475.2" cy="604.2" r="2.9"/>
    <circle class="cls-2" cx="493.1" cy="626.9" r="2.9"/>
    <circle class="cls-2" cx="609.6" cy="477.5" r="2.9"/>
    <circle class="cls-2" cx="626.2" cy="513.2" r="2.9"/>
    <circle class="cls-2" cx="635.9" cy="553.5" r="2.9"/>
    <circle class="cls-2" cx="632.5" cy="589.9" r="2.9"/>
    <circle class="cls-2" cx="608.4" cy="620.8" r="2.9"/>
    <circle class="cls-2" cx="512.3" cy="580.7" r="12.2"/>
    <circle class="cls-2" cx="589.7" cy="579.3" r="12.2"/>
    <path class="cls-3" d="M670,512.1s-16.5-63-38.1-81.7c0,0-28-23.7-46.9-31.1,0,0-25.4-8-17.1,18.7,0,0,27.2,59.2,34,94.4,0,0,9.7,27.2-16.5,31.3,0,0-51.7,8.8-76.5,2.5,0,0-17.1-1.8-12.1-21.2,0,0,8.6-37.2,26.9-86.1,0,0,18.9-52.5-16.2-36,0,0-32.8,14.7-52.6,49.9,0,0-27.2,56.1-36,86.8,0,0-17.7,42.8,21,86.5,0,0,41.7,54.3,93,68.8,0,0,31.9,10.3,82.3-26.3,0,0,55.2-41,65-77.1,0,0,8.6-31.9-10-79.4ZM501,553.3c33.6,7.8,63,3.2,63,3.2,38.6-8.1,45.4-1.3,45.4-1.3,14.1,15.1-1.1,40.1-1.1,40.1-26.3,33.9-58.3,35-58.3,35-17.8.6-56.2-27.5-56.2-27.5-16.3-13.6-8.9-39-8.9-39,4.5-14.6,16.2-10.6,16.2-10.6ZM476.7,649.3c-1.6-9.6,7.8-18.2,7.8-18.2-11.1,3.8-17,12.4-17,12.4-11.2-7.5-11.5-15.7-11.5-15.7-1.7-14,12.8-22.1,12.8-22.1-14.3.4-24.7,10.3-24.7,10.3-16.5-30,15.7-51.6,15.7-51.6-14.8,5.1-31.9,25.6-31.9,25.6-17.2-46.5,41.7-71.2,41.7-71.2-13.4-.2-39,15.7-39,15.7,11.1-39,54.6-55.9,54.6-55.9-23.4.4-38.7,15.1-38.7,15.1,12-39.2,52.9-60.5,52.9-60.5-17.5,3.9-26.7,10.3-26.7,10.3.9-10.5,17.6-23.8,17.6-23.8,27.6-21,25.2,5.7,25.2,5.7-3.1,32.5-33.9,118.2-33.9,118.2-18.7,41.7,5.5,61.1,5.5,61.1,11.5,11.8,51.4,32,51.4,32-4.4,4.8-40.1,20.9-40.1,20.9-18.2,7-21.6-8.1-21.6-8.1ZM589.3,671.5c-49.4,30.7-83.1,0-83.1,0-11.7-5.8,0-12.2,0-12.2,33.7-19.8,43.2-19,43.2-19,7.7,1.5,35.9,17.2,35.9,17.2,13.7,7.6,4.1,13.9,4.1,13.9ZM671,568.9s-12.3-13.4-25.5-13.7c0,0,44.3,28.2,13.7,57.8,0,0-8-15.4-18.6-18.8,0,0,14.9,18.3,8.9,31.1,0,0-7.7,13-18.3,19.3,0,0-4.1-11.3-14.7-17.6,0,0,8.7,16.6,6,22.3,0,0-10.1,12.4-18.3,9.8,0,0-40.7-20.7-48-22.4,0,0,65.8-21.7,66-59,0,0,5.1-49.8-36-134.6,0,0-20.1-39.5-1.9-32.7,0,0,40.9,15.1,52.9,43.4,0,0-14-10.6-33-14.9,0,0,40.5,20.5,48.2,52.3,0,0-15.7-13-35.4-12.3,0,0,42.7,14.2,45.3,46.2,0,0-16.6-11.2-29-11.1,0,0,40.4,15,37.7,55Z"/>
    <path class="cls-3" d="M411.6,358s-27.1-7.4-45.8,5.5c0,0-14.2,9.4-19,9.9,0,0,8.8,3.2,12.3,6.4,0,0,28.4,38.6,87.7,23,0,0,12.7-4.9,16.9-4.7,0,0-17.4-30.4-52-40.2ZM366.3,377.2c-2.8-14.5,19.1-15.2,19.1-15.2,43.4-6.2,66.4,31.1,66.4,31.1-65.9,23.5-85.5-15.9-85.5-15.9Z"/>
    <path class="cls-2" d="M436.6,389.7s-14.1-20.5-47.2-22.3c0,0-13.6.5-13.3,7.5,0,0,4.3,24.9,60.6,14.9Z"/>
  </g>
</svg>