<?xml version="1.0" encoding="UTF-8"?>
<svg id="PRIMARY" xmlns="http://www.w3.org/2000/svg" version="1.1" viewBox="0 0 1080 1080">
  <!-- Generator: Adobe Illustrator 30.1.0, SVG Export Plug-In . SVG Version: 2.1.1 Build 136)  -->
  <defs>
    <style>
      .st0 {
        fill: #fff;
      }
    </style>
  </defs>
  <path class="st0" d="M393.5,534.6l-.4.8h.7c-.1-.3-.2-.5-.4-.8Z"/>
  <path class="st0" d="M730.2,535.4l-.3-.8c-.1.3-.2.5-.4.8h.7,0Z"/>
  <polygon class="st0" points="550.5 226.9 561.7 221 572.8 226.9 570.7 214.4 579.7 205.6 567.2 203.8 561.7 192.5 556.1 203.8 543.6 205.6 552.6 214.4 550.5 226.9"/>
  <path class="st0" d="M617.7,401c-8-22.6-14.1-42.2-16-45.4-5.6-9.6-20.2-15.2-20.2-15.2l-19.8,17.7-.2.2h0c0,0,0,0,0,0l-20-17.9s-14.6,5.6-20.2,15.2c-1.9,3.3-8,22.9-16,45.4-10.2,28.6-21.9,60.7-21.9,60.7l13.9,30.6,30.2,17.6s24.5-5.6,24.5-12.8-27.6-19.9-27.6-19.9l-9.6-30.6s3-8.6,11.9-8.6,14.3,13.9,34.3,14.1h.7c20.3,0,25.8-14.1,34.6-14.1s11.9,8.6,11.9,8.6l-9.6,30.6s-27.6,12.7-27.6,19.9,24.5,12.8,24.5,12.8l30.2-17.6,13.9-30.6s-11.7-32-21.9-60.7h0Z"/>
  <path class="st0" d="M537.2,515v10.8s1.7,3,4.4,1.8c8.3-3.7,19.9-8.3,19.9-8.3v-12.6s-3.3.4-6.4,1.5c-3.1,1.1-17.8,6.8-17.8,6.8h0Z"/>
  <path class="st0" d="M561.7,506.7c-.1,0-.2,0-.2,0v12.6s0,0,.2,0c1.6.6,12,4.9,19.7,8.2,2.7,1.2,4.4-1.8,4.4-1.8v-10.8s-14.7-5.7-17.8-6.8c-2.7-1-5.4-1.4-6.2-1.5h0Z"/>
  <path class="st0" d="M645.6,355.9c11.4-1.5,17.6-7.9,14.8-16.9-2.8-9-10.6-8.9-21-6.1s-18.7,22.4-18.7,22.4c5.7,1.3,13.5,2.1,24.9.7h0Z"/>
  <path class="st0" d="M462.5,339c-2.8,9,3.4,15.5,14.8,16.9,11.4,1.5,19.2.6,24.9-.7,0,0-8.3-19.6-18.7-22.4s-18.2-3-21,6.1h0Z"/>
  <path class="st0" d="M695.4,282.4c6.3.8,12.8-.4,18.5-3.5,0,0-15.9-14.4-31-10.8-6.4,1.5-19.9,9.6-24.6,31l19.8-12.8c5.1-3.3,11.2-4.7,17.3-4h0Z"/>
  <path class="st0" d="M430.7,282.4h0c6-.7,12.1.7,17.3,4l19.8,12.8c-4.7-21.3-18.2-29.4-24.6-31-15-3.7-31,10.8-31,10.8,5.7,3,12.1,4.2,18.5,3.5h0Z"/>
  <polygon class="st0" points="511 817 518.6 817 518.6 804.1 524.5 804.1 529.6 796.6 525.7 790.1 530.7 790.1 523 777.8 526.8 777.8 521 768.2 515.1 758.7 509.2 768.2 503.3 777.7 507.2 777.7 499.5 790.2 504.1 790.2 495.6 804 511 804.1 511 817"/>
  <polygon class="st0" points="602.2 768.2 596.2 777.7 600.1 777.7 592.5 790.2 597.1 790.2 592 798.5 595.8 804 603.9 804.1 603.9 817 611.5 817 611.5 804.1 627.2 804.2 618.6 790.1 623.7 790.1 616 777.8 619.8 777.8 613.9 768.2 608.1 758.7 602.2 768.2"/>
  <polygon class="st0" points="577.2 799.7 585.4 799.6 573 781.7 579 781.7 569.6 767.8 560.1 753.9 550.5 767.7 540.9 781.6 547.2 781.6 534.8 799.8 542.2 799.8 528.5 819.9 553.4 820 553.4 841.2 565.7 841.2 565.7 820.1 591.1 820.2 577.2 799.7"/>
  <path class="st0" d="M417.9,774.1l-.6.5c.6.8.4,1.7-.5,2.4l-16.4,13.1c-1.2,1-2,.9-2.6.1l-.6.5,6.2,7.7.6-.5c-.6-.8-.6-1.5.7-2.5l4-3.2c.3.4.7,1,1.1,1.5.5.6.9,1.1,1.2,1.4-1.7,2.1-3.9,5.2-4.6,7.2l5.5,6.9.6-.5c-.6-.8-.6-1.3-.4-2.1.7-2.5,2.5-5.9,3.9-7.8,2.7,1.5,6.5,1.8,9.6-.7,6.1-4.9,3.4-10.6-1.5-16.7-2.4-3-5-5.9-6.2-7.2h0ZM421.1,792.7c-2.3,1.8-4.5,1.2-7-2-.5-.6-.9-1.2-1.3-1.8l6.3-5c.3.4.8.9,1.3,1.6,2.6,3.3,2.8,5.6.6,7.3Z"/>
  <path class="st0" d="M448.7,808.9l-.5.6c.7.6.6,1.6-.1,2.5l-13.5,16.1c-.8,1-1.6,1.2-2.4.5l-.5.6,12.5,10.5c.5.5,1.3,1.3,1.6,1.9l5.9-4.6-.5-.8c-1.3.6-1.9.6-3-.3l-6.7-5.6,3.7-4.4,6,5c.6.5.8,1.1.3,1.7l.7.6,5-5.9-.7-.6c-.5.6-1.1.6-1.7,0l-6-5,3-3.5,6.6,5.5c1,.8,1.2,1.3.9,2.6l.8.3,3.3-6c-.3-.2-1.4-.8-1.8-1.2l-12.8-10.7h0Z"/>
  <path class="st0" d="M491.5,838.5c-3.6-1.8-6.6-3.1-8.4-3.8l-.4.8c.8.4,1,1.4.5,2.4l-9.3,18.7c-.7,1.4-1.4,1.7-2.3,1.3l-.4.8c1.4.9,4.6,2.7,7.6,4.2,10.1,5.1,16.5,2,20.2-5.5,3.5-7.1,1.7-14.1-7.5-18.7h0ZM492.6,854.1c-2.4,4.9-6.1,6.3-9.8,4.4-.6-.3-1.4-.8-1.8-1l7.2-14.4c.6.2,1.4.6,1.9.9,3.4,1.7,4.9,5.3,2.4,10.1h0Z"/>
  <path class="st0" d="M550.1,857.5c.8.1,1.4.4,1.2,1.2,0,.3-.2.7-.4,1.2l-5.7,14h0l-2.3-12.3-4.1-.6-5.8,11.1h0l-1.2-15.2c0-.3,0-.7,0-.9.1-.9.8-1.1,1.8-1v-.8c.1,0-10.6-1.6-10.6-1.6v.8c.9.2,1.2.8,1.4,2.4l3,19.6c.2,1.1.4,2.3.3,2.9-.1.7-.5.9-.9.9v.8c-.1,0,8.9,1.4,8.9,1.4v-.8c-.4,0-.7-.5-.6-1.1,0-.5.5-1.2.9-1.9l3.3-6.1h0l1.3,6.9c.2,1.2.3,1.5.2,2,0,.6-.4.9-1,.8v.8c-.1,0,9,1.4,9,1.4v-.8c-.4,0-.7-.5-.6-1.1,0-.5.5-1.3.8-1.9l9.1-19c.7-1.5,1-1.7,2.1-1.5v-.8c.1,0-10-1.5-10-1.5v.8c-.1,0-.1,0-.1,0Z"/>
  <path class="st0" d="M593,853.3c-7,1.4-11.6,7.5-9.9,16.3,1.6,7.9,7.4,13.1,15.3,11.5,8-1.6,11.5-8.4,9.9-16.5-1.7-8.7-8.3-12.7-15.3-11.4h0ZM597.4,875.6c-3.4.7-6.2-1.9-7.3-7.4-1.1-5.6,1-8.8,4-9.4,3-.6,6.1,1.2,7.3,7.2,1,5.4-.5,8.8-4,9.5h0Z"/>
  <path class="st0" d="M632.7,856c3.7,7.2,10.7,10.5,18,6.7,7.2-3.8,8.6-11.3,4.9-18.6-4.1-7.9-11.5-9.9-17.9-6.6-6.3,3.3-9,10.5-4.9,18.4h0ZM640.2,842.6c2.7-1.4,6.2-.5,9,4.9,2.5,4.9,2,8.6-1.2,10.3-3.1,1.6-6.5,0-9.1-5-2.6-5-1.6-8.7,1.2-10.1h0Z"/>
  <path class="st0" d="M671,820.5l13.7,15.8c1,1.2,1,2,.3,2.6l.5.6c1.4-1,4.2-3.2,6.7-5.4,8.5-7.4,8.1-14.5,2.7-20.8-5.2-6-12.4-6.9-20.1-.2-3,2.6-5.4,4.9-6.7,6.3l.5.6c.7-.5,1.7-.4,2.4.4h0ZM679.3,816.4c2.8-2.5,6.7-2.5,10.3,1.6,3.6,4.1,3.5,8,.3,10.7-.5.5-1.2,1-1.6,1.3l-10.5-12.1c.4-.4,1.1-1,1.6-1.5h0Z"/>
  <path class="st0" d="M708.3,791c2.7,2.1,5.8,1.8,10.1-.5,5.1-2.7,6.1-2.9,6.9-2.2,1.1.9,1.2,2.5-.8,5-2.1,2.7-3.7,3.5-5.3,3.7-.9.1-1.7-.2-2.5-.4l-.5,1.3,7.7,4.3c0-.2.3-.8.7-1.3.7-.9,3.5-3,5-4.9,4.5-5.7,3.5-10.2-.5-13.3-3.5-2.8-7.1-1.7-10.8.3-4.1,2.3-5.4,2.7-6.2,2-.8-.6-1-2.1.8-4.4,1.6-2.1,2.7-2.7,3.7-3,.9-.3,1.6-.2,2.3,0l.5-1-6.6-4.2c0,.2-.3.7-.7,1.2-.6.8-2.6,2.3-3.8,3.7-4.3,5.5-3.8,10.7,0,13.7h0Z"/>
  <path class="st0" d="M824.2,535.4V226.2s-261.9-82.9-261.9-82.9l-262,82.9v309.3s-46.6,0-46.6,0v165.4l12.6,3.3c.3,0,6.9,1.8,18.5,4.3,4.7,1,10.2,2.2,16.5,3.5,6.6,54.5,46.8,109.7,119.7,164.6,59.8,45,122.6,74.9,134.6,80.5l6.7,3.1,6.7-3.1c12-5.5,74.8-35.4,134.6-80.5,73-55,113.2-110.3,119.7-164.9,6.3-1.3,11.8-2.5,16.4-3.5,10.7-2.4,16.7-3.9,17-4l12.6-3.3v-165.3h-45.1ZM852.4,687.8s-134.6,34.8-291,34.8-291-34.8-291-34.8v-135.5h581.9v135.5ZM386.5,434.5s5.9-33.5,14.1-47.5c9.9-16.9,22.4-30.7,22.4-30.7-76.2-72,5.3-149.2,56.4-81.4,15.2,19.4,43.7-24.4,82.3-.4h0c38.6-24,67.1,19.9,82.3.4,51.1-67.8,132.6,9.4,56.4,81.4,0,0,12.5,13.8,22.4,30.7,8.2,14,14.1,47.5,14.1,47.5,0,0-11.1-7.1-13-7.5,2.3,2.7,10.5,16.6,13.6,41,1.4,10.8,0,34.6-4.5,43.2-2.3-5.3-4.2-11-8.2-14.7,2.2,10.6-2.3,26.1-8.8,39h-12.1c0,0,0-.2,0-.3v.3h-284.5v-.3c0,.1,0,.2,0,.3h-12.1c-6.4-12.8-11-28.3-8.8-39-4,3.6-5.9,9.3-8.2,14.7-4.5-8.6-5.8-32.5-4.5-43.2,3.1-24.4,11.2-38.2,13.6-41-1.9.4-13,7.5-13,7.5h0ZM730.2,535.4h-.7c.1-.3.2-.5.4-.8l.3.8h0ZM393.5,534.6c.1.3.2.5.4.8h-.7l.4-.8ZM316.2,237.9l47.6-15.1,198.4-62.8,246,77.8v297.5h-74.3l9.8-18.6c6.5-12.2,7.2-39.3,5.8-50.4-.5-3.6-1-7.1-1.7-10.3l5.8,3.7-4.8-27.4c-.6-3.7-6.5-36.2-15.6-51.6-5.5-9.5-11.8-17.9-16.5-23.9,24.6-27.3,33-58.5,22.5-85.1-8.5-21.4-28.4-35.3-50.5-35.3s-39.2,11-54.3,30.9c-.2.2-.3.3-.3.4h-.2c-2.7,0-8-2.2-13.1-4.3-9.3-3.9-20.9-8.6-34.4-8.6s-16.7,1.9-24.6,5.7c-7.9-3.8-16.2-5.7-24.6-5.7-13.5,0-25.1,4.8-34.4,8.6-5.1,2.1-10.4,4.3-13.1,4.3h-.2c0,0-.2-.2-.4-.4-15-19.9-34.3-30.9-54.3-30.9s-42,13.9-50.5,35.3c-10.6,26.6-2.2,57.8,22.5,85.1-4.7,6-10.9,14.4-16.5,23.9-9.1,15.4-15,47.9-15.6,51.6l-4.8,27.4,5.8-3.7c-.6,3.2-1.2,6.7-1.7,10.3-1.4,11.1-.7,38.2,5.8,50.4l9.8,18.6h-73.1V237.9s0,0,0,0ZM562.2,942.4c-22.4-10.3-224-106.6-244.3-227.2,54.1,10.4,144.8,24.2,243.5,24.2s191.2-14.1,245.1-24.5c-20,120.7-221.9,217.2-244.3,227.5h0Z"/>
  <path class="st0" d="M321.3,678c4.1.6,8.9.3,10,.5,1.2.2,2.3.5,3.1.9,1.1-6.7,2.2-13.3,3.3-20.1-1-.4-2-.8-3-1.2-1.6,4.9-4.1,6.7-9.8,5.9-10.2-1.4-15.4-11.3-15.4-39.6,0-25.3,6.9-36.1,15-36,5.6.1,8.8,2.2,10.3,6.4,1-.3,2-.5,3-.8-1-6.6-2-13.1-3-19.7-.8.3-2.3.6-3.6.6-1.8,0-6.6-1-9.7-1-18,.2-29.2,18-29.2,49.1,0,31.2,9.4,51.8,29,55h0Z"/>
  <path class="st0" d="M365.8,679.3c-2.3-.3-3.3-1.8-3.3-3.6,0-.9.9-7.8,1.3-10.6,1.8,1.1,5.5,2.2,8.3,2.5,2.9.3,6.2-.2,7.8-.9.4,3,.9,10.4.9,11,0,1.7-1,3.1-3.3,2.9v2.9c7.9.9,15.9,1.8,23.8,2.5v-3c-2.1-.2-3.6-1.3-4.1-5.1-4-31.1-8-61.9-12-92.3-.1-1.4-.3-2.5-.3-3.6,0-1.9,1.1-3.1,2.6-3.1v-3c-10,0-20,0-30,0v2.9c1.6,0,2.5,1.5,2.5,3.2s-.1,2.3-.3,3.2c-4.3,29.7-8.6,58.9-12.8,87.6-.4,2.5-1.8,3.9-3.7,3.7v2.8c7.5,1,15,2,22.5,2.9v-2.9h0ZM371.7,594.9c.3,0,.6,0,1,0,1.9,18.4,3.8,36.9,5.7,55.5-1.4.8-3.7,1.4-6,1.2s-5.2-1.2-6.6-2.2c2-18.1,4-36.2,5.9-54.5h0Z"/>
  <path class="st0" d="M451.3,691.5c1.4-7.5,2.7-15.1,4-22.6-.9-.4-1.8-.9-2.7-1.3-1.4,3.8-3.3,5.8-7,5.6-5.6-.3-11.2-.7-16.7-1.1,0-28.8.2-57.7.3-86.5,0-3.4,2.2-6.3,4.8-6.2v-3.1c-8.7,0-17.4,0-26,0v3c2.9,0,4.5,2.2,4.5,6.2-.1,30.9-.2,61.7-.3,92.6,0,4-2.1,6-4.5,5.8v3c12.1,1.2,24.1,2.2,36.2,3,4.5.3,6.5.8,7.5,1.7h0Z"/>
  <path class="st0" d="M487.5,689.2c-2.9-.1-4.5-2.7-4.5-6.7,0-32.3.1-64.5.2-96.8,0-4.1,1.5-6.3,4.5-6.3v-3.2c-8.6,0-17.3,0-25.9,0v3.1c2.9,0,4.5,2.2,4.5,6.3,0,32-.2,64-.2,96,0,4.1-2.1,6.3-4.5,6.2v3.1c8.6.5,17.3,1,26,1.4v-3.2h0Z"/>
  <path class="st0" d="M521.7,690.4c-2.9,0-4.8-2.3-4.8-6.7,0-14.8,0-29.6,0-44.4,4.9,0,9.8.1,14.7.2,3.4,0,5.2,2.2,5.2,5.6.8,0,1.7,0,2.5,0,0-9.4,0-18.7,0-28.1-.8,0-1.7,0-2.5,0,0,3-2.3,5.7-5.2,5.7-4.9,0-9.9,0-14.8-.1,0-9.8,0-19.7,0-29.5,5.3,0,10.5,0,15.8,0,3.4,0,5.3,2,6.4,5.7,1-.3,1.9-.7,2.9-1-1.2-7.6-2.5-15.2-3.7-22.9-1,.7-4,1.3-6.8,1.3-11.9,0-23.8,0-35.6,0v3.2c2.5,0,4.5,2.2,4.5,6.3,0,32.5-.1,64.9-.2,97.4,0,4-2.1,6.4-4.5,6.3v3.2c8.7.3,17.4.6,26.1.8v-3.2h0Z"/>
  <path class="st0" d="M574.9,697.1c18-.2,26.2-19.6,26.2-65,0-39-8.8-59.3-26-59.3-17.8,0-26.5,20.4-26.5,59.7,0,44.5,8.2,64.7,26.2,64.5h0ZM574.8,589.7c6.3,0,8.9,12.2,8.9,42.8,0,36.5-2.8,47.6-8.6,47.6-6.2,0-9.2-11.9-9.2-47.5,0-30.5,3-42.9,8.9-42.9h0Z"/>
  <path class="st0" d="M613.1,585.9c0,32.5,0,65,.2,97.5,0,4.2-2,6.6-4.5,6.7v3.2c8.6-.3,17.2-.6,25.8-1v-3.2c-2.9.1-4.5-2.6-4.5-6.3,0-12.6,0-25.1,0-37.7,2.3,0,4.6-.1,6.9-.2.8,13.2,4.2,36.3,6.8,46.9,7.1-.4,14.2-.8,21.3-1.3v-3.1c-2.3.2-4.5-2.2-5.2-4.8-3.5-13.7-6.9-31-8.8-43.6,6.7-4.3,10.7-12.8,10.6-29.7,0-24.7-11.6-34.3-28.9-34.3-8.6,0-19.9.8-24.1,1.3v3.2c3.2,0,4.5,2.3,4.5,6.3h0ZM633.1,591.8c5.5,0,11.1,3.7,11.2,18.2,0,14.7-5.2,19.1-11.1,19.2-1,0-2.2,0-3.3,0,0-12.4,0-24.8,0-37.2.5-.2,2.2-.2,3.3-.2h0Z"/>
  <path class="st0" d="M675.3,585.7c0,31.5.2,63.1.3,94.6,0,3.9-1.8,6.5-4.5,6.7v3.1c8.2-.6,16.5-1.2,24.7-1.9v-3c-2.7.2-4.5-2.2-4.5-5.9,0-20.6-.1-41.2-.2-61.8h.3c5.5,13.9,11,27.6,16.5,41.2,0,9.5,0,19,0,28.5,6.4-.6,12.8-1.2,19.2-1.9v-3c-2.3.2-3.6-1.8-3.6-5.7,0-30.4-.2-60.8-.3-91.2,0-3.8,2.2-6.1,4.6-6.1v-3c-8.3,0-16.5,0-24.8,0v3c2.7,0,4.7,2.4,4.7,6.2,0,12,0,24.1.1,36.2-.1,0-.3,0-.4,0-4.8-12.5-9.5-25.2-14.2-38-1-2.6-1.7-5-1.7-7.4-6.9,0-13.8,0-20.7,0v3.1c2.5,0,4.5,2.3,4.5,6.3h0Z"/>
  <path class="st0" d="M740.4,584.9c0,30,.2,59.9.3,89.8,0,3.8-2,6.2-4.5,6.5v2.9c8.6-1,17.2-2,25.8-3.1v-2.9c-2.9.4-4.5-1.7-4.5-5.3,0-29.4-.2-58.8-.3-88.2,0-3.8,1.5-5.8,4.5-5.8v-2.8c-8.6,0-17.3,0-25.9,0v2.9c2.9,0,4.5,2,4.5,5.8h0Z"/>
  <path class="st0" d="M790.7,677.1v-2.8c-2.3.3-3.3-.8-3.3-2.6s.8-7.7,1.2-10.5c1.8.7,5.5.9,8.3.5,2.9-.4,6.1-1.5,7.8-2.6.4,2.6,1,9.4,1,9.9,0,1.6-1,3.1-3.3,3.5v2.7c7.9-1.2,15.8-2.5,23.7-3.8v-2.6c-2,.3-3.5-.2-4.1-3.5-4.1-26.4-8.2-53.4-12.3-80.9-.1-1.3-.3-2.2-.3-3.2,0-1.7,1.1-2.8,2.6-2.8v-2.7c-10,0-20,0-30,.1v2.8c1.7,0,2.5,1.4,2.5,3s-.1,2.2-.3,3.1c-4.1,28.8-8.3,58.2-12.4,87.9-.4,2.6-1.8,4.4-3.7,4.6v2.8c7.5-1,15-2,22.5-3.1h0ZM796.1,593.5c.3,0,.6,0,1,0,2,17.2,4,34.2,6,51-1.4,1-3.7,2-6,2.2s-5.2-.2-6.6-.9c1.9-17.6,3.8-35,5.6-52.3h0Z"/>
</svg>