<?xml version="1.0" encoding="UTF-8"?>
<svg id="PRIMARY" xmlns="http://www.w3.org/2000/svg" viewBox="0 0 1080 1080">
  <defs>
    <style>
      .cls-1 {
        fill: #004b37;
      }

      .cls-2 {
        fill: #fff;
      }

      .cls-3 {
        fill: #ffd200;
      }

      .cls-4 {
        fill: #492b1e;
      }
    </style>
  </defs>
  <path class="cls-1" d="m840.15,487.39l.02-305.99-277.97-87.91-277.97,87.91.02,305.99h-45.59v191.96l23.85,6.17c.34.09,9.1,2.33,24.49,5.65,10.63,55.46,52.32,110.86,124.31,165.06,61.1,46,125.23,76.53,137.47,82.19l13.42,6.2,13.42-6.2c12.24-5.65,76.38-36.19,137.47-82.19,72.11-54.29,113.81-109.79,124.36-165.4,14.4-3.13,22.57-5.22,22.9-5.31l23.86-6.17v-191.96h-44.07Zm29.07,180.35l-12.62,3.26c-.28.07-6.28,1.61-16.98,4-4.63,1.03-10.13,2.23-16.44,3.53-6.53,54.58-46.72,109.97-119.71,164.92-59.79,45.02-122.58,74.91-134.56,80.45l-6.71,3.1-6.71-3.1c-11.98-5.54-74.77-35.43-134.56-80.45-72.87-54.86-113.04-110.16-119.68-164.61-6.26-1.29-11.77-2.47-16.45-3.51-11.67-2.58-18.23-4.26-18.53-4.34l-12.61-3.26v-165.35h46.59l-.02-309.27,261.97-82.85,261.97,82.85-.02,309.27h45.07v165.35Z"/>
  <path class="cls-1" d="m379.56,483.78c-6.46-12.21-7.19-39.33-5.78-50.45.46-3.64,1.04-7.09,1.68-10.34l-5.79,3.73,4.82-27.4c.64-3.66,6.54-36.16,15.6-51.57,5.55-9.45,11.79-17.93,16.49-23.88-24.64-27.26-33.05-58.45-22.45-85.08,8.53-21.44,28.37-35.3,50.55-35.3,19.97,0,39.25,10.97,54.3,30.89.16.2.28.32.35.39.05,0,.12,0,.2,0,2.7,0,7.99-2.19,13.1-4.3,9.29-3.85,20.86-8.63,34.41-8.63,8.45,0,16.7,1.91,24.62,5.7,7.92-3.78,16.17-5.7,24.62-5.7,13.54,0,25.11,4.79,34.4,8.63,5.11,2.11,10.4,4.3,13.1,4.3.08,0,.15,0,.2,0,.08-.07.19-.19.35-.39,15.05-19.93,34.33-30.89,54.3-30.89,22.18,0,42.02,13.86,50.55,35.3,10.59,26.63,2.19,57.82-22.45,85.08,4.7,5.96,10.94,14.44,16.49,23.88,9.06,15.41,14.95,47.91,15.6,51.57l4.82,27.4-5.79-3.73c.65,3.25,1.22,6.7,1.68,10.34,1.42,11.11.68,38.23-5.78,50.44l-9.84,18.61h74.24l.02-297.55-245.96-77.79-198.39,62.75-47.57,15.05.02,297.55h73.15l-9.84-18.61Zm176.51-313.02l5.59-11.32,5.59,11.32,12.49,1.82-9.04,8.81,2.13,12.44-11.17-5.87-11.17,5.87,2.13-12.44-9.04-8.81,12.49-1.82Z"/>
  <path class="cls-1" d="m317.91,682.14c20.27,120.58,221.89,216.87,244.29,227.22,22.42-10.36,224.35-106.8,244.34-227.52-53.9,10.39-145.42,24.48-245.1,24.48s-189.42-13.83-243.53-24.18Zm301.85,62.61l-3.76-.02,7.67,12.3-5.06.02,8.59,14.08-15.69-.08v12.84h-7.58v-12.88l-8.14-.04-3.83-5.52,5.1-8.31-4.59.02,7.63-12.5-3.87-.02,5.93-9.51,5.92-9.51,5.84,9.56,5.84,9.56Zm-115.64,12.4l-4.59.02,7.63-12.5-3.87-.02,5.93-9.51,5.92-9.51,5.84,9.56,5.84,9.56-3.76-.02,7.67,12.3-5.06.02,3.97,6.51-5.12,7.52-5.96-.03v12.84h-7.58v-12.88l-15.34-.08,8.46-13.79Zm61.55,51h-12.3v-21.19l-24.89-.11,13.74-20.09-7.45.03,12.38-18.21-6.28-.02,9.62-13.85,9.61-13.85,9.47,13.92,9.47,13.92-6.1-.02,12.45,17.92-8.21.03,13.94,20.52-25.47-.12v21.13Zm-140.02-43.22c-3.09,2.47-6.92,2.17-9.6.71-1.37,1.88-3.13,5.27-3.87,7.81-.23.81-.26,1.32.38,2.12l-.65.52-5.53-6.92c.79-1.99,2.97-5.05,4.64-7.16-.29-.3-.77-.84-1.22-1.41-.4-.5-.8-1.06-1.1-1.5l-4.04,3.23c-1.25,1-1.32,1.69-.68,2.49l-.65.52-6.17-7.72.65-.52c.59.74,1.33.88,2.58-.12l16.35-13.07c.89-.71,1.15-1.6.54-2.37l.65-.52c1.15,1.32,3.78,4.18,6.2,7.21,4.89,6.11,7.63,11.8,1.52,16.69Zm34.34,28.83l-.78-.31c.24-1.29.06-1.79-.93-2.62l-6.58-5.52-2.96,3.52,5.99,5.04c.64.54,1.18.6,1.72-.04l.67.56-4.96,5.91-.67-.56c.51-.61.36-1.14-.28-1.67l-5.99-5.04-3.67,4.36,6.66,5.6c1.08.9,1.67.91,2.97.31l.5.82-5.86,4.56c-.35-.59-1.1-1.47-1.65-1.93l-12.54-10.54.54-.64c.79.66,1.6.45,2.44-.54l13.52-16.09c.73-.87.78-1.93.11-2.49l.51-.61,12.75,10.71c.44.37,1.52,1.03,1.83,1.19l-3.33,6.04Zm38.97,30.36c-3.72,7.45-10.1,10.54-20.23,5.49-2.96-1.48-6.15-3.24-7.56-4.16l.37-.75c.92.46,1.61.17,2.33-1.26l9.32-18.66c.51-1.02.25-1.95-.51-2.38l.37-.75c1.82.7,4.86,2,8.43,3.78,9.15,4.56,11.02,11.62,7.49,18.69Zm61.25,1.83c-1.01-.15-1.39.02-2.07,1.5l-9.08,19.04c-.33.64-.72,1.47-.79,1.92-.09.6.12.98.69,1.06l-.12.83-9.13-1.37.12-.83c.56.08.88-.25.97-.85.07-.45-.03-.85-.24-2l-1.32-6.84h-.08s-3.34,6.1-3.34,6.1c-.37.67-.83,1.41-.9,1.9-.09.6.12.98.69,1.06l-.12.83-9.06-1.36.12-.83c.49.07.83-.14.94-.86.09-.6-.11-1.82-.29-2.93l-2.95-19.58c-.22-1.61-.54-2.27-1.56-2.42l.12-.83,10.75,1.61-.12.83c-.98-.15-1.67.1-1.8,1-.03.23-.02.61.01.92l1.19,15.16h.08s5.85-11.1,5.85-11.1l4.1.61,2.34,12.34h.08s5.67-14.01,5.67-14.01c.19-.47.33-.95.37-1.21.12-.79-.41-1.1-1.24-1.22l.12-.83,10.11,1.51-.12.83Zm38.27,22.14c-7.98,1.56-13.79-3.57-15.35-11.51-1.72-8.76,2.88-14.93,9.89-16.31,7.05-1.38,13.64,2.63,15.35,11.36,1.57,8.02-1.88,14.89-9.9,16.46Zm109.87-103.76c1.13-1.44,3.11-2.92,3.75-3.73.4-.51.61-.97.67-1.22l6.59,4.16-.5,1.01c-.68-.24-1.42-.34-2.31-.07-1.04.34-2.08.98-3.69,3.04-1.78,2.27-1.6,3.77-.8,4.4.81.63,2.08.24,6.23-2.02,3.71-2.02,7.31-3.1,10.81-.35,3.95,3.1,4.95,7.61.47,13.32-1.48,1.88-4.23,3.97-4.96,4.9-.4.51-.61,1.02-.66,1.27l-7.71-4.27.49-1.3c.79.23,1.55.54,2.46.43,1.6-.19,3.21-.96,5.33-3.65,2-2.54,1.94-4.13.83-5-.81-.63-1.79-.49-6.88,2.24-4.29,2.33-7.46,2.6-10.12.51-3.83-3-4.34-8.14,0-13.67Zm-33.59,35.71c7.72-6.7,14.95-5.74,20.13.23,5.46,6.28,5.87,13.37-2.67,20.79-2.5,2.17-5.35,4.45-6.74,5.4l-.55-.63c.78-.67.77-1.43-.27-2.63l-13.68-15.75c-.75-.86-1.71-.98-2.39-.44l-.55-.63c1.34-1.41,3.71-3.73,6.72-6.34Zm-37.16,24.47c6.37-3.31,13.83-1.31,17.92,6.58,3.76,7.25,2.38,14.82-4.87,18.58-7.22,3.75-14.23.45-17.96-6.73-4.11-7.92-1.44-15.14,4.9-18.43Z"/>
  <path class="cls-1" d="m490.12,810.92c-.58-.29-1.38-.64-1.94-.88l-7.18,14.38c.37.27,1.17.71,1.78,1.02,3.71,1.85,7.32.47,9.77-4.42,2.41-4.83.93-8.41-2.44-10.09Z"/>
  <path class="cls-1" d="m594.07,825.83c-3.06.6-5.1,3.83-4.01,9.38,1.07,5.45,3.9,8.03,7.29,7.36,3.54-.69,5.07-4.17,4.02-9.54-1.17-5.97-4.28-7.8-7.3-7.21Z"/>
  <path class="cls-1" d="m419.08,750.82l-6.29,5.03c.42.64.86,1.26,1.31,1.82,2.51,3.15,4.69,3.79,6.97,1.97,2.11-1.68,1.98-3.97-.65-7.26-.5-.62-1-1.19-1.34-1.56Z"/>
  <path class="cls-1" d="m689.93,795.7c3.13-2.72,3.24-6.59-.35-10.72-3.54-4.07-7.42-4.08-10.26-1.61-.49.42-1.12,1.03-1.56,1.45l10.54,12.13c.39-.24,1.11-.81,1.62-1.26Z"/>
  <path class="cls-1" d="m648.04,824.68c3.2-1.66,3.69-5.43,1.17-10.28-2.8-5.4-6.3-6.28-9.03-4.86-2.77,1.43-3.81,5.1-1.21,10.13,2.56,4.92,6,6.6,9.07,5.01Z"/>
  <path class="cls-1" d="m393.49,501.58l-.35.81h.71c-.12-.27-.24-.54-.36-.81Z"/>
  <path class="cls-1" d="m730.17,502.39l-.35-.82c-.12.27-.24.54-.36.82h.71Z"/>
  <polygon class="cls-3" points="550.48 193.82 561.65 187.95 572.82 193.82 570.69 181.38 579.73 172.57 567.24 170.76 561.65 159.44 556.07 170.76 543.57 172.57 552.61 181.38 550.48 193.82"/>
  <path class="cls-4" d="m390.31,478.09c2.29-5.33,4.19-11.05,8.19-14.67-2.25,10.64,2.35,26.13,8.78,38.96h12.09c.02-.1.04-.2.05-.31,0,.1,0,.21,0,.31h284.46c0-.1,0-.21,0-.31.02.11.04.21.05.31h12.09c6.43-12.84,11.03-28.32,8.78-38.96,4,3.62,5.91,9.33,8.19,14.67,4.55-8.61,5.84-32.45,4.47-43.22-3.11-24.38-11.24-38.24-13.58-40.96,1.9.4,12.96,7.52,12.96,7.52,0,0-5.9-33.55-14.11-47.51-9.92-16.89-22.37-30.71-22.37-30.71,76.19-72.01-5.33-149.19-56.4-81.4-15.21,19.44-43.7-24.41-82.3-.43,0,0,0,0,0,0,0,0,0,0,0,0-38.6-23.99-67.08,19.87-82.3.43-51.07-67.8-132.59,9.39-56.4,81.4,0,0-12.45,13.82-22.37,30.71-8.21,13.96-14.11,47.51-14.11,47.51,0,0,11.06-7.13,12.96-7.52-2.35,2.73-10.48,16.58-13.58,40.96-1.37,10.78-.09,34.61,4.47,43.22Zm171.13,8.16s-11.62,4.66-19.89,8.33c-2.69,1.19-4.38-1.83-4.38-1.83v-10.83s14.72-5.71,17.85-6.82,6.42-1.48,6.42-1.48v12.63Zm24.27,6.5s-1.69,3.02-4.38,1.83c-7.63-3.38-18.09-7.6-19.68-8.24-.13-.05-.21-.09-.21-.09v-12.63s.08,0,.21.03c.76.1,3.54.51,6.21,1.46,3.13,1.11,17.85,6.82,17.85,6.82v10.83Zm97.22-257.6c15.01-3.66,30.95,10.76,30.95,10.76-5.66,3.01-12.1,4.21-18.45,3.45-6.04-.72-12.13.69-17.26,3.99l-19.84,12.78c4.69-21.32,18.24-29.42,24.6-30.97Zm-43.49,64.7c10.42-2.79,18.24-2.96,21,6.08,2.77,9.04-3.42,15.45-14.82,16.93-11.4,1.48-19.23.65-24.92-.66,0,0,8.31-19.56,18.73-22.35Zm-77.98,25.41l.19-.17,19.82-17.71s14.59,5.56,20.19,15.16c1.9,3.27,7.95,22.85,15.99,45.44,10.2,28.65,21.86,60.7,21.86,60.7l-13.92,30.6-30.18,17.58s-24.5-5.59-24.5-12.79,27.6-19.94,27.6-19.94l9.6-30.58s-3.01-8.57-11.87-8.57-14.31,14.04-34.6,14.13c-.06,0-.12,0-.19,0v-93.84Zm-40.2-2.72c5.59-9.6,20.19-15.16,20.19-15.16l20.01,17.87v93.84c-20.45,0-25.93-14.13-34.79-14.13s-11.87,8.57-11.87,8.57l9.6,30.58s27.6,12.74,27.6,19.94-24.5,12.79-24.5,12.79l-30.18-17.58-13.92-30.6s11.67-32.05,21.86-60.7c8.04-22.59,14.08-42.17,15.99-45.44Zm-37.78-22.69c10.42,2.79,18.73,22.35,18.73,22.35-5.69,1.31-13.52,2.14-24.92.66-11.4-1.48-17.58-7.89-14.82-16.93,2.77-9.04,10.58-8.88,21-6.08Zm-71.24-53.94s15.93-14.42,30.95-10.76c6.36,1.55,19.92,9.65,24.6,30.97l-19.84-12.78c-5.12-3.3-11.22-4.71-17.26-3.99h0c-6.35.76-12.79-.44-18.45-3.45Z"/>
  <path class="cls-2" d="m617.65,367.97c-8.04-22.59-14.08-42.17-15.99-45.44-5.59-9.6-20.19-15.16-20.19-15.16l-19.82,17.71-.19.17v.82s0-.82,0-.82l-20.01-17.87s-14.59,5.56-20.19,15.16c-1.9,3.27-7.95,22.85-15.99,45.44-10.2,28.65-21.86,60.7-21.86,60.7l13.92,30.6,30.18,17.58s24.5-5.59,24.5-12.79-27.6-19.94-27.6-19.94l-9.6-30.58s3.01-8.57,11.87-8.57,14.33,14.11,34.75,14.13h0s.01,0,.02,0c0,0,.01,0,.02,0h0c.06,0,.13,0,.19,0,21.62,0,25.77-14.13,34.6-14.13s11.87,8.57,11.87,8.57l-9.6,30.58s-27.6,12.74-27.6,19.94,24.5,12.79,24.5,12.79l30.18-17.58,13.92-30.6s-11.67-32.05-21.86-60.7Z"/>
  <path class="cls-2" d="m537.17,481.92v10.83s1.69,3.02,4.38,1.83c8.28-3.67,19.89-8.33,19.89-8.33v-12.63s-3.28.37-6.42,1.48-17.85,6.82-17.85,6.82Z"/>
  <path class="cls-2" d="m561.65,473.65c-.13-.02-.21-.03-.21-.03v12.63s.08.03.21.09c1.59.64,12.05,4.86,19.68,8.24,2.69,1.19,4.38-1.83,4.38-1.83v-10.83s-14.72-5.71-17.85-6.82c-2.67-.95-5.44-1.36-6.21-1.46Z"/>
  <path class="cls-3" d="m645.63,322.86c11.4-1.48,17.58-7.89,14.82-16.93-2.77-9.04-10.58-8.88-21-6.08-10.42,2.79-18.73,22.35-18.73,22.35,5.69,1.31,13.52,2.14,24.92.66Z"/>
  <path class="cls-3" d="m462.48,305.93c-2.77,9.04,3.42,15.45,14.82,16.93,11.4,1.48,19.23.65,24.92-.66,0,0-8.31-19.56-18.73-22.35-10.42-2.79-18.24-2.96-21,6.08Z"/>
  <path class="cls-2" d="m695.42,249.36c6.35.76,12.79-.44,18.45-3.45,0,0-15.93-14.42-30.95-10.76-6.36,1.55-19.92,9.65-24.6,30.97l19.84-12.78c5.12-3.3,11.22-4.71,17.26-3.99Z"/>
  <path class="cls-2" d="m430.7,249.36h0c6.04-.72,12.13.69,17.26,3.99l19.84,12.78c-4.69-21.32-18.24-29.42-24.6-30.97-15.01-3.66-30.95,10.76-30.95,10.76,5.66,3.01,12.1,4.21,18.45,3.45Z"/>
  <polygon class="cls-3" points="510.99 783.9 518.57 783.9 518.57 771.06 524.52 771.09 529.64 763.57 525.67 757.06 530.73 757.04 523.05 744.74 526.81 744.76 520.98 735.2 515.14 725.64 509.22 735.15 503.29 744.66 507.16 744.67 499.53 757.17 504.12 757.15 495.65 770.95 510.99 771.02 510.99 783.9"/>
  <polygon class="cls-3" points="602.16 735.15 596.24 744.66 600.1 744.67 592.47 757.17 597.06 757.15 591.96 765.46 595.8 770.98 603.94 771.02 603.94 783.9 611.51 783.9 611.51 771.06 627.21 771.15 618.61 757.06 623.67 757.04 616 744.74 619.76 744.76 613.92 735.2 608.09 725.64 602.16 735.15"/>
  <polygon class="cls-3" points="577.19 766.62 585.4 766.59 572.95 748.67 579.05 748.69 569.58 734.77 560.11 720.84 550.49 734.69 540.88 748.55 547.15 748.57 534.77 766.78 542.22 766.75 528.48 786.85 553.37 786.96 553.37 808.15 565.67 808.15 565.67 787.02 591.13 787.14 577.19 766.62"/>
  <path class="cls-2" d="m417.92,741.04l-.65.52c.62.77.36,1.66-.54,2.37l-16.35,13.07c-1.25,1-1.99.86-2.58.12l-.65.52,6.17,7.72.65-.52c-.64-.8-.56-1.5.68-2.49l4.04-3.23c.3.44.7,1,1.1,1.5.45.56.93,1.1,1.22,1.41-1.67,2.11-3.85,5.17-4.64,7.16l5.53,6.92.65-.52c-.64-.8-.61-1.31-.38-2.12.74-2.54,2.5-5.94,3.87-7.81,2.68,1.46,6.51,1.75,9.6-.71,6.11-4.89,3.37-10.57-1.52-16.69-2.42-3.03-5.05-5.89-6.2-7.21Zm3.15,18.6c-2.29,1.83-4.46,1.18-6.97-1.97-.45-.56-.9-1.18-1.31-1.82l6.29-5.03c.34.36.84.93,1.34,1.56,2.63,3.29,2.76,5.58.65,7.26Z"/>
  <path class="cls-2" d="m448.74,775.83l-.51.61c.67.56.63,1.62-.11,2.49l-13.52,16.09c-.83.99-1.65,1.2-2.44.54l-.54.64,12.54,10.54c.55.46,1.3,1.34,1.65,1.93l5.86-4.56-.5-.82c-1.3.6-1.89.6-2.97-.31l-6.66-5.6,3.67-4.36,5.99,5.04c.64.54.79,1.06.28,1.67l.67.56,4.96-5.91-.67-.56c-.54.64-1.08.58-1.72.04l-5.99-5.04,2.96-3.52,6.58,5.52c.99.83,1.17,1.33.93,2.62l.78.31,3.33-6.04c-.31-.16-1.39-.82-1.83-1.19l-12.75-10.71Z"/>
  <path class="cls-2" d="m491.46,805.43c-3.57-1.78-6.61-3.09-8.43-3.78l-.37.75c.76.42,1.02,1.36.51,2.38l-9.32,18.66c-.71,1.43-1.41,1.72-2.33,1.26l-.37.75c1.41.92,4.61,2.68,7.56,4.16,10.13,5.06,16.52,1.96,20.23-5.49,3.53-7.07,1.66-14.12-7.49-18.69Zm1.1,15.58c-2.44,4.9-6.06,6.27-9.77,4.42-.61-.3-1.41-.75-1.78-1.02l7.18-14.38c.56.24,1.36.59,1.94.88,3.37,1.68,4.85,5.26,2.44,10.09Z"/>
  <path class="cls-2" d="m550.1,824.43c.83.12,1.36.43,1.24,1.22-.04.26-.19.74-.37,1.21l-5.67,14.02h-.08s-2.34-12.35-2.34-12.35l-4.1-.61-5.85,11.11h-.08s-1.19-15.18-1.19-15.18c-.03-.31-.05-.7-.01-.92.13-.9.82-1.14,1.8-1l.12-.83-10.75-1.61-.12.83c1.01.15,1.34.82,1.56,2.42l2.95,19.58c.18,1.1.38,2.32.29,2.93-.11.71-.45.93-.94.86l-.12.83,9.06,1.36.12-.83c-.56-.08-.78-.46-.69-1.06.07-.49.53-1.23.9-1.9l3.34-6.11h.08s1.32,6.86,1.32,6.86c.21,1.15.31,1.54.24,2-.09.6-.41.94-.97.85l-.12.83,9.13,1.37.12-.83c-.56-.08-.78-.46-.69-1.06.07-.45.46-1.28.79-1.92l9.08-19.04c.68-1.47,1.05-1.65,2.07-1.5l.12-.83-10.11-1.51-.12.83Z"/>
  <path class="cls-2" d="m593.02,820.26c-7.01,1.37-11.61,7.54-9.89,16.31,1.56,7.94,7.36,13.08,15.35,11.51,8.02-1.57,11.47-8.44,9.9-16.46-1.71-8.73-8.3-12.74-15.35-11.36Zm4.33,22.31c-3.39.67-6.22-1.92-7.29-7.36-1.09-5.56.95-8.78,4.01-9.38,3.02-.59,6.13,1.24,7.3,7.21,1.05,5.37-.47,8.84-4.02,9.54Z"/>
  <path class="cls-2" d="m632.7,822.93c3.73,7.18,10.74,10.48,17.96,6.73,7.25-3.76,8.63-11.33,4.87-18.58-4.09-7.89-11.55-9.89-17.92-6.58-6.34,3.29-9.02,10.5-4.9,18.43Zm7.48-13.38c2.73-1.42,6.23-.54,9.03,4.86,2.52,4.86,2.03,8.62-1.17,10.28-3.07,1.59-6.51-.09-9.07-5.01-2.61-5.02-1.56-8.69,1.21-10.13Z"/>
  <path class="cls-2" d="m670.98,787.44l13.68,15.75c1.05,1.21,1.05,1.96.27,2.63l.55.63c1.39-.95,4.24-3.23,6.74-5.4,8.55-7.43,8.13-14.51,2.67-20.79-5.18-5.97-12.41-6.93-20.13-.23-3.01,2.62-5.38,4.93-6.72,6.34l.55.63c.68-.54,1.65-.42,2.39.44Zm8.34-4.07c2.84-2.47,6.72-2.46,10.26,1.61,3.59,4.13,3.48,8,.35,10.72-.52.45-1.23,1.02-1.62,1.26l-10.54-12.13c.43-.43,1.07-1.03,1.56-1.45Z"/>
  <path class="cls-2" d="m708.34,757.99c2.66,2.09,5.82,1.82,10.12-.51,5.09-2.72,6.07-2.87,6.88-2.24,1.11.87,1.16,2.46-.83,5-2.11,2.69-3.73,3.45-5.33,3.65-.91.11-1.68-.2-2.46-.43l-.49,1.3,7.71,4.27c.05-.25.26-.76.66-1.27.73-.93,3.48-3.02,4.96-4.9,4.48-5.71,3.48-10.22-.47-13.32-3.5-2.75-7.1-1.66-10.81.35-4.14,2.26-5.42,2.66-6.23,2.02-.81-.63-.99-2.13.8-4.4,1.62-2.06,2.65-2.7,3.69-3.04.89-.27,1.63-.17,2.31.07l.5-1.01-6.59-4.16c-.05.25-.27.71-.67,1.22-.63.81-2.62,2.29-3.75,3.73-4.34,5.53-3.83,10.67,0,13.67Z"/>
  <path class="cls-3" d="m824.15,502.39l.02-309.27-261.97-82.85-261.97,82.85.02,309.27h-46.59v165.35l12.61,3.26c.29.08,6.86,1.75,18.53,4.34,4.68,1.04,10.19,2.22,16.45,3.51,6.63,54.45,46.81,109.74,119.68,164.61,59.79,45.02,122.58,74.91,134.56,80.45l6.71,3.1,6.71-3.1c11.98-5.54,74.76-35.43,134.56-80.45,72.99-54.96,113.18-110.35,119.71-164.92,6.31-1.3,11.81-2.5,16.44-3.53,10.7-2.39,16.71-3.92,16.98-4l12.62-3.26v-165.35h-45.07Zm28.24,152.32s-134.58,34.79-290.95,34.79-290.95-34.79-290.95-34.79v-135.49h581.9v135.49Zm-465.92-253.27s5.9-33.55,14.11-47.51c9.92-16.89,22.37-30.71,22.37-30.71-76.19-72.01,5.33-149.19,56.4-81.4,15.21,19.44,43.7-24.41,82.3-.43,0,0,0,0,0,0,0,0,0,0,0,0,38.6-23.99,67.08,19.87,82.3.43,51.07-67.8,132.59,9.39,56.4,81.4,0,0,12.45,13.82,22.37,30.71,8.21,13.96,14.11,47.51,14.11,47.51,0,0-11.06-7.13-12.96-7.52,2.35,2.73,10.48,16.58,13.58,40.96,1.37,10.78.09,34.61-4.47,43.22-2.29-5.33-4.19-11.05-8.19-14.67,2.25,10.64-2.35,26.13-8.78,38.96h-12.09c-.02-.1-.04-.2-.05-.31,0,.1,0,.21,0,.31h-284.46c0-.1,0-.21,0-.31-.02.11-.04.21-.05.31h-12.09c-6.43-12.84-11.03-28.32-8.78-38.96-4,3.62-5.91,9.33-8.19,14.67-4.55-8.61-5.84-32.45-4.47-43.22,3.11-24.38,11.24-38.24,13.58-40.96-1.9.4-12.96,7.52-12.96,7.52Zm343.7,100.96h-.71c.12-.27.24-.54.36-.82l.35.82Zm-336.69-.81c.12.27.24.54.36.81h-.71l.35-.81Zm-77.25-296.74l47.57-15.05,198.39-62.75,245.96,77.79-.02,297.55h-74.24l9.84-18.61c6.46-12.22,7.2-39.33,5.78-50.44-.46-3.64-1.03-7.09-1.68-10.34l5.79,3.73-4.82-27.4c-.64-3.66-6.54-36.16-15.6-51.57-5.55-9.45-11.79-17.93-16.49-23.88,24.64-27.26,33.04-58.45,22.45-85.08-8.53-21.44-28.37-35.3-50.55-35.3-19.97,0-39.25,10.97-54.3,30.89-.16.2-.28.32-.35.39-.05,0-.12,0-.2,0-2.7,0-7.98-2.19-13.1-4.3-9.3-3.85-20.86-8.63-34.4-8.63-8.45,0-16.7,1.91-24.62,5.7-7.92-3.78-16.17-5.7-24.62-5.7-13.54,0-25.11,4.79-34.41,8.63-5.11,2.11-10.4,4.3-13.1,4.3-.08,0-.15,0-.2,0-.08-.07-.19-.19-.35-.39-15.05-19.93-34.33-30.89-54.3-30.89-22.18,0-42.02,13.86-50.55,35.3-10.59,26.63-2.19,57.82,22.45,85.08-4.7,5.96-10.94,14.44-16.49,23.88-9.06,15.41-14.96,47.91-15.6,51.57l-4.82,27.4,5.79-3.73c-.65,3.25-1.22,6.7-1.68,10.34-1.42,11.11-.68,38.23,5.78,50.45l9.84,18.61h-73.15l-.02-297.55Zm245.96,704.53c-22.4-10.35-224.01-106.64-244.29-227.22,54.11,10.36,144.84,24.18,243.53,24.18s191.2-14.1,245.1-24.48c-19.99,120.72-221.92,217.16-244.34,227.52Z"/>
  <path class="cls-1" d="m270.49,654.71s134.58,34.79,290.95,34.79,290.95-34.79,290.95-34.79v-135.49H270.49v135.49Zm501.34-14.98c4.11-29.77,8.23-59.1,12.37-87.93.14-.88.27-2.19.27-3.07,0-1.6-.83-3.06-2.47-3.05,0-.93,0-1.85,0-2.78,10-.04,20-.09,30-.13,0,.89,0,1.78,0,2.66-1.51.01-2.6,1.15-2.6,2.84,0,.99.14,1.97.28,3.23,4.14,27.5,8.25,54.47,12.35,80.87.54,3.23,2.04,3.81,4.08,3.47v2.6c-7.89,1.34-15.79,2.62-23.69,3.84,0-.9,0-1.8,0-2.7,2.32-.35,3.27-1.91,3.27-3.47,0-.56-.55-7.29-.97-9.93-1.63,1.07-4.91,2.21-7.77,2.59-2.87.37-6.55.12-8.33-.54-.4,2.81-1.21,9.6-1.21,10.48,0,1.75.96,2.92,3.28,2.59,0,.92,0,1.83,0,2.75-7.5,1.1-15.01,2.15-22.52,3.14,0-.94,0-1.89,0-2.83,1.91-.25,3.27-2.06,3.68-4.64Zm-10.12-96.75c0,.95,0,1.9,0,2.85-3.01.02-4.52,1.99-4.5,5.77.09,29.4.18,58.81.26,88.21.01,3.63,1.66,5.69,4.53,5.33,0,.95,0,1.9,0,2.86-8.61,1.11-17.23,2.14-25.85,3.1,0-.98,0-1.96,0-2.94,2.46-.27,4.51-2.65,4.5-6.5-.1-29.95-.19-59.9-.29-89.85-.01-3.84-1.66-5.83-4.54-5.82,0-.98,0-1.96,0-2.94,8.63-.03,17.26-.06,25.9-.09Zm-70.28.22c0,2.41.7,4.81,1.67,7.37,4.75,12.79,9.49,25.45,14.24,37.96.14,0,.27-.01.41-.02-.04-12.05-.08-24.1-.12-36.16-.01-3.8-1.94-6.17-4.68-6.16,0-1.01,0-2.02,0-3.02,8.27-.02,16.53-.05,24.8-.07,0,.99,0,1.97,0,2.96-2.47.01-4.65,2.37-4.64,6.13.1,30.41.2,60.81.3,91.22.01,3.91,1.25,5.98,3.58,5.74,0,.99,0,1.98,0,2.96-6.39.68-12.78,1.32-19.18,1.91-.03-9.52-.06-19.03-.09-28.55-5.48-13.52-10.96-27.25-16.45-41.16-.09,0-.18,0-.27,0,.06,20.62.13,41.23.19,61.85.01,3.7,1.8,6.12,4.55,5.89,0,1.01,0,2.03,0,3.04-8.23.71-16.46,1.35-24.69,1.93,0-1.03,0-2.06,0-3.09,2.75-.19,4.52-2.75,4.51-6.65-.09-31.55-.19-63.1-.28-94.64-.01-4.06-2.07-6.32-4.54-6.31,0-1.03,0-2.06,0-3.09,6.9-.01,13.79-.03,20.69-.05Zm-58.78-1.22c17.26.02,28.8,9.67,28.87,34.34.05,16.85-3.91,25.32-10.62,29.66,1.82,12.62,5.29,29.9,8.76,43.62.69,2.58,2.9,4.9,5.23,4.75,0,1.03,0,2.07,0,3.1-7.09.47-14.19.9-21.29,1.27-2.64-10.58-5.98-33.62-6.83-46.86-2.29.07-4.58.13-6.86.19.03,12.57.05,25.13.08,37.7,0,3.65,1.66,6.41,4.55,6.27,0,1.05,0,2.1,0,3.15-8.61.41-17.22.75-25.84,1.01,0-1.06,0-2.12,0-3.18,2.47-.08,4.53-2.48,4.53-6.66-.05-32.51-.1-65.01-.15-97.52,0-4.01-1.38-6.34-4.53-6.34,0-1.06,0-2.12,0-3.18,4.25-.51,15.48-1.35,24.11-1.35Zm-57.55-2.16c17.12.02,25.92,20.29,25.97,59.29.06,45.34-8.17,64.75-26.19,64.97-18.02.16-26.27-20-26.25-64.55.02-39.35,8.65-59.71,26.46-59.71Zm-79.54,116.71c2.47.1,4.54-2.33,4.55-6.33.06-32.46.11-64.91.17-97.37,0-4.17-2.05-6.34-4.51-6.35,0-1.05,0-2.11,0-3.16,11.88.01,23.75.02,35.63.03,2.88,0,5.89-.67,6.85-1.34,1.23,7.62,2.46,15.24,3.69,22.87-.96.33-1.92.67-2.88,1-1.09-3.7-3.01-5.72-6.44-5.73-5.26-.01-10.51-.03-15.77-.06-.01,9.82-.02,19.65-.04,29.47,4.94.05,9.88.1,14.82.13,2.88.02,5.22-2.65,5.22-5.68.82,0,1.65,0,2.47.01,0,9.36-.01,18.71-.02,28.07-.82,0-1.65-.01-2.47-.02,0-3.36-1.78-5.56-5.21-5.59-4.9-.05-9.79-.11-14.69-.18-.02,14.79-.04,29.59-.06,44.38,0,4.35,1.92,6.58,4.8,6.65,0,1.06,0,2.12,0,3.19-8.71-.21-17.41-.48-26.12-.83,0-1.05,0-2.11,0-3.16Zm-34.06-1.68c2.47.15,4.54-2.04,4.55-6.15.08-32.02.16-64.03.24-96.05.01-4.11-1.63-6.26-4.51-6.26,0-1.04,0-2.08,0-3.12,8.63.02,17.27.03,25.9.04,0,1.05,0,2.1,0,3.15-3.01,0-4.53,2.14-4.54,6.29-.07,32.26-.14,64.52-.21,96.78,0,3.98,1.63,6.54,4.52,6.67,0,1.05,0,2.1,0,3.15-8.66-.39-17.31-.85-25.96-1.38,0-1.04,0-2.08,0-3.12Zm-53.91-4.12c2.47.23,4.53-1.81,4.54-5.78.1-30.86.2-61.72.3-92.58.01-3.97-1.62-6.2-4.5-6.22,0-1,0-2,0-3.01,8.68.02,17.36.05,26.03.07,0,1.02,0,2.04,0,3.07-2.6,0-4.81,2.88-4.82,6.25-.09,28.84-.18,57.68-.27,86.53,5.58.39,11.16.76,16.74,1.1,3.7.23,5.63-1.78,7.02-5.63.91.43,1.83.86,2.74,1.29-1.35,7.56-2.7,15.1-4.04,22.63-1.1-.89-3.02-1.34-7.55-1.67-12.08-.88-24.15-1.89-36.21-3.05,0-1,0-2,0-3.01Zm-64.3-7.27c1.91.26,3.28-1.2,3.7-3.67,4.27-28.73,8.55-57.94,12.84-87.59.14-.9.28-2.26.28-3.16,0-1.66-.81-3.17-2.46-3.19,0-.95,0-1.9,0-2.86,10,.04,20,.07,30.01.1,0,.98,0,1.97,0,2.95-1.51,0-2.61,1.22-2.61,3.08,0,1.08.13,2.17.26,3.57,4.01,30.43,8.02,61.22,12.03,92.35.54,3.81,2.04,4.91,4.09,5.11,0,1,0,1.99,0,2.99-7.95-.79-15.89-1.64-23.82-2.55,0-.97,0-1.95,0-2.92,2.33.26,3.29-1.18,3.29-2.88,0-.62-.52-8.08-.92-11.05-1.65.77-4.93,1.21-7.81.92-2.87-.29-6.56-1.44-8.34-2.54-.42,2.84-1.26,9.71-1.26,10.61,0,1.81.95,3.29,3.27,3.57,0,.96,0,1.92,0,2.89-7.52-.92-15.04-1.89-22.55-2.92,0-.94,0-1.87,0-2.81Zm-21.79-102.63c3.15,0,7.94,1.02,9.73,1.03,1.23,0,2.74-.28,3.56-.57.99,6.53,1.98,13.09,2.97,19.67-1,.27-2.01.53-3.01.79-1.5-4.14-4.64-6.24-10.26-6.36-8.08-.12-14.94,10.73-14.96,36.01-.03,28.25,5.14,38.17,15.37,39.56,5.73.75,8.19-.98,9.84-5.91,1,.41,2,.82,3,1.22-1.11,6.72-2.22,13.42-3.32,20.08-.82-.41-1.91-.71-3.14-.89-1.09-.16-5.87.15-9.96-.48-19.62-3.25-28.99-23.85-29-55.01,0-31.15,11.23-48.96,29.18-49.13Z"/>
  <path class="cls-1" d="m797.04,613.69c2.32-.25,4.64-1.22,6-2.22-1.98-16.85-3.97-33.85-5.96-51-.32,0-.64.02-.96.03-1.89,17.29-3.77,34.73-5.64,52.3,1.37.73,4.24,1.15,6.56.9Z"/>
  <path class="cls-1" d="m378.38,617.4c-1.9-18.63-3.81-37.15-5.71-55.55-.32,0-.64-.02-.96-.02-1.98,18.29-3.95,36.47-5.92,54.53,1.37,1.03,4.24,2.04,6.56,2.24,2.33.2,4.66-.38,6.03-1.19Z"/>
  <path class="cls-1" d="m633.17,596.21c5.9-.13,11.1-4.57,11.07-19.25-.03-14.52-5.66-18.27-11.15-18.24-1.1,0-2.74.02-3.29.19.02,12.4.05,24.8.07,37.2,1.1.14,2.33.12,3.29.09Z"/>
  <path class="cls-1" d="m575.15,647.09c5.77-.06,8.65-11.19,8.62-47.64-.02-30.57-2.64-42.83-8.94-42.82-5.89,0-8.91,12.46-8.9,42.91,0,35.66,3.03,47.61,9.22,47.55Z"/>
  <path class="cls-2" d="m321.31,644.96c4.09.63,8.87.32,9.96.48,1.23.18,2.32.48,3.14.89,1.11-6.66,2.21-13.35,3.32-20.08-1-.41-2-.82-3-1.22-1.65,4.93-4.11,6.66-9.84,5.91-10.23-1.39-15.4-11.31-15.37-39.56.03-25.28,6.88-36.13,14.96-36.01,5.61.12,8.76,2.22,10.26,6.36,1-.26,2.01-.53,3.01-.79-.99-6.58-1.98-13.14-2.97-19.67-.82.29-2.33.58-3.56.57-1.78,0-6.57-1.03-9.73-1.03-17.96.17-29.19,17.98-29.18,49.13.01,31.16,9.38,51.76,29,55.01Z"/>
  <path class="cls-2" d="m365.83,646.29c-2.32-.28-3.28-1.76-3.27-3.57,0-.91.85-7.78,1.26-10.61,1.78,1.09,5.47,2.24,8.34,2.54,2.87.29,6.16-.15,7.81-.92.4,2.97.92,10.43.92,11.05,0,1.7-.97,3.14-3.29,2.88,0,.97,0,1.95,0,2.92,7.94.91,15.88,1.76,23.82,2.55,0-1,0-1.99,0-2.99-2.06-.2-3.56-1.29-4.09-5.11-4.01-31.12-8.01-61.92-12.03-92.35-.13-1.4-.27-2.48-.26-3.57,0-1.86,1.11-3.09,2.61-3.08,0-.98,0-1.97,0-2.95-10-.03-20-.07-30.01-.1,0,.95,0,1.9,0,2.86,1.64.01,2.46,1.53,2.46,3.19,0,.91-.14,2.26-.28,3.16-4.29,29.65-8.57,58.86-12.84,87.59-.42,2.47-1.79,3.93-3.7,3.67,0,.94,0,1.87,0,2.81,7.51,1.03,15.02,2,22.55,2.92,0-.96,0-1.92,0-2.89Zm5.88-84.47c.32,0,.64.02.96.02,1.91,18.4,3.81,36.92,5.71,55.55-1.37.81-3.7,1.39-6.03,1.19-2.33-.2-5.2-1.21-6.56-2.24,1.97-18.06,3.95-36.24,5.92-54.53Z"/>
  <path class="cls-2" d="m451.32,658.44c1.35-7.52,2.7-15.07,4.04-22.63-.91-.43-1.83-.86-2.74-1.29-1.38,3.84-3.31,5.85-7.02,5.63-5.58-.34-11.16-.71-16.74-1.1.09-28.84.18-57.68.27-86.53,0-3.38,2.21-6.26,4.82-6.25,0-1.02,0-2.04,0-3.07-8.68-.02-17.36-.04-26.03-.07,0,1,0,2,0,3.01,2.88.01,4.51,2.25,4.5,6.22-.1,30.86-.2,61.72-.3,92.58-.01,3.97-2.08,6.01-4.54,5.78,0,1,0,2,0,3.01,12.06,1.15,24.13,2.17,36.21,3.05,4.53.33,6.45.78,7.55,1.67Z"/>
  <path class="cls-2" d="m487.45,656.19c-2.89-.13-4.53-2.69-4.52-6.67.07-32.26.14-64.52.21-96.78,0-4.14,1.52-6.29,4.54-6.29,0-1.05,0-2.1,0-3.15-8.63-.01-17.27-.02-25.9-.04,0,1.04,0,2.08,0,3.12,2.88,0,4.52,2.15,4.51,6.26-.08,32.02-.16,64.03-.24,96.05,0,4.11-2.08,6.3-4.55,6.15,0,1.04,0,2.08,0,3.12,8.65.53,17.31.99,25.96,1.38,0-1.05,0-2.1,0-3.15Z"/>
  <path class="cls-2" d="m521.67,657.33c-2.89-.07-4.81-2.3-4.8-6.65.02-14.79.04-29.59.06-44.38,4.9.07,9.79.13,14.69.18,3.43.03,5.21,2.23,5.21,5.59.82,0,1.65.01,2.47.02,0-9.36.01-18.71.02-28.07-.82,0-1.65,0-2.47-.01,0,3.02-2.34,5.7-5.22,5.68-4.94-.04-9.88-.08-14.82-.13.01-9.82.02-19.65.04-29.47,5.26.02,10.51.04,15.77.06,3.43,0,5.35,2.03,6.44,5.73.96-.33,1.92-.67,2.88-1-1.23-7.62-2.46-15.25-3.69-22.87-.96.67-3.97,1.34-6.85,1.34-11.88,0-23.75-.02-35.63-.03,0,1.05,0,2.11,0,3.16,2.47,0,4.52,2.18,4.51,6.35-.06,32.46-.11,64.91-.17,97.37,0,4-2.07,6.43-4.55,6.33,0,1.05,0,2.11,0,3.16,8.7.35,17.41.62,26.12.83,0-1.06,0-2.12,0-3.19Z"/>
  <path class="cls-2" d="m574.88,664.08c18.02-.22,26.24-19.63,26.19-64.97-.05-39-8.85-59.27-25.97-59.29-17.81,0-26.45,20.36-26.46,59.71-.02,44.55,8.23,64.71,26.25,64.55Zm-.05-107.45c6.3,0,8.92,12.25,8.94,42.82.03,36.45-2.85,47.58-8.62,47.64-6.19.05-9.21-11.89-9.22-47.55,0-30.45,3.01-42.9,8.9-42.91Z"/>
  <path class="cls-2" d="m613.07,552.84c.05,32.51.1,65.01.15,97.52,0,4.17-2.05,6.58-4.53,6.66,0,1.06,0,2.12,0,3.18,8.61-.27,17.23-.61,25.84-1.01,0-1.05,0-2.1,0-3.15-2.88.13-4.54-2.62-4.55-6.27-.03-12.57-.05-25.13-.08-37.7,2.29-.06,4.57-.13,6.86-.19.85,13.24,4.2,36.28,6.83,46.86,7.1-.38,14.19-.8,21.29-1.27,0-1.03,0-2.07,0-3.1-2.33.15-4.54-2.17-5.23-4.75-3.47-13.72-6.94-31-8.76-43.62,6.71-4.34,10.67-12.81,10.62-29.66-.07-24.67-11.6-34.32-28.87-34.34-8.63,0-19.87.85-24.11,1.35,0,1.06,0,2.12,0,3.18,3.15,0,4.53,2.33,4.53,6.34Zm20.02,5.88c5.48-.04,11.11,3.72,11.15,18.24.03,14.68-5.17,19.11-11.07,19.25-.96.02-2.2.05-3.29-.09-.02-12.4-.05-24.8-.07-37.2.55-.17,2.19-.18,3.29-.19Z"/>
  <path class="cls-2" d="m675.29,552.64c.09,31.55.19,63.1.28,94.64.01,3.89-1.77,6.46-4.51,6.65,0,1.03,0,2.06,0,3.09,8.24-.58,16.47-1.22,24.69-1.93,0-1.01,0-2.03,0-3.04-2.74.23-4.53-2.2-4.55-5.89-.06-20.62-.13-41.23-.19-61.85.09,0,.18,0,.27,0,5.48,13.91,10.96,27.63,16.45,41.16.03,9.52.06,19.03.09,28.55,6.4-.6,12.79-1.24,19.18-1.91,0-.99,0-1.98,0-2.96-2.33.24-3.57-1.83-3.58-5.74-.1-30.41-.2-60.81-.3-91.22-.01-3.76,2.17-6.12,4.64-6.13,0-.99,0-1.97,0-2.96-8.27.03-16.53.05-24.8.07,0,1.01,0,2.02,0,3.02,2.74-.01,4.67,2.36,4.68,6.16.04,12.05.08,24.1.12,36.16-.14,0-.27.01-.41.02-4.75-12.5-9.49-25.16-14.24-37.96-.97-2.56-1.66-4.97-1.67-7.37-6.9.02-13.79.03-20.69.05,0,1.03,0,2.06,0,3.09,2.47,0,4.53,2.26,4.54,6.31Z"/>
  <path class="cls-2" d="m740.37,551.82c.1,29.95.19,59.9.29,89.85.01,3.84-2.03,6.23-4.5,6.5,0,.98,0,1.96,0,2.94,8.62-.96,17.24-2,25.85-3.1,0-.95,0-1.9,0-2.86-2.87.36-4.52-1.71-4.53-5.33-.09-29.4-.18-58.81-.26-88.21-.01-3.78,1.49-5.75,4.5-5.77,0-.95,0-1.9,0-2.85-8.63.03-17.26.06-25.9.09,0,.98,0,1.96,0,2.94,2.88-.02,4.53,1.97,4.54,5.82Z"/>
  <path class="cls-2" d="m790.69,644.05c0-.92,0-1.83,0-2.75-2.32.33-3.28-.84-3.28-2.59,0-.87.8-7.67,1.21-10.48,1.78.65,5.46.91,8.33.54,2.86-.37,6.14-1.52,7.77-2.59.41,2.64.97,9.36.97,9.93,0,1.56-.95,3.12-3.27,3.47,0,.9,0,1.8,0,2.7,7.9-1.22,15.8-2.5,23.69-3.84v-2.6c-2.04.34-3.54-.24-4.08-3.47-4.09-26.4-8.21-53.37-12.35-80.87-.14-1.26-.28-2.25-.28-3.23,0-1.69,1.09-2.83,2.6-2.84,0-.89,0-1.78,0-2.66-10,.05-20,.09-30,.13,0,.93,0,1.85,0,2.78,1.65-.01,2.47,1.44,2.47,3.05,0,.88-.13,2.19-.27,3.07-4.13,28.84-8.26,58.16-12.37,87.93-.4,2.57-1.76,4.39-3.68,4.64,0,.94,0,1.89,0,2.83,7.51-.99,15.02-2.04,22.52-3.14Zm5.44-83.55c.32,0,.64-.02.96-.03,1.99,17.15,3.98,34.15,5.96,51-1.36,1-3.68,1.97-6,2.22-2.32.25-5.19-.17-6.56-.9,1.88-17.57,3.76-35.01,5.64-52.3Z"/>
</svg>