<?xml version="1.0" encoding="UTF-8"?>
<svg id="SHIELD" xmlns="http://www.w3.org/2000/svg" version="1.1" viewBox="0 0 1080 1080">
  <!-- Generator: Adobe Illustrator 30.1.0, SVG Export Plug-In . SVG Version: 2.1.1 Build 136)  -->
  <defs>
    <style>
      .st0 {
        fill: none;
      }
    </style>
  </defs>
  <path class="st0" d="M547.1,562h0c.7.1,3.7.5,6.4,1.5-3.1-1.1-6.4-1.5-6.4-1.5h0Z"/>
  <path d="M782.7,703.1c2.3-.2,4.6-1.2,6-2.2-2-16.8-4-33.8-6-51-.3,0-.6,0-1,0-1.9,17.3-3.8,34.7-5.6,52.3,1.4.7,4.2,1.2,6.6.9h0Z"/>
  <path d="M357.4,651.2c-2,18.3-4,36.5-5.9,54.5,1.4,1,4.2,2,6.6,2.2,2.3.2,4.7-.4,6-1.2-1.9-18.6-3.8-37.2-5.7-55.5-.3,0-.6,0-1,0h0Z"/>
  <path d="M618.8,685.6c5.9-.1,11.1-4.6,11.1-19.2,0-14.5-5.7-18.3-11.2-18.2-1.1,0-2.7,0-3.3.2,0,12.4,0,24.8,0,37.2,1.1.1,2.3.1,3.3,0h0Z"/>
  <path d="M569.4,688.8c0-30.6-2.6-42.8-8.9-42.8-5.9,0-8.9,12.5-8.9,42.9,0,35.7,3,47.6,9.2,47.5,5.8,0,8.7-11.2,8.6-47.6h0Z"/>
  <path d="M838,744.1v-135.5H256.1v135.5s134.6,34.8,291,34.8,291-34.8,291-34.8ZM757.5,729.1c4.1-29.8,8.2-59.1,12.4-87.9.1-.9.3-2.2.3-3.1,0-1.6-.8-3.1-2.5-3v-2.8c10,0,20,0,30-.1v2.7c-1.5,0-2.6,1.2-2.6,2.8s.1,2,.3,3.2c4.1,27.5,8.2,54.5,12.3,80.9.5,3.2,2,3.8,4.1,3.5v2.6c-7.9,1.3-15.8,2.6-23.7,3.8v-2.7c2.3-.3,3.3-1.9,3.3-3.5s-.5-7.3-1-9.9c-1.6,1.1-4.9,2.2-7.8,2.6-2.9.4-6.5.1-8.3-.5-.4,2.8-1.2,9.6-1.2,10.5,0,1.8,1,2.9,3.3,2.6v2.8c-7.5,1.1-15,2.2-22.5,3.1v-2.8c1.9-.2,3.3-2.1,3.7-4.6h0ZM747.4,632.4v2.8c-3,0-4.5,2-4.5,5.8,0,29.4.2,58.8.3,88.2,0,3.6,1.7,5.7,4.5,5.3v2.9c-8.6,1.1-17.2,2.1-25.8,3.1v-2.9c2.5-.3,4.5-2.7,4.5-6.5,0-30-.2-59.9-.3-89.8,0-3.8-1.7-5.8-4.5-5.8v-2.9c8.6,0,17.3,0,25.9,0h0ZM677.1,632.6c0,2.4.7,4.8,1.7,7.4,4.8,12.8,9.5,25.5,14.2,38,.1,0,.3,0,.4,0,0-12,0-24.1-.1-36.2,0-3.8-1.9-6.2-4.7-6.2v-3c8.3,0,16.5,0,24.8,0v3c-2.5,0-4.7,2.4-4.6,6.1,0,30.4.2,60.8.3,91.2,0,3.9,1.2,6,3.6,5.7v3c-6.4.7-12.8,1.3-19.2,1.9,0-9.5,0-19,0-28.5-5.5-13.5-11-27.2-16.5-41.2h-.3c0,20.6.1,41.2.2,61.8,0,3.7,1.8,6.1,4.5,5.9v3c-8.2.7-16.5,1.3-24.7,1.9v-3.1c2.7-.2,4.5-2.8,4.5-6.7,0-31.5-.2-63.1-.3-94.6,0-4.1-2.1-6.3-4.5-6.3v-3.1c6.9,0,13.8,0,20.7,0h0ZM618.3,631.4c17.3,0,28.8,9.7,28.9,34.3,0,16.8-3.9,25.3-10.6,29.7,1.8,12.6,5.3,29.9,8.8,43.6.7,2.6,2.9,4.9,5.2,4.8v3.1c-7.1.5-14.2.9-21.3,1.3-2.6-10.6-6-33.6-6.8-46.9-2.3,0-4.6.1-6.9.2,0,12.6,0,25.1,0,37.7,0,3.7,1.7,6.4,4.5,6.3v3.2c-8.6.4-17.2.8-25.8,1v-3.2c2.5,0,4.5-2.5,4.5-6.7,0-32.5,0-65-.2-97.5,0-4-1.4-6.3-4.5-6.3v-3.2c4.2-.5,15.5-1.3,24.1-1.3h0ZM310.5,720.3c5.7.8,8.2-1,9.8-5.9,1,.4,2,.8,3,1.2-1.1,6.7-2.2,13.4-3.3,20.1-.8-.4-1.9-.7-3.1-.9-1.1-.2-5.9.2-10-.5-19.6-3.2-29-23.8-29-55,0-31.2,11.2-49,29.2-49.1,3.1,0,8,1,9.7,1,1.2,0,2.7-.3,3.6-.6,1,6.5,2,13.1,3,19.7-1,.3-2,.5-3,.8-1.5-4.1-4.6-6.2-10.3-6.4-8.1-.1-14.9,10.7-15,36,0,28.2,5.1,38.2,15.4,39.6h0ZM387.1,742.5c-8-.8-15.9-1.6-23.8-2.5v-2.9c2.3.3,3.3-1.2,3.3-2.9,0-.6-.5-8.1-.9-11-1.6.8-4.9,1.2-7.8.9-2.9-.3-6.6-1.4-8.3-2.5-.4,2.8-1.3,9.7-1.3,10.6,0,1.8,1,3.3,3.3,3.6v2.9c-7.5-.9-15-1.9-22.5-2.9v-2.8c1.9.3,3.3-1.2,3.7-3.7,4.3-28.7,8.5-58,12.8-87.6.1-.9.3-2.3.3-3.2,0-1.7-.8-3.2-2.5-3.2v-2.9c10,0,20,0,30,0v3c-1.5,0-2.6,1.2-2.6,3.1s.1,2.2.3,3.6c4,30.4,8,61.2,12,92.3.5,3.8,2,4.9,4.1,5.1v3h0ZM437,747.8c-1.1-.9-3-1.3-7.5-1.7-12.1-.9-24.1-1.9-36.2-3v-3c2.5.2,4.5-1.8,4.5-5.8.1-30.9.2-61.7.3-92.6,0-4-1.6-6.2-4.5-6.2v-3c8.7,0,17.4,0,26,0v3.1c-2.6,0-4.8,2.9-4.8,6.2,0,28.8-.2,57.7-.3,86.5,5.6.4,11.2.8,16.7,1.1,3.7.2,5.6-1.8,7-5.6.9.4,1.8.9,2.7,1.3-1.4,7.6-2.7,15.1-4,22.6h0ZM473.3,635.9c-3,0-4.5,2.1-4.5,6.3,0,32.3-.1,64.5-.2,96.8,0,4,1.6,6.5,4.5,6.7v3.2c-8.7-.4-17.3-.8-26-1.4v-3.1c2.5.2,4.5-2,4.5-6.2,0-32,.2-64,.2-96,0-4.1-1.6-6.3-4.5-6.3v-3.1c8.6,0,17.3,0,25.9,0v3.2h0ZM517.3,679.1c2.9,0,5.2-2.7,5.2-5.7.8,0,1.7,0,2.5,0,0,9.4,0,18.7,0,28.1-.8,0-1.7,0-2.5,0,0-3.4-1.8-5.6-5.2-5.6-4.9,0-9.8-.1-14.7-.2,0,14.8,0,29.6,0,44.4,0,4.3,1.9,6.6,4.8,6.7v3.2c-8.7-.2-17.4-.5-26.1-.8v-3.2c2.5,0,4.5-2.3,4.5-6.3,0-32.5.1-64.9.2-97.4,0-4.2-2-6.3-4.5-6.3v-3.2c11.9,0,23.8,0,35.6,0,2.9,0,5.9-.7,6.8-1.3,1.2,7.6,2.5,15.2,3.7,22.9-1,.3-1.9.7-2.9,1-1.1-3.7-3-5.7-6.4-5.7-5.3,0-10.5,0-15.8,0,0,9.8,0,19.7,0,29.5,4.9,0,9.9,0,14.8.1h0ZM534.3,688.9c0-39.3,8.7-59.7,26.5-59.7,17.1,0,25.9,20.3,26,59.3,0,45.3-8.2,64.8-26.2,65-18,.2-26.3-20-26.2-64.5h0Z"/>
  <g>
    <path class="st0" d="M518.6,495.5c-.2-.1-.5-.3-.7-.4.2.1.5.3.7.4Z"/>
    <path class="st0" d="M517.8,495.1c-.2-.1-.4-.2-.6-.3.2.1.4.2.6.3Z"/>
    <path class="st0" d="M514.7,493.7c-.2,0-.3,0-.5-.1.2,0,.3,0,.5.1Z"/>
    <path class="st0" d="M515.5,494c-.2,0-.3-.1-.5-.2.2,0,.3.1.5.2Z"/>
    <path class="st0" d="M516.3,494.3c-.2,0-.3-.1-.5-.2.2,0,.3.1.5.2Z"/>
    <path class="st0" d="M517,494.6c-.2,0-.4-.2-.5-.3.2,0,.4.2.5.3Z"/>
    <path class="st0" d="M359.4,521.7c-1.4,11.1-.7,38.2,5.8,50.5l2.4,4.6h19.5c-3-9-4.4-18-3-25-4,3.6-5.9,9.3-8.2,14.7-4.5-8.6-5.8-32.5-4.5-43.2,3.1-24.4,11.2-38.2,13.6-41-1.9.4-13,7.5-13,7.5,0,0,5.9-33.5,14.1-47.5,9.9-16.9,22.4-30.7,22.4-30.7-76.2-72,5.3-149.2,56.4-81.4,15.2,19.4,43.7-24.4,82.3-.4h0c38.6-24,67.1,19.9,82.3.4,51.1-67.8,132.6,9.4,56.4,81.4,0,0,12.5,13.8,22.4,30.7,8.2,14,14.1,47.5,14.1,47.5,0,0-11.1-7.1-13-7.5,2.3,2.7,10.5,16.6,13.6,41,1.4,10.8,0,34.6-4.5,43.2-2.3-5.3-4.2-11-8.2-14.7,1.5,7,0,16-3,25h19.5l2.4-4.6c6.5-12.2,7.2-39.3,5.8-50.5-.5-3.6-1-7.1-1.7-10.3l5.8,3.7-4.8-27.4c-.6-3.7-6.5-36.2-15.6-51.6-5.5-9.5-11.8-17.9-16.5-23.9,24.6-27.3,33-58.5,22.5-85.1-8.5-21.4-28.4-35.3-50.5-35.3s-39.2,11-54.3,30.9c-.2.2-.3.3-.3.4h-.2c-2.7,0-8-2.2-13.1-4.3-9.3-3.9-20.9-8.6-34.4-8.6s-16.7,1.9-24.6,5.7c-7.9-3.8-16.2-5.7-24.6-5.7-13.5,0-25.1,4.8-34.4,8.6-5.1,2.1-10.4,4.3-13.1,4.3h-.2c0,0-.2-.2-.4-.4-15-19.9-34.3-30.9-54.3-30.9s-42,13.9-50.5,35.3c-10.6,26.6-2.2,57.8,22.5,85.1-4.7,6-10.9,14.4-16.5,23.9-9.1,15.4-15,47.9-15.6,51.6l-4.8,27.4,5.8-3.7c-.6,3.3-1.2,6.7-1.7,10.3h0Z"/>
    <path class="st0" d="M540.7,563.5c-3.1,1.1-17.8,6.8-17.8,6.8v6.5h19c3.1-1.3,5.2-2.1,5.2-2.1h0s0,0,0,0c0,0,2.2.9,5.2,2.1h19v-6.5s-14.7-5.7-17.8-6.8-6.4-1.5-6.4-1.5h0s0,0,0,0c0,0-3.3.4-6.4,1.5h0Z"/>
    <path class="st0" d="M581.9,493.4c-.3,0-.5,0-.8,0,.3,0,.5,0,.8,0Z"/>
    <path class="st0" d="M547.1,507.5c19.8,0,25.6-13.2,33.9-14.1-8.3.8-15.1,13.5-33.9,14h0Z"/>
    <path class="st0" d="M513.1,493.4c-.3,0-.5,0-.8,0,.3,0,.5,0,.8,0Z"/>
    <path class="st0" d="M428.8,323.5c-15-3.7-31,10.8-31,10.8,5.7,3,12.1,4.2,18.5,3.5,6-.7,12.1.7,17.3,4l19.8,12.8c-4.7-21.3-18.2-29.4-24.6-31h0Z"/>
    <path class="st0" d="M681.1,337.7c6.3.8,12.8-.4,18.5-3.5h0s-15.9-14.4-31-10.8c-6.4,1.5-19.9,9.6-24.6,31l19.8-12.8c5.1-3.3,11.2-4.7,17.3-4h0Z"/>
    <path class="st0" d="M239.3,757.1l12.6,3.3c1.4.3,138.2,35.3,295.2,35.3s293.8-35,295.2-35.3l12.6-3.3v-165.3H239.3v165.3Z"/>
    <path class="st0" d="M513.9,493.5c-.2,0-.4,0-.5,0,.2,0,.4,0,.5,0Z"/>
    <path class="st0" d="M646.1,394.3c-2.8-9-10.6-8.9-21-6.1-10.4,2.8-18.7,22.4-18.7,22.4,5.7,1.3,13.5,2.1,24.9.7,11.4-1.5,17.6-7.9,14.8-16.9h0Z"/>
    <path class="st0" d="M518.6,495.6c6,3.9,12.8,11.5,27.2,11.9h0c-14.4-.4-21.1-8-27.2-11.9Z"/>
    <path class="st0" d="M546,507.5c.4,0,.8,0,1.1,0-.4,0-.8,0-1.1,0h0Z"/>
    <path class="st0" d="M462.9,411.2c11.4,1.5,19.2.6,24.9-.7,0,0-8.3-19.6-18.7-22.4s-18.2-3-21,6.1c-2.8,9,3.4,15.5,14.8,16.9h0Z"/>
    <path d="M743.8,576.8c4.6-10.3,6.4-24.5,6.8-36.5l9.4,6-10.8-61.2c-1.1-6.4-7.3-39.2-17.4-56.6-3.4-5.8-7-11.1-10.3-15.8,22.5-29.5,28.8-62.2,17.3-91.1-10.8-27.2-36.1-44.8-64.5-44.8s-42.9,10.2-59.9,29.1c-.8-.4-1.7-.7-2.3-1-10-4.1-23.6-9.8-40.1-9.8s-16.6,1.5-24.6,4.4c-8-2.9-16.2-4.4-24.6-4.4-16.5,0-30.2,5.6-40.1,9.8-.7.3-1.5.6-2.3,1-17-18.8-37.9-29.1-59.9-29.1s-53.7,17.6-64.5,44.8c-11.5,28.9-5.2,61.6,17.3,91.1-3.3,4.7-6.9,10.1-10.3,15.8-10.2,17.3-16.3,50.2-17.4,56.6l-10.8,61.2,9.4-6c.4,12,2.2,26.3,6.8,36.5h-126.5v192l23.9,6.2c1.4.4,140,35.8,298.9,35.8s297.5-35.5,298.9-35.8l23.9-6.2v-192h-126.1ZM360.1,487.7c.6-3.7,6.5-36.2,15.6-51.6,5.5-9.5,11.8-17.9,16.5-23.9-24.6-27.3-33-58.5-22.5-85.1,8.5-21.4,28.4-35.3,50.5-35.3s39.2,11,54.3,30.9c.2.2.3.3.4.4h.2c2.7,0,8-2.2,13.1-4.3,9.3-3.9,20.9-8.6,34.4-8.6s16.7,1.9,24.6,5.7c7.9-3.8,16.2-5.7,24.6-5.7,13.5,0,25.1,4.8,34.4,8.6,5.1,2.1,10.4,4.3,13.1,4.3h.2c0,0,.2-.2.3-.4,15-19.9,34.3-30.9,54.3-30.9s42,13.9,50.5,35.3c10.6,26.6,2.2,57.8-22.5,85.1,4.7,6,10.9,14.4,16.5,23.9,9.1,15.4,15,47.9,15.6,51.6l4.8,27.4-5.8-3.7c.7,3.2,1.2,6.7,1.7,10.3,1.4,11.1.7,38.2-5.8,50.5l-2.4,4.6h-19.5c3-9,4.4-18,3-25,4,3.6,5.9,9.3,8.2,14.7,4.5-8.6,5.8-32.5,4.5-43.2-3.1-24.4-11.2-38.2-13.6-41,1.9.4,13,7.5,13,7.5,0,0-5.9-33.5-14.1-47.5-9.9-16.9-22.4-30.7-22.4-30.7,76.2-72-5.3-149.2-56.4-81.4-15.2,19.4-43.7-24.4-82.3-.4h0c-38.6-24-67.1,19.9-82.3.4-51.1-67.8-132.6,9.4-56.4,81.4,0,0-12.5,13.8-22.4,30.7-8.2,14-14.1,47.5-14.1,47.5,0,0,11.1-7.1,13-7.5-2.4,2.7-10.5,16.6-13.6,41-1.4,10.8,0,34.6,4.5,43.2,2.3-5.3,4.2-11,8.2-14.7-1.5,7,0,16,3,25h-19.5l-2.4-4.6c-6.5-12.2-7.2-39.3-5.8-50.5.5-3.6,1-7.1,1.7-10.3l-5.8,3.7,4.8-27.4h0ZM547.1,562h0s3.3.3,6.4,1.4c3.1,1.1,17.8,6.8,17.8,6.8v6.5h-19c-3.1-1.3-5.2-2.1-5.2-2.1h0s0,0,0,0c0,0-2.2.9-5.2,2.1h-19v-6.5s14.7-5.7,17.8-6.8,6.4-1.5,6.4-1.5h0s0,0,0,0ZM556.6,552.5c0-7.2,27.6-19.9,27.6-19.9l9.6-30.6s-3-8.6-11.9-8.6-.5,0-.8,0h0c-8.4.9-14.2,14.1-33.9,14.1h0s0,0,0,0c-.4,0-.8,0-1.1,0h-.2c-14.4-.4-21.1-8-27.2-11.9h0c-.2-.1-.5-.3-.7-.4,0,0,0,0-.1,0-.2-.1-.4-.2-.6-.3s-.1,0-.2-.1c-.2-.1-.4-.2-.5-.3s-.2,0-.2-.1c-.2,0-.3-.1-.5-.2,0,0-.2,0-.3-.1-.2,0-.3-.1-.5-.2,0,0-.2,0-.3,0-.2,0-.3,0-.5-.1,0,0-.2,0-.3,0-.2,0-.4,0-.5,0,0,0-.2,0-.2,0-.3,0-.5,0-.8,0-8.9,0-11.9,8.6-11.9,8.6l9.6,30.6s27.6,12.7,27.6,19.9-24.5,12.8-24.5,12.8l-30.2-17.6-13.9-30.6s11.7-32,21.9-60.7c8-22.6,14.1-42.2,16-45.4,5.6-9.6,20.2-15.2,20.2-15.2l20,17.9h0s0,0,0,0l20-17.9s14.6,5.6,20.2,15.2c1.9,3.3,8,22.9,16,45.4,10.2,28.7,21.9,60.7,21.9,60.7l-13.9,30.6-30.2,17.6s-24.5-5.6-24.5-12.8h0ZM448.1,394.3c2.8-9,10.6-8.9,21-6.1,10.4,2.8,18.7,22.4,18.7,22.4-5.7,1.3-13.5,2.1-24.9.7-11.4-1.5-17.6-7.9-14.8-16.9h0ZM433.6,341.7c-5.1-3.3-11.2-4.7-17.3-4-6.4.8-12.8-.4-18.5-3.5,0,0,15.9-14.4,31-10.8,6.4,1.5,19.9,9.6,24.6,31l-19.8-12.8h0ZM606.3,410.6s8.3-19.6,18.7-22.4,18.2-3,21,6.1c2.8,9-3.4,15.5-14.8,16.9-11.4,1.5-19.2.6-24.9-.7h0ZM644,354.5c4.7-21.3,18.2-29.4,24.6-31,15-3.7,31,10.8,31,10.8h0c-5.7,3-12.1,4.2-18.5,3.5-6-.7-12.1.7-17.3,4l-19.8,12.8h0ZM854.8,757.1l-12.6,3.3c-1.4.3-138.2,35.3-295.2,35.3s-293.8-35-295.2-35.3l-12.6-3.3v-165.3h615.6v165.3h0Z"/>
  </g>
</svg>