<?xml version="1.0" encoding="UTF-8"?>
<svg id="ICON" xmlns="http://www.w3.org/2000/svg" version="1.1" viewBox="0 0 1080 1080">
  <!-- Generator: Adobe Illustrator 30.1.0, SVG Export Plug-In . SVG Version: 2.1.1 Build 136)  -->
  <defs>
    <style>
      .st0 {
        fill: none;
      }

      .st1 {
        fill: #754c24;
      }
    </style>
  </defs>
  <path class="st0" d="M563.6,682.7h0Z"/>
  <path class="st0" d="M471.2,478.4s-9.9-23.3-22.3-26.6c-12.4-3.3-21.7-3.5-25,7.2s4.1,18.4,17.6,20.1c13.6,1.8,22.9.8,29.6-.8h0Z"/>
  <path class="st0" d="M401,374.9c-17.9-4.4-36.8,12.8-36.8,12.8,6.7,3.6,14.4,5,21.9,4.1,7.2-.9,14.4.8,20.5,4.7l23.6,15.2c-5.6-25.4-21.7-35-29.3-36.8h0Z"/>
  <path class="st0" d="M520.2,682.4c9.5-4.2,21.3-8.9,21.4-8.9h0c-.1,0-11.9,4.8-21.4,8.9Z"/>
  <path class="st0" d="M518.9,683c-.3.1-.6.3-.9.4.3-.1.6-.3.9-.4Z"/>
  <path class="st0" d="M634.4,451.8c-12.4,3.3-22.3,26.6-22.3,26.6,6.8,1.6,16.1,2.5,29.6.8s20.9-9.4,17.6-20.1c-3.3-10.8-12.6-10.6-25-7.2h0Z"/>
  <path class="st0" d="M686.1,374.9c-7.6,1.8-23.7,11.5-29.3,36.8l23.6-15.2c6.1-3.9,13.3-5.6,20.5-4.7,7.6.9,15.2-.5,21.9-4.1,0,0-19-17.1-36.8-12.8h0Z"/>
  <path class="st0" d="M594.5,492.1c-1.6-4.8-3-8.6-4-11-.4-1.1-.8-1.9-1.1-2.3-.4-.7-.9-1.4-1.4-2.1-1-1.4-2.1-2.6-3.3-3.8s-2.5-2.3-3.8-3.3c-.3-.3-.7-.5-1-.8-4-3-8.2-5.2-11-6.5-2.1-1-3.5-1.5-3.5-1.5l-23.8,21.3h0s0,0,0,0l-23.8-21.3s-1.4.5-3.5,1.5c-2.8,1.3-7,3.5-11,6.5-.3.2-.7.5-1,.8-1.3,1-2.6,2.1-3.8,3.3-1.2,1.2-2.3,2.5-3.3,3.8-.5.7-1,1.4-1.4,2.1-.3.5-.6,1.3-1.1,2.3-1,2.4-2.3,6.1-4,11-3.5,10.1-8.3,24.8-14,40.8-12.1,34.1-26,72.2-26,72.2l16.5,36.4,35.9,20.9s6.4-1.5,13.2-3.9c1.4-.5,2.7-1,4.1-1.6.9-.4,1.8-.8,2.6-1.2.8-.4,1.7-.8,2.5-1.2,1.2-.7,2.2-1.3,3.2-2,.6-.5,1.2-1,1.7-1.4s.9-1,1.2-1.5c.5-.8.7-1.5.7-2.3,0-1.3-.8-2.8-2.2-4.4-.3-.3-.6-.6-.9-1-.6-.6-1.3-1.3-2.1-2-1.2-1-2.5-2-3.8-3-.9-.7-1.9-1.3-2.9-2s-2-1.3-3-1.9c-.5-.3-1-.6-1.5-.9-8.2-4.9-16.4-8.7-16.4-8.7l-11.4-36.4s3.6-10.2,14.1-10.2.6,0,1,0c.1,0,.2,0,.3,0,.2,0,.4,0,.7,0,.1,0,.2,0,.3,0,.2,0,.4,0,.6.2.1,0,.2,0,.3,0,.2,0,.4.1.6.2,0,0,.2,0,.2,0,.2,0,.5.2.7.3,0,0,.1,0,.2,0,.2.1.5.2.7.4,0,0,0,0,.1,0,7.8,4.1,15.6,14.8,34.5,15.2h0c0,0,.2,0,.3,0,.3,0,.6,0,.8,0h0s0,0,0,0c23.5,0,30.4-15.7,40.4-16.8h0c.3,0,.7,0,1,0,10.5,0,14.1,10.2,14.1,10.2l-11.4,36.4s-8.2,3.8-16.4,8.7c-.5.3-1,.6-1.5.9-1,.6-2,1.3-3,1.9-1,.7-2,1.3-2.9,2-1.4,1-2.7,2-3.8,3-.8.7-1.5,1.3-2.1,2-.3.3-.6.6-.9,1-1.3,1.6-2.2,3.1-2.2,4.4s.3,1.6.7,2.3c.3.5.7,1,1.2,1.5s1,1,1.7,1.4c.9.7,2,1.4,3.2,2,.8.4,1.6.8,2.5,1.2.8.4,1.7.8,2.6,1.2,1.3.6,2.7,1.1,4.1,1.6,6.8,2.4,13.2,3.9,13.2,3.9l35.9-20.9,16.5-36.4s-13.9-38.1-26-72.2c-5.7-16-10.5-30.6-14-40.8h0Z"/>
  <path class="st1" d="M416.9,745.2c-.5-.6-1-1.2-1.4-1.7.4.5.9,1.1,1.4,1.7Z"/>
  <path class="st1" d="M413.6,741.1s.7.9,1.9,2.4c-1.2-1.5-1.9-2.4-1.9-2.4h0Z"/>
  <path class="st1" d="M668.3,743.4s0,0,0,0c0,0,0,0,0,0Z"/>
  <path class="st1" d="M668.3,743.4c1.2-1.5,1.8-2.3,1.8-2.3h0s-.7.8-1.8,2.3Z"/>
  <path class="st1" d="M665.4,760.3h0s.2-.6.5-1.5c-.3.9-.5,1.5-.5,1.5Z"/>
  <path d="M751,612.4c-3.7-29-13.4-45.5-16.2-48.7,2.3.5,15.4,9,15.4,9,0,0-7-39.9-16.8-56.5-11.8-20.1-26.6-36.5-26.6-36.5,90.6-85.6-6.3-177.4-67.1-96.8-18.1,23.1-52-29-97.9-.5h0c-45.9-28.5-79.8,23.6-97.9.5-60.7-80.6-157.7,11.2-67.1,96.8,0,0-14.8,16.4-26.6,36.5-9.8,16.6-16.8,56.5-16.8,56.5,0,0,13.1-8.5,15.4-9-2.8,3.2-12.5,19.7-16.2,48.7-1.6,12.8-.1,41.2,5.3,51.4,2.7-6.3,5-13.1,9.7-17.5-4,18.9,10.2,50.7,22.6,65.6-.4-5,.4-9.5,1.3-14.5.3-1.7.6-3.4.9-5.1-1.5,43.8,45.6,68,45.6,68,0,0-2.8-7.5-4.1-13.7-.2-1-.4-2-.5-3,0-.5,0-.9-.1-1.3,0-.4,0-.8,0-1.2h0s.7.9,1.9,2.4h0c.4.5.9,1.1,1.4,1.7.2.2.3.4.5.6.7.8,1.5,1.8,2.3,2.8.4.4.7.9,1.1,1.3,1.2,1.4,2.5,2.9,4,4.5,1,1.1,2.1,2.3,3.3,3.4.8.8,1.6,1.6,2.4,2.4,3.3,3.2,6.8,6.5,10.5,9.4,10.9,8.7,20.7,14.9,29.6,19.5.6.3,1.2.6,1.8.9,6.5,3.2,12.5,5.6,18.2,7.7.5.2,1,.4,1.5.5,1,.4,2,.7,3,1,1,.3,2,.7,3,1,1.5.5,3,1,4.4,1.4,1,.3,1.9.6,2.9.9,1.4.5,2.8.9,4.2,1.4.5.2.9.3,1.4.5,3.2,1.1,6.4,2.3,9.5,3.6,1.8.8,3.6,1.6,5.3,2.5.9.5,1.8.9,2.7,1.4,4.4,2.4,8.8,5.4,13.2,9.2h0c4.5-3.8,8.8-6.8,13.2-9.2.9-.5,1.8-1,2.7-1.4,1.8-.9,3.5-1.7,5.3-2.5,3.1-1.3,6.3-2.5,9.5-3.6.5-.2.9-.3,1.4-.5,1.4-.5,2.8-.9,4.2-1.4,1-.3,1.9-.6,2.9-.9,1.5-.5,2.9-.9,4.4-1.4,1-.3,2-.7,3-1,1-.3,2-.7,3-1,.5-.2,1-.4,1.5-.5,5.7-2,11.7-4.5,18.2-7.7.6-.3,1.2-.6,1.8-.9,8.9-4.6,18.7-10.7,29.7-19.5.5-.4,1.1-.9,1.6-1.3.8-.6,1.5-1.3,2.3-2,2.3-2,4.5-4.1,6.6-6.2,1.4-1.4,2.7-2.8,4-4.1.6-.7,1.2-1.3,1.8-2,1.2-1.3,2.3-2.5,3.4-3.7.7-.8,1.4-1.6,2-2.4,1-1.1,1.8-2.1,2.5-3,.5-.6.9-1.1,1.3-1.6,0,0,0,0,0,0h0c1.2-1.5,1.8-2.3,1.8-2.3h0c0,.4,0,.8,0,1.2s0,.9,0,1.3c0,.9-.3,2-.5,3-.2.8-.3,1.6-.5,2.4-.2.8-.4,1.6-.6,2.4-.3,1-.6,2.1-.9,3-.2.7-.5,1.4-.7,2-.2.6-.4,1.1-.5,1.5,0,0,0,0,0,0,0,.3-.2.5-.3.7-.3.9-.5,1.5-.5,1.5,0,0,2.6-1.3,6.5-3.9,2.1-1.4,4.6-3.1,7.3-5.2.7-.5,1.4-1.1,2-1.6,6.2-5.1,13.3-12,18.9-20.6.6-1,1.2-1.9,1.8-2.9.3-.5.6-1,.9-1.5.6-1,1.1-2,1.7-3.1,1.6-3.2,2.9-6.5,4-10,.3-1.2.7-2.4,1-3.6.4-1.8.8-3.7,1-5.6.2-1.3.3-2.6.4-3.9.1-2,.2-4,0-6,.3,1.8.6,3.5.9,5.1.9,5,1.7,9.5,1.3,14.5,12.5-14.9,26.6-46.7,22.7-65.6,4.8,4.3,7,11.1,9.7,17.5,5.4-10.2,6.9-38.6,5.3-51.4h0ZM406.7,396.5c-6.1-3.9-13.4-5.6-20.5-4.7-7.6.9-15.2-.5-21.9-4.1,0,0,19-17.1,36.8-12.8,7.6,1.8,23.7,11.5,29.3,36.8l-23.6-15.2h0ZM423.9,459.1c3.3-10.8,12.6-10.6,25-7.2,12.4,3.3,22.3,26.6,22.3,26.6-6.8,1.6-16.1,2.5-29.6.8s-20.9-9.4-17.6-20.1h0ZM570.5,681.2s-2,3.6-5.2,2.2c-.5-.2-1.1-.5-1.7-.7h0c-8.5-3.7-19.4-8.1-22-9.2-.1,0-11.9,4.8-21.4,8.9-.4.2-.9.4-1.3.6-.3.1-.6.3-.9.4-3.2,1.4-5.2-2.2-5.2-2.2v-12.9s17.5-6.8,21.2-8.1,7.6-1.8,7.6-1.8h0s3.9.5,7.6,1.8c3.7,1.3,21.2,8.1,21.2,8.1v12.9h0ZM617.9,641.4l-35.9,20.9s-6.4-1.5-13.2-3.9c-1.4-.5-2.7-1-4.1-1.6-.9-.4-1.8-.8-2.6-1.2-.8-.4-1.7-.8-2.5-1.2-1.2-.7-2.2-1.3-3.2-2-.6-.5-1.2-1-1.7-1.4s-.9-1-1.2-1.5c-.5-.8-.7-1.5-.7-2.3,0-1.3.8-2.8,2.2-4.4.3-.3.6-.6.9-1,.6-.6,1.3-1.3,2.1-2,1.2-1,2.5-2,3.8-3,.9-.7,1.9-1.3,2.9-2s2-1.3,3-1.9c.5-.3,1-.6,1.5-.9,8.2-4.9,16.4-8.7,16.4-8.7l11.4-36.4s-3.6-10.2-14.1-10.2-.7,0-1,0h0c-10,1-16.8,16.8-40.4,16.8h0s0,0,0,0c-.3,0-.6,0-.8,0h-.3c-18.8-.4-26.7-11.1-34.5-15.2,0,0,0,0-.1,0-.2-.1-.5-.2-.7-.4,0,0-.1,0-.2,0-.2,0-.5-.2-.7-.3,0,0-.2,0-.2,0-.2,0-.4-.2-.6-.2,0,0-.2,0-.3,0-.2,0-.4,0-.6-.2-.1,0-.2,0-.3,0-.2,0-.4,0-.7,0-.1,0-.2,0-.3,0-.3,0-.6,0-1,0-10.5,0-14.1,10.2-14.1,10.2l11.4,36.4s8.2,3.8,16.4,8.7c.5.3,1,.6,1.5.9,1,.6,2,1.3,3,1.9,1,.7,2,1.3,2.9,2,1.4,1,2.7,2,3.8,3,.8.7,1.5,1.3,2.1,2,.3.3.6.6.9,1,1.3,1.6,2.2,3.1,2.2,4.4s-.3,1.6-.7,2.3c-.3.5-.7,1-1.2,1.5s-1,1-1.7,1.4c-.9.7-2,1.4-3.2,2-.8.4-1.6.8-2.5,1.2-.8.4-1.7.8-2.6,1.2-1.3.6-2.7,1.1-4.1,1.6-6.8,2.4-13.2,3.9-13.2,3.9l-35.9-20.9-16.5-36.4s13.9-38.1,26-72.2c5.7-16,10.5-30.6,14-40.8,1.6-4.8,3-8.6,4-11,.4-1.1.8-1.9,1.1-2.3.4-.7.9-1.4,1.4-2.1,1-1.4,2.1-2.6,3.3-3.8,1.2-1.2,2.5-2.3,3.8-3.3.3-.3.7-.5,1-.8,4-3,8.2-5.2,11-6.5,2.1-1,3.5-1.5,3.5-1.5l23.8,21.3h0s0,0,0,0l23.8-21.3s1.4.5,3.5,1.5c2.8,1.3,7,3.5,11,6.5.3.2.7.5,1,.8,1.3,1,2.6,2.1,3.8,3.3,1.2,1.2,2.3,2.5,3.3,3.8.5.7,1,1.4,1.4,2.1.3.5.6,1.3,1.1,2.3,1,2.4,2.3,6.1,4,11,3.5,10.1,8.3,24.8,14,40.8,12.1,34.1,26,72.2,26,72.2l-16.5,36.4h0ZM641.7,479.2c-13.6,1.8-22.9.8-29.6-.8,0,0,9.9-23.3,22.3-26.6,12.4-3.3,21.7-3.5,25,7.2s-4.1,18.4-17.6,20.1h0ZM701,391.8c-7.2-.9-14.4.8-20.5,4.7l-23.6,15.2c5.6-25.4,21.7-35,29.3-36.8,17.8-4.4,36.8,12.8,36.8,12.8-6.7,3.6-14.4,5-21.9,4.1h0Z"/>
</svg>