<?xml version="1.0" encoding="UTF-8"?>
<svg id="SHIELD" xmlns="http://www.w3.org/2000/svg" viewBox="0 0 1080 1080">
  <defs>
    <style>
      .cls-1 {
        fill: #004b37;
      }

      .cls-2 {
        fill: #fff;
      }

      .cls-3 {
        fill: #ffd200;
      }

      .cls-4 {
        fill: #492b1e;
      }

      .cls-5 {
        fill: #754c24;
      }
    </style>
  </defs>
  <g>
    <path class="cls-1" d="m529.61,685.63c-6.7-5.75-13.44-7.92-23.63-11.21-12.98-4.19-29.09-9.39-49.16-23.19l-25.8-13.23c-2.78-1.42-27.19-14.46-41.94-39.43l-6.71-8.01c-.37-.44-.73-.89-1.1-1.34l-2.74,6.4-26.58-50.28c-5.47-10.35-7.49-25.94-7.97-38.93l-9.37,6.04,10.76-61.17c1.13-6.41,7.28-39.27,17.44-56.57,3.38-5.75,6.98-11.14,10.32-15.82-22.46-29.51-28.79-62.17-17.29-91.09,10.82-27.19,36.13-44.76,64.49-44.76,21.94,0,42.9,10.25,59.87,29.09.85-.34,1.66-.68,2.34-.96,9.97-4.12,23.62-9.77,40.14-9.77,8.39,0,16.64,1.49,24.62,4.43,7.98-2.94,16.23-4.43,24.62-4.43,16.52,0,30.16,5.65,40.13,9.77.69.29,1.5.62,2.35.97,16.98-18.84,37.94-29.09,59.87-29.09,28.36,0,53.67,17.57,64.48,44.76,11.5,28.92,5.17,61.58-17.28,91.09,3.34,4.68,6.94,10.07,10.32,15.82,10.18,17.32,16.31,50.16,17.44,56.57l10.76,61.18-9.37-6.04c-.48,12.98-2.5,28.57-7.97,38.92l-26.57,50.27-2.74-6.4c-.37.46-.74.91-1.11,1.35l-6.71,8.01c-14.76,24.99-39.17,38-41.94,39.43l-25.84,13.26c-20.05,13.78-36.14,18.97-49.11,23.16-10.21,3.29-16.94,5.47-23.63,11.21l-17.69,15.18-17.69-15.18Z"/>
    <path class="cls-3" d="m539.38,674.25c-8.99-7.71-17.73-10.53-28.79-14.1-12.41-4.01-27.42-8.85-46.05-21.82l-26.68-13.68c-1.34-.68-23.79-12.46-36.46-34.72l-7.53-9c-5.33-6.37-10.66-15.38-14.74-24.81l-2.02,4.72-11.91-22.52c-6.46-12.21-7.19-39.33-5.78-50.45.46-3.64,1.04-7.09,1.68-10.34l-5.79,3.73,4.82-27.4c.64-3.66,6.54-36.16,15.6-51.57,5.55-9.45,11.79-17.93,16.49-23.88-24.64-27.26-33.05-58.45-22.45-85.08,8.53-21.44,28.37-35.3,50.55-35.3,19.97,0,39.25,10.97,54.3,30.89.16.2.28.32.35.39.05,0,.12,0,.2,0,2.7,0,7.99-2.19,13.1-4.3,9.29-3.85,20.86-8.63,34.41-8.63,8.45,0,16.7,1.91,24.62,5.7,7.92-3.78,16.17-5.7,24.62-5.7,13.54,0,25.11,4.79,34.4,8.63,5.11,2.11,10.4,4.3,13.1,4.3.08,0,.15,0,.2,0,.08-.07.19-.19.35-.39,15.05-19.93,34.33-30.89,54.3-30.89,22.18,0,42.02,13.86,50.55,35.3,10.59,26.63,2.19,57.82-22.45,85.08,4.7,5.96,10.94,14.44,16.49,23.88,9.06,15.41,14.95,47.91,15.6,51.57l4.82,27.4-5.79-3.73c.65,3.25,1.22,6.7,1.68,10.34,1.42,11.11.68,38.23-5.78,50.44l-11.9,22.51-2.02-4.72c-4.07,9.43-9.41,18.44-14.74,24.81l-7.54,9c-12.67,22.26-35.12,34.03-36.45,34.72l-26.72,13.71c-18.61,12.94-33.61,17.78-46.01,21.79-11.06,3.57-19.8,6.39-28.79,14.1l-7.92,6.8-7.92-6.8Z"/>
    <path class="cls-5" d="m723.1,489.42c-3.11-24.38-11.24-38.24-13.58-40.96,1.9.4,12.96,7.52,12.96,7.52,0,0-5.9-33.55-14.11-47.51-9.92-16.89-22.37-30.71-22.37-30.71,76.19-72.01-5.33-149.19-56.4-81.4-15.21,19.44-43.7-24.41-82.3-.43,0,0,0,0,0,0,0,0,0,0,0,0-38.6-23.99-67.08,19.87-82.3.43-51.07-67.8-132.59,9.39-56.4,81.4,0,0-12.45,13.82-22.37,30.71-8.21,13.96-14.11,47.51-14.11,47.51,0,0,11.06-7.13,12.96-7.52-2.35,2.73-10.48,16.58-13.58,40.96-1.37,10.78-.09,34.61,4.47,43.22,2.29-5.33,4.19-11.05,8.19-14.67-3.36,15.9,8.55,42.62,19.05,55.15-.49-5.55.89-10.53,1.88-16.5-1.3,36.87,38.34,57.2,38.34,57.2,0,0-4.23-11.15-3.93-16.19,0,0,10.67,14.12,23.02,23.99,39.21,31.33,60.85,22.85,84.79,43.39,0,0,0,0,0,0,0,0,0,0,0,0,23.94-20.54,45.58-12.06,84.79-43.39,12.36-9.87,23.02-23.99,23.02-23.99.3,5.04-3.93,16.19-3.93,16.19,0,0,39.63-20.33,38.34-57.2.99,5.97,2.37,10.95,1.88,16.5,10.49-12.53,22.4-39.25,19.05-55.15,4,3.62,5.91,9.33,8.19,14.67,4.55-8.61,5.84-32.45,4.47-43.22Z"/>
    <path class="cls-4" d="m462.5,621.63c-12.36-9.87-23.03-23.99-23.03-23.99-.3,5.04,3.93,16.19,3.93,16.19,0,0-39.63-20.33-38.34-57.2-.99,5.97-2.37,10.95-1.88,16.5-10.49-12.53-22.4-39.25-19.05-55.15-4,3.62-5.91,9.33-8.19,14.67-4.55-8.61-5.84-32.45-4.47-43.22,3.11-24.38,11.24-38.24,13.58-40.96-1.9.4-12.96,7.52-12.96,7.52,0,0,5.9-33.55,14.11-47.51,9.92-16.89,22.37-30.71,22.37-30.71-76.19-72.01,5.33-149.19,56.4-81.4,15.21,19.44,43.7-24.41,82.3-.43,0,0,0,0,0,0v369.08s0,0,0,0c-23.94-20.54-45.58-12.06-84.79-43.39Z"/>
    <path class="cls-4" d="m632.09,621.63c12.36-9.87,23.03-23.99,23.03-23.99.3,5.04-3.93,16.19-3.93,16.19,0,0,39.63-20.33,38.34-57.2.99,5.97,2.37,10.95,1.88,16.5,10.49-12.53,22.4-39.25,19.05-55.15,4,3.62,5.91,9.33,8.19,14.67,4.55-8.61,5.84-32.45,4.47-43.22-3.11-24.38-11.24-38.24-13.58-40.96,1.9.4,12.96,7.52,12.96,7.52,0,0-5.9-33.55-14.11-47.51-9.92-16.89-22.37-30.71-22.37-30.71,76.19-72.01-5.33-149.19-56.4-81.4-15.21,19.44-43.7-24.41-82.3-.43,0,0,0,0,0,0v369.08s0,0,0,0c23.94-20.54,45.58-12.06,84.79-43.39Z"/>
    <g>
      <g>
        <g>
          <path class="cls-2" d="m547.11,379.81l-20.01-17.87s-14.59,5.56-20.19,15.16c-1.9,3.27-7.95,22.85-15.99,45.44-10.2,28.65-21.86,60.7-21.86,60.7l13.92,30.6,30.18,17.58s24.5-5.59,24.5-12.79-27.6-19.94-27.6-19.94l-9.6-30.58s3.01-8.57,11.87-8.57,14.34,14.13,34.79,14.13v-93.84Z"/>
          <path class="cls-2" d="m547.11,379.81l20.01-17.87s14.59,5.56,20.19,15.16c1.9,3.27,7.95,22.85,15.99,45.44,10.2,28.65,21.86,60.7,21.86,60.7l-13.92,30.6-30.18,17.58s-24.5-5.59-24.5-12.79,27.6-19.94,27.6-19.94l9.6-30.58s-3.01-8.57-11.87-8.57c-8.85,0-14.34,14.13-34.79,14.13v-93.84Z"/>
        </g>
        <g>
          <path class="cls-2" d="m547.08,528.17s-3.28.37-6.42,1.48c-3.13,1.11-17.85,6.82-17.85,6.82v10.83s1.69,3.02,4.38,1.83c8.28-3.67,19.89-8.33,19.89-8.33v-12.63Z"/>
          <path class="cls-2" d="m547.08,528.17s3.28.37,6.42,1.48c3.13,1.11,17.85,6.82,17.85,6.82v10.83s-1.69,3.02-4.38,1.83c-8.28-3.67-19.89-8.33-19.89-8.33v-12.63Z"/>
        </g>
      </g>
      <g>
        <path class="cls-3" d="m606.35,376.75s8.31-19.56,18.73-22.35c10.42-2.79,18.24-2.96,21,6.08,2.77,9.04-3.42,15.45-14.82,16.93-11.4,1.48-19.23.65-24.92-.66Z"/>
        <path class="cls-3" d="m487.86,376.75s-8.31-19.56-18.73-22.35c-10.42-2.79-18.24-2.96-21,6.08-2.77,9.04,3.42,15.45,14.82,16.93,11.4,1.48,19.23.65,24.92-.66Z"/>
      </g>
      <g>
        <path class="cls-2" d="m643.97,320.67l19.84-12.78c5.12-3.3,11.22-4.71,17.26-3.99h0c6.35.76,12.79-.44,18.45-3.45h0s-15.93-14.42-30.95-10.76c-6.36,1.55-19.92,9.65-24.6,30.97Z"/>
        <path class="cls-2" d="m453.44,320.67l-19.84-12.78c-5.12-3.3-11.22-4.71-17.26-3.99h0c-6.35.76-12.79-.44-18.45-3.45h0s15.93-14.42,30.95-10.76c6.36,1.55,19.92,9.65,24.6,30.97Z"/>
      </g>
    </g>
  </g>
  <path class="cls-1" d="m547.08,776.88c-158.9,0-297.55-35.45-298.93-35.81l-23.85-6.17v-191.96h645.56v191.96l-23.86,6.17c-1.37.36-139.99,35.81-298.92,35.81Z"/>
  <path class="cls-3" d="m547.08,761.88c-156.94,0-293.8-34.98-295.17-35.33l-12.61-3.26v-165.35h615.56v165.35l-12.62,3.26c-1.36.35-138.16,35.33-295.16,35.33Z"/>
  <path class="cls-3" d="m547.08,753.46c-155.64,0-291.7-34.71-293.06-35.06l-6.31-1.63v-150.42h598.73v150.42l-6.31,1.63c-1.36.35-137.42,35.06-293.06,35.06Z"/>
  <path class="cls-1" d="m256.13,574.77h581.9v135.49s-134.58,34.79-290.95,34.79-290.95-34.79-290.95-34.79v-135.49Z"/>
  <g>
    <path class="cls-2" d="m320.05,701.88c-.82-.41-1.91-.71-3.14-.89-1.09-.16-5.87.15-9.96-.48-19.62-3.25-28.99-23.85-29-55.01,0-31.15,11.23-48.96,29.18-49.13,3.15,0,7.94,1.02,9.73,1.03,1.23,0,2.74-.28,3.56-.57.99,6.53,1.98,13.09,2.97,19.67-1,.27-2.01.53-3.01.79-1.5-4.14-4.64-6.24-10.26-6.36-8.08-.12-14.94,10.73-14.96,36.01-.03,28.25,5.14,38.17,15.37,39.56,5.73.75,8.19-.98,9.84-5.91,1,.41,2,.82,3,1.22-1.11,6.72-2.22,13.42-3.32,20.08Z"/>
    <path class="cls-2" d="m363.23,706.12c0-.97,0-1.95,0-2.92,2.33.26,3.29-1.18,3.3-2.88,0-.62-.52-8.08-.92-11.05-1.65.77-4.93,1.21-7.81.92-2.87-.29-6.56-1.44-8.34-2.54-.42,2.84-1.26,9.71-1.26,10.61,0,1.81.95,3.29,3.27,3.57,0,.96,0,1.92,0,2.89-7.52-.92-15.04-1.89-22.55-2.92,0-.94,0-1.87,0-2.81,1.91.26,3.28-1.2,3.7-3.67,4.27-28.73,8.55-57.94,12.84-87.59.14-.9.28-2.26.28-3.16,0-1.66-.81-3.17-2.46-3.18,0-.95,0-1.9,0-2.86,10,.04,20,.07,30.01.1,0,.98,0,1.97,0,2.95-1.51,0-2.61,1.22-2.61,3.08,0,1.08.13,2.17.26,3.57,4.01,30.43,8.02,61.22,12.03,92.35.54,3.81,2.04,4.91,4.09,5.11,0,1,0,1.99,0,2.99-7.95-.79-15.89-1.64-23.82-2.55Zm-4.92-88.73c-.32,0-.64-.02-.96-.02-1.98,18.29-3.95,36.47-5.92,54.53,1.37,1.03,4.24,2.04,6.56,2.24,2.33.2,4.66-.38,6.03-1.19-1.9-18.63-3.81-37.15-5.71-55.55Z"/>
    <path class="cls-2" d="m436.97,713.99c-1.1-.89-3.02-1.34-7.55-1.67-12.08-.88-24.15-1.89-36.21-3.05,0-1,0-2,0-3.01,2.47.23,4.53-1.81,4.54-5.78.1-30.86.2-61.72.3-92.58.01-3.97-1.62-6.2-4.5-6.22,0-1,0-2,0-3.01,8.68.02,17.36.05,26.03.07,0,1.02,0,2.04,0,3.07-2.6,0-4.8,2.88-4.82,6.25-.09,28.84-.18,57.68-.27,86.53,5.58.39,11.16.76,16.74,1.1,3.7.23,5.63-1.78,7.02-5.63.91.43,1.83.86,2.74,1.29-1.35,7.56-2.7,15.1-4.04,22.63Z"/>
    <path class="cls-2" d="m447.13,713.51c0-1.04,0-2.08,0-3.12,2.47.15,4.54-2.04,4.55-6.15.08-32.02.16-64.03.24-96.05.01-4.11-1.63-6.26-4.51-6.26,0-1.04,0-2.08,0-3.12,8.63.02,17.27.03,25.9.04,0,1.05,0,2.1,0,3.15-3.01,0-4.53,2.14-4.54,6.29-.07,32.26-.14,64.52-.21,96.78,0,3.98,1.64,6.54,4.52,6.67,0,1.05,0,2.1,0,3.15-8.66-.39-17.31-.85-25.96-1.38Z"/>
    <path class="cls-2" d="m524.69,621.42c-1.09-3.7-3.01-5.72-6.44-5.73-5.26-.01-10.51-.03-15.77-.06-.01,9.82-.02,19.65-.04,29.47,4.94.05,9.88.1,14.82.13,2.88.02,5.22-2.66,5.22-5.68.82,0,1.65,0,2.47.01,0,9.36-.01,18.71-.02,28.07-.82,0-1.65-.01-2.47-.02,0-3.36-1.78-5.56-5.21-5.59-4.9-.05-9.79-.11-14.69-.18-.02,14.79-.04,29.59-.06,44.38,0,4.35,1.92,6.58,4.8,6.65,0,1.06,0,2.12,0,3.19-8.71-.21-17.41-.48-26.12-.83,0-1.05,0-2.11,0-3.16,2.47.1,4.54-2.33,4.55-6.33.06-32.46.11-64.91.17-97.37,0-4.17-2.04-6.34-4.51-6.35,0-1.05,0-2.11,0-3.16,11.88.01,23.75.02,35.63.03,2.88,0,5.89-.67,6.85-1.34,1.23,7.62,2.46,15.24,3.69,22.87-.96.33-1.92.67-2.88,1Z"/>
    <path class="cls-2" d="m560.53,719.63c-18.02.16-26.27-20-26.25-64.55.02-39.35,8.66-59.71,26.46-59.71,17.12.02,25.92,20.29,25.97,59.29.06,45.34-8.17,64.75-26.19,64.97Zm-.05-107.45c-5.89,0-8.91,12.46-8.9,42.91,0,35.66,3.03,47.61,9.22,47.55,5.77-.06,8.65-11.19,8.62-47.64-.02-30.57-2.64-42.83-8.94-42.82Z"/>
    <path class="cls-2" d="m629.25,714.27c-2.64-10.58-5.98-33.62-6.83-46.86-2.29.07-4.57.13-6.86.19.03,12.57.05,25.13.08,37.7,0,3.65,1.66,6.41,4.55,6.27,0,1.05,0,2.1,0,3.15-8.61.41-17.22.75-25.84,1.01,0-1.06,0-2.12,0-3.18,2.47-.08,4.53-2.48,4.53-6.66-.05-32.51-.1-65.01-.15-97.52,0-4.01-1.38-6.34-4.53-6.34,0-1.06,0-2.12,0-3.18,4.25-.51,15.48-1.35,24.11-1.35,17.26.02,28.8,9.67,28.87,34.34.05,16.85-3.91,25.32-10.62,29.66,1.82,12.62,5.29,29.9,8.76,43.62.69,2.58,2.9,4.9,5.23,4.75,0,1.03,0,2.07,0,3.1-7.09.47-14.19.9-21.29,1.27Zm-10.51-100c-1.1,0-2.74.02-3.29.19.02,12.4.05,24.8.07,37.2,1.1.14,2.33.12,3.29.09,5.9-.13,11.1-4.56,11.07-19.25-.03-14.52-5.66-18.27-11.15-18.24Z"/>
    <path class="cls-2" d="m708.76,607.73c.1,30.41.2,60.81.3,91.22.01,3.91,1.25,5.98,3.58,5.74,0,.99,0,1.98,0,2.96-6.39.68-12.78,1.32-19.18,1.91-.03-9.52-.06-19.03-.09-28.55-5.48-13.52-10.96-27.25-16.45-41.16-.09,0-.18,0-.27,0,.06,20.62.13,41.23.19,61.85.01,3.7,1.8,6.12,4.55,5.89,0,1.01,0,2.03,0,3.04-8.23.71-16.46,1.35-24.7,1.93,0-1.03,0-2.06,0-3.09,2.75-.19,4.52-2.75,4.51-6.65-.09-31.55-.19-63.1-.28-94.64-.01-4.06-2.07-6.32-4.54-6.31,0-1.03,0-2.06,0-3.09,6.9-.01,13.79-.03,20.69-.05,0,2.41.7,4.81,1.67,7.37,4.75,12.79,9.49,25.45,14.24,37.96.14,0,.27-.01.41-.02-.04-12.05-.08-24.1-.12-36.16-.01-3.8-1.94-6.17-4.68-6.16,0-1.01,0-2.02,0-3.02,8.27-.02,16.53-.05,24.8-.07,0,.99,0,1.97,0,2.96-2.47.01-4.65,2.37-4.64,6.13Z"/>
    <path class="cls-2" d="m721.82,706.65c0-.98,0-1.96,0-2.94,2.46-.27,4.51-2.65,4.5-6.5-.1-29.95-.19-59.9-.29-89.85-.01-3.84-1.66-5.83-4.54-5.82,0-.98,0-1.96,0-2.94,8.63-.03,17.26-.06,25.9-.09,0,.95,0,1.9,0,2.85-3.01.02-4.52,1.99-4.5,5.77.09,29.4.18,58.81.26,88.21.01,3.63,1.66,5.69,4.53,5.33,0,.95,0,1.9,0,2.86-8.61,1.11-17.23,2.14-25.85,3.1Z"/>
    <path class="cls-2" d="m788.05,697.83c0-.9,0-1.8,0-2.7,2.32-.35,3.27-1.91,3.27-3.47,0-.56-.55-7.29-.97-9.93-1.64,1.07-4.91,2.21-7.77,2.59-2.87.37-6.55.12-8.33-.54-.4,2.81-1.21,9.6-1.21,10.48,0,1.75.96,2.92,3.28,2.59,0,.92,0,1.83,0,2.75-7.5,1.1-15.01,2.15-22.52,3.14,0-.94,0-1.89,0-2.83,1.91-.25,3.27-2.06,3.68-4.64,4.11-29.77,8.23-59.1,12.37-87.93.14-.88.27-2.19.27-3.07,0-1.6-.83-3.06-2.47-3.05,0-.93,0-1.85,0-2.78,10-.04,20-.08,30-.13,0,.89,0,1.78,0,2.66-1.51.01-2.6,1.15-2.6,2.84,0,.99.14,1.97.28,3.23,4.14,27.5,8.25,54.47,12.35,80.87.54,3.23,2.04,3.81,4.08,3.47v2.6c-7.89,1.34-15.79,2.62-23.69,3.84Zm-5.32-81.81c-.32,0-.64.02-.96.03-1.89,17.29-3.77,34.73-5.64,52.3,1.37.73,4.24,1.15,6.56.9,2.32-.25,4.64-1.22,6-2.22-1.98-16.85-3.97-33.85-5.96-51Z"/>
  </g>
</svg>