<?xml version="1.0" encoding="UTF-8"?>
<svg id="ICON" xmlns="http://www.w3.org/2000/svg" viewBox="0 0 1080 1080">
  <defs>
    <style>
      .cls-1 {
        fill: none;
      }

      .cls-2 {
        fill: #fff;
      }

      .cls-3 {
        fill: #ffd200;
      }

      .cls-4 {
        fill: #492b1e;
      }

      .cls-5 {
        fill: #754c24;
      }
    </style>
  </defs>
  <path class="cls-1" d="m578.75,512.33c-.14.06-.29.11-.43.18.14-.06.29-.12.43-.18Z"/>
  <path class="cls-1" d="m577.83,512.74c-.14.07-.29.14-.43.21.14-.07.29-.14.43-.21Z"/>
  <path class="cls-1" d="m541.64,528.22c18.8,0,26.97-10.04,34.57-14.6-7.5,4.49-15.64,14.29-34.57,14.57v.02Z"/>
  <path class="cls-1" d="m505.91,512.96c-.26-.14-.52-.26-.78-.38.26.12.52.24.78.38Z"/>
  <path class="cls-1" d="m576.98,513.18c-.17.09-.34.18-.51.28.17-.1.34-.19.51-.28Z"/>
  <path class="cls-1" d="m504.98,512.51c-.23-.11-.47-.2-.7-.29.23.09.47.18.7.29Z"/>
  <path class="cls-1" d="m583.01,511.41c-.33,0-.65.02-.97.05.32-.03.64-.05.97-.05Z"/>
  <path class="cls-1" d="m580.7,511.69c-.18.04-.37.08-.55.13.18-.05.37-.09.55-.13Z"/>
  <path class="cls-1" d="m581.75,511.51c-.22.03-.44.05-.66.1.22-.04.44-.07.66-.1Z"/>
  <path class="cls-1" d="m579.72,511.97c-.16.05-.33.1-.49.16.16-.06.32-.11.49-.16Z"/>
  <path class="cls-1" d="m505.95,512.99c7.83,4.12,15.74,14.9,34.85,15.21h0c-19.11-.31-27.02-11.1-34.85-15.21Z"/>
  <path class="cls-1" d="m504.06,512.13c-.22-.08-.44-.15-.66-.22.22.07.44.14.66.22Z"/>
  <path class="cls-1" d="m501.24,511.46c-.32-.03-.64-.05-.97-.05.33,0,.65.02.97.05Z"/>
  <path class="cls-1" d="m503.13,511.83c-.21-.06-.43-.11-.65-.16.22.05.43.09.65.16Z"/>
  <path class="cls-1" d="m502.19,511.6c-.23-.04-.45-.07-.68-.1.23.03.46.06.68.1Z"/>
  <path class="cls-3" d="m763.3,532.85l6.89,4.44-5.73-32.58c-.76-4.35-7.78-43-18.55-61.33-6.6-11.24-14.02-21.32-19.61-28.41,29.3-32.42,39.3-69.51,26.7-101.19-10.15-25.5-33.74-41.98-60.11-41.98-23.75,0-46.68,13.05-64.58,36.74-.19.23-.33.38-.42.46-.06,0-.14,0-.24,0-3.21,0-9.5-2.6-15.58-5.12-11.06-4.57-24.81-10.27-40.92-10.27-10.04,0-19.86,2.27-29.28,6.78-9.42-4.5-19.24-6.78-29.28-6.78-16.11,0-29.86,5.69-40.92,10.27-6.08,2.52-12.36,5.12-15.58,5.12-.1,0-.18,0-.24,0-.09-.08-.23-.23-.42-.46-17.9-23.7-40.83-36.74-64.58-36.74-26.38,0-49.98,16.48-60.12,41.98-12.6,31.68-2.6,68.77,26.7,101.19-5.59,7.08-13.01,17.17-19.61,28.41-10.77,18.33-17.79,56.98-18.55,61.33l-5.73,32.58,6.89-4.44c-.77,3.87-1.45,7.97-2,12.3-1.68,13.22-.81,45.47,6.87,60l14.16,26.78,2.4-5.61c4.85,11.21,11.19,21.93,17.53,29.5l8.96,10.7c15.07,26.48,41.77,40.48,43.36,41.29l31.73,16.27c22.16,15.42,40.01,21.18,54.77,25.94,13.16,4.25,23.55,7.6,34.24,16.77l9.42,8.08,9.42-8.08c10.69-9.17,21.08-12.53,34.24-16.77,14.75-4.76,32.58-10.52,54.72-25.91l31.78-16.3c1.59-.81,28.29-14.81,43.36-41.29l8.96-10.7c6.34-7.58,12.68-18.29,17.53-29.51l2.41,5.61,14.15-26.78c7.68-14.53,8.56-46.78,6.87-59.99-.55-4.33-1.23-8.43-2-12.3Zm-17.66,65.53c-2.72-6.34-4.98-13.14-9.74-17.45,3.99,18.91-10.17,50.69-22.65,65.59.44-4.95-.37-9.52-1.3-14.49-.31-1.66-.63-3.36-.93-5.13.07,2.06.04,4.07-.09,6.04-.09,1.31-.22,2.61-.39,3.88-.26,1.91-.6,3.78-1.03,5.6-.29,1.21-.61,2.41-.96,3.58-1.06,3.52-2.42,6.87-4,10.03-.53,1.05-1.07,2.09-1.65,3.1-.29.51-.58,1.01-.87,1.5-.59.99-1.2,1.97-1.83,2.92-5.65,8.57-12.66,15.46-18.91,20.58-.69.57-1.38,1.12-2.05,1.64-2.69,2.1-5.18,3.85-7.28,5.23-3.94,2.6-6.53,3.93-6.53,3.93h0s0,0,0,0c0,0,.29-.78.73-2.03.06-.17.12-.35.19-.54.14-.4.29-.83.44-1.3.21-.63.43-1.31.66-2.03.3-.96.61-1.99.9-3.04.22-.79.44-1.59.63-2.4s.38-1.6.54-2.39c.21-1.04.38-2.05.48-2.99.05-.47.09-.92.1-1.34.02-.43.02-.83,0-1.2,0,0-3.12,4.12-8.03,9.69-.63.72-1.29,1.45-1.98,2.21-.92,1.01-1.89,2.06-2.9,3.13-1.27,1.34-2.6,2.71-3.99,4.09-2.09,2.07-4.3,4.15-6.59,6.15-.76.66-1.53,1.32-2.3,1.96-.53.44-1.06.87-1.59,1.3-10.93,8.73-20.71,14.86-29.65,19.45-.6.31-1.19.6-1.78.9-6.47,3.21-12.5,5.64-18.21,7.68-.52.19-1.04.37-1.55.55-1.03.36-2.04.71-3.05,1.05-1.01.34-2.01.67-2.99.99-1.48.49-2.95.96-4.39,1.43-.96.31-1.92.62-2.87.93-1.42.46-2.83.93-4.23,1.4-.46.16-.93.32-1.39.47-3.23,1.11-6.4,2.29-9.52,3.63-1.79.77-3.56,1.59-5.33,2.49-.88.45-1.77.92-2.65,1.41-4.41,2.44-8.79,5.42-13.24,9.23,0,0,0,0,0,0,0,0,0,0,0,0-4.45-3.82-8.83-6.79-13.24-9.23-.88-.49-1.76-.96-2.65-1.41-1.77-.9-3.54-1.72-5.33-2.49-3.13-1.34-6.29-2.52-9.52-3.63-.46-.16-.93-.32-1.39-.47-1.39-.47-2.8-.93-4.23-1.4-.95-.31-1.91-.62-2.87-.93-1.45-.47-2.91-.94-4.39-1.43-.99-.32-1.99-.66-2.99-.99-1.01-.34-2.02-.69-3.05-1.05-.51-.18-1.03-.36-1.55-.55-5.71-2.04-11.74-4.46-18.21-7.68-.59-.29-1.18-.59-1.78-.9-8.94-4.59-18.72-10.72-29.65-19.45-3.67-2.94-7.22-6.19-10.48-9.41-.81-.81-1.61-1.61-2.38-2.41-1.14-1.17-2.22-2.32-3.26-3.44-1.44-1.56-2.78-3.06-3.99-4.45-.39-.45-.76-.88-1.13-1.31-.25-.29-.49-.57-.72-.84-.28-.33-.55-.65-.82-.97-2.89-3.44-4.6-5.7-4.6-5.7-.02.37-.02.78,0,1.2.02.43.05.88.1,1.34.1.94.27,1.95.48,2.99,1.26,6.26,4.09,13.72,4.09,13.72,0,0-47.13-24.18-45.59-68.03-.3,1.77-.62,3.48-.93,5.13-.93,4.97-1.74,9.54-1.3,14.49-12.48-14.9-26.64-46.68-22.65-65.59-4.76,4.3-7.02,11.1-9.74,17.45-5.41-10.24-6.94-38.59-5.31-51.4,3.7-29,13.36-45.48,16.16-48.72-2.26.47-15.42,8.95-15.42,8.95,0,0,7.02-39.9,16.78-56.51,11.8-20.09,26.61-36.52,26.61-36.52-90.61-85.64,6.34-177.44,67.08-96.81,18.09,23.12,51.97-29.04,97.88-.51,0,0,0,0,0,0,0,0,0,0,0,0,45.91-28.53,79.78,23.63,97.88.51,60.74-80.63,157.69,11.17,67.08,96.81,0,0,14.81,16.43,26.61,36.52,9.76,16.61,16.78,56.51,16.78,56.51,0,0-13.15-8.47-15.42-8.95,2.79,3.24,12.46,19.72,16.16,48.72,1.63,12.82.1,41.16-5.31,51.4Z"/>
  <path class="cls-5" d="m419.77,683.19c-.25-.29-.49-.57-.72-.84.23.27.47.55.72.84Z"/>
  <path class="cls-5" d="m413.64,675.68s1.71,2.27,4.6,5.7c-2.89-3.44-4.6-5.7-4.6-5.7h0Z"/>
  <path class="cls-5" d="m660.08,687.59c-.92,1.01-1.89,2.06-2.9,3.13,1.01-1.07,1.98-2.11,2.9-3.13Z"/>
  <path class="cls-5" d="m662.06,685.37c4.92-5.57,8.03-9.69,8.03-9.69h0s-3.12,4.12-8.03,9.69Z"/>
  <path class="cls-5" d="m665.42,694.94h0s.29-.78.73-2.03c-.44,1.25-.73,2.03-.73,2.03Z"/>
  <path class="cls-5" d="m666.33,692.37c.14-.4.29-.83.44-1.3-.16.47-.3.9-.44,1.3Z"/>
  <path class="cls-4" d="m734.79,498.26c2.26.47,15.42,8.95,15.42,8.95,0,0-7.02-39.9-16.78-56.51-11.8-20.09-26.61-36.52-26.61-36.52,90.61-85.64-6.34-177.44-67.08-96.81-18.09,23.12-51.97-29.04-97.88-.51,0,0,0,0,0,0,0,0,0,0,0,0-45.91-28.53-79.78,23.63-97.88.51-60.74-80.63-157.69,11.17-67.08,96.81,0,0-14.81,16.43-26.61,36.52-9.76,16.61-16.78,56.51-16.78,56.51,0,0,13.15-8.47,15.42-8.95-2.79,3.24-12.46,19.72-16.16,48.72-1.63,12.82-.1,41.16,5.31,51.4,2.72-6.34,4.98-13.14,9.74-17.45-3.99,18.91,10.17,50.69,22.65,65.59-.44-4.95.37-9.52,1.3-14.49.31-1.66.63-3.36.93-5.13-1.54,43.85,45.59,68.03,45.59,68.03,0,0-2.83-7.46-4.09-13.72-.21-1.04-.38-2.05-.48-2.99-.05-.47-.09-.92-.1-1.34-.02-.43-.02-.83,0-1.2h0s1.71,2.26,4.6,5.7c.26.31.53.63.82.97.23.27.47.55.72.84.36.42.74.86,1.13,1.31,1.21,1.39,2.55,2.89,3.99,4.45,1.04,1.12,2.13,2.28,3.26,3.44.77.8,1.57,1.6,2.38,2.41,3.26,3.23,6.8,6.48,10.48,9.41,10.93,8.73,20.71,14.86,29.65,19.45.6.31,1.19.6,1.78.9,6.47,3.21,12.5,5.64,18.21,7.68.52.19,1.04.37,1.55.55,1.03.36,2.04.71,3.05,1.05,1.01.34,2.01.67,2.99.99,1.48.49,2.95.96,4.39,1.43.96.31,1.92.62,2.87.93,1.42.46,2.83.93,4.23,1.4.46.16.93.32,1.39.47,3.23,1.11,6.4,2.29,9.52,3.63,1.79.77,3.56,1.59,5.33,2.49.88.45,1.77.92,2.65,1.41,4.41,2.44,8.79,5.42,13.24,9.23,0,0,0,0,0,0,0,0,0,0,0,0,4.45-3.82,8.83-6.79,13.24-9.23.88-.49,1.76-.96,2.65-1.41,1.77-.9,3.54-1.72,5.33-2.49,3.13-1.34,6.29-2.52,9.52-3.63.46-.16.93-.32,1.39-.47,1.39-.47,2.8-.93,4.23-1.4.95-.31,1.91-.62,2.87-.93,1.45-.47,2.91-.94,4.39-1.43.99-.32,1.99-.66,2.99-.99,1.01-.34,2.02-.69,3.05-1.05.51-.18,1.03-.36,1.55-.55,5.71-2.04,11.74-4.46,18.21-7.68.59-.29,1.18-.59,1.78-.9,8.94-4.59,18.72-10.72,29.65-19.45.53-.43,1.06-.86,1.59-1.3.77-.64,1.54-1.3,2.3-1.96,2.29-2,4.5-4.08,6.59-6.15,1.39-1.38,2.72-2.75,3.99-4.09,1.01-1.07,1.98-2.11,2.9-3.13.69-.76,1.35-1.5,1.98-2.21,4.92-5.57,8.03-9.69,8.03-9.69h0c.02.37.02.78,0,1.2-.02.43-.05.88-.1,1.34-.1.94-.27,1.95-.48,2.99-.16.78-.34,1.58-.54,2.39s-.41,1.61-.63,2.4c-.3,1.05-.6,2.08-.9,3.04-.23.72-.45,1.4-.66,2.03-.16.47-.3.9-.44,1.3-.06.19-.13.37-.19.54-.44,1.25-.73,2.03-.73,2.03h0s2.59-1.33,6.53-3.93c2.1-1.39,4.59-3.13,7.28-5.23.67-.52,1.36-1.07,2.05-1.64,6.24-5.12,13.26-12.01,18.91-20.58.63-.95,1.24-1.92,1.83-2.92.3-.5.59-1,.87-1.5.57-1.01,1.12-2.05,1.65-3.1,1.58-3.16,2.93-6.51,4-10.03.35-1.17.68-2.37.96-3.58.43-1.82.78-3.69,1.03-5.6.17-1.27.3-2.57.39-3.88.13-1.97.17-3.98.09-6.04.29,1.77.62,3.48.93,5.13.93,4.97,1.74,9.54,1.3,14.49,12.48-14.9,26.64-46.68,22.65-65.59,4.76,4.3,7.02,11.1,9.74,17.45,5.41-10.24,6.94-38.59,5.31-51.4-3.7-29-13.36-45.48-16.16-48.72Zm-328.15-167.17c-6.09-3.93-13.35-5.6-20.53-4.74-7.56.9-15.21-.53-21.94-4.1,0,0,18.95-17.14,36.8-12.79,7.57,1.84,23.69,11.48,29.26,36.84l-23.59-15.2Zm17.28,62.54c3.29-10.75,12.59-10.56,24.98-7.23,12.39,3.32,22.28,26.58,22.28,26.58-6.77,1.56-16.08,2.54-29.64.79-13.56-1.76-20.91-9.38-17.62-20.14Zm117.69,214.46s-13.82,5.54-23.66,9.9c-3.2,1.42-5.21-2.18-5.21-2.18v-12.88s17.5-6.79,21.23-8.11c3.73-1.32,7.63-1.76,7.63-1.76v15.03Zm28.87,7.73s-2.01,3.59-5.21,2.18c-9.84-4.37-23.66-9.9-23.66-9.9v-15.03s3.91.45,7.63,1.76c3.73,1.32,21.23,8.11,21.23,8.11v12.88Zm47.43-39.82l-35.89,20.91s-29.14-6.65-29.14-15.21,32.83-23.72,32.83-23.72l11.41-36.37s-3.59-10.19-14.12-10.19c-.33,0-.65.02-.97.05-.1,0-.19.03-.29.04-.22.03-.44.05-.66.1-.13.02-.26.06-.38.09-.18.04-.37.08-.55.13-.15.04-.29.09-.44.14-.16.05-.33.1-.49.16s-.32.13-.48.2c-.14.06-.29.11-.43.18-.16.07-.32.15-.48.23-.14.07-.29.14-.43.21-.14.07-.28.15-.42.23-.17.09-.34.18-.51.28-.09.05-.18.11-.26.16-7.6,4.56-15.77,14.6-34.57,14.6v-.02h0v.02c-.2,0-.39-.01-.59-.01-.08,0-.16,0-.25,0h0c-19.11-.32-27.02-11.1-34.85-15.22-.02,0-.03-.02-.05-.03-.26-.14-.52-.26-.78-.38-.05-.02-.1-.05-.15-.07-.23-.11-.47-.2-.7-.29-.07-.03-.15-.06-.22-.09-.22-.08-.44-.15-.66-.22-.09-.03-.18-.06-.27-.09-.21-.06-.43-.11-.65-.16-.1-.02-.19-.05-.29-.07-.23-.04-.45-.07-.68-.1-.09-.01-.18-.03-.27-.04-.32-.03-.64-.05-.97-.05-10.53,0-14.12,10.19-14.12,10.19l11.41,36.37s32.83,15.15,32.83,23.72-29.14,15.21-29.14,15.21l-35.89-20.91-16.55-36.39s13.87-38.11,26-72.19c9.56-26.86,16.75-50.15,19.01-54.04,6.65-11.42,24.01-18.03,24.01-18.03l23.8,21.26v.06-.06s23.8-21.26,23.8-21.26c0,0,17.36,6.61,24.01,18.03,2.26,3.89,9.45,27.17,19.01,54.04,12.13,34.08,26,72.19,26,72.19l-16.55,36.39Zm23.83-162.23c-13.56,1.76-22.86.78-29.64-.79,0,0,9.88-23.26,22.28-26.58,12.39-3.32,21.69-3.52,24.98,7.23,3.29,10.75-4.07,18.38-17.62,20.14Zm59.22-87.42c-7.18-.86-14.43.82-20.53,4.74l-23.59,15.2c5.57-25.36,21.69-34.99,29.26-36.84,17.85-4.35,36.8,12.79,36.8,12.79-6.74,3.58-14.39,5.01-21.94,4.1Z"/>
  <path class="cls-2" d="m589.44,413.38c-6.65-11.42-24.01-18.03-24.01-18.03l-23.8,21.26v.06s0-.06,0-.06l-23.8-21.26s-17.36,6.61-24.01,18.03c-2.26,3.89-9.45,27.17-19.01,54.04-12.13,34.08-26,72.19-26,72.19l16.55,36.39,35.89,20.91s29.14-6.65,29.14-15.21-32.83-23.72-32.83-23.72l-11.41-36.37s3.59-10.19,14.12-10.19c.33,0,.65.02.97.05.09,0,.18.03.27.04.23.03.46.06.68.1.1.02.19.05.29.07.22.05.43.09.65.16.09.03.18.06.27.09.22.07.44.14.66.22.07.03.15.06.22.09.23.09.47.18.7.29.05.02.1.05.15.07.26.12.52.24.78.38.02,0,.03.02.05.03,7.83,4.11,15.74,14.9,34.85,15.21h0c.09.01.16,0,.25,0,.2,0,.39.01.59.01v-.02h0c18.94-.29,27.07-10.09,34.57-14.57.09-.05.18-.11.26-.16.17-.1.34-.19.51-.28.14-.08.28-.16.42-.23.14-.07.29-.14.43-.21.16-.08.32-.16.48-.23.14-.06.29-.12.43-.18.16-.07.32-.14.48-.2s.32-.11.49-.16c.15-.05.29-.1.44-.14.18-.05.37-.09.55-.13.13-.03.25-.07.38-.09.22-.04.44-.07.66-.1.1-.01.19-.03.29-.04.32-.03.64-.05.97-.05,10.53,0,14.12,10.19,14.12,10.19l-11.41,36.37s-32.83,15.15-32.83,23.72,29.14,15.21,29.14,15.21l35.89-20.91,16.55-36.39s-13.87-38.11-26-72.19c-9.56-26.86-16.75-50.15-19.01-54.04Z"/>
  <path class="cls-2" d="m512.74,602.94v12.88s2.01,3.59,5.21,2.18c9.84-4.37,23.66-9.9,23.66-9.9v-15.03s-3.91.45-7.63,1.76c-3.73,1.32-21.23,8.11-21.23,8.11Z"/>
  <path class="cls-2" d="m541.61,593.06v15.03s13.82,5.54,23.66,9.9c3.2,1.42,5.21-2.18,5.21-2.18v-12.88s-17.5-6.79-21.23-8.11c-3.73-1.32-7.63-1.76-7.63-1.76Z"/>
  <path class="cls-3" d="m659.36,393.63c-3.29-10.75-12.59-10.56-24.98-7.23-12.39,3.32-22.28,26.58-22.28,26.58,6.77,1.56,16.08,2.54,29.64.79,13.56-1.76,20.91-9.38,17.62-20.14Z"/>
  <path class="cls-3" d="m471.18,412.98s-9.88-23.26-22.28-26.58c-12.39-3.32-21.69-3.52-24.98,7.23-3.29,10.75,4.07,18.38,17.62,20.14,13.56,1.76,22.86.78,29.64-.79Z"/>
  <path class="cls-2" d="m686.09,309.45c-7.57,1.84-23.69,11.48-29.26,36.84l23.59-15.2c6.09-3.93,13.35-5.6,20.53-4.74,7.56.9,15.21-.53,21.94-4.1,0,0-18.95-17.14-36.8-12.79Z"/>
  <path class="cls-2" d="m400.98,309.45c-17.85-4.35-36.8,12.79-36.8,12.79,6.74,3.58,14.39,5.01,21.94,4.1,7.18-.86,14.43.82,20.53,4.74l23.59,15.2c-5.57-25.36-21.69-34.99-29.26-36.84Z"/>
</svg>