<?xml version="1.0" encoding="UTF-8"?>
<svg id="ICON" xmlns="http://www.w3.org/2000/svg" version="1.1" viewBox="0 0 1080 1080">
  <!-- Generator: Adobe Illustrator 30.1.0, SVG Export Plug-In . SVG Version: 2.1.1 Build 136)  -->
  <defs>
    <style>
      .st0 {
        fill: #fff;
      }

      .st1 {
        fill: #754c24;
      }
    </style>
  </defs>
  <path class="st0" d="M763.3,576.5l6.9,4.4-5.7-32.6c-.8-4.3-7.8-43-18.5-61.3-6.6-11.2-14-21.3-19.6-28.4,29.3-32.4,39.3-69.5,26.7-101.2-10.1-25.5-33.7-42-60.1-42s-46.7,13-64.6,36.7c-.2.2-.3.4-.4.5h-.2c-3.2,0-9.5-2.6-15.6-5.1-11.1-4.6-24.8-10.3-40.9-10.3s-19.9,2.3-29.3,6.8c-9.4-4.5-19.2-6.8-29.3-6.8-16.1,0-29.9,5.7-40.9,10.3-6.1,2.5-12.4,5.1-15.6,5.1h-.2c0,0-.2-.2-.4-.5-17.9-23.7-40.8-36.7-64.6-36.7s-50,16.5-60.1,42c-12.6,31.7-2.6,68.8,26.7,101.2-5.6,7.1-13,17.2-19.6,28.4-10.8,18.3-17.8,57-18.5,61.3l-5.7,32.6,6.9-4.4c-.8,3.9-1.5,8-2,12.3-1.7,13.2-.8,45.5,6.9,60l14.2,26.8,2.4-5.6c4.9,11.2,11.2,21.9,17.5,29.5l9,10.7c15.1,26.5,41.8,40.5,43.4,41.3l31.7,16.3c22.2,15.4,40,21.2,54.8,25.9,13.2,4.2,23.5,7.6,34.2,16.8l9.4,8.1,9.4-8.1c10.7-9.2,21.1-12.5,34.2-16.8,14.8-4.8,32.6-10.5,54.7-25.9l31.8-16.3c1.6-.8,28.3-14.8,43.4-41.3l9-10.7c6.3-7.6,12.7-18.3,17.5-29.5l2.4,5.6,14.2-26.8c7.7-14.5,8.6-46.8,6.9-60-.5-4.3-1.2-8.4-2-12.3h0ZM745.6,642c-2.7-6.3-5-13.1-9.7-17.5,4,18.9-10.2,50.7-22.7,65.6.4-5-.4-9.5-1.3-14.5-.3-1.7-.6-3.4-.9-5.1,0,2.1,0,4.1,0,6,0,1.3-.2,2.6-.4,3.9-.3,1.9-.6,3.8-1,5.6-.3,1.2-.6,2.4-1,3.6-1.1,3.5-2.4,6.9-4,10-.5,1-1.1,2.1-1.7,3.1-.3.5-.6,1-.9,1.5-.6,1-1.2,2-1.8,2.9-5.7,8.6-12.7,15.5-18.9,20.6-.7.6-1.4,1.1-2,1.6-2.7,2.1-5.2,3.8-7.3,5.2-3.9,2.6-6.5,3.9-6.5,3.9h0s.6-1.6,1.4-3.9c.2-.6.4-1.3.7-2,.3-1,.6-2,.9-3,.2-.8.4-1.6.6-2.4s.4-1.6.5-2.4c.2-1,.4-2,.5-3,0-.5,0-.9,0-1.3,0-.4,0-.8,0-1.2,0,0-7.1,9.4-16.9,19.1-2.1,2.1-4.3,4.2-6.6,6.2-.8.7-1.5,1.3-2.3,2-.5.4-1.1.9-1.6,1.3-10.9,8.7-20.7,14.9-29.7,19.5-.6.3-1.2.6-1.8.9-6.5,3.2-12.5,5.6-18.2,7.7-.5.2-1,.4-1.5.5-1,.4-2,.7-3,1-1,.3-2,.7-3,1-1.5.5-3,1-4.4,1.4-1,.3-1.9.6-2.9.9-1.4.5-2.8.9-4.2,1.4-.5.2-.9.3-1.4.5-3.2,1.1-6.4,2.3-9.5,3.6-1.8.8-3.6,1.6-5.3,2.5-.9.5-1.8.9-2.7,1.4-4.4,2.4-8.8,5.4-13.2,9.2h0c-4.5-3.8-8.8-6.8-13.2-9.2-.9-.5-1.8-1-2.7-1.4-1.8-.9-3.5-1.7-5.3-2.5-3.1-1.3-6.3-2.5-9.5-3.6-.5-.2-.9-.3-1.4-.5-1.4-.5-2.8-.9-4.2-1.4-1-.3-1.9-.6-2.9-.9-1.5-.5-2.9-.9-4.4-1.4-1-.3-2-.7-3-1-1-.3-2-.7-3-1-.5-.2-1-.4-1.5-.5-5.7-2-11.7-4.5-18.2-7.7-.6-.3-1.2-.6-1.8-.9-8.9-4.6-18.7-10.7-29.6-19.5-3.7-2.9-7.2-6.2-10.5-9.4-.8-.8-1.6-1.6-2.4-2.4-1.1-1.2-2.2-2.3-3.3-3.4-1.4-1.6-2.8-3.1-4-4.5-4.5-5.1-7.3-8.8-7.3-8.8,0,.4,0,.8,0,1.2,0,.4,0,.9.1,1.3.1.9.3,2,.5,3,1.3,6.3,4.1,13.7,4.1,13.7,0,0-47.1-24.2-45.6-68-.3,1.8-.6,3.5-.9,5.1-.9,5-1.7,9.5-1.3,14.5-12.5-14.9-26.6-46.7-22.6-65.6-4.8,4.3-7,11.1-9.7,17.5-5.4-10.2-6.9-38.6-5.3-51.4,3.7-29,13.4-45.5,16.2-48.7-2.3.5-15.4,9-15.4,9,0,0,7-39.9,16.8-56.5,11.8-20.1,26.6-36.5,26.6-36.5-90.6-85.6,6.3-177.4,67.1-96.8,18.1,23.1,52-29,97.9-.5h0c45.9-28.5,79.8,23.6,97.9.5,60.7-80.6,157.7,11.2,67.1,96.8,0,0,14.8,16.4,26.6,36.5,9.8,16.6,16.8,56.5,16.8,56.5,0,0-13.2-8.5-15.4-9,2.8,3.2,12.5,19.7,16.2,48.7,1.6,12.8,0,41.2-5.3,51.4h0Z"/>
  <path class="st1" d="M413.6,719.3s2.8,3.7,7.3,8.8c-4.5-5.1-7.3-8.8-7.3-8.8h0Z"/>
  <path class="st1" d="M653.2,738.4c9.8-9.7,16.9-19.1,16.9-19.1h0s-7.1,9.4-16.9,19.1Z"/>
  <path class="st1" d="M646.6,744.6c-.8.7-1.5,1.3-2.3,2,.8-.6,1.5-1.3,2.3-2Z"/>
  <path class="st1" d="M668.3,729.6c.2-.8.4-1.6.6-2.4-.2.8-.4,1.6-.6,2.4Z"/>
  <path class="st1" d="M667.4,732.7c.3-1,.6-2,.9-3-.3,1-.6,2.1-.9,3Z"/>
  <path class="st1" d="M424.9,732.6c-1.4-1.6-2.8-3.1-4-4.5,1.2,1.4,2.5,2.9,4,4.5Z"/>
  <path class="st1" d="M430.5,738.4c-.8-.8-1.6-1.6-2.4-2.4.8.8,1.6,1.6,2.4,2.4Z"/>
  <path class="st1" d="M702,704.2c-.6,1-1.2,2-1.8,2.9.6-1,1.2-1.9,1.8-2.9Z"/>
  <path class="st1" d="M665.4,738.5h0s.6-1.6,1.4-3.9c-.8,2.3-1.4,3.9-1.4,3.9Z"/>
  <path class="st1" d="M666.8,734.7c.2-.6.4-1.3.7-2-.2.7-.5,1.4-.7,2Z"/>
  <path class="st1" d="M710.9,676.5c0,1.3-.2,2.6-.4,3.9.2-1.3.3-2.6.4-3.9Z"/>
  <path class="st1" d="M704.5,699.7c-.5,1-1.1,2.1-1.7,3.1.6-1,1.1-2,1.7-3.1Z"/>
  <path class="st1" d="M709.5,686c-.3,1.2-.6,2.4-1,3.6.3-1.2.7-2.4,1-3.6Z"/>
  <path class="st0" d="M608.5,511c-9.6-26.9-16.8-50.1-19-54-6.7-11.4-24-18-24-18l-23.8,21.3h0c0,.1,0,0,0,0l-23.8-21.3s-17.4,6.6-24,18c-2.3,3.9-9.5,27.2-19,54-12.1,34.1-26,72.2-26,72.2l16.5,36.4,35.9,20.9s29.1-6.7,29.1-15.2-32.8-23.7-32.8-23.7l-11.4-36.4s3.6-10.2,14.1-10.2,17,16.6,40.9,16.8h.4c25-.2,30.9-16.8,41.4-16.8s14.1,10.2,14.1,10.2l-11.4,36.4s-32.8,15.2-32.8,23.7,29.1,15.2,29.1,15.2l35.9-20.9,16.5-36.4s-13.9-38.1-26-72.2h0Z"/>
  <path class="st0" d="M512.7,646.5v12.9s2,3.6,5.2,2.2c9.8-4.4,23.7-9.9,23.7-9.9v-15s-3.9.5-7.6,1.8c-3.7,1.3-21.2,8.1-21.2,8.1h0Z"/>
  <path class="st0" d="M570.5,646.5s-17.5-6.8-21.2-8.1-7.6-1.8-7.6-1.8v15s13.8,5.5,23.7,9.9c3.2,1.4,5.2-2.2,5.2-2.2v-12.9h0Z"/>
  <path class="st0" d="M634.4,430c-12.4,3.3-22.3,26.6-22.3,26.6,6.8,1.6,16.1,2.5,29.6.8s20.9-9.4,17.6-20.1c-3.3-10.8-12.6-10.6-25-7.2h0Z"/>
  <path class="st0" d="M471.2,456.6s-9.9-23.3-22.3-26.6c-12.4-3.3-21.7-3.5-25,7.2s4.1,18.4,17.6,20.1c13.6,1.8,22.9.8,29.6-.8h0Z"/>
  <path class="st0" d="M686.1,353.1c-7.6,1.8-23.7,11.5-29.3,36.8l23.6-15.2c6.1-3.9,13.3-5.6,20.5-4.7,7.6.9,15.2-.5,21.9-4.1,0,0-19-17.1-36.8-12.8h0Z"/>
  <path class="st0" d="M401,353.1c-17.9-4.4-36.8,12.8-36.8,12.8,6.7,3.6,14.4,5,21.9,4.1h0c7.2-.9,14.4.8,20.5,4.7l23.6,15.2c-5.6-25.4-21.7-35-29.3-36.8h0Z"/>
</svg>