<?xml version="1.0" encoding="UTF-8"?>
<svg id="PRIMARY" xmlns="http://www.w3.org/2000/svg" version="1.1" viewBox="0 0 1080 1080">
  <!-- Generator: Adobe Illustrator 30.1.0, SVG Export Plug-In . SVG Version: 2.1.1 Build 136)  -->
  <defs>
    <style>
      .st0 {
        fill: none;
      }
    </style>
  </defs>
  <path class="st0" d="M538.8,887.3l-3.3,6.1c-.4.7-.8,1.4-.9,1.9,0,.6.1,1,.7,1.1v.8c-.1,0,.2,0,.2,0v-.8c-.4,0-.7-.5-.6-1.1,0-.5.5-1.2.9-1.9l3.2-5.8v-.3h-.1,0Z"/>
  <path class="st0" d="M557.8,876.4l-9.1,19c-.3.6-.7,1.5-.8,1.9,0,.6.1,1,.7,1.1v.8c-.1,0,.2,0,.2,0v-.8c-.4,0-.7-.5-.6-1.1,0-.5.5-1.3.8-1.9l9.1-19c.5-1.1.8-1.5,1.4-1.5-.8,0-1.1.2-1.7,1.5h0Z"/>
  <path class="st0" d="M550.2,872.6l9.8,1.5v.8s0,0,.2,0v-.8c.1,0-10-1.5-10-1.5h0s0,0,0,0Z"/>
  <path class="st0" d="M595.5,868.9c5.9,0,11.1,4.1,12.6,11.6,1.6,8-1.9,14.9-9.9,16.5-.9.2-1.8.3-2.7.3,1,0,2,0,3-.3,8-1.6,11.5-8.4,9.9-16.5-1.5-7.7-6.8-11.7-12.9-11.6h0Z"/>
  <path class="st0" d="M531.3,871.9c0,.2,0,.6,0,.9l1.2,15.2h0l.2-.4-1.2-14.8c0-.3,0-.7,0-.9,0-.7.5-1,1.2-1-.8,0-1.4.2-1.5,1h0Z"/>
  <path class="st0" d="M590.1,884.2c-1.1-5.6,1-8.8,4-9.4.3,0,.6,0,.9,0-.4,0-.8,0-1.2,0-3.1.6-5.1,3.8-4,9.4,1,4.9,3.4,7.5,6.3,7.5-2.8-.2-5.1-2.7-6-7.5Z"/>
  <path class="st0" d="M533.1,870.8c0,0,.2,0,.3,0v-.8c.1,0-10.6-1.6-10.6-1.6h0s10.4,1.6,10.4,1.6v.8c-.1,0-.1,0-.1,0Z"/>
  <path class="st0" d="M472.1,873.8c-.2,0-.4,0-.6-.2h0c.2.2.4.2.6.2h0Z"/>
  <polygon class="st0" points="544.9 889.8 545 889.8 545.1 889.4 542.9 877.5 538.8 876.9 538.8 876.9 542.5 877.5 544.9 889.8"/>
  <path class="st0" d="M482.5,874.4c1.2.6,2.3.8,3.4.8-1,0-2-.2-3.1-.8-.6-.3-1.4-.8-1.8-1l7.1-14.3c0,0-.2,0-.3-.1l-7.2,14.4c.4.3,1.2.7,1.8,1h0Z"/>
  <path class="st0" d="M491.5,854.4c-3.6-1.8-6.6-3.1-8.4-3.8h0c1.8.8,4.8,2.1,8.2,3.8,9.1,4.6,11,11.6,7.5,18.7-2.5,5-6.2,8.1-11.5,8,5.5.2,9.3-2.8,11.8-8,3.5-7.1,1.7-14.1-7.5-18.7h0Z"/>
  <rect class="st0" x="512" y="826.2" width="12.8" height=".3" transform="translate(-310.7 1340.4) rotate(-89.7)"/>
  <rect class="st0" x="501.7" y="804" height="4.3"/>
  <polygon class="st0" points="526.5 793.7 526.8 793.7 521 784.1 515.1 774.6 515 774.8 520.7 784.1 526.5 793.7"/>
  <polygon class="st0" points="530.4 806 525.3 806 529.3 812.5 524.2 820 524.5 820 529.6 812.5 525.7 806 530.7 806 523.1 793.7 522.7 793.7 530.4 806"/>
  <path class="st0" d="M677.8,833.8c.4-.4,1.1-1,1.6-1.5,1.2-1,2.6-1.6,4-1.7-1.6,0-3.1.6-4.4,1.7-.5.4-1.1,1-1.6,1.5l10.5,12.1c0,0,.1,0,.2-.1l-10.4-12h0Z"/>
  <path class="st0" d="M655.2,860c3.8,7.2,2.4,14.8-4.9,18.6-2.2,1.1-4.3,1.6-6.3,1.5,2.1.1,4.4-.4,6.6-1.5,7.2-3.8,8.6-11.3,4.9-18.6-2.8-5.5-7.3-8.1-12-8.1,4.5,0,8.8,2.7,11.6,8.1h0Z"/>
  <path class="st0" d="M718.1,806.4c-2.1,1.2-4,1.8-5.6,1.9,1.7,0,3.7-.7,5.9-1.9,3.4-1.8,4.9-2.5,5.8-2.5-.9,0-2.4.5-6.2,2.5h0Z"/>
  <path class="st0" d="M639,868.6c-2.6-5-1.6-8.7,1.2-10.1.7-.3,1.4-.5,2.1-.6-.8,0-1.7.2-2.5.6-2.8,1.4-3.8,5.1-1.2,10.1,2,3.8,4.5,5.7,6.9,5.6-2.3,0-4.7-2-6.6-5.6h0Z"/>
  <rect class="st0" x="594.6" y="804.1" height="4.3"/>
  <polygon class="st0" points="623.3 806 618.3 806 626.9 820.1 627.2 820.1 618.6 806 623.7 806 616 793.7 615.7 793.7 623.3 806"/>
  <rect class="st0" x="538.3" y="812.1" height="7.1"/>
  <rect class="st0" x="611.2" y="820" width=".3" height="12.8"/>
  <path class="st0" d="M729.2,811.8c-1.5,1.9-4.2,4-5,4.9-.3.4-.5.8-.6,1.1l.3.2c0-.2.3-.8.7-1.3.7-.9,3.5-3,5-4.9,4.5-5.7,3.5-10.2-.5-13.3-1.6-1.2-3.2-1.7-4.8-1.6,1.5,0,3,.5,4.4,1.6,4,3.1,5,7.6.5,13.3Z"/>
  <path class="st0" d="M694.6,829.2c5.5,6.3,5.9,13.4-2.7,20.8-2.4,2.1-5.1,4.2-6.5,5.3h.1c1.4-.8,4.2-3.1,6.7-5.3,8.5-7.4,8.1-14.5,2.7-20.8-2.7-3.1-5.9-4.8-9.4-4.9,3.4.2,6.5,1.9,9.1,4.9Z"/>
  <path class="st0" d="M718.5,812.8c-.6,0-1.2-.3-1.8-.4h0c.6.3,1.2.4,1.8.4h0Z"/>
  <path class="st0" d="M716.2,793.4c-1,.3-2.1,1-3.7,3-1.8,2.3-1.6,3.8-.8,4.4.3.2.6.3,1,.3-.3,0-.5-.1-.7-.3-.8-.6-1-2.1.8-4.4,1.6-2.1,2.7-2.7,3.7-3,.3,0,.7-.1,1-.2-.4,0-.8,0-1.3.2Z"/>
  <path class="st0" d="M718.6,793.4c0,0,.2,0,.3,0l.5-1-6.6-4.2s0,.1,0,.2l6.3,4-.5.9h0Z"/>
  <path class="st0" d="M668.5,835.8h.1c.2,0,.5-.2.8-.2-.3,0-.6,0-.9.2h0Z"/>
  <polygon class="st0" points="619.4 793.7 619.8 793.7 613.9 784.1 608.1 774.6 607.9 774.8 613.6 784.1 619.4 793.7"/>
  <path class="st0" d="M561.1,374.2h0c0,0,.2-.2.2-.2l-19.8-17.7s0,0-.2,0l19.9,17.8h0c0,0,0,0,0,0Z"/>
  <path class="st0" d="M561.7,522.6c-.1,0-.2,0-.2,0h0c.9.2,3.5.6,6.1,1.5,3.1,1.1,17.8,6.8,17.8,6.8v10.8s-1.1,2-2.9,2.1c2,0,3.2-2.1,3.2-2.1v-10.8s-14.7-5.7-17.8-6.8c-2.7-1-5.4-1.4-6.2-1.5h0Z"/>
  <path class="st0" d="M561.1,522.6h0v12.6s-11.6,4.7-19.9,8.3c-.4.2-.8.2-1.1.3.4,0,.9,0,1.5-.3,7.7-3.4,18.3-7.7,19.7-8.3,0,0-.2,0-.2,0v-12.6h0Z"/>
  <path class="st0" d="M514.5,462.5l9.6,30.6s27.6,12.7,27.6,19.9-21.8,12.2-24.3,12.7h0s24.5-5.5,24.5-12.7-27.6-19.9-27.6-19.9l-9.6-30.6s3-8.5,11.7-8.6h-.2c-8.8,0-11.9,8.6-11.9,8.6h0Z"/>
  <path class="st0" d="M561.4,522.6h0s0,0-.2,0h0s0,0,.1,0h0Z"/>
  <path class="st0" d="M561.5,468h.2c20.2,0,25.7-13.9,34.4-14.1h-.2c-8.8,0-14.3,14-34.5,14.1h0Z"/>
  <path class="st0" d="M561.3,468h.2-.2,0Z"/>
  <polygon class="st0" points="550.5 242.6 550.5 242.8 561.5 237 561.3 236.9 550.5 242.6"/>
  <path class="st0" d="M601.7,371.5c-5.6-9.6-20.2-15.2-20.2-15.2h0c1.8.8,14.8,6.2,20,15.2,1.9,3.3,8,22.9,16,45.4,10.2,28.6,21.9,60.7,21.9,60.7l-13.9,30.6-30.1,17.5c.1,0,.2,0,.2,0l30.2-17.6,13.9-30.6s-11.7-32-21.9-60.7c-8-22.6-14.1-42.2-16-45.4h0Z"/>
  <path class="st0" d="M501.9,371.1c-3.5.8-7.9,1.4-13.4,1.5,5.6,0,10.1-.6,13.7-1.5,0,0-8.3-19.6-18.7-22.4-4-1.1-7.5-1.7-10.6-1.7,3,0,6.5.7,10.3,1.7,10.4,2.8,18.7,22.4,18.7,22.4h0Z"/>
  <polygon class="st0" points="579.4 221.5 570.4 230.3 572.5 242.6 572.8 242.8 570.7 230.3 579.7 221.5 567.2 219.7 561.7 208.4 561.5 208.7 566.9 219.7 579.4 221.5"/>
  <path class="st0" d="M430.4,298.3c-1.5.2-3,.2-4.5.2,1.6,0,3.2,0,4.8-.2h0c.7,0,1.5-.1,2.2-.2-.9,0-1.7,0-2.5.2h0Z"/>
  <path class="st0" d="M467.4,314.8l.4.2c-4.7-21.3-18.2-29.4-24.6-31-1.9-.5-3.8-.6-5.7-.6,1.8,0,3.6.1,5.4.6,6.3,1.5,19.8,9.6,24.5,30.7h0Z"/>
  <path class="st0" d="M452,849.1l.2.2,5-5.9-.7-.6c0,0-.1,0-.1.2l.5.4-4.8,5.8h0Z"/>
  <path class="st0" d="M445.7,857.4s0,.1.1.2l5.9-4.6-.5-.8c0,0-.2,0-.3.1l.4.7-5.6,4.4h0Z"/>
  <path class="st0" d="M441.2,846.3l6.7,5.6c.7.5,1.1.8,1.7.7-.4,0-.9-.3-1.4-.7l-6.7-5.6,3.5-4.2-.2-.2-3.7,4.4h0Z"/>
  <path class="st0" d="M417.9,790l-.2.2c1.2,1.4,3.7,4.1,6.1,7,4.9,6.1,7.6,11.8,1.5,16.7-1.5,1.2-3.3,1.8-4.9,1.8,1.8,0,3.6-.5,5.3-1.8,6.1-4.9,3.4-10.6-1.5-16.7-2.4-3-5-5.9-6.2-7.2h0Z"/>
  <path class="st0" d="M432.9,844.9c-.3,0-.5-.2-.8-.4h-.1c.3.3.6.4.9.4h0Z"/>
  <path class="st0" d="M448.4,837.8l6,5c.4.3.7.5,1.1.4-.2,0-.5-.2-.7-.4l-6-5,2.8-3.4-.2-.2-3,3.5h0Z"/>
  <path class="st0" d="M448.7,824.8v.2c-.1,0,12.4,10.5,12.4,10.5.4.4,1.5,1,1.8,1.2l-3.3,5.9h.3c0,0,3.3-5.9,3.3-5.9-.3-.2-1.4-.8-1.8-1.2l-12.8-10.7h0Z"/>
  <path class="st0" d="M658.4,314.8c0,0,0,.2,0,.2l19.8-12.8c4.4-2.8,9.5-4.3,14.7-4.2-5.3-.2-10.5,1.3-15,4.2l-19.5,12.5h0Z"/>
  <path class="st0" d="M398.7,806.6c-.4,0-.6-.2-.9-.6l-.2.2c.3.3.6.5,1.1.4h0Z"/>
  <path class="st0" d="M688.3,283.5c13.1.3,25.3,11.3,25.3,11.3-4.2,2.2-8.9,3.5-13.7,3.6,4.9-.1,9.7-1.4,14-3.6,0,0-12.4-11.2-25.6-11.3h0Z"/>
  <path class="st0" d="M649.7,347.1c5,0,8.7,2.1,10.4,7.8,2.8,9-3.4,15.5-14.8,16.9-4.2.5-7.9.8-11.2.8,3.4,0,7.2-.2,11.6-.8,11.4-1.5,17.6-7.9,14.8-16.9-1.8-5.7-5.5-7.8-10.7-7.8Z"/>
  <path class="st0" d="M411.9,822.4c-.2.8-.3,1.3.4,2.1l-.5.4v.2c.1,0,.8-.5.8-.5-.6-.8-.6-1.3-.4-2.1.7-2.5,2.4-5.8,3.8-7.7,0,0-.2,0-.2-.1-1.4,1.9-3.1,5.3-3.9,7.8h0Z"/>
  <path class="st0" d="M404.3,811.3c-1.2,1-1.3,1.7-.7,2.5l-.5.4v.2c.1,0,.8-.5.8-.5-.6-.8-.6-1.5.7-2.5l3.8-3.1s0-.1-.1-.2l-4,3.2h0Z"/>
  <path class="st0" d="M418.4,809.6c-1.4,0-2.8-1.1-4.3-3-.5-.6-.9-1.2-1.3-1.8l6.1-4.9s-.1-.1-.1-.2l-6.3,5c.4.6.9,1.3,1.3,1.8,1.6,2.1,3.1,3,4.6,3h0Z"/>
  <path class="st0" d="M629.5,645c.8.1,1.7.1,2.5.1-.7,0-1.5,0-2.2-.1,0-12.4,0-24.8,0-37.2.5-.2,2-.2,3.1-.2h-.1c-1.1,0-2.7,0-3.3.2,0,12.4,0,24.8,0,37.2h0Z"/>
  <path class="st0" d="M451,707.2c.1,0,.2.1.3.2,1.4-7.5,2.7-15.1,4-22.6-.9-.4-1.8-.9-2.7-1.3,0,0,0,0,0,.1.8.4,1.6.8,2.5,1.2-1.3,7.5-2.7,15-4,22.4h0Z"/>
  <path class="st0" d="M661.2,625.2c0,16.8-3.9,25.3-10.6,29.7,1.8,12.6,5.3,29.9,8.8,43.6.7,2.5,2.8,4.8,5.1,4.8-2.2-.1-4.1-2.3-4.8-4.8-3.5-13.7-6.9-31-8.8-43.6,6.7-4.3,10.7-12.8,10.6-29.7,0-24.7-11.6-34.3-28.9-34.3h-.2c17.2,0,28.7,9.7,28.8,34.3h0Z"/>
  <path class="st0" d="M629.6,661c0,12.6,0,25.1,0,37.7,0,3.7,1.7,6.4,4.5,6.3v3.2c-8.5.4-17,.7-25.5,1h0c8.6-.3,17.2-.6,25.8-1v-3.2c-2.9.1-4.5-2.6-4.5-6.3,0-12.6,0-25.1,0-37.7l6.5-.2h0c-2.3,0-4.6.1-6.9.2h0Z"/>
  <path class="st0" d="M373.1,667.6c-.2,0-.5,0-.7,0-2.3-.2-5.2-1.2-6.6-2.2,2-18.1,3.9-36.2,5.9-54.5h-.3c-2,18.3-4,36.5-5.9,54.5,1.4,1,4.2,2,6.6,2.2.4,0,.7,0,1.1,0h0Z"/>
  <path class="st0" d="M334.1,695.1c.1,0,.2,0,.3.1,1.1-6.7,2.2-13.3,3.3-20.1-1-.4-2-.8-3-1.2,0,0,0,0,0,.1.9.4,1.8.7,2.7,1.1-1.1,6.7-2.2,13.3-3.3,20Z"/>
  <path class="st0" d="M690.7,633.2c0,20.6.1,41.2.2,61.8,0,3.6,1.7,6,4.3,5.9-2.4-.1-4-2.5-4-5.9,0-20.6-.1-41.2-.2-61.7,0,0,0,0,0-.1h-.3Z"/>
  <path class="st0" d="M309.2,640.3c0,28.2,5.1,38.2,15.4,39.6.8.1,1.6.2,2.3.2-.6,0-1.2,0-2-.2-10.2-1.4-15.4-11.3-15.4-39.6,0-25.1,6.8-35.9,14.8-36h-.1c-8.1-.1-14.9,10.7-15,36h0Z"/>
  <path class="st0" d="M600.7,648c0,45.2-8.1,64.7-26.1,65h.2c18-.2,26.2-19.6,26.2-65,0-39-8.8-59.3-26-59.3h-.2c17,.2,25.8,20.4,25.8,59.3h0Z"/>
  <rect class="st0" x="565.3" y="836" width=".3" height="21.1"/>
  <path class="st0" d="M707,637.5c.1,0,.2,0,.3,0-4.8-12.5-9.5-25.2-14.2-37.9-1-2.6-1.7-5-1.7-7.4h-.3c0,2.4.7,4.8,1.7,7.4,4.8,12.8,9.5,25.5,14.2,38h0Z"/>
  <path class="st0" d="M722.8,601.1c0,30.4.2,60.8.3,91.2,0,3.9,1.2,6,3.6,5.7v3c-6.3.7-12.6,1.3-18.9,1.9h0c6.4-.6,12.8-1.2,19.2-1.9v-3c-2.3.2-3.6-1.8-3.6-5.7,0-30.4-.2-60.8-.3-91.2,0-3.8,2.2-6.1,4.6-6.1v-3h-.3v3c-2.5,0-4.7,2.4-4.6,6.1Z"/>
  <path class="st0" d="M643.6,707.6h0c7.1-.4,14.2-.8,21.3-1.2v-3.1h-.3v3.1c-7,.5-14,.9-21,1.2Z"/>
  <path class="st0" d="M516.5,638.5c4.9,0,9.9,0,14.8.1h0c-4.8,0-9.7,0-14.5-.1,0-9.8,0-19.7,0-29.5h-.3c0,9.8,0,19.7,0,29.5h0Z"/>
  <path class="st0" d="M539,614.7s0,0,0,0c1-.3,1.9-.7,2.9-1-1.2-7.6-2.5-15.2-3.7-22.9,0,0-.2.1-.3.2,1.2,7.6,2.4,15.1,3.7,22.7-.9.3-1.7.6-2.6.9h0Z"/>
  <path class="st0" d="M362.2,691.7c0,1.8,1,3.3,3.3,3.6v2.8c.1,0,.2,0,.3,0v-2.9c-2.3-.3-3.3-1.8-3.3-3.6,0-.9.8-7.5,1.2-10.5-.1,0-.2-.1-.3-.2-.4,2.8-1.3,9.7-1.3,10.6h0Z"/>
  <path class="st0" d="M539,661h.3c0-9.4,0-18.7,0-28.1-.8,0-1.7,0-2.5,0h0c.7,0,1.4,0,2.2,0,0,9.4,0,18.7,0,28.1h0Z"/>
  <path class="st0" d="M531.1,592.3c-11.8,0-23.5,0-35.3,0h0c11.8,0,23.5,0,35.3,0h0Z"/>
  <path class="st0" d="M487.4,595.4c-3,0-4.5,2.1-4.5,6.3,0,32.3-.1,64.5-.2,96.8,0,4,1.6,6.5,4.5,6.7v3.1c.1,0,.2,0,.3,0v-3.2c-2.9-.1-4.5-2.7-4.5-6.7,0-32.3.1-64.5.2-96.8,0-4.1,1.5-6.3,4.5-6.3v-3.2c-8.6,0-17.3,0-25.9,0h0c8.5,0,17,0,25.6,0v3.2h0Z"/>
  <path class="st0" d="M516.5,699.6c0,4.3,1.9,6.6,4.8,6.7v3.2h.3v-3.2c-2.9,0-4.8-2.3-4.8-6.7,0-14.8,0-29.6,0-44.4h-.3c0,14.8,0,29.6,0,44.4h0Z"/>
  <path class="st0" d="M343.7,692.4c-.1,0-.3,0-.4,0h0c.1,0,.3,0,.4,0Z"/>
  <path class="st0" d="M565.9,648.5c0-30.2,3-42.7,8.8-42.9,0,0-.1,0-.2,0-5.9,0-8.9,12.5-8.9,42.9,0,35.7,3,47.6,9.2,47.5h.1c-6.1-.2-9-12.2-9-47.5h0Z"/>
  <path class="st0" d="M378.1,696.6c-.2,0-.3,0-.5,0h0c.2,0,.4,0,.5,0Z"/>
  <path class="st0" d="M387.3,595c-1.5,0-2.6,1.2-2.6,3.1s.1,2.2.3,3.6c4,30.4,8,61.2,12,92.3.5,3.8,2,4.9,4.1,5.1v3c.1,0,.2,0,.3,0v-3c-2.1-.2-3.6-1.3-4.1-5.1-4-31.1-8-61.9-12-92.3-.1-1.4-.3-2.5-.3-3.6,0-1.9,1.1-3.1,2.6-3.1v-3c-10,0-20,0-30,0h0c9.9,0,19.8,0,29.7,0v3h0Z"/>
  <path class="st0" d="M374.1,683.7c2.1,0,4.2-.3,5.6-.9,0,0,0,0,0-.1-1.2.6-3.4,1-5.5,1Z"/>
  <path class="st0" d="M796.6,677.7c-1,.1-2,.2-3.1.2,1.2,0,2.4,0,3.4-.2,2.7-.3,5.8-1.4,7.5-2.4,0,0,0-.1,0-.2-1.6,1.1-4.9,2.2-7.8,2.6h0Z"/>
  <path class="st0" d="M787.1,687.7c0,1.6.8,2.7,2.7,2.6-1.6,0-2.3-1.1-2.3-2.6s.8-7.5,1.2-10.4c0,0-.2,0-.3,0-.4,2.8-1.2,9.6-1.2,10.5h0Z"/>
  <path class="st0" d="M802.4,691.2h0c7.9-1.2,15.8-2.5,23.7-3.8v-2.6c-.1,0-.2,0-.3,0v2.6c-7.8,1.3-15.6,2.6-23.4,3.8h0Z"/>
  <path class="st0" d="M768.2,696.1h0c7.5-1,15-2,22.5-3.1v-2.8c-.1,0-.2,0-.3,0v2.7c-7.4,1.1-14.8,2.1-22.2,3.1h0Z"/>
  <path class="st0" d="M671.1,705.9h0c8.2-.6,16.5-1.2,24.7-1.9v-3h-.3v3c-8.1.7-16.2,1.3-24.4,1.9h0Z"/>
  <path class="st0" d="M824.2,551.3V242.1s-261.9-82.9-261.9-82.9l-262,82.9v309.3s-46.6,0-46.6,0v165.4l12.6,3.3c.3,0,6.9,1.8,18.5,4.3,4.7,1,10.2,2.2,16.5,3.5,6.6,54.5,46.8,109.7,119.7,164.6,59.8,45,122.6,74.9,134.6,80.5l6.7,3.1,6.7-3.1c12-5.5,74.8-35.4,134.6-80.5,73-55,113.2-110.3,119.7-164.9,6.3-1.3,11.8-2.5,16.4-3.5,10.7-2.4,16.7-3.9,17-4l12.6-3.3v-165.3h-45.1ZM363.8,238.7l198.4-62.8,246,77.8v297.5h-74.3l9.8-18.6c6.5-12.2,7.2-39.3,5.8-50.5-.5-3.6-1-7.1-1.7-10.3l5.8,3.7-4.8-27.4c-.6-3.7-6.5-36.2-15.6-51.6-5.5-9.5-11.8-17.9-16.5-23.9,24.6-27.3,33-58.5,22.5-85.1-8.5-21.4-28.4-35.3-50.5-35.3s-39.2,11-54.3,30.9c-.2.2-.3.3-.3.4h-.2c-2.7,0-8-2.2-13.1-4.3-9.3-3.9-20.9-8.6-34.4-8.6s-16.7,1.9-24.6,5.7c-7.9-3.8-16.2-5.7-24.6-5.7-13.5,0-25.1,4.8-34.4,8.6-5.1,2.1-10.4,4.3-13.1,4.3h-.2c0,0-.2-.2-.4-.4-15-19.9-34.3-30.9-54.3-30.9s-42,13.9-50.5,35.3c-10.6,26.6-2.2,57.8,22.5,85.1-4.7,6-10.9,14.4-16.5,23.9-9.1,15.4-15,47.9-15.6,51.6l-4.8,27.4,5.8-3.7c-.6,3.2-1.2,6.7-1.7,10.3-1.4,11.1-.7,38.2,5.8,50.4l9.8,18.6h-73.1V253.8s47.6-15.1,47.6-15.1h0ZM724.8,512.4c2.2,10.6-2.3,26.1-8.8,39h-12.1c0,0,0-.2,0-.3v.3h-284.5v-.3c0,.1,0,.2,0,.3h-12.1c-6.4-12.8-11-28.3-8.8-39-4,3.6-5.9,9.3-8.2,14.7-4.5-8.6-5.8-32.5-4.5-43.2,3.1-24.4,11.2-38.2,13.6-41-1.9.4-13,7.5-13,7.5,0,0,5.9-33.5,14.1-47.5,9.9-16.9,22.4-30.7,22.4-30.7-76.2-72,5.3-149.2,56.4-81.4,15.2,19.4,43.7-24.4,82.3-.4h0c38.6-24,67.1,19.9,82.3.4,51.1-67.8,132.6,9.4,56.4,81.4,0,0,12.5,13.8,22.4,30.7,8.2,14,14.1,47.5,14.1,47.5,0,0-11.1-7.1-13-7.5,2.3,2.7,10.5,16.6,13.6,41,1.4,10.8,0,34.6-4.5,43.2-2.3-5.3-4.2-11-8.2-14.7h0ZM730.2,551.3h-.7c.1-.3.2-.5.4-.8l.3.8h0ZM393.8,551.3h-.7l.4-.8c.1.3.2.5.4.8ZM562.2,958.3c-22.4-10.3-224-106.6-244.3-227.2,54.1,10.3,144.8,24.2,243.5,24.2s191.2-14.1,245.1-24.5c-20,120.7-221.9,217.2-244.3,227.5h0ZM852.4,703.6s-134.6,34.8-291,34.8-291-34.8-291-34.8v-135.5h581.9v135.5Z"/>
  <polygon class="st0" points="585.1 815.5 576.9 815.6 590.8 836.1 591.1 836.1 577.2 815.6 585.4 815.5 573 797.6 572.6 797.6 585.1 815.5"/>
  <polygon class="st0" points="559.9 770 569.2 783.7 578.7 797.6 579 797.6 569.6 783.7 560.1 769.8 559.9 770"/>
  <path class="st0" d="M809.1,597.2c0,1,.1,2,.3,3.2,4.1,27.5,8.2,54.5,12.3,80.9.5,2.8,1.7,3.6,3.3,3.5-1.5,0-2.5-.9-3-3.5-4.1-26.4-8.2-53.4-12.3-80.9-.1-1.3-.3-2.2-.3-3.2,0-1.7,1.1-2.8,2.6-2.8v-2.7h-.3v2.7c-1.5,0-2.6,1.2-2.6,2.8Z"/>
  <path class="st0" d="M736.2,700h0c8.6-.9,17.2-2,25.8-3.1v-2.9c-.1,0-.2,0-.3,0v2.8c-8.5,1.1-17,2.1-25.5,3.1h0Z"/>
  <path class="st0" d="M331.1,590.8c-1.9,0-6.5-1-9.6-1h-.1c3.1,0,7.8,1,9.5,1h.2,0Z"/>
  <path class="st0" d="M790.5,661.7c1.9-17.6,3.8-35,5.6-52.3.2,0,.4,0,.6,0h0c-.3,0-.6,0-1,0-1.9,17.3-3.8,34.7-5.6,52.3,1.1.6,3.1,1,5,1-1.8,0-3.7-.4-4.7-1h0Z"/>
  <path class="st0" d="M334.7,610.6s0,0,0,0c1-.3,2-.5,3-.8-1-6.6-2-13.1-3-19.7,0,0-.2,0-.3,0,1,6.5,2,13,3,19.6-.9.2-1.8.5-2.7.7h0Z"/>
  <path class="st0" d="M756.9,600.5c0,29.4.2,58.8.3,88.2,0,3.4,1.5,5.5,4.1,5.4-2.4,0-3.8-2.1-3.8-5.4,0-29.4-.2-58.8-.3-88.2,0-3.8,1.5-5.8,4.5-5.8v-2.8h-.3v2.8c-3,0-4.5,2-4.5,5.8h0Z"/>
  <path class="st0" d="M433.6,595.2c-2.6,0-4.8,2.9-4.8,6.2,0,28.8-.2,57.7-.3,86.5,5.6.4,11.2.8,16.7,1.1h.3c-5.6-.3-11.1-.7-16.7-1.1,0-28.8.2-57.7.3-86.5,0-3.4,2.2-6.3,4.8-6.2v-3.1c-8.7,0-17.4,0-26,0h0c8.6,0,17.1,0,25.7,0v3.1h0Z"/>
  <path d="M840.2,536.3V230.3s-277.9-87.9-277.9-87.9l-278,87.9v306s-45.6,0-45.6,0v192l23.9,6.2c.3,0,9.1,2.3,24.5,5.7,10.6,55.5,52.3,110.9,124.3,165.1,61.1,46,125.2,76.5,137.5,82.2l13.4,6.2,13.4-6.2c12.2-5.7,76.4-36.2,137.5-82.2,72.1-54.3,113.8-109.8,124.4-165.4,14.4-3.1,22.6-5.2,22.9-5.3l23.9-6.2v-192h-44.1,0ZM869.2,716.7l-12.6,3.3c-.3,0-6.3,1.6-17,4-4.6,1-10.1,2.2-16.4,3.5-6.5,54.6-46.7,110-119.7,164.9-59.8,45-122.6,74.9-134.6,80.5l-6.7,3.1-6.7-3.1c-12-5.5-74.8-35.4-134.6-80.5-72.9-54.9-113-110.2-119.7-164.6-6.3-1.3-11.8-2.5-16.5-3.5-11.7-2.6-18.2-4.3-18.5-4.3l-12.6-3.3v-165.3h46.6V242s262-82.9,262-82.9l262,82.9v309.3s45,0,45,0v165.3h0Z"/>
  <path d="M389.4,551.3l-9.8-18.6c-6.5-12.2-7.2-39.3-5.8-50.5.5-3.6,1-7.1,1.7-10.3l-5.8,3.7,4.8-27.4c.6-3.7,6.5-36.2,15.6-51.6,5.5-9.5,11.8-17.9,16.5-23.9-24.6-27.3-33-58.5-22.5-85.1,8.5-21.4,28.4-35.3,50.5-35.3s39.2,11,54.3,30.9c.2.2.3.3.4.4h.2c2.7,0,8-2.2,13.1-4.3,9.3-3.9,20.9-8.6,34.4-8.6s16.7,1.9,24.6,5.7c7.9-3.8,16.2-5.7,24.6-5.7,13.5,0,25.1,4.8,34.4,8.6,5.1,2.1,10.4,4.3,13.1,4.3h.2c0,0,.2-.2.3-.4,15-19.9,34.3-30.9,54.3-30.9s42,13.9,50.5,35.3c10.6,26.6,2.2,57.8-22.5,85.1,4.7,6,10.9,14.4,16.5,23.9,9.1,15.4,15,47.9,15.6,51.6l4.8,27.4-5.8-3.7c.7,3.2,1.2,6.7,1.7,10.3,1.4,11.1.7,38.2-5.8,50.4l-9.8,18.6h74.2V253.8s-245.9-77.8-245.9-77.8l-198.4,62.8-47.6,15.1v297.6h73.2,0ZM555.7,219.7l5.6-11.3.2.3.2-.3,5.6,11.3,12.5,1.8-9,8.8,2.1,12.4-.4-.2v.2s-11-5.8-11-5.8l-11,5.8v-.2s-.3.2-.3.2l2.1-12.4-9-8.8,12.5-1.8h0Z"/>
  <path d="M317.9,731.1c20.3,120.6,221.9,216.9,244.3,227.2,22.4-10.4,224.4-106.8,244.3-227.5-53.9,10.4-145.4,24.5-245.1,24.5s-189.4-13.8-243.5-24.2h0ZM425.6,813.9c-1.6,1.3-3.5,1.8-5.3,1.8-1.6,0-3.1-.3-4.4-1-1.4,1.9-3.1,5.2-3.8,7.7-.2.8-.3,1.3.4,2.1l-.6.5v-.2c-.1,0-.3.2-.3.2l-5.5-6.9c.8-2,3-5,4.6-7.2-.3-.3-.8-.8-1.2-1.4-.4-.5-.7-.9-1-1.3l-3.8,3.1c-1.2,1-1.3,1.7-.7,2.5l-.6.5v-.2c-.1,0-.3.2-.3.2l-6.2-7.7.6-.5c0,0,0,0,.1.2l.2-.2c.3.3.5.5.9.6.4,0,.8-.3,1.4-.7l16.4-13.1c.9-.7,1.1-1.6.5-2.4l.6-.5s0,0,.1.2l.2-.2c1.1,1.3,3.8,4.2,6.2,7.2,4.9,6.1,7.6,11.8,1.5,16.7h0ZM460,842.7h-.3c0,0,0,0,0,0l-.8-.3c.2-1.3,0-1.8-.9-2.6l-6.4-5.4-2.8,3.4,6,5c.3.2.5.4.7.4.2,0,.4-.2.7-.4l.2.2s.1,0,.1-.2l.7.6-5,5.9-.2-.2v.2c-.1,0-.8-.6-.8-.6.5-.6.4-1.1-.3-1.7l-5.8-4.9-3.5,4.2,6.7,5.6c.5.4.9.7,1.4.7.4,0,.8-.2,1.3-.4h0c0,0,.2,0,.3,0l.5.8-5.9,4.6s0-.1-.1-.2l-.2.2c-.4-.6-1.1-1.5-1.6-1.9l-12.5-10.5.5-.6c0,0,.1,0,.2.1h.1c.2,0,.5.2.8.2.4,0,.9-.4,1.3-.9l13.5-16.1c.7-.9.8-1.9.1-2.5l.5-.6.2.2v-.2c.1,0,12.9,10.7,12.9,10.7.4.4,1.5,1,1.8,1.2l-3.3,6h0ZM499,873.1c-2.6,5.1-6.4,8.2-11.8,8-2.5,0-5.4-.8-8.7-2.5-3-1.5-6.1-3.2-7.6-4.2l.4-.8c0,0,.2,0,.3.1h0c.2,0,.4,0,.6,0,.5,0,1-.5,1.4-1.4l9.3-18.7c.5-1,.2-2-.5-2.4l.4-.8c0,0,.2,0,.3.1h0c1.8.6,4.9,1.9,8.4,3.7,9.1,4.6,11,11.6,7.5,18.7h0ZM518.2,832.8h-7.6v-12.9h-15.3c0,0,8.5-13.9,8.5-13.9h-4.3s-.3,0-.3,0l7.6-12.5h-3.9s5.9-9.5,5.9-9.5l5.9-9.5.2.3.2-.3,5.8,9.6,5.8,9.6h-3.8l7.7,12.3h-5.1s4,6.5,4,6.5l-5.1,7.5h-6s0,12.8,0,12.8h-.3,0ZM560.2,874.9c-.1,0-.2,0-.3,0h0c-.1,0-.2,0-.3,0-.6,0-.9.4-1.4,1.5l-9.1,19c-.3.6-.7,1.5-.8,1.9,0,.6.1,1,.7,1.1v.8c-.1,0-.4,0-.4,0h0s-9.1-1.3-9.1-1.3v-.8c.7,0,1-.2,1.1-.8,0-.5,0-.8-.2-2l-1.3-6.5-3.2,5.8c-.4.7-.8,1.4-.9,1.9,0,.6.1,1,.7,1.1v.8c-.1,0-.4,0-.4,0h0s-9.1-1.3-9.1-1.3v-.8c.6,0,1-.1,1.1-.9,0-.6-.1-1.8-.3-2.9l-3-19.6c-.2-1.6-.5-2.3-1.6-2.4v-.8c.1,0,.4,0,.4,0h0s10.8,1.6,10.8,1.6v.8c-.2,0-.3,0-.4,0h0c-.1,0-.2,0-.3,0-.6,0-1,.3-1.2,1,0,.2,0,.6,0,.9l1.2,14.8,5.6-10.7h.3s0,0,0,0l4.1.6,2.3,11.9,5.5-13.6c.2-.5.3-1,.4-1.2.1-.8-.4-1.1-1.2-1.2v-.8c.1,0,.4,0,.4,0h0s10.1,1.5,10.1,1.5v.8c-.1,0-.1,0-.1,0ZM598.5,897c-1,.2-2.1.3-3,.3-6.6,0-11.3-4.8-12.6-11.8-1.7-8.8,2.9-14.9,9.9-16.3.9-.2,1.9-.3,2.8-.3,6.1,0,11.4,3.9,12.9,11.6,1.6,8-1.9,14.9-9.9,16.5h0ZM708,793.3c1.1-1.4,3.1-2.9,3.8-3.7.4-.5.6-1,.7-1.2l.3.2c0,0,0-.1,0-.2l6.6,4.2-.5,1c0,0-.2,0-.3,0h0c-.3,0-.7-.1-1-.1-.3,0-.6,0-1,.2-1,.3-2.1,1-3.7,3-1.8,2.3-1.6,3.8-.8,4.4.2.2.4.2.7.3.9,0,2.4-.8,5.2-2.3,2.2-1.2,4.3-2,6.4-2,1.6,0,3.2.4,4.8,1.6,4,3.1,5,7.6.5,13.3-1.5,1.9-4.2,4-5,4.9-.4.5-.6,1-.7,1.3l-.3-.2s0,.1,0,.2l-7.7-4.3.5-1.3c0,0,.2,0,.3,0h0c.6,0,1.2.3,1.8.3h.4c1.6-.2,3.2-1,5.3-3.7,2-2.5,1.9-4.1.8-5-.2-.2-.4-.3-.7-.3-.9,0-2.5.7-5.8,2.5-2.3,1.2-4.2,1.9-5.9,1.9-1.7.1-3.2-.3-4.5-1.4-3.8-3-4.3-8.1,0-13.7h0ZM674.4,829c3.9-3.4,7.6-4.8,11.1-4.6,3.5,0,6.7,1.8,9.4,4.9,5.5,6.3,5.9,13.4-2.7,20.8-2.5,2.2-5.3,4.5-6.7,5.4h-.1c0,0-.1,0-.2,0l-.5-.6c.8-.7.8-1.4-.3-2.6l-13.7-15.8c-.4-.5-.9-.7-1.3-.8-.3,0-.5.1-.8.3h-.1c0,0-.1,0-.2,0l-.5-.6c1.3-1.4,3.7-3.7,6.7-6.3h0ZM637.3,853.4c2-1.1,4.2-1.6,6.3-1.5,4.6,0,9.1,2.6,12,8.1,3.8,7.2,2.4,14.8-4.9,18.6-2.3,1.2-4.5,1.7-6.6,1.5-4.8-.1-9-3.2-11.7-8.3-4.1-7.9-1.4-15.1,4.9-18.4h0ZM592.5,806.1h-.3l7.6-12.5h-3.9s5.9-9.5,5.9-9.5l5.9-9.5.2.3.2-.3,5.8,9.6,5.8,9.6h-3.8l7.7,12.3h-5.1s8.6,14.1,8.6,14.1h-15.7c0,0,0,12.8,0,12.8h-7.9v-12.9h-8.1s-3.8-5.6-3.8-5.6l5.1-8.3h-4.3s0,0,0,0ZM579,797.6h-6.1s12.5,17.9,12.5,17.9h-8.2s13.9,20.6,13.9,20.6h-25.5c0-.1,0,21,0,21h-12.6v-21.2h-24.9c0-.1,13.7-20.2,13.7-20.2h-7.1s-.3,0-.3,0l12.4-18.2h-6.3s9.6-13.9,9.6-13.9l9.6-13.8.2.2.2-.2,9.5,13.9,9.5,13.9h0Z"/>
  <path d="M482.8,874.4c1,.5,2.1.8,3.1.8,2.4-.1,4.7-1.8,6.3-5.2,2.4-4.8.9-8.4-2.4-10.1-.5-.2-1.1-.5-1.7-.8l-7.1,14.3c.4.3,1.2.7,1.8,1h0Z"/>
  <path d="M590.1,884.2c.9,4.7,3.2,7.3,6,7.5.3,0,.6,0,1,0,3.5-.7,5.1-4.2,4-9.5-1-5.1-3.5-7.2-6-7.3-.3,0-.6,0-.9,0-3.1.6-5.1,3.8-4,9.4h0Z"/>
  <path d="M414.1,806.6c1.5,1.9,2.9,2.9,4.3,3,.8,0,1.6-.4,2.4-1,2.1-1.7,2-4-.6-7.3-.4-.5-.9-1-1.2-1.4l-6.1,4.9c.4.6.9,1.3,1.3,1.8Z"/>
  <path d="M677.8,833.8l10.4,12c.4-.3,1-.7,1.4-1.1,3.1-2.7,3.2-6.6-.3-10.7-1.9-2.2-4-3.2-5.9-3.3-1.5,0-2.8.6-4,1.7-.5.4-1.1,1-1.6,1.5h0Z"/>
  <path d="M639,868.6c1.9,3.6,4.2,5.5,6.6,5.6.7,0,1.5-.2,2.2-.6,3.2-1.7,3.7-5.4,1.2-10.3-2-3.9-4.4-5.4-6.6-5.5-.7,0-1.5.2-2.1.6-2.8,1.4-3.8,5.1-1.2,10.1h0Z"/>
  <path d="M393.8,551.3c-.1-.3-.2-.5-.4-.8l-.4.8h.7Z"/>
  <path d="M730.2,551.3l-.3-.8c-.1.3-.2.5-.4.8h.7,0Z"/>
  <path d="M270.5,703.6s134.6,34.8,291,34.8,291-34.8,291-34.8v-135.5H270.5v135.5ZM771.5,688.7c4.1-29.8,8.2-59.1,12.4-87.9.1-.9.3-2.2.3-3.1,0-1.6-.8-3.1-2.5-3v-2.8c10,0,20,0,30-.1h.3v2.7c-1.5,0-2.6,1.2-2.6,2.8s.1,2,.3,3.2c4.1,27.5,8.2,54.5,12.3,80.9.4,2.6,1.5,3.5,3,3.5.2,0,.5,0,.8,0h0c.1,0,.2,0,.3,0v2.6c-7.9,1.3-15.8,2.6-23.7,3.8h0c-.1,0-.2,0-.3,0v-2.7c2.3-.3,3.3-1.9,3.3-3.5s-.5-7-.9-9.8c-1.7,1-4.8,2.1-7.5,2.4-1.1.1-2.3.2-3.4.2-1.9,0-3.7-.2-4.9-.6-.4,2.9-1.2,9.5-1.2,10.4,0,1.5.7,2.5,2.3,2.6.2,0,.4,0,.6,0h0c.1,0,.2,0,.3,0v2.8c-7.5,1.1-15,2.2-22.5,3.1h0c-.1,0-.2,0-.3,0v-2.8c1.9-.2,3.3-2.1,3.7-4.6h0ZM761.4,591.9h.3v2.8c-3,0-4.5,2-4.5,5.8,0,29.4.2,58.8.3,88.2,0,3.3,1.4,5.3,3.8,5.4.1,0,.3,0,.4,0h0c.1,0,.2,0,.3,0v2.9c-8.6,1.1-17.2,2.1-25.8,3.1h0c-.1,0-.2,0-.3,0v-2.9c2.5-.3,4.5-2.7,4.5-6.5,0-30-.2-59.9-.3-89.8,0-3.8-1.7-5.8-4.5-5.8v-2.9c8.6,0,17.3,0,25.9,0h0ZM691.1,592.1h.3c0,2.4.7,4.8,1.7,7.4,4.7,12.8,9.5,25.4,14.2,37.9h0c0-12.1,0-24.1-.1-36.2,0-3.8-1.9-6.2-4.7-6.2v-3c8.3,0,16.5,0,24.8,0h.3v3c-2.5,0-4.7,2.4-4.6,6.1,0,30.4.2,60.8.3,91.2,0,3.9,1.2,6,3.6,5.7v3c-6.4.7-12.8,1.3-19.2,1.9h0c-.1,0-.2,0-.3,0,0-9.5,0-19,0-28.5-5.5-13.5-10.9-27.2-16.4-41,0,20.6.1,41.2.2,61.7,0,3.4,1.6,5.8,4,5.9h.6v3c-8.2.7-16.5,1.3-24.7,1.9h0c-.1,0-.2,0-.3,0v-3.1c2.8-.2,4.5-2.8,4.5-6.7,0-31.5-.2-63.1-.3-94.6,0-4.1-2.1-6.3-4.5-6.3v-3.1c6.9,0,13.8,0,20.7,0h0ZM632.3,590.9h.3c17.3,0,28.8,9.7,28.9,34.3,0,16.8-3.9,25.3-10.6,29.7,1.8,12.6,5.3,29.9,8.8,43.6.7,2.4,2.6,4.6,4.8,4.8h.4v3.1c-7.1.5-14.2.9-21.3,1.3h0c-.1,0-.2,0-.3,0-2.6-10.6-6-33.6-6.8-46.8-2.2,0-4.4.1-6.5.2,0,12.6,0,25.1,0,37.7,0,3.7,1.7,6.4,4.5,6.3v3.2c-8.6.4-17.2.8-25.8,1h-.3v-3.2c2.5,0,4.5-2.5,4.5-6.7,0-32.5,0-65-.2-97.5,0-4-1.4-6.3-4.5-6.3v-3.2c4.2-.5,15.5-1.3,24.1-1.3h0ZM574.8,588.8h.3c17.1,0,25.9,20.3,26,59.3,0,45.3-8.2,64.8-26.2,65h-.3c-18,.2-26.3-20-26.2-64.5,0-39.3,8.7-59.7,26.5-59.7h0ZM495.2,705.5c2.5,0,4.5-2.3,4.5-6.3,0-32.5.1-64.9.2-97.4,0-4.2-2-6.3-4.5-6.3v-3.2h.3c11.8,0,23.5,0,35.3,0,2.9,0,5.9-.7,6.8-1.3v.2c.1,0,.2-.1.3-.2,1.2,7.6,2.5,15.2,3.7,22.9-1,.3-1.9.7-2.9,1,0,0,0,0,0,0,0,0-.2,0-.3,0-1.1-3.7-3-5.7-6.4-5.7-5.2,0-10.3,0-15.4,0,0,9.8,0,19.7,0,29.5,4.8,0,9.7,0,14.5.1,2.9,0,5.2-2.7,5.2-5.7h.3c.8,0,1.7,0,2.5,0,0,9.4,0,18.7,0,28.1h-.3c-.8,0-1.7,0-2.5,0,0-3.4-1.8-5.6-5.2-5.6-4.8,0-9.6,0-14.4-.2,0,14.8,0,29.6,0,44.4,0,4.3,1.9,6.6,4.8,6.7v3.2h-.3c-8.7-.2-17.4-.5-26.1-.8v-3.2h0ZM461.2,703.8c2.5.2,4.5-2,4.5-6.2,0-32,.2-64,.2-96,0-4.1-1.6-6.3-4.5-6.3v-3.1h.3c8.6,0,17.3,0,25.9,0v3.2c-3,0-4.5,2.1-4.5,6.3,0,32.3-.1,64.5-.2,96.8,0,4,1.6,6.5,4.5,6.7v3.2c-.1,0-.2,0-.3,0h0c-8.7-.4-17.3-.8-26-1.4v-3.1h0ZM407.3,699.7c2.5.2,4.5-1.8,4.5-5.8.1-30.9.2-61.7.3-92.6,0-4-1.6-6.2-4.5-6.2v-3h.3c8.7,0,17.4,0,26,0v3.1c-2.6,0-4.8,2.9-4.8,6.2,0,28.8-.2,57.7-.3,86.5,5.6.4,11.1.8,16.7,1.1,3.5.1,5.4-1.9,6.8-5.6,0,0,.2,0,.3.1,0,0,0,0,0-.1.9.4,1.8.9,2.7,1.3-1.4,7.6-2.7,15.1-4,22.6,0,0-.2-.1-.3-.2,0,0,0,.1,0,.2-1.1-.9-3-1.3-7.5-1.7-12.1-.9-24.1-1.9-36.2-3v-3h0ZM343,692.4c.1,0,.2,0,.3,0h0c.1,0,.3,0,.4,0,1.5-.2,2.6-1.5,3-3.7,4.3-28.7,8.5-57.9,12.8-87.6.1-.9.3-2.3.3-3.2,0-1.7-.8-3.2-2.5-3.2v-2.9h.3c10,0,20,0,30,0v3c-1.5,0-2.6,1.2-2.6,3.1s.1,2.2.3,3.6c4,30.4,8,61.2,12,92.3.5,3.8,2,4.9,4.1,5.1v3c-.1,0-.2,0-.3,0h0c-8-.8-15.9-1.6-23.8-2.5v-2.9c.1,0,.2,0,.3,0h0c.2,0,.4,0,.5,0,1.7-.1,2.4-1.4,2.4-2.9s-.5-7.9-.9-10.9c-1.3.5-3.4.9-5.6.9-.8,0-1.5,0-2.3,0-2.7-.3-6.2-1.3-8-2.4-.4,2.9-1.2,9.6-1.2,10.5,0,1.8,1,3.3,3.3,3.6v2.9c-.1,0-.2,0-.3,0h0c-7.5-.9-15-1.9-22.5-2.9v-2.8h0ZM321.2,589.8h.3c3.1,0,7.7,1,9.6,1,1.2,0,2.6-.3,3.4-.6,0,0,0,0,0,0,.1,0,.2,0,.3,0,1,6.5,2,13.1,3,19.7-1,.3-2,.5-3,.8,0,0,0,0,0,0-.1,0-.2,0-.3,0-1.5-4.1-4.6-6.2-10.1-6.4-8,0-14.7,10.9-14.8,36,0,28.2,5.1,38.2,15.4,39.6.7,0,1.4.1,2,.2,4.1,0,6.1-1.8,7.6-6.1h.3c0,.1,0,0,0,0,1,.4,2,.8,3,1.2-1.1,6.7-2.2,13.4-3.3,20.1,0,0-.2,0-.3-.1,0,0,0,0,0,.1-.8-.4-1.9-.7-3.1-.9-1.1-.2-5.9.2-10-.5-19.6-3.2-29-23.8-29-55,0-31.2,11.2-49,29.2-49.1h0Z"/>
  <path d="M790.5,661.7c1,.5,2.9.9,4.7,1,.5,0,1,0,1.5,0,2.3-.2,4.6-1.2,6-2.2-2-16.8-4-33.8-6-51-.2,0-.4,0-.6,0-1.9,17.3-3.8,34.7-5.6,52.3h0Z"/>
  <path d="M372.4,667.5c.2,0,.5,0,.7,0,2,0,3.8-.5,5-1.2-1.9-18.6-3.8-37.2-5.7-55.5-.2,0-.4,0-.6,0-2,18.3-4,36.5-5.9,54.5,1.4,1,4.2,2,6.6,2.2h0Z"/>
  <path d="M629.9,645c.7,0,1.5.1,2.2.1s.5,0,.8,0c5.9-.1,11.1-4.6,11.1-19.2,0-14.4-5.6-18.2-11-18.2-1.1,0-2.6,0-3.1.2,0,12.4,0,24.8,0,37.2h0Z"/>
  <path d="M565.9,648.5c0,35.3,3,47.3,9,47.5,5.7-.2,8.5-11.5,8.5-47.6,0-30.3-2.6-42.6-8.8-42.8-5.8.2-8.8,12.7-8.8,42.9Z"/>
  <path d="M737.5,483.8c-3.1-24.4-11.2-38.2-13.6-41,1.9.4,13,7.5,13,7.5,0,0-5.9-33.5-14.1-47.5-9.9-16.9-22.4-30.7-22.4-30.7,76.2-72-5.3-149.2-56.4-81.4-15.2,19.4-43.7-24.4-82.3-.4h0c-38.6-24-67.1,19.9-82.3.4-51.1-67.8-132.6,9.4-56.4,81.4,0,0-12.5,13.8-22.4,30.7-8.2,14-14.1,47.5-14.1,47.5,0,0,11.1-7.1,13-7.5-2.4,2.7-10.5,16.6-13.6,41-1.4,10.8,0,34.6,4.5,43.2,2.3-5.3,4.2-11,8.2-14.7-2.2,10.6,2.4,26.1,8.8,39h12.1c0,0,0-.2,0-.3v.3h284.5v-.3c0,.1,0,.2,0,.3h12.1c6.4-12.8,11-28.3,8.8-39,4,3.6,5.9,9.3,8.2,14.7,4.5-8.6,5.8-32.5,4.5-43.2h0ZM432.9,298.1c-.7,0-1.5,0-2.2.2h0c-1.6.2-3.2.3-4.8.2-4.9-.1-9.6-1.4-14-3.6,0,0,12.4-11.2,25.6-11.3,1.9,0,3.8.1,5.7.6,6.4,1.5,19.9,9.6,24.6,31l-.4-.2c0,0,0,.2,0,.2l-19.8-12.8c-4.4-2.8-9.5-4.3-14.7-4.2h0ZM462.2,354.9c1.8-5.7,5.5-7.8,10.7-7.8,3.1,0,6.6.6,10.6,1.7,10.4,2.8,18.7,22.4,18.7,22.4-3.6.8-8,1.5-13.7,1.5-3.4,0-7.2-.2-11.6-.8-11.4-1.5-17.6-7.9-14.8-16.9h0ZM585.7,541.7s-1.2,2.2-3.2,2.1c-.4,0-.9,0-1.5-.3-7.6-3.4-18.1-7.6-19.7-8.2,0,0,0,0,0,0-1.4.6-12,4.8-19.7,8.3-.5.2-1,.3-1.5.3-2,0-3.2-2.1-3.2-2.1v-10.8s14.7-5.7,17.8-6.8,6.4-1.5,6.4-1.5h0s0,0,0,0c0,0,0,0,.2,0,0,0,.2,0,.2,0h0s0,0,0,0c0,0,0,0,.2,0,.8,0,3.5.5,6.2,1.5,3.1,1.1,17.8,6.8,17.8,6.8v10.8h0ZM625.6,508.2l-30.2,17.6s0,0-.2,0h0s-24.5-5.5-24.5-12.7,27.6-19.9,27.6-19.9l9.6-30.6s-3-8.5-11.7-8.6c-8.7.2-14.3,14-34.4,14.1h-1c-.2,0-.4,0-.7,0-.2,0-.4,0-.6,0-18.9-.8-24.4-13.9-32.9-14.1-8.7.1-11.7,8.6-11.7,8.6l9.6,30.6s27.6,12.7,27.6,19.9-24.5,12.8-24.5,12.8h0c-.1,0-.2,0-.2,0l-30.2-17.6-13.9-30.6s11.7-32,21.9-60.7c8-22.6,14.1-42.2,16-45.4,5.6-9.6,20.2-15.2,20.2-15.2h0c.1,0,.2,0,.2,0l19.8,17.7h0s19.8-17.7,19.8-17.7c0,0,0,0,.2,0h0c0,0,14.6,5.5,20.2,15.1,1.9,3.3,8,22.9,16,45.4,10.2,28.6,21.9,60.7,21.9,60.7l-13.9,30.6h0ZM645.6,371.8c-4.3.6-8.2.8-11.6.8-5.7,0-10.1-.6-13.7-1.5,0,0,8.3-19.6,18.7-22.4,4-1.1,7.5-1.7,10.6-1.7,5.2,0,9,2,10.7,7.8,2.8,9-3.4,15.5-14.8,16.9h0ZM695.1,298.3c-.7,0-1.5-.1-2.2-.2-5.2-.1-10.3,1.3-14.7,4.2l-19.8,12.8c0,0,0-.2,0-.2l-.4.2c4.7-21.3,18.2-29.4,24.6-31,1.9-.5,3.8-.6,5.7-.6,13.2.1,25.6,11.3,25.6,11.3-4.3,2.3-9.1,3.5-14,3.6-1.6,0-3.2,0-4.8-.2h0Z"/>
</svg>