<?xml version="1.0" encoding="UTF-8"?>
<svg id="ICON" xmlns="http://www.w3.org/2000/svg" version="1.1" viewBox="0 0 1080 1080">
  <!-- Generator: Adobe Illustrator 30.1.0, SVG Export Plug-In . SVG Version: 2.1.1 Build 136)  -->
  <g id="_1_COLOR_DARK">
    <path d="M822.2,260c-.7-3.5-5.5-2.4-5.7,1.2-1.5,26.5,18.7,72.2,16.6,126.8-3.5,92.5-83.3,105.6-119,106.8h0c-5.6,0-11.2,0-16.9-.3h-.7c-1.7-5.2-6.4-8.9-11.8-8.9h-1.9c-23.3,0-46.4-5.5-67.5-16.1-15.9-8-33.6-12.4-52.1-12.4h-1.1c-18.6,0-36.2,4.4-52.1,12.4-21.1,10.6-44.2,16.1-67.5,16.1h-1.9c-5.3,0-9.9,3.6-11.7,8.6-15.6,1.1-130,5-134.2-106.1-2.1-54.6,18.1-100.3,16.6-126.8-.2-3.6-5-4.7-5.7-1.2-9.7,45.6-72.9,97.8-33.1,208.9,23.3,64.9,92.3,88.7,130.9,97l-67.1,32.7,2.8,2.7c.9.8,16.4,15.3,55.1,15.3s29.1-1.7,48-6.2l14.7,42.3,21.2,30.2c7,10,11.8,21.5,14,33.7l.7,3.8c-9,5.9-15,16-15.3,27.4l-.4,15.7c-.2,9.8,3.4,19.1,10.3,26.2,3.9,4,8.5,6.9,13.5,8.8v4.1c-.3,5.7,2.4,11.1,7,14l11.8,7.5c13.1,8.2,27.9,12.6,43.1,12.6s30-4.3,43.1-12.6l11.8-7.5c4.6-2.9,7.3-8.2,7.1-14v-4.1c4.9-1.8,9.5-4.8,13.4-8.8,6.9-7,10.5-16.3,10.3-26.2l-.4-15.7c-.3-11.4-6.3-21.5-15.3-27.4l.7-3.8c2.2-12.2,7-23.8,14-33.7l21.2-30.2,14.7-42.3c18.9,4.5,34.8,6.2,48,6.2,38.7,0,54.2-14.5,55.1-15.3l2.8-2.7-66.3-32.3c38.2-8,109-31.6,132.7-97.4,39.8-111-23.5-163.2-33.1-208.9h0ZM364.7,536.9c-20.2-6.5-34-14.1-46.7-25.1-15.1-13.1-26.7-24.4-32.9-41.8-14-39-14-69.4-8-95-.4,7.2-.5,14.7-.2,22.4.9,22.9,6,43.2,15.2,60.4,8,15,19.2,27.6,33.2,37.5,24.9,17.6,52.4,23.2,72.6,26.3,4.9.8,12.3,2.5,16.1,2.6v26.9c-23.6-6.3-30.2-8.2-49.2-14.3ZM352.4,600.1l64.3-14.5c1.2,4.2,5.3,16.2,13.4,19.5-45.4,9.9-69.1.1-77.8-5h0ZM488.8,675.1l-20.1-28.6-12.9-38.7s-11.1-17.6-16.6-21.8c-1.5-1.1-5.3-5.8-7.6-13.7h0c6.7-1.1,14.5.5,20.1,2.2,5.3,1.5,10.5,3.8,15.3,6.5,1.4,14.8,6.5,35,22.8,41.9,11.8,5,22,4.9,29.7,3.2l-23.5,26.4,41.1-17.5-32.5,77.8c-2.7-13.5-8.2-26.5-16-37.5h0ZM509.9,608.2c2.1,0,4.1-.5,5.9-1.5,6.5,3.6,12,4.6,13.8,4.8l-.2.2c-.1,0-.4.3-.9.6-5.2,2.1-21.9,7.7-33.1-1.4-13.8-11.2-3.5-31.2-3.5-31.2,0,0,1.4,4.1,6.1,10.5-.5,1.4-.8,3-.8,4.6,0,7.4,5.7,13.3,12.7,13.3h0ZM610.1,805l-11.8,7.5c-10.9,6.9-23.3,10.5-35.8,10.5s-24.9-3.6-35.8-10.5l-11.8-7.5c-.3-.2-.8-.9-.8-2v-2.4c1.1,0,2.2,0,3.2-.2l1.8-.2c8.6,4.9,24.3,11.9,43.4,11.9s34.7-7.1,43.1-12l2.1.2c1,.1,2.1.2,3.2.2v2.4c.1,1.1-.4,1.8-.7,2ZM534.2,798.3l28.2-3.3,28,3.3c-7.5,3-17.2,5.6-28,5.6s-20.5-2.6-28.2-5.6ZM689,572.3c-2.3,7.8-6.1,12.6-7.6,13.7-5.4,4.2-16.6,21.8-16.6,21.8l-8.6,38.7-20.1,28.6c-7.8,11.1-13.3,24.2-16,37.8l-32.8-77.8,40.7,17.3-23.4-26.3c7.7,1.6,17.7,1.6,29.4-3.3,16.2-6.8,21.3-26.5,22.8-41.3,9.5-5.9,20.7-9.7,31.8-9.6.2,0,.4,0,.6,0v.4c0,0,0,0,0,0ZM626.1,589.8c4.5-6.1,5.8-10,5.8-10,0,0,10.3,20-3.5,31.2-11.2,9.1-27.8,3.5-33.1,1.4-.5-.3-.8-.5-.9-.6l-.2-.2c2-.3,8.5-1.4,15.9-6.1,1.2.4,2.4.6,3.7.6,7,0,12.7-6,12.7-13.3s-.1-2-.3-3h0ZM691.1,565c-13.8-3.9-30.3-3.1-44.9-.6-6.8.7-15.7,2.1-23.2,5.1-15.4,6.1-14.8,21.1-29,27.1-14.3,6-23.3,3.4-23.3,3.4l3.6,9.9,30.2,106.2-17.7,3c9.2,3.2,18.7,6.3,23.8,7.1,17.8,2.9,26.2,8.1,26.5,22l.4,15.7c.4,15.4-13,27.6-28.3,25.8l-23.7-2.8c-15.1-1.8-30.4-1.8-45.5,0l-23.7,2.8c-15.3,1.8-28.7-10.3-28.3-25.8l.4-15.7c.3-13.9,10-18.9,26.5-22,5-.9,14.5-4,23.7-7.1l-17.7-2.9,32.3-114.8.5-1.3s-9.1,2.6-23.3-3.4c-14.3-6-13.6-21-29-27.1-5.8-2.3-12.4-3.7-18.2-4.5-3.5-.6-7-1.1-10.5-1.5-10.8-1.4-29-2.2-42.2,2.2l.3-40.1c4.2-4,11.8-8.9,24.7-10.6,12.6-1.6,36.4,9.1,36.4,9.1,0,0-18.8-21.7-36.3-25.5,21.1-1.7,41.9-7.5,61-17,14.5-7.3,30-11,46-11h1.1c16,0,31.5,3.7,46,11,19.8,10,41.6,15.8,63.5,17.2-17.3,4.2-35.5,25.3-35.5,25.3,0,0,23.8-10.7,36.4-9.1,12.2,1.5,19.6,6,23.9,9.8v14.1h0l-4.8,21-1.4,5h0ZM772.4,600.1c-8.6,5.1-32.3,14.9-77.7,5,8.1-3.3,12.2-15.2,13.4-19.5l64.2,14.5ZM842.3,470.1c-6.2,17.4-17.9,28.7-32.9,41.8-12.7,11-26.5,18.6-46.7,25.1-19,6.1-25.6,8-49.3,14.3l.2-26.9c3.8,0,11.2-1.9,16.1-2.6,20.2-3.1,47.7-8.7,72.6-26.3,14-9.9,25.2-22.5,33.2-37.5,9.2-17.2,14.3-37.5,15.2-60.4.3-7.7.2-15.1-.2-22.4,6,25.6,5.9,56-8,95h0Z"/>
    <path d="M517.8,741.6c-31.1-15.4-7.2,36.4-7.2,36.4l5.8-.3c-1.2-1.9-1.9-4.2-1.9-6.7,0-3.5,1.4-6.7,3.7-9-.4,7.5,3.3,14,8.3,14.7,4.9.6,9.2-4.6,10.1-11.7.9,1.8,1.5,3.8,1.5,6s-.5,3.9-1.3,5.6l18.8-1s-6.7-18.5-37.8-33.9h0Z"/>
    <path d="M591.9,771c0-2.2.5-4.2,1.5-6,.9,7.1,5.3,12.3,10.1,11.7,5-.6,8.7-7.1,8.3-14.7,2.3,2.2,3.7,5.4,3.7,9s-.7,4.8-1.9,6.7l5.8.3s23.9-51.8-7.2-36.4c-31.1,15.4-37.8,33.9-37.8,33.9l18.8,1c-.8-1.7-1.3-3.6-1.3-5.6h0Z"/>
    <polygon points="548.6 585.6 549.7 570.2 480 537.8 548.6 585.6"/>
    <polygon points="575.5 585.6 644.2 537.8 574.4 570.2 575.5 585.6"/>
  </g>
</svg>