<?xml version="1.0" encoding="UTF-8"?>
<svg id="PRIMARY" xmlns="http://www.w3.org/2000/svg" viewBox="0 0 1080 1080">
  <defs>
    <style>
      .cls-1 {
        fill: #00b1ff;
      }

      .cls-2 {
        fill: #011e41;
      }

      .cls-3 {
        fill: #fff;
      }
    </style>
  </defs>
  <path class="cls-3" d="m833.85,262.99c-7.03-13.7-13.1-25.53-15.39-36.31-1.3-6.16-6.54-10.47-12.73-10.47-7.32,0-13.38,5.83-13.79,13.27-.67,12.2,2.59,27.04,6.36,44.23.64,2.9,1.29,5.89,1.95,8.97-42.48-12.64-137.99-36.88-245.34-36.88s-197.85,23.04-241.75,35.91c.59-2.73,1.17-5.4,1.74-7.99,3.77-17.18,7.03-32.03,6.36-44.23-.41-7.44-6.46-13.27-13.79-13.27-6.19,0-11.43,4.3-12.73,10.47-2.28,10.77-8.36,22.61-15.39,36.31-19.47,37.93-46.14,89.89-16.45,172.68,4.15,11.57,9.66,21.88,16.13,31.08,3.74,59.19,16.82,117.22,39.04,173.03,21.44,53.85,51.57,104.61,89.55,150.87,64.65,78.74,129.75,117.28,132.5,118.89l14.77,8.63,14.77-8.63c2.74-1.6,67.83-40.12,132.5-118.89,37.98-46.26,68.11-97.02,89.55-150.87,21.59-54.23,34.55-110.56,38.7-168,8.53-10.98,15.17-23.03,19.86-36.11,29.68-82.79,3.02-134.74-16.45-172.68Zm-16.64,208.15c-4.16,56.95-17.11,111.85-37.77,163.74-20.94,52.58-50.37,102.16-87.48,147.36-63.2,76.98-126.29,114.3-128.94,115.85l-8.09,4.73-8.09-4.73c-2.65-1.55-65.74-38.87-128.94-115.85-37.11-45.2-66.54-94.78-87.48-147.36-21.19-53.23-34.28-109.63-38.08-168.15-7.98-9.95-14.69-21.41-19.43-34.64-38.74-108.04,22.82-158.8,32.23-203.21.72-3.41,5.38-2.31,5.57,1.18.9,16.5-6.82,40.72-11.95,69.97,28.71-9.29,135.48-40.99,256.17-40.99s236.75,34.44,259.74,42.05c-5.13-29.72-13.05-54.32-12.14-71.02.19-3.5,4.85-4.6,5.57-1.18,9.41,44.41,70.97,95.17,32.23,203.21-5.46,15.23-13.52,28.12-23.12,39.05Z"/>
  <path class="cls-3" d="m818.83,348.48s0-.09,0-.13v.13Z"/>
  <path class="cls-2" d="m698.86,322.86c-6.16-1.34-9.24-1.98-15.42-3.17v20.67c6.18,1.2,9.27,1.83,15.42,3.17,0-8.27,0-12.4,0-20.67Z"/>
  <path class="cls-2" d="m640.92,312.86c-6.79-.87-10.2-1.26-17.01-1.96v42.15c6.81.7,10.21,1.09,17.01,1.96,0-14.05,0-28.1,0-42.15Z"/>
  <path class="cls-1" d="m769.88,506.74c-21.31,10.77-42.83,16.83-58.62,20.15l51.02,24.86c3.27-14.79,5.81-29.81,7.61-45.01Z"/>
  <path class="cls-1" d="m773.04,436.95l-7.53-3.53c-3.43-1.61-85.5-39.42-211.49-39.42s-208.06,37.81-211.49,39.42l-5.68,2.66c34.56,22.88,79.06,21.24,88.29,20.62,1.78-4.91,6.2-8.39,11.39-8.39h1.88c22.7,0,45.13-5.35,65.71-15.68,15.47-7.76,32.67-12.08,50.74-12.08h1.05c18.06,0,35.27,4.32,50.73,12.08,20.58,10.33,43.01,15.68,65.71,15.68h1.88c5.31,0,9.83,3.64,11.52,8.73l.61-.04h.1c5.48.25,10.97.34,16.43.25,0,.01,0,.03,0,.04,17.49-.59,45.87-4.11,70.17-18.95v-1.39Z"/>
  <path class="cls-1" d="m757.95,569.54c-8.59,3.29-21.14,6.28-38.47,6.28-12.83,0-28.29-1.64-46.68-5.99l-14.3,41.21-20.65,29.36c-6.81,9.68-11.47,20.91-13.64,32.82l-.67,3.7c8.72,5.75,14.62,15.54,14.88,26.63l.36,15.22c.23,9.58-3.33,18.62-10.02,25.46-3.77,3.86-8.24,6.74-13.14,8.52l.13,4.01c.18,5.56-2.48,10.77-6.93,13.58l-11.51,7.27c-12.71,8.03-27.19,12.27-41.92,12.27s-29.21-4.23-41.92-12.27l-11.51-7.27c-4.45-2.81-7.11-8.03-6.93-13.58l.13-4.01c-4.89-1.78-9.37-4.67-13.14-8.52-6.69-6.85-10.24-15.89-10.02-25.46l.36-15.22c.26-11.09,6.16-20.88,14.88-26.63l-.67-3.7c-2.17-11.92-6.84-23.14-13.64-32.82l-20.65-29.36-14.3-41.21c-18.39,4.35-33.84,5.99-46.68,5.99-19.51,0-32.96-3.78-41.52-7.53,4.62,17.68,10.31,35.02,17.06,51.98,17.46,43.86,42.01,85.22,72.97,122.92,52.72,64.21,105.34,95.34,107.55,96.63l6.68,3.9,6.68-3.9c2.21-1.29,54.83-32.42,107.55-96.63,30.95-37.7,55.51-79.06,72.97-122.92,6.59-16.56,12.17-33.49,16.73-50.73Z"/>
  <path class="cls-1" d="m400.26,526.52c-17.02-3.7-40.13-10.49-62.43-22.68,1.86,16.61,4.6,32.99,8.21,49.11l54.22-26.42Z"/>
  <path class="cls-3" d="m350.94,357.93c6.99,12.64,10.49,19.01,17.52,31.84,6.12-1.76,9.19-2.6,15.34-4.21v-70.24c-6.11,1.6-9.16,2.43-15.24,4.18v37.13c-7.07-12.82-10.59-19.19-17.62-31.82-6.05,1.91-9.06,2.91-15.07,4.96v70.24c6.01-2.06,9.02-3.05,15.07-4.96v-37.13Z"/>
  <path class="cls-3" d="m437.77,359.74c-10.7,1.88-16.04,2.93-26.67,5.25v-14.05c7-1.52,10.5-2.24,17.53-3.57,1.12-5.83,1.69-8.75,2.81-14.58-8.16,1.51-12.22,2.34-20.34,4.1v-14.05c9.52-2.07,14.29-3.02,23.86-4.75,1.13-5.82,1.69-8.73,2.82-14.55-14.12,2.64-28.04,5.55-42.04,8.78,0,23.41,0,46.83,0,70.24,12.95-3.18,26.09-5.95,39.22-8.28,1.13-5.82,1.69-8.73,2.82-14.55Z"/>
  <path class="cls-3" d="m472.67,368.58c3-16.47,6-32.94,9.01-49.41,3.01,15.81,6.01,31.63,9.02,47.45,7.42-.71,11.14-1.01,18.57-1.51,3.79-23.64,7.58-47.28,11.38-70.92-6.26.32-9.39.51-15.64.98-1.93,14.6-3.86,29.2-5.79,43.8-2.47-14.23-4.94-28.46-7.41-42.7-8.07.76-12.1,1.2-20.15,2.19-2.5,14.74-4.99,29.48-7.48,44.22-1.89-14.15-3.77-28.31-5.66-42.46-6.22.9-9.32,1.38-15.53,2.42,3.76,22.82,7.53,45.63,11.29,68.45,7.34-1.11,11.02-1.61,18.39-2.51Z"/>
  <path class="cls-3" d="m569.07,363.71c6.27.13,9.4.23,15.66.51,0-9.35,0-14.03,0-23.38,6.14-15.27,12.3-30.54,18.49-45.79-6.38-.46-9.57-.65-15.95-.95-4.15,11.12-6.22,16.7-10.37,27.88-4.11-11.45-6.16-17.16-10.27-28.55-6.43-.11-9.64-.13-16.07-.09,6.2,15.65,12.37,31.32,18.52,47,0,9.35,0,14.03,0,23.38Z"/>
  <path class="cls-3" d="m646.27,369.76c4.08-2.98,6.12-4.45,10.2-7.36,0-17.56,0-35.12,0-52.68-4.07-4.11-6.11-6.15-10.2-10.2-11.07-1.51-16.62-2.15-27.74-3.2-4.1,3.11-6.15,4.67-10.25,7.84,0,17.56,0,35.12,0,52.68,4.1,3.86,6.15,5.8,10.25,9.72,11.11,1.05,16.66,1.69,27.74,3.2Zm-22.36-58.86c6.81.7,10.21,1.09,17.01,1.96,0,14.05,0,28.1,0,42.15-6.79-.87-10.2-1.26-17.01-1.96v-42.15Z"/>
  <path class="cls-3" d="m683.43,354.41c3.45.67,5.18,1.01,8.62,1.73,3.28,9.27,4.92,13.91,8.2,23.23,6.44,1.42,9.65,2.16,16.05,3.74-3.66-10.53-5.49-15.79-9.17-26.27,2.83-1.79,4.25-2.68,7.08-4.45,0-12.52,0-18.79,0-31.31-4.02-4.47-6.04-6.68-10.07-11.09-14.42-3.26-21.66-4.69-36.19-7.16,0,23.41,0,46.83,0,70.24,6.2,1.05,9.3,1.61,15.48,2.81,0-8.59,0-12.88,0-21.47Zm0-34.72c6.18,1.2,9.27,1.83,15.42,3.17,0,8.27,0,12.4,0,20.67-6.16-1.34-9.24-1.98-15.42-3.17v-20.67Z"/>
  <path class="cls-3" d="m740.99,362.27c2.37.68,3.55,1.02,5.92,1.72,4.42,12.27,6.62,18.42,11.02,30.76,6.44,2.03,9.65,3.08,16.05,5.27-4.9-13.54-9.83-27.07-14.77-40.59,5.53-12.05,8.29-18.05,13.8-29.98-6.44-2.19-9.67-3.25-16.16-5.28-4.4,10.14-6.6,15.23-11.02,25.45-1.93-.57-2.9-.85-4.84-1.4,0-11.52,0-17.28,0-28.8-6.08-1.74-9.13-2.58-15.25-4.17,0,23.41,0,46.83,0,70.24,6.11,1.6,9.16,2.43,15.25,4.17,0-10.96,0-16.44,0-27.39Z"/>
  <path class="cls-3" d="m428.09,532.66l.03.11c2.21,7.64,5.94,12.24,7.37,13.34,5.29,4.05,16.14,21.21,16.14,21.21l12.53,37.63,19.58,27.84c7.57,10.76,12.91,23.36,15.54,36.52l31.57-75.66-40,17.06,22.85-25.66c-7.51,1.63-17.41,1.7-28.92-3.14-15.93-6.71-20.83-26.29-22.21-40.73-4.74-2.64-9.75-4.81-14.93-6.3-5.46-1.63-13.03-3.16-19.54-2.2Z"/>
  <path class="cls-3" d="m646.6,604.94l8.4-37.63s10.85-17.16,16.14-21.21c1.43-1.1,5.17-5.7,7.37-13.34l.1-.34c-.2-.01-.41-.03-.61-.04-10.8-.08-21.7,3.56-30.94,9.31-1.45,14.39-6.42,33.57-22.16,40.2-11.35,4.78-21.13,4.77-28.6,3.21l22.79,25.59-39.55-16.87,31.9,75.69c2.6-13.24,7.97-25.92,15.58-36.74l19.58-27.84Z"/>
  <path class="cls-3" d="m597.31,754.39c-8.21,4.77-23.26,11.65-41.93,11.65s-33.89-6.85-42.26-11.61l-1.71.2c-1.02.12-2.05.18-3.08.22l-.08,2.36c-.03,1.05.45,1.76.77,1.95l11.51,7.27c10.58,6.68,22.64,10.22,34.85,10.22s24.27-3.53,34.85-10.22l11.51-7.27c.31-.2.8-.91.77-1.95l-.08-2.36c-1.03-.03-2.06-.09-3.08-.22l-2.04-.24Z"/>
  <path class="cls-3" d="m426.72,564.69c-7.88-3.21-11.89-14.86-13.08-18.99l-62.6,14.12c8.4,5,31.48,14.51,75.68,4.87Z"/>
  <path class="cls-3" d="m759.67,559.82l-62.52-14.1c-1.19,4.12-5.19,15.76-13.06,18.97,44.14,9.63,67.19.13,75.58-4.86Z"/>
  <path class="cls-2" d="m808.1,228.88c-.72-3.41-5.38-2.31-5.57,1.18-.91,16.7,7.01,41.3,12.14,71.02-22.99-7.61-133.95-42.05-259.74-42.05s-227.47,31.7-256.17,40.99c5.13-29.25,12.86-53.47,11.95-69.97-.19-3.5-4.85-4.6-5.57-1.18-9.41,44.41-70.97,95.17-32.23,203.21,4.74,13.23,11.46,24.69,19.43,34.64,3.8,58.52,16.88,114.92,38.08,168.15,20.94,52.58,50.37,102.16,87.48,147.36,63.2,76.98,126.29,114.3,128.94,115.85l8.09,4.73,8.09-4.73c2.65-1.55,65.74-38.87,128.94-115.85,37.11-45.2,66.54-94.78,87.48-147.36,20.66-51.89,33.61-106.79,37.77-163.74,9.61-10.93,17.66-23.82,23.12-39.05,38.74-108.04-22.82-158.8-32.23-203.21Zm-105.22,228.42s0-.03,0-.04c-5.47.09-10.95,0-16.43-.26h-.1s0,0,0,0h0l-.61.04c-1.69-5.09-6.21-8.73-11.52-8.73h-1.88c-22.7,0-45.13-5.35-65.71-15.68-15.47-7.76-32.67-12.08-50.73-12.08h-1.05c-18.06,0-35.27,4.32-50.74,12.08-20.58,10.33-43.01,15.68-65.71,15.68h-1.88c-5.18,0-9.61,3.48-11.39,8.39-9.23.62-53.74,2.26-88.29-20.62l5.68-2.66c3.43-1.61,85.5-39.42,211.49-39.42s208.06,37.81,211.49,39.42l7.53,3.53v1.39c-24.29,14.84-52.67,18.37-70.16,18.95Zm59.39,94.46l-51.02-24.86c15.79-3.32,37.32-9.38,58.62-20.15-1.8,15.21-4.34,30.22-7.61,45.01Zm-134.45,152.05l.36,15.23c.35,15.01-12.67,26.85-27.58,25.08l-23.07-2.74c-14.72-1.75-29.59-1.75-44.31,0l-23.07,2.74c-14.91,1.77-27.93-10.07-27.58-25.08l.36-15.23c.32-13.49,9.77-18.36,25.81-21.36,4.88-.91,14.07-3.85,23.03-6.92l-17.24-2.86,31.41-111.66.47-1.29s-8.84,2.52-22.72-3.28c-13.88-5.8-13.26-20.42-28.26-26.37-5.62-2.23-12-3.58-17.64-4.39-3.45-.58-6.91-1.08-10.35-1.51-10.54-1.32-28.27-2.19-41.08,2.18l.29-39.02c4.07-3.93,11.44-8.7,24.01-10.27,12.28-1.54,35.39,8.84,35.39,8.84,0,0-18.32-21.14-35.34-24.83,20.49-1.63,40.79-7.27,59.35-16.58,14.11-7.08,29.18-10.67,44.79-10.67h1.05c15.62,0,30.69,3.59,44.79,10.67,19.31,9.69,40.5,15.42,61.84,16.77-16.8,4.14-34.59,24.65-34.59,24.65,0,0,23.11-10.38,35.39-8.84,11.82,1.48,19.04,5.79,23.24,9.56l.1,13.69h0s-4.69,20.48-4.69,20.48l-1.4,4.84c-13.45-3.78-29.46-3.03-43.71-.57-6.62.68-15.27,2.08-22.64,5-15,5.95-14.38,20.57-28.26,26.37-13.88,5.8-22.72,3.28-22.72,3.28l3.46,9.59,29.39,103.37-17.27,2.87c8.91,3.12,18.15,6.09,23.16,6.89,17.35,2.79,25.49,7.87,25.81,21.36Zm-25.31,53.4c.03,1.05-.45,1.76-.77,1.95l-11.51,7.27c-10.58,6.69-22.63,10.22-34.85,10.22s-24.27-3.53-34.85-10.22l-11.51-7.27c-.31-.2-.8-.91-.77-1.95l.08-2.36c1.03-.03,2.06-.09,3.08-.22l1.71-.2c8.37,4.76,23.64,11.61,42.26,11.61s33.72-6.88,41.93-11.65l2.04.24c1.02.12,2.05.18,3.08.22l.08,2.36Zm-74.56-4.54l27.43-3.26,27.27,3.24c-7.34,2.93-16.71,5.45-27.27,5.45s-19.98-2.5-27.43-5.43Zm-190.12-248.83c22.3,12.2,45.41,18.98,62.43,22.68l-54.22,26.42c-3.61-16.12-6.35-32.5-8.21-49.11Zm75.81,41.86c1.19,4.13,5.2,15.78,13.08,18.99-44.19,9.64-67.27.13-75.68-4.87l62.6-14.12Zm48.92-4.54c1.38,14.45,6.28,34.02,22.21,40.73,11.51,4.85,21.42,4.77,28.92,3.14l-22.85,25.66,40-17.06-31.57,75.66c-2.62-13.16-7.97-25.76-15.54-36.52l-19.58-27.84-12.53-37.63s-10.85-17.16-16.14-21.21c-1.43-1.1-5.17-5.7-7.37-13.34l-.03-.11c6.51-.96,14.09.57,19.54,2.2,5.18,1.5,10.19,3.66,14.93,6.3Zm41.67,26.55c2.06,0,3.99-.54,5.7-1.48,6.32,3.53,11.73,4.48,13.45,4.71l-.13.11c-.08.06-.39.3-.92.64-5.1,2.05-21.27,7.46-32.16-1.36-13.44-10.89-3.45-30.31-3.45-30.31,0,0,1.34,4.02,5.97,10.21-.49,1.4-.77,2.91-.77,4.49,0,7.17,5.51,12.99,12.31,12.99Zm82.26,3.4l-.2-.17c1.9-.25,8.3-1.38,15.44-5.9,1.14.37,2.35.57,3.61.57,6.8,0,12.31-5.82,12.31-12.99,0-.99-.11-1.94-.31-2.87,4.35-5.92,5.6-9.73,5.6-9.73,0,0,9.99,19.43-3.45,30.31-10.92,8.84-27.13,3.39-32.2,1.35-.47-.31-.75-.52-.81-.57Zm-6.95,22.71l39.55,16.87-22.79-25.59c7.47,1.56,17.25,1.57,28.6-3.21,15.74-6.63,20.71-25.81,22.16-40.2,9.24-5.75,20.14-9.39,30.94-9.31.2,0,.41.03.61.04l-.1.34c-2.21,7.64-5.94,12.24-7.37,13.34-5.29,4.05-16.14,21.21-16.14,21.21l-8.4,37.63-19.58,27.84c-7.61,10.82-12.97,23.5-15.58,36.74l-31.9-75.69Zm117.61-48.12l62.52,14.1c-8.39,5-31.44,14.49-75.58,4.86,7.87-3.21,11.87-14.84,13.06-18.97Zm121.67-197.37s0,.09,0,.13v-.13Zm-93.08-33.1c6.11,1.6,9.16,2.43,15.25,4.17,0,11.52,0,17.28,0,28.8,1.94.55,2.9.83,4.84,1.4,4.42-10.22,6.62-15.31,11.02-25.45,6.48,2.03,9.71,3.08,16.16,5.28-5.51,11.93-8.27,17.93-13.8,29.98,4.95,13.52,9.87,27.05,14.77,40.59-6.4-2.19-9.61-3.25-16.05-5.27-4.4-12.34-6.6-18.49-11.02-30.76-2.37-.7-3.55-1.05-5.92-1.72,0,10.96,0,16.44,0,27.39-6.08-1.74-9.13-2.58-15.25-4.17,0-23.41,0-46.83,0-70.24Zm-57.79-12.42c14.53,2.46,21.78,3.9,36.19,7.16,4.03,4.4,6.05,6.62,10.07,11.09,0,12.52,0,18.79,0,31.31-2.83,1.76-4.24,2.65-7.08,4.45,3.67,10.48,5.5,15.73,9.17,26.27-6.41-1.57-9.62-2.32-16.05-3.74-3.28-9.31-4.92-13.96-8.2-23.23-3.44-.71-5.17-1.06-8.62-1.73,0,8.59,0,12.88,0,21.47-6.18-1.2-9.28-1.76-15.48-2.81,0-23.41,0-46.83,0-70.24Zm-59.66,1.33c4.1-3.17,6.15-4.74,10.25-7.84,11.11,1.05,16.66,1.69,27.74,3.2,4.08,4.05,6.12,6.09,10.2,10.2,0,17.56,0,35.12,0,52.68-4.07,2.91-6.11,4.39-10.2,7.36-11.07-1.51-16.62-2.15-27.74-3.2-4.1-3.92-6.15-5.86-10.25-9.72,0-17.56,0-35.12,0-52.68Zm-41.67-10.74c4.11,11.39,6.16,17.1,10.27,28.55,4.15-11.18,6.22-16.76,10.37-27.88,6.38.31,9.57.5,15.95.95-6.19,15.25-12.35,30.52-18.49,45.79,0,9.35,0,14.03,0,23.38-6.26-.28-9.4-.38-15.66-.51,0-9.35,0-14.03,0-23.38-6.14-15.68-12.31-31.34-18.52-47,6.43-.04,9.65-.02,16.07.09Zm-108.1,6.8c1.89,14.15,3.77,28.31,5.66,42.46,2.49-14.74,4.98-29.48,7.48-44.22,8.05-1,12.08-1.44,20.15-2.19,2.47,14.23,4.94,28.46,7.41,42.7,1.93-14.6,3.86-29.2,5.79-43.8,6.25-.46,9.38-.66,15.64-.98-3.8,23.64-7.59,47.28-11.38,70.92-7.43.5-11.15.81-18.57,1.51-3-15.82-6.01-31.63-9.02-47.45-3.01,16.47-6.01,32.94-9.01,49.41-7.36.9-11.04,1.4-18.39,2.51-3.76-22.82-7.52-45.63-11.29-68.45,6.2-1.04,9.31-1.52,15.53-2.42Zm-62.79,12.1c14-3.23,27.92-6.13,42.04-8.78-1.13,5.82-1.69,8.73-2.82,14.55-9.57,1.72-14.34,2.67-23.86,4.75v14.05c8.12-1.77,12.19-2.59,20.34-4.1-1.12,5.83-1.69,8.74-2.81,14.58-7.03,1.34-10.53,2.05-17.53,3.57v14.05c10.64-2.32,15.97-3.36,26.67-5.25-1.13,5.82-1.69,8.73-2.82,14.55-13.13,2.32-26.27,5.1-39.22,8.28,0-23.41,0-46.83,0-70.24Zm-59.86,17.46c6.01-2.06,9.02-3.05,15.07-4.96,7.03,12.63,10.55,18.99,17.62,31.82v-37.13c6.08-1.74,9.13-2.58,15.24-4.18v70.24c-6.15,1.61-9.22,2.45-15.34,4.21-7.03-12.83-10.54-19.2-17.52-31.84v37.13c-6.05,1.91-9.06,2.91-15.07,4.96v-70.24Zm-50.33,103.51c-13.61-37.95-13.64-67.5-7.83-92.42-.39,7.06-.49,14.33-.21,21.79.84,22.29,5.82,42.08,14.79,58.8,7.82,14.59,18.69,26.86,32.3,36.48,24.19,17.11,50.95,22.59,70.6,25.57,4.8.73,11.95,2.47,15.66,2.55l.14,26.16c-23.07-6.09-29.5-7.97-48-13.89-19.62-6.29-33.05-13.7-45.42-24.42-14.66-12.71-25.98-23.72-32.04-40.62Zm382.71,309.9c-52.72,64.21-105.34,95.34-107.55,96.63l-6.68,3.9-6.68-3.9c-2.21-1.29-54.83-32.42-107.55-96.63-30.96-37.7-55.51-79.06-72.97-122.92-6.75-16.96-12.44-34.3-17.06-51.98,8.56,3.75,22.02,7.53,41.52,7.53,12.83,0,28.29-1.64,46.68-5.99l14.3,41.21,20.65,29.36c6.81,9.68,11.47,20.91,13.64,32.82l.67,3.7c-8.72,5.75-14.62,15.54-14.88,26.63l-.36,15.22c-.23,9.58,3.33,18.62,10.02,25.46,3.77,3.86,8.24,6.74,13.14,8.52l-.13,4.01c-.18,5.56,2.48,10.77,6.93,13.58l11.51,7.27c12.71,8.03,27.19,12.27,41.92,12.27s29.21-4.23,41.92-12.27l11.51-7.27c4.45-2.81,7.11-8.03,6.93-13.58l-.13-4.01c4.89-1.78,9.37-4.67,13.14-8.52,6.69-6.85,10.24-15.89,10.02-25.46l-.36-15.22c-.26-11.09-6.16-20.88-14.88-26.63l.67-3.7c2.17-11.92,6.84-23.14,13.64-32.82l20.65-29.36,14.3-41.21c18.39,4.35,33.84,5.99,46.68,5.99,17.33,0,29.88-2.98,38.47-6.28-4.56,17.25-10.13,34.17-16.73,50.73-17.46,43.86-42.02,85.22-72.97,122.92Zm159.44-309.9c-6.06,16.9-17.38,27.92-32.04,40.62-12.37,10.73-25.8,18.14-45.42,24.42-18.5,5.93-24.94,7.8-48,13.89l.14-26.16c3.72-.08,10.87-1.82,15.66-2.55,19.65-2.98,46.41-8.46,70.6-25.57,13.61-9.62,24.47-21.9,32.3-36.48,8.97-16.73,13.95-36.51,14.79-58.8.28-7.46.18-14.73-.21-21.79,5.81,24.92,5.78,54.47-7.83,92.42Z"/>
  <path class="cls-1" d="m835.73,362.67c-.84,22.29-5.82,42.08-14.79,58.8-7.82,14.59-18.69,26.86-32.3,36.48-24.19,17.11-50.95,22.59-70.6,25.57-4.8.73-11.95,2.47-15.66,2.55l-.14,26.16c23.07-6.09,29.5-7.97,48-13.89,19.62-6.29,33.05-13.7,45.42-24.42,14.66-12.71,25.98-23.72,32.04-40.62,13.61-37.95,13.64-67.5,7.83-92.42.39,7.06.49,14.33.21,21.79Z"/>
  <path class="cls-1" d="m317.58,473.92c12.37,10.73,25.8,18.14,45.42,24.42,18.5,5.93,24.94,7.8,48,13.89l-.14-26.16c-3.72-.08-10.87-1.82-15.66-2.55-19.65-2.98-46.41-8.46-70.6-25.57-13.61-9.62-24.47-21.9-32.3-36.48-8.97-16.73-13.95-36.51-14.79-58.8-.28-7.46-.18-14.73.21-21.79-5.81,24.92-5.78,54.47,7.83,92.42,6.06,16.9,17.38,27.92,32.04,40.62Z"/>
  <path class="cls-3" d="m582.64,752.65l-27.27-3.24-27.43,3.26c7.45,2.92,16.9,5.43,27.43,5.43s19.92-2.52,27.27-5.45Z"/>
  <path class="cls-3" d="m602.01,682.44c-5.02-.81-14.25-3.77-23.16-6.89l17.27-2.87-29.39-103.37-3.46-9.59s8.84,2.52,22.72-3.28c13.88-5.8,13.26-20.42,28.26-26.37,7.37-2.92,16.02-4.33,22.64-5,14.24-2.46,30.26-3.22,43.71.57l1.4-4.84,4.69-20.48h0s-.1-13.69-.1-13.69c-4.2-3.78-11.42-8.08-23.24-9.56-12.28-1.54-35.39,8.84-35.39,8.84,0,0,17.79-20.51,34.59-24.65-21.34-1.35-42.53-7.08-61.84-16.77-14.11-7.08-29.18-10.67-44.79-10.67h-1.05c-15.61,0-30.69,3.59-44.79,10.67-18.56,9.32-38.86,14.96-59.35,16.58,17.02,3.7,35.34,24.83,35.34,24.83,0,0-23.11-10.38-35.39-8.84-12.57,1.58-19.94,6.35-24.01,10.27l-.29,39.02c12.81-4.38,30.54-3.51,41.08-2.18,3.44.43,6.9.93,10.35,1.51,5.65.81,12.02,2.16,17.64,4.39,15,5.95,14.38,20.57,28.26,26.37,13.88,5.8,22.72,3.28,22.72,3.28l-.47,1.29-31.41,111.66,17.24,2.86c-8.96,3.07-18.15,6-23.03,6.92-16.03,3-25.49,7.87-25.81,21.36l-.36,15.23c-.35,15.01,12.67,26.85,27.58,25.08l23.07-2.74c14.72-1.75,29.59-1.75,44.31,0l23.07,2.74c14.91,1.77,27.93-10.07,27.58-25.08l-.36-15.23c-.32-13.49-8.46-18.57-25.81-21.36Zm32.9-183.18l-66.78,46.44-1.06-14.97,67.84-31.46Zm-91.91,31.46l-1.06,14.97-66.78-46.44,67.84,31.46Zm-12.5,200.76c.79-1.63,1.24-3.47,1.24-5.42,0-2.12-.53-4.11-1.45-5.83-.86,6.93-5.13,11.94-9.86,11.37-4.89-.6-8.45-6.94-8.07-14.26-2.22,2.19-3.61,5.29-3.61,8.73,0,2.4.68,4.63,1.84,6.51l-5.62.31s-23.25-50.38,7.03-35.41c30.28,14.97,36.81,33.01,36.81,33.01l-18.31,1Zm74.7,1.09c1.16-1.88,1.84-4.11,1.84-6.51,0-3.44-1.39-6.54-3.61-8.73.38,7.32-3.18,13.67-8.07,14.26-4.73.58-9-4.44-9.86-11.37-.92,1.73-1.45,3.72-1.45,5.83,0,1.95.45,3.79,1.24,5.42l-18.31-1s6.53-18.04,36.81-33.01c30.28-14.97,7.03,35.41,7.03,35.41l-5.62-.31Z"/>
  <path class="cls-3" d="m486.72,540.03s-9.99,19.43,3.45,30.31c10.89,8.82,27.06,3.42,32.16,1.36.53-.35.84-.59.92-.64l.13-.11c-1.71-.22-7.13-1.17-13.45-4.71-1.7.94-3.64,1.48-5.7,1.48-6.8,0-12.31-5.82-12.31-12.99,0-1.58.28-3.09.77-4.49-4.63-6.19-5.97-10.21-5.97-10.21Z"/>
  <path class="cls-3" d="m619.5,570.34c13.44-10.89,3.45-30.31,3.45-30.31,0,0-1.26,3.81-5.6,9.73.2.92.31,1.88.31,2.87,0,7.17-5.51,12.99-12.31,12.99-1.26,0-2.47-.2-3.61-.57-7.14,4.51-13.54,5.65-15.44,5.9l.2.17c.06.05.34.26.81.57,5.07,2.04,21.28,7.49,32.2-1.35Z"/>
  <path class="cls-2" d="m512.01,697.47c-30.28-14.97-7.03,35.41-7.03,35.41l5.62-.31c-1.16-1.88-1.84-4.11-1.84-6.51,0-3.44,1.39-6.54,3.61-8.73-.38,7.32,3.18,13.67,8.07,14.26,4.73.58,9-4.44,9.86-11.37.92,1.73,1.45,3.72,1.45,5.83,0,1.95-.45,3.79-1.24,5.42l18.31-1s-6.53-18.04-36.81-33.01Z"/>
  <path class="cls-2" d="m603.8,697.47c-30.28,14.97-36.81,33.01-36.81,33.01l18.31,1c-.79-1.63-1.24-3.47-1.24-5.42,0-2.12.53-4.11,1.45-5.83.86,6.93,5.13,11.94,9.86,11.37,4.89-.6,8.45-6.94,8.07-14.26,2.22,2.19,3.61,5.29,3.61,8.73,0,2.4-.68,4.63-1.84,6.51l5.62.31s23.25-50.38-7.03-35.41Z"/>
  <polygon class="cls-2" points="543.01 530.73 475.16 499.27 541.95 545.7 543.01 530.73"/>
  <polygon class="cls-2" points="634.92 499.27 567.07 530.73 568.13 545.7 634.92 499.27"/>
</svg>