<?xml version="1.0" encoding="UTF-8"?>
<svg id="ICON" xmlns="http://www.w3.org/2000/svg" version="1.1" viewBox="0 0 1080 1080">
  <!-- Generator: Adobe Illustrator 30.1.0, SVG Export Plug-In . SVG Version: 2.1.1 Build 136)  -->
  <defs>
    <style>
      .st0 {
        fill: #fff;
      }
    </style>
  </defs>
  <g id="_1_COLOR_LIGHT">
    <path class="st0" d="M848.6,295c-7.2-14.1-13.5-26.2-15.8-37.3-1.3-6.3-6.7-10.8-13.1-10.8s-13.8,6-14.2,13.6c-.7,12.5,2.7,27.8,6.5,45.5,5,22.8,11.2,51.1,10.1,81.5-1.4,36.2-15.6,62.7-42.2,78.7-21.5,13-46.6,16.7-64.5,17.5h-1.7c-1.4,0-2.8,0-4.1,0-2.3,0-4.6,0-6.9,0-4.4-5.7-11-9.1-18.3-9.1h-1.9c-21.5,0-43.2-5.2-62.7-15-17.9-9-37.1-13.6-57-13.6h-1.1c-19.9,0-39.1,4.6-57,13.6-19.5,9.8-41.2,15-62.6,15h-1.9c-7.1,0-13.7,3.4-18.1,8.9-1,0-2.2,0-3.4,0-14.7,0-43.1-2-67.7-15.3-29-15.7-44.4-42.8-45.9-80.6-1.1-30.4,5.1-58.7,10.1-81.5,3.9-17.7,7.2-32.9,6.5-45.5-.4-7.6-6.6-13.6-14.2-13.6s-11.7,4.4-13.1,10.8c-2.4,11.1-8.6,23.2-15.8,37.3-20,39-47.4,92.4-16.9,177.5,19.9,55.5,70,82.9,110.4,96.2l-55.1,26.9,14,13.5c2,1.9,20.2,18.3,62.7,18.3s26.4-1.5,40.9-4.3l12,34.7,22.1,31.4c5.6,7.9,9.6,17.2,11.7,26.8-8.8,8.2-14,19.5-14.2,31.5l-.4,15.6c-.3,12.8,4.5,24.9,13.4,34,3.1,3.2,6.6,5.9,10.4,8,.7,8.4,5.1,16,12.1,20.4l11.8,7.5c14.8,9.3,31.7,14.3,48.9,14.3s34.1-4.9,48.9-14.3l11.8-7.5c7-4.4,11.4-12,12.1-20.4,3.8-2.2,7.2-4.8,10.3-8,8.9-9.2,13.7-21.2,13.4-34l-.4-15.7c-.3-12-5.5-23.4-14.2-31.5,2.1-9.7,6.1-18.9,11.7-26.8l22.1-31.4,12-34.7c14.5,2.9,28.2,4.3,40.8,4.3,42.5,0,60.7-16.5,62.7-18.3l14-13.5-54.1-26.4c14.6-4.8,30.8-11.4,46.4-20.7,32.3-19.2,54.3-44.8,65.5-76.1,30.5-85.1,3.1-138.5-16.9-177.5h0ZM855.3,468.8c-23.6,65.9-94.5,89.4-132.7,97.4l66.3,32.3-2.8,2.7c-.8.8-16.4,15.3-55.1,15.3s-29.1-1.7-48-6.2l-14.7,42.3-21.2,30.2c-7,10-11.8,21.5-14,33.7l-.7,3.8c9,5.9,15,16,15.3,27.4l.4,15.7c.2,9.8-3.4,19.1-10.3,26.2-3.9,4-8.5,6.9-13.5,8.8v4.1c.3,5.7-2.4,11.1-7,14l-11.8,7.5c-13.1,8.2-27.9,12.6-43.1,12.6s-30-4.3-43.1-12.6l-11.8-7.5c-4.6-2.9-7.3-8.2-7.1-14v-4.1c-4.9-1.8-9.5-4.8-13.4-8.8-6.9-7-10.5-16.3-10.3-26.2l.4-15.7c.3-11.4,6.3-21.5,15.3-27.4l-.7-3.8c-2.2-12.2-7-23.8-14-33.7l-21.2-30.2-14.7-42.3c-18.9,4.5-34.8,6.2-48,6.2-38.7,0-54.2-14.5-55.1-15.3l-2.8-2.7,67.1-32.7c-38.6-8.4-107.6-32.2-130.9-97-39.8-111,23.5-163.2,33.1-208.9.7-3.5,5.5-2.4,5.7,1.2,1.5,26.5-18.7,72.2-16.6,126.8,4.2,111.1,118.6,107.2,134.2,106.1,1.8-5,6.4-8.6,11.7-8.6h1.9c23.3,0,46.4-5.5,67.5-16.1,15.9-8,33.6-12.4,52.1-12.4h1.1c18.6,0,36.2,4.4,52.1,12.4,21.2,10.6,44.2,16.1,67.5,16.1h1.9c5.5,0,10.1,3.7,11.8,9h.6s0,0,0,0c5.6.3,11.3.4,16.9.3h0c35.7-1.2,115.5-14.2,119-106.7,2.1-54.6-18.1-100.3-16.6-126.8.2-3.6,5-4.7,5.7-1.2,9.7,45.6,72.9,97.8,33.1,208.9h0Z"/>
    <path class="st0" d="M656.6,581.5c-1.5,14.8-6.6,34.5-22.8,41.3-11.7,4.9-21.7,4.9-29.4,3.3l23.4,26.3-40.7-17.3,32.8,77.8c2.7-13.6,8.2-26.6,16-37.8l20.1-28.6,8.6-38.7s11.2-17.6,16.6-21.8c1.5-1.1,5.3-5.8,7.6-13.7v-.4c-.1,0-.3,0-.5,0-11.1,0-22.3,3.7-31.8,9.6h0Z"/>
    <path class="st0" d="M607.6,800.3l-2.1-.2c-8.4,4.9-23.9,12-43.1,12s-34.8-7-43.4-11.9l-1.8.2c-1,.1-2.1.2-3.2.2v2.4c-.1,1.1.4,1.8.7,2l11.8,7.5c10.9,6.9,23.3,10.5,35.8,10.5s24.9-3.6,35.8-10.5l11.8-7.5c.3-.2.8-.9.8-2v-2.4c-1.1,0-2.2,0-3.2-.2Z"/>
    <path class="st0" d="M537.2,634.8l-41.1,17.5,23.5-26.4c-7.7,1.7-17.9,1.8-29.7-3.2-16.4-6.9-21.4-27-22.8-41.9-4.9-2.7-10-4.9-15.3-6.5-5.6-1.7-13.4-3.2-20.1-2.3h0c2.3,8,6.1,12.7,7.6,13.8,5.4,4.2,16.6,21.8,16.6,21.8l12.9,38.7,20.1,28.6c7.8,11.1,13.3,24,16,37.5l32.5-77.8h0Z"/>
    <path class="st0" d="M416.7,585.6l-64.3,14.5c8.6,5.1,32.4,14.9,77.8,5-8.1-3.3-12.2-15.3-13.4-19.5h0Z"/>
    <path class="st0" d="M694.7,605.1c45.4,9.9,69,.1,77.7-5l-64.2-14.5c-1.2,4.2-5.3,16.2-13.4,19.5Z"/>
    <path class="st0" d="M850.5,397.5c-.9,22.9-6,43.2-15.2,60.4-8,15-19.2,27.6-33.2,37.5-24.9,17.6-52.4,23.2-72.6,26.3-4.9.8-12.3,2.5-16.1,2.6l-.2,26.9c23.7-6.3,30.3-8.2,49.3-14.3,20.2-6.5,34-14.1,46.7-25.1,15.1-13.1,26.7-24.4,32.9-41.8,14-39,14-69.4,8-95,.4,7.2.5,14.7.2,22.4h0Z"/>
    <path class="st0" d="M413.9,524.3c-3.8,0-11.2-1.9-16.1-2.6-20.2-3.1-47.7-8.7-72.6-26.3-14-9.9-25.1-22.5-33.2-37.5-9.2-17.2-14.3-37.5-15.2-60.4-.3-7.7-.2-15.1.2-22.4-6,25.6-5.9,56,8,95,6.2,17.4,17.9,28.7,32.9,41.8,12.7,11,26.5,18.6,46.7,25.1,19,6.1,25.6,8,49.3,14.3v-26.9q-.1,0-.1,0Z"/>
    <path class="st0" d="M590.4,798.3l-28-3.3-28.2,3.3c7.7,3,17.4,5.6,28.2,5.6s20.5-2.6,28-5.6Z"/>
    <path class="st0" d="M697.3,538.9v-14.1c-4.4-3.9-11.8-8.3-24-9.8-12.6-1.6-36.4,9.1-36.4,9.1,0,0,18.3-21.1,35.5-25.3-21.9-1.4-43.7-7.3-63.5-17.2-14.5-7.3-30-11-46-11h-1.1c-16,0-31.5,3.7-46,11-19.1,9.6-39.9,15.4-61,17,17.5,3.8,36.3,25.5,36.3,25.5,0,0-23.8-10.7-36.4-9.1-12.9,1.6-20.5,6.5-24.7,10.6l-.3,40.1c13.2-4.5,31.4-3.6,42.2-2.2,3.5.4,7,1,10.5,1.5,5.8.8,12.4,2.2,18.2,4.5,15.4,6.1,14.8,21.1,29,27.1,14.3,6,23.3,3.4,23.3,3.4l-.5,1.3-32.3,114.8,17.7,2.9c-9.2,3.2-18.7,6.2-23.7,7.1-16.5,3.1-26.2,8.1-26.5,22l-.4,15.7c-.4,15.4,13,27.6,28.3,25.8l23.7-2.8c15.1-1.8,30.4-1.8,45.5,0l23.7,2.8c15.3,1.8,28.7-10.3,28.3-25.8l-.4-15.7c-.3-13.9-8.7-19.1-26.5-22-5.2-.8-14.7-3.9-23.8-7.1l17.7-3-30.2-106.2-3.6-9.9s9.1,2.6,23.3-3.4c14.3-6,13.6-21,29-27.1,7.6-3,16.5-4.5,23.2-5.1,14.6-2.5,31.1-3.3,44.9.6l1.4-5,4.8-21h0ZM548.6,585.6l-68.6-47.7,69.7,32.3-1.1,15.4h0ZM536.8,776.5c.8-1.7,1.3-3.6,1.3-5.6s-.5-4.2-1.5-6c-.9,7.1-5.3,12.3-10.1,11.7-5-.6-8.7-7.1-8.3-14.7-2.3,2.2-3.7,5.4-3.7,9s.7,4.8,1.9,6.7l-5.8.3s-23.9-51.8,7.2-36.4c31.1,15.4,37.8,33.9,37.8,33.9l-18.8,1h0ZM612.2,741.5c31.1-15.4,7.2,36.4,7.2,36.4l-5.8-.3c1.2-1.9,1.9-4.2,1.9-6.7,0-3.5-1.4-6.7-3.7-9,.4,7.5-3.3,14-8.3,14.7-4.9.6-9.2-4.6-10.1-11.7-.9,1.8-1.5,3.8-1.5,6s.5,3.9,1.3,5.6l-18.8-1s6.7-18.5,37.8-33.9h0ZM575.5,585.6l-1.1-15.4,69.7-32.3-68.6,47.7h0Z"/>
    <path class="st0" d="M491.9,579.8s-10.3,20,3.5,31.2c11.2,9.1,27.8,3.5,33.1,1.4.5-.3.8-.5.9-.6l.2-.2c-1.8-.2-7.3-1.2-13.8-4.8-1.8,1-3.7,1.5-5.9,1.5-7,0-12.7-6-12.7-13.3s.3-3.2.8-4.6c-4.8-6.4-6.1-10.5-6.1-10.5h0Z"/>
    <path class="st0" d="M613.8,606c-1.3,0-2.5-.2-3.7-.6-7.3,4.6-13.9,5.8-15.9,6.1l.2.2c.1,0,.4.3.9.6,5.2,2.1,21.9,7.7,33.1-1.4,13.8-11.2,3.5-31.2,3.5-31.2,0,0-1.3,3.9-5.8,10,.2,1,.3,1.9.3,3,0,7.4-5.7,13.3-12.7,13.3h0Z"/>
  </g>
</svg>