<?xml version="1.0" encoding="UTF-8"?>
<svg id="Layer_1" data-name="Layer 1" xmlns="http://www.w3.org/2000/svg" version="1.1" viewBox="0 0 1080 1080">
  <defs>
    <style>
      .cls-1 {
        fill: #0a2040;
      }

      .cls-1, .cls-2, .cls-3 {
        stroke-width: 0px;
      }

      .cls-2 {
        fill: #43aadf;
      }

      .cls-3 {
        fill: #fff;
      }
    </style>
  </defs>
  <g>
    <path class="cls-3" d="M920,283.8v-.5s0-.5,0-.5c-.1-2.6-3.1-64.1-38.7-107.8l-29.5-36.2,7.3,46.2c.1.8,11.7,76.9-18.9,122.9-2.1,2.3-15.2,15.4-41.6,16-16.9.4-35.8-4.5-56.3-14.4-4.9-3-29.9-17-68.5-16.2l-8.7-3.8,4.1-1.6h-.2s4.1-1.2,4.1-1.2l-17.3-1.3c-1.4-.6-4.5-1.6-9.1-1.5l-21.7-3.9c-.8-.1-2.8-.4-5.9-.4-3.3,0-7.6.6-12.4,2.1l-6.9-.5c-.3,0-1.8-.1-4,0-5.7.1-13.7,1.2-19.9,5.7l-.6.4s-.7.6-.9.7l-2.7-7.9c-1.3.3-12.6,3.2-24.1,13.1-5.5-5.2-14.9-12.5-24.4-13.4l-23-2.1c-4.6-2.4-9.4-4.2-13.7-4.5l-32.3-2.2,9.6,10.2c-3.2-.5-6.6-.9-9.7-.8s-2,0-3,.2l-26.2,2.5c-2,0-4,.3-6,.6l-6.2.6.9.6-34.2,8.8,10.4,4.6c-8.2,1.8-17.9,4.3-28.9,8h-.3c0,.1-.3.2-.3.2-.3.1-27.7,10.7-57.5,11.4-20.1.4-36.2-3.7-48-12.4l-.4-.3c-.1,0-13.9-9.8-23.7-29.4-13.6-27.3-13.1-59.7,1.6-96.2l14.8-36.7-33.3,21.4c-2.1,1.4-52.4,34.6-56.1,116.8v.5s0,.5,0,.5c0,3,2.7,74.7,59,109.7,1.3.8,18.1,11.5,44.3,21.8-19,4-37.6,12.6-57.7,21.2-8.7,3.7-36,12.2-36,12.2,0,0,36.5,9,46.7,16,4.9,3.3,44.8,51.2,90.6,58.3,3.1.7,17.9,3.6,44,4.5,4.4.4,16.2,2.9,21.4,10.3,3.5,5,3.9,12.3,1.2,21.8-2.6,7.3-20.8,65.3,40,118.8,4.3,3.8,15.7,16.2,16.2,28.5.5,8.6,1.8,19.6,5.4,27-.2.4-.4.8-.6,1.4l-.3.5c-3.6,7.8-7,24.7,2.8,38.8l4.3,6.2c.4,8.4,2.7,18,9,27.3l10.6,15.5c2.1,7.9,5.6,16.5,11.1,25,0,0,39.1,25.8,48.4,38.2,5.4,7.2,13.7,23.5,17.1,31.8,3,7.2,9.2,29.9,9.2,29.9,0,0,7.4-23,10.9-30.2,4.2-8.8,14.1-25.7,20-33.5,7.7-10.2,39.6-32.5,39.6-32.5,1.2-.8,27.4-19.5,26.9-50.8l3.2-3c1.1-1.1,9.1-9.2,9.4-25.3l.7-.3c5.1-2.2,16.1-10.4,9.5-39.8v-.7s-.6-1.2-.6-1.2c-.4-1.5-2.4-10.5,6.8-23.7,9.3-10.2,48.1-53.6,55.1-74.1,2.9-5.7,9.3-22.9,4.5-57.3v-.7c0,0-.2-.6-.2-.6-1.2-5.2-3-20.6,3.4-29,3.5-4.5,9.3-6.7,17.9-6.9,1.3,0,2.6,0,4.2,0,0,0,1.4,0,4.1,0,15.4-.3,94.1-5.4,136-73.7l12.8-19.7-22.9.4c-1.7-.2-13.9-2.4-36.9-17.5l-.5-.3c-.8-.5-4.2-2.4-10.1-4.5,5.4-2,10.6-4.3,15.3-6.8,8.6-3.6,62.3-30.2,66.5-130.9Z"/>
    <path class="cls-3" d="M423.7,306.8s-20-1.6-58.7,11.2c0,0-74.1,29.3-117.6-2.5,0,0-65.5-44.3-26.8-140.8,0,0-46.9,30.1-50.3,106.8,0,0,1.8,67.5,53.2,99.4,0,0,59.4,38.1,130.6,39.2,0,0,26.2.3,30.3,15.6,0,0-13.4,3.7-51.8-8.1,0,0-49.6-20.6-123.5,18,0,0,6.9.7,14.3,8.6,0,0,40.5,47.9,83.5,54.3,0,0,14.2,3.4,42.3,4.3,0,0,47.3,2.9,34,48.7,0,0-21.4,54.6,36.2,105.3,0,0,19.8,16.9,20.6,37.4,0,0,1,18.8,5.1,23.8,0,0,2.5,2.9-1.8,11.1,0,0-6.6,14.4,1.7,26.3,0,0,2.6-22,7-24.6,0,0,6.2,1.6,2.1,19.2,0,0-8.2,20.6,4.3,38.9,0,0-5-28.7,10.2-44.3,0,0,5.5,3.9.7,32.1,0,0-6.2,26.9,10.9,52.8,0,0-10.4-43.2,3.2-74.9,0,0,8.6-3.1,6.6,31,0,0-4,39.7,23,60.3,0,0,29.6,26.1,32.3,51.2,0,0,3.1-26.2,40.3-66.2,0,0,30.5-24,24.5-77.9,0,0,5.3-5.8,9.7,21.8,0,0,5.9,27.7-12.2,54.9,0,0,25-17.5,21.1-45.5,0,0-7-32.9-1.5-44.2,0,0,11.3,12.9,9.1,37.2,0,0,8.3-7.9,4.4-26.3,0,0-4.1-14.9,1.2-25.2,0,0,10.7,5.3,8.2,23.4,0,0,7.2-3.1,2.2-25.4,0,0-6.4-15.2,8.7-36.4,0,0,48.3-53,53.3-71.1,0,0,8.7-14,3.7-50.7,0,0-13.3-54,38.2-51.4,0,0,85.6,2.8,128.9-67.7,0,0-14.1-.6-43.1-19.6,0,0-44.5-26.3-129,11.6,0,0-4.3-19.3,27.1-21.5,0,0,70.9-3.5,108.2-23.7,0,0,55.1-20,59.2-120,0,0-2.5-59.4-35.9-100.4,0,0,13,81.8-21.3,132.6,0,0-34.9,43.7-114.1,5,0,0-36.4-24.2-94.4-10.5,0,0-4.7-8,9.2-13,0,0-7.1-3.1-19.7,4.7,0,0-7.4,4.9-18.3.9,0,0,2.3-7.3,9.8-10.2,0,0-10.1-1.8-20.9,5.7,0,0-6.2,3.1-11.7,4,0,0,3.4-6.9,8.8-8.3,0,0-10.1-.8-15.6,3.2,0,0-7,6.4-15,7.1,0,0,0-8.9,6.3-11.8,0,0-11,2.6-21.4,12.9,0,0-4.7,3.2-10.9.4,0,0-11.4-12.5-20.2-13.3,0,0,5.2,6.7,4.2,12.9,0,0-6.5,2.1-15.4-5.3,0,0-16.6-13.6-25.1-14.2,0,0,9.3,9.7,7.5,15.3,0,0-7.5.9-17.1-3.9,0,0-14.4-5.1-23.5-4.1,0,0,7.1,4.7,4.1,10,0,0-4.8,3.2-15-3.4,0,0-9.6-6.6-23.7-3,0,0,11.7,4.9,5.7,10.2Z"/>
  </g>
  <g>
    <path class="cls-2" d="M233.9,347.1s32.1,25,122.1,6.4c0,0,52.3-13.5,49.1,4.5,0,0-5.2,22.7-24.3,25.6,0,0-95.1,10.3-146.9-36.6Z"/>
    <path class="cls-2" d="M289.8,444.4s-30.9,4.9-36.6,4.7c0,0,35.4,46.6,92.9,46.3,0,0,26.6.4,32.8,1.9,0,0-10.9-60-89.1-52.9ZM265,453.4c85.2-15.2,99.5,34.9,99.5,34.9-60.2,4.3-99.5-34.9-99.5-34.9Z"/>
    <path class="cls-2" d="M404.3,540.5s64.3,26.7,15.2,93.5c0,0-28.6-35.4-19.3-67.9,0,0,4.5-20.5,4.1-25.6Z"/>
    <path class="cls-2" d="M572.8,772.7s-24.7,5.1-45.2,1c0,0-7.7,36.2,19,58.9,0,0,34.3-18.9,26.2-59.9Z"/>
    <path class="cls-2" d="M491.3,639.8s20.7,16,20.9,27c0,0,.6,9.5-7.7,10.3,0,0-7.6,2.4-16.8-16,0,0-3.3-7.2-3.5-17.2,0,0-.8-6.6,7-4.1Z"/>
    <path class="cls-2" d="M601.5,637.4s-20,16.8-19.8,27.8c0,0-.2,9.6,8.1,10,0,0,7.7,2.1,16-16.8,0,0,3-7.3,2.7-17.3,0,0,.5-6.7-7.1-3.8Z"/>
    <path class="cls-2" d="M835.5,363.7s-61.2,15.3-114-5.6c0,0-38.6-13.5-34.9.7,0,0,10.8,24.9,22.3,29.2,0,0,70.1,21.1,126.5-24.4Z"/>
    <g>
      <circle class="cls-2" cx="224.7" cy="341.1" r="3.1"/>
      <circle class="cls-2" cx="215.2" cy="329.9" r="2.5"/>
      <circle class="cls-2" cx="191.8" cy="244.9" r="3.9"/>
      <circle class="cls-2" cx="842.2" cy="360.4" r="2.7"/>
      <circle class="cls-2" cx="851.5" cy="352.8" r="2.5"/>
      <circle class="cls-2" cx="886" cy="254.9" r="2.7"/>
    </g>
    <path class="cls-2" d="M729,484.4s-7.8,14.1-8.2,27.9c0,0,10.9-11,43.2-11.4,0,0,54.3,5.3,80.4-38,0,0-69.2-47.1-115.5,21.5ZM735.7,495.7s22.7-67.2,98-31.3c0,0-4.8,32.2-98,31.3Z"/>
    <path class="cls-2" d="M697.6,537.5s-33.1,18.1-31.1,64.5c0,0,2.5,28.7,13.3,47.1,0,0,24.9-33.4,18.7-68.9,0,0-5.3-24.5-.9-42.6Z"/>
    <path class="cls-1" d="M712.9,448.5s-4.3-19.3,27.1-21.5c0,0,70.9-3.5,108.2-23.7,0,0,55.1-20,59.2-120,0,0-2.5-59.4-35.9-100.4,0,0,13,81.8-21.3,132.6,0,0-34.9,43.7-114.1,5,0,0-36.4-24.2-94.4-10.5,0,0-4.7-8,9.2-13,0,0-7.1-3.1-19.7,4.7,0,0-7.4,4.9-18.3.9,0,0,2.3-7.3,9.8-10.2,0,0-10.1-1.8-20.9,5.7,0,0-6.2,3.1-11.7,4,0,0,3.4-6.9,8.8-8.3,0,0-10.1-.8-15.6,3.2,0,0-7,6.4-15,7.1,0,0,0-8.9,6.3-11.8,0,0-11,2.6-21.4,12.9,0,0-4.7,3.2-10.9.4,0,0-11.4-12.5-20.2-13.3,0,0,5.2,6.7,4.2,12.9,0,0-6.5,2.1-15.4-5.3,0,0-16.6-13.6-25.1-14.2,0,0,9.3,9.7,7.5,15.3,0,0-7.5.9-17.1-3.9,0,0-14.4-5.1-23.5-4.1,0,0,7.1,4.7,4.1,10,0,0-4.8,3.2-15-3.4,0,0-9.6-6.6-23.7-3,0,0,11.7,4.9,5.7,10.2,0,0-20-1.6-58.7,11.2,0,0-74.1,29.3-117.6-2.5,0,0-65.5-44.3-26.8-140.8,0,0-46.9,30.1-50.3,106.8,0,0,1.8,67.5,53.2,99.4,0,0,59.4,38.1,130.6,39.2,0,0,26.2.3,30.3,15.6,0,0-13.4,3.7-51.8-8.1,0,0-49.6-20.6-123.5,18,0,0,6.9.7,14.3,8.6,0,0,40.5,47.9,83.5,54.3,0,0,14.2,3.4,42.3,4.3,0,0,47.3,2.9,34,48.7,0,0-21.4,54.6,36.2,105.3,0,0,19.8,16.9,20.6,37.4,0,0,1,18.8,5.1,23.8,0,0,2.5,2.9-1.8,11.1,0,0-6.6,14.4,1.7,26.3,0,0,2.6-22,7-24.6,0,0,6.2,1.6,2.1,19.2,0,0-8.2,20.6,4.3,38.9,0,0-5-28.7,10.2-44.3,0,0,5.5,3.9.7,32.1,0,0-6.2,26.9,10.9,52.8,0,0-10.4-43.2,3.2-74.9,0,0,8.6-3.1,6.6,31,0,0-4,39.7,23,60.3,0,0,29.6,26.1,32.3,51.2,0,0,3.1-26.2,40.3-66.2,0,0,30.5-24,24.5-77.9,0,0,5.3-5.8,9.7,21.8,0,0,5.9,27.7-12.2,54.9,0,0,25-17.5,21.1-45.5,0,0-7-32.9-1.5-44.2,0,0,11.3,12.9,9.1,37.2,0,0,8.3-7.9,4.4-26.3,0,0-4.1-14.9,1.2-25.2,0,0,10.7,5.3,8.2,23.4,0,0,7.2-3.1,2.2-25.4,0,0-6.4-15.2,8.7-36.4,0,0,48.3-53,53.3-71.1,0,0,8.7-14,3.7-50.7,0,0-13.3-54,38.2-51.4,0,0,85.6,2.8,128.9-67.7,0,0-14.1-.6-43.1-19.6,0,0-44.5-26.3-129,11.6ZM283.5,400.4c-82.5-23.6-98.1-79.5-98.1-79.5-23.1-73.7,16.3-114,16.3-114-13.6,58.8,28.4,104.4,28.4,104.4,43.9,45.9,115.6,20.9,115.6,20.9,63.6-21.3,82.2-7.2,82.2-7.2-2.6,2.3-5.7,10.6-5.7,10.6-24.8-7.8-80.3,6.3-80.3,6.3-79.9,19.5-116-19.3-116-19.3-25-27.1-35.3-68.9-35.3-68.9-5.7,19.2-2.3,48.9-2.3,48.9,7.1,54.4,64.6,77.7,64.6,77.7,59.3,24.6,135,23.7,135,23.7-1.8,3.4-1.7,10.1-1.7,10.1-40,3-102.7-13.9-102.7-13.9ZM391.5,392.2s-74,17.2-150.4-24.8c0,0-48.1-26.9-44.7-75.4,0,0,30.1,71.4,111,60.1,0,0,37.1-4,59.1-9.1,0,0,42.7-7.3,49.8,2.7,0,0,9.4,20.6-24.7,46.5ZM342.7,504.1c-67.9,2.6-112.9-56.1-112.9-56.1,57.1-32.8,119.7-5.7,119.7-5.7,62.6,24.8,37.9,75.7,37.9,75.7-6.5-10.8-44.8-13.9-44.8-13.9ZM393.6,556.7s5.8-22.5,3.6-28.7c0,0,75.7,25.7,41,98.8,0,0-12.9,22.6-13.9,29.1,0,0-48.9-36.2-30.8-99.3ZM438.1,674.4c-3.7-2.2-9.5-10.7-9.5-10.7,3.3-13.9,19.3-46.3,19.3-46.3,21.2-53.9-8.7-73.6-8.7-73.6-14.7-11.9-38.5-26.1-38.5-26.1-4.2-3.3-1.1-13.7-1.1-13.7,10.3,11.6,41.8,21.4,41.8,21.4,20.2,6.8,24.8,43.2,24.8,43.2,4.6,37.2-9.8,58.3-9.8,58.3-19.3,35.7-18.4,47.5-18.4,47.5ZM397.3,476.5c52.3,4.8,50,42,50,42-6-1.1-20.2-4.8-20.2-4.8-23.9-3.7-26.3-25.4-26.3-25.4-.3-3.1-3.4-11.9-3.4-11.9ZM578.5,837.8c-25.1,25.9-32,50-32,50-3.8-13.7-24.5-33.8-24.5-33.8-38.9-32.5-18.4-92.3-18.4-92.3,2.3,1.9,9.3,3.2,9.3,3.2-12.5,48.6,10.4,70.2,10.4,70.2,14.4,13.9,24.5,31.4,24.5,31.4,1.9-7.4,15.2-23.7,15.2-23.7,43.7-46.6,26.7-79.7,26.7-79.7,3.2,0,8.3-2.3,8.3-2.3,13.9,41.1-19.4,76.9-19.4,76.9ZM521.6,764c24.5,5.3,57.7,0,57.7,0,23.7,37.3-31.6,86.1-31.6,86.1-49.2-38.7-26.2-86.2-26.2-86.2ZM480.1,741.4s68-51.3,126.7.8c0,0-58.5,32-126.7-.8ZM638.9,719.8s-12.3,22.4-24.2,16.2c0,0-10.7-6.7-15-9.5,0,0-47.6-35.6-106.9.5,0,0-22.9,13.5-34.8-.2,0,0-17.4-16.5,1.1-46.2,0,0,14.2-21.7,18.9-40.4,0,0,7.1-33.4,49.1-15.8,0,0,25.6,7.9,52-4.3,0,0,39-15.2,52.4,30.3,0,0,3.8,20.2,8.9,34,0,0,10,17.7-1.4,35.4ZM655.5,693s-9.5-9.4-17.8-37.9c0,0-8.1-30.1-25.5-40.9,0,0-13.9-9.9-44.2,0,0,0-26.3,7.3-49.5-1,0,0-31.7-14-46.9,24,0,0-7.2,30.3-27,51.9,0,0-6.5-24.7,16.3-60.2,0,0,28.9-45.5-5.9-105.7,0,0-2.2-3.8-5.3-18.5,0,0-5-25.3-36.5-31.5,0,0-27.1-6.7-22.4-48.3,0,0,.4-21.9,25.5-48.7,0,0,11.8-8.6,12.2-33.5,0,0,1.1-51.8,92.8-28.6,0,0,24.5,12.4,70.6-1.8,0,0,44.9-12.9,66.4,40.5,0,0,11.1,31.2,35.9,57.3,0,0,22.5,30-.1,63.7,0,0-47,2.7-54.5,51.5,0,0,.3,5.8-2.3,13.3,0,0-23.5,77.8,20.7,137.5,0,0,5.9,7.7-2.5,16.9ZM669.3,345.9s30.7-11.2,95.4,11.2c0,0,51.4,18.5,103.8-21.8,0,0-28.2,86.4-174.4,58.7,0,0-4.9-2.6-12-23.9,0,0-7.6-19.2-12.8-24.2ZM647.4,522.4s1.3-38.8,46.3-39c0,0,5.4,23.3-46.3,39ZM668,675.9c-32.4-33.2-31.6-88.7-31.6-88.7-1.6-49,23.3-60.9,23.3-60.9,29.5-9.8,41.7-37.7,41.7-37.7,20.7,17.5-22.4,39.9-22.4,39.9-40.1,27.7-29.9,70.2-29.9,70.2,2.9,42,25.8,68.7,25.8,68.7-2.4,5.6-6.9,8.4-6.9,8.4ZM706.8,546.5c-2.4,27.5.7,46.7.7,46.7,4.6,42.5-27.2,67.5-27.2,67.5-28.4-30.7-23.7-75-23.7-75-.6-41.7,49.3-64.6,49.3-64.6,4.8,7,.8,25.4.8,25.4ZM699.4,402.6c101.5,15.4,145.2-22.9,145.2-22.9,53.6-44.8,41.9-114.1,41.9-114.1-9.5,122.9-129.2,82.4-129.2,82.4-74.1-20.8-93.7-12.6-93.7-12.6-4.1-4.5-12-10.9-12-10.9,38.8-10.6,72.9,5.6,72.9,5.6,66.2,26.1,103.2,11.2,103.2,11.2,53.6-18,54.5-112.7,54.5-112.7,40.6,89-12.8,144.6-12.8,144.6-47.4,54.2-149.6,45.7-149.6,45.7-15.2-2.4-20.3-16.3-20.3-16.3ZM765,513.7c-41.1.1-49.8,11.4-49.8,11.4-5.7-10.5-2.2-19.6-2.2-19.6,1.8-5.5,1.5-16.1,1.5-16.1-2.8-24.2,43.2-42.7,43.2-42.7,60.4-28.6,106.6,14.1,106.6,14.1-12.7,50-99.2,52.8-99.2,52.8Z"/>
    <path class="cls-2" d="M674.2,402.6s-19.2-25.7-28.4-47.9c0,0-13.2-37.7-57.3-30.2,0,0-42.6,17.8-89.7-1.5,0,0-56.8-23.4-63.5,35,0,0-3.2,21.6-17,33.9,0,0-30.2,26.6,2.8,47.1,0,0,61,28.4,71.2,113,0,0,.2,48.9,56.5,54.2,0,0,56.7,2.1,60.2-44.6,0,0,2-48.1,13.2-71.1,0,0,5.6-21.7,51.1-43.1,0,0,28.1-10.5.8-44.6ZM660.5,441.8c-20.3,10.3-34.5,26.5-34.5,26.5-18.3,17.2-23.5,93.5-23.5,93.5-5,41.2-56.9,34.6-56.9,34.6-44-4.5-49.8-54.5-49.8-54.5-10.9-82.8-67.6-109.4-67.6-109.4-28.6-16.5-2.2-41-2.2-41,13.9-12.8,20.5-42.6,20.5-42.6,11.1-35.1,50.9-15.9,50.9-15.9,41.4,17.8,73.5,4.3,73.5,4.3,22.6-8.5,40.9-3.4,40.9-3.4,22.7,5.5,29.9,28.6,29.9,28.6,9.7,25.3,25.2,41.1,25.2,41.1,19.2,25.1-6.4,38.2-6.4,38.2Z"/>
    <path class="cls-1" d="M651.9,406.6s-13.2-13.2-21.8-36.8c0,0-9.1-34.9-42.9-23.6,0,0-50.1,21.6-89.5,3.7,0,0-38.4-16.5-39.3,8.7,0,0-1.2,19.1-15.2,31.5,0,0-32.8,28.1,12.5,45.8,0,0,47.5,20.5,55.3,104.1,0,0,6.2,36.1,24.8,40.9,0,0,24.4,7.9,42.2-5.7,0,0,14.2-11.9,16.8-49.7,0,0-2.2-59,35.9-83.1,0,0,9.8-6.4,16.7-9.8,0,0,20.6-10.2,4.5-26ZM614.9,439.1c-26.4,20.4-28.9,87.4-28.9,87.4-1.1,59-40.8,46.2-40.8,46.2-25.8-2.9-30.2-59.8-30.2-59.8-8.7-59.1-48.2-84.4-48.2-84.4-21-15.8-8.7-29.3-8.7-29.3,7.7-8.4,8.8-25.9,8.8-25.9,2.8-24.5,33.3-10.4,33.3-10.4,44.2,14.4,77.6-.5,77.6-.5,46.3-17.7,58.7,42.2,58.7,42.2,5.4,12.2-21.8,34.5-21.8,34.5Z"/>
    <path class="cls-2" d="M575.7,378.6s-26.9,16.9-74.4-2.4c0,0-22.4-9.5-23.4,9.6,0,0,.2,9.7-2.5,14.9,0,0-10.3,13.1,8.4,25,0,0,47.2,28.2,50.1,99.5,0,0,.6,33.5,15.9,33.9,0,0,21.2,5.8,20.1-36.4,0,0-2.8-62.1,28.3-88.2,0,0,22.6-14.4,18.3-42.2,0,0-1.5-13.3-18.5-16.9,0,0-13.5-2.5-22.3,3.2Z"/>
    <circle class="cls-2" cx="617" cy="593.2" r="5.8"/>
    <circle class="cls-2" cx="620.5" cy="562.3" r="5.8"/>
    <circle class="cls-2" cx="624.7" cy="535.1" r="8.5"/>
    <circle class="cls-2" cx="631" cy="507.1" r="7"/>
    <circle class="cls-2" cx="644.5" cy="481.6" r="5.8"/>
    <circle class="cls-2" cx="663.7" cy="466.3" r="5.8"/>
    <circle class="cls-2" cx="688.2" cy="456.5" r="5.8"/>
    <circle class="cls-2" cx="625.9" cy="614.8" r="4.6"/>
    <circle class="cls-2" cx="637.6" cy="644.5" r="1.9" transform="translate(-267.7 693.4) rotate(-48.4)"/>
    <circle class="cls-2" cx="643.2" cy="660.2" r="1.9" transform="translate(-277.5 702.9) rotate(-48.4)"/>
    <circle class="cls-2" cx="652" cy="677.6" r="3.3"/>
    <g>
      <circle class="cls-2" cx="404.1" cy="442.3" r="5.8"/>
      <circle class="cls-2" cx="424.1" cy="458.1" r="5.8"/>
      <circle class="cls-2" cx="444" cy="472.6" r="5.8"/>
      <circle class="cls-2" cx="458.9" cy="492" r="5.8"/>
      <circle class="cls-2" cx="469.9" cy="517.7" r="7.1"/>
      <circle class="cls-2" cx="478.8" cy="545.1" r="5.8"/>
      <circle class="cls-2" cx="483.8" cy="571.5" r="5.8"/>
      <circle class="cls-2" cx="485.9" cy="600" r="5.8"/>
      <circle class="cls-2" cx="472" cy="621.9" r="4.6"/>
      <circle class="cls-2" cx="461.5" cy="644" r="4.6"/>
      <circle class="cls-2" cx="453.8" cy="663.7" r="4.6"/>
    </g>
  </g>
</svg>