<?xml version="1.0" encoding="UTF-8"?>
<svg id="ICON" xmlns="http://www.w3.org/2000/svg" viewBox="0 0 1080 1080">
  <defs>
    <style>
      .cls-1 {
        fill: #00b1ff;
      }

      .cls-2 {
        fill: #011e41;
      }

      .cls-3 {
        fill: #fff;
      }
    </style>
  </defs>
  <g id="FULL_COLOR" data-name="FULL COLOR">
    <path class="cls-3" d="m848.61,305.85c-7.23-14.08-13.47-26.24-15.81-37.31-1.34-6.33-6.72-10.76-13.08-10.76-7.53,0-13.75,5.99-14.17,13.64-.69,12.54,2.66,27.79,6.54,45.46,5,22.78,11.22,51.13,10.07,81.51-1.37,36.19-15.56,62.67-42.18,78.7-21.55,12.98-46.62,16.73-64.48,17.51l-1.67.03c-1.38.02-2.75.03-4.13.03-2.27,0-4.57-.03-6.86-.09-4.37-5.66-11.04-9.13-18.29-9.13h-1.93c-21.5,0-43.16-5.17-62.65-14.96-17.94-9.01-37.13-13.57-57.03-13.57h-1.07c-19.9,0-39.09,4.57-57.03,13.57-19.49,9.78-41.16,14.96-62.65,14.96h-1.93c-7.08,0-13.69,3.38-18.07,8.88-1.04.02-2.18.04-3.41.04-14.72,0-43.09-1.99-67.73-15.33-28.99-15.7-44.42-42.83-45.85-80.65-1.15-30.38,5.07-58.73,10.07-81.51,3.88-17.66,7.23-32.92,6.54-45.46-.42-7.65-6.64-13.64-14.17-13.64-6.36,0-11.74,4.42-13.08,10.76-2.35,11.07-8.59,23.23-15.81,37.31-20.01,38.99-47.42,92.38-16.91,177.47,19.88,55.46,70.02,82.87,110.39,96.25l-55.12,26.86,13.99,13.49c1.95,1.88,20.23,18.32,62.66,18.32,12.65,0,26.35-1.46,40.85-4.35l12.03,34.67,22.1,31.43c5.56,7.91,9.58,17.15,11.7,26.84-8.76,8.15-13.97,19.49-14.25,31.55l-.37,15.64c-.3,12.8,4.46,24.89,13.39,34.04,3.12,3.19,6.58,5.88,10.35,8.04.67,8.37,5.14,16,12.12,20.4l11.83,7.47c14.8,9.35,31.71,14.29,48.9,14.29s34.11-4.94,48.9-14.29l11.83-7.47c6.97-4.4,11.44-12.03,12.12-20.4,3.77-2.16,7.23-4.85,10.35-8.03,8.94-9.15,13.7-21.24,13.39-34.03l-.37-15.65c-.28-12.05-5.5-23.4-14.25-31.55,2.12-9.7,6.14-18.93,11.7-26.84l22.1-31.43,12.03-34.67c14.5,2.89,28.2,4.35,40.85,4.35,42.45,0,60.72-16.45,62.66-18.32l13.99-13.49-54.11-26.37c14.62-4.76,30.8-11.41,46.36-20.66,32.27-19.18,54.33-44.78,65.55-76.09,30.51-85.09,3.1-138.48-16.91-177.47Zm6.66,173.8c-23.62,65.87-94.47,89.39-132.66,97.43l66.34,32.33-2.78,2.69c-.85.82-16.42,15.27-55.11,15.27-13.19,0-29.08-1.69-47.97-6.16l-14.7,42.35-21.22,30.18c-7,9.95-11.79,21.49-14.02,33.74l-.69,3.81c8.96,5.91,15.02,15.97,15.29,27.37l.37,15.65c.23,9.84-3.43,19.14-10.3,26.17-3.87,3.96-8.47,6.93-13.5,8.76l.13,4.12c.19,5.71-2.55,11.07-7.12,13.96l-11.83,7.47c-13.07,8.25-27.94,12.61-43.09,12.61s-30.02-4.35-43.09-12.61l-11.83-7.47c-4.57-2.89-7.31-8.25-7.12-13.96l.13-4.12c-5.03-1.83-9.63-4.8-13.5-8.76-6.87-7.04-10.53-16.33-10.3-26.17l.37-15.65c.27-11.4,6.33-21.46,15.29-27.37l-.69-3.81c-2.23-12.25-7.03-23.79-14.02-33.74l-21.22-30.18-14.7-42.35c-18.9,4.48-34.78,6.16-47.97,6.16-38.68,0-54.25-14.45-55.11-15.27l-2.78-2.69,67.12-32.71c-38.56-8.38-107.63-32.18-130.89-97.05-39.81-111.04,23.46-163.21,33.13-208.85.74-3.51,5.53-2.38,5.73,1.22,1.45,26.45-18.69,72.19-16.62,126.78,4.21,111.13,118.58,107.21,134.24,106.15,1.83-5.04,6.37-8.62,11.7-8.62h1.93c23.34,0,46.39-5.5,67.54-16.11,15.89-7.98,33.58-12.42,52.14-12.42h1.07c18.56,0,36.25,4.44,52.14,12.42,21.15,10.62,44.2,16.11,67.54,16.11h1.93c5.45,0,10.1,3.74,11.84,8.98l.63-.05h0s0,0,0,0h.1c5.64.26,11.27.35,16.89.26,0,.01,0,.03,0,.04,35.7-1.2,115.53-14.25,119.03-106.76,2.07-54.6-18.07-100.33-16.62-126.78.2-3.59,4.99-4.72,5.73-1.22,9.67,45.64,72.94,97.81,33.13,208.85Z"/>
    <path class="cls-3" d="m656.64,592.3c-1.49,14.79-6.6,34.5-22.77,41.31-11.66,4.91-21.71,4.9-29.39,3.3l23.42,26.3-40.65-17.33,32.78,77.79c2.68-13.61,8.19-26.64,16.01-37.76l20.12-28.62,8.64-38.68s11.15-17.63,16.59-21.8c1.47-1.13,5.31-5.85,7.58-13.71l.1-.36c-.21-.01-.42-.02-.63-.03-11.1-.08-22.3,3.65-31.8,9.57Z"/>
    <path class="cls-3" d="m607.6,811.14l-2.1-.25c-8.43,4.91-23.91,11.97-43.09,11.97s-34.83-7.04-43.44-11.93l-1.75.21c-1.05.12-2.11.19-3.17.22l-.08,2.43c-.04,1.08.47,1.8.79,2.01l11.83,7.47c10.88,6.87,23.26,10.5,35.82,10.5s24.94-3.63,35.82-10.5l11.83-7.47c.32-.2.82-.93.79-2.01l-.08-2.43c-1.06-.03-2.12-.1-3.17-.22Z"/>
    <path class="cls-3" d="m537.19,645.68l-41.11,17.53,23.48-26.37c-7.71,1.67-17.9,1.76-29.73-3.23-16.38-6.9-21.41-27.01-22.83-41.86-4.87-2.72-10.02-4.94-15.34-6.48-5.58-1.68-13.39-3.25-20.08-2.26l.03.11c2.27,7.85,6.11,12.58,7.58,13.71,5.44,4.16,16.59,21.8,16.59,21.8l12.87,38.67,20.12,28.62c7.78,11.06,13.27,24,15.97,37.53l32.45-77.76Z"/>
    <path class="cls-3" d="m416.73,596.41l-64.33,14.51c8.64,5.14,32.36,14.91,77.78,5-8.1-3.3-12.22-15.27-13.44-19.52Z"/>
    <path class="cls-3" d="m694.69,615.92c45.36,9.9,69.05.14,77.68-5l-64.25-14.49c-1.23,4.24-5.33,16.2-13.43,19.49Z"/>
    <path class="cls-2" d="m822.15,270.8c-.74-3.51-5.53-2.38-5.73,1.22-1.45,26.45,18.69,72.19,16.62,126.78-3.5,92.5-83.33,105.56-119.03,106.76,0-.01,0-.03,0-.04-5.62.09-11.25,0-16.89-.27h-.1s0,0,0,0h0s-.63.05-.63.05c-1.74-5.23-6.38-8.98-11.84-8.98h-1.93c-23.34,0-46.39-5.5-67.54-16.11-15.89-7.98-33.58-12.42-52.14-12.42h-1.07c-18.56,0-36.25,4.44-52.14,12.42-21.15,10.62-44.2,16.11-67.54,16.11h-1.93c-5.33,0-9.87,3.58-11.7,8.62-15.65,1.06-130.03,4.99-134.24-106.15-2.07-54.6,18.07-100.33,16.62-126.78-.2-3.59-4.99-4.72-5.73-1.22-9.67,45.64-72.94,97.81-33.13,208.85,23.26,64.87,92.33,88.67,130.89,97.05l-67.12,32.71,2.78,2.69c.85.82,16.42,15.27,55.11,15.27,13.19,0,29.08-1.69,47.97-6.16l14.7,42.35,21.22,30.18c7,9.95,11.79,21.49,14.02,33.74l.69,3.81c-8.96,5.91-15.02,15.97-15.29,27.37l-.37,15.65c-.23,9.84,3.43,19.14,10.3,26.17,3.87,3.96,8.47,6.93,13.5,8.76l-.13,4.12c-.19,5.71,2.55,11.07,7.12,13.96l11.83,7.47c13.07,8.25,27.94,12.61,43.09,12.61s30.02-4.35,43.09-12.61l11.83-7.47c4.57-2.89,7.31-8.25,7.12-13.96l-.13-4.12c5.03-1.83,9.63-4.8,13.5-8.76,6.87-7.04,10.53-16.33,10.3-26.17l-.37-15.65c-.27-11.4-6.33-21.46-15.29-27.37l.69-3.81c2.23-12.25,7.03-23.79,14.02-33.74l21.22-30.18,14.7-42.35c18.9,4.48,34.78,6.16,47.97,6.16,38.68,0,54.25-14.45,55.11-15.27l2.78-2.69-66.34-32.33c38.18-8.04,109.04-31.56,132.66-97.43,39.81-111.04-23.46-163.21-33.13-208.85Zm-457.46,276.94c-20.16-6.46-33.96-14.08-46.68-25.1-15.06-13.06-26.7-24.38-32.92-41.75-13.98-39-14.01-69.37-8.04-94.98-.4,7.25-.51,14.73-.22,22.39.87,22.91,5.98,43.24,15.2,60.43,8.04,14.99,19.21,27.61,33.19,37.5,24.86,17.58,52.36,23.22,72.56,26.28,4.93.75,12.28,2.54,16.1,2.62l.15,26.89c-23.71-6.26-30.32-8.19-49.34-14.28Zm-12.29,63.19l64.33-14.51c1.23,4.24,5.34,16.22,13.44,19.52-45.42,9.91-69.14.14-77.78-5Zm136.38,74.99l-20.12-28.62-12.87-38.67s-11.15-17.63-16.59-21.8c-1.47-1.13-5.31-5.85-7.58-13.71l-.03-.11c6.7-.99,14.5.58,20.08,2.26,5.32,1.54,10.48,3.76,15.34,6.48,1.42,14.85,6.45,34.97,22.83,41.86,11.83,4.98,22.01,4.9,29.73,3.23l-23.48,26.37,41.11-17.53-32.45,77.76c-2.69-13.53-8.19-26.47-15.97-37.53Zm21.07-66.87c2.11,0,4.1-.55,5.86-1.52,6.49,3.63,12.05,4.61,13.82,4.84l-.18.15c-.12.1-.43.32-.9.63-5.24,2.11-21.86,7.67-33.06-1.4-13.81-11.19-3.54-31.15-3.54-31.15,0,0,1.37,4.13,6.13,10.5-.5,1.44-.79,2.99-.79,4.61,0,7.37,5.67,13.35,12.66,13.35Zm100.21,196.76l-11.83,7.47c-10.88,6.87-23.26,10.5-35.82,10.5s-24.94-3.63-35.82-10.5l-11.83-7.47c-.32-.2-.82-.93-.79-2.01l.08-2.43c1.06-.03,2.12-.1,3.17-.22l1.75-.21c8.6,4.9,24.29,11.93,43.44,11.93s34.66-7.07,43.09-11.97l2.1.25c1.05.12,2.11.19,3.17.22l.08,2.43c.04,1.08-.46,1.8-.79,2.01Zm-75.84-6.68l28.19-3.35,28.02,3.33c-7.55,3.01-17.18,5.6-28.02,5.6s-20.53-2.57-28.19-5.58Zm154.74-226c-2.27,7.85-6.11,12.58-7.58,13.71-5.44,4.16-16.59,21.8-16.59,21.8l-8.64,38.68-20.12,28.62c-7.82,11.12-13.33,24.15-16.01,37.76l-32.78-77.79,40.65,17.33-23.42-26.3c7.67,1.6,17.73,1.61,29.39-3.3,16.17-6.81,21.28-26.52,22.77-41.31,9.5-5.91,20.7-9.65,31.8-9.57.21,0,.42.02.63.03l-.1.36Zm-62.87,17.47c4.47-6.08,5.76-10,5.76-10,0,0,10.27,19.97-3.54,31.15-11.2,9.07-27.81,3.51-33.06,1.4-.47-.31-.77-.53-.9-.63l-.18-.15c1.95-.26,8.53-1.42,15.87-6.06,1.17.38,2.42.59,3.71.59,6.99,0,12.66-5.98,12.66-13.35,0-1.01-.12-2-.32-2.95Zm64.99-24.81c-13.81-3.88-30.3-3.11-44.94-.58-6.8.7-15.68,2.14-23.25,5.14-15.41,6.11-14.78,21.14-29.04,27.1-14.26,5.97-23.35,3.38-23.35,3.38l3.56,9.86,30.21,106.24-17.74,2.95c9.16,3.21,18.65,6.26,23.81,7.09,17.83,2.86,26.2,8.09,26.52,21.95l.37,15.65c.36,15.43-13.02,27.6-28.34,25.78l-23.71-2.82c-15.13-1.8-30.41-1.8-45.54,0l-23.71,2.82c-15.32,1.82-28.71-10.35-28.34-25.78l.37-15.65c.33-13.86,10.05-18.87,26.52-21.95,5.02-.94,14.46-3.95,23.67-7.11l-17.72-2.94,32.28-114.76.48-1.33s-9.09,2.59-23.35-3.38c-14.26-5.97-13.63-20.99-29.04-27.1-5.82-2.31-12.41-3.69-18.24-4.53-3.51-.59-7.03-1.1-10.53-1.53-10.83-1.36-29.05-2.25-42.22,2.24l.3-40.1c4.18-4.04,11.76-8.94,24.67-10.56,12.62-1.58,36.37,9.08,36.37,9.08,0,0-18.83-21.72-36.32-25.52,21.06-1.67,41.93-7.47,61-17.04,14.5-7.28,29.99-10.97,46.04-10.97h1.07c16.05,0,31.54,3.69,46.04,10.97,19.84,9.96,41.63,15.84,63.55,17.23-17.27,4.25-35.55,25.33-35.55,25.33,0,0,23.76-10.66,36.37-9.08,12.15,1.52,19.56,5.95,23.89,9.83l.1,14.07h0s-4.83,21.05-4.83,21.05l-1.44,4.98Zm81.29,35.15c-8.63,5.14-32.32,14.9-77.68,5,8.09-3.3,12.2-15.25,13.43-19.49l64.25,14.49Zm69.91-130.03c-6.23,17.37-17.86,28.69-32.92,41.75-12.72,11.02-26.52,18.64-46.68,25.1-19.01,6.09-25.63,8.02-49.34,14.28l.15-26.89c3.82-.08,11.17-1.87,16.1-2.62,20.19-3.06,47.7-8.7,72.56-26.28,13.98-9.89,25.15-22.51,33.19-37.5,9.22-17.19,14.33-37.52,15.2-60.43.29-7.66.18-15.14-.22-22.39,5.97,25.61,5.94,55.98-8.04,94.98Z"/>
    <path class="cls-1" d="m850.54,408.3c-.87,22.91-5.98,43.24-15.2,60.43-8.04,14.99-19.21,27.61-33.19,37.5-24.86,17.58-52.36,23.22-72.56,26.28-4.93.75-12.28,2.54-16.1,2.62l-.15,26.89c23.71-6.26,30.32-8.19,49.34-14.28,20.16-6.46,33.96-14.08,46.68-25.1,15.06-13.06,26.7-24.38,32.92-41.75,13.98-39,14.01-69.37,8.04-94.98.4,7.25.51,14.73.22,22.39Z"/>
    <path class="cls-1" d="m413.88,535.13c-3.82-.08-11.17-1.87-16.1-2.62-20.19-3.06-47.7-8.7-72.56-26.28-13.98-9.89-25.15-22.51-33.19-37.5-9.22-17.19-14.33-37.52-15.2-60.43-.29-7.66-.18-15.14.22-22.39-5.97,25.61-5.94,55.98,8.04,94.98,6.23,17.37,17.86,28.69,32.92,41.75,12.72,11.02,26.52,18.64,46.68,25.1,19.01,6.09,25.63,8.02,49.34,14.28l-.15-26.89Z"/>
    <path class="cls-3" d="m590.43,809.1l-28.02-3.33-28.19,3.35c7.66,3,17.36,5.58,28.19,5.58s20.48-2.59,28.02-5.6Z"/>
    <path class="cls-3" d="m697.35,549.75l-.1-14.07c-4.32-3.88-11.74-8.3-23.89-9.83-12.62-1.58-36.37,9.08-36.37,9.08,0,0,18.28-21.08,35.55-25.33-21.93-1.39-43.71-7.27-63.55-17.23-14.5-7.28-29.99-10.97-46.04-10.97h-1.07c-16.05,0-31.54,3.69-46.04,10.97-19.07,9.57-39.94,15.37-61,17.04,17.49,3.8,36.32,25.52,36.32,25.52,0,0-23.76-10.66-36.37-9.08-12.92,1.62-20.49,6.52-24.67,10.56l-.3,40.1c13.16-4.5,31.39-3.6,42.22-2.24,3.5.44,7.02.95,10.53,1.53,5.83.83,12.42,2.22,18.24,4.53,15.41,6.11,14.78,21.14,29.04,27.1,14.26,5.97,23.35,3.38,23.35,3.38l-.48,1.33-32.28,114.76,17.72,2.94c-9.21,3.16-18.65,6.17-23.67,7.11-16.48,3.09-26.2,8.09-26.52,21.95l-.37,15.65c-.36,15.43,13.02,27.6,28.34,25.78l23.71-2.82c15.13-1.8,30.41-1.8,45.54,0l23.71,2.82c15.32,1.82,28.71-10.35,28.34-25.78l-.37-15.65c-.33-13.86-8.69-19.09-26.52-21.95-5.16-.83-14.65-3.88-23.81-7.09l17.74-2.95-30.21-106.24-3.56-9.86s9.09,2.59,23.35-3.38c14.26-5.97,13.63-20.99,29.04-27.1,7.57-3,16.45-4.45,23.25-5.14,14.64-2.53,31.12-3.3,44.94.58l1.44-4.98,4.83-21.04h0Zm-148.75,46.66l-68.64-47.72,69.73,32.34-1.09,15.39Zm-11.75,190.94c.81-1.68,1.28-3.56,1.28-5.57,0-2.18-.54-4.22-1.49-6-.89,7.12-5.27,12.27-10.14,11.68-5.03-.61-8.69-7.13-8.3-14.66-2.28,2.25-3.71,5.43-3.71,8.97,0,2.47.7,4.76,1.89,6.69l-5.78.32s-23.89-51.78,7.23-36.39c31.12,15.38,37.83,33.92,37.83,33.92l-18.82,1.03Zm75.33-34.96c31.12-15.38,7.23,36.39,7.23,36.39l-5.78-.32c1.19-1.93,1.89-4.22,1.89-6.69,0-3.54-1.43-6.72-3.71-8.97.39,7.52-3.27,14.05-8.3,14.66-4.87.59-9.25-4.56-10.14-11.68-.94,1.78-1.49,3.82-1.49,6,0,2.01.47,3.89,1.28,5.57l-18.82-1.03s6.71-18.54,37.83-33.92Zm-36.66-155.99l-1.09-15.39,69.73-32.34-68.64,47.72Z"/>
    <path class="cls-3" d="m491.85,590.58s-10.27,19.97,3.54,31.15c11.2,9.07,27.82,3.51,33.06,1.4.46-.3.77-.53.9-.63l.18-.15c-1.76-.23-7.33-1.21-13.82-4.84-1.75.97-3.74,1.52-5.86,1.52-6.99,0-12.66-5.98-12.66-13.35,0-1.62.29-3.17.79-4.61-4.76-6.36-6.13-10.5-6.13-10.5Z"/>
    <path class="cls-3" d="m613.76,616.88c-1.29,0-2.54-.21-3.71-.59-7.34,4.64-13.92,5.8-15.87,6.06l.18.15c.12.1.43.32.9.63,5.24,2.11,21.86,7.67,33.06-1.4,13.81-11.19,3.54-31.15,3.54-31.15,0,0-1.29,3.92-5.76,10,.2.95.32,1.93.32,2.95,0,7.37-5.67,13.35-12.66,13.35Z"/>
    <path class="cls-2" d="m517.84,752.4c-31.12-15.38-7.23,36.39-7.23,36.39l5.78-.32c-1.19-1.93-1.89-4.22-1.89-6.69,0-3.54,1.43-6.72,3.71-8.97-.39,7.52,3.27,14.05,8.3,14.66,4.87.59,9.25-4.56,10.14-11.68.94,1.78,1.49,3.82,1.49,6,0,2.01-.47,3.89-1.28,5.57l18.82-1.03s-6.71-18.54-37.83-33.92Z"/>
    <path class="cls-2" d="m591.89,781.78c0-2.18.54-4.22,1.49-6,.89,7.12,5.27,12.27,10.14,11.68,5.03-.61,8.69-7.13,8.3-14.66,2.28,2.25,3.71,5.43,3.71,8.97,0,2.47-.7,4.76-1.89,6.69l5.78.32s23.89-51.78-7.23-36.39c-31.12,15.38-37.83,33.92-37.83,33.92l18.82,1.03c-.81-1.68-1.28-3.56-1.28-5.57Z"/>
    <polygon class="cls-2" points="548.6 596.41 549.7 581.03 479.97 548.69 548.6 596.41"/>
    <polygon class="cls-2" points="575.52 596.41 644.16 548.69 574.43 581.03 575.52 596.41"/>
  </g>
</svg>