<?xml version="1.0" encoding="UTF-8"?>
<svg id="PRIMARY" xmlns="http://www.w3.org/2000/svg" version="1.1" viewBox="0 0 1080 1080">
  <!-- Generator: Adobe Illustrator 30.1.0, SVG Export Plug-In . SVG Version: 2.1.1 Build 136)  -->
  <defs>
    <style>
      .st0 {
        fill: #fff;
      }
    </style>
  </defs>
  <g id="_1_COLOR_-_LIGHT">
    <path class="st0" d="M833.8,274c-7-13.7-13.1-25.5-15.4-36.3-1.3-6.2-6.5-10.5-12.7-10.5s-13.4,5.8-13.8,13.3c-.7,12.2,2.6,27,6.4,44.2.6,2.9,1.3,5.9,2,9-42.5-12.6-138-36.9-245.3-36.9s-197.9,23-241.8,35.9c.6-2.7,1.2-5.4,1.7-8,3.8-17.2,7-32,6.4-44.2-.4-7.4-6.5-13.3-13.8-13.3s-11.4,4.3-12.7,10.5c-2.3,10.8-8.4,22.6-15.4,36.3-19.5,37.9-46.1,89.9-16.5,172.7,4.1,11.6,9.7,21.9,16.1,31.1,3.7,59.2,16.8,117.2,39,173,21.4,53.8,51.6,104.6,89.6,150.9,64.6,78.7,129.8,117.3,132.5,118.9l14.8,8.6,14.8-8.6c2.7-1.6,67.8-40.1,132.5-118.9,38-46.3,68.1-97,89.5-150.9,21.6-54.2,34.5-110.6,38.7-168,8.5-11,15.2-23,19.9-36.1,29.7-82.8,3-134.7-16.5-172.7h0ZM840.3,443.1c-5.5,15.2-13.5,28.1-23.1,39-4.2,56.9-17.1,111.9-37.8,163.7-20.9,52.6-50.4,102.2-87.5,147.4-63.2,77-126.3,114.3-128.9,115.8l-8.1,4.7-8.1-4.7c-2.7-1.5-65.7-38.9-128.9-115.8-37.1-45.2-66.5-94.8-87.5-147.4-21.2-53.2-34.3-109.6-38.1-168.1-8-10-14.7-21.4-19.4-34.6-38.7-108,22.8-158.8,32.2-203.2.7-3.4,5.4-2.3,5.6,1.2.9,16.5-6.8,40.7-12,70,28.7-9.3,135.5-41,256.2-41s236.8,34.4,259.7,42c-5.1-29.7-13-54.3-12.1-71,.2-3.5,4.8-4.6,5.6-1.2,9.4,44.4,71,95.2,32.2,203.2h0Z"/>
    <path class="st0" d="M762.3,562.7c3.3-14.8,5.8-29.8,7.6-45-21.3,10.8-42.8,16.8-58.6,20.2l51,24.9h0Z"/>
    <path class="st0" d="M773.1,449.3v-1.4l-7.5-3.5c-3.4-1.6-85.5-39.4-211.5-39.4s-208.1,37.8-211.5,39.4l-5.7,2.7c34.6,22.9,79.1,21.2,88.3,20.6,1.8-4.9,6.2-8.4,11.4-8.4h1.9c22.7,0,45.1-5.4,65.7-15.7,15.5-7.8,32.7-12.1,50.7-12.1h1c18.1,0,35.3,4.3,50.7,12.1,20.6,10.3,43,15.7,65.7,15.7h1.9c5.3,0,9.8,3.6,11.5,8.7h.6s0,0,0,0c5.5.2,11,.3,16.4.2h0c17.5-.5,45.9-4.1,70.2-18.9h0Z"/>
    <path class="st0" d="M672.8,580.8l-14.3,41.2-20.7,29.4c-6.8,9.7-11.5,20.9-13.6,32.8l-.7,3.7c8.7,5.8,14.6,15.5,14.9,26.6l.4,15.2c.2,9.6-3.3,18.6-10,25.5-3.8,3.9-8.2,6.7-13.1,8.5v4c.3,5.6-2.3,10.8-6.8,13.6l-11.5,7.3c-12.7,8-27.2,12.3-41.9,12.3s-29.2-4.2-41.9-12.3l-11.5-7.3c-4.5-2.8-7.1-8-6.9-13.6v-4c-4.8-1.8-9.2-4.7-13-8.5-6.7-6.8-10.2-15.9-10-25.5l.4-15.2c.3-11.1,6.2-20.9,14.9-26.6l-.7-3.7c-2.2-11.9-6.8-23.1-13.6-32.8l-20.6-29.4-14.3-41.2c-18.4,4.3-33.8,6-46.7,6-19.5,0-33-3.8-41.5-7.5,4.6,17.7,10.3,35,17.1,52,17.5,43.9,42,85.2,73,122.9,52.7,64.2,105.3,95.3,107.6,96.6l6.7,3.9,6.7-3.9c2.2-1.3,54.8-32.4,107.5-96.6,31-37.7,55.5-79.1,73-122.9,6.6-16.6,12.2-33.5,16.7-50.7-8.6,3.3-21.1,6.3-38.5,6.3s-28.3-1.6-46.7-6h0Z"/>
    <path class="st0" d="M337.8,514.8c1.9,16.6,4.6,33,8.2,49.1l54.2-26.4c-17-3.7-40.1-10.5-62.4-22.7h0Z"/>
    <path class="st0" d="M350.9,368.9c7,12.6,10.5,19,17.5,31.8,6.1-1.8,9.2-2.6,15.3-4.2v-70.2c-6.1,1.6-9.2,2.4-15.2,4.2v37.1c-7.1-12.8-10.6-19.2-17.6-31.8-6,1.9-9.1,2.9-15.1,5v70.2c6-2.1,9-3,15.1-5v-37.1h0Z"/>
    <path class="st0" d="M437.8,370.7c-10.7,1.9-16,2.9-26.7,5.2v-14c7-1.5,10.5-2.2,17.5-3.6,1.1-5.8,1.7-8.8,2.8-14.6-8.2,1.5-12.2,2.3-20.3,4.1v-14c9.5-2.1,14.3-3,23.9-4.8,1.1-5.8,1.7-8.7,2.8-14.5-14.1,2.6-28,5.5-42,8.8v70.2c13-3.2,26.1-6,39.2-8.3,1.1-5.8,1.7-8.7,2.8-14.5h0Z"/>
    <path class="st0" d="M472.7,379.5c3-16.5,6-32.9,9-49.4,3,15.8,6,31.6,9,47.5,7.4-.7,11.1-1,18.6-1.5,3.8-23.6,7.6-47.3,11.4-70.9-6.3.3-9.4.5-15.6,1-1.9,14.6-3.9,29.2-5.8,43.8-2.5-14.2-4.9-28.5-7.4-42.7-8.1.8-12.1,1.2-20.1,2.2-2.5,14.7-5,29.5-7.5,44.2-1.9-14.1-3.8-28.3-5.7-42.5-6.2.9-9.3,1.4-15.5,2.4,3.8,22.8,7.5,45.6,11.3,68.5,7.3-1.1,11-1.6,18.4-2.5h0Z"/>
    <path class="st0" d="M569.1,374.7c6.3.1,9.4.2,15.7.5v-23.4c6.1-15.3,12.3-30.5,18.5-45.8-6.4-.5-9.6-.6-16-1-4.2,11.1-6.2,16.7-10.4,27.9-4.1-11.5-6.2-17.2-10.3-28.5-6.4-.1-9.6-.1-16.1,0,6.2,15.6,12.4,31.3,18.5,47v23.4h0Z"/>
    <path class="st0" d="M646.3,380.7c4.1-3,6.1-4.5,10.2-7.4v-52.7c-4.1-4.1-6.1-6.1-10.2-10.2-11.1-1.5-16.6-2.1-27.7-3.2-4.1,3.1-6.2,4.7-10.2,7.8v52.7c4.1,3.9,6.2,5.8,10.2,9.7,11.1,1,16.7,1.7,27.7,3.2ZM623.9,321.9c6.8.7,10.2,1.1,17,2v42.1c-6.8-.9-10.2-1.3-17-2v-42.1Z"/>
    <path class="st0" d="M683.4,365.4c3.5.7,5.2,1,8.6,1.7,3.3,9.3,4.9,13.9,8.2,23.2,6.4,1.4,9.7,2.2,16,3.7-3.7-10.5-5.5-15.8-9.2-26.3,2.8-1.8,4.2-2.7,7.1-4.5v-31.3c-4-4.5-6-6.7-10.1-11.1-14.4-3.3-21.7-4.7-36.2-7.2v70.2c6.2,1,9.3,1.6,15.5,2.8v-21.5ZM683.4,330.6c6.2,1.2,9.3,1.8,15.4,3.2v20.7c-6.2-1.3-9.2-2-15.4-3.2v-20.7Z"/>
    <path class="st0" d="M741,373.2c2.4.7,3.5,1,5.9,1.7,4.4,12.3,6.6,18.4,11,30.8,6.4,2,9.7,3.1,16,5.3-4.9-13.5-9.8-27.1-14.8-40.6,5.5-12,8.3-18,13.8-30-6.4-2.2-9.7-3.2-16.2-5.3-4.4,10.1-6.6,15.2-11,25.5-1.9-.6-2.9-.9-4.8-1.4v-28.8c-6.1-1.7-9.1-2.6-15.2-4.2v70.2c6.1,1.6,9.2,2.4,15.2,4.2v-27.4h0Z"/>
    <path class="st0" d="M462.6,552.1c-4.7-2.6-9.8-4.8-14.9-6.3-5.5-1.6-13-3.2-19.5-2.2h0c2.2,7.8,5.9,12.3,7.4,13.5,5.3,4,16.1,21.2,16.1,21.2l12.5,37.6,19.6,27.8c7.6,10.8,12.9,23.4,15.5,36.5l31.6-75.7-40,17.1,22.8-25.7c-7.5,1.6-17.4,1.7-28.9-3.1-15.9-6.7-20.8-26.3-22.2-40.7h0Z"/>
    <path class="st0" d="M611.4,680.5c2.6-13.2,8-25.9,15.6-36.7l19.6-27.8,8.4-37.6s10.8-17.2,16.1-21.2c1.4-1.1,5.2-5.7,7.4-13.3v-.3c-.1,0-.3,0-.5,0-10.8,0-21.7,3.6-30.9,9.3-1.5,14.4-6.4,33.6-22.2,40.2-11.3,4.8-21.1,4.8-28.6,3.2l22.8,25.6-39.5-16.9,31.9,75.7h0Z"/>
    <path class="st0" d="M511.4,765.6c-1,.1-2,.2-3.1.2v2.4c-.1,1,.4,1.8.7,2l11.5,7.3c10.6,6.7,22.6,10.2,34.8,10.2s24.3-3.5,34.8-10.2l11.5-7.3c.3-.2.8-.9.8-2v-2.4c-1.1,0-2.1,0-3.2-.2l-2-.2c-8.2,4.8-23.3,11.7-41.9,11.7s-33.9-6.8-42.3-11.6l-1.7.2h0Z"/>
    <path class="st0" d="M413.6,556.7l-62.6,14.1c8.4,5,31.5,14.5,75.7,4.9-7.9-3.2-11.9-14.9-13.1-19Z"/>
    <path class="st0" d="M684.1,575.6c44.1,9.6,67.2.1,75.6-4.9l-62.5-14.1c-1.2,4.1-5.2,15.8-13.1,19h0Z"/>
    <path class="st0" d="M835.7,373.6c-.8,22.3-5.8,42.1-14.8,58.8-7.8,14.6-18.7,26.9-32.3,36.5-24.2,17.1-51,22.6-70.6,25.6-4.8.7-12,2.5-15.7,2.5v26.2c22.9-6.1,29.4-8,47.9-13.9,19.6-6.3,33-13.7,45.4-24.4,14.7-12.7,26-23.7,32-40.6,13.6-38,13.6-67.5,7.8-92.4.4,7.1.5,14.3.2,21.8h0Z"/>
    <path class="st0" d="M411,523.2v-26.2c-3.9,0-11-1.8-15.8-2.5-19.6-3-46.4-8.5-70.6-25.6-13.6-9.6-24.5-21.9-32.3-36.5-9-16.7-14-36.5-14.8-58.8-.3-7.5-.2-14.7.2-21.8-5.8,24.9-5.8,54.5,7.8,92.4,6.1,16.9,17.4,27.9,32,40.6,12.4,10.7,25.8,18.1,45.4,24.4,18.5,5.9,24.9,7.8,48,13.9h0Z"/>
    <path class="st0" d="M582.6,763.6l-27.3-3.2-27.4,3.3c7.5,2.9,16.9,5.4,27.4,5.4s19.9-2.5,27.3-5.5Z"/>
    <path class="st0" d="M682,531.7l4.7-20.5h0v-13.7c-4.3-3.8-11.5-8.1-23.3-9.6-12.3-1.5-35.4,8.8-35.4,8.8,0,0,17.8-20.5,34.6-24.6-21.3-1.4-42.5-7.1-61.8-16.8-14.1-7.1-29.2-10.7-44.8-10.7h-1c-15.6,0-30.7,3.6-44.8,10.7-18.6,9.3-38.9,15-59.4,16.6,17,3.7,35.3,24.8,35.3,24.8,0,0-23.1-10.4-35.4-8.8-12.6,1.6-19.9,6.4-24,10.3l-.3,39c12.8-4.4,30.5-3.5,41.1-2.2,3.4.4,6.9.9,10.4,1.5,5.6.8,12,2.2,17.6,4.4,15,6,14.4,20.6,28.3,26.4s22.7,3.3,22.7,3.3l-.5,1.3-31.4,111.7,17.2,2.9c-9,3.1-18.2,6-23,6.9-16,3-25.5,7.9-25.8,21.4l-.4,15.2c-.4,15,12.7,26.8,27.6,25.1l23.1-2.7c14.7-1.8,29.6-1.8,44.3,0l23.1,2.7c14.9,1.8,27.9-10.1,27.6-25.1l-.4-15.2c-.3-13.5-8.5-18.6-25.8-21.4-5-.8-14.2-3.8-23.2-6.9l17.3-2.9-29.4-103.4-3.5-9.6s8.8,2.5,22.7-3.3c13.9-5.8,13.3-20.4,28.3-26.4,7.4-2.9,16-4.3,22.6-5,14.2-2.5,30.3-3.2,43.7.6l1.4-4.8h0ZM541.9,556.7l-66.8-46.4,67.8,31.5-1.1,15h0ZM530.5,742.4c.8-1.6,1.2-3.5,1.2-5.4s-.5-4.1-1.5-5.8c-.9,6.9-5.1,11.9-9.9,11.4-4.9-.6-8.5-6.9-8.1-14.3-2.2,2.2-3.6,5.3-3.6,8.7s.7,4.6,1.8,6.5l-5.6.3s-23.2-50.4,7-35.4c30.3,15,36.8,33,36.8,33l-18.3,1h0ZM603.8,708.4c30.3-15,7,35.4,7,35.4l-5.6-.3c1.2-1.9,1.8-4.1,1.8-6.5,0-3.4-1.4-6.5-3.6-8.7.4,7.3-3.2,13.7-8.1,14.3-4.7.6-9-4.4-9.9-11.4-.9,1.7-1.5,3.7-1.5,5.8s.5,3.8,1.2,5.4l-18.3-1s6.5-18,36.8-33h0ZM568.1,556.7l-1.1-15,67.8-31.5-66.8,46.4h0Z"/>
    <path class="st0" d="M486.7,551s-10,19.4,3.5,30.3c10.9,8.8,27.1,3.4,32.2,1.4.5-.3.8-.6.9-.7h.1c-1.7-.3-7.1-1.3-13.5-4.8-1.7.9-3.6,1.5-5.7,1.5-6.8,0-12.3-5.8-12.3-13s.3-3.1.8-4.5c-4.6-6.2-6-10.2-6-10.2h0Z"/>
    <path class="st0" d="M605.3,576.6c-1.3,0-2.5-.2-3.6-.6-7.1,4.5-13.5,5.7-15.4,5.9l.2.2c0,0,.3.3.8.6,5.1,2,21.3,7.5,32.2-1.3,13.4-10.9,3.5-30.3,3.5-30.3,0,0-1.3,3.8-5.6,9.7.2.9.3,1.9.3,2.9,0,7.2-5.5,13-12.3,13h0Z"/>
  </g>
</svg>