<?xml version="1.0" encoding="UTF-8"?>
<svg id="PRIMARY" xmlns="http://www.w3.org/2000/svg" version="1.1" viewBox="0 0 1080 1080">
  <!-- Generator: Adobe Illustrator 30.1.0, SVG Export Plug-In . SVG Version: 2.1.1 Build 136)  -->
  <g id="_1_COLOR_-_DARK">
    <path d="M698.9,333.8c-6.2-1.3-9.2-2-15.4-3.2v20.7c6.2,1.2,9.3,1.8,15.4,3.2v-20.7Z"/>
    <path d="M640.9,323.8c-6.8-.9-10.2-1.3-17-2v42.1c6.8.7,10.2,1.1,17,2v-42.1Z"/>
    <path d="M808.1,239.8c-.7-3.4-5.4-2.3-5.6,1.2-.9,16.7,7,41.3,12.1,71-23-7.6-134-42-259.7-42s-227.5,31.7-256.2,41c5.1-29.2,12.9-53.5,12-70-.2-3.5-4.9-4.6-5.6-1.2-9.4,44.4-71,95.2-32.2,203.2,4.7,13.2,11.5,24.7,19.4,34.6,3.8,58.5,16.9,114.9,38.1,168.1,20.9,52.6,50.4,102.2,87.5,147.4,63.2,77,126.3,114.3,128.9,115.8l8.1,4.7,8.1-4.7c2.7-1.5,65.7-38.9,128.9-115.8,37.1-45.2,66.5-94.8,87.5-147.4,20.7-51.9,33.6-106.8,37.8-163.7,9.6-10.9,17.7-23.8,23.1-39,38.7-108-22.8-158.8-32.2-203.2h0ZM725.8,326.2c6.1,1.6,9.2,2.4,15.2,4.2v28.8c1.9.5,2.9.8,4.8,1.4,4.4-10.2,6.6-15.3,11-25.5,6.5,2,9.7,3.1,16.2,5.3-5.5,11.9-8.3,17.9-13.8,30,5,13.5,9.9,27,14.8,40.6-6.4-2.2-9.6-3.2-16-5.3-4.4-12.3-6.6-18.5-11-30.8-2.4-.7-3.5-1-5.9-1.7v27.4c-6.1-1.7-9.1-2.6-15.2-4.2v-70.2h0ZM686.5,468h-.7c-1.7-5-6.2-8.7-11.5-8.7h-1.9c-22.7,0-45.1-5.4-65.7-15.7-15.5-7.8-32.7-12.1-50.7-12.1h-1c-18.1,0-35.3,4.3-50.7,12.1-20.6,10.3-43,15.7-65.7,15.7h-1.9c-5.2,0-9.6,3.5-11.4,8.4-9.2.6-53.7,2.3-88.3-20.6l5.7-2.7c3.4-1.6,85.5-39.4,211.5-39.4s208.1,37.8,211.5,39.4l7.5,3.5v1.4c-24.3,14.8-52.7,18.4-70.2,19h0c-5.5,0-11,0-16.4-.3h0ZM617.4,560.7c4.3-5.9,5.6-9.7,5.6-9.7,0,0,10,19.4-3.5,30.3-10.9,8.8-27.1,3.4-32.2,1.3-.5-.3-.8-.5-.8-.6l-.2-.2c1.9-.2,8.3-1.4,15.4-5.9,1.1.4,2.3.6,3.6.6,6.8,0,12.3-5.8,12.3-13s-.1-1.9-.3-2.9h0ZM619.1,621.7l-22.8-25.6c7.5,1.6,17.2,1.6,28.6-3.2,15.7-6.6,20.7-25.8,22.2-40.2,9.2-5.8,20.1-9.4,30.9-9.3.2,0,.4,0,.6,0v.3c-2.3,7.6-6,12.2-7.5,13.3-5.3,4-16.1,21.2-16.1,21.2l-8.4,37.6-19.6,27.8c-7.6,10.8-13,23.5-15.6,36.7l-31.9-75.7,39.5,16.9h0ZM636.9,536c-6.6.7-15.3,2.1-22.6,5-15,6-14.4,20.6-28.3,26.4s-22.7,3.3-22.7,3.3l3.5,9.6,29.4,103.4-17.3,2.9c8.9,3.1,18.2,6.1,23.2,6.9,17.3,2.8,25.5,7.9,25.8,21.4l.4,15.2c.3,15-12.7,26.8-27.6,25.1l-23.1-2.7c-14.7-1.8-29.6-1.8-44.3,0l-23.1,2.7c-14.9,1.8-27.9-10.1-27.6-25.1l.4-15.2c.3-13.5,9.8-18.4,25.8-21.4,4.9-.9,14.1-3.8,23-6.9l-17.2-2.9,31.4-111.7.5-1.3s-8.8,2.5-22.7-3.3c-13.9-5.8-13.3-20.4-28.3-26.4-5.6-2.2-12-3.6-17.6-4.4-3.5-.6-6.9-1.1-10.4-1.5-10.5-1.3-28.3-2.2-41.1,2.2l.3-39c4.1-3.9,11.4-8.7,24-10.3,12.3-1.5,35.4,8.8,35.4,8.8,0,0-18.3-21.1-35.3-24.8,20.5-1.6,40.8-7.3,59.4-16.6,14.1-7.1,29.2-10.7,44.8-10.7h1c15.6,0,30.7,3.6,44.8,10.7,19.3,9.7,40.5,15.4,61.8,16.8-16.8,4.1-34.6,24.6-34.6,24.6,0,0,23.1-10.4,35.4-8.8,11.8,1.5,19,5.8,23.2,9.6v13.7h0l-4.7,20.5-1.4,4.8c-13.5-3.8-29.5-3-43.7-.6h0ZM555.4,777c18.7,0,33.7-6.9,41.9-11.7l2,.2c1,.1,2,.2,3.1.2v2.4c.1,1-.4,1.8-.7,2l-11.5,7.3c-10.6,6.7-22.6,10.2-34.8,10.2s-24.3-3.5-34.8-10.2l-11.5-7.3c-.3-.2-.8-.9-.8-2v-2.4c1.1,0,2.1,0,3.2-.2l1.7-.2c8.4,4.8,23.6,11.6,42.3,11.6h0ZM528,763.6l27.4-3.3,27.3,3.2c-7.3,2.9-16.7,5.5-27.3,5.5s-20-2.5-27.4-5.4ZM504.2,578.7c2.1,0,4-.5,5.7-1.5,6.3,3.5,11.7,4.5,13.4,4.7h-.1c0,.2-.4.4-.9.8-5.1,2-21.3,7.5-32.2-1.4-13.4-10.9-3.5-30.3-3.5-30.3,0,0,1.3,4,6,10.2-.5,1.4-.8,2.9-.8,4.5,0,7.2,5.5,13,12.3,13h0ZM484.8,592.9c11.5,4.8,21.4,4.8,28.9,3.1l-22.9,25.7,40-17.1-31.6,75.7c-2.6-13.2-8-25.8-15.5-36.5l-19.6-27.8-12.5-37.6s-10.9-17.2-16.1-21.2c-1.4-1.1-5.2-5.7-7.4-13.3h0c6.5-1.1,14.1.5,19.5,2.1,5.2,1.5,10.2,3.7,14.9,6.3,1.4,14.5,6.3,34,22.2,40.7h0ZM426.7,575.7c-44.2,9.6-67.3.1-75.7-4.9l62.6-14.1c1.2,4.1,5.2,15.8,13.1,19ZM668,313.8c14.5,2.5,21.8,3.9,36.2,7.2,4,4.4,6,6.6,10.1,11.1v31.3c-2.8,1.8-4.2,2.6-7.1,4.5,3.7,10.5,5.5,15.7,9.2,26.3-6.4-1.6-9.6-2.3-16-3.7-3.3-9.3-4.9-14-8.2-23.2-3.4-.7-5.2-1.1-8.6-1.7v21.5c-6.2-1.2-9.3-1.8-15.5-2.8v-70.2ZM608.3,315.1c4.1-3.2,6.2-4.7,10.2-7.8,11.1,1,16.7,1.7,27.7,3.2,4.1,4,6.1,6.1,10.2,10.2v52.7c-4.1,2.9-6.1,4.4-10.2,7.4-11.1-1.5-16.6-2.1-27.7-3.2-4.1-3.9-6.2-5.9-10.2-9.7v-52.7ZM566.6,304.4c4.1,11.4,6.2,17.1,10.3,28.5,4.2-11.2,6.2-16.8,10.4-27.9,6.4.3,9.6.5,16,1-6.2,15.2-12.3,30.5-18.5,45.8v23.4c-6.3-.3-9.4-.4-15.7-.5v-23.4c-6.1-15.7-12.3-31.3-18.5-47,6.4,0,9.7,0,16.1,0h0ZM458.5,311.2c1.9,14.1,3.8,28.3,5.7,42.5,2.5-14.7,5-29.5,7.5-44.2,8-1,12.1-1.4,20.1-2.2,2.5,14.2,4.9,28.5,7.4,42.7,1.9-14.6,3.9-29.2,5.8-43.8,6.2-.5,9.4-.7,15.6-1-3.8,23.6-7.6,47.3-11.4,70.9-7.4.5-11.1.8-18.6,1.5-3-15.8-6-31.6-9-47.5-3,16.5-6,32.9-9,49.4-7.4.9-11,1.4-18.4,2.5-3.8-22.8-7.5-45.6-11.3-68.4,6.2-1,9.3-1.5,15.5-2.4h0ZM395.8,323.3c14-3.2,27.9-6.1,42-8.8-1.1,5.8-1.7,8.7-2.8,14.5-9.6,1.7-14.3,2.7-23.9,4.8v14c8.1-1.8,12.2-2.6,20.3-4.1-1.1,5.8-1.7,8.7-2.8,14.6-7,1.3-10.5,2-17.5,3.6v14c10.6-2.3,16-3.4,26.7-5.2-1.1,5.8-1.7,8.7-2.8,14.5-13.1,2.3-26.3,5.1-39.2,8.3v-70.2h0ZM335.9,340.7c6-2.1,9-3,15.1-5,7,12.6,10.5,19,17.6,31.8v-37.1c6.1-1.7,9.1-2.6,15.2-4.2v70.2c-6.1,1.6-9.2,2.5-15.3,4.2-7-12.8-10.5-19.2-17.5-31.8v37.1c-6,1.9-9.1,2.9-15.1,5v-70.2h0ZM317.6,484.9c-14.7-12.7-26-23.7-32-40.6-13.6-38-13.6-67.5-7.8-92.4-.4,7.1-.5,14.3-.2,21.8.8,22.3,5.8,42.1,14.8,58.8,7.8,14.6,18.7,26.9,32.3,36.5,24.2,17.1,51,22.6,70.6,25.6,4.8.7,12,2.5,15.7,2.5v26.2c-22.9-6.1-29.4-8-47.9-13.9-19.6-6.3-33-13.7-45.4-24.4h0ZM337.8,514.8c22.3,12.2,45.4,19,62.4,22.7l-54.2,26.4c-3.6-16.1-6.4-32.5-8.2-49.1h0ZM741.2,631.2c-17.5,43.9-42,85.2-73,122.9-52.7,64.2-105.3,95.3-107.5,96.6l-6.7,3.9-6.7-3.9c-2.2-1.3-54.8-32.4-107.5-96.6-31-37.7-55.5-79.1-73-122.9-6.8-17-12.4-34.3-17.1-52,8.6,3.8,22,7.5,41.5,7.5s28.3-1.6,46.7-6l14.3,41.2,20.6,29.4c6.8,9.7,11.5,20.9,13.6,32.8l.7,3.7c-8.7,5.8-14.6,15.5-14.9,26.6l-.4,15.2c-.2,9.6,3.3,18.6,10,25.5,3.8,3.9,8.2,6.7,13.1,8.5v4c-.3,5.6,2.4,10.8,6.8,13.6l11.5,7.3c12.7,8,27.2,12.3,41.9,12.3s29.2-4.2,41.9-12.3l11.5-7.3c4.5-2.8,7.1-8,6.9-13.6v-4c4.8-1.8,9.2-4.7,13-8.5,6.7-6.8,10.2-15.9,10-25.5l-.4-15.2c-.3-11.1-6.2-20.9-14.9-26.6l.7-3.7c2.2-11.9,6.8-23.1,13.6-32.8l20.7-29.4,14.3-41.2c18.4,4.3,33.8,6,46.7,6s29.9-3,38.5-6.3c-4.6,17.2-10.1,34.2-16.7,50.7h0ZM684.1,575.6c7.9-3.2,11.9-14.8,13.1-19l62.5,14.1c-8.4,5-31.4,14.5-75.6,4.9h0ZM762.3,562.7l-51-24.9c15.8-3.3,37.3-9.4,58.6-20.2-1.8,15.2-4.3,30.2-7.6,45h0ZM827.7,444.3c-6.1,16.9-17.4,27.9-32,40.6-12.4,10.7-25.8,18.1-45.4,24.4-18.5,5.9-24.9,7.8-48,13.9v-26.2c3.9,0,11-1.8,15.8-2.5,19.7-3,46.4-8.5,70.6-25.6,13.6-9.6,24.5-21.9,32.3-36.5,9-16.7,14-36.5,14.8-58.8.3-7.5.2-14.7-.2-21.8,5.8,24.9,5.8,54.5-7.8,92.4h0Z"/>
    <path d="M512,708.4c-30.3-15-7,35.4-7,35.4l5.6-.3c-1.2-1.9-1.8-4.1-1.8-6.5,0-3.4,1.4-6.5,3.6-8.7-.4,7.3,3.2,13.7,8.1,14.3,4.7.6,9-4.4,9.9-11.4.9,1.7,1.5,3.7,1.5,5.8s-.5,3.8-1.2,5.4l18.3-1s-6.5-18-36.8-33h0Z"/>
    <path d="M584.1,737c0-2.1.5-4.1,1.5-5.8.9,6.9,5.1,11.9,9.9,11.4,4.9-.6,8.5-6.9,8.1-14.3,2.2,2.2,3.6,5.3,3.6,8.7s-.7,4.6-1.8,6.5l5.6.3s23.2-50.4-7-35.4c-30.3,15-36.8,33-36.8,33l18.3,1c-.8-1.6-1.2-3.5-1.2-5.4h0Z"/>
    <polygon points="542 556.7 543 541.7 475.2 510.2 542 556.7"/>
    <polygon points="568.1 556.7 634.9 510.2 567.1 541.7 568.1 556.7"/>
  </g>
</svg>