<?xml version="1.0" encoding="UTF-8"?>
<svg id="Layer_1" xmlns="http://www.w3.org/2000/svg" version="1.1" viewBox="0 0 915.46 1080">
  <!-- Generator: Adobe Illustrator 30.1.0, SVG Export Plug-In . SVG Version: 2.1.1 Build 136)  -->
  <defs>
    <style>
      .st0 {
        fill: #fff;
      }
    </style>
  </defs>
  <path class="st0" d="M560.07,285.51l-11.45,38.9h72.76l-9.35-32.18v-26.32h106.9c39.89,0,72.36-32.45,72.36-72.35v-29.76c0-39.89-32.46-72.35-72.36-72.35h-182.13l23.27,40.28v153.77ZM704.06,150.66c15.46,0,28.03,12.57,28.03,28.03s-12.57,28.03-28.02,28.03h-84.79v-30.74l-10.96-25.31h95.74Z"/>
  <polygon class="st0" points="619.28 740.68 619.28 585.14 537.68 585.14 560.07 631.44 560.07 799.89 744.85 799.89 762.54 728.51 721.16 740.68 619.28 740.68"/>
  <polygon class="st0" points="619.28 505.31 619.28 349.77 537.68 349.77 560.07 396.07 560.07 564.52 757.41 564.52 775.1 493.14 733.72 505.31 619.28 505.31"/>
  <path class="st0" d="M0,0l17.56,819.32,440.17,260.68,440.17-260.68L915.46,0H0ZM51.85,50.75h144.38l84.58,49.36c-34.44,15.07-63.4,36.78-89.16,66.05L52.58,85.01l-.73-34.26ZM53.86,144.51l106.35,62.06c-25.23,37.24-35.94,68.8-37.78,96.04l-66.01-38.52-2.56-119.58ZM57.7,323.59l78.4,45.75c8.56,17.6,19.76,32.91,29.93,46.79,3.83,5.22,7.63,10.4,11.18,15.57,33.2,48.31,59.49,91.61,75.71,123.91l-192.66-112.43-2.56-119.58ZM61.53,502.69l209.62,122.33.67,118.47-207.72-121.22-2.56-119.58ZM67.69,790.03l-2.32-108.25,217.39,126.87c1.71,4.78,3.6,9.42,5.73,13.85,8.34,17.33,18.37,31.14,30.65,42.23,27.01,24.39,59.68,34.29,83.65,38.29l8.51,90.51-343.61-203.5ZM432.36,195.86c-17.95,1.69-35.86,5.23-53.03,11.25-21.63,7.52-41.85,18.87-59.43,32.84-28.37,22.54-49.63,50.67-67.22,80.01l15.14,26.02c20.41-30.61,44.01-58.66,72.79-77.96,27.39-18.76,59.11-27.97,91.75-28.88v54.59c-10.29,2.28-20.28,5.52-29.65,9.77-17.17,7.73-32.46,18.2-45.97,30-22.96,20.19-40.96,44.03-55.87,69.3l14.74,25.34c17.25-26.34,38.12-50.37,62.43-68.19,16.8-12.41,35.41-21.21,54.32-25.06v522.07h-.51c-11.36-.19-50.56-2.75-78.3-27.98-4.4-4.01-8.1-8.81-11.13-12.97-9.93-13.62-16.16-31.12-18.5-51.99l-.27-2.36c-.6-5.19-1.17-10.09-1.2-15.42l-.79-140.83c-.2-34.64-34.59-102.13-102.24-200.59-3.82-5.58-7.9-11.14-12.04-16.79-34.64-47.24-64.54-88.05,20.16-187.35,46.83-54.89,105.7-77.82,204.21-79.13h.62v74.31ZM432.36,72.84l-7.56-.03-6.37.07v.19c-25.75.82-49.28,3.18-70.99,7.16l-50.51-29.48h135.43v22.09ZM847.77,790.03l-364.66,215.97V50.75h380.5l-15.84,739.28Z"/>
</svg>