<?xml version="1.0" encoding="UTF-8"?>
<svg id="Layer_2" xmlns="http://www.w3.org/2000/svg" xmlns:xlink="http://www.w3.org/1999/xlink" viewBox="0 0 100.74 144.7">
  <defs>
    <style>
      .cls-1 {
        fill: none;
      }

      .cls-2 {
        fill: #ffce00;
      }

      .cls-3 {
        clip-path: url(#clippath-1);
      }

      .cls-4 {
        clip-path: url(#clippath-3);
      }

      .cls-5 {
        clip-path: url(#clippath-2);
      }

      .cls-6 {
        fill: #fff;
      }

      .cls-7 {
        opacity: .3;
      }

      .cls-8 {
        clip-path: url(#clippath);
      }
    </style>
    <clipPath id="clippath">
      <rect class="cls-1" x="0" width="100.74" height="144.7"/>
    </clipPath>
    <clipPath id="clippath-1">
      <rect class="cls-1" x="0" width="100.74" height="144.7"/>
    </clipPath>
    <clipPath id="clippath-2">
      <rect class="cls-1" x="0" y="0" width="100.74" height="144.7"/>
    </clipPath>
    <clipPath id="clippath-3">
      <rect class="cls-1" x="81.82" y="57.94" width="0" height="0"/>
    </clipPath>
  </defs>
  <g id="PAGE3">
    <g id="WLL_x5F_MARYLAND_x5F_ICON_x5F_1C_x5F_Lt">
      <g class="cls-8">
        <g class="cls-3">
          <g class="cls-5">
            <path class="cls-6" d="M41.08,104.62c-.09-.02-.17-.03-.26-.05-.24-.04-.48-.09-.72-.14-.1-.02-.21-.04-.31-.06-.3-.06-.6-.13-.89-.2-.09-.02-.17-.04-.26-.06-.24-.06-.49-.12-.73-.18-.09-.02-.17-.04-.26-.07-.3-.08-.6-.16-.89-.24-.08-.02-.16-.05-.25-.07-.26-.07-.51-.15-.76-.23-.06-.02-.13-.04-.19-.06-.3-.1-.6-.2-.89-.3-.08-.03-.15-.05-.23-.08-.27-.1-.54-.19-.81-.3-.04-.01-.07-.03-.11-.04-.3-.11-.59-.23-.88-.35-.07-.03-.14-.06-.21-.09-.3-.12-.59-.25-.88-.38-.34-.15-.68-.31-1.01-.47-.1-.05-.2-.1-.3-.15-.23-.11-.46-.23-.69-.35-.11-.06-.22-.12-.33-.18-.21-.11-.43-.23-.64-.35-.11-.06-.22-.13-.33-.19-.21-.12-.42-.24-.62-.36-.11-.07-.22-.13-.33-.2-.2-.13-.41-.25-.61-.38-.11-.07-.21-.14-.31-.21-.2-.13-.4-.26-.6-.4-.1-.07-.2-.14-.3-.21-.2-.14-.39-.28-.58-.42-.1-.07-.2-.15-.3-.22-.19-.14-.38-.29-.56-.43-.03-.03-.07-.05-.1-.08l-.25.21-2.96,2.51s.06.06.09.08c.2.19.42.38.66.59.07.06.14.12.21.18.22.18.45.38.71.57,1.69,1.32,3.39,2.32,4.56,2.67l.08.02.08.03c.55.21,1.11.39,1.68.54.38.1.77.2,1.17.28.2.04.4.08.59.12.4.07.8.13,1.21.18.03,0,.05,0,.08,0,.38.05.76.09,1.14.13,1.5.17,2.93.29,4.26.37.19.01.37.02.56.03,1.1.06,2.13.09,3.1.09.08,0,.16,0,.24,0,.31,0,.6,0,.87-.01.2,0,.39-.01.57-.02v-.87c-.08-.01-.16-.02-.23-.04-.11-.02-.22-.03-.34-.05-.3-.05-.6-.1-.9-.15"/>
            <path class="cls-6" d="M58.75,85.28c.14,0,.27.02.41.02.07,0,.14,0,.21,0,.1,0,.21,0,.31,0,.18,0,.37,0,.56,0,.6,0,1.22-.02,1.83-.06,1.76-.12,3.08-.28,4.15-.52.68-.16,1.71-.47,2.8-1.03,1.1-.63,2.21-1.6,3.78-3.29.58-.89,1.01-1.9,1.29-3.02.47-1.93-.07-4.04-1.61-6.3-.35-.41-.73-.82-1.14-1.25-.62-.66-1.26-1.35-1.84-2.09l-1.42-1.82s-.1.05-.15.08c0,0,0,0,0,0-.05.03-.1.05-.15.08,0,0,0,0,0,0-.05.02-.1.05-.15.07,0,0,0,0,0,0-.05.02-.1.05-.15.07,0,0,0,0-.01,0-.05.02-.1.04-.15.07,0,0-.01,0-.02,0-.05.02-.1.04-.15.06,0,0-.02,0-.03.01-.05.02-.1.04-.15.06-.01,0-.02,0-.03.01-.05.02-.1.04-.15.06-.01,0-.03,0-.04.01-.05.02-.1.04-.15.05-.02,0-.03.01-.05.02-.05.02-.1.03-.15.05-.02,0-.04.01-.05.02-.05.02-.1.03-.15.05-.02,0-.04.01-.06.02-.05.01-.1.03-.15.04-.02,0-.04.01-.07.02-.05.01-.1.03-.15.04-.02,0-.05.01-.07.02-.05.01-.11.03-.16.04-.02,0-.05.01-.07.02-.06.01-.12.03-.18.04-.02,0-.04.01-.06.02-.08.02-.16.04-.25.06-.34.07-.7.14-1.09.21-.65.11-1.39.21-2.22.29l-.77.08c-.34.49-.73,1-1.17,1.51,0,0,0,0,0,0-.44.51-.94,1.02-1.51,1.5h0v14.57c.16.01.31.02.47.03.03,0,.06,0,.09,0"/>
            <path class="cls-6" d="M36.98,48.56c-.02.07-.03.13-.05.2-.02.11-.05.22-.07.33-.02.07-.03.15-.05.22-.02.1-.04.21-.06.31-.01.08-.03.15-.04.23-.02.1-.04.21-.05.31-.01.08-.02.15-.04.23-.02.11-.03.22-.05.33-.01.07-.02.14-.03.22-.02.12-.03.25-.05.37,0,.06-.02.12-.02.18-.02.19-.04.37-.06.56-.43,4.93.03,9.94,1.35,14.5.08.26.16.53.24.79.03.08.05.17.08.25.06.18.12.36.18.53.03.1.07.19.1.29.06.17.12.33.18.5.03.09.07.18.1.27.08.2.15.4.23.6.03.08.06.15.09.23.09.21.17.42.26.62.05.11.09.21.14.31.06.13.12.27.18.4.05.12.11.23.16.34.06.12.11.24.17.35.06.12.12.24.18.35.06.11.11.22.17.33.12.23.25.47.38.69.05.08.09.17.14.25.08.13.15.26.23.39.05.08.1.16.15.25.08.13.16.26.24.39.05.08.1.15.14.22.09.13.17.27.26.4.04.05.07.11.11.16.22.32.44.63.66.94v-28.37h-5.44s0,0,0,0c-.04.16-.08.33-.12.5"/>
            <path class="cls-6" d="M76.85,98.29c-.16.11-.31.23-.47.34-.09.07-.19.13-.28.2-.15.1-.3.2-.45.3-.08.05-.17.11-.25.16-.2.13-.41.26-.61.39-.09.06-.19.11-.28.17-.15.09-.29.17-.44.26-.09.05-.18.1-.27.15-.21.12-.43.24-.64.35-.09.05-.18.1-.27.14-.15.08-.3.16-.46.23-.09.05-.19.09-.28.14-.22.11-.44.21-.66.32-.08.04-.16.07-.24.11-.16.07-.33.15-.5.22-.1.04-.19.08-.29.12-.19.08-.39.16-.59.24-.09.03-.18.07-.26.1-.2.08-.39.15-.59.22-.09.03-.19.07-.28.1-.18.06-.36.13-.55.19-.07.02-.14.05-.22.07-.24.08-.48.16-.73.23-.09.03-.18.05-.27.08-.18.05-.37.11-.55.16-.08.02-.16.05-.25.07-.25.07-.5.13-.75.2-.08.02-.16.04-.24.06-.2.05-.39.1-.59.14-.09.02-.17.04-.26.06-.26.06-.52.12-.79.17-.06.01-.12.02-.18.04-.22.04-.44.09-.66.13-.09.02-.17.03-.26.05-.25.05-.5.09-.76.13-.03,0-.06.01-.1.02-.27.05-.55.09-.83.13-.09.01-.17.03-.26.04-.23.03-.47.07-.7.1-.06,0-.12.02-.18.02-.29.04-.57.07-.86.1-.08,0-.16.02-.25.03-.11.01-.22.02-.33.04v.91c.06,0,.12,0,.18,0s.12,0,.19,0c.39.01.82.02,1.31.02.96,0,2-.03,3.1-.09,1.47-.08,3.05-.21,4.74-.4.42-.05.85-.1,1.29-.15.2-.02.41-.05.61-.08.4-.06.8-.13,1.2-.22.2-.04.39-.09.59-.13.78-.19,1.53-.42,2.26-.69l.08-.03.08-.02c.92-.28,2.17-.95,3.48-1.87.36-.25.72-.51,1.08-.8.17-.13.33-.26.48-.39.31-.25.58-.49.83-.72.12-.11.24-.22.35-.33l-2.46-2.09c-.14.11-.27.21-.41.31-.1.08-.2.15-.31.23"/>
            <path class="cls-6" d="M100.31,82.14l-1.84-14.26-6.42,8.98c-.05-.42-.11-.84-.19-1.26-.57-3.11-1.83-5.88-3.75-8.24-1.7-2.09-3.88-3.8-6.49-5.12.87-.56,1.63-1.21,2.29-1.94l1.02-1.37s.03-.05.05-.08c.4-.66.72-1.37.95-2.1.29-.21.57-.43.85-.66l1.86-1.73c1.43-1.5,2.63-3.19,3.57-5.05.34-.68.65-1.38.92-2.09.74-1.43,1.14-3.03,1.17-4.65.42-3.21.09-6.41-.99-9.51-1.05-3.03-2.75-5.66-5.04-7.83-2.24-2.12-5.06-3.81-8.39-5.02-3.53-1.28-7.71-2.07-12.71-2.38.05-.99,0-1.99-.13-2.99-.42-3.11-1.69-6.15-3.8-9.02l-.06-.09-.07-.09c-2.34-2.96-6.12-4.95-10.36-5.46C52.01.06,51.2,0,50.37,0c-.83,0-1.64.06-2.4.17-4.24.51-8.01,2.49-10.36,5.45l-.07.09-.06.09c-2.1,2.87-3.38,5.91-3.8,9.02-.44,3.3.09,6.56,1.57,9.72-2.67,1.59-5.2,3.44-7.55,5.52-1.1.98-2.17,2.02-3.21,3.13h-.65c-1.79-1.29-3.97-1.98-6.25-1.98-3.1,0-6.1,1.26-8.23,3.47-1.96,2.03-3.01,4.69-2.96,7.51-.05,2.82,1,5.48,2.96,7.51.97,1,2.11,1.81,3.36,2.39-1.03,2.62-1.92,5.35-2.65,8.15-1.54,5.92-1.9,11.67-1.08,17.09l-6.75-9.45-1.84,14.26c-.69,5.32-.53,11.1.41,15.48.71,3.3,2.61,7.34,3.74,9.76,0,0,.17.35.23.5l3.42,7.34,4.49-4.52c2.46,3.01,6.59,7.21,12.55,10.63.42.24.94.56,1.45.88h.01c.97.6,1.89,1.17,2.7,1.57,5.93,3.12,13.43,10.64,16.36,14.66l4.57,6.27,4.57-6.27c2.93-4.02,10.43-11.54,16.36-14.66.82-.4,1.74-.97,2.71-1.57h.01c.51-.32,1.03-.64,1.44-.88,5.71-3.28,9.79-7.23,12.55-10.63l4.49,4.52,3.42-7.34c.06-.13.24-.5.24-.5,1.13-2.42,3.03-6.46,3.74-9.76.94-4.38,1.1-10.16.41-15.48M97.12,95.52c-.08.5-.17.98-.27,1.44-.27,1.27-.76,2.69-1.31,4.1-.02.06-.05.12-.07.17-.15.38-.31.75-.46,1.12-.08.2-.17.4-.25.59-.25.58-.51,1.15-.75,1.67-.24.52-.47,1.01-.67,1.44-.09.18-.16.35-.24.51l-1.54,3.29-3.89-3.91c-.7,1.03-1.61,2.26-2.74,3.58-.23.26-.46.53-.71.8-.12.14-.25.27-.38.41-.25.27-.52.55-.79.83-.55.56-1.13,1.12-1.76,1.69-.94.85-1.96,1.71-3.08,2.54-1.31.98-2.74,1.93-4.31,2.83-.23.13-.48.28-.75.44-.26.16-.53.33-.8.49-.81.5-1.57.97-2.21,1.3-.09.05-.18.09-.27.13-2.21,1.16-4.59,2.84-6.89,4.74-.42.34-.83.7-1.24,1.05-.82.71-1.63,1.44-2.41,2.18-.29.28-.58.55-.86.83-.57.55-1.11,1.1-1.64,1.65-.44.45-.86.9-1.26,1.34-.32.35-.63.7-.93,1.03-.89,1.01-1.65,1.96-2.25,2.78l-2.05,2.81-2.05-2.81c-1.9-2.6-5.43-6.43-9.34-9.81-1.23-1.07-2.5-2.09-3.77-3.02-.63-.46-1.27-.9-1.89-1.31-.84-.55-1.66-1.04-2.47-1.46-.23-.11-.48-.24-.74-.39-.13-.08-.27-.15-.41-.24-.31-.19-.64-.39-.98-.6-.11-.07-.23-.14-.34-.21-.07-.04-.13-.08-.2-.12-.47-.29-.94-.58-1.34-.81-3.2-1.84-5.84-3.92-7.94-5.9-.7-.66-1.34-1.3-1.92-1.92-.19-.21-.38-.41-.56-.61-.54-.6-1.02-1.17-1.45-1.7-.37-.46-.72-.91-1.03-1.34s-.6-.84-.87-1.22l-3.89,3.91-1.54-3.29c-.04-.08-.07-.16-.11-.24-.04-.08-.08-.17-.12-.26-.17-.36-.35-.76-.55-1.18-.35-.77-.74-1.62-1.12-2.52-.08-.2-.17-.4-.25-.6-.21-.51-.41-1.02-.6-1.53-.15-.41-.3-.82-.43-1.22-.03-.1-.07-.2-.1-.3-.19-.6-.35-1.18-.47-1.74-.22-1.01-.39-2.11-.52-3.26-.03-.29-.06-.58-.09-.87-.05-.59-.09-1.19-.12-1.8-.12-2.75,0-5.68.35-8.49l.82-6.4,3.75,5.25c.12.17.25.34.38.51.04.05.08.1.12.15.09.12.19.24.29.36.04.06.09.11.14.17.11.13.21.26.33.39.03.04.07.08.1.12.15.17.3.34.45.51.02.03.05.05.07.08.13.14.27.29.4.43.04.05.09.09.14.14.12.13.25.26.38.38.04.04.08.09.13.13.17.17.33.33.51.5,0,0,0,0,0,0,.18.17.37.35.55.52.02.02.05.04.07.07.16.15.32.29.49.44.04.03.07.06.11.09.17.15.34.3.52.45.02.01.03.03.05.04.4.34.81.68,1.22,1.01.01,0,.02.02.03.03.2.16.4.32.6.47.01,0,.02.02.03.03.64.49,1.28.97,1.93,1.43-.07-.1-.14-.21-.2-.31-.13-.2-.26-.4-.39-.61-.1-.15-.19-.31-.28-.46-.07-.12-.15-.25-.22-.38-.07-.13-.15-.25-.22-.38-.07-.13-.14-.26-.21-.38-.07-.13-.14-.26-.21-.38-.07-.13-.13-.26-.2-.39-.07-.13-.13-.26-.2-.4-.06-.13-.12-.26-.19-.38-.07-.14-.13-.28-.19-.42-.06-.12-.11-.25-.17-.37-.07-.16-.14-.32-.2-.47-.05-.11-.09-.22-.14-.33-.11-.26-.21-.53-.31-.79-.03-.09-.06-.17-.09-.26-.07-.19-.14-.38-.2-.57-.04-.11-.07-.22-.11-.33-.06-.17-.11-.34-.16-.51-.04-.12-.07-.23-.11-.35-.05-.17-.1-.34-.15-.51-.03-.12-.07-.24-.1-.35-.05-.18-.09-.35-.14-.53-.03-.11-.06-.23-.08-.34-.05-.19-.09-.39-.13-.59-.02-.1-.04-.19-.06-.29-.06-.29-.12-.59-.17-.88-.97-5.3-.69-10.97.85-16.86.11-.44.23-.88.36-1.31.03-.12.07-.24.1-.36.1-.33.19-.66.29-.99.03-.11.07-.22.1-.33.27-.88.56-1.76.86-2.62.02-.05.03-.1.05-.15.14-.4.29-.8.44-1.2.01-.04.03-.08.04-.12.51-1.34,1.06-2.65,1.64-3.92h0c-.89-.06-1.76-.27-2.57-.6,0,0-.01,0-.02,0-.09-.04-.19-.08-.28-.12-.03-.01-.06-.03-.09-.04-.08-.04-.16-.08-.24-.12-.04-.02-.08-.04-.12-.06-.07-.04-.14-.08-.21-.12-.05-.03-.09-.05-.14-.08-.06-.04-.13-.08-.19-.12-.05-.03-.1-.06-.15-.1-.06-.04-.12-.08-.17-.12-.05-.04-.11-.08-.16-.12-.05-.04-.1-.08-.15-.11-.06-.04-.12-.09-.17-.14-.04-.04-.09-.07-.13-.11-.07-.06-.13-.11-.19-.17-.03-.03-.07-.06-.1-.09-.1-.09-.19-.18-.28-.28-.78-.81-1.36-1.77-1.71-2.8-.27-.81-.4-1.66-.38-2.54-.02-.63.05-1.24.18-1.84.3-1.31.94-2.51,1.9-3.51.87-.9,1.94-1.58,3.11-2.01.52-.19,1.06-.33,1.62-.41.14-.02.28-.04.42-.05.28-.03.56-.04.84-.04.86,0,1.69.14,2.46.4.11.04.22.08.33.12.87.34,1.67.83,2.35,1.47h3.12s0,0,0,0c.44-.49.89-.97,1.34-1.44.06-.06.11-.11.17-.17.12-.13.25-.25.37-.38.17-.17.34-.34.52-.51.08-.07.15-.15.23-.22.14-.14.29-.28.43-.41.07-.06.14-.13.21-.19.21-.2.42-.39.64-.58.23-.2.46-.4.69-.6.07-.06.14-.12.21-.18.17-.15.35-.29.53-.44.07-.06.14-.11.21-.17.23-.18.45-.36.68-.54.08-.06.16-.13.25-.19.15-.12.31-.24.46-.35.11-.08.22-.16.33-.24.13-.1.27-.19.4-.29.2-.15.41-.29.61-.43.11-.08.23-.16.34-.24.15-.1.3-.2.45-.3.08-.05.16-.11.25-.16.17-.11.33-.22.5-.32.01,0,.02-.01.03-.02.4-.25.8-.49,1.2-.73.01,0,.03-.02.04-.02.2-.12.41-.24.61-.35.01,0,.03-.01.04-.02.63-.36,1.27-.7,1.92-1.03,0,0,0,0,0,0-.09-.14-.18-.28-.27-.43-.04-.06-.08-.13-.12-.19-.05-.09-.11-.17-.16-.26-.06-.09-.11-.19-.17-.28-.04-.06-.07-.12-.11-.19-.09-.15-.17-.31-.26-.46,0,0,0-.01-.01-.02l-.02-.03c-.55-1.06-.98-2.13-1.27-3.21-.1-.36-.18-.72-.25-1.08-.07-.36-.12-.72-.16-1.09-.06-.54-.08-1.09-.08-1.64,0-.55.05-1.1.12-1.64.04-.32.1-.65.16-.97.1-.48.22-.97.38-1.45.1-.32.21-.64.34-.96.27-.71.61-1.41.99-2.11.1-.18.2-.36.31-.54.07-.12.15-.24.22-.36.16-.25.32-.51.5-.76.11-.15.22-.31.33-.46l.03-.04.03-.04c.23-.29.48-.57.75-.84.13-.13.27-.26.41-.39.85-.76,1.84-1.41,2.95-1.91.73-.34,1.52-.61,2.33-.82.2-.05.41-.1.62-.14.42-.09.84-.15,1.27-.2.62-.09,1.28-.14,1.98-.14.7,0,1.37.05,1.98.14,1.08.13,2.11.36,3.09.7.58.2,1.14.45,1.68.72.53.27,1.04.58,1.51.92.31.23.61.47.9.72.42.38.81.79,1.16,1.23v.02s.03.02.03.02v.02s.03.02.03.02c.56.77,1.05,1.54,1.47,2.33.08.16.17.31.24.47.24.47.45.95.63,1.43.43,1.11.72,2.24.88,3.38.02.16.04.32.06.49,0,.04,0,.08.01.11.01.16.03.31.03.47,0,.03,0,.06,0,.09,0,.13.01.27.01.4,0,.04,0,.09,0,.13,0,.15,0,.3,0,.44,0,.05,0,.1,0,.16,0,.11,0,.22-.02.33,0,.05,0,.11,0,.16,0,.14-.02.27-.04.41,0,.07-.01.14-.02.21-.01.09-.02.18-.04.28-.01.11-.03.22-.05.33-.01.08-.03.16-.04.24-.01.08-.03.16-.05.24-.02.08-.03.16-.05.23-.03.13-.06.26-.09.38-.02.06-.03.12-.05.19-.02.09-.05.17-.07.26h0c.39,0,.77.02,1.14.03,0,0,.02,0,.03,0,.37.01.74.03,1.11.04,0,0,.01,0,.02,0,1.47.07,2.87.18,4.2.33.02,0,.03,0,.05,0,.32.04.63.07.94.12.02,0,.05,0,.07,0,.3.04.6.08.9.13.02,0,.05,0,.07.01.3.05.59.09.88.14.01,0,.02,0,.04,0,.59.1,1.17.22,1.74.34.02,0,.03,0,.05.01.27.06.53.12.79.18.03,0,.07.02.1.02.25.06.5.13.74.19.04.01.08.02.11.03.24.07.48.13.71.2.04.01.07.02.11.03.24.07.47.15.7.22.02,0,.05.02.07.02.24.08.48.16.71.25,5.88,2.14,9.77,5.82,11.56,10.95.05.16.11.31.16.47.02.05.03.1.05.15.03.11.07.22.1.33.02.06.03.12.05.18.03.1.06.2.08.31.02.06.03.12.05.18.03.11.05.21.08.32.01.05.02.11.04.16.03.13.05.26.08.39,0,.03.01.06.02.09.03.16.06.33.09.49,0,.02,0,.05.01.07.02.14.04.28.06.42,0,.05.01.09.02.14.01.12.03.24.04.35,0,.05,0,.1.01.15.01.12.02.24.03.35,0,.05,0,.09,0,.14,0,.13.02.26.02.39,0,.03,0,.06,0,.09.01.33.02.67,0,1,0,.02,0,.04,0,.06,0,.14,0,.29-.02.43,0,.04,0,.07,0,.11,0,.13-.02.26-.03.39,0,.04,0,.08,0,.12-.01.13-.02.27-.04.4,0,.03,0,.06,0,.09-.02.16-.04.32-.06.49,0,.64-.07,1.26-.23,1.86,0,0,0,0,0,0-.15.6-.38,1.18-.68,1.72-.06.16-.12.31-.18.47,0,.02-.02.04-.03.06-.05.13-.11.27-.17.4-.01.03-.03.07-.04.1-.05.12-.11.24-.17.37-.02.04-.03.07-.05.11-.07.15-.15.31-.22.46-.11.22-.23.43-.34.65-.02.03-.03.05-.05.08-.11.2-.23.4-.36.6-.02.03-.04.06-.06.09-.12.2-.25.39-.38.59-.02.02-.03.05-.05.07-.14.2-.28.4-.43.6,0,0,0,0,0,0-.16.21-.32.41-.48.61,0,0,0,0,0,0-.16.19-.32.39-.49.57-.01.01-.02.02-.03.04-.17.18-.34.37-.51.54-.01.01-.02.02-.03.03-.18.18-.36.36-.55.53l-.11.11-.11.1s-.04.04-.06.06h0c-.1.09-.21.19-.31.28-.14.12-.28.23-.42.35-.04.03-.08.06-.11.09-.11.09-.22.17-.33.26-.04.03-.07.05-.11.08-.14.1-.27.2-.41.3,0,0-.01.01-.02.02-.16.11-.32.22-.48.33-.01.09-.03.17-.05.26,0,.01,0,.02,0,.03-.02.08-.03.16-.05.24,0,.01,0,.03,0,.04-.05.19-.1.38-.17.57,0,.01,0,.02-.01.03-.03.08-.06.16-.09.24-.01.03-.02.06-.03.08-.03.07-.06.13-.09.2-.01.03-.03.06-.04.1-.03.07-.07.13-.1.2-.02.03-.03.06-.05.09-.05.09-.1.19-.16.28-.15.25-.32.49-.5.72h0s0,0,0,0c-.08.1-.17.2-.25.3-.04.04-.08.08-.12.13-.05.06-.11.12-.17.17-.04.04-.09.09-.14.13-.06.05-.11.1-.17.16-.05.04-.1.09-.15.13-.06.05-.12.1-.18.15-.05.04-.1.08-.16.12-.06.05-.13.09-.19.14-.05.04-.1.08-.16.11-.07.05-.14.1-.22.14-.05.03-.1.07-.15.1-.1.06-.2.12-.3.17-.03.02-.06.04-.09.05-.13.07-.26.14-.4.21-.05.02-.1.05-.15.07-.09.04-.18.09-.28.13-.06.03-.12.05-.18.08-.09.04-.18.07-.27.11-.06.02-.13.05-.19.07-.09.03-.19.07-.28.1-.07.02-.13.05-.2.07-.1.03-.2.06-.3.09-.06.02-.13.04-.2.06-.11.03-.23.06-.34.09-.06.01-.11.03-.17.05-.17.04-.35.09-.53.13,0,0,0,0,0,0-.16.04-.33.07-.5.1-.17.03-.34.06-.51.09-.2.03-.39.06-.58.09-.01,0-.03,0-.04,0,0,0,0,0,0,0l-1.74,1.29s.04,0,.06,0c.02,0,.03,0,.05,0,.02,0,.04,0,.06,0,.02,0,.04,0,.06,0,.02,0,.04,0,.06,0,.02,0,.05,0,.07,0,.02,0,.04,0,.07,0,.03,0,.06,0,.09.01.02,0,.04,0,.06,0,.05,0,.1.01.15.02.01,0,.02,0,.03,0,.05,0,.1.01.15.02.02,0,.04,0,.06,0,.04,0,.08.01.12.02.02,0,.05,0,.07.01.04,0,.08.01.13.02.02,0,.05,0,.08.01.05,0,.09.02.14.02.02,0,.05,0,.07.01.06.01.12.02.18.03.01,0,.03,0,.04,0,.08.01.15.03.23.04.02,0,.03,0,.05,0,.06.01.13.03.19.04.03,0,.05.01.08.02.06.01.11.02.17.04.03,0,.06.01.09.02.06.01.11.03.17.04.03,0,.06.01.09.02.06.01.12.03.19.05.02,0,.05.01.07.02.18.04.36.09.54.14.03,0,.05.01.08.02.07.02.13.04.2.06.03,0,.07.02.1.03.06.02.13.04.19.06.03.01.07.02.11.03.06.02.13.04.19.06.03.01.07.02.1.03.08.02.15.05.23.08.02,0,.04.01.07.02.1.03.2.07.3.1.02,0,.05.02.07.02.08.03.16.06.24.09.04.01.07.03.11.04.07.03.13.05.2.08.04.01.08.03.12.05.07.03.13.05.2.08.04.02.08.03.12.05.07.03.14.06.21.09.03.01.07.03.1.04.1.05.21.09.32.14,5.18,2.33,8.42,6.31,9.37,11.51.04.2.07.41.1.61,0,.05.02.11.02.16.03.19.05.37.07.56,0,.02,0,.04,0,.06.02.21.04.41.05.62,0,.05,0,.1,0,.14,0,.18.02.36.02.55,0,.03,0,.06,0,.09,0,.21,0,.42,0,.63,0,.04,0,.07,0,.11,0,.19-.01.38-.03.56,0,.03,0,.06,0,.08-.01.21-.03.43-.06.64,0,.02,0,.04,0,.06-.02.2-.05.4-.08.6,0,.02,0,.05-.01.07-.07.44-.15.88-.25,1.31,0,.02,0,.04-.01.06-.1.44-.23.88-.36,1.32,0,.01,0,.02-.01.04-.14.44-.3.89-.48,1.33,0,0,0,.01,0,.02-.18.45-.38.89-.6,1.33.13-.11.26-.22.39-.33,0,0,.02-.02.03-.02.63-.55,1.25-1.11,1.83-1.67.04-.04.07-.07.11-.11.09-.09.17-.17.26-.26.05-.05.09-.09.14-.14.08-.08.16-.16.24-.24.05-.05.1-.11.16-.16.07-.07.14-.15.21-.23.07-.07.14-.15.21-.22.09-.1.18-.2.27-.3.08-.08.15-.17.23-.25.05-.06.1-.11.15-.17.07-.08.14-.16.2-.24.05-.06.09-.11.14-.17.07-.08.13-.16.2-.25.04-.05.09-.11.13-.16.07-.09.14-.18.21-.27.03-.04.07-.09.1-.13.1-.13.2-.27.3-.4l1.07-1.5,2.68-3.75.82,6.4c.16,1.25.27,2.52.34,3.79.05.95.07,1.9.06,2.84-.01,2.24-.18,4.41-.5,6.36"/>
            <path class="cls-6" d="M75.82,35.7c-2.52-2.89-5.52-3.96-11.05-3.96-.78,0-1.62.02-2.65.06-.25,0-.51.02-.76.04-.07,0-.13,0-.2.01-.2.01-.39.02-.58.04-.06,0-.12,0-.18.01-.24.02-.48.04-.72.06,0,0,0,0-.01,0-.27.03-.53.05-.8.08,0,.04-.01.08-.02.12-.03.2-.07.4-.1.6,0,.06-.02.12-.03.17-.04.24-.08.48-.12.72-.03.19-.06.39-.09.59-.06.36-.12.72-.18,1.08-.01.07-.03.14-.04.21-.03.16-.06.32-.09.48v.27h18.11s0,0,0,0c-.1-.14-.22-.29-.34-.45-.04-.05-.09-.1-.14-.16"/>
            <path class="cls-6" d="M82.23,93.81c-1.13,1.12-2.11,1.9-2.66,2.32l1.64,1.39,2.31,2.14c-.06.1-.13.21-.21.32-.05.07-.1.14-.15.21-1.53,2-5.69,5.31-8.61,6.18-1.53.57-3.27,1.03-5.24,1.27-9.95,1.21-13.64.38-13.64.38v-2.98c-1.71.13-3.48.2-5.32.25-.06,0-.12,0-.18,0-.4,0-.8.01-1.19.01-1.32,0-2.62-.06-3.92-.17v2.88c-.4.08-4.21.75-13.61-.38-1.97-.24-3.71-.69-5.24-1.27-3.27-.98-8.1-5.01-9.05-6.84l4.55-3.86c-4.62-2.46-11.84-7.45-15.67-12.82-.01.11-.03.21-.04.32,0-.02,0-.05,0-.07-.55,4.33-.52,9.5.34,13.48.62,2.9,2.67,6.99,3.58,8.93l.12-.12.02-.02,3.46-3.49.05.11s4.13,8.63,14.49,14.58c1.27.73,2.96,1.85,3.89,2.3,6.79,3.54,14.94,11.65,18.39,16.38,3.45-4.73,11.6-12.84,18.39-16.38.94-.45,2.62-1.57,3.89-2.3,10.37-5.95,14.54-14.58,14.54-14.58l3.59,3.6c.03-.06.06-.13.09-.2,0-.02.02,0,.01-.03.93-1.99,2.91-6.1,3.52-8.95.86-4.01.89-9.22.33-13.57-3.03,4.24-8.17,8.24-12.48,10.95"/>
            <path class="cls-6" d="M45.04,70.79v8.5c1.6,1.56,3.37,2.83,5.29,3.79.25.12.5.24.75.36,1.44.65,2.97,1.13,4.57,1.45v-12.29c-1.12.69-2.23,1.06-4.23,1.53-.38.09-.75.16-1.1.22-3.13.5-5.06-.23-5.06-.23l1.77-2.22-2.01-1.12Z"/>
            <path class="cls-6" d="M19.81,47.17c.06-.03.12-.06.18-.09.6-.32,1.15-.78,1.6-1.4h23.45v24.18c1.24-.14,3.14-.5,5.29-1.38.63-.26,1.27-.55,1.93-.91,1.02-.54,1.63-1.08,2.03-1.62l-.91-.66c-.24-.17-1.47-1.11-2.37-2.65-.29-.5-.51-1-.67-1.51-.39-1.24-.39-2.51,0-3.74.2-.63.5-1.25.9-1.84,1.42-2.1,3.11-3.7,4.42-4.77v-5.12l.02.02h5.74l.17-.09s.03-.03.04-.05c.78-.97,2.04-2.15,4.02-3.07.9-.42,1.95-.78,3.17-1.05,1.55-.34,3.27-.49,5.13-.46.51,0,1.01.03,1.49.07.58-.89.97-1.6,1.19-2.19h-20.95v-3.05c.21-1.06.38-2.2.57-3.34-2.09.39-4.06.94-5.89,1.65-1.93.75-3.7,1.68-5.29,2.77v1.95l.02.02h-23.43c-2.65-3.59-8.6-1.97-9.46,2.13,0,.01,0,.03-.01.04-.05.21-.08.42-.11.64-.01.15-.02.3-.02.45,0,.08,0,.15,0,.23-.11,3.03,2.39,5.06,5.01,5.3.94.09,1.9-.06,2.76-.47"/>
            <path class="cls-6" d="M41.21,23.87c.17.28.35.56.53.84.64-.28,1.28-.54,1.93-.79.19-.07.38-.14.58-.21.82-.3,1.65-.58,2.49-.84-.26-.7-.61-1.41-1.17-2.11-2.17-2.56-1.81-6.26-.19-8.33.02-.03.04-.05.06-.07l.06.05c1.52-1.72,4.26-1.79,4.85-1.78.61,0,3.52.06,5,1.96,1.09,1.4,1.61,3.53,1.17,5.56-.23.93-.65,1.83-1.33,2.62-.11.13-.2.26-.29.4.03,0,.06,0,.08-.01,1.14-.14,2.3-.24,3.46-.3.77-.04,1.55-.07,2.34-.07.05,0,.1,0,.15,0,1.43-4.21.3-8.18-2.23-11.63-1.58-2-4.25-3.09-6.68-3.36-.49-.08-1.05-.12-1.64-.12-.6,0-1.15.04-1.64.12-2.43.27-5.09,1.36-6.68,3.36-1.28,1.75-2.2,3.63-2.61,5.61-.01.05-.02.09-.03.14-.03.14-.06.28-.08.42-.05.28-.09.57-.11.86-.07.72-.07,1.45,0,2.18.15,1.48.6,2.99,1.41,4.53.18.34.38.67.58.99"/>
            <path class="cls-6" d="M40.74,36.3c5.46-4.94,13.26-7.31,21.26-7.62,3.26-.13,6.17-.1,8.8.52,2.76.65,5.2,1.96,7.37,4.44,2.13,2.44,2.1,4.58,1.21,6.68-.19.44-.41.87-.66,1.3,1.94.57,3.53,1.51,4.75,2.8,1.19,1.26,1.81,2.64,2.12,3.83.53-.76.98-1.56,1.36-2.4,1.48-3.28,1.76-7.1.48-10.77-3.29-9.44-14.71-11.33-26.64-11.21-12.55.12-22.87,4.76-30.63,12.42h10.57Z"/>
            <path class="cls-6" d="M50.08,102.18c12.03-.3,20.16-1.94,27.28-8.3,0,0,.42-.29,1.06-.82,2.57-2.13,8.8-8.24,7.31-16.35-1.71-9.32-11.89-10.68-13.54-10.84-.15-.01-.23-.02-.23-.02.88,1.13,2.02,2.2,3,3.36,1.57,2.26,3.01,5.45,2.16,8.94-.41,1.67-1.06,3.06-1.86,4.22-1.75,1.91-3.16,3.2-4.75,4.1-1.36.7-2.66,1.1-3.59,1.32-1.3.28-2.8.46-4.63.59-20.55,1.39-30.59-18.15-28.97-36.6.03-.38.08-.76.12-1.13.11-.9.27-1.76.46-2.6h-11.15c-.49.45-1.03.83-1.61,1.14-.11.05-.23.09-.34.13-.55,1.08-1.06,2.18-1.54,3.31-1.25,2.91-2.3,5.97-3.13,9.17-.61,2.34-1,4.6-1.18,6.78-1.76,20.75,14.87,34.11,35.13,33.6"/>
            <path class="cls-6" d="M83.13,49.57c-.01-.09-.03-.19-.05-.29,0-.05-.02-.1-.03-.15-.06-.25-.13-.53-.23-.81-.04-.11-.08-.23-.13-.34-.05-.11-.1-.23-.16-.35-.17-.35-.38-.7-.64-1.04-.13-.17-.27-.34-.43-.51-.05-.06-.11-.11-.16-.17-.67-.66-1.56-1.26-2.77-1.7-.1-.04-.2-.07-.31-.11-1.15-.38-2.57-.62-4.31-.65-.94-.01-1.8.02-2.59.1-.03,0-.05,0-.08,0-.23.02-.46.05-.68.08-.03,0-.07,0-.1.02-.34.05-.66.11-.96.17-.05,0-.09.02-.14.03-.29.06-.56.13-.83.21-.05.01-.09.03-.14.04-.15.05-.3.09-.45.14-.31.11-.61.22-.89.35-.09.04-.17.08-.25.11-.12.06-.24.12-.35.18-.08.04-.17.09-.25.13-.11.06-.21.12-.31.18-.21.13-.41.26-.59.39-.12.09-.24.18-.35.27-.34.27-.63.55-.87.82-.08.09-.16.18-.23.27-.99,1.21-1.2,2.27-1.2,2.27l-.2-1.23s0,0,0,0c-.01,0-.04.02-.07.04-.07.04-.18.1-.32.17-.31.17-.76.44-1.21.74-.79.53-1.6,2.39-1.6,2.39,0,0-.31.18-.8.53-.03.02-.06.04-.09.06-.09.07-.19.14-.29.21-.06.04-.12.09-.18.14-.09.07-.18.14-.28.22-.07.06-.15.12-.23.18-.17.14-.35.29-.53.45-.08.07-.16.14-.25.22-.15.13-.3.27-.45.41-.16.15-.32.31-.48.47-.4.41-.81.86-1.22,1.36-.16.2-.32.4-.48.61-.16.21-.31.43-.46.65-.15.22-.28.44-.38.66-.08.16-.14.32-.2.48-.02.05-.03.11-.05.16-.05.16-.08.31-.11.46-.03.2-.05.4-.05.6,0,.1,0,.19.01.29,0,.09.02.19.03.28.01.09.03.18.05.27,0,.04.02.09.03.13.12.48.33.92.57,1.31.39.63.86,1.12,1.19,1.42.04.03.07.06.1.09.18.16.29.24.29.24,0,0,1.66-.69,2.99-2.21.3-.34.71-.47,1.16-.5.06,0,.13,0,.2,0,.07,0,.13,0,.2,0,.27,0,.53.04.79.08.19.03.38.05.55.07.44.05.88.08,1.32.08.57,0,1.14-.03,1.7-.11.03,0,.07,0,.1-.01.25-.03.49-.08.73-.13.05,0,.1-.02.15-.03.26-.06.51-.12.77-.19.28-.08.56-.17.83-.26.41-.15.82-.31,1.21-.5l.06-.03.07-.03s.06,0,.19,0c.21,0,.58,0,1.15-.03.06,0,.13,0,.19-.01,1.06-.06,2.69-.22,5.02-.59,1.2-.19,2.18-.48,2.96-.83.08-.03.16-.07.23-.11.3-.14.57-.29.82-.45.06-.04.12-.08.18-.12.29-.2.54-.41.75-.63.04-.04.08-.09.12-.13.28-.31.49-.62.65-.93.02-.04.05-.09.07-.13.21-.44.32-.88.36-1.27,0-.04,0-.08.01-.12.08-.89-.14-1.53-.14-1.53l-2.44-.69,5.21-.96s.02-.15.02-.4c0-.08,0-.18,0-.28,0-.21-.03-.46-.07-.74M58.5,59.14l-.86-.74-.28,1.1c-.5.2-.98.44-1.45.74l-.03.02s-.02-2.73,1.54-3.17c1.59-.45,2.28,1.85,2.28,1.85-.41.04-.81.11-1.2.2M71.03,56c-4.14,2.98-7.18-1.21-7.18-1.21,0,0-.91.24-1.67.32-.9.1-1.85-.99-1.85-.99,0,0,3.55-.25,6.59-3.03,2.05-1.87,1.59-2.07,3.5-2.76,2.46-.89,4.8-.49,4.8-.49l-3.46,2.12s3.48,3.02-.71,6.04"/>
            <path class="cls-6" d="M63.4,64.79c.72-.12,1.3-.25,1.8-.4.92-.27,1.55-.6,2.15-1,.05-.04.11-.07.16-.11.22-.15.44-.32.67-.49.29-.22.59-.46.94-.72l.54-.4-.92.26c-1.92.55-4.62,1.01-6.62.73l-.82,2.42c.38-.04.73-.08,1.06-.12.37-.05.71-.1,1.02-.15"/>
            <path class="cls-6" d="M60.3,62.83l-1.84.2s0,0,0,.02c0,.01,0,.03-.02.05,0,.01,0,.02-.01.03-.01.03-.02.06-.04.09,0,.02-.02.04-.03.06-.07.15-.18.39-.36.73-.13.25-.27.48-.41.72-.36.58-.77,1.12-1.23,1.62-.82.89-1.8,1.64-2.92,2.23,0,0-.13.07-.28.15-.02,0-.03.02-.05.03-.03.02-.06.03-.09.05-.06.03-.11.06-.15.08-.09.04-.19.09-.31.14-.19.09-.42.19-.67.3-.05.02-.1.04-.15.07-.25.11-.52.23-.78.35-.95.42-1.84.8-1.84.8h.32c1.88.05,4.8-1.41,5.33-1.67-2.22,2.31-5.12,3.69-5.12,3.69,0,0,3.16-.11,6.36-2.8,3.2-2.69,4.31-6.95,4.31-6.95"/>
            <polygon class="cls-2" points="81.82 57.94 81.82 57.94 81.82 57.94 81.82 57.94"/>
            <g class="cls-7">
              <g class="cls-4">
                <polygon points="81.82 57.94 81.82 57.94 81.82 57.94 81.82 57.94"/>
              </g>
            </g>
            <path d="M69.78,50.74s1.8,1.73.29,3.44c-.23-.81-.71-1.46-1.42-1.91.44-.46.83-.97,1.13-1.53M65.99,54.01l.36-.15c.55-.23,1.06-.54,1.53-.9.27.76.8,1.37,1.56,1.79-2.2,1.6-3.45-.73-3.45-.73"/>
            <path class="cls-6" d="M67.88,52.96c-.47.36-.99.67-1.53.9l-.36.15s1.25,2.33,3.45.73c-.75-.42-1.28-1.02-1.56-1.79"/>
            <path class="cls-6" d="M70.07,54.18c1.52-1.71-.29-3.44-.29-3.44-.3.56-.69,1.08-1.13,1.53.7.45,1.19,1.1,1.42,1.91"/>
          </g>
        </g>
      </g>
    </g>
  </g>
</svg>