<?xml version="1.0" encoding="UTF-8"?>
<svg id="Layer_2" xmlns="http://www.w3.org/2000/svg" xmlns:xlink="http://www.w3.org/1999/xlink" viewBox="0 0 407.03 584.29">
  <defs>
    <style>
      .cls-1 {
        fill: none;
      }

      .cls-2 {
        mask: url(#mask);
      }

      .cls-3 {
        fill: #ffce00;
      }

      .cls-4 {
        fill: #ccc;
      }

      .cls-5 {
        clip-path: url(#clippath-17);
      }

      .cls-6 {
        clip-path: url(#clippath-11);
      }

      .cls-7 {
        clip-path: url(#clippath-16);
      }

      .cls-8 {
        clip-path: url(#clippath-18);
      }

      .cls-9 {
        clip-path: url(#clippath-10);
      }

      .cls-10 {
        clip-path: url(#clippath-15);
      }

      .cls-11 {
        clip-path: url(#clippath-13);
      }

      .cls-12 {
        clip-path: url(#clippath-14);
      }

      .cls-13 {
        clip-path: url(#clippath-12);
      }

      .cls-14 {
        clip-path: url(#clippath-1);
      }

      .cls-15 {
        clip-path: url(#clippath-3);
      }

      .cls-16 {
        clip-path: url(#clippath-4);
      }

      .cls-17 {
        clip-path: url(#clippath-2);
      }

      .cls-18 {
        clip-path: url(#clippath-7);
      }

      .cls-19 {
        clip-path: url(#clippath-6);
      }

      .cls-20 {
        clip-path: url(#clippath-9);
      }

      .cls-21 {
        clip-path: url(#clippath-8);
      }

      .cls-22 {
        clip-path: url(#clippath-5);
      }

      .cls-23 {
        filter: url(#luminosity-invert-noclip);
      }

      .cls-24 {
        fill: #fff;
      }

      .cls-25 {
        opacity: .3;
      }

      .cls-26 {
        fill: red;
      }

      .cls-27 {
        clip-path: url(#clippath);
      }
    </style>
    <clipPath id="clippath">
      <rect class="cls-1" x="0" y="0" width="407.03" height="584.29"/>
    </clipPath>
    <clipPath id="clippath-1">
      <rect class="cls-1" x="0" y="0" width="407.03" height="584.29"/>
    </clipPath>
    <clipPath id="clippath-2">
      <rect class="cls-1" x="0" y="0" width="407.03" height="584.29"/>
    </clipPath>
    <clipPath id="clippath-3">
      <path class="cls-1" d="M223.38,52.25c6.46,8.31,7.93,23.11-.78,33.35-9.4,11.74-4.08,25.06-19.23,26.46-15.15-1.41-9.83-14.72-19.23-26.46-8.71-10.24-7.24-25.04-.78-33.35,5.91-7.6,17.58-7.88,20.01-7.86,2.42-.03,14.1.25,20.01,7.86M196.79,25.63c-9.73,1.09-20.39,5.44-26.73,13.45-11.67,15.96-15.9,34.63-5.55,54.37,3.9,7.2,9.37,13.6,11.55,21.67,3.2,9.73,4.18,20.92,6.14,30.64v12.23h-93.85c-11.58-15.69-38.97-6.5-38.26,13.38-.71,19.87,26.68,29.08,38.26,13.38h93.85v250.15s-14.79,3.32-54.6-1.51c-7.9-.96-14.87-2.77-20.97-5.07-13.09-3.93-32.42-20.06-36.21-27.38l18.21-15.43c-18.5-9.86-47.39-29.84-62.73-51.3-2.24,17.4-2.13,38.27,1.32,54.3,2.5,11.62,10.82,27.85,14.45,35.64l14.29-14.39c.28.23,16.73,34.98,58.23,58.8,5.09,2.92,11.84,7.42,15.59,9.21,27.17,14.15,59.81,46.63,73.6,65.55,13.79-18.92,46.43-51.4,73.6-65.55,3.75-1.78,10.5-6.29,15.59-9.21,41.5-23.82,58.19-58.35,58.19-58.35l14.61,13.94c3.63-7.78,11.66-24.02,14.16-35.64,3.45-16.03,3.57-36.9,1.32-54.3-15.34,21.47-43.69,41.15-62.19,51.01l17.8,15.09c-3.61,7.1-23.27,24.09-36.35,28.02-6.11,2.29-13.08,4.11-20.97,5.07-39.82,4.83-54.6,1.51-54.6,1.51v-250.15h93.85c11.57,15.7,38.97,6.5,38.26-13.38.71-19.88-26.68-29.07-38.26-13.38h-93.85v-12.23c1.96-9.72,2.94-20.92,6.14-30.64,2.18-8.07,7.65-14.47,11.55-21.67,10.35-19.74,6.13-38.41-5.55-54.37-6.34-8.01-17-12.36-26.73-13.45-1.97-.31-4.2-.48-6.58-.48-2.38,0-4.61.17-6.58.48"/>
    </clipPath>
    <clipPath id="clippath-4">
      <rect class="cls-1" x="0" y="0" width="407.03" height="584.29"/>
    </clipPath>
    <clipPath id="clippath-5">
      <path class="cls-1" d="M245.25,97.48c-93.31.92-155.99,64.12-178.8,151.77-25.59,98.35,46.28,163.89,135.9,161.64,48.14-1.21,80.68-7.78,109.2-33.22.13-.09,40.96-28.16,33.52-68.72-7.45-40.63-55.12-43.45-55.12-43.45,3.52,4.51,8.07,8.8,11.99,13.44,6.3,9.04,12.06,21.83,8.64,35.78-1.63,6.68-4.26,12.24-7.45,16.87-6.99,7.63-12.66,12.83-19.03,16.41-5.46,2.81-10.63,4.4-14.35,5.29-5.19,1.14-11.2,1.85-18.55,2.35-82.24,5.55-122.43-72.64-115.94-146.48,5.54-63.08,58.98-90.28,114.8-92.45,26.76-1.04,47.79.48,64.73,19.86,13.73,15.71,5.1,28.36-4.41,42.1-7.5,10.83-19.82,15.19-30.93,20.79-3.41,9.15-5.95,18.67-9.21,27.95,14.5-3.31,29.42-5.27,42.89-9.41,31.9-9.81,49.75-44.12,38.77-75.64-12.79-36.71-56.31-44.89-102.57-44.89-1.35,0-2.7,0-4.06.02"/>
    </clipPath>
    <clipPath id="clippath-6">
      <rect class="cls-1" x="146.75" y="111.06" width="169.53" height="37.46"/>
    </clipPath>
    <clipPath id="clippath-7">
      <rect class="cls-1" x="72.12" y="188.65" width="81.25" height="23.9"/>
    </clipPath>
    <clipPath id="clippath-8">
      <rect class="cls-1" x="24.94" y="252.07" width="300.16" height="201.17"/>
    </clipPath>
    <clipPath id="clippath-9">
      <rect class="cls-1" x="273.79" y="256.6" width="48.39" height="91.41"/>
    </clipPath>
    <clipPath id="clippath-10">
      <rect class="cls-1" x="304.61" y="161.63" width="46.54" height="52.55"/>
    </clipPath>
    <clipPath id="clippath-11">
      <rect class="cls-1" x="0" y="0" width="407.03" height="584.29"/>
    </clipPath>
    <filter id="luminosity-invert-noclip" x="25.54" y="224.26" width="349.49" height="121.03" color-interpolation-filters="sRGB" filterUnits="userSpaceOnUse">
      <feColorMatrix result="cm" values="-1 0 0 0 1 0 -1 0 0 1 0 0 -1 0 1 0 0 0 1 0"/>
      <feFlood flood-color="#fff" result="bg"/>
      <feBlend in="cm" in2="bg"/>
    </filter>
    <clipPath id="clippath-12">
      <rect class="cls-1" x="31.07" y="224.26" width="343.97" height="121.03"/>
    </clipPath>
    <mask id="mask" x="25.54" y="224.26" width="349.49" height="121.03" maskUnits="userSpaceOnUse">
      <g class="cls-23">
        <g class="cls-13">
          <rect x="25.54" y="224.26" width="349.49" height="121.03"/>
        </g>
      </g>
    </mask>
    <clipPath id="clippath-13">
      <rect class="cls-1" x="31.07" y="224.26" width="343.97" height="121.03"/>
    </clipPath>
    <clipPath id="clippath-14">
      <path class="cls-1" d="M107.35,264.11c4.57,0,9.94-3.55,12.15-7.75,3.05-5.7.31-12.48-7.74-12.48-13.82,0-30.17,9.9-38.26,26.04-10.59,21.63-3.77,43.58,12.99,43.58,6.75,0,11.04-3.34,12.25-8.28.41-1.51.45-4.95-.02-7.1l6.74-.54c.96,4.84.43,11.3-1.88,16.25-3.87,8.5-12.81,19.26-30,19.26-21.54,0-39.9-21.84-24.26-53.04,9.13-18.4,36.19-43.58,62.09-43.58,17.52,0,22.89,13.99,14.67,28.4-4.95,8.71-16.99,16.68-26.68,16.68-10.77,0-14.86-9.15-11.63-16.89,1.56-3.77,7.34-9.15,12.99-9.79-1,5.06,2.13,9.25,6.59,9.25M137.87,308.76c2.94-5.92,7.6-12.7,9.81-17,1.57-3.23,1.64-5.38-.86-5.38-3.48,0-7.67,2.9-14.07,15.71l-10.39,20.87h-16.32l37.35-75.32h16.32l-17.54,34.43c5.14-4.63,10.86-6.99,15.87-6.99,5.33,0,8.65,2.8,8.73,7.1.05,2.69-1.3,6.35-3.19,10.11-2.73,5.59-6.54,11.41-8.53,15.49-1.89,3.77-1.54,5.16-.01,5.16,2.39,0,5.51-2.26,16.15-15.17l.53-.65,4.09,3.34-.53.65c-12.77,15.49-21.11,23.46-31.56,23.46-5.11,0-8.32-2.8-8.41-7.64-.04-2.26.99-5.06,2.57-8.18M199.05,275.09c5.11,0,9.41,2.69,10.05,8.07l4.02-6.46h14.91l-15.42,31.09c-1.89,3.77-1.43,5.16.1,5.16,2.39,0,5.51-2.26,16.15-15.17l.53-.65,4.09,3.34-.53.65c-12.77,15.49-21.11,23.46-30.03,23.46-3.92,0-8.63-1.94-8.73-7.32v-.22c-4.27,4.41-9.66,7.53-15.21,7.53-13.82,0-14.53-15.28-8.03-28.4,5.67-11.3,16.48-21.09,28.12-21.09M188.53,312.85c3.92,0,8.81-5.92,11.96-12.37,3.36-6.67,5.68-16.57.57-16.57-4.24,0-9.68,6.35-13.03,13.23-3.47,6.78-5.04,15.71.51,15.71M247.72,324.58c-10.77,0-14.11-9.9-8.65-20.66,2.62-5.27,7.41-11.19,15.34-17.97l-.23-.43c-2.37,1.18-5.29,2.15-7.9,2.15-1.2,0-2.18-.11-3.16-.32-3.38,5.38-7.32,10.33-9.66,13.13l-.53.65-4.09-3.34.53-.65c4.15-5.06,6.91-8.71,8.91-12.37-4.1-3.98-3.9-11.08-1.91-15.17,1.57-3.23,4.26-5.16,6.76-5.16,5.11,0,8.57,4.52,4.19,14.96.76.11,1.64.22,2.51.22,5.55,0,13-3.01,16-5.38,1.14,2.69,3.6,6.46,5.37,8.18-5.15,4.2-11.77,10.54-14.92,16.78-3.77,7.75-.99,11.3,1.84,11.3,4.68,0,9.39-4.3,16.31-12.7l.53-.65,4.09,3.34-.53.65c-13.84,16.78-21.22,23.46-30.8,23.46M319.78,308.76c2.94-5.92,7.6-12.7,9.81-17,1.26-2.58,1.97-5.38-.86-5.38-4.35,0-8.62,4.84-14.07,15.71l-10.39,20.87h-16.32l15.43-30.66c2.1-4.2,1.63-5.92-.54-5.92-3.05,0-7.36,2.26-14.07,15.71l-10.39,20.87h-16.32l22.98-46.27h15.01l-2.93,6.35c6.63-6.46,12.91-7.96,17.59-7.96,5.01,0,8,3.01,8.07,7.1,0,.32.01.75-.09,1.18,5.13-5.06,11.27-8.28,17.91-8.28,4.9,0,8,2.9,8.07,7.1.05,2.69-1.3,6.24-3.19,10.01-2.73,5.38-6.43,11.19-8.42,15.28-1.89,3.55-2.08,5.49.21,5.49s6.24-3.55,15.82-15.17l.53-.65,4.09,3.34-.53.65c-13.84,16.78-21.87,23.46-31.56,23.46-5.55,0-8.33-3.23-8.41-7.64-.04-2.26.99-5.06,2.57-8.18"/>
    </clipPath>
    <clipPath id="clippath-15">
      <rect class="cls-1" x="247.35" y="248.69" width="33.43" height="13.63"/>
    </clipPath>
    <clipPath id="clippath-16">
      <rect class="cls-1" x="272.96" y="209.87" width="57.94" height="38.14"/>
    </clipPath>
    <clipPath id="clippath-17">
      <path class="cls-1" d="M61.22,146.6l10.23,52.34,4.59.9c6.24,1.23,12.67-.9,16.94-5.6l89.22,4.02v-51.66H61.22Z"/>
    </clipPath>
    <clipPath id="clippath-18">
      <path class="cls-1" d="M62.32,152.25l7.88,40.33c6.72.61,13.63-1.73,18.15-7.85h93.85v-26.76h-93.85c-4.06-5.5-10.05-7.94-16.1-7.94-3.4,0-6.82.77-9.93,2.21"/>
    </clipPath>
  </defs>
  <g id="PAGE4">
    <g id="WLL_x5F_MARYLAND_x5F_SEC_x5F_FC">
      <g class="cls-27">
        <g class="cls-14">
          <g class="cls-17">
            <path class="cls-3" d="M406.98,352.81c-.02-.68-.03-1.36-.05-2.04-.02-.7-.05-1.41-.08-2.12-.08-1.96-.19-3.95-.32-5.9-.29-4.16-.69-8.31-1.21-12.32l-7.98-61.89-13.56,18.98-8.44-6.88c-.48-8.74-4.2-16.77-10.56-22.72-6.48-6.06-15.15-9.4-24.4-9.4-2.24,0-4.29.28-6.14.74.17-.14.34-.28.5-.42.29-.25.58-.5.87-.75.34-.3.66-.61.99-.92l.1-.09c.24-.23.48-.46.7-.68.32-.32.63-.65.94-.98l3.29-1.64.98-3.66c.38-.57.75-1.14,1.1-1.72.33-.55.66-1.12.99-1.73.09-.17.18-.33.26-.5l.03-.05c.22-.41.42-.83.63-1.25.09-.18.18-.37.27-.57.19-.41.37-.82.54-1.23.07-.18.15-.35.21-.5.19-.48.38-.96.55-1.44.04-.1.07-.2.1-.28.08-.22.15-.45.23-.67l.14-.11c.54-.4,1.07-.82,1.58-1.22,0,0,.41-.32.56-.45.1-.08.21-.17.31-.25l8.45-7.86c.11-.12.22-.24.32-.34.33-.35.65-.7,1-1.09l.33-.37c.32-.36.64-.72.95-1.08l.31-.36c.32-.38.65-.76.96-1.15.04-.04.07-.09.11-.13.71-.86,1.4-1.75,2.08-2.66l.15-.2c.21-.27.41-.55.61-.83l.2-.27c.13-.18.26-.36.38-.52.18-.26.36-.51.54-.77l.16-.23c.16-.23.31-.45.46-.67.19-.29.39-.57.56-.84.19-.29.38-.58.57-.87.18-.27.35-.55.51-.81.19-.31.39-.62.58-.93.16-.26.31-.51.48-.8.2-.33.39-.66.58-.98l.06-.1c.13-.22.25-.43.37-.64.22-.39.44-.78.64-1.16,0,0,.25-.45.34-.62.32-.59.63-1.19.93-1.79.34-.68.69-1.4,1.08-2.21.07-.15.25-.53.25-.53.27-.57.53-1.15.78-1.73l.21-.49c.27-.64.54-1.27.8-1.92l.12-.3c.17-.43.34-.87.5-1.29.88-1.71,1.65-3.49,2.3-5.3l.16-.45v-.05c.4-1.12.74-2.27,1.03-3.42l.03-.12c.29-1.17.54-2.36.74-3.55l.09-.4.05-.49c.26-1.81.41-3.64.45-5.47.06-.44.11-.88.16-1.35l.05-.45c.07-.64.13-1.29.19-1.92l.05-.57c.05-.62.09-1.24.12-1.85,0,0,.02-.41.03-.56.03-.69.06-1.38.08-2.1v.04c0-.12,0-.24,0-.36.03-1.59.02-3.21-.04-4.76,0-.15-.02-.49-.02-.49-.03-.63-.06-1.27-.1-1.91-.01-.19-.05-.67-.05-.67-.04-.57-.09-1.13-.14-1.71-.02-.24-.05-.48-.07-.72-.06-.57-.12-1.13-.19-1.71,0,0-.06-.48-.08-.66-.09-.66-.18-1.31-.28-1.96-.02-.14-.04-.28-.06-.42-.12-.78-.26-1.56-.4-2.31-.03-.15-.06-.31-.09-.47-.12-.62-.25-1.24-.39-1.89-.05-.21-.17-.73-.17-.73-.12-.52-.24-1.04-.37-1.56-.07-.28-.14-.57-.22-.85-.13-.5-.26-1-.39-1.46-.08-.29-.16-.57-.24-.87-.15-.52-.31-1.04-.47-1.56,0,0-.16-.52-.22-.73-.26-.82-.51-1.56-.75-2.26-4.32-12.41-11.28-23.21-20.67-32.11-9.15-8.67-20.67-15.56-34.25-20.5-.59-.21-1.19-.43-1.78-.63l-.62-.21c-.4-.14-.79-.27-1.19-.4l-.76-.25c-.36-.12-.71-.23-1.06-.34-.22-.07-.82-.25-.82-.25-.35-.11-.7-.21-1.04-.32-.29-.09-.58-.17-.86-.25-.34-.1-.69-.2-1.01-.29-.3-.09-.6-.17-.91-.25-.33-.09-.66-.18-.99-.27-.31-.08-.62-.17-.93-.25-.33-.09-.66-.17-.98-.25-.32-.08-.65-.17-.96-.24-.32-.08-.65-.16-.97-.24,0,0-.71-.17-1.02-.24,0,0-1.7-.39-1.99-.45l-1.06-.23c-.32-.07-.64-.14-.95-.2l-.29-.06c-1.15-.24-2.31-.47-3.44-.68l-.2-.04c-.49-.09-.99-.18-1.49-.27l-.58-.1c-.47-.08-.95-.16-1.42-.24l-.66-.11c-.47-.08-.95-.15-1.42-.23l-.68-.11c-.48-.07-.97-.15-1.46-.22l-.65-.09c-.5-.07-1-.14-1.5-.21l-.63-.08c-.52-.07-1.05-.14-1.57-.2l-.55-.07c-.55-.07-1.11-.13-1.67-.2l-.42-.05c-.6-.07-1.21-.14-1.79-.2l-.22-.02c-2.91-.3-5.93-.56-9.02-.78.01-.63.01-1.26,0-1.9v-.65c-.02-.67-.05-1.34-.08-1.98,0,0-.01-.34-.02-.49-.04-.75-.1-1.53-.17-2.38-.02-.2-.04-.4-.05-.58-.09-.92-.18-1.7-.28-2.46-.11-.82-.23-1.64-.37-2.44-.55-3.22-1.33-6.46-2.33-9.64-.49-1.57-1.05-3.16-1.65-4.72-.6-1.55-1.26-3.11-1.97-4.64-.7-1.52-1.47-3.06-2.27-4.56-1.99-3.71-4.33-7.41-6.93-10.96l-.31-.42-.28-.35c-1.88-2.37-4-4.63-6.31-6.7-.67-.6-1.37-1.2-2.14-1.82-.46-.37-.93-.74-1.41-1.11-.4-.31-.81-.61-1.23-.91-1.23-.89-2.52-1.75-3.83-2.55-.44-.27-.88-.53-1.32-.79-1.07-.62-2.21-1.23-3.4-1.83-.77-.39-1.44-.71-2.09-1.01-.93-.43-1.89-.84-2.85-1.22-3.35-1.35-6.88-2.45-10.49-3.28-.92-.21-1.88-.41-2.87-.59-1.58-.3-3.19-.54-4.77-.73-2.32-.34-4.76-.56-7.27-.65-.85-.03-1.72-.05-2.58-.05-3.43,0-6.73.23-9.84.7-6.85.82-13.43,2.57-19.55,5.2-1.42.61-2.84,1.28-4.2,1.98-.91.47-1.82.97-2.71,1.48-6.44,3.73-11.9,8.4-16.25,13.9l-.28.36-.26.36c-8.61,11.76-13.84,24.21-15.55,36.99-1.74,13.03.18,25.92,5.73,38.4-1.15.69-2.28,1.39-3.39,2.1l-.16.1c-.72.46-1.43.92-2.15,1.39-.35.23-.7.46-1.07.7-.65.43-1.31.87-1.95,1.31-.4.27-.79.54-1.18.81l-.31.22c-.88.61-1.76,1.23-2.63,1.86-.58.41-1.16.83-1.74,1.26-.47.35-.94.69-1.4,1.04-.67.5-1.34,1.01-2,1.52l-.32.25c-.24.19-.49.37-.73.56-.96.75-1.92,1.51-2.94,2.34-.21.17-.89.73-.89.73-.76.62-1.51,1.25-2.27,1.89,0,0-.67.56-.9.76-1.14.98-2.09,1.8-2.99,2.6-.83.74-1.71,1.54-2.76,2.51-.3.28-.6.55-.9.84-.63.59-1.25,1.18-1.87,1.77l-.29.28c-.23.22-.46.44-.7.67-.75.73-1.49,1.47-2.23,2.2-.54.54-1.07,1.08-1.62,1.65l-.71.73c-.45.46-.89.93-1.34,1.39h-1.18c-.25-.18-.51-.35-.77-.52-7.29-4.85-15.88-7.42-24.83-7.42-5.61,0-11.13.97-16.43,2.9-.74.27-1.49.56-2.2.86-1.46.61-2.9,1.3-4.28,2.05-1.39.75-2.76,1.59-4.06,2.48-2.65,1.81-5.12,3.89-7.33,6.18-5.09,5.27-8.81,11.75-10.76,18.74-.39,1.4-.71,2.82-.96,4.24-.48,2.75-.7,5.57-.65,8.38-.06,3.55.31,7.09,1.08,10.52.48,2.11,1.12,4.21,1.91,6.23,1.05,2.69,2.38,5.3,3.95,7.75,1.57,2.45,3.4,4.76,5.44,6.87.52.54,1.07,1.08,1.64,1.61.18.17.37.34.56.51l.06.05c.36.33.72.65,1.09.97.22.19.44.37.66.55l.18.15c.31.25.62.5.93.74.27.2.54.4.81.6l.09.06c.31.23.62.45.93.66.33.23.66.45,1,.67.29.19.58.38.86.55.36.23.73.45,1.12.68.26.15.51.3.77.44.4.23.81.45,1.24.68.16.08.32.16.48.25-.16.42-.32.84-.48,1.25l-.42,1.12c-.45,1.21-.9,2.42-1.33,3.62-.21.58-.42,1.15-.62,1.73-.23.64-.45,1.28-.67,1.92-.26.75-.51,1.5-.77,2.25-.22.65-.44,1.31-.65,1.95-.33,1-.65,1.99-.96,2.99-.15.47-.3.94-.44,1.41-.35,1.12-.69,2.25-1.02,3.37l-.18.59c-.38,1.29-.75,2.58-1.11,3.89l-.29,1.05c-.37,1.35-.74,2.71-1.1,4.07-.45,1.73-.88,3.48-1.29,5.23-5.76,6.68-10.5,13.64-13.82,20.33-2.41,4.82-4.33,9.62-5.73,14.38l-9.93-13.9-7.98,61.88c-.26,2.03-.5,4.14-.71,6.27-.12,1.23-.23,2.48-.33,3.71-.06.78-.12,1.56-.17,2.34-.09,1.28-.16,2.57-.23,3.84-.04.74-.07,1.48-.1,2.22-.05,1.29-.09,2.62-.12,3.95-.02.69-.03,1.39-.04,2.08,0,.68-.01,1.35-.02,2.02,0,2.69.03,5.39.13,8.03.02.66.05,1.33.08,1.99.21,4.65.58,9.19,1.1,13.51.15,1.24.31,2.49.49,3.72.18,1.24.37,2.46.57,3.64.1.6.21,1.19.32,1.78.22,1.18.46,2.36.7,3.51,1.48,6.89,4.34,15.21,8.74,25.43,2.3,5.35,4.56,10.17,6.39,14.05l.49,1.04,15.3,32.79,18.42-18.55c.99,1.18,2,2.35,3.03,3.52.38.43.76.85,1.15,1.29,1.21,1.34,2.46,2.69,3.71,4,2.75,2.88,5.64,5.71,8.58,8.41,1.05.97,2.13,1.94,3.21,2.88,9.22,8.1,19.22,15.26,29.72,21.28.88.5,1.97,1.16,3.43,2.05.78.48,1.57.97,2.37,1.46,1.42.88,2.82,1.74,4.15,2.54,1.03.62,1.94,1.16,2.79,1.64,1.51.86,2.83,1.57,4.04,2.16,9.55,5.02,21,13.42,33.12,24.28.74.66,1.47,1.33,2.19,1.98.42.38.83.77,1.24,1.14.75.7,1.5,1.4,2.25,2.1.74.7,1.48,1.41,2.21,2.11,2.14,2.07,4.27,4.19,6.33,6.3,1.34,1.38,2.66,2.76,3.93,4.12.31.34.63.67.94,1.01,5.12,5.54,9.49,10.74,12.62,15.04l19.81,27.18,19.82-27.19.3-.4.37-.5c1.64-2.2,3.59-4.63,5.8-7.22l.22-.26c.49-.57.99-1.15,1.51-1.75,1.24-1.42,2.58-2.91,3.97-4.43.89-.97,1.84-1.98,2.81-3.01.5-.53,1.01-1.06,1.52-1.59.99-1.03,2.01-2.06,3.02-3.09.35-.35.7-.71,1.06-1.06.53-.53,1.06-1.05,1.6-1.58,1.07-1.05,2.16-2.11,3.26-3.15.38-.36.76-.72,1.14-1.08.36-.34.72-.68,1.09-1.02.6-.56,1.21-1.12,1.82-1.68.53-.48,1.05-.96,1.58-1.44.59-.53,1.17-1.06,1.76-1.58.39-.34.78-.69,1.16-1.02.44-.39.89-.77,1.33-1.16.9-.78,1.81-1.56,2.72-2.32.43-.36.86-.72,1.29-1.07.5-.42,1.01-.83,1.51-1.25l.44-.35c3.15-2.55,6.25-4.93,9.22-7.07.39-.28.78-.56,1.18-.84.77-.55,1.54-1.08,2.32-1.61.76-.52,1.53-1.03,2.28-1.52,2.98-1.94,5.84-3.64,8.51-5.04,2.67-1.31,5.52-3,8.21-4.64.87-.53,1.77-1.09,2.67-1.64l1.68-1.04c.51-.32,1.02-.63,1.53-.93,1.08-.65,1.95-1.17,2.68-1.59,1.91-1.1,3.82-2.24,5.69-3.4,2.7-1.68,5.39-3.46,8.01-5.28,1.68-1.17,3.36-2.38,5-3.61,1.6-1.2,3.19-2.43,4.72-3.66,2.23-1.79,4.45-3.65,6.6-5.54,2.04-1.79,4.06-3.66,6.01-5.53,2.44-2.35,4.84-4.79,7.14-7.26,1.09-1.17,2.16-2.36,3.2-3.54,1.04-1.18,2.05-2.36,3.05-3.56l18.41,18.53,14.85-31.84.94-2c4.57-9.75,12.23-26.06,15.12-39.47.49-2.27.93-4.65,1.32-7.1.28-1.8.54-3.66.77-5.54.45-3.7.78-7.58,1-11.54.14-2.6.24-5.28.28-7.95.04-2.67.03-5.39-.03-8.09M204.21,68.76c-.02.07-.04.14-.06.18l-.02.04s-.04.07-.09.13l-.23.27s-.27.34-.3.38c-.03-.04-.32-.4-.32-.4l-.23-.28s-.05-.07-.07-.1c-.01-.03-.03-.06-.04-.09-.03-.09-.06-.21-.08-.33-.01-.09-.02-.18-.03-.28.16,0,.32-.01.48-.02h.57c.16,0,.32,0,.48.02-.01.17-.03.33-.07.47"/>
            <path class="cls-26" d="M344.85,213.65h0c.33-.31.66-.63.99-.95.07-.07.14-.13.21-.2.3-.3.6-.59.9-.9.09-.09.18-.18.27-.28.28-.29.56-.58.84-.88.1-.1.2-.21.29-.31.27-.29.54-.59.81-.88.1-.11.19-.22.29-.33.27-.3.53-.6.79-.9.09-.1.17-.2.25-.3.27-.32.54-.64.8-.96.01-.02.03-.04.04-.06.62-.75,1.22-1.52,1.8-2.29.03-.04.07-.09.1-.13.2-.27.4-.54.59-.81.13-.18.27-.37.4-.55.18-.25.35-.49.52-.74.15-.21.3-.43.45-.65.16-.24.32-.47.47-.71.16-.24.31-.47.46-.71.15-.23.29-.45.43-.68.16-.26.32-.51.48-.77.13-.22.27-.43.4-.65.17-.28.33-.56.49-.84.12-.2.24-.41.35-.61.18-.32.36-.64.54-.97.09-.17.19-.34.28-.51.27-.5.53-1,.78-1.5.31-.61.6-1.22.89-1.83.07-.15.14-.3.21-.45.23-.49.45-.97.66-1.46.06-.13.12-.27.17-.4.23-.53.45-1.06.66-1.6.03-.08.07-.17.1-.25.25-.63.49-1.25.72-1.88.75-1.36,1.38-2.77,1.9-4.23,0,0,0-.01,0-.02.31-.87.58-1.75.8-2.64,0-.02,0-.03.01-.05.23-.9.41-1.8.55-2.72,0,0,0,0,0-.01.24-1.54.35-3.12.35-4.71.09-.65.17-1.3.25-1.95.01-.12.03-.25.04-.37.06-.53.11-1.07.15-1.6.01-.15.02-.31.04-.46.04-.52.07-1.04.1-1.56,0-.15.02-.29.02-.44.03-.57.05-1.15.06-1.72,0-.08,0-.16,0-.25.03-1.34.02-2.68-.03-4.02,0-.12-.01-.25-.02-.37-.02-.53-.05-1.05-.08-1.58-.01-.19-.03-.37-.04-.56-.03-.47-.07-.94-.12-1.42-.02-.2-.04-.4-.06-.6-.05-.47-.1-.95-.16-1.42-.02-.18-.04-.37-.07-.55-.07-.56-.15-1.12-.24-1.68-.01-.09-.03-.18-.04-.27-.1-.66-.22-1.31-.34-1.97-.02-.12-.05-.25-.07-.37-.1-.52-.21-1.03-.32-1.55-.05-.22-.1-.43-.15-.65-.1-.43-.2-.86-.3-1.28-.06-.24-.12-.47-.18-.71-.11-.41-.22-.82-.33-1.23-.06-.23-.13-.47-.2-.7-.13-.44-.26-.87-.39-1.3-.06-.2-.12-.4-.19-.61-.2-.63-.41-1.26-.63-1.89-7.15-20.53-22.72-35.28-46.25-43.83-.52-.19-1.05-.38-1.59-.56-.18-.06-.36-.12-.53-.18-.36-.12-.71-.24-1.07-.36-.22-.07-.45-.14-.67-.22-.32-.1-.64-.21-.97-.31-.24-.08-.49-.15-.73-.23-.31-.09-.62-.19-.93-.28-.26-.08-.51-.15-.77-.23-.3-.09-.61-.18-.91-.26-.27-.08-.54-.15-.81-.23-.3-.08-.6-.17-.9-.25-.28-.08-.56-.15-.84-.22-.3-.08-.59-.15-.89-.23-.29-.07-.58-.15-.88-.22-.29-.07-.58-.14-.88-.21-.31-.07-.61-.15-.92-.22-.28-.07-.56-.13-.84-.19-.33-.07-.65-.15-.98-.22-.25-.06-.5-.11-.76-.16-.36-.08-.72-.16-1.09-.23-.09-.02-.18-.04-.26-.05-1.05-.22-2.11-.43-3.19-.63-.05-.01-.1-.02-.16-.03-.45-.08-.91-.17-1.37-.25-.18-.03-.36-.06-.54-.1-.44-.08-.88-.15-1.33-.22-.2-.03-.4-.07-.6-.1-.44-.07-.89-.14-1.33-.21-.21-.03-.41-.06-.62-.1-.45-.07-.9-.14-1.36-.2-.2-.03-.4-.06-.6-.09-.47-.07-.93-.13-1.41-.19-.19-.03-.39-.05-.58-.08-.49-.06-.98-.13-1.47-.19-.17-.02-.34-.04-.51-.06-.52-.06-1.04-.13-1.57-.19-.13-.01-.27-.03-.4-.04-.57-.06-1.13-.13-1.7-.19-.06,0-.12-.01-.18-.02-4.03-.42-8.22-.75-12.57-.99,0,0,0,0,0,0-.7-.04-1.4-.07-2.11-.11-.05,0-.11,0-.16,0-.68-.03-1.37-.06-2.07-.09-.07,0-.15,0-.22,0-.69-.03-1.38-.05-2.08-.08-.07,0-.14,0-.21,0-.71-.02-1.42-.04-2.14-.06-.05,0-.1,0-.15,0-.74-.02-1.49-.04-2.24-.05h0c.1-.35.19-.7.28-1.05.06-.25.13-.5.19-.75.12-.51.24-1.02.35-1.53.07-.31.13-.63.2-.94.06-.33.12-.65.18-.98.06-.32.11-.64.16-.95.07-.43.14-.87.19-1.3.05-.37.1-.73.14-1.1.03-.28.06-.56.09-.83.06-.54.1-1.09.14-1.63.01-.21.02-.42.04-.63.03-.44.05-.88.06-1.33,0-.21.02-.42.02-.63.01-.59.02-1.18.01-1.77,0-.17,0-.35,0-.52-.01-.53-.03-1.07-.05-1.6,0-.12,0-.24-.02-.36-.03-.63-.08-1.26-.14-1.89-.01-.15-.03-.3-.04-.45-.06-.65-.13-1.3-.22-1.95-.09-.65-.19-1.3-.3-1.94-.44-2.59-1.06-5.17-1.87-7.73-.4-1.28-.85-2.56-1.34-3.83-.49-1.27-1.03-2.54-1.62-3.81-.58-1.27-1.21-2.53-1.89-3.78-1.68-3.14-3.65-6.24-5.89-9.31l-.04-.06-.07-.1-.12-.15c-1.39-1.75-2.94-3.39-4.64-4.92-.52-.46-1.05-.92-1.59-1.36-.35-.28-.7-.56-1.06-.84-.31-.23-.62-.46-.93-.69-.94-.68-1.92-1.33-2.93-1.95-.34-.21-.67-.41-1.02-.61-.86-.5-1.73-.97-2.63-1.41-.54-.27-1.08-.53-1.63-.79-.73-.34-1.48-.66-2.24-.96-2.65-1.07-5.44-1.94-8.33-2.6-.76-.17-1.52-.33-2.3-.47-1.33-.25-2.68-.45-4.04-.61-1.85-.28-3.81-.46-5.86-.53-.68-.02-1.38-.04-2.08-.04-2.8,0-5.46.19-7.93.57-5.61.65-10.94,2.07-15.79,4.16-1.12.48-2.21,1-3.28,1.55-.71.37-1.41.75-2.09,1.14-4.79,2.78-8.94,6.27-12.17,10.36l-.12.15-.11.15c-7.17,9.8-11.51,20.03-12.9,30.41-1.57,11.71.64,23.37,6.56,34.66l.07.12c.35.65.72,1.29,1.08,1.92.15.26.31.51.46.77.22.37.43.73.65,1.09.21.34.41.67.62,1,.17.27.33.54.5.8.35.56.7,1.11,1.05,1.66.01.02.02.04.04.06h0c-2.59,1.31-5.16,2.68-7.68,4.11-.05.03-.11.06-.16.09-.82.47-1.64.94-2.45,1.42-.06.03-.11.07-.17.1-1.61.95-3.21,1.93-4.79,2.93-.04.03-.09.05-.13.08-.67.42-1.33.85-1.99,1.29-.33.22-.66.43-.99.65-.61.4-1.21.8-1.81,1.21-.46.31-.92.63-1.38.95-.82.57-1.63,1.14-2.44,1.72-.54.39-1.07.77-1.61,1.17-.44.32-.87.64-1.3.97-.62.47-1.24.94-1.86,1.41-.33.25-.65.5-.98.75-.91.71-1.82,1.44-2.73,2.17-.28.23-.55.45-.83.68-.71.58-1.41,1.16-2.1,1.75-.28.24-.56.47-.84.71-.93.8-1.86,1.6-2.78,2.42-.86.77-1.71,1.54-2.56,2.32-.28.26-.56.52-.83.78-.58.55-1.16,1.09-1.74,1.65-.3.29-.61.58-.91.87-.7.68-1.39,1.36-2.08,2.05-.5.5-1,1.01-1.49,1.52-.22.23-.45.46-.67.69-1.82,1.88-3.61,3.81-5.36,5.78h0s-12.49,0-12.49,0c-1.16-1.08-2.41-2.06-3.73-2.93-4.87-3.24-10.68-5.01-16.87-5.01-3.96,0-7.86.7-11.51,2.03-.52.19-1.04.39-1.55.61-1.02.43-2.02.91-2.99,1.44-.97.53-1.92,1.1-2.83,1.73-1.83,1.24-3.53,2.67-5.08,4.27-3.49,3.61-5.95,7.93-7.26,12.62-.26.94-.48,1.89-.65,2.86-.34,1.93-.49,3.91-.44,5.91-.06,2.51.19,4.97.72,7.35.32,1.43.75,2.83,1.28,4.18.71,1.81,1.59,3.55,2.65,5.2,1.06,1.65,2.29,3.21,3.68,4.65.37.38.75.75,1.14,1.12.14.13.28.25.41.37.25.23.51.46.77.68.18.15.36.29.54.44.23.19.46.37.69.55.2.16.41.31.62.46.22.16.43.31.65.47.23.16.46.31.69.46.2.13.4.26.61.39.25.16.51.31.77.47.18.11.37.21.55.32.28.16.57.32.85.47.16.08.32.16.48.24.32.16.64.32.96.47.11.05.23.1.34.16.37.17.75.33,1.13.49.02.01.05.02.08.03,3.25,1.32,6.73,2.14,10.29,2.4-1.17,2.55-2.31,5.14-3.4,7.75-.04.09-.08.18-.11.28-.68,1.64-1.35,3.28-2.01,4.94-.03.09-.07.17-.1.26-.3.78-.6,1.55-.9,2.34-.13.35-.27.7-.4,1.05-.43,1.14-.85,2.29-1.27,3.45-.19.54-.39,1.08-.58,1.62-.21.61-.43,1.22-.64,1.83-.25.71-.49,1.43-.73,2.14-.21.62-.41,1.24-.62,1.86-.31.94-.61,1.89-.91,2.84-.14.44-.28.89-.42,1.33-.33,1.07-.66,2.14-.97,3.21-.05.18-.11.36-.16.55-.36,1.22-.71,2.46-1.06,3.69-.09.34-.19.67-.28,1.01-.35,1.29-.7,2.58-1.04,3.87-.73,2.8-1.39,5.6-1.97,8.38-5.96,6.48-10.92,13.4-14.18,19.97-12.69,25.32-5.71,43.06-.42,51.38,5.27,8.29,13.18,14.3,22.36,17.3.06.12.11.25.17.37.26.56.51,1.13.78,1.68.24.51.49,1.02.74,1.53.26.53.53,1.06.79,1.59.26.52.53,1.03.8,1.55.27.52.55,1.03.83,1.54.28.51.56,1.03.84,1.54.29.51.59,1.02.88,1.53.29.5.58,1,.88,1.5.38.64.78,1.26,1.17,1.89.5.79,1,1.58,1.52,2.36.28.42.55.84.83,1.26-1.28-.91-2.57-1.84-3.84-2.79-.05-.04-.1-.07-.15-.11-1.24-.92-2.47-1.86-3.7-2.81-.1-.08-.19-.15-.29-.23-.7-.54-1.39-1.09-2.09-1.65-.12-.09-.23-.19-.35-.28-.36-.29-.72-.58-1.08-.87-.17-.14-.34-.28-.5-.41-.56-.46-1.12-.92-1.67-1.38-.22-.18-.44-.37-.66-.55-.31-.26-.61-.52-.91-.77-.37-.31-.73-.63-1.09-.94-.33-.29-.66-.58-.99-.86-.28-.25-.56-.5-.84-.75-.25-.22-.49-.44-.73-.66-.45-.41-.9-.82-1.34-1.23-.22-.2-.43-.4-.64-.6-.34-.32-.69-.64-1.02-.96-.17-.16-.34-.32-.51-.49-.46-.44-.92-.89-1.37-1.33-.18-.17-.35-.35-.53-.52-.43-.43-.87-.86-1.29-1.3-.12-.12-.24-.24-.35-.36-.41-.42-.81-.84-1.21-1.26-.14-.15-.28-.3-.42-.45-.45-.48-.9-.97-1.34-1.45-.1-.11-.19-.21-.28-.32-.39-.43-.77-.86-1.14-1.28-.1-.12-.21-.24-.31-.35-.43-.5-.86-.99-1.27-1.49-.1-.11-.19-.23-.28-.34-.38-.46-.75-.91-1.11-1.36-.06-.08-.12-.15-.18-.23-.4-.51-.79-1.01-1.18-1.52-.09-.12-.18-.24-.27-.35-.39-.52-.77-1.04-1.14-1.55l-15.01-21.01-3.3,25.61c-.25,1.93-.47,3.87-.66,5.82-.11,1.15-.21,2.3-.31,3.46-.06.73-.11,1.46-.16,2.19-.08,1.19-.15,2.39-.21,3.58-.04.69-.07,1.38-.1,2.08-.05,1.23-.09,2.46-.12,3.69-.01.65-.03,1.3-.03,1.94,0,.63-.01,1.26-.02,1.89,0,2.51.03,5.01.12,7.47.02.62.05,1.23.07,1.84.19,4.28.53,8.45,1.01,12.44.14,1.14.29,2.26.45,3.37.16,1.11.33,2.2.52,3.27.09.54.19,1.07.28,1.59.19,1.05.4,2.09.62,3.1,1.51,7.01,4.67,15.29,7.89,22.78,2.2,5.13,4.44,9.88,6.19,13.62.17.36.34.71.49,1.05.16.34.31.66.45.97l6.15,13.18,15.56-15.67c.71,1.04,1.47,2.14,2.29,3.27.17.23.33.46.5.7.53.73,1.08,1.47,1.65,2.23.66.88,1.35,1.77,2.06,2.68.36.45.72.91,1.09,1.37,1.42,1.76,3,3.64,4.74,5.61.35.39.7.79,1.06,1.19,1.08,1.2,2.23,2.44,3.43,3.69,2.4,2.51,5.04,5.12,7.92,7.76.96.88,1.95,1.77,2.96,2.66,7.6,6.67,16.71,13.48,27.4,19.62,1.16.66,2.45,1.44,3.77,2.25.8.49,1.6.99,2.4,1.48,1.38.85,2.73,1.69,4.03,2.47.86.52,1.7,1.02,2.51,1.48,1.21.69,2.35,1.31,3.38,1.81,11.67,6.1,24.5,15.89,36.23,26.41.77.69,1.54,1.39,2.3,2.09.43.4.87.8,1.3,1.2.79.73,1.58,1.47,2.36,2.21.78.74,1.55,1.47,2.31,2.21,2.29,2.21,4.51,4.43,6.64,6.61,1.42,1.46,2.8,2.9,4.13,4.33.33.36.66.71.99,1.07,5.57,6.02,10.28,11.67,13.68,16.33l8.2,11.25,8.2-11.25c.15-.2.3-.41.45-.61.11-.14.21-.29.32-.43,1.82-2.43,3.96-5.1,6.37-7.93.08-.1.16-.19.25-.29.53-.61,1.06-1.24,1.61-1.86,1.34-1.53,2.75-3.1,4.21-4.69.96-1.05,1.95-2.11,2.97-3.17.53-.56,1.06-1.11,1.6-1.67,1.04-1.07,2.09-2.15,3.17-3.24.37-.37.74-.74,1.11-1.11.56-.55,1.12-1.11,1.68-1.66,1.12-1.1,2.26-2.2,3.41-3.3.4-.38.8-.76,1.2-1.14.38-.36.76-.71,1.14-1.07.63-.59,1.27-1.18,1.91-1.77.55-.51,1.11-1.01,1.67-1.52.62-.55,1.23-1.11,1.85-1.66.41-.36.82-.72,1.22-1.08.47-.41.93-.82,1.4-1.22.95-.82,1.91-1.64,2.88-2.45.45-.38.91-.76,1.36-1.14.53-.44,1.06-.88,1.6-1.31.16-.13.31-.26.47-.38,3.28-2.66,6.59-5.2,9.89-7.58.42-.3.85-.61,1.27-.9.84-.6,1.69-1.18,2.53-1.75s1.68-1.13,2.52-1.68c3.35-2.18,6.66-4.15,9.88-5.83,2.07-1,4.54-2.46,7.2-4.08.89-.54,1.8-1.1,2.72-1.67.53-.33,1.07-.66,1.6-.99.53-.33,1.07-.65,1.59-.97,1.05-.64,2.06-1.24,2.98-1.77,1.79-1.03,3.54-2.07,5.24-3.14,2.56-1.59,5.02-3.22,7.38-4.87,1.58-1.1,3.11-2.21,4.61-3.33,1.49-1.12,2.95-2.24,4.36-3.37,2.12-1.69,4.14-3.4,6.08-5.1,1.94-1.7,3.78-3.41,5.54-5.1,2.35-2.26,4.54-4.5,6.58-6.69,1.02-1.1,2-2.18,2.95-3.26,5.2-5.9,9.29-11.38,12.36-15.93l15.56,15.67,6.15-13.18c.29-.62.61-1.3.95-2.03,4.32-9.2,11.54-24.58,14.08-36.4.44-2.03.83-4.14,1.17-6.32.26-1.63.49-3.31.7-5.02.41-3.42.72-6.97.92-10.61.13-2.43.22-4.89.26-7.39.04-2.49.03-5.01-.02-7.54-.01-.63-.03-1.27-.05-1.9-.02-.66-.05-1.32-.07-1.99-.08-1.84-.18-3.67-.3-5.51-.26-3.85-.64-7.69-1.13-11.47l-3.3-25.61h0s-15.01,21.01-15.01,21.01c-.39.54-.78,1.08-1.19,1.62-.13.18-.27.35-.41.53-.28.36-.56.72-.84,1.09-.17.21-.34.42-.51.64-.26.33-.53.66-.8.98-.19.22-.37.45-.56.67-.27.32-.54.64-.81.95-.2.23-.39.45-.59.68-.29.34-.59.67-.89,1.01-.36.4-.72.8-1.09,1.2-.27.29-.54.59-.81.88-.28.3-.57.6-.86.91-.21.22-.41.43-.62.65-.31.32-.63.64-.95.97-.18.19-.37.37-.55.56-.34.34-.69.69-1.04,1.03-.15.14-.29.29-.44.43-2.33,2.27-4.79,4.5-7.33,6.69-.03.03-.07.06-.1.09-.52.45-1.04.89-1.56,1.33.22-.44.43-.88.63-1.32,0-.02.02-.03.02-.05.61-1.3,1.18-2.61,1.71-3.92.02-.05.04-.09.06-.14.7-1.73,1.33-3.48,1.89-5.22.03-.1.06-.2.09-.29.39-1.23.74-2.45,1.06-3.69.03-.12.06-.23.09-.35.09-.37.18-.73.27-1.1.04-.16.07-.32.11-.48.26-1.14.49-2.27.69-3.41.04-.21.08-.43.11-.64.05-.32.1-.63.15-.95.04-.24.07-.49.11-.73.06-.46.13-.91.18-1.37.04-.32.08-.63.11-.95.03-.27.06-.55.08-.82.03-.29.05-.58.08-.87.02-.26.04-.52.06-.78.03-.41.05-.82.07-1.23.01-.27.03-.55.04-.82.02-.38.03-.77.04-1.15,0-.23,0-.45.01-.68,0-.31,0-.63,0-.94,2.79-3.03,5.55-6.3,8.35-9.7l8.24-10-14.5-11.84c.35-1.71.5-3.34.47-4.92-.2-11.01-9.08-19.31-20.64-19.31-3.83,0-6.56,1.81-9.78,3.61-3.31-2.18-6.89-4.15-10.75-5.88-.42-.19-.85-.38-1.27-.56-.14-.06-.27-.11-.41-.17-.29-.12-.57-.24-.86-.36-.16-.06-.31-.13-.47-.19-.26-.11-.53-.21-.79-.32-.16-.06-.32-.12-.47-.19-.27-.1-.54-.21-.81-.31-.14-.05-.29-.11-.43-.16-.32-.12-.63-.23-.95-.34-.09-.03-.18-.06-.27-.1-.4-.14-.81-.28-1.21-.42-.09-.03-.18-.06-.27-.09-.31-.1-.62-.2-.92-.3-.14-.04-.27-.09-.4-.13-.26-.08-.52-.16-.77-.24-.14-.04-.28-.09-.42-.13-.25-.08-.5-.15-.75-.23-.13-.04-.26-.08-.4-.12-.27-.08-.54-.15-.8-.23-.11-.03-.21-.06-.32-.09-.74-.21-1.47-.4-2.18-.57-.1-.02-.2-.05-.3-.07-.25-.06-.5-.12-.75-.18-.12-.03-.24-.06-.35-.08-.23-.05-.45-.11-.68-.16-.12-.03-.23-.05-.35-.08-.23-.05-.45-.1-.67-.15-.1-.02-.21-.05-.31-.07-.26-.05-.51-.11-.76-.16-.06-.01-.12-.02-.18-.04-.31-.06-.62-.12-.92-.18-.05-.01-.11-.02-.16-.03-.24-.05-.48-.09-.71-.13-.09-.02-.18-.03-.27-.05-.19-.03-.38-.07-.57-.1-.1-.02-.19-.03-.29-.05-.17-.03-.35-.06-.51-.08-.09-.02-.19-.03-.28-.05-.17-.03-.34-.05-.51-.08-.08-.01-.16-.02-.24-.04-.23-.03-.45-.07-.66-.1-.01,0-.03,0-.04,0-.22-.03-.44-.06-.65-.09-.08-.01-.16-.02-.23-.03-.13-.02-.25-.03-.38-.05-.08-.01-.17-.02-.25-.03-.11-.01-.21-.03-.32-.04-.08,0-.16-.02-.24-.03-.09-.01-.18-.02-.27-.03-.08,0-.16-.02-.24-.03-.07,0-.14-.01-.21-.02-.08,0-.16-.02-.23-.02l6.96-5.16c.4-.06.81-.13,1.23-.19,0,0,0,0,0,0,.42-.07.84-.13,1.27-.2,1.38-.22,2.73-.48,4.03-.76.72-.16,1.43-.33,2.13-.5.23-.06.45-.12.68-.18.46-.12.93-.25,1.38-.38.26-.08.52-.16.78-.24.41-.12.81-.25,1.21-.38.27-.09.53-.18.79-.27.38-.13.75-.27,1.12-.4.26-.1.52-.19.77-.29.37-.14.73-.29,1.09-.44.24-.1.48-.2.72-.31.38-.17.75-.34,1.11-.51.2-.1.41-.19.61-.29.55-.27,1.09-.55,1.61-.84.12-.07.23-.14.35-.2.41-.23.81-.46,1.2-.7.21-.13.4-.26.61-.39.3-.19.59-.38.88-.57.21-.15.42-.3.63-.45.26-.19.52-.38.77-.57.21-.16.42-.32.62-.49.24-.19.48-.39.71-.59.2-.17.4-.34.59-.51.23-.2.45-.41.67-.62.18-.17.37-.35.55-.53.23-.23.44-.46.66-.69.16-.17.32-.33.47-.51.35-.39.69-.79,1.02-1.2h0s0,0,0,0c.73-.92,1.41-1.88,2.01-2.88.23-.38.44-.75.65-1.13.06-.12.12-.23.18-.35.14-.27.27-.53.4-.79.06-.13.12-.25.18-.38.12-.26.24-.53.35-.79.05-.11.09-.22.14-.33.13-.33.26-.65.37-.98.01-.04.03-.08.04-.12.27-.77.49-1.53.68-2.27.01-.05.02-.1.04-.15.08-.33.15-.65.22-.98,0-.04.02-.09.03-.13.07-.36.13-.71.19-1.06h0c.65-.42,1.3-.86,1.94-1.31.03-.02.06-.04.08-.06.56-.39,1.11-.79,1.66-1.2.15-.11.29-.22.43-.33.45-.34.89-.68,1.33-1.03.15-.12.31-.24.46-.37.56-.45,1.12-.92,1.68-1.39.42-.36.84-.73,1.26-1.1M234.83,333.29c3.73,2.27,8.22,3.5,13.11,3.5,3.46,0,6.74-.53,9.95-1.61h23.2c-.98.69-1.94,1.3-2.89,1.85-4.35,2.21-8.47,3.45-11.21,4.11-4.29.93-9.58,1.59-16.62,2.06-2.47.17-4.94.25-7.34.25-.74,0-1.49-.01-2.22-.03-.42,0-.83-.02-1.25-.04-.29-.01-.57-.02-.86-.03-.55-.02-1.1-.05-1.65-.09-.11,0-.23-.01-.34-.02-.63-.04-1.25-.08-1.88-.14v-9.81ZM234.83,146.11c.45-2.34.86-4.73,1.24-7.1.13-.79.25-1.57.38-2.35.15-.96.31-1.93.47-2.9.04-.23.08-.45.11-.68.13-.81.27-1.61.41-2.42.03-.17.06-.33.09-.5,1.06-.12,2.12-.24,3.19-.34.02,0,.04,0,.06,0,.96-.09,1.92-.17,2.88-.25.24-.02.49-.04.73-.06.77-.06,1.55-.11,2.33-.16.27-.02.54-.03.81-.05,1.01-.06,2.02-.11,3.03-.15,4.13-.16,7.51-.24,10.62-.24,22.15,0,34.14,4.29,44.23,15.84.19.21.37.43.54.63.51.62.98,1.21,1.38,1.79,0,0,0,0,0,0h-72.5v-1.09ZM188.42,66.58c.07-.93.21-1.84.41-2.72.1-.44.21-.86.34-1.28.13-.42.26-.82.41-1.21.07-.2.15-.39.23-.58.48-1.13,1.06-2.14,1.7-2.96,2.1-2.71,7.56-3.94,11.74-3.94h.26s.26,0,.26,0c3.92,0,8.96,1.08,11.31,3.45.16.16.3.32.43.49.74.96,1.41,2.16,1.93,3.53.3.78.55,1.62.75,2.49.59,2.62.67,5.58-.05,8.44-.18.72-.41,1.43-.7,2.12-.1.23-.2.46-.31.69-.54,1.15-1.24,2.25-2.12,3.28l-.1.11-.09.12c-.32.4-.63.8-.92,1.2-.09.13-.18.25-.27.38-.2.28-.39.55-.58.83-.1.14-.19.29-.28.43-.17.26-.34.53-.51.79-.09.14-.17.28-.26.42-.16.27-.32.53-.47.8-.07.13-.15.26-.22.39-.16.28-.31.56-.45.83-.06.11-.12.23-.18.34-.15.3-.3.6-.45.9-.04.09-.09.18-.13.26-.16.33-.31.66-.46.99-.02.05-.05.1-.07.16-.17.38-.33.75-.48,1.13,0,0,0,0,0,0-.91.17-1.82.35-2.72.53-.74.15-1.48.31-2.22.47-.25.05-.49.11-.74.16-1.56.34-3.11.7-4.66,1.08-.09-.24-.18-.49-.27-.74-.05-.15-.11-.29-.17-.44-.06-.16-.13-.33-.19-.5-.05-.14-.11-.28-.17-.42-.11-.28-.23-.56-.35-.84-.05-.12-.1-.23-.15-.35-.09-.21-.19-.43-.29-.64-.05-.12-.11-.23-.16-.35-.14-.3-.29-.61-.44-.92-.04-.09-.09-.17-.13-.26-.13-.25-.26-.51-.39-.76-.05-.1-.11-.2-.16-.3-.18-.32-.36-.65-.55-.97-.03-.06-.07-.12-.1-.18-.17-.28-.34-.57-.52-.85-.06-.09-.11-.18-.17-.28-.21-.34-.43-.67-.66-1.01-.02-.03-.04-.06-.06-.09-.21-.31-.43-.62-.66-.93-.06-.09-.13-.18-.19-.26-.25-.34-.51-.68-.78-1.02l-.09-.12-.1-.11c-.88-1.03-1.58-2.14-2.12-3.28-.22-.46-.41-.92-.58-1.39-.33-.94-.57-1.9-.73-2.86-.23-1.44-.28-2.89-.17-4.28M165.29,264.01l6.92-17.23v20.96c-1.98-1.62-4.31-2.89-6.92-3.72M147.69,210.25c.07-.75.14-1.5.22-2.25.03-.25.06-.49.09-.74.06-.5.12-.99.18-1.48.04-.29.08-.58.12-.87.06-.44.13-.88.19-1.32.05-.31.1-.61.15-.91.07-.42.14-.84.22-1.26.06-.31.11-.61.17-.92.08-.42.16-.83.25-1.24.06-.3.12-.6.18-.9.09-.44.19-.87.29-1.3.06-.27.12-.53.18-.8.16-.67.33-1.34.5-2,0,0,0,0,0-.01h21.76v42.84l-24.63.31c-.7-8.98-.67-18.1.12-27.14M172.2,425.08c-.23.01-.48.02-.72.03-.25,0-.5.02-.75.03-1.54.05-3.28.08-5.23.08-4.5,0-9.39-.16-14.63-.49-1.5-.09-3.02-.2-4.58-.32-1.49-.11-3.01-.24-4.55-.38-1.67-.15-3.37-.31-5.1-.49-.83-.09-1.67-.18-2.52-.27-1.69-.19-3.41-.38-5.15-.59-6.53-.79-12.8-2.3-18.62-4.49l-.23-.09-.09-.03-.08-.02-.25-.08c-2.05-.62-4.51-1.73-7.19-3.22-.38-.21-.77-.44-1.16-.66-3.13-1.84-6.53-4.16-9.9-6.8-2.02-1.58-3.77-3.07-5.26-4.42-.25-.23-.49-.45-.72-.67-.23-.22-.46-.43-.68-.64l5.89-4.99,6.94-5.88c.57.45,1.14.89,1.72,1.34.02.01.03.03.05.04.56.43,1.12.85,1.69,1.27.03.03.07.05.11.08.55.4,1.1.81,1.65,1.2.05.04.11.08.16.12.54.38,1.07.76,1.61,1.14.07.05.15.1.22.15.52.36,1.05.72,1.58,1.07.09.06.18.12.27.18.51.34,1.03.68,1.54,1.02.11.07.22.14.33.21.5.32,1,.64,1.5.96.13.08.26.16.39.24.48.3.97.6,1.46.9.15.09.3.18.45.27.47.29.95.57,1.43.85.16.1.33.19.49.29.46.27.93.53,1.39.8.18.1.36.21.55.31.45.25.9.5,1.36.75.2.11.4.22.6.33.44.24.89.48,1.34.71.21.11.42.22.63.33.44.23.88.45,1.32.68.22.11.44.23.66.34.44.22.89.44,1.33.66.22.11.45.22.67.33.47.23.95.45,1.43.68.2.09.39.19.59.28.67.31,1.35.62,2.03.93.77.34,1.55.68,2.32,1.01.23.1.47.2.71.3.57.24,1.13.47,1.71.71.25.1.49.2.74.3.66.26,1.31.52,1.98.78.14.05.27.11.41.16.81.31,1.62.61,2.44.91.17.06.34.12.51.18.65.23,1.31.47,1.97.69.22.08.45.15.67.23.67.23,1.35.45,2.03.67.15.05.31.1.46.15,1.7.55,3.42,1.07,5.15,1.56.16.05.32.09.49.14.74.21,1.48.41,2.23.61.14.04.27.07.41.11,1.79.47,3.59.92,5.4,1.33.07.02.13.03.2.05.84.19,1.69.38,2.53.56.1.02.21.04.31.07,2.77.58,5.56,1.1,8.38,1.55.07.01.15.02.22.03.92.15,1.85.29,2.78.42,0,0,0,0,0,0v3.47ZM321.58,402.19c-.23.22-.48.44-.72.67-1.13,1.03-2.42,2.13-3.85,3.3-.46.37-.92.74-1.41,1.13-.84.66-1.69,1.3-2.53,1.92-.84.62-1.68,1.21-2.51,1.78-.67.46-1.33.89-1.98,1.32-.32.21-.63.41-.95.6-.5.31-1,.62-1.49.91-.54.32-1.08.64-1.61.93-2.68,1.5-5.14,2.61-7.19,3.22l-.33.1-.32.12c-5.74,2.16-11.91,3.65-18.33,4.45-.1.01-.19.03-.29.04-7.84.95-15.16,1.64-21.9,2.06-2.22.14-4.37.25-6.45.33-.05,0-.1,0-.15,0-2.79.11-5.47.16-8.02.16s-4.83-.06-6.71-.14v-3.65c.85-.09,1.69-.18,2.52-.28.19-.02.39-.05.58-.07.73-.09,1.45-.17,2.17-.27.12-.02.25-.03.37-.05.85-.11,1.69-.22,2.52-.34.13-.02.25-.04.38-.05.71-.1,1.43-.21,2.14-.31.18-.03.35-.05.53-.08,1.66-.25,3.29-.52,4.92-.81.15-.03.3-.05.45-.08.71-.13,1.42-.26,2.13-.39.11-.02.22-.04.34-.06.83-.16,1.65-.32,2.47-.49.04,0,.07-.02.11-.02.77-.16,1.53-.32,2.29-.49.13-.03.27-.06.4-.09,1.61-.36,3.21-.74,4.8-1.15.08-.02.17-.04.25-.06.73-.19,1.46-.38,2.19-.58.08-.02.16-.04.24-.07,1.59-.43,3.17-.89,4.74-1.38.08-.03.16-.05.25-.08,1.59-.49,3.16-1.01,4.72-1.55,0,0,.01,0,.02,0,.77-.27,1.54-.54,2.3-.83.05-.02.09-.03.14-.05,1.55-.58,3.1-1.18,4.63-1.81.03-.01.07-.03.1-.04,2.31-.96,4.59-1.98,6.85-3.08.02-.01.04-.02.06-.03,3.8-1.84,7.52-3.89,11.17-6.15,0,0,0,0,.01,0,3.66-2.27,7.26-4.76,10.8-7.49l9.86,8.36c-.22.21-.45.42-.68.64"/>
            <path class="cls-26" d="M344.85,213.65c6.16-5.76,11.22-12.5,15.05-20.08,1.3-2.58,2.44-5.21,3.42-7.87,2.39-4.37,3.65-9.28,3.62-14.39,1.56-11,.49-22.27-3.27-33.07-7.15-20.53-22.72-35.28-46.25-43.83-15.99-5.81-36.03-8.88-61.08-9.36,2.04-7.32,2.57-14.75,1.58-22.19-1.39-10.37-5.73-20.6-12.9-30.41l-.11-.15-.12-.15c-7.39-9.34-19.53-15.61-33.33-17.21-2.46-.38-5.13-.57-7.94-.57-2.8,0-5.46.19-7.93.57-13.8,1.6-25.94,7.87-33.33,17.21l-.12.15-.11.15c-7.17,9.8-11.51,20.03-12.9,30.41-1.57,11.71.64,23.37,6.56,34.66l.07.12c1.41,2.6,2.93,4.99,4.4,7.31-14.02,7.07-27.09,15.96-39.02,26.58-5.48,4.87-10.69,10.11-15.65,15.67h-12.49c-5.48-5.1-12.74-7.94-20.59-7.94-9.05,0-17.79,3.67-23.96,10.07-5.58,5.78-8.53,13.37-8.34,21.39-.19,8.02,2.76,15.61,8.34,21.39,5.63,5.83,13.38,9.39,21.56,9.98-6.32,13.77-11.56,28.49-15.6,44.03-6.13,23.57-7.27,46.27-3.38,67.47,3.2,17.46,9.72,33.54,19.4,47.9-13.96-9.92-27.63-21.97-36.11-33.83l-15.01-21.01-3.3,25.61c-2.57,19.95-2.02,41.53,1.47,57.74,2.54,11.81,9.77,27.21,14.08,36.4.34.73.66,1.4.95,2.02l6.15,13.18,15.56-15.67c2.09,3.08,4.62,6.55,7.59,10.24,9.08,11.27,24.7,27.45,47.5,40.54,1.85,1.06,4.05,2.42,6.18,3.73,3.68,2.27,7.17,4.42,9.92,5.75,25.76,13.47,57.15,44.9,69.95,62.45l8.2,11.25,8.2-11.25c12.79-17.55,44.19-48.98,69.95-62.45,2.76-1.33,6.24-3.48,9.92-5.75,2.13-1.31,4.33-2.67,6.18-3.73,28.67-16.45,46.15-37.54,55.1-50.78l15.56,15.67,6.15-13.18c.29-.62.61-1.3.95-2.03,4.32-9.2,11.54-24.58,14.08-36.4,3.49-16.21,4.04-37.79,1.46-57.74l-3.3-25.61-15.01,21.01c-5.55,7.77-13.34,15.62-21.97,22.89,7-14.24,9.27-29.15,6.58-43.85-3.82-20.82-16.79-36.76-37.5-46.09-12.29-5.53-23.62-7.06-27.69-7.45l6.96-5.16c.81-.13,1.65-.26,2.5-.39,1.38-.22,2.73-.48,4.03-.76,10.74-2.34,18.71-6.72,23.75-13.04h0c.73-.92,1.41-1.88,2.01-2.88,1.98-3.26,3-6.51,3.46-9.46,2.64-1.71,5.17-3.6,7.58-5.67.42-.36.84-.73,1.26-1.1M322.26,401.55c-1.76,1.68-3.97,3.62-6.66,5.73-6.75,5.29-13.57,9.28-18.25,10.69l-.33.1-.32.12c-5.83,2.19-12.1,3.7-18.62,4.49-13.94,1.69-26.23,2.55-36.53,2.55-2.6,0-4.83-.06-6.71-.14v-3.65c29.89-3.18,54.92-10.76,77.57-28.25l9.86,8.36ZM192.2,78.63l-.09-.12-.1-.11c-5.62-6.61-3.9-16.18-.5-20.56,2.1-2.71,7.56-3.94,11.74-3.94h.26s.26,0,.26,0c4.18,0,9.64,1.23,11.74,3.94,3.4,4.37,5.12,13.95-.5,20.56l-.1.11-.09.12c-2.66,3.33-4.43,6.71-5.72,9.86-3.48.65-6.93,1.4-10.34,2.24-1.33-3.73-3.26-7.97-6.57-12.1M147.69,210.25c.49-5.6,1.41-10.93,2.75-16.01h21.76v113.56c-8.27-11.13-14.8-24.6-19.1-39.5-5.27-18.26-7.14-38.33-5.41-58.05M305.4,144.78c.74.85,1.38,1.65,1.93,2.42h-72.5v-1.09c.6-3.12,1.12-6.33,1.62-9.45.34-2.15.69-4.33,1.07-6.49,4.25-.49,8.59-.83,13.04-1,4.13-.16,7.51-.24,10.62-.24,22.15,0,34.13,4.29,44.23,15.84M292.04,286.55c6.16,9.03,8.32,17.51,6.44,25.21-1.09,4.47-2.83,8.53-5.15,12.09-6.28,6.79-10.72,10.66-15.13,13.18-4.35,2.21-8.47,3.45-11.21,4.11-4.29.93-9.58,1.59-16.62,2.06-2.47.17-4.94.25-7.34.25-2.77,0-5.51-.12-8.2-.34v-58.34c4.5-3.92,8.02-8.13,10.73-12.1l3.07-.32c5.32-.56,9.66-1.22,13.26-2,5.45-1.19,9.33-2.7,12.54-4.45l5.68,7.28c2.33,2.99,4.9,5.73,7.38,8.39,1.61,1.72,3.14,3.36,4.55,4.99M128.15,409.11c13.6,6.08,28.52,10.29,44.05,12.51v3.47c-1.88.09-4.11.14-6.71.14-10.29,0-22.58-.86-36.53-2.55-6.53-.79-12.8-2.3-18.62-4.49l-.32-.12-.33-.1c-4.68-1.41-11.5-5.4-18.25-10.69-2.69-2.11-4.9-4.05-6.66-5.73l12.83-10.87c9.19,7.26,19.47,13.48,30.55,18.43"/>
            <path d="M195.32,548.65c-12.79-17.55-44.19-48.98-69.95-62.45-2.75-1.33-6.24-3.48-9.92-5.75-2.13-1.31-4.33-2.67-6.18-3.73-22.8-13.09-38.42-29.27-47.5-40.54-2.97-3.69-5.5-7.17-7.59-10.24l-15.56,15.67-6.15-13.18c-.29-.62-.61-1.3-.95-2.02-4.32-9.2-11.54-24.59-14.08-36.4-3.49-16.21-4.04-37.79-1.47-57.74l3.3-25.61,15.01,21.01c13.28,18.59,39.33,37.63,59.25,48.25l13.18,7.03-21.95,18.61c1.76,1.68,3.97,3.62,6.66,5.73,6.75,5.29,13.57,9.28,18.25,10.69l.33.1.32.12c5.83,2.19,12.1,3.7,18.62,4.49,13.94,1.69,26.23,2.55,36.53,2.55,2.6,0,4.83-.06,6.71-.14v-230.83h-79.22c-5.48,5.1-12.74,7.94-20.59,7.94-9.05,0-17.79-3.67-23.97-10.07-5.58-5.78-8.53-13.37-8.34-21.39-.19-8.02,2.76-15.61,8.34-21.39,6.18-6.4,14.91-10.07,23.96-10.07,7.85,0,15.11,2.84,20.59,7.94h79.22v-1.09c-.6-3.12-1.12-6.33-1.62-9.45-1.05-6.53-2.13-13.29-4.01-19.01l-.09-.26-.07-.27c-1.07-3.97-3.57-7.9-6.21-12.07-1.49-2.35-3.03-4.78-4.46-7.41l-.07-.12c-5.92-11.28-8.13-22.94-6.56-34.66,1.39-10.37,5.73-20.61,12.9-30.41l.11-.15.12-.15c7.39-9.34,19.53-15.61,33.33-17.21,2.47-.38,5.13-.57,7.93-.57,2.8,0,5.47.19,7.94.57,13.8,1.6,25.94,7.87,33.33,17.21l.12.15.11.15c7.17,9.8,11.51,20.03,12.9,30.41,1.57,11.71-.64,23.37-6.56,34.66l-.07.12c-1.43,2.63-2.97,5.06-4.46,7.41-2.64,4.16-5.14,8.09-6.21,12.07l-.07.27-.09.26c-1.89,5.73-2.97,12.48-4.01,19.01-.5,3.12-1.01,6.34-1.62,9.45v1.09h79.22c5.48-5.1,12.74-7.94,20.59-7.94,9.05,0,17.79,3.67,23.96,10.07,5.58,5.78,8.53,13.37,8.34,21.39.19,8.02-2.76,15.61-8.34,21.39-6.18,6.4-14.91,10.07-23.97,10.07-7.85,0-15.11-2.84-20.59-7.94h-79.22v230.84c1.88.08,4.11.14,6.71.14,10.3,0,22.59-.86,36.53-2.55,6.53-.79,12.8-2.3,18.62-4.49l.32-.12.33-.1c4.68-1.41,11.5-5.4,18.25-10.69,2.69-2.11,4.9-4.05,6.66-5.73l-21.95-18.61,13.18-7.03c19.92-10.62,45.97-29.66,59.25-48.25l15.01-21.01,3.3,25.61c2.57,19.95,2.02,41.53-1.46,57.74-2.54,11.81-9.77,27.2-14.08,36.4-.34.73-.66,1.41-.95,2.03l-6.15,13.18-15.56-15.67c-8.95,13.24-26.43,34.33-55.1,50.78-1.85,1.06-4.05,2.42-6.18,3.73-3.68,2.27-7.17,4.42-9.92,5.75-25.76,13.47-57.15,44.9-69.95,62.45l-8.2,11.25-8.2-11.25ZM202.28,100.86c.08.04.43.21,1.23.35.8-.14,1.15-.3,1.23-.35.56-.64,1.39-3.4,1.94-5.24,1.38-4.6,3.27-10.91,8.15-17l.09-.12.1-.11c5.62-6.61,3.9-16.18.5-20.56-2.1-2.71-7.56-3.94-11.74-3.94h-.26s-.26,0-.26,0c-4.18,0-9.64,1.23-11.74,3.94-3.4,4.37-5.12,13.95.5,20.56l.1.11.09.12c4.88,6.09,6.77,12.39,8.15,17,.55,1.83,1.38,4.59,1.94,5.24"/>
            <path class="cls-24" d="M380.99,333.56c-15.34,21.47-44.24,41.44-62.73,51.3l18.21,15.43c-3.79,7.33-23.13,23.46-36.21,27.38-6.11,2.29-13.08,4.11-20.97,5.07-39.82,4.83-54.6,1.51-54.6,1.51v-250.15h93.85c11.57,15.7,38.97,6.5,38.26-13.38.71-19.88-26.68-29.07-38.26-13.38h-93.85v-12.23c1.96-9.72,2.94-20.92,6.14-30.64,2.18-8.07,7.65-14.47,11.55-21.67,10.35-19.74,6.13-38.41-5.55-54.37-6.34-8.01-17-12.36-26.73-13.45-1.97-.31-4.2-.48-6.58-.48-2.38,0-4.61.17-6.58.48-9.73,1.09-20.39,5.44-26.73,13.45-11.67,15.96-15.9,34.63-5.55,54.37,3.9,7.2,9.37,13.6,11.55,21.67,3.2,9.73,4.18,20.92,6.14,30.64v12.23h-93.85c-11.58-15.69-38.97-6.5-38.26,13.38-.71,19.87,26.68,29.08,38.26,13.38h93.85v250.15s-14.79,3.32-54.6-1.51c-7.9-.96-14.87-2.77-20.97-5.07-13.09-3.93-32.42-20.06-36.21-27.38l18.21-15.43c-18.5-9.86-47.39-29.84-62.73-51.3-2.24,17.4-2.13,38.27,1.32,54.3,2.5,11.62,10.68,28.49,14.31,36.27l14.47-14.57s16.69,34.53,58.19,58.35c5.09,2.92,11.84,7.42,15.59,9.21,27.17,14.15,59.81,46.63,73.6,65.55,13.79-18.92,46.43-51.4,73.6-65.55,3.75-1.78,10.5-6.29,15.59-9.21,41.5-23.82,58.19-58.35,58.19-58.35l14.47,14.57c3.63-7.78,11.81-24.65,14.31-36.27,3.45-16.03,3.57-36.9,1.32-54.3M203.51,111.43c-15.15-1.41-9.83-14.72-19.23-26.46-8.71-10.24-7.24-25.04-.78-33.35,5.91-7.6,17.58-7.88,20.01-7.85,2.43-.03,14.1.25,20.01,7.85,6.46,8.31,7.93,23.11-.78,33.35-9.4,11.74-4.08,25.06-19.23,26.46"/>
            <path class="cls-24" d="M380.99,333.56c-15.34,21.47-44.24,41.44-62.73,51.3l18.21,15.43c-3.79,7.33-23.13,23.46-36.21,27.38-6.11,2.29-13.08,4.11-20.97,5.07-39.82,4.83-54.6,1.51-54.6,1.51v-250.15h93.85c11.57,15.7,38.97,6.5,38.26-13.38.71-19.88-26.68-29.07-38.26-13.38h-93.85v-12.23c1.96-9.72,2.94-20.92,6.14-30.64,2.18-8.07,7.65-14.47,11.55-21.67,10.35-19.74,6.13-38.41-5.55-54.37-6.34-8.01-17-12.36-26.73-13.45-1.97-.31-4.2-.48-6.58-.48-2.38,0-4.61.17-6.58.48-9.73,1.09-20.39,5.44-26.73,13.45-11.67,15.96-15.9,34.63-5.55,54.37,3.9,7.2,9.37,13.6,11.55,21.67,3.2,9.73,4.18,20.92,6.14,30.64v12.23h-93.85c-11.58-15.69-38.97-6.5-38.26,13.38-.71,19.87,26.68,29.08,38.26,13.38h93.85v250.15s-14.79,3.32-54.6-1.51c-7.9-.96-14.87-2.77-20.97-5.07-13.09-3.93-32.42-20.06-36.21-27.38l18.21-15.43c-18.5-9.86-47.39-29.84-62.73-51.3-2.24,17.4-2.13,38.27,1.32,54.3,2.5,11.62,10.68,28.49,14.31,36.27l14.47-14.57s16.69,34.53,58.19,58.35c5.09,2.92,11.84,7.42,15.59,9.21,27.17,14.15,59.81,46.63,73.6,65.55,13.79-18.92,46.43-51.4,73.6-65.55,3.75-1.78,10.5-6.29,15.59-9.21,41.5-23.82,58.19-58.35,58.19-58.35l14.47,14.57c3.63-7.78,11.81-24.65,14.31-36.27,3.45-16.03,3.57-36.9,1.32-54.3M203.51,111.43c-15.15-1.41-9.83-14.72-19.23-26.46-8.71-10.24-7.24-25.04-.78-33.35,5.91-7.6,17.58-7.88,20.01-7.85,2.43-.03,14.1.25,20.01,7.85,6.46,8.31,7.93,23.11-.78,33.35-9.4,11.74-4.08,25.06-19.23,26.46"/>
          </g>
          <g class="cls-15">
            <path class="cls-4" d="M203.37,454.29l-30.13-27.41,1.02-235.94-122.46,12.3-8.71-24.59,3.49-26.17,24.18,19.25h124.76l-16.77-18.19-30.11-60.21,12.04-70.96,17.37,22.03s-12.36,12-9.15,31.69c2.35,14.43,7.91,14.08,11.51,23.93,3.6,9.85,5.25,15.85,12.29,23.82,7.03,7.97,10.67,11.25,10.67,11.25v319.19Z"/>
            <path class="cls-4" d="M185.34,52.76l-8.26-7.51s12.27-16.11,40.6-8.24c28.33,7.87,20.08,43,19.77,43.98-2.85,9.05-7.18,11.41-9.84,17.91-2.66,6.49-7.38,18-7.38,18,0,0-3.26,6-5.8,8.56-2.12,2.14-11.05,9.63-11.05,9.63v-28.92l19.61-46.04-30.5-7.08-7.15-.29Z"/>
            <polygon class="cls-4" points="211.26 171.88 234.85 194.35 316.12 208.95 343.45 198.84 326.6 171.88 211.26 171.88"/>
            <path class="cls-4" d="M203.37,550.6l123.19-54.29,27.15-51.2,12.02-16.94s-1.47-19.67-3.22-24.61c-1.74-4.94-2.91-11.33-2.91-11.33h-50.86l9.01,16.56,28.19-9.3s-3.78,18.89-29.64,36.91c-25.86,18.02-113.69,42.62-113.69,42.62,0,0-80.43-19.61-106.59-38.26-24.15-17.22-37.2-40.68-37.2-40.68l-10.75,36.03,47.08,88.34,108.21,26.16Z"/>
            <path class="cls-4" d="M40.53,430.38l7.02-39.76s-12.33-16.92-17.37-33.2c-5.05-16.28-5.28-37.83-5.28-37.83L1.22,378.27l15.83,52.11h23.48Z"/>
          </g>
          <g class="cls-16">
            <path d="M197.9,423.43c-24.65,0-48.77-4.95-69.74-14.32-21.27-9.5-39.57-23.66-52.94-40.95-12.36-15.99-20.51-34.35-24.22-54.57-3.89-21.2-2.75-43.91,3.38-67.47,12.22-46.98,35.3-86.6,66.74-114.58,16.5-14.69,35.2-26.1,55.57-33.91,21.18-8.12,44.21-12.37,68.44-12.61,1.4-.01,2.79-.02,4.18-.02,28.36,0,50.64,3.08,68.1,9.43,23.54,8.55,39.1,23.3,46.25,43.83,6.37,18.29,5.04,37.94-3.76,55.33-4.32,8.54-10.19,16.02-17.45,22.23-7.52,6.44-16.16,11.18-25.67,14.11-9.16,2.82-18.79,4.66-28.11,6.45-5.18.99-10.54,2.02-15.67,3.19l-22.06,5.04,7.52-21.34c1.4-3.96,2.65-7.96,3.97-12.19,1.64-5.22,3.33-10.62,5.32-15.97l1.71-4.58,4.37-2.2c2.03-1.02,4.07-1.99,6.05-2.93,8.55-4.07,15.93-7.58,20.24-13.81,10.9-15.75,11.64-19.5,5.28-26.79-10.09-11.55-22.08-15.84-44.23-15.84-3.12,0-6.49.07-10.62.24-27.59,1.08-51.63,8.37-69.51,21.09-19.87,14.13-31.1,34.32-33.35,59.99-1.73,19.72.14,39.8,5.41,58.06,5.36,18.57,14.18,34.91,25.5,47.27,8.08,8.82,17.43,15.66,27.78,20.33,11.09,5,23.42,7.54,36.65,7.54,2.41,0,4.88-.08,7.34-.25,7.04-.48,12.32-1.13,16.62-2.06,2.74-.66,6.85-1.9,11.21-4.11,4.41-2.52,8.85-6.39,15.13-13.18,2.33-3.55,4.06-7.62,5.15-12.09,1.89-7.71-.28-16.19-6.44-25.21-1.4-1.63-2.93-3.27-4.55-4.99-2.48-2.65-5.05-5.39-7.38-8.39l-16.95-21.75,27.53,1.63c1.45.09,14.63,1.03,29.15,7.57,20.72,9.33,33.69,25.26,37.5,46.09,3.7,20.15-1.94,40.68-16.28,59.37-9.12,11.88-18.91,19.35-21.74,21.39-31.99,28.25-68.39,34.7-116.66,35.91-1.59.04-3.19.06-4.77.06"/>
            <path class="cls-26" d="M289.95,265.5c3.52,4.51,8.07,8.8,11.99,13.44,6.3,9.04,12.06,21.83,8.64,35.78-1.63,6.68-4.26,12.24-7.45,16.87-6.99,7.63-12.66,12.83-19.03,16.41-5.46,2.81-10.63,4.4-14.35,5.29-5.19,1.14-11.2,1.85-18.55,2.35-82.24,5.55-122.43-72.64-115.94-146.48,5.54-63.08,58.98-90.28,114.8-92.45,26.76-1.04,47.79.48,64.73,19.86,13.73,15.71,5.1,28.36-4.41,42.1-7.5,10.83-19.82,15.19-30.93,20.78-3.41,9.15-5.95,18.67-9.21,27.95,14.5-3.31,29.42-5.27,42.89-9.41,31.9-9.81,49.75-44.12,38.77-75.64-13.16-37.78-58.87-45.34-106.63-44.87-93.31.92-155.99,64.12-178.8,151.77-25.59,98.35,46.28,163.89,135.9,161.64,48.14-1.21,80.68-7.78,109.2-33.22.13-.09,40.96-28.16,33.52-68.72-7.45-40.63-55.12-43.45-55.12-43.45"/>
          </g>
          <g class="cls-22">
            <g class="cls-25">
              <g class="cls-19">
                <path d="M146.75,147.26s24.5-27.95,87.26-35.38c58.02-6.87,82.27,31.7,82.27,31.7l-98.48,4.94-71.05-1.26Z"/>
              </g>
            </g>
            <g class="cls-25">
              <g class="cls-18">
                <path d="M72.12,212.3s10.76.86,16.67-.67c5.83-1.52,9.12-7.5,9.12-7.5l52.64.72,2.83-16.2h-61.29l-19.96,23.65Z"/>
              </g>
            </g>
            <g class="cls-25">
              <g class="cls-21">
                <path d="M57.18,252.07s11.87,116.34,98.86,140.85c92.35,26.03,169.06-23.82,169.06-23.82l-61.97,78.09s-130.22,6.05-134.88,6.05-103.31-60.74-103.31-60.74l7.95-140.39,24.28-.05Z"/>
              </g>
            </g>
            <g class="cls-25">
              <g class="cls-20">
                <path d="M275.4,256.6c-8.41,3.25,18.18,4.91,34.97,22.24,9.71,10.02,11.23,19.01,11.68,23.96,2.83,31.42-37.94,45.2-37.94,45.2l12.79-43.59-21.5-47.82Z"/>
              </g>
            </g>
            <g class="cls-25">
              <g class="cls-9">
                <path d="M304.61,161.63s19.13.32,30.51,6.9c20.81,12.04,15.4,29.93,15.4,29.93l-17.39,15.73-7.6-26.72-20.92-25.83Z"/>
              </g>
            </g>
          </g>
          <g class="cls-6">
            <g class="cls-2">
              <g class="cls-11">
                <path class="cls-24" d="M106.64,297.37l-.21-1.07-9.18.73.29,1.32c.44,1.98.38,5.25.03,6.57-1.15,4.7-5.2,7.39-11.1,7.39-5.5,0-10.01-2.5-13.05-7.24-5.44-8.47-4.98-22.05,1.17-34.6,3.77-7.53,9.5-13.96,16.57-18.62,6.63-4.37,13.96-6.77,20.62-6.77,3.11,0,5.52,1.13,6.78,3.17,1.31,2.12,1.26,4.94-.14,7.55-2.07,3.93-7.05,7.12-11.1,7.12-1.61,0-3.07-.67-4.09-1.9-1.26-1.51-1.73-3.66-1.29-5.91l.32-1.62-1.67.19c-6.23.71-12.32,6.6-13.94,10.51-1.87,4.48-1.49,9.34,1.02,13,2.45,3.59,6.63,5.56,11.75,5.56,9.7,0,22.39-7.91,27.71-17.27,4.6-8.07,5.21-16.09,1.66-22.01-3.17-5.28-9.35-8.19-17.4-8.19-15.24,0-29.11,8.23-38.06,15.14-10.81,8.33-20.19,19.21-25.09,29.09-10.29,20.53-5.05,34.26-1.02,40.61,5.64,8.88,15.5,14.18,26.38,14.18,19.86,0,28.35-13.95,31.08-19.94,2.27-4.88,3.04-11.54,1.96-16.97"/>
                <path d="M144.47,335.58c6.52,0,12.15-.72,18.24-4.66,4.3,3.78,10.04,5.87,16.46,5.87,4.27,0,8.51-.99,12.58-2.9,3.28,1.86,7.18,2.9,11.36,2.9,7.23,0,14.2-2.83,21.32-8.66.94-.77,1.89-1.59,2.87-2.49.13.23.27.46.42.69,4.21,6.65,11.58,10.47,20.22,10.47,3.46,0,6.74-.53,9.95-1.61h54.16l1.1-2.21c3.46,2.43,7.82,3.82,12.7,3.82,16.65,0,28.4-12.61,40.96-27.85l8.24-10-14.5-11.84c.35-1.71.5-3.34.47-4.92-.2-11.01-9.08-19.31-20.64-19.31-4.89,0-8,2.96-12.6,5.08-3.29-2.05-6.92-4.7-11.22-4.7-3.56,0-9.09.16-12.45,1.23h-26.86l-1.2,2.42-5.23-12.36-10.81,8.52c-.49-1.12-1.05-2.1-1.63-2.95-3.43-5.02-9.06-7.9-15.46-7.9-7.32,0-14.1,4.56-17.68,11.91-.06.12-.11.24-.17.35h-17.32c-2.73-1.05-5.75-1.61-8.93-1.61-8.89,0-16.75,3.45-23.23,8.44-2.43-3.39-5.99-5.95-10.3-7.32l10.83-26.98-32.75.41c-5.52-7.15-21.37-13.19-32.19-13.19-18.37,0-34.51,9.47-44.81,17.42-12.04,9.28-22.56,21.55-28.14,32.79-12.69,25.32-5.71,43.06-.42,51.38,7.74,12.18,21.19,19.45,35.98,19.45,11.02,0,20.98-3.5,28.84-10.11h27.49"/>
                <path class="cls-24" d="M353.43,295.46l-1.29,1.56c-6.31,7.66-12.49,14.74-14.9,14.74-.24,0-.37-.03-.43-.05-.04-.18-.09-1.04,1.33-3.71.98-2,2.39-4.46,3.88-7.06,1.55-2.69,3.15-5.48,4.53-8.21,2.31-4.6,3.36-7.95,3.31-10.55-.09-4.96-3.83-8.29-9.3-8.29-5.79,0-11.53,2.33-16.74,6.78-.75-4.11-4.26-6.78-9.15-6.78s-9.73,1.6-14.2,4.76l1.45-3.15h-17.66l-10.55,21.24-.23.28c-6.24,7.57-10.99,12.27-15.39,12.27-.75,0-1.41-.38-1.84-1.06-.52-.81-1.45-3.25,1.11-8.5,3.35-6.63,10.6-13.13,14.62-16.41l1.02-.83-.96-.94c-1.64-1.59-4.02-5.22-5.1-7.78l-.63-1.48-1.25.99c-2.71,2.14-9.83,5.12-15.26,5.12-.26,0-.52-.01-.78-.03,2.44-6.61,1.47-10.27.15-12.21-1.29-1.89-3.44-2.93-6.06-2.93-3.03,0-6.1,2.29-7.83,5.82-1.14,2.34-1.67,5.34-1.44,8.23.17,2.17.83,5.17,2.96,7.64-1.99,3.46-4.71,6.98-8.37,11.45l-.96,1.17c-9.77,11.82-12.92,14.22-14.8,14.22-.04,0-.07,0-.1,0-.04-.25-.03-1.15,1.11-3.43l16.28-32.83h-17.54l-2.88,4.63c-1.62-3.87-5.49-6.25-10.52-6.25-12.63,0-23.75,10.92-29.18,21.74-.65,1.3-1.21,2.61-1.71,3.92-8.47,10.09-11.37,12.21-13.13,12.21-.02,0-.03,0-.05,0-.02-.29.05-1.2,1.17-3.44.9-1.85,2.21-4.1,3.59-6.49,1.62-2.79,3.45-5.95,4.93-8.99,2.24-4.47,3.36-8.06,3.31-10.66-.09-5.04-4-8.29-9.95-8.29-4.04,0-8.3,1.39-12.34,3.98l16-31.42h-19.05l-38.54,77.7h19.03l10.71-21.52c6.75-13.5,10.66-15.06,13.01-15.06.4,0,.63.08.67.15.02.03.43.73-.91,3.48-.95,1.86-2.41,4.25-3.95,6.78-1.97,3.22-4.19,6.88-5.86,10.23-1.88,3.72-2.73,6.49-2.69,8.72.1,5.45,3.79,8.83,9.64,8.83,5.33,0,10.3-1.96,15.65-6.17,2.03-1.6,4.13-3.52,6.51-5.96.26,2.6.97,4.92,2.16,6.77,2.24,3.51,6.02,5.36,10.94,5.36s9.8-2.19,14.3-6.2c1.19,4.26,5.45,6.2,9.63,6.2,4.62,0,9.18-1.97,14.33-6.19,4.23-3.46,9.01-8.52,15.86-16.78h0s.49-.6.49-.6c.09-.11.18-.21.27-.32l.67-.81c2.07-2.48,5.83-7.18,9.18-12.4.82.13,1.66.19,2.59.19,1.21,0,2.41-.18,3.54-.46-5.57,5.23-9.47,10.16-11.86,14.96-3.27,6.45-3.59,12.89-.85,17.23,2.11,3.34,5.87,5.17,10.6,5.17,5.03,0,9.48-1.77,14.29-5.5l-1.93,3.89h19.03l10.71-21.52c7.52-15.06,11.65-15.06,13.01-15.06.38,0,.57.08.6.12.02.03.47.8-1.16,4.05l-16.31,32.41h19.04l10.71-21.52c5.23-10.42,9.25-15.06,13.01-15.06.39,0,.61.08.66.15.16.24.17,1.29-.9,3.48-.95,1.86-2.41,4.25-3.96,6.78-1.97,3.22-4.19,6.88-5.86,10.22-1.88,3.72-2.73,6.49-2.69,8.72.1,5.45,3.79,8.83,9.64,8.83,10.81,0,19.42-8.04,32.48-23.89l1.29-1.56-5.97-4.87ZM188.5,311.66c-1.15,0-1.6-.51-1.84-.89-1.34-2.12-.29-7.74,2.45-13.09,3.49-7.17,8.64-12.57,11.96-12.57.76,0,1.06.31,1.26.62,1.3,2.05-.01,8.42-2.93,14.23-3.31,6.79-7.89,11.71-10.89,11.71"/>
                <path class="cls-24" d="M107.35,264.11c4.57,0,9.94-3.55,12.15-7.75,3.05-5.7.31-12.48-7.74-12.48-13.82,0-30.17,9.9-38.26,26.04-10.59,21.63-3.77,43.58,12.99,43.58,6.75,0,11.04-3.34,12.25-8.28.41-1.51.45-4.95-.02-7.1l6.74-.54c.96,4.84.42,11.3-1.88,16.25-3.87,8.5-12.81,19.26-30,19.26-21.54,0-39.9-21.84-24.26-53.04,9.13-18.4,36.19-43.58,62.09-43.58,17.52,0,22.89,13.99,14.67,28.4-4.95,8.72-16.99,16.68-26.68,16.68-10.77,0-14.86-9.15-11.63-16.89,1.56-3.77,7.34-9.15,12.98-9.79-.99,5.06,2.13,9.25,6.59,9.25"/>
                <path class="cls-24" d="M73.58,334.27c-11.03,0-20.95-5.42-26.55-14.49-3.91-6.33-8.94-19.98,1.23-40.27,4.9-9.88,14.28-20.76,25.09-29.1,5.98-4.61,12.12-8.25,18.26-10.82,6.83-2.86,13.5-4.31,19.8-4.31,8.14,0,14.34,2.97,17.47,8.35,3.43,5.9,2.78,13.86-1.77,21.83-5.32,9.36-18.01,17.28-27.71,17.28-5.17,0-9.36-2.01-11.79-5.66-2.43-3.64-2.78-8.46-.93-12.88,1.62-3.91,7.71-9.8,13.95-10.52l1.62-.18-.31,1.6c-.44,2.23.02,4.37,1.27,5.88,1.04,1.26,2.51,1.95,4.16,1.95,4.06,0,9.04-3.19,11.1-7.11,1.38-2.57,1.44-5.37.18-7.47-1.26-2.1-3.7-3.26-6.86-3.26-14.19,0-29.83,10.67-37.19,25.38-6.08,12.4-6.59,25.9-1.3,34.38,3.05,4.89,7.62,7.47,13.22,7.47,5.9,0,9.94-2.69,11.1-7.38.36-1.32.41-4.58-.03-6.56l-.29-1.33,9.15-.73.21,1.04c1.08,5.43.31,12.1-1.97,16.98-2.73,5.99-11.23,19.95-31.08,19.95M111.41,237.65c-25.58,0-52.32,25.37-61.02,42.91-7.16,14.28-7.63,27.76-1.34,37.96,5.17,8.37,14.33,13.36,24.53,13.36,18.47,0,26.38-12.98,28.92-18.56,1.93-4.16,2.68-9.72,1.97-14.48l-4.37.35c.26,2.15.19,4.86-.21,6.33-1.41,5.73-6.42,9.16-13.4,9.16-6.37,0-11.78-3.05-15.24-8.59-5.71-9.16-5.25-23.57,1.18-36.7,3.96-7.9,9.97-14.66,17.39-19.54,7.02-4.62,14.81-7.16,21.93-7.16,4.03,0,7.2,1.57,8.9,4.42,1.7,2.83,1.65,6.5-.12,9.81-2.47,4.69-8.27,8.38-13.2,8.38-2.37,0-4.5-1-5.99-2.82-1.37-1.66-2.05-3.84-1.96-6.15-4.77,1.28-9.28,5.8-10.52,8.78-1.54,3.69-1.27,7.67.71,10.65,1.98,2.97,5.46,4.6,9.81,4.6,8.95,0,20.69-7.36,25.64-16.08,4.12-7.22,4.77-14.32,1.78-19.46-2.68-4.62-8.16-7.17-15.41-7.17"/>
                <path class="cls-24" d="M137.87,308.77c2.94-5.92,7.6-12.7,9.81-17,1.57-3.23,1.64-5.38-.86-5.38-3.48,0-7.67,2.9-14.07,15.71l-10.39,20.87h-16.32l37.35-75.32h16.32l-17.54,34.43c5.14-4.63,10.86-6.99,15.87-6.99,5.33,0,8.65,2.8,8.73,7.1.05,2.69-1.3,6.35-3.19,10.11-2.73,5.59-6.54,11.41-8.53,15.49-1.89,3.77-1.54,5.16-.01,5.16,2.39,0,5.51-2.26,16.15-15.17l.53-.65,4.09,3.34-.53.65c-12.77,15.49-21.11,23.46-31.56,23.46-5.11,0-8.32-2.8-8.41-7.64-.04-2.26.99-5.06,2.57-8.18"/>
                <path class="cls-24" d="M143.71,325.77c-5.82,0-9.5-3.37-9.6-8.81-.04-2.23.82-5.01,2.7-8.73,1.66-3.35,3.89-7.01,5.86-10.23,1.54-2.53,3-4.92,3.95-6.78,1.33-2.74.93-3.45.91-3.48-.05-.08-.29-.17-.71-.17-2.35,0-6.26,1.56-13.01,15.05l-10.72,21.53h-18.98l38.53-77.7h19l-16.03,31.47c4.06-2.63,8.35-4.03,12.42-4.03,5.93,0,9.82,3.25,9.92,8.27.05,2.6-1.07,6.19-3.31,10.67-1.48,3.04-3.32,6.21-4.93,9-1.38,2.39-2.69,4.64-3.59,6.49-1.14,2.27-1.19,3.18-1.16,3.45.02,0,.05,0,.08,0,1.9,0,5.12-2.47,15.23-14.74l1.28-1.56,5.93,4.84-1.29,1.57c-7.44,9.03-12.32,14.16-16.83,17.72-5.35,4.21-10.32,6.17-15.64,6.17M146.81,285.2c1.59,0,2.36.7,2.73,1.29.78,1.25.53,3.09-.8,5.8-1,1.96-2.48,4.39-4.05,6.96-1.94,3.18-4.14,6.79-5.76,10.05h0c-1.7,3.38-2.48,5.8-2.44,7.63.08,4.11,2.71,6.47,7.22,6.47,9.8,0,17.95-7.66,30.41-22.74l-2.24-1.83c-10.83,13.11-13.96,15.34-16.85,15.34-1.26,0-1.86-.66-2.1-1.06-.72-1.16-.39-2.96,1.05-5.83.93-1.91,2.26-4.2,3.66-6.62,1.68-2.89,3.41-5.88,4.86-8.86,2.05-4.08,3.11-7.39,3.07-9.57-.07-3.71-2.89-5.93-7.54-5.93s-10.35,2.44-15.07,6.69l-4.77,4.3,19.57-38.42h-13.64l-36.17,72.94h13.66l10.06-20.21c5.74-11.47,10.26-16.37,15.14-16.37"/>
                <path class="cls-24" d="M199.05,275.09c5.11,0,9.41,2.69,10.05,8.07l4.02-6.46h14.91l-15.42,31.09c-1.89,3.77-1.43,5.16.09,5.16,2.39,0,5.51-2.26,16.15-15.17l.53-.65,4.09,3.34-.53.65c-12.77,15.49-21.11,23.46-30.03,23.46-3.92,0-8.63-1.94-8.73-7.32v-.22c-4.27,4.41-9.66,7.53-15.21,7.53-13.82,0-14.53-15.28-8.03-28.4,5.67-11.3,16.48-21.09,28.12-21.09M188.53,312.85c3.92,0,8.81-5.92,11.96-12.37,3.36-6.67,5.68-16.57.57-16.57-4.24,0-9.68,6.35-13.03,13.23-3.47,6.78-5.04,15.71.51,15.71"/>
                <path class="cls-24" d="M202.89,325.77c-4.19,0-8.44-1.95-9.61-6.23-4.51,4.03-9.52,6.23-14.33,6.23s-8.76-1.89-10.98-5.47c-3.49-5.62-2.75-15.3,1.89-24.65,5.43-10.83,16.56-21.75,29.19-21.75,5.03,0,8.89,2.39,10.5,6.28l2.9-4.67h17.49l-16.28,32.81c-1.18,2.34-1.14,3.22-1.1,3.44.03,0,.07,0,.13,0,1.9,0,5.12-2.47,15.23-14.74l1.28-1.56,5.93,4.84-1.29,1.57c-7.27,8.82-12.24,14.11-16.63,17.7-5.16,4.22-9.71,6.19-14.33,6.19M195.29,314.17l.06,3.07c.08,4.54,4.11,6.15,7.54,6.15,8.47,0,16.7-7.99,28.89-22.74l-2.24-1.83c-10.83,13.11-13.96,15.34-16.85,15.34-1.28,0-1.9-.68-2.15-1.09-.72-1.17-.41-3.02.99-5.8l14.57-29.37h-12.33l-5.46,8.77-.4-3.37c-.53-4.4-3.84-7.02-8.87-7.02-11.61,0-21.95,10.26-27.06,20.43-4.27,8.63-5.06,17.4-2,22.33,1.79,2.88,4.81,4.35,8.96,4.35,4.78,0,9.87-2.55,14.35-7.17l1.99-2.06ZM188.53,314.04c-2.2,0-3.35-1.13-3.92-2.07-2.07-3.38-.31-10.15,2.36-15.37,4.67-9.58,10.44-13.88,14.09-13.88,1.46,0,2.61.62,3.33,1.79,2.38,3.87-.81,12.49-2.84,16.51-2.92,6-8.1,13.03-13.02,13.03M201.06,285.1c-3.33,0-8.47,5.4-11.96,12.56-2.72,5.31-3.77,10.92-2.46,13.06.25.4.71.94,1.89.94,3.01,0,7.58-4.92,10.89-11.7,2.9-5.76,4.22-12.13,2.94-14.2-.28-.46-.67-.66-1.31-.66"/>
                <path class="cls-24" d="M247.72,324.58c-10.77,0-14.11-9.9-8.65-20.66,2.62-5.27,7.41-11.19,15.34-17.97l-.23-.43c-2.37,1.18-5.29,2.15-7.9,2.15-1.2,0-2.18-.11-3.16-.32-3.38,5.38-7.32,10.33-9.66,13.13l-.53.65-4.09-3.34.53-.65c4.15-5.06,6.91-8.72,8.91-12.37-4.1-3.98-3.9-11.08-1.91-15.17,1.57-3.23,4.26-5.16,6.76-5.16,5.11,0,8.57,4.52,4.19,14.96.76.11,1.64.22,2.51.22,5.55,0,13-3.01,16-5.38,1.14,2.69,3.6,6.46,5.37,8.18-5.15,4.2-11.77,10.54-14.92,16.78-3.77,7.75-.99,11.3,1.84,11.3,4.68,0,9.39-4.3,16.3-12.7l.53-.65,4.09,3.34-.53.65c-13.84,16.78-21.22,23.46-30.8,23.46"/>
                <path class="cls-24" d="M247.72,325.77c-4.77,0-8.55-1.87-10.64-5.28-2.66-4.33-2.31-10.73.93-17.11,2.39-4.81,6.3-9.75,11.89-14.99-1.15.29-2.39.48-3.62.48-.93,0-1.77-.06-2.59-.19-3.43,5.34-7.28,10.13-9.32,12.57l-1.28,1.55-5.93-4.84,1.29-1.57c3.66-4.46,6.38-7.98,8.37-11.44-2.13-2.46-2.79-5.46-2.96-7.63-.22-2.89.3-5.9,1.45-8.24,1.73-3.54,4.8-5.83,7.83-5.83,2.64,0,4.79,1.06,6.07,2.98,1.29,1.94,2.23,5.59-.2,12.16.28.02.55.03.83.03,5.43,0,12.55-2.98,15.27-5.12l1.22-.97.61,1.44c1.08,2.56,3.47,6.2,5.11,7.79l.96.93-1.04.85c-4.02,3.28-11.27,9.77-14.61,16.4-2.53,5.2-1.63,7.65-1.12,8.46.45.72,1.12,1.11,1.9,1.11,4.39,0,9.15-4.69,15.39-12.26l1.29-1.56,5.93,4.84-1.29,1.57c-13.62,16.52-21.43,23.89-31.71,23.89M254.7,283.94l1.21,2.3-.72.62c-7.37,6.3-12.29,12.06-15.05,17.59-2.87,5.65-3.25,11.18-1.03,14.8,1.66,2.71,4.64,4.14,8.61,4.14,9.27,0,16.67-7.02,29.65-22.74l-2.24-1.83c-6.74,8.15-11.71,12.86-17,12.86-1.61,0-3.03-.81-3.92-2.23-.89-1.42-1.94-4.72,1.01-10.78,3.29-6.51,9.98-12.79,14.27-16.38-1.42-1.66-3.03-4.11-4.12-6.27-3.78,2.41-10.47,4.78-15.53,4.78-.93,0-1.84-.11-2.67-.23l-1.53-.22.6-1.42c2.14-5.09,2.49-9.14.99-11.39-1.06-1.59-2.81-1.92-4.09-1.92-2.13,0-4.36,1.76-5.69,4.5-1.94,3.97-1.85,10.38,1.67,13.8l.65.63-.43.79c-2.07,3.79-4.91,7.52-8.81,12.28l2.25,1.83c2.15-2.58,6.01-7.43,9.35-12.74l.45-.71.82.18c.93.2,1.83.3,2.91.3,2.1,0,4.79-.74,7.37-2.03l1.04-.52Z"/>
                <path class="cls-24" d="M319.78,308.77c2.94-5.92,7.6-12.7,9.81-17,1.26-2.58,1.97-5.38-.86-5.38-4.35,0-8.62,4.84-14.07,15.71l-10.39,20.87h-16.32l15.43-30.66c2.1-4.2,1.63-5.92-.54-5.92-3.05,0-7.36,2.26-14.07,15.71l-10.39,20.87h-16.32l22.98-46.27h15.02l-2.93,6.35c6.63-6.46,12.91-7.96,17.59-7.96,5.01,0,8,3.01,8.07,7.1,0,.32.01.75-.09,1.18,5.13-5.06,11.27-8.29,17.91-8.29,4.9,0,8,2.91,8.07,7.1.05,2.69-1.3,6.24-3.19,10.01-2.73,5.38-6.43,11.19-8.42,15.28-1.89,3.55-2.08,5.49.21,5.49s6.24-3.55,15.82-15.17l.53-.65,4.09,3.34-.53.65c-13.84,16.78-21.87,23.46-31.56,23.46-5.55,0-8.33-3.23-8.41-7.64-.04-2.26.99-5.06,2.57-8.18"/>
                <path class="cls-24" d="M325.62,325.77c-5.82,0-9.5-3.37-9.6-8.81-.04-2.23.82-5.01,2.7-8.73,1.66-3.35,3.89-7.01,5.86-10.23,1.54-2.53,3-4.92,3.95-6.78,1.33-2.73.91-3.45.9-3.48-.06-.1-.34-.17-.7-.17-3.77,0-7.78,4.64-13.01,15.05l-10.71,21.53h-18.99l16.3-32.39c1.62-3.23,1.18-4.02,1.16-4.05-.04-.07-.26-.14-.64-.14-1.36,0-5.49,0-13.01,15.05l-10.72,21.53h-18.98l24.16-48.65h17.61l-1.48,3.21c4.49-3.2,9.28-4.82,14.28-4.82s8.4,2.68,9.13,6.81c5.22-4.47,10.97-6.81,16.77-6.81,5.45,0,9.17,3.32,9.26,8.27.05,2.6-1.01,5.96-3.32,10.56-1.39,2.73-2.99,5.52-4.53,8.21-1.5,2.6-2.91,5.06-3.88,7.06-1.46,2.74-1.37,3.56-1.33,3.71.05.02.18.06.47.06,2.42,0,8.6-7.08,14.91-14.74l1.29-1.56,5.93,4.84-1.29,1.57c-13.06,15.84-21.67,23.89-32.48,23.89M328.73,285.2c1.58,0,2.35.7,2.72,1.29.77,1.24.52,3.13-.79,5.8-1,1.96-2.48,4.39-4.05,6.95-1.94,3.18-4.14,6.79-5.76,10.05h0c-1.7,3.37-2.48,5.8-2.44,7.63.08,4.11,2.71,6.47,7.22,6.47,8.78,0,16.19-5.53,30.41-22.74l-2.24-1.83c-9.69,11.74-13.57,15.34-16.52,15.34-1.47,0-2.17-.65-2.5-1.19-.73-1.22-.36-3.03,1.24-6.04.99-2.04,2.42-4.53,3.94-7.16,1.53-2.67,3.12-5.42,4.47-8.09,2.1-4.18,3.1-7.27,3.06-9.45-.07-3.6-2.77-5.93-6.88-5.93-5.9,0-11.8,2.75-17.07,7.94l-2.94,2.9.94-4.02c.07-.29.06-.62.06-.89-.07-3.6-2.77-5.93-6.88-5.93-5.93,0-11.56,2.57-16.76,7.62l-4.61,4.49,4.85-10.5h-12.42l-21.8,43.88h13.66l10.06-20.21c7.25-14.51,11.9-16.37,15.14-16.37,1.55,0,2.3.69,2.66,1.27.8,1.3.47,3.32-1.05,6.37l-14.56,28.94h13.65l10.06-20.21c5.76-11.47,10.29-16.37,15.14-16.37"/>
                <g class="cls-12">
                  <path class="cls-4" d="M68.26,272.35l11.83-8.16,23.27-14.94,11.73,1.66-7.75,13.2,2.81,3.5s19.05-7.38,13.55-20.11c-5.09-11.79-19.91-6.97-26.96-4.25-9.89,3.82-15.98,10.07-22.7,17.91-2.93,3.41-5.78,11.18-5.78,11.18"/>
                  <path class="cls-4" d="M90.44,267.75l-4.47,6,8.19,9.77h12.54l6.48-3.93,8.88-12.78s-11.36,11.56-23.02,9.73c-9.83-1.54-8.59-8.79-8.59-8.79"/>
                  <path class="cls-4" d="M40.76,297.23l12.28-16.38s-14.64,27.98,3.33,42.13c17.97,14.15,37.03-1.36,37.03-1.36l-6.34,11.86-33.03,1.71s-13.73-18.62-13.81-18.87c-.08-.25-.23-12.4-.23-12.4l.77-6.68Z"/>
                  <polygon class="cls-4" points="117.86 325.06 120.45 320.1 110.8 320.1 145.86 249.82 126.91 276.18 102.51 325.06 117.86 325.06"/>
                  <path class="cls-4" d="M138.96,291.61l5.45-7.63s10.04-2.37,6.75,6.01c-3.29,8.38-17.56,27.19-11.06,31.08,6.5,3.89,19.16-6.22,19.16-6.22l-5.1,8.77-17.96,2.8-6.64-3.45,8.22-26.07"/>
                  <path class="cls-4" d="M186.9,323.79l5.28-8.2s-9.31,8.82-16.77,6.07c-7.45-2.75-5.81-18.81-5.81-18.81l-7.37,13.08,3.24,2.15,10.37,12.8,11.06-7.09Z"/>
                  <path class="cls-4" d="M189.41,296.07l-4.77,1.6s7.32-17.48,16.9-16.43c9.58,1.05,3.23,16.83,2.1,18.78-1.13,1.95-6.57,10.8-6.57,10.8,0,0-2.61,10.5,4.65,11.05,7.27.54,15.02-7.39,15.02-7.39l-5.1,9.51-12.76,2.84-8.06-5.12,6.82-18.06.93-13.62-8.68,5.97-.49.08Z"/>
                  <path class="cls-4" d="M228.02,296.28l12.51-2.6,5.06-4.86h2.23l-1.55,9.39,11.76-11.74-2.94-4.51s-8.77,5.56-13.42,2.35c-4.65-3.22-3.44-13.24-3.44-13.24l-4.54,7.55.6,9.96-6.27,7.7Z"/>
                  <path class="cls-4" d="M241.32,305.05l-5.93,9.08,4.36,14.8h15.1l7.9-9.7-2.66,6.18,14.51-.71,2.02-4.39-9.74-.16,6.34-14.44s-16.61,18.52-27.2,15.1c-8.77-2.83-4.7-15.76-4.7-15.76"/>
                  <path class="cls-4" d="M295.15,291.41l4.64-6.76s10.43-4.54,7.13,6.1c-3.31,10.64-14.2,29.26-14.2,29.26h9.72l-3.13,5.38-14.59-.64,14.89-35.18-4.46,1.84Z"/>
                  <path class="cls-4" d="M322.49,291.46l3.27-6.82s10.51-4.72,7.28,6.45c-3.22,11.17-19.99,27.92-9.25,29.89,10.81,1.98,16.73-5.66,16.73-5.66l-4.91,9.43-13.74,1.02-7.47-2.16,1.57-16.89,6.99-13.69-.47-1.58Z"/>
                </g>
              </g>
            </g>
            <path d="M261.9,270.34c-3.6.79-7.94,1.44-13.26,2l-16.59,1.75,11.05-32.73,9.07,1.3c4.05.58,10.24.07,16.96-1.4,1.63-.36,3.24-.76,4.77-1.19l58.06-16.45-46.62,34.6c-.97.72-1.87,1.41-2.74,2.08-5.38,4.14-10.03,7.71-20.71,10.04"/>
            <path class="cls-26" d="M250.62,252.64l-3.27,9.68c20.45-2.16,22.29-5.36,31.26-12.02l2.16-1.61-3.68,1.04c-7.7,2.18-18.49,4.05-26.48,2.9"/>
            <path d="M227.23,244.99l-1.65,6.19c-.15.34-.51,1.09-1.23,2.46-3.25,6.14-1.33,12.35-13.26,18.75-18.45,9.89-34.89,9.53-34.89,9.53l14.03,7.83-7.1,8.88s9.51,3.62,24.63.04c12.96-3.07,16.61-5.1,26.22-13.17,15.1-12.67,19.56-28.85,19.77-29.67l3.69-14.2-30.22,3.36Z"/>
            <path class="cls-26" d="M234.02,258.16c-4.15,7.86-10.28,14.09-18.26,18.28,0,0-1.7.91-2.27,1.19-3.7,1.79-15.03,6.68-15.03,6.68l1.3.03c7.54.17,19.22-5.66,21.35-6.71-8.89,9.24-20.51,14.77-20.51,14.77,0,0,12.64-.45,25.45-11.21,12.81-10.75,17.24-27.82,17.24-27.82l-7.38.82s-.22.81-1.89,3.97"/>
            <path d="M215.57,263.26c-.95-.69-5.88-4.45-9.49-10.61-5.46-9.33-5.14-19.41.92-28.39,8.08-11.98,18.42-19.96,23.37-23.36,1.89-3.75,4.86-8.49,8.72-11.1,3.63-2.45,7.3-4.37,7.46-4.45l1.86-.97c.05-.07.1-.13.16-.2,4.52-5.66,13.18-13.11,28.77-16.51,6.19-1.35,13.09-1.97,20.53-1.86,16.89.27,29.73,4.95,38.18,13.91,11.05,11.73,9.76,25.89,9.58,27.47l-3.46,4.48-6.97,4.6c.15,3.99-.52,9.31-3.77,14.66-4.79,7.88-13.46,13.24-25.77,15.92-1.29.28-2.65.54-4.03.76-13.3,2.15-21.51,2.61-25.63,2.67-3.76,1.62-7.67,2.88-11.64,3.75-6.62,1.44-13.32,1.79-19.91,1.02-.56-.07-1.15-.15-1.77-.23-.5-.07-1.17-.16-1.78-.23-6.4,6.54-13.51,9.6-14.36,9.95l-5.87,2.42-5.1-3.7Z"/>
            <path class="cls-26" d="M297.74,175.91c-40.58-.64-45.11,23.18-45.11,23.18l-.79-4.92s-3.24,1.69-6.42,3.83-6.4,9.58-6.4,9.58c0,0-13.29,7.84-22.91,22.11-9.62,14.27,6.01,25.6,6.01,25.6,0,0,6.65-2.74,11.98-8.84,2.71-3.1,7.94-1.85,11.58-1.43,9.38,1.09,18.83-.65,27.27-4.62l.53-.25s7.62.51,26.22-2.5c30.8-4.98,24.11-25.02,24.11-25.02l-9.78-2.78,20.85-3.85s3.43-29.47-37.14-30.12"/>
            <path class="cls-26" d="M334.89,206.02l-20.85,3.85,9.78,2.78s6.69,20.04-24.11,25.02c-18.6,3.01-26.22,2.5-26.22,2.5l-.53.25c-8.44,3.97-17.89,5.71-27.27,4.62-3.65-.42-8.87-1.68-11.58,1.43-5.32,6.09-11.98,8.84-11.98,8.84,0,0-15.63-11.34-6.01-25.6,9.62-14.27,22.91-22.11,22.91-22.11,0,0,3.23-7.44,6.4-9.58,3.17-2.14,6.42-3.83,6.42-3.83l.79,4.92s4.53-23.83,45.11-23.18c40.58.64,37.14,30.12,37.14,30.12"/>
            <path class="cls-26" d="M280.78,248.69l-2.16,1.61c-8.97,6.66-10.82,9.86-31.26,12.02l3.27-9.68c7.99,1.14,18.78-.72,26.48-2.9l3.68-1.04Z"/>
            <g class="cls-25">
              <g class="cls-10">
                <path d="M280.78,248.69l-2.16,1.61c-8.97,6.66-10.82,9.86-31.26,12.02l3.27-9.68c7.99,1.14,18.78-.72,26.48-2.9l3.68-1.04Z"/>
              </g>
            </g>
            <path class="cls-26" d="M199.75,284.35l-1.3-.03s11.33-4.89,15.03-6.68c.58-.28,2.27-1.19,2.27-1.19,7.98-4.19,14.11-10.42,18.26-18.28,1.67-3.16,1.89-3.97,1.89-3.97l7.38-.82s-4.44,17.07-17.24,27.82c-12.81,10.75-25.45,11.21-25.45,11.21,0,0,11.61-5.53,20.51-14.77-2.13,1.06-13.81,6.89-21.35,6.71"/>
            <g class="cls-25">
              <g class="cls-7">
                <path d="M272.96,240.41s16.94-2.39,30.28-12.42c16.71-12.56,10.8-18.12,10.8-18.12l16.87.85-1.51,23.09-30.28,14.2-26.16-7.59Z"/>
              </g>
            </g>
            <path d="M302.94,193.38s-9.33-1.6-19.19,1.97c-7.64,2.77-5.79,3.57-13.99,11.06-12.17,11.1-26.39,12.12-26.39,12.12,0,0,3.83,4.36,7.42,3.96,3.06-.35,6.7-1.29,6.7-1.29,0,0,12.17,16.74,28.72,4.83,16.78-12.07,2.85-24.16,2.85-24.16l13.87-8.49Z"/>
            <path class="cls-24" d="M281.21,204.99h0s8.81,8.44-1.21,15.92c-8.9,6.65-13.97-2.81-13.97-2.81l1.43-.61c5.83-2.49,10.72-6.94,13.74-12.5"/>
            <path d="M272.73,209.33h0c6.2,1.91,9.87,6.55,10.21,13.04-6.34-2.05-9.95-6.72-10.21-13.04"/>
            <path d="M240.88,237.81h0c-5.34.47-10.47,2.24-15.17,5.2l-.12.08s-.08-10.92,6.16-12.7c6.34-1.81,9.13,7.42,9.13,7.42"/>
            <polygon class="cls-26" points="236.74 239.19 232.63 235.63 230.77 243.07 236.74 239.19"/>
          </g>
          <g class="cls-5">
            <path d="M195.32,548.65c-12.79-17.55-44.19-48.98-69.95-62.45-2.75-1.33-6.24-3.48-9.92-5.75-2.13-1.31-4.33-2.67-6.18-3.73-22.8-13.09-38.42-29.27-47.5-40.54-2.97-3.69-5.5-7.17-7.59-10.24l-15.56,15.67-6.15-13.18c-.29-.62-.61-1.3-.95-2.02-4.32-9.2-11.54-24.59-14.08-36.4-3.49-16.21-4.04-37.79-1.47-57.74l3.3-25.61,15.01,21.01c13.28,18.59,39.33,37.63,59.25,48.25l13.18,7.03-21.95,18.61c1.76,1.68,3.97,3.62,6.66,5.73,6.75,5.29,13.57,9.28,18.25,10.69l.33.1.32.12c5.83,2.19,12.1,3.7,18.62,4.49,13.94,1.69,26.23,2.55,36.53,2.55,2.6,0,4.83-.06,6.71-.14v-230.83h-79.22c-5.48,5.1-12.74,7.94-20.59,7.94-9.05,0-17.79-3.67-23.97-10.07-5.58-5.78-8.53-13.37-8.34-21.39-.19-8.02,2.76-15.61,8.34-21.39,6.18-6.4,14.91-10.07,23.96-10.07,7.85,0,15.11,2.84,20.59,7.94h79.22v-1.09c-.6-3.12-1.12-6.33-1.62-9.45-1.05-6.53-2.13-13.29-4.01-19.01l-.09-.26-.07-.27c-1.07-3.97-3.57-7.9-6.21-12.07-1.49-2.35-3.03-4.78-4.46-7.41l-.07-.12c-5.92-11.28-8.13-22.94-6.56-34.66,1.39-10.37,5.73-20.61,12.9-30.41l.11-.15.12-.15c7.39-9.34,19.53-15.61,33.33-17.21,2.47-.38,5.13-.57,7.93-.57,2.8,0,5.47.19,7.94.57,13.8,1.6,25.94,7.87,33.33,17.21l.12.15.11.15c7.17,9.8,11.51,20.03,12.9,30.41,1.57,11.71-.64,23.37-6.56,34.66l-.07.12c-1.43,2.63-2.97,5.06-4.46,7.41-2.64,4.16-5.14,8.09-6.21,12.07l-.07.27-.09.26c-1.89,5.73-2.97,12.48-4.01,19.01-.5,3.12-1.01,6.34-1.62,9.45v1.09h79.22c5.48-5.1,12.74-7.94,20.59-7.94,9.05,0,17.79,3.67,23.96,10.07,5.58,5.78,8.53,13.37,8.34,21.39.19,8.02-2.76,15.61-8.34,21.39-6.18,6.4-14.91,10.07-23.97,10.07-7.85,0-15.11-2.84-20.59-7.94h-79.22v230.84c1.88.08,4.11.14,6.71.14,10.3,0,22.59-.86,36.53-2.55,6.53-.79,12.8-2.3,18.62-4.49l.32-.12.33-.1c4.68-1.41,11.5-5.4,18.25-10.69,2.69-2.11,4.9-4.05,6.66-5.73l-21.95-18.61,13.18-7.03c19.92-10.62,45.97-29.66,59.25-48.25l15.01-21.01,3.3,25.61c2.57,19.95,2.02,41.53-1.46,57.74-2.54,11.81-9.77,27.2-14.08,36.4-.34.73-.66,1.41-.95,2.03l-6.15,13.18-15.56-15.67c-8.95,13.24-26.43,34.33-55.1,50.78-1.85,1.06-4.05,2.42-6.18,3.73-3.68,2.27-7.17,4.42-9.92,5.75-25.76,13.47-57.15,44.9-69.95,62.45l-8.2,11.25-8.2-11.25ZM202.28,100.86c.08.04.43.21,1.23.35.8-.14,1.15-.3,1.23-.35.56-.64,1.39-3.4,1.94-5.24,1.38-4.6,3.27-10.91,8.15-17l.09-.12.1-.11c5.62-6.61,3.9-16.18.5-20.56-2.1-2.71-7.56-3.94-11.74-3.94h-.26s-.26,0-.26,0c-4.18,0-9.64,1.23-11.74,3.94-3.4,4.37-5.12,13.95.5,20.56l.1.11.09.12c4.88,6.09,6.77,12.39,8.15,17,.55,1.83,1.38,4.59,1.94,5.24"/>
            <path class="cls-24" d="M380.99,333.56c-15.34,21.47-44.24,41.44-62.73,51.3l18.21,15.43c-3.79,7.33-23.13,23.46-36.21,27.38-6.11,2.29-13.08,4.11-20.97,5.07-39.82,4.83-54.6,1.51-54.6,1.51v-250.15h93.85c11.57,15.7,38.97,6.5,38.26-13.38.71-19.88-26.68-29.07-38.26-13.38h-93.85v-12.23c1.96-9.72,2.94-20.92,6.14-30.64,2.18-8.07,7.65-14.47,11.55-21.67,10.35-19.74,6.13-38.41-5.55-54.37-6.34-8.01-17-12.36-26.73-13.45-1.97-.31-4.2-.48-6.58-.48-2.38,0-4.61.17-6.58.48-9.73,1.09-20.39,5.44-26.73,13.45-11.67,15.96-15.9,34.63-5.55,54.37,3.9,7.2,9.37,13.6,11.55,21.67,3.2,9.73,4.18,20.92,6.14,30.64v12.23h-93.85c-11.58-15.69-38.97-6.5-38.26,13.38-.71,19.87,26.68,29.08,38.26,13.38h93.85v250.15s-14.79,3.32-54.6-1.51c-7.9-.96-14.87-2.77-20.97-5.07-13.09-3.93-32.42-20.06-36.21-27.38l18.21-15.43c-18.5-9.86-47.39-29.84-62.73-51.3-2.24,17.4-2.13,38.27,1.32,54.3,2.5,11.62,10.68,28.49,14.31,36.27l14.47-14.57s16.69,34.53,58.19,58.35c5.09,2.92,11.84,7.42,15.59,9.21,27.17,14.15,59.81,46.63,73.6,65.55,13.79-18.92,46.43-51.4,73.6-65.55,3.75-1.78,10.5-6.29,15.59-9.21,41.5-23.82,58.19-58.35,58.19-58.35l14.47,14.57c3.63-7.78,11.81-24.65,14.31-36.27,3.45-16.03,3.57-36.9,1.32-54.3M203.51,111.43c-15.15-1.41-9.83-14.72-19.23-26.46-8.71-10.24-7.24-25.04-.78-33.35,5.91-7.6,17.58-7.88,20.01-7.85,2.43-.03,14.1.25,20.01,7.85,6.46,8.31,7.93,23.11-.78,33.35-9.4,11.74-4.08,25.06-19.23,26.46"/>
          </g>
          <g class="cls-8">
            <path class="cls-4" d="M203.37,454.29l-30.13-27.41,1.02-235.94-122.46,12.3-8.71-24.59,3.49-26.17,24.18,19.25h124.76l-16.77-18.19-30.11-60.21,12.04-70.96,17.37,22.03s-12.36,12-9.15,31.69c2.35,14.43,7.91,14.08,11.51,23.93,3.6,9.85,5.25,15.85,12.29,23.82,7.03,7.97,10.67,11.25,10.67,11.25v319.19Z"/>
            <path class="cls-4" d="M185.34,52.76l-8.26-7.51s12.27-16.11,40.6-8.24c28.33,7.87,20.08,43,19.77,43.98-2.85,9.05-7.18,11.41-9.84,17.91-2.66,6.49-7.38,18-7.38,18,0,0-3.26,6-5.8,8.56-2.12,2.14-11.05,9.63-11.05,9.63v-28.92l19.61-46.04-30.5-7.08-7.15-.29Z"/>
            <polygon class="cls-4" points="211.26 171.88 234.85 194.35 316.12 208.95 343.45 198.84 326.6 171.88 211.26 171.88"/>
            <path class="cls-4" d="M203.37,550.6l123.19-54.29,27.15-51.2,12.37-16.15s-1.82-20.46-3.57-25.4c-1.74-4.94-2.91-11.33-2.91-11.33h-50.86l9.01,16.56,28.19-9.3s-3.78,18.89-29.64,36.91c-25.86,18.02-113.69,42.62-113.69,42.62,0,0-80.43-19.61-106.59-38.26-24.15-17.22-37.2-40.68-37.2-40.68l-10.75,36.03,47.08,88.34,108.21,26.16Z"/>
            <path class="cls-4" d="M40.98,430.38l6.56-39.76s-12.33-16.92-17.37-33.2c-5.05-16.28-5.28-37.83-5.28-37.83L1.22,378.27l15.83,52.11h23.93Z"/>
          </g>
        </g>
      </g>
    </g>
  </g>
</svg>