<?xml version="1.0" encoding="UTF-8"?>
<svg id="Layer_2" xmlns="http://www.w3.org/2000/svg" viewBox="0 0 118.85 118.85">
  <defs>
    <style>
      .cls-1 {
        fill: none;
      }
    </style>
  </defs>
  <g id="PAGE2">
    <g>
      <path class="cls-1" d="M53.36,42.84c3.52-3.18,8.55-4.71,13.7-4.91,2.1-.08,3.98-.06,5.67.33,1.78.42,3.35,1.26,4.75,2.86,1.37,1.57,1.36,2.95.78,4.3-.12.28-.26.56-.42.84,1.25.37,2.27.97,3.06,1.81.77.81,1.16,1.7,1.37,2.47.34-.49.63-1,.87-1.54.95-2.12,1.14-4.58.31-6.94-2.12-6.08-9.48-7.3-17.17-7.22-8.08.08-14.74,3.07-19.74,8h6.81Z"/>
      <polygon class="cls-1" points="51.9 14.55 51.79 16.01 55 15.51 54.46 14.16 54.14 12.07 56.79 5.78 53.71 6.25 53.77 7.68 52.81 10.51 51.07 8.1 50.71 6.72 47.11 7.27 51.58 12.48 51.9 14.55"/>
      <path class="cls-1" d="M35.9,21.06l.4,1.41,2.86-1.6-.99-1.07-.96-1.71,1.08-.61,2.19,1.27.69.98,3.04-1.7-4.15-2.14c.91-.96.98-2.05.39-3.09-.94-1.67-2.33-2.06-4.44-.88l-4.28,2.4.99,1.07,3.18,5.67ZM36.5,13.62c.83-.47,1.35-.3,1.77.44.41.74.11,1.31-.72,1.78l-1.26.71-1.2-2.14,1.42-.8Z"/>
      <path class="cls-1" d="M12.13,54.29c.41.51.83,1.02,1.25,1.5.21.24.43.49.64.72.21.24.43.47.65.7.6-.65.96-1.43,1.04-2.29.02-.25.03-.5,0-.74-.02-.25-.08-.49-.15-.73h.01c-.05-.19-.13-.38-.23-.57h-3.92s0,.02,0,.03h-.01c.13.5.38.97.7,1.37Z"/>
      <path class="cls-1" d="M11.02,59.24c.2.48.5.91.87,1.27.24.23.48.45.72.67.24.22.47.44.72.65.49.43.97.85,1.47,1.25.25-.36.45-.75.57-1.15.06-.2.11-.41.13-.62.03-.21.04-.42.03-.64-.01-.25-.04-.5-.1-.74-.06-.24-.14-.48-.25-.7h.01c-.09-.22-.21-.43-.35-.63-.07-.1-.15-.2-.23-.3s-.17-.19-.25-.28c-.22-.23-.44-.46-.66-.7-.22-.23-.44-.47-.66-.71-.43-.48-.87-.98-1.28-1.49-.08.08-.16.17-.23.26-.21.27-.38.57-.51.89-.18.42-.27.89-.29,1.36-.01.28.01.55.06.82.05.27.13.53.23.77h-.01Z"/>
      <polygon class="cls-1" points="17.91 47.99 19.15 48.76 19.99 46.29 18.53 46.15 12.88 44.29 20.51 44.76 21.21 42.67 14.89 38.28 20.53 40.25 21.77 41.03 22.68 38.33 21.23 38.18 15.07 36.1 13.83 35.33 12.56 39.07 13.68 39.56 18.04 42.51 12.78 42.2 11.6 41.92 10.29 45.76 11.75 45.9 17.91 47.99"/>
      <path class="cls-1" d="M25.48,33.56l1.74-2.05-.88-.85-.18-.33,2.39-2.82.36.12.99.73,2.03-2.41-9.56-3.16-2.06,2.44,1.01.33,4.18,8.01ZM26.82,26.89l-1.55,1.83-1.64-2.95,3.18,1.12Z"/>
      <path class="cls-1" d="M68.3,32.84c-.08,0-.15,0-.23,0,0,0,0,0,0,0,.08,0,.16,0,.23,0Z"/>
      <path class="cls-1" d="M62.93,71.97c-.91.74-1.8,1.18-2.71,1.33.87.38,1.79.66,2.75.85v-2.22s-.03.02-.04.03Z"/>
      <path class="cls-1" d="M84.46,67.74l.21-.25-.96-.78-.21.25c-1.02,1.23-2.01,2.37-2.4,2.37-.04,0-.06,0-.07,0,0-.03-.01-.17.21-.6.16-.32.38-.72.63-1.14.25-.43.51-.88.73-1.32.37-.74.54-1.28.53-1.7-.01-.8-.62-1.34-1.5-1.34-.93,0-1.86.38-2.7,1.09-.12-.66-.69-1.09-1.47-1.09s-1.57.26-2.29.77l.23-.51h-2.84l-1.7,3.42-.04.05c-1,1.22-1.77,1.97-2.48,1.97-.12,0-.23-.06-.3-.17-.08-.13-.23-.52.18-1.37.54-1.07,1.71-2.11,2.35-2.64l.16-.13-.16-.15c-.26-.26-.65-.84-.82-1.25l-.1-.24-.2.16c-.44.34-1.58.82-2.46.82-.04,0-.08,0-.13,0,.15-.4.22-.73.24-1.01-.1.01-.2.02-.3.03l-.49.05c-.29.42-.63.86-1.04,1.29-.12.12-.24.24-.36.36-.05.05-.1.09-.15.14.04.06.09.13.14.19-.32.56-.76,1.12-1.35,1.84l-.16.19c-1.57,1.9-2.08,2.29-2.38,2.29,0,0-.01,0-.02,0,0-.04,0-.18.18-.55l1.08-2.18c-.53.24-1.15.42-2.03.63-.21.05-.42.09-.62.12-.18.03-.35.05-.51.07-.08,0-.15.02-.23.02-.53,1.09-1.26,1.87-1.75,1.87-.18,0-.26-.08-.3-.14-.19-.3-.08-1.02.24-1.77-.52-.08-.8-.18-.8-.18l.41-.52.73-.92-.14-.08-1.7-.95c-.6.59-1.09,1.28-1.44,1.98-.1.21-.2.42-.27.63-1.36,1.62-1.83,1.97-2.11,1.97,0,0,0,0,0,0,0-.05,0-.19.19-.55.14-.3.36-.66.58-1.04.26-.45.56-.96.79-1.45.36-.72.54-1.3.53-1.72-.01-.81-.64-1.34-1.6-1.34-.65,0-1.34.22-1.99.64l2.58-5.06h-3.07l-6.2,12.51h3.06l1.72-3.46c1.09-2.17,1.72-2.42,2.09-2.42.06,0,.1.01.11.02,0,0,.07.12-.15.56-.15.3-.39.68-.64,1.09-.32.52-.68,1.11-.94,1.65-.3.6-.44,1.05-.43,1.4.02.88.61,1.42,1.55,1.42.86,0,1.66-.32,2.52-.99.33-.26.67-.57,1.05-.96.04.42.16.79.35,1.09.36.56.97.86,1.76.86s1.58-.35,2.3-1c.19.69.88,1,1.55,1,.74,0,1.48-.32,2.31-1,.68-.56,1.45-1.37,2.55-2.7h0s.08-.1.08-.1c.01-.02.03-.03.04-.05l.11-.13c.33-.4.94-1.16,1.48-2,.13.02.27.03.42.03.19,0,.39-.03.57-.07-.9.84-1.52,1.64-1.91,2.41-.53,1.04-.58,2.08-.14,2.77.34.54.95.83,1.71.83.81,0,1.53-.28,2.3-.89l-.31.63h3.06l1.72-3.46c1.21-2.42,1.88-2.42,2.09-2.42.06,0,.09.01.1.02,0,0,.08.13-.19.65l-2.63,5.22h3.07l1.72-3.46c.84-1.68,1.49-2.42,2.09-2.42.06,0,.1.01.11.02.03.04.03.21-.14.56-.15.3-.39.68-.64,1.09-.32.52-.67,1.11-.94,1.65-.3.6-.44,1.05-.43,1.4.02.88.61,1.42,1.55,1.42,1.74,0,3.13-1.29,5.23-3.85Z"/>
      <path class="cls-1" d="M48.66,52.09c.07-.58.17-1.14.3-1.67h-7.18c-.32.3-.67.54-1.06.74-.07.03-.14.05-.2.08-.35.69-.68,1.41-.99,2.13-.6,1.4-1.13,2.85-1.58,4.36,1.66-1.2,4.06-2.47,6.76-2.47,1.15,0,2.64.42,3.79,1.04-.04-1.15-.01-2.32.09-3.47.02-.25.05-.49.08-.73Z"/>
      <path class="cls-1" d="M12.46,66.7c.53.39,1.05.77,1.6,1.13.27.18.54.36.8.53.27.17.54.34.82.51.1-.19.19-.39.26-.6.07-.2.13-.41.16-.62.04-.21.05-.42.05-.63,0-.21-.01-.42-.05-.64-.09-.49-.25-.96-.53-1.38h.01c-.25-.41-.58-.78-.99-1.09-.5-.4-1-.8-1.49-1.23-.24-.21-.49-.43-.73-.65-.25-.22-.49-.44-.72-.67-.54.74-.79,1.67-.7,2.62.02.28.09.55.17.81.09.26.19.51.32.74h-.01c.26.45.61.84,1.03,1.15Z"/>
      <path class="cls-1" d="M54.2,25.33c-.83,1.13-1.42,2.34-1.68,3.61-.37,1.66-.19,3.42.77,5.24.22.4.47.79.72,1.18.41-.18.82-.35,1.24-.51.12-.05.25-.09.37-.14.53-.19,1.06-.38,1.6-.54-.17-.45-.39-.91-.75-1.36-1.4-1.65-1.17-4.03-.13-5.37.01-.02.03-.03.04-.05l.04.03c.98-1.11,2.74-1.15,3.12-1.15.39,0,2.27.04,3.22,1.26.7.9,1.04,2.29.75,3.6-.15.59-.42,1.17-.85,1.67-.07.08-.13.17-.19.26.02,0,.04,0,.05,0,.74-.09,1.48-.15,2.23-.19.5-.03,1-.04,1.51-.05.03,0,.06,0,.1,0,.92-2.71.2-5.27-1.43-7.5-1.02-1.29-2.74-1.99-4.3-2.17-.32-.05-.68-.08-1.06-.08-.38,0-.74.03-1.06.08-1.57.18-3.28.88-4.3,2.17Z"/>
      <polygon class="cls-1" points="71.43 14.59 69.99 14.69 67.2 14.13 68.4 8.23 69.01 6.9 65.81 6.26 65.85 7.72 64.57 14.09 63.96 15.42 70.64 16.76 71.43 14.59"/>
      <polygon class="cls-1" points="52.9 24.34 52.89 24.37 52.9 24.34 52.92 24.33 52.9 24.34"/>
      <path class="cls-1" d="M43.12,104.22c.09.14.19.27.29.4-.1-.13-.2-.26-.29-.4h0Z"/>
      <path class="cls-1" d="M55.87,64.49c.82-.08,2.28-.31,3.94-1.03-.27-.14-.6-.23-.97-.23-1.1,0-2.12.51-2.97,1.26Z"/>
      <path class="cls-1" d="M45.75,102.92c.28-.15.57-.31.84-.47.04-.02.09-.04.13-.07-.04.02-.09.04-.13.07-.28.16-.56.31-.84.47-.18.09-.36.19-.54.28.18-.09.36-.19.54-.28Z"/>
      <path class="cls-1" d="M48.06,105.65c-.23.11-.47.2-.71.27.25-.06.49-.15.71-.27Z"/>
      <path class="cls-1" d="M51.45,103.33c-.27-.31-.56-.56-.88-.75-.36-.23-.74-.39-1.14-.47-.26-.06-.52-.1-.8-.1-.21,0-.42.02-.64.05l-.14.02h0c-.18.03-.36.08-.54.15-.23.08-.46.19-.66.3-.28.16-.56.32-.85.47-.28.15-.57.3-.86.45-.56.29-1.12.55-1.68.81.23.35.51.65.84.9.18.13.37.26.57.36.1.05.21.1.31.15.11.04.22.08.33.11.25.08.52.13.79.15.05,0,.1,0,.16,0,.27,0,.63-.03.86-.05.39-.08.79-.23,1.18-.46l.42-.25.41-.26c.28-.17.55-.35.82-.53.49-.33.99-.68,1.5-1.04Z"/>
      <path class="cls-1" d="M47.27,102.15c-.06.02-.11.05-.17.07.06-.02.11-.05.17-.07.09-.03.18-.06.27-.09-.09.03-.18.05-.27.09Z"/>
      <polygon class="cls-1" points="48.62 105.32 48.77 105.24 49.09 105.03 48.77 105.24 48.62 105.32"/>
      <path class="cls-1" d="M44.18,102.83c.58-.28,1.15-.58,1.71-.88-.23-.37-.52-.7-.84-.97-.08-.07-.17-.13-.25-.19-.26-.18-.54-.33-.84-.44-.23-.09-.48-.15-.72-.19-.24-.04-.51-.06-.75-.05-.11,0-.23.01-.34.03-.12.01-.24.03-.36.06-.24.05-.48.13-.71.22-.3.12-.6.23-.9.35-.3.11-.61.22-.91.33-.31.1-.61.21-.92.31-.16.05-.31.1-.47.15-.16.05-.31.1-.47.14.05.1.1.21.15.31.39.7,1.01,1.26,1.77,1.61.25.11.52.2.78.25.13.03.27.05.4.07.13.01.46.03.59.03.45-.02.9-.13,1.32-.31.3-.13.6-.26.9-.4.3-.14.59-.28.88-.42Z"/>
      <path class="cls-1" d="M35.53,87.71c.08.12.17.25.27.38-.09-.13-.18-.26-.27-.38h0Z"/>
      <path class="cls-1" d="M21.74,84.72c.32.06.63.11.95.16.04-.44,0-.87-.08-1.28-.02-.1-.05-.21-.08-.31s-.07-.2-.11-.3c-.04-.1-.08-.19-.13-.29-.05-.1-.1-.19-.16-.28-.27-.42-.6-.79-1.02-1.07l.2-.12-.19.11c-.39-.28-.84-.49-1.33-.62-.92-.26-1.85-.55-2.77-.87-.31-.11-.62-.22-.92-.34-.03.11-.05.22-.07.34-.02.11-.03.23-.03.34,0,.23,0,.46.03.68.06.46.21.9.43,1.33.03.06.07.12.1.18.04.06.07.12.11.17.08.11.16.22.25.32.18.21.37.39.58.56h-.01c.21.16.43.3.66.41.23.11.48.2.73.26.64.16,1.27.31,1.91.43.32.06.63.13.95.18Z"/>
      <path class="cls-1" d="M17.82,79.28c.31.1.62.21.92.3.3.1.61.19.92.28.05-.21.08-.43.09-.64,0-.11.01-.21,0-.32,0-.43-.08-.84-.22-1.24-.04-.1-.08-.2-.12-.3-.1-.23-.23-.45-.37-.64-.07-.1-.15-.2-.23-.29-.08-.09-.17-.18-.26-.27h.01c-.34-.33-.77-.6-1.23-.8-.29-.13-.59-.25-.88-.39-.29-.13-.58-.27-.88-.41-.59-.28-1.16-.58-1.75-.89-.16.43-.25.88-.25,1.34,0,.11,0,.23.02.35.03.35.11.69.24,1.03.1.26.22.51.37.74.15.22.36.48.54.67.08.08.16.15.24.22.1.08.21.16.32.23.22.14.45.26.69.35.3.12.61.24.92.35.31.11.61.22.91.33Z"/>
      <path class="cls-1" d="M25.4,89.42c.32.01.64.03.96.04-.02-.44-.1-.87-.25-1.26-.15-.4-.36-.77-.63-1.1-.16-.2-.37-.39-.6-.57-.06-.04-.12-.09-.17-.13-.18-.12-.35-.23-.52-.32-.17-.08-.34-.15-.52-.2-.23-.08-.48-.13-.73-.17-1.27-.18-2.54-.42-3.83-.72-.02.23-.02.45,0,.68.02.23.06.45.12.68.13.44.32.87.6,1.26.16.23.35.43.55.61.2.18.43.34.65.47l-.19.15.18-.14c.44.26.95.42,1.46.48.65.08,1.31.13,1.95.18.32.02.65.04.97.06Z"/>
      <path class="cls-1" d="M14.69,73.24c.29.15.58.3.87.44.57.29,1.17.56,1.74.82.16-.41.24-.84.25-1.26,0-.21,0-.42-.03-.63-.01-.1-.03-.21-.06-.31-.02-.1-.05-.21-.08-.31-.07-.24-.17-.47-.29-.69-.12-.22-.25-.42-.41-.61l.3-.08-.29.08c-.15-.18-.32-.36-.51-.52-.09-.08-.19-.16-.29-.23-.1-.07-.21-.14-.32-.2l-.41-.25-.41-.25c-.27-.17-.55-.34-.82-.52-.54-.36-1.08-.73-1.62-1.11-.05.1-.1.2-.15.31-.09.21-.16.43-.21.65-.03.11-.05.22-.06.34-.06.46-.03.93.07,1.39.13.54.37,1.04.7,1.47h-.01c.16.21.33.4.53.57.2.17.41.31.64.44.29.16.57.32.86.47Z"/>
      <path class="cls-1" d="M29.63,93.6c.32-.03.64-.06.96-.09-.04-.22-.09-.43-.16-.63-.07-.2-.15-.4-.25-.59-.1-.19-.21-.36-.34-.53-.06-.09-.13-.17-.2-.25-.07-.08-.15-.16-.22-.23-.09-.09-.19-.17-.29-.24-.1-.08-.2-.15-.3-.21-.09-.06-.2-.12-.32-.18-.12-.06-.24-.11-.35-.16-.44-.17-.93-.25-1.43-.26-.63-.01-1.29-.02-1.93-.06-.32-.02-.65-.04-.98-.06-.33-.03-.65-.06-.98-.09,0,.23.03.46.08.68.05.22.12.44.21.65.09.21.2.42.32.62.13.19.27.38.44.55.09.1.19.2.3.29.11.09.22.17.33.25.23.15.46.28.71.39h0c.48.2.99.3,1.51.29.66-.02,1.3-.03,1.96-.08.32-.02.64-.04.96-.07Z"/>
      <path class="cls-1" d="M40.12,99.25c-.12-.18-.25-.35-.39-.5-.29-.31-.62-.57-1-.77-.22-.11-.45-.21-.69-.29-.24-.07-.48-.11-.73-.14h0c-.24-.04-.48-.04-.72-.02-.25.02-.49.07-.74.13-.62.16-1.25.31-1.88.44-.32.07-.64.13-.96.19-.32.06-.64.11-.97.17.13.44.34.85.62,1.21.14.18.3.35.47.51.17.16.36.3.57.42.47.3,1,.47,1.53.55h0c.51.08,1.04.03,1.53-.1,1.27-.37,2.49-.77,3.68-1.23-.09-.2-.2-.39-.32-.57Z"/>
      <path class="cls-1" d="M34.74,95.84c-.24-.35-.54-.65-.89-.9-.2-.15-.42-.27-.65-.37-.23-.1-.46-.18-.7-.24h0c-.47-.12-.96-.14-1.47-.08-.64.08-1.27.14-1.92.19-.33.03-.65.04-.97.06-.33.02-.66.04-.98.04.05.34.16.67.3.98.05.1.1.21.16.31.23.4.54.76.9,1.06.22.17.49.34.78.48.07.03.14.07.22.1.15.06.29.12.43.16.07.02.14.04.2.06.19.04.38.07.57.08.26.01.52,0,.78-.04,1.3-.19,2.57-.44,3.81-.73-.13-.42-.32-.81-.56-1.15Z"/>
      <path class="cls-1" d="M42.58,82.09s-.04-.04-.07-.05h0s.04.04.07.05Z"/>
      <path class="cls-1" d="M78.87,18.94l.3-.23,3.16,1.93-.07.37-.57,1.09,2.69,1.64,1.67-9.93-2.73-1.67-.18,1.05-7.28,5.35,2.29,1.4.71-1ZM83.29,15.54l-.62,3.32-2.05-1.25,2.67-2.06Z"/>
      <path class="cls-1" d="M96.97,40.4l1.18,3.82c1.03,3.32,2.87,4.32,5.94,3.38,3.07-.95,4.02-2.81,2.99-6.14l-1.18-3.82-1.26.73-6.21,1.92-1.46.11ZM105,40.96l.37,1.2c.45,1.46.01,2.24-2.07,2.88-2.07.64-2.88.21-3.34-1.25l-.36-1.16,5.39-1.67Z"/>
      <path class="cls-1" d="M103.11,64.03c0,.09,0,.17.02.26.02.17.05.34.09.5-.04-.17-.08-.33-.09-.5,0-.09-.01-.17-.02-.26Z"/>
      <path class="cls-1" d="M54.53,87.01s-.06,0-.09-.01c.03,0,.06,0,.09.01h0Z"/>
      <polygon class="cls-1" points="103.27 65.01 103.28 65.01 103.28 65.01 103.27 65.01"/>
      <polygon class="cls-1" points="47.97 101.97 47.97 101.97 47.97 101.96 47.97 101.97"/>
      <path class="cls-1" d="M54.53,87.57h0c-.06,0-.12,0-.18,0,.06,0,.12,0,.18,0Z"/>
      <path class="cls-1" d="M59.38,85.29c7.75-.19,12.99-1.25,17.58-5.35,0,0,.27-.19.68-.53,1.26-1.04,3.88-3.57,4.64-7.01-.92.6-1.9.96-3.03.96-.79,0-1.49-.22-2.04-.62l-.18.36h-1.98c-.89.92-1.67,1.58-2.52,2.07-.88.45-1.71.71-2.31.85-.84.18-1.8.3-2.99.38-4.42.3-8.08-.91-10.96-3.08-.21.03-.42.05-.63.05-1.03,0-1.96-.34-2.65-.95-.98.64-1.89.75-2.94.75l-2.31-.06h-4.42c-.62.52-1.32.92-2.08,1.19-.73.26-1.52.41-2.35.43,3.69,6.82,11.53,10.79,20.48,10.57Z"/>
      <path class="cls-1" d="M106.6,57.63c.12.11.24.22.36.34.37.36.67.79.87,1.27h0c-.2-.48-.5-.91-.87-1.27-.12-.11-.24-.22-.36-.34Z"/>
      <path class="cls-1" d="M107.42,52.92s-.01-.02-.02-.03h-4.41c.08.2.17.39.29.57h-.01c.25.41.58.78.99,1.09.5.4,1,.8,1.49,1.23.24.21.49.43.73.65.25.22.49.44.72.67.54-.74.79-1.67.7-2.62-.02-.28-.09-.55-.17-.81-.09-.26-.19-.51-.32-.74h.01Z"/>
      <path class="cls-1" d="M103.31,57.8c0,.07.01.14.02.2,0-.07-.01-.13-.02-.2,0-.2,0-.41.03-.61-.03.2-.04.4-.03.61Z"/>
      <path class="cls-1" d="M103.76,55.87c.09-.16.18-.32.29-.48.13.1.25.2.37.31-.12-.1-.24-.21-.37-.31-.11.15-.2.31-.29.48Z"/>
      <path class="cls-1" d="M103.07,64.99l.2.03c.03.11.07.23.12.34-.05-.11-.09-.23-.12-.34l-.2-.03Z"/>
      <path class="cls-1" d="M103.48,56.54c.03-.1.07-.2.11-.3-.04.1-.08.2-.11.3-.03.1-.06.2-.08.31.02-.1.05-.21.08-.31Z"/>
      <path class="cls-1" d="M82.32,53.54s0,0,.01-.01c0,0,0,0-.01.01h0Z"/>
      <path class="cls-1" d="M80.29,50.15c-.22-.45-.54-.91-1.02-1.32-.32-.27-.71-.52-1.19-.73-.12-.05-.24-.1-.37-.15-.78-.28-1.75-.47-2.98-.49h0c-1.43-.02-2.58.14-3.51.42-.13.04-.26.08-.38.12-.37.13-.7.28-.99.43-.1.05-.19.11-.28.16-.18.11-.35.22-.5.34-1.36,1.04-1.6,2.26-1.6,2.26l-.13-.79s-.25.13-.57.32c-.15.09-.31.19-.47.3-.03.02-.06.05-.1.07-.16.14-.32.35-.45.57-.03.04-.05.09-.08.13-.13.22-.24.43-.31.58-.06.12-.09.19-.09.19,0,0-.25.15-.65.44-.07.05-.15.11-.23.17-.2.15-.43.34-.67.55-.14.13-.29.26-.45.41-.05.05-.1.1-.15.15-.1.1-.21.21-.31.32-.05.06-.1.11-.16.17-.37.4-.73.85-1.07,1.36-.39.57-.52,1.12-.5,1.61,0,.25.06.48.13.7.02.05.04.11.06.16.4,1,1.28,1.65,1.28,1.65,0,0,.51-.21,1.1-.66.27-.2.56-.46.83-.76.05-.06.12-.11.18-.16.03-.02.07-.04.1-.06.14-.07.3-.1.47-.11.37-.03.78.05,1.11.09,1.51.18,3.03-.1,4.39-.74,0,0,.08-.01.21-.04.06,0,.14,0,.25,0,.05,0,.11,0,.18,0,.18,0,.41-.02.69-.04.29-.02.64-.05,1.05-.1.54-.06,1.17-.15,1.92-.27,4.96-.8,3.88-4.03,3.88-4.03l-1.57-.45,3.36-.62s.09-.78-.24-1.72c-.05-.14-.11-.29-.18-.44ZM64.81,57.55l-.55-.48-.18.71c-.32.13-.63.29-.94.48h-.02s-.01-1.75.99-2.03c1.02-.29,1.47,1.2,1.47,1.2-.26.02-.52.07-.78.13ZM73.34,51.64s2.24,1.95-.46,3.89c-2.67,1.92-4.62-.78-4.62-.78,0,0-.59.15-1.08.21-.58.07-1.19-.64-1.19-.64,0,0,2.29-.16,4.25-1.95,1.32-1.2,1.02-1.33,2.25-1.78,1.59-.58,3.09-.32,3.09-.32l-2.23,1.37Z"/>
      <path class="cls-1" d="M72.07,52.14c-.2.36-.44.69-.73.99.45.29.77.71.92,1.23.98-1.1-.19-2.22-.19-2.22Z"/>
      <path class="cls-1" d="M70.85,53.57c-.3.23-.63.43-.99.58l-.23.1s.81,1.5,2.22.47c-.49-.27-.83-.66-1-1.15Z"/>
      <polygon class="cls-1" points="74.96 59.07 74.96 59.07 74.96 59.07 74.96 59.07 74.96 59.07"/>
      <path class="cls-1" d="M63.19,64.41c2.06-1.73,2.78-4.48,2.78-4.48l-1.19.13s-.03.13-.3.64c-.42.79-.96,1.48-1.62,2.05-.4.34-.84.64-1.32.89,0,0-.02,0-.04.02-.03.01-.06.03-.1.06-.08.04-.17.09-.22.11-.26.13-.76.35-1.23.56-.61.27-1.19.52-1.19.52h.21c1.21.03,3.09-.91,3.44-1.08-1.43,1.49-3.3,2.38-3.3,2.38,0,0,2.04-.07,4.1-1.8Z"/>
      <path class="cls-1" d="M38.14,77.34s0,0,0,0c-.04-.03-.08-.06-.12-.09.04.03.08.06.12.09Z"/>
      <path class="cls-1" d="M73.88,59.9s-.03,0-.04,0h0s.03,0,.04,0Z"/>
      <path class="cls-1" d="M68.46,59.86c-.09,0-.18,0-.27.01-.36,0-.71,0-1.03-.05l-.53,1.56c1.34-.14,2.18-.31,2.81-.53.1-.03.19-.07.27-.11s.17-.08.25-.11c.12-.06.23-.12.34-.19.07-.04.14-.09.21-.14.07-.05.14-.1.21-.15.04-.03.07-.05.11-.08.25-.19.51-.39.83-.63l.35-.26-.59.17c-.7.2-1.55.38-2.4.47-.19.02-.37.03-.56.04Z"/>
      <path class="cls-1" d="M41.17,72.16c1.18-.63,1.91-1.64,2.31-2.51.37-.8.46-1.84.3-2.61l-1.08.09c.08.35.07.9,0,1.14-.2.8-.89,1.33-1.97,1.33-2.7,0-3.8-3.53-2.09-7.01.05-.1.11-.2.16-.3,1.35-2.42,3.86-3.9,6-3.9,1.3,0,1.74,1.09,1.25,2.01-.36.67-1.22,1.25-1.96,1.25,0,0,0,0,0,0-.72,0-1.22-.68-1.06-1.49-.91.1-1.84.97-2.09,1.58-.17.41-.21.85-.13,1.25.17.81.84,1.47,2,1.47.87,0,1.85-.4,2.69-.99.67-.47,1.25-1.07,1.61-1.7,1.32-2.32.46-4.57-2.36-4.57-4.17,0-8.53,4.05-10,7.01-.33.66-.56,1.29-.72,1.89-1.02,3.99,1.61,6.65,4.62,6.65,1.01,0,1.84-.23,2.52-.59Z"/>
      <path class="cls-1" d="M81.93,53.88c.07-.06.14-.12.2-.18h0c-.07.06-.13.12-.2.18Z"/>
      <path class="cls-1" d="M38.02,77.25c-.38-.27-.75-.55-1.12-.84.37.29.75.57,1.12.84Z"/>
      <path class="cls-1" d="M38,77.13c.04.07.09.14.13.2,0,0,0,0,0,0-.05-.07-.09-.14-.13-.2Z"/>
      <path class="cls-1" d="M41.05,44.47c-1.7-2.31-5.53-1.27-6.09,1.36-.07.28-.1.58-.09.89-.11,3.2,4.3,4.68,6.16,2.15h15.11v13.26c.8-.42,1.7-.68,2.67-.68.25,0,.5.02.73.06.24.04.48.11.7.19h1.53l-.27-.2c-.15-.11-.95-.72-1.53-1.71-.19-.32-.33-.65-.43-.98-.25-.8-.25-1.61,0-2.4.13-.41.32-.81.58-1.19.91-1.35,2-2.39,2.85-3.07v-3.3h.01s3.7.01,3.7.01l.11-.06s.02-.02.03-.03c.5-.63,1.31-1.39,2.59-1.98.58-.27,1.26-.51,2.04-.68,1-.22,2.11-.32,3.3-.3.33,0,.65.02.96.05.37-.58.62-1.03.77-1.41h-13.5v-1.97c.14-.68.25-1.41.37-2.15-1.35.25-2.62.61-3.8,1.06-1.24.48-2.39,1.08-3.41,1.79,0,.45,0,1.02,0,1.26h.01s-.65.01-.65.01h-14.44Z"/>
      <path class="cls-1" d="M80.71,54.79c-.01.07-.03.15-.04.23.02-.08.03-.15.04-.22.03-.02.06-.04.09-.06-.03.02-.06.04-.09.06Z"/>
      <polygon class="cls-1" points="79.83 56.78 79.83 56.78 79.83 56.78 79.83 56.78 79.83 56.78 79.83 56.78 79.83 56.78"/>
      <path class="cls-1" d="M107.08,63.34h0c.16-.16.29-.34.41-.52-.12.19-.26.36-.41.52Z"/>
      <path class="cls-1" d="M103.83,76.26c-.13-.3-.26-.6-.4-.9-.14-.3-.28-.59-.42-.88-.28-.58-.58-1.15-.88-1.71-.75.47-1.3,1.14-1.6,1.94-.09.23-.15.48-.19.72-.04.24-.06.67-.05.92,0,.06.01.12.02.18.01.12.03.24.06.36.05.24.13.48.22.71.06.15.12.3.18.45.06.15.11.3.17.45.11.3.22.61.33.91.1.31.21.61.31.92.1.31.2.63.29.94.31-.14.61-.32.87-.54.35-.29.65-.65.88-1.06.06-.1.11-.21.16-.32.11-.25.2-.52.25-.78.03-.13.05-.27.07-.4.01-.13.02-.27.02-.4h.01c0-.38-.06-.77-.18-1.14-.04-.12-.09-.25-.14-.36Z"/>
      <path class="cls-1" d="M93.18,94.11c.15-.22.27-.45.38-.69l.05-.12h0c.16-.43.23-.88.23-1.34-.01-.6-.03-1.28-.08-1.95-.02-.32-.04-.64-.07-.96-.02-.29-.05-.57-.08-.86-.18.03-.35.08-.52.14-.22.08-.41.16-.57.24-.18.09-.35.21-.52.33-.17.12-.32.26-.46.42-.08.09-.16.18-.23.28-.08.1-.15.2-.21.3-.13.2-.23.42-.31.65l-.05.14h-.01c-.13.37-.2.8-.21,1.27-.01.56-.02,1.27-.06,1.94-.02.32-.04.65-.06.98-.02.29-.05.58-.08.87.19-.01.37-.04.56-.07.2-.04.41-.11.64-.2.21-.09.42-.2.6-.31.19-.13.37-.27.54-.43.1-.09.19-.19.28-.29.08-.1.16-.2.24-.32Z"/>
      <path class="cls-1" d="M93.25,94.16c.15-.23.28-.46.39-.71h0c-.11.24-.24.48-.39.71Z"/>
      <path class="cls-1" d="M97.18,83.36c-.42.13-.81.32-1.15.56-.35.24-.65.54-.9.89-.15.2-.27.42-.37.65-.1.23-.18.46-.24.7h0c-.11.46-.13.95-.07,1.46.08.64.14,1.27.19,1.92.01.16.02.32.03.49,0,.16.02.32.03.49.02.33.04.66.04.98.45-.07.88-.23,1.28-.46.4-.23.76-.54,1.06-.9.17-.22.32-.45.45-.69s.22-.49.29-.75h0c.07-.24.11-.5.12-.75.01-.26,0-.52-.04-.78-.19-1.3-.44-2.57-.73-3.81Z"/>
      <path class="cls-1" d="M100,78.22c-.2.09-.39.2-.57.32-.18.12-.35.25-.5.39-.31.29-.57.62-.77,1-.11.22-.21.45-.29.69-.07.22-.13.53-.15.77-.02.22-.02.45,0,.67.02.25.07.49.13.74.16.62.31,1.25.44,1.88.07.32.13.64.19.96.06.32.11.64.17.97.11-.03.22-.07.32-.11s.21-.09.31-.14c.2-.1.4-.23.58-.37.18-.14.35-.3.51-.47.16-.17.3-.36.42-.57.3-.47.47-1,.55-1.53h.01c.02-.12.03-.25.03-.38,0-.39-.04-.78-.15-1.15-.37-1.27-.77-2.49-1.23-3.68Z"/>
      <path class="cls-1" d="M90.69,95.79c.07,0,.14-.02.21-.03.16-.03.31-.08.46-.14-.15.06-.31.1-.46.14-.07.01-.14.02-.21.03Z"/>
      <path class="cls-1" d="M93.93,91.95c0,.36-.04.73-.14,1.08.1-.35.14-.71.14-1.08-.01-.49-.03-.97-.05-1.44.02.48.04.96.05,1.44Z"/>
      <path class="cls-1" d="M92.86,94.64s.1-.1.14-.15c.09-.11.17-.22.25-.33-.08.11-.16.22-.25.33-.05.05-.1.1-.14.15Z"/>
      <polygon class="cls-1" points="95.48 25.08 91.8 31.83 93.9 34.54 100.17 29.69 101.49 29.08 99.83 26.92 98.9 28.05 94.47 31.55 98.16 24.77 95.87 21.81 94.95 22.95 89.81 26.93 88.47 27.52 90.14 29.68 91.07 28.56 95.48 25.08"/>
      <path class="cls-1" d="M90.22,95.83c.03-.33.06-.65.09-.98-.03.33-.06.65-.09.98h0Z"/>
      <path class="cls-1" d="M88.12,98.57c.1-.09.2-.19.29-.29.09-.1.18-.21.25-.32-.08.11-.16.22-.25.32-.09.1-.19.2-.29.29Z"/>
      <path class="cls-1" d="M89.58,93.77c0-.17.02-.34.03-.51,0-.11,0-.22.01-.33,0,.11,0,.22-.01.33,0,.17-.02.34-.03.51Z"/>
      <path class="cls-1" d="M90.43,91.95c0-.13,0-.25.02-.38-.01.12-.02.25-.02.38-.01.63-.02,1.29-.06,1.93.04-.64.05-1.3.06-1.93Z"/>
      <path class="cls-1" d="M93.79,89.03c.01.15.02.3.03.45-.01-.15-.02-.3-.03-.45,0-.1-.02-.19-.03-.29,0,.1.02.19.03.29Z"/>
      <path class="cls-1" d="M92.28,88.6c.07-.04.13-.08.2-.12.19-.1.39-.18.59-.25.06-.02.12-.03.17-.05-.06.02-.12.03-.17.05-.2.07-.4.15-.59.25-.07.04-.14.08-.2.12Z"/>
      <path class="cls-1" d="M87.34,93.26c-.36.29-.67.67-.91,1.12l-.07.13h0c-.08.15-.15.33-.21.52-.07.22-.13.46-.16.71-.16,1.18-.39,2.4-.69,3.73.08,0,.17,0,.25,0,.32,0,.65-.04.97-.13.46-.13.87-.33,1.23-.59.21-.16.42-.34.6-.54.16-.18.31-.39.46-.64l.07-.12h0c.21-.38.34-.83.4-1.3.08-.66.13-1.34.18-1.94.02-.28.04-.57.05-.85v-.12s.01-.15.01-.15c.01-.23.02-.47.03-.7-.41.02-.79.1-1.13.24-.39.14-.75.35-1.07.62Z"/>
      <path class="cls-1" d="M107.49,65.95c-.02-.13-.05-.26-.08-.39h0c.03.13.06.26.08.39Z"/>
      <path class="cls-1" d="M106.89,64.42c-.05-.08-.11-.16-.17-.23-.1-.13-.21-.25-.31-.38.1.13.21.25.31.38.06.08.12.15.17.23Z"/>
      <path class="cls-1" d="M106.19,71.77c-.06-.51-.25-1.01-.51-1.45l-.25-.42-.26-.42c-.18-.28-.35-.55-.53-.82-.36-.54-.73-1.07-1.1-1.58-.34.28-.63.6-.85.96-.23.36-.39.75-.49,1.17-.12.49-.12.99-.04,1.48h-.01c.04.23.1.47.19.7.08.23.19.46.31.68.16.28.31.56.47.84.15.28.3.57.45.86.3.58.57,1.17.85,1.77.39-.24.73-.55,1.01-.91.14-.18.26-.38.37-.59.05-.1.1-.21.15-.32.04-.11.08-.22.12-.34.08-.27.13-.54.15-.81.02-.27,0-.54-.02-.81h.01Z"/>
      <path class="cls-1" d="M105.47,62.68c.1.11.19.23.29.34-.1-.11-.19-.23-.29-.34-.17-.2-.35-.39-.52-.58.17.19.35.39.52.58Z"/>
      <path class="cls-1" d="M107.73,59.27l-.05-.13h0c-.19-.41-.46-.79-.79-1.11-.24-.23-.48-.45-.71-.67l-.03-.03c-.23-.21-.45-.42-.68-.62-.49-.43-.93-.81-1.39-1.18-.23.34-.4.69-.5,1.04-.12.42-.18.84-.16,1.23.01.26.04.5.1.72.05.23.14.46.24.68l.06.13h-.01c.18.36.43.72.76,1.05.22.23.44.46.66.7l.03.03c.21.23.43.45.63.69.42.47.83.94,1.21,1.41.27-.3.49-.65.65-1.04.17-.4.26-.84.28-1.33.01-.25,0-.52-.06-.8-.05-.26-.12-.51-.22-.76Z"/>
      <path class="cls-1" d="M108.11,60.83c0-.1,0-.2,0-.31,0,.1,0,.2,0,.31,0,.24-.04.47-.08.7.05-.23.07-.46.08-.7Z"/>
      <path class="cls-1" d="M107.41,67.52c.03-.11.05-.23.07-.35.01-.07.02-.14.03-.21,0,.07-.02.14-.03.21-.02.12-.04.23-.07.35Z"/>
      <path class="cls-1" d="M105.81,69.01c.11.17.22.34.33.51h0c-.11-.17-.22-.34-.33-.51Z"/>
      <path class="cls-1" d="M105.07,67.89c-.08-.12-.17-.24-.26-.37.09.12.17.24.26.37.07.11.14.22.22.32-.07-.11-.14-.22-.22-.32Z"/>
      <path class="cls-1" d="M103.94,66.32s-.04-.06-.07-.1c.02.03.04.06.07.1.05.07.1.14.15.21-.05-.07-.1-.14-.15-.21Z"/>
      <path class="cls-1" d="M106.68,68.99c.13-.16.24-.32.34-.5.05-.08.09-.16.13-.25-.04.08-.08.17-.13.25-.1.18-.22.34-.34.5Z"/>
      <path class="cls-1" d="M103.64,59.24h.01c-.1-.2-.17-.41-.22-.62.06.21.13.42.22.62h-.01s0,0,0,0Z"/>
      <path class="cls-1" d="M104.8,60.77c.12.12.23.24.35.36.11.12.22.24.33.36-.11-.12-.22-.24-.33-.36-.12-.12-.23-.24-.35-.36Z"/>
      <path class="cls-1" d="M107.32,65.57l-.03-.13h0c-.13-.42-.35-.83-.64-1.2-.43-.54-.84-1.03-1.25-1.5-.21-.24-.43-.48-.64-.72-.22-.24-.4-.44-.58-.63-.55.62-.88,1.37-.95,2.16-.02.21-.03.47,0,.73.02.21.07.44.15.71l.04.14h-.01c.12.37.33.75.62,1.14.37.5.76,1.03,1.13,1.57.18.27.36.54.55.81.16.25.31.49.47.74.14-.12.28-.26.4-.4.13-.15.26-.33.38-.55.11-.19.21-.4.29-.62.07-.21.13-.44.17-.67.09-.49.06-1.02-.08-1.58Z"/>
      <path class="cls-1" d="M72.8,101.14s0,0,0,0c0,0,0,0,0,0,0,0-.02,0-.03,0,0,0,.02,0,.03,0Z"/>
      <path class="cls-1" d="M74.41,101.98c.1-.21.19-.42.28-.62h0c-.09.2-.19.41-.28.62Z"/>
      <path class="cls-1" d="M74.9,102.8c-.05.1-.09.2-.14.3-.06.12-.12.23-.17.35.06-.12.12-.23.17-.35.05-.1.09-.2.14-.3Z"/>
      <path class="cls-1" d="M49.28,104.91c.24-.15.48-.31.72-.46.54-.36,1.07-.73,1.58-1.1-.51.37-1.04.74-1.58,1.1-.24.16-.48.31-.72.46Z"/>
      <path class="cls-1" d="M76.27,100.18s.05-.05.08-.08c-.03.03-.06.06-.08.08-.07.08-.14.17-.21.26.07-.09.14-.18.21-.26Z"/>
      <path class="cls-1" d="M75.56,101.34c.02-.06.05-.11.08-.16-.03.05-.05.11-.08.16-.03.07-.06.14-.09.2.03-.07.06-.14.09-.2Z"/>
      <path class="cls-1" d="M67.85,106.26h0c.13-.18.26-.36.38-.54-.13.18-.25.36-.38.54Z"/>
      <path class="cls-1" d="M70.87,101.96c-.09.08-.18.16-.27.24.09-.09.18-.17.27-.24h0Z"/>
      <path class="cls-1" d="M69.42,103.9c-.17.27-.34.55-.52.82-.13.2-.27.41-.41.61.14-.2.28-.41.41-.61.18-.27.35-.55.52-.82l.25-.41.25-.41c.06-.11.13-.22.2-.32-.07.1-.14.21-.2.32l-.25.41-.25.41Z"/>
      <path class="cls-1" d="M86.54,99.44s0,0,0,0c.22-.06.44-.14.65-.24-.21.1-.43.18-.65.24,0,0,0,0,0,0Z"/>
      <path class="cls-1" d="M85.9,95.72c.03-.22.08-.44.14-.65-.06.21-.11.43-.14.65-.04.32-.09.64-.14.95.05-.32.1-.64.14-.95Z"/>
      <path class="cls-1" d="M73.9,94.57c6.68-3.83,9.37-9.39,9.37-9.39l2.35,2.24s0,0,0,0h0c.58-1.25,1.9-3.97,2.3-5.84.56-2.58.57-5.94.21-8.74-2.47,3.46-7.12,6.67-10.1,8.26l1.4,1.18h0l1.53,1.3s-.04.07-.06.11c0,.01-.01.02-.02.03-.02.03-.04.06-.06.09,0,0,0,.01-.01.02-.86,1.26-3.71,3.57-5.68,4.16-.98.37-2.11.66-3.38.82-6.41.78-8.79.24-8.79.24v-1.87c-1.11.05-2.25.08-3.43.11-.04,0-.08,0-.11,0-.26,0-.51,0-.77,0-.85,0-1.69-.04-2.53-.11v1.86c-.25.05-2.71.49-8.77-.25-1.27-.15-2.39-.45-3.38-.82-2.11-.63-5.22-3.23-5.83-4.41l2.93-2.48c-2.98-1.59-7.63-4.8-10.1-8.26,0,.07-.02.14-.02.21,0-.02,0-.03,0-.05-.35,2.79-.33,6.12.22,8.69.4,1.87,1.72,4.59,2.3,5.84l.07-.08.02-.09,2.23-2.25-.03.11.04-.04s2.69,5.56,9.37,9.39c.82.47,1.91,1.2,2.51,1.48,4.37,2.28,9.63,7.51,11.85,10.55,2.22-3.05,7.47-8.27,11.85-10.55.6-.29,1.69-1.01,2.51-1.48Z"/>
      <path class="cls-1" d="M72.09,105.88c.08-.06.15-.13.22-.2-.07.07-.14.13-.22.2Z"/>
      <polygon class="cls-1" points="76.14 99.23 76.14 99.23 76.11 99.19 76.14 99.23"/>
      <polygon class="cls-1" points="76.14 99.23 76.14 99.23 76.14 99.23 76.14 99.23 76.14 99.23"/>
      <path class="cls-1" d="M81.5,97.59c.13-.19.29-.37.47-.54-.18.17-.34.36-.47.54-.04.06-.08.12-.12.18.04-.06.07-.12.12-.18Z"/>
      <path class="cls-1" d="M83.78,96.05s0,0,0,0c0,0,0,0,0,0-.13.03-.25.07-.37.11.12-.04.24-.08.37-.11Z"/>
      <path class="cls-1" d="M69.04,106.75s.03,0,.05,0c0,0,0,0,0,0,0,0,0,0,0,0-.02,0-.03,0-.05,0Z"/>
      <polygon class="cls-1" points="83.62 101.15 83.63 101.16 83.62 101.15 83.62 101.15"/>
      <path class="cls-1" d="M79.77,99.92c-.1.31-.2.61-.3.92.1-.31.21-.62.3-.92.1-.3.19-.61.28-.92-.09.31-.18.61-.28.92Z"/>
      <path class="cls-1" d="M83.07,101.74c-.09.08-.18.15-.28.22.1-.07.19-.14.28-.22.19-.17.37-.35.52-.55-.16.2-.33.38-.52.55Z"/>
      <path class="cls-1" d="M79.94,99.08c-.27-.05-.54-.08-.8-.08-.54,0-1.06.11-1.55.34-.24.11-.44.23-.63.36-.1.07-.19.15-.28.23-.08.07-.25.23-.34.33-.27.31-.51.68-.7,1.12-.13.29-.25.59-.39.89-.13.29-.27.58-.41.88-.25.54-.52,1.06-.84,1.66.39.13.79.2,1.21.2.46,0,.91-.08,1.34-.25.26-.1.5-.22.72-.36.22-.14.42-.31.61-.5l.1-.1h0c.06-.05.11-.11.16-.17.08-.1.15-.2.22-.31.14-.21.25-.44.35-.67.11-.28.22-.56.32-.84l.03-.08c.11-.31.22-.61.33-.91.1-.31.2-.61.3-.92.07-.23.16-.52.25-.82Z"/>
      <path class="cls-1" d="M83.89,100.76c.05-.08.1-.17.14-.26.09-.19.16-.39.22-.6-.06.21-.13.41-.22.6-.04.09-.09.17-.14.26Z"/>
      <path class="cls-1" d="M83.8,96.14c-.2.05-.4.11-.59.19-.21.09-.39.18-.56.28-.41.26-.81.65-1.08,1.03-.26.37-.45.79-.58,1.25-.36,1.28-.76,2.49-1.18,3.61.19.04.38.06.56.07.05,0,.1,0,.16,0,.17,0,.34-.01.51-.03.43-.05.87-.19,1.3-.42.22-.11.44-.26.66-.46.22-.19.4-.38.54-.57l.08-.11h0c.12-.16.22-.34.31-.52.11-.23.2-.47.25-.71.14-.56.3-1.22.43-1.9.06-.32.13-.63.18-.95.05-.28.1-.57.14-.85-.09,0-.18,0-.27,0-.29,0-.58.03-.88.1Z"/>
      <path class="cls-1" d="M84.39,99.36c.12-.5.23-.99.33-1.5.04-.21.08-.42.12-.63-.04.21-.08.42-.12.63-.1.5-.21,1-.33,1.5Z"/>
      <path class="cls-1" d="M78.08,103.82s.09-.09.13-.14c.04-.05.08-.11.11-.16-.04.05-.07.11-.11.16-.04.05-.09.09-.13.14Z"/>
      <path class="cls-1" d="M72.96,104.83c-.13.23-.27.44-.44.64-.06.07-.13.14-.19.2.07-.07.13-.13.19-.2.17-.2.31-.41.44-.64.16-.29.32-.57.47-.86.1-.2.2-.39.3-.58-.1.19-.2.39-.3.58-.15.29-.31.57-.47.86Z"/>
      <path class="cls-1" d="M76.61,104.83c.25-.1.49-.22.71-.36.08-.05.15-.11.23-.17-.08.06-.15.12-.23.17-.22.14-.46.26-.71.36Z"/>
      <path class="cls-1" d="M73.43,101.2c-.05,0-.11,0-.16,0-.15,0-.31.01-.46.03-.1.01-.2.03-.3.05-.1.02-.21.05-.31.08-.23.07-.46.16-.67.28-.22.11-.42.25-.6.4l-.11.09h0c-.32.28-.59.61-.82.99l-.25.42-.25.41c-.17.27-.35.55-.52.82-.33.5-.68,1.01-1.05,1.53.36.18.75.3,1.17.36.15.02.31.03.47.03.29,0,.59-.03.89-.1.5-.12,1.1-.41,1.52-.74.17-.13.32-.28.46-.44.16-.18.3-.39.43-.62.16-.29.32-.57.47-.86.15-.29.3-.58.44-.87.28-.55.55-1.13.78-1.65-.36-.13-.74-.2-1.14-.21Z"/>
      <path class="cls-1" d="M73.87,104.84s.05.02.08.03c-.03,0-.05-.02-.08-.03h0Z"/>
      <path d="M59.42,0C26.66,0,0,26.66,0,59.42s26.66,59.42,59.42,59.42,59.42-26.66,59.42-59.42S92.19,0,59.42,0ZM107.9,54.47c.09.95-.16,1.88-.7,2.62-.24-.23-.48-.45-.72-.67-.24-.22-.49-.43-.73-.65-.49-.42-.99-.83-1.49-1.23-.4-.31-.74-.68-.99-1.09h.01c-.12-.18-.21-.37-.29-.57h4.41s.01.02.02.03h-.01c.14.23.24.48.32.74.08.26.15.53.17.81ZM107.83,59.24h0c-.2-.48-.5-.91-.87-1.27-.12-.11-.24-.22-.36-.34.12.11.24.22.36.34.37.36.67.79.87,1.27ZM104.42,55.7c-.12-.1-.24-.21-.37-.31-.11.15-.2.31-.29.48.09-.16.18-.32.29-.48.13.1.25.2.37.31ZM103.59,56.24c-.04.1-.08.2-.11.3-.03.1-.06.2-.08.31.02-.1.05-.21.08-.31.03-.1.07-.2.11-.3ZM103.33,58c0-.07-.01-.13-.02-.2,0-.2,0-.41.03-.61-.03.2-.04.4-.03.61,0,.07.01.14.02.2ZM103.39,65.35c-.05-.11-.09-.23-.12-.34l-.2-.03.2.03c.03.11.07.23.12.34ZM103.27,65.01h0s0,0,0,0ZM103.13,64.29c0-.09-.01-.17-.02-.26,0,.09,0,.17.02.26.02.17.05.34.09.5-.04-.17-.08-.33-.09-.5ZM105.9,37.64l1.18,3.82c1.03,3.32.07,5.19-2.99,6.14-3.07.95-4.91-.05-5.94-3.38l-1.18-3.82,1.46-.11,6.21-1.92,1.26-.73ZM83.15,13.19l.18-1.05,2.73,1.67-1.67,9.93-2.69-1.64.57-1.09.07-.37-3.16-1.93-.3.23-.71,1-2.29-1.4,7.28-5.35ZM54.44,87s.06,0,.09.01h0s-.06,0-.09-.01ZM54.53,87.57h0c-.06,0-.12,0-.18,0,.06,0,.12,0,.18,0ZM38.9,74.72c.83-.02,1.62-.17,2.35-.43.76-.27,1.46-.67,2.08-1.19h4.42l2.31.06c1.05,0,1.96-.12,2.94-.75.69.61,1.62.95,2.65.95.21,0,.42-.02.63-.05,2.88,2.18,6.54,3.38,10.96,3.08,1.18-.08,2.15-.19,2.99-.38.6-.14,1.43-.4,2.31-.85.86-.48,1.63-1.15,2.52-2.07h1.98l.18-.36c.56.39,1.26.62,2.04.62,1.13,0,2.11-.36,3.03-.96-.77,3.44-3.38,5.97-4.64,7.01-.41.34-.68.53-.68.53-4.59,4.1-9.83,5.15-17.58,5.35-8.94.22-16.79-3.75-20.48-10.57ZM42.58,82.09s-.05-.03-.07-.05h0s.04.03.07.05ZM38.14,77.34s-.08-.06-.12-.09c-.38-.27-.75-.55-1.12-.84.37.29.75.57,1.12.84.04.03.08.06.12.09-.05-.07-.09-.13-.13-.2.04.07.09.14.13.2,0,0,0,0,0,0,0,0,0,0,0,0ZM34.03,66.11c.15-.6.39-1.23.72-1.89,1.47-2.96,5.83-7.01,10-7.01,2.82,0,3.69,2.25,2.36,4.57-.35.62-.93,1.22-1.61,1.7-.84.59-1.82.99-2.69.99-1.16,0-1.83-.66-2-1.47-.08-.4-.04-.84.13-1.25.25-.61,1.18-1.47,2.09-1.58-.16.81.34,1.49,1.06,1.49,0,0,0,0,0,0,.74,0,1.6-.57,1.96-1.25.49-.92.05-2.01-1.25-2.01-2.14,0-4.65,1.47-6,3.9-.05.1-.11.2-.16.3-1.71,3.48-.61,7.01,2.09,7.01,1.09,0,1.78-.54,1.97-1.33.07-.24.07-.8,0-1.14l1.08-.09c.15.78.07,1.82-.3,2.61-.4.87-1.12,1.88-2.31,2.51-.68.36-1.51.59-2.52.59-3.01,0-5.64-2.66-4.62-6.65ZM56.14,44.46c0-.24,0-.81,0-1.26,1.02-.7,2.16-1.3,3.41-1.79,1.18-.46,2.45-.81,3.8-1.06-.12.74-.23,1.46-.37,2.15v1.97h13.5c-.14.38-.39.84-.77,1.41-.31-.03-.63-.04-.96-.05-1.2-.02-2.31.08-3.3.3-.79.17-1.46.41-2.04.68-1.27.59-2.09,1.36-2.59,1.98,0,.01-.02.02-.03.03l-.11.06h-3.71s0,3.29,0,3.29c-.85.69-1.94,1.72-2.85,3.07-.26.39-.45.79-.58,1.19-.25.79-.25,1.6,0,2.4.1.33.25.66.43.98.58.99,1.38,1.6,1.53,1.71l.27.2h-1.53c-.22-.09-.46-.15-.7-.19-.24-.04-.48-.06-.73-.06-.97,0-1.87.26-2.67.68v-13.26h-15.11c-1.86,2.53-6.27,1.05-6.16-2.15-.01-.31.02-.61.09-.89.56-2.64,4.39-3.67,6.09-1.36h15.1-.01ZM79.83,56.78s0,0,0,0c0,0,0,0,0,0s0,0,0,0h0s0,0,0,0c0,0,0,0,0,0ZM80.67,55.02c.02-.08.03-.15.04-.23.03-.02.06-.04.09-.06-.03.02-.06.04-.09.06-.01.07-.03.15-.04.22ZM81.93,53.88c.07-.06.13-.12.2-.18h0c-.07.06-.13.12-.2.18ZM82.32,53.54h0s0,0,.01-.01c0,0,0,0-.01.01ZM80.72,52.31l-3.36.62,1.57.45s1.08,3.23-3.88,4.03c-.75.12-1.39.21-1.92.27-.41.05-.76.08-1.05.1-.28.02-.51.03-.69.04-.07,0-.12,0-.18,0-.11,0-.19,0-.25,0-.13.02-.21.04-.21.04-1.36.64-2.88.92-4.39.74-.33-.04-.74-.12-1.11-.09-.17.01-.32.04-.47.11-.04.02-.07.04-.1.06-.07.04-.13.09-.18.16-.27.31-.56.56-.83.76-.59.45-1.1.66-1.1.66,0,0-.89-.64-1.28-1.65-.02-.05-.04-.11-.06-.16-.07-.22-.12-.45-.13-.7-.02-.49.12-1.04.5-1.61.34-.5.71-.96,1.07-1.36.05-.06.1-.11.16-.17.1-.11.21-.22.31-.32.05-.05.1-.1.15-.15.15-.15.3-.28.45-.41.24-.21.47-.39.67-.55.08-.06.16-.12.23-.17.39-.29.65-.44.65-.44,0,0,.03-.07.09-.19.07-.15.18-.36.31-.58.03-.04.05-.09.08-.13.14-.22.3-.43.45-.57.03-.03.06-.05.1-.07.16-.11.32-.21.47-.3.32-.19.57-.32.57-.32l.13.79s.23-1.21,1.6-2.26c.15-.12.32-.23.5-.34.09-.05.18-.11.28-.16.29-.16.62-.31.99-.43.12-.04.25-.08.38-.12.93-.27,2.08-.44,3.51-.42h0c1.22.02,2.2.2,2.98.49.13.05.25.1.37.15.47.21.86.46,1.19.73.48.41.8.87,1.02,1.32.07.15.13.3.18.44.33.94.24,1.72.24,1.72ZM74.96,59.07s0,0,0,0h0s0,0,0,0c0,0,0,0,0,0ZM73.88,59.9s-.03,0-.04,0h0s.03,0,.04,0ZM72.01,59.18l-.35.26c-.32.23-.58.44-.83.63-.04.03-.07.05-.11.08-.07.05-.14.1-.21.15-.07.05-.14.09-.21.14-.11.07-.22.13-.34.19-.08.04-.16.08-.25.11s-.18.07-.27.11c-.63.22-1.47.39-2.81.53l.53-1.56c.32.05.67.06,1.03.05.09,0,.18,0,.27-.01.18,0,.37-.02.56-.04.84-.09,1.7-.27,2.4-.47l.59-.17ZM58.96,64.92h-.21s.58-.25,1.19-.52c.48-.21.97-.43,1.23-.56.05-.02.14-.07.22-.11.04-.02.08-.04.1-.06.03-.01.04-.02.04-.02.48-.25.92-.55,1.32-.89.66-.57,1.2-1.26,1.62-2.05.27-.51.3-.64.3-.64l1.19-.13s-.71,2.75-2.78,4.48-4.1,1.8-4.1,1.8c0,0,1.87-.89,3.3-2.38-.34.17-2.22,1.11-3.44,1.08ZM55.87,64.49c.85-.74,1.87-1.26,2.97-1.26.37,0,.69.08.97.23-1.65.72-3.12.95-3.94,1.03ZM48.49,56.28c-1.14-.62-2.64-1.04-3.79-1.04-2.7,0-5.1,1.27-6.76,2.47.45-1.5.98-2.96,1.58-4.36.31-.73.64-1.44.99-2.13.07-.02.14-.05.2-.08.38-.2.74-.44,1.06-.74h7.18c-.12.54-.22,1.1-.3,1.67-.03.24-.06.48-.08.73-.1,1.15-.13,2.32-.09,3.47ZM60.22,73.3c.91-.15,1.8-.59,2.71-1.33.01-.01.03-.02.04-.03v2.22c-.96-.19-1.88-.47-2.75-.85ZM79.23,71.59c-.94,0-1.54-.54-1.55-1.42,0-.36.13-.8.43-1.4.27-.54.63-1.13.94-1.65.25-.41.48-.79.64-1.09.17-.35.17-.52.14-.56,0-.01-.04-.02-.11-.02-.61,0-1.25.75-2.09,2.42l-1.72,3.46h-3.07l2.63-5.22c.26-.52.19-.65.19-.65,0,0-.04-.02-.1-.02-.22,0-.88,0-2.09,2.42l-1.72,3.46h-3.06l.31-.63c-.78.6-1.49.89-2.3.89-.76,0-1.37-.3-1.71-.83-.44-.7-.39-1.74.14-2.77.38-.77,1.01-1.57,1.91-2.41-.18.04-.38.07-.57.07-.15,0-.28,0-.42-.03-.54.84-1.14,1.6-1.48,2l-.11.13s-.03.03-.04.05l-.08.1h0c-1.1,1.33-1.87,2.14-2.55,2.7-.83.68-1.56,1-2.31,1-.67,0-1.36-.31-1.55-1-.72.65-1.53,1-2.3,1s-1.4-.3-1.76-.86c-.19-.3-.31-.67-.35-1.09-.38.39-.72.7-1.05.96-.86.68-1.66.99-2.52.99-.94,0-1.54-.54-1.55-1.42,0-.36.13-.8.43-1.4.27-.54.63-1.13.94-1.65.25-.41.48-.79.64-1.09.22-.44.15-.56.15-.56,0-.01-.04-.02-.11-.02-.38,0-1.01.25-2.09,2.42l-1.72,3.46h-3.06l6.2-12.51h3.07l-2.58,5.06c.65-.42,1.34-.64,1.99-.64.96,0,1.59.52,1.6,1.34,0,.42-.17,1-.53,1.72-.24.49-.53,1-.79,1.45-.22.38-.43.75-.58,1.04-.18.36-.19.51-.19.55,0,0,0,0,0,0,.28,0,.75-.34,2.11-1.97.08-.21.17-.42.27-.63.35-.69.84-1.39,1.44-1.98l1.7.95.14.08-.73.92-.41.52s.29.11.8.18c-.32.75-.42,1.47-.24,1.77.04.06.11.14.3.14.48,0,1.21-.79,1.75-1.87.07,0,.15-.01.23-.02.16-.02.34-.04.51-.07.2-.03.4-.07.62-.12.89-.21,1.5-.39,2.03-.63l-1.08,2.18c-.18.37-.18.51-.18.55,0,0,0,0,.02,0,.3,0,.81-.39,2.38-2.29l.16-.19c.59-.72,1.03-1.29,1.35-1.84-.05-.06-.1-.12-.14-.19.05-.05.1-.09.15-.14.13-.12.25-.24.36-.36.41-.43.75-.87,1.04-1.29l.49-.05c.1-.01.2-.02.3-.03-.02.28-.09.61-.24,1.01.04,0,.08,0,.13,0,.87,0,2.02-.48,2.46-.82l.2-.16.1.24c.17.41.56,1,.82,1.25l.16.15-.16.13c-.65.53-1.81,1.57-2.35,2.64-.41.84-.26,1.24-.18,1.37.07.11.18.17.3.17.71,0,1.47-.76,2.48-1.97l.04-.05,1.7-3.42h2.84l-.23.51c.72-.51,1.49-.77,2.29-.77s1.35.43,1.47,1.09c.84-.72,1.76-1.09,2.7-1.09.88,0,1.48.54,1.5,1.34,0,.42-.16.96-.53,1.7-.22.44-.48.89-.73,1.32-.24.42-.47.81-.63,1.14-.23.43-.22.57-.21.6,0,0,.03,0,.07,0,.39,0,1.38-1.14,2.4-2.37l.21-.25.96.78-.21.25c-2.1,2.55-3.49,3.85-5.23,3.85ZM64.57,14.09l1.29-6.37-.04-1.46,3.2.64-.62,1.33-1.19,5.91,2.78.56,1.44-.1-.79,2.17-6.68-1.34.6-1.33ZM68.3,32.84c-.08,0-.16,0-.23,0,0,0,0,0,0,0,.08,0,.15,0,.23,0ZM59.57,23.09c.38,0,.74.03,1.06.08,1.57.18,3.28.88,4.3,2.17,1.63,2.23,2.36,4.78,1.43,7.5-.03,0-.06,0-.1,0-.51,0-1.01.02-1.51.05-.75.04-1.5.11-2.23.19-.02,0-.04,0-.05,0,.06-.09.12-.17.19-.26.43-.51.7-1.08.85-1.67.29-1.31-.04-2.69-.75-3.6-.95-1.22-2.83-1.27-3.22-1.26-.38,0-2.14.04-3.12,1.15l-.04-.03s-.03.03-.04.05c-1.04,1.34-1.28,3.72.13,5.37.36.45.58.91.75,1.36-.54.16-1.08.35-1.6.54-.12.05-.25.09-.37.14-.42.16-.83.33-1.24.51-.25-.39-.5-.78-.72-1.18-.95-1.82-1.14-3.58-.77-5.24.27-1.27.86-2.49,1.68-3.61,1.02-1.29,2.74-1.99,4.3-2.17.32-.05.68-.08,1.06-.08ZM52.89,24.37l.02-.02h.01s-.01,0-.01,0l-.02.02ZM50.71,6.72l.36,1.38,1.74,2.41.96-2.83-.05-1.43,3.07-.47-2.65,6.29.32,2.09.54,1.36-3.21.49.11-1.46-.32-2.07-4.47-5.21,3.6-.56ZM66.29,34.84c7.69-.08,15.05,1.14,17.17,7.22.82,2.36.64,4.83-.31,6.94-.24.54-.54,1.05-.87,1.54-.2-.77-.6-1.65-1.37-2.47-.79-.83-1.81-1.44-3.06-1.81.16-.28.3-.56.42-.84.58-1.35.59-2.73-.78-4.3-1.4-1.6-2.97-2.44-4.75-2.86-1.69-.4-3.57-.42-5.67-.33-5.15.2-10.18,1.73-13.7,4.91h-6.81c5-4.94,11.65-7.92,19.74-8ZM36.01,11.91c2.11-1.18,3.5-.79,4.44.88.59,1.04.52,2.13-.39,3.09l4.15,2.14-3.04,1.7-.69-.98-2.19-1.27-1.08.61.96,1.71.99,1.07-2.86,1.6-.4-1.41-3.18-5.67-.99-1.07,4.28-2.4ZM22.35,22.78l9.56,3.16-2.03,2.41-.99-.73-.36-.12-2.39,2.82.18.33.88.85-1.74,2.05-4.18-8.01-1.01-.33,2.06-2.44ZM11.6,41.92l1.19.27,5.26.31-4.37-2.95-1.11-.49,1.27-3.74,1.24.77,6.16,2.09,1.45.15-.92,2.7-1.24-.78-5.64-1.97,6.32,4.39-.71,2.08-7.63-.47,5.66,1.86,1.45.15-.84,2.47-1.24-.78-6.16-2.09-1.46-.13,1.3-3.84ZM11.43,52.89h3.92c.09.19.17.38.23.57h-.01c.07.24.13.48.15.73.03.25.02.49,0,.74-.08.86-.45,1.64-1.04,2.29-.22-.23-.44-.47-.65-.7-.22-.24-.43-.48-.64-.72-.42-.49-.84-.99-1.25-1.5-.32-.41-.57-.87-.7-1.37h.01s0-.02,0-.03ZM10.74,57.64c.02-.48.11-.94.29-1.36.13-.32.3-.62.51-.89.07-.09.15-.18.23-.26.41.51.85,1.01,1.28,1.49.21.24.44.48.66.71.22.24.44.47.66.7.09.09.17.18.25.28s.16.19.23.3c.14.2.26.41.35.63h-.01c.11.23.19.46.25.7.06.24.09.49.1.74,0,.22,0,.43-.03.64-.03.21-.08.42-.13.62-.12.4-.32.79-.57,1.15-.5-.4-.98-.82-1.47-1.25-.25-.21-.48-.43-.72-.65-.24-.22-.48-.45-.72-.67-.37-.36-.67-.79-.87-1.27h.01c-.1-.25-.17-.51-.23-.77-.05-.27-.08-.54-.06-.82ZM11.12,64.81c-.08-.26-.15-.53-.17-.81-.09-.95.16-1.88.7-2.62.24.23.48.45.72.67.24.22.49.43.73.65.49.42.99.83,1.49,1.23.4.31.74.68.99,1.09h-.01c.27.42.44.89.53,1.38.04.21.05.43.05.64,0,.21-.02.42-.05.63-.03.21-.09.42-.16.62-.07.2-.15.4-.26.6-.27-.17-.54-.34-.82-.51-.27-.17-.54-.35-.8-.53-.54-.36-1.06-.74-1.6-1.13-.42-.31-.77-.7-1.03-1.15h.01c-.14-.23-.24-.48-.32-.74ZM12.66,71.77h.01c-.33-.43-.56-.93-.7-1.47-.1-.47-.13-.94-.07-1.39.02-.11.04-.23.06-.34.05-.22.12-.44.21-.65.04-.1.09-.21.15-.31.54.38,1.08.75,1.62,1.11.27.18.55.35.82.52l.41.25.41.25c.11.06.22.13.32.2.1.07.2.15.29.23.19.16.36.33.51.52l.29-.08-.3.08c.16.19.3.4.41.61.12.22.22.45.29.69.03.1.06.21.08.31.02.1.04.21.06.31.03.21.04.42.03.63-.02.42-.1.84-.25,1.26-.58-.26-1.17-.53-1.74-.82-.29-.14-.58-.29-.87-.44-.29-.15-.57-.31-.86-.47-.23-.13-.44-.27-.64-.44-.19-.17-.37-.36-.53-.56ZM15.29,78.25c-.11-.07-.21-.15-.32-.23-.08-.07-.17-.14-.24-.22-.18-.19-.39-.45-.54-.67-.15-.23-.27-.48-.37-.74-.13-.34-.21-.68-.24-1.03-.01-.12-.02-.23-.02-.35,0-.46.08-.91.25-1.34.58.31,1.16.61,1.75.89.29.14.58.28.88.41.3.13.59.26.88.39.46.2.89.46,1.23.79h-.01c.09.09.18.18.26.27.08.09.16.19.23.29.15.2.27.42.37.64.04.1.09.2.12.3.14.4.22.82.22,1.24,0,.11,0,.21,0,.32-.01.21-.05.43-.09.64-.31-.09-.61-.18-.92-.28-.31-.1-.61-.2-.92-.3-.3-.11-.61-.22-.91-.33-.31-.11-.62-.23-.92-.35-.24-.1-.47-.21-.69-.35ZM18.16,83.85c-.23-.11-.45-.25-.66-.4h.01c-.21-.17-.41-.36-.58-.56-.09-.1-.17-.21-.25-.32-.04-.06-.08-.11-.11-.17-.04-.06-.07-.12-.1-.18-.22-.42-.37-.87-.43-1.33-.03-.23-.04-.46-.03-.68,0-.11.02-.23.03-.34.02-.11.04-.23.07-.34.31.12.61.23.92.34.93.33,1.85.61,2.77.87.49.13.94.34,1.33.62l.19-.11-.2.12c.41.28.75.65,1.02,1.07.06.09.11.18.16.28.05.1.09.19.13.29.04.1.08.2.11.3s.06.2.08.31c.09.42.12.84.08,1.28-.31-.05-.63-.1-.95-.16-.32-.06-.63-.12-.95-.18-.64-.13-1.27-.27-1.91-.43-.25-.06-.5-.15-.73-.26ZM21.02,88.7l-.18.14.19-.15c-.23-.14-.45-.29-.65-.47-.2-.18-.39-.39-.55-.61-.28-.39-.48-.82-.6-1.26-.06-.22-.1-.45-.12-.68-.02-.23-.02-.46,0-.68,1.29.3,2.56.54,3.83.72.25.04.49.09.73.17.18.06.35.12.52.2.16.09.34.2.52.32.06.04.12.08.17.13.23.18.44.37.6.57.28.33.49.7.63,1.1.15.39.23.82.25,1.26-.32,0-.64-.02-.96-.04-.32-.02-.65-.03-.97-.06-.64-.05-1.3-.1-1.95-.18-.51-.06-1.02-.21-1.46-.48ZM25.2,93.46h0c-.24-.11-.48-.24-.71-.4-.11-.08-.22-.16-.33-.25-.1-.09-.2-.19-.3-.29-.16-.17-.31-.36-.44-.55-.13-.2-.23-.4-.32-.62-.09-.21-.16-.43-.21-.65-.05-.22-.07-.45-.08-.68.33.03.65.06.98.09.33.02.65.04.98.06.64.04,1.3.05,1.93.06.5,0,.99.08,1.43.26.11.04.23.1.35.16.12.06.23.12.32.18.1.07.21.14.3.21.1.07.2.15.29.24.08.07.15.15.22.23.07.08.14.16.2.25.13.17.24.34.34.53.1.19.18.39.25.59.07.2.12.41.16.63-.32.03-.64.06-.96.09-.32.02-.64.05-.96.07-.65.04-1.29.06-1.96.08-.52,0-1.03-.09-1.51-.28ZM30.72,97.76c-.19-.01-.38-.04-.57-.08-.06-.02-.13-.04-.2-.06-.14-.04-.28-.1-.43-.16-.07-.03-.15-.06-.22-.1-.29-.14-.57-.3-.78-.48-.37-.31-.67-.67-.9-1.06-.06-.1-.11-.2-.16-.31-.14-.31-.25-.64-.3-.98.33,0,.66-.03.98-.04.33-.02.65-.04.97-.06.65-.05,1.29-.11,1.92-.19.5-.06,1-.04,1.47.07h0c.24.06.48.15.7.24.23.1.44.22.65.37.35.25.65.55.89.9.25.34.44.73.56,1.15-1.24.29-2.51.54-3.81.73-.26.04-.52.05-.78.04ZM35.22,101.16h0c-.53-.09-1.06-.26-1.53-.56-.2-.13-.39-.27-.57-.42-.17-.16-.33-.33-.47-.51-.28-.36-.49-.78-.62-1.21.33-.05.65-.11.97-.17.32-.06.64-.13.96-.19.63-.13,1.26-.28,1.88-.44.24-.06.49-.1.74-.13.25-.02.49-.02.72,0h0c.25.03.49.08.73.15.24.07.46.17.69.29.38.2.71.47,1,.77.14.15.28.32.39.5.12.18.23.37.32.57-1.19.46-2.42.86-3.68,1.23-.5.14-1.02.19-1.53.11ZM35.53,87.71h0c.08.12.17.25.27.38-.09-.13-.18-.26-.27-.38ZM41.09,103.96c-.13,0-.46-.01-.59-.03-.13-.02-.27-.04-.4-.07-.27-.06-.53-.14-.78-.25-.76-.35-1.38-.91-1.77-1.61-.06-.1-.11-.2-.15-.31.16-.05.31-.09.47-.14.16-.05.31-.1.47-.15.31-.1.62-.21.92-.31.31-.11.61-.22.91-.33.3-.11.6-.22.9-.35.24-.1.47-.17.71-.22.12-.03.24-.05.36-.06.12-.02.23-.02.34-.03.25-.01.51.01.75.05.24.04.49.1.72.19.3.11.58.26.84.44.09.06.17.12.25.19.33.27.61.59.84.97-.56.3-1.13.6-1.71.88-.29.14-.58.28-.88.42-.3.13-.59.27-.9.4-.42.19-.86.29-1.32.31ZM46.59,102.46s.09-.04.13-.07c-.04.02-.09.04-.13.07-.28.16-.56.31-.84.47-.18.09-.36.19-.54.28.18-.09.36-.19.54-.28.28-.15.57-.31.84-.47ZM43.12,104.22h0c.09.14.19.27.29.4-.1-.13-.2-.26-.29-.4ZM47.34,105.91c.25-.06.49-.15.71-.27-.23.11-.47.2-.71.27ZM48.77,105.24l-.15.09.15-.09.33-.21-.33.21ZM48.72,105.16l-.42.25c-.39.23-.79.39-1.18.46-.22.03-.59.05-.86.05-.06,0-.12,0-.16,0-.27-.02-.54-.07-.79-.15-.11-.03-.22-.07-.33-.11-.11-.04-.21-.09-.31-.15-.2-.1-.4-.23-.57-.36-.32-.24-.6-.55-.84-.9.55-.25,1.12-.52,1.68-.81.29-.15.58-.3.86-.45.28-.15.57-.31.85-.47.21-.12.43-.22.66-.3.18-.07.36-.12.54-.16h0s.14-.01.14-.01c.22-.04.44-.05.64-.05.28,0,.54.03.8.1.4.09.78.25,1.14.47.32.19.61.45.88.75-.5.36-1.01.71-1.5,1.04-.27.18-.54.35-.82.53l-.41.26ZM47.1,102.22c.06-.02.11-.05.17-.07.09-.03.18-.06.27-.09-.09.03-.18.05-.27.09-.06.02-.11.05-.17.07ZM47.97,101.97h0s0,0,0,0h0ZM50,104.45c-.24.16-.48.31-.72.46.24-.15.48-.31.72-.46.54-.36,1.07-.73,1.58-1.1-.51.37-1.04.74-1.58,1.1ZM59.54,106.61c-2.22-3.05-7.47-8.27-11.85-10.55-.6-.29-1.69-1.01-2.51-1.48-6.68-3.83-9.37-9.39-9.37-9.39l-.04.04.03-.11-2.23,2.25-.02.09-.07.08c-.58-1.25-1.9-3.97-2.3-5.84-.55-2.56-.57-5.9-.22-8.69,0,.02,0,.03,0,.05,0-.07.02-.14.02-.21,2.47,3.46,7.12,6.67,10.1,8.26l-2.93,2.48c.61,1.18,3.72,3.78,5.83,4.41.98.37,2.11.66,3.38.82,6.06.73,8.52.3,8.77.25v-1.86c.84.07,1.68.11,2.53.11.25,0,.51,0,.77,0,.04,0,.08,0,.11,0,1.18-.03,2.33-.06,3.43-.11v1.87s2.38.53,8.79-.24c1.27-.15,2.39-.45,3.38-.82,1.97-.59,4.81-2.9,5.68-4.16,0,0,0-.01.01-.02.02-.03.04-.06.06-.09,0-.01.02-.02.02-.03.02-.04.04-.08.06-.11l-1.53-1.3h0l-1.4-1.18c2.98-1.59,7.63-4.8,10.1-8.26.36,2.8.34,6.16-.21,8.74-.4,1.87-1.72,4.59-2.3,5.84h0s0,0,0,0l-2.35-2.24s-2.69,5.56-9.37,9.39c-.82.47-1.91,1.2-2.51,1.48-4.37,2.28-9.63,7.51-11.85,10.55ZM86.04,95.07c-.06.21-.11.43-.14.65-.04.32-.09.64-.14.95.05-.32.1-.64.14-.95.03-.22.08-.44.14-.65ZM83.78,96.05s0,0,0,0c-.13.03-.25.07-.37.11.12-.04.24-.08.37-.11,0,0,0,0,0,0ZM81.97,97.04c-.18.17-.34.36-.47.54-.04.06-.08.12-.12.18.04-.06.07-.12.12-.18.13-.19.29-.37.47-.54ZM76.14,99.23l-.03-.04.03.04s0,0,0,0ZM76.14,99.23h0s0,0,0,0h0s0,0,0,0ZM76.27,100.18s.05-.05.08-.08c-.03.03-.06.06-.08.08-.07.08-.14.17-.21.26.07-.09.14-.18.21-.26ZM75.63,101.17c-.03.05-.05.11-.08.16-.03.07-.06.14-.09.2.03-.07.06-.14.09-.2.02-.06.05-.11.08-.16ZM74.76,103.1c.05-.1.09-.2.14-.3-.05.1-.09.2-.14.3-.06.12-.12.23-.17.35.06-.12.12-.23.17-.35ZM74.41,101.98c.1-.21.19-.42.28-.62h0c-.09.2-.19.41-.28.62ZM72.8,101.14s0,0,0,0c0,0-.02,0-.03,0,0,0,.02,0,.03,0,0,0,0,0,0,0ZM70.87,101.96h0c-.09.08-.18.16-.27.24.09-.09.18-.17.27-.24ZM70.13,102.76c-.07.1-.14.21-.2.32l-.25.41-.25.41c-.17.27-.34.55-.52.82-.13.2-.27.41-.41.61.14-.2.28-.41.41-.61.18-.27.35-.55.52-.82l.25-.41.25-.41c.06-.11.13-.22.2-.32ZM67.85,106.26c.13-.18.26-.36.38-.54-.13.18-.25.36-.38.54h0ZM69.09,106.76s-.03,0-.05,0c.02,0,.03,0,.05,0,0,0,0,0,0,0,0,0,0,0,0,0ZM72.09,105.88c.08-.06.15-.13.22-.2-.07.07-.14.13-.22.2ZM73.42,103.97c-.15.29-.31.57-.47.86-.13.23-.27.44-.44.64-.06.07-.13.14-.19.2.07-.07.13-.13.19-.2.17-.2.31-.41.44-.64.16-.29.32-.57.47-.86.1-.2.2-.39.3-.58-.1.19-.2.39-.3.58ZM73.34,103.93c-.15.29-.31.57-.47.86-.13.23-.27.44-.43.62-.14.16-.29.31-.46.44-.43.33-1.03.62-1.52.74-.3.07-.59.1-.89.1-.16,0-.32-.01-.47-.03-.42-.06-.82-.18-1.17-.36.37-.52.73-1.04,1.05-1.53.18-.27.35-.55.52-.82l.25-.41.25-.42c.22-.38.5-.71.82-1h0s.11-.08.11-.08c.18-.15.38-.29.6-.4.21-.12.44-.21.67-.28.1-.03.2-.05.31-.08.1-.02.2-.04.3-.05.15-.02.3-.03.46-.03.05,0,.11,0,.16,0,.4.02.78.09,1.14.21-.23.52-.5,1.09-.78,1.65-.14.29-.29.58-.44.87ZM73.87,104.84h0s.05.02.08.03c-.03,0-.05-.02-.08-.03ZM77.32,104.46c-.22.14-.46.26-.71.36.25-.1.49-.22.71-.36.08-.05.15-.11.23-.17-.08.06-.15.12-.23.17ZM78.21,103.68s-.09.09-.13.14c.04-.05.09-.09.13-.14.04-.05.08-.11.11-.16-.04.05-.07.11-.11.16ZM79.05,101.73l-.03.08c-.1.28-.21.56-.32.84-.09.24-.21.46-.35.67-.07.11-.14.21-.22.31-.05.06-.1.12-.16.18h0s-.1.09-.1.09c-.19.19-.4.35-.61.5-.22.14-.46.26-.72.36-.43.16-.89.25-1.34.25-.41,0-.82-.07-1.21-.2.32-.6.59-1.12.84-1.66.14-.29.28-.59.41-.88.13-.3.26-.59.39-.89.19-.44.43-.82.7-1.12.09-.1.26-.25.34-.33.09-.08.18-.16.28-.23.19-.14.39-.25.63-.36.49-.22,1.01-.34,1.55-.34.26,0,.53.03.8.08-.09.3-.18.59-.25.82-.1.3-.2.61-.3.92-.11.3-.22.61-.33.91ZM79.47,100.84c.1-.31.21-.62.3-.92.1-.3.19-.61.28-.92-.09.31-.18.61-.28.92-.1.31-.2.61-.3.92ZM83.07,101.74c-.09.08-.18.15-.28.22.1-.07.19-.14.28-.22.19-.17.37-.35.52-.55-.16.2-.33.38-.52.55ZM83.62,101.15h0s0,0,0,0h0ZM84.03,100.5c-.04.09-.09.17-.14.26.05-.08.1-.17.14-.26.09-.19.16-.39.22-.6-.06.21-.13.41-.22.6ZM84.72,97.86c-.1.5-.21,1-.33,1.5.12-.5.23-.99.33-1.5.04-.21.08-.42.12-.63-.04.21-.08.42-.12.63ZM84.82,96.9c-.06.32-.12.63-.18.95-.13.68-.29,1.35-.43,1.9-.06.24-.14.48-.25.71-.09.19-.19.36-.31.53h0s-.08.1-.08.1c-.15.19-.33.38-.54.57-.22.19-.44.34-.66.46-.43.23-.86.37-1.3.42-.17.02-.34.03-.51.03-.05,0-.1,0-.16,0-.18,0-.37-.03-.56-.07.42-1.11.82-2.33,1.18-3.61.13-.47.32-.89.58-1.25.27-.38.67-.77,1.08-1.03.16-.1.34-.19.56-.28.19-.08.39-.14.59-.19.3-.06.6-.1.88-.1.09,0,.18,0,.27,0-.05.28-.09.56-.14.85ZM86.54,99.44s0,0,0,0c0,0,0,0,0,0,.22-.06.44-.14.65-.24-.21.1-.43.18-.65.24ZM88.41,98.28c-.09.1-.19.2-.29.29.1-.09.2-.19.29-.29.09-.1.18-.21.25-.32-.08.11-.16.22-.25.32ZM89.52,93.1v.15s-.01.12-.01.12c-.01.28-.03.57-.05.85-.05.6-.1,1.28-.18,1.94-.06.47-.19.92-.4,1.31h0s-.07.11-.07.11c-.15.25-.3.46-.46.64-.18.2-.38.38-.6.54-.36.26-.77.46-1.23.59-.32.08-.65.13-.97.13-.08,0-.17,0-.25,0,.3-1.33.53-2.55.69-3.73.03-.25.09-.49.16-.71.06-.19.13-.37.21-.53h0s.07-.12.07-.12c.24-.45.55-.83.91-1.12.32-.27.68-.47,1.07-.62.34-.13.72-.21,1.13-.24,0,.23-.02.47-.03.7ZM89.6,93.26c0,.17-.02.34-.03.51,0-.17.02-.34.03-.51,0-.11,0-.22.01-.33,0,.11,0,.22-.01.33ZM88.47,27.52l1.33-.6,5.15-3.98.92-1.14,2.29,2.96-3.69,6.78,4.43-3.5.93-1.13,1.67,2.16-1.33.61-6.27,4.85-2.09-2.71,3.68-6.75-4.41,3.48-.93,1.13-1.67-2.16ZM93.82,89.48c-.01-.15-.02-.3-.03-.45,0-.1-.02-.19-.03-.29,0,.1.02.19.03.29.01.15.02.3.03.45ZM93.24,88.18c-.06.02-.12.03-.17.05-.2.07-.4.15-.59.25-.07.04-.14.08-.2.12.07-.04.13-.08.2-.12.19-.1.39-.18.59-.25.06-.02.12-.03.17-.05ZM90.45,91.57c-.01.12-.02.25-.02.38-.01.63-.02,1.29-.06,1.93.04-.64.05-1.3.06-1.93,0-.13,0-.25.02-.38ZM90.22,95.83h0c.03-.33.06-.65.09-.98-.03.33-.06.65-.09.98ZM90.9,95.75c-.07.01-.14.02-.21.03.07,0,.14-.02.21-.03.16-.03.31-.08.46-.14-.15.06-.31.1-.46.14ZM92.11,95.15c-.18.12-.39.22-.6.31-.23.09-.44.16-.64.2-.18.04-.37.06-.56.07.03-.29.05-.58.08-.87.02-.33.04-.65.06-.98.04-.67.05-1.37.06-1.94,0-.47.07-.9.21-1.28h.01s.05-.13.05-.13c.08-.23.19-.45.31-.65.06-.1.13-.2.21-.3.07-.1.15-.19.23-.28.14-.15.3-.29.46-.42.17-.13.34-.24.52-.33.16-.09.35-.17.57-.24.17-.06.34-.1.52-.14.03.28.06.57.08.86.02.32.05.64.07.96.05.67.06,1.35.08,1.95,0,.46-.07.91-.23,1.35h0s-.05.12-.05.12c-.11.24-.23.48-.38.69-.08.12-.16.22-.24.32-.09.1-.18.2-.28.29-.17.16-.35.3-.54.43ZM93.25,94.16c-.08.11-.16.22-.25.33-.05.05-.1.1-.14.15.05-.05.1-.1.14-.15.09-.11.17-.22.25-.33.15-.23.28-.46.39-.71h0c-.11.24-.24.48-.39.71ZM93.8,93.03c.1-.35.14-.71.14-1.08-.01-.49-.03-.97-.05-1.44.02.48.04.96.05,1.44,0,.36-.04.73-.14,1.08ZM97.82,88.7h0c-.07.25-.17.5-.29.75s-.27.47-.45.69c-.31.37-.67.67-1.06.9-.4.23-.83.39-1.28.46,0-.33-.03-.66-.04-.98,0-.16-.02-.33-.03-.49,0-.16-.02-.32-.03-.49-.05-.65-.11-1.29-.19-1.92-.06-.5-.04-1,.07-1.47h0c.05-.24.14-.47.24-.7.1-.23.22-.44.37-.65.25-.35.55-.65.9-.89.34-.25.73-.44,1.15-.56.29,1.24.54,2.51.73,3.81.04.26.05.52.04.78-.01.26-.06.51-.12.76ZM101.35,83.44h-.01c-.08.52-.25,1.05-.55,1.52-.13.2-.27.39-.42.57-.16.17-.33.33-.51.47-.18.14-.37.26-.58.37-.1.05-.21.1-.31.14s-.21.08-.32.11c-.05-.33-.11-.65-.17-.97-.06-.32-.13-.64-.19-.96-.13-.63-.28-1.26-.44-1.88-.06-.24-.1-.49-.13-.74-.02-.23-.02-.45,0-.67.03-.24.08-.55.15-.77.07-.24.17-.46.29-.69.2-.38.47-.71.77-1,.15-.14.32-.28.5-.39.18-.12.37-.23.57-.32.46,1.19.86,2.42,1.23,3.68.1.37.16.76.15,1.15,0,.13-.01.26-.03.39ZM104.14,77.76c0,.13,0,.27-.02.4-.02.13-.04.27-.07.4-.06.27-.14.53-.25.78-.05.11-.1.21-.16.32-.23.41-.53.77-.88,1.06-.26.22-.55.4-.87.54-.09-.31-.19-.63-.29-.94-.1-.31-.21-.62-.31-.92-.11-.31-.22-.61-.33-.91-.06-.15-.11-.3-.17-.45-.06-.15-.12-.3-.18-.45-.1-.24-.17-.47-.22-.71-.03-.12-.05-.24-.06-.36,0-.06-.01-.12-.02-.18-.01-.25,0-.67.05-.92.04-.24.1-.49.19-.72.31-.8.86-1.47,1.6-1.94.3.56.6,1.13.88,1.71.14.29.28.58.42.88.13.3.27.59.4.9.05.12.1.24.14.36.12.37.18.76.18,1.14h-.01ZM106.2,72.57c-.02.27-.07.54-.15.81-.03.11-.07.23-.12.34-.05.11-.1.22-.15.32-.11.21-.23.4-.37.59-.28.37-.63.67-1.01.91-.28-.6-.55-1.19-.85-1.77-.15-.29-.3-.58-.45-.86-.15-.28-.31-.57-.47-.84-.12-.22-.23-.45-.31-.68-.09-.23-.15-.47-.19-.7h.01c-.08-.49-.08-.99.04-1.47.09-.42.26-.81.49-1.17.22-.36.51-.68.85-.96.37.51.74,1.04,1.1,1.58.18.27.35.54.53.82l.26.42.25.42c.26.44.45.94.51,1.45h-.01c.03.26.04.53.02.81ZM103.88,66.22s.04.06.07.1c.05.07.1.14.15.21-.05-.07-.1-.14-.15-.21-.02-.03-.04-.06-.07-.1ZM104.81,67.52c.09.12.17.24.26.37.07.11.14.22.22.32-.07-.11-.14-.22-.22-.32-.08-.12-.17-.24-.26-.37ZM105.81,69.01c.11.17.22.34.33.51h0c-.11-.17-.22-.34-.33-.51ZM107.02,68.49c-.1.18-.22.34-.34.5.13-.16.24-.32.34-.5.05-.08.09-.16.13-.25-.04.08-.08.17-.13.25ZM107.23,67.83c-.08.21-.17.42-.29.62-.12.21-.25.39-.38.55-.12.14-.26.28-.4.4-.16-.25-.31-.5-.47-.74-.18-.27-.36-.55-.55-.81-.37-.54-.76-1.08-1.13-1.57-.28-.38-.49-.77-.62-1.14h.01s-.04-.14-.04-.14c-.08-.27-.13-.5-.15-.71-.03-.26-.02-.51,0-.73.08-.8.4-1.54.95-2.16.18.19.37.39.58.63.21.24.43.48.64.72.41.47.82.96,1.25,1.5.29.37.51.79.64,1.21h0s.03.13.03.13c.14.56.17,1.09.08,1.58-.04.23-.1.46-.17.67ZM103.43,58.62c.06.21.13.42.22.62h-.01s0,0,0,0h.01c-.1-.2-.17-.41-.22-.62ZM105.14,61.14c-.12-.12-.23-.24-.35-.36.12.12.23.24.35.36.11.12.22.24.33.36-.11-.12-.22-.24-.33-.36ZM105.76,63.02c-.1-.11-.19-.23-.29-.34-.17-.2-.35-.39-.52-.58.17.19.35.39.52.58.1.11.19.23.29.34ZM106.41,63.8c.1.13.21.25.31.38.06.08.12.15.17.23-.05-.08-.11-.16-.17-.23-.1-.13-.21-.25-.31-.38ZM107.08,63.34h0c.16-.16.29-.34.41-.52-.12.19-.26.36-.41.52ZM107.49,65.95c-.02-.13-.05-.26-.08-.39h0c.03.13.06.26.08.39ZM107.49,67.17c-.02.12-.04.23-.07.35.03-.11.05-.23.07-.35.01-.07.02-.14.03-.21,0,.07-.02.14-.03.21ZM108.01,60.83c-.02.49-.11.93-.28,1.33-.16.39-.38.74-.65,1.04-.38-.47-.79-.94-1.21-1.41-.2-.23-.42-.46-.63-.69l-.03-.03c-.22-.24-.44-.47-.66-.7-.33-.33-.58-.68-.76-1.05h.01l-.06-.13c-.11-.22-.19-.45-.24-.68-.05-.22-.08-.46-.1-.72-.02-.39.04-.8.16-1.23.11-.35.28-.7.5-1.04.46.37.9.76,1.39,1.18.23.2.46.41.68.62l.03.03c.24.22.48.45.71.67.33.32.6.7.79,1.11h0l.05.13c.1.25.17.5.22.76.05.28.08.55.06.8ZM108.1,60.53c0,.1,0,.2,0,.31,0,.24-.04.47-.08.7.05-.23.07-.46.08-.7,0-.1,0-.2,0-.31Z"/>
      <path d="M64.11,56.23c-1,.29-.99,2.04-.99,2.04h.02c.3-.2.61-.36.94-.49l.18-.71.55.48c.25-.06.51-.11.78-.13,0,0-.45-1.49-1.47-1.2Z"/>
      <path d="M72.48,50.59c-1.23.45-.93.58-2.25,1.78-1.96,1.79-4.25,1.95-4.25,1.95,0,0,.62.7,1.19.64.49-.06,1.08-.21,1.08-.21,0,0,1.96,2.7,4.62.78,2.7-1.94.46-3.89.46-3.89l2.23-1.37s-1.5-.26-3.09.32ZM69.63,54.25l.23-.1c.35-.15.69-.35.99-.58.18.49.52.88,1,1.15-1.42,1.03-2.22-.47-2.22-.47ZM72.26,54.36c-.15-.52-.46-.94-.92-1.23.29-.29.53-.62.73-.99,0,0,1.16,1.11.19,2.22Z"/>
      <path d="M103.3,45.05c2.08-.64,2.52-1.42,2.07-2.88l-.37-1.2-5.39,1.67.36,1.16c.45,1.46,1.26,1.89,3.34,1.25Z"/>
      <polygon points="26.82 26.89 23.64 25.77 25.27 28.72 26.82 26.89"/>
      <path d="M37.55,15.84c.83-.47,1.14-1.04.72-1.78-.42-.75-.93-.91-1.77-.44l-1.42.8,1.2,2.14,1.26-.71Z"/>
      <polygon points="83.29 15.54 80.62 17.6 82.67 18.85 83.29 15.54"/>
    </g>
  </g>
</svg>