<?xml version="1.0" encoding="UTF-8"?>
<svg id="Layer_2" xmlns="http://www.w3.org/2000/svg" xmlns:xlink="http://www.w3.org/1999/xlink" viewBox="0 0 347.97 498.98">
  <defs>
    <style>
      .cls-1 {
        fill: none;
      }

      .cls-2 {
        fill: #ffce00;
      }

      .cls-3 {
        fill: #ccc;
      }

      .cls-4 {
        clip-path: url(#clippath-11);
      }

      .cls-5 {
        clip-path: url(#clippath-10);
      }

      .cls-6 {
        clip-path: url(#clippath-15);
      }

      .cls-7 {
        clip-path: url(#clippath-13);
      }

      .cls-8 {
        clip-path: url(#clippath-14);
      }

      .cls-9 {
        clip-path: url(#clippath-12);
      }

      .cls-10 {
        clip-path: url(#clippath-1);
      }

      .cls-11 {
        clip-path: url(#clippath-3);
      }

      .cls-12 {
        clip-path: url(#clippath-4);
      }

      .cls-13 {
        clip-path: url(#clippath-2);
      }

      .cls-14 {
        clip-path: url(#clippath-7);
      }

      .cls-15 {
        clip-path: url(#clippath-6);
      }

      .cls-16 {
        clip-path: url(#clippath-9);
      }

      .cls-17 {
        clip-path: url(#clippath-8);
      }

      .cls-18 {
        clip-path: url(#clippath-5);
      }

      .cls-19 {
        fill: #fff;
      }

      .cls-20 {
        opacity: .3;
      }

      .cls-21 {
        fill: red;
      }

      .cls-22 {
        clip-path: url(#clippath);
      }
    </style>
    <clipPath id="clippath">
      <rect class="cls-1" x=".59" width="347.38" height="498.98"/>
    </clipPath>
    <clipPath id="clippath-1">
      <rect class="cls-1" x=".59" width="347.38" height="498.98"/>
    </clipPath>
    <clipPath id="clippath-2">
      <rect class="cls-1" x=".59" y="0" width="347.38" height="498.98"/>
    </clipPath>
    <clipPath id="clippath-3">
      <path class="cls-1" d="M191.4,43.38c5.57,7.16,6.83,19.91-.67,28.73-8.1,10.12-3.52,21.59-16.57,22.8-13.05-1.21-8.47-12.68-16.57-22.8-7.5-8.82-6.24-21.57-.67-28.73,5.09-6.55,15.15-6.79,17.24-6.77,2.09-.02,12.15.22,17.24,6.77M168.49,20.45c-8.38.94-17.57,4.69-23.03,11.59-10.06,13.75-13.7,29.83-4.78,46.84,3.36,6.2,8.08,11.72,9.95,18.67,2.76,8.38,3.6,18.03,5.29,26.4v10.53h-80.86c-9.98-13.52-33.57-5.6-32.96,11.53-.61,17.12,22.99,25.05,32.96,11.53h80.86v215.51s-12.74,2.86-47.04-1.3c-6.8-.82-12.81-2.39-18.07-4.37-11.27-3.38-27.93-17.28-31.2-23.59l15.69-13.3c-15.94-8.5-40.83-25.71-54.05-44.2-1.93,14.99-1.84,32.97,1.14,46.78,2.16,10.01,9.2,24.54,12.33,31.25l12.47-12.55s14.38,29.75,50.13,50.27c4.38,2.52,10.2,6.4,13.43,7.93,23.41,12.19,51.53,40.17,63.41,56.47,11.88-16.3,40-44.28,63.41-56.47,3.23-1.54,9.05-5.42,13.43-7.93,35.75-20.52,50.13-50.27,50.13-50.27l12.47,12.55c3.13-6.71,10.17-21.24,12.33-31.25,2.97-13.81,3.07-31.79,1.14-46.78-13.22,18.49-38.11,35.7-54.05,44.2l15.69,13.3c-3.26,6.31-19.92,20.21-31.2,23.59-5.26,1.98-11.27,3.54-18.07,4.37-34.3,4.16-47.04,1.3-47.04,1.3v-215.51h80.86c9.97,13.52,33.57,5.6,32.96-11.53.62-17.13-22.99-25.05-32.96-11.53h-80.86v-10.53c1.69-8.37,2.53-18.02,5.29-26.4,1.87-6.95,6.59-12.46,9.95-18.67,8.92-17,5.28-33.09-4.78-46.84-5.46-6.9-14.65-10.64-23.03-11.59-1.7-.27-3.61-.41-5.67-.41-2.05,0-3.97.14-5.67.41"/>
    </clipPath>
    <clipPath id="clippath-4">
      <rect class="cls-1" x=".59" y="0" width="347.38" height="498.98"/>
    </clipPath>
    <clipPath id="clippath-5">
      <path class="cls-1" d="M210.24,82.35c-80.39.8-134.39,55.24-154.04,130.76-22.04,84.73,39.87,141.2,117.08,139.26,41.47-1.04,69.51-6.7,94.08-28.62.11-.08,35.29-24.26,28.88-59.2-6.42-35-47.49-37.43-47.49-37.43,3.03,3.89,6.96,7.58,10.33,11.58,5.42,7.79,10.39,18.81,7.45,30.83-1.41,5.75-3.67,10.54-6.42,14.54-6.02,6.57-10.9,11.05-16.4,14.14-4.71,2.42-9.16,3.79-12.37,4.55-4.47.98-9.65,1.59-15.98,2.02-70.85,4.79-105.48-62.58-99.89-126.2,4.77-54.35,50.82-77.78,98.91-79.65,23.05-.9,41.17.41,55.76,17.11,11.83,13.54,4.39,24.43-3.8,36.27-6.46,9.33-17.08,13.08-26.65,17.91-2.94,7.89-5.12,16.08-7.94,24.08,12.49-2.85,25.35-4.54,36.95-8.1,27.49-8.45,42.86-38.01,33.4-65.16-11.02-31.63-48.51-38.67-88.37-38.67-1.16,0-2.33,0-3.49.02"/>
    </clipPath>
    <clipPath id="clippath-6">
      <rect class="cls-1" x="125.38" y="94.05" width="146.05" height="32.27"/>
    </clipPath>
    <clipPath id="clippath-7">
      <rect class="cls-1" x="61.08" y="160.89" width="70" height="20.59"/>
    </clipPath>
    <clipPath id="clippath-8">
      <rect class="cls-1" x="20.44" y="215.54" width="258.6" height="173.32"/>
    </clipPath>
    <clipPath id="clippath-9">
      <rect class="cls-1" x="234.83" y="219.44" width="41.69" height="78.75"/>
    </clipPath>
    <clipPath id="clippath-10">
      <rect class="cls-1" x="261.38" y="137.62" width="40.1" height="45.28"/>
    </clipPath>
    <clipPath id="clippath-11">
      <rect class="cls-1" x=".59" y="0" width="347.38" height="498.98"/>
    </clipPath>
    <clipPath id="clippath-12">
      <rect class="cls-1" x="212.05" y="212.62" width="28.8" height="11.74"/>
    </clipPath>
    <clipPath id="clippath-13">
      <rect class="cls-1" x="234.11" y="179.18" width="49.92" height="32.85"/>
    </clipPath>
    <clipPath id="clippath-14">
      <path class="cls-1" d="M51.69,124.67l8.81,45.09,3.96.78c5.38,1.06,10.91-.77,14.6-4.83l76.87,3.46v-44.51H51.69Z"/>
    </clipPath>
    <clipPath id="clippath-15">
      <path class="cls-1" d="M52.64,129.54l6.79,34.75c5.79.52,11.75-1.49,15.63-6.76h80.86v-23.05h-80.86c-3.49-4.74-8.66-6.84-13.87-6.84-2.93,0-5.88.67-8.55,1.91"/>
    </clipPath>
  </defs>
  <g id="PAGE3">
    <g id="WLL_x5F_MARYLAND_x5F_ICON">
      <g class="cls-22">
        <g class="cls-10">
          <g class="cls-13">
            <path class="cls-2" d="M346.51,283.24l-6.34-49.19-22.13,30.97c-.17-1.46-.39-2.91-.65-4.36-1.97-10.73-6.32-20.28-12.93-28.41-5.85-7.19-13.37-13.12-22.38-17.65,3-1.93,5.63-4.17,7.88-6.71l3.52-4.72c.06-.09.12-.19.17-.28,1.39-2.29,2.49-4.71,3.29-7.24,1-.74,1.97-1.5,2.93-2.28l6.42-5.96c4.93-5.16,9.07-11.01,12.32-17.42,1.18-2.33,2.25-4.76,3.18-7.22,2.55-4.93,3.94-10.44,4.04-16.04,1.46-11.08.31-22.11-3.41-32.79-3.64-10.44-9.49-19.53-17.39-27.02-7.72-7.31-17.46-13.14-28.94-17.31-12.16-4.42-26.58-7.13-43.82-8.21.15-3.43,0-6.87-.45-10.3-1.44-10.74-5.84-21.21-13.09-31.11l-.22-.3-.23-.29c-8.08-10.22-21.09-17.07-35.71-18.81C179.94.2,177.16,0,174.28,0c-2.88,0-5.66.2-8.26.58-14.62,1.74-27.63,8.59-35.71,18.81l-.23.29-.22.3c-7.25,9.91-11.66,20.38-13.09,31.12-1.52,11.38.3,22.64,5.41,33.52-9.22,5.47-17.94,11.85-26.02,19.04-3.78,3.37-7.49,6.98-11.06,10.78h-2.23c-6.18-4.44-13.68-6.84-21.54-6.84-10.7,0-21.05,4.36-28.38,11.96-6.75,7-10.37,16.18-10.2,25.89-.17,9.71,3.45,18.89,10.2,25.89,3.34,3.46,7.28,6.25,11.59,8.26-3.56,9.04-6.62,18.44-9.13,28.1-5.32,20.43-6.57,40.23-3.73,58.93l-23.28-32.58-6.34,49.19c-2.36,18.33-1.83,38.29,1.41,53.38,2.45,11.37,9,25.33,12.91,33.66,0,0,.57,1.22.81,1.72l11.81,25.31,15.49-15.59c8.49,10.38,22.73,24.88,43.27,36.67,1.44.83,3.25,1.95,5.01,3.03l.04.02c3.34,2.06,6.5,4.01,9.32,5.39,20.45,10.74,46.32,36.68,56.43,50.54l15.75,21.61,15.75-21.61c10.1-13.86,35.98-39.8,56.42-50.54,2.82-1.38,5.98-3.33,9.35-5.4l.05-.03c1.74-1.08,3.55-2.19,4.98-3.01,19.71-11.31,33.75-24.94,43.28-36.65l15.47,15.58,11.8-25.31c.2-.44.81-1.73.81-1.73,3.91-8.33,10.46-22.28,12.9-33.65,3.25-15.09,3.78-35.05,1.41-53.38"/>
            <path d="M335.85,284.62l-2.85-22.06-12.93,18.1c-4.78,6.69-11.49,13.45-18.93,19.72,6.03-12.27,7.99-25.11,5.66-37.78-3.29-17.94-14.46-31.67-32.31-39.7-10.59-4.77-20.35-6.08-23.85-6.42l5.99-4.45c.7-.11,1.42-.22,2.16-.34,1.19-.19,2.35-.41,3.47-.66,9.25-2.02,16.12-5.79,20.46-11.24h0c.63-.79,1.21-1.62,1.74-2.48,1.71-2.81,2.58-5.61,2.98-8.15,2.27-1.48,4.45-3.11,6.53-4.89.37-.31.73-.63,1.09-.95l.59-.54.39-.37c5.31-4.96,9.66-10.77,12.97-17.29,1.12-2.22,2.1-4.49,2.94-6.78,2.06-3.76,3.14-7.99,3.12-12.4,1.34-9.48.42-19.19-2.82-28.49-6.16-17.69-19.57-30.4-39.85-37.76-13.78-5-31.04-7.65-52.62-8.06,1.76-6.31,2.22-12.7,1.36-19.12-1.2-8.94-4.94-17.75-11.12-26.2l-.1-.13-.1-.13c-6.37-8.05-16.83-13.45-28.72-14.83-2.12-.32-4.42-.49-6.84-.49-2.41,0-4.71.17-6.83.49-11.89,1.38-22.35,6.78-28.72,14.83l-.1.13-.1.13c-6.18,8.45-9.92,17.26-11.12,26.2-1.35,10.09.55,20.14,5.65,29.86l.06.11c1.21,2.24,2.52,4.3,3.79,6.3-12.08,6.09-23.34,13.75-33.61,22.9-4.72,4.2-9.21,8.71-13.48,13.5h-10.76c-4.72-4.39-10.97-6.84-17.74-6.84-7.8,0-15.33,3.16-20.65,8.68-4.81,4.98-7.35,11.52-7.18,18.43-.17,6.91,2.38,13.45,7.19,18.43,4.85,5.02,11.53,8.09,18.57,8.6-5.45,11.86-9.96,24.55-13.44,37.93-5.28,20.3-6.26,39.86-2.91,58.13,2.76,15.04,8.37,28.89,16.71,41.26-12.03-8.55-23.81-18.92-31.11-29.14l-12.93-18.1-2.84,22.06c-2.22,17.18-1.74,35.78,1.26,49.74,2.19,10.18,8.41,23.44,12.13,31.36.29.63.57,1.21.82,1.74l5.29,11.35,13.4-13.5c1.8,2.65,3.98,5.65,6.54,8.82,7.83,9.71,21.28,23.65,40.93,34.92,1.59.91,3.49,2.08,5.32,3.21,3.17,1.96,6.17,3.81,8.55,4.96,22.19,11.6,49.24,38.68,60.26,53.8l7.06,9.69,7.06-9.69c11.02-15.12,38.07-42.2,60.26-53.8,2.37-1.15,5.37-3,8.55-4.96,1.83-1.13,3.73-2.3,5.32-3.21,24.7-14.17,39.76-32.35,47.47-43.75l13.4,13.5,5.29-11.35c.25-.53.52-1.12.82-1.75,3.72-7.92,9.94-21.18,12.13-31.36,3.01-13.96,3.48-32.56,1.26-49.74M276.58,344.31c-1.52,1.45-3.42,3.12-5.74,4.94-5.81,4.55-11.69,8-15.73,9.21l-.28.09-.28.1c-5.02,1.89-10.42,3.19-16.05,3.87-12.01,1.46-22.6,2.19-31.47,2.19-2.24,0-4.16-.05-5.78-.12v-3.14c25.75-2.74,47.31-9.27,66.83-24.34l8.5,7.2ZM126.19,179.5c.42-4.82,1.22-9.42,2.37-13.79h18.75v97.84c-7.12-9.59-12.75-21.19-16.46-34.03-4.54-15.73-6.15-33.02-4.66-50.02M262.06,123.1c.64.73,1.19,1.42,1.66,2.09h-62.46v-.94c.52-2.68.96-5.45,1.39-8.14.3-1.86.6-3.73.93-5.59,3.66-.42,7.4-.71,11.23-.86,3.56-.14,6.47-.2,9.15-.2,19.08,0,29.41,3.7,38.1,13.65M250.55,245.24c5.3,7.78,7.17,15.08,5.54,21.72-.94,3.85-2.43,7.35-4.44,10.41-5.41,5.85-9.24,9.18-13.03,11.36-3.75,1.9-7.3,2.97-9.66,3.54-3.7.8-8.25,1.37-14.31,1.78-2.13.14-4.26.22-6.33.22-2.39,0-4.74-.1-7.06-.29v-50.26c3.88-3.38,6.91-7.01,9.24-10.43l2.65-.28c4.59-.48,8.32-1.05,11.43-1.73,4.7-1.03,8.04-2.33,10.81-3.84l4.89,6.27c2.01,2.58,4.22,4.94,6.36,7.22,1.39,1.49,2.71,2.89,3.92,4.3M109.36,350.82c11.71,5.23,24.57,8.87,37.95,10.77v2.99c-1.62.07-3.54.12-5.78.12-8.87,0-19.46-.74-31.47-2.19-5.63-.68-11.02-1.98-16.05-3.87l-.28-.1-.28-.09c-4.03-1.21-9.91-4.65-15.73-9.21-2.32-1.82-4.23-3.49-5.74-4.94l11.05-9.37c7.92,6.26,16.77,11.62,26.32,15.88"/>
            <path d="M167.22,471.04c-11.02-15.12-38.07-42.2-60.26-53.81-2.37-1.15-5.37-3-8.55-4.96-1.83-1.13-3.73-2.3-5.32-3.21-19.65-11.28-33.1-25.22-40.93-34.93-2.56-3.18-4.74-6.17-6.54-8.82l-13.4,13.5-5.29-11.35c-.25-.53-.52-1.12-.82-1.74-3.72-7.92-9.94-21.18-12.13-31.36-3.01-13.96-3.48-32.56-1.26-49.74l2.84-22.06,12.93,18.1c11.44,16.01,33.88,32.42,51.05,41.57l11.36,6.06-18.91,16.03c1.52,1.45,3.42,3.12,5.74,4.94,5.81,4.55,11.69,8,15.73,9.21l.28.09.28.1c5.02,1.89,10.42,3.19,16.05,3.87,12.01,1.46,22.6,2.19,31.47,2.19,2.24,0,4.16-.05,5.78-.12v-198.87h-68.25c-4.72,4.39-10.97,6.84-17.74,6.84-7.8,0-15.33-3.16-20.65-8.68-4.81-4.98-7.35-11.52-7.19-18.43-.17-6.91,2.38-13.45,7.18-18.43,5.32-5.51,12.85-8.68,20.65-8.68,6.76,0,13.02,2.45,17.74,6.84h68.25v-.94c-.52-2.68-.96-5.45-1.39-8.14-.9-5.63-1.83-11.45-3.46-16.38l-.08-.23-.06-.23c-.92-3.42-3.07-6.81-5.35-10.39-1.28-2.02-2.61-4.11-3.84-6.38l-.06-.11c-5.1-9.72-7-19.77-5.65-29.86,1.2-8.94,4.94-17.75,11.12-26.2l.1-.13.1-.13c6.37-8.05,16.83-13.45,28.72-14.83,2.12-.32,4.42-.49,6.83-.49,2.42,0,4.71.17,6.84.49,11.89,1.38,22.35,6.78,28.72,14.83l.1.13.1.13c6.18,8.45,9.92,17.26,11.12,26.2,1.35,10.09-.55,20.14-5.65,29.86l-.06.11c-1.23,2.27-2.56,4.36-3.84,6.38-2.28,3.59-4.43,6.97-5.35,10.39l-.06.23-.08.23c-1.63,4.93-2.56,10.75-3.46,16.38-.43,2.69-.87,5.46-1.39,8.14v.94h68.25c4.72-4.39,10.97-6.84,17.74-6.84,7.8,0,15.33,3.16,20.65,8.68,4.81,4.98,7.35,11.52,7.18,18.43.17,6.91-2.38,13.45-7.18,18.43-5.32,5.52-12.85,8.68-20.65,8.68-6.76,0-13.02-2.45-17.74-6.84h-68.25v198.87c1.62.07,3.54.12,5.78.12,8.87,0,19.46-.74,31.47-2.19,5.63-.68,11.02-1.98,16.05-3.87l.28-.1.28-.09c4.03-1.21,9.91-4.65,15.73-9.21,2.32-1.82,4.23-3.49,5.74-4.94l-18.91-16.03,11.36-6.06c17.16-9.15,39.6-25.55,51.05-41.57l12.93-18.1,2.85,22.06c2.22,17.18,1.74,35.78-1.26,49.74-2.19,10.18-8.41,23.44-12.13,31.36-.29.63-.57,1.21-.82,1.75l-5.29,11.35-13.4-13.5c-7.71,11.4-22.77,29.58-47.47,43.75-1.59.91-3.49,2.08-5.32,3.21-3.17,1.96-6.17,3.81-8.55,4.96-22.19,11.6-49.24,38.68-60.26,53.81l-7.06,9.69-7.06-9.69ZM173.22,85.26c.07.04.37.18,1.06.3.69-.12.99-.26,1.06-.3.48-.55,1.2-2.93,1.67-4.51,1.19-3.97,2.82-9.4,7.02-14.64l.08-.1.08-.1c4.84-5.69,3.36-13.94.43-17.71-1.81-2.33-6.52-3.39-10.12-3.39h-.22s-.22,0-.22,0c-3.6,0-8.31,1.06-10.12,3.39-2.93,3.77-4.41,12.02.43,17.71l.08.1.08.1c4.2,5.25,5.83,10.68,7.02,14.64.47,1.58,1.19,3.96,1.67,4.51"/>
            <path class="cls-19" d="M327.19,285.74c-13.22,18.49-38.11,35.7-54.05,44.2l15.69,13.29c-3.26,6.31-19.92,20.21-31.2,23.59-5.26,1.98-11.27,3.54-18.07,4.37-34.3,4.16-47.04,1.3-47.04,1.3v-215.51h80.86c9.97,13.52,33.57,5.6,32.96-11.52.61-17.13-22.99-25.05-32.96-11.53h-80.86v-10.53c1.69-8.37,2.53-18.02,5.29-26.4,1.87-6.95,6.59-12.46,9.95-18.67,8.92-17,5.28-33.09-4.78-46.84-5.46-6.9-14.65-10.64-23.03-11.59-1.7-.27-3.61-.41-5.67-.41-2.05,0-3.97.14-5.67.41-8.38.94-17.57,4.69-23.03,11.59-10.06,13.75-13.7,29.83-4.78,46.84,3.36,6.2,8.08,11.72,9.95,18.67,2.76,8.38,3.6,18.03,5.29,26.4v10.53h-80.86c-9.98-13.52-33.57-5.6-32.96,11.53-.61,17.12,22.99,25.05,32.96,11.52h80.86v215.51s-12.74,2.86-47.04-1.3c-6.8-.82-12.81-2.39-18.07-4.37-11.27-3.38-27.93-17.28-31.2-23.59l15.69-13.29c-15.94-8.5-40.83-25.71-54.05-44.2-1.93,14.99-1.84,32.97,1.14,46.78,2.16,10.01,9.2,24.54,12.33,31.25l12.47-12.55s14.38,29.75,50.13,50.27c4.38,2.52,10.2,6.4,13.43,7.93,23.41,12.19,51.53,40.17,63.41,56.47,11.88-16.3,40-44.28,63.41-56.47,3.23-1.54,9.05-5.42,13.43-7.93,35.75-20.52,50.13-50.27,50.13-50.27l12.47,12.55c3.13-6.71,10.17-21.24,12.33-31.25,2.97-13.81,3.07-31.79,1.14-46.78M174.28,94.37c-13.05-1.21-8.47-12.68-16.57-22.8-7.5-8.82-6.24-21.57-.67-28.73,5.09-6.55,15.15-6.79,17.24-6.77,2.09-.02,12.15.22,17.24,6.77,5.57,7.16,6.83,19.91-.67,28.73-8.1,10.12-3.52,21.59-16.57,22.8"/>
            <path class="cls-19" d="M327.19,285.74c-13.22,18.49-38.11,35.7-54.05,44.2l15.69,13.29c-3.26,6.31-19.92,20.21-31.2,23.59-5.26,1.98-11.27,3.54-18.07,4.37-34.3,4.16-47.04,1.3-47.04,1.3v-215.51h80.86c9.97,13.52,33.57,5.6,32.96-11.52.61-17.13-22.99-25.05-32.96-11.53h-80.86v-10.53c1.69-8.37,2.53-18.02,5.29-26.4,1.87-6.95,6.59-12.46,9.95-18.67,8.92-17,5.28-33.09-4.78-46.84-5.46-6.9-14.65-10.64-23.03-11.59-1.7-.27-3.61-.41-5.67-.41-2.05,0-3.97.14-5.67.41-8.38.94-17.57,4.69-23.03,11.59-10.06,13.75-13.7,29.83-4.78,46.84,3.36,6.2,8.08,11.72,9.95,18.67,2.76,8.38,3.6,18.03,5.29,26.4v10.53h-80.86c-9.98-13.52-33.57-5.6-32.96,11.53-.61,17.12,22.99,25.05,32.96,11.52h80.86v215.51s-12.74,2.86-47.04-1.3c-6.8-.82-12.81-2.39-18.07-4.37-11.27-3.38-27.93-17.28-31.2-23.59l15.69-13.29c-15.94-8.5-40.83-25.71-54.05-44.2-1.93,14.99-1.84,32.97,1.14,46.78,2.16,10.01,9.2,24.54,12.33,31.25l12.47-12.55s14.38,29.75,50.13,50.27c4.38,2.52,10.2,6.4,13.43,7.93,23.41,12.19,51.53,40.17,63.41,56.47,11.88-16.3,40-44.28,63.41-56.47,3.23-1.54,9.05-5.42,13.43-7.93,35.75-20.52,50.13-50.27,50.13-50.27l12.47,12.55c3.13-6.71,10.17-21.24,12.33-31.25,2.97-13.81,3.07-31.79,1.14-46.78M174.28,94.37c-13.05-1.21-8.47-12.68-16.57-22.8-7.5-8.82-6.24-21.57-.67-28.73,5.09-6.55,15.15-6.79,17.24-6.77,2.09-.02,12.15.22,17.24,6.77,5.57,7.16,6.83,19.91-.67,28.73-8.1,10.12-3.52,21.59-16.57,22.8"/>
          </g>
          <g class="cls-11">
            <path class="cls-3" d="M174.16,389.75l-25.96-23.62.88-203.27-105.5,10.59-7.5-21.19,3.01-22.54,20.83,16.58h107.49l-14.45-15.67-25.94-51.87,10.37-61.14,14.97,18.98s-10.65,10.34-7.88,27.31c2.03,12.43,6.82,12.13,9.91,20.62,3.1,8.48,4.53,13.66,10.59,20.52,6.06,6.87,9.19,9.7,9.19,9.7v274.99Z"/>
            <path class="cls-3" d="M158.62,43.82l-7.12-6.47s10.57-13.88,34.98-7.1c24.41,6.78,17.3,37.04,17.04,37.89-2.46,7.8-6.19,9.83-8.48,15.43-2.29,5.59-6.36,15.51-6.36,15.51,0,0-2.81,5.17-5,7.38-1.82,1.84-9.52,8.3-9.52,8.3v-24.92l16.9-39.66-26.27-6.1-6.16-.25Z"/>
            <polygon class="cls-3" points="180.95 146.44 201.28 165.8 271.29 178.38 294.84 169.67 280.33 146.44 180.95 146.44"/>
            <path class="cls-3" d="M174.16,472.73l106.13-46.78,23.39-44.11,10.66-13.91s-1.57-17.63-3.07-21.88c-1.5-4.26-2.5-9.76-2.5-9.76h-43.81l7.76,14.27,24.28-8.01s-3.25,16.27-25.54,31.8c-22.28,15.52-97.95,36.72-97.95,36.72,0,0-69.3-16.9-91.83-32.96-20.81-14.84-32.05-35.05-32.05-35.05l-9.26,31.05,40.56,76.11,93.23,22.54Z"/>
            <path class="cls-3" d="M34.25,369.15l5.65-34.25s-10.62-14.57-14.97-28.6c-4.35-14.03-4.55-32.59-4.55-32.59L0,324.25l13.64,44.9h20.62Z"/>
          </g>
          <g class="cls-12">
            <path d="M169.44,363.16c-21.24,0-42.02-4.27-60.08-12.34-18.32-8.19-34.09-20.39-45.61-35.28-10.65-13.78-17.67-29.59-20.86-47.01-3.35-18.27-2.37-37.83,2.91-58.13,10.53-40.47,30.41-74.61,57.5-98.72,14.22-12.66,30.32-22.49,47.87-29.22,18.25-7,38.08-10.65,58.96-10.86,1.2-.01,2.4-.02,3.6-.02,24.43,0,43.63,2.66,58.67,8.12,20.28,7.37,33.69,20.07,39.85,37.76,5.49,15.76,4.34,32.69-3.24,47.67-3.72,7.35-8.78,13.8-15.04,19.15-6.48,5.55-13.92,9.63-22.11,12.15-7.89,2.43-16.19,4.02-24.21,5.56-4.47.86-9.08,1.74-13.5,2.75l-19.01,4.34,6.48-18.39c1.2-3.42,2.28-6.86,3.42-10.5,1.41-4.5,2.87-9.15,4.58-13.76l1.47-3.95,3.76-1.9c1.75-.88,3.51-1.72,5.21-2.53,7.36-3.5,13.72-6.53,17.44-11.9,9.39-13.57,10.03-16.8,4.55-23.08-8.69-9.95-19.02-13.65-38.1-13.65-2.69,0-5.59.06-9.15.2-23.77.93-44.48,7.21-59.89,18.17-17.12,12.18-26.79,29.57-28.73,51.69-1.49,16.99.12,34.29,4.66,50.02,4.62,16,12.21,30.08,21.97,40.73,6.96,7.6,15.01,13.49,23.93,17.52,9.55,4.31,20.18,6.5,31.58,6.5,2.07,0,4.2-.07,6.33-.22,6.06-.41,10.61-.97,14.31-1.78,2.36-.57,5.91-1.63,9.66-3.54,3.8-2.17,7.62-5.5,13.03-11.36,2-3.06,3.5-6.56,4.44-10.41,1.62-6.64-.24-13.95-5.54-21.72-1.21-1.4-2.53-2.81-3.92-4.3-2.14-2.28-4.35-4.65-6.36-7.22l-14.6-18.74,23.71,1.4c1.25.07,12.6.89,25.11,6.52,17.85,8.03,29.02,21.76,32.31,39.7,3.18,17.36-1.67,35.04-14.03,51.14-7.86,10.24-16.29,16.67-18.73,18.43-27.56,24.34-58.92,29.9-100.5,30.94-1.37.03-2.75.05-4.11.05"/>
            <path class="cls-21" d="M248.75,227.11c3.03,3.89,6.96,7.58,10.33,11.58,5.42,7.79,10.39,18.81,7.45,30.83-1.41,5.75-3.67,10.54-6.42,14.54-6.02,6.57-10.9,11.05-16.4,14.14-4.71,2.42-9.16,3.79-12.37,4.55-4.47.98-9.65,1.59-15.98,2.02-70.85,4.79-105.48-62.58-99.89-126.2,4.77-54.35,50.82-77.77,98.91-79.65,23.05-.9,41.17.41,55.76,17.11,11.83,13.54,4.39,24.43-3.8,36.27-6.46,9.33-17.08,13.08-26.65,17.91-2.94,7.89-5.12,16.08-7.94,24.08,12.49-2.85,25.35-4.54,36.95-8.1,27.49-8.45,42.86-38.01,33.4-65.16-11.34-32.55-50.72-39.06-91.87-38.65-80.39.8-134.39,55.24-154.04,130.76-22.05,84.73,39.87,141.2,117.08,139.26,41.47-1.04,69.51-6.7,94.08-28.62.11-.08,35.29-24.26,28.88-59.2-6.42-35-47.49-37.43-47.49-37.43"/>
          </g>
          <g class="cls-18">
            <g class="cls-20">
              <g class="cls-15">
                <path d="M125.37,125.24s21.11-24.08,75.18-30.48c49.98-5.92,70.87,27.31,70.87,27.31l-84.84,4.26-61.21-1.09Z"/>
              </g>
            </g>
            <g class="cls-20">
              <g class="cls-14">
                <path d="M61.08,181.27s9.27.75,14.36-.58c5.02-1.31,7.85-6.46,7.85-6.46l45.35.62,2.44-13.96h-52.8l-17.2,20.38Z"/>
              </g>
            </g>
            <g class="cls-20">
              <g class="cls-17">
                <path d="M48.21,215.54s10.23,100.23,85.17,121.35c79.56,22.42,145.65-20.52,145.65-20.52l-53.39,67.28s-112.19,5.21-116.21,5.21-89-52.33-89-52.33l6.85-120.95,20.92-.04Z"/>
              </g>
            </g>
            <g class="cls-20">
              <g class="cls-16">
                <path d="M236.21,219.44c-7.25,2.8,15.66,4.23,30.13,19.16,8.36,8.63,9.68,16.38,10.06,20.64,2.44,27.07-32.68,38.95-32.68,38.95l11.02-37.55-18.52-41.2Z"/>
              </g>
            </g>
            <g class="cls-20">
              <g class="cls-5">
                <path d="M261.38,137.62s16.48.27,26.28,5.94c17.93,10.37,13.27,25.78,13.27,25.78l-14.98,13.55-6.55-23.02-18.02-22.26Z"/>
              </g>
            </g>
          </g>
          <g class="cls-4">
            <path d="M224.58,231.28c-3.1.68-6.84,1.24-11.43,1.73l-14.29,1.51,9.52-28.2,7.82,1.12c3.49.5,8.82.06,14.61-1.2,1.41-.31,2.79-.65,4.11-1.03l50.02-14.17-40.16,29.81c-.84.62-1.61,1.22-2.36,1.79-4.64,3.56-8.64,6.64-17.84,8.65"/>
            <path class="cls-21" d="M214.86,216.02l-2.81,8.34c17.62-1.86,19.21-4.62,26.94-10.35l1.86-1.38-3.17.9c-6.63,1.88-15.93,3.48-22.81,2.5"/>
            <path d="M194.72,209.43l-1.42,5.33c-.13.29-.44.94-1.06,2.12-2.8,5.29-1.14,10.64-11.42,16.15-15.89,8.52-30.06,8.21-30.06,8.21l12.09,6.74-6.12,7.65s8.19,3.12,21.22.03c11.16-2.64,14.31-4.39,22.59-11.35,13.01-10.92,16.85-24.85,17.03-25.56l3.18-12.23-26.03,2.89Z"/>
            <path class="cls-21" d="M200.56,220.78c-3.58,6.77-8.86,12.14-15.73,15.75,0,0-1.46.79-1.96,1.03-3.19,1.54-12.95,5.75-12.95,5.75l1.12.03c6.5.15,16.56-4.87,18.39-5.78-7.66,7.96-17.67,12.72-17.67,12.72,0,0,10.89-.39,21.92-9.65,11.03-9.26,14.86-23.97,14.86-23.97l-6.36.71s-.19.7-1.62,3.42"/>
            <path d="M184.67,225.18c-.82-.59-5.07-3.83-8.18-9.14-4.71-8.03-4.43-16.72.79-24.46,6.96-10.32,15.87-17.19,20.14-20.13,1.63-3.23,4.19-7.32,7.51-9.56,3.13-2.11,6.29-3.77,6.42-3.84l1.6-.84c.04-.06.09-.11.13-.17,3.89-4.87,11.36-11.3,24.79-14.23,5.33-1.16,11.28-1.7,17.68-1.6,14.55.23,25.61,4.26,32.89,11.98,9.52,10.1,8.41,22.3,8.25,23.66l-.94,4.99-8.05,2.83c.13,3.44-.45,8.02-3.25,12.63-4.13,6.79-11.6,11.41-22.2,13.72-1.12.24-2.28.46-3.47.66-11.46,1.85-18.53,2.25-22.08,2.3-3.24,1.4-6.61,2.49-10.03,3.23-5.7,1.24-11.47,1.54-17.15.88-.48-.06-.99-.13-1.52-.2-.43-.06-1.01-.14-1.53-.2-5.51,5.64-11.64,8.27-12.37,8.57l-5.05,2.08-4.39-3.19Z"/>
            <path class="cls-21" d="M255.46,149.92c-34.96-.56-38.86,19.97-38.86,19.97l-.68-4.24s-2.79,1.46-5.53,3.3c-2.73,1.84-5.51,8.25-5.51,8.25,0,0-11.45,6.76-19.74,19.05-8.29,12.29,5.18,22.06,5.18,22.06,0,0,5.73-2.36,10.32-7.61,2.34-2.67,6.84-1.59,9.98-1.23,8.08.94,16.22-.56,23.49-3.98l.46-.21s6.57.44,22.59-2.15c26.53-4.29,20.77-21.55,20.77-21.55l-8.42-2.39,17.97-3.32s2.96-25.39-32-25.95"/>
            <path class="cls-21" d="M287.46,175.86l-17.97,3.32,8.42,2.39s5.76,17.26-20.77,21.55c-16.02,2.59-22.59,2.15-22.59,2.15l-.46.21c-7.27,3.42-15.41,4.92-23.49,3.98-3.14-.37-7.64-1.44-9.98,1.23-4.59,5.25-10.32,7.61-10.32,7.61,0,0-13.47-9.77-5.18-22.06,8.29-12.29,19.74-19.05,19.74-19.05,0,0,2.78-6.41,5.51-8.25,2.73-1.84,5.53-3.3,5.53-3.3l.68,4.24s3.9-20.53,38.86-19.97c34.96.56,32,25.95,32,25.95"/>
            <path class="cls-21" d="M240.85,212.62l-1.86,1.38c-7.73,5.74-9.32,8.49-26.93,10.35l2.81-8.34c6.88.98,16.18-.62,22.81-2.5l3.17-.9Z"/>
            <g class="cls-20">
              <g class="cls-9">
                <path d="M240.85,212.62l-1.86,1.38c-7.73,5.74-9.32,8.49-26.93,10.35l2.81-8.34c6.88.98,16.18-.62,22.81-2.5l3.17-.9Z"/>
              </g>
            </g>
            <path class="cls-21" d="M171.04,243.34l-1.12-.03s9.76-4.21,12.95-5.75c.5-.24,1.96-1.03,1.96-1.03,6.88-3.61,12.16-8.98,15.73-15.75,1.44-2.72,1.62-3.42,1.62-3.42l6.36-.71s-3.82,14.7-14.85,23.97c-11.03,9.26-21.93,9.65-21.93,9.65,0,0,10.01-4.76,17.67-12.72-1.83.91-11.9,5.93-18.39,5.78"/>
            <g class="cls-20">
              <g class="cls-7">
                <path d="M234.11,205.49s14.6-2.06,26.09-10.7c14.39-10.82,9.3-15.61,9.3-15.61l14.53.73-1.3,19.89-26.09,12.23-22.53-6.54Z"/>
              </g>
            </g>
            <path d="M259.94,164.97s-8.04-1.38-16.54,1.7c-6.58,2.38-4.99,3.08-12.05,9.53-10.48,9.57-22.73,10.44-22.73,10.44,0,0,3.3,3.76,6.39,3.41,2.63-.3,5.78-1.11,5.78-1.11,0,0,10.48,14.43,24.75,4.17,14.46-10.4,2.46-20.82,2.46-20.82l11.95-7.31Z"/>
            <path class="cls-19" d="M241.22,174.97h0s7.59,7.27-1.04,13.72c-7.67,5.73-12.03-2.42-12.03-2.42l1.23-.53c5.02-2.15,9.24-5.98,11.84-10.77"/>
            <path d="M233.92,178.71h0c5.34,1.64,8.5,5.64,8.8,11.24-5.46-1.76-8.57-5.79-8.8-11.24"/>
            <path d="M206.48,203.24h0c-4.6.41-9.02,1.93-13.07,4.48l-.1.06s-.07-9.41,5.31-10.94c5.47-1.56,7.87,6.4,7.87,6.4"/>
            <polygon class="cls-21" points="202.91 204.44 199.37 201.37 197.76 207.78 202.91 204.44"/>
          </g>
          <g class="cls-8">
            <path d="M167.22,471.04c-11.02-15.12-38.07-42.2-60.26-53.81-2.37-1.15-5.37-3-8.55-4.96-1.83-1.13-3.73-2.3-5.32-3.21-19.65-11.28-33.1-25.22-40.93-34.93-2.56-3.18-4.74-6.17-6.54-8.82l-13.4,13.5-5.29-11.35c-.25-.53-.52-1.12-.82-1.74-3.72-7.92-9.94-21.18-12.13-31.36-3.01-13.96-3.48-32.56-1.26-49.74l2.84-22.06,12.93,18.1c11.44,16.01,33.88,32.42,51.05,41.57l11.36,6.06-18.91,16.03c1.52,1.45,3.42,3.12,5.74,4.94,5.81,4.55,11.69,8,15.73,9.21l.28.09.28.1c5.02,1.89,10.42,3.19,16.05,3.87,12.01,1.46,22.6,2.19,31.47,2.19,2.24,0,4.16-.05,5.78-.12v-198.87h-68.25c-4.72,4.39-10.97,6.84-17.74,6.84-7.8,0-15.33-3.16-20.65-8.68-4.81-4.98-7.35-11.52-7.19-18.43-.17-6.91,2.38-13.45,7.18-18.43,5.32-5.51,12.85-8.68,20.65-8.68,6.76,0,13.02,2.45,17.74,6.84h68.25v-.94c-.52-2.68-.96-5.45-1.39-8.14-.9-5.63-1.83-11.45-3.46-16.38l-.08-.23-.06-.23c-.92-3.42-3.07-6.81-5.35-10.39-1.28-2.02-2.61-4.11-3.84-6.38l-.06-.11c-5.1-9.72-7-19.77-5.65-29.86,1.2-8.94,4.94-17.75,11.12-26.2l.1-.13.1-.13c6.37-8.05,16.83-13.45,28.72-14.83,2.12-.32,4.42-.49,6.83-.49,2.42,0,4.71.17,6.84.49,11.89,1.38,22.35,6.78,28.72,14.83l.1.13.1.13c6.18,8.45,9.92,17.26,11.12,26.2,1.35,10.09-.55,20.14-5.65,29.86l-.06.11c-1.23,2.27-2.56,4.36-3.84,6.38-2.28,3.59-4.43,6.97-5.35,10.39l-.06.23-.08.23c-1.63,4.93-2.56,10.75-3.46,16.38-.43,2.69-.87,5.46-1.39,8.14v.94h68.25c4.72-4.39,10.97-6.84,17.74-6.84,7.8,0,15.33,3.16,20.65,8.68,4.81,4.98,7.35,11.52,7.18,18.43.17,6.91-2.38,13.45-7.18,18.43-5.32,5.52-12.85,8.68-20.65,8.68-6.76,0-13.02-2.45-17.74-6.84h-68.25v198.87c1.62.07,3.54.12,5.78.12,8.87,0,19.46-.74,31.47-2.19,5.63-.68,11.02-1.98,16.05-3.87l.28-.1.28-.09c4.03-1.21,9.91-4.65,15.73-9.21,2.32-1.82,4.23-3.49,5.74-4.94l-18.91-16.03,11.36-6.06c17.16-9.15,39.6-25.55,51.05-41.57l12.93-18.1,2.85,22.06c2.22,17.18,1.74,35.78-1.26,49.74-2.19,10.18-8.41,23.44-12.13,31.36-.29.63-.57,1.21-.82,1.75l-5.29,11.35-13.4-13.5c-7.71,11.4-22.77,29.58-47.47,43.75-1.59.91-3.49,2.08-5.32,3.21-3.17,1.96-6.17,3.81-8.55,4.96-22.19,11.6-49.24,38.68-60.26,53.81l-7.06,9.69-7.06-9.69ZM173.22,85.26c.07.04.37.18,1.06.3.69-.12.99-.26,1.06-.3.48-.55,1.2-2.93,1.67-4.51,1.19-3.97,2.82-9.4,7.02-14.64l.08-.1.08-.1c4.84-5.69,3.36-13.94.43-17.71-1.81-2.33-6.52-3.39-10.12-3.39h-.22s-.22,0-.22,0c-3.6,0-8.31,1.06-10.12,3.39-2.93,3.77-4.41,12.02.43,17.71l.08.1.08.1c4.2,5.25,5.83,10.68,7.02,14.64.47,1.58,1.19,3.96,1.67,4.51"/>
            <path class="cls-19" d="M327.19,285.74c-13.22,18.49-38.11,35.7-54.05,44.2l15.69,13.29c-3.26,6.31-19.92,20.21-31.2,23.59-5.26,1.98-11.27,3.54-18.07,4.37-34.3,4.16-47.04,1.3-47.04,1.3v-215.51h80.86c9.97,13.52,33.57,5.6,32.96-11.52.61-17.13-22.99-25.05-32.96-11.53h-80.86v-10.53c1.69-8.37,2.53-18.02,5.29-26.4,1.87-6.95,6.59-12.46,9.95-18.67,8.92-17,5.28-33.09-4.78-46.84-5.46-6.9-14.65-10.64-23.03-11.59-1.7-.27-3.61-.41-5.67-.41-2.05,0-3.97.14-5.67.41-8.38.94-17.57,4.69-23.03,11.59-10.06,13.75-13.7,29.83-4.78,46.84,3.36,6.2,8.08,11.72,9.95,18.67,2.76,8.38,3.6,18.03,5.29,26.4v10.53h-80.86c-9.98-13.52-33.57-5.6-32.96,11.53-.61,17.12,22.99,25.05,32.96,11.52h80.86v215.51s-12.74,2.86-47.04-1.3c-6.8-.82-12.81-2.39-18.07-4.37-11.27-3.38-27.93-17.28-31.2-23.59l15.69-13.29c-15.94-8.5-40.83-25.71-54.05-44.2-1.93,14.99-1.84,32.97,1.14,46.78,2.16,10.01,9.2,24.54,12.33,31.25l12.47-12.55s14.38,29.75,50.13,50.27c4.38,2.52,10.2,6.4,13.43,7.93,23.41,12.19,51.53,40.17,63.41,56.47,11.88-16.3,40-44.28,63.41-56.47,3.23-1.54,9.05-5.42,13.43-7.93,35.75-20.52,50.13-50.27,50.13-50.27l12.47,12.55c3.13-6.71,10.17-21.24,12.33-31.25,2.97-13.81,3.07-31.79,1.14-46.78M174.28,94.37c-13.05-1.21-8.47-12.68-16.57-22.8-7.5-8.82-6.24-21.57-.67-28.73,5.09-6.55,15.15-6.79,17.24-6.77,2.09-.02,12.15.22,17.24,6.77,5.57,7.16,6.83,19.91-.67,28.73-8.1,10.12-3.52,21.59-16.57,22.8"/>
          </g>
          <g class="cls-6">
            <path class="cls-3" d="M174.16,389.75l-25.96-23.62.88-203.27-105.5,10.59-7.5-21.19,3.01-22.54,20.83,16.58h107.49l-14.45-15.67-25.94-51.87,10.37-61.14,14.97,18.98s-10.65,10.34-7.88,27.31c2.03,12.43,6.82,12.13,9.91,20.62,3.1,8.48,4.53,13.66,10.59,20.52,6.06,6.87,9.19,9.7,9.19,9.7v274.99Z"/>
            <path class="cls-3" d="M158.62,43.82l-7.12-6.47s10.57-13.88,34.98-7.1c24.41,6.78,17.3,37.04,17.04,37.89-2.46,7.8-6.19,9.83-8.48,15.43-2.29,5.59-6.36,15.51-6.36,15.51,0,0-2.81,5.17-5,7.38-1.82,1.84-9.52,8.3-9.52,8.3v-24.92l16.9-39.66-26.27-6.1-6.16-.25Z"/>
            <polygon class="cls-3" points="180.95 146.44 201.28 165.8 271.29 178.38 294.84 169.67 280.33 146.44 180.95 146.44"/>
            <path class="cls-3" d="M174.16,472.73l106.13-46.78,23.39-44.11,10.66-13.91s-1.57-17.63-3.07-21.88c-1.5-4.26-2.5-9.76-2.5-9.76h-43.81l7.76,14.27,24.28-8.01s-3.25,16.27-25.54,31.8c-22.28,15.52-97.95,36.72-97.95,36.72,0,0-69.3-16.9-91.83-32.96-20.81-14.84-32.05-35.05-32.05-35.05l-9.26,31.05,40.56,76.11,93.23,22.54Z"/>
            <path class="cls-3" d="M34.25,369.15l5.65-34.25s-10.62-14.57-14.97-28.6c-4.35-14.03-4.55-32.59-4.55-32.59L0,324.25l13.64,44.9h20.62Z"/>
          </g>
        </g>
      </g>
    </g>
  </g>
</svg>