<?xml version="1.0" encoding="UTF-8"?>
<svg id="Layer_2" xmlns="http://www.w3.org/2000/svg" xmlns:xlink="http://www.w3.org/1999/xlink" viewBox="0 0 104.04 149.35">
  <defs>
    <style>
      .cls-1 {
        fill: none;
      }

      .cls-2 {
        clip-path: url(#clippath-1);
      }

      .cls-3 {
        fill: #fff;
      }

      .cls-4 {
        clip-path: url(#clippath);
      }
    </style>
    <clipPath id="clippath">
      <rect class="cls-1" x="0" y="0" width="104.04" height="149.35"/>
    </clipPath>
    <clipPath id="clippath-1">
      <rect class="cls-1" x="0" y="0" width="104.04" height="149.35"/>
    </clipPath>
  </defs>
  <g id="PAGE4">
    <g id="WLL_x5F_MARYLAND_x5F_SEC_x5F_1C_x5F_LT">
      <g class="cls-4">
        <g class="cls-2">
          <path class="cls-3" d="M43.49,6.29s0,0,0,0c.11-.08.22-.16.33-.24-.11.08-.22.16-.33.24"/>
          <path class="cls-3" d="M43.33,6.41s0,0,0,0c-.08.06-.15.12-.23.18.08-.06.15-.12.23-.18"/>
          <path class="cls-3" d="M55.66,4.09c-.21-.05-.42-.09-.63-.13.21.04.42.08.63.13,0,0,0,0,0,0"/>
          <path class="cls-3" d="M42.89,6.76s0,0,0,0c-.14.11-.27.23-.4.35.13-.12.27-.24.4-.36"/>
          <polyline class="cls-3" points="59.11 5.37 59.11 5.37 59.11 5.37"/>
          <path class="cls-3" d="M60.47,6.22s0,0,0,0c.08.06.16.12.24.18-.08-.06-.16-.12-.24-.18"/>
          <polyline class="cls-3" points="57.8 4.76 57.8 4.76 57.8 4.76 57.8 4.76"/>
          <polygon class="cls-3" points="41.47 8.22 41.47 8.22 41.47 8.22 41.44 8.26 41.43 8.27 41.41 8.3 41.44 8.26 41.47 8.22"/>
          <polygon class="cls-3" points="62.61 8.27 62.6 8.26 62.58 8.23 62.6 8.26 62.61 8.27"/>
          <path class="cls-3" d="M59.46,5.57c-.11-.06-.21-.12-.32-.18,0,0-.02-.01-.03-.02,0,0,0,0,0,0,.12.06.24.13.35.2"/>
          <path class="cls-3" d="M43.73,6.11s-.05.03-.07.05c-.06.04-.11.08-.17.13.11-.08.22-.16.33-.24-.03.02-.06.04-.09.06"/>
          <path class="cls-3" d="M42.89,6.76c-.12.1-.24.21-.36.31-.02.02-.03.03-.05.05-.11.1-.21.2-.32.31-.02.02-.04.04-.06.06.12-.13.25-.25.38-.38.13-.12.26-.24.4-.35"/>
          <path class="cls-3" d="M43.32,6.41s-.02.01-.03.02c-.02.01-.04.03-.05.04-.06.05-.12.1-.19.15.01,0,.02-.02.04-.03.08-.06.15-.12.23-.18"/>
          <path class="cls-3" d="M55.08,3.98h0s-.03,0-.05-.01c.21.04.42.08.63.13-.19-.04-.38-.08-.58-.12"/>
          <path class="cls-3" d="M45.58,5.05s-.06.03-.09.04c.11-.05.22-.1.34-.15-.08.04-.17.08-.25.11"/>
          <path class="cls-3" d="M45.12,5.28s0,0,0,0c0,0,0,0,0,0,0,0,.01,0,.02,0,0,0-.01,0-.02,0"/>
          <path class="cls-3" d="M77.09,102.42c-.93.58-1.89,1.1-2.86,1.57,0,0-.01,0-.02,0h0s0,0,0,0c-.29.14-.58.27-.87.41,0,0,0,0,0,0-.29.13-.58.26-.88.38,0,0,0,0,0,0,0,0,0,0,0,0,0,0,0,0,0,0,0,0-.01,0-.02,0-.39.16-.78.32-1.18.46-.01,0-.02,0-.04.01-.2.07-.39.14-.59.21,0,0,0,0,0,0-.4.14-.8.27-1.21.4-.02,0-.04.01-.06.02,0,0,0,0,0,0,0,0,0,0,0,0-.4.12-.8.24-1.21.35-.02,0-.04.01-.06.02,0,0,0,0,0,0,0,0,0,0,0,0-.19.05-.37.1-.56.15-.02,0-.04.01-.06.02,0,0,0,0,0,0h0c-.41.1-.81.2-1.23.29-.03,0-.07.02-.1.02-.19.04-.39.08-.58.13,0,0-.02,0-.03,0h0c-.21.04-.42.09-.63.13-.03,0-.06.01-.09.02-.18.03-.36.07-.54.1,0,0,0,0,0,0s0,0,0,0c-.04,0-.08.01-.11.02,0,0,0,0,0,0h0c-.42.07-.83.14-1.26.21,0,0,0,0,0,0h0s-.09.01-.14.02c-.18.03-.36.05-.55.08-.03,0-.06,0-.1.01h0c-.21.03-.43.06-.64.09h0s-.06,0-.1.01c-.18.02-.37.05-.55.07-.05,0-.1.01-.15.02,0,0,0,0,0,0,0,0,0,0,0,0-.21.02-.43.05-.64.07v.93h0c.08,0,.16,0,.25.01.02,0,.04,0,.06,0,.09,0,.18,0,.27,0,.02,0,.04,0,.06,0,.05,0,.1,0,.15,0,.06,0,.11,0,.17,0,.11,0,.23,0,.35,0,.02,0,.05,0,.07,0,.11,0,.22,0,.33,0h0c.15,0,.31,0,.47,0,.04,0,.09,0,.13,0,.12,0,.23,0,.35,0,.05,0,.11,0,.16,0,.11,0,.22,0,.33,0,.06,0,.12,0,.17,0,.11,0,.22,0,.34-.01.06,0,.12,0,.18,0,.24,0,.48-.02.72-.03.04,0,.09,0,.13,0,.25-.01.5-.03.75-.04.2-.01.41-.03.62-.04.07,0,.14-.01.2-.02.14-.01.28-.02.43-.03.08,0,.17-.01.25-.02.13-.01.26-.02.39-.03.09,0,.18-.02.27-.02.13-.01.26-.02.39-.04.09,0,.18-.02.28-.03.13-.01.26-.03.4-.04.09,0,.19-.02.28-.03.14-.01.28-.03.42-.04.09,0,.18-.02.27-.03.16-.02.31-.03.47-.05.07,0,.15-.02.22-.02.23-.03.47-.05.71-.08.03,0,.06,0,.08-.01.23-.03.47-.06.7-.1.07-.01.15-.02.22-.04.16-.03.32-.06.48-.09.08-.02.16-.03.24-.05.16-.03.32-.07.47-.1.07-.02.14-.03.21-.05.22-.05.45-.11.67-.17.04-.01.07-.02.11-.03.22-.06.44-.13.66-.2,0,0,.02,0,.02,0,.11-.04.23-.07.34-.11.19-.06.37-.13.56-.2l.08-.03h.05s.04-.03.04-.03c0,0,0,0,0,0,0,0,.01,0,.02,0,.07-.02.13-.04.2-.07.05-.02.11-.04.16-.06.02,0,.04-.01.05-.02.07-.03.15-.06.22-.09,0,0,0,0,0,0,.08-.03.16-.07.24-.11,0,0,.02,0,.03-.01.03-.02.07-.03.1-.05.03-.01.06-.03.09-.04.11-.05.22-.11.33-.16.01,0,.02-.01.04-.02.11-.06.23-.12.35-.19.08-.04.15-.09.23-.13.05-.03.09-.05.14-.08.05-.03.11-.06.16-.1.1-.06.21-.13.32-.19.1-.06.19-.12.29-.19.04-.03.09-.06.13-.09.05-.03.1-.06.14-.1.1-.07.21-.14.31-.21.15-.11.31-.22.46-.33.22-.16.43-.32.65-.49.07-.05.13-.11.2-.16.04-.03.08-.06.12-.09.05-.04.1-.08.14-.12.09-.07.17-.14.25-.21.06-.05.13-.11.19-.16.04-.03.07-.06.1-.09.06-.06.13-.11.19-.17.03-.02.05-.05.08-.07.08-.07.16-.15.24-.22.03-.03.07-.06.1-.1.03-.03.06-.06.09-.08l-2.52-2.14c-.9.7-1.82,1.33-2.76,1.91,0,0,0,0,0,0"/>
          <path class="cls-3" d="M44.02,49.65h-5.56s0,0,0,0c-.04.17-.09.34-.13.51-.02.07-.03.14-.05.2-.02.1-.05.21-.07.31-.02.08-.03.17-.05.25-.01.07-.03.13-.04.2-.03.16-.06.31-.09.47-.01.07-.02.14-.04.21-.01.08-.03.16-.04.23,0,.06-.02.11-.03.17-.02.15-.04.31-.06.46,0,.04-.01.09-.02.13-.02.12-.03.24-.04.36-.02.19-.04.38-.06.57-.03.3-.05.6-.07.9,0,.13-.01.26-.02.39,0,.17-.02.34-.03.51,0,.17-.01.34-.02.51,0,.13,0,.25-.01.38,0,.2,0,.4,0,.59,0,.09,0,.19,0,.28,0,.22,0,.44,0,.66,0,.07,0,.13,0,.2,0,.24.01.48.02.72,0,.04,0,.09,0,.13,0,.26.02.52.04.77,0,.02,0,.04,0,.07.02.27.03.55.06.82,0,0,0,0,0,0l3.11-.04,3.19-.04v-10.95Z"/>
          <path class="cls-3" d="M61.01,87.77c.07,0,.15,0,.22,0,.13,0,.27,0,.4.01.16,0,.32,0,.49,0s.32,0,.48,0c.46,0,.93-.03,1.4-.06.34-.02.66-.05.97-.07.2-.02.4-.04.6-.05.29-.03.56-.06.83-.09.26-.03.51-.07.75-.1.4-.06.77-.13,1.11-.2.13-.03.27-.07.43-.11.05-.01.1-.03.16-.04.11-.03.22-.06.33-.1.12-.04.23-.08.36-.12.49-.17,1.03-.39,1.59-.67.06-.04.13-.07.19-.11.04-.03.09-.05.13-.08.02-.01.04-.02.06-.03.05-.04.11-.07.17-.11,0,0,.01,0,.02-.01.06-.04.12-.08.18-.12,0,0,0,0,0,0h-5.93c-.1.03-.19.06-.29.09-.08.02-.17.05-.25.07-.6.15-1.2.23-1.83.25-.05,0-.11,0-.16,0h0c-.13,0-.25,0-.38-.01-.02,0-.04,0-.05,0-.12,0-.23-.02-.35-.03-.02,0-.05,0-.07,0-.11-.01-.22-.03-.33-.05-.02,0-.04,0-.07-.01-.11-.02-.22-.04-.33-.07-.01,0-.03,0-.04-.01-.1-.02-.2-.05-.3-.08-.02,0-.04-.01-.07-.02-.1-.03-.2-.06-.29-.1-.03-.01-.06-.02-.09-.03-.09-.03-.18-.07-.27-.11-.03-.01-.06-.03-.09-.04-.09-.04-.18-.08-.27-.13-.02-.01-.05-.03-.07-.04-.07-.04-.15-.08-.22-.12-.02-.01-.05-.03-.07-.04v2.51c.1,0,.21.02.31.02.06,0,.11,0,.17.01.01,0,.02,0,.03,0,.16,0,.32.02.48.03"/>
          <path class="cls-3" d="M42.25,67.49c.08.02.15.05.23.08.02,0,.04.02.07.03.05.02.11.04.16.06.02,0,.05.02.07.03.05.02.11.05.16.07.02,0,.04.02.06.03.07.03.13.06.19.1,0,0,0,0,.01,0,.15.08.29.16.42.25,0,0,0,0,0,0,.06.04.13.09.19.13,0,0,0,0,.01,0,.06.05.13.1.19.15,0,0,0,0,0,0v-5.36l-1.77,4.41s0,0,0,0"/>
          <path class="cls-3" d="M78.51,37.56c-.08-.11-.16-.22-.26-.33-.02-.02-.03-.04-.05-.06-.04-.05-.09-.11-.14-.16-.73-.83-1.49-1.51-2.34-2.07-.28-.18-.58-.35-.88-.51-.41-.21-.83-.39-1.28-.55-.22-.08-.46-.16-.69-.22-.12-.03-.24-.07-.36-.1-1.58-.41-3.46-.59-5.76-.59-.1,0-.2,0-.3,0-.1,0-.21,0-.31,0-.21,0-.43,0-.65.01-.45,0-.93.02-1.45.05-.26.01-.52.02-.78.04-.02,0-.04,0-.06,0-.25.01-.5.03-.75.05-.05,0-.1,0-.15.01-.53.04-1.04.09-1.56.15-.01,0-.03,0-.04,0,0,0,0,0,0,0-.05.27-.09.54-.14.81,0,.03-.01.07-.02.1-.04.25-.08.49-.12.74-.02.13-.04.27-.06.4-.01.07-.02.13-.03.2-.04.26-.08.51-.13.77,0,0,0,.01,0,.02-.04.23-.08.46-.12.69-.02.11-.04.22-.06.33,0,0,0,0,0,0v.28h18.53s0,0,0,0c-.01-.02-.03-.04-.05-.06"/>
          <path class="cls-3" d="M48.17,17.81s0,.04,0,.06c0,.08.02.16.03.25.02.12.04.25.08.37.03.12.07.24.11.36.01.03.02.06.03.09.06.16.13.31.21.47.01.02.02.04.03.06.03.05.05.09.08.14.01.02.03.04.04.07.03.04.06.09.09.13.01.02.03.04.04.06.05.06.09.12.15.18l.02.03.02.03s0,0,0,0c.07.09.14.17.2.26.02.02.03.04.05.07.06.08.11.16.17.24,0,0,.01.02.02.02.06.09.11.17.17.26.01.02.03.05.04.07,0,0,0,0,0,0,0,0,0,0,0,0,.05.07.09.14.13.22,0,.02.02.03.03.05.05.08.09.17.14.25.01.03.03.05.04.08.03.06.07.13.1.19.01.02.02.04.03.07t0,0s0,0,0,0c.03.05.05.1.07.15.01.03.03.05.04.08h0s0,0,0,0c.01.03.03.06.04.09,0,0,0,0,0,0,0,.02.02.03.02.05.02.04.03.07.05.11h0s0,0,0,0c.01.03.03.06.04.09,0,0,0,0,0,0,0,0,0,0,0,0,.01.03.03.06.04.09.02.04.03.08.05.12.01.04.03.07.04.11,0,0,0,0,0,0,0,0,0,0,0,0,.02.04.03.08.05.13.01.04.03.08.04.11,0,0,0,0,0,0,0,0,0,0,0,0,.02.06.04.11.06.16,0,0,0,.02,0,.02h0c.39-.1.79-.19,1.19-.28,0,0,0,0,0,0h0c.06-.01.13-.03.19-.04.19-.04.38-.08.57-.12h0c.23-.05.46-.09.7-.14,0,0,0,0,0,0,.04-.1.08-.19.12-.29,0-.01.01-.03.02-.04h0s0,0,0,0c.04-.08.08-.17.12-.25.01-.02.02-.04.03-.07.04-.08.07-.15.11-.23h0s.03-.06.05-.09c.04-.07.08-.14.12-.21.02-.03.04-.07.06-.1.04-.07.08-.14.12-.2.02-.04.04-.07.07-.11.04-.07.09-.13.13-.2.02-.04.05-.07.07-.11,0,0,0,0,0,0,.05-.07.1-.14.15-.21.02-.03.04-.06.07-.1.08-.1.15-.21.24-.31l.02-.03.02-.03c.06-.07.11-.14.16-.2,0-.01.02-.02.02-.03.05-.07.1-.14.14-.2.03-.05.06-.09.08-.14.01-.02.02-.04.03-.06,0-.02.02-.03.02-.05.03-.05.05-.1.08-.15,0,0,0,0,0,0,.03-.06.05-.12.08-.18.02-.06.05-.12.07-.18.01-.04.03-.08.04-.12,0-.01,0-.02.01-.04.02-.07.04-.14.06-.21.02-.08.04-.16.05-.25,0-.02,0-.04.01-.06.01-.08.03-.16.04-.25,0-.08.02-.16.02-.25,0-.02,0-.04,0-.06,0-.08,0-.16,0-.24,0-.08,0-.16,0-.24,0-.02,0-.04,0-.06,0-.08-.01-.16-.02-.24,0-.08-.02-.16-.03-.23,0-.02,0-.04,0-.06-.02-.09-.03-.17-.05-.26-.02-.1-.05-.2-.08-.3,0,0,0,0,0,0-.03-.11-.07-.21-.11-.31-.03-.08-.06-.16-.1-.23,0-.01,0-.02-.01-.03-.03-.07-.07-.14-.1-.21,0-.01-.01-.03-.02-.04-.04-.07-.07-.13-.11-.19,0,0-.01-.02-.02-.03-.04-.06-.08-.12-.13-.18h0c-.07-.09-.15-.16-.24-.24-.01-.01-.03-.02-.05-.04-.03-.02-.06-.05-.09-.07-.02-.01-.04-.03-.06-.04-.03-.02-.06-.04-.09-.06-.02-.01-.05-.03-.07-.04-.03-.02-.06-.03-.1-.05-.03-.01-.05-.02-.08-.04-.03-.02-.07-.03-.1-.04-.03-.01-.06-.02-.08-.03-.03-.01-.07-.03-.1-.04-.03-.01-.06-.02-.09-.03-.04-.01-.07-.02-.11-.04-.03,0-.06-.02-.09-.03-.04-.01-.07-.02-.11-.03-.03,0-.06-.02-.09-.02-.04,0-.08-.02-.11-.03-.03,0-.06-.01-.09-.02-.04,0-.08-.02-.12-.02-.03,0-.06-.01-.09-.02-.04,0-.08-.01-.12-.02-.03,0-.06,0-.09-.01-.04,0-.08-.01-.12-.01-.03,0-.06,0-.09-.01-.04,0-.08,0-.13-.01-.03,0-.05,0-.08,0-.05,0-.09,0-.14,0-.02,0-.05,0-.07,0-.07,0-.13,0-.2,0h-.07s-.07,0-.07,0c-.47,0-1,.06-1.49.19-.07.02-.14.04-.21.06-.14.04-.27.09-.4.14-.32.13-.59.3-.79.5-.04.04-.08.08-.11.13-.04.05-.07.1-.11.15,0,.01-.02.03-.03.04-.03.05-.07.11-.1.16,0,0,0,0,0,0-.03.06-.06.11-.09.17,0,.02-.02.03-.02.05-.03.06-.05.11-.08.17-.02.05-.05.11-.07.16-.04.1-.07.2-.11.31-.03.1-.05.19-.08.29,0,.03-.01.06-.02.09-.02.08-.03.15-.04.23,0,.03-.01.06-.01.09-.02.1-.03.21-.04.32,0,.08,0,.16-.01.24,0,.02,0,.04,0,.06,0,.08,0,.16,0,.24h0c0,.08,0,.16.02.24"/>
          <path class="cls-3" d="M44.02,107.77c-.24-.03-.47-.07-.71-.11-.02,0-.04,0-.06,0-.36-.06-.72-.12-1.07-.18,0,0,0,0,0,0-.36-.07-.71-.14-1.06-.21-.03,0-.05-.01-.08-.02-.22-.05-.43-.09-.65-.14-.02,0-.03,0-.05-.01-.46-.11-.92-.22-1.38-.34,0,0,0,0,0,0-.03,0-.07-.02-.1-.03-.19-.05-.38-.1-.57-.16-.04-.01-.08-.02-.12-.04-.44-.13-.88-.26-1.32-.4,0,0,0,0,0,0h0s-.08-.03-.12-.04c-.17-.06-.35-.11-.52-.17-.06-.02-.11-.04-.17-.06-.17-.06-.34-.12-.5-.18,0,0,0,0,0,0,0,0,0,0,0,0-.04-.02-.09-.03-.13-.05-.21-.08-.42-.15-.62-.23-.03-.01-.07-.03-.1-.04h0s0,0,0,0c-.17-.06-.34-.13-.5-.2,0,0,0,0,0,0,0,0,0,0,0,0-.03-.01-.07-.03-.1-.04-.03-.01-.06-.02-.09-.04,0,0,0,0,0,0-.15-.06-.29-.12-.43-.18-.06-.03-.12-.05-.18-.08-.2-.08-.39-.17-.59-.26,0,0,0,0,0,0-.01,0-.02-.01-.03-.02-.16-.07-.32-.15-.48-.22,0,0,0,0,0,0,0,0,0,0,0,0-.05-.02-.1-.05-.15-.07-.12-.06-.24-.11-.36-.17-.06-.03-.11-.06-.17-.08h0s0,0,0,0c-.11-.06-.23-.11-.34-.17-.06-.03-.11-.06-.17-.09-.11-.06-.22-.11-.34-.17-.05-.03-.11-.06-.16-.09-.11-.06-.23-.12-.34-.18-.05-.03-.1-.06-.15-.08-.12-.06-.23-.13-.35-.19-.05-.03-.09-.05-.14-.08,0,0,0,0,0,0,0,0,0,0,0,0-.12-.07-.24-.13-.35-.2-.04-.02-.08-.05-.13-.07,0,0,0,0,0,0,0,0,0,0,0,0-.12-.07-.24-.14-.36-.22-.04-.02-.08-.05-.11-.07-.12-.08-.25-.15-.37-.23,0,0,0,0,0,0h0s-.07-.04-.1-.06c0,0,0,0,0,0,0,0,0,0,0,0-.13-.08-.26-.16-.38-.24-.03-.02-.06-.04-.08-.05-.13-.09-.26-.17-.39-.26,0,0,0,0,0,0,0,0,0,0,0,0-.02-.02-.05-.03-.07-.05-.13-.09-.27-.18-.4-.27-.02-.01-.04-.03-.06-.04,0,0,0,0,0,0,0,0,0,0,0,0-.14-.1-.27-.19-.41-.29,0,0,0,0,0,0h0s-.03-.02-.04-.03c-.14-.1-.28-.2-.42-.31,0,0-.02-.01-.03-.02-.14-.11-.29-.22-.43-.32,0,0,0,0-.01,0-.15-.11-.29-.23-.44-.34,0,0,0,0,0,0l-2.96,2.5-.32.27c.06.05.11.11.17.16,0,0,.01,0,.01.01.06.05.11.1.17.16.08.07.16.14.24.22.02.02.04.03.06.05.02.02.04.04.06.05.08.07.16.14.24.21.02.01.03.03.05.04.08.07.16.14.25.21.04.03.08.06.12.1.1.08.21.17.32.26,0,0,0,0,0,0,.11.08.22.17.32.25.22.16.43.32.65.47.14.1.28.2.43.29.04.02.07.05.11.07.14.09.28.19.42.27.13.08.26.16.39.24.03.02.06.03.08.05.11.07.22.13.33.19.05.03.1.06.15.08.04.02.08.05.12.07.06.03.12.07.18.1.04.02.09.04.13.07.06.03.12.06.18.09.04.02.08.04.12.06.06.03.11.05.17.08.04.02.08.04.12.06.05.02.11.05.16.07.04.02.08.03.13.05.05.02.1.04.16.06.03.01.07.02.1.04.08.03.16.05.23.08,0,0,0,0,0,0h.04s.02.02.02.02h.03s.05.03.05.03h.03c.18.08.35.14.53.2.06.02.12.04.17.06.12.04.24.08.37.12.07.02.14.04.21.06.11.03.23.07.34.1.07.02.15.04.22.06.11.03.23.06.34.09.08.02.15.04.23.06.12.03.23.05.35.08.07.02.14.03.22.05.13.03.26.05.39.08.06.01.12.02.19.04.19.03.38.07.58.1,0,0,0,0,0,0,.21.03.41.06.62.08.33.04.66.08.99.12.33.04.65.07.97.11.22.02.44.04.66.07,0,0,.01,0,.02,0,.21.02.42.04.63.06,0,0,0,0,.01,0,.19.02.39.03.58.05.18.02.36.03.54.04.01,0,.03,0,.04,0,.4.03.79.06,1.17.08,0,0,0,0,0,0,.18.01.36.02.53.03.06,0,.12,0,.17,0,.26.01.51.03.76.04.02,0,.03,0,.05,0,.24,0,.48.02.72.02.02,0,.04,0,.05,0,.22,0,.43.01.64.01.05,0,.11,0,.16,0,.22,0,.43,0,.64,0h0c.11,0,.22,0,.32,0,.03,0,.05,0,.08,0,.1,0,.21,0,.3,0h0c.1,0,.19,0,.29,0,.02,0,.05,0,.07,0,.09,0,.18,0,.26,0,0,0,0,0,0,0,.07,0,.13,0,.19,0,.06,0,.12,0,.18,0v-.89s0,0,0,0h0"/>
          <path class="cls-3" d="M104.03,90.18c0-.17,0-.35-.01-.52,0-.18-.01-.36-.02-.54-.02-.5-.05-1.01-.08-1.51-.07-1.06-.18-2.12-.31-3.15l-2.04-15.82-3.47,4.85-2.16-1.76c-.12-2.23-1.07-4.29-2.7-5.81-1.66-1.55-3.87-2.4-6.24-2.4-.57,0-1.1.07-1.57.19.04-.04.09-.07.13-.11.07-.06.15-.13.22-.19.09-.08.17-.16.25-.23l.03-.02c.06-.06.12-.12.18-.17.08-.08.16-.17.24-.25l.84-.42.25-.94c.1-.14.19-.29.28-.44.09-.14.17-.29.25-.44.02-.04.05-.08.07-.13h0c.06-.12.11-.22.16-.33.02-.05.04-.09.07-.15.05-.11.09-.21.14-.31.02-.05.04-.09.05-.13.05-.12.1-.25.14-.37,0-.03.02-.05.03-.07.02-.06.04-.11.06-.17l.04-.03c.14-.1.27-.21.4-.31,0,0,.1-.08.14-.11.03-.02.05-.04.08-.06l2.16-2.01s.06-.06.08-.09c.08-.09.17-.18.25-.28l.08-.09c.08-.09.16-.18.24-.28l.08-.09c.08-.1.17-.2.25-.29,0-.01.02-.02.03-.03.18-.22.36-.45.53-.68l.04-.05c.05-.07.1-.14.16-.21l.05-.07s.07-.09.1-.13c.05-.07.09-.13.14-.2l.04-.06c.04-.06.08-.12.12-.17.05-.07.1-.15.14-.22.05-.07.1-.15.15-.22.05-.07.09-.14.13-.21.05-.08.1-.16.15-.24.04-.07.08-.13.12-.2.05-.08.1-.17.15-.25l.02-.03c.03-.06.06-.11.09-.16.06-.1.11-.2.16-.3,0,0,.06-.11.09-.16.08-.15.16-.3.24-.46.09-.17.18-.36.28-.56.02-.04.06-.14.06-.14.07-.15.13-.29.2-.44l.05-.12c.07-.16.14-.33.2-.49l.03-.08c.04-.11.09-.22.13-.33.23-.44.42-.89.59-1.35l.04-.12h0c.1-.3.19-.59.26-.89v-.03c.08-.3.15-.6.2-.91l.02-.1v-.13c.08-.46.12-.93.13-1.4.01-.11.03-.23.04-.34v-.11c.03-.16.05-.33.06-.49v-.15c.02-.16.03-.32.04-.47,0,0,0-.11,0-.14,0-.18.02-.35.02-.54h0s0-.05,0-.08c0-.41,0-.82,0-1.22,0-.04,0-.12,0-.12,0-.16-.02-.32-.03-.49,0-.05-.01-.17-.01-.17-.01-.14-.02-.29-.04-.44,0-.06-.01-.12-.02-.18-.01-.14-.03-.29-.05-.44,0,0-.01-.12-.02-.17-.02-.17-.05-.34-.07-.5,0-.04-.01-.07-.02-.11-.03-.2-.07-.4-.1-.59,0-.04-.02-.08-.02-.12-.03-.16-.06-.32-.1-.48-.01-.05-.04-.19-.04-.19-.03-.13-.06-.27-.09-.4-.02-.07-.04-.14-.06-.22-.03-.13-.07-.26-.1-.37-.02-.07-.04-.15-.06-.22-.04-.13-.08-.27-.12-.4,0,0-.04-.13-.06-.19-.07-.21-.13-.4-.19-.58-1.11-3.17-2.88-5.93-5.28-8.21-2.34-2.22-5.28-3.98-8.76-5.24-.15-.05-.3-.11-.46-.16l-.16-.05c-.1-.03-.2-.07-.31-.1l-.19-.06c-.09-.03-.18-.06-.27-.09-.06-.02-.21-.06-.21-.06-.09-.03-.18-.05-.27-.08-.07-.02-.15-.04-.22-.06-.09-.03-.18-.05-.26-.07-.08-.02-.15-.04-.23-.06-.08-.02-.17-.05-.25-.07-.08-.02-.16-.04-.24-.06-.08-.02-.17-.04-.25-.06-.08-.02-.17-.04-.25-.06-.08-.02-.17-.04-.25-.06,0,0-.18-.04-.26-.06,0,0-.44-.1-.51-.12l-.27-.06c-.08-.02-.16-.04-.24-.05l-.07-.02c-.29-.06-.59-.12-.88-.17h-.05c-.13-.03-.25-.06-.38-.08l-.15-.03c-.12-.02-.24-.04-.36-.06l-.17-.03c-.12-.02-.24-.04-.36-.06l-.17-.03c-.12-.02-.25-.04-.37-.06l-.17-.02c-.13-.02-.26-.04-.38-.05l-.16-.02c-.13-.02-.27-.03-.4-.05l-.14-.02c-.14-.02-.28-.03-.43-.05h-.11c-.15-.03-.31-.05-.46-.06h-.06c-.74-.08-1.52-.15-2.31-.21,0-.16,0-.32,0-.49v-.17c0-.17-.01-.34-.02-.51,0,0,0-.09,0-.12-.01-.19-.03-.39-.04-.61,0-.05,0-.1-.01-.15-.02-.23-.05-.43-.07-.63-.03-.21-.06-.42-.09-.62-.14-.82-.34-1.65-.59-2.46-.13-.4-.27-.81-.42-1.21-.15-.4-.32-.79-.5-1.19-.18-.39-.38-.78-.58-1.16-.51-.95-1.11-1.89-1.77-2.8l-.08-.11-.07-.09c-.48-.61-1.02-1.18-1.61-1.71-.17-.15-.35-.31-.55-.47-.12-.1-.24-.19-.36-.28-.1-.08-.21-.16-.31-.23-.31-.23-.64-.45-.98-.65-.11-.07-.22-.14-.34-.2-.27-.16-.57-.32-.87-.47-.2-.1-.37-.18-.53-.26-.24-.11-.48-.21-.73-.31-.86-.35-1.76-.63-2.68-.84-.23-.05-.48-.1-.73-.15-.4-.08-.81-.14-1.22-.19-.59-.09-1.22-.14-1.86-.17-.22,0-.44-.01-.66-.01-.88,0-1.72.06-2.52.18-1.75.21-3.43.66-5,1.33-.36.16-.73.33-1.07.51-.23.12-.47.25-.69.38-1.65.95-3.04,2.15-4.15,3.55l-.07.09-.07.09c-2.2,3.01-3.54,6.19-3.97,9.45-.45,3.33.05,6.63,1.46,9.82-.29.18-.58.36-.87.54l-.04.03c-.18.12-.37.24-.55.35-.09.06-.18.12-.27.18-.17.11-.33.22-.5.33-.1.07-.2.14-.3.21l-.08.06c-.23.16-.45.31-.67.47-.15.11-.3.21-.44.32-.12.09-.24.18-.36.27-.17.13-.34.26-.51.39l-.08.06c-.06.05-.13.1-.19.14-.24.19-.49.39-.75.6-.05.04-.23.19-.23.19-.19.16-.39.32-.58.48,0,0-.17.14-.23.2-.29.25-.53.46-.76.67-.21.19-.44.39-.71.64-.08.07-.15.14-.23.21-.16.15-.32.3-.48.45l-.07.07c-.06.06-.12.11-.18.17-.19.19-.38.37-.57.56-.14.14-.27.28-.41.42l-.18.19c-.11.12-.23.24-.34.36h-.3c-.07-.05-.13-.09-.2-.13-1.86-1.24-4.06-1.9-6.35-1.9-1.43,0-2.85.25-4.2.74-.19.07-.38.14-.56.22-.37.16-.74.33-1.09.52-.36.19-.7.41-1.04.63-.68.46-1.31.99-1.87,1.58-1.3,1.35-2.25,3-2.75,4.79-.1.36-.18.72-.25,1.08-.12.7-.18,1.42-.17,2.14-.01.91.08,1.81.28,2.69.12.54.29,1.08.49,1.59.27.69.61,1.35,1.01,1.98.4.63.87,1.22,1.39,1.76.13.14.27.28.42.41.05.04.1.09.14.13h.02c.09.1.19.18.28.26.06.05.11.09.17.14l.05.04c.08.06.16.13.24.19.07.05.14.1.21.15l.02.02c.08.06.16.11.24.17.08.06.17.12.26.17.07.05.15.1.22.14.09.06.19.11.29.17.07.04.13.08.2.11.1.06.21.12.32.17.04.02.08.04.12.06-.04.11-.08.21-.12.32l-.11.29c-.12.31-.23.62-.34.92-.05.15-.11.29-.16.44-.06.16-.11.33-.17.49-.07.19-.13.38-.2.58-.06.17-.11.33-.17.5-.08.25-.17.51-.25.76-.04.12-.08.24-.11.36-.09.29-.18.57-.26.86l-.05.15c-.1.33-.19.66-.28.99l-.07.27c-.1.35-.19.69-.28,1.04-.12.44-.22.89-.33,1.34-1.47,1.71-2.68,3.49-3.53,5.2-.62,1.23-1.11,2.46-1.47,3.68l-2.54-3.55-2.04,15.82c-.07.52-.13,1.06-.18,1.6-.03.32-.06.63-.08.95-.02.2-.03.4-.04.6-.02.33-.04.66-.06.98,0,.19-.02.38-.03.57-.01.33-.02.67-.03,1.01,0,.18,0,.35,0,.53,0,.17,0,.35,0,.52,0,.69,0,1.38.03,2.05,0,.17.01.34.02.51.05,1.19.15,2.35.28,3.45.04.32.08.64.13.95.05.32.1.63.15.93.03.15.05.3.08.45.06.3.12.6.18.9.38,1.76,1.11,3.89,2.23,6.5.59,1.37,1.17,2.6,1.63,3.59l.12.26,3.91,8.38,4.71-4.74c.25.3.51.6.77.9.1.11.19.22.29.33.31.34.63.69.95,1.02.7.74,1.44,1.46,2.19,2.15.27.25.55.5.82.74,2.36,2.07,4.91,3.9,7.6,5.44.23.13.5.3.88.52.2.12.4.25.61.37.36.22.72.44,1.06.65.26.16.5.3.71.42.39.22.72.4,1.03.55,2.44,1.28,5.37,3.43,8.47,6.21.19.17.38.34.56.51.11.1.21.2.32.29.19.18.38.36.57.54.19.18.38.36.56.54.55.53,1.09,1.07,1.62,1.61.34.35.68.71,1,1.05.08.09.16.17.24.26,1.31,1.42,2.42,2.75,3.23,3.84l5.06,6.95,5.07-6.95.08-.1.09-.13c.42-.56.92-1.18,1.48-1.85l.06-.07c.13-.15.25-.3.39-.45.32-.36.66-.74,1.02-1.13.23-.25.47-.51.72-.77.13-.14.26-.27.39-.41.25-.26.51-.53.77-.79.09-.09.18-.18.27-.27.13-.13.27-.27.41-.4.27-.27.55-.54.83-.8.1-.09.19-.18.29-.28.09-.09.19-.17.28-.26.15-.14.31-.29.47-.43.13-.12.27-.25.4-.37.15-.14.3-.27.45-.4.1-.09.2-.18.3-.26.11-.1.23-.2.34-.3.23-.2.46-.4.7-.59.11-.09.22-.18.33-.27.13-.11.26-.21.39-.32l.11-.09c.8-.65,1.6-1.26,2.36-1.81.1-.07.2-.14.3-.21.2-.14.39-.28.59-.41.2-.13.39-.26.58-.39.76-.5,1.49-.93,2.18-1.29.68-.33,1.41-.77,2.1-1.19.22-.14.45-.28.68-.42l.43-.26c.13-.08.26-.16.39-.24.28-.17.5-.3.68-.41.49-.28.98-.57,1.45-.87.69-.43,1.38-.88,2.05-1.35.43-.3.86-.61,1.28-.92.41-.31.81-.62,1.21-.93.57-.46,1.14-.93,1.69-1.42.52-.46,1.04-.93,1.54-1.41.62-.6,1.24-1.22,1.82-1.86.28-.3.55-.6.82-.9.26-.3.53-.6.78-.91l4.7,4.74,3.8-8.14.24-.51c1.17-2.49,3.13-6.66,3.86-10.09.12-.58.24-1.19.34-1.82.07-.46.14-.94.2-1.42.11-.95.2-1.94.26-2.95.04-.66.06-1.35.07-2.03.01-.68,0-1.38,0-2.07M100.3,94.08h0s0,0,0,0c-.01.21-.02.41-.04.61,0,.05,0,.1-.01.15-.03.41-.06.81-.1,1.21,0,.05-.01.1-.02.15-.04.39-.09.78-.14,1.16,0,.05-.01.1-.02.14-.03.19-.05.38-.08.56,0,0,0,0,0,0-.09.56-.19,1.1-.3,1.61-.16.75-.4,1.57-.68,2.4-.25.73-.53,1.47-.82,2.19-.34.83-.69,1.65-1.03,2.41-.17.38-.34.75-.5,1.1-.2.43-.39.84-.56,1.21-.07.14-.13.27-.18.39-.02.04-.04.08-.06.12l-.73,1.57-.84,1.8-1.99-2-1.99-2s0,0,0,0c-.09.13-.18.26-.27.39-.03.04-.06.08-.08.12-.07.11-.15.21-.23.32-.03.04-.05.07-.08.11-.1.14-.21.29-.32.43-.02.03-.04.06-.06.08-.09.12-.18.25-.28.37-.04.05-.07.09-.11.14-.1.13-.2.25-.3.38-.02.03-.05.06-.07.09-.12.16-.25.31-.38.47-.03.04-.07.08-.1.13-.1.12-.21.25-.32.38-.04.05-.08.1-.12.14-.14.17-.29.33-.44.5,0,0,0,0,0,0-.18.21-.37.41-.56.62-.06.07-.13.14-.19.21-.52.56-1.07,1.13-1.67,1.7,0,0,0,0-.01.01-.13.13-.27.26-.41.39-.04.04-.08.08-.12.12-.1.1-.21.19-.31.29-.04.04-.08.08-.13.12-.14.13-.29.26-.44.39-.15.13-.3.26-.45.39-.05.04-.09.08-.14.12-.11.1-.23.19-.35.29-.05.04-.09.08-.14.12-.16.13-.32.26-.48.39-.08.06-.15.12-.23.18-.29.23-.58.45-.88.68-.19.14-.38.29-.58.43-.2.14-.4.28-.6.42-.18.13-.37.25-.55.38-.05.04-.11.07-.17.11-.14.09-.28.19-.42.28-.06.04-.11.07-.17.11-.19.12-.39.25-.58.37-.08.05-.17.1-.25.15-.36.22-.72.44-1.09.65-.1.06-.2.11-.3.18-.15.09-.3.18-.46.28-.13.08-.27.16-.41.25-.13.08-.26.16-.39.24,0,0-.01,0-.02.01-.12.07-.23.14-.35.22-.12.07-.24.15-.36.22-.06.04-.12.07-.18.11-.04.02-.07.04-.11.07-.01,0-.03.02-.04.02-.22.13-.42.25-.63.37,0,0,0,0-.01,0h0s-.02.01-.03.02c-.08.05-.16.09-.24.14,0,0,0,0,0,0-.12.06-.23.13-.34.18,0,0,0,0,0,0,0,0,0,0,0,0-.08.04-.17.08-.24.12,0,0,0,0,0,0-.19.1-.37.2-.56.3-.06.03-.11.06-.17.09-.14.08-.28.16-.42.24-.06.03-.11.06-.17.1-.19.11-.38.23-.57.35,0,0,0,0,0,0-.21.13-.43.27-.64.41,0,0,0,0,0,0-.21.14-.43.28-.64.43,0,0,0,0,0,0,0,0,0,0,0,0-.21.15-.43.3-.65.45-.07.05-.14.1-.2.14-.04.03-.08.06-.12.09-.13.1-.26.19-.4.29-.52.38-1.05.78-1.57,1.2-.19.15-.38.3-.56.45,0,0,0,0,0,0-.18.14-.35.29-.53.43,0,0,0,0,0,0-.18.15-.35.29-.52.44-.13.11-.26.22-.39.33-.17.15-.35.3-.52.45,0,0,0,0,0,0-.07.06-.14.12-.21.18-.03.03-.07.06-.1.09-.3.27-.6.54-.9.81h0c-.19.17-.37.34-.55.51-.04.04-.08.08-.13.12-.15.14-.31.29-.46.44-.07.07-.14.14-.21.21-.1.1-.21.2-.31.3-.08.07-.15.15-.23.22-.16.16-.33.32-.49.48,0,0,0,0,0,0-.09.09-.19.19-.28.28,0,0,0,0,0,0,0,0,0,0,0,0,0,0,0,0,0,0-.12.12-.24.25-.36.37-.03.03-.06.06-.09.09-.13.13-.26.27-.39.4-.05.05-.1.11-.16.16-.07.08-.15.16-.22.23-.08.09-.16.17-.24.26-.05.05-.1.1-.14.15-.12.13-.25.27-.37.4,0,0,0,0,0,0,0,0,0,0,0,0-.14.16-.28.31-.42.46-.1.11-.2.22-.3.33-.12.14-.24.27-.36.41,0,0,0,0,0,0-.14.16-.28.32-.41.47,0,0,0,0,0,0,0,0,0,0,0,0,0,0,0,0,0,.01-.02.02-.03.04-.05.06,0,0,0,0,0,0-.07.09-.15.17-.22.26,0,.01-.02.02-.03.03-.06.08-.13.15-.19.23-.01.01-.02.03-.04.04-.06.07-.12.14-.18.21-.01.01-.02.03-.04.04-.06.07-.11.14-.17.21-.01.01-.02.03-.03.04-.06.07-.11.14-.17.21,0,.01-.02.02-.03.04-.06.07-.11.14-.17.21,0,0-.01.02-.02.03-.06.07-.11.15-.17.22,0,0,0,0-.01.01-.09.12-.17.23-.26.34-.02.03-.05.06-.07.09-.02.02-.03.04-.05.06l-2.1,2.88-2.1-2.88c-.05-.07-.11-.15-.16-.22-.02-.03-.04-.05-.06-.08-.04-.05-.07-.1-.11-.15-.02-.03-.05-.06-.07-.1-.03-.04-.07-.09-.1-.13-.03-.03-.05-.07-.08-.1-.03-.04-.07-.09-.1-.13-.03-.04-.06-.07-.09-.11-.03-.04-.07-.09-.1-.13-.03-.04-.06-.08-.09-.11-.04-.04-.07-.09-.11-.13-.03-.04-.06-.08-.09-.12-.04-.04-.07-.09-.11-.13-.03-.04-.07-.08-.1-.12-.04-.04-.07-.09-.11-.13-.03-.04-.07-.08-.1-.12-.04-.05-.08-.09-.11-.14-.03-.04-.07-.08-.1-.12-.04-.05-.08-.09-.12-.14-.03-.04-.07-.08-.11-.12-.04-.05-.08-.1-.12-.14-.04-.04-.07-.08-.11-.12-.04-.05-.09-.1-.13-.15-.04-.04-.07-.08-.11-.12-.05-.05-.09-.1-.14-.16-.03-.04-.07-.08-.1-.12-.05-.05-.1-.11-.15-.17-.03-.04-.07-.07-.1-.11-.06-.06-.11-.13-.17-.19-.03-.03-.05-.06-.08-.09-.11-.12-.22-.24-.34-.37-.06-.06-.12-.13-.18-.19-.17-.18-.34-.36-.51-.54,0,0,0,0,0,0-.16-.17-.32-.33-.48-.5-.14-.14-.28-.28-.42-.43-.03-.03-.06-.06-.09-.09-.25-.25-.5-.5-.76-.75-.03-.03-.06-.06-.1-.09-.13-.12-.26-.25-.38-.37,0,0,0,0,0,0h0c-.26-.25-.52-.5-.79-.75-.13-.13-.27-.25-.4-.38h0c-.15-.15-.3-.29-.45-.42-.15-.14-.3-.28-.46-.42-.18-.16-.35-.32-.53-.47-.02-.01-.03-.03-.05-.04-.17-.15-.34-.3-.51-.45-.03-.02-.05-.04-.08-.07-.17-.14-.33-.29-.5-.43-.03-.02-.06-.05-.09-.07-.17-.14-.34-.28-.51-.43-.02-.02-.04-.04-.06-.05-.18-.15-.36-.29-.54-.44,0,0-.01-.01-.02-.02-.18-.14-.36-.29-.54-.43-.01-.01-.03-.02-.04-.04-.18-.14-.35-.27-.53-.41-.03-.02-.05-.04-.08-.06-.17-.13-.34-.26-.51-.38-.03-.02-.06-.04-.09-.06-.13-.09-.26-.19-.39-.28-.07-.05-.14-.1-.2-.15-.18-.13-.35-.25-.53-.37-.01,0-.03-.02-.04-.03-.18-.12-.36-.24-.54-.36,0,0-.02-.01-.03-.02-.18-.12-.35-.23-.53-.35-.02-.02-.05-.03-.07-.05-.17-.11-.34-.21-.51-.32-.03-.02-.06-.04-.09-.05-.17-.1-.33-.2-.5-.3-.03-.02-.05-.03-.08-.05-.17-.1-.34-.19-.5-.29-.02-.01-.04-.02-.06-.03-.08-.04-.16-.09-.24-.13-.09-.05-.19-.1-.28-.15h0s-.06-.03-.08-.04c-.05-.03-.11-.05-.16-.08-.02-.01-.05-.03-.07-.04,0,0,0,0,0,0-.06-.03-.13-.07-.19-.1-.03-.01-.05-.03-.08-.04,0,0,0,0,0,0-.04-.02-.08-.05-.12-.07-.15-.08-.3-.17-.46-.27-.11-.06-.22-.13-.33-.19-.15-.09-.31-.19-.47-.28-.04-.02-.08-.05-.12-.07-.15-.09-.29-.18-.44-.27,0,0,0,0,0,0-.2-.12-.41-.25-.61-.37-.08-.05-.15-.09-.23-.14-.02-.01-.05-.03-.07-.04-.05-.03-.1-.06-.16-.09-.03-.02-.05-.03-.08-.05-.05-.03-.1-.06-.15-.09-.02-.01-.05-.03-.07-.04-.07-.04-.14-.08-.2-.12,0,0,0,0,0,0,0,0,0,0-.01,0-.17-.1-.34-.2-.51-.3-.06-.04-.12-.07-.18-.11-.11-.07-.23-.14-.34-.2-.07-.04-.14-.08-.2-.13-.1-.06-.2-.12-.3-.19-.07-.05-.14-.09-.21-.14-.09-.06-.19-.12-.28-.18-.07-.05-.14-.09-.22-.14-.09-.06-.18-.12-.27-.18-.07-.05-.14-.1-.22-.15-.09-.06-.17-.12-.26-.18-.07-.05-.14-.1-.21-.15-.09-.06-.17-.12-.25-.18-.07-.05-.14-.1-.21-.15-.08-.06-.17-.12-.25-.18-.07-.05-.14-.1-.2-.15-.08-.06-.16-.12-.24-.18-.07-.05-.13-.1-.2-.15-.08-.06-.16-.12-.24-.18-.06-.05-.13-.1-.19-.15-.08-.06-.16-.12-.24-.19-.06-.05-.12-.1-.18-.14-.08-.06-.16-.13-.24-.19-.06-.05-.11-.09-.17-.14-.08-.07-.16-.14-.25-.2-.05-.04-.1-.09-.16-.13-.09-.08-.18-.15-.27-.23-.04-.04-.08-.07-.12-.11-.13-.11-.26-.22-.38-.33-.09-.08-.17-.15-.26-.23h0c-.17-.15-.33-.3-.5-.45-.16-.15-.32-.3-.48-.45-.04-.04-.08-.07-.12-.11-.31-.3-.61-.59-.9-.88-.04-.04-.07-.07-.11-.11-.28-.29-.56-.58-.82-.86-.03-.04-.07-.07-.1-.11-.28-.3-.54-.59-.79-.88-.05-.06-.11-.12-.16-.18-.03-.04-.06-.07-.09-.11,0,0,0,0-.01-.01-.02-.02-.04-.05-.06-.07-.04-.05-.08-.1-.12-.14-.03-.04-.07-.08-.1-.12-.06-.08-.13-.15-.19-.23-.03-.03-.06-.07-.08-.1-.09-.1-.17-.21-.25-.31,0,0,0,0,0,0-.04-.05-.08-.1-.12-.16-.2-.25-.39-.5-.58-.74-.04-.05-.07-.09-.11-.14-.07-.1-.15-.2-.22-.29-.07-.09-.13-.18-.2-.27,0,0,0,0,0,0-.14-.2-.28-.39-.41-.57-.01-.02-.02-.03-.04-.05-.09-.13-.18-.26-.27-.39l-3.98,4-.55-1.17-1.02-2.2c-.06-.12-.12-.25-.18-.39-.02-.04-.04-.09-.06-.13,0-.02-.02-.04-.03-.06-.04-.08-.08-.17-.12-.25-.01-.03-.03-.06-.04-.09-.05-.11-.11-.23-.16-.35,0-.02-.02-.04-.03-.05-.05-.12-.11-.23-.16-.35,0-.01-.01-.02-.02-.04-.06-.12-.12-.25-.18-.38-.01-.03-.02-.05-.04-.08-.06-.13-.12-.26-.18-.4,0-.01-.01-.03-.02-.04-.06-.13-.12-.26-.17-.39-.01-.02-.02-.05-.03-.07-.06-.14-.12-.28-.18-.42-.01-.03-.02-.05-.04-.08-.06-.15-.13-.29-.19-.44-.05-.11-.1-.22-.14-.34-.01-.03-.03-.07-.04-.1-.02-.06-.05-.12-.07-.17,0-.02-.02-.04-.03-.07-.02-.04-.03-.08-.05-.12-.03-.07-.06-.15-.09-.22-.02-.04-.03-.08-.05-.13-.03-.08-.06-.15-.09-.23-.02-.04-.03-.08-.05-.12-.04-.09-.07-.19-.11-.28,0-.02-.02-.04-.03-.07,0,0,0,0,0-.01-.04-.11-.09-.22-.13-.33-.01-.03-.02-.07-.04-.1-.03-.08-.06-.17-.09-.25-.02-.04-.03-.08-.05-.13-.03-.07-.05-.15-.08-.22-.02-.04-.03-.09-.05-.13-.03-.07-.05-.15-.08-.22-.01-.04-.03-.08-.04-.13-.03-.08-.06-.16-.08-.25-.01-.03-.02-.07-.03-.1,0,0,0-.01,0-.02-.03-.11-.07-.21-.1-.32,0-.02-.01-.05-.02-.07-.03-.09-.06-.18-.08-.27-.01-.04-.02-.08-.03-.12-.02-.07-.04-.15-.06-.22-.01-.04-.02-.08-.04-.13,0-.03-.02-.07-.03-.1,0-.04-.02-.07-.03-.11-.01-.04-.02-.08-.03-.12-.02-.07-.04-.15-.05-.22,0-.04-.02-.07-.03-.11-.02-.1-.05-.21-.07-.31,0,0,0,0,0,0-.02-.07-.03-.14-.04-.21-.04-.19-.08-.38-.11-.58-.06-.35-.12-.7-.18-1.06,0-.06-.02-.12-.03-.18,0,0,0,0,0,0-.04-.28-.08-.57-.11-.86-.03-.23-.05-.47-.08-.71,0-.03,0-.07-.01-.1-.02-.23-.04-.46-.06-.69,0-.04,0-.09-.01-.13-.02-.23-.04-.46-.05-.7,0-.04,0-.07,0-.11,0-.09-.01-.18-.02-.28,0-.15-.02-.31-.02-.46,0,0,0,0,0,0,0-.08,0-.16,0-.24,0-.08,0-.16,0-.23-.02-.47-.03-.95-.03-1.43,0-.21,0-.43,0-.64,0-.11,0-.21,0-.32,0-.02,0-.03,0-.05,0-.31.01-.61.02-.92,0-.3.02-.61.04-.91,0-.03,0-.06,0-.09h0s0,0,0,0c0-.03,0-.05,0-.08.01-.21.02-.42.04-.63,0-.02,0-.04,0-.07.02-.25.03-.49.05-.74,0-.02,0-.04,0-.06.02-.22.04-.45.06-.67,0-.04,0-.07.01-.11.02-.21.04-.43.07-.64,0-.02,0-.04,0-.05,0-.03,0-.05,0-.08.03-.24.06-.48.09-.71,0,0,0,0,0,0h0s.84-6.55.84-6.55l3.36,4.7.48.67c.09.12.18.25.27.37.03.04.06.08.09.12.1.13.2.26.3.39.13.16.26.32.39.48,0,0,0,0,0,0,.13.16.27.32.41.48.03.04.07.07.1.11.09.1.18.2.27.3,0,0,.01.02.02.02.14.15.28.31.43.46,0,0,.02.02.03.03.12.13.25.26.37.39.06.06.12.12.18.18.09.09.19.19.28.28.09.09.18.17.26.26.07.07.15.14.22.21.08.07.16.15.23.22.39.36.78.72,1.19,1.07.05.04.09.08.14.12.16.14.32.27.48.41,0,0,0,0,0,0,.16.14.32.27.49.4.04.04.09.07.13.11.3.24.6.48.9.72.01.01.03.02.04.03.02.02.04.03.06.05.3.23.6.46.9.69,0,0,.02.01.02.02h.02c.07.06.14.12.21.17.11.08.22.16.34.25.06.04.11.08.17.12.09.06.18.13.27.19h0c-.07-.1-.14-.21-.21-.32,0,0,0,0,0,0-.13-.2-.26-.4-.39-.6,0,0,0,0,0,0,0,0,0,0,0-.01-.09-.14-.18-.28-.26-.43,0-.01-.02-.03-.03-.04-.08-.13-.15-.26-.22-.38-.08-.13-.15-.26-.22-.39-.07-.13-.14-.26-.22-.39-.07-.13-.14-.26-.21-.39-.07-.13-.14-.26-.2-.4-.07-.14-.14-.27-.2-.41-.06-.13-.13-.26-.19-.39-.07-.16-.15-.31-.22-.47,0-.02-.02-.04-.03-.06-.14-.05-.28-.09-.42-.15-.01,0-.02,0-.03-.01-.28-.1-.55-.22-.82-.35,0,0-.02,0-.03-.01-.12-.06-.25-.12-.37-.19-.01,0-.02-.01-.04-.02-.26-.14-.51-.28-.76-.44-.02-.01-.03-.02-.05-.03-.11-.07-.22-.14-.32-.22-.01,0-.03-.02-.04-.03-.12-.08-.24-.17-.35-.26,0,0,0,0,0,0-.11-.08-.21-.17-.32-.26-.02-.02-.05-.04-.07-.06-.09-.08-.19-.16-.28-.24-.01-.01-.03-.03-.04-.04-.1-.1-.21-.19-.31-.29-.02-.02-.03-.04-.05-.05-.08-.08-.16-.17-.24-.25-.03-.03-.05-.05-.08-.08-.08-.09-.16-.18-.24-.28-.01-.01-.02-.03-.03-.04-.09-.11-.18-.22-.26-.33-.02-.03-.04-.06-.07-.09-.06-.08-.13-.17-.19-.26-.02-.03-.05-.07-.07-.1-.08-.11-.16-.23-.23-.35,0,0,0,0,0,0-.23-.37-.48-.8-.71-1.31-.06-.14-.12-.28-.18-.43-.04-.1-.08-.2-.12-.3-.04-.1-.08-.21-.11-.32-.04-.11-.07-.22-.11-.33-.03-.11-.07-.23-.1-.34-.02-.06-.03-.12-.05-.18-.03-.12-.06-.24-.09-.36-.01-.06-.03-.12-.04-.19-.03-.13-.05-.25-.07-.38-.02-.13-.04-.26-.06-.39-.02-.13-.03-.27-.05-.41-.02-.21-.03-.42-.04-.64-.01-.36-.01-.73,0-1.12.01-.23.03-.47.05-.71.02-.16.04-.32.06-.49.22-1.57.74-3.32,1.7-5.24.05-.1.1-.2.15-.3.02-.03.03-.06.05-.09.04-.07.07-.14.11-.2.02-.04.04-.07.06-.11.04-.07.07-.13.11-.2.02-.04.04-.07.06-.11.04-.07.08-.14.12-.2.02-.03.04-.06.06-.1.05-.08.1-.16.15-.24.01-.02.03-.04.04-.06.13-.21.27-.41.41-.62.01-.02.02-.03.03-.05.06-.09.12-.17.18-.26.02-.02.03-.04.05-.06.06-.08.12-.17.18-.25.02-.02.03-.04.05-.06.07-.09.13-.18.2-.26.01-.01.02-.03.03-.04.32-.42.66-.84,1.02-1.25,0,0,.01-.01.02-.02.08-.1.17-.19.25-.29,0,0,.01-.02.02-.02.09-.1.18-.2.27-.3,0,0,0,0,0,0,0,0,0,0,0,0,.07-.35.15-.71.24-1.06,0-.02,0-.04.01-.06.04-.16.08-.32.11-.47.04-.16.08-.33.12-.49,0-.02,0-.04.01-.05.09-.33.18-.66.27-.99.02-.09.05-.17.07-.26.09-.31.18-.63.27-.94.01-.05.03-.1.04-.14.08-.27.16-.55.25-.82.04-.11.07-.23.11-.34.08-.24.16-.49.23-.73.05-.16.1-.32.16-.47.06-.18.12-.37.19-.55.05-.16.11-.31.16-.47.05-.14.1-.28.15-.42.11-.29.21-.59.32-.88.03-.09.07-.18.1-.27.08-.2.15-.4.23-.6,0-.02.02-.05.03-.07.17-.42.34-.84.51-1.26,0,0,0,0,0,0,0,0,0,0,0,0,0-.02.02-.04.03-.07.14-.33.28-.67.43-1,0,0,0,0,0,0,.14-.33.29-.66.44-.98-.45-.03-.89-.1-1.32-.2-.01,0-.02,0-.03,0-.1-.02-.2-.05-.3-.08-.01,0-.03,0-.04-.01-.32-.09-.63-.19-.93-.32,0,0-.01,0-.02,0h0c-.1-.04-.19-.08-.29-.13h0s-.06-.03-.09-.04c-.08-.04-.17-.08-.25-.12-.04-.02-.08-.04-.12-.06-.07-.04-.15-.08-.22-.12,0,0,0,0,0,0,0,0,0,0,0,0-.05-.03-.09-.05-.14-.08,0,0,0,0,0,0s0,0,0,0c-.07-.04-.13-.08-.2-.12h0s0,0,0,0c-.05-.03-.1-.07-.15-.1-.06-.04-.12-.08-.18-.12-.06-.04-.11-.08-.17-.12-.05-.04-.11-.08-.16-.12-.06-.05-.12-.09-.18-.14-.05-.04-.09-.07-.14-.11h0c-.05-.04-.1-.09-.15-.13-.02-.01-.03-.03-.05-.04-.04-.03-.07-.06-.11-.1h0c-.1-.09-.19-.19-.29-.28,0,0,0,0,0,0-.09-.09-.18-.19-.26-.28-.08-.1-.17-.19-.24-.29-.11-.14-.21-.28-.31-.43-.11-.17-.22-.33-.32-.51-.06-.11-.12-.22-.18-.33-.06-.11-.11-.22-.16-.34-.09-.21-.17-.42-.25-.63,0,0,0-.02,0-.03,0-.01,0-.02-.01-.04,0-.02-.01-.04-.02-.06-.03-.08-.05-.16-.07-.24,0-.03-.02-.06-.03-.1-.03-.11-.06-.22-.08-.32,0,0,0,0,0,0,0-.03-.01-.07-.02-.1-.02-.08-.03-.15-.05-.23,0,0,0,0,0,0,0-.02,0-.05-.01-.07,0,0,0,0,0,0,0-.03,0-.06-.01-.1-.01-.08-.03-.16-.04-.24-.01-.11-.02-.23-.03-.34,0-.02,0-.04,0-.06,0-.01,0-.03,0-.04,0-.08,0-.17-.01-.26,0-.01,0-.02,0-.03,0-.02,0-.04,0-.06,0-.12,0-.24,0-.35,0-.38,0-.77.06-1.14.02-.12.03-.25.06-.37.07-.39.17-.77.29-1.14.01-.04.03-.08.04-.12.03-.09.07-.19.11-.28.02-.05.04-.09.06-.14.01-.03.03-.07.04-.1.03-.06.05-.11.08-.17.02-.04.04-.08.06-.12.12-.24.25-.47.4-.7,0-.02.02-.03.03-.04.02-.04.05-.07.08-.11.06-.08.11-.17.17-.25.03-.04.06-.08.09-.12.02-.03.04-.06.07-.09.04-.05.08-.1.12-.15.03-.03.06-.07.09-.1.1-.11.19-.22.29-.32.1-.1.2-.2.3-.3.21-.19.42-.38.65-.55.23-.17.46-.33.7-.48.12-.07.24-.14.37-.21.25-.13.5-.26.77-.37.13-.05.26-.11.4-.16.12-.04.24-.08.36-.12,0,0,.01,0,.02,0,.02,0,.04-.01.06-.02.1-.03.2-.06.31-.09,0,0,.01,0,.02,0,0,0,.02,0,.03,0,.14-.04.29-.07.44-.1.15-.03.3-.06.46-.08.01,0,.02,0,.04,0,.08-.01.17-.02.25-.03.02,0,.04,0,.06,0,.03,0,.05,0,.08,0,0,0,.01,0,.02,0,.09,0,.18-.01.27-.02.03,0,.05,0,.08,0,.1,0,.2,0,.3-.01.05,0,.11,0,.16,0,.11,0,.23,0,.34,0,.01,0,.02,0,.03,0,.05,0,.1,0,.15,0,.05,0,.1,0,.15.01.03,0,.07,0,.1,0,.06,0,.11.01.17.02.03,0,.05,0,.08,0,.04,0,.08,0,.12.02.01,0,.03,0,.04,0,.05,0,.11.02.16.03.04,0,.07.01.11.02.04,0,.08.02.11.02.05.01.11.02.16.03.01,0,.02,0,.04,0,.06.01.11.03.17.04,0,0,.01,0,.02,0,.07.02.14.04.21.05.03,0,.06.02.09.03.03,0,.05.02.08.02.12.04.24.08.36.12,0,0,0,0,.01,0,.11.04.21.08.31.12,0,0,.02,0,.02,0,.01,0,.03.01.04.02.03.01.07.03.1.04.13.06.26.12.39.19.08.04.17.09.25.13.21.12.41.24.6.38.04.03.08.06.12.09.01,0,.02.02.03.02.07.05.14.1.2.15.03.02.06.05.09.07.05.04.1.08.15.12.08.07.16.14.24.22h3.19s0,0,0,0h0c.45-.5.91-1,1.37-1.48.06-.06.11-.12.17-.18.13-.13.25-.26.38-.39.18-.18.35-.35.53-.53.08-.07.15-.15.23-.22h0s0,0,0,0c.15-.14.29-.28.44-.42.07-.07.14-.13.21-.2.22-.2.43-.4.65-.59.23-.21.47-.41.71-.62,0,0,0,0,0,0,.07-.06.14-.12.22-.18.18-.15.36-.3.54-.45,0,0,0,0,0,0,0,0,0,0,0,0,.07-.06.14-.12.21-.17.14-.11.28-.22.42-.33.09-.07.18-.15.28-.22t0,0s0,0,0,0c.08-.06.17-.13.25-.19.16-.12.32-.24.47-.36,0,0,0,0,0,0,0,0,0,0,0,0,.11-.08.22-.17.33-.25.14-.1.27-.2.41-.3.21-.15.41-.29.62-.44.12-.08.23-.16.35-.24.15-.1.31-.21.46-.31.08-.06.17-.11.25-.17.17-.11.34-.22.51-.33,0,0,0,0,0,0h0s.02-.01.03-.02c0,0,0,0,0,0,0,0,0,0,0,0,.4-.26.81-.5,1.22-.75.01,0,.03-.02.04-.03.21-.12.42-.24.63-.36,0,0,0,0,0,0,0,0,0,0,0,0,.01,0,.03-.01.04-.02.32-.18.65-.36.97-.54,0,0,0,0,0,0,.33-.17.65-.34.98-.51h0s0,0,0-.01c0,0,0-.02-.01-.02-.08-.13-.17-.27-.25-.4,0,0,0,0,0,0,0,0,0,0,0,0-.04-.07-.08-.14-.13-.2,0,0,0,0,0,0t0,0c-.05-.08-.11-.17-.16-.26,0,0,0,0,0,0t0,0c-.05-.08-.1-.17-.15-.26,0,0,0-.01-.01-.02,0,0,0-.01-.01-.02-.04-.06-.07-.12-.11-.18-.09-.16-.19-.32-.28-.49l-.02-.03c-.16-.3-.31-.61-.45-.92-.05-.1-.09-.2-.13-.31-.06-.14-.11-.27-.17-.41-.07-.18-.14-.36-.21-.55-.13-.37-.24-.73-.34-1.1-.15-.55-.27-1.11-.35-1.66-.03-.19-.05-.37-.07-.56-.12-1.11-.11-2.24.04-3.36.04-.33.1-.66.17-.99.07-.33.15-.66.24-.99.27-.99.65-1.96,1.14-2.93.08-.16.16-.32.25-.48.17-.32.36-.64.55-.96.2-.32.4-.63.62-.95.11-.16.22-.31.34-.47l.02-.03h0s.03-.05.03-.05h0c.09-.12.19-.24.29-.35.01-.02.03-.03.04-.05.01-.01.02-.02.03-.04.09-.1.18-.19.27-.29.02-.02.04-.04.06-.06.1-.1.21-.21.32-.31.02-.02.03-.03.05-.05.12-.11.23-.21.36-.31,0,0,0,0,0,0,.05-.05.11-.09.16-.13,0,0,0,0,0,0h0c.06-.05.12-.1.19-.15.02-.01.04-.03.05-.04,0,0,.02-.01.03-.02,0,0,0,0,0,0,.05-.04.11-.08.16-.12,0,0,0,0,0,0,.06-.04.11-.09.17-.13.02-.02.05-.03.07-.05.03-.02.06-.04.09-.06.1-.07.19-.13.29-.19.02-.01.04-.02.06-.04.3-.19.62-.38.95-.54,0,0,0,0,0,0,0,0,0,0,0,0,0,0,.01,0,.02,0,0,0,0,0,0,0h0c.12-.06.24-.12.36-.18h0s0,0,0,0c.03-.01.06-.03.09-.04.08-.04.17-.08.25-.11.18-.08.36-.16.55-.23.03-.01.06-.02.09-.03.14-.05.28-.1.42-.15.03,0,.05-.02.08-.03.13-.05.27-.09.4-.13.02,0,.04-.01.05-.02.15-.04.29-.09.44-.12.03,0,.06-.02.1-.03.15-.04.3-.08.45-.11.02,0,.04,0,.06-.01.14-.03.28-.06.43-.09.03,0,.05-.01.08-.02.15-.03.3-.05.46-.08.03,0,.06,0,.1-.01.05,0,.1-.02.15-.02.11-.02.22-.03.33-.04.63-.1,1.31-.15,2.03-.15.18,0,.36,0,.53,0,.16,0,.31.01.46.02.05,0,.09,0,.13.01.11,0,.22.02.33.03.04,0,.09,0,.13.01.15.02.29.04.43.06.16.02.32.04.48.06.02,0,.05,0,.07.01.14.02.29.05.43.07.02,0,.03,0,.05.01h0c.19.04.39.08.58.12,0,0,0,0,0,0,0,0,0,0,0,0h0c.17.04.34.08.5.13.02,0,.05.01.07.02.16.04.31.09.47.14.03,0,.06.02.09.03.15.05.31.1.46.15.02,0,.05.02.07.03.16.06.32.12.47.18,0,0,0,0,0,0s0,0,0,0c.29.12.57.24.85.38.15.08.31.15.46.23,0,0,0,0,0,0,0,0,.02.01.03.02.11.06.22.12.32.18.2.12.4.24.6.37.03.02.06.04.08.06.11.07.22.15.33.23,0,0,0,0,0,0,.08.06.16.12.24.18.16.12.31.24.46.37.17.15.34.3.5.46.02.02.05.04.07.07.09.09.18.18.27.27,0,0,0,0,0,0,.09.09.17.19.26.28.02.02.04.05.06.07.08.1.16.19.24.29,0,0,0,0,0,0h.01s.02.04.02.04v.02s.03.02.03.02c.13.18.26.36.38.54.04.06.08.11.11.17.08.13.17.25.25.38.04.06.08.13.12.19.08.13.16.25.23.38.03.06.07.11.1.17.01.02.03.05.04.07.13.22.25.45.37.67.05.1.1.19.15.29.07.14.14.29.21.43,0,.02.02.03.02.05.02.04.03.07.05.11.13.29.25.57.36.86.07.19.14.37.2.56,0,0,0,0,0,0,.05.14.1.28.14.42.21.66.37,1.31.48,1.98.02.11.03.22.05.33,0,.06.02.11.03.17h0c.02.17.04.33.06.5,0,.04,0,.08.01.12.01.12.02.25.03.37,0,.04,0,.08,0,.11h0s0,.06,0,.09c0,.14.01.27.01.41h0s0,0,0,0c0,.04,0,.09,0,.13h0c0,.15,0,.3,0,.45h0c0,.05,0,.11,0,.16h0s0,.03,0,.05c0,.1,0,.19-.01.29,0,.05,0,.11,0,.16h0c0,.14-.02.28-.04.42,0,.07-.02.14-.02.21h0s0,0,0,0c0,0,0,.01,0,.02-.01.09-.02.18-.03.26,0,0,0,0,0,0,0,0,0,0,0,0-.02.11-.03.22-.05.33h0s0,0,0,0c-.01.08-.03.16-.04.24,0,0,0,0,0,0,0,0,0,0,0,0-.01.08-.03.17-.05.25h0c-.01.06-.03.13-.04.19,0,.01,0,.03,0,.04,0,0,0,0,0,0h0c-.03.13-.06.26-.09.39,0,0,0,0,0,0,0,0,0,0,0,0-.02.06-.03.13-.05.19-.02.09-.05.18-.07.27,0,0,0,0,0,0h0c.19,0,.38,0,.57.01.01,0,.03,0,.04,0,.18,0,.36.01.54.02,0,0,0,0,0,0h0s.04,0,.05,0c.18,0,.36.01.53.02h0s.04,0,.06,0c.18,0,.35.01.53.02h0s.03,0,.04,0c.18,0,.36.02.54.03h0s0,0,0,0h0c.27.01.54.03.81.05,0,0,.02,0,.03,0,.54.04,1.07.08,1.59.13,0,0,.01,0,.02,0,.26.02.52.05.77.08h0s.03,0,.05,0c.15.02.29.03.44.05,0,0,0,0,0,0h0s.06,0,.09.01c0,0,0,0,.01,0h0s0,0,0,0c.13.02.27.03.4.05,0,0,0,0,0,0h0s.09.01.13.02c0,0,0,0,0,0h0c.13.02.25.03.38.05.05,0,.1.01.15.02.12.02.24.03.36.05.05,0,.1.01.15.02h0s0,0,0,0c.12.02.23.03.35.05.05,0,.11.02.16.02.11.02.23.04.34.05.05,0,.1.02.15.03,0,0,0,0,0,0,0,0,0,0,0,0,.11.02.22.04.34.06,0,0,0,0,.01,0,.04,0,.08.01.12.02,0,0,0,0,0,0,0,0,0,0,0,0,.12.02.23.04.35.06.01,0,.03,0,.04,0,.27.05.55.1.81.16.02,0,.05,0,.07.01.09.02.19.04.28.06.06.01.13.03.19.04.08.02.17.04.25.06,0,0,0,0,0,0h0c.07.02.14.03.21.05,0,0,0,0,0,0,.08.02.16.04.23.06,0,0,0,0,0,0,0,0,0,0,0,0,.07.02.15.04.22.05.07.02.15.04.22.06.04.01.09.02.13.03.03,0,.06.02.1.02h0s0,0,0,0c.07.02.14.04.22.06.08.02.15.04.23.06.07.02.14.04.21.06,0,0,0,0,0,0,0,0,0,0,0,0,.08.02.16.04.23.07h0s0,0,0,0c.07.02.13.04.2.06.08.02.16.05.24.07,0,0,0,0,0,0,0,0,0,0,0,0,.06.02.12.04.19.06h0c.08.03.16.05.25.08.06.02.11.04.17.06.09.03.19.06.28.09.04.02.09.03.13.05,0,0,0,0,0,0,.14.05.27.09.41.14.56.2,1.11.42,1.64.66.35.16.7.32,1.03.48.17.08.33.17.5.26.49.26.97.53,1.42.82.76.48,1.47,1,2.13,1.55,1.45,1.22,2.65,2.62,3.6,4.2.09.14.17.29.25.44.49.88.91,1.81,1.25,2.8,0,0,0,0,0,0,.06.16.11.32.16.48.02.05.03.1.05.15.03.11.07.22.1.33,0,0,0,0,0,0,0,0,0,0,0,0,.02.06.03.12.05.18,0,0,0,0,0,0,0,0,0,0,0,0,.03.1.06.21.08.32.02.06.03.12.05.18,0,0,0,0,0,0h0c.03.11.05.22.08.33.01.05.03.11.04.16h0s0,0,0,0c.03.13.06.26.08.39,0,.02,0,.05.01.07,0,0,0,.01,0,.02t0,0h0c.03.17.06.34.09.5,0,.02,0,.05.01.07,0,0,0,0,0,0,.02.14.04.29.06.43h0s0,0,0,0c0,.05.01.09.02.14,0,0,0,0,0,0,0,0,0,0,0,0,.01.12.03.24.04.36,0,0,0,0,0,0s0,0,0,0c0,.05,0,.1.01.15,0,0,0,0,0,0s0,0,0,0c.01.12.02.24.03.36,0,0,0,0,0,0h0s0,.09.01.14c0,.13.02.27.02.4,0,.03,0,.06,0,.09h0c.01.34.02.69,0,1.03,0,.02,0,.04,0,.06,0,.15,0,.29-.02.44,0,.04,0,.07,0,.11,0,.13-.02.26-.03.4h0s0,0,0,0c0,.04,0,.08,0,.12h0s0,0,0,0c-.01.14-.02.27-.04.41,0,.03,0,.06-.01.1-.02.17-.04.33-.06.49,0,0,0,0,0,0h0c0,.41-.03.81-.09,1.2,0,0,0,0,0,0-.02.12-.04.23-.06.35,0,0,0,0,0,0-.02.12-.05.23-.08.34,0,0,0,0,0,.01-.03.11-.06.23-.09.34,0,0,0,0,0,0-.03.11-.07.22-.11.33,0,0,0,0,0,0h0s0,0,0,0c-.13.37-.29.73-.49,1.08,0,0,0,0,0,0,0,0,0,0,0,0-.06.16-.12.32-.18.48,0,0,0,0,0,0h0s-.02.04-.03.07c-.05.14-.11.27-.17.41-.01.03-.03.07-.04.1-.05.12-.11.25-.17.37,0,0,0,0,0,0,0,0,0,0,0,0-.01.02-.02.04-.03.07,0,.02-.01.03-.02.05,0,0,0,0,0,0-.07.16-.15.31-.23.47-.07.13-.13.26-.2.38,0,0,0,0,0,0,0,0,0,0,0,0-.02.04-.05.09-.07.13-.04.08-.09.16-.14.25-.03.05-.06.1-.09.16-.04.07-.08.14-.13.22-.03.06-.07.11-.1.17-.04.07-.08.13-.12.2,0,0,0,0,0,0,0,0,0,0,0,0-.04.06-.07.12-.11.17-.04.06-.08.12-.12.18-.04.06-.08.12-.12.18-.04.06-.08.11-.11.16-.04.06-.09.13-.13.19-.03.05-.07.09-.1.14-.05.07-.1.14-.15.21,0,0,0,0,0,0,0,0-.02.02-.02.03-.15.2-.31.4-.46.59,0,0,0,0-.01.01-.07.08-.14.16-.21.25-.02.03-.04.05-.06.08,0,0,0,0,0,0h0c-.07.08-.13.15-.2.23,0,0,0,0,0,0h0s-.05.06-.07.08c-.07.08-.14.15-.21.23-.03.03-.05.05-.08.08-.07.08-.14.15-.22.22-.02.02-.05.05-.07.07-.08.08-.15.15-.23.23-.02.02-.04.03-.05.05,0,0,0,0,0,0,0,0,0,0,0,0-.08.08-.17.16-.25.24t0,0h0c-.1.09-.19.18-.29.27-.11.1-.21.19-.32.28-.14.12-.28.24-.43.35,0,0,0,0,0,0,0,0,0,0,0,0-.03.02-.05.04-.08.06-.01.01-.03.02-.04.03-.11.09-.22.18-.34.26-.04.03-.07.06-.11.08-.14.1-.28.21-.42.31,0,0,0,0,0,0,0,0,0,0,0,0,0,0-.01,0-.02.01h0c-.16.11-.33.23-.5.33h0c-.01.09-.03.18-.05.27,0,.01,0,.02,0,.03h0s0,0,0,0c-.02.08-.04.16-.06.25,0,0,0,0,0,0,0,.01,0,.03,0,.04-.05.19-.11.38-.17.58,0,0,0,0,0,0h0s0,.02-.01.03c-.03.08-.06.17-.09.25-.01.03-.02.06-.04.09-.03.07-.06.13-.09.2-.01.03-.03.06-.05.1-.03.07-.07.13-.1.2t0,0s-.03.06-.05.09h0s0,0,0,0c-.05.1-.11.19-.17.29-.08.13-.16.25-.25.38,0,0,0,0,0,0-.09.12-.18.24-.27.36,0,0,0,0,0,0h0s0,0,0,0c0,0,0,0,0,0-.08.1-.17.21-.26.3-.04.04-.08.09-.12.13-.06.06-.11.12-.17.18-.05.05-.09.09-.14.13-.06.05-.11.11-.17.16-.05.04-.1.09-.15.13-.06.05-.12.1-.18.15h0s0,0,0,0c-.05.04-.1.08-.16.12-.05.04-.1.07-.14.11-.02.01-.03.03-.05.04,0,0,0,0,0,0,0,0,0,0,0,0-.05.04-.11.08-.16.11,0,0,0,0,0,0t0,0c-.07.05-.15.1-.22.15-.05.03-.1.07-.15.1-.1.06-.2.12-.31.18,0,0,0,0,0,0,0,0,0,0,0,0-.03.02-.06.04-.09.05h0s0,0,0,0c-.13.07-.27.14-.41.21-.05.02-.1.05-.16.07h0s0,0,0,0c-.09.04-.19.09-.28.13,0,0,0,0,0,0,0,0,0,0,0,0-.06.03-.12.05-.18.08,0,0,0,0,0,0h0c-.09.04-.18.08-.28.11,0,0,0,0,0,0h0c-.07.03-.13.05-.2.07-.09.04-.19.07-.29.1-.07.02-.13.05-.2.07-.1.03-.2.07-.31.1-.07.02-.13.04-.2.06-.12.03-.23.07-.35.1h0s0,0,0,0c-.06.02-.11.03-.17.05-.18.05-.36.09-.54.13,0,0,0,0,0,0-.17.04-.33.07-.51.1-.17.03-.35.06-.52.09-.22.04-.43.07-.64.1h0l-1.33.98-.45.34s.04,0,.06,0c.02,0,.04,0,.06,0,.02,0,.04,0,.06,0,.02,0,.05,0,.07,0,.02,0,.04,0,.06,0,.03,0,.05,0,.08,0h0s0,0,0,0c.02,0,.04,0,.06,0h0s.06,0,.1.01c.02,0,.04,0,.06,0,.05,0,.11.01.17.02h0s0,0,0,0c0,0,0,0,0,0,0,0,0,0,0,0,0,0,0,0,0,0,.05,0,.11.02.17.02.02,0,.04,0,.06,0,0,0,0,0,0,0h0s.09.01.13.02h0s0,0,0,0c.02,0,.05,0,.07.01.04,0,.09.01.13.02.02,0,.05,0,.07.01h0s.1.02.15.03c.02,0,.05,0,.07.01,0,0,0,0,0,0h0c.06.01.12.02.18.03h0s.03,0,.04,0c.08.01.16.03.24.05.01,0,.03,0,.04,0h0s0,0,0,0c.06.01.13.03.19.04.03,0,.05.01.08.02,0,0,0,0,0,0,0,0,0,0,0,0,.06.01.11.02.17.04h0s0,0,0,0c.03,0,.06.01.09.02.06.01.11.03.17.04.03,0,.06.01.09.02h0c.06.02.13.03.19.05.02,0,.05.01.07.02,0,0,0,0,0,0,.18.05.37.09.55.15,0,0,0,0,0,0,0,0,0,0,0,0h0s.05.01.08.02c0,0,0,0,0,0,0,0,0,0,0,0,.07.02.14.04.2.06t0,0h0s.07.02.1.03c0,0,0,0,0,0,0,0,0,0,0,0,.06.02.13.04.19.06.04.01.07.02.11.03.07.02.13.04.2.06.03.01.07.02.1.03.08.03.16.05.24.08.02,0,.04.01.07.02,0,0,0,0,0,0,.03.01.07.02.1.03.07.02.14.05.21.07h0s.04.02.07.02c0,0,0,0,0,0,0,0,0,0,0,0,.08.03.16.06.24.09.04.01.07.03.11.04h0c.07.03.14.05.21.08,0,0,0,0,0,0,0,0,0,0,0,0,.04.02.08.03.12.05.04.02.08.03.12.05.03.01.06.02.09.03,0,0,0,0,0,0,0,0,0,0,0,0,.04.02.08.03.12.05,0,0,0,0,0,0,0,0,0,0,0,0,.07.03.14.06.22.09,0,0,0,0,0,0h0s.07.03.1.04c0,0,0,0,0,0,0,0,0,0,0,0,.11.05.22.09.32.14,0,0,0,0,0,0,.22.1.43.2.65.31.05.03.1.05.16.08.21.11.42.21.62.32,0,0,0,0,0,0,.21.11.41.23.61.35.04.03.08.05.13.08.2.12.39.24.58.37,0,0,0,0,0,0,0,0,0,0,0,0,.23-.13.44-.25.66-.37,0,0,.01,0,.02,0,.05-.03.11-.06.17-.09,0,0,.01,0,.02-.01.12-.06.24-.12.36-.17.02,0,.03-.01.05-.02.04-.02.09-.04.13-.05.02,0,.04-.01.05-.02.05-.02.1-.03.15-.05.01,0,.02,0,.04-.01.06-.02.12-.03.19-.05.02,0,.03,0,.05,0,.05-.01.1-.02.15-.03.02,0,.04,0,.07,0,.05,0,.09-.01.14-.02.02,0,.04,0,.06,0,.07,0,.14,0,.21,0,1.2,0,2.29.35,3.16.95.07.05.13.09.2.14.32.25.61.53.86.85.05.06.1.13.15.19.56.79.89,1.74.91,2.8,0,.4-.03.82-.12,1.26l3.71,3.03-2.11,2.56s0,0,0,0c-.16.2-.33.4-.49.59-.02.02-.04.04-.05.06-.16.19-.33.39-.49.58-.02.02-.03.04-.05.06-.17.19-.33.38-.5.57-.01.01-.02.03-.04.04-.17.19-.34.38-.51.57h0c0,.08,0,.16,0,.24h0c0,.06,0,.12,0,.18,0,.1,0,.19,0,.29,0,0,0,0,0,0,0,0,0,0,0,0,0,.07,0,.14,0,.21,0,.11-.01.21-.02.32,0,.07-.01.13-.02.2,0,.07-.01.15-.02.22,0,0,0,0,0,0,0,0,0,0,0,0,0,.07-.01.14-.02.21,0,.08-.02.16-.03.24,0,0,0,0,0,0h0s0,0,0,0c-.01.12-.03.23-.05.35,0,0,0,0,0,0h0c0,.06-.02.13-.03.19h0s0,0,0,0c-.01.08-.03.16-.04.24,0,.06-.02.11-.03.17-.03.14-.05.29-.08.43,0,0,0,0,0,.01-.03.14-.06.29-.09.43,0,.04-.02.08-.03.12-.02.09-.04.19-.07.28,0,0,0,0,0,0,0,.02-.01.05-.02.07,0,0,0,.01,0,.02h0s0,0,0,0c-.08.31-.17.63-.27.94,0,.03-.02.05-.02.08,0,0,0,0,0,0h0c-.14.45-.3.89-.48,1.34,0,.01,0,.02-.01.04-.07.17-.14.33-.21.5,0,0,0,0,0,0-.07.17-.15.33-.22.5,0,0,0,0,0,.01-.05.11-.11.22-.16.34.06-.05.12-.1.17-.15.08-.06.15-.13.23-.19,0,0,0,0,.01,0,.09-.07.17-.15.25-.22.1-.09.2-.18.3-.26.04-.04.08-.08.13-.11.11-.1.23-.2.34-.31,0,0,.02-.02.03-.03.14-.13.28-.26.42-.39.14-.13.28-.27.42-.4t0,0s.04-.04.07-.06c.17-.17.34-.34.51-.51.03-.03.05-.05.08-.08.17-.17.33-.34.49-.51.07-.07.14-.15.21-.22.03-.04.07-.08.1-.11.06-.06.12-.13.18-.19h0s.05-.06.08-.09c.1-.11.2-.23.3-.34.07-.08.14-.16.21-.24.05-.06.1-.11.14-.17.06-.07.11-.14.17-.2.06-.07.11-.14.17-.21.01-.02.02-.03.04-.05.14-.17.27-.35.4-.52.06-.09.13-.17.19-.26l2.21-3.09,1.63-2.28h0l.45,3.5.39,3.05c.03.22.05.43.08.65,0,.05.01.1.02.15,0,.05.01.11.02.16.02.17.04.33.05.5,0,0,0,0,0,0,0,.03,0,.07,0,.1.01.14.02.27.04.41,0,.05,0,.1.01.16,0,.04,0,.09.01.13,0,.05,0,.11.01.16.02.21.03.42.05.63,0,.11.01.23.02.34,0,.06,0,.12.01.18,0,.05,0,.09,0,.14,0,.06,0,.11,0,.17,0,.15.01.31.02.46,0,0,0,0,0,0h0c0,.16.01.33.02.49,0,0,0,.01,0,.02,0,.16,0,.32.01.49h0c0,.32.01.65.01.97,0,.96-.02,1.92-.07,2.85"/>
          <polyline class="cls-3" points="93.75 78.98 93.76 78.97 95.87 76.42 93.76 78.97 93.75 78.98"/>
          <path class="cls-3" d="M99.96,84.93c.04.32.08.64.11.96,0-.05-.01-.11-.02-.16,0-.05-.01-.1-.02-.15-.03-.22-.05-.43-.08-.65l-.39-3.05-.45-3.5h0s-1.63,2.28-1.63,2.28l1.63-2.28.84,6.55Z"/>
          <path class="cls-3" d="M60.71,33.27h0s.03,0,.04,0c-.01,0-.03,0-.04,0"/>
          <path class="cls-3" d="M84.51,68.12c.23-.13.44-.25.66-.37-.22.12-.43.24-.66.37"/>
          <path class="cls-3" d="M67.14,87.4c.4-.06.77-.13,1.11-.2.13-.03.27-.07.43-.11-.15.04-.3.08-.43.11-.34.07-.71.14-1.11.2"/>
          <path class="cls-3" d="M63.38,86.09c-.13,0-.25,0-.38-.01.12,0,.25.01.38.01Z"/>
          <path class="cls-3" d="M84.5,68.12s0,0,0,0c0,0,0,0,0,0Z"/>
          <path class="cls-3" d="M55.52,15.54s-.03-.06-.04-.08c.03.08.07.15.1.23-.02-.05-.04-.1-.06-.15"/>
          <polyline class="cls-3" points="68.09 106.27 68.09 106.27 68.09 106.27 68.09 106.27"/>
          <path class="cls-3" d="M42.23,131.87c.14.13.27.25.4.38-.03-.03-.07-.07-.1-.1-.1-.09-.2-.19-.3-.28"/>
          <path class="cls-3" d="M44,133.56s-.06-.06-.1-.09c.26.25.51.5.76.75-.03-.03-.06-.06-.09-.09-.19-.19-.38-.38-.57-.56"/>
          <path class="cls-3" d="M80.92,103.91s.04-.03.06-.05c-.04.03-.08.06-.12.09.02-.01.04-.03.05-.04"/>
          <path class="cls-3" d="M76.01,106.84h-.04s-.05.03-.05.03l.08-.03s.01,0,.02,0c0,0-.01,0-.02,0,0,0,0,0,0,0"/>
          <path class="cls-3" d="M60.67,107.65s.1-.01.15-.02c-.05,0-.1.01-.15.02,0,0,0,0,0,0s0,0,0,0"/>
          <path class="cls-3" d="M14.98,110.46s.07.09.11.14c-.11-.15-.22-.29-.33-.43.07.1.14.19.22.29"/>
          <polyline class="cls-3" points="13.4 65.05 13.4 65.05 13.4 65.05 13.4 65.05 13.4 65.05"/>
          <path class="cls-3" d="M38.95,106.75s-.07-.02-.1-.03c.03,0,.07.02.1.03"/>
          <path class="cls-3" d="M35.52,105.68s0,0,0,0c-.04-.02-.09-.03-.13-.05.04.02.09.03.13.05,0,0,0,0,0,0"/>
          <path class="cls-3" d="M36.83,106.13s0,0,0,0c-.04-.01-.08-.03-.12-.04.04.01.08.03.12.04t0,0"/>
          <path class="cls-3" d="M9.67,83.29c-.23-.37-.48-.8-.71-1.31.23.51.48.94.71,1.31"/>
          <path class="cls-3" d="M36.18,108.38s.03,0,.05,0c-.21-.02-.42-.04-.63-.06.2.02.39.04.58.05"/>
          <path class="cls-3" d="M67.86,108.38c.06,0,.12-.01.17-.02-.13.01-.26.02-.39.04.07,0,.15-.01.22-.02"/>
          <path class="cls-3" d="M34.77,105.4s-.07-.03-.1-.04h0s.07.03.1.04"/>
          <path class="cls-3" d="M66.65,108.49s.05,0,.08,0c-.14.01-.28.02-.43.03.11,0,.23-.02.35-.03"/>
          <polyline class="cls-3" points="72.47 104.79 72.46 104.79 72.47 104.79 72.47 104.79"/>
          <path class="cls-3" d="M74.23,103.99s-.01,0-.02,0h0s.01,0,.02,0"/>
          <path class="cls-3" d="M67.47,106.44s.04-.01.06-.02c-.02,0-.04.01-.06.02h0s0,0,0,0"/>
          <path class="cls-3" d="M69.36,105.9s.04-.01.06-.02c-.02,0-.04.01-.06.02,0,0,0,0,0,0,0,0,0,0,0,0"/>
          <path class="cls-3" d="M62.89,107.36s-.09.01-.14.02c.05,0,.09-.01.14-.02h0"/>
          <path class="cls-3" d="M65.53,106.88s.02,0,.03,0c0,0-.02,0-.03,0h0"/>
          <path class="cls-3" d="M64.15,107.15s.08-.01.11-.02c0,0,0,0,0,0,0,0,0,0,0,0-.04,0-.08.01-.12.02h0s0,0,0,0"/>
          <path class="cls-3" d="M99.59,99.69c.11-.52.21-1.06.3-1.61,0,0,0,0,0,0,0,0,0,0,0,0-.09.56-.19,1.1-.3,1.61"/>
          <path class="cls-3" d="M95.99,108.99c-.07.14-.13.27-.18.39.06-.12.12-.25.18-.39"/>
          <polyline class="cls-3" points="90.19 108.88 90.2 108.87 90.2 108.87 90.19 108.88"/>
          <path class="cls-3" d="M60.03,37.35c.02-.11.04-.22.06-.33-.02.11-.04.22-.06.34v.28-.28s0,0,0,0"/>
          <path class="cls-3" d="M63.54,86.09c.63-.01,1.24-.09,1.83-.25-.6.15-1.2.23-1.83.25"/>
          <path class="cls-3" d="M26.32,100.89s0,0,0,0c-.01-.01-.03-.02-.04-.03.01,0,.03.02.04.03"/>
          <polyline class="cls-3" points="27.26 101.55 27.26 101.54 27.26 101.54 27.26 101.55"/>
          <path class="cls-3" d="M28.13,102.1s.07.04.1.06h0s0,0,0,0c-.03-.02-.07-.04-.1-.06,0,0,0,0,0,0,0,0,0,0,0,0"/>
          <path class="cls-3" d="M29.08,102.68s.08.05.13.07c-.04-.02-.09-.05-.13-.07,0,0,0,0,0,0,0,0,0,0,0,0"/>
          <polygon class="cls-3" points="21.67 102.64 21.67 102.64 21.99 102.37 21.67 102.64"/>
          <polyline class="cls-3" points="26.74 101.18 26.73 101.18 26.73 101.18 26.74 101.18"/>
          <path class="cls-3" d="M34.16,105.17s0,0,0,0c-.03-.01-.07-.03-.1-.04.03.01.07.03.1.04,0,0,0,0,0,0"/>
          <path class="cls-3" d="M32.24,104.34s0,0,0,0c-.05-.02-.1-.05-.15-.07.05.02.1.05.15.07,0,0,0,0,0,0"/>
          <path class="cls-3" d="M31.55,104.01c.06.03.11.06.17.08-.06-.03-.12-.06-.17-.08h0s0,0,0,0Z"/>
          <path class="cls-3" d="M32.76,104.58s0,0,0,0c-.01,0-.02-.01-.03-.02.01,0,.02.01.03.02,0,0,0,0,0,0"/>
          <path class="cls-3" d="M29.56,102.96s.09.05.14.08c-.05-.03-.1-.05-.14-.08,0,0,0,0,0,0,0,0,0,0,0,0"/>
          <path class="cls-3" d="M39.35,24.01c.14.31.29.61.45.92l.02.03-.02-.03c-.16-.3-.31-.61-.45-.92"/>
          <polyline class="cls-3" points="44.02 68.44 44.02 68.44 44.02 68.44 44.02 68.44"/>
          <polyline class="cls-3" points="42.25 67.49 44.02 63.08 42.25 67.49 42.25 67.49 42.25 67.49"/>
          <path class="cls-3" d="M25.6,105.66s.05.03.08.05c-.13-.08-.26-.16-.39-.24.1.07.21.13.31.19"/>
          <polygon class="cls-3" points="28.04 106.84 28.03 106.84 28.04 106.84 28.1 106.86 28.08 106.85 28.04 106.84"/>
          <path class="cls-3" d="M43.37,108.68s-.05,0-.07,0c-.09,0-.19,0-.29,0,.07,0,.15,0,.22,0,.14,0,.28,0,.41-.01,0,0,0,0,0,0-.08,0-.17,0-.26,0"/>
          <polygon class="cls-3" points="28.12 106.86 28.2 106.89 28.18 106.88 28.12 106.86"/>
          <path class="cls-3" d="M50.52,22.44s0,0,0,0c.01.03.03.06.04.1-.01-.03-.03-.06-.04-.09,0,0,0,0,0,0"/>
          <path class="cls-3" d="M4.09,97.65c0,.06.02.12.03.18,0-.06-.02-.12-.03-.18,0,0,0,0,0,0"/>
          <path class="cls-3" d="M3.72,93.61s0,0,0,0c0-.08,0-.16,0-.24,0,.08,0,.16,0,.24"/>
          <path class="cls-3" d="M49.13,20.1c.07.09.14.17.2.26-.06-.09-.13-.17-.2-.26,0,0,0,0,0,0"/>
          <path class="cls-3" d="M52,22.91s0,0,0,0c.06-.01.13-.03.19-.04-.06.01-.13.03-.19.04h0"/>
          <polyline class="cls-3" points="100.3 94.08 100.3 94.08 100.3 94.08 100.3 94.08"/>
          <path class="cls-3" d="M55.7,18.69c.02-.07.04-.14.06-.21.02-.08.04-.16.05-.25-.02.08-.03.16-.05.25-.02.07-.04.14-.06.21"/>
          <polyline class="cls-3" points="50.25 21.87 50.25 21.87 50.25 21.87 50.25 21.87"/>
          <path class="cls-3" d="M50.36,22.1s-.03-.05-.04-.08c.01.03.03.06.04.08,0,0,0,0,0,0h0Z"/>
          <path class="cls-3" d="M55.43,19.35c.03-.05.05-.1.08-.15,0,0,0,0,0,0-.02.05-.05.1-.08.15"/>
          <path class="cls-3" d="M50.65,22.76s0,0,0,0c.02.04.03.08.05.13-.02-.04-.03-.08-.05-.13,0,0,0,0,0,0"/>
          <path class="cls-3" d="M53.86,21.74h0s.03-.06.05-.09c-.02.03-.03.06-.05.09h0Z"/>
          <path class="cls-3" d="M49.78,21.02s0,0,0,0c.05.07.09.15.13.22-.04-.07-.09-.14-.13-.22,0,0,0,0,0,0"/>
          <path class="cls-3" d="M53.59,22.29s-.01.03-.02.04c0-.01.01-.03.02-.04,0,0,0,0,0,0h0Z"/>
          <path class="cls-3" d="M50.48,22.35s-.03-.07-.05-.11c.02.04.03.08.05.11,0,0,0,0,0,0h0Z"/>
          <path class="cls-3" d="M54.46,20.72s-.05.07-.07.11c.02-.04.05-.07.07-.11,0,0,0,0,0,0"/>
          <polyline class="cls-3" points="59.47 134.13 59.48 134.13 59.47 134.13 59.47 134.13"/>
          <polygon class="cls-3" points="60.03 107.72 60.03 107.72 60.03 108.66 60.03 108.66 60.03 108.66 60.03 107.72"/>
          <path class="cls-3" d="M61.74,108.69c-.11,0-.22,0-.33,0,.11,0,.22,0,.33,0,.16,0,.31,0,.47,0-.16,0-.31,0-.47,0h0"/>
          <path class="cls-3" d="M50.74,23s0,0,0,0c0,0,0,0,0,0,.02.06.05.13.07.19,0,0,0-.02,0-.02-.02-.05-.04-.11-.06-.16"/>
          <path class="cls-3" d="M87.86,54.88h0c-.11.1-.21.19-.32.28.11-.09.22-.19.32-.28"/>
          <path class="cls-3" d="M15.94,35.99s-.01,0-.02,0c.03,0,.05-.02.08-.02-.02,0-.04.01-.06.02"/>
          <path class="cls-3" d="M16.33,35.88s-.01,0-.02,0c.02,0,.03,0,.05-.01,0,0-.02,0-.03,0"/>
          <path class="cls-3" d="M42.63,108.69c-.11,0-.21,0-.32,0h0,0c.17,0,.33,0,.48,0,.08,0,.15,0,.23,0-.1,0-.2,0-.3,0-.03,0-.05,0-.08,0"/>
          <path class="cls-3" d="M38.56,108.57c-.38-.02-.77-.05-1.17-.08.4.03.79.06,1.17.08.18.01.36.02.53.03-.18,0-.35-.02-.53-.03,0,0,0,0,0,0"/>
          <path class="cls-3" d="M23.12,103.91c.08.07.17.13.25.2-.11-.09-.22-.17-.32-.26.02.02.05.04.07.06"/>
          <path class="cls-3" d="M21.86,102.82c.06.05.11.1.17.16.08.07.16.14.24.22-.08-.07-.17-.15-.24-.22-.06-.05-.11-.1-.17-.16"/>
          <path class="cls-3" d="M78.14,105.84s.05-.03.07-.04c-.05.03-.09.05-.14.08.02-.01.05-.03.07-.04"/>
          <path class="cls-3" d="M31.72,124.11h0c-.06-.03-.13-.07-.19-.1.07.04.13.07.19.1"/>
          <path class="cls-3" d="M31.45,123.97h0s-.08-.05-.12-.07c.04.02.08.05.12.07"/>
          <path class="cls-3" d="M32.05,124.28c.09.05.19.1.28.15-.09-.05-.19-.1-.28-.15h0Z"/>
          <path class="cls-3" d="M52.76,22.75h0s0,0,0,0c.23-.05.46-.09.7-.14,0,0,0,0,0,0,0,0,0,0,0,0-.23.04-.46.09-.7.14"/>
          <path class="cls-3" d="M44.02,108.66h0c-.06,0-.12,0-.18,0,.06,0,.12,0,.18,0"/>
          <path class="cls-3" d="M60.03,87.7v-2.51,2.51c.16.01.32.02.48.03-.06,0-.11,0-.17-.01-.1,0-.21-.01-.31-.02"/>
          <path class="cls-3" d="M24.34,104.83c-.21-.15-.43-.31-.65-.47.22.16.43.32.65.47"/>
          <path class="cls-3" d="M78.83,65.54s0,0,0,0c0,0,0,0,0,0,.06.02.13.04.19.06-.06-.02-.13-.04-.19-.06"/>
          <polygon class="cls-3" points="93.36 46.39 93.36 46.38 93.36 46.39 93.36 46.39"/>
          <polyline class="cls-3" points="85.54 56.92 85.54 56.92 85.54 56.92 85.54 56.92"/>
          <path class="cls-3" d="M93.91,42.79h0s0-.08,0-.12c0,0,0,0,0,0h0s0,.08,0,.12c0,0,0,0,0,0"/>
          <polyline class="cls-3" points="92.69 47.95 92.69 47.95 92.69 47.95 92.69 47.95"/>
          <polyline class="cls-3" points="91.8 49.86 91.8 49.86 91.8 49.86 91.8 49.86"/>
          <path class="cls-3" d="M92.28,48.9s0,0,0,0c0,0,0,0,0,0-.01.02-.02.05-.03.07.01-.02.02-.04.03-.07"/>
          <path class="cls-3" d="M93.82,38.97h0s0,0,0,0c0,.05.01.09.02.14,0-.05-.01-.09-.02-.14"/>
          <path class="cls-3" d="M93.89,39.63s0,0,0,0c0-.05,0-.1-.01-.15h0s0,0,0,0c0,.05.01.1.01.16h0"/>
          <path class="cls-3" d="M93.76,38.54s0-.05-.01-.07c0,.02,0,.05.01.07Z"/>
          <path class="cls-3" d="M93.96,40.63h0s0-.06,0-.09c0,.03,0,.06,0,.09h0Z"/>
          <path class="cls-3" d="M93.92,39.99h0s0,0,0,0c0,.05,0,.1.01.14,0-.05,0-.09-.01-.14"/>
          <polygon class="cls-3" points="89.33 53.41 89.33 53.41 89.32 53.41 89.33 53.41"/>
          <path class="cls-3" d="M87.11,55.52h0s0,0,0,0c-.03.02-.05.04-.08.06.03-.02.05-.04.08-.06"/>
          <polygon class="cls-3" points="88.15 54.61 88.15 54.61 88.15 54.62 88.15 54.61"/>
          <path class="cls-3" d="M86.09,56.28s.01,0,.02-.01c0,0,0,0,0,0,0,0,0,0,0,0,0,0-.01.01-.02.02h0"/>
          <path class="cls-3" d="M88.4,54.37s0,0,0,0c.02-.02.04-.03.05-.05-.02.02-.04.03-.05.05,0,0,0,0,0,0"/>
          <path class="cls-3" d="M93.66,37.97h0s0-.02,0-.02c0,0,0,.02,0,.02h0Z"/>
          <path class="cls-3" d="M89.53,53.17s.04-.05.06-.08c-.02.03-.04.05-.06.08h0"/>
          <path class="cls-3" d="M90.3,52.22h0s-.02.02-.02.03c0,0,.02-.02.02-.03"/>
          <path class="cls-3" d="M91.15,50.98s0,0,0,0c.04-.06.08-.13.12-.2-.04.07-.08.13-.12.2,0,0,0,0,0,0"/>
          <path class="cls-3" d="M71.65,22.1h0s0,0,0,0c.02,0,.03,0,.05,0-.01,0-.03,0-.05,0"/>
          <path class="cls-3" d="M72.13,22.15h0s0,0,0,0c.03,0,.06,0,.09.01-.03,0-.06,0-.09-.01"/>
          <path class="cls-3" d="M73.8,22.37h0c-.05,0-.1-.01-.15-.02.05,0,.1.01.15.02h0"/>
          <path class="cls-3" d="M72.76,22.23h0s-.09-.01-.13-.02c0,0,0,0,0,0,.04,0,.09.01.13.02h0"/>
          <path class="cls-3" d="M67.85,21.82h0s.03,0,.04,0c-.01,0-.03,0-.04,0"/>
          <path class="cls-3" d="M93.56,37.48h0c-.01-.06-.02-.11-.04-.16.01.06.03.11.04.17h0"/>
          <path class="cls-3" d="M65.78,20.65h0c-.01.06-.03.13-.04.19.01-.06.03-.13.04-.19"/>
          <polyline class="cls-3" points="65.73 20.89 65.73 20.89 65.73 20.89 65.73 20.89"/>
          <path class="cls-3" d="M74.15,22.42h0c.05,0,.11.02.16.02-.05,0-.11-.02-.16-.02"/>
          <path class="cls-3" d="M67.27,21.79h0s.04,0,.06,0c-.02,0-.04,0-.06,0"/>
          <path class="cls-3" d="M65.64,21.29s0,0,0,0c0,0,0,0,0,0-.02.06-.03.13-.05.19.02-.06.03-.13.05-.19"/>
          <path class="cls-3" d="M66.68,21.77h0s.04,0,.06,0c-.02,0-.04,0-.05,0"/>
          <path class="cls-3" d="M65.83,20.4c.01-.08.03-.16.04-.24,0,0,0,0,0,0,0,0,0,0,0,0-.01.08-.03.16-.04.24,0,0,0,0,0,0"/>
          <path class="cls-3" d="M74.8,22.52s0,0,0,0c-.05,0-.1-.02-.15-.03.05,0,.1.02.16.03,0,0,0,0,0,0"/>
          <polyline class="cls-3" points="79.71 23.66 79.71 23.66 79.72 23.66 79.71 23.66"/>
          <path class="cls-3" d="M93.32,36.49c-.02-.06-.03-.12-.05-.18,0,0,0,0,0,0,0,0,0,0,0,0,.02.06.03.12.05.18h0"/>
          <path class="cls-3" d="M93.45,36.99h0c-.02-.06-.03-.12-.05-.18.02.06.03.12.05.18h0"/>
          <path class="cls-3" d="M75.27,22.61s0,0,0,0c-.04,0-.08-.01-.12-.02.04,0,.09.02.13.02,0,0,0,0,0,0"/>
          <path class="cls-3" d="M77.48,23.06c-.07-.02-.14-.03-.21-.05h0s0,0,0,0c.07.02.14.03.22.05"/>
          <path class="cls-3" d="M78.39,23.28h0s-.06-.02-.1-.02c.03,0,.06.02.1.02h0"/>
          <path class="cls-3" d="M77.72,23.11s0,0,0,0c.07.02.15.04.22.05-.07-.02-.15-.04-.22-.05"/>
          <path class="cls-3" d="M79.28,23.53h0c-.08-.02-.15-.05-.23-.07,0,0,0,0,0,0,.08.02.16.04.23.07,0,0,0,0,0,0"/>
          <path class="cls-3" d="M91.61,82.16s0,0,0,0c0-.1,0-.19,0-.29,0,.1,0,.2,0,.3,0,0,0,0,0,0"/>
          <path class="cls-3" d="M91.5,83.56h0s0,0,0,0c0-.08.02-.16.03-.24,0,.08-.02.16-.03.25,0,0,0,0,0,0"/>
          <path class="cls-3" d="M65.92,19.83s0,0,0,0c.01-.09.02-.18.03-.26-.01.09-.02.18-.03.27,0,0,0,0,0,0"/>
          <polyline class="cls-3" points="65.96 19.54 65.96 19.54 65.96 19.55 65.96 19.54"/>
          <path class="cls-3" d="M91.55,83.1c0-.07.01-.15.02-.22,0,.07-.01.15-.02.22,0,0,0,0,0,0"/>
          <path class="cls-3" d="M91.42,84.09c0-.06.02-.12.03-.19,0,0,0,0,0,0h0c0,.06-.02.13-.03.19h0"/>
          <path class="cls-3" d="M81.33,66.43s0,0,0,0c-.07-.03-.14-.06-.22-.09,0,0,0,0,0,0,0,0,0,0,0,0,.07.03.15.06.22.09h0Z"/>
          <path class="cls-3" d="M80.99,66.29s0,0,0,0c-.03-.01-.06-.02-.09-.03.03.01.06.02.09.04,0,0,0,0,0,0"/>
          <path class="cls-3" d="M80.46,66.09h0s0,0,0,0Z"/>
          <polyline class="cls-3" points="80.67 66.16 80.67 66.16 80.67 66.16 80.67 66.16"/>
          <path class="cls-3" d="M91.62,81.69c0-.08,0-.16,0-.24,0,0,0,0,0,0,0,.08,0,.16,0,.24"/>
          <path class="cls-3" d="M80.11,65.96s0,0,0,0c0,0,0,0,0,0,.08.03.16.06.24.09-.08-.03-.16-.06-.24-.09"/>
          <path class="cls-3" d="M91.06,85.87s0-.01,0-.02c0,0,0,.01,0,.02h0"/>
          <polyline class="cls-3" points="81.43 66.48 81.43 66.48 81.43 66.48 81.43 66.48"/>
          <path class="cls-3" d="M100.34,89.76c0-.16-.01-.32-.02-.49h0s0,0,0,0c0-.15-.01-.31-.02-.46.02.32.03.65.04.97,0,0,0-.01,0-.02"/>
          <path class="cls-3" d="M90.77,86.88s.02-.05.02-.08c0,.03-.02.05-.02.08,0,0,0,0,0,0"/>
          <path class="cls-3" d="M100.29,88.63s0-.09,0-.14c0-.06,0-.12-.01-.18,0,.16.02.32.03.48,0-.06,0-.11,0-.17"/>
          <path class="cls-3" d="M80.04,65.93c-.07-.02-.14-.05-.21-.07.07.02.14.05.21.07h0"/>
          <path class="cls-3" d="M100.2,87.19s0-.09-.01-.13c0-.05,0-.1-.01-.16.01.15.03.3.04.45,0-.05,0-.11-.01-.16"/>
          <path class="cls-3" d="M100.13,86.39h0c-.02-.17-.03-.33-.05-.5.02.2.04.4.06.6,0-.03,0-.07,0-.1"/>
          <path class="cls-3" d="M91.96,87.53c-.14.13-.28.27-.42.4.14-.13.28-.27.42-.4t0,0"/>
          <path class="cls-3" d="M93.59,85.84c-.06.07-.12.13-.18.19.06-.06.12-.13.18-.19"/>
          <path class="cls-3" d="M77.62,65.22h0c.06.02.13.03.19.05-.06-.02-.13-.03-.19-.05"/>
          <path class="cls-3" d="M81.8,61.76s0,0,0,0c.1-.06.21-.12.31-.18-.1.06-.2.12-.31.18,0,0,0,0,0,0"/>
          <path class="cls-3" d="M81.71,61.81s0,0,0,0c-.13.07-.27.14-.41.21.14-.07.28-.14.41-.21"/>
          <path class="cls-3" d="M82.49,61.34s0,0,0,0c-.07.05-.15.1-.22.15.08-.05.15-.1.22-.15"/>
          <path class="cls-3" d="M80.86,62.23c.1-.04.19-.09.28-.13,0,0,0,0,0,0h0c-.09.04-.19.09-.29.13,0,0,0,0,0,0"/>
          <path class="cls-3" d="M82.84,61.08h0s-.1.07-.14.11c.05-.04.1-.07.14-.11"/>
          <polyline class="cls-3" points="82.65 61.22 82.65 61.22 82.65 61.22 82.65 61.22"/>
          <path class="cls-3" d="M80.39,62.42s0,0,0,0c.09-.04.19-.07.28-.11h0s0,0,0,0c-.09.04-.18.08-.28.11,0,0,0,0,0,0"/>
          <path class="cls-3" d="M84.2,59.77s0,0,0,0h0c-.08.1-.17.21-.26.31.09-.1.18-.2.26-.3"/>
          <polyline class="cls-3" points="85.3 57.79 85.3 57.78 85.3 57.79 85.3 57.79"/>
          <path class="cls-3" d="M83,60.95h0c.06-.05.12-.1.18-.15-.06.05-.12.1-.18.15,0,0,0,0,0,0"/>
          <polyline class="cls-3" points="78.84 62.92 78.85 62.92 78.84 62.92 78.84 62.92"/>
          <path class="cls-3" d="M84.88,58.74h0s.03-.06.05-.09c-.02.03-.03.06-.05.09,0,0,0,0,0,0"/>
          <path class="cls-3" d="M75.13,64.76h0s.06,0,.1.01c-.03,0-.06,0-.1-.01"/>
          <path class="cls-3" d="M77.26,65.14c-.06-.01-.11-.02-.17-.04,0,0,0,0,0,0,0,0,0,0,0,0,.06.01.11.02.17.04,0,0,0,0,0,0"/>
          <path class="cls-3" d="M76.82,65.04s0,0,0,0h0c.06.01.13.03.2.04-.06-.01-.13-.03-.19-.04"/>
          <path class="cls-3" d="M85.49,57.17h0s0,.03,0,.04c0-.01,0-.03,0-.04"/>
          <path class="cls-3" d="M77.88,65.28s0,0,0,0t0,0Z"/>
          <polyline class="cls-3" points="78.44 65.43 78.44 65.43 78.44 65.43 78.44 65.43 78.44 65.43"/>
          <path class="cls-3" d="M76.31,64.94h0s0,0,0,0c.06.01.12.02.18.03-.06-.01-.12-.02-.18-.03"/>
          <path class="cls-3" d="M78.73,65.51s0,0,0,0c-.07-.02-.14-.04-.2-.06,0,0,0,0,0,0,.07.02.14.04.21.06h0Z"/>
          <path class="cls-3" d="M75.82,64.86h0s-.09-.01-.13-.02h0s.09.01.13.02h0"/>
          <path class="cls-3" d="M75.45,64.81h0c-.06,0-.11-.02-.17-.02.05,0,.11.01.17.02h0"/>
          <path class="cls-3" d="M75.06,64.76s-.05,0-.08,0c.03,0,.05,0,.08,0h0"/>
          <path class="cls-3" d="M76.1,64.91h0s.1.02.15.03c-.05,0-.1-.02-.15-.03"/>
          <path class="cls-3" d="M75.46,64.81s0,0,0,0c0,0,0,0,0,0,.06,0,.11.02.17.02-.06,0-.11-.02-.17-.02"/>
          <path class="cls-3" d="M10.65,46.27s0,.02,0,.03c0-.02-.02-.04-.02-.06,0,.01,0,.02.01.04"/>
          <path class="cls-3" d="M10.35,45.12s0,0,0,0c0-.03,0-.06-.01-.1,0,.03,0,.06.01.1"/>
          <path class="cls-3" d="M10.37,45.19c.01.08.03.15.05.23-.02-.08-.03-.15-.05-.23,0,0,0,0,0,0"/>
          <path class="cls-3" d="M41.31,131.03c.15.14.31.28.46.42-.05-.05-.1-.09-.15-.14-.1-.09-.21-.19-.31-.28"/>
          <path class="cls-3" d="M12.38,49.11c.09.1.19.19.29.28h0c-.1-.09-.2-.19-.29-.29,0,0,0,0,0,0"/>
          <path class="cls-3" d="M12.97,49.66h0s0,0,0,0c-.05-.04-.1-.09-.15-.13.05.04.1.09.15.13"/>
          <path class="cls-3" d="M14.14,50.49s0,0,0,0c.05.03.09.05.14.08,0,0,0,0,0,0s0,0,0,0c-.05-.03-.1-.05-.14-.08,0,0,0,0,0,0"/>
          <path class="cls-3" d="M14.95,50.91h0s-.06-.03-.09-.04c.03.01.06.03.09.04"/>
          <path class="cls-3" d="M13.94,50.37s0,0,0,0h0c-.05-.03-.1-.07-.16-.1.05.03.1.07.15.1"/>
          <path class="cls-3" d="M10.25,44.05s0,.02,0,.03c0-.03,0-.06,0-.09,0,.02,0,.04,0,.06"/>
          <path class="cls-3" d="M10.27,44.38s0,.04,0,.06c0-.03,0-.07,0-.1,0,.01,0,.03,0,.04"/>
          <path class="cls-3" d="M57.49,136.2s0,0,0,0c-.14.16-.28.31-.42.46.14-.15.28-.31.42-.46"/>
          <polyline class="cls-3" points="26.96 37.63 26.96 37.63 26.96 37.63 26.96 37.63 26.96 37.63"/>
          <path class="cls-3" d="M19.18,35.63c-.05,0-.1,0-.15-.01.08,0,.17.01.25.02-.03,0-.07,0-.1,0"/>
          <path class="cls-3" d="M17.96,35.62c-.09,0-.18.01-.27.02,0,0-.01,0-.02,0,.12-.01.24-.02.37-.03-.03,0-.05,0-.08,0"/>
          <path class="cls-3" d="M19.96,35.73s-.07-.01-.11-.02c.07.01.15.03.22.04-.04,0-.08-.02-.11-.02"/>
          <path class="cls-3" d="M18.88,35.61s-.02,0-.03,0c-.11,0-.23,0-.34,0h0c-.05,0-.11,0-.16,0,.05,0,.11,0,.16,0,.13,0,.25,0,.37,0"/>
          <path class="cls-3" d="M21.59,36.22s-.03-.01-.04-.02c0,0-.02,0-.02,0,.05.02.11.04.17.07-.03-.01-.07-.03-.1-.04"/>
          <path class="cls-3" d="M19.65,35.68s-.08-.01-.12-.02c-.03,0-.05,0-.08,0,.08,0,.16.02.24.03-.01,0-.03,0-.04,0"/>
          <path class="cls-3" d="M20.44,35.83c-.06-.01-.11-.03-.17-.04-.01,0-.02,0-.04,0,.08.02.15.03.22.05,0,0-.01,0-.02,0"/>
          <path class="cls-3" d="M20.76,35.92s-.06-.02-.09-.03c.06.02.12.03.17.05-.03,0-.05-.02-.08-.02"/>
          <path class="cls-3" d="M17.53,35.65c-.08,0-.17.02-.25.03-.01,0-.02,0-.04,0,.11-.02.23-.03.34-.04-.02,0-.04,0-.06,0"/>
          <polyline class="cls-3" points="56 137.88 56.01 137.87 55.99 137.89 56 137.88"/>
          <path class="cls-3" d="M14.4,36.64c.25-.13.5-.26.77-.37-.26.11-.52.23-.77.37"/>
          <path class="cls-3" d="M17.78,92.08c.07.11.14.22.21.32,0,0,0,0,0,0-.09-.06-.18-.13-.27-.19.09.07.18.13.27.2-.07-.11-.14-.22-.21-.32"/>
          <path class="cls-3" d="M17.39,91.46s0,0,0,.01c0,0,0,0,0,0-.09-.15-.18-.29-.27-.44.09.14.17.28.26.43"/>
          <path class="cls-3" d="M66.02,18.92h0c0,.14-.02.28-.04.42.01-.14.03-.28.04-.42"/>
          <path class="cls-3" d="M3.68,90.7s0,.03,0,.05c0-.32.01-.65.02-.97,0,.31-.02.61-.02.92"/>
          <path class="cls-3" d="M16.61,112.48s.06.07.09.11c.05.06.11.12.16.18-.09-.1-.18-.2-.26-.3,0,0,0,0,.01.01"/>
          <path class="cls-3" d="M16.41,112.25s.08.1.12.14c-.07-.09-.15-.17-.22-.26.03.04.06.08.1.12"/>
          <path class="cls-3" d="M20.67,116.61c.09.08.17.15.26.23-.09-.08-.17-.15-.26-.23h0"/>
          <path class="cls-3" d="M3.74,88.78h0s0,.06,0,.09c0-.06,0-.11,0-.17,0,.03,0,.05,0,.08"/>
          <path class="cls-3" d="M3.99,85.73s0,.04,0,.05c0-.04,0-.09.01-.13,0,.03,0,.05,0,.08"/>
          <polygon class="cls-3" points="4.93 78.39 4.08 84.93 4.08 84.93 4.08 84.94 4.08 84.93 4.93 78.39"/>
          <path class="cls-3" d="M16.99,53.71s0,0,0,0c0,0,0,0,0,0,0-.02.02-.05.03-.07,0,.02-.02.04-.03.07"/>
          <path class="cls-3" d="M65.93,16.07s0,0,0,0c.02.17.04.33.06.5-.02-.17-.03-.33-.06-.5"/>
          <path class="cls-3" d="M65.23,13.17s0,0,0,0c.05.14.1.28.14.42-.04-.14-.09-.28-.14-.42"/>
          <path class="cls-3" d="M64.62,11.64s-.02-.03-.02-.05c.03.05.05.11.07.16-.02-.04-.03-.07-.05-.11"/>
          <path class="cls-3" d="M66.05,17.67c0-.14,0-.27-.01-.41,0,.14.01.27.01.41Z"/>
          <polyline class="cls-3" points="40.66 26.39 40.66 26.39 40.66 26.39 40.66 26.39"/>
          <polyline class="cls-3" points="40.53 26.18 40.53 26.18 40.53 26.18 40.53 26.18"/>
          <path class="cls-3" d="M38.93,27.9s0,0,0,0c.01,0,.03-.02.04-.02-.01,0-.03.01-.04.02"/>
          <path class="cls-3" d="M66.03,17.17s0-.08,0-.11c0,.04,0,.08,0,.11h0Z"/>
          <path class="cls-3" d="M74.94,122.56c-.13.08-.26.16-.39.24.13-.08.26-.16.39-.24.14-.08.27-.17.41-.25.16-.1.31-.19.46-.28-.15.09-.3.18-.46.28-.13.08-.27.16-.41.25"/>
          <path class="cls-3" d="M40.2,25.65s0,.01.01.02c.05.09.1.17.15.26,0,0,0,0,0,0,0,0,0,0,0,0-.06-.1-.12-.2-.18-.3,0,0,0,.01.01.02"/>
          <path class="cls-3" d="M40.92,26.81s0,0,0,.01c0-.01-.02-.02-.02-.04,0,0,0,.02.01.02"/>
          <path class="cls-3" d="M68.83,126.2s0,0,0,0c-.22.15-.43.3-.65.45.22-.15.43-.3.65-.45"/>
          <path class="cls-3" d="M73.54,123.42s.07-.04.11-.07c-.05.03-.1.06-.15.09.01,0,.03-.02.04-.02"/>
          <polyline class="cls-3" points="34.06 31.09 34.06 31.09 34.06 31.09 34.06 31.09"/>
          <path class="cls-3" d="M66.05,18.25h0c0-.15,0-.3,0-.45h0c0,.15,0,.3,0,.45h0"/>
          <path class="cls-3" d="M32.42,32.37c-.18.15-.36.3-.54.45.18-.15.36-.3.54-.45,0,0,0,0,0,0"/>
          <path class="cls-3" d="M66.04,18.41h0s0,.03,0,.05c0-.02,0-.03,0-.05"/>
          <path class="cls-3" d="M33.33,31.65c-.09.07-.18.15-.28.22.09-.07.18-.15.28-.22h0"/>
          <path class="cls-3" d="M70.11,125.36c.19-.12.38-.23.57-.35-.19.11-.38.23-.57.35,0,0,0,0,0,0"/>
          <path class="cls-3" d="M72.86,123.82h0s0,0,.01,0c-.01,0-.03.02-.04.02,0,0,.02,0,.03-.01"/>
          <polyline class="cls-3" points="72.24 124.15 72.25 124.15 72.24 124.16 72.24 124.15"/>
          <polygon class="cls-3" points="29.65 34.84 29.65 34.84 29.65 34.83 29.65 34.84"/>
          <polyline class="cls-3" points="37 29.06 37 29.06 37 29.06 37 29.06"/>
          <path class="cls-3" d="M57.37,83.87c-1.45,1.18-2.87,1.88-4.32,2.12,1.39.6,2.85,1.05,4.38,1.35v-3.52s-.04.04-.06.05"/>
          <path class="cls-3" d="M84.62,96.47c-1.16,1.14-2.16,1.95-2.72,2.37l1.67,1.42,2.43,2.06c-.97,1.87-5.91,6-9.26,7-1.56.59-3.34,1.05-5.36,1.3-10.18,1.23-13.96.39-13.96.39v-3.05c-1.75.13-3.56.21-5.45.26-.06,0-.12,0-.18,0-.41.01-.82.02-1.22.02-1.35,0-2.68-.06-4.01-.17v2.95c-.41.08-4.31.77-13.92-.39-2.02-.24-3.8-.71-5.36-1.3-3.34-1-8.29-5.13-9.26-7l4.65-3.94c-4.73-2.52-12.11-7.63-16.04-13.11-.01.11-.03.21-.04.32,0-.02,0-.05,0-.07-.56,4.43-.53,9.72.35,13.79.64,2.96,2.76,7.1,3.69,9.1,0,0,0,0,0,.01l3.65-3.68c.07.06,4.28,8.94,14.88,15.03,1.3.75,3.03,1.9,3.98,2.35,6.95,3.62,15.29,11.92,18.81,16.76,3.53-4.84,11.87-13.14,18.81-16.76.96-.46,2.68-1.61,3.98-2.35,10.61-6.09,14.87-14.91,14.87-14.92l3.74,3.56s0-.01,0-.02c.93-2,3.01-6.29,3.65-9.26.88-4.1.91-9.43.34-13.88-3.1,4.34-8.36,8.43-12.77,11.21"/>
          <path class="cls-3" d="M43.19,25.76c.65-.29,1.31-.56,1.98-.81.2-.07.39-.15.59-.22.84-.31,1.69-.6,2.55-.86-.27-.71-.62-1.45-1.2-2.16-2.23-2.62-1.85-6.4-.2-8.53.02-.03.04-.05.06-.08l.06.05c1.55-1.76,4.36-1.83,4.96-1.82.62,0,3.6.07,5.11,2.01,1.11,1.43,1.64,3.61,1.19,5.69-.23.95-.67,1.87-1.36,2.68-.11.13-.21.27-.3.41.03,0,.06,0,.09-.01,1.17-.14,2.35-.25,3.54-.31.79-.04,1.59-.07,2.39-.08.05,0,.1,0,.15,0,1.46-4.31.31-8.37-2.28-11.9-1.62-2.05-4.35-3.16-6.83-3.44-.5-.08-1.07-.12-1.68-.12-.61,0-1.18.04-1.68.12-2.49.28-5.21,1.39-6.83,3.44-1.31,1.79-2.25,3.72-2.68,5.74-.07.33-.14.67-.18,1.01-.06.44-.09.88-.1,1.33,0,.3,0,.6.02.9.04.6.12,1.21.26,1.82.24,1.07.64,2.16,1.22,3.27.35.64.74,1.26,1.14,1.88"/>
          <path class="cls-3" d="M34.43,58.97c-.06-1.83-.01-3.67.15-5.51.12-1.33.32-2.6.6-3.81h-11.41c-.5.46-1.05.85-1.65,1.16-.12.05-.23.09-.35.13-1.63,3.22-3,6.67-4.09,10.3,2.64-1.9,6.45-3.92,10.74-3.92,1.82,0,4.2.67,6.01,1.65"/>
          <path class="cls-3" d="M88.1,84.57c-1.45.95-3.02,1.52-4.81,1.52-1.25,0-2.36-.36-3.25-.98l-.28.56h-1.37c-2.69,2.24-5.77,3.28-5.77,3.28-1.4.72-2.72,1.12-3.67,1.35-1.33.29-2.86.47-4.74.6-7.01.47-12.83-1.44-17.41-4.89-.33.05-.67.07-1,.07-1.64,0-3.11-.53-4.21-1.5-1.56,1.01-2.99,1.19-4.66,1.19l-3.67-.1h-7.03c-1.93,1.62-4.35,2.51-7.03,2.58,5.86,10.83,18.32,17.13,32.52,16.78,12.3-.31,20.62-1.99,27.91-8.49.03-.02,6.84-4.7,8.46-11.97"/>
          <path class="cls-3" d="M63.92,29.83c6.84-.27,12.22.12,16.55,5.08,2.63,3.01,2.05,5.58.57,8.16,1.98.59,3.61,1.54,4.86,2.87,1.22,1.29,1.85,2.7,2.17,3.92,2.65-3.8,3.53-8.76,1.88-13.47-3.36-9.66-15.05-11.59-27.26-11.47-12.84.13-23.4,4.87-31.34,12.71h10.81c5.59-5.05,13.57-7.48,21.76-7.79"/>
          <path class="cls-3" d="M69.97,75.85l-.06.07c-1.59,1.93-2.81,3.13-3.93,3.14-.2,0-.37-.1-.48-.28-.02-.04-.05-.09-.08-.16,0,0,0-.02,0-.03,0-.01,0-.03-.01-.04-.09-.33-.1-.93.39-1.93.86-1.69,2.71-3.36,3.74-4.19l.26-.21h0s0,0,0,0l-.25-.24c-.42-.41-1.03-1.34-1.31-1.99l-.16-.37h0s0,0,0,0l-.32.25c-.69.55-2.51,1.31-3.9,1.31-.07,0-.13,0-.2,0,.23-.63.34-1.16.37-1.6-.15.02-.31.04-.47.05l-.79.08c-.46.67-1,1.36-1.65,2.05-.18.19-.38.39-.58.58-.08.07-.15.14-.23.21.07.1.14.2.22.29-.51.88-1.2,1.79-2.14,2.93l-.25.3c-2.49,3.01-3.3,3.63-3.78,3.63-.01,0-.02,0-.03,0,0-.07,0-.3.28-.87l1.72-3.47c-.85.38-1.82.66-3.23.99-.34.08-.66.15-.98.2-.28.05-.55.09-.81.11-.12.01-.25.03-.37.04-.84,1.72-2,2.97-2.77,2.97-.3,0-.42-.14-.48-.24-.02-.03-.04-.07-.05-.11,0-.01,0-.02-.01-.04-.01-.03-.02-.06-.03-.09,0-.04-.02-.08-.02-.12,0,0,0-.01,0-.02-.08-.58.11-1.48.5-2.42-.82-.12-1.28-.29-1.28-.29l.65-.82c.21-.41.53-1,.94-1.58l-2.71-1.51c-.95.93-1.73,2.04-2.29,3.14-.17.33-.31.67-.44,1-2.16,2.57-2.9,3.12-3.35,3.12,0,0-.01,0-.02,0,0-.08.01-.31.3-.88.23-.47.56-1.05.92-1.66.41-.71.88-1.52,1.26-2.3.57-1.14.86-2.06.85-2.72,0-.3-.06-.57-.17-.81-.34-.82-1.2-1.31-2.37-1.31,0,0,0,0,0,0,0,0,0,0,0,0-1.03,0-2.12.36-3.15,1.02l4.09-8.03h-4.87l-9.85,19.86h4.86l2.74-5.5c1.73-3.45,2.72-3.85,3.33-3.85.1,0,.16.02.17.04,0,0,.11.19-.23.89-.24.48-.62,1.09-1.01,1.73-.5.82-1.07,1.76-1.5,2.61-.48.95-.7,1.66-.69,2.23.03,1.39.97,2.26,2.46,2.26,1.36,0,2.63-.5,4-1.58.52-.41,1.06-.9,1.66-1.52.07.67.25,1.26.55,1.73.57.9,1.54,1.37,2.8,1.37s2.51-.56,3.66-1.59c.3,1.09,1.39,1.59,2.46,1.59,1.18,0,2.35-.5,3.66-1.58,1.08-.88,2.3-2.18,4.05-4.29h0s.13-.15.13-.15c.02-.03.04-.05.07-.08l.17-.21c.53-.64,1.49-1.83,2.35-3.17.21.03.42.05.66.05.31,0,.62-.05.91-.12-1.42,1.34-2.42,2.6-3.03,3.82-.84,1.65-.92,3.3-.22,4.4.54.85,1.5,1.32,2.71,1.32,1.29,0,2.42-.45,3.65-1.41l-.49.99h4.86l2.74-5.5c1.92-3.85,2.98-3.85,3.33-3.85.1,0,.15.02.15.03,0,0,.12.2-.3,1.04l-4.17,8.28h4.87l2.74-5.5c1.34-2.66,2.36-3.85,3.33-3.85.1,0,.16.02.17.04.04.06.04.33-.23.89-.24.48-.62,1.09-1.01,1.73-.5.82-1.07,1.76-1.5,2.61-.48.95-.7,1.66-.69,2.23.03,1.39.97,2.26,2.46,2.26,2.76,0,4.96-2.06,8.3-6.11l.33-.4h0s0,0,0,0l-1.52-1.24h0s0,0,0,0l-.33.4c-1.61,1.95-3.19,3.76-3.81,3.77-.07,0-.1-.01-.11-.02,0-.05-.02-.27.34-.95.25-.51.61-1.14.99-1.8.4-.69.8-1.4,1.16-2.1.59-1.18.86-2.03.85-2.7,0-.32-.07-.61-.19-.87-.34-.77-1.14-1.25-2.18-1.25,0,0,0,0,0,0,0,0,0,0,0,0-1.48,0-2.95.6-4.28,1.73-.02-.11-.05-.22-.09-.32,0-.02-.01-.03-.02-.05,0-.02-.01-.03-.02-.05-.33-.81-1.14-1.31-2.21-1.31h0s0,0,0,0c-1.27,0-2.49.41-3.63,1.22l.37-.8h-4.52l-2.7,5.43Z"/>
          <path class="cls-3" d="M26.75,80.35c.58-1.25.78-2.95.5-4.34l-.05-.27-2.34.19.08.34c.11.51.1,1.34,0,1.68-.29,1.2-1.33,1.89-2.84,1.89s-2.6-.66-3.38-1.91c-1.35-2.17-1.22-5.62.33-8.79,1.88-3.76,5.88-6.49,9.51-6.49.81,0,1.43.3,1.75.83.32.54.31,1.25-.05,1.91-.53,1-1.8,1.82-2.84,1.82-.42,0-.8-.18-1.06-.5-.32-.39-.44-.93-.32-1.5l.08-.41-.41.05c-1.59.18-3.15,1.69-3.57,2.69-.47,1.13-.38,2.36.24,3.29.62.93,1.69,1.45,3.01,1.45,2.48,0,5.72-2.02,7.08-4.42,1.16-2.04,1.33-4.07.45-5.58-.8-1.38-2.39-2.13-4.47-2.13-1.61,0-3.31.37-5.06,1.1-1.57.66-3.14,1.59-4.67,2.77-2.76,2.13-5.16,4.91-6.41,7.44-2.6,5.19-1.31,8.68-.31,10.3,1.43,2.32,3.97,3.7,6.79,3.7,5.08,0,7.25-3.57,7.94-5.1"/>
          <path class="cls-3" d="M50.88,70.01s0,0,0,0c-1.74,0-3.37.81-4.72,1.99,1.31-.12,3.63-.49,6.27-1.64-.43-.23-.96-.36-1.54-.36h0"/>
          <path class="cls-3" d="M48.63,74.06l-.22-.12c-.41.58-.73,1.17-.94,1.58l1.16-1.45Z"/>
          <path class="cls-3" d="M84.93,49.23c-.03-.06-.06-.12-.09-.18-.16-.3-.34-.6-.56-.89-.18-.23-.38-.47-.61-.69-.11-.11-.23-.22-.36-.33-.13-.11-.26-.21-.4-.32-.28-.21-.59-.4-.94-.59-.17-.09-.35-.18-.54-.26-.38-.17-.79-.32-1.23-.45-.11-.03-.23-.06-.34-.09-.47-.12-.97-.22-1.51-.3-.14-.02-.27-.04-.41-.05-.56-.06-1.17-.1-1.82-.11-1.78-.03-3.29.13-4.57.41-.23.05-.46.11-.68.16-.22.06-.43.12-.63.19-.1.03-.2.07-.3.1-.2.07-.38.14-.57.21-.36.15-.7.31-1.01.48-1.17.63-1.98,1.37-2.55,2.05-.04.05-.07.09-.11.14-.92,1.18-1.11,2.19-1.11,2.19l-.2-1.26s0,0,0,0c-.01,0-.04.02-.07.04-.07.04-.18.1-.32.18-.32.18-.78.45-1.23.76-.05.03-.1.07-.15.12-.05.04-.1.09-.15.14-.14.15-.28.32-.41.51-.04.06-.08.12-.12.18-.46.71-.8,1.5-.8,1.5,0,0-.35.21-.91.61-.08.06-.16.12-.25.18-.25.19-.54.41-.85.67-.07.06-.15.12-.22.18-.14.12-.29.25-.43.38-.17.15-.33.3-.5.47-.24.23-.49.48-.74.74-.17.18-.33.36-.5.55-.5.57-.99,1.19-1.45,1.88-2.46,3.65,1.54,6.54,1.54,6.54,0,0,1.7-.7,3.06-2.26.13-.15.28-.26.45-.34.39-.18.87-.2,1.35-.17.07,0,.14.01.2.02.14.01.27.03.4.05.13.02.26.04.38.05.06,0,.12.02.18.02.15.02.3.03.45.04,1.03.08,2.05.03,3.06-.14.05,0,.09-.02.14-.02.27-.05.54-.1.8-.17.19-.05.37-.1.56-.15.67-.2,1.33-.44,1.96-.74l.13-.06s.23.02.73,0c.04,0,.09,0,.14,0,.2,0,.43-.02.7-.03.07,0,.14,0,.21-.01.51-.03,1.13-.09,1.87-.17.11-.01.22-.02.33-.04.78-.09,1.69-.22,2.73-.39,7.87-1.27,6.16-6.39,6.16-6.39l-2.5-.71,5.33-.98s.17-1.44-.51-3.08c-.05-.12-.1-.23-.16-.35M60.34,60.99l-.88-.76-.28,1.13c-.51.2-1.01.46-1.49.76l-.03.02s-.02-2.79,1.57-3.25c1.62-.46,2.33,1.9,2.33,1.9-.42.04-.83.1-1.23.2M73.89,51.6s3.56,3.09-.73,6.18c-4.23,3.04-7.34-1.24-7.34-1.24,0,0-.93.24-1.71.33-.92.1-1.9-1.01-1.9-1.01,0,0,3.63-.26,6.75-3.1,2.1-1.91,1.62-2.12,3.58-2.83,2.52-.91,4.91-.5,4.91-.5l-3.55,2.17Z"/>
          <path class="cls-3" d="M64.15,66.95c.05,0,.1-.01.15-.02.16-.02.32-.04.47-.06.07,0,.13-.02.2-.03.19-.03.38-.06.56-.09.53-.09.99-.19,1.4-.3.36-.1.68-.2.97-.31.07-.03.14-.06.21-.09,1.18-.5,1.88-1.15,3.1-2.06l.55-.41-.94.27c-.37.1-.77.21-1.18.3-.14.03-.28.06-.42.09-.71.15-1.46.27-2.2.35-.15.02-.3.03-.45.04-.89.07-1.75.07-2.52-.04l-.84,2.47c.25-.03.48-.05.7-.08.07,0,.15-.02.22-.03"/>
          <path class="cls-3" d="M55.38,73.49c.1-.05.19-.1.29-.16.39-.21.79-.46,1.19-.75.3-.21.61-.45.92-.71.41-.34.78-.71,1.13-1.09.52-.57.96-1.18,1.34-1.77.13-.2.25-.4.36-.59.17-.29.32-.58.46-.86.05-.09.09-.18.13-.27.17-.36.32-.7.44-1,.37-.91.53-1.53.53-1.53l-1.89.21s-.06.21-.48,1.01c-1.06,2.01-2.63,3.6-4.67,4.67,0,0-.43.23-.58.3-.12.06-.27.13-.44.2-.13.06-.27.12-.41.19-.05.02-.1.04-.15.07-.46.2-.97.43-1.43.63-.26.11-.5.22-.71.31-.08.04-.16.07-.23.1-.29.12-.47.2-.47.2h.33c.18.01.37,0,.57-.02.46-.05.95-.16,1.44-.3.35-.1.7-.22,1.04-.34.2-.07.4-.15.59-.23.88-.35,1.59-.71,1.82-.82-.78.81-1.64,1.51-2.44,2.08-.14.1-.29.2-.43.3-.14.09-.28.18-.41.27-1.13.73-1.96,1.13-1.96,1.13h0,0s1.82-.07,4.11-1.26"/>
          <path class="cls-3" d="M69.94,54.67c-.48.37-1.01.68-1.57.92l-.37.16s1.28,2.39,3.53.75c-.77-.42-1.31-1.05-1.59-1.83"/>
          <path class="cls-3" d="M71.88,52.4c-.31.57-.7,1.1-1.16,1.57.72.46,1.22,1.12,1.45,1.95,1.55-1.75-.29-3.52-.29-3.52"/>
          <path class="cls-3" d="M22.58,47.22h23.99v21.05c1.27-.66,2.7-1.07,4.25-1.07.4,0,.79.04,1.17.1.39.07.76.17,1.12.31h2.44l-.44-.32c-.24-.18-1.5-1.14-2.43-2.71-.3-.51-.53-1.02-.69-1.54-.4-1.27-.4-2.57,0-3.83.2-.64.51-1.28.92-1.89,1.45-2.15,3.18-3.79,4.52-4.88v-5.24l.02.02h5.87l.17-.09s.03-.03.04-.05c.79-.99,2.09-2.2,4.11-3.15.92-.43,2-.8,3.24-1.07,1.58-.34,3.35-.5,5.25-.47.52,0,1.03.03,1.52.08.59-.91.99-1.63,1.22-2.24h-21.44v-3.12c.22-1.09.39-2.25.58-3.41-2.14.4-4.16.96-6.03,1.69-1.98.77-3.79,1.71-5.41,2.83v.04c0,.7,0,1.58,0,1.96l.02.02h-23.97c-2.71-3.67-8.8-2.02-9.68,2.18-.11.44-.16.91-.14,1.4-.18,5.08,6.82,7.43,9.78,3.42"/>
        </g>
      </g>
    </g>
  </g>
</svg>