<?xml version="1.0" encoding="UTF-8"?>
<svg id="Layer_2" xmlns="http://www.w3.org/2000/svg" xmlns:xlink="http://www.w3.org/1999/xlink" viewBox="0 0 94.58 136.4">
  <defs>
    <style>
      .cls-1 {
        fill: none;
      }

      .cls-2 {
        fill: #ffce00;
      }

      .cls-3 {
        clip-path: url(#clippath-1);
      }

      .cls-4 {
        clip-path: url(#clippath-3);
      }

      .cls-5 {
        clip-path: url(#clippath-2);
      }

      .cls-6 {
        opacity: .3;
      }

      .cls-7 {
        clip-path: url(#clippath);
      }
    </style>
    <clipPath id="clippath">
      <rect class="cls-1" x="0" y="0" width="94.58" height="136.4"/>
    </clipPath>
    <clipPath id="clippath-1">
      <rect class="cls-1" x="0" y="0" width="94.58" height="136.4"/>
    </clipPath>
    <clipPath id="clippath-2">
      <rect class="cls-1" x="0" y="0" width="94.58" height="136.4"/>
    </clipPath>
    <clipPath id="clippath-3">
      <rect class="cls-1" x="78.76" y="54.87" width="0" height="0"/>
    </clipPath>
  </defs>
  <g id="PAGE3">
    <g id="WLL_x5F_MARYLAND_x5F_ICON_x5F_1C_x5F_Dk">
      <g class="cls-7">
        <g class="cls-3">
          <g class="cls-5">
            <path d="M94.52,83.27c-.06-1.27-.18-2.54-.34-3.79l-.83-6.4-2.68,3.75-1.07,1.5c-.1.13-.2.27-.3.4-.03.04-.07.09-.1.13-.07.09-.14.18-.21.27-.04.05-.08.11-.13.16-.07.08-.13.16-.2.25-.05.06-.09.11-.14.17-.07.08-.14.16-.2.24-.05.06-.1.11-.15.17-.07.08-.15.17-.23.25-.09.1-.18.2-.27.3-.07.07-.14.15-.21.22-.07.08-.14.15-.21.23-.05.05-.1.11-.16.16-.08.08-.16.16-.24.24-.05.05-.09.09-.14.14-.09.09-.17.17-.26.26-.04.04-.07.07-.11.11-.58.57-1.2,1.13-1.83,1.67,0,0-.02.02-.03.02-.13.11-.26.22-.39.33h0c.22-.44.42-.89.6-1.33,0,0,0-.01,0-.02.18-.44.34-.88.48-1.33,0-.01,0-.02.01-.04.14-.44.26-.88.37-1.32,0-.02,0-.04.01-.06.1-.44.19-.88.25-1.31,0-.02,0-.05.01-.07.03-.2.06-.4.08-.6,0-.02,0-.04,0-.06.02-.21.04-.43.06-.64,0-.03,0-.06,0-.08.01-.19.02-.38.03-.56,0-.04,0-.07,0-.11,0-.21,0-.42,0-.63,0-.03,0-.06,0-.08,0-.18-.01-.36-.02-.55,0-.05,0-.1,0-.14-.01-.21-.03-.41-.05-.62,0-.02,0-.04,0-.06-.02-.19-.04-.37-.07-.56,0-.05-.01-.11-.02-.16-.03-.2-.06-.41-.1-.61-.95-5.21-4.2-9.19-9.38-11.52-.11-.05-.21-.09-.32-.14-.03-.01-.07-.03-.1-.04-.07-.03-.14-.06-.21-.09-.04-.02-.08-.03-.12-.05-.07-.03-.13-.05-.2-.08-.04-.02-.08-.03-.12-.05-.07-.03-.14-.05-.2-.08-.04-.01-.07-.03-.11-.04-.08-.03-.16-.06-.24-.09-.02,0-.05-.02-.07-.02-.1-.04-.2-.07-.3-.1-.02,0-.04-.01-.07-.02-.08-.03-.16-.05-.23-.08-.03-.01-.07-.02-.1-.03-.06-.02-.13-.04-.19-.06-.04-.01-.07-.02-.11-.03-.06-.02-.13-.04-.19-.06-.03,0-.07-.02-.1-.03-.07-.02-.13-.04-.2-.06-.03,0-.05-.02-.08-.02-.19-.05-.37-.1-.54-.14-.02,0-.05-.01-.07-.02-.06-.02-.13-.03-.19-.05-.03,0-.06-.01-.09-.02-.06-.01-.11-.03-.17-.04-.03,0-.06-.01-.09-.02-.06-.01-.11-.02-.17-.04-.03,0-.05-.01-.08-.02-.06-.01-.13-.03-.19-.04-.02,0-.03,0-.05,0-.08-.02-.15-.03-.23-.04-.01,0-.03,0-.04,0-.06-.01-.12-.02-.18-.03-.02,0-.05,0-.07-.01-.05,0-.09-.02-.14-.02-.03,0-.05,0-.08-.01-.04,0-.08-.01-.13-.02-.02,0-.05,0-.07-.01-.04,0-.08-.01-.12-.02-.02,0-.04,0-.06,0-.05,0-.1-.02-.15-.02-.01,0-.02,0-.04,0-.05,0-.1-.01-.15-.02-.02,0-.04,0-.06,0-.03,0-.06,0-.09-.01-.02,0-.04,0-.07,0-.02,0-.05,0-.07,0-.02,0-.04,0-.06,0-.02,0-.04,0-.06,0-.02,0-.04,0-.06,0-.02,0-.04,0-.05,0-.02,0-.04,0-.06,0l1.74-1.29,7.57-3.55h0c.18-.23.35-.47.5-.72.06-.09.11-.19.16-.28.02-.03.03-.06.05-.09.03-.07.07-.13.1-.2.02-.03.03-.06.04-.1.03-.07.06-.13.09-.2.01-.03.02-.06.03-.08.03-.08.06-.16.09-.24,0-.01,0-.02.01-.03.07-.19.12-.38.17-.57,0-.01,0-.03,0-.04.02-.08.04-.16.05-.24,0-.01,0-.02,0-.03.02-.09.03-.18.05-.26h0c.16-.11.32-.22.48-.33,0,0,.01-.01.02-.02.14-.1.28-.2.41-.3.04-.03.07-.05.11-.08.11-.08.22-.17.33-.26.04-.03.08-.06.11-.09.14-.11.28-.23.42-.35.11-.09.21-.18.31-.28h0s.04-.04.06-.06l.11-.1.11-.11c.19-.17.37-.35.55-.53.01-.01.02-.02.03-.03.17-.18.34-.36.51-.54.01-.01.02-.02.03-.04.17-.19.33-.38.49-.57,0,0,0,0,0,0,.17-.2.33-.41.48-.61,0,0,0,0,0,0,.15-.2.29-.39.43-.6.02-.02.03-.05.05-.07.13-.19.26-.39.38-.59.02-.03.04-.06.06-.09.12-.2.24-.4.36-.6.02-.03.03-.05.05-.08.12-.21.23-.43.34-.65.08-.15.15-.3.22-.46.02-.04.03-.07.05-.11.06-.12.11-.24.17-.37.01-.03.03-.07.04-.1.06-.13.11-.27.17-.4,0-.02.02-.04.03-.06.06-.16.12-.31.18-.47.3-.54.53-1.12.68-1.73,0,0,0,0,0,0,.15-.6.23-1.23.23-1.86.02-.16.04-.32.06-.49,0-.03,0-.06,0-.09.01-.13.03-.27.04-.4,0-.04,0-.08,0-.12.01-.13.02-.26.03-.39,0-.04,0-.07,0-.11,0-.14.01-.29.02-.43,0-.02,0-.04,0-.06,0-.33,0-.67,0-1,0-.03,0-.06,0-.09,0-.13-.01-.26-.02-.39,0-.05,0-.09,0-.14,0-.12-.02-.24-.03-.35,0-.05,0-.1-.01-.15-.01-.12-.03-.24-.04-.35,0-.05-.01-.09-.02-.14-.02-.14-.04-.28-.06-.42,0-.02,0-.05-.01-.07-.03-.16-.05-.33-.09-.49,0-.03-.01-.06-.02-.09-.03-.13-.05-.26-.08-.39-.01-.05-.02-.11-.04-.16-.02-.11-.05-.21-.08-.32-.01-.06-.03-.12-.05-.18-.03-.1-.05-.21-.08-.31-.02-.06-.03-.12-.05-.18-.03-.11-.06-.22-.1-.33-.02-.05-.03-.1-.05-.15-.05-.16-.1-.32-.16-.47-1.79-5.13-5.68-8.82-11.56-10.96-.23-.09-.47-.17-.71-.25-.02,0-.05-.02-.07-.02-.23-.08-.46-.15-.7-.22-.04-.01-.07-.02-.11-.03-.23-.07-.47-.14-.71-.2-.04-.01-.08-.02-.11-.03-.24-.07-.49-.13-.74-.19-.03,0-.07-.02-.1-.02-.26-.06-.52-.12-.79-.18-.02,0-.03,0-.05-.01-.56-.12-1.14-.24-1.74-.34-.01,0-.02,0-.04,0-.29-.05-.59-.1-.88-.14-.02,0-.05,0-.07-.01-.3-.05-.6-.09-.9-.13-.02,0-.05,0-.07,0-.31-.04-.62-.08-.94-.12-.02,0-.03,0-.05,0-1.33-.15-2.73-.26-4.2-.33,0,0-.01,0-.02,0-.37-.02-.74-.03-1.11-.04,0,0-.02,0-.03,0-.38-.01-.76-.02-1.15-.03t0,0c.02-.09.05-.17.07-.26.02-.06.03-.12.05-.19.03-.13.06-.25.09-.38.02-.08.03-.16.05-.23.02-.08.03-.16.05-.24.01-.08.03-.16.04-.24.02-.11.03-.22.05-.33.01-.09.02-.18.04-.28,0-.07.02-.14.02-.21.01-.14.03-.27.04-.41,0-.05,0-.11,0-.16,0-.11.01-.22.02-.33,0-.05,0-.1,0-.16,0-.15,0-.3,0-.44,0-.04,0-.09,0-.13,0-.13,0-.27-.01-.4,0-.03,0-.06,0-.09,0-.16-.02-.32-.03-.47,0-.04,0-.08-.01-.11-.02-.16-.03-.33-.06-.49-.15-1.13-.44-2.26-.88-3.38-.19-.48-.4-.95-.63-1.43-.08-.16-.16-.31-.24-.47-.42-.78-.91-1.56-1.47-2.33v-.02s-.03-.02-.03-.02l-.02-.02v-.02c-.36-.44-.75-.85-1.17-1.23-.28-.25-.58-.5-.9-.72-.47-.34-.98-.65-1.51-.92-.53-.28-1.09-.52-1.68-.72-.97-.34-2.01-.58-3.09-.71-.62-.09-1.28-.14-1.98-.14-.7,0-1.37.05-1.98.14-.43.05-.86.12-1.27.2-.21.04-.41.09-.62.14-.82.21-1.6.48-2.33.82-1.1.5-2.1,1.15-2.95,1.91-.14.13-.28.26-.41.39-.27.27-.52.55-.75.84l-.03.04-.03.04c-.11.15-.22.31-.33.46-.17.25-.34.5-.5.76-.08.12-.15.24-.22.36-.11.18-.21.36-.31.54-.39.7-.72,1.4-.99,2.11-.12.32-.24.64-.34.96-.15.48-.28.96-.38,1.45-.07.32-.12.65-.16.97-.07.55-.11,1.1-.12,1.65,0,.55.02,1.09.08,1.64.04.36.09.73.16,1.09.07.36.15.72.25,1.08.29,1.08.72,2.15,1.27,3.21l.02.03s0,.01.01.02c.09.16.17.31.26.46.04.06.07.12.11.19.06.09.11.19.17.28.05.09.11.17.16.26.04.06.08.13.12.19.09.14.18.29.27.43,0,0,0,0,0,0-.65.33-1.29.67-1.92,1.03-.01,0-.03.01-.04.02-.21.12-.41.23-.61.35-.01,0-.03.02-.04.02-.4.24-.8.48-1.2.73-.01,0-.02.01-.03.02-.17.11-.33.21-.5.32-.08.05-.16.11-.25.16-.15.1-.3.2-.45.3-.11.08-.23.16-.34.24-.21.14-.41.29-.61.43-.13.1-.27.19-.4.29-.11.08-.22.16-.33.24-.16.12-.31.23-.46.35-.08.06-.16.13-.25.19-.23.18-.46.36-.68.54-.07.06-.14.11-.21.17-.18.14-.35.29-.53.44-.07.06-.14.12-.21.18-.23.2-.46.4-.69.6-.21.19-.43.39-.64.58-.07.06-.14.13-.21.19-.15.14-.29.27-.43.41-.08.07-.15.15-.23.22-.17.17-.35.34-.52.51-.13.13-.25.25-.37.38-.06.06-.11.11-.17.17-.46.47-.9.95-1.34,1.44,0,0,0,0,0,0h-3.12c-.69-.64-1.48-1.13-2.35-1.47-.11-.04-.22-.08-.33-.12-.78-.26-1.61-.4-2.47-.4-.28,0-.56.01-.84.04-.14.01-.28.03-.42.05-.55.08-1.1.22-1.62.41-1.17.43-2.24,1.11-3.11,2.01-.96.99-1.61,2.2-1.9,3.51-.13.6-.2,1.21-.18,1.84-.02.88.11,1.73.38,2.54.35,1.04.92,1.99,1.71,2.81.09.1.19.19.28.28.03.03.07.06.1.09.06.06.13.11.19.17.04.04.09.07.13.11.06.05.11.09.17.14.05.04.1.08.15.11.05.04.11.08.16.12.06.04.11.08.17.12.05.03.1.07.15.1.06.04.13.08.19.12.05.03.09.05.14.08.07.04.14.08.21.12.04.02.08.04.12.06.08.04.16.08.24.12.03.01.06.03.09.04.09.04.19.08.28.12,0,0,.01,0,.02,0,.81.33,1.68.53,2.57.6h0c-.59,1.28-1.13,2.59-1.64,3.93-.01.04-.03.08-.04.12-.15.4-.3.8-.44,1.2-.02.05-.04.1-.05.15-.3.86-.59,1.73-.87,2.62-.03.11-.07.22-.1.33-.1.33-.2.66-.29.99-.03.12-.07.24-.1.36-.12.43-.24.87-.36,1.31-1.53,5.89-1.82,11.57-.85,16.87.05.3.11.59.17.88.02.1.04.19.06.29.04.2.09.39.13.59.03.11.06.23.08.34.04.18.09.35.14.53.03.12.06.24.1.35.05.17.1.34.15.51.04.12.07.24.11.35.05.17.11.34.17.51.04.11.07.22.11.33.07.19.13.38.2.57.03.09.06.17.09.26.1.27.2.53.31.79.04.11.09.22.14.33.07.16.13.32.2.47.05.12.11.25.17.37.06.14.13.28.19.42.06.13.12.26.19.38.07.13.13.27.2.4.07.13.13.26.2.39.07.13.14.26.21.38.07.13.14.26.21.39.07.13.15.25.22.38.07.13.14.25.22.38.09.15.19.31.28.46.13.2.26.41.39.61.07.1.14.21.2.31-.65-.46-1.3-.94-1.93-1.44-.01,0-.02-.02-.04-.03-.2-.16-.4-.31-.6-.47-.01,0-.02-.02-.03-.03-.41-.33-.82-.67-1.22-1.01-.02-.01-.03-.03-.05-.04-.17-.15-.35-.3-.52-.45-.04-.03-.07-.06-.11-.09-.16-.15-.33-.29-.49-.44-.02-.02-.05-.04-.07-.07-.19-.17-.37-.35-.56-.52,0,0,0,0,0,0-.17-.16-.34-.33-.51-.5-.04-.04-.08-.09-.13-.13-.13-.13-.25-.26-.38-.39-.05-.05-.09-.09-.14-.14-.14-.14-.27-.29-.4-.43-.02-.03-.05-.05-.07-.08-.15-.17-.31-.34-.45-.51-.04-.04-.07-.08-.1-.12-.11-.13-.22-.26-.33-.39-.05-.06-.09-.11-.14-.17-.1-.12-.19-.24-.29-.36-.04-.05-.08-.1-.12-.15-.13-.17-.25-.34-.38-.51l-3.75-5.25-.83,6.4c-.36,2.81-.48,5.74-.35,8.49.03.61.07,1.21.12,1.8.03.3.05.59.09.88.13,1.15.3,2.25.52,3.26.12.55.28,1.14.47,1.74.03.1.06.2.1.3.13.4.28.81.43,1.22.19.51.39,1.03.6,1.53.08.2.17.4.25.6.38.9.77,1.75,1.12,2.52.2.43.38.82.55,1.18.04.09.08.18.12.26.04.08.08.17.11.24l1.54,3.29,3.89-3.92c.26.38.55.79.87,1.22.32.43.66.88,1.03,1.34.43.53.91,1.1,1.45,1.7.18.2.37.4.56.61.58.62,1.22,1.27,1.92,1.92,2.1,1.97,4.74,4.06,7.94,5.9.4.23.88.52,1.34.81.07.04.13.08.2.12.12.07.23.14.34.21.34.21.67.41.98.6.14.08.28.16.42.24.26.15.51.28.74.39.81.42,1.63.91,2.47,1.46.63.41,1.26.85,1.9,1.31,1.27.93,2.54,1.95,3.78,3.02,3.91,3.39,7.45,7.22,9.35,9.82l2.05,2.81,2.05-2.81c.6-.82,1.36-1.77,2.25-2.78.3-.34.6-.68.93-1.04.4-.44.82-.89,1.26-1.34.53-.55,1.07-1.1,1.64-1.65.28-.28.57-.56.87-.83.78-.74,1.59-1.47,2.41-2.18.41-.36.83-.71,1.25-1.05,2.3-1.9,4.68-3.58,6.89-4.74.09-.04.18-.09.27-.13.64-.33,1.41-.81,2.21-1.3.27-.16.54-.33.8-.49.26-.16.51-.31.75-.44,1.57-.9,3-1.86,4.31-2.83,1.12-.84,2.15-1.69,3.09-2.55.63-.57,1.21-1.13,1.76-1.69.27-.28.54-.56.79-.83.13-.14.25-.27.38-.41.25-.27.48-.54.71-.8,1.14-1.32,2.04-2.55,2.74-3.58l3.89,3.92,1.54-3.29c.07-.15.15-.32.24-.51.2-.43.43-.92.67-1.44.24-.52.49-1.09.75-1.67.08-.19.17-.39.25-.59.16-.37.31-.75.46-1.13.02-.06.05-.12.07-.17.55-1.4,1.04-2.83,1.31-4.1.1-.46.19-.95.27-1.44.32-1.94.48-4.12.5-6.36,0-.94-.02-1.89-.06-2.84M80.14,47.92l-5.21.96,2.44.69s.22.65.14,1.53c0,.04,0,.08-.01.12-.05.39-.15.83-.36,1.28-.02.04-.04.09-.07.13-.16.31-.37.63-.65.93-.04.04-.08.09-.12.13-.21.22-.46.43-.75.63-.06.04-.12.08-.18.12-.24.16-.52.31-.82.45-.07.04-.15.07-.23.11-.79.34-1.76.63-2.97.83-2.32.38-3.96.53-5.02.59-.07,0-.13,0-.19.01-.57.03-.94.03-1.15.03-.13,0-.19,0-.19,0l-.07.03-.06.03c-.4.19-.8.35-1.21.5-.27.1-.55.19-.83.26-.25.07-.51.13-.77.19-.05.01-.1.02-.15.03-.24.05-.49.09-.73.13-.03,0-.07,0-.1.01-.56.08-1.13.11-1.7.11-.44,0-.88-.03-1.32-.08-.17-.02-.36-.05-.55-.07-.26-.03-.52-.07-.79-.08-.07,0-.13,0-.2,0-.07,0-.13,0-.2,0-.45.03-.87.16-1.16.5-1.33,1.52-2.99,2.21-2.99,2.21,0,0-.12-.08-.29-.24-.03-.03-.07-.06-.1-.09-.33-.3-.8-.79-1.19-1.42-.24-.39-.45-.83-.57-1.31-.01-.04-.02-.09-.03-.13-.02-.09-.04-.18-.05-.27-.01-.09-.02-.19-.03-.28,0-.09-.01-.19-.01-.29,0-.19.02-.39.05-.6.03-.15.06-.31.11-.46.02-.05.03-.1.05-.16.05-.16.12-.32.2-.48.1-.22.23-.44.38-.66.15-.22.3-.44.46-.65.16-.21.32-.41.48-.61.4-.49.81-.95,1.22-1.36.16-.16.32-.32.48-.47.15-.14.3-.28.45-.42.08-.08.17-.15.25-.22.18-.16.36-.31.53-.45.08-.06.15-.12.23-.18.1-.08.19-.15.28-.22.06-.05.12-.09.18-.14.1-.08.2-.15.29-.21.03-.02.06-.04.09-.06.49-.35.8-.53.8-.53,0,0,.81-1.86,1.6-2.4.45-.3.9-.57,1.21-.74.14-.08.25-.14.32-.17.03-.02.06-.03.07-.04,0,0,0,0,0,0l.2,1.23s.2-1.06,1.2-2.27c.07-.09.15-.18.23-.27.25-.27.54-.55.87-.82.11-.09.23-.18.35-.27.18-.13.38-.27.59-.39.1-.06.21-.12.32-.18.08-.04.16-.09.25-.13.12-.06.23-.12.36-.18.08-.04.17-.08.25-.11.28-.12.58-.24.89-.35.15-.05.3-.1.45-.14.05-.01.09-.03.14-.04.26-.08.54-.15.83-.21.05-.01.09-.02.14-.03.31-.07.63-.12.97-.17.03,0,.07-.01.1-.02.22-.03.45-.06.68-.08.03,0,.05,0,.08,0,.79-.08,1.65-.12,2.59-.1,1.74.03,3.16.27,4.32.65.1.03.21.07.31.11,1.21.44,2.1,1.04,2.77,1.7.06.05.11.11.16.17.16.17.3.34.43.51.26.34.47.7.64,1.04.06.12.11.23.16.35.05.11.09.23.13.34.1.28.17.55.23.81.01.05.02.1.03.15.02.1.04.2.05.29.04.28.06.53.07.74,0,.11,0,.2,0,.28,0,.25-.02.4-.02.4M47.26,71.3c.35-.06.72-.13,1.1-.22,2-.47,3.11-.85,4.23-1.54v12.3c-1.6-.31-3.13-.8-4.58-1.45-.25-.11-.5-.23-.75-.36-1.92-.96-3.7-2.24-5.29-3.8v-8.51l2.01,1.12-1.77,2.22s1.92.73,5.06.23M46.56,69.52s2.9-1.38,5.13-3.69c-.53.26-3.45,1.72-5.34,1.68h-.33s.9-.39,1.85-.81c.26-.12.53-.23.78-.35.05-.02.1-.04.15-.07.25-.11.48-.22.67-.31.12-.05.22-.1.31-.14.04-.02.09-.04.15-.08.03-.02.06-.03.09-.05.02,0,.03-.02.05-.03.14-.08.28-.15.28-.15,1.12-.59,2.1-1.34,2.92-2.23.46-.5.87-1.04,1.23-1.62.15-.23.28-.47.41-.72.18-.35.3-.58.37-.73,0-.02.02-.04.03-.06.02-.04.03-.07.04-.09,0-.01,0-.02.01-.03,0-.02.01-.04.02-.05,0-.02,0-.02,0-.02l1.85-.2s-1.11,4.27-4.31,6.96c-3.2,2.69-6.36,2.8-6.36,2.8M55.12,67.61h0c.56-.49,1.06-1,1.51-1.51,0,0,0,0,0,0,.44-.51.83-1.02,1.17-1.51l.77-.08c.83-.09,1.57-.18,2.22-.29.39-.06.76-.13,1.09-.21.08-.02.17-.04.25-.06.02,0,.04-.01.06-.02.06-.01.12-.03.18-.04.02,0,.05-.01.07-.02.05-.01.11-.03.16-.04.02,0,.05-.01.07-.02.05-.01.1-.03.15-.04.02,0,.04-.01.07-.02.05-.01.1-.03.15-.04.02,0,.04-.01.06-.02.05-.02.1-.03.15-.05.02,0,.04-.01.05-.02.05-.02.1-.03.15-.05.02,0,.03-.01.05-.02.05-.02.1-.04.15-.05.01,0,.03,0,.04-.01.05-.02.1-.04.15-.06.01,0,.02,0,.03-.01.05-.02.1-.04.15-.06,0,0,.02,0,.03-.01.05-.02.1-.04.15-.06,0,0,.01,0,.02,0,.05-.02.1-.04.15-.07,0,0,0,0,.01,0,.05-.02.1-.05.15-.07,0,0,0,0,0,0,.05-.02.1-.05.15-.07,0,0,0,0,0,0,.05-.03.1-.05.15-.08,0,0,0,0,0,0,.05-.03.1-.05.15-.08l1.42,1.82c.58.75,1.22,1.43,1.85,2.1.4.43.79.84,1.14,1.25,1.54,2.26,2.08,4.38,1.61,6.3-.27,1.12-.71,2.13-1.29,3.02-1.57,1.7-2.68,2.66-3.78,3.3-1.09.55-2.12.86-2.8,1.03-1.07.23-2.4.4-4.15.52-.62.04-1.23.06-1.84.06-.19,0-.37,0-.56,0-.1,0-.21,0-.31,0-.07,0-.14,0-.21,0-.14,0-.28-.01-.41-.02-.03,0-.06,0-.09,0-.16,0-.31-.02-.47-.03v-14.59ZM58.25,61.99l.82-2.42c2,.29,4.7-.18,6.62-.73l.92-.26-.54.4c-.35.26-.66.5-.95.72-.23.18-.45.34-.67.49-.05.04-.11.08-.16.11-.6.41-1.24.73-2.15,1.01-.5.15-1.09.28-1.8.4-.31.05-.66.1-1.02.15-.33.04-.68.08-1.06.12M36.13,15.24c-.08-.74-.08-1.47,0-2.19.03-.29.07-.57.11-.86.02-.14.05-.28.08-.42,0-.05.02-.09.03-.14.41-1.98,1.34-3.86,2.62-5.61,1.58-2,4.25-3.09,6.68-3.36.49-.08,1.05-.12,1.64-.12.6,0,1.15.04,1.64.12,2.43.27,5.1,1.36,6.68,3.36,2.53,3.46,3.66,7.43,2.23,11.64-.05,0-.1,0-.15,0-.79,0-1.57.03-2.34.07-1.17.06-2.32.16-3.47.3-.03,0-.06,0-.08.01.09-.13.19-.27.29-.4.67-.79,1.1-1.69,1.33-2.62.44-2.03-.08-4.16-1.17-5.56-1.48-1.9-4.4-1.97-5-1.96-.59,0-3.33.06-4.85,1.78l-.06-.05s-.04.05-.06.07c-1.62,2.08-1.98,5.78.19,8.34.56.7.91,1.41,1.17,2.11-.84.26-1.67.54-2.49.84-.19.07-.38.14-.58.21-.65.25-1.3.51-1.93.79-.18-.28-.36-.56-.53-.84-.2-.33-.4-.66-.58-1-.81-1.54-1.26-3.06-1.41-4.54M57.73,20.78c11.94-.12,23.37,1.77,26.66,11.22,1.28,3.67.99,7.5-.48,10.78-.38.84-.83,1.64-1.36,2.4-.31-1.19-.93-2.57-2.12-3.83-1.22-1.3-2.81-2.23-4.75-2.8.25-.43.47-.87.66-1.3.89-2.1.92-4.24-1.21-6.68-2.17-2.49-4.61-3.79-7.38-4.45-2.63-.62-5.55-.65-8.8-.52-8.01.31-15.81,2.68-21.28,7.62h-10.58c7.76-7.67,18.1-12.31,30.65-12.43M73.25,33.21h-18.13v-.27c.03-.16.06-.32.09-.48.01-.07.03-.14.04-.21.06-.36.12-.72.18-1.08.03-.2.06-.39.09-.59.04-.24.08-.48.12-.72,0-.06.02-.12.03-.17.03-.2.07-.4.1-.6,0-.04.01-.08.02-.12.26-.03.53-.06.8-.08,0,0,0,0,.01,0,.24-.02.48-.04.72-.06.06,0,.12,0,.18-.01.19-.01.39-.03.58-.04.07,0,.13,0,.2-.01.25-.01.5-.03.76-.04,1.03-.04,1.88-.06,2.66-.06,5.54,0,8.53,1.07,11.06,3.96.05.05.09.11.14.16.13.15.24.3.35.45,0,0,0,0,0,0M8.93,39.25c0-.08,0-.15,0-.23,0-.15,0-.3.02-.45.02-.22.06-.44.11-.64,0-.01,0-.03.01-.04.86-4.11,6.82-5.73,9.46-2.14h23.45l-.02-.02v-1.96c1.59-1.09,3.36-2.02,5.29-2.77,1.83-.71,3.8-1.26,5.9-1.65-.19,1.14-.35,2.28-.57,3.34v3.06h20.97c-.22.59-.61,1.3-1.19,2.19-.48-.04-.98-.07-1.49-.07-1.86-.03-3.58.13-5.13.46-1.22.27-2.27.63-3.17,1.05-1.98.92-3.24,2.11-4.02,3.08-.01.02-.03.03-.04.05l-.17.09h-5.74l-.02-.02v5.13c-1.31,1.07-3.01,2.67-4.42,4.77-.4.6-.7,1.22-.9,1.85-.39,1.23-.39,2.5,0,3.74.16.51.38,1.01.67,1.51.9,1.54,2.14,2.48,2.37,2.65l.91.66c-.4.54-1.01,1.07-2.03,1.62-.66.35-1.3.65-1.93.91-2.15.88-4.05,1.24-5.29,1.38v-24.2h-23.47c-.45.61-1,1.07-1.6,1.4-.06.03-.12.06-.18.09-.86.41-1.82.56-2.76.47-2.63-.24-5.13-2.28-5.02-5.31M39.46,44.97v28.39c-.23-.31-.45-.62-.66-.94-.04-.05-.07-.11-.11-.16-.09-.13-.17-.26-.26-.4-.05-.07-.1-.15-.14-.22-.08-.13-.16-.26-.24-.39-.05-.08-.1-.16-.15-.25-.08-.13-.16-.26-.23-.39-.05-.08-.09-.17-.14-.25-.13-.23-.25-.46-.38-.69-.06-.11-.11-.22-.17-.33-.06-.12-.12-.24-.18-.35-.06-.12-.12-.24-.17-.35-.05-.11-.11-.23-.16-.34-.06-.13-.12-.27-.18-.4-.05-.1-.09-.21-.14-.31-.09-.21-.18-.42-.26-.63-.03-.08-.06-.15-.09-.23-.08-.2-.16-.4-.23-.6-.03-.09-.07-.18-.1-.27-.06-.17-.12-.33-.18-.5-.03-.09-.07-.19-.1-.29-.06-.18-.12-.35-.18-.53-.03-.08-.05-.17-.08-.25-.08-.26-.16-.52-.24-.79-1.32-4.57-1.78-9.58-1.35-14.52.02-.19.04-.38.06-.56,0-.06.01-.12.02-.18.01-.12.03-.25.05-.37,0-.07.02-.15.03-.22.02-.11.03-.22.05-.33.01-.08.02-.15.04-.23.02-.11.04-.21.05-.32.01-.08.03-.15.04-.23.02-.1.04-.21.06-.31.02-.07.03-.15.05-.22.02-.11.05-.22.07-.33.02-.07.03-.13.05-.2.04-.17.08-.33.13-.5,0,0,0,0,0,0h5.44ZM11.84,65.52c.18-2.18.57-4.45,1.18-6.79.83-3.2,1.88-6.27,3.13-9.18.48-1.13,1-2.23,1.55-3.31.12-.04.23-.08.34-.13.58-.3,1.13-.68,1.61-1.14h11.16c-.19.84-.35,1.7-.46,2.6-.05.37-.09.75-.12,1.13-1.62,18.46,8.43,38.01,28.99,36.63,1.84-.12,3.34-.3,4.64-.59.93-.22,2.22-.62,3.59-1.32,1.59-.9,3.01-2.2,4.76-4.1.8-1.16,1.45-2.55,1.86-4.22.85-3.49-.59-6.69-2.16-8.95-.98-1.16-2.12-2.23-3-3.36,0,0,.08,0,.23.02,1.65.16,11.84,1.52,13.55,10.85,1.49,8.11-4.75,14.23-7.32,16.36-.64.53-1.06.82-1.06.82-7.13,6.36-15.27,8.01-27.3,8.31-20.28.51-36.92-12.86-35.16-33.63M76.98,96.81c-.11.1-.23.21-.35.33-.25.23-.53.47-.83.72-.15.13-.31.26-.48.39-.36.28-.72.55-1.08.8-1.31.92-2.57,1.6-3.49,1.87l-.08.02-.08.03c-.73.27-1.48.51-2.26.69-.19.05-.39.09-.59.13-.39.08-.79.15-1.2.22-.2.03-.41.06-.61.08-.44.05-.87.1-1.29.15-1.69.19-3.28.32-4.74.4-1.1.06-2.14.09-3.1.09-.49,0-.92,0-1.31-.02-.06,0-.13,0-.19,0-.06,0-.12,0-.18,0v-.91c.11-.01.22-.02.33-.04.08,0,.16-.02.25-.03.29-.03.58-.07.86-.1.06,0,.12-.02.18-.02.24-.03.47-.06.7-.1.09-.01.17-.02.26-.04.28-.04.55-.08.83-.13.03,0,.06-.01.1-.02.25-.04.51-.09.76-.13.09-.02.18-.03.26-.05.22-.04.44-.09.67-.13.06-.01.12-.02.18-.04.26-.05.53-.11.79-.17.09-.02.17-.04.26-.06.2-.05.4-.09.59-.14.08-.02.16-.04.24-.06.25-.06.5-.13.75-.2.08-.02.16-.05.25-.07.19-.05.37-.11.56-.16.09-.03.18-.05.27-.08.24-.07.49-.15.73-.23.07-.02.15-.05.22-.07.18-.06.37-.12.55-.19.09-.03.19-.07.28-.1.2-.07.39-.15.59-.22.09-.03.18-.07.26-.1.2-.08.39-.16.59-.24.1-.04.19-.08.29-.12.17-.07.33-.14.5-.22.08-.04.16-.07.24-.11.22-.1.44-.21.66-.32.09-.05.19-.09.28-.14.15-.08.3-.15.46-.23.09-.05.18-.09.27-.14.22-.12.43-.23.64-.35.09-.05.18-.1.27-.15.15-.09.29-.17.44-.26.09-.06.19-.11.28-.17.2-.13.41-.25.61-.39.08-.05.17-.11.25-.16.15-.1.3-.2.45-.3.09-.06.19-.13.28-.2.16-.11.31-.22.47-.34.1-.07.2-.15.31-.23.14-.1.27-.2.41-.31l2.47,2.09ZM39.46,101.82v.87c-.18,0-.36.01-.57.02-.27,0-.56.01-.87.01-.08,0-.16,0-.24,0-.97,0-2-.03-3.1-.09-.18,0-.37-.02-.56-.03-1.33-.08-2.75-.21-4.26-.37-.37-.04-.75-.09-1.14-.13-.03,0-.05,0-.08,0-.41-.05-.81-.11-1.21-.18-.2-.04-.4-.07-.6-.12-.39-.08-.78-.18-1.17-.28-.57-.16-1.14-.34-1.68-.54l-.08-.03-.08-.02c-1.17-.35-2.88-1.35-4.56-2.67-.25-.2-.49-.39-.71-.57-.07-.06-.14-.12-.21-.18-.24-.21-.46-.41-.66-.59-.03-.03-.06-.06-.09-.08l2.96-2.51.25-.21s.07.05.1.08c.19.15.38.29.57.43.1.07.2.15.3.22.19.14.39.28.58.42.1.07.2.14.31.21.2.14.4.27.6.4.1.07.21.14.31.21.2.13.41.26.61.38.11.07.22.14.33.2.21.12.41.24.62.36.11.06.22.13.33.19.21.12.43.23.64.35.11.06.22.12.33.18.23.12.46.23.69.35.1.05.2.1.3.15.33.16.67.32,1.01.47.29.13.59.26.88.38.07.03.14.06.21.09.29.12.59.24.88.35.04.01.07.03.11.04.27.1.54.2.81.3.08.03.15.05.23.08.3.1.59.2.89.3.06.02.13.04.19.06.25.08.51.16.76.23.08.02.16.05.25.07.3.08.59.17.89.25.09.02.17.04.26.07.24.06.49.12.73.18.09.02.17.04.26.06.3.07.59.13.89.2.1.02.21.04.31.06.24.05.48.09.72.14.09.02.17.03.26.05.3.05.6.1.9.15.11.02.22.03.34.05.08.01.16.02.23.04M91.34,93.38c-.61,2.85-2.6,6.97-3.53,8.96,0,.02-.02,0-.01.03-.03.07-.06.14-.09.2l-3.6-3.6s-4.17,8.63-14.55,14.59c-1.27.73-2.96,1.86-3.9,2.3-6.79,3.54-14.96,11.66-18.4,16.39-3.45-4.73-11.61-12.85-18.4-16.39-.94-.45-2.63-1.57-3.9-2.3-10.38-5.96-14.5-14.59-14.5-14.59l-.05-.11-3.47,3.49-.02.02-.12.12c-.91-1.95-2.95-6.04-3.58-8.94-.86-3.98-.89-9.16-.34-13.49,0,.02,0,.05,0,.07.01-.11.02-.21.04-.32,3.84,5.37,11.06,10.36,15.69,12.83l-4.55,3.86c.95,1.83,5.78,5.86,9.05,6.85,1.53.57,3.27,1.03,5.24,1.27,9.4,1.14,13.22.46,13.62.38v-2.89c1.3.11,2.61.17,3.92.17.4,0,.8,0,1.19-.01.06,0,.12,0,.18,0,1.84-.05,3.62-.13,5.33-.25v2.98s3.7.83,13.65-.38c1.97-.24,3.72-.69,5.24-1.27,2.92-.88,7.08-4.18,8.62-6.19.05-.07.1-.14.15-.21.08-.11.15-.22.21-.32l-2.31-2.15-1.64-1.39c.55-.41,1.53-1.2,2.66-2.32,4.31-2.71,9.46-6.72,12.49-10.96.56,4.35.53,9.57-.33,13.58"/>
            <path d="M71.24,58.41c.19-.03.38-.06.58-.09.17-.03.34-.06.51-.09.17-.03.33-.07.5-.1,0,0,0,0,0,0,.18-.04.36-.08.53-.13.06-.01.11-.03.17-.05.12-.03.23-.06.34-.09.07-.02.13-.04.2-.06.1-.03.2-.06.3-.09.07-.02.13-.04.2-.07.09-.03.19-.07.28-.1.06-.02.13-.05.19-.07.09-.04.18-.07.27-.11.06-.03.12-.05.18-.08.09-.04.19-.08.28-.13.05-.02.1-.05.15-.07.14-.07.27-.14.4-.21.03-.02.06-.04.09-.05.1-.06.2-.11.3-.17.05-.03.1-.06.15-.1.07-.05.15-.09.22-.14.05-.04.11-.07.16-.11.07-.05.13-.09.19-.14.05-.04.1-.08.16-.12.06-.05.12-.1.18-.15.05-.04.1-.08.15-.13.06-.05.11-.1.17-.16.05-.04.09-.09.14-.13.06-.06.11-.11.17-.17.04-.04.08-.08.12-.13.09-.1.17-.2.25-.3l-7.57,3.55s0,0,0,0c.01,0,.03,0,.04,0"/>
            <path class="cls-2" d="M78.76,54.87h0s0,0,0,0Z"/>
            <g class="cls-6">
              <g class="cls-4">
                <path d="M78.76,54.87h0s0,0,0,0Z"/>
              </g>
            </g>
            <path d="M68.68,46.88l3.47-2.12s-2.33-.4-4.8.49c-1.91.69-1.45.89-3.5,2.76-3.04,2.78-6.6,3.03-6.6,3.03,0,0,.96,1.09,1.86.99.76-.09,1.68-.32,1.68-.32,0,0,3.04,4.19,7.18,1.21,4.2-3.02.71-6.04.71-6.04M66.72,47.66s1.8,1.73.29,3.45c-.23-.81-.72-1.46-1.42-1.91.44-.46.83-.97,1.13-1.53M62.92,50.94l.36-.15c.55-.23,1.06-.54,1.53-.9.28.76.8,1.37,1.56,1.79-2.2,1.6-3.45-.73-3.45-.73"/>
            <path d="M54.35,54.01c-1.56.44-1.54,3.17-1.54,3.17l.03-.02c.47-.3.95-.54,1.45-.74l.28-1.1.86.74c.4-.1.8-.17,1.2-.2,0,0-.7-2.31-2.28-1.86"/>
          </g>
        </g>
      </g>
    </g>
  </g>
</svg>