<?xml version="1.0" encoding="UTF-8"?>
<svg id="Layer_2" xmlns="http://www.w3.org/2000/svg" xmlns:xlink="http://www.w3.org/1999/xlink" viewBox="0 0 96.69 139.44">
  <defs>
    <style>
      .cls-1 {
        fill: none;
      }

      .cls-2 {
        clip-path: url(#clippath-1);
      }

      .cls-3 {
        fill: red;
      }

      .cls-4 {
        clip-path: url(#clippath);
      }
    </style>
    <clipPath id="clippath">
      <rect class="cls-1" y="0" width="96.69" height="139.44"/>
    </clipPath>
    <clipPath id="clippath-1">
      <rect class="cls-1" width="96.69" height="139.44"/>
    </clipPath>
  </defs>
  <g id="PAGE4">
    <g id="WLL_x5F_MARYLAND_x5F_SEC_x5F_1C_x5F_DK">
      <g class="cls-4">
        <g class="cls-2">
          <path class="cls-3" d="M56.79,2.55s0,0,0,0c.08.06.16.12.24.18-.08-.06-.16-.12-.24-.18"/>
          <polyline class="cls-3" points="54.12 1.09 54.12 1.09 54.12 1.09 54.12 1.09"/>
          <polygon class="cls-3" points="37.8 4.54 37.8 4.54 37.8 4.54 37.77 4.58 37.76 4.6 37.74 4.62 37.77 4.58 37.8 4.54"/>
          <polygon class="cls-3" points="58.94 4.6 58.93 4.58 58.9 4.56 58.93 4.58 58.94 4.6"/>
          <path class="cls-3" d="M55.78,1.9c-.11-.06-.21-.12-.32-.18,0,0-.02-.01-.03-.02,0,0,0,0,0,0,.12.06.24.13.35.2"/>
          <path class="cls-3" d="M40.06,2.44s-.05.03-.07.05c-.06.04-.11.08-.17.13.11-.08.22-.16.33-.24-.03.02-.06.04-.09.06"/>
          <path class="cls-3" d="M39.21,3.09c-.12.1-.24.21-.36.31-.02.02-.03.03-.05.05-.11.1-.21.2-.32.31-.02.02-.04.04-.06.06.12-.13.25-.25.38-.38.13-.12.26-.24.4-.35"/>
          <path class="cls-3" d="M39.42,2.92c.08-.06.15-.12.23-.18,0,0-.02.01-.03.02-.02.01-.04.03-.05.04-.06.05-.12.1-.19.15.01,0,.02-.02.04-.03"/>
          <path class="cls-3" d="M51.41.3h0s-.03,0-.05-.01c.21.04.42.08.63.13-.19-.04-.38-.08-.58-.12"/>
          <path class="cls-3" d="M42.16,1.26c-.08.04-.17.08-.25.11-.03.01-.06.03-.09.04.11-.05.22-.1.34-.15"/>
          <path class="cls-3" d="M41.44,1.6s0,0,0,0c0,0,0,0,0,0,0,0,.01,0,.02,0,0,0-.01,0-.02,0"/>
          <polyline class="cls-3" points="90.08 75.3 90.08 75.3 92.19 72.74 90.08 75.3 90.08 75.3"/>
          <path class="cls-3" d="M96.28,81.26c.04.32.08.64.11.96,0-.05-.01-.11-.02-.16,0-.05-.01-.1-.02-.15-.03-.22-.05-.43-.08-.65l-.39-3.05-.45-3.5h0s-1.63,2.28-1.63,2.28l1.63-2.28.84,6.55Z"/>
          <path class="cls-3" d="M57.04,29.6h0s.03,0,.04,0c-.01,0-.03,0-.04,0"/>
          <path class="cls-3" d="M80.83,64.45c.23-.13.44-.25.66-.37-.22.12-.43.24-.66.37"/>
          <path class="cls-3" d="M63.46,83.73c.4-.06.77-.13,1.11-.2.13-.03.27-.07.43-.11-.15.04-.3.08-.43.11-.34.07-.71.14-1.11.2"/>
          <path class="cls-3" d="M59.7,82.41c-.13,0-.25,0-.38-.01.12,0,.25.01.38.01Z"/>
          <path class="cls-3" d="M80.83,64.45s0,0,0,0c0,0,0,0,0,0Z"/>
          <path class="cls-3" d="M51.85,11.87s-.03-.06-.04-.08c.03.08.07.15.1.23-.02-.05-.04-.1-.06-.15"/>
          <polyline class="cls-3" points="64.42 102.6 64.41 102.6 64.42 102.6 64.42 102.6"/>
          <path class="cls-3" d="M38.56,128.19c.14.13.27.25.4.38-.03-.03-.07-.07-.1-.1-.1-.09-.2-.19-.3-.28"/>
          <path class="cls-3" d="M40.33,129.89s-.06-.06-.1-.09c.26.25.51.5.76.75-.03-.03-.06-.06-.09-.09-.19-.19-.38-.38-.57-.56"/>
          <path class="cls-3" d="M77.25,100.23s.04-.03.06-.05c-.04.03-.08.06-.12.09.02-.01.04-.03.05-.04"/>
          <path class="cls-3" d="M72.33,103.16h-.04s-.05.03-.05.03l.08-.03s.01,0,.02,0c0,0-.01,0-.02,0,0,0,0,0,0,0"/>
          <path class="cls-3" d="M57,103.98s.1-.01.15-.02c-.05,0-.1.01-.15.02,0,0,0,0,0,0s0,0,0,0"/>
          <path class="cls-3" d="M11.31,106.78s.07.09.11.14c-.11-.15-.22-.29-.33-.43.07.1.14.19.22.29"/>
          <polyline class="cls-3" points="9.72 61.37 9.72 61.38 9.72 61.38 9.72 61.38 9.72 61.37"/>
          <path class="cls-3" d="M35.28,103.07s-.07-.02-.1-.03c.03,0,.07.02.1.03"/>
          <path class="cls-3" d="M31.85,102.01s0,0,0,0c-.04-.02-.09-.03-.13-.05.04.02.09.03.13.05,0,0,0,0,0,0"/>
          <path class="cls-3" d="M33.16,102.45s0,0,0,0c-.04-.01-.08-.03-.12-.04.04.01.08.03.12.04t0,0"/>
          <path class="cls-3" d="M5.99,79.62c-.23-.37-.48-.8-.71-1.31.23.51.48.94.71,1.31"/>
          <path class="cls-3" d="M32.51,104.71s.03,0,.05,0c-.21-.02-.42-.04-.63-.06.2.02.39.04.58.05"/>
          <path class="cls-3" d="M64.19,104.71c.06,0,.12-.01.17-.02-.13.01-.26.02-.39.04.07,0,.15-.01.22-.02"/>
          <path class="cls-3" d="M31.09,101.73s-.07-.03-.1-.04h0s.07.03.1.04"/>
          <path class="cls-3" d="M62.98,104.81s.05,0,.08,0c-.14.01-.28.02-.43.03.11,0,.23-.02.35-.03"/>
          <polyline class="cls-3" points="68.79 101.11 68.79 101.11 68.79 101.11 68.79 101.11"/>
          <path class="cls-3" d="M70.56,100.32s-.01,0-.02,0h0s.01,0,.02,0"/>
          <path class="cls-3" d="M63.79,102.76s.04-.01.06-.02c-.02,0-.04.01-.06.02h0s0,0,0,0"/>
          <path class="cls-3" d="M65.69,102.23s.04-.01.06-.02c-.02,0-.04.01-.06.02,0,0,0,0,0,0,0,0,0,0,0,0"/>
          <path class="cls-3" d="M59.22,103.68s-.09.01-.14.02c.05,0,.09-.01.14-.02h0"/>
          <path class="cls-3" d="M61.85,103.21s.02,0,.03,0c0,0-.02,0-.03,0h0"/>
          <path class="cls-3" d="M60.47,103.47s.08-.01.11-.02c0,0,0,0,0,0,0,0,0,0,0,0-.04,0-.08.01-.12.02h0s0,0,0,0"/>
          <path class="cls-3" d="M95.91,96.01c.11-.52.21-1.06.3-1.61,0,0,0,0,0,0,0,0,0,0,0,0-.09.56-.19,1.1-.3,1.61"/>
          <path class="cls-3" d="M92.31,105.32c-.07.14-.13.27-.18.39.06-.12.12-.25.18-.39"/>
          <polyline class="cls-3" points="86.52 105.2 86.52 105.2 86.52 105.2 86.52 105.2"/>
          <path class="cls-3" d="M56.35,33.67c.02-.11.04-.22.06-.33-.02.11-.04.22-.06.34v.28-.28s0,0,0,0"/>
          <path class="cls-3" d="M59.87,82.41c.63-.01,1.24-.09,1.83-.25-.6.15-1.2.23-1.83.25"/>
          <path class="cls-3" d="M22.65,97.22s0,0,0,0c-.01-.01-.03-.02-.04-.03.01,0,.03.02.04.03"/>
          <polyline class="cls-3" points="23.59 97.87 23.59 97.87 23.59 97.87 23.59 97.87"/>
          <path class="cls-3" d="M24.45,98.43s.07.04.1.06h0s0,0,0,0c-.03-.02-.07-.04-.1-.06,0,0,0,0,0,0,0,0,0,0,0,0"/>
          <path class="cls-3" d="M25.4,99s.08.05.13.07c-.04-.02-.09-.05-.13-.07,0,0,0,0,0,0,0,0,0,0,0,0"/>
          <polygon class="cls-3" points="18 98.97 18 98.97 18.32 98.69 18 98.97"/>
          <polyline class="cls-3" points="23.06 97.51 23.06 97.51 23.06 97.51 23.06 97.51"/>
          <path class="cls-3" d="M30.48,101.49s0,0,0,0c-.03-.01-.07-.03-.1-.04.03.01.07.03.1.04,0,0,0,0,0,0"/>
          <path class="cls-3" d="M28.56,100.66s0,0,0,0c-.05-.02-.1-.05-.15-.07.05.02.1.05.15.07,0,0,0,0,0,0"/>
          <path class="cls-3" d="M27.88,100.33c.06.03.11.06.17.08-.06-.03-.12-.06-.17-.08h0s0,0,0,0Z"/>
          <path class="cls-3" d="M29.09,100.9s0,0,0,0c-.01,0-.02-.01-.03-.02.01,0,.02.01.03.02,0,0,0,0,0,0"/>
          <path class="cls-3" d="M25.89,99.28s.09.05.14.08c-.05-.03-.1-.05-.14-.08,0,0,0,0,0,0,0,0,0,0,0,0"/>
          <path class="cls-3" d="M35.54,20.03c.18.41.37.82.58,1.22l.02.03-.02-.03c-.21-.41-.41-.81-.58-1.22"/>
          <polyline class="cls-3" points="40.34 64.76 40.34 64.76 40.34 64.76 40.34 64.76"/>
          <polyline class="cls-3" points="38.58 63.81 40.34 59.41 38.58 63.81 38.58 63.81 38.58 63.81"/>
          <path class="cls-3" d="M21.93,101.99s.05.03.08.05c-.13-.08-.26-.16-.39-.24.1.07.21.13.31.19"/>
          <polygon class="cls-3" points="24.36 103.16 24.36 103.16 24.36 103.16 24.42 103.18 24.4 103.17 24.36 103.16"/>
          <path class="cls-3" d="M39.7,105s-.05,0-.07,0c-.09,0-.19,0-.29,0,.07,0,.15,0,.22,0,.14,0,.28,0,.41-.01,0,0,0,0,0,0-.08,0-.17,0-.26,0"/>
          <polygon class="cls-3" points="24.45 103.19 24.53 103.22 24.5 103.21 24.45 103.19"/>
          <path class="cls-3" d="M46.84,18.77s0,0,0,0c.01.03.03.06.04.1-.01-.03-.03-.06-.04-.09,0,0,0,0,0,0"/>
          <path class="cls-3" d="M.42,93.98c0,.06.02.12.03.18,0-.06-.02-.12-.03-.18,0,0,0,0,0,0"/>
          <path class="cls-3" d="M.05,89.94s0,0,0,0c0-.08,0-.16,0-.24,0,.08,0,.16,0,.24"/>
          <path class="cls-3" d="M45.45,16.42c.07.09.14.17.2.26-.06-.09-.13-.17-.2-.26,0,0,0,0,0,0"/>
          <path class="cls-3" d="M48.33,19.24s0,0,0,0c.06-.01.13-.03.19-.04-.06.01-.13.03-.19.04h0"/>
          <polyline class="cls-3" points="96.62 90.4 96.62 90.4 96.62 90.41 96.62 90.4"/>
          <path class="cls-3" d="M52.03,15.01c.02-.07.04-.14.06-.21.02-.08.04-.16.05-.25-.02.08-.03.16-.05.25-.02.07-.04.14-.06.21"/>
          <polyline class="cls-3" points="46.58 18.19 46.58 18.19 46.58 18.19 46.58 18.19"/>
          <path class="cls-3" d="M46.69,18.43s-.03-.05-.04-.08c.01.03.03.06.04.08,0,0,0,0,0,0,0,0,0,0,0,0"/>
          <path class="cls-3" d="M51.75,15.68c.03-.05.05-.1.08-.15,0,0,0,0,0,0-.02.05-.05.1-.08.15"/>
          <path class="cls-3" d="M51.47,16.13s-.02.02-.02.03c0-.01.02-.02.02-.03"/>
          <path class="cls-3" d="M46.97,19.09s0,0,0,0c.02.04.03.08.05.13-.02-.04-.03-.08-.05-.13,0,0,0,0,0,0"/>
          <path class="cls-3" d="M50.18,18.07h0s.03-.06.05-.09c-.02.03-.03.06-.05.09,0,0,0,0,0,0"/>
          <path class="cls-3" d="M46.1,17.34s0,0,0,0c.05.07.09.15.13.22-.04-.07-.09-.14-.13-.22,0,0,0,0,0,0"/>
          <path class="cls-3" d="M49.92,18.62s-.01.03-.02.04c0-.01.01-.03.02-.04,0,0,0,0,0,0h0Z"/>
          <path class="cls-3" d="M46.8,18.68s-.03-.07-.05-.11c.02.04.03.08.05.11,0,0,0,0,0,0,0,0,0,0,0,0"/>
          <path class="cls-3" d="M50.79,17.04s-.05.07-.07.11c.02-.04.05-.07.07-.11,0,0,0,0,0,0"/>
          <polyline class="cls-3" points="55.8 130.45 55.8 130.45 55.8 130.45 55.8 130.45"/>
          <path class="cls-3" d="M56.66,104.99s-.04,0-.06,0c.02,0,.04,0,.06,0"/>
          <polygon class="cls-3" points="56.35 104.05 56.35 104.05 56.35 104.98 56.35 104.98 56.35 104.98 56.35 104.05"/>
          <path class="cls-3" d="M58.07,105.02c-.11,0-.22,0-.33,0,.11,0,.22,0,.33,0,.16,0,.31,0,.47,0-.16,0-.31,0-.47,0h0"/>
          <path class="cls-3" d="M61.05,104.93s-.09,0-.13,0c.04,0,.09,0,.13,0"/>
          <path class="cls-3" d="M47.07,19.33s0,0,0,0c0,0,0,0,0,0,.02.06.05.13.07.19,0,0,0-.02,0-.02-.02-.05-.04-.11-.06-.16"/>
          <path class="cls-3" d="M69.8,103.94c-.07.02-.14.03-.21.05.07-.02.14-.03.21-.05"/>
          <path class="cls-3" d="M68.4,104.22c-.07.01-.15.03-.22.04.07-.01.15-.02.22-.04"/>
          <path class="cls-3" d="M69.12,104.09c-.08.02-.16.03-.24.05.08-.02.16-.03.24-.05"/>
          <path class="cls-3" d="M84.18,51.21h0c-.11.1-.21.19-.32.28.11-.09.22-.19.32-.28"/>
          <path class="cls-3" d="M12.27,32.31s-.01,0-.02,0c.03,0,.05-.02.08-.02-.02,0-.04.01-.06.02"/>
          <path class="cls-3" d="M12.66,32.2s-.01,0-.02,0c.02,0,.03,0,.05-.01,0,0-.02,0-.03,0"/>
          <path class="cls-3" d="M37.18,105s-.04,0-.05,0c.02,0,.04,0,.05,0"/>
          <path class="cls-3" d="M37.98,105.01c-.05,0-.11,0-.16,0,.05,0,.11,0,.16,0"/>
          <path class="cls-3" d="M36.41,104.97s-.03,0-.05,0c.02,0,.03,0,.05,0"/>
          <path class="cls-3" d="M39.11,105.02c.08,0,.15,0,.23,0-.1,0-.2,0-.3,0-.03,0-.05,0-.08,0-.11,0-.21,0-.32,0,0,0,0,0,0,0,0,0,0,0,0,0,.17,0,.33,0,.48,0"/>
          <path class="cls-3" d="M34.89,104.89c-.38-.02-.77-.05-1.17-.08.4.03.79.06,1.17.08.18.01.36.02.53.03-.18,0-.35-.02-.53-.03,0,0,0,0,0,0"/>
          <path class="cls-3" d="M19.45,100.23c.08.07.17.13.25.2-.11-.09-.22-.17-.32-.26.02.02.05.04.07.06"/>
          <path class="cls-3" d="M18.18,99.14c.06.05.11.1.17.16.08.07.16.14.24.22-.08-.07-.17-.15-.24-.22-.06-.05-.11-.1-.17-.16"/>
          <path class="cls-3" d="M74.46,102.17s.05-.03.07-.04c-.05.03-.09.05-.14.08.02-.01.05-.03.07-.04"/>
          <path class="cls-3" d="M28.05,120.44s0,0,0,0c-.06-.03-.13-.07-.19-.1.07.04.13.07.19.1"/>
          <path class="cls-3" d="M27.78,120.29s0,0,0,0c-.04-.02-.08-.05-.12-.07.04.02.08.05.12.07"/>
          <path class="cls-3" d="M28.37,120.6c.09.05.19.1.28.15-.09-.05-.19-.1-.28-.15h0Z"/>
          <path class="cls-3" d="M49.08,19.08h0s0,0,0,0c.23-.05.46-.09.7-.14,0,0,0,0,0,0h0c-.23.04-.46.09-.7.14"/>
          <path class="cls-3" d="M40.34,104.98h0c-.06,0-.12,0-.18,0,.06,0,.12,0,.18,0"/>
          <path class="cls-3" d="M56.35,84.03v-2.51,2.51c.16.01.32.02.48.03-.06,0-.11,0-.17-.01-.1,0-.21-.01-.31-.02"/>
          <path class="cls-3" d="M20.67,101.15c-.21-.15-.43-.31-.65-.47.22.16.43.32.65.47"/>
          <path class="cls-3" d="M75.15,61.87s0,0,0,0c0,0,0,0,0,0,.06.02.13.04.19.06-.06-.02-.13-.04-.19-.06"/>
          <polygon class="cls-3" points="89.68 42.71 89.68 42.71 89.68 42.71 89.68 42.71"/>
          <polyline class="cls-3" points="81.87 53.24 81.87 53.24 81.87 53.24 81.87 53.24"/>
          <path class="cls-3" d="M90.23,39.12h0s0-.08,0-.12c0,0,0,0,0,0h0s0,.08,0,.12c0,0,0,0,0,0"/>
          <polyline class="cls-3" points="89.01 44.27 89.01 44.27 89.01 44.28 89.01 44.27"/>
          <polyline class="cls-3" points="88.12 46.19 88.12 46.19 88.12 46.19 88.12 46.19"/>
          <path class="cls-3" d="M88.6,45.23s0,0,0,0c0,0,0,0,0,0-.01.02-.02.05-.03.07.01-.02.02-.04.03-.07"/>
          <path class="cls-3" d="M90.15,35.3h0s0,0,0,0c0,.05.01.09.02.14,0-.05-.01-.09-.02-.14"/>
          <path class="cls-3" d="M90.22,35.95s0,0,0,0c0-.05,0-.1-.01-.15h0s0,0,0,0c0,.05.01.1.01.16h0"/>
          <path class="cls-3" d="M90.08,34.87s0-.05-.01-.07c0,.02,0,.05.01.07Z"/>
          <path class="cls-3" d="M90.28,36.96h0s0-.06,0-.09c0,.03,0,.06,0,.09h0Z"/>
          <path class="cls-3" d="M90.25,36.32h0s0,0,0,0c0,.05,0,.1.01.14,0-.05,0-.09-.01-.14"/>
          <polygon class="cls-3" points="85.65 49.73 85.65 49.73 85.65 49.74 85.65 49.73"/>
          <path class="cls-3" d="M83.43,51.84h0s0,0,0,0c-.03.02-.05.04-.08.06.03-.02.05-.04.08-.06"/>
          <polygon class="cls-3" points="84.47 50.94 84.47 50.94 84.47 50.94 84.47 50.94"/>
          <path class="cls-3" d="M82.42,52.6s.01,0,.02-.01c0,0,0,0,0,0,0,0,0,0,0,0,0,0-.01.01-.02.02h0"/>
          <path class="cls-3" d="M84.73,50.7s0,0,0,0c.02-.02.04-.03.05-.05-.02.02-.04.03-.05.05,0,0,0,0,0,0"/>
          <path class="cls-3" d="M89.99,34.3h0s0-.02,0-.02c0,0,0,.02,0,.02h0Z"/>
          <path class="cls-3" d="M85.85,49.5s.04-.05.06-.08c-.02.03-.04.05-.06.08h0"/>
          <path class="cls-3" d="M86.62,48.54h0s-.02.02-.02.03c0,0,.02-.02.02-.03"/>
          <path class="cls-3" d="M87.47,47.3s0,0,0,0c.04-.06.08-.13.12-.2-.04.07-.08.13-.12.2,0,0,0,0,0,0"/>
          <path class="cls-3" d="M67.97,18.43h0s0,0,0,0c.02,0,.03,0,.05,0-.01,0-.03,0-.05,0"/>
          <path class="cls-3" d="M68.45,18.48h0s0,0,0,0c.03,0,.06,0,.09.01-.03,0-.06,0-.09-.01"/>
          <path class="cls-3" d="M70.12,18.69h0c-.05,0-.1-.01-.15-.02.05,0,.1.01.15.02h0"/>
          <path class="cls-3" d="M69.09,18.55h0s-.09-.01-.13-.02c0,0,0,0,0,0,.04,0,.09.01.13.02h0"/>
          <path class="cls-3" d="M64.18,18.14h0s.03,0,.04,0c-.01,0-.03,0-.04,0"/>
          <path class="cls-3" d="M89.89,33.81h0c-.01-.06-.02-.11-.04-.16.01.06.03.11.04.17h0"/>
          <path class="cls-3" d="M62.11,16.98h0c-.01.06-.03.13-.04.19.01-.06.03-.13.04-.19"/>
          <polyline class="cls-3" points="62.06 17.22 62.06 17.22 62.06 17.22 62.06 17.22"/>
          <path class="cls-3" d="M70.47,18.75h0c.05,0,.11.02.16.02-.05,0-.11-.02-.16-.02"/>
          <path class="cls-3" d="M63.59,18.12h0s.04,0,.06,0c-.02,0-.04,0-.06,0"/>
          <path class="cls-3" d="M61.97,17.61s0,0,0,0c0,0,0,0,0,0-.02.06-.03.13-.05.19.02-.06.03-.13.05-.19"/>
          <path class="cls-3" d="M63.01,18.1h0s0,0,0,0c.02,0,.04,0,.06,0-.02,0-.04,0-.05,0"/>
          <path class="cls-3" d="M62.15,16.73c.01-.08.03-.16.04-.24,0,0,0,0,0,0,0,0,0,0,0,0-.01.08-.03.16-.04.24,0,0,0,0,0,0"/>
          <path class="cls-3" d="M71.12,18.85s0,0,0,0c-.05,0-.1-.02-.15-.03.05,0,.1.02.16.03,0,0,0,0,0,0"/>
          <polyline class="cls-3" points="76.04 19.99 76.04 19.99 76.04 19.99 76.04 19.99"/>
          <path class="cls-3" d="M89.64,32.82c-.02-.06-.03-.12-.05-.18,0,0,0,0,0,0,0,0,0,0,0,0,.02.06.03.12.05.18h0"/>
          <path class="cls-3" d="M89.77,33.31h0c-.02-.06-.03-.12-.05-.18.02.06.03.12.05.18h0"/>
          <path class="cls-3" d="M71.6,18.93s0,0,0,0c-.04,0-.08-.01-.12-.02.04,0,.09.02.13.02,0,0,0,0,0,0"/>
          <path class="cls-3" d="M73.81,19.38c-.07-.02-.14-.03-.21-.05,0,0,0,0,0,0,0,0,0,0,0,0,.07.02.14.03.22.05Z"/>
          <path class="cls-3" d="M74.72,19.61s0,0,0,0c-.03,0-.06-.02-.1-.02.03,0,.06.02.1.02h0"/>
          <path class="cls-3" d="M74.04,19.44s0,0,0,0c.07.02.15.04.22.05-.07-.02-.15-.04-.22-.05"/>
          <path class="cls-3" d="M75.6,19.86s0,0,0,0c-.08-.02-.15-.04-.23-.07,0,0,0,0,0,0,.08.02.16.04.23.07,0,0,0,0,0,0"/>
          <path class="cls-3" d="M87.94,78.48s0,0,0,0c0-.1,0-.19,0-.29,0,.1,0,.2,0,.3,0,0,0,0,0,0"/>
          <path class="cls-3" d="M87.82,79.88h0s0,0,0,0c0-.08.02-.16.03-.24,0,.08-.02.16-.03.25,0,0,0,0,0,0"/>
          <path class="cls-3" d="M62.25,16.15s0,0,0,0c.01-.09.02-.18.03-.26-.01.09-.02.18-.03.27,0,0,0,0,0,0"/>
          <polyline class="cls-3" points="62.28 15.87 62.28 15.87 62.28 15.87 62.28 15.87"/>
          <path class="cls-3" d="M87.87,79.43c0-.07.01-.15.02-.22,0,.07-.01.15-.02.22,0,0,0,0,0,0"/>
          <path class="cls-3" d="M87.75,80.42c0-.06.02-.12.03-.19,0,0,0,0,0,0h0c0,.06-.02.13-.03.19h0"/>
          <path class="cls-3" d="M77.65,62.76s0,0,0,0c-.07-.03-.14-.06-.22-.09,0,0,0,0,0,0,0,0,0,0,0,0,.07.03.15.06.22.09h0Z"/>
          <path class="cls-3" d="M77.32,62.62s0,0,0,0c-.03-.01-.06-.02-.09-.03.03.01.06.02.09.04,0,0,0,0,0,0"/>
          <path class="cls-3" d="M76.79,62.41h0s0,0,0,0Z"/>
          <polyline class="cls-3" points="76.99 62.49 76.99 62.49 76.99 62.49 76.99 62.49"/>
          <path class="cls-3" d="M87.95,78.01c0-.08,0-.16,0-.24,0,0,0,0,0,0,0,.08,0,.16,0,.24"/>
          <path class="cls-3" d="M76.44,62.28s0,0,0,0c0,0,0,0,0,0,.08.03.16.06.24.09-.08-.03-.16-.06-.24-.09"/>
          <path class="cls-3" d="M87.38,82.19s0-.01,0-.02c0,0,0,.01,0,.02h0"/>
          <polyline class="cls-3" points="77.76 62.8 77.76 62.8 77.76 62.8 77.76 62.8"/>
          <path class="cls-3" d="M96.67,86.08c0-.16-.01-.32-.02-.49h0s0,0,0,0c0-.15-.01-.31-.02-.46.02.32.03.65.04.97,0,0,0-.01,0-.02"/>
          <path class="cls-3" d="M87.09,83.21s.02-.05.02-.08c0,.03-.02.05-.02.08,0,0,0,0,0,0"/>
          <path class="cls-3" d="M96.62,84.96s0-.09,0-.14c0-.06,0-.12-.01-.18,0,.16.02.32.03.48,0-.06,0-.11,0-.17"/>
          <path class="cls-3" d="M76.37,62.26c-.07-.02-.14-.05-.21-.07.07.02.14.05.21.07h0"/>
          <path class="cls-3" d="M96.52,83.51s0-.09-.01-.13c0-.05,0-.1-.01-.16.01.15.03.3.04.45,0-.05,0-.11-.01-.16"/>
          <path class="cls-3" d="M96.45,82.72h0c-.02-.17-.03-.33-.05-.5.02.2.04.4.06.6,0-.03,0-.07,0-.1"/>
          <path class="cls-3" d="M88.28,83.86c-.14.13-.28.27-.42.4.14-.13.28-.27.42-.4t0,0"/>
          <path class="cls-3" d="M89.92,82.17c-.06.07-.12.13-.18.19.06-.06.12-.13.18-.19"/>
          <path class="cls-3" d="M73.94,61.54h0c.06.02.13.03.19.05-.06-.02-.13-.03-.19-.05"/>
          <path class="cls-3" d="M78.12,58.09s0,0,0,0c.1-.06.21-.12.31-.18-.1.06-.2.12-.31.18,0,0,0,0,0,0"/>
          <path class="cls-3" d="M78.03,58.14s0,0,0,0c-.13.07-.27.14-.41.21.14-.07.28-.14.41-.21"/>
          <path class="cls-3" d="M78.81,57.66s0,0,0,0c-.07.05-.15.1-.22.15.08-.05.15-.1.22-.15"/>
          <path class="cls-3" d="M77.18,58.56c.1-.04.19-.09.28-.13,0,0,0,0,0,0h0c-.09.04-.19.09-.29.13,0,0,0,0,0,0"/>
          <path class="cls-3" d="M79.17,57.4h0s-.1.07-.14.11c.05-.04.1-.07.14-.11"/>
          <polyline class="cls-3" points="78.97 57.55 78.97 57.55 78.97 57.55 78.97 57.55"/>
          <path class="cls-3" d="M76.72,58.75s0,0,0,0c.09-.04.19-.07.28-.11h0s0,0,0,0c-.09.04-.18.08-.28.11,0,0,0,0,0,0"/>
          <path class="cls-3" d="M80.52,56.09s0,0,0,0h0c-.08.1-.17.21-.26.31.09-.1.18-.2.26-.3"/>
          <polyline class="cls-3" points="81.63 54.11 81.63 54.11 81.63 54.11 81.63 54.11"/>
          <path class="cls-3" d="M79.33,57.28h0c.06-.05.12-.1.18-.15-.06.05-.12.1-.18.15,0,0,0,0,0,0"/>
          <polyline class="cls-3" points="75.17 59.25 75.17 59.25 75.17 59.25 75.17 59.25"/>
          <path class="cls-3" d="M81.2,55.07h0s.03-.06.05-.09c-.02.03-.03.06-.05.09,0,0,0,0,0,0"/>
          <path class="cls-3" d="M71.45,61.09h0s.06,0,.1.01c-.03,0-.06,0-.1-.01"/>
          <path class="cls-3" d="M73.59,61.46c-.06-.01-.11-.02-.17-.04,0,0,0,0,0,0,0,0,0,0,0,0,.06.01.11.02.17.04,0,0,0,0,0,0"/>
          <path class="cls-3" d="M73.15,61.37s0,0,0,0h0c.06.01.13.03.2.04-.06-.01-.13-.03-.19-.04"/>
          <path class="cls-3" d="M81.81,53.49h0s0,.03,0,.04c0-.01,0-.03,0-.04"/>
          <path class="cls-3" d="M74.21,61.61s0,0,0,0t0,0Z"/>
          <polyline class="cls-3" points="74.76 61.75 74.76 61.75 74.76 61.75 74.76 61.75 74.76 61.75"/>
          <path class="cls-3" d="M72.64,61.27h0s0,0,0,0c.06.01.12.02.18.03-.06-.01-.12-.02-.18-.03"/>
          <path class="cls-3" d="M75.05,61.84s0,0,0,0c-.07-.02-.14-.04-.2-.06,0,0,0,0,0,0,.07.02.14.04.21.06h0Z"/>
          <path class="cls-3" d="M72.14,61.19h0s-.09-.01-.13-.02h0s.09.01.13.02h0"/>
          <path class="cls-3" d="M71.77,61.13h0c-.06,0-.11-.02-.17-.02.05,0,.11.01.17.02h0"/>
          <path class="cls-3" d="M71.39,61.08s-.05,0-.08,0c.03,0,.05,0,.08,0h0"/>
          <path class="cls-3" d="M72.42,61.23h0s.1.02.15.03c-.05,0-.1-.02-.15-.03"/>
          <path class="cls-3" d="M71.79,61.13s0,0,0,0c0,0,0,0,0,0,.06,0,.11.02.17.02-.06,0-.11-.02-.17-.02"/>
          <path class="cls-3" d="M6.97,42.6s0,.02,0,.03c0-.02-.02-.04-.02-.06,0,.01,0,.02.01.04"/>
          <path class="cls-3" d="M6.68,41.45s0,0,0,0c0-.03,0-.06-.01-.1,0,.03,0,.06.01.1"/>
          <path class="cls-3" d="M6.69,41.52c.01.08.03.15.05.23-.02-.08-.03-.15-.05-.23,0,0,0,0,0,0"/>
          <path class="cls-3" d="M37.63,127.35c.15.14.31.28.46.42-.05-.05-.1-.09-.15-.14-.1-.09-.21-.19-.31-.28"/>
          <path class="cls-3" d="M8.71,45.43c.09.1.19.19.29.28h0c-.1-.09-.2-.19-.29-.29,0,0,0,0,0,0"/>
          <path class="cls-3" d="M9.3,45.99h0s0,0,0,0c-.05-.04-.1-.09-.15-.13.05.04.1.09.15.13"/>
          <path class="cls-3" d="M10.46,46.81s0,0,0,0c.05.03.09.05.14.08,0,0,0,0,0,0s0,0,0,0c-.05-.03-.1-.05-.14-.08,0,0,0,0,0,0"/>
          <path class="cls-3" d="M11.28,47.24h0s-.06-.03-.09-.04c.03.01.06.03.09.04"/>
          <path class="cls-3" d="M10.27,46.7s0,0,0,0h0c-.05-.03-.1-.07-.16-.1.05.03.1.07.15.1"/>
          <path class="cls-3" d="M6.58,40.38s0,.02,0,.03c0-.03,0-.06,0-.09,0,.02,0,.04,0,.06"/>
          <path class="cls-3" d="M6.59,40.71s0,.04,0,.06c0-.03,0-.07,0-.1,0,.01,0,.03,0,.04"/>
          <path class="cls-3" d="M53.82,132.52s0,0,0,0c-.14.16-.28.31-.42.46.14-.15.28-.31.42-.46"/>
          <polyline class="cls-3" points="23.29 33.95 23.29 33.95 23.29 33.95 23.29 33.95 23.29 33.95"/>
          <path class="cls-3" d="M15.51,31.95c-.05,0-.1,0-.15-.01.08,0,.17.01.25.02-.03,0-.07,0-.1,0"/>
          <path class="cls-3" d="M14.29,31.94c-.09,0-.18.01-.27.02,0,0-.01,0-.02,0,.12-.01.24-.02.37-.03-.03,0-.05,0-.08,0"/>
          <path class="cls-3" d="M16.28,32.05s-.07-.01-.11-.02c.07.01.15.03.22.04-.04,0-.08-.02-.11-.02"/>
          <path class="cls-3" d="M15.2,31.93s-.02,0-.03,0c-.11,0-.23,0-.34,0h0c-.05,0-.11,0-.16,0,.05,0,.11,0,.16,0,.13,0,.25,0,.37,0"/>
          <path class="cls-3" d="M17.92,32.54s-.03-.01-.04-.02c0,0-.02,0-.02,0,.05.02.11.04.17.07-.03-.01-.07-.03-.1-.04"/>
          <path class="cls-3" d="M15.97,32s-.08-.01-.12-.02c-.03,0-.05,0-.08,0,.08,0,.16.02.24.03-.01,0-.03,0-.04,0"/>
          <path class="cls-3" d="M16.76,32.16c-.06-.01-.11-.03-.17-.04-.01,0-.02,0-.04,0,.08.02.15.03.22.05,0,0-.01,0-.02,0"/>
          <path class="cls-3" d="M17.08,32.24s-.06-.02-.09-.03c.06.02.12.03.17.05-.03,0-.05-.02-.08-.02"/>
          <path class="cls-3" d="M13.86,31.98c-.08,0-.17.02-.25.03-.01,0-.02,0-.04,0,.11-.02.23-.03.34-.04-.02,0-.04,0-.06,0"/>
          <path class="cls-3" d="M52.33,134.2h0s0,0-.01.01c0,0,0,0,0-.01"/>
          <path class="cls-3" d="M10.73,32.96c.25-.13.5-.26.77-.37-.26.11-.52.23-.77.37"/>
          <path class="cls-3" d="M14.11,88.4c.07.11.14.22.21.32,0,0,0,0,0,0-.09-.06-.18-.13-.27-.19.09.07.18.13.27.2-.07-.11-.14-.22-.21-.32"/>
          <path class="cls-3" d="M13.71,87.79s0,0,0,.01c0,0,0,0,0,0-.09-.15-.18-.29-.27-.44.09.14.17.28.26.43"/>
          <path class="cls-3" d="M62.34,15.24h0c0,.14-.02.28-.04.42.01-.14.03-.28.04-.42"/>
          <path class="cls-3" d="M0,87.02s0,.03,0,.05c0-.32.01-.65.02-.97,0,.31-.02.61-.02.92"/>
          <path class="cls-3" d="M12.94,108.8s.06.07.09.11c.05.06.11.12.16.18-.09-.1-.18-.2-.26-.3,0,0,0,0,.01.01"/>
          <path class="cls-3" d="M12.74,108.57s.08.1.12.14c-.07-.09-.15-.17-.22-.26.03.04.06.08.1.12"/>
          <path class="cls-3" d="M16.99,112.93c.09.08.17.15.26.23-.09-.08-.17-.15-.26-.23h0"/>
          <path class="cls-3" d="M.07,85.1H.07s0,.06,0,.09c0-.06,0-.11,0-.17,0,.03,0,.05,0,.08"/>
          <path class="cls-3" d="M.31,82.06s0,.04,0,.05c0-.04,0-.09.01-.13,0,.03,0,.05,0,.08"/>
          <polygon class="cls-3" points="1.25 74.71 .41 81.26 .41 81.26 .41 81.27 .41 81.26 1.25 74.71"/>
          <path class="cls-3" d="M13.32,50.03s0,0,0,0c0,0,0,0,0,0,0-.02.02-.05.03-.07,0,.02-.02.04-.03.07"/>
          <path class="cls-3" d="M62.25,12.4s0,0,0,0c.02.17.04.33.06.5-.02-.17-.03-.33-.06-.5"/>
          <path class="cls-3" d="M61.56,9.5s0,0,0,0c.05.14.1.28.14.42-.04-.14-.09-.28-.14-.42"/>
          <path class="cls-3" d="M60.94,7.97s-.02-.03-.02-.05c.03.05.05.11.07.16-.02-.04-.03-.07-.05-.11"/>
          <path class="cls-3" d="M62.37,13.99c0-.14,0-.27-.01-.41,0,.14.01.27.01.41"/>
          <polyline class="cls-3" points="36.98 22.71 36.98 22.72 36.98 22.71 36.98 22.71"/>
          <polyline class="cls-3" points="36.85 22.51 36.85 22.51 36.85 22.51 36.85 22.51"/>
          <path class="cls-3" d="M35.26,24.23s0,0,0,0c.01,0,.03-.02.04-.02-.01,0-.03.01-.04.02"/>
          <path class="cls-3" d="M62.36,13.49s0-.08,0-.11c0,.04,0,.08,0,.11h0Z"/>
          <path class="cls-3" d="M71.27,118.88c-.13.08-.26.16-.39.24.13-.08.26-.16.39-.24.14-.08.27-.17.41-.25.16-.1.31-.19.46-.28-.15.09-.3.18-.46.28-.13.08-.27.16-.41.25"/>
          <path class="cls-3" d="M36.53,21.97s0,.01.01.02c.05.09.1.17.15.26,0,0,0,0,0,0,0,0,0,0,0,0-.06-.1-.12-.2-.18-.3,0,0,0,.01.01.02"/>
          <path class="cls-3" d="M37.25,23.14s0,0,0,.01c0-.01-.02-.02-.02-.04,0,0,0,.02.01.02"/>
          <path class="cls-3" d="M65.15,122.52s0,0,0,0c-.22.15-.43.3-.65.45.22-.15.43-.3.65-.45"/>
          <path class="cls-3" d="M69.87,119.74s.07-.04.11-.07c-.05.03-.1.06-.15.09.01,0,.03-.02.04-.02"/>
          <polyline class="cls-3" points="30.38 27.42 30.38 27.42 30.38 27.42 30.38 27.42"/>
          <path class="cls-3" d="M62.37,14.58h0c0-.15,0-.3,0-.45h0c0,.15,0,.3,0,.45h0"/>
          <path class="cls-3" d="M28.75,28.7c-.18.15-.36.3-.54.45.18-.15.36-.3.54-.45,0,0,0,0,0,0"/>
          <path class="cls-3" d="M62.37,14.74h0s0,.03,0,.05c0-.02,0-.03,0-.05"/>
          <path class="cls-3" d="M29.66,27.97c-.09.07-.18.15-.28.22.09-.07.18-.15.28-.22h0"/>
          <path class="cls-3" d="M66.44,121.69c.19-.12.38-.23.57-.35-.19.11-.38.23-.57.35,0,0,0,0,0,0"/>
          <path class="cls-3" d="M69.18,120.14s0,0,0,0c0,0,0,0,.01,0-.01,0-.03.02-.04.02,0,0,.02,0,.03-.01"/>
          <polyline class="cls-3" points="68.57 120.48 68.57 120.48 68.57 120.48 68.57 120.48"/>
          <polygon class="cls-3" points="25.98 31.16 25.97 31.16 25.98 31.16 25.98 31.16"/>
          <polyline class="cls-3" points="33.33 25.39 33.33 25.39 33.33 25.39 33.33 25.39"/>
          <path d="M96.68,86.59c0-.16,0-.32-.01-.49-.01-.32-.02-.65-.04-.97,0-.16-.02-.32-.03-.48,0-.11-.01-.23-.02-.34-.01-.21-.03-.42-.05-.63-.01-.15-.03-.3-.04-.45-.01-.14-.02-.27-.04-.41-.02-.2-.04-.4-.06-.6-.03-.32-.07-.64-.11-.96l-.84-6.55-1.63,2.28-2.21,3.09c-.06.09-.13.17-.19.26-.13.17-.26.35-.4.52-.01.02-.02.03-.04.05-.06.07-.11.14-.17.21-.05.07-.11.14-.16.2-.05.06-.09.11-.14.17-.07.08-.14.16-.21.24-.1.11-.2.23-.3.34-.03.03-.05.06-.08.09-.06.07-.12.13-.18.19-.03.04-.07.08-.1.11-.07.07-.14.15-.21.22-.16.17-.32.34-.49.51-.03.03-.05.05-.08.08-.17.17-.34.34-.51.51-.02.02-.04.04-.07.06-.14.13-.28.27-.42.4-.14.13-.28.26-.42.39,0,0-.02.02-.03.03-.11.1-.23.21-.34.31-.04.04-.08.08-.13.11-.1.09-.2.18-.3.26-.08.07-.17.15-.25.22h-.01c-.07.07-.15.14-.23.2-.06.05-.12.1-.17.15.06-.11.11-.22.16-.34,0,0,0,0,0-.01.08-.17.15-.33.22-.5,0,0,0,0,0,0,.07-.17.14-.33.21-.5,0-.01,0-.02.01-.04.18-.44.34-.89.48-1.33h0s.02-.05.02-.08c.1-.31.19-.63.27-.94,0,0,0,0,0,0,0,0,0-.01,0-.02,0-.02.01-.05.02-.07,0,0,0,0,0,0,.02-.09.05-.19.07-.28,0-.04.02-.08.03-.12.03-.14.06-.29.09-.43,0,0,0,0,0-.01.03-.14.06-.29.08-.43,0-.06.02-.11.03-.17.01-.08.03-.16.04-.24,0,0,0,0,0,0,0-.06.02-.13.03-.19,0,0,0,0,0,0,.02-.12.03-.23.05-.35.01-.08.02-.16.03-.25,0-.07.01-.14.02-.21,0,0,0,0,0,0,0-.07.01-.15.02-.22,0-.07.01-.13.02-.2,0-.11.01-.21.02-.32,0-.07,0-.14,0-.21,0-.1,0-.2,0-.3,0-.06,0-.12,0-.17h0c0-.08,0-.16,0-.24,0,0,0,0,0,0h0c.17-.19.34-.38.51-.57.01-.01.02-.03.04-.04.16-.19.33-.38.5-.57.02-.02.03-.04.05-.06.16-.19.33-.38.49-.58.02-.02.04-.04.05-.06.16-.2.33-.39.49-.59,0,0,0,0,0,0l2.11-2.56-3.71-3.03c.09-.44.13-.85.12-1.26-.02-1.06-.35-2.01-.91-2.8-.05-.07-.1-.13-.15-.19-.25-.31-.54-.6-.86-.85-.06-.05-.13-.1-.2-.14-.87-.6-1.96-.95-3.16-.95-.07,0-.14,0-.21,0-.02,0-.04,0-.06,0-.05,0-.1,0-.14.02-.02,0-.04,0-.07,0-.05,0-.1.02-.15.03-.02,0-.03,0-.05,0-.06.01-.13.03-.19.05-.01,0-.02,0-.04.01-.05.02-.1.03-.15.05-.02,0-.04.01-.05.02-.04.02-.09.03-.13.05-.02,0-.03.01-.05.02-.12.05-.24.11-.36.17,0,0-.01,0-.02.01-.06.03-.11.06-.17.09,0,0-.01,0-.02,0-.22.12-.43.24-.66.37,0,0,0,0,0,0,0,0,0,0,0,0-.19-.13-.39-.25-.58-.37-.04-.03-.08-.05-.13-.08-.2-.12-.4-.24-.61-.35,0,0,0,0,0,0-.2-.11-.41-.22-.62-.32-.05-.03-.1-.05-.16-.08-.21-.1-.43-.21-.65-.31,0,0,0,0,0,0-.11-.05-.22-.1-.32-.14,0,0,0,0,0,0-.03-.01-.07-.03-.1-.04-.07-.03-.15-.06-.22-.09-.04-.02-.08-.03-.12-.05-.03-.01-.06-.02-.09-.04-.04-.02-.08-.03-.12-.05-.04-.02-.08-.03-.12-.05,0,0,0,0,0,0-.07-.03-.14-.05-.21-.08,0,0,0,0,0,0-.04-.01-.07-.03-.11-.04-.08-.03-.16-.06-.24-.09-.02,0-.04-.02-.07-.02h0c-.07-.02-.14-.05-.21-.07-.03-.01-.07-.02-.1-.03,0,0,0,0,0,0-.02,0-.04-.01-.07-.02-.08-.03-.16-.05-.24-.08-.03-.01-.07-.02-.1-.03-.07-.02-.13-.04-.2-.06-.04-.01-.07-.02-.11-.03-.07-.02-.13-.04-.19-.06-.03,0-.07-.02-.1-.03-.07-.02-.14-.04-.21-.06,0,0,0,0,0,0-.03,0-.05-.02-.08-.02,0,0,0,0,0,0-.19-.05-.37-.1-.55-.15,0,0,0,0,0,0-.02,0-.05-.01-.07-.02-.06-.02-.13-.03-.19-.05h0s-.06-.01-.09-.02c-.06-.01-.12-.03-.17-.04-.03,0-.06-.01-.09-.02,0,0,0,0,0,0-.06-.01-.12-.03-.17-.04-.03,0-.05-.01-.08-.02-.07-.01-.13-.03-.2-.04-.01,0-.03,0-.04,0-.08-.02-.16-.03-.24-.05-.01,0-.03,0-.04,0h0c-.06-.01-.12-.02-.18-.03-.02,0-.05,0-.07-.01-.05,0-.1-.02-.15-.03h0s-.05,0-.07-.01c-.04,0-.09-.01-.13-.02-.02,0-.05,0-.07-.01-.04,0-.09-.01-.13-.02,0,0,0,0,0,0-.02,0-.04,0-.06,0-.06,0-.12-.02-.17-.02,0,0,0,0,0,0-.06,0-.11-.02-.17-.02-.02,0-.04,0-.06,0-.03,0-.07,0-.1-.01-.02,0-.04,0-.06,0,0,0,0,0,0,0-.03,0-.05,0-.08,0-.02,0-.04,0-.06,0-.02,0-.05,0-.07,0-.02,0-.04,0-.06,0-.02,0-.04,0-.06,0-.02,0-.04,0-.06,0l.45-.34,1.33-.98h0c.21-.03.42-.07.64-.1.18-.03.35-.06.52-.09.17-.03.34-.07.51-.1,0,0,0,0,0,0,.18-.04.37-.08.54-.13.06-.01.12-.03.17-.05,0,0,0,0,0,0,.12-.03.24-.06.35-.1.07-.02.13-.04.2-.06.1-.03.21-.06.31-.1.07-.02.14-.05.2-.07.1-.03.19-.07.29-.1.07-.02.13-.05.2-.07.09-.04.19-.08.28-.11.06-.03.12-.05.18-.08,0,0,0,0,0,0,.1-.04.19-.09.29-.13.05-.02.1-.05.16-.07.14-.07.28-.14.41-.21.03-.02.06-.03.09-.05.1-.06.21-.12.31-.18.05-.03.1-.07.15-.1.08-.05.15-.1.22-.15,0,0,0,0,0,0,.05-.04.11-.08.16-.11,0,0,0,0,0,0,.02-.01.03-.03.05-.04.05-.04.1-.07.14-.11.05-.04.11-.08.16-.12.06-.05.12-.1.18-.15.05-.04.1-.09.15-.13.06-.05.11-.11.17-.16.05-.04.09-.09.14-.13.06-.06.11-.12.17-.18.04-.04.08-.09.12-.13.09-.1.18-.2.26-.31,0,0,0,0,0,0,.09-.12.18-.24.27-.36,0,0,0,0,0,0,.09-.12.17-.25.25-.38.06-.1.11-.19.17-.29.02-.03.03-.06.05-.09t0,0c.04-.07.07-.14.1-.2.02-.03.03-.06.05-.1.03-.07.06-.13.09-.2.01-.03.02-.06.04-.09.03-.08.07-.17.09-.25,0-.01,0-.02.01-.03,0,0,0,0,0,0,.07-.2.13-.39.17-.58,0-.01,0-.03,0-.04h0c.02-.08.04-.17.06-.25,0,0,0,0,0,0,0-.01,0-.02,0-.03.02-.09.03-.18.05-.27h0s0,0,0,0c.17-.11.33-.22.5-.33h0s.01-.01.02-.02c.14-.1.28-.2.42-.31.04-.03.07-.06.11-.08.11-.09.23-.17.34-.26.01-.01.03-.02.04-.03.03-.02.05-.04.08-.06.14-.12.29-.23.43-.35.11-.09.22-.19.32-.28.1-.09.19-.18.29-.26,0,0,0,0,0,0,.09-.08.17-.16.25-.24.02-.02.04-.03.05-.05.08-.08.15-.15.23-.23.02-.02.05-.05.07-.07.07-.07.14-.15.22-.22.03-.03.05-.05.08-.08.07-.07.14-.15.21-.23.02-.03.05-.05.07-.08,0,0,0,0,0,0,0,0,0,0,0,0,.07-.08.14-.15.2-.23,0,0,0,0,0,0,.02-.03.04-.05.06-.08.07-.08.14-.16.21-.25,0,0,0,0,.01-.01.16-.19.31-.39.46-.59,0,0,.02-.02.02-.03,0,0,0,0,0,0,.05-.07.1-.14.15-.21.03-.05.07-.09.1-.14.04-.06.09-.13.13-.19.04-.05.08-.11.11-.16.04-.06.08-.12.12-.18.04-.06.08-.12.12-.18.04-.06.07-.12.11-.17.04-.07.08-.13.12-.2.03-.06.07-.11.1-.17.04-.07.08-.14.13-.22.03-.05.06-.1.09-.16.05-.08.09-.16.14-.25.02-.04.05-.09.07-.13,0,0,0,0,0,0,.07-.13.13-.25.2-.38.08-.16.15-.31.23-.47,0,0,0,0,0,0,0-.02.01-.03.02-.05.01-.02.02-.05.03-.07.06-.12.11-.25.17-.37.01-.03.03-.07.04-.1.06-.14.11-.27.17-.41,0-.02.02-.04.03-.07,0,0,0,0,0,0,.06-.16.12-.32.18-.48,0,0,0,0,0,0,0,0,0,0,0,0,.19-.35.35-.71.49-1.08,0,0,0,0,0,0,0,0,0,0,0,0,.04-.11.08-.22.11-.33,0,0,0,0,0,0,.03-.11.07-.23.09-.34,0,0,0,0,0-.01.03-.11.05-.23.08-.34,0,0,0,0,0,0,.02-.12.04-.23.06-.35,0,0,0,0,0,0,.06-.39.09-.8.09-1.2h0s0,0,0,0c.02-.16.04-.33.06-.49,0-.03,0-.06.01-.1.01-.14.03-.27.04-.41,0-.04,0-.08,0-.12.01-.13.02-.26.03-.4,0-.04,0-.07,0-.11,0-.15.01-.29.02-.44,0-.02,0-.04,0-.06,0-.34,0-.68,0-1.03,0-.03,0-.06,0-.09,0-.13-.01-.27-.02-.4,0-.05,0-.1-.01-.14,0-.12-.02-.24-.03-.36,0-.05,0-.1-.02-.16-.01-.12-.03-.24-.04-.36,0,0,0,0,0,0,0,0,0,0,0,0,0-.05-.01-.09-.02-.14-.02-.14-.04-.29-.06-.43,0,0,0,0,0,0,0-.02,0-.05-.01-.07-.03-.17-.06-.34-.09-.5,0,0,0-.02,0-.02,0-.02-.01-.05-.01-.07-.03-.13-.05-.26-.08-.39-.01-.06-.02-.11-.04-.17-.02-.11-.05-.22-.08-.33-.01-.06-.03-.12-.05-.18-.03-.11-.06-.21-.08-.32,0,0,0,0,0,0-.02-.06-.03-.12-.05-.18-.03-.11-.07-.22-.1-.33-.02-.05-.03-.1-.05-.15-.05-.16-.1-.32-.16-.48,0,0,0,0,0,0-.34-.98-.76-1.92-1.25-2.8-.08-.15-.17-.29-.25-.44-.95-1.58-2.15-2.98-3.6-4.2-.66-.55-1.37-1.07-2.13-1.55-.46-.29-.93-.56-1.42-.82-.16-.09-.33-.17-.5-.26-.34-.17-.68-.33-1.03-.48-.53-.23-1.07-.45-1.64-.66-.13-.05-.27-.1-.41-.14,0,0,0,0,0,0-.04-.02-.09-.03-.13-.05-.09-.03-.18-.06-.28-.09-.06-.02-.11-.04-.17-.06-.08-.03-.16-.05-.25-.08h0c-.06-.02-.12-.04-.19-.06,0,0,0,0,0,0-.08-.02-.16-.05-.24-.07h0c-.07-.02-.13-.04-.2-.06-.08-.02-.16-.05-.23-.07,0,0,0,0,0,0-.07-.02-.14-.04-.21-.06-.08-.02-.15-.04-.23-.06-.07-.02-.14-.04-.22-.06-.03,0-.06-.02-.1-.02-.04-.01-.09-.02-.13-.03-.07-.02-.15-.04-.22-.06-.07-.02-.15-.04-.22-.05,0,0,0,0,0,0-.08-.02-.16-.04-.23-.06,0,0,0,0,0,0-.07-.02-.14-.03-.22-.05-.08-.02-.17-.04-.25-.06-.06-.01-.13-.03-.19-.04-.09-.02-.19-.04-.28-.06-.02,0-.05,0-.07-.01-.27-.06-.54-.11-.81-.16-.01,0-.03,0-.04,0-.11-.02-.23-.04-.35-.06-.04,0-.09-.02-.13-.02,0,0,0,0-.01,0-.11-.02-.22-.04-.34-.06-.05,0-.1-.02-.16-.03-.11-.02-.23-.04-.34-.05-.05,0-.11-.02-.16-.02-.12-.02-.23-.03-.35-.05-.05,0-.1-.01-.15-.02-.12-.02-.24-.03-.36-.05-.05,0-.1-.01-.15-.02-.12-.02-.25-.03-.38-.05-.04,0-.09-.01-.13-.02,0,0,0,0,0,0-.13-.02-.27-.03-.4-.05,0,0,0,0,0,0,0,0,0,0-.01,0-.03,0-.06,0-.09-.01-.14-.02-.29-.03-.44-.05-.02,0-.03,0-.05,0-.25-.03-.51-.05-.77-.08,0,0-.01,0-.02,0-.52-.05-1.05-.09-1.59-.13,0,0-.02,0-.03,0-.27-.02-.54-.03-.81-.05,0,0,0,0,0,0-.18,0-.36-.02-.54-.03-.01,0-.03,0-.04,0-.17,0-.35-.02-.53-.02-.02,0-.04,0-.06,0-.18,0-.35-.01-.53-.02-.02,0-.04,0-.05,0-.18,0-.36-.01-.54-.02-.01,0-.03,0-.04,0-.19,0-.38,0-.57-.01h0s0,0,0,0c.02-.09.05-.18.07-.27.02-.06.03-.13.05-.19.03-.13.06-.26.09-.39,0,0,0,0,0,0,0-.01,0-.03,0-.04.01-.06.03-.13.04-.19.02-.08.03-.17.05-.25,0,0,0,0,0,0,.01-.08.03-.16.04-.24.02-.11.03-.22.05-.33.01-.09.02-.18.03-.27,0,0,0-.01,0-.02,0,0,0,0,0,0,0-.07.02-.14.02-.21.01-.14.03-.28.04-.42,0-.05,0-.11,0-.16,0-.1.01-.19.01-.29,0-.02,0-.03,0-.05,0-.05,0-.11,0-.16,0-.15,0-.3,0-.45,0-.04,0-.09,0-.13,0,0,0,0,0,0,0-.14,0-.27-.01-.41,0-.03,0-.06,0-.09h0s0-.08,0-.11c0-.12-.02-.25-.03-.37,0-.04,0-.08-.01-.12-.02-.17-.03-.33-.06-.5,0-.06-.02-.11-.03-.17-.02-.11-.03-.22-.05-.33-.11-.66-.27-1.32-.48-1.98-.04-.14-.09-.28-.14-.42-.06-.19-.13-.37-.2-.56-.11-.29-.23-.58-.36-.86-.02-.05-.05-.11-.07-.16-.07-.14-.14-.29-.21-.43-.05-.1-.1-.19-.15-.29-.12-.22-.24-.45-.37-.67-.01-.02-.03-.05-.04-.07-.03-.06-.07-.11-.1-.17-.08-.13-.15-.25-.23-.38-.04-.06-.08-.13-.12-.19-.08-.13-.16-.25-.25-.38-.04-.06-.08-.11-.11-.17-.12-.18-.25-.36-.38-.54l-.02-.02v-.02s-.03-.03-.03-.03h-.01s0-.01,0-.01c-.08-.1-.16-.2-.24-.29-.02-.02-.04-.05-.06-.07-.08-.1-.17-.19-.26-.28,0,0,0,0,0,0-.09-.09-.18-.18-.27-.27-.02-.02-.05-.04-.07-.07-.16-.16-.33-.31-.5-.46-.15-.13-.3-.25-.46-.37-.08-.06-.16-.12-.24-.18-.11-.08-.22-.15-.33-.23-.03-.02-.06-.04-.08-.06-.19-.13-.39-.25-.6-.37-.12-.07-.23-.13-.35-.2-.15-.08-.3-.16-.46-.23-.28-.13-.56-.26-.85-.38t0,0c-.15-.06-.31-.12-.47-.18-.02,0-.05-.02-.07-.03-.15-.05-.3-.1-.46-.15-.03,0-.06-.02-.09-.03-.16-.05-.31-.09-.47-.14-.02,0-.05-.01-.07-.02-.17-.04-.33-.09-.5-.13h0s0,0,0,0c-.21-.05-.42-.09-.63-.13-.14-.03-.28-.05-.43-.07-.02,0-.05,0-.07-.01-.16-.02-.32-.05-.48-.06-.14-.02-.29-.04-.43-.06-.04,0-.09,0-.13-.01-.11-.01-.22-.02-.33-.03-.04,0-.09,0-.13-.01-.15-.01-.31-.02-.46-.02-.17,0-.35,0-.53,0-.72,0-1.4.05-2.03.15-.11.01-.22.03-.33.04-.05,0-.1.01-.15.02-.03,0-.06,0-.1.01-.15.02-.31.05-.46.08-.03,0-.05.01-.08.02-.14.03-.28.06-.43.09-.02,0-.04,0-.05.01-.15.03-.3.07-.45.11-.03,0-.06.02-.1.03-.15.04-.29.08-.44.12-.02,0-.04.01-.05.02-.14.04-.27.08-.4.13-.03,0-.05.02-.08.03-.14.05-.28.1-.42.15-.03.01-.06.02-.09.03-.19.07-.37.15-.55.23-.11.05-.23.1-.34.15,0,0,0,0,0,0-.12.06-.24.12-.36.18,0,0,0,0,0,0,0,0-.01,0-.02,0-.33.17-.64.35-.95.54-.02.01-.04.02-.06.04-.1.06-.2.13-.29.19-.11.08-.22.16-.33.24-.05.04-.11.08-.16.12-.08.06-.15.12-.23.18-.01,0-.02.02-.04.03,0,0,0,0,0,0-.05.04-.11.09-.16.13-.14.12-.27.24-.4.36-.13.12-.26.25-.38.38-.09.09-.18.19-.27.29-.01.01-.02.02-.03.04-.01.02-.03.03-.04.05-.1.12-.2.23-.29.35,0,0,0,0,0,0l-.03.04-.03.04c-.11.16-.23.31-.34.47-.22.31-.42.63-.62.95-.2.32-.38.64-.55.96-.09.16-.17.32-.25.48-.48.97-.86,1.94-1.14,2.93-.09.33-.17.66-.24.99-.07.33-.12.66-.17.99-.15,1.12-.16,2.24-.04,3.36.02.19.04.37.07.56.08.56.2,1.11.35,1.66.1.37.21.74.34,1.1.06.18.13.37.21.55.05.14.11.27.17.41.18.41.37.82.58,1.22l.02.03c.09.17.18.33.28.49.03.06.07.12.11.18.06.1.12.2.18.3.05.09.11.17.16.26,0,0,0,0,0,0,.04.07.08.14.13.2,0,0,0,0,0,0,.08.13.17.27.25.4,0,.01.02.02.02.04h0c-.33.17-.66.34-.98.51,0,0,0,0,0,0-.33.17-.65.35-.97.54-.01,0-.03.02-.04.02,0,0,0,0,0,0-.21.12-.42.24-.63.36-.01,0-.03.02-.04.03-.41.24-.82.49-1.22.75,0,0,0,0,0,0,0,0,0,0,0,0,0,0-.02.01-.03.02,0,0,0,0,0,0-.17.11-.34.22-.51.33-.08.05-.17.11-.25.17-.15.1-.31.21-.46.31-.12.08-.24.16-.35.24-.21.14-.42.29-.62.44-.14.1-.27.2-.41.3-.11.08-.22.16-.33.25,0,0,0,0,0,0-.16.12-.32.24-.47.36-.08.06-.17.13-.25.19,0,0,0,0,0,0-.09.07-.18.15-.28.22-.14.11-.28.22-.42.33-.07.06-.14.12-.21.17,0,0,0,0,0,0-.18.15-.36.3-.54.45-.07.06-.14.12-.22.18h0c-.24.2-.48.41-.71.62-.22.2-.44.39-.65.59-.07.07-.14.13-.21.2-.15.14-.3.28-.44.42,0,0,0,0,0,0-.08.07-.16.15-.23.22-.18.17-.36.35-.53.53-.13.13-.25.26-.38.39-.06.06-.11.12-.17.18-.47.48-.92.97-1.37,1.48,0,0,0,0,0,0h-3.19c-.08-.07-.16-.15-.24-.22-.05-.04-.1-.08-.15-.12-.03-.02-.06-.05-.09-.07-.07-.05-.13-.1-.2-.15-.01,0-.02-.02-.03-.02-.04-.03-.08-.06-.12-.09-.2-.14-.4-.26-.6-.38-.08-.05-.16-.09-.25-.13-.13-.07-.26-.13-.39-.19-.05-.02-.11-.05-.17-.07-.1-.04-.21-.08-.31-.12,0,0,0,0-.01,0-.12-.04-.24-.08-.36-.12-.06-.02-.12-.03-.17-.05-.07-.02-.14-.04-.21-.05-.07-.02-.15-.04-.22-.05-.05-.01-.11-.02-.16-.03-.07-.01-.15-.03-.22-.04-.05,0-.11-.02-.16-.03-.08-.01-.16-.02-.24-.03-.06,0-.11-.01-.17-.02-.08,0-.17-.01-.25-.02-.05,0-.1,0-.15,0-.12,0-.25,0-.37,0-.05,0-.11,0-.16,0-.1,0-.2,0-.3.01-.12,0-.24.02-.37.03-.03,0-.05,0-.08,0-.11.01-.23.03-.34.04-.15.02-.31.05-.46.08-.15.03-.29.06-.44.1-.02,0-.03,0-.05.01-.1.03-.2.06-.31.09-.03,0-.05.02-.08.02-.12.04-.24.08-.36.12-.13.05-.27.1-.4.16-.26.11-.52.23-.77.37-.12.07-.25.14-.37.21-.24.15-.48.31-.7.48-.23.17-.44.35-.65.55-.1.1-.2.2-.3.3-.1.11-.2.21-.29.32-.03.03-.06.07-.09.1-.04.05-.08.1-.12.15-.02.03-.05.06-.07.09-.03.04-.06.08-.09.12-.06.08-.12.16-.17.25-.03.04-.05.07-.08.11,0,.02-.02.03-.03.04-.14.23-.28.46-.4.7-.02.04-.04.08-.06.12-.03.06-.06.11-.08.17-.02.03-.03.07-.04.1-.02.05-.04.09-.06.14-.04.09-.07.19-.11.28-.01.04-.03.08-.04.12-.13.37-.22.75-.29,1.14-.02.12-.04.25-.06.37-.05.37-.07.76-.06,1.14,0,.12,0,.24,0,.35,0,.03,0,.06,0,.09,0,.09,0,.17.01.26,0,.03,0,.07,0,.1,0,.11.02.23.03.34.01.08.02.16.04.24,0,.03,0,.06.01.1,0,.02,0,.05.01.07.01.08.03.15.05.23,0,.03.01.07.02.1,0,0,0,0,0,0,.02.11.05.22.08.32,0,.03.02.06.03.1.02.08.05.16.07.24,0,.02.01.04.02.06,0,.02.02.04.02.06.07.21.16.43.25.63.05.11.1.23.16.34.06.11.12.22.18.33.1.17.21.34.32.51.1.15.2.29.31.43.08.1.16.2.24.29.08.1.17.19.26.28.09.1.19.19.29.29h0s.07.06.11.1c.02.01.03.03.05.04.05.04.1.09.15.13.04.04.09.07.14.11.06.05.12.1.18.14.05.04.11.08.16.12.05.04.11.08.17.12.06.04.12.08.18.12.05.03.1.07.16.1.06.04.13.08.2.12.05.03.09.05.14.08.07.04.14.08.22.12.04.02.08.04.12.06.08.04.16.08.25.12.03.01.06.03.09.04.1.04.19.09.29.13h0s.01,0,.02,0c.3.12.61.23.93.32.01,0,.03,0,.04.01.1.03.2.05.3.08.01,0,.02,0,.03,0,.43.1.88.17,1.32.2-.15.33-.3.65-.44.98,0,0,0,0,0,0-.15.33-.29.66-.43,1,0,.02-.02.05-.03.07-.17.42-.34.84-.51,1.26,0,.02-.02.05-.03.07-.08.2-.15.4-.23.6-.03.09-.07.18-.1.27-.11.29-.22.59-.32.88-.05.14-.1.28-.15.42-.05.16-.11.31-.16.47-.06.18-.12.36-.19.55-.05.16-.11.31-.16.47-.08.24-.16.49-.23.73-.04.11-.07.23-.11.34-.08.27-.17.55-.25.82-.01.05-.03.1-.04.14-.09.31-.18.63-.27.94-.02.09-.05.17-.07.26-.09.33-.18.66-.27.99,0,.02,0,.04-.01.05-.04.16-.08.33-.12.49-.04.16-.08.32-.11.47,0,.02,0,.04-.01.06-.08.35-.16.71-.24,1.06,0,0,0,0,0,0,0,0,0,0,0,0-.09.1-.18.2-.27.3,0,0-.01.02-.02.02-.09.1-.17.19-.25.29,0,0-.01.01-.02.02-.36.41-.7.83-1.02,1.25-.01.01-.02.03-.03.04-.07.09-.13.18-.2.26-.02.02-.03.04-.05.06-.06.08-.12.17-.18.25-.02.02-.03.04-.05.06-.06.09-.12.17-.18.26-.01.02-.02.03-.03.05-.14.21-.28.41-.41.62-.01.02-.03.04-.04.06-.05.08-.1.16-.15.24-.02.03-.04.06-.06.1-.04.07-.08.14-.12.2-.02.04-.04.07-.06.11-.04.07-.07.13-.11.2-.02.04-.04.07-.06.11-.04.07-.07.14-.11.2-.02.03-.03.06-.05.09-.05.1-.1.2-.15.3-.96,1.92-1.48,3.67-1.7,5.24-.02.16-.04.33-.06.49-.02.24-.04.48-.05.71-.02.39-.02.76,0,1.12,0,.22.02.43.04.64.01.14.03.27.05.41.02.13.04.27.06.39.02.13.04.26.07.38.01.06.03.12.04.19.03.12.06.24.09.36.01.06.03.12.05.18.03.12.06.23.1.34.03.11.07.22.11.33.04.11.07.21.11.32.04.1.08.2.12.3.06.15.12.29.18.43.23.51.48.94.71,1.31,0,0,0,0,0,0,.07.12.15.23.23.35.02.03.05.07.07.1.06.09.12.17.19.26.02.03.04.06.07.09.09.11.17.22.26.33.01.01.02.03.03.04.08.09.16.19.24.28.03.03.05.05.08.08.08.08.16.17.24.25.02.02.03.04.05.05.1.1.2.2.31.29.01.01.03.03.04.04.09.08.18.16.28.24.02.02.05.04.07.06.1.09.21.17.32.26,0,0,0,0,0,0,.12.09.23.18.35.26.01,0,.03.02.04.03.11.07.21.15.32.22.02.01.03.02.05.03.25.16.5.3.76.44.01,0,.02.01.04.02.12.06.25.13.37.19,0,0,.02,0,.03.01.27.13.54.24.82.35.01,0,.02,0,.03.01.14.05.28.1.42.15,0,.02.02.04.03.06.07.16.14.31.22.47.06.13.13.26.19.39.07.14.13.27.2.41.07.13.14.26.2.4.07.13.14.26.21.39.07.13.14.26.22.39.07.13.15.26.22.39.07.13.15.26.22.38,0,.01.02.03.03.04.09.15.18.29.27.44.13.2.26.4.39.6,0,0,0,0,0,0,.07.11.14.22.21.32-.09-.07-.18-.13-.27-.2-.06-.04-.11-.08-.17-.12-.11-.08-.22-.16-.34-.25-.07-.05-.14-.1-.21-.16h-.02s-.02-.02-.02-.03c-.3-.23-.6-.45-.9-.69-.02-.02-.04-.03-.06-.05-.01-.01-.03-.02-.04-.03-.3-.24-.6-.47-.9-.72-.04-.04-.09-.07-.13-.11-.16-.13-.32-.27-.49-.4,0,0,0,0,0,0-.16-.14-.32-.27-.48-.41-.05-.04-.09-.08-.14-.12-.41-.35-.8-.71-1.19-1.07-.08-.07-.16-.15-.23-.22-.07-.07-.15-.14-.22-.21-.09-.09-.18-.17-.26-.26-.09-.09-.19-.19-.28-.28-.06-.06-.12-.12-.18-.18-.13-.13-.25-.26-.37-.39,0,0-.02-.02-.03-.03-.15-.15-.29-.31-.43-.46,0,0-.01-.02-.02-.02-.09-.1-.18-.2-.27-.3-.03-.04-.07-.07-.1-.11-.14-.16-.28-.32-.41-.48,0,0,0,0,0,0-.13-.16-.26-.32-.39-.48-.1-.13-.2-.26-.3-.39-.03-.04-.06-.08-.09-.12-.09-.12-.18-.25-.27-.37l-.48-.67-3.36-4.7-.84,6.55s0,0,0,.01c-.03.24-.06.47-.09.71,0,.04,0,.09-.01.13-.02.21-.05.43-.07.64,0,.04,0,.07-.01.11-.02.22-.04.45-.06.67,0,.02,0,.04,0,.06-.02.25-.04.49-.05.74,0,.02,0,.04,0,.07-.01.21-.03.42-.04.63,0,.06,0,.11,0,.17-.01.3-.03.61-.04.91-.01.32-.02.65-.02.97,0,.11,0,.21,0,.32,0,.21,0,.43,0,.64,0,.48.01.96.03,1.43,0,.08,0,.16,0,.23,0,.08,0,.16,0,.24,0,.15.01.31.02.46,0,.09.01.18.02.28,0,.04,0,.07,0,.11.01.23.03.47.05.7,0,.04,0,.09.01.13.02.23.04.46.06.69,0,.03,0,.07.01.1.02.24.05.47.08.71.04.29.07.58.11.86,0,.06.02.12.03.18.05.36.11.72.18,1.06.04.2.07.39.11.58.01.07.03.14.04.21,0,0,0,0,0,0,.02.1.05.21.07.31,0,.04.02.07.03.11.02.07.04.14.05.22.01.04.02.08.03.12,0,.04.02.07.03.11,0,.03.02.07.03.1.01.04.02.08.04.13.02.07.04.15.06.22.01.04.02.08.03.12.03.09.05.18.08.27,0,.02.01.05.02.07.03.11.07.21.1.32,0,0,0,.01,0,.02.01.03.02.07.03.1.03.08.05.16.08.25.01.04.03.08.04.13.03.07.05.15.08.22.02.04.03.09.05.13.03.07.05.15.08.22.02.04.03.08.05.13.03.08.06.17.09.25.01.03.02.07.04.1.04.11.09.22.13.33,0,0,0,0,0,.01,0,.02.02.04.03.07.04.09.07.19.11.28.02.04.03.08.05.12.03.08.06.15.09.23.02.04.03.08.05.13.03.08.06.15.09.22.02.04.03.08.05.12,0,.02.02.04.03.07.02.06.05.12.07.17.01.03.03.07.04.1.05.11.1.23.14.34.06.15.13.3.19.44.01.03.02.05.04.08.06.14.12.28.18.42.01.02.02.05.03.07.06.13.12.26.17.39,0,.01.01.03.02.04.06.14.12.27.18.4.01.03.02.05.04.08.06.13.12.26.18.38,0,.01.01.02.02.04.06.12.11.24.16.35,0,.02.02.04.03.05.06.12.11.23.16.35.01.03.03.06.04.09.04.09.08.17.12.25,0,.02.02.04.03.06.02.05.04.09.06.13.06.14.12.27.18.39l1.02,2.2.55,1.17,3.98-4c.09.13.18.26.27.39.01.02.02.03.04.05.13.19.27.38.41.57,0,0,0,0,0,0,.07.09.13.18.2.27.11.14.21.29.33.43.18.24.38.49.58.74.04.05.08.1.12.16,0,0,0,0,0,0,.08.1.17.2.25.31.03.03.06.07.08.1.06.07.12.15.19.23.07.09.15.17.22.26.02.02.04.05.06.07.09.1.17.2.26.3.25.29.51.58.79.88.03.04.06.07.1.11.26.28.53.57.82.86.04.04.07.07.11.11.29.29.59.59.9.88.04.04.08.07.12.11.16.15.32.3.48.45.16.15.33.3.5.45.09.08.17.15.26.23.13.11.25.22.38.33.04.04.08.07.12.11.09.08.18.15.27.23.05.04.1.09.16.13.08.07.16.14.25.2.06.05.11.09.17.14.08.06.16.13.24.19.06.05.12.1.18.14.08.06.16.12.24.19.06.05.13.1.19.15.08.06.16.12.24.18.07.05.13.1.2.15.08.06.16.12.24.18.07.05.14.1.2.15.08.06.16.12.25.18.07.05.14.1.21.15.08.06.17.12.25.18.07.05.14.1.21.15.09.06.17.12.26.18.07.05.14.1.22.15.09.06.18.12.27.18.07.05.14.09.22.14.09.06.19.12.28.18.07.05.14.09.21.14.1.06.2.13.3.19.07.04.14.08.2.13.11.07.23.14.34.2.06.04.12.07.18.11.17.1.34.2.51.3,0,0,0,0,.01,0,0,0,0,0,0,0,.07.04.13.08.2.12.02.01.05.03.07.04.05.03.1.06.15.09.03.02.05.03.08.05.05.03.1.06.16.09.02.01.05.03.07.04.08.05.15.09.23.14.2.12.41.25.61.37,0,0,0,0,0,0,.15.09.3.18.44.27.04.02.08.05.12.07.16.1.31.19.47.28.11.07.22.13.33.19.16.09.31.18.46.27.04.02.08.05.12.07.03.01.05.03.08.04.07.04.13.07.19.1.02.01.05.03.07.04.06.03.11.05.16.08.03.01.06.03.08.04.09.05.19.1.28.15.08.04.16.08.24.13.02.01.04.02.06.03.17.09.34.19.5.29.03.02.05.03.08.05.17.1.33.2.5.3.03.02.06.04.09.05.17.1.34.21.51.32.02.01.05.03.07.05.18.11.35.23.53.35,0,0,.02.01.03.02.18.12.36.24.53.36.01.01.03.02.04.03.18.12.35.25.53.37.07.05.14.1.2.15.13.09.26.19.39.28.03.02.06.04.09.06.17.13.34.25.51.38.03.02.05.04.08.06.18.13.35.27.53.41.01.01.03.02.04.04.18.14.36.28.54.43,0,0,.01.01.02.02.18.14.36.29.54.44.02.02.04.04.06.05.17.14.34.28.51.43.03.02.06.05.09.07.17.14.34.28.5.43.03.02.05.04.08.07.17.15.34.3.51.45.02.01.03.03.05.04.18.16.36.31.53.47.1.09.21.19.31.28.05.05.1.09.15.14.15.14.3.28.45.42h0c.1.1.2.19.3.29.04.03.07.07.1.1.26.25.53.5.79.75,0,0,0,0,0,0,0,0,0,0,0,0,.13.12.26.25.38.37.03.03.06.06.1.09.03.03.06.06.1.09.19.19.38.38.57.56.03.03.06.06.09.09.03.03.06.06.09.09.14.14.28.28.42.43.16.17.33.34.48.5,0,0,0,0,0,0,.17.18.35.36.51.54.06.06.12.13.18.19.11.12.23.25.34.37.03.03.05.06.08.09.06.06.11.13.17.19.03.04.07.07.1.11.05.06.1.11.15.17.03.04.07.08.1.12.05.05.09.1.14.16.04.04.07.08.11.12.04.05.09.1.13.15.04.04.07.08.11.12.04.05.08.1.12.14.04.04.07.08.11.12.04.05.08.09.12.14.03.04.07.08.1.12.04.05.08.09.11.14.03.04.07.08.1.12.04.04.07.09.11.13.03.04.07.08.1.12.04.04.07.09.11.13.03.04.06.08.09.12.04.04.07.09.11.13.03.04.06.08.09.11.03.04.07.09.1.13.03.04.06.07.09.11.03.04.07.09.1.13.03.03.05.07.08.1.03.05.07.09.1.13.02.03.05.06.07.1.04.05.07.1.11.15.02.03.04.05.06.08.06.07.11.15.16.22l2.1,2.88,2.1-2.88s.03-.04.05-.06c.02-.03.05-.06.07-.09.08-.11.17-.23.26-.34,0,0,0,0,.01-.01.06-.07.11-.15.17-.22,0,0,.01-.02.02-.03.05-.07.11-.14.17-.21,0-.01.02-.02.03-.04.05-.07.11-.14.17-.21.01-.01.02-.03.03-.04.06-.07.11-.14.17-.21.01-.01.02-.03.04-.04.06-.07.12-.14.18-.21.01-.01.02-.03.04-.04.06-.07.12-.15.19-.23,0-.01.02-.02.03-.03.07-.09.14-.17.22-.26,0,0,0,0,0,0,.02-.02.03-.04.05-.06,0,0,0,0,.01-.01,0,0,0,0,0,0,.13-.16.27-.31.41-.47,0,0,0,0,0,0,.12-.13.24-.27.36-.41.1-.11.2-.22.3-.33.14-.15.28-.31.42-.46,0,0,0,0,0,0,.12-.13.24-.27.37-.4.05-.05.09-.1.14-.15.08-.09.16-.17.24-.26.07-.08.15-.16.22-.23.05-.05.1-.11.16-.16.13-.13.26-.27.39-.4.03-.03.06-.06.09-.09.12-.12.24-.25.36-.37,0,0,0,0,0,0,0,0,0,0,0,0,.09-.09.19-.19.28-.28,0,0,0,0,0,0,.16-.16.32-.32.49-.48.08-.07.15-.15.23-.22.1-.1.21-.2.31-.3.07-.07.14-.14.21-.21.15-.15.31-.29.46-.44.04-.04.08-.08.13-.12.18-.17.37-.34.55-.51h0c.3-.27.6-.54.9-.81.03-.03.07-.06.1-.09.07-.06.14-.12.21-.18,0,0,0,0,0,0,.17-.15.35-.3.52-.45.13-.11.26-.22.39-.33.17-.15.35-.29.52-.44,0,0,0,0,0,0,.18-.15.35-.29.53-.43,0,0,0,0,0,0,.19-.15.38-.3.56-.45.52-.41,1.04-.81,1.57-1.2.13-.1.26-.2.4-.29.04-.03.08-.06.12-.09.07-.05.14-.1.2-.14.22-.15.43-.3.65-.45,0,0,0,0,0,0,.21-.15.43-.29.64-.43,0,0,0,0,0,0,.21-.14.43-.28.64-.41.19-.12.38-.23.57-.35.06-.03.11-.06.17-.1.14-.08.28-.16.42-.24.06-.03.11-.06.17-.09.19-.1.37-.21.56-.3,0,0,0,0,0,0,.08-.04.16-.08.24-.12,0,0,0,0,0,0,.11-.06.22-.12.34-.18,0,0,0,0,0,0,.08-.04.16-.09.24-.14.01,0,.03-.02.04-.02.2-.12.41-.24.63-.37.05-.03.1-.06.15-.09.06-.04.12-.07.17-.11.12-.07.24-.15.36-.22.12-.07.23-.14.35-.22,0,0,.01,0,.02-.01.13-.08.26-.16.39-.24.14-.08.27-.17.41-.25.16-.1.31-.19.46-.28.1-.06.2-.12.3-.18.37-.21.73-.43,1.09-.65.08-.05.17-.1.25-.15.2-.12.39-.25.58-.37.06-.04.11-.07.17-.11.14-.09.28-.18.42-.28.06-.04.11-.07.17-.11.19-.13.37-.25.55-.38.2-.14.4-.28.6-.42.2-.14.39-.28.58-.43.3-.23.59-.45.88-.68.08-.06.16-.12.23-.18.16-.13.32-.26.48-.39.05-.04.09-.08.14-.12.12-.1.23-.19.35-.29.05-.04.09-.08.14-.12.15-.13.3-.26.45-.39.15-.13.29-.26.44-.39.04-.04.09-.08.13-.12.11-.1.21-.19.31-.29.04-.04.08-.08.12-.12.14-.13.28-.26.41-.39,0,0,0,0,.01-.01.6-.57,1.15-1.14,1.67-1.7.07-.07.13-.14.19-.21.19-.21.38-.42.56-.62,0,0,0,0,0,0,.15-.17.29-.34.44-.5.04-.05.08-.1.12-.14.11-.13.21-.25.32-.38.03-.04.07-.08.1-.13.13-.16.26-.32.38-.47.02-.03.05-.06.07-.09.1-.13.2-.26.3-.38.04-.05.07-.09.11-.14.1-.12.19-.25.28-.37.02-.03.04-.06.06-.08.11-.15.21-.29.32-.43.03-.04.05-.07.08-.11.08-.11.15-.22.23-.32.03-.04.06-.08.08-.12.09-.13.18-.27.27-.39,0,0,0,0,0,0h0l1.99,2,1.99,2,.84-1.8.73-1.57s.04-.08.06-.12c.06-.12.12-.25.18-.39.17-.37.36-.77.56-1.21.16-.35.33-.71.5-1.1.34-.76.7-1.58,1.03-2.41.29-.73.57-1.47.82-2.19.28-.83.52-1.64.68-2.4.11-.52.21-1.06.3-1.61,0,0,0,0,0,0,.03-.18.06-.37.08-.56,0-.05.01-.1.02-.14.05-.38.1-.77.14-1.16,0-.05.01-.1.02-.15.04-.4.07-.8.1-1.21,0-.05,0-.1.01-.15.01-.2.03-.41.04-.61,0,0,0,0,0,0,.05-.93.08-1.88.07-2.85,0-.32,0-.64-.01-.97h0ZM73.5,66.75l-.37.8c1.14-.81,2.36-1.22,3.63-1.22,0,0,0,0,0,0,0,0,0,0,0,0,1.07,0,1.88.5,2.21,1.31,0,.02.01.03.02.05,0,.02.01.03.02.05.04.1.07.21.09.32,1.33-1.14,2.8-1.73,4.28-1.73,0,0,0,0,0,0,0,0,0,0,0,0,1.05,0,1.84.48,2.18,1.25.11.26.18.55.19.87.01.66-.26,1.52-.85,2.7-.35.7-.76,1.41-1.16,2.1-.38.66-.74,1.29-.99,1.8-.36.67-.35.89-.34.95.01,0,.05.01.11.02.62,0,2.2-1.81,3.81-3.77l.33-.4h0s0,0,0,0l1.52,1.24h0s0,0,0,0l-.33.4c-3.34,4.05-5.54,6.11-8.3,6.11-1.49,0-2.44-.87-2.46-2.26-.01-.57.21-1.28.69-2.23.43-.86.99-1.79,1.5-2.61.39-.65.77-1.26,1.01-1.73.27-.56.27-.83.23-.89-.01-.02-.07-.04-.17-.04-.96,0-1.99,1.19-3.33,3.85l-2.74,5.5h-4.87l4.17-8.28c.42-.83.3-1.03.3-1.04,0-.01-.06-.03-.15-.03-.35,0-1.4,0-3.33,3.85l-2.74,5.5h-4.86l.49-.99c-1.23.95-2.37,1.41-3.65,1.41-1.21,0-2.17-.47-2.71-1.32-.7-1.11-.62-2.75.22-4.4.61-1.23,1.61-2.49,3.03-3.82-.29.07-.6.12-.91.12-.24,0-.45-.02-.66-.05-.86,1.34-1.82,2.53-2.35,3.17l-.17.21s-.05.05-.07.08l-.13.15h0c-1.75,2.11-2.97,3.4-4.05,4.29-1.32,1.08-2.48,1.58-3.66,1.58-1.07,0-2.16-.5-2.46-1.59-1.15,1.03-2.43,1.59-3.66,1.59s-2.22-.47-2.8-1.37c-.3-.48-.49-1.07-.55-1.73-.61.63-1.14,1.12-1.66,1.52-1.37,1.08-2.64,1.58-4,1.58-1.49,0-2.44-.87-2.46-2.26-.01-.57.21-1.28.69-2.23.43-.86.99-1.79,1.5-2.61.39-.65.77-1.26,1.01-1.73.34-.7.24-.88.23-.89-.01-.02-.07-.04-.17-.04-.6,0-1.6.4-3.33,3.85l-2.74,5.5h-4.86l9.85-19.86h4.87l-4.09,8.03c1.03-.66,2.12-1.02,3.15-1.02,0,0,0,0,0,0,0,0,0,0,0,0,1.17,0,2.03.5,2.37,1.31.1.24.16.51.17.81.01.66-.27,1.58-.85,2.72-.38.78-.85,1.59-1.26,2.3-.35.61-.69,1.19-.92,1.66-.29.57-.31.8-.3.88,0,0,.01,0,.02,0,.45,0,1.19-.55,3.35-3.12.13-.33.27-.67.44-1,.55-1.1,1.34-2.21,2.29-3.14l2.71,1.51.22.12-1.16,1.45-.65.82s.45.17,1.28.29c-.4.93-.58,1.84-.5,2.42,0,0,0,.01,0,.02,0,.04.01.08.02.12,0,.03.02.06.03.09,0,.01,0,.03.01.04.02.04.03.08.05.11.06.1.18.24.48.24.76,0,1.92-1.25,2.77-2.97.12-.01.24-.02.37-.04.26-.03.53-.07.81-.11.32-.05.64-.12.98-.2,1.41-.33,2.38-.62,3.23-.99l-1.72,3.47c-.29.58-.29.81-.28.87,0,0,.02,0,.03,0,.48,0,1.29-.62,3.78-3.63l.25-.3c.94-1.14,1.63-2.04,2.14-2.93-.08-.09-.15-.19-.22-.29.08-.07.16-.14.23-.21.2-.19.39-.39.58-.58.65-.68,1.19-1.38,1.65-2.05l.79-.08c.16-.02.32-.03.47-.05-.03.44-.14.96-.37,1.6.07,0,.14,0,.2,0,1.39,0,3.21-.76,3.9-1.31l.32-.25h0s0,0,0,0l.16.37c.28.65.89,1.58,1.31,1.99l.25.24h0s0,0,0,0l-.26.21c-1.03.84-2.88,2.5-3.74,4.19-.49,1-.48,1.6-.39,1.93,0,.02,0,.03.01.04,0,0,0,.02,0,.03.02.07.05.12.08.16.11.18.29.28.48.28,1.12,0,2.33-1.2,3.93-3.14l.06-.07,2.7-5.43h4.52ZM77.45,100.06s-.09.08-.14.12c-.02.02-.04.03-.06.05-.02.01-.04.03-.05.04-.07.05-.13.1-.2.16-.22.17-.43.33-.65.49-.15.11-.31.22-.46.33-.11.07-.21.14-.31.21-.05.03-.1.07-.14.1-.04.03-.09.06-.13.09-.1.06-.19.13-.29.19-.11.07-.21.13-.32.19-.05.03-.11.07-.16.1-.02.01-.05.03-.07.04-.02.01-.05.03-.07.04-.08.04-.15.09-.23.13-.12.07-.23.13-.35.19-.01,0-.02.01-.04.02-.11.06-.22.11-.33.16-.03.01-.06.03-.09.04-.03.02-.07.03-.1.05,0,0-.02,0-.03.01-.08.04-.16.07-.24.11,0,0,0,0,0,0-.08.03-.15.06-.22.09-.02,0-.04.01-.05.02-.06.02-.11.04-.16.06-.07.02-.14.05-.2.07,0,0-.01,0-.02,0l-.08.03-.08.03c-.18.07-.37.14-.56.2-.11.04-.23.07-.34.11,0,0-.02,0-.02,0-.22.07-.44.14-.66.2-.04.01-.07.02-.11.03-.22.06-.44.12-.67.17-.07.02-.14.03-.21.05-.16.04-.31.07-.47.1-.08.02-.16.03-.24.05-.16.03-.32.06-.48.09-.07.01-.15.03-.22.04-.23.04-.46.07-.7.1-.03,0-.06,0-.08.01-.24.03-.47.06-.71.08-.07,0-.15.02-.22.02-.16.02-.32.04-.47.05-.09,0-.18.02-.27.03-.14.01-.28.03-.42.04-.09,0-.19.02-.28.03-.13.01-.27.03-.4.04-.09,0-.19.02-.28.03-.06,0-.12.01-.17.02-.07,0-.15.01-.22.02-.09,0-.18.02-.27.02-.13.01-.26.02-.39.03-.08,0-.17.01-.25.02-.03,0-.05,0-.08,0-.12,0-.23.02-.35.03-.07,0-.14.01-.2.02-.21.01-.42.03-.62.04-.25.02-.5.03-.75.04-.04,0-.09,0-.13,0-.24.01-.49.02-.72.03-.06,0-.12,0-.18,0-.11,0-.22,0-.34.01-.06,0-.12,0-.17,0-.11,0-.22,0-.33,0-.05,0-.11,0-.16,0-.12,0-.23,0-.35,0-.04,0-.09,0-.13,0-.16,0-.32,0-.47,0-.11,0-.22,0-.33,0-.02,0-.05,0-.07,0-.12,0-.24,0-.35,0-.06,0-.12,0-.17,0-.05,0-.1,0-.15,0-.02,0-.04,0-.06,0-.09,0-.18,0-.27,0-.02,0-.04,0-.06,0-.08,0-.17,0-.25-.01h0v-.93h0c.22-.02.43-.05.64-.07.05,0,.1-.01.15-.02.19-.02.37-.04.55-.07.03,0,.06,0,.1-.01h0c.22-.03.43-.06.64-.09h0s.06,0,.1-.01c.18-.03.36-.05.55-.08.05,0,.09-.01.14-.02,0,0,0,0,0,0,.42-.06.84-.13,1.26-.21.04,0,.08-.01.12-.02.18-.03.36-.07.54-.1.03,0,.06-.01.09-.02.21-.04.42-.08.63-.13,0,0,.02,0,.03,0,.2-.04.39-.08.58-.13.03,0,.07-.02.1-.02.41-.09.82-.19,1.23-.29.02,0,.04-.01.06-.02.19-.05.37-.1.56-.15,0,0,0,0,0,0,.02,0,.04-.01.06-.02.41-.11.81-.23,1.21-.35.02,0,.04-.01.06-.02.41-.13.81-.26,1.21-.4,0,0,0,0,0,0,.2-.07.39-.14.59-.21.01,0,.02,0,.04-.01.4-.15.79-.3,1.18-.46,0,0,.01,0,.02,0,0,0,0,0,0,0,0,0,0,0,0,0,.29-.12.59-.25.88-.38,0,0,0,0,0,0,.29-.13.58-.27.87-.41,0,0,0,0,0,0,0,0,.01,0,.02,0,.97-.47,1.92-.99,2.86-1.57,0,0,0,0,0,0,.94-.58,1.85-1.22,2.76-1.91l2.52,2.14s-.06.05-.09.08c-.03.03-.07.06-.1.1-.08.07-.16.15-.24.22-.03.02-.05.05-.08.07-.06.05-.13.11-.19.17-.03.03-.07.06-.1.09-.06.05-.12.11-.19.16-.08.07-.17.14-.25.21M75.96,92.86c-7.29,6.5-15.61,8.18-27.91,8.49-14.2.36-26.66-5.95-32.52-16.78,2.68-.07,5.1-.96,7.03-2.58h7.03l3.67.1c1.67,0,3.11-.18,4.66-1.19,1.1.97,2.57,1.5,4.21,1.5.34,0,.67-.03,1-.07,4.58,3.46,10.39,5.37,17.41,4.89,1.88-.13,3.41-.31,4.74-.6.95-.23,2.27-.63,3.67-1.35,0,0,3.08-1.04,5.77-3.28h1.37l.28-.56c.89.62,2,.98,3.25.98,1.79,0,3.35-.57,4.81-1.52-1.62,7.27-8.43,11.95-8.46,11.97M37.98,105.01c-.05,0-.1,0-.16,0-.21,0-.42,0-.64-.01-.02,0-.04,0-.05,0-.24,0-.48-.01-.72-.02-.02,0-.03,0-.05,0-.25-.01-.51-.02-.76-.04-.06,0-.12,0-.17,0-.18,0-.35-.02-.53-.03-.38-.02-.77-.05-1.17-.08-.01,0-.03,0-.04,0-.18-.01-.36-.03-.54-.04-.19-.02-.38-.03-.58-.05,0,0,0,0-.01,0-.02,0-.03,0-.05,0-.19-.02-.39-.04-.58-.05,0,0-.01,0-.02,0-.22-.02-.44-.04-.66-.07-.32-.03-.64-.07-.97-.11-.33-.04-.66-.07-.99-.12-.21-.03-.42-.05-.62-.08,0,0,0,0,0,0-.19-.03-.38-.06-.58-.1-.06-.01-.13-.02-.19-.04-.13-.02-.26-.05-.39-.08-.07-.02-.15-.03-.22-.05-.12-.03-.23-.05-.35-.08-.08-.02-.15-.04-.23-.06-.11-.03-.23-.06-.34-.09-.07-.02-.15-.04-.22-.06-.11-.03-.23-.07-.34-.1-.07-.02-.14-.04-.21-.06-.12-.04-.25-.08-.37-.12-.06-.02-.12-.04-.17-.06-.18-.06-.36-.12-.53-.19l-.08-.03h-.03s-.06-.03-.06-.03c0,0,0,0,0,0-.07-.02-.15-.05-.23-.08-.03-.01-.06-.02-.1-.04-.05-.02-.1-.04-.16-.06-.04-.02-.08-.03-.13-.05-.05-.02-.11-.04-.16-.07-.04-.02-.08-.04-.12-.06-.06-.03-.11-.05-.17-.08-.04-.02-.08-.04-.12-.06-.06-.03-.12-.06-.18-.09-.04-.02-.09-.04-.13-.07-.06-.03-.12-.06-.18-.1-.04-.02-.08-.04-.12-.07-.05-.03-.1-.05-.15-.08-.11-.06-.22-.13-.33-.19-.03-.02-.06-.03-.08-.05-.03-.02-.05-.03-.08-.05-.1-.06-.21-.13-.31-.19-.14-.09-.28-.18-.42-.27-.04-.02-.07-.05-.11-.07-.14-.1-.28-.19-.43-.29-.21-.15-.43-.31-.65-.47-.11-.08-.22-.16-.32-.25,0,0,0,0,0,0-.09-.07-.17-.13-.25-.2-.02-.02-.05-.04-.07-.06-.04-.03-.08-.06-.12-.1-.09-.07-.17-.14-.25-.21-.02-.01-.03-.03-.05-.04-.08-.07-.16-.14-.24-.21-.02-.02-.04-.04-.06-.05-.02-.02-.04-.03-.06-.05-.08-.07-.17-.15-.24-.22-.06-.05-.11-.11-.17-.16,0,0-.01,0-.02-.01-.06-.06-.12-.11-.17-.16l.32-.27,2.96-2.5s0,0,0,0c.15.11.29.23.44.34,0,0,0,0,.01,0,.14.11.29.22.43.32,0,0,.02.01.03.02.14.1.28.21.42.31.01.01.03.02.04.03.14.1.27.19.41.29,0,0,0,0,0,0,.02.01.04.03.06.04.13.09.27.18.4.27.02.02.05.03.07.05,0,0,0,0,0,0,.13.09.26.17.39.26.03.02.06.04.08.05.13.08.25.16.38.24.03.02.07.04.1.06.12.08.25.15.37.23.04.02.08.05.11.07.12.07.24.14.36.22.04.02.08.05.13.07.12.07.23.14.35.2.05.03.1.05.14.08.11.06.23.13.35.19.05.03.1.06.15.08.11.06.23.12.34.18.05.03.11.06.16.09.11.06.22.11.34.17.06.03.11.06.17.09.11.06.23.11.34.17.06.03.11.06.17.08.12.06.24.12.36.17.05.02.1.05.15.07.16.07.32.15.48.22.01,0,.02.01.03.02,0,0,0,0,0,0,.19.09.39.17.59.26.06.03.12.05.18.08.14.06.29.12.43.18,0,0,0,0,0,0,.03.01.06.02.09.04.03.01.07.03.1.04.17.07.33.13.5.2,0,0,0,0,0,0,.03.01.07.03.1.04.21.08.41.16.62.23.04.02.09.03.13.05.17.06.33.12.5.18.06.02.11.04.17.06.17.06.34.12.52.17.04.01.08.03.12.04.44.14.87.27,1.32.4.04.01.08.02.12.04.19.05.38.11.57.16.03,0,.07.02.1.03,0,0,0,0,0,0,.46.12.92.23,1.38.34.02,0,.03,0,.05.01.21.05.43.1.65.14.03,0,.05.01.08.02.35.07.71.14,1.06.21,0,0,0,0,0,0,.36.07.71.13,1.07.18.02,0,.04,0,.06,0,.24.04.47.07.71.11h0s0,0,0,0v.89c-.06,0-.12,0-.18,0-.06,0-.13,0-.19,0-.13,0-.27,0-.41.01-.07,0-.14,0-.22,0h0c-.07,0-.15,0-.23,0-.15,0-.31,0-.48,0h0c-.21,0-.43,0-.64,0M49.38,82.32c1.45-.24,2.87-.94,4.32-2.12.02-.02.04-.04.06-.05v3.52c-1.53-.3-2.99-.75-4.38-1.35M56.35,84.03v-2.51h0s.05.03.07.04c.07.04.15.08.22.12.02.01.05.03.07.04.09.04.18.09.27.13.03.01.06.03.09.04.09.04.18.08.27.11.03.01.06.02.09.03.1.03.19.07.29.1.02,0,.04.01.07.02.1.03.2.05.3.08.01,0,.03,0,.04.01.11.03.22.05.33.07.02,0,.04,0,.07.01.11.02.22.03.33.05.02,0,.05,0,.07,0,.11.01.23.02.35.03.02,0,.04,0,.05,0,.12,0,.25.01.38.01.06,0,.11,0,.16,0,.63-.01,1.24-.09,1.83-.25.09-.02.17-.05.25-.07.1-.03.19-.06.29-.09h5.93s0,0,0,0c-.06.04-.12.08-.18.12,0,0-.01,0-.02.01-.06.04-.11.07-.17.11-.02.01-.04.02-.06.03-.04.03-.09.05-.13.08-.06.04-.13.08-.19.11-.56.28-1.1.5-1.59.67-.12.04-.24.08-.36.12-.12.04-.23.07-.33.1-.05.02-.11.03-.16.04-.15.04-.3.08-.43.11-.34.07-.71.14-1.11.2-.24.04-.49.07-.75.1-.26.03-.54.06-.83.09-.19.02-.39.04-.6.05-.31.03-.63.05-.97.07-.47.03-.94.05-1.4.06-.16,0-.32,0-.48,0s-.33,0-.49,0c-.13,0-.27,0-.4-.01-.07,0-.15,0-.22,0-.16,0-.32-.02-.48-.03-.01,0-.02,0-.03,0-.16-.01-.32-.02-.48-.03M37.15,56.97l-3.11.04s0,0,0,0c-.02-.27-.04-.55-.06-.82,0-.02,0-.04,0-.07-.01-.26-.03-.52-.04-.77,0-.04,0-.09,0-.13,0-.24-.01-.48-.02-.72,0-.07,0-.13,0-.2,0-.22,0-.44,0-.66,0-.09,0-.19,0-.28,0-.2,0-.4,0-.59,0-.13,0-.25.01-.38,0-.17.01-.34.02-.51s.02-.34.03-.51c0-.13.01-.26.02-.39.02-.3.04-.6.07-.9.02-.19.04-.38.06-.57.01-.12.03-.24.04-.36,0-.04.01-.09.02-.13.02-.15.04-.31.06-.46,0-.06.02-.11.03-.17.01-.08.02-.16.04-.23.01-.07.02-.14.04-.21.03-.16.06-.31.09-.47.01-.07.03-.13.04-.2.02-.08.03-.17.05-.25.02-.1.05-.21.07-.31.02-.07.03-.14.05-.2.04-.17.08-.34.13-.51,0,0,0,0,0,0h5.56v10.95l-3.19.04ZM40.34,59.41h0v5.36s0,0,0,0c-.06-.05-.12-.1-.19-.15,0,0,0,0-.01,0-.06-.05-.13-.09-.19-.13,0,0,0,0,0,0-.14-.09-.28-.18-.42-.25,0,0,0,0-.01,0-.06-.03-.13-.07-.19-.1-.02,0-.04-.02-.06-.03-.05-.02-.11-.05-.16-.07-.02,0-.05-.02-.07-.03-.05-.02-.11-.04-.16-.06-.02,0-.04-.02-.07-.03-.08-.03-.15-.05-.23-.08,0,0,0,0,0,0l1.77-4.41ZM47.6,71.07s.84-.4,1.96-1.13c.13-.09.27-.18.41-.27.14-.09.28-.19.43-.3.8-.57,1.66-1.27,2.44-2.08-.24.12-.94.47-1.82.82-.19.08-.38.15-.59.23-.34.12-.69.24-1.04.34-.49.14-.98.25-1.44.3-.2.02-.39.03-.57.03h-.33s.18-.09.47-.21c.07-.03.15-.07.23-.1.21-.09.45-.2.71-.31.46-.2.98-.43,1.43-.63.05-.02.1-.05.15-.07.15-.07.29-.13.41-.19.17-.08.32-.15.44-.2.15-.07.58-.3.58-.3,2.04-1.07,3.61-2.66,4.67-4.67.43-.81.48-1.01.48-1.01l1.89-.21s-.16.61-.53,1.53c-.12.3-.27.64-.44,1-.04.09-.09.18-.13.27-.14.28-.29.56-.46.86-.11.19-.23.39-.36.59-.38.59-.83,1.2-1.34,1.77-.34.38-.72.75-1.13,1.09-.31.26-.61.49-.92.71-.4.28-.8.53-1.19.75-.1.05-.19.11-.29.15-2.29,1.19-4.11,1.26-4.11,1.26h0,0ZM42.48,68.33c1.35-1.18,2.98-1.99,4.72-1.99,0,0,0,0,0,0,0,0,0,0,0,0,.58,0,1.11.13,1.54.36-2.63,1.15-4.96,1.52-6.27,1.64M59.55,63.38l.84-2.47c.77.11,1.63.11,2.52.04.15-.01.3-.03.45-.04.74-.08,1.49-.2,2.2-.35.14-.03.28-.06.42-.09.41-.09.81-.2,1.18-.3l.94-.27-.55.41c-1.22.9-1.92,1.56-3.1,2.06-.07.03-.14.06-.21.09-.29.11-.61.22-.97.31-.41.11-.87.21-1.4.3-.18.03-.36.06-.56.09-.06,0-.13.02-.2.03-.15.02-.31.04-.47.06-.05,0-.1.01-.15.02-.07,0-.15.02-.22.03-.22.03-.46.05-.7.08M81.93,48.99l-5.33.98,2.5.71s1.71,5.12-6.16,6.39c-1.04.17-1.95.29-2.73.39-.11.01-.22.03-.33.04-.74.08-1.37.14-1.87.17-.07,0-.14,0-.21.01-.27.02-.5.03-.7.03-.05,0-.1,0-.14,0-.5.01-.73,0-.73,0l-.13.06c-.63.3-1.29.55-1.96.74-.19.05-.37.11-.56.15-.27.07-.53.12-.8.17-.05,0-.09.02-.14.02-1,.17-2.03.22-3.06.14-.15-.01-.3-.03-.45-.04-.06,0-.12-.01-.18-.02-.12-.02-.25-.03-.38-.05-.13-.02-.26-.03-.4-.05-.07,0-.14-.01-.2-.02-.48-.04-.95-.02-1.35.17-.17.08-.32.19-.45.34-1.36,1.56-3.06,2.26-3.06,2.26,0,0-4-2.9-1.54-6.54.46-.68.96-1.31,1.45-1.88.17-.19.33-.37.5-.55.25-.26.5-.51.74-.74.17-.16.34-.32.5-.47.15-.13.29-.26.43-.38.07-.06.15-.12.22-.18.31-.25.59-.48.85-.67.09-.07.17-.13.25-.18.56-.4.91-.61.91-.61,0,0,.34-.79.8-1.5.04-.06.08-.12.12-.18.13-.19.27-.36.41-.51.05-.05.1-.1.15-.14.05-.04.1-.08.15-.12.46-.31.92-.58,1.23-.76.14-.08.25-.14.32-.18.04-.02.06-.03.07-.04,0,0,0,0,0,0l.2,1.26s.19-1.01,1.11-2.19c.04-.05.07-.09.11-.14.57-.69,1.38-1.43,2.55-2.05.31-.17.65-.33,1.01-.48.18-.07.37-.15.57-.21.1-.03.2-.07.3-.1.2-.07.41-.13.63-.19.22-.06.44-.11.68-.16,1.28-.28,2.79-.44,4.57-.41.65.01,1.25.05,1.82.11.14.02.28.03.41.05.54.08,1.05.18,1.51.3.12.03.23.06.34.09.45.13.86.28,1.23.45.19.08.37.17.54.26.34.18.66.38.94.59.14.1.28.21.4.32.13.11.25.22.36.33.23.22.43.46.61.69.22.29.41.59.56.89.03.06.06.12.09.18.06.12.11.24.16.35.68,1.64.51,3.08.51,3.08M37.16,16.94c-.14-.61-.22-1.22-.26-1.82-.02-.3-.03-.6-.02-.9,0-.45.04-.89.1-1.33.05-.34.11-.68.18-1.01.42-2.02,1.36-3.95,2.68-5.74,1.62-2.05,4.35-3.16,6.83-3.44.5-.08,1.07-.12,1.68-.12.61,0,1.18.04,1.68.12,2.49.28,5.21,1.39,6.83,3.44,2.59,3.54,3.74,7.6,2.28,11.9-.05,0-.1,0-.15,0-.8,0-1.6.03-2.39.08-1.19.06-2.38.17-3.54.31-.03,0-.06,0-.09.01.09-.14.19-.27.3-.41.69-.81,1.13-1.73,1.36-2.68.45-2.07-.08-4.26-1.19-5.69-1.51-1.94-4.49-2.01-5.11-2.01-.6,0-3.41.06-4.96,1.82l-.06-.05s-.04.05-.06.08c-1.65,2.13-2.03,5.91.2,8.53.57.71.93,1.45,1.2,2.16-.86.26-1.71.55-2.55.86-.2.07-.39.14-.59.22-.67.26-1.32.53-1.98.81-.39-.62-.79-1.24-1.14-1.88-.58-1.1-.98-2.19-1.22-3.27M51.97,15.17c-.02.06-.04.12-.07.18-.02.06-.05.12-.08.18-.02.05-.05.1-.08.15,0,.02-.02.03-.02.05-.01.02-.02.04-.03.06-.03.05-.05.09-.08.14-.04.07-.09.14-.14.2,0,.01-.02.02-.02.03-.05.07-.1.14-.16.2l-.02.03-.02.03c-.08.1-.16.2-.24.31-.02.03-.05.06-.07.1-.05.07-.1.14-.15.21-.02.04-.05.07-.07.11-.04.07-.09.13-.13.2-.02.04-.04.07-.07.11-.04.07-.08.14-.12.2-.02.03-.04.07-.06.1-.04.07-.08.14-.12.21-.02.03-.03.06-.05.09-.04.08-.08.15-.11.23-.01.02-.02.04-.03.07-.04.08-.08.17-.12.25,0,.01-.01.03-.02.04-.04.1-.08.19-.12.29,0,0,0,0,0,0-.23.04-.46.09-.7.14-.19.04-.38.08-.57.12-.06.01-.13.03-.19.04-.4.09-.8.18-1.19.28-.02-.06-.05-.12-.07-.19-.01-.04-.03-.08-.04-.11-.02-.04-.03-.08-.05-.13-.01-.04-.03-.07-.04-.11-.02-.04-.03-.08-.05-.12-.01-.03-.03-.06-.04-.1-.01-.03-.02-.06-.04-.09-.02-.04-.03-.08-.05-.11,0-.02-.02-.03-.02-.05,0,0,0,0,0,0-.01-.03-.03-.06-.04-.09-.01-.03-.03-.06-.04-.08-.02-.05-.05-.1-.07-.15,0,0,0,0,0,0-.01-.02-.02-.04-.03-.07-.03-.06-.07-.13-.1-.19-.01-.03-.03-.05-.04-.08-.05-.08-.09-.17-.14-.25,0-.01-.02-.03-.03-.05-.04-.07-.09-.15-.13-.22-.01-.02-.03-.05-.04-.07-.05-.09-.11-.17-.17-.26,0,0-.01-.02-.02-.02-.05-.08-.11-.16-.17-.24-.02-.02-.03-.04-.05-.07-.06-.09-.13-.17-.2-.26l-.02-.03-.02-.03c-.05-.06-.1-.12-.15-.18-.01-.02-.03-.04-.04-.06-.03-.04-.06-.09-.09-.13-.01-.02-.03-.04-.04-.07-.03-.05-.06-.09-.08-.14-.01-.02-.02-.04-.03-.06-.08-.15-.15-.31-.21-.47-.01-.03-.02-.06-.03-.09-.04-.12-.08-.24-.11-.36-.03-.12-.06-.24-.08-.37-.01-.08-.02-.16-.03-.25,0-.02,0-.04,0-.06,0-.08-.01-.16-.02-.24,0-.08,0-.16,0-.24,0-.02,0-.04,0-.06,0-.08,0-.16.01-.24,0-.11.02-.21.04-.32,0-.03,0-.06.01-.09.01-.08.03-.15.04-.23,0-.03.01-.06.02-.09.02-.1.05-.2.08-.29.03-.11.07-.21.11-.31.02-.06.04-.11.07-.16.03-.06.05-.12.08-.17,0-.02.01-.03.02-.05.03-.06.06-.12.09-.17,0,0,0,0,0,0,.03-.06.07-.11.1-.16,0-.01.02-.03.03-.04.03-.05.07-.1.11-.15.03-.04.07-.08.11-.13.2-.2.48-.37.79-.5.13-.05.26-.1.4-.14.07-.02.14-.04.21-.06.49-.13,1.02-.19,1.49-.19h.07s.07,0,.07,0c.06,0,.13,0,.2,0,.02,0,.05,0,.07,0,.05,0,.09,0,.14,0,.03,0,.05,0,.08,0,.04,0,.08,0,.13.01.03,0,.06,0,.09.01.04,0,.08,0,.12.01.03,0,.06,0,.09.01.04,0,.08.01.12.02.03,0,.06.01.09.02.04,0,.08.01.12.02.03,0,.06.01.09.02.04,0,.08.02.11.03.03,0,.06.02.09.02.04,0,.07.02.11.03.03,0,.06.02.09.03.04.01.07.02.11.04.03,0,.06.02.09.03.04.01.07.03.1.04.03.01.06.02.08.03.03.01.07.03.1.05.03.01.05.02.08.04.03.02.07.03.1.05.02.01.05.03.07.04.03.02.06.04.09.06.02.01.04.03.06.04.03.02.06.05.09.07.02.01.03.02.05.04.09.07.17.15.24.24h0c.04.06.09.12.13.18,0,0,.01.02.02.03.04.06.08.12.11.19,0,.01.01.02.02.04.04.07.07.13.1.21,0,.01,0,.02.01.03.01.03.03.06.04.09.02.05.04.1.06.15.04.1.07.2.11.31h0c.03.1.05.2.08.3.02.08.04.17.05.26,0,.02,0,.04,0,.06.01.08.02.15.03.23,0,.08.02.16.02.24,0,.02,0,.04,0,.06,0,.08,0,.16,0,.24,0,.08,0,.16,0,.24,0,.02,0,.04,0,.06,0,.08-.01.16-.02.25,0,.08-.02.16-.04.25,0,.02,0,.04-.01.06-.02.08-.03.16-.05.25-.02.07-.04.14-.06.21,0,.01,0,.02-.01.04-.01.04-.03.08-.04.12M59.02,21.24c12.21-.12,23.89,1.81,27.26,11.47,1.64,4.71.76,9.67-1.88,13.47-.32-1.22-.95-2.63-2.17-3.92-1.25-1.33-2.88-2.28-4.86-2.87,1.48-2.58,2.07-5.15-.57-8.16-4.33-4.95-9.7-5.34-16.54-5.08-8.18.32-16.17,2.74-21.76,7.79h-10.81c7.93-7.84,18.5-12.58,31.34-12.71M56.54,32.63c.04-.26.09-.51.13-.77.01-.07.02-.13.03-.2.02-.13.04-.27.06-.4.04-.25.08-.49.12-.74,0-.03.01-.07.02-.1.04-.27.09-.54.14-.81,0,0,0,0,0,0,.01,0,.03,0,.04,0,.51-.06,1.03-.11,1.56-.15.05,0,.1,0,.15-.01.25-.02.5-.03.75-.05.02,0,.04,0,.06,0,.26-.01.52-.03.78-.04.53-.02,1.01-.04,1.45-.05.22,0,.44,0,.65-.01.1,0,.21,0,.31,0,.1,0,.2,0,.3,0,2.3,0,4.17.18,5.76.59.12.03.24.06.36.1.24.07.47.14.69.22.45.16.87.34,1.28.55.3.16.6.33.88.51.85.55,1.61,1.24,2.34,2.07.05.05.09.11.14.16.02.02.03.04.05.06.09.11.18.22.26.33.02.02.03.04.05.06,0,0,0,0,0,0h0-18.53v-.28c.02-.11.04-.22.06-.34.04-.23.08-.46.12-.69,0,0,0-.01,0-.02M9.13,40.13c-.02-.49.03-.96.14-1.4.88-4.2,6.97-5.85,9.68-2.18h23.97l-.02-.02c0-.37,0-1.25,0-1.96v-.04c1.62-1.12,3.44-2.06,5.41-2.83,1.87-.73,3.89-1.29,6.03-1.69-.19,1.17-.36,2.33-.58,3.41v3.12h21.44c-.23.61-.63,1.33-1.22,2.24-.49-.04-1-.07-1.52-.08-1.9-.03-3.66.13-5.25.47-1.25.27-2.32.65-3.24,1.07-2.02.94-3.32,2.15-4.11,3.15-.01.02-.03.03-.04.05l-.17.09h-5.87l-.02-.02v5.24c-1.34,1.09-3.07,2.73-4.52,4.88-.41.61-.72,1.24-.92,1.89-.4,1.26-.4,2.55,0,3.83.16.52.39,1.04.69,1.54.92,1.58,2.18,2.54,2.43,2.71l.44.32h-2.44c-.35-.14-.73-.24-1.12-.31-.38-.07-.77-.1-1.17-.1-1.55,0-2.97.41-4.25,1.07v-21.05h-23.99c-2.96,4.01-9.96,1.66-9.78-3.42M18.09,47.27c.12-.04.24-.08.35-.13.6-.31,1.15-.7,1.65-1.16h11.41c-.28,1.21-.48,2.48-.6,3.81-.16,1.83-.21,3.67-.15,5.51-1.81-.98-4.19-1.65-6.01-1.65-4.29,0-8.1,2.02-10.74,3.92,1.09-3.63,2.45-7.08,4.09-10.3M8.35,78.07c-1-1.62-2.29-5.11.31-10.29,1.25-2.53,3.65-5.31,6.41-7.44,1.53-1.18,3.1-2.11,4.67-2.77,1.75-.73,3.45-1.1,5.06-1.1,2.08,0,3.67.76,4.47,2.13.88,1.51.71,3.54-.45,5.58-1.36,2.39-4.6,4.42-7.08,4.42-1.32,0-2.39-.51-3.01-1.45-.62-.93-.71-2.16-.24-3.29.41-1,1.97-2.51,3.57-2.69l.41-.05-.08.41c-.11.57,0,1.12.32,1.5.26.32.64.5,1.06.5,1.04,0,2.31-.82,2.84-1.82.35-.66.37-1.37.05-1.91-.32-.54-.95-.83-1.75-.83-3.63,0-7.62,2.73-9.51,6.49-1.55,3.17-1.68,6.62-.33,8.79.78,1.25,1.95,1.91,3.38,1.91,1.51,0,2.54-.69,2.84-1.89.09-.34.1-1.17,0-1.68l-.08-.34,2.34-.19.05.27c.28,1.39.08,3.09-.5,4.34-.7,1.53-2.87,5.1-7.94,5.1-2.82,0-5.36-1.38-6.79-3.7M93.37,95.47c-.64,2.96-2.72,7.26-3.65,9.26,0,0,0,.01,0,.02l-3.74-3.56s-4.27,8.83-14.87,14.92c-1.3.75-3.03,1.9-3.98,2.35-6.95,3.62-15.29,11.92-18.81,16.76-3.53-4.84-11.87-13.14-18.81-16.76-.96-.46-2.68-1.61-3.98-2.35-10.61-6.09-14.81-14.97-14.88-15.03l-3.65,3.68s0,0,0-.01c-.93-1.99-3.05-6.13-3.69-9.1-.88-4.07-.91-9.36-.35-13.79,0,.02,0,.05,0,.07.01-.11.03-.21.04-.32,3.92,5.49,11.31,10.59,16.04,13.11l-4.65,3.94c.97,1.87,5.91,6,9.26,7,1.56.59,3.34,1.05,5.36,1.3,9.61,1.16,13.51.47,13.92.39v-2.95c1.33.11,2.67.17,4.01.17.4,0,.81,0,1.22-.02.06,0,.12,0,.18,0,1.88-.05,3.7-.13,5.45-.26v3.05s3.78.85,13.96-.39c2.02-.24,3.8-.71,5.36-1.3,3.34-1,8.29-5.13,9.26-7l-2.43-2.06-1.67-1.42c.56-.42,1.56-1.22,2.72-2.37,4.41-2.77,9.67-6.87,12.77-11.21.57,4.45.54,9.78-.34,13.88"/>
          <path d="M68.86,46.26c-1.95.71-1.48.91-3.58,2.83-3.11,2.84-6.75,3.1-6.75,3.1,0,0,.98,1.12,1.9,1.01.78-.09,1.71-.33,1.71-.33,0,0,3.11,4.28,7.34,1.24,4.29-3.08.73-6.18.73-6.18l3.55-2.17s-2.39-.41-4.91.5M64.33,52.08l.37-.16c.56-.24,1.09-.55,1.57-.92.28.78.82,1.4,1.59,1.83-2.25,1.64-3.53-.75-3.53-.75M68.5,52.25c-.23-.83-.73-1.5-1.45-1.95.45-.47.84-.99,1.16-1.57,0,0,1.85,1.77.29,3.52"/>
          <path d="M55.56,55.22c-1.6.45-1.57,3.25-1.57,3.25l.03-.02c.48-.3.98-.55,1.49-.76l.28-1.13.88.76c.41-.1.82-.17,1.23-.2,0,0-.71-2.36-2.33-1.9"/>
        </g>
      </g>
    </g>
  </g>
</svg>