<?xml version="1.0" encoding="UTF-8"?>
<svg id="Layer_2" xmlns="http://www.w3.org/2000/svg" viewBox="0 0 127.22 127.22">
  <defs>
    <style>
      .cls-1 {
        fill: #fff;
      }
    </style>
  </defs>
  <g id="PAGE2">
    <g>
      <path class="cls-1" d="M16.66,75.94c.16.21.37.45.56.62.2.17.42.32.64.44.29.16.57.32.86.47.29.15.58.3.87.45.57.29,1.17.56,1.75.83.16-.42.24-.84.26-1.26,0-.21,0-.42-.03-.63-.01-.11-.03-.21-.06-.31-.02-.1-.05-.21-.08-.31-.07-.24-.17-.47-.29-.69-.12-.22-.25-.42-.42-.62"/>
      <path class="cls-1" d="M20.75,74.91c-.15-.19-.32-.36-.51-.52-.09-.08-.19-.16-.29-.23-.1-.07-.21-.14-.32-.21l-.42-.25-.41-.25c-.27-.17-.55-.35-.82-.52-.54-.36-1.08-.73-1.62-1.11-.05.1-.1.2-.15.31-.09.21-.16.43-.21.65-.03.11-.05.23-.06.34-.06.46-.03.93.07,1.4.13.54.37,1.05.7,1.47"/>
      <path class="cls-1" d="M21.87,83.54c.31.1.62.21.92.3.31.1.61.19.92.28.05-.22.08-.43.1-.65,0-.11.01-.21,0-.32,0-.43-.08-.85-.22-1.25-.04-.1-.08-.2-.12-.3-.1-.23-.23-.45-.37-.65-.07-.1-.15-.2-.24-.29-.08-.09-.17-.18-.26-.27h.01c-.35-.33-.78-.6-1.24-.8-.29-.13-.59-.26-.89-.39-.29-.13-.58-.27-.88-.41-.59-.28-1.17-.58-1.76-.89-.16.43-.25.88-.25,1.35,0,.12,0,.23.02.35.03.35.11.69.24,1.03.1.26.22.51.37.74.15.22.36.48.54.67.08.08.16.15.24.22.1.08.21.16.32.23.22.14.45.26.69.36.3.12.61.24.92.35.31.11.61.22.92.33Z"/>
      <path class="cls-1" d="M16.49,70.91c.53.39,1.06.77,1.6,1.14.27.18.54.36.81.54.27.17.55.34.82.51.1-.19.19-.39.26-.6.07-.2.13-.41.16-.62.04-.21.05-.42.05-.63,0-.21-.01-.43-.05-.64-.09-.5-.25-.96-.53-1.39h.01c-.25-.41-.58-.78-.99-1.09-.5-.4-1-.81-1.5-1.23-.24-.21-.49-.43-.73-.65-.25-.22-.49-.44-.73-.67-.54.74-.79,1.68-.7,2.63.02.28.09.55.17.81.09.26.19.51.33.74h-.01c.26.45.61.84,1.03,1.15Z"/>
      <path class="cls-1" d="M25.09,92.98c.44.26.94.43,1.46.49.65.08,1.31.13,1.95.18.32.02.65.04.97.06.32.01.64.03.96.04-.02-.44-.1-.87-.25-1.26-.15-.4-.36-.77-.63-1.1-.16-.2-.37-.39-.6-.57-.06-.04-.12-.09-.17-.13-.18-.12-.36-.24-.52-.32-.17-.08-.34-.15-.52-.2-.23-.08-.48-.13-.73-.17-1.27-.18-2.55-.42-3.84-.72-.02.23-.02.46,0,.68.02.23.06.46.12.68.13.44.32.87.6,1.26.16.23.35.43.55.61.2.18.43.34.66.48"/>
      <path class="cls-1" d="M33.72,97.91c.32-.03.64-.06.96-.09-.04-.22-.09-.43-.16-.63-.07-.2-.15-.4-.25-.59-.1-.19-.21-.36-.34-.53-.06-.09-.13-.17-.2-.25-.07-.08-.15-.16-.23-.23-.09-.09-.19-.17-.29-.24-.1-.08-.2-.15-.3-.21-.09-.06-.2-.12-.32-.18-.12-.06-.24-.11-.35-.16-.44-.17-.93-.25-1.44-.26-.64-.01-1.29-.02-1.94-.06-.32-.02-.65-.04-.98-.06-.33-.03-.65-.06-.98-.09,0,.23.03.46.08.68.05.22.12.44.21.65.09.21.2.42.32.62.13.19.28.38.44.56.1.1.2.2.3.29.11.09.22.17.33.25.23.15.46.28.71.39h0c.48.2,1,.3,1.52.29.66-.02,1.31-.03,1.96-.08.32-.02.65-.04.97-.07Z"/>
      <path class="cls-1" d="M15.05,63.43c.2.48.5.91.87,1.27.24.23.48.45.72.68.24.22.48.44.72.66.49.43.97.85,1.48,1.25.25-.36.45-.75.57-1.15.06-.2.11-.41.14-.62.03-.21.04-.42.03-.64-.01-.25-.04-.5-.1-.74-.06-.24-.14-.48-.25-.7h.01c-.09-.22-.21-.43-.36-.63-.07-.1-.15-.2-.23-.3-.08-.1-.17-.19-.26-.28-.22-.23-.44-.46-.67-.7-.22-.24-.45-.48-.66-.72-.43-.48-.87-.98-1.28-1.49-.08.08-.16.17-.23.26-.21.27-.38.57-.51.89-.18.43-.27.89-.29,1.37-.01.28.01.56.07.82.05.27.13.53.23.78h-.01Z"/>
      <path class="cls-1" d="M25.25,85.68c-.39-.28-.91-.56-1.41-.69-.92-.26-1.85-.55-2.78-.88-.31-.11-.62-.22-.93-.34-.03.11-.05.22-.07.34-.02.11-.03.23-.03.34,0,.23,0,.46.03.69.06.46.21.91.43,1.33.03.06.07.12.1.18s.07.12.11.17c.08.11.16.22.25.32.18.21.37.4.59.56h-.01c.21.16.43.3.66.41.23.11.48.2.73.26.64.16,1.27.31,1.91.43.32.06.63.13.95.18.32.06.64.11.95.16.04-.44,0-.87-.08-1.29-.02-.1-.05-.21-.08-.31-.03-.1-.07-.2-.11-.3-.04-.1-.08-.2-.13-.29-.05-.1-.1-.19-.16-.28-.27-.42-.61-.79-1.02-1.08"/>
      <path class="cls-1" d="M16.16,58.47c.41.52.83,1.02,1.26,1.51.22.25.43.49.65.72.21.24.43.47.66.71.6-.65.97-1.44,1.05-2.3.02-.25.03-.5,0-.75-.02-.25-.08-.49-.15-.73h.01c-.06-.19-.13-.38-.23-.57h-3.93s0,.02,0,.03h-.01c.13.5.38.97.7,1.38Z"/>
      <polygon class="cls-1" points="56.06 18.59 55.95 20.05 59.17 19.55 58.63 18.19 58.31 16.1 60.97 9.79 57.88 10.26 57.94 11.7 56.97 14.53 55.23 12.12 54.87 10.73 51.25 11.29 55.74 16.51 56.06 18.59"/>
      <polygon class="cls-1" points="57.07 28.41 57.05 28.44 57.07 28.41 57.08 28.4 57.07 28.41"/>
      <path class="cls-1" d="M57.53,46.97c3.53-3.19,8.58-4.72,13.75-4.93,2.1-.08,3.99-.06,5.69.33,1.79.42,3.37,1.27,4.77,2.87,1.38,1.58,1.36,2.96.78,4.32-.12.28-.26.56-.42.84,1.25.37,2.28.97,3.07,1.81.77.82,1.17,1.71,1.37,2.48.34-.49.63-1.01.88-1.55.95-2.12,1.14-4.59.31-6.97-2.13-6.1-9.51-7.32-17.22-7.25-8.11.08-14.79,3.08-19.8,8.03h6.83Z"/>
      <path class="cls-1" d="M29.56,37.66l1.74-2.06-.89-.86-.18-.33,2.39-2.83.36.12.99.73,2.04-2.42-9.6-3.18-2.07,2.45,1.01.33,4.19,8.04ZM30.9,30.97l-1.55,1.84-1.64-2.96,3.2,1.12Z"/>
      <path class="cls-1" d="M40.01,25.12l.4,1.41,2.87-1.61-1-1.08-.96-1.71,1.09-.61,2.19,1.28.69.99,3.05-1.71-4.16-2.15c.92-.97.98-2.06.39-3.1-.94-1.67-2.34-2.07-4.45-.88l-4.3,2.41,1,1.08,3.19,5.69ZM40.62,17.66c.84-.47,1.35-.3,1.77.45.41.74.11,1.31-.73,1.78l-1.27.71-1.2-2.14,1.42-.8Z"/>
      <polygon class="cls-1" points="21.96 52.14 23.2 52.92 24.04 50.44 22.59 50.29 16.91 48.43 24.57 48.9 25.27 46.81 18.93 42.4 24.59 44.38 25.83 45.16 26.75 42.45 25.29 42.3 19.11 40.21 17.87 39.44 16.6 43.19 17.71 43.68 22.09 46.64 16.81 46.33 15.62 46.05 14.32 49.91 15.78 50.04 21.96 52.14"/>
      <path class="cls-1" d="M38.85,100.15c-.24-.35-.55-.65-.9-.9-.2-.15-.42-.27-.65-.37-.23-.1-.46-.18-.71-.24h0c-.47-.12-.97-.14-1.47-.08-.64.08-1.28.14-1.93.19-.33.03-.65.04-.98.06-.33.02-.66.04-.99.04.05.34.16.67.3.98.05.1.1.21.16.31.23.4.54.76.91,1.06.22.18.5.34.79.48.07.03.15.07.22.1.15.06.29.12.43.16.07.02.14.04.2.06.19.04.38.07.57.08.26.01.52,0,.78-.04,1.3-.19,2.58-.44,3.82-.73-.13-.43-.32-.82-.57-1.16Z"/>
      <path class="cls-1" d="M92.42,77.07c-2.48,3.47-7.15,6.69-10.13,8.29l1.4,1.19h0l1.54,1.3s-.04.07-.06.11c0,.01-.01.02-.02.03-.02.03-.04.06-.06.09,0,0,0,.01-.01.02-.87,1.27-3.72,3.58-5.7,4.17-.99.37-2.11.66-3.39.82-6.43.78-8.82.24-8.82.24v-1.87c-1.11.05-2.25.08-3.44.11-.04,0-.08,0-.11,0-.26,0-.52,0-.77,0-.85,0-1.7-.04-2.53-.11v1.86c-.25.05-2.72.49-8.8-.25-1.28-.15-2.4-.45-3.39-.82-2.11-.63-5.24-3.24-5.85-4.42l2.94-2.49c-2.99-1.59-7.66-4.82-10.13-8.29,0,.07-.02.14-.02.21,0-.02,0-.03,0-.05-.36,2.8-.33,6.14.22,8.72.4,1.88,1.7,4.54,2.28,5.8l.12-.11,2.24-2.26h0s2.7,5.65,9.41,9.5c.82.47,1.91,1.2,2.52,1.49,4.39,2.29,9.66,7.53,11.89,10.59,2.23-3.06,7.5-8.3,11.89-10.59.61-.29,1.7-1.02,2.52-1.49,6.7-3.85,9.4-9.42,9.4-9.43l2.36,2.25s0,0,0,0h0c.59-1.26,1.91-3.98,2.31-5.86.56-2.59.58-5.96.21-8.77Z"/>
      <path class="cls-1" d="M55.61,107.67c-.27-.31-.56-.56-.88-.76-.36-.23-.74-.39-1.15-.48-.26-.06-.53-.1-.8-.1-.21,0-.43.02-.65.05l-.14.02h0c-.18.03-.36.08-.54.15-.23.09-.46.19-.67.31-.28.16-.56.32-.85.47-.29.15-.57.3-.86.45-.56.29-1.13.55-1.68.81.23.35.52.66.84.9.18.13.37.26.58.36.1.05.21.1.31.15.11.04.22.08.33.11.26.08.52.13.79.15.05,0,.1,0,.17,0,.27,0,.63-.03.86-.05.4-.08.8-.23,1.19-.46l.42-.25.42-.26c.28-.18.55-.35.82-.53.49-.33,1-.68,1.5-1.04Z"/>
      <path class="cls-1" d="M48.32,107.17c.58-.28,1.16-.58,1.72-.88-.23-.38-.52-.7-.85-.97-.08-.07-.17-.13-.25-.19-.26-.18-.54-.33-.85-.45-.24-.09-.48-.15-.72-.19-.24-.04-.51-.07-.75-.06-.11,0-.23.01-.35.03-.12.01-.24.03-.36.06-.24.05-.48.13-.72.22-.3.12-.6.23-.9.35-.3.11-.61.23-.92.33-.31.11-.62.21-.93.31-.16.05-.31.1-.47.15-.16.05-.31.1-.47.14.05.11.1.21.15.31.39.7,1.01,1.26,1.77,1.61.25.12.52.2.79.25.13.03.27.05.4.07.13.01.46.03.59.03.45-.02.9-.13,1.32-.31.3-.13.6-.26.9-.4.3-.14.59-.28.88-.42Z"/>
      <path class="cls-1" d="M44.24,103.57c-.12-.18-.25-.35-.39-.51-.29-.31-.62-.57-1.01-.78-.22-.12-.45-.22-.69-.29-.24-.07-.48-.11-.73-.14h0c-.24-.04-.48-.04-.73-.02-.25.02-.49.07-.74.13-.62.16-1.25.31-1.89.44-.32.07-.64.13-.96.19-.32.06-.65.11-.97.17.13.44.34.86.62,1.22.14.18.3.35.47.51.17.16.36.3.57.42.47.3,1,.47,1.53.55h0c.51.08,1.04.03,1.54-.11,1.27-.37,2.5-.77,3.7-1.23-.09-.2-.2-.39-.32-.57Z"/>
      <path class="cls-1" d="M58.38,29.41c-.83,1.13-1.42,2.35-1.69,3.63-.37,1.66-.19,3.43.77,5.26.22.41.47.8.72,1.19.41-.18.83-.35,1.25-.51.12-.05.25-.09.37-.14.53-.19,1.07-.38,1.61-.54-.17-.45-.39-.91-.75-1.36-1.41-1.65-1.17-4.04-.13-5.39.01-.02.03-.03.04-.05l.04.03c.98-1.11,2.75-1.16,3.13-1.15.39,0,2.28.04,3.23,1.27.71.91,1.04,2.29.75,3.61-.15.59-.42,1.17-.85,1.68-.07.09-.13.17-.19.26.02,0,.04,0,.05,0,.74-.09,1.48-.15,2.24-.19.5-.03,1-.04,1.51-.05.03,0,.07,0,.1,0,.93-2.72.2-5.29-1.44-7.52-1.02-1.29-2.75-2-4.32-2.17-.32-.05-.68-.08-1.06-.08-.38,0-.74.03-1.06.08-1.57.18-3.29.88-4.32,2.17Z"/>
      <path class="cls-1" d="M101.29,44.53l1.19,3.83c1.03,3.34,2.88,4.34,5.96,3.39,3.08-.95,4.04-2.82,3-6.16l-1.19-3.83-1.27.74-6.23,1.93-1.46.11ZM109.34,45.09l.37,1.2c.45,1.46.01,2.25-2.08,2.89-2.08.64-2.89.21-3.35-1.26l-.36-1.16,5.41-1.67Z"/>
      <path class="cls-1" d="M83.13,22.99l.3-.23,3.17,1.94-.07.37-.57,1.09,2.7,1.65,1.67-9.96-2.73-1.67-.18,1.05-7.31,5.36,2.3,1.41.71-1.01ZM87.56,19.58l-.62,3.33-2.06-1.26,2.68-2.07Z"/>
      <path class="cls-1" d="M63.57,89.57c7.78-.2,13.03-1.26,17.64-5.37,0,0,.27-.19.69-.53,1.26-1.05,3.89-3.58,4.66-7.03-.92.6-1.91.96-3.04.96-.79,0-1.49-.22-2.05-.62l-.18.36h-1.98c-.89.92-1.67,1.59-2.53,2.07-.88.45-1.72.71-2.32.85-.84.18-1.81.3-3,.38-4.43.3-8.11-.91-11-3.09-.21.03-.42.05-.64.05-1.04,0-1.96-.34-2.66-.95-.98.64-1.89.75-2.95.75l-2.32-.06h-4.44c-.62.52-1.32.92-2.08,1.2-.73.26-1.53.41-2.36.43,3.7,6.84,11.57,10.83,20.55,10.6Z"/>
      <path class="cls-1" d="M111.77,57.09s-.01-.02-.02-.03h-4.42c.08.2.18.39.29.57h-.01c.25.41.58.78.99,1.09.5.4,1,.81,1.5,1.23.24.21.49.43.73.65.25.22.49.44.73.67.54-.74.79-1.68.7-2.63-.02-.28-.09-.55-.17-.81-.09-.26-.19-.51-.33-.74h.01Z"/>
      <polygon class="cls-1" points="107.61 69.22 107.62 69.22 107.62 69.22 107.61 69.22"/>
      <path class="cls-1" d="M60.05,68.7c.83-.08,2.29-.31,3.95-1.03-.28-.15-.6-.23-.97-.23-1.1,0-2.13.51-2.98,1.26Z"/>
      <path class="cls-1" d="M52.81,56.25c.07-.58.17-1.14.3-1.68h-7.21c-.32.3-.68.54-1.06.74-.07.03-.14.05-.21.08-.35.7-.68,1.41-1,2.14-.6,1.4-1.13,2.86-1.58,4.37,1.67-1.2,4.07-2.48,6.79-2.48,1.15,0,2.65.42,3.8,1.04-.04-1.16-.01-2.32.09-3.48.02-.25.05-.49.08-.73Z"/>
      <path class="cls-1" d="M72.68,64.05c-.09,0-.18,0-.28.01-.36,0-.72,0-1.04-.05l-.53,1.56c1.34-.14,2.19-.31,2.82-.53.1-.03.19-.07.28-.11.09-.04.17-.08.25-.12.12-.06.23-.12.34-.19.07-.04.14-.09.22-.14.07-.05.14-.1.21-.15.04-.03.07-.05.11-.08.25-.19.51-.39.83-.63l.35-.26-.59.17c-.7.2-1.56.38-2.4.47-.19.02-.38.03-.56.04Z"/>
      <polygon class="cls-1" points="75.66 18.63 74.21 18.73 71.42 18.17 72.62 12.24 73.23 10.91 70.02 10.27 70.06 11.73 68.77 18.13 68.17 19.46 74.87 20.81 75.66 18.63"/>
      <path class="cls-1" d="M67.14,76.2c-.91.75-1.81,1.19-2.72,1.34.88.38,1.8.66,2.76.85v-2.23s-.03.02-.04.03Z"/>
      <path class="cls-1" d="M88.73,71.96l.21-.25-.96-.79-.21.25c-1.02,1.24-2.02,2.38-2.41,2.38-.04,0-.06,0-.07,0,0-.03-.01-.17.22-.6.16-.32.39-.72.63-1.14.25-.43.51-.88.73-1.33.37-.74.54-1.28.54-1.7-.01-.8-.62-1.34-1.5-1.34-.93,0-1.86.38-2.7,1.1-.12-.66-.69-1.1-1.48-1.1s-1.57.26-2.29.77l.23-.51h-2.85l-1.7,3.43-.04.05c-1.01,1.22-1.78,1.98-2.49,1.98-.12,0-.23-.06-.3-.17-.08-.13-.23-.52.18-1.37.54-1.07,1.71-2.12,2.36-2.65l.17-.13-.16-.15c-.26-.26-.65-.84-.82-1.26l-.1-.24-.2.16c-.44.35-1.59.83-2.47.83-.04,0-.08,0-.13,0,.15-.4.22-.73.24-1.01-.1.01-.2.02-.3.03l-.5.05c-.29.42-.63.86-1.04,1.29-.12.12-.24.24-.36.36-.05.05-.1.09-.15.14.04.06.09.13.14.19-.32.56-.76,1.13-1.35,1.85l-.16.19c-1.58,1.91-2.09,2.3-2.39,2.3,0,0-.01,0-.02,0,0-.04,0-.19.18-.55l1.09-2.19c-.54.24-1.15.42-2.04.63-.21.05-.42.09-.62.12-.18.03-.35.05-.51.07-.08,0-.15.02-.23.02-.53,1.09-1.27,1.88-1.75,1.88-.19,0-.26-.08-.3-.14-.19-.3-.08-1.02.24-1.78-.52-.08-.81-.19-.81-.19l.41-.52.73-.92-.14-.08-1.71-.95c-.6.59-1.1,1.29-1.45,1.98-.1.21-.2.42-.28.63-1.37,1.63-1.84,1.97-2.12,1.97,0,0,0,0,0,0,0-.05,0-.19.19-.56.15-.3.36-.66.58-1.05.26-.45.56-.96.8-1.45.36-.72.54-1.3.53-1.72-.01-.81-.65-1.34-1.61-1.34-.65,0-1.34.22-1.99.64l2.58-5.07h-3.08l-6.22,12.55h3.07l1.73-3.48c1.09-2.18,1.72-2.43,2.1-2.43.06,0,.1.01.11.02,0,0,.07.12-.15.56-.15.3-.39.69-.64,1.1-.32.52-.68,1.11-.95,1.65-.3.6-.44,1.05-.43,1.41.02.88.61,1.43,1.56,1.43.86,0,1.66-.32,2.53-1,.33-.26.67-.57,1.05-.96.04.42.16.79.35,1.09.36.57.97.87,1.77.87s1.58-.35,2.31-1c.19.69.88,1,1.56,1,.75,0,1.48-.32,2.31-1,.68-.56,1.45-1.38,2.56-2.71h0s.08-.1.08-.1c.01-.02.03-.03.04-.05l.11-.13c.33-.4.94-1.16,1.48-2,.13.02.27.03.42.03.2,0,.39-.03.57-.07-.9.85-1.53,1.64-1.92,2.42-.53,1.04-.58,2.08-.14,2.78.34.54.95.84,1.71.84.81,0,1.53-.29,2.31-.89l-.31.63h3.07l1.73-3.48c1.21-2.43,1.88-2.43,2.1-2.43.06,0,.09.01.1.02,0,0,.08.13-.19.65l-2.63,5.23h3.08l1.73-3.48c.85-1.68,1.49-2.43,2.1-2.43.06,0,.1.01.11.02.03.04.03.21-.15.56-.15.3-.39.69-.64,1.1-.32.52-.68,1.11-.95,1.65-.3.6-.44,1.05-.44,1.41.02.88.61,1.43,1.56,1.43,1.75,0,3.14-1.3,5.25-3.86Z"/>
      <path class="cls-1" d="M67.4,68.62c2.07-1.74,2.79-4.49,2.79-4.49l-1.19.13s-.03.13-.3.64c-.42.79-.96,1.48-1.63,2.06-.4.34-.84.64-1.32.9,0,0-.02,0-.04.02-.03.01-.06.03-.1.06-.08.04-.17.09-.22.11-.26.13-.76.35-1.24.56-.61.27-1.19.52-1.19.52h.21c1.22.03,3.1-.91,3.45-1.08-1.44,1.49-3.31,2.39-3.31,2.39,0,0,2.04-.07,4.11-1.81Z"/>
      <path class="cls-1" d="M45.3,76.39c1.19-.63,1.92-1.64,2.31-2.52.37-.8.46-1.84.3-2.62l-1.09.09c.08.35.07.9,0,1.15-.2.8-.89,1.34-1.98,1.34-2.71,0-3.81-3.54-2.1-7.04.05-.1.11-.2.16-.3,1.35-2.43,3.87-3.91,6.02-3.91,1.3,0,1.74,1.09,1.25,2.02-.36.68-1.22,1.25-1.96,1.25,0,0,0,0,0,0-.72,0-1.23-.68-1.06-1.49-.91.1-1.84.97-2.1,1.58-.17.42-.21.85-.13,1.26.17.81.85,1.47,2.01,1.47.87,0,1.86-.4,2.7-.99.67-.48,1.26-1.08,1.61-1.7,1.33-2.33.46-4.59-2.37-4.59-4.18,0-8.56,4.07-10.03,7.04-.33.66-.57,1.29-.72,1.9-1.02,4,1.61,6.67,4.64,6.67,1.01,0,1.85-.23,2.53-.59Z"/>
      <polygon class="cls-1" points="84.09 60.96 84.09 60.96 84.09 60.96 84.09 60.96 84.09 60.96 84.09 60.96"/>
      <path class="cls-1" d="M84.74,54.75c-.05-.14-.11-.29-.18-.44-.22-.45-.54-.91-1.03-1.32-.32-.27-.71-.53-1.19-.74-.12-.05-.24-.1-.37-.15-.78-.28-1.76-.47-2.99-.49h0c-1.43-.02-2.59.14-3.52.42-.13.04-.26.08-.38.12-.37.13-.7.28-1,.44-.1.05-.19.11-.28.16-.18.11-.35.22-.5.34-1.37,1.05-1.6,2.26-1.6,2.26l-.13-.79s-.25.13-.57.32c-.15.09-.31.19-.47.3-.03.02-.06.05-.1.07-.16.14-.32.35-.46.57-.03.04-.05.09-.08.13-.13.22-.24.43-.31.58-.06.12-.09.19-.09.19,0,0-.25.15-.65.44-.07.05-.15.11-.23.17-.2.15-.43.34-.67.55-.15.13-.3.26-.45.41-.05.05-.1.1-.15.15-.1.1-.21.21-.31.32-.05.06-.11.11-.16.17-.37.4-.74.86-1.08,1.36-.39.58-.52,1.12-.5,1.62,0,.25.06.48.13.7.02.05.04.11.06.16.4,1.01,1.29,1.65,1.29,1.65,0,0,.51-.21,1.1-.66.27-.2.56-.46.83-.77.05-.06.12-.11.18-.16.03-.02.07-.04.1-.06.14-.07.3-.1.47-.11.37-.03.79.06,1.12.09,1.51.18,3.04-.11,4.4-.75,0,0,.08-.01.21-.04.06,0,.14,0,.25,0,.05,0,.11,0,.18,0,.18,0,.41-.02.69-.04.3-.02.65-.05,1.06-.1.54-.06,1.18-.15,1.93-.27,4.97-.8,3.89-4.04,3.89-4.04l-1.58-.45,3.37-.62s.09-.79-.24-1.73ZM69.01,61.74l-.55-.48-.18.71c-.32.13-.64.29-.94.48h-.02s-.01-1.75.99-2.04c1.02-.29,1.47,1.2,1.47,1.2-.26.02-.52.07-.78.13ZM77.58,55.8s2.25,1.95-.46,3.9c-2.67,1.92-4.64-.78-4.64-.78,0,0-.59.15-1.08.21-.58.07-1.2-.64-1.2-.64,0,0,2.3-.16,4.26-1.96,1.32-1.21,1.03-1.34,2.26-1.79,1.59-.58,3.1-.32,3.1-.32l-2.24,1.37Z"/>
      <path class="cls-1" d="M110.53,76c-.06-.51-.25-1.01-.51-1.46l-.25-.42-.26-.42c-.18-.28-.35-.55-.53-.82-.36-.54-.73-1.07-1.1-1.59-.34.28-.63.61-.85.97-.23.36-.39.75-.49,1.17-.12.49-.12.99-.04,1.48h-.01c.04.23.1.47.19.7.08.23.19.46.31.68.16.28.32.56.47.85.15.28.3.57.45.86.3.58.57,1.17.85,1.78.39-.24.74-.55,1.01-.92.14-.18.26-.38.37-.59.05-.1.1-.21.15-.32.04-.11.08-.22.12-.34.08-.27.13-.54.15-.81.02-.27,0-.55-.02-.81h.01Z"/>
      <path class="cls-1" d="M97.48,98.42c.15-.22.28-.45.38-.69l.05-.13h0c.16-.43.23-.88.23-1.35-.01-.6-.03-1.29-.08-1.96-.02-.32-.04-.65-.07-.97-.02-.29-.05-.57-.08-.86-.18.03-.35.08-.52.14-.22.08-.41.16-.58.24-.18.09-.35.21-.52.34-.17.13-.32.27-.47.42-.08.09-.16.18-.23.28-.08.1-.15.2-.21.3-.13.2-.23.42-.31.65l-.05.14h-.01c-.13.37-.2.8-.21,1.27-.01.57-.02,1.27-.06,1.94-.02.32-.04.65-.06.98-.02.29-.05.58-.08.88.19-.01.38-.04.56-.07.2-.04.41-.11.64-.2.21-.09.42-.2.6-.31.19-.13.37-.27.54-.43.1-.09.19-.19.28-.29.08-.1.16-.2.24-.32Z"/>
      <path class="cls-1" d="M108.17,80.5c-.13-.3-.26-.6-.4-.9-.14-.3-.28-.59-.42-.88-.28-.58-.58-1.16-.88-1.72-.75.47-1.3,1.14-1.61,1.95-.09.24-.15.48-.19.72-.04.24-.06.67-.05.92,0,.06.01.12.02.18.01.12.03.24.06.36.05.24.13.48.22.72.06.15.12.3.18.45.06.15.11.3.17.45.11.3.23.61.33.92.11.31.21.62.31.93.1.31.2.63.3.94.32-.14.61-.32.87-.54.35-.29.65-.66.89-1.07.06-.1.11-.21.16-.32.12-.25.2-.52.25-.79.03-.13.05-.27.07-.4.01-.13.02-.27.02-.4h.01c0-.38-.06-.77-.18-1.14-.04-.12-.09-.25-.14-.37Z"/>
      <path class="cls-1" d="M104.33,82.48c-.2.09-.39.2-.57.32-.18.12-.35.25-.51.39-.31.29-.57.62-.78,1.01-.12.22-.22.45-.29.69-.07.22-.13.53-.15.78-.02.22-.02.45,0,.68.02.25.07.49.13.74.16.62.31,1.25.44,1.89.07.32.13.64.19.96.06.32.11.65.17.97.11-.03.22-.07.32-.11.11-.04.21-.09.31-.14.2-.1.4-.23.58-.37.18-.14.35-.3.51-.47.16-.17.3-.36.42-.57.3-.47.47-1,.55-1.53h.01c.02-.12.03-.25.03-.38,0-.39-.04-.78-.15-1.15-.37-1.27-.77-2.5-1.23-3.7Z"/>
      <path class="cls-1" d="M101.49,87.63c-.43.13-.82.32-1.16.57-.35.24-.65.55-.9.9-.15.2-.27.42-.37.65-.1.23-.18.46-.24.71h0c-.11.46-.13.96-.07,1.46.08.64.14,1.28.19,1.93.01.16.02.33.03.49,0,.16.02.33.03.49.02.33.04.66.04.99.45-.07.89-.23,1.29-.46.4-.23.76-.54,1.06-.91.18-.22.33-.45.45-.69.12-.24.22-.5.29-.76h0c.07-.24.11-.5.13-.76.01-.26,0-.52-.04-.78-.19-1.3-.44-2.58-.73-3.82Z"/>
      <polygon class="cls-1" points="99.79 29.15 96.1 35.93 98.2 38.65 104.49 33.78 105.82 33.17 104.15 31 103.22 32.14 98.77 35.64 102.48 28.84 100.18 25.87 99.26 27.01 94.1 31.01 92.76 31.61 94.43 33.77 95.36 32.64 99.79 29.15"/>
      <path class="cls-1" d="M112.08,63.46l-.05-.13h0c-.19-.41-.46-.79-.79-1.12-.24-.23-.48-.45-.72-.68l-.03-.03c-.23-.21-.45-.42-.69-.62-.49-.43-.93-.81-1.39-1.19-.23.34-.4.69-.51,1.05-.12.42-.18.84-.16,1.23.01.27.04.5.1.72.05.23.14.46.24.68l.06.13h-.01c.18.37.43.72.76,1.05.22.23.44.46.67.7l.03.03c.21.23.43.46.63.69.42.47.83.94,1.22,1.41.27-.3.49-.65.65-1.04.17-.4.26-.85.28-1.34.01-.25,0-.52-.06-.8-.05-.26-.12-.51-.22-.76Z"/>
      <path class="cls-1" d="M63.61,0C28.54,0,0,28.54,0,63.61s28.54,63.61,63.61,63.61,63.61-28.54,63.61-63.61S98.69,0,63.61,0ZM63.61,123.23c-32.88,0-59.62-26.75-59.62-59.62S30.74,3.99,63.61,3.99s59.62,26.75,59.62,59.62-26.75,59.62-59.62,59.62Z"/>
      <path class="cls-1" d="M111.66,69.78l-.03-.13h0c-.13-.42-.35-.83-.64-1.21-.43-.54-.84-1.03-1.25-1.5-.21-.24-.43-.49-.65-.72-.22-.24-.4-.44-.58-.63-.55.62-.88,1.37-.96,2.17-.02.21-.03.47,0,.73.02.22.07.44.15.71l.04.14h-.01c.13.37.33.75.62,1.14.37.5.76,1.03,1.13,1.58.18.27.37.54.55.82.16.25.32.49.47.74.14-.12.28-.26.4-.4.13-.15.26-.33.38-.55.11-.19.21-.4.29-.62.07-.21.13-.44.17-.67.09-.49.06-1.03-.08-1.59Z"/>
      <path class="cls-1" d="M88.07,100.45c-.2.05-.4.11-.59.19-.21.09-.4.18-.56.28-.41.26-.82.65-1.09,1.03-.26.37-.45.79-.58,1.26-.36,1.28-.76,2.5-1.18,3.62.19.04.38.07.56.07.05,0,.1,0,.16,0,.17,0,.34-.01.51-.03.43-.05.87-.2,1.3-.42.22-.11.44-.26.66-.46.22-.19.4-.38.55-.57l.08-.11h0c.12-.16.22-.34.31-.52.11-.23.2-.47.26-.71.14-.56.3-1.23.43-1.91.06-.32.13-.63.18-.95.05-.28.1-.57.14-.85-.09,0-.18,0-.27,0-.29,0-.58.03-.88.1Z"/>
      <path class="cls-1" d="M77.66,105.53c-.05,0-.11,0-.16,0-.15,0-.31.01-.46.03-.1.01-.2.03-.31.06-.1.02-.21.05-.31.08-.23.07-.46.16-.67.28-.22.11-.42.25-.6.4l-.11.09h0c-.32.28-.6.61-.82.99l-.25.42-.26.41c-.17.27-.35.55-.52.82-.33.5-.68,1.01-1.05,1.54.36.18.75.3,1.18.36.15.02.32.03.48.03.29,0,.59-.03.89-.1.5-.12,1.1-.42,1.53-.74.17-.14.32-.29.46-.44.16-.18.3-.39.43-.63.16-.29.32-.57.47-.86.15-.29.3-.58.44-.87.28-.56.55-1.13.78-1.65-.36-.13-.74-.2-1.14-.22Z"/>
      <path class="cls-1" d="M84.2,103.4c-.27-.05-.54-.08-.8-.08-.54,0-1.07.11-1.55.34-.24.11-.44.23-.63.36-.1.07-.19.15-.28.23-.08.07-.25.23-.34.33-.27.31-.51.69-.7,1.13-.13.29-.26.59-.39.89-.13.29-.27.59-.41.88-.26.54-.52,1.06-.84,1.66.39.14.79.2,1.21.2.46,0,.91-.08,1.35-.25.26-.1.5-.22.72-.36.22-.15.42-.31.62-.5l.1-.1h0c.06-.05.11-.11.16-.17.08-.1.15-.2.22-.31.14-.21.25-.44.35-.68.11-.28.22-.56.32-.84l.03-.08c.11-.31.22-.61.33-.92.1-.31.21-.62.3-.92.07-.23.17-.52.25-.82Z"/>
      <path class="cls-1" d="M79.14,107.13c-.05.1-.09.2-.14.3-.06.12-.12.24-.17.35.06-.12.12-.23.17-.35.05-.1.09-.2.14-.3Z"/>
      <path class="cls-1" d="M91.62,97.56c-.37.29-.67.67-.91,1.12l-.07.13h0c-.08.15-.15.33-.21.52-.07.23-.13.47-.16.71-.16,1.19-.39,2.41-.7,3.74.08,0,.17,0,.25,0,.32,0,.65-.04.97-.13.46-.13.87-.33,1.23-.59.22-.16.42-.34.6-.54.16-.18.31-.39.46-.64l.07-.12h0c.21-.38.34-.83.4-1.3.08-.66.13-1.34.18-1.95.02-.28.04-.57.05-.85v-.12s.01-.15.01-.15c.01-.24.02-.47.03-.7-.41.02-.79.1-1.14.24-.39.14-.76.35-1.08.62Z"/>
      <polygon class="cls-1" points="87.89 105.48 87.9 105.49 87.89 105.48 87.89 105.48"/>
      <path class="cls-1" d="M76.31,56.31c-.2.36-.45.69-.73.99.46.29.77.71.92,1.24.98-1.11-.19-2.23-.19-2.23Z"/>
      <path class="cls-1" d="M75.08,57.74c-.3.23-.64.43-.99.58l-.23.1s.81,1.51,2.23.47c-.49-.27-.83-.66-1.01-1.15Z"/>
      <path class="cls-1" d="M45.18,48.61c-1.71-2.32-5.55-1.28-6.11,1.37-.07.28-.1.58-.09.9-.12,3.21,4.31,4.7,6.18,2.16h15.16v13.3c.81-.42,1.71-.68,2.68-.68.25,0,.5.02.74.07.25.04.48.11.71.2h1.54l-.28-.2c-.15-.11-.95-.72-1.53-1.71-.19-.32-.33-.65-.44-.98-.25-.8-.25-1.62,0-2.41.13-.41.32-.81.58-1.2.91-1.36,2.01-2.39,2.86-3.08v-3.31h.01s3.71.01,3.71.01l.11-.06s.02-.02.03-.03c.5-.63,1.32-1.39,2.6-1.99.58-.27,1.26-.51,2.05-.68,1-.22,2.11-.32,3.32-.3.33,0,.65.02.96.05.37-.58.63-1.03.77-1.42h-13.55v-1.97c.14-.69.25-1.42.37-2.16-1.35.25-2.63.61-3.81,1.07-1.25.49-2.39,1.09-3.42,1.79,0,.45,0,1.02,0,1.26h.01s-.66.01-.66.01h-14.49Z"/>
    </g>
  </g>
</svg>