<?xml version="1.0" encoding="UTF-8"?>
<svg id="Layer_3" xmlns="http://www.w3.org/2000/svg" version="1.1" viewBox="0 0 110.5 83.2">
  <!-- Generator: Adobe Illustrator 30.5.1, SVG Export Plug-In . SVG Version: 2.1.4 Build 3)  -->
  <path d="M110.4,21.5v-1.4c.1,0-.9-.4-.9-.4.1-.5.2-1,.1-1.5-.1-2-1.3-4.1-3.4-5.5-1.2-.8-4.8-1.5-4.8-1.5,0,0,1.6,1.5,2.2,3,.3.9.4,2.1.3,2.5-.2.6-.7,1.2-1.6,1.6l-3.2,1.7,2,1c-1.5.5-3.4.8-4.3.9l-4,.5,1.6,1.4c-.2,0-.5,0-.8-.1,0,0-.2,0-.3,0-4.4-3-6-2.5-10.3-1.6-2.3-3.2-10.1-2.1-13.4-1.8-1.9-1.2-3.5-2.9-4.1-4.9l2.6,1.5-.8-4c-.9-4.2,3.1-8.4,5.3-10.2,1-.8,3.6-2.5,3.6-2.5,0,0-2.4-.3-4.1,0-2.5.4-5,1.1-6.9,2.6-1.2,1-2.2,2.1-2.9,3.2l-.7-.9-1.4,1.7c-2.3,2.8-3.5,6.2-3.4,9.5l-1.7-.6v2.7c0,.7.2,1.4.5,2.2-5.9.4-12.1,2.9-13.1,7.6-9.4-1.3-14.7,5.4-14.6,12-4,.2-10,3.4-11.8,7.8-1.5-1.4-2.6-2.7-3.5-5.4,1,.4,2,.9,3,1.3-2.1-4.1-3.4-8.9-1.3-13.7.5.5,1,1,1.5,1.5,1-6.2,4-11.9,12.2-16.8-7.1,3.1-12.1,7.4-14.2,12.2-.4-.5-.8-.9-1.2-1.4-.6.6-2.3,4-3.1,7.2-.9,3.2-.8,6.2-.9,5.7-.6-.4-1.1-.7-1.7-1.1,0,2.2.6,5.7,2.1,8.9,1.2,2.7,3.1,5.1,4.8,6.8-5.2,1.7-9.6,11-7.1,16.9-3.2,2.1-5.3,6.1-6.8,9.5,4.1,0,8.1,0,12.2,0l2.8-2.7.4-2.3c3.7,0,8.3-2.7,11.2-5.5,4.8.6,7.8-2.1,8.7-2.1,0,0-1.7,2.6-1.7,2.6-.8,1.9-.5,4.2.8,5.8,1,1.2,1.7,2.9,1.8,4.3,3.5,0,10.6,0,10.6,0v-.3c-.1-2.7-1.6-5-3.9-6.2-.2-.1-.4-.2-.4-.4,1.7-1.1,3.3-2.2,5-3.4,1-.2,2.1-.8,5.1,1.1l2,4c-.6,2.9-2.1,6.2-.3,8.7,7.3,0,11.9-.1,18.8,0,.4-5.2-1.2-11.6-6.1-12.4,0,0,.4-3.6-1.6-6.1,1.5-.4,1.6-.1,3.1-.6,3.5,5.8,5.4,1.4,8,4.7,3.8,4.9,12,1.4,12.8,7.7,0,2.1-.3,1.6-.2,3.3,6.8,2.4,14.1,2,20.7,1.3.6-3.5-2-7.8-3.9-9.6s-4.1-3.1-6.1-2.9c-.5-1.5-1.7-2.4-3.3-2.8-2.6-.8-4.9-3-6.3-5.2,1.9-.6,1.9-3.1,1.7-4.7s-1.8-4-1.2-5.3c1.5-2.3,2.5-1.9,1.7-5.2,1.3-.2,1.7-1.7,1.9-2.8,2.8.3,6-1.1,7.9-2.9-2.7-1.1-5.4-3.4-7.2-5.9-.2-.3-.3-.5-.5-.8,4.4-.8,9.1-2.5,11.8-4.2l3-1.9-1.5-.6c1.6-1.3,2.5-2.9,2.7-4.6ZM15.8,53h0c.2-.1.3-.2,0,0ZM89.7,37.3l1.2-.6s.9,2.7-.4,4.5c-1.8,2.5-3.8,2-3.8,2h-1.2c0-.1,2.6-1.3,3.4-2.4,1.5-2.1.8-3.4.8-3.4ZM85.5,52.3s.9-.2,2.1.1c1.3.4,1.1,1.4,1.1,1.4,0,0-.5-.4-1.4-.7s-1.7,0-1.7,0l-.2-.9h0s0,0,0,0h0ZM87.5,54.5s3,4.6-2.8,4.9c-7.4.3-5.7-4.9-5.7-4.9h0s1.2,2.7,4.9,3c3.8.2,3.6-3,3.6-3ZM75.3,22.4c.6.2,1.2.3,1.8.4,1.6,2.1,3,4.1,4.3,5.8,0-1.7-.3-3.3-.8-5,.6.1,1.2.3,1.9.4,1.1,3.1,1.4,6.3,1,9.3-.6,0-1.3-.1-1.9-.2-1.3-1.8-2.7-3.9-4.2-6.3,0,1.9-.3,3.8-.9,5.7-.8-.1-1.7-.3-2.5-.5,1.1-3.4,1.5-6.7,1.2-9.7ZM76.7,36.1c2.6,2.4,1.7,4.4,3.7,6.1,1,.8,3.9.8,3.9.8,0,0-1.7,2.3-4.8,1-2.4-1-1.9-5.3-4.4-6.9-2.6-1.6-4.4-1.4-4.4-1.4,0,0,3.2-2,5.9.4ZM74.4,41.6c.5.4,1,.4,1.3,0l1,1.7s-3.3,0-4.2-2.2.9-3.2.9-3.2h0s.7,1.1.7,1.1c-.2,0-.4.3-.5.5-.2.6.1,1.5.7,2ZM52.6,68c-.3-.2-.7-.4-1-.5-.3,0-.7,0-1-.2-4.3-1.1-7.4-6.1-9.1-10.1l-2.9,2-.8.6c-2-2.9-3.6-6-4.9-9.4-2.2-5.9-3.5-14.2,2.3-18.4,2.5-1.9,5.9-2.4,8.9-1.4.8-2,2-3.8,3.7-5.1,1.2-.9,2.7-1.6,4.2-1.8.5-.1,1.1-.2,1.7-.3,1.1-.2,2.1-.3,3.2-.4.2.3.3.5.5.8-1.6.2-3.2.5-4.7,1-.4.1-.8.2-1.2.4-2,.7-3.5,2.3-4.6,4.1-.5.8-.9,1.6-1.2,2.5,0,.2-.3,1.1-.4,1.4-.3-.1-1.2-.5-1.5-.6-1.2-.4-2.4-.5-3.6-.4-1.7.2-3.3,1-4.6,2.2-5.5,5.2-.9,16.8,2.7,22.7,1.3-.9,3.5-2.3,4-2.7.2.4.5,1.4.6,1.8.6,1.5,1.3,2.9,2.1,4.3.9,1.5,2,3,3.4,4.1.8.6,1.6,1.1,2.5,1.4.3.1.7.1,1,.2,1.1.3,1.9,1,2.6,1.8.8,1,1.5,2.1,2,3.3,1.2-.5,2.5-.7,3.7-.9,1.4-.1,2.9,0,4.3.3-.7,0-1.4,0-2.1,0-1.4,0-2.8.4-4.1.9-.6.2-1.2.5-1.8.8,0,0,0,0,0,0l-.5.3-.3-.5c-.7-1.5-1.8-3.2-3.2-4.2ZM50.8,42.2s0,0,0,0h0s0,0,0,0c1.7.8,3.2,2.3,3.2,4.3,0,1-.3,2-.8,2.9.4,0,.8-.1,1.2-.1,5.5-.2,8,4.8,8.7,9.6.1.8.2,1.6.3,2.4,0,0,0,0,0,0h-.1c-.5-2-1.1-4.1-2.1-5.9-1.1-2.2-3-4.3-5.6-4.5-1.4-.1-2.9.2-4.1.8h-.1c0,0-.9-1.2-.9-1.2.9-.8,1.7-1.7,2.1-2.8.9-2.1-.2-3.9-1.8-5.4ZM70.3,75.4h0c1.6,3.4,1,6.1,1,6.1h-15.7s10.5-2.4,10.5-3.1c0-5.6-5.9-5-5.9-5,0,0,2.5-.8,5-.8s4.5,1.4,5.1,2.8ZM65.7,33.2c-.9,0-1-.1-2.4.9-1.4,1.1-3.6.4-3.6.4l2.4,1.8s-1.3,1.2-4.3-.5c-2.4-1.4-3.2-3.9-3.2-3.9,0,0,2.2,1,3.9,1,1.7,0,1.8-.4,5.6-1,3.8-.6,3.8,2.1,3.8,2.1,0,0-1.4-.7-2.3-.7ZM61.9,25.9c-1-.8-1.9-1.7-2.6-2.6-1.4-1.8-2.2-3.6-2.2-5,0,0,0,0,0,0,0,0,0,0,0,0,.7.3,1.4.5,2.1.7-1.4-3.7-.3-8,2.4-11.1.4.5.7.9,1.2,1.3,0,0,0-.1,0-.2,1.3-3.8,5.3-6.8,9.6-8,0,0-.2,0-.2.1.1,0,.2,0,.4-.1-4.9,2.2-7.3,6.1-7.2,10.2,0,.6,0,1.2.2,1.8,0,0,0,0,0,0,0,0,0,0,0,0-.7-.4-1.3-.8-1.9-1.2-.6,2.3,0,4.5,1.5,6.5,1,1.4,2.4,2.6,3.9,3.5,0,0,0,0,0,0,0,0,0,0,0,0-1.3,0-2.5,0-3.8-.2.6.4,2.1,1.3,3.4,1.7,1.9.5,3.9.6,3.9.6l-1.2,5.2c0,.3,0,.6,0,.9h0s0,0-.1,0h0s0,0,0,0h0c-2.5-.5-6.6-1.9-9.5-4.3ZM71.3,45.5c-2.2-1.4-2.5-3.1-2.5-3.1l1.9,1.1s-.6-1.2-.5-2.4c.1-1.2.5-2.3.5-2.3,0,0-.2,2.8,1.9,4.8s3.7,2.4,3.7,2.4c0,0-2.8.8-5-.5ZM76.6,52.2c-2.8,1.8-1.1,7.2-1.1,7.2,0,0-4.6-5-.3-8.1,5.7-4.1,7.5,1.5,7.5,1.5,0,0-3.3-2.3-6.1-.5ZM78.6,60h0s1.1,1.4,3.9,1.6c2.8.2,4-.3,4-.3,0,0-.8,1.8-3.5,1.9-2.6,0-4.4-2-4.4-3.3ZM99.5,70.8c2.8,0,3.6.8,5.3,2.3.4.4,0,0,.5.5,3,3.3,2.6,5.8,2.6,5.8,0,0-3.2.5-7,.5s-8.7-.7-8.7-.7c0,0,13.8-.2,13-2.6-1.8-5.3-8.3-5.3-8.3-5.3,0,0,1.8-.5,2.7-.5ZM91.4,64.3c.8.8,1.6,1.6,2.6,2.1.2.1.5.2.7.3,0,0,.2,0,.3,0,.9.2,1.6.6,2.2,1.2.1,0,.8.8.9.9l-1,.2c-1.3.3-2.6.7-3.8,1.1-1.6.6-3.1,1.5-4.4,2.5,0,0,0,0,0,0h0s0,0,0,0c1.2-1.2,2.6-2.3,4.2-3.1.9-.4,1.8-.8,2.7-1.2,0,0,0,0,0,0-.3-.2-.6-.3-1-.4-.2,0-.4,0-.6-.1-1.9-.6-3.6-2.5-4.8-4-.7.6-1.5,1-2.4,1.3-1.1.4-2.2.5-3.3.5,1.6-.2,3.1-.9,4.3-2,.3-.3.7-.7.9-1.1h0s0,0,0,0c0,0,0,0,0,0h1c.5.6,1,1.2,1.5,1.8ZM89.8,43.8h-.5s0,0,0,0h.3c1-.7,1.8-1.5,2.4-2.5,0,1.3-.9,2.4-2.2,2.4ZM90.6,30.8c-.3.9-.6,1.8-1.1,2.6-.9,0-1.7,0-2.6,0,.8-1.1,1.4-2.3,1.8-3.6h0c-1-1.9-2.4-3.7-4.1-5.3,1,0,1.9.2,2.9.3.7,1,1.4,2,1.9,3,.4-.9.7-1.8.9-2.7.7,0,1.4.2,2.2.3-.3,1.9-1,3.7-1.9,5.4ZM96.8,37.9c1.6,1.1,2.5,1.5,2.5,1.5-.8.7-1.8,1.2-2.8,1.4h-.3c0,0,1.7-1.4,1.7-1.4l-.9-.6c-1.2-.8-2.3-1.9-3.1-3.1,0,0,0,0,0,0h0s0,0,0,0c0,0,1.3,1.1,2.9,2.1ZM103.4,26.4c.5.2,1.1.5,1.6.7-2.7,1.7-6.1,3.3-10.4,4.1-.4-.9-.3-1.6,0-2.6.3-1.4,0-1.6-.2-2.9,2,.1,2.3-.1,4.7-.3-.7-.5-1.4-1.1-2-1.7,3.1-.4,6.5-1.1,7.9-3-.6-.3-1.1-.5-1.6-.8,2.7-1.4,3.4-3.6,2.4-5.8,1.2,1,2.1,2.3,2.3,3.5.2,1.2-.2,2.3-1,3.1.5.2,1.1.4,1.7.7-.3,2.2-2.3,3.9-5.3,5.1Z"/>
  <path d="M64.9,21.7h0s0,0,0,0c0,0,0,0,0,0Z"/>
</svg>