<?xml version="1.0" encoding="UTF-8"?>
<svg id="Layer_2" xmlns="http://www.w3.org/2000/svg" version="1.1" viewBox="0 0 544.8 604.3">
  <!-- Generator: Adobe Illustrator 30.1.0, SVG Export Plug-In . SVG Version: 2.1.1 Build 136)  -->
  <defs>
    <style>
      .st0 {
        fill: none;
        stroke: #001f44;
        stroke-linecap: round;
        stroke-linejoin: round;
      }

      .st1 {
        fill: #fff;
      }
    </style>
  </defs>
  <path class="st1" d="M306.8,51.5L374.8,0,24.1,50.6.7,372.9c-4.7,64,14.7,122.9,54.5,165.7,3.3,3.5,6.7,7,10.3,10.2l1.2-2.7c1.7-3.7,3.4-7.3,5.3-10.8-39.7-38.7-61.8-95.3-57-161.3L37.6,63.2,321.7,22.2l-67.2,50.8,274.7-37.2-20.2,277.5c-5.1,70.5-39.9,137.7-91.4,188.2.6.8,1.2,1.6,1.6,2.3,3.8.5,7.8,1.9,11.9,4.4,1.1-1.1,2.2-2.2,3.2-3.3,25.4-26.3,46-56,61.2-88,15.8-33.3,25.2-67.9,27.7-102.6l21.5-295.1-238.1,32.3Z"/>
  <path class="st1" d="M372.6,549.2c-.3-3.6,0-5.2.3-7,.2-.9.3-1.8.3-4.1-38.6,26.4-82.7,44.3-129,50-57.4,7-108.8-5.8-148.4-33.2,0,0,0,0,0,0-7.8,0-15.5,0-23.3.2,37.8,31.9,87.1,49.3,141.2,49.3h0c10.6,0,21.5-.7,32.3-2,35.1-4.3,69.6-15.3,102.5-32.5,9.1-4.8,18-10,26.7-15.7l-2.2-.8-.4-4.1Z"/>
  <polygon class="st1" points="102.3 285.6 82.5 288.5 79.5 311.6 76.3 315.7 71.8 316.4 69.8 313 87.2 170.5 90.3 166.3 94.9 165.7 96.9 169.1 94.1 192.2 113.9 189.3 118.3 153 108.9 138.2 82.3 142 69 160 48.3 329 57.8 343.9 84.3 340.1 97.7 322 102.3 285.6"/>
  <path class="st1" d="M157.1,131.3l-9.8,80.2-10,1.4,9.8-80.2-19.8,2.8-24.6,201.9,19.8-2.8,11.6-95.5,10-1.4-11.6,95.5,11.7-1.7c2.6-1.6,5.3-3.1,8.3-4.4l24.2-198.6-19.6,2.8Z"/>
  <path class="st1" d="M192.1,295.2l-2.2,29.8,19.8-2.8,11.2-200-26.6,3.8h0s-37.1,199.1-37.1,199.1c3.5-1.3,7.2-2.5,11.2-3.5,2.9-.7,6-1.1,8.7-1.4l4-23.4,11-1.6ZM185.6,270.3l14.4-84.3-6.1,83.2-8.4,1.2h0Z"/>
  <path class="st1" d="M275.9,212.1h0s10.2-83.1,10.2-83.1l-9.4-14.8-38,5.4-24.6,201.9,19.8-2.8,10.4-86.2,4.7-.7-2.9,85.1,17.6-2.5c.4-1.4.8-2.7,1.3-4l3-87.9,7.8-10.4ZM257.7,201.4l-3,4.1-7.2,1,8-63.8h0s7.2-1,7.2-1l2,3.7-7,56Z"/>
  <path class="st1" d="M310.7,188.2l-3.2,26.2,5-.7-7.1,58.4c4.2-1.5,8.9-2.7,14.4-3.6,1.6-.3,3.5-.4,5.6-.5l10.1-83.3-24.8,3.5Z"/>
  <path class="st1" d="M315.3,134.2l4.6-.7,2,3.4-2.8,23.1,19.8-2.8,4.4-36.3-9.4-14.8-26.6,3.8-13.4,18.1-20.4,167.4c.5-.6.9-1.2,1.4-1.8l9.7-11.5,2.3,2.8c1.9-2.1,4-4.1,6.4-6,.6-.5,1.3-1,1.9-1.5l17-139,3.2-4.1Z"/>
  <path class="st1" d="M347.5,302.5l3.8-30.8-13.3,8.3c-1.6,1-4.9,3.1-7.8,5.1l-2.5,20.2,19.8-2.8Z"/>
  <path class="st1" d="M352.3,103.5l-20.1,164.6c1.8.1,3.1.2,3.2.3l16.1,1.7,20.6-169.5-19.8,2.8Z"/>
  <polygon class="st1" points="374.7 298.6 386.5 202.5 386.7 296.9 405.7 294.2 430.3 92.3 410.5 95.2 398 198 397.7 97 379.5 99.6 354.9 301.5 374.7 298.6"/>
  <polygon class="st1" points="424.1 291.6 450.7 287.8 464.1 269.7 476.9 164.5 452.1 168 448.9 194.2 453.9 193.5 445.9 259.3 442.7 263.4 438.1 264.1 436.1 260.7 453.5 118.2 456.7 114.1 461.3 113.4 463.3 116.8 460.5 139.9 480.3 137 484.7 100.7 475.3 85.9 448.7 89.7 435.3 107.8 414.7 276.8 424.1 291.6"/>
  <polygon class="st1" points="102.3 95.5 123.8 112 139.9 109.7 146.6 70.8 130.4 73.2 127 93.1 105.5 76.7 89.5 79 82.8 117.8 98.9 115.5 102.3 95.5"/>
  <polygon class="st1" points="165.2 106.1 181.4 103.8 184 88.4 209.1 61.9 190.8 64.5 177.9 78.1 169.2 67.6 150.9 70.2 167.9 90.7 165.2 106.1"/>
  <path class="st1" d="M417.7,501.5c-2.5-3-6.3-5.8-12.1-7.3-5-1.6-10.4-5.4-14.5-10.3,3.2-4.2,4.5-10.5,3.4-18.3-.4-2.7-1.5-5.5-2.5-8.2-.7-1.9-1.9-5-2-6.4.9-1.3,1.8-2.3,2.6-3.3,3.7-4.2,5.3-7.5,4.4-13.9,1.7-1.5,3.2-3.6,4.3-6.7,9.4-.6,19.4-5,26.7-11.9l7.1-6.7-8.9-3.8c-6.1-2.6-12.6-7.4-18-13.1,12.7-3.2,24.9-8.1,33-13.3l20.5-13.3-8.1-3.3c2.7-4,4.3-8.3,4.7-12.9l.9-9.7-3.5-1.3c0-.5,0-.9,0-1.4-.5-9.3-5.9-18.3-14.4-24-5.1-3.4-16.6-5.7-18.9-6.1l-21-4,15.7,14.8c1.8,1.7,5,5.4,6,8,.6,1.5.8,3.6.8,4.6-.3.3-1,1-2.4,1.8l-22,11.7.9.4-11.4,1.5c-5.5-2.8-10.2-4-15.3-4s-8.2.8-13.1,1.8c-5.5-4.7-14.5-7-27.2-7s-12.3.5-17.1.9c-.6,0-1.2,0-1.7.1l-4.2-20.1c-2-9.7,7.4-21.7,16-29,.9-.7,2.3-1.8,3.8-2.8,2.9-2,6.3-4.2,7.8-5.1l13.3-8.3,2.2-1.4-2-.2-16.1-1.7c0,0-1.3-.1-3.2-.3-1.4,0-3.1-.2-5-.2s-1.3,0-1.9,0c-2.1,0-4,.2-5.6.5-5.5.9-10.2,2.1-14.4,3.6-3.9,1.5-7.3,3.2-10.3,5.3-.7.5-1.3,1-1.9,1.5-2.3,1.9-4.4,3.9-6.4,6l-2.3-2.8-9.7,11.5c-.5.6-1,1.2-1.4,1.8-3.6,4.7-6.5,9.8-8.4,15.1-.5,1.3-.9,2.7-1.3,4-.7,2.3-1.2,4.7-1.5,7.1l-6.4-2.5.5,18.8c0,.6,0,1.1.1,1.7-8.9,1.3-17.3,3.9-24.1,7.4-8.6,4.5-14.7,10.4-17.7,17.4-1.2,0-2.5-.1-3.7-.1-13.9,0-26,4.9-35,14.1-7.4,7.6-12.1,17.7-13.3,28.4-10.4,2-22,7.8-30.4,15.9l-.2-.3c-6-12-8.3-22.7-6.9-32.4l6.4,6.2,1.8-11.9c3.5-23,15.6-36.9,36.6-54,1-.8,2.6-2,4.5-3.2.5-.4,1-.7,1.6-1.1,4.4-3,9.3-6.2,9.3-6.2,0,0-3.6-.1-8.3.3-2.7.2-5.8.6-8.7,1.4-4,1-7.7,2.2-11.2,3.5-1.6.6-3.2,1.3-4.7,2-3,1.4-5.7,2.8-8.3,4.4-11.5,7.1-19.3,16.1-25.1,25.3l-2.9-3.2-4.6,4.9c-3,3.2-9.3,16.1-12,27.6-1,3.8-1.7,7.4-2.1,10.6l-6.5-4.1-.4,10.8c-.3,7.9,1.6,20.8,7.8,33.7,2.9,6.4,7.1,13,11.8,18.9-7.1,4.9-13.4,12.9-17.8,22.7-5.4,12.1-6.8,24.6-4.1,35-6.8,5.6-12,13.3-16.4,21.6-1.9,3.5-3.6,7.2-5.3,10.8l-1.2,2.7-2.9,6.3h9.8c0,0,0,0,.1,0,7.8,0,15.5-.1,23.3-.2,0,0,0,0,0,0,6.1,0,12.2,0,18.4-.1h3.2s11.8-11,11.8-11v-6.2c7.7-.7,20.5-4.3,36.6-18.7.8,0,1.6,0,2.4,0,4.4,0,8.4-.7,11.9-1.7-1.2,7.3.8,14.9,5.6,20.6,2.5,2.8,4.3,7.3,4.7,11.3l.5,5.7h5.6c4.8,0,12.1,0,21.6,0s14.9,0,14.9,0h6.4l-.3-7.7c-.3-8.5-4.1-16.5-10.3-22.2,3-2,5.9-4,9-6.1,0,0,0,0,.1,0,1-.2,1.8-.4,2.6-.4,1.9,0,4.5,1,7.7,2.9l5.2,10.1c-.3,1.1-.6,2.2-.9,3.3-2.4,9-5.4,20.2,1.3,29.6l1.9,2.6h3.2c4.8,0,9.3,0,13.5-.1,9,0,16.8-.2,24.8-.2s13.1-1,21.9-.8h0s15.3-.2,15.3-.2l.4-7.4c.8-10.8-5.8-18.7-9.3-27.2-3.7-9-9.4-15.2-16.8-18,0-2.1-.4-4.8-1-7.5,5.5,5.9,10.8,6.9,15.6,6.9h1.9c2.2,0,3.1,0,5.1,2.5,7.3,9.6,18.3,11.6,27.1,13.3,11,2.1,14.8,3.3,15.8,9.7,0,0,0,.1,0,.2,0,2.4-.1,3.2-.3,4.1-.4,1.8-.6,3.4-.3,7l.4,4.1,2.2.8,1.6.6c12.6,4.4,26.7,6.6,43.2,6.6s22.2-1,30.6-1.9l4.7-.5.8-4.8c2.4-15.4-8.2-31.9-15.4-38.6-3.2-3-6.3-5.4-9.4-7.2-4.1-2.5-8.1-4-11.9-4.4-.5-.8-1-1.6-1.6-2.3ZM106.7,449.9h0s0,0,0,0ZM450,553.1c-9.9,1-20.3,1.9-30.9,1.8-13.5,0-27.2-1.6-40.3-6.2-.5-5.8.8-4.1.6-11.3-2.8-21.6-31.2-9.4-44.1-26.4-3.6-4.7-6.9-4.9-10.2-4.9-.5,0-1,0-1.6,0-4.5,0-9.4-.6-15.8-11.3-5.2,1.5-5.3.5-10.6,1.9,7,8.6,5.5,21,5.5,21,16.9,2.9,22.4,24.8,21,42.8,0,0,0,0,0,0h0c-10.3-.2-19.1-.3-27.9-.3-11.3,0-22.6.2-36.7.3h0s0,0,0,0c-6.1-8.6-1.1-20.1,1.1-30.1l-7-13.7c-3.2-2.1-5.8-3.3-7.9-3.9-4.7-1.5-7.3-.3-9.6.1-5.9,4-11.5,7.8-17.3,11.8.3.5.8.9,1.5,1.3,7.7,4.2,13,12.2,13.3,21.4v1.1s-24.3,0-36.5,0c0,0,0,0,0,0,0,0,0,0,0,0-.5-5-2.7-10.8-6.2-14.9-4.7-5.4-5.7-13.3-2.8-19.9l5.9-8.8c-3,0-13.5,9.3-29.8,7.4-1.1,1-2.3,2.1-3.5,3.1-9.9,8.5-22.7,16.2-34.1,16l-1.4,2-.9,6-9.5,9.1c-14,.1-27.9.2-41.9.3,0,0,0,0,0,0,0,0,0,0,0,0,5.3-11.6,12.3-25.5,23.4-32.8-8.5-20.4,6.5-52.2,24.5-58.2-5.8-5.9-12.2-14.3-16.5-23.5-5.4-11-7.6-23-7.3-30.7.1,0,.3.2.4.3,0,0,0-.2,0-.3,1.9,1.2,3.7,2.3,5.6,3.5.2-1.7.3-10.3,2.9-19.5,2.6-11,8.6-22.8,10.6-24.8,0,0,.1.1.2.2,0,0,.1-.1.2-.2,1.3,1.5,2.7,3,4,4.5,6.7-15.4,22.6-29.4,44.8-39.8,1.2-.6,2.5-1.2,3.8-1.7,0,0,0,0,0,0,0,0,0,0,.1,0-1.2.7-2.4,1.4-3.6,2.2-25.1,16.1-34.9,35.1-38,55.5-.1-.1-.2-.2-.4-.3,0,.1,0,.2,0,.3-1.7-1.6-3.3-3.2-4.9-4.8-6.8,16.3-2.3,32.9,4.6,46.7-.1,0-.3-.1-.4-.2,0,0,0,.1,0,.2-3.3-1.4-6.6-2.8-9.9-4.3,3.2,9.1,6.7,13.5,11.8,18.2,4.2-10.6,15.6-19.1,26.8-23.6,0,0,.1,0,.2,0,.4-.2.9-.3,1.3-.5.1,0,.2,0,.3-.1.4-.1.8-.3,1.2-.4.2,0,.3-.1.5-.1.3-.1.7-.2,1-.3.2,0,.4-.1.6-.2.3,0,.6-.2.8-.2.2,0,.5-.1.7-.2.2,0,.4-.1.7-.2.3,0,.6-.1.9-.2.1,0,.3,0,.4,0,.4,0,.7-.1,1.1-.2,0,0,0,0,0,0,1.4-.2,2.7-.4,4-.5-.1-16.9,10.1-34.2,28.9-39.9,6.3-1.9,13.5-2.5,21.5-1.4,1.5-7.3,6.8-13.1,14-17.3,0,0,.1,0,.2-.1.3-.2.7-.4,1-.6,0,0,.2,0,.3-.1.4-.2.7-.4,1.1-.6,0,0,0,0,0,0,.7-.4,1.4-.7,2.1-1,.2,0,.3-.1.5-.2.3-.1.5-.2.8-.4.2-.1.5-.2.7-.3.2,0,.5-.2.7-.3.3-.1.6-.2.9-.4.2,0,.4-.2.6-.2.5-.2,1-.3,1.5-.5,0,0,0,0,.1,0,.6-.2,1.1-.4,1.7-.6,0,0,0,0,.1,0,.5-.2,1.1-.3,1.6-.5,0,0,.1,0,.2,0,5.4-1.5,11.2-2.5,16.8-2.9-.9-2.6-1.4-5.1-1.4-7.4l-.3-9.4h0s0,0,0,0l5.7,2.2c-.5-11.3,3.5-23.1,11.6-32.8l4.8-5.8h0s0,0,0,0l2.4,3.1c2.6-4,6-7.8,10.1-11.2,1.1-.9,2.2-1.7,3.4-2.4,5.9-3.7,13-5.6,20.3-6.7,5.9-.9,14,0,14,0,0,0-9,5.6-12.4,8.5-7.5,6.4-21.1,20.8-18.1,35.2l2.9,13.8h0s0,0,0,0l-9-5.2c2.2,6.7,7.9,12.8,14.3,16.8,5.4-.4,14.3-1.4,23-1.2,0,0,.1,0,.2,0,.5,0,1.1,0,1.6,0,.1,0,.3,0,.4,0,.5,0,.9,0,1.4,0,.2,0,.3,0,.5,0,.4,0,.8,0,1.2.1.2,0,.4,0,.6,0,.4,0,.8,0,1.1.1.2,0,.4,0,.6,0,.4,0,.7.1,1.1.2.2,0,.5,0,.7.1.3,0,.6.1.9.2.6.1,1.2.2,1.7.4.2,0,.3,0,.5.1.3,0,.7.2,1,.3.2,0,.3,0,.5.1.3.1.7.2,1,.3.2,0,.3.1.5.2.3.1.6.2,1,.4.1,0,.3.1.4.2.3.1.6.3.9.4.1,0,.2.1.3.2.3.2.6.3.9.5,0,0,.2.1.3.2.3.2.6.4.9.6,0,0,0,0,.1.1,1,.8,1.9,1.6,2.6,2.6,3.4-.7,6.4-1.4,9-1.8,0,0,.1,0,.2,0,.3,0,.5,0,.8-.1.1,0,.3,0,.4,0,.2,0,.4,0,.6,0,.2,0,.4,0,.6,0,0,0,.2,0,.3,0,7.3-.8,13.1.6,23.5,7.7.3,0,.6.1.9.2.9.2,1.7.3,2.6.5l-5.6-4.9h0s0,0,0,0l13.8-1.9c3.1-.4,9.4-1.3,14.7-3l-6.9-3.3h0s0,0,0,0l11-5.8c.8-.4,1.4-.8,2.1-1.3,1.9-1.3,3-2.8,3.5-4.3.5-1.6.1-5.7-1-8.7-1.9-5-7.6-10.3-7.6-10.3,0,0,0,0,0,0,0,0,0,0,0,0,0,0,12.3,2.4,16.6,5.2,7.2,4.8,11.2,12.1,11.6,19.1.1,1.8,0,3.6-.5,5.2l3.6,1.3-.4,4.8c-.5,6-3.8,11.5-9.2,16l5.2,2.1-10.3,6.6c-2.9,1.9-6.4,3.7-10.3,5.4-.1,0-.3.1-.4.2-.5.2-1.1.5-1.6.7-.3.1-.6.3-.9.4-.4.2-.9.4-1.3.5-.4.2-.9.4-1.3.5-.3.1-.7.3-1,.4-.6.2-1.2.4-1.7.6-.2,0-.5.2-.7.3-.7.2-1.4.5-2.1.7-.2,0-.3.1-.5.2-.8.3-1.6.5-2.4.8,0,0-.1,0-.2,0-5.2,1.6-10.7,3-16,3.9.5.9,1,1.8,1.7,2.6,6.5,8.6,15.7,16.4,24.9,20.3-6.3,5.9-16.1,10.5-25.4,10.3-.6,0-1.2,0-1.8-.1-.6,3.9-2.2,9-6.5,9.8,2.9,11.4-.6,10-5.7,17.9-2.1,4.5,3.3,12.8,4.1,18.1.8,5.4.8,14.1-5.9,16.1,4.5,7.4,12.5,15.1,21.5,17.8,5.7,1.4,9.7,4.5,11.4,9.8.4,0,.9,0,1.3,0,6.6,0,13.5,4.3,19.8,10.1,6.7,6.2,15.4,20.8,13.5,33Z"/>
  <path class="st1" d="M416.7,510c-.4,0-.9,0-1.3,0,0,0,0,0,0,0,.4,0,.9,0,1.3,0Z"/>
  <path class="st1" d="M378.8,548.7c-.5-5.8.8-4.1.6-11.3-2.8-21.6-31.2-9.4-44.2-26.4-3.6-4.7-6.9-4.9-10.3-4.9,3.4,0,6.6.2,10.2,4.9,13,17,41.3,4.7,44.1,26.4.1,7.2-1.1,5.5-.6,11.3,13.1,4.6,26.8,6.2,40.3,6.2-13.5,0-27.2-1.6-40.3-6.2Z"/>
  <path class="st1" d="M351.9,345.2c.1,0,.3.1.4.2-.1,0-.3-.1-.4-.2Z"/>
  <path class="st1" d="M368.9,347.9c.2,0,.4,0,.6,0-.2,0-.4,0-.6,0Z"/>
  <path class="st1" d="M367.7,348.1c.3,0,.5,0,.8-.1-.3,0-.5,0-.8.1Z"/>
  <path class="st1" d="M355.7,347.2s0,0,.1.1c0,0,0,0-.1-.1Z"/>
  <path class="st1" d="M370,347.8c0,0,.2,0,.3,0,0,0-.2,0-.3,0Z"/>
  <path class="st1" d="M354.5,346.5c0,0,.2.1.3.2,0,0-.2-.1-.3-.2Z"/>
  <path class="st1" d="M353.3,345.8c.1,0,.2.1.3.2-.1,0-.2-.1-.3-.2Z"/>
  <path class="st1" d="M126.9,383.1c.1.1.2.2.4.3,3.1-20.4,12.8-39.4,38-55.5-25.2,16-35.1,34.9-38.3,55.2Z"/>
  <path class="st1" d="M427.6,378.3c-.1,0-.3.1-.4.2.1,0,.3-.1.4-.2Z"/>
  <path class="st1" d="M120.2,367.3c-1.4-1.5-2.7-3-4-4.5,0,0-.1.1-.2.2,1.4,1.5,2.7,3,4.1,4.6,0,0,0-.2.1-.3Z"/>
  <path class="st1" d="M341.4,342.7c.4,0,.8,0,1.1.1-.4,0-.8,0-1.1-.1Z"/>
  <path class="st1" d="M425.5,379.2c-.3.1-.6.3-.9.4.3-.1.6-.3.9-.4Z"/>
  <path class="st1" d="M128.2,439.5c4.2-10.7,15.6-19.3,26.8-23.7-11.1,4.4-22.6,13-26.8,23.6-5.1-4.8-8.6-9.1-11.8-18.2-.1,0-.3-.1-.4-.2,3.3,9.3,6.9,13.7,12.2,18.6Z"/>
  <path class="st1" d="M343.1,342.9c.4,0,.7.1,1.1.2-.3,0-.7-.1-1.1-.2Z"/>
  <path class="st1" d="M233,353.9c-7.2,4.2-12.4,10-14,17.3,0,0,0,0,0,0,1.5-7.3,6.8-13.1,13.9-17.3Z"/>
  <path class="st1" d="M262.7,337.7l-.3-9.4h0s.3,9.4.3,9.4c0,2.3.6,4.8,1.4,7.4,0,0,0,0,0,0-.9-2.6-1.4-5.1-1.5-7.4Z"/>
  <path class="st1" d="M350.5,344.6c.2,0,.3.1.5.2-.1,0-.3-.1-.5-.2Z"/>
  <path class="st1" d="M347.5,343.7c.2,0,.3,0,.5.1-.2,0-.3,0-.5-.1Z"/>
  <path class="st1" d="M349,344.1c.2,0,.3,0,.5.1-.2,0-.3,0-.5-.1Z"/>
  <path class="st1" d="M344.9,343.2c.3,0,.6.1.9.2-.3,0-.6-.1-.9-.2Z"/>
  <path class="st1" d="M126.2,425.2c.1,0,.3.1.4.2-6.9-13.9-11.4-30.4-4.6-46.7,0,0-.2-.2-.3-.3-7,16.3-2.5,32.9,4.5,46.8Z"/>
  <path class="st1" d="M102.4,407.1c-1.9-1.2-3.7-2.3-5.6-3.5,0,0,0,.2,0,.3,1.8,1.1,3.6,2.3,5.5,3.4,0,.3.1.2.1-.2Z"/>
  <path class="st1" d="M295.6,560.3c8.8,0,17.7,0,27.9.3h0c-10.3-.2-19.1-.3-27.9-.3Z"/>
  <path class="st1" d="M279.7,297.7l4.8-5.8h0s-4.8,5.8-4.8,5.8c-8.1,9.6-12.1,21.5-11.6,32.8h0c-.5-11.3,3.5-23.1,11.6-32.8Z"/>
  <path class="st1" d="M307.6,494.9s0,0,0,0c6.5,10.6,11.3,11.3,15.8,11.3-4.5,0-9.4-.7-15.8-11.3Z"/>
  <path class="st1" d="M126.5,456.8h.2c1-.6.6-.5-.2,0Z"/>
  <path class="st1" d="M423.3,380.1c-.4.2-.9.4-1.3.5.5-.2.9-.4,1.3-.5Z"/>
  <path class="st1" d="M429.9,331.5c.5-1.6.1-5.7-1-8.7-1.9-4.8-7.2-10-7.6-10.3,0,0,0,0,0,0,0,0,5.7,5.3,7.6,10.3,1.2,3,1.5,7,1,8.7-.4,1.5-1.6,3-3.5,4.3,1.9-1.3,3.1-2.8,3.5-4.3Z"/>
  <path class="st1" d="M367.5,348.1c-2.7.4-5.6,1.1-9,1.8,0,0,0,0,0,0,3.4-.7,6.4-1.4,9-1.8Z"/>
  <path class="st1" d="M335.5,342.4c-8.7-.2-17.6.9-23,1.2,0,0,0,0,0,0,5.4-.4,14.3-1.4,23-1.2Z"/>
  <path class="st1" d="M298.2,326.8l9,5.2h0s-9-5.3-9-5.3c0,0,0,0,0,0Z"/>
  <path class="st1" d="M391.7,351.2h0s5.6,4.9,5.6,4.9c0,0,0,0,0,0l-5.6-4.9Z"/>
  <path class="st1" d="M413.3,342.9h0s6.9,3.4,6.9,3.4c0,0,0,0,0,0l-6.9-3.3Z"/>
  <path class="st1" d="M420.9,381c-.6.2-1.2.4-1.7.6.6-.2,1.2-.4,1.7-.6Z"/>
  <path class="st1" d="M415.8,382.8c-.8.3-1.6.5-2.4.8.8-.3,1.6-.5,2.4-.8Z"/>
  <path class="st1" d="M418.4,381.9c-.7.2-1.4.5-2.1.7.7-.2,1.4-.5,2.1-.7Z"/>
  <path class="st1" d="M95.7,516c-8.5-20.4,6.5-52.2,24.5-58.2,0,0,0,0,0,0-18,6-33.1,37.8-24.5,58.2-11.1,7.2-18.1,21.2-23.4,32.8,0,0,0,0,0,0,5.3-11.6,12.3-25.5,23.4-32.7Z"/>
  <path class="st1" d="M397.2,387.5c5.3-1,10.7-2.3,16-3.9-5.2,1.6-10.7,2.9-16,3.9,0,0,0,0,0,0Z"/>
  <path class="st1" d="M187.6,513.7l5.9-8.8s0,0,0,0l-5.9,8.8c-2.9,6.6-1.9,14.5,2.8,19.9,3.5,4,5.7,9.8,6.2,14.9,0,0,0,0,0,0-.5-5-2.7-10.8-6.2-14.9-4.7-5.4-5.7-13.3-2.8-19.9Z"/>
  <path class="st1" d="M260,530.4l-7-13.7c-3.2-2.1-5.8-3.3-7.9-3.9,2.1.7,4.7,1.9,7.9,3.9l7,13.7c-2.2,10-7.2,21.5-1.1,30.1,0,0,0,0,0,0-6.1-8.6-1.1-20.1,1.1-30.1Z"/>
  <path class="st1" d="M396.5,420.6c.6,0,1.2.1,1.8.1-.6,0-1.2,0-1.8-.1,0,0,0,0,0,0Z"/>
  <path class="st1" d="M124.6,533.3l1.4-2c11.5.2,24.2-7.5,34.1-16-10.1,8.5-23.7,16.1-35.2,15.9l-.3,2.1Z"/>
  <path class="st1" d="M197.5,372.6c-18.8,5.7-29,23-28.9,39.9,0,0,0,0,0,0-.1-16.9,10.1-34.2,28.8-39.9Z"/>
  <path class="st1" d="M160,414c.3,0,.6-.2.8-.2-.3,0-.6.1-.8.2Z"/>
  <path class="st1" d="M243.5,349.2s0,0,.1,0c0,0,0,0-.1,0Z"/>
  <path class="st1" d="M164.6,413s0,0,0,0c0,0,0,0,0,0Z"/>
  <path class="st1" d="M241.4,349.9c.2,0,.4-.2.6-.2-.2,0-.4.2-.6.2Z"/>
  <path class="st1" d="M335.7,342.4c.5,0,1.1,0,1.6,0-.5,0-1.1,0-1.6,0Z"/>
  <path class="st1" d="M247.1,348.1c0,0,.1,0,.2,0,0,0-.1,0-.2,0Z"/>
  <path class="st1" d="M163.1,413.3c.1,0,.3,0,.4,0-.1,0-.3,0-.4,0Z"/>
  <path class="st1" d="M337.6,342.5c.5,0,.9,0,1.4,0-.5,0-.9,0-1.4,0Z"/>
  <path class="st1" d="M161.6,413.6c.2,0,.4-.1.7-.2-.2,0-.4.1-.7.2Z"/>
  <path class="st1" d="M158.4,414.5c.3-.1.7-.2,1-.3-.3,0-.7.2-1,.3Z"/>
  <path class="st1" d="M156.8,415.1c.4-.1.8-.3,1.2-.4-.4.1-.8.3-1.2.4Z"/>
  <path class="st1" d="M155.1,415.7c.4-.2.9-.3,1.3-.5-.4.2-.9.3-1.3.5Z"/>
  <path class="st1" d="M235.6,352.5c.7-.4,1.4-.7,2.1-1-.7.3-1.4.7-2.1,1Z"/>
  <path class="st1" d="M234.5,353.1c.4-.2.7-.4,1.1-.6-.4.2-.7.4-1.1.6Z"/>
  <path class="st1" d="M238.2,351.2c.3-.1.5-.2.8-.4-.3.1-.5.2-.8.4Z"/>
  <path class="st1" d="M233.1,353.8c.3-.2.7-.4,1-.6-.4.2-.7.4-1,.6Z"/>
  <path class="st1" d="M245.3,348.6s0,0,.1,0c0,0,0,0-.1,0Z"/>
  <path class="st1" d="M239.8,350.6c.2,0,.5-.2.7-.3-.2,0-.5.2-.7.3Z"/>
  <path class="st1" d="M339.5,342.6c.4,0,.8,0,1.2.1-.4,0-.8,0-1.2-.1Z"/>
  <path class="st1" d="M168.8,325.8c-1.3.6-2.5,1.1-3.8,1.7,1.2-.6,2.5-1.1,3.7-1.7,0,0,0,0,0,0Z"/>
  <path class="st1" d="M297.1,283.8c1.1-.9,2.2-1.7,3.4-2.4-1.2.7-2.3,1.5-3.4,2.4-4.1,3.4-7.5,7.1-10.1,11.2h0c2.6-4,6-7.8,10.2-11.2Z"/>
  <line class="st0" x1="106.7" y1="449.9" x2="106.7" y2="449.9"/>
  <path class="st1" d="M298.4,388.5c3.2,0,8,2.6,8,2.6,0,0,.1-9.2-13-7.1-13.1,2.1-13.4,3.6-19.4,3.5-6,0-13.5-3.4-13.5-3.4,0,0,2.6,8.8,10.9,13.5,10.1,5.7,14.6,1.7,14.6,1.7h0l-8.2-6.2s7.5,2.3,12.3-1.4,5-3.2,8.2-3.2Z"/>
  <path class="st1" d="M331.3,401.9c8.7,5.3,6.8,20.3,15.1,23.6,10.6,4.3,16.4-3.5,16.4-3.5,0,0-10.1.2-13.5-2.7-7-5.8-3.8-12.6-12.9-20.8-9.1-8.2-20.2-1.3-20.2-1.3h0s6.2-.7,15.1,4.7Z"/>
  <path class="st1" d="M335,432.8s-5.5-1.2-12.7-8.4c-7.2-7.2-6.5-16.7-6.5-16.7,0,0-1.2,3.6-1.6,7.9-.4,4.2,1.5,8.3,1.6,8.4l-6.5-3.8s.8,6.1,8.4,10.7c7.7,4.7,17.3,1.9,17.3,1.9Z"/>
  <path class="st1" d="M370.9,422.7s6.9,1.7,13.1-7c4.2-6,1.3-15.4,1.3-15.4l-4.1,2.1s2.6,4.6-2.6,11.8c-2.9,4-11.9,7.9-11.9,7.9l4.2.5h0Z"/>
  <path class="st1" d="M366.6,454.2h0s.8,3,.8,3c0,0,2.8-.9,5.7,0,2.9.9,4.8,2.4,4.8,2.4,0,0,.4-3.7-3.9-5-4.3-1.3-7.4-.5-7.4-.5Z"/>
  <path class="st1" d="M356.9,455.6s-6.5-19.3-25.9-5c-14.8,10.8,1.2,28,1.2,28,0,0-5.8-18.4,3.8-24.7,9.6-6.3,20.9,1.7,20.9,1.7Z"/>
  <path class="st1" d="M369.9,485.4s-3.9,1.6-13.7.9c-9.8-.7-13.4-5.7-13.4-5.7h0c-.1,4.6,6,11.6,15,11.3,9.5-.3,12.1-6.5,12.1-6.5Z"/>
  <path class="st1" d="M254.1,355.3c-2,.4-3.9.6-5.9,1.2-10.3,2.6-18.4,10.8-22.8,20.3-.4.9-.8,1.8-1.2,2.7-13.6-4.2-27.8-.1-37,11.1-19.1,23.9-.2,67.6,15.1,89.4,1.2-.8,8.2-5.7,12.6-8.8.8,1.8,1.6,3.6,2.5,5.3,6,11.5,14.6,24.8,27.6,28.9,1.6.5,3.2.7,4.9,1,1.2.3,2.4.9,3.6,1.7,5.3,3.9,9,10.3,11.8,16.3,8.4-5.4,19.4-7.5,29.3-6.8-9.1-2.1-18.9-1.4-27.6,2-1.8-4.1-4.1-8-7-11.5-2.4-2.8-5.2-5.2-8.9-6.3-1.5-.4-3.1-.5-4.6-1.1-11.1-4.2-18.4-16.6-23.5-27-1.9-3.9-3.6-8.4-5-12.5-1.9,1.3-9.4,6.3-13.8,9.3-2.1-3.5-4.1-7.1-5.8-10.7-8.5-17.7-19.4-48.6-5.1-65.5,8-9.2,20-12.1,31.3-8h.3c0,.1,3.5,1.5,3.5,1.5l1-3.5v-.2c0,0,.2-.3.2-.3.5-1.5,1-3,1.7-4.4,3.6-8.1,9.8-15.6,18.3-18.8,6.1-1.9,13.2-3.7,20.4-4.6-.6-.9-1.2-1.7-1.7-2.6-5.3.4-10.2,1.2-14,1.8Z"/>
  <path class="st1" d="M321.9,415.8c2.9,7.6,14.4,7.6,14.4,7.6l-3.5-5.9c-.9,1.2-2.7,1.3-4.4-.1-2-1.7-3.2-4.8-2.5-7h0c.3-.9.9-1.5,1.6-1.8l-2.3-3.8s-6.2,3.4-3.3,11Z"/>
  <polygon class="st1" points="325.2 404.8 325.2 404.8 325.2 404.8 325.2 404.8"/>
  <path class="st1" d="M361.2,472.1c-12.7-.8-16.9-10.2-16.9-10.2,0,0-5.7,17.9,19.6,16.7,19.8-.9,9.6-16.7,9.6-16.7,0,0,.9,11-12.3,10.2Z"/>
  <path class="st1" d="M397.6,372.8c-.8,3.4-1.2,5.5-.2,8.3,0,.3.2.5.3.8h0c11.2-2,20.6-5.7,28.5-9.8,2.6-1.4,5-2.8,7.3-4.2-1.9-.8-3.8-1.6-5.6-2.5,7.3-3,12.9-6.9,16-11.7,1.2-1.9,2-3.9,2.3-6-2-.7-3.9-1.5-5.7-2.3,6-5.4,4.5-15.5-4.6-22.6.4.8.7,1.5.9,2.3,2.2,6.6-.6,13.2-9.1,17.6,1.8.9,3.7,1.8,5.6,2.7-4.9,6.4-16.4,8.8-27.1,10.3,0,0-.1,0-.2,0,2.1,1.9,4.3,3.8,6.7,5.7,0,0,0,0,0,0-.2,0-.3,0-.5,0-7,.7-8.6,1.3-13.8,1.2-.6,0-1.3,0-2,0,.9,4.6,1.8,5.4.8,10.1Z"/>
  <path class="st1" d="M297.4,349.1h0c4.3.3,8.6.5,13,.6,0,0,0,0,0,0-4.4,0-8.7-.3-13-.6Z"/>
  <path class="st1" d="M276.1,340.1c-2.5-.8-4.9-1.7-7.3-2.6,0,0,0,0,0,0,2.4.9,4.8,1.8,7.3,2.6,0,0,0,0,0,0Z"/>
  <path class="st1" d="M295.8,349s0,0,0,0c0,0,0,0,0,0,0,0,0,0,0,0h0Z"/>
  <path class="st1" d="M296.9,337.7c-4.8-6.7-7.1-14.5-5.1-22.2,0,0,0,0,0,0-2,7.7.3,15.6,5.1,22.3Z"/>
  <path class="st1" d="M284.4,301.8c-.3.3-.6.7-.8,1.1.3-.4.5-.7.8-1.1,0,0,0,0,0,0Z"/>
  <path class="st1" d="M320.8,278.5c.3-.1.5-.3.8-.4-15,4.2-29.1,14.6-33.2,28.2,4.1-13.2,17.7-23.3,32.4-27.8Z"/>
  <path class="st1" d="M318.1,378.1s0,0,0,0c0,0,0,0,0,0h0Z"/>
  <path class="st1" d="M318.1,378.1s0,0,0,0h0s0,0,0,0Z"/>
  <path class="st1" d="M285.5,363.4c-2.9-2.2-5.5-4.7-7.8-7.3,2.2,2.6,4.8,5.1,7.7,7.3,9.9,8.1,23.9,13,32.6,14.6l-.3-.2c-8.8-1.8-22.5-6.6-32.2-14.5Z"/>
  <path class="st1" d="M277.7,356.1c2.2,2.6,4.8,5.1,7.8,7.3,9.7,7.9,23.4,12.7,32.2,14.5l-8.8-5.2s-17.1-14.8-18-15.7c-1-.9,1.5-5.7,1.5-5.7h0s3.4-2.3,3.4-2.3c0,0,0,0,0,0,0,0,0,0,0,0,0,0,0,0,0,0l.7-.5s.3.2.8.6c4.3.3,8.6.5,13,.6,0,0,0,0,.1,0-5.4-3.2-10.2-7.3-13.6-12.1-4.9-6.7-7.2-14.5-5.1-22.3,0,0,0,0,0,0,2,1.4,4.2,2.8,6.5,4.2-3.4-16.4,4.7-33,23.9-41.4-.4.1-.9.3-1.3.4-14.7,4.5-28.3,14.6-32.4,27.8-1.5-1.5-2.8-3-4-4.6,0,0,0,0,0,0-.3.3-.6.7-.8,1.1-8.6,10.8-11.9,25-7.4,37.3,0,0,0,0,0,0-2.5-.8-4.9-1.7-7.3-2.6,0,0,0,0-.1,0,.2,5,3.4,12.1,9,18.6Z"/>
  <path class="st1" d="M318.6,378.1c0-1.1.1-2.2.3-3.4l-.7,3.3c.2,0,.3,0,.5,0Z"/>
  <polygon class="st1" points="318.6 378.1 318.6 378.1 318.6 378.1 318.6 378.1"/>
  <polygon class="st1" points="379.5 425.1 379.6 425.1 379.5 425.1 379.5 425.1"/>
  <path class="st1" d="M380.5,424.6l-1,.5h1.7c4.4-.2,7.8-4,7.5-8.4-2,3.4-4.8,6.1-8.2,7.9Z"/>
  <path class="st1" d="M406.2,408.2l3.2,2-5.9,5,1-.2c3.6-.8,7-2.5,9.7-4.9,0,0-3.1-1.7-8.7-5.3-5.6-3.6-10.1-7.3-10.1-7.3h0c2.8,4.3,6.5,8,10.8,10.7Z"/>
  <path class="st1" d="M443.7,547.6s1.2-8.8-9-20.1c-1.5-1.6-.2-.5-1.7-1.8-5.7-5-8.6-7.7-18.2-7.8-3.1,0-9.2,1.7-9.2,1.7,0,0,22.5.1,28.7,18.2,2.8,8-44.6,8.8-44.6,8.8h0s16.7,2.5,29.8,2.5,24.2-1.7,24.2-1.7Z"/>
  <path class="st1" d="M314.2,533.6c-2.1-4.6-8-9.5-17.7-9.5s-17,2.6-17,2.6c0,0,20.3-1.9,20.3,17.2,0,2.3-36.2,10.8-36.2,10.8h54.1c0-.1,2-9.5-3.4-21.1h0Z"/>
  <path class="st1" d="M410.1,511.3l-2.5-2.6c-2.4-2.2-5.1-3.8-8.2-4.6-2.5-.4-4.7-1.5-6.8-3.1-4.2-3.2-7.8-7.4-10.9-11.6l-2.8-3.5-.8,3.5c-4,6.1-10.9,9.7-18.2,10.7,3.8.2,7.7-.3,11.5-1.6,2.9-1.1,5.8-2.6,8.2-4.6,4.4,5.5,10.2,11.7,16.6,13.8.6.2,1.2.3,1.7.4,1.4.3,2.7.8,4,1.6-1.3.5-2.6,1.1-3.8,1.7-2.4,1.1-4.9,2.2-7.2,3.5-4.6,2.7-8.7,6.1-12.6,9.8,4.2-3.1,8.7-6,13.5-8,4.8-1.8,10-3.3,14.9-4.6l3.3-.8Z"/>
  <path class="st1" d="M378.4,524.8s0,0,0,0c0,0,0,0,0,0h0Z"/>
  <path class="st1" d="M290.3,485.4c-.8-13.8-4.7-30.7-17.5-38.3-5.3-3.1-11.5-3.8-17.5-2.7,5.4-9.6,2.9-19.7-8.5-24.9h0c4.1,3.9,7.9,9.1,7.1,14.8-.7,5.2-4.2,9.8-8,13.3l-.3.3,3.1,4.5c.5-.3,1.1-.5,1.6-.8,17-6.9,28,2.6,34.3,18,2.1,5.1,3.7,10.4,5.1,15.8h.5c0,0,0,0,0,0h0Z"/>
  <path class="st1" d="M327.3,385c2.8.6,5.7,1.1,8.6,1.6,1.8-6.6,2.8-13.1,3-19.5,5.2,8.3,10,15.7,14.6,21.7,2.1.3,4.3.5,6.5.7,1.4-10.2.2-21.2-3.4-32.1-2.2-.5-4.3-.9-6.5-1.4h0c1.6,5.7,2.4,11.4,2.6,17.1-4.7-6-9.5-12.8-14.9-20-2.1-.5-4.1-1-6.2-1.5.1,1.2.2,2.3.2,3.5,0,.5,0,.9,0,1.4.2,9.1-1.2,18.7-4.5,28.6Z"/>
  <path class="st1" d="M390.8,361.6c-.4,0-.8-.1-1.3-.2-2.1-.3-4.1-.5-6.2-.8,0,.2,0,.3-.1.5-.7,3-1.7,5.9-2.9,8.8-1.8-3.6-4-7.1-6.6-10.4-3.3-.3-6.7-.6-10-.9,5.8,5.5,10.6,11.7,14.1,18.3h0c-1.5,4.3-3.6,8.4-6.2,12.3,2.9,0,5.9,0,8.8,0,1.5-2.9,2.8-6,3.7-9.1.8-1.3,1.4-2.7,2.1-4.1,1.7-3.6,3-7.4,3.9-11.2.3-1.1.5-2.3.7-3.4Z"/>
  <path class="st1" d="M296.5,348.5l-.7.5h0s0,0,0,0l-3.4,2.3h0s-2.4,4.7-1.5,5.7c1,.9,18,15.7,18,15.7l8.8,5.2.3.2h0s0,0,0,0h0s0,0,0,0l.7-3.3,4-17.7s-7.1-.2-13.6-2c-4.6-1.2-9.9-4.5-11.9-5.9h0c-.5-.3-.8-.6-.8-.6Z"/>
</svg>