<?xml version="1.0" encoding="UTF-8"?>
<svg id="Layer_2" xmlns="http://www.w3.org/2000/svg" version="1.1" viewBox="0 0 161.3 99.3">
  <!-- Generator: Adobe Illustrator 30.1.0, SVG Export Plug-In . SVG Version: 2.1.1 Build 136)  -->
  <defs>
    <style>
      .st0 {
        fill: #00b3ff;
      }

      .st1 {
        fill: #fff;
      }
    </style>
  </defs>
  <g id="PAGE4">
    <g id="WLL_x5F_NY_x5F_SEC_x5F_NAVY_x5F_W">
      <g>
        <path class="st0" d="M57.2,50.9l7.8,18.4h-13.4c0,0,5.6-18.4,5.6-18.4ZM100.7,33.9l5,14.7-10.4,20.5h-5.2s10.6-35.2,10.6-35.2ZM131.3,0l-9,17.4L117.6,0h-35.8l-6.3,21.2L66.4,0h-23l-21.5,72h16.4l12.5,12.1L0,98.6l97.5.6-7.5-8.9,21,.4L161.3,0h-30Z"/>
        <polygon class="st0" points="134.2 4.8 121 30.4 113.9 4.8 104.4 4.8 95.7 4.8 85.3 4.8 76.3 35.2 63.3 4.8 46.9 4.8 28.2 67.3 47.3 67.3 56.4 37 69.3 67.3 85.7 67.3 100.4 18.3 110.8 49 98.2 73.9 47.3 74.2 60.1 86.6 24.1 95.6 87.5 94.7 79.7 85.5 92.3 85.7 108.3 85.9 153.3 4.8 134.2 4.8"/>
        <polygon class="st1" points="85.3 4.8 76.3 35.2 63.3 4.8 46.9 4.8 28.2 67.3 47.3 67.3 56.4 37 69.3 67.3 85.7 67.3 104.4 4.8 85.3 4.8"/>
        <polygon class="st0" points="104.6 75.8 104.7 76.2 108.5 76.3 104.6 75.8"/>
        <polygon class="st1" points="153.3 4.8 134.2 4.8 121 30.4 113.9 4.8 95.7 4.8 110.8 49 98.2 73.9 47.3 74.2 60.1 86.6 24.1 95.6 87.5 94.7 79.7 85.5 108.3 85.9 153.3 4.8"/>
      </g>
    </g>
  </g>
</svg>