<?xml version="1.0" encoding="UTF-8"?>
<svg id="Layer_2" xmlns="http://www.w3.org/2000/svg" viewBox="0 0 598 368.03">
  <defs>
    <style>
      .cls-1 {
        fill: #00b3ff;
      }

      .cls-2 {
        fill: #001f44;
      }
    </style>
  </defs>
  <g id="PAGE4">
    <g id="WLL_x5F_NY_x5F_SEC_x5F_LTBLUE_x5F_NAVY">
      <g>
        <path class="cls-2" d="M212.06,188.83l28.96,68.14-49.56.29,20.61-68.43ZM373.15,125.71l18.66,54.59-38.45,76.01-19.3.11,39.1-130.71ZM486.86,0l-33.36,64.53L435.74,0h-132.51l-23.44,78.72L246.1,0h-85.2l-79.86,266.95h60.63l46.19,44.74L0,365.64l361.54,2.39-27.7-32.98,77.99,1.32L598,0h-111.14Z"/>
        <polygon class="cls-1" points="497.58 17.61 448.46 112.6 422.32 17.61 387.11 17.61 354.82 17.61 316.35 17.61 282.75 130.43 234.48 17.61 174.01 17.61 104.69 249.35 175.45 249.35 209.23 137.16 256.9 249.35 317.79 249.35 372.04 68 410.87 181.63 364.21 273.86 175.24 274.96 222.94 321.18 89.18 354.18 324.19 350.93 295.51 316.78 342.09 317.58 401.55 318.59 568.13 17.61 497.58 17.61"/>
        <polygon class="cls-1" points="316.35 17.61 282.75 130.43 234.48 17.61 174.01 17.61 104.69 249.35 175.45 249.35 209.23 137.16 256.9 249.35 317.79 249.35 387.11 17.61 316.35 17.61"/>
        <polygon class="cls-1" points="387.81 281.17 387.91 282.61 402.28 282.71 387.81 281.17"/>
        <polygon class="cls-1" points="568.13 17.61 497.58 17.61 448.46 112.6 422.32 17.61 354.82 17.61 410.87 181.63 364.21 273.86 175.24 274.96 222.94 321.18 89.18 354.18 324.19 350.93 295.51 316.78 401.55 318.59 568.13 17.61"/>
      </g>
    </g>
  </g>
</svg>