<?xml version="1.0" encoding="UTF-8"?>
<svg id="Layer_2" xmlns="http://www.w3.org/2000/svg" viewBox="0 0 544.84 604.29">
  <defs>
    <style>
      .cls-1 {
        fill: none;
      }

      .cls-2 {
        fill: #00b3ff;
      }

      .cls-3 {
        fill: #fff;
      }

      .cls-4 {
        fill: #001f44;
      }
    </style>
  </defs>
  <g id="PAGE2">
    <g>
      <g>
        <g>
          <path class="cls-4" d="M213.65,604.29c-62.77,0-119.06-23.36-158.5-65.77C15.37,495.73-3.98,436.9.68,372.86L24.13,50.62,374.82,0l-68.04,51.45,238.06-32.27-21.48,295.12c-2.53,34.78-11.85,69.32-27.69,102.65-15.23,32.04-35.83,61.65-61.22,88-25.39,26.34-54.32,48.13-85.99,64.77-32.92,17.29-67.4,28.25-102.48,32.55-10.84,1.33-21.72,2.01-32.33,2.01Z"/>
          <path class="cls-2" d="M254.48,73.02l67.26-50.86L37.6,63.17,14.99,373.9c-9.82,135.01,92.81,230.89,229.24,214.14h0c136.43-16.74,255-139.77,264.82-274.78l20.19-277.49-274.77,37.24Z"/>
        </g>
        <g>
          <polygon class="cls-1" points="257.71 201.4 264.71 145.43 262.71 141.75 255.51 142.77 247.51 206.54 254.71 205.52 257.71 201.4"/>
          <polygon class="cls-1" points="185.62 270.35 193.99 269.16 200.05 186 185.62 270.35"/>
          <polygon class="cls-3" points="79.55 311.56 76.35 315.71 71.75 316.36 69.75 312.96 87.15 170.49 90.35 166.35 94.94 165.69 96.94 169.09 94.14 192.16 113.94 189.33 118.34 153 108.94 138.19 82.35 141.98 68.95 160.05 48.35 329.05 57.75 343.86 84.35 340.07 97.74 322 102.34 285.64 82.55 288.47 79.55 311.56"/>
          <polygon class="cls-3" points="157.13 131.31 147.36 211.49 137.37 212.91 147.13 132.74 127.34 135.56 102.74 337.44 122.54 334.62 134.17 239.16 144.17 237.73 132.54 333.19 152.13 330.39 176.73 128.51 157.13 131.31"/>
          <path class="cls-3" d="M194.32,126l-37.99,203.79,19.6-2.8,5.17-30.21,11-1.57-2.17,29.78,19.8-2.83,11.2-199.97-26.59,3.8ZM185.62,270.35l14.43-84.35-6.06,83.16-8.37,1.2Z"/>
          <path class="cls-3" d="M275.91,212.13l10.2-83.07-9.4-14.81-37.99,5.42-24.59,201.88,19.8-2.83,10.4-86.22,4.74-.68-2.94,85.15,18.8-2.68,3.17-91.78,7.83-10.39ZM255.51,142.77l7.2-1.03,2,3.68-7,55.98-3,4.11-7.2,1.03,8-63.77Z"/>
          <polygon class="cls-3" points="310.7 188.17 307.5 214.42 312.5 213.71 304.5 279.46 301.3 283.6 296.7 284.26 294.7 280.86 312.1 138.38 315.3 134.24 319.9 133.59 321.9 136.98 319.1 160.05 338.89 157.23 343.29 120.89 333.89 106.08 307.3 109.88 293.9 127.94 273.3 296.95 282.7 311.76 309.3 307.96 322.7 289.9 335.49 184.64 310.7 188.17"/>
          <polygon class="cls-3" points="352.29 103.46 327.69 305.34 347.49 302.51 372.08 100.63 352.29 103.46"/>
          <polygon class="cls-3" points="410.48 95.15 398.02 198 397.68 96.98 379.48 99.58 354.89 301.46 374.68 298.63 386.51 202.49 386.68 296.92 405.68 294.21 430.27 92.33 410.48 95.15"/>
          <polygon class="cls-3" points="480.26 137.05 484.66 100.72 475.26 85.91 448.67 89.7 435.27 107.77 414.67 276.77 424.07 291.58 450.67 287.79 464.06 269.72 476.86 164.46 452.07 168 448.87 194.24 453.87 193.53 445.87 259.28 442.67 263.42 438.07 264.08 436.07 260.68 453.47 118.21 456.67 114.07 461.26 113.41 463.26 116.81 460.46 139.88 480.26 137.05"/>
        </g>
        <g>
          <polygon class="cls-3" points="126.96 93.1 105.51 76.71 89.45 79 82.77 117.83 98.93 115.52 102.35 95.54 123.83 111.96 139.89 109.67 146.58 70.85 130.41 73.16 126.96 93.1"/>
          <polygon class="cls-3" points="190.77 64.54 177.89 78.13 169.21 67.62 150.89 70.23 167.86 90.69 165.22 106.06 181.39 103.75 184.03 88.39 209.09 61.93 190.77 64.54"/>
        </g>
      </g>
      <g>
        <g>
          <path class="cls-2" d="M319.16,565.83c-8.78-.19-12.83.78-21.88.78-8.03,0-15.81.07-24.81.15-4.25.04-8.72.08-13.52.11l-3.19.02-1.87-2.63c-6.7-9.43-3.71-20.64-1.31-29.64.31-1.15.61-2.27.88-3.35l-5.16-10.06c-3.2-1.9-5.77-2.86-7.66-2.86-.86,0-1.63.19-2.61.43-.04,0-.08.02-.12.03-3.04,2.07-6.01,4.1-8.98,6.12,6.14,5.66,9.92,13.64,10.27,22.16l.31,7.69h-6.45s-6.76.02-14.94.02c-9.5,0-16.77-.01-21.61-.03l-5.61-.03-.53-5.69c-.37-4.01-2.2-8.43-4.66-11.27-4.9-5.64-6.89-13.25-5.65-20.58-3.49.98-7.49,1.66-11.91,1.66-.79,0-1.58-.02-2.38-.07-16.1,14.38-28.92,18.04-36.46,18.72l-.14,6.24-11.78,10.95-3.18.02c-6.16.04-12.32.08-18.47.12-7.8.05-15.61.1-23.42.16l-9.8.08,4.13-9.05c5.57-12.2,12.06-24.43,21.71-32.45-2.72-10.4-1.3-22.85,4.1-34.98,4.36-9.79,10.69-17.78,17.77-22.69-4.75-5.89-8.89-12.47-11.82-18.86-6.2-12.89-8.08-25.86-7.78-33.71l.42-10.76,6.52,4.08c.43-3.19,1.1-6.85,2.13-10.62,2.69-11.5,9.04-24.45,12.03-27.61l4.58-4.85,2.85,3.19c9.11-14.4,23.15-28.61,49.2-35.17,7.79-1.96,17-1.65,17-1.65,0,0-11.82,7.67-15.3,10.48-21.05,17.01-33.13,30.94-36.63,53.95l-1.81,11.92-6.43-6.23c-1.4,9.66.9,20.35,6.92,32.39l.16.33c8.44-8.19,20.05-13.98,30.44-15.94,1.17-10.67,5.85-20.8,13.26-28.41,9-9.25,21.11-14.13,35.02-14.13,1.22,0,2.45.04,3.7.11,3.07-7,9.1-12.96,17.73-17.43,6.8-3.53,15.18-6.08,24.12-7.4-.05-.58-.09-1.15-.11-1.71l-.54-18.82,6.38,2.45c1.38-9.99,5.72-19.66,12.64-27.93l9.65-11.54,2.27,2.84c1.92-2.11,4.04-4.12,6.35-6.01,6.43-5.23,14.87-8.55,26.58-10.42,2.12-.34,4.64-.51,7.48-.51,4.31,0,7.98.39,8.14.41l18.08,1.96-15.5,9.69c-2.39,1.49-9.14,5.84-11.65,7.96-8.64,7.3-18.01,19.28-16,29.01l4.16,20.15c.55-.05,1.13-.1,1.72-.15,4.85-.42,10.89-.94,17.14-.94,12.67,0,21.62,2.3,27.15,7.02,4.92-1.05,8.98-1.84,13.15-1.84,5.12,0,9.82,1.17,15.3,3.97l11.37-1.55-.9-.44,21.96-11.7c1.46-.78,2.18-1.46,2.44-1.78.03-.96-.21-3.06-.81-4.6-1.02-2.63-4.25-6.31-6.05-8.01l-15.7-14.84,21.05,4.01c2.26.43,13.8,2.76,18.87,6.15,8.47,5.67,13.85,14.64,14.4,23.98.03.46.04.92.04,1.38l3.53,1.3-.88,9.7c-.42,4.6-2.02,8.97-4.7,12.93l8.1,3.27-20.52,13.26c-8.01,5.18-20.27,10.08-32.95,13.32,5.4,5.72,11.9,10.51,17.98,13.09l8.9,3.79-7.09,6.67c-7.28,6.85-17.33,11.28-26.7,11.87-1.12,3.1-2.64,5.25-4.3,6.73.91,6.46-.73,9.73-4.38,13.93-.84.97-1.71,1.97-2.65,3.32.09,1.4,1.27,4.47,2,6.36,1.04,2.71,2.12,5.51,2.5,8.22,1.1,7.79-.14,14.16-3.38,18.32,4.16,4.94,9.48,8.79,14.53,10.35,7.29,1.86,11.4,5.75,13.71,9.63,6.68.79,13.83,4.68,21.29,11.61,7.25,6.73,17.85,23.17,15.44,38.6l-.75,4.79-4.74.49c-8.39.88-19.46,1.88-30.63,1.88-16.48,0-30.61-2.15-43.18-6.58l-3.79-1.33-.36-4.07c-.31-3.57-.07-5.22.29-7,.19-.93.36-1.82.33-4.36-.96-6.42-4.72-7.66-15.77-9.72-8.81-1.64-19.77-3.69-27.09-13.28-1.91-2.45-2.9-2.45-5.06-2.45-.29,0-.58,0-.88,0-.34,0-.68,0-1.02,0-4.88,0-10.09-.99-15.63-6.9.64,2.78.92,5.39,1.01,7.53,7.35,2.88,13.1,9.03,16.8,18.05,3.48,8.49,10.11,16.36,9.27,27.19l-3.67-.36-12.05,7.89Z"/>
          <path class="cls-2" d="M452.11,348.2l.44-4.85-3.61-1.33c.41-1.67.57-3.43.46-5.25-.41-6.98-4.42-14.26-11.62-19.08-4.29-2.87-16.61-5.22-16.61-5.22,0,0,5.67,5.33,7.61,10.33,1.16,2.99,1.5,7.05,1.04,8.68-.58,2.04-2.51,3.98-5.56,5.61l-10.98,5.85,6.87,3.34c-5.28,1.75-11.59,2.61-14.73,3.03l-13.79,1.88,5.65,4.9c-.83-.15-1.7-.32-2.63-.5-.3-.06-.6-.12-.91-.18-15.19-10.35-20.69-8.58-35.29-5.46-8.04-10.89-34.82-7.11-46.04-6.32-6.37-4.02-12.1-10.07-14.27-16.81l8.98,5.26-2.85-13.8c-2.97-14.36,10.58-28.79,18.11-35.16,3.4-2.88,12.36-8.48,12.36-8.48,0,0-8.13-.88-14,.06-8.71,1.4-17.19,3.84-23.68,9.12-4.13,3.36-7.55,7.14-10.15,11.17l-2.45-3.07-4.83,5.77c-8.07,9.65-12.12,21.47-11.59,32.8l-5.68-2.18.27,9.41c.07,2.34.57,4.85,1.44,7.42-20.17,1.44-41.71,9.88-45.07,26.09-32.31-4.57-50.57,18.69-50.39,41.27-13.65.69-34.36,11.65-40.42,26.8-5.11-4.79-8.69-9.2-11.87-18.4,3.45,1.5,6.87,2.99,10.26,4.45-6.98-13.94-11.45-30.64-4.5-47,1.73,1.7,3.47,3.4,5.21,5.09,3.25-21.34,13.72-41.13,41.48-57.67-24.1,10.63-41.4,25.43-48.3,41.83-1.44-1.59-2.87-3.18-4.29-4.77-1.95,2.06-7.93,13.81-10.49,24.81-3.04,10.98-2.64,21.2-3.02,19.62-1.95-1.21-3.91-2.43-5.86-3.66-.3,7.74,1.87,19.73,7.17,30.73,4.19,9.14,10.51,17.6,16.23,23.46-18.02,5.99-33.08,37.75-24.53,58.16-11.15,7.24-18.13,21.15-23.42,32.75,13.98-.11,27.93-.18,41.9-.28l5.71-8.24,6.14-8.85c12.87.26,27.36-9.47,37.61-19.05,16.36,1.97,26.92-7.39,29.84-7.38,0,0-5.94,8.82-5.94,8.82-2.92,6.62-1.85,14.5,2.82,19.88,3.5,4.04,5.73,9.84,6.19,14.86,12.18.05,36.52.02,36.52.02l-.05-1.13c-.37-9.18-5.59-17.2-13.33-21.39-.68-.37-1.22-.8-1.52-1.29,5.77-3.93,11.39-7.74,17.26-11.75,3.46-.72,7.29-2.79,17.58,3.8l7.03,13.72c-2.21,10.02-7.25,21.5-1.12,30.12,25.02-.18,41.11-.49,64.62.03,1.4-18-4.1-39.85-20.99-42.75,0,0,1.49-12.43-5.52-21.05,5.3-1.44,5.36-.46,10.6-1.93,12.14,20,18.72,4.66,27.66,16.15,12.95,16.96,41.33,4.74,44.15,26.38.14,7.16-1.14,5.51-.63,11.3,23.25,8.19,48.45,6.76,71.15,4.39,1.9-12.18-6.8-26.73-13.5-32.95-6.69-6.22-14.11-10.75-21.08-10.04-1.7-5.23-5.72-8.36-11.39-9.78-9.02-2.73-17.02-10.39-21.54-17.8,6.67-1.99,6.65-10.7,5.89-16.06-.76-5.37-6.18-13.68-4.1-18.13,5.1-7.94,8.68-6.52,5.74-17.91,4.37-.84,5.91-5.9,6.54-9.8,9.8,1.01,20.55-3.82,27.26-10.13-9.2-3.92-18.47-11.7-24.92-20.31-.61-.87-1.16-1.75-1.67-2.64,15.04-2.72,31.22-8.52,40.64-14.61l10.26-6.63-5.23-2.11c5.5-4.5,8.7-9.95,9.25-15.98Z"/>
          <g>
            <g>
              <path class="cls-4" d="M106.69,449.94s0-.02,0-.02c-.01.02-.02.03,0,.02Z"/>
              <g>
                <path class="cls-1" d="M126.7,456.8c.97-.61.63-.46-.23,0,.08,0,.15,0,.23,0Z"/>
                <path class="cls-4" d="M260.04,530.44c-2.21,10.02-7.25,21.5-1.12,30.12,25.02-.18,41.11-.49,64.62.03,1.4-18-4.1-39.85-20.99-42.75,0,0,1.49-12.43-5.52-21.05,5.3-1.44,5.36-.46,10.6-1.93,12.14,20,18.72,4.66,27.66,16.15,12.95,16.96,41.33,4.74,44.15,26.38.14,7.16-1.14,5.51-.63,11.3,23.25,8.19,48.45,6.76,71.15,4.39,1.9-12.18-6.8-26.73-13.5-32.95-6.69-6.22-14.11-10.75-21.08-10.04-1.7-5.23-5.72-8.36-11.39-9.78-9.02-2.73-17.02-10.39-21.54-17.8,6.67-1.99,6.65-10.7,5.89-16.06-.76-5.37-6.18-13.68-4.1-18.13,5.1-7.94,8.68-6.52,5.74-17.91,4.37-.84,5.91-5.9,6.54-9.8,9.8,1.01,20.55-3.82,27.26-10.13-9.2-3.92-18.47-11.7-24.92-20.31-7.21-10.28-6.67-21.99-9.98-33.58-1.33-.52,10.48,2.66,9.19,1.88-18.6-13.73-23.69-11.92-39.6-8.52-8.92-12.08-40.91-6.1-49.12-6.19-14.53-.86,2.4,8.53-14.05,6.53-17.81-11.19-70.84-5.29-76.27,20.93-32.31-4.57-50.57,18.69-50.39,41.27-14.55.74-37.11,13.14-41.41,29.84l-4.96,14.9c-18.89,4.16-35.42,37.55-26.56,58.73-11.15,7.24-18.13,21.15-23.42,32.75,13.98-.11,27.93-.18,41.9-.28l9.48-9.13,1.27-8.04c12.87.26,28.45-9.39,38.71-18.97,16.36,1.97,26.92-7.39,29.84-7.38,0,0-5.94,8.82-5.94,8.82-2.92,6.62-1.85,14.5,2.82,19.88,3.5,4.04,5.73,9.84,6.19,14.86,12.18.05,36.52.02,36.52.02l-.05-1.13c-.37-9.18-5.59-17.2-13.33-21.39-.68-.37-1.22-.8-1.52-1.29,5.77-3.93,11.39-7.74,17.26-11.75,3.46-.72,7.29-2.79,17.58,3.8M126.7,456.8c-.08,0-.15,0-.23,0,.86-.46,1.2-.61.23,0Z"/>
              </g>
            </g>
            <path class="cls-4" d="M123.75,461.14c3.38-6.33,1.07-5.76,3.11-9.84,1.4-2.52,5.11-3.55,9.64-4.36-10.18-9.34-15.77-12.48-20.54-26.05,3.45,1.5,6.88,2.99,10.29,4.45-7.06-13.94-11.58-30.64-4.58-47,1.73,1.7,3.46,3.4,5.21,5.09,3.28-21.34,13.91-41.13,41.94-57.67-24.28,10.63-41.75,25.43-48.72,41.83-1.43-1.59-2.86-3.18-4.27-4.77-1.96,2.06-8.01,13.81-10.57,24.81-3.05,10.98-2.62,21.2-3,19.62-1.96-1.21-3.91-2.43-5.88-3.66-.29,7.74,1.93,19.73,7.33,30.73,5.16,11.07,13.5,21.15,20.05,26.81Z"/>
            <g>
              <path class="cls-2" d="M286.04,399.24l-8.15-6.2s7.49,2.35,12.3-1.35c4.81-3.7,5.03-3.23,8.18-3.23s8.01,2.58,8.01,2.58c0,0,.1-9.21-12.97-7.11-13.06,2.1-13.36,3.6-19.35,3.5-5.99-.1-13.55-3.4-13.55-3.4,0,0,2.62,8.85,10.9,13.51,10.12,5.7,14.64,1.7,14.64,1.7Z"/>
              <path class="cls-2" d="M316.16,397.23s11.14-6.89,20.21,1.32c9.07,8.21,5.89,15.05,12.88,20.84,3.48,2.88,13.55,2.69,13.55,2.69,0,0-5.85,7.77-16.43,3.49-8.31-3.36-6.38-18.3-15.11-23.64-8.88-5.43-15.09-4.7-15.09-4.7Z"/>
              <path class="cls-2" d="M315.8,424.04s-1.97-4.14-1.59-8.4c.38-4.27,1.59-7.89,1.59-7.89,0,0-.63,9.5,6.54,16.68,7.17,7.18,12.69,8.4,12.69,8.4,0,0-9.64,2.78-17.32-1.87-7.68-4.65-8.44-10.73-8.44-10.73l6.54,3.81Z"/>
              <path class="cls-2" d="M370.85,422.73s6.94,1.7,13.06-6.95c4.24-6,1.28-15.36,1.28-15.36l-4.13,2.14s2.64,4.63-2.6,11.83c-2.92,4.01-11.87,7.89-11.87,7.89l4.25.45Z"/>
              <path class="cls-2" d="M366.6,454.21l.8,3.04s2.77-.92,5.69,0c2.91.92,4.78,2.44,4.78,2.44,0,0,.42-3.71-3.88-4.98-4.3-1.27-7.38-.49-7.38-.49Z"/>
              <path class="cls-2" d="M332.09,478.61s-5.81-18.44,3.83-24.72c9.64-6.29,20.94,1.7,20.94,1.7,0,0-6.45-19.27-25.93-5.02-14.77,10.81,1.16,28.04,1.16,28.04Z"/>
              <path class="cls-2" d="M342.76,480.66s3.67,4.94,13.43,5.65c9.75.7,13.69-.91,13.69-.91,0,0-2.59,6.2-12.12,6.54-8.98.32-15.12-6.72-15.01-11.28Z"/>
              <path class="cls-2" d="M300.56,366.84c-.75-5.67-6.46-8.94-11.59-10.19-12.09-2.94-27.8.3-39.54,4.02-8.57,3.13-14.71,10.64-18.35,18.78-.64,1.43-1.21,2.91-1.67,4.41,0,0-.09.3-.09.3l-.07.25s-.95,3.48-.95,3.48c0,0-3.46-1.39-3.46-1.39l-.32-.13c-11.4-4.15-23.37-1.26-31.35,7.95-14.23,16.88-3.37,47.8,5.15,65.51,2.29,4.69,4.82,9.28,7.64,13.61,0,0-4.7-.92-4.7-.92,2.75-1.83,14.31-9.64,16.75-11.27,1.41,4.13,3.08,8.62,5.01,12.54,5.05,10.35,12.38,22.77,23.48,26.98,1.48.57,3.06.72,4.57,1.11,3.68,1.07,6.5,3.55,8.85,6.31,3.27,3.93,5.71,8.36,7.65,13.07,0,0-2.46-.86-2.46-.86,9.15-4.01,19.66-4.96,29.37-2.7-9.87-.69-20.89,1.4-29.28,6.76-2.75-5.97-6.44-12.44-11.79-16.3-1.16-.8-2.37-1.41-3.58-1.69-1.64-.29-3.3-.47-4.88-.99-12.99-4.16-21.59-17.45-27.59-28.93-1.51-3.02-2.89-6.01-4.1-9.18,0,0,4.88,1.58,4.88,1.58-1.8,1.23-14.33,9.98-15.9,11.06-15.26-21.86-34.2-65.59-15.08-89.44,9.8-11.93,25.39-15.72,39.71-10.13.15.05.46.2.61.26,0,0-4.41,2.09-4.41,2.09.59-2.04,1.39-4.05,2.29-5.97,4.34-9.5,12.43-17.78,22.77-20.34,2.02-.51,3.92-.8,5.93-1.15,13.23-2.14,40.21-6.22,47.43,8.3.43,1.03.79,2,.87,3.14,0,0-1.8.06-1.8.06h0Z"/>
            </g>
            <g>
              <path class="cls-3" d="M325.2,404.85l11.17,18.56s-11.51-.04-14.43-7.6c-2.92-7.56,3.26-10.96,3.26-10.96Z"/>
              <path class="cls-3" d="M344.32,461.88s4.17,9.4,16.86,10.2c13.23.83,12.34-10.2,12.34-10.2,0,0,10.17,15.84-9.61,16.73-25.31,1.14-19.59-16.73-19.59-16.73Z"/>
            </g>
          </g>
        </g>
        <path class="cls-4" d="M389.22,384.32c-1.55-3.22-2.68-6.42-3.67-10.36-.92-3.71-1.57-7.47-2.27-11.97l-1.36-8.7,8.52,1.49c1.52.27,2.92.54,4.24.79.92.18,1.79.35,2.63.5l-5.65-4.9,13.79-1.88c3.14-.43,9.45-1.29,14.73-3.03l-6.87-3.34,10.98-5.85c3.05-1.63,4.97-3.57,5.56-5.61.46-1.62.12-5.69-1.04-8.68-1.93-5-7.61-10.33-7.61-10.33,0,0,12.32,2.35,16.61,5.22,7.2,4.82,11.21,12.1,11.62,19.08.11,1.82-.05,3.58-.46,5.25l3.61,1.33-.44,4.85c-.55,6.03-3.75,11.48-9.25,15.98l5.23,2.11-10.26,6.63c-9.71,6.28-26.61,12.25-42.04,14.85l-4.55.77-2.03-4.22Z"/>
        <path class="cls-4" d="M394.79,381.55c-1.55-3.23-2.47-6.1-3.23-9.15-.81-3.28-1.43-6.77-2.16-11.4,9.34,1.63,13.92,3.51,24.03.23-2.54-1.84-4.93-3.74-7.16-5.68,10.61-1.44,22.1-3.75,26.7-10.18-2-.89-3.94-1.8-5.81-2.71,9.19-4.9,11.16-12.54,7.02-19.88,9.54,7.04,11.67,17.16,5.92,22.57,1.91.76,3.86,1.51,5.87,2.25-.68,7.45-7.23,13.45-17.23,17.5,1.88.84,3.82,1.67,5.81,2.47-8.81,5.69-24.87,11.45-39.73,13.96Z"/>
        <path class="cls-3" d="M397.77,381.82c-1.45-3.24-.96-5.4-.14-9.07,1.02-4.7.09-5.55-.81-10.12,7.03.36,7.93-.4,16.23-1.19-2.41-1.86-4.67-3.78-6.78-5.74,10.66-1.49,22.24-3.86,27.21-10.32-1.94-.9-3.82-1.81-5.65-2.73,9.44-4.93,11.83-12.56,8.13-19.85,9.13,7.04,10.67,17.13,4.62,22.56,1.86.76,3.76,1.52,5.72,2.26-1.12,7.47-8.05,13.54-18.28,17.68,1.81.84,3.68,1.67,5.6,2.47-9.31,5.82-21.03,11.43-35.84,14.06Z"/>
        <path class="cls-4" d="M316.93,384.28c-9.54-1.8-24.51-7.03-35.34-15.87-10.87-8.34-18.65-20.95-18.94-30.7l-.27-9.41,5.68,2.18c-.53-11.32,3.52-23.14,11.59-32.8l4.83-5.77,2.45,3.07c2.6-4.03,6.02-7.81,10.15-11.17,6.48-5.28,14.96-7.72,23.68-9.12,5.88-.94,14-.06,14-.06,0,0-8.96,5.6-12.36,8.48-7.53,6.37-21.07,20.8-18.11,35.16l2.85,13.8-8.98-5.26c2.29,7.1,8.52,13.44,15.3,17.44l15.36,9.08,1.19-.12-.18.71,4.3,2.54-4.93-.09-1.45,5.59c-.26.99-.54,2.03-.83,3.1-1.22,4.51-2.6,9.61-2.68,13.14l-.16,7.41-7.16-1.35Z"/>
        <path class="cls-2" d="M318.06,378.07c.11-5.25,2.31-12.32,3.71-17.71-11.92,1.16-23.31-5.05-26.08-11.36,4.83.38,9.72.62,14.68.71-13.07-7.73-21.96-21.14-18.6-34.31,2.05,1.45,4.21,2.84,6.47,4.17-3.38-16.37,4.52-32.95,23.41-41.44-14.98,4.25-29.12,14.63-33.23,28.2-1.45-1.48-2.8-3.01-4.04-4.56-9.15,10.94-12.78,25.66-8.15,38.35-2.51-.81-4.97-1.68-7.37-2.61.2,7.01,6.3,18.08,16.55,25.9,9.92,8.13,23.98,13.01,32.67,14.65Z"/>
        <path class="cls-3" d="M318.56,378.07c.02-5.25,2.12-12.32,3.47-17.71-11.98,1.16-23.49-5.05-26.3-11.36,4.85.38,9.77.62,14.75.71-13.18-7.73-22.14-21.14-18.73-34.31,2.05,1.45,4.22,2.84,6.49,4.17-3.36-16.37,4.72-32.95,23.91-41.44-15.19,4.25-29.54,14.63-33.73,28.2-1.45-1.48-2.8-3.01-4.03-4.56-9.26,10.94-12.93,25.66-8.24,38.35-2.52-.81-4.99-1.68-7.41-2.61.22,7.01,6.39,18.08,16.76,25.9,10.04,8.13,24.28,13.01,33.07,14.65Z"/>
        <path class="cls-4" d="M325.89,410.38c.65-2.18,2.84-2.58,4.89-.89,2.06,1.69,3.21,4.83,2.56,7.02s-2.85,2.58-4.9.88c-2.05-1.69-3.19-4.83-2.55-7.01Z"/>
        <path class="cls-3" d="M379.55,425.13l.96-.51c3.4-1.82,6.24-4.57,8.2-7.94h0s0,0,0,0c.27,4.45-3.12,8.26-7.5,8.4l-1.66.05Z"/>
        <path class="cls-2" d="M395.39,397.44s4.5,3.69,10.12,7.34c5.62,3.65,8.74,5.31,8.74,5.31h0c-2.78,2.45-6.13,4.13-9.73,4.9l-1.04.22,5.85-5-3.17-2.05c-4.29-2.77-7.96-6.43-10.78-10.73h0Z"/>
        <path class="cls-3" d="M389.61,546.77s16.66,2.52,29.81,2.52,24.25-1.67,24.25-1.67c0,0,1.22-8.83-9-20.09-1.49-1.64-.24-.5-1.68-1.77-5.72-5.02-8.59-7.72-18.25-7.75-3.15-.01-9.22,1.71-9.22,1.71,0,0,22.49.13,28.72,18.21,2.77,8.05-44.62,8.84-44.62,8.84Z"/>
        <path class="cls-3" d="M314.24,533.64c-2.15-4.6-8.01-9.49-17.67-9.49-8.5,0-17.05,2.61-17.05,2.61,0,0,20.3-1.94,20.32,17.23,0,2.3-36.23,10.79-36.23,10.79l54.06-.12s2.05-9.33-3.43-21.02Z"/>
        <path class="cls-2" d="M378.35,524.75c3.83-3.7,7.92-7.12,12.57-9.83,2.3-1.28,4.83-2.42,7.22-3.52,2.43-1.1,4.85-2.15,7.37-3.16l-.82,3.45s-.3-.26-.3-.26c-1.83-1.54-4.07-2.82-6.4-3.27-.58-.11-1.18-.23-1.74-.41-7.26-2.38-13.68-9.84-18.15-15.79,0,0,3.57.02,3.57.02-2.78,3.01-6.46,5.18-10.27,6.55-3.73,1.34-7.66,1.82-11.45,1.61,7.23-1,14.15-4.61,18.17-10.72,0,0,.81-3.45.81-3.45,0,0,2.76,3.48,2.76,3.48,3.09,4.25,6.76,8.47,10.94,11.62,2.05,1.54,4.26,2.71,6.77,3.08,3.13.8,5.85,2.42,8.2,4.58,0,0,2.49,2.61,2.49,2.61s-3.31.84-3.31.84c-4.99,1.32-10.09,2.77-14.94,4.6-4.79,2-9.29,4.86-13.48,7.96h0Z"/>
        <path class="cls-2" d="M246.91,419.53c12.96,5.91,14.32,18.22,5.74,28.84-1.07,1.31-2.18,2.54-3.45,3.67,0,0-3.1-4.46-3.1-4.46,8.13-4.33,18.58-5.24,26.73-.49,12.85,7.61,16.66,24.43,17.51,38.28,0,0-.46.04-.46.04.07-.67.15-1.35.23-2.02.09.67.16,1.35.23,2.02l-.46.04c-1.43-5.42-2.99-10.77-5.12-15.82-6.36-15.49-17.31-24.91-34.35-18.05-.54.23-1.1.49-1.62.76,0,0-3.1-4.46-3.1-4.46l.34-.29c3.8-3.48,7.35-8.1,8.02-13.27.78-5.73-3.05-10.85-7.14-14.76h0Z"/>
        <g>
          <path class="cls-3" d="M349.93,355.95c1.56,5.65,2.44,11.39,2.64,17.1-4.66-6.02-9.55-12.8-14.92-20-2.06-.51-4.12-1.02-6.18-1.54.95,10.53-.38,21.86-4.21,33.46,2.82.58,5.67,1.11,8.56,1.57,1.81-6.56,2.79-13.12,2.96-19.55,5.25,8.27,9.95,15.68,14.58,21.71,2.12.28,4.27.52,6.45.72,1.36-10.23.25-21.22-3.43-32.06-2.16-.47-4.31-.94-6.45-1.43Z"/>
          <path class="cls-3" d="M377.76,377.04c-3.51-6.61-8.3-12.83-14.1-18.33,3.33.26,6.67.56,10.01.9,2.91,3.77,5.37,7.77,7.34,11.91-.44-.08-.89-.15-1.33-.23,1.58-3.47,2.79-7.03,3.59-10.62,2.49.3,4.98.62,7.48.96-1.06,6.38-3.34,12.7-6.69,18.65-.95,3.1-2.19,6.14-3.71,9.08-2.93.02-5.87.03-8.8.02,2.61-3.92,4.7-8.07,6.22-12.34Z"/>
        </g>
        <path class="cls-3" d="M292.34,351.34l4.18-2.8s7,4.91,12.74,6.42c6.46,1.71,13.58,1.95,13.58,1.95l-4.79,21.16-9.12-5.34s-17.06-14.81-18.04-15.73,1.45-5.67,1.45-5.67Z"/>
      </g>
    </g>
  </g>
</svg>