<?xml version="1.0" encoding="UTF-8"?>
<svg id="Layer_2" xmlns="http://www.w3.org/2000/svg" version="1.1" viewBox="0 0 116 86.8">
  <!-- Generator: Adobe Illustrator 30.5.1, SVG Export Plug-In . SVG Version: 2.1.4 Build 3)  -->
  <defs>
    <style>
      .st0, .st1 {
        fill: none;
      }

      .st1 {
        stroke: #001f44;
        stroke-linecap: round;
        stroke-linejoin: round;
      }

      .st2 {
        fill: #fff;
      }
    </style>
  </defs>
  <path class="st2" d="M109.9,71.9h0c-2.2-2-4.2-3.1-6.2-3.4-.7-1.1-1.9-2.3-4-2.8-1.5-.5-3-1.6-4.2-3,.9-1.2,1.3-3.1,1-5.3-.1-.8-.4-1.6-.7-2.4-.2-.6-.6-1.4-.6-1.8.3-.4.5-.7.8-1,1.1-1.2,1.5-2.2,1.3-4,.5-.4.9-1.1,1.2-2,2.7-.2,5.6-1.5,7.8-3.4l2.1-1.9-2.6-1.1c-1.8-.7-3.7-2.1-5.2-3.8,3.7-.9,7.2-2.4,9.6-3.9l6-3.9-2.4-1c.8-1.2,1.2-2.4,1.4-3.8l.3-2.8-1-.4c0-.1,0-.3,0-.4-.2-2.7-1.7-5.3-4.2-7-1.5-1-4.8-1.7-5.5-1.8l-6.1-1.2,4.6,4.3c.5.5,1.5,1.6,1.8,2.3.2.4.2,1.1.2,1.3,0,0-.3.3-.7.5l-6.4,3.4h.3c0,.1-3.3.6-3.3.6-1.6-.8-3-1.2-4.4-1.2s-2.4.2-3.8.5c-1.6-1.4-4.2-2-7.9-2s-3.6.2-5,.3c-.2,0-.3,0-.5,0l-1.2-5.9c-.6-2.8,2.1-6.3,4.6-8.4.7-.6,2.7-1.9,3.4-2.3l4.5-2.8-5.3-.6s-1.1-.1-2.4-.1-1.6,0-2.2.1c-3.4.5-5.9,1.5-7.7,3-.7.5-1.3,1.1-1.8,1.7l-.7-.8-2.8,3.4c-2,2.4-3.3,5.2-3.7,8.1l-1.9-.7.2,5.5c0,.2,0,.3,0,.5-2.6.4-5,1.1-7,2.2-2.5,1.3-4.3,3-5.2,5.1-.4,0-.7,0-1.1,0-4,0-7.6,1.4-10.2,4.1-2.2,2.2-3.5,5.2-3.9,8.3-3,.6-6.4,2.3-8.8,4.6h0c-1.8-3.6-2.4-6.7-2-9.5l1.9,1.8.5-3.5c1-6.7,4.5-10.7,10.6-15.7,1-.8,4.4-3,4.4-3,0,0-2.7,0-4.9.5-7.6,1.9-11.6,6-14.3,10.2l-.8-.9-1.3,1.4c-.9.9-2.7,4.7-3.5,8-.3,1.1-.5,2.2-.6,3.1l-1.9-1.2v3.1c-.2,2.3.3,6.1,2.1,9.8.9,1.9,2.1,3.8,3.4,5.5-2.1,1.4-3.9,3.7-5.2,6.6-1.6,3.5-2,7.1-1.2,10.2-2.8,2.3-4.7,5.9-6.3,9.4l-1.2,2.6h2.8c2.3,0,4.5,0,6.8,0,1.8,0,3.6,0,5.4,0h.9s3.4-3.2,3.4-3.2v-1.8c2.2-.2,6-1.3,10.6-5.4.2,0,.5,0,.7,0,1.3,0,2.4-.2,3.5-.5-.4,2.1.2,4.3,1.6,6,.7.8,1.2,2.1,1.4,3.3l.2,1.7h1.6c1.4,0,3.5,0,6.3,0s4.3,0,4.3,0h1.9v-2.2c-.2-2.5-1.3-4.8-3.1-6.4.9-.6,1.7-1.2,2.6-1.8,0,0,0,0,0,0,.3,0,.5-.1.8-.1.6,0,1.3.3,2.2.8l1.5,2.9c0,.3-.2.6-.3,1-.7,2.6-1.6,5.9.4,8.6l.5.8h.9c1.4,0,2.7,0,3.9,0,2.6,0,4.9,0,7.2,0h9.8c0,0,0-1.8,0-2.4,0-3.2-.5-5.5-1.5-7.9-1.1-2.6-2.7-4.4-4.9-5.2,0-.6-.1-1.4-.3-2.2,1.6,1.7,3.1,2,4.5,2s.2,0,.3,0c0,0,.2,0,.3,0,.6,0,.9,0,1.5.7,2.1,2.8,5.3,3.4,7.9,3.9,3.2.6,4.3,1,4.6,2.8,0,.7,0,1,0,1.3-.1.5-.2,1,0,2v1.2c.1,0,1.2.4,1.2.4,3.7,1.3,7.8,1.9,12.5,1.9s6.5-.3,8.9-.5h1.4c0-.1.2-1.5.2-1.5.7-4.5-2.4-9.3-4.5-11.2ZM12.8,52.9h0s0,0,0,0ZM112.6,82.8c-6.6.7-13.9,1.1-20.7-1.3-.1-1.7.2-1.2.2-3.3-.8-6.3-9.1-2.7-12.8-7.7-2.6-3.3-4.5,1.1-8-4.7-1.5.4-1.5.1-3.1.6,2,2.5,1.6,6.1,1.6,6.1,4.9.8,6.5,7.2,6.1,12.4-6.8-.1-11.5,0-18.8,0-1.8-2.5-.3-5.8.3-8.7l-2-4c-3-1.9-4.1-1.3-5.1-1.1-1.7,1.2-3.3,2.3-5,3.4,0,.1.2.3.4.4,2.2,1.2,3.8,3.5,3.9,6.2v.3s-7.1,0-10.6,0c-.1-1.5-.8-3.1-1.8-4.3-1.4-1.6-1.7-3.8-.8-5.8,0,0,1.7-2.6,1.7-2.6-.8,0-3.9,2.7-8.7,2.1-3,2.8-7.5,5.6-11.2,5.5l-.4,2.3-2.8,2.7c-4.1,0-8.1,0-12.2,0,1.5-3.4,3.6-7.4,6.8-9.5-2.5-5.9,1.9-15.1,7.1-16.9-1.7-1.7-3.6-4.2-4.8-6.8-1.6-3.2-2.2-6.7-2.1-8.9.6.4,1.1.7,1.7,1.1.1.5,0-2.5.9-5.7.7-3.2,2.5-6.6,3.1-7.2.4.5.8.9,1.2,1.4,2-4.8,7.1-9.1,14.2-12.2-8.1,4.8-11.2,10.6-12.2,16.8-.5-.5-1-1-1.5-1.5-2,4.8-.7,9.6,1.3,13.7-1-.4-2-.9-3-1.3,1,2.7,2,4,3.5,5.4,1.7-4.4,7.8-7.6,11.8-7.8,0-6.6,5.3-13.3,14.6-12,1-4.7,7.2-7.2,13.1-7.6-.3-.7-.4-1.5-.4-2.2v-2.7c0,0,1.6.6,1.6.6-.2-3.3,1-6.7,3.4-9.5l1.4-1.7.7.9c.8-1.2,1.7-2.3,2.9-3.2,1.9-1.5,4.3-2.2,6.9-2.6,1.7-.3,4.1,0,4.1,0,0,0-2.6,1.6-3.6,2.5-2.2,1.8-6.1,6-5.3,10.2l.8,4-2.6-1.5c.6,2,2.3,3.7,4.1,4.9,3.3-.2,11-1.3,13.4,1.8,4.2-.9,5.8-1.4,10.3,1.6,0,0,.2,0,.3,0,.3,0,.5.1.8.1l-1.6-1.4,4-.5c.9-.1,2.7-.4,4.3-.9l-2-1,3.2-1.7c.9-.5,1.4-1,1.6-1.6.1-.5,0-1.7-.3-2.5-.6-1.5-2.2-3-2.2-3,0,0,3.6.7,4.8,1.5,2.1,1.4,3.3,3.5,3.4,5.5,0,.5,0,1-.1,1.5l1,.4v1.4c-.3,1.8-1.2,3.3-2.8,4.6l1.5.6-3,1.9c-2.7,1.8-7.4,3.5-11.8,4.2.1.3.3.5.5.8,1.9,2.5,4.6,4.8,7.2,5.9-1.9,1.8-5.1,3.2-7.9,2.9-.2,1.1-.6,2.6-1.9,2.8.9,3.3-.2,2.9-1.7,5.2-.6,1.3,1,3.7,1.2,5.3s.2,4.1-1.7,4.7c1.3,2.2,3.6,4.4,6.3,5.2,1.6.4,2.8,1.3,3.3,2.8,2-.2,4.2,1.1,6.1,2.9,1.9,1.8,4.5,6,3.9,9.6Z"/>
  <path class="st2" d="M18.6,54.9h0c.3-.2.2-.1,0,0Z"/>
  <path class="st1" d="M12.8,52.9h0"/>
  <path class="st2" d="M67.1,33.7c-3.8.6-3.9,1-5.6,1-1.7,0-3.9-1-3.9-1,0,0,.8,2.6,3.2,3.9,2.9,1.7,4.3.5,4.3.5l-2.4-1.8s2.2.7,3.6-.4,1.5-.9,2.4-.9,2.3.7,2.3.7c0,0,0-2.7-3.8-2.1Z"/>
  <path class="st2" d="M82.5,45.8c3.1,1.2,4.8-1,4.8-1,0,0-2.9,0-3.9-.8-2-1.7-1.1-3.7-3.7-6.1-2.6-2.4-5.9-.4-5.9-.4,0,0,1.8-.2,4.4,1.4,2.5,1.5,2,5.9,4.4,6.9Z"/>
  <path class="st2" d="M79.2,47.9s-1.6-.4-3.7-2.4c-2.1-2.1-1.9-4.8-1.9-4.8,0,0-.3,1.1-.5,2.3-.1,1.2.5,2.4.5,2.4l-1.9-1.1s.2,1.8,2.5,3.1c2.2,1.4,5,.5,5,.5Z"/>
  <path class="st2" d="M93.4,42.9c1.2-1.7.4-4.5.4-4.5l-1.2.6s.8,1.3-.8,3.4c-.8,1.2-3.4,2.3-3.4,2.3h1.2c0,.1,2,.6,3.8-1.9Z"/>
  <path class="st2" d="M90.5,54.3c-1.2-.4-2.1-.1-2.1-.1l.2.9s.8-.3,1.7,0,1.4.7,1.4.7c0,0,.1-1.1-1.1-1.4Z"/>
  <polygon class="st2" points="88.3 54.1 88.3 54.1 88.3 54.1 88.3 54.1"/>
  <path class="st2" d="M85.5,54.5s-1.9-5.6-7.5-1.5c-4.3,3.1.3,8.1.3,8.1,0,0-1.7-5.4,1.1-7.2,2.8-1.8,6.1.5,6.1.5Z"/>
  <polygon class="st2" points="78.3 61.2 78.3 61.2 78.3 61.2 78.3 61.2"/>
  <path class="st2" d="M89.3,63.2s-1.1.5-4,.3c-2.8-.2-3.9-1.6-3.9-1.6h0c0,1.3,1.8,3.4,4.4,3.3,2.8-.1,3.5-1.9,3.5-1.9Z"/>
  <path class="st2" d="M58.9,74.5l.5-.3s0,0,0,0c.6-.3,1.1-.6,1.8-.8,1.3-.5,2.7-.8,4.1-.9.7,0,1.4,0,2.1,0-1.4-.3-2.9-.4-4.3-.3-1.3.1-2.5.4-3.7.9-.5-1.2-1.2-2.3-2-3.3-.7-.8-1.5-1.5-2.6-1.8-.3,0-.7-.1-1-.2-.9-.3-1.7-.8-2.5-1.4-1.4-1.1-2.4-2.6-3.4-4.1-.8-1.4-1.5-2.8-2.1-4.3-.2-.4-.5-1.4-.6-1.8-.5.4-2.7,1.8-4,2.7-3.6-5.9-8.1-17.5-2.7-22.7,1.2-1.2,2.8-2,4.6-2.2,1.2-.1,2.5,0,3.6.4.3,0,1.2.5,1.5.6,0-.2.3-1.2.4-1.4.3-.9.7-1.7,1.2-2.5,1.1-1.8,2.6-3.3,4.6-4.1.4-.1.8-.3,1.2-.4,1.6-.4,3.1-.8,4.7-1-.2-.2-.3-.5-.5-.8-1.1,0-2.2.2-3.2.4-.5,0-1.1.2-1.7.3-1.5.2-3,.9-4.2,1.8-1.7,1.3-2.9,3.1-3.7,5.1-3-.9-6.4-.5-8.9,1.4-5.9,4.2-4.5,12.5-2.3,18.4,1.2,3.3,2.8,6.4,4.9,9.4l.8-.6,2.9-2c1.7,3.9,4.8,9,9.1,10.1.3,0,.7.1,1,.2.3,0,.7.3,1,.5,1.4,1,2.4,2.7,3.2,4.2l.3.5Z"/>
  <path class="st2" d="M77,40.9l-.7-1.1h0s-1.8,1-.9,3.2,4.2,2.2,4.2,2.2l-1-1.7c-.3.4-.8.4-1.3,0-.6-.5-.9-1.4-.7-2,0-.3.2-.4.5-.5Z"/>
  <path class="st2" d="M81.9,56.3h0s-1.7,5.2,5.7,4.9c5.8-.3,2.8-4.9,2.8-4.9,0,0,.3,3.2-3.6,3-3.7-.2-4.9-3-4.9-3Z"/>
  <path class="st2" d="M110.8,19.4c-.2-1.2-1.1-2.4-2.3-3.5,1.1,2.1.4,4.3-2.4,5.8.5.3,1.1.5,1.6.8-1.4,1.9-4.8,2.6-7.9,3,.6.6,1.3,1.1,2,1.7-2.4.2-2.7.5-4.7.3.3,1.3.5,1.6.2,2.9-.2,1.1-.4,1.7,0,2.6,4.3-.8,7.7-2.4,10.4-4.1-.6-.2-1.1-.5-1.6-.7,3-1.2,5-3,5.3-5.1-.6-.2-1.1-.4-1.7-.7.8-.8,1.2-1.9,1-3.1Z"/>
  <g>
    <path class="st0" d="M67.1,33.7c-3.8.6-3.9,1-5.6,1-1.7,0-3.9-1-3.9-1,0,0,.8,2.6,3.2,3.9,2.9,1.7,4.3.5,4.3.5l-2.4-1.8s2.2.7,3.6-.4c1.4-1.1,1.5-.9,2.4-.9s2.3.7,2.3.7c0,0,0-2.7-3.8-2.1Z"/>
    <path class="st0" d="M53.6,44s0,0,0,0c0,0,0,0,0,0h0Z"/>
    <path class="st0" d="M77,40.9l-.7-1.1h0s-1.8,1-.9,3.2,4.2,2.2,4.2,2.2l-1-1.7c-.3.4-.8.4-1.3,0-.6-.5-.9-1.4-.7-2,0-.3.2-.4.5-.5Z"/>
    <path class="st0" d="M53.2,52.3l.9,1.3h.1c1.3-.7,2.7-1,4.1-.8,2.6.3,4.5,2.3,5.6,4.5,1,1.9,1.6,3.9,2.1,5.9h.1s0,0,0,0c0-.8-.1-1.6-.3-2.4-.7-4.8-3.2-9.8-8.7-9.6-.4,0-.8,0-1.2.1.5-.9.8-1.9.8-2.9,0-2-1.5-3.6-3.2-4.3,1.6,1.5,2.7,3.2,1.8,5.4-.5,1.1-1.2,2.1-2.1,2.8Z"/>
    <path class="st0" d="M78.1,38.9c2.5,1.5,2,5.9,4.4,6.9,3.1,1.2,4.8-1,4.8-1,0,0-2.9,0-3.9-.8-2-1.7-1.1-3.7-3.7-6.1s-5.9-.4-5.9-.4c0,0,1.8-.2,4.4,1.4Z"/>
    <path class="st0" d="M63,75.2s5.9-.6,5.9,5c0,.7-10.5,3.1-10.5,3.1h15.7s.6-2.7-1-6.1h0c-.6-1.3-2.3-2.8-5.1-2.8s-5,.8-5,.8Z"/>
    <path class="st0" d="M58.9,74.5l.5-.3s0,0,0,0c.6-.3,1.1-.6,1.8-.8,1.3-.5,2.7-.8,4.1-.9.7,0,1.4,0,2.1,0-1.4-.3-2.9-.4-4.3-.3-1.3.1-2.5.4-3.7.9-.5-1.2-1.2-2.3-2-3.3-.7-.8-1.5-1.5-2.6-1.8-.3,0-.7-.1-1-.2-.9-.3-1.7-.8-2.5-1.4-1.4-1.1-2.4-2.6-3.4-4.1-.8-1.4-1.5-2.8-2.1-4.3-.2-.4-.5-1.4-.6-1.8-.5.4-2.7,1.8-4,2.7-3.6-5.9-8.1-17.5-2.7-22.7,1.2-1.2,2.8-2,4.6-2.2,1.2-.1,2.5,0,3.6.4.3,0,1.2.5,1.5.6,0-.2.3-1.2.4-1.4.3-.9.7-1.7,1.2-2.5,1.1-1.8,2.6-3.3,4.6-4.1.4-.1.8-.3,1.2-.4,1.6-.4,3.1-.8,4.7-1-.2-.2-.3-.5-.5-.8-1.1,0-2.2.2-3.2.4-.5,0-1.1.2-1.7.3-1.5.2-3,.9-4.2,1.8-1.7,1.3-2.9,3.1-3.7,5.1-3-.9-6.4-.5-8.9,1.4-5.9,4.2-4.5,12.5-2.3,18.4,1.2,3.3,2.8,6.4,4.9,9.4l.8-.6,2.9-2c1.7,3.9,4.8,9,9.1,10.1.3,0,.7.1,1,.2.3,0,.7.3,1,.5,1.4,1,2.4,2.7,3.2,4.2l.3.5Z"/>
    <path class="st0" d="M88.3,44.8h1.2c0,.1,2,.6,3.8-1.9,1.2-1.7.4-4.5.4-4.5l-1.2.6s.8,1.3-.8,3.4c-.8,1.2-3.4,2.3-3.4,2.3Z"/>
    <path class="st0" d="M90.2,55c.8.3,1.4.7,1.4.7,0,0,.1-1.1-1.1-1.4-1.2-.4-2.1-.1-2.1-.1l.2.9s.8-.3,1.7,0Z"/>
    <path class="st0" d="M18.6,54.9c.3-.2.2-.1,0,0h0Z"/>
    <path class="st0" d="M79.4,34.5c.5-1.9.8-3.8.9-5.7,1.5,2.4,2.9,4.6,4.2,6.3.6,0,1.2.2,1.9.2.4-3,0-6.2-1-9.3-.6-.1-1.3-.3-1.9-.4.5,1.6.7,3.3.8,5-1.4-1.7-2.8-3.7-4.3-5.8-.6-.1-1.2-.3-1.8-.4.3,3.1-.1,6.3-1.2,9.7.8.2,1.6.3,2.5.5Z"/>
    <polygon class="st0" points="88.3 54.1 88.3 54.1 88.3 54.1 88.3 54.1"/>
    <path class="st0" d="M86.8,59.3c-3.7-.2-4.9-3-4.9-3h0s-1.7,5.2,5.7,4.9c5.8-.3,2.8-4.9,2.8-4.9,0,0,.3,3.2-3.6,3Z"/>
    <path class="st0" d="M99.8,40.7l.9.6-1.7,1.5h.3c1-.3,2-.8,2.8-1.5,0,0-.9-.5-2.5-1.5-1.6-1-2.9-2.1-2.9-2.1.8,1.2,1.9,2.3,3.1,3.1Z"/>
    <path class="st0" d="M92.3,29.6c-.5-1-1.2-2-1.9-3-1,0-1.9-.2-2.9-.3,1.7,1.6,3.1,3.4,4.1,5.3h0c-.4,1.2-1,2.4-1.8,3.6.9,0,1.7,0,2.6,0,.4-.9.8-1.7,1.1-2.6,1-1.7,1.6-3.6,1.9-5.4-.7,0-1.4-.2-2.2-.3-.2.9-.5,1.8-.9,2.7Z"/>
    <path class="st0" d="M92.4,45.5h-.3c0,.1,0,.2,0,.2h.5c1.3,0,2.3-1.2,2.2-2.5-.6,1-1.4,1.8-2.4,2.3Z"/>
    <path class="st0" d="M91.7,64.3s0,0,0,0h0s0,0,0,0c-.3.4-.6.7-.9,1.1-1.2,1.1-2.7,1.8-4.3,2,1.1,0,2.3,0,3.3-.5.9-.3,1.7-.8,2.4-1.3,1.2,1.6,3,3.4,4.8,4,.2,0,.4,0,.6.1.3,0,.7.2,1,.4,0,0,0,0,0,0-.9.4-1.8.8-2.7,1.2-1.6.8-2.9,1.9-4.2,3.1,1.4-1,2.8-1.9,4.4-2.5,1.3-.4,2.5-.8,3.8-1.1l1-.2c-.1-.1-.8-.8-.9-.9-.7-.6-1.4-1-2.2-1.2,0,0-.2,0-.3,0-.2,0-.5-.1-.7-.3-1-.5-1.8-1.3-2.6-2.1-.5-.6-1-1.2-1.5-1.8h-1Z"/>
    <polygon class="st0" points="96.7 37.6 96.7 37.6 96.7 37.6 96.7 37.6"/>
    <path class="st0" d="M109.8,22.5c.8-.8,1.2-1.9,1-3.1-.2-1.2-1.1-2.4-2.3-3.5,1.1,2.1.4,4.3-2.4,5.8.5.3,1.1.5,1.6.8-1.4,1.9-4.8,2.6-7.9,3,.6.6,1.3,1.1,2,1.7-2.4.2-2.7.5-4.7.3.3,1.3.5,1.6.2,2.9-.2,1.1-.4,1.7,0,2.6,4.3-.8,7.7-2.4,10.4-4.1-.6-.2-1.1-.5-1.6-.7,3-1.2,5-3,5.3-5.1-.6-.2-1.1-.4-1.7-.7Z"/>
    <path class="st0" d="M74.2,32s0,0,0,0h0s0,0,.1,0h0c0-.3,0-.6,0-.9l1.2-5.2s-2.1,0-3.9-.6c-1.3-.3-2.8-1.3-3.4-1.7,1.2,0,2.5.1,3.8.2,0,0,0,0,0,0,0,0,0,0,0,0-1.6-.9-2.9-2.1-3.9-3.5-1.4-1.9-2.1-4.2-1.5-6.5.6.4,1.2.8,1.9,1.2,0,0,0,0,0,0,0,0,0,0,0,0-.1-.6-.2-1.2-.2-1.8-.1-4.1,2.3-8.1,7.2-10.2-.1,0-.2,0-.4.1,0,0,.2,0,.2-.1-4.3,1.2-8.3,4.2-9.6,8,0,0,0,.1,0,.2-.4-.4-.8-.9-1.2-1.3-2.7,3.2-3.8,7.5-2.4,11.1-.7-.2-1.4-.5-2.1-.7,0,0,0,0,0,0,0,0,0,0,0,0,0,1.3.8,3.2,2.2,5,.7.9,1.6,1.8,2.6,2.6,2.9,2.4,7,3.8,9.5,4.3h0ZM67.8,23.6s0,0,0,0c0,0,0,0,0,0h0Z"/>
    <path class="st0" d="M79.2,47.9s-1.6-.4-3.7-2.4-1.9-4.8-1.9-4.8c0,0-.3,1.1-.5,2.3-.1,1.2.5,2.4.5,2.4l-1.9-1.1s.2,1.8,2.5,3.1,5,.5,5,.5Z"/>
    <path class="st0" d="M85.5,54.5s-1.9-5.6-7.5-1.5c-4.3,3.1.3,8.1.3,8.1,0,0-1.7-5.4,1.1-7.2,2.8-1.8,6.1.5,6.1.5Z"/>
    <path class="st0" d="M108,78.4c.8,2.3-13,2.6-13,2.6,0,0,4.8.7,8.7.7s7-.5,7-.5c0,0,.4-2.6-2.6-5.8-.4-.5,0-.1-.5-.5-1.7-1.5-2.5-2.2-5.3-2.3-.9,0-2.7.5-2.7.5,0,0,6.5,0,8.3,5.3Z"/>
    <path class="st0" d="M89.3,63.2s-1.1.5-4,.3c-2.8-.2-3.9-1.6-3.9-1.6h0c0,1.3,1.8,3.4,4.4,3.3,2.8-.1,3.5-1.9,3.5-1.9Z"/>
    <path class="st0" d="M91.8,74.6s0,0,0,0c0,0,0,0,0,0h0Z"/>
  </g>
  <path class="st2" d="M67.8,23.6h0s0,0,0,0c0,0,0,0,0,0,0,0,0,0,0,0Z"/>
  <path class="st2" d="M68.5,15c-.1-.6-.2-1.2-.2-1.8,0,.6,0,1.2.2,1.8,0,0,0,0,0,0Z"/>
  <path class="st2" d="M62.1,21c-.7-.2-1.4-.5-2.1-.7,0,0,0,0,0,0,.7.3,1.4.5,2.1.7,0,0,0,0,0,0Z"/>
  <path class="st2" d="M68.2,23.6s0,0,0,0c1.2,0,2.5.1,3.8.2,0,0,0,0,0,0-1.3,0-2.5,0-3.8-.2Z"/>
  <path class="st2" d="M68.1,20.3c-1.4-1.9-2.1-4.2-1.5-6.5,0,0,0,0,0,0-.6,2.3,0,4.5,1.5,6.5Z"/>
  <path class="st2" d="M75,3.1c0,0,.2,0,.2-.1-4.3,1.2-8.3,4.2-9.6,8,1.3-3.7,5.2-6.6,9.4-7.9Z"/>
  <path class="st2" d="M74.2,32c-2.6-.5-6.6-1.9-9.4-4.2-1-.8-1.9-1.7-2.6-2.6.7.9,1.6,1.8,2.6,2.6,2.9,2.4,7,3.8,9.5,4.3h0s0,0,0,0h0s0,0,0,0Z"/>
  <path class="st2" d="M62.1,25.2c.7.9,1.6,1.8,2.6,2.6,2.8,2.3,6.8,3.7,9.4,4.2h0s0,0,0,0h0s0,0,.1,0h0c0-.3,0-.6,0-.9l1.2-5.2s-2.1,0-3.9-.6c-1.3-.3-2.8-1.3-3.4-1.7,0,0,0,0,0,0,1.2,0,2.5.1,3.8.2,0,0,0,0,0,0-1.6-.9-2.9-2.1-3.9-3.5-1.4-2-2.1-4.2-1.5-6.5,0,0,0,0,0,0,.6.4,1.2.8,1.9,1.2,0,0,0,0,0,0-.1-.6-.2-1.2-.2-1.8-.1-4.1,2.3-8.1,7.2-10.2-.1,0-.2,0-.4.1-4.2,1.3-8.1,4.2-9.4,7.9,0,0,0,.1,0,.2-.4-.4-.8-.9-1.2-1.3-2.7,3.2-3.8,7.5-2.4,11.1,0,0,0,0,0,0-.7-.2-1.4-.5-2.1-.7,0,0,0,0,0,0,0,1.3.8,3.2,2.2,5ZM67.8,23.5h0s0,0,0,0c0,0,0,0,0,0,0,0,0,0,0,0,0,0,0,0,0,0Z"/>
  <path class="st2" d="M92.4,45.5h-.3c0,.1,0,.2,0,.2h.5c1.3,0,2.3-1.2,2.2-2.5-.6,1-1.4,1.8-2.4,2.3Z"/>
  <polygon class="st2" points="96.7 37.6 96.7 37.6 96.7 37.6 96.7 37.6"/>
  <path class="st2" d="M96.7,37.6c.8,1.2,1.9,2.3,3.1,3.1l.9.6-1.7,1.5h.3c1-.3,2-.8,2.8-1.5,0,0-.9-.5-2.5-1.5-1.6-1-2.9-2.1-2.9-2.1Z"/>
  <path class="st2" d="M107.6,74.9c-1.7-1.5-2.5-2.2-5.3-2.3-.9,0-2.7.5-2.7.5,0,0,6.5,0,8.3,5.3.8,2.3-13,2.6-13,2.6,0,0,4.8.7,8.7.7s7-.5,7-.5c0,0,.4-2.6-2.6-5.8-.4-.5,0-.1-.5-.5Z"/>
  <path class="st2" d="M73.1,77.2c-.6-1.3-2.3-2.8-5.1-2.8s-5,.8-5,.8c0,0,5.9-.6,5.9,5,0,.7-10.5,3.1-10.5,3.1h15.7s.6-2.7-1-6.1h0Z"/>
  <path class="st2" d="M91.8,74.6s0,0,0,0c0,0,0,0,0,0h0Z"/>
  <path class="st2" d="M100,71l1-.2c-.1-.1-.8-.8-.9-.9-.7-.6-1.4-1-2.2-1.2,0,0-.2,0-.3,0-.2,0-.5-.1-.7-.3-1-.5-1.8-1.3-2.6-2.1-.5-.6-1-1.2-1.5-1.8h-1s0,0,0,0h0s0,0,0,0c-.3.4-.6.7-.9,1.1-1.2,1.1-2.7,1.8-4.3,2,1.1,0,2.3,0,3.3-.5.9-.3,1.7-.8,2.4-1.3,1.2,1.6,3,3.4,4.8,4,.2,0,.4,0,.6.1.3,0,.7.2,1,.4,0,0,0,0,0,0-.9.4-1.8.8-2.7,1.2-1.6.8-2.9,1.9-4.2,3.1,1.4-1,2.8-1.9,4.4-2.5,1.3-.4,2.5-.8,3.8-1.1Z"/>
  <path class="st2" d="M53.2,52.3l.9,1.3h.1c1.3-.7,2.7-1,4.1-.8,2.6.3,4.5,2.3,5.6,4.5,1,1.9,1.6,3.9,2.1,5.9h.1s0,0,0,0c0-.8-.1-1.6-.3-2.4-.7-4.8-3.2-9.8-8.7-9.6-.4,0-.8,0-1.2.1.5-.9.8-1.9.8-2.9,0-2-1.5-3.6-3.2-4.3,1.6,1.5,2.7,3.2,1.8,5.4-.5,1.1-1.2,2.1-2.1,2.8Z"/>
  <path class="st2" d="M53.6,44s0,0,0,0c0,0,0,0,0,0h0Z"/>
  <path class="st2" d="M78.1,24.3c.3,3.1-.1,6.3-1.2,9.7.8.2,1.6.3,2.5.5.5-1.9.8-3.8.9-5.7,1.5,2.4,2.9,4.6,4.2,6.3.6,0,1.2.2,1.9.2.4-3,0-6.2-1-9.3-.6-.1-1.3-.3-1.9-.4.5,1.6.7,3.3.8,5-1.4-1.7-2.8-3.7-4.3-5.8-.6-.1-1.2-.3-1.8-.4Z"/>
  <path class="st2" d="M90.4,26.6c-1,0-1.9-.2-2.9-.3,1.7,1.6,3.1,3.4,4.1,5.3h0c-.4,1.2-1,2.4-1.8,3.6.9,0,1.7,0,2.6,0,.4-.9.8-1.7,1.1-2.6,1-1.7,1.6-3.6,1.9-5.4-.7,0-1.4-.2-2.2-.3-.2.9-.5,1.8-.9,2.7-.5-1-1.2-2-1.9-3Z"/>
</svg>