<?xml version="1.0" encoding="UTF-8"?>
<svg id="Layer_2" xmlns="http://www.w3.org/2000/svg" version="1.1" viewBox="0 0 544.8 604.3">
  <!-- Generator: Adobe Illustrator 30.1.0, SVG Export Plug-In . SVG Version: 2.1.1 Build 136)  -->
  <defs>
    <style>
      .st0, .st1 {
        fill: none;
      }

      .st1 {
        stroke: #001f44;
        stroke-linecap: round;
        stroke-linejoin: round;
      }

      .st2 {
        fill: #fff;
      }

      .st3 {
        fill: #001f44;
      }
    </style>
  </defs>
  <g>
    <path class="st3" d="M402.6,520.1c-.3,2.3-.5,4.3,0,3.9.4-.4,1.8-3,3.3-6l-1.9.3-1.3,1.8Z"/>
    <path d="M306.8,51.5L374.8,0,24.1,50.6.7,372.9c-4.7,64,14.7,122.9,54.5,165.7,3.1,3.4,13.3,12.7,17.4,16.5,0,0,0,0,0,0,.1,0,.2.2.4.3,0,0,.2.2.3.3h0c37.7,31.6,86.7,48.7,140.5,48.7h0c10.6,0,21.5-.7,32.3-2,35.1-4.3,69.6-15.3,102.5-32.5,9.1-4.8,25.5-16,34.2-21.7l20-27.9c.4-3.1,1-6.9.3-6.3-10.2,8.7-22.6,19-29.7,24.3-38.6,26.4-82.7,44.3-129,50-57.4,7-108.8-5.8-148.4-33.2,0,0-20.7-17.1-23.9-19.6,0,0,0,0,0,0-39.7-38.7-61.8-95.3-57-161.3L37.6,63.2,321.7,22.2l-67.2,50.8,274.7-37.2-20.2,277.5c-5.1,70.2-39.6,137.1-90.7,187.5-1.9,1.5-3,3-6.9,6.2-.6.5-3.4,6.3-5.7,11l18.6-2.9c1.1-1.1,9-9.1,10.1-10.2,25.4-26.3,46-56,61.2-88,15.8-33.3,25.2-67.9,27.7-102.6l21.5-295.1-238.1,32.3Z"/>
  </g>
  <polygon points="102.3 285.6 82.5 288.5 79.5 311.6 76.3 315.7 71.8 316.4 69.8 313 87.2 170.5 90.3 166.3 94.9 165.7 96.9 169.1 94.1 192.2 113.9 189.3 118.3 153 108.9 138.2 82.3 142 69 160 48.3 329 57.8 343.9 84.3 340.1 97.7 322 102.3 285.6"/>
  <path d="M157.1,131.3l-9.8,80.2-10,1.4,9.8-80.2-19.8,2.8-24.6,201.9,19.8-2.8,11.6-95.5,10-1.4-11.6,95.5,11.7-1.7c2.6-1.6,5.3-3.1,8.3-4.4l24.2-198.6-19.6,2.8Z"/>
  <path d="M192.1,295.2l-2.2,29.8,19.8-2.8,11.2-200-26.6,3.8h0s-37.1,199.1-37.1,199.1c3.5-1.3,7.2-2.5,11.2-3.5,2.9-.7,6-1.1,8.7-1.4l4-23.4,11-1.6ZM185.6,270.3l14.4-84.3-6.1,83.2-8.4,1.2h0Z"/>
  <path d="M275.9,212.1h0s10.2-83.1,10.2-83.1l-9.4-14.8-38,5.4-24.6,201.9,19.8-2.8,10.4-86.2,4.7-.7-2.9,85.1,17.6-2.5c.4-1.4.8-2.7,1.3-4l3-87.9,7.8-10.4ZM257.7,201.4l-3,4.1-7.2,1,8-63.8h0s7.2-1,7.2-1l2,3.7-7,56Z"/>
  <path d="M310.7,188.2l-3.2,26.2,5-.7-7.1,58.4c4.2-1.5,8.9-2.7,14.4-3.6,1.6-.3,3.5-.4,5.6-.5l10.1-83.3-24.8,3.5Z"/>
  <path d="M315.3,134.2l4.6-.7,2,3.4-2.8,23.1,19.8-2.8,4.4-36.3-9.4-14.8-26.6,3.8-13.4,18.1-20.4,167.4c.5-.6.9-1.2,1.4-1.8l9.7-11.5,2.3,2.8c1.9-2.1,4-4.1,6.4-6,.6-.5,1.3-1,1.9-1.5l17-139,3.2-4.1Z"/>
  <path d="M347.5,302.5l3.8-30.8-13.3,8.3c-1.6,1-4.9,3.1-7.8,5.1l-2.5,20.2,19.8-2.8Z"/>
  <path d="M352.3,103.5l-20.1,164.6c1.8.1,3.1.2,3.2.3l16.1,1.7,20.6-169.5-19.8,2.8Z"/>
  <polygon points="374.7 298.6 386.5 202.5 386.7 296.9 405.7 294.2 430.3 92.3 410.5 95.2 398 198 397.7 97 379.5 99.6 354.9 301.5 374.7 298.6"/>
  <polygon points="424.1 291.6 450.7 287.8 464.1 269.7 476.9 164.5 452.1 168 448.9 194.2 453.9 193.5 445.9 259.3 442.7 263.4 438.1 264.1 436.1 260.7 453.5 118.2 456.7 114.1 461.3 113.4 463.3 116.8 460.5 139.9 480.3 137 484.7 100.7 475.3 85.9 448.7 89.7 435.3 107.8 414.7 276.8 424.1 291.6"/>
  <polygon points="102.3 95.5 123.8 112 139.9 109.7 146.6 70.8 130.4 73.2 127 93.1 105.5 76.7 89.5 79 82.8 117.8 98.9 115.5 102.3 95.5"/>
  <polygon points="165.2 106.1 181.4 103.8 184 88.4 209.1 61.9 190.8 64.5 177.9 78.1 169.2 67.6 150.9 70.2 167.9 90.7 165.2 106.1"/>
  <line class="st1" x1="106.7" y1="449.9" x2="106.7" y2="449.9"/>
  <g>
    <polygon class="st0" points="379.5 425.1 379.6 425.1 379.5 425.1 379.5 425.1"/>
    <path class="st0" d="M293.4,383.9c-13.1,2.1-13.4,3.6-19.4,3.5-6,0-13.5-3.4-13.5-3.4,0,0,2.6,8.8,10.9,13.5,10.1,5.7,14.6,1.7,14.6,1.7h0l-8.2-6.2s7.5,2.3,12.3-1.4,5-3.2,8.2-3.2,8,2.6,8,2.6c0,0,.1-9.2-13-7.1Z"/>
    <path class="st0" d="M370.9,422.7s6.9,1.7,13.1-7c4.2-6,1.3-15.4,1.3-15.4l-4.1,2.1s2.6,4.6-2.6,11.8c-2.9,4-11.9,7.9-11.9,7.9l4.2.5h0Z"/>
    <path class="st0" d="M380.5,424.6l-1,.5h1.7c4.4-.2,7.8-4,7.5-8.4-2,3.4-4.8,6.1-8.2,7.9Z"/>
    <path class="st0" d="M279.5,526.8s20.3-1.9,20.3,17.2c0,2.3-36.2,10.8-36.2,10.8h54.1c0-.1,2-9.5-3.4-21.1h0c-2.1-4.6-8-9.5-17.7-9.5s-17,2.6-17,2.6Z"/>
    <path class="st0" d="M290.3,485.4c-.8-13.8-4.7-30.7-17.5-38.3-5.3-3.1-11.5-3.8-17.5-2.7,5.4-9.6,2.9-19.7-8.5-24.9h0c4.1,3.9,7.9,9.1,7.1,14.8-.7,5.2-4.2,9.8-8,13.3l-.3.3,3.1,4.5c.5-.3,1.1-.5,1.6-.8,17-6.9,28,2.6,34.3,18,2.1,5.1,3.7,10.4,5.1,15.8h.5c0,0,0,0,0,0h0Z"/>
    <path class="st0" d="M123.8,461.1s0,0,0,0c0,0,0,0,0,0h0Z"/>
    <path class="st0" d="M366.6,454.2h0s.8,3,.8,3c0,0,2.8-.9,5.7,0,2.9.9,4.8,2.4,4.8,2.4,0,0,.4-3.7-3.9-5-4.3-1.3-7.4-.5-7.4-.5Z"/>
    <path class="st0" d="M406.2,408.2l3.2,2-5.9,5,1-.2c3.6-.8,7-2.5,9.7-4.9,0,0-3.1-1.7-8.7-5.3-5.6-3.6-10.1-7.3-10.1-7.3h0c2.8,4.3,6.5,8,10.8,10.7Z"/>
    <path class="st0" d="M126.5,456.8h.2c1-.6.6-.5-.2,0Z"/>
    <path class="st0" d="M378.4,524.8s0,0,0,0c0,0,0,0,0,0h0Z"/>
    <path class="st0" d="M369.9,485.4s-3.9,1.6-13.7.9c-9.8-.7-13.4-5.7-13.4-5.7h0c-.1,4.6,6,11.6,15,11.3,9.5-.3,12.1-6.5,12.1-6.5Z"/>
    <path class="st0" d="M406.8,512.2l3.3-.8-2.5-2.6c-2.4-2.2-5.1-3.8-8.2-4.6-2.5-.4-4.7-1.5-6.8-3.1-4.2-3.2-7.8-7.4-10.9-11.6l-2.8-3.5-.8,3.5c-4,6.1-10.9,9.7-18.2,10.7,3.8.2,7.7-.3,11.5-1.6,2.9-1.1,5.8-2.6,8.2-4.6,4.4,5.5,10.2,11.7,16.6,13.8.6.2,1.2.3,1.7.4,1.4.3,2.7.8,4,1.6-1.3.5-2.6,1.1-3.8,1.7-2.4,1.1-4.9,2.2-7.2,3.5-4.6,2.7-8.7,6.1-12.6,9.8,4.2-3.1,8.7-6,13.5-8,4.8-1.8,10-3.3,14.9-4.6Z"/>
    <path class="st0" d="M433,525.8c-5.7-5-8.6-7.7-18.2-7.8-3.1,0-9.2,1.7-9.2,1.7,0,0,22.5.1,28.7,18.2,2.8,8-44.6,8.8-44.6,8.8h0s16.7,2.5,29.8,2.5,24.2-1.7,24.2-1.7c0,0,1.2-8.8-9-20.1-1.5-1.6-.2-.5-1.7-1.8Z"/>
    <path class="st0" d="M335,432.8s-5.5-1.2-12.7-8.4c-7.2-7.2-6.5-16.7-6.5-16.7,0,0-1.2,3.6-1.6,7.9-.4,4.2,1.5,8.3,1.6,8.4l-6.5-3.8s.8,6.1,8.4,10.7c7.7,4.7,17.3,1.9,17.3,1.9Z"/>
    <path class="st0" d="M356.9,455.6s-6.5-19.3-25.9-5c-14.8,10.8,1.2,28,1.2,28,0,0-5.8-18.4,3.8-24.7,9.6-6.3,20.9,1.7,20.9,1.7Z"/>
    <path class="st0" d="M330.8,409.5c-1.2-1-2.4-1.2-3.3-.9l-2.3-3.8s-6.2,3.4-3.3,11c2.9,7.6,14.4,7.6,14.4,7.6l-3.5-5.9c.2-.3.4-.6.5-1,.7-2.2-.5-5.3-2.6-7Z"/>
    <path class="st0" d="M331.3,401.9c8.7,5.3,6.8,20.3,15.1,23.6,10.6,4.3,16.4-3.5,16.4-3.5,0,0-10.1.2-13.5-2.7-7-5.8-3.8-12.6-12.9-20.8-9.1-8.2-20.2-1.3-20.2-1.3h0s6.2-.7,15.1,4.7Z"/>
    <path class="st0" d="M361.2,472.1c-12.7-.8-16.9-10.2-16.9-10.2,0,0-5.7,17.9,19.6,16.7,19.8-.9,9.6-16.7,9.6-16.7,0,0,.9,11-12.3,10.2Z"/>
  </g>
  <path class="st3" d="M123.8,461.1s0,0,0,0c0,0,0,0,0,0h0Z"/>
  <polygon class="st2" points="325.2 404.8 325.2 404.8 325.2 404.8 325.2 404.8"/>
  <path class="st3" d="M413,361.4c-.1,0-.3,0-.4.1.2,0,.3,0,.5,0,0,0,0,0,0,0Z"/>
  <path class="st3" d="M428,365.3c1.8.8,3.7,1.7,5.6,2.5-2.3,1.4-4.7,2.8-7.3,4.2,3.1-1.4,5.9-2.9,8.2-4.4-2-.8-3.9-1.6-5.8-2.5,7.1-2.9,12.5-6.8,15.2-11.5-3,4.8-8.6,8.7-16,11.7Z"/>
  <path class="st3" d="M433.5,345.4c-1.9-.9-3.8-1.8-5.6-2.7,8.5-4.4,11.2-11,9.1-17.6-.8-.8-1.7-1.6-2.7-2.3,4.1,7.3,2.2,15-7,19.9,1.9.9,3.8,1.8,5.8,2.7-4.6,6.4-16.1,8.7-26.7,10.2,0,0,.1,0,.2.1,10.6-1.5,22.1-3.9,27.1-10.3Z"/>
  <path class="st3" d="M295.7,349s0,0,0,0h0s0,0,0,0Z"/>
  <path d="M452.1,348.2l.4-4.8-3.6-1.3c.4-1.7.6-3.4.5-5.2-.4-7-4.4-14.3-11.6-19.1-4.3-2.9-16.6-5.2-16.6-5.2,0,0,0,0,0,0,.4.3,5.7,5.5,7.6,10.3,1.2,3,1.5,7.1,1,8.7-.4,1.5-1.6,3-3.5,4.3-.6.4-1.3.9-2.1,1.3l-11,5.8h0s6.9,3.3,6.9,3.3c0,0,0,0,0,0-5.3,1.7-11.6,2.6-14.7,3l-13.8,1.9h0s5.6,4.9,5.6,4.9c0,0,0,0,0,0-.8-.1-1.7-.3-2.6-.5-.3,0-.6-.1-.9-.2-10.3-7-16.2-8.5-23.5-7.7,0,0-.2,0-.3,0-.2,0-.4,0-.6,0-.2,0-.4,0-.6,0-.1,0-.3,0-.4,0-.3,0-.5,0-.8.1,0,0-.1,0-.2,0-2.7.4-5.6,1.1-9,1.8,0,0,0,0,0,0-.7-1-1.6-1.8-2.6-2.6,0,0,0,0-.1-.1-.3-.2-.6-.4-.9-.6,0,0-.2-.1-.3-.2-.3-.2-.6-.4-.9-.5-.1,0-.2-.1-.3-.2-.3-.2-.6-.3-.9-.4-.1,0-.3-.1-.4-.2-.3-.1-.6-.3-1-.4-.1,0-.3-.1-.5-.2-.3-.1-.7-.2-1-.3-.2,0-.3,0-.5-.1-.3,0-.7-.2-1-.3-.2,0-.3,0-.5-.1-.6-.1-1.1-.3-1.7-.4-.3,0-.6-.1-.9-.2-.2,0-.4,0-.7-.1-.4,0-.7-.1-1.1-.2-.2,0-.4,0-.6,0-.4,0-.8,0-1.1-.1-.2,0-.4,0-.6,0-.4,0-.8,0-1.2-.1-.2,0-.3,0-.5,0-.5,0-.9,0-1.4,0-.1,0-.3,0-.4,0-.5,0-1.1,0-1.6,0,0,0-.1,0-.2,0-8.7-.2-17.6.9-23,1.2,0,0,0,0,0,0-6.4-4-12.1-10.1-14.3-16.8,0,0,0,0,0,0l9,5.2h0s-2.9-13.8-2.9-13.8c-3-14.4,10.6-28.8,18.1-35.2,3.4-2.9,12.4-8.5,12.4-8.5,0,0-8.1-.9-14,0-7.3,1.2-14.4,3.1-20.3,6.7-1.2.7-2.3,1.5-3.4,2.4-4.1,3.4-7.5,7.1-10.2,11.2h0s-2.4-3.1-2.4-3.1h0s-4.8,5.8-4.8,5.8c-8.1,9.7-12.1,21.5-11.6,32.8h0s-5.7-2.2-5.7-2.2h0s.3,9.4.3,9.4c0,2.3.6,4.8,1.5,7.4,0,0,0,0,0,0-5.6.4-11.4,1.4-16.8,2.9,0,0-.1,0-.2,0-.5.2-1.1.3-1.6.5,0,0,0,0-.1,0-.6.2-1.2.4-1.7.6,0,0,0,0-.1,0-.5.2-1,.3-1.5.5-.2,0-.4.2-.6.2-.3.1-.6.2-.9.4-.2,0-.5.2-.7.3-.2.1-.5.2-.7.3-.3.1-.5.2-.8.4-.2,0-.3.1-.5.2-.7.3-1.4.7-2.1,1,0,0,0,0,0,0-.4.2-.7.4-1.1.6,0,0-.2,0-.3.1-.4.2-.7.4-1,.6,0,0-.1,0-.2.1-7.2,4.2-12.4,10-13.9,17.3,0,0,0,0,0,0-8.1-1.1-15.3-.5-21.5,1.4-18.7,5.7-29,23-28.8,39.9,0,0,0,0,0,0-1.3,0-2.6.2-4,.5,0,0,0,0,0,0-.4,0-.7.1-1.1.2-.1,0-.3,0-.4,0-.3,0-.6.1-.9.2-.2,0-.4.1-.7.2-.2,0-.5.1-.7.2-.3,0-.6.1-.8.2-.2,0-.4.1-.6.2-.3.1-.7.2-1,.3-.2,0-.3,0-.5.1-.4.1-.8.3-1.2.4-.1,0-.2,0-.3.1-.4.2-.9.3-1.3.5,0,0-.1,0-.2,0-11.2,4.4-22.6,13.1-26.8,23.7-5.3-4.9-8.9-9.3-12.2-18.6.1,0,.3.1.4.2,3.3,1.4,6.6,2.9,9.9,4.3,0,0,0-.1,0-.2-7-13.9-11.5-30.5-4.5-46.8,0,0,.2.2.3.3,1.6,1.6,3.3,3.2,4.9,4.8,0-.1,0-.2,0-.3,3.2-20.3,13.1-39.2,38.3-55.2,1.2-.7,2.3-1.5,3.6-2.2,0,0,0,0-.1,0-1.3.6-2.5,1.1-3.7,1.7-22.1,10.4-38.1,24.4-44.8,39.8,0,0,0,.2-.1.3-1.4-1.5-2.7-3-4.1-4.6,0,0-.1-.1-.2-.2-2,2.1-8,13.8-10.6,24.8-2.5,9.1-2.7,17.7-2.9,19.5,0,.3,0,.4-.1.2-1.8-1.1-3.6-2.3-5.5-3.4-.1,0-.3-.2-.4-.3-.3,7.7,1.9,19.7,7.3,30.7,4.3,9.1,10.7,17.6,16.5,23.5,0,0,0,0,0,0-18,6-33.1,37.7-24.5,58.2-11.1,7.2-18.1,21.1-23.4,32.7,0,0,0,0,0,0,14-.1,27.9-.2,41.9-.3l9.5-9.1.9-6,.3-2.1c11.5.2,25.1-7.4,35.2-15.9,1.2-1,2.4-2.1,3.5-3.1,16.3,2,26.8-7.3,29.8-7.4,0,0,0,0,0,0l-5.9,8.8c-2.9,6.6-1.9,14.5,2.8,19.9,3.5,4,5.7,9.8,6.2,14.9,0,0,0,0,0,0,12.2,0,36.5,0,36.5,0v-1.1c-.4-9.2-5.6-17.2-13.4-21.4-.7-.4-1.2-.8-1.5-1.3,5.8-3.9,11.4-7.7,17.3-11.8,2.4-.5,4.9-1.6,9.6-.1,2.1.7,4.7,1.9,7.9,3.9l7,13.7c-2.2,10-7.2,21.5-1.1,30.1h0c14.1-.1,25.3-.2,36.7-.3,8.8,0,17.7,0,27.9.3,0,0,0,0,0,0,1.4-18-4.1-39.8-21-42.8,0,0,1.5-12.4-5.5-21,5.3-1.4,5.4-.5,10.6-1.9,0,0,0,0,0,0,6.4,10.6,11.3,11.3,15.8,11.3.5,0,1.1,0,1.6,0,3.4,0,6.6.2,10.3,4.9,13,17,41.3,4.7,44.2,26.4.1,7.2-1.1,5.5-.6,11.3,13.1,4.6,26.8,6.2,40.3,6.2,10.5,0,20.9-.8,30.9-1.8,1.9-12.2-6.8-26.7-13.5-33-6.3-5.8-13.2-10.2-19.8-10.1-.4,0-.9,0-1.3,0,0,0,0,0,0,0-1.7-5.2-5.7-8.4-11.4-9.8-9-2.7-17-10.4-21.5-17.8,6.7-2,6.7-10.7,5.9-16.1-.8-5.4-6.2-13.7-4.1-18.1,5.1-7.9,8.7-6.5,5.7-17.9,4.4-.8,5.9-5.9,6.5-9.8,0,0,0,0,0,0,.6,0,1.2.1,1.8.1,9.3.3,19.1-4.3,25.4-10.3-9.2-3.9-18.5-11.7-24.9-20.3-.6-.9-1.1-1.8-1.7-2.6,0,0,0,0,0,0,5.3-1,10.8-2.3,16-3.9,0,0,.1,0,.2,0,.8-.3,1.6-.5,2.4-.8.2,0,.3-.1.5-.2.7-.2,1.4-.5,2.1-.7.2,0,.5-.2.7-.3.6-.2,1.2-.4,1.7-.6.3-.1.7-.3,1-.4.5-.2.9-.4,1.3-.5.4-.2.9-.3,1.3-.5.3-.1.6-.3.9-.4.6-.2,1.1-.5,1.6-.7.1,0,.3-.1.4-.2,3.9-1.7,7.4-3.5,10.3-5.4l10.3-6.6-5.2-2.1c5.5-4.5,8.7-10,9.2-16ZM123.8,461.1s0,0,0,0c0,0,0,0,0,0h0ZM126.7,456.8h-.2c.9-.5,1.2-.6.2,0ZM331.7,355c0-1.2-.1-2.4-.2-3.5,2.1.5,4.1,1,6.2,1.5,5.4,7.2,10.3,14,14.9,20-.2-5.7-1.1-11.5-2.6-17.1h0c2.1.5,4.3.9,6.5,1.4,3.7,10.8,4.8,21.8,3.4,32.1-2.2-.2-4.3-.4-6.5-.7-4.6-6-9.3-13.4-14.6-21.7-.2,6.4-1.2,13-3,19.5-2.9-.5-5.7-1-8.6-1.6,3.2-9.8,4.7-19.4,4.5-28.6,0-.5,0-.9,0-1.4ZM336.4,398.5c9.1,8.2,5.9,15,12.9,20.8,3.5,2.9,13.5,2.7,13.5,2.7,0,0-5.8,7.8-16.4,3.5-8.3-3.4-6.4-18.3-15.1-23.6-8.9-5.4-15.1-4.7-15.1-4.7h0s11.1-6.9,20.2,1.3ZM381.1,402.6l4.1-2.1s3,9.4-1.3,15.4c-6.1,8.7-13.1,7-13.1,7h0s-4.2-.4-4.2-.4c0,0,8.9-3.9,11.9-7.9,5.2-7.2,2.6-11.8,2.6-11.8ZM377.9,459.7s-1.9-1.5-4.8-2.4c-2.9-.9-5.7,0-5.7,0l-.8-3h0s3.1-.8,7.4.5c4.3,1.3,3.9,5,3.9,5ZM373.5,461.9s10.2,15.8-9.6,16.7c-25.3,1.1-19.6-16.7-19.6-16.7,0,0,4.2,9.4,16.9,10.2,13.2.8,12.3-10.2,12.3-10.2ZM336.4,423.4s-11.5,0-14.4-7.6c-2.9-7.6,3.3-11,3.3-11l2.3,3.8c.9-.3,2.2,0,3.3.9,2.1,1.7,3.2,4.8,2.6,7-.1.4-.3.7-.5,1l3.5,5.9ZM253.4,508.2c-1.2-.8-2.4-1.4-3.6-1.7-1.6-.3-3.3-.5-4.9-1-13-4.2-21.6-17.5-27.6-28.9-.9-1.8-1.7-3.5-2.5-5.3-4.4,3-11.5,8-12.6,8.8-15.3-21.9-34.2-65.6-15.1-89.4,9.2-11.2,23.5-15.2,37-11.1.4-.9.7-1.8,1.2-2.7,4.3-9.5,12.4-17.8,22.8-20.3,2-.5,3.9-.8,5.9-1.2,3.8-.6,8.8-1.4,14-1.8.5.9,1.1,1.7,1.7,2.6-7.2.9-14.3,2.7-20.4,4.6-8.6,3.1-14.7,10.6-18.3,18.8-.6,1.4-1.2,2.9-1.7,4.4v.3c0,0-.2.2-.2.2l-1,3.5-3.5-1.4h-.3c-11.4-4.3-23.4-1.4-31.3,7.8-14.2,16.9-3.4,47.8,5.1,65.5,1.8,3.7,3.7,7.3,5.8,10.7,4.5-3,11.9-8,13.8-9.3,1.4,4.1,3.1,8.6,5,12.5,5,10.3,12.4,22.8,23.5,27,1.5.6,3.1.7,4.6,1.1,3.7,1.1,6.5,3.5,8.9,6.3,2.9,3.5,5.1,7.4,7,11.5,8.7-3.4,18.5-4.1,27.6-2-9.9-.7-20.9,1.4-29.3,6.8-2.8-6-6.4-12.4-11.8-16.3ZM290.3,485.4h-.5c-1.4-5.4-3-10.7-5.1-15.8-6.4-15.5-17.3-24.9-34.3-18-.5.2-1.1.5-1.6.8l-3.1-4.5.3-.3c3.8-3.5,7.3-8.1,8-13.3.8-5.7-3-10.9-7.1-14.8h0c11.4,5.2,13.8,15.3,8.5,24.8,6-1.1,12.2-.4,17.5,2.7,12.9,7.6,16.7,24.4,17.5,38.3h0s0,0,0,0ZM314.2,533.6h0c5.5,11.7,3.4,21,3.4,21h-54.1c0,.1,36.2-8.4,36.2-10.7,0-19.2-20.3-17.2-20.3-17.2,0,0,8.5-2.6,17-2.6s15.5,4.9,17.7,9.5ZM298.4,388.5c-3.1,0-3.4-.5-8.2,3.2s-12.3,1.4-12.3,1.4l8.2,6.2h0s-4.5,4-14.6-1.7c-8.3-4.7-10.9-13.5-10.9-13.5,0,0,7.6,3.3,13.5,3.4,6,.1,6.3-1.4,19.4-3.5,13.1-2.1,13,7.1,13,7.1,0,0-4.9-2.6-8-2.6ZM285.4,363.4c-2.9-2.2-5.5-4.7-7.7-7.3-5.6-6.5-8.8-13.6-9-18.6,0,0,0,0,.1,0,0,0,0,0,0,0,2.4.9,4.8,1.8,7.3,2.6-4.5-12.3-1.2-26.4,7.4-37.3.3-.4.5-.7.8-1.1,0,0,0,0,0,0,0,0,0,0,0,0,1.2,1.5,2.6,3.1,4,4.6,4.1-13.6,18.2-24,33.2-28.2-.3.1-.5.3-.8.4.4-.1.9-.3,1.3-.4-19.2,8.5-27.3,25.1-23.9,41.4-2.3-1.3-4.4-2.7-6.5-4.2-2,7.7.3,15.5,5.1,22.2,3.4,4.7,8.1,8.9,13.6,12.1,0,0,0,0-.1,0,0,0,0,0,0,0-4.4,0-8.7-.3-13-.6,2,1.3,7.3,4.7,11.9,5.9,6.5,1.7,13.6,2,13.6,2l-4,17.7c-.2,1.2-.3,2.3-.3,3.4,0,0,0,0,0,0h0s0,0,0,0c-.2,0-.3,0-.5,0h0c0,0,0,0,0,0,0,0,0,0,0,0h0s0,0,0,0c0,0,0,0,0,0h0s0,0,0,0c-8.7-1.7-22.7-6.5-32.6-14.6ZM317.7,431c-7.7-4.6-8.4-10.7-8.4-10.7l6.5,3.8c0,0-2-4.2-1.6-8.4.4-4.3,1.6-7.9,1.6-7.9,0,0-.6,9.5,6.5,16.7,7.2,7.2,12.7,8.4,12.7,8.4,0,0-9.6,2.8-17.3-1.9ZM335.9,453.9c-9.6,6.3-3.8,24.7-3.8,24.7,0,0-15.9-17.2-1.2-28,19.5-14.2,25.9,5,25.9,5,0,0-11.3-8-20.9-1.7ZM342.8,480.7h0s3.7,4.9,13.4,5.7c9.8.7,13.7-.9,13.7-.9,0,0-2.6,6.2-12.1,6.5-9,.3-15.1-6.7-15-11.3ZM414.7,518c9.7,0,12.5,2.7,18.2,7.8,1.4,1.3.2.1,1.7,1.8,10.2,11.3,9,20.1,9,20.1,0,0-11.1,1.7-24.2,1.7s-29.8-2.5-29.8-2.5h0s47.4-.8,44.6-8.8c-6.2-18.1-28.7-18.2-28.7-18.2,0,0,6.1-1.7,9.2-1.7ZM392.6,501.1c2,1.5,4.3,2.7,6.8,3.1,3.1.8,5.8,2.4,8.2,4.6l2.5,2.6-3.3.8c-5,1.3-10.1,2.8-14.9,4.6-4.8,2-9.3,4.9-13.5,8,0,0,0,0,0,0h0s0,0,0,0c3.8-3.7,7.9-7.1,12.6-9.8,2.3-1.3,4.8-2.4,7.2-3.5,1.3-.6,2.5-1.1,3.8-1.7-1.2-.7-2.6-1.3-4-1.6-.6-.1-1.2-.2-1.7-.4-6.5-2.1-12.3-8.3-16.6-13.8-2.4,2-5.3,3.6-8.2,4.6-3.7,1.3-7.7,1.8-11.5,1.6,7.2-1,14.1-4.6,18.2-10.7l.8-3.5,2.8,3.5c3.1,4.2,6.8,8.5,10.9,11.6ZM381.2,425.1h-1.7s0,0,0,0h0s0,0,0,0l1-.5c3.4-1.8,6.2-4.6,8.2-7.9.3,4.5-3.1,8.3-7.5,8.4ZM390.1,365c-.9,3.8-2.2,7.5-3.9,11.2-.6,1.4-1.3,2.7-2.1,4.1-1,3.1-2.2,6.1-3.7,9.1-2.9,0-5.9,0-8.8,0,2.6-3.9,4.7-8.1,6.2-12.3h0c-3.5-6.6-8.3-12.8-14.1-18.3,3.3.3,6.7.6,10,.9,2.5,3.3,4.7,6.8,6.6,10.4,1.2-2.9,2.2-5.9,2.9-8.8,0-.2,0-.3.1-.5,2.1.2,4.1.5,6.2.8.4,0,.8.1,1.3.2-.2,1.1-.4,2.3-.7,3.4ZM405.5,404.8c5.6,3.7,8.7,5.3,8.7,5.3-2.8,2.5-6.1,4.1-9.7,4.9l-1,.2,5.9-5-3.2-2c-4.3-2.8-8-6.4-10.8-10.7h0s4.5,3.7,10.1,7.3ZM428.7,365.1c1.9.8,3.8,1.7,5.8,2.5-2.3,1.5-5.1,3-8.2,4.4-7.9,4.2-17.4,7.9-28.5,9.8h0c-.1-.3-.2-.5-.3-.8-1-2.8-.6-4.9.2-8.3,1-4.7,0-5.5-.8-10.1.7,0,1.4,0,2,0,5.2.1,6.7-.5,13.8-1.2.1,0,.3,0,.4-.1-2.4-1.8-4.6-3.7-6.7-5.7,0,0,.1,0,.2,0,0,0-.1,0-.2-.1,10.6-1.4,22.1-3.8,26.7-10.2-2-.9-3.9-1.8-5.8-2.7,9.2-4.9,11.2-12.5,7-19.9,1,.7,1.9,1.5,2.7,2.3-.3-.8-.6-1.5-.9-2.3,9.1,7,10.7,17.1,4.6,22.6,1.9.8,3.8,1.5,5.7,2.3-.3,2.1-1.1,4.1-2.3,6-2.7,4.7-8.1,8.6-15.2,11.5Z"/>
  <polygon class="st2" points="318.6 378.1 318.6 378.1 318.6 378.1 318.6 378.1"/>
  <path class="st2" d="M318.6,378.1c0-1.1.1-2.2.3-3.4l-.7,3.3c.2,0,.3,0,.5,0Z"/>
  <path d="M325.9,410.4h0c-.6,2.2.5,5.3,2.5,7,1.7,1.4,3.4,1.4,4.4.1.2-.3.4-.6.5-1,.7-2.2-.5-5.3-2.6-7-1.2-1-2.4-1.2-3.3-.9-.7.3-1.3.8-1.6,1.8Z"/>
  <polygon class="st2" points="379.5 425.1 379.6 425.1 379.5 425.1 379.5 425.1"/>
</svg>