<?xml version="1.0" encoding="UTF-8"?>
<svg id="Layer_2" xmlns="http://www.w3.org/2000/svg" viewBox="0 0 161.32 99.28">
  <defs>
    <style>
      .cls-1 {
        fill: #00b3ff;
      }

      .cls-2 {
        fill: #fff;
      }

      .cls-3 {
        fill: #001f44;
      }
    </style>
  </defs>
  <g id="PAGE4">
    <g id="WLL_x5F_NY_x5F_SEC_x5F_NAVY_x5F_W">
      <g>
        <path class="cls-3" d="M57.21,50.94l7.81,18.38-13.37.08,5.56-18.46ZM100.67,33.91l5.03,14.73-10.37,20.5-5.21.03,10.55-35.26ZM131.34,0l-9,17.41L117.55,0h-35.75l-6.32,21.24L66.39,0h-22.99l-21.54,72.02h16.36l12.46,12.07L0,98.64l97.53.64-7.47-8.9,21.04.36L161.32,0h-29.98Z"/>
        <polygon class="cls-1" points="134.23 4.75 120.98 30.38 113.93 4.75 104.43 4.75 95.72 4.75 85.34 4.75 76.28 35.19 63.26 4.75 46.94 4.75 28.24 67.27 47.33 67.27 56.44 37 69.3 67.27 85.73 67.27 100.37 18.34 110.84 49 98.25 73.88 47.28 74.18 60.14 86.64 24.06 95.55 87.46 94.67 79.72 85.46 92.29 85.67 108.33 85.95 153.27 4.75 134.23 4.75"/>
        <polygon class="cls-2" points="85.34 4.75 76.28 35.19 63.26 4.75 46.94 4.75 28.24 67.27 47.33 67.27 56.44 37 69.3 67.27 85.73 67.27 104.43 4.75 85.34 4.75"/>
        <polygon class="cls-1" points="104.62 75.85 104.65 76.24 108.52 76.27 104.62 75.85"/>
        <polygon class="cls-2" points="153.27 4.75 134.23 4.75 120.98 30.38 113.93 4.75 95.72 4.75 110.84 49 98.25 73.88 47.28 74.18 60.14 86.64 24.06 95.55 87.46 94.67 79.72 85.46 108.33 85.95 153.27 4.75"/>
      </g>
    </g>
  </g>
</svg>