<?xml version="1.0" encoding="UTF-8"?>
<svg id="PRIMARY" xmlns="http://www.w3.org/2000/svg" viewBox="0 0 1080 1080">
  <defs>
    <style>
      .cls-1 {
        fill: #fff;
      }
    </style>
  </defs>
  <g id="_1_COLOR_LIGHT" data-name="1 COLOR LIGHT">
    <path class="cls-1" d="m749.55,476.42c1.32-2.05,2.61-4.12,3.88-6.19l48.19-78.67-28.73-38.01c.09-.7.17-1.41.26-2.13,1.56-13.51,2.14-25.98,1.79-38.12v-.11c-.27-7.62-.87-14.64-1.82-21.47-1.11-7.88-2.64-15.46-4.54-22.47-3.44-12.91-8.23-25.63-14.67-38.92-11.64-23.81-27.06-45.38-45.85-64.1-18.72-18.67-40.46-34.04-64.62-45.67l-.1-.05c-23.19-11-48.06-18.31-73.92-21.71-13.7-1.92-29.95-2.43-37.4-2.43-6.79,0-21.81.44-35.15,2.11-11.12,1.22-22.84,3.35-35.91,6.53-11.3,2.82-26.61,8.11-36.06,11.84-9.16,3.61-23.48,10.84-34.14,17.23l-.41.25c-10.97,6.76-21.42,14.31-31.13,22.5l-.29.25c-19.98,17.18-36.8,37.09-50.01,59.18-6.54,10.75-12.33,22.36-17.22,34.47-4.97,12.25-8.91,24.5-11.69,36.39-2.41,10.21-3.76,19.78-4.96,28.22-.34,2.4-.67,4.76-1.02,7.09-.9,5.94-1.39,20.93-1.39,29.02,0,4.05.15,7.36.3,10.07,1.3,26.25,7.21,52.13,17.55,76.89,5.29,12.72,11.77,25.16,19.35,37.23l-119.68-4.47,23.07,275.24,150.81-16.66c.13,1.74.28,3.5.46,5.28,1.21,12.18,3.41,24.33,6.54,36.13,7.11,26.71,18.55,50.32,34,70.21,9.36,12.01,20.05,22.39,31.76,30.84,13.86,10.05,28.33,17.28,42.99,21.5,15.96,4.6,33.16,6.93,51.1,6.93,9.34,0,18.87-.65,28.32-1.92l.31-.04c14.96-1.96,29.07-5.64,41.93-10.94,15.03-6.08,28.76-14.38,40.82-24.69,12.09-10.21,22.54-22.4,31.06-36.22,7.28-11.67,13.18-24.51,18.07-39.33,5.92-18.25,9.59-37.32,11.34-59.22l164.04,18.12,23.07-275.24-140.29,5.25Zm100.83,250.08l-164.62-18.18s0,0,0,0c-.05,2.31-.13,4.63-.24,6.98-1.19,25.5-4.75,46.67-11.24,66.66-1.33,4.02-2.75,7.87-4.25,11.59-3.49,8.64-7.45,16.52-12,23.81-2.82,4.58-5.89,8.96-9.17,13.12-2.19,2.77-4.48,5.44-6.87,8.01-1.19,1.28-2.41,2.54-3.65,3.77-2.48,2.46-5.05,4.82-7.71,7.07-1.09.93-2.2,1.83-3.32,2.72-8.43,6.73-17.74,12.42-27.75,16.93-1.62.73-3.26,1.43-4.91,2.1-11.43,4.71-24.05,8-37.47,9.76l-.37.05c-2.35.32-4.7.58-7.05.81-6.32.62-12.64.94-18.87.94-16.26,0-31.77-2.09-46.12-6.22-4.74-1.37-9.48-3.11-14.19-5.22-.78-.35-1.57-.71-2.35-1.09-4.7-2.23-9.36-4.83-13.98-7.78-.77-.49-1.54-.99-2.3-1.51-1.53-1.02-3.06-2.09-4.58-3.19-1.29-.93-2.57-1.89-3.84-2.88-2.53-1.97-5-4.05-7.42-6.24-6.03-5.45-11.67-11.54-16.87-18.21-6.97-8.98-13.05-18.83-18.2-29.48-2.57-5.33-4.91-10.85-7.01-16.57-1.05-2.86-2.04-5.77-2.97-8.72-.93-2.95-1.8-5.95-2.62-9-2.88-10.86-4.91-22.04-6.02-33.28-.18-1.91-.34-3.78-.47-5.63-.03-.45-.06-.89-.09-1.33-.1-1.56-.19-3.09-.26-4.61-.01-.28-.03-.57-.04-.85-.16-3.81-.2-7.51-.14-11.12h0s-151.78,16.76-151.78,16.76l-19.83-236.58h0s0,0,0,0l133.15,1.11c-2.84-3.51-5.57-7.07-8.19-10.67-1.75-2.4-3.45-4.82-5.09-7.26-.82-1.22-1.64-2.44-2.44-3.67-3.2-4.91-6.19-9.88-8.98-14.92-1.4-2.52-2.74-5.05-4.03-7.59-1.29-2.55-2.53-5.1-3.72-7.67-1.19-2.57-2.32-5.15-3.4-7.75-.6-1.43-1.18-2.86-1.74-4.3-7.91-20.12-12.67-40.98-14.17-62.09-.11-1.51-.2-3.02-.27-4.53-.14-2.47-.28-5.48-.28-9.12,0-8.93.57-22.23,1.19-26.34.4-2.64.77-5.31,1.16-8.03.39-2.72.78-5.48,1.21-8.3.4-2.6.84-5.25,1.34-7.95.31-1.67.63-3.36.99-5.08.31-1.49.64-2.99,1-4.51,2.58-11.01,6.24-22.37,10.85-33.75,1.7-4.22,3.53-8.38,5.45-12.44,2.57-5.42,5.34-10.68,8.27-15.74.73-1.26,1.48-2.52,2.23-3.76,3.05-5.11,6.32-10.1,9.78-14.95,5.2-7.28,10.86-14.26,16.96-20.91,1.02-1.11,2.04-2.21,3.09-3.3,5.2-5.46,10.71-10.68,16.5-15.67l.22-.19c5.61-4.73,11.5-9.24,17.63-13.5,3.68-2.56,7.44-5.02,11.28-7.38l.31-.19c3.04-1.82,6.44-3.74,9.93-5.61,4.19-2.25,8.5-4.43,12.49-6.31,1.33-.63,2.62-1.22,3.85-1.78,1.24-.55,2.42-1.06,3.53-1.52.55-.23,1.09-.45,1.61-.65,8.27-3.26,23.16-8.46,33.81-11.12,6.13-1.49,11.95-2.74,17.53-3.76,5.58-1.02,10.93-1.8,16.12-2.36,12.11-1.52,26.2-1.99,33.06-1.99,4.28,0,11.91.19,20.13.76,4.93.35,10.08.83,14.84,1.5,12.01,1.58,23.78,4.06,35.25,7.42,11.46,3.36,22.62,7.61,33.38,12.72,22.34,10.76,42.43,24.96,59.72,42.2,3.26,3.25,6.41,6.58,9.44,10.01s5.96,6.94,8.77,10.54c9.36,12,17.46,24.95,24.18,38.71,5.91,12.2,10.32,23.87,13.45,35.65,1.72,6.36,3.1,13.2,4.11,20.35.86,6.18,1.4,12.57,1.65,19.59.16,5.63.11,11.35-.17,17.25-.28,5.89-.78,11.96-1.51,18.29-.19,1.58-.38,3.12-.59,4.63-.2,1.51-.42,3-.64,4.47l21.55,28.51,4.27,5.66-3.7,6.05-38.08,62.16c-1.33,2.18-2.7,4.34-4.09,6.49-.3.47-.61.95-.91,1.42-1.33,2.04-2.68,4.08-4.05,6.09-.34.49-.68.98-1.01,1.48-1.16,1.69-2.34,3.38-3.53,5.05-.35.49-.69.98-1.04,1.47-1.34,1.86-2.7,3.71-4.08,5.54-.52.69-1.04,1.38-1.56,2.07-1.36,1.79-2.73,3.57-4.12,5.33,0,0,0,0,0,.01l156.53-5.85h0s-19.83,236.58-19.83,236.58Z"/>
    <g>
      <path class="cls-1" d="m612.72,770.94c-4.29,12.03-10.61,22.88-19.22,31.7-5.36,5.4-11.55,10.09-18.49,13.9-25.82,14.17-55.98,13.74-71.55,9.27-15.64-4.47-29.52-14.22-40.06-27.16-6.8-8.27-12.32-17.68-16.7-27.71h-15c4.75,13.13,11.28,25.73,20.04,37.02,5.89,7.56,12.82,14.49,20.75,20.21,7.91,5.73,16.69,10.57,26.13,13.29,26.92,7.75,52.77,3.95,57.56,3.31,9.57-1.26,19.24-3.56,28.55-7.4,9.32-3.77,18.28-9.07,26.15-15.79,7.91-6.68,14.67-14.73,20.03-23.44,5.38-8.61,9.37-17.86,12.46-27.2h-30.67Z"/>
      <path class="cls-1" d="m372.06,374.4c-.59-5.89-1.05-11.69-1.28-17.56-.09-1.95-.12-3.91-.13-5.87,0-1.98.1-4.02.14-6.03.01-2.02.16-4.03.32-6.03.17-2,.22-4.02.5-6.01.76-8.01,2.29-15.91,4.18-23.67,7.72-31.04,24.79-59.32,48.92-79.5,6.06-5,12.49-9.55,19.22-13.64,6.8-3.99,13.91-7.46,21.23-10.5,7.41-2.85,14.98-5.38,22.78-7.25,7.81-1.82,15.73-3.33,23.81-4.12,32.6-3.62,65.41.37,93.36,14.05,13.92,6.89,26.66,16.01,37.57,27.08,10.9,11.04,20.01,24.02,26.64,37.93,1.82,3.83,3.44,7.74,4.86,11.66-.93-35.11-20.58-75.37-20.58-75.37,43.3,64.77,28.19,113.07,22.86,139.69,0,0-.17,1.03-.35,1.88l-.43,2.02c-3.66,1.82-7.44,3.36-11.33,4.62l-22.55,7.3-2.11,52.91c-.88,22.16.53,44.35,4.23,66.21l2.61,15.45c.27,1.58,1.4,2.87,2.93,3.33l7.87,2.39c1.55.47,3.23.01,4.33-1.18l11.84-12.88c14.01-15.25,26.51-31.82,37.33-49.48l28.82-47.04-20.48-27.09c.08-.44.8-4.3.8-4.3l.65-3.28c.97-5.1,1.7-9.99,2.28-14.94,1.14-9.88,1.76-19.8,1.46-30.12-.18-5.15-.57-10.39-1.32-15.75-.78-5.52-1.84-10.89-3.23-16.01-2.74-10.28-6.54-19.89-11.01-29.11-8.98-18.38-20.95-35.06-35.37-49.44-14.41-14.38-31.34-26.29-49.67-35.11-18.38-8.72-38.07-14.34-57.84-16.92-9.89-1.39-19.79-1.81-29.64-1.94-9.76.13-19.52.5-29.29,1.74-9.77,1.05-19.5,2.95-29.13,5.3-9.63,2.4-19.1,5.61-28.39,9.31-9.22,3.9-18.22,8.38-26.85,13.56-8.57,5.28-16.77,11.18-24.48,17.69-15.29,13.15-28.53,28.7-38.82,45.95-5.22,8.58-9.68,17.59-13.41,26.85-3.76,9.26-6.89,18.76-9.16,28.44-2.28,9.67-4.06,19.46-4.93,29.32-.31,2.46-.38,4.93-.56,7.4-.17,2.47-.32,4.93-.33,7.4-.04,2.48-.12,4.92-.11,7.42.03,2.53.09,5.05.23,7.58,1,20.22,5.71,40.28,13.44,58.78,7.71,18.53,18.31,35.49,30.57,50.67,6.68,8.27,13.86,16.02,21.41,23.31l39.47.33c-55.6-43.92-60.54-90.24-63.9-117.41Zm279.58,118.3s-2.12-1.35-2.37-4.27c-.25-2.92,2.56-5.5,2.56-5.5l-.18,9.78Zm2.68-65.43s-5.87-4.09-6.23-13.44c-.36-9.35,7.96-18.02,7.96-18.02l-1.73,31.46Zm11.26,66.11c-1.83,2.28-4.35,2.23-4.35,2.23l5.28-8.23s.9,3.71-.93,6Zm45.96-81.05s2.09,11.83-3.4,19.4c-5.5,7.57-12.65,7.71-12.65,7.71l16.05-27.11Z"/>
      <path class="cls-1" d="m440.28,479.15c-17.28-14.17-32.72-30.51-44.63-48.58,10.29,26.96,33.41,52.96,41.2,61.25l20.45.17c-5.84-4.06-11.53-8.34-17.03-12.84Z"/>
      <path class="cls-1" d="m575.2,275.55c-6.5-5.17-14.03-9.29-22.4-11.98-37.27-11.99-77.2,8.5-89.19,45.77-8.89,27.65.1,56.75,20.54,74.83,7.12,6.3,15.61,11.27,25.23,14.36,37.27,11.99,77.2-8.5,89.19-45.77,9.29-28.89-.94-59.38-23.37-77.21Z"/>
    </g>
    <g>
      <path class="cls-1" d="m316.1,688.86c.07-3.63.13-7.26.2-10.89-10.62.81-21.23,1.69-31.84,2.62.54,3.63,1.08,7.28,1.61,10.9,10.01-.94,20.02-1.82,30.03-2.64Z"/>
      <path class="cls-1" d="m251.53,694.97c7.75-.83,15.5-1.63,23.25-2.39-.26-3.67-.52-7.36-.78-11.04-7.78.72-15.55,1.47-23.32,2.25.28,3.72.56,7.45.84,11.17Z"/>
      <path class="cls-1" d="m326.81,677.19c.21,3.59.42,7.19.62,10.77,7.82-.6,15.64-1.17,23.46-1.71-.19-3.56-.37-7.12-.56-10.68-.77.05-1.55.1-2.32.15-7.07.46-14.14.95-21.2,1.47Z"/>
      <path class="cls-1" d="m359.79,674.98c-.82.05-1.63.1-2.45.15-.23,3.58-.45,7.15-.68,10.73,7.9-.52,15.81-1.01,23.72-1.45.1-3.54.2-7.07.3-10.61-6.97.37-13.93.75-20.89,1.18Z"/>
      <path class="cls-1" d="m424.63,682.3c-.52-3.47-1.04-6.94-1.56-10.41-.08,0-.16,0-.24,0-8.12.3-16.23.65-24.35,1.03.4,3.49.8,6.99,1.19,10.48,8.32-.41,16.64-.77,24.96-1.1Z"/>
      <path class="cls-1" d="m492.59,670.21c-7.95.09-15.89.21-23.84.37.73,3.44,1.46,6.89,2.19,10.33,8-.17,16-.29,23.99-.38-.78-3.44-1.57-6.88-2.35-10.32Z"/>
      <path class="cls-1" d="m434.31,671.49c-1.27.04-2.55.09-3.82.13.11,3.48.22,6.96.34,10.44,7.9-.29,15.81-.54,23.71-.76-.09-3.46-.18-6.93-.27-10.39-6.65.17-13.31.36-19.96.58Z"/>
      <path class="cls-1" d="m514.72,670.05c.03,3.44.07,6.89.1,10.33,7.97-.03,15.93-.02,23.9.03-.01-3.45-.03-6.89-.04-10.34-7.99-.05-15.98-.06-23.97-.03Z"/>
      <path class="cls-1" d="m610.68,671.46c-2.11-.07-4.22-.15-6.33-.21-12.68-.39-25.35-.66-38.03-.86-.01,3.45-.02,6.9-.04,10.35,14.75.25,29.49.64,44.24,1.16.05-3.48.11-6.95.16-10.43Z"/>
      <path class="cls-1" d="m657.47,673.42c.17,3.53.33,7.06.5,10.59,8.51.46,17.01.97,25.52,1.52-.29-3.58-.58-7.15-.87-10.72-.57-.03-1.14-.07-1.71-.11-7.81-.47-15.62-.89-23.43-1.28Z"/>
      <path class="cls-1" d="m638.25,683.02c.34-3.49.68-6.98,1.03-10.46-6.79-.3-13.58-.58-20.37-.82-1.18-.04-2.35-.08-3.53-.12-.47,3.47-.94,6.94-1.41,10.4,8.1.3,16.19.63,24.29,1Z"/>
      <path class="cls-1" d="m758.95,691.59c.19-3.66.39-7.33.58-10.99-10.03-.9-20.06-1.74-30.09-2.52.58,3.68,1.16,7.34,1.74,11.02,9.26.78,18.51,1.61,27.76,2.5Z"/>
      <path class="cls-1" d="m714.5,676.94c-7.28-.53-14.57-1.04-21.85-1.51-.81-.05-1.63-.1-2.44-.15-.13,3.55-.25,7.12-.38,10.67,8.08.54,16.15,1.13,24.22,1.75.15-3.58.3-7.18.45-10.77Z"/>
      <path class="cls-1" d="m825.63,690.43c4.95-4.13,8.07-9.8,9.37-16.99-1.11,1.26-2.32,2.45-3.63,3.56-7.72,6.5-17.42,9.05-28.85,7.82-10.58-1.13-21.17-2.19-31.76-3.19-.21,3.68-.41,7.37-.62,11.05,11.02,1.11,22.04,2.29,33.04,3.55,9.03,1.03,16.5-.85,22.45-5.8Z"/>
    </g>
    <g>
      <path class="cls-1" d="m275.01,673.44c-2.49-35.34-4.98-70.84-7.48-106.49-.36-4.16-.71-8.33-1.07-12.49,1.08-.02,2.16-.05,3.24-.07.35,4.16.7,8.32,1.06,12.47,5.18,35.53,10.36,70.73,15.53,105.63,10-.84,20.01-1.62,30.02-2.35.63-34.87,1.25-69.72,1.88-104.53-.11-4.06-.22-8.13-.33-12.19,1.09-.02,2.17-.04,3.26-.06.17,4.06.34,8.11.51,12.17,2.01,34.71,4.01,69.31,6.01,103.81,7.81-.54,15.63-1.05,23.44-1.52-2.52-48.09-5.04-96.35-7.56-144.78-14.22.05-28.45.1-42.67.17-.21,33.15-.41,66.3-.62,99.46.49,7.66.98,15.31,1.46,22.96-1.12.07-2.24.15-3.36.22-.49-7.66-.99-15.32-1.48-23-4.44-32.95-8.89-66.13-13.34-99.57-14.41.07-28.81.14-43.21.22,3.83,51.07,7.65,101.76,11.47,152.08,7.75-.74,15.49-1.45,23.24-2.13Z"/>
      <path class="cls-1" d="m380.56,666.16c.31-11.21.63-22.42.94-33.63,4.84-.19,9.69-.37,14.53-.54,1.26,11.1,2.53,22.19,3.79,33.26,8.31-.36,16.62-.69,24.94-.98-7.04-46.87-14.08-93.98-21.11-141.43-12.56.03-25.11.06-37.67.1-3.04,47.99-6.09,96.15-9.13,144.51,7.9-.46,15.8-.9,23.7-1.29Zm-9.27-54.26c-.01-.27-.03-.54-.04-.81,3.59-1.75,7.19-3.5,10.78-5.23.7-14.84,1.39-29.67,2.09-44.49-.17-4.03-.35-8.07-.52-12.1,1.09-.01,2.19-.02,3.28-.04.17,4.03.34,8.06.51,12.09,2.09,16.66,4.19,33.28,6.28,49.86-7.46.22-14.92.46-22.38.71Z"/>
      <path class="cls-1" d="m426.42,522.8c1.51,47.15,3.02,94.23,4.54,141.26,7.9-.26,15.8-.48,23.7-.68-.45-17.45-.91-34.9-1.36-52.36,2.23-.04,4.46-.07,6.68-.1,3.69,17.4,7.38,34.77,11.07,52.11,7.99-.15,15.98-.26,23.97-.34-4.39-19.24-8.78-38.5-13.16-57.79,6.43-5.1,9.58-12.31,9.43-21.67-.17-10.48-.34-20.96-.5-31.44-.14-8.75-2.99-15.78-8.55-21.08-5.57-5.31-12.8-7.98-21.66-7.97-11.38.01-22.77.03-34.15.05Zm38.65,64.46c-1.31,1.36-3.06,2.04-5.24,2.07-5.95.07-11.9.14-17.85.23,0-.27-.02-.54-.02-.81,3.54-1.6,7.08-3.2,10.63-4.78-.32-12.44-.65-24.89-.97-37.34,2.39-.01,4.79-.03,7.18-.04,2.2-.01,4,.67,5.39,2.03,1.39,1.36,2.11,3.21,2.16,5.53.21,9.22.41,18.43.62,27.65.05,2.29-.58,4.11-1.9,5.46Z"/>
      <path class="cls-1" d="m491.3,522.72c7.69,30.57,15.39,61.05,23.09,91.51.16,16.11.33,32.22.49,48.34,7.96-.02,15.92-.01,23.88.03-.06-16.12-.12-32.23-.18-48.35,7.38-30.52,14.74-61.01,22.11-91.53-8.34,0-16.67-.01-25.01-.01-2.39,15.91-4.78,31.82-7.17,47.74.03,5.04.06,10.07.1,15.11-1.1,0-2.19,0-3.29,0-.04-5.04-.07-10.07-.11-15.11-2.6-15.91-5.21-31.82-7.81-47.74-8.7,0-17.4,0-26.09,0Z"/>
      <path class="cls-1" d="m579.78,640.79c0-.26,0-.52,0-.78,3.59-1.44,7.18-2.88,10.78-4.31.37-37.64.74-75.29,1.11-112.94-8.29-.01-16.59-.02-24.88-.03-.16,46.72-.33,93.44-.49,140.16,14.73.23,29.47.57,44.2,1.03.11-7.48.23-14.96.34-22.45-10.35-.28-20.71-.5-31.06-.68Z"/>
      <path class="cls-1" d="m630.15,544.41c.32-.56.66-1.11,1.01-1.63,1.86-2.75,4-5,6.05-7.1,3.77-3.81,6.7-7,7.3-10.59v-.05s.02-.05.02-.05c.13-.65.17-1.37.18-2.14-3.89,0-7.77-.02-11.66-.03-.97,7.2-1.94,14.39-2.91,21.58Z"/>
      <path class="cls-1" d="m683.41,667.16c-3.94-48.27-7.87-96.34-11.81-144.24-5.22-.02-10.45-.03-15.67-.04,0,1.28-.06,2.62-.28,4.01-.49,3.32-1.93,6.76-4.16,9.92-1.74,2.49-3.66,4.55-5.51,6.54l-.36.38c-1.92,2.05-3.43,3.78-4.58,5.56-.98,1.51-1.67,3.28-2.23,5.72-.58,2.56-.84,5.25-1,7.33-.05.65-.11,1.3-.17,1.97-.07.72-.13,1.46-.19,2.22-.17,2.21-.45,3.75-1.49,6.05l-1.74,3.78-.08-.04-.46.96-6.03,12.56-1.3-11.61-.85.54c-3.85,28.48-7.71,56.89-11.57,85.26,8.09.26,16.18.56,24.27.9,1.09-11.06,2.17-22.13,3.26-33.21,4.96.16,9.91.34,14.87.52.53,11.19,1.06,22.38,1.59,33.58,8.5.41,17,.86,25.5,1.35Zm-50.96-57.32c3.79-1.52,7.58-3.03,11.37-4.55,1.72-14.69,3.45-29.39,5.17-44.11.1-4.02.2-8.04.3-12.06,1.12.01,2.24.02,3.35.04-.1,4.02-.2,8.05-.31,12.07,1,16.67,2,33.35,3,50.05-7.63-.23-15.27-.44-22.9-.64,0-.27.01-.54.02-.8Z"/>
      <path class="cls-1" d="m736.07,613.04c-.37-6.18-.73-12.36-1.1-18.53-3.7-23.92-7.41-47.71-11.11-71.4-9.65-.04-19.3-.07-28.95-.11-1.72,48.27-3.44,96.45-5.17,144.54,8.07.48,16.14,1.01,24.21,1.56.95-22.56,1.89-45.15,2.84-67.76-.46-6.16-.93-12.32-1.39-18.47,1.11.03,2.23.07,3.34.1.46,6.16.92,12.33,1.38,18.5,3.65,22.84,7.3,45.79,10.95,68.86,9.25.7,18.5,1.44,27.74,2.23,2.63-49.56,5.26-99.31,7.9-149.27-8.42-.04-16.83-.08-25.25-.12-1.12,23.85-2.24,47.67-3.35,71.45.43,6.19.86,12.38,1.28,18.57-1.11-.05-2.22-.11-3.32-.16Z"/>
      <path class="cls-1" d="m812.75,523.54c-11.46-.07-22.93-.13-34.39-.19-2.79,50.29-5.57,100.35-8.35,150.19,11.01.99,22.02,2.04,33.03,3.16,9.02.92,16.5-1.05,22.44-6.08,5.95-5.04,9.27-12.26,9.94-21.66,2.15-30.51,4.31-61.15,6.47-91.92.7-9.96-1.62-18.08-6.97-24.23-5.36-6.16-12.76-9.23-22.16-9.29Zm-27.76,126.43c3.73-1.32,7.46-2.65,11.19-3.97,1.97-32.07,3.95-64.25,5.93-96.55,2.47.05,4.93.11,7.4.16,2.27.05,4.05.85,5.36,2.38,1.3,1.54,1.87,3.59,1.71,6.14-1.88,29.08-3.76,58.06-5.63,86.94-.16,2.43-.96,4.29-2.42,5.59-1.45,1.3-3.29,1.85-5.49,1.66-6.03-.52-12.06-1.03-18.09-1.51.02-.28.03-.56.05-.84Z"/>
      <path class="cls-1" d="m648.57,517.84c.08,2.83.36,5.49-.11,7.92-.83,4.92-4.55,8.85-8.41,12.74-1.93,1.97-3.91,4.07-5.58,6.53-1.7,2.47-2.8,5.42-3.48,8.18-.71,2.82-1.09,5.67-1.37,8.44-.14,1.38-.27,2.75-.44,4.03-.16,1.23-.42,2.42-.77,3.19l-2.3,4.78,3.5-2.21.46,4.11,2.22-4.63h.02c.79-1.74,1-2.81,1.15-4.7.11-1.45.26-2.83.36-4.19.21-2.71.51-5.34,1.08-7.89.59-2.59,1.39-4.89,2.77-7.02,1.38-2.14,3.14-4.11,5.02-6.12,1.86-2,3.83-4.07,5.51-6.48,1.67-2.38,3.04-5.22,3.48-8.24.49-3.03.09-5.92-.04-8.57-.16-2.66.04-5.2.78-7.66l-2.77-.88c-.93,2.8-1.21,5.83-1.1,8.67Z"/>
    </g>
    <g>
      <polygon class="cls-1" points="438.69 741.84 438.69 744.81 437.5 744.81 437.5 741.84 434.15 711.22 428.16 711.22 424.81 741.84 424.81 744.81 423.62 744.81 423.62 741.84 420.22 711.22 416.06 711.22 420.81 749.02 427.08 749.02 430.42 719.53 430.42 715.16 431.67 715.16 431.67 719.53 435.01 749.02 441.28 749.02 446.03 711.22 442.03 711.22 438.69 741.84"/>
      <polygon class="cls-1" points="458.18 731.63 466.01 731.63 466.01 749.02 470.01 749.02 470.01 711.22 466.01 711.22 466.01 728.07 458.18 728.07 458.18 711.22 454.18 711.22 454.18 749.02 458.18 749.02 458.18 731.63"/>
      <rect class="cls-1" x="479.73" y="711.22" width="4" height="37.8"/>
      <path class="cls-1" d="m493.44,711.22v37.8h4v-14.74h4.16c4.59,0,7.67-2.92,7.67-7.34v-8.37c0-4.43-3.08-7.34-7.67-7.34h-8.15Zm11.83,7.56v7.94c0,2.32-1.57,3.89-3.89,3.89h-3.94v-15.71h3.94c2.32,0,3.89,1.57,3.89,3.89Z"/>
      <path class="cls-1" d="m516.55,736.33v5.83c0,4.54,3.19,7.51,7.94,7.51s7.88-2.97,7.88-7.51v-5.18c0-8.69-11.72-8.91-11.72-14.85v-4.1c0-2.27,1.51-3.78,3.83-3.78s3.78,1.51,3.78,3.78v5.18h4v-5.24c0-4.43-3.08-7.4-7.78-7.4s-7.83,2.97-7.83,7.4v4.54c0,8.69,11.72,8.86,11.72,14.85v4.75c0,2.32-1.57,3.89-3.89,3.89s-3.94-1.57-3.94-3.89v-5.78h-4Z"/>
      <polygon class="cls-1" points="546.2 721.32 552.89 749.02 558.78 749.02 558.78 711.22 554.78 711.22 554.78 738.92 555.11 741.78 554.03 741.78 553.7 738.92 547.01 711.22 541.12 711.22 541.12 749.02 545.12 749.02 545.12 721.32 544.79 718.45 545.87 718.45 546.2 721.32"/>
      <path class="cls-1" d="m566.12,749.02h4.05l1.4-10.37h7.02l1.46,10.37h4.27l-5.83-37.8h-6.59l-5.78,37.8Zm8.37-30.94v-2.92h1.24v2.92l2.38,17.12h-6.05l2.43-17.12Z"/>
      <polygon class="cls-1" points="608.68 711.22 604.36 711.22 597.82 728.07 595.61 728.07 595.61 711.22 591.61 711.22 591.61 749.02 595.61 749.02 595.61 731.63 597.77 731.63 604.57 749.02 609.16 749.02 601.12 729.69 608.68 711.22"/>
      <polygon class="cls-1" points="627.79 711.22 615.8 711.22 615.8 749.02 627.79 749.02 627.79 745.35 619.8 745.35 619.8 731.63 627.03 731.63 627.03 728.07 619.8 728.07 619.8 714.89 627.79 714.89 627.79 711.22"/>
      <path class="cls-1" d="m643.4,749.67c4.75,0,7.88-2.97,7.88-7.51v-5.18c0-8.69-11.72-8.91-11.72-14.85v-4.1c0-2.27,1.51-3.78,3.83-3.78s3.78,1.51,3.78,3.78v5.18h4v-5.24c0-4.43-3.08-7.4-7.78-7.4s-7.83,2.97-7.83,7.4v4.54c0,8.69,11.72,8.86,11.72,14.85v4.75c0,2.32-1.57,3.89-3.89,3.89s-3.94-1.57-3.94-3.89v-5.78h-4v5.83c0,4.54,3.19,7.51,7.94,7.51Z"/>
    </g>
  </g>
</svg>