<?xml version="1.0" encoding="UTF-8"?>
<svg id="SECONDARY" xmlns="http://www.w3.org/2000/svg" viewBox="0 0 1080 1080">
  <defs>
    <style>
      .cls-1 {
        fill: #fff;
      }
    </style>
  </defs>
  <g id="_1_COLOR_LIGHT" data-name="1 COLOR LIGHT">
    <path class="cls-1" d="m838.72,474.04c-.66-1.09-1.75-3.89-2.8-6.74,1.74-7.42,3.56-16.1,4.35-25.62,1.66-20.06,1.04-38.76-1.89-57.16-1.92-12.07-5.45-22.9-8.31-30.98-4.81-13.63-11.82-25.93-13.85-29.38-8.83-14.97-19.73-24.97-30.09-32.15v-61.13h-448.5v142.65c-1.3,1.47-2.54,2.95-3.75,4.45-8.29,10.29-16.29,22.67-23.12,35.79-2.74,5.25-4.78,9.9-6.41,14.58l-.17.47c-1.07,3.07-2.04,5.86-2.99,8.89l-.97,3.09c-.53,1.67-1.06,3.35-1.56,4.97-1.97,6.4-3.03,12.56-3.57,16.6-3.28,24.37-1.18,49.59,5.74,71.82-22.36-3.87-28.2-5.28-34.76-6.12l-42.18-4.58s12.8,23.01,17.69,30.29c17.98,26.77,78.52,102.33,78.52,102.33l7.35,10.67.93,1.08c3.37,3.9,6.5,8.02,9.24,11.85v120.9h125.67c11.69,5.25,24.55,10.25,39.96,15.57,10.61,3.66,21.21,5.32,28.96,6.54l.35.05c1.78.28,3.45.54,4.95.81,6.07,1.12,12.97,1.66,21.1,1.66s16.06-.55,20.11-.88c23.13-1.87,57.46-13.5,67.88-18.04,5.2-2.26,9.17-4.07,12.54-5.72h127.11l-.15-40.74v-146.41c9.21-11.36,17.92-23.4,28.04-40.3,7-11.69,17.18-29,25.26-42.77l16.66-28.38-17.37-27.95Zm-10.01,30.09l-8.71,14.83c-8.05,13.7-18.18,30.93-25.16,42.6-11.27,18.83-20.69,31.22-31.24,43.78v154.5l.05,14.74v3.48s-3.47,0-3.47,0h-106.47c-3.92,2.13-8.55,4.31-16.09,7.6-8.8,3.83-40.79,14.63-60.7,16.24-3.71.3-11.03.8-18.3.8-6.75,0-12.31-.42-17.02-1.29-1.66-.31-3.55-.6-5.55-.92l-.36-.06c-7.29-1.14-16.37-2.57-25.1-5.58-16.7-5.76-30.2-11.11-42.4-16.8h-108.05v-105.44c-3.84-5.63-8.89-12.76-14.73-19.51l-.12-.14-.11-.16-6.87-9.97-69.04-89.98-1.32-1.71.96-1.94c.59-1.2,1.8-1.94,3.16-1.94,1.14,0,2.32,0,50.21,20.72,11.08,4.79,22.15,9.62,30.76,13.37-9.87-12.04-17.86-24.44-24.39-37.84-10.84-22.23-14.94-50.71-11.25-78.15.43-3.19,1.26-8.04,2.78-12.99.51-1.67,1.07-3.42,1.62-5.16l.04-.14.82-2.61c.92-2.93,1.95-5.87,2.77-8.24l.15-.43c1.28-3.67,2.91-7.37,5.13-11.62,6.16-11.82,13.32-22.92,20.69-32.07,2.62-3.25,5.48-6.42,8.73-9.64v-129.06h403.43v51.12c11.26,6.28,23.73,15.01,33.21,31.07,3.65,6.19,8.73,16.12,12.01,25.43,2.54,7.19,5.67,16.76,7.3,27.03,2.64,16.59,3.2,33.52,1.69,51.76-.82,9.94-3.02,19.02-4.95,27.02-.13.52-.27,1.11-.43,1.73.24.68.48,1.35.73,2.03,2.16,6.03,4.19,11.73,6.43,15.33l9.08,14.61,1.11,1.78-1.06,1.81Z"/>
    <path class="cls-1" d="m381.3,565.27c-1.29-1.5-2.56-3.02-3.81-4.55,1.25,1.34,2.52,2.66,3.81,3.97v-63.68c-.71-3.66-1.25-7.33-1.6-10.97-.78-7.95.47-9.55.82-16.21.12-2.22.43-3.14.68-5.1.02-.19.08-.35.1-.53v-61.7c-1.75,1.81-3.43,3.68-4.99,5.62-6.48,8.05-12.35,17.4-17.25,26.81-1.23,2.36-2.42,4.86-3.3,7.4-.89,2.54-1.79,5.13-2.59,7.68-.8,2.55-1.66,5.24-2.43,7.74-.77,2.5-1.32,5.34-1.66,7.87-2.73,20.26-.17,42.52,8.3,59.89,6.91,14.17,14.89,25.28,23.93,35.75Z"/>
    <path class="cls-1" d="m658.21,750.49h70.67v-12h-57.55c-3.6,4.14-7.75,8.04-13.12,12Z"/>
    <path class="cls-1" d="m442.41,739.92c-.69-.48-1.38-.95-2.07-1.43h-45.45v12h64.5c-5.92-3.31-11.41-6.71-16.61-10.31l-.38-.26Z"/>
    <path class="cls-1" d="m530.35,741.13c10.08,2.23,18.04,4,27.25,4,4.4,0,8.99-.4,14.01-1.21,5.97-.97,13.18-2.76,20.75-5.43h-72.78c2.62.73,5.28,1.43,8.03,2.04l2.74.61Z"/>
    <path class="cls-1" d="m394.91,288.47v349.33c5.86,7.13,11.36,14.43,16.75,21.6l2.06,2.74c1.83,2.43,3.64,4.89,5.38,7.26,7.95,10.8,15.46,21.01,25.11,29.21,8.91,7.57,18.54,14.22,29.19,20.18v-307.91l-.62-35.52h10.59v.34h.02l.62,35.32h0s12.83,146.65,12.83,146.65c3.96-1.3,8.07-2.73,12.54-4.32,13.45-4.8,27.35-9.75,43.8-12.67.49-.09.99-.15,1.48-.23l-19.55-251.97h-140.2Z"/>
    <path class="cls-1" d="m394.89,687.97v36.33h27.62c-.7-.69-1.39-1.39-2.07-2.11-9.94-10.67-17.93-22.56-25.55-34.22Z"/>
    <path class="cls-1" d="m622.43,606.48c-2.53-2.35-5.21-4.55-8.06-6.52l-23.93-3.72c-2.41-.37-4.74-.65-7.01-.84-2.28-.18-4.5-.28-6.71-.28-2.62,0-5.25.14-7.96.4v8.26h0v42.97h-11.22v-.34h-.02v-49.16h0c-7.42,1.52-14.66,3.71-22.16,6.1-1.17.37-2.34.75-3.52,1.13-2.65.85-5.37,1.71-8.11,2.57-1.71.53-3.41,1.06-5.15,1.57-5.36,1.58-11,3.23-16.86,4.75l9.7,110.93h100.94l10.07-117.82Z"/>
    <path class="cls-1" d="m722.53,613.71c-1.52,0-3.04-.23-4.64-.7-.18-.05-.37-.11-.55-.17-.12.99-.15,2.05-.08,3.22.02.5.06,1,.09,1.52.14,1.96.29,4.19-.1,6.6-.42,2.88-1.67,5.85-3.6,8.6-1.51,2.16-3.17,3.94-4.78,5.67l-.31.33c-1.66,1.77-2.97,3.27-3.97,4.82-.85,1.31-1.45,2.84-1.93,4.96-.5,2.22-.73,4.55-.86,6.35-.05.56-.1,1.13-.15,1.7-.06.63-.12,1.27-.17,1.92-.15,1.92-.39,3.25-1.29,5.24l-1.5,3.27-.07-.04-.4.84-5.23,10.88-1.12-10.06-8.56,5.41,5.23-10.89,1.97-4.11s.2-.45.38-1.76c.11-.82.2-1.69.29-2.62l.08-.76c.22-2.14.56-4.96,1.26-7.79.78-3.2,1.97-5.97,3.51-8.21,1.61-2.38,3.47-4.34,5.24-6.15,3.26-3.3,5.8-6.07,6.33-9.18v-.04s.01-.04.01-.04c.24-1.25.17-2.75.1-4.48-.02-.53-.05-1.07-.06-1.59-.09-2.44.12-4.75.61-6.87-3.94-3.32-5.99-5.89-8.07-10.66-.29-.66-.31-1.5-.49-2.36s-.37-1.77-.56-2.71c-.24-1.19-.49-2.42-.73-3.63-.2-1.02-.4-2.02-.58-2.97-.11-.59-.22-1.17-.32-1.71-.05-.27-.1-.54-.14-.79,0,0,0,0,0-.01-.2-1.14-.39-2.27-.58-3.4-.06-.34-.11-.69-.17-1.03-.14-.82-.27-1.63-.4-2.44-.06-.37-.12-.74-.18-1.1-.16-1.01-.32-2.02-.47-3.02-.02-.12-.04-.24-.06-.36-.16-1.08-.32-2.15-.48-3.22-.05-.38-.11-.76-.16-1.14-.11-.74-.21-1.49-.31-2.23-.05-.4-.11-.81-.16-1.21-.12-.88-.23-1.76-.34-2.64-.04-.28-.07-.56-.11-.85-.12-1.01-.24-2.02-.35-3.03-.05-.42-.09-.84-.14-1.26-.08-.71-.15-1.42-.22-2.14-.04-.45-.09-.89-.13-1.34-.08-.82-.15-1.64-.23-2.46-.03-.38-.07-.77-.1-1.15-.08-1.01-.16-2.02-.24-3.04-.03-.46-.07-.93-.1-1.39-.05-.72-.1-1.44-.14-2.17-.03-.49-.06-.97-.09-1.46,0-.15-.02-.31-.02-.46-.02-.35-.04-.71-.06-1.06-.02-.33-.04-.66-.05-.99-.02-.36-.04-.72-.06-1.09-.26-5.5-.39-11.28-.37-17.51.03-11.35,1.18-26.58,2.2-40.02.23-3.07.46-6.02.65-8.79l.54-7.47,7.07-2.47c5.29-1.85,11.15-4.41,16.81-6.89,2.14-.93,4.21-1.84,6.18-2.68,1.41-.6,2.63-1.14,3.76-1.68v-163.1h-137.69l-10.15,130.8-9.28,119.66h0c.61-.01,1.22-.04,1.84-.04,10.72,0,21.7,1.46,32.63,4.35,7.24,1.91,14.27,4.38,20.99,7.33l11.94-139.68,1.25-35.52h10.59v.34s.02,0,.02,0h0l-.62,35.52v26.19h0v286.89h0s78.5,0,78.5,0v-112.07c-2.02,1-3.98,1.37-5.61,1.46-.25.01-.5.02-.74.02Z"/>
    <path class="cls-1" d="m792.47,502.79c-6.13-9.86-9.09-21.92-13.58-32.55.48-1.75,1.25-4.19,1.66-5.83.4-1.64.96-3.74,1.25-4.95,1.83-7.56,3.57-14.76,4.19-22.27,1.24-14.98.94-29.41-1.4-44.1-1.17-7.34-3.53-14.78-5.88-21.42-2.35-6.65-6.35-14.66-9.4-19.83-6.12-10.38-14.28-15.7-23.6-20.69-1.08-.58-2.16-1.1-3.24-1.6v37.57c2.75,3.43,4.96,7.22,6.69,11.33.49,1.12.95,2.25,1.34,3.4,0,0,0,0,0,0,.58,1.68,1.05,3.41,1.44,5.17,4.27,17.82,1.08,40.33-8.48,65.67-.42,1.12-.44,1.56-.77,2.48-.33.92-.51,1.55-.79,2.41-4.35,2.49-7.37,4.05-12.34,6.17-7.22,3.07-15.9,7.12-23.69,9.84-1.02,14.17-2.68,33.32-2.81,46.79,0,.48,0,.97,0,1.44,0,.04,0,.09,0,.13,0,1.03,0,2.04,0,3.05,0,.36,0,.74,0,1.1.01,1.35.03,2.67.05,3.98,0,.01,0,.03,0,.05.05,2.61.13,5.16.24,7.66,0,.03,0,.06,0,.09h0s0,0,0,0c.68,15.18,2.42,28.6,5.21,44.62.66,3.79,1.89,9.7,2.75,13.8.35,1.68,1.16,2.54,2.75,3.14,2.04.77,4.93,1.73,7,2.34.52.15,1,.24,1.43.24.92,0,1.68-.37,2.46-1.2,3.07-3.33,7.34-7.96,10.07-11.14,12.91-15.04,21.77-26.71,32.41-44.49,7.09-11.84,17.44-29.46,25.02-42.37Zm-78.97,83.71h0s-.02.05-.02.05c0-.08,0-.16,0-.24,0-.03-.01-.07-.01-.1-.15-1.75.8-3.6,2.08-4.86,0,.12,0,.23,0,.35,0,0,0,0,.01-.01v.03c.04,2.82.07,5.64.1,8.48-1.15-1.02-1.95-2.11-2.16-3.7Zm4.66-84.14l-.04.08c-1.04,9.5-1.64,18.94-1.94,28.61-3.47-3.57-5.45-6.86-5.68-12.3h0s0,.02,0,.02c0-.02,0-.05,0-.07,0,0,0,0,0,0,0-.09-.02-.18-.02-.27-.16-5.64,3.48-12.23,7.69-16.46-.01.13-.02.27-.04.4.02-.02.04-.04.05-.06,0,0,0,0,0,0l-.02.05Zm9.97,88.75c-1.01,1.41-2.26,1.82-3.81,1.99,1.49-2.45,2.99-4.89,4.49-7.31.43,1.74.34,3.91-.67,5.32Zm25.22-47.92c4.65-8.32,9.36-16.52,14.12-24.64.85,5.74-.06,13.12-3.02,17.7-2.96,4.57-6.32,6.12-11.1,6.94Z"/>
    <path class="cls-1" d="m640,737.9c-.4-.07-1.16-.41-1.51-.63-.33-.2-.88-.77-1.09-1.09-.23-.34-.56-1.11-.63-1.51-.35-2.1,0-8.53,0-8.53-.25.23-.51.49-.76.71-17.21,15.14-42.78,25.09-62.57,28.31-5.88.96-11.05,1.36-15.84,1.36-11.33,0-20.6-2.26-32.44-4.87-16.84-3.7-31.47-9.88-46.62-17.3-15.16-7.43-28.91-16.19-41.7-27.05-12.95-11.01-22.07-24.8-32.22-38.3-10.16-13.5-20.28-27.25-32.27-39.38-11.99-12.13-25.45-21.98-40.13-30.65-.12.2-.21.39-.3.56,13.96,9.5,26.61,19.91,37.67,32.7,11.06,12.79,19.85,26.69,29.16,40.84,9.3,14.15,18.34,28.82,30.03,41.38,5.87,6.31,13.29,11.41,20.49,16.39,7.19,4.98,14.83,9.46,22.74,13.54,15.8,8.15,32.33,14.55,49.01,20.31,8.32,2.87,18.65,3.91,26.38,5.34,3.07.57,7.12.76,11.23.76,6.24,0,12.58-.45,15.73-.7,14.9-1.2,43.03-10.43,50.52-13.69,14.97-6.52,16.78-7.96,25.73-14.42,1.9-1.37,3.58-2.71,5.16-4.06,0,0-11.9.67-15.79,0Z"/>
    <path class="cls-1" d="m568.18,408.67l3.02-38.93c-5.28,1.39-10.19,2.01-15.31,3.27-.2.05-.38.1-.57.15l2.97,38.27c3.36-.92,6.65-1.84,9.89-2.77Z"/>
    <path class="cls-1" d="m487,572.38v32.36c9.64-1.92,19.09-4.65,28.34-7.37,14.07-4.14,27.18-9.19,41.34-11.92,7.02-1.35,13.49-2.05,20.02-2.05,5.02,0,10.08.41,15.47,1.25-15.71-5.99-31.11-8.5-47.51-8.5-2,0-4,.04-6.03.11,8.46-1.77,17.06-2.69,25.58-2.69,27,0,53.17,9.24,71.54,29.91.38.42.69.78,1.01,1.15v-36.28c-10.49-6.31-21.95-11.06-33.47-14.1-10.07-2.66-20-3.97-29.72-3.97-6.24,0-12.38.54-18.43,1.61-15.45,2.74-28.61,7.43-41.97,12.19-9.29,3.31-17.59,6.19-26.2,8.31Z"/>
    <path class="cls-1" d="m703.74,634.24c-1.67,1.71-3.39,3.53-4.84,5.66-1.47,2.14-2.43,4.7-3.01,7.09-.61,2.44-.94,4.91-1.18,7.32-.12,1.2-.23,2.38-.38,3.5-.14,1.06-.36,2.1-.67,2.76l-1.99,4.14,3.03-1.92.4,3.57,1.93-4.01h.02c.69-1.51.87-2.44.99-4.07.1-1.26.22-2.45.32-3.63.18-2.35.44-4.63.94-6.83.51-2.25,1.21-4.24,2.4-6.08,1.2-1.85,2.72-3.57,4.35-5.3,1.62-1.74,3.32-3.53,4.78-5.61,1.45-2.06,2.64-4.52,3.02-7.14.43-2.62.07-5.13-.03-7.43-.14-2.31.03-4.51.68-6.64l-2.4-.77c-.81,2.43-1.05,5.05-.96,7.51.07,2.45.31,4.75-.09,6.86-.72,4.27-3.95,7.67-7.28,11.04Z"/>
  </g>
</svg>