<?xml version="1.0" encoding="UTF-8"?>
<svg id="Layer_2" xmlns="http://www.w3.org/2000/svg" xmlns:xlink="http://www.w3.org/1999/xlink" viewBox="0 0 442.12 722.26" width="442" height="722">
  <defs>
    <style>
      .cls-1 {
        fill: none;
      }

      .cls-2 {
        fill: url(#linear-gradient);
      }

      .cls-3 {
        clip-path: url(#clippath-1);
      }

      .cls-4 {
        clip-path: url(#clippath-3);
      }

      .cls-5 {
        clip-path: url(#clippath-4);
      }

      .cls-6 {
        clip-path: url(#clippath-2);
      }

      .cls-7 {
        fill: #ffd200;
      }

      .cls-8 {
        fill: #004b37;
      }

      .cls-9 {
        fill: #fff;
      }

      .cls-10 {
        clip-path: url(#clippath);
      }
    </style>
    <clipPath id="clippath">
      <rect class="cls-1" x="14.15" y="10.34"/>
    </clipPath>
    <clipPath id="clippath-1">
      <rect class="cls-1" x="14.15" y="10.34"/>
    </clipPath>
    <clipPath id="clippath-2">
      <polygon class="cls-1" points="54.44 31.69 54.44 63.42 38.58 111.03 54.44 126.9 54.44 174.5 86.18 206.24 86.18 222.1 117.92 269.71 117.92 285.58 165.52 349.05 165.52 396.65 213.12 396.65 292.47 444.26 292.47 475.99 403.54 460.13 403.54 380.78 197.26 174.5 197.26 31.69 54.44 31.69"/>
    </clipPath>
    <linearGradient id="linear-gradient" x1="-4073.51" y1="-1418.5" x2="-4072.91" y2="-1418.5" gradientTransform="translate(2948031.89 -1026321.1) scale(723.71 -723.71)" gradientUnits="userSpaceOnUse">
      <stop offset="0" stop-color="#ffd200"/>
      <stop offset=".21" stop-color="#ffd200"/>
      <stop offset=".52" stop-color="#ea6cb4"/>
      <stop offset="1" stop-color="#ea6cb4"/>
    </linearGradient>
    <clipPath id="clippath-3">
      <polygon class="cls-1" points="54.44 31.69 54.44 63.42 38.58 111.03 54.44 126.9 54.44 174.5 86.18 206.24 86.18 222.1 117.92 269.71 117.92 285.58 165.52 349.05 165.52 396.65 213.12 396.65 292.47 444.26 292.47 475.99 403.54 460.13 403.54 380.78 393.86 123.32 197.26 136.58 197.26 31.69 54.44 31.69"/>
    </clipPath>
    <clipPath id="clippath-4">
      <rect class="cls-1" x="14.15" y="10.34"/>
    </clipPath>
  </defs>
  <g id="PAGE4">
    <g id="WLL_x5F_CAL_x5F_SEC_x5F_FC">
      <g class="cls-10">
        <g class="cls-3">
          <path class="cls-7" d="M271.11,456.35l-63.9-38.34h-63.04v-61.84l-47.6-63.47v-16.52l-31.74-47.6v-13.49l-31.74-31.74v-47.6l-18.94-18.95,18.94-56.84V10.34h185.52v146.81c6.3,2.81,11.94,6.18,16.87,10.09,3.56-5.75,8.25-11.55,14.04-17.33,17.46-17.44,37.98-21.1,52.11-21.1,13.21,0,22.74,3.16,23.14,3.29l24.68,8.31-25.2,6.56c-.15.04-15.31,4.02-26.7,9.43-.46.22-.93.46-1.41.73l12.05,2.8c3.43-.49,6.93-.73,10.48-.73.53,0,1.07,0,1.61.02,31.21.64,47.83,15.96,56.27,28.69,9.05,13.66,10.69,27.23,10.76,27.8l2.46,21.47-15.56-15c-.08-.07-7.46-7.09-19.78-14.48l1.63,6c14.49,9.58,23.38,24.46,25.85,43.45,2.05,15.81,1.98,15.04-1.26,29.51-1.03,4.59-7.12,17.42-7.12,17.42,0,0-4.25-12.85-6.09-18.54-.03-.1-4.52-10.54-10.54-18.54-.86,1.73-1.63,2.99-1.98,3.53l-9.4,14.57-4.61-16.71s2.6-2.8,1.73-4.96l2.87,21.67s-6.45-15.28-9.81-19.37c-8.41-10.27-16.09-13.02-16.09-13.02-.21-.22,3,2.13,0,0,2.71,3.16,5.34,6.69,7.85,10.64,3.94,6.21,6.84,12.86,8.61,19.78l88.8,88.8v106.7l-153.78,21.97v-44.27Z"/>
          <path class="cls-8" d="M329.05,287.08c-1.41-6.43-3.98-13.02-8.13-19.56-11.86-18.69-26.76-27.26-38.68-31.16,5.65-1.12,14.52-1.85,24.18,1.3,16.39,5.34,23.82,13.94,23.82,13.94,0,0-.86-7.27-3.32-11.55-.62-1.08-1.2-2.02-1.74-2.83,3.62,1.46,7.83,3.6,10.34,6.35,9.43,10.33,12.86,22.76,12.86,22.76,0,0,4.99-7.73,3.98-13.63-.33-1.95-.88-3.34-1.46-4.34,2.38,2.4,6.37,6.66,11.53,13.13,7.66,9.61,10.67,23.32,10.67,23.32,0,0,11.95-48.41-27.07-67.93-21.8-10.9-44.59-7.57-60.47-2.51,3.07-3.88,6.27-6.85,9.42-8,13.89-5.12,23.44-1.76,23.44-1.76,0,0-2.62-4.54-9.66-7.08-1.95-.7-3.6-1.17-5-1.46,4.15-.53,10.23-.69,18.94.32,14.64,1.69,23.29,9.89,23.29,9.89,0,0-2.63-9.68-8.52-13.52-1.02-.67-1.93-1.24-2.75-1.75,4.15.83,10.51,2.71,18.39,7,16.55,9.01,26.49,18.58,26.49,18.58,0,0-5.55-48.51-59.48-49.61-25.73-.53-43.84,12.96-56.16,28.68.56-3.99,2.04-8.1,4.92-12.08,11.73-16.18,24.76-19.06,24.76-19.06,0,0-9.13-2.13-17.13.12-.34.1-.66.19-.97.29,4.43-5.09,11.39-12.08,18.67-15.54,12.23-5.81,28.08-9.93,28.08-9.93,0,0-38.37-12.93-67.28,15.94-9.41,9.4-14.58,17.65-17.29,24.52-5.45-6.05-13.91-12.66-26.87-17.57V18.1H40.86v43.12l-17.83,53.48,17.83,17.83v47.6l31.74,31.74v14.35l31.74,47.6v16.28l47.6,63.47v56.66h57.43l69.52,41.71v39.71l138.25-19.75v-96.75l-88.08-88.08Z"/>
          <polygon class="cls-8" points="278.88 451.95 209.36 410.24 151.93 410.24 151.93 353.58 104.33 290.11 104.33 273.82 72.59 226.22 72.59 211.86 40.86 180.13 40.86 132.52 23.03 114.7 40.86 61.22 40.86 18.1 210.84 18.1 210.84 168.87 417.13 375.16 417.13 471.91 278.88 491.66 278.88 451.95"/>
        </g>
        <g class="cls-6">
          <rect class="cls-2" x="-16.15" y="52.69" width="474.42" height="402.3" transform="translate(-51.08 451.93) rotate(-85)"/>
          <path class="cls-9" d="M220.08,307.45l2.17,2.79c3.38,4.33,8.47,6.82,13.97,6.82,3.94,0,7.68-1.27,10.81-3.69l2.8-2.16,1.41,3.24c2.82,6.46,9.19,10.63,16.24,10.63,2.41,0,4.76-.48,6.98-1.44l3.25-1.39.56,3.49c1.39,8.63,8.74,14.89,17.47,14.89.91,0,1.83-.07,2.73-.21l3.49-.54-.32,3.52c-.89,9.67,6.26,18.3,15.92,19.24l3.52.34-1.19,3.33c-3.26,9.14,1.51,19.28,10.63,22.6l3.32,1.21-1.98,2.93c-5.43,8.05-3.33,19.05,4.68,24.53l2.92,2-2.65,2.35c-7.26,6.44-7.97,17.62-1.57,24.92l2.33,2.66-3.15,1.61c-8.64,4.43-12.1,15.09-7.72,23.75l1.6,3.15-3.45.78c-9.47,2.15-15.47,11.6-13.38,21.09l.76,3.45-3.54-.1c-.17,0-.34,0-.51,0-9.59,0-17.37,7.51-17.69,17.1l-.12,3.53-3.4-.98c-1.6-.46-3.24-.69-4.9-.69-7.8,0-14.79,5.23-16.99,12.72l-1,3.39-3.05-1.79c-2.72-1.6-5.82-2.44-8.96-2.44-6.22,0-12.05,3.32-15.23,8.65l-1.81,3.04-2.51-2.49c-3.34-3.32-7.78-5.15-12.49-5.15s-9.15,1.83-12.49,5.15l-2.51,2.49-1.81-3.04c-3.18-5.34-9.01-8.65-15.23-8.65-3.14,0-6.24.84-8.96,2.44l-3.05,1.79-1-3.39c-2.2-7.49-9.19-12.72-16.99-12.72-1.65,0-3.3.23-4.9.69l-3.4.98-.12-3.53c-.33-9.59-8.1-17.1-17.69-17.1-.17,0-.34,0-.51,0l-3.53.1.76-3.45c2.09-9.48-3.91-18.94-13.38-21.09l-3.45-.78,1.6-3.15c4.38-8.66.92-19.32-7.72-23.75l-3.15-1.61,2.33-2.66c6.4-7.3,5.7-18.48-1.57-24.92l-2.64-2.35,2.92-2c8.01-5.48,10.11-16.49,4.68-24.53l-1.98-2.93,3.32-1.21c9.13-3.32,13.9-13.45,10.63-22.6l-1.19-3.33,3.52-.34c9.66-.94,16.8-9.57,15.92-19.24l-.32-3.52,3.49.54c.9.14,1.82.21,2.73.21,8.73,0,16.08-6.26,17.47-14.89l.56-3.49,3.25,1.39c2.22.95,4.57,1.44,6.98,1.44,7.05,0,13.42-4.17,16.24-10.63l1.41-3.24,2.8,2.16c3.13,2.41,6.86,3.69,10.81,3.69,5.5,0,10.59-2.48,13.97-6.82l2.17-2.79ZM220.08,296.87l-7.31,9.36c-2.21,2.83-5.51,4.31-8.84,4.31-2.39,0-4.8-.76-6.83-2.33l-9.4-7.25-4.75,10.88c-1.84,4.21-5.95,6.73-10.27,6.73-1.48,0-2.97-.29-4.41-.91l-10.91-4.68-1.89,11.72c-.89,5.5-5.64,9.42-11.05,9.42-.57,0-1.15-.04-1.73-.13l-11.73-1.82,1.08,11.83c.56,6.14-3.94,11.57-10.07,12.17l-11.82,1.15,3.99,11.19c2.07,5.8-.93,12.19-6.73,14.29l-11.16,4.05,6.65,9.84c3.45,5.11,2.13,12.04-2.96,15.52l-9.8,6.7,8.88,7.88c4.61,4.09,5.05,11.13.99,15.77l-7.83,8.93,10.57,5.42c5.48,2.81,7.66,9.53,4.88,15.02l-5.36,10.6,11.58,2.62c6.01,1.36,9.79,7.32,8.46,13.34l-2.56,11.6,11.87-.34c.11,0,.22,0,.33,0,6.01,0,10.98,4.77,11.19,10.82l.41,11.87,11.41-3.28c1.03-.3,2.07-.44,3.1-.44,4.85,0,9.31,3.17,10.74,8.05l3.35,11.39,10.24-6.02c1.78-1.05,3.74-1.55,5.66-1.55,3.82,0,7.54,1.96,9.64,5.47l6.07,10.2,8.42-8.37c2.19-2.17,5.04-3.26,7.9-3.26s5.71,1.09,7.9,3.26l8.42,8.37,6.07-10.2c2.1-3.52,5.82-5.47,9.64-5.47,1.93,0,3.88.5,5.66,1.55l10.24,6.02,3.35-11.39c1.43-4.88,5.9-8.05,10.74-8.05,1.02,0,2.07.14,3.1.44l11.41,3.28.41-11.87c.21-6.05,5.18-10.82,11.19-10.82.11,0,.22,0,.33,0l11.87.34-2.56-11.6c-1.33-6.02,2.46-11.98,8.46-13.34l11.58-2.62-5.36-10.6c-2.78-5.5-.6-12.21,4.88-15.02l10.57-5.42-7.83-8.93c-4.06-4.63-3.62-11.68.99-15.77l8.89-7.88-9.8-6.7c-5.09-3.48-6.41-10.41-2.96-15.52l6.65-9.84-11.16-4.05c-5.79-2.1-8.8-8.49-6.73-14.29l3.99-11.19-11.82-1.15c-6.13-.6-10.63-6.04-10.07-12.17l1.08-11.83-11.73,1.82c-.58.09-1.16.13-1.73.13-5.4,0-10.16-3.92-11.05-9.42l-1.89-11.72-10.91,4.68c-1.44.62-2.94.91-4.41.91-4.32,0-8.44-2.52-10.27-6.73l-4.75-10.88-9.4,7.25c-2.04,1.57-4.44,2.33-6.83,2.33-3.33,0-6.63-1.48-8.84-4.31l-7.31-9.36Z"/>
        </g>
        <g class="cls-4">
          <path class="cls-8" d="M249.53,257.63l9.53-.2s9.07.46,14.74,10.93c2.32,4.29,4.28,11.85,4.28,11.85,0,0,3.47-5.77,3.29-10.17-.18-4.4-3.26-6.41-3.26-6.41,0,0,10.95,11.78,14.23,23.97,3.28,12.19,2.43,24.1,2.43,24.1,0,0,8.46-10.45,8.36-15.46-.11-5.01-6.56-7.24-6.56-7.24,0,0,10.84,9.29,16.84,28.21,5.27,16.62,3.38,26.66,3.38,26.66,0,0,27.81-39.06,4.14-76.37-23.68-37.31-59.46-34.29-59.46-34.29l-11.93,24.41Z"/>
          <path class="cls-8" d="M275.92,238.12s14.11-5.8,30.5-.46c16.39,5.34,23.82,13.94,23.82,13.94,0,0-.86-7.27-3.32-11.55-7.43-12.95-8.6-5.13-8.6-5.13,0,0,12.1,3.06,17.2,8.65,9.43,10.33,12.86,22.76,12.86,22.76,0,0,4.99-7.73,3.98-13.63-1.01-5.9-3.97-6.74-3.97-6.74,0,0,5.35,4.64,14.04,15.54,7.66,9.61,10.67,23.32,10.67,23.32,0,0,11.95-48.41-27.07-67.93-39.03-19.52-81.23,6.57-81.23,6.57l-1.2,13,12.32,1.66Z"/>
          <path class="cls-8" d="M266.75,249.96s14.69-38.59,28.24-43.59c13.89-5.12,23.44-1.76,23.44-1.76,0,0-2.62-4.54-9.66-7.08-12.87-4.63-12.97.88-12.97.88,0,0,5.58-4.49,26.9-2.02,14.64,1.69,23.29,9.89,23.29,9.89,0,0-2.63-9.68-8.52-13.52-13.9-9.07-8.07-2.4-8.07-2.4,0,0,9.36-.15,23.71,7.65,16.55,9.01,26.49,18.58,26.49,18.58,0,0-5.55-48.51-59.48-49.61-60.76-1.25-79,75.64-79,75.64l25.63,7.33Z"/>
          <path class="cls-8" d="M271.39,222.22s-15.51-20.69-2.51-38.63c11.73-16.18,24.76-19.06,24.76-19.06,0,0-9.13-2.13-17.13.12-10.12,2.84-5.84,6.33-5.84,6.33,0,0,11.31-15.78,23.53-21.58,12.23-5.8,28.08-9.93,28.08-9.93,0,0-38.37-12.93-67.28,15.94-28.91,28.87-17.88,47-17.88,47l-3.36,39.32,9.45,6.4,13.99-10.96,14.18-14.94Z"/>
          <path class="cls-8" d="M247.13,195.84s-5.84-24.99-43.66-35.96c-37.82-10.97-56.46,11.93-56.46,11.93,7.56-1.36,15.36-.37,22.34,2.85-9.29,2.7-17.31,8.63-22.6,16.74l-1.39,2.13s13.59-8.61,39.04-6.42c25.44,2.19,31.55,12.82,31.55,12.82,0,0-31.93-10.66-58.59,4.39-26.66,15.05-27.77,45.08-27.77,45.08,0,0,15.35-19.14,34.44-25.89,19.09-6.74,24.94-7.54,24.94-7.54,0,0-2.02-2.21-7.59,4.03-1.89,2.12-3.05,7.19-3.05,7.19,0,0,13.28-9.36,31.38-6.05,18.1,3.32,18.93,7,18.93,7,0,0-40.23-10.54-76.34,20.13-28.94,24.58-7.7,51.52-7.7,51.52,0,0-.14-14.12,5.53-23.38,5.76-9.4,9.82-11.05,9.82-11.05,0,0-3.01-2.41-2.81,6.86.09,4.43,4.07,9.39,4.07,9.39,0,0-.63-10.27,9.09-19.83,8.4-8.26,12.88-10.96,12.88-10.96,0,0-8.23-1-8.36,7.96-.05,3.26,1.49,5.99,1.49,5.99,0,0,2.6-9.75,12.48-13.71,9.87-3.95,16.4-.71,16.4-.71,0,0-22.17,1.78-27.82,30.66-4.49,22.95,18.88,39.54,18.88,39.54,0,0-6.35-23.67-4.17-34.02,2.87-13.68,7.27-14.21,7.27-14.21,0,0-6.34-2.64-5.73,6.72.77,11.9,14.96,19.85,14.96,19.85,0,0-3.18-11.26-3.29-13.29-.31-5.6.08-5.33.58-7.39.72-2.95,2.51-7.61,9.59-10.88-.03.1-.05.2-.08.3-3.33,12.42-1.39,25.65,5.46,36.54l2.46,3.91-.83-10.99c-.72-9.53,2.07-18.97,7.77-26.64.04-.06.09-.12.14-.18l8.55-11.56,12.74-48.55-4.52-14.32Z"/>
          <polygon class="cls-8" points="229.46 721.75 235.86 235.18 262.91 235.69 256.51 722.26 229.46 721.75"/>
        </g>
        <g class="cls-5">
          <polygon class="cls-9" points="286.81 400.53 290.06 410.54 300.58 410.54 292.07 416.72 295.32 426.72 286.81 420.54 278.3 426.72 281.55 416.72 273.04 410.54 283.56 410.54 286.81 400.53"/>
        </g>
      </g>
    </g>
  </g>
</svg>