<?xml version="1.0" encoding="UTF-8"?>
<svg id="Layer_2" xmlns="http://www.w3.org/2000/svg" viewBox="0 0 128.6 114.27">
  <defs>
    <style>
      .cls-1 {
        fill: #fff;
      }
    </style>
  </defs>
  <g id="PAGE2">
    <g id="WLL_x5F_CAL_x5F_PRI_x5F_1C_x5F_LT">
      <g>
        <path class="cls-1" d="M127.98,0H.62L.15,5.32c-.09.96-1.95,23.91,10.48,54.7,2.66,6.6,6.52,13.51,11.45,20.52,3.89,5.53,8.46,11.16,13.59,16.72,8.71,9.45,15.99,15.44,16.29,15.69l1.61,1.32h21.47l1.61-1.32c.31-.25,7.58-6.24,16.29-15.69,5.13-5.56,9.7-11.19,13.59-16.72,4.93-7.02,8.78-13.92,11.45-20.52,12.43-30.79,10.56-53.73,10.48-54.7l-.47-5.32ZM73.41,108.24h-17.05c-.4-.33-2.02-1.7-4.42-3.89l13.07-12.66,12.95,12.54c-2.47,2.27-4.15,3.68-4.55,4.01M122.35,20.78c-.66,6.05-2.09,14.59-5.13,24.6-1.13-3.89-3.49-7.17-7.25-9.71-1.78-1.17-3.68-2.69-3.75-4.98-.05-1.68,1.34-3.04,3.03-2.9,2.45.21,4.36,1.64,6.08,3.31.63-2.39,1.26-4.79,1.88-7.18-2.12-2.59-4.54-4.22-7.98-4.23-6.02-.01-8.51,6.07-8.39,11.21.14,6.08,3.1,10.01,7.91,13.5,1.88,1.38,3.92,3.39,3.91,5.87,0,1.95-1.27,3.54-3.35,2.84-2.92-.97-5.06-3.03-6.71-5.61-.77,1.99-1.55,3.97-2.34,5.95,2.21,3.49,5.24,6.23,9.08,7.76.64.26,1.24.42,1.79.51-2.34,4.98-5.38,10.15-9.07,15.4-3.73,5.31-8.13,10.72-13.07,16.08-.79.85-1.56,1.68-2.33,2.48-.59-.83-.47-1.98.31-2.67l1.59-1.41-1.76-1.2c-.91-.62-1.15-1.87-.53-2.79l1.19-1.77-1.21-.44c-.31.31-.64.6-1,.88l.4.15-.36.53c-.98,1.44-.6,3.42.84,4.4l.52.36-.47.42c-1.28,1.13-1.42,3.08-.35,4.39-1.91,1.98-3.71,3.75-5.32,5.28l-12.99-12.58,15.34-14.86c.18.39.36,1.06.09,1.95-.06.19-.15.4-.24.61-.04.08-.08.16-.12.24-.04.08-.08.15-.11.22-.13.24-.22.4-.22.4,0,0,.12-.03.29-.09.2-.07.46-.18.69-.33.03-.02.06-.04.09-.07.06-.05.12-.09.16-.15.14-.15.21-.3.26-.44-.07.69-.28,2.04-.87,3.05-.49.84-1.1,1.54-1.51,1.97-.02.02-.04.04-.06.07-.25.25-.41.39-.41.39,0,0,1.67-.17,2.16-.62-.12.74-.39,1.74-.96,2.83-.1.19-.2.36-.29.53-.52.89-1.03,1.47-1.38,1.81-.28.28-.47.4-.47.4,0,0,2.39-.4,4.5-2.06.42-.33.83-.71,1.21-1.15.09-.11.19-.22.28-.34.04-.06.09-.12.13-.18.57-.79,1.02-1.73,1.28-2.87.63-2.8.06-4.95-.67-6.4.62.42,1.5,1.17,2.09,2.34.57,1.12.78,2.08.86,2.7,0,.03,0,.07.01.1,0,.06.01.13.02.18,0,.03,0,.06,0,.08,0,.05,0,.1,0,.14,0,.17,0,.26,0,.26,0,0,.11-.14.25-.35.18-.27.41-.66.5-1.01.04-.16.08-.29.1-.42.2.47.38,1.05.36,1.53-.09,1.81-.92,3.26-.92,3.26,0,0,1.17-.25,1.62-.88.15-.21.23-.39.26-.53,0,.44-.03,1.19-.15,2.26-.07.59-.25,1.18-.45,1.68-.03.08-.07.16-.1.24-.31.7-.62,1.19-.62,1.19,0,0,4.71-2.82,4.06-7.47-.06-.39-.15-.8-.29-1.22-.99-3-3.38-4.79-5.29-5.79.64-.07,1.2-.05,1.6.13.22.1.42.21.6.32.09.05.18.11.26.17.08.06.16.11.24.17.04.03.07.06.11.08.11.08.2.17.29.25.09.08.17.16.24.24.05.05.09.1.13.15.1.12.19.23.25.32.13.18.18.3.18.3,0,0,.18-.66-.23-1.53-.11-.24-.22-.44-.32-.59.43.33,1,.88,1.7,1.77.22.28.4.56.55.84.1.18.18.36.26.53.4.94.41,1.67.41,1.67,0,0,.14-.25.28-.6,0-.02.02-.05.03-.07.02-.05.03-.1.05-.15.05-.16.09-.33.12-.5.03-.23.04-.47,0-.69-.03-.16-.06-.29-.09-.41.3.46.71,1.21,1.04,2.33.11.37.2.72.28,1.05.12.54.21,1.02.28,1.45.15,1,.16,1.63.16,1.63,0,0,1.32-1.65,1.5-4.02.04-.51.03-1.06-.07-1.63-.06-.36-.15-.72-.27-1.1-.02-.07-.05-.15-.08-.22-.06-.15-.12-.3-.19-.45-.07-.15-.14-.31-.22-.46-.37-.69-.87-1.4-1.55-2.11-2.3-2.41-5.2-2.84-7.77-2.54.42-.31.93-.55,1.56-.65.08-.01.16-.02.24-.03,1.24-.16,2.21,0,2.85.19.08.02.16.05.23.07.25.08.43.17.55.23.1.05.15.08.15.08,0,0-.11-.17-.29-.41-.03-.04-.06-.07-.09-.11-.02-.02-.03-.04-.05-.06-.03-.04-.07-.08-.11-.12-.02-.02-.04-.04-.06-.06-.04-.04-.08-.09-.12-.13-.09-.09-.18-.17-.28-.26-.17-.15-.36-.29-.57-.4-.04-.02-.08-.04-.12-.06.87-.06,2.15-.06,3.13.3.31.11.63.24.93.37.05.02.1.05.15.07.15.07.3.14.45.21s.29.14.43.21c.09.05.18.09.27.13.13.07.25.13.37.19.53.28.88.49.88.49,0,0-.11-.23-.34-.58-.05-.08-.1-.16-.16-.24-.08-.11-.17-.24-.27-.37-.17-.23-.38-.47-.61-.73-.07-.07-.14-.15-.21-.22-.04-.04-.07-.07-.11-.11-.07-.07-.15-.15-.23-.22-.12-.11-.25-.22-.38-.33-1.23-1.02-2.98-1.92-5.29-1.93-1.72,0-2.95.27-3.83.65.07-1.24-.17-2.94-1.29-4.98-.08-.14-.15-.28-.23-.41-.2-.33-.4-.62-.61-.9-.08-.11-.17-.21-.25-.31-.13-.15-.26-.29-.39-.43-.09-.09-.17-.17-.26-.26-.04-.04-.09-.08-.13-.12-.09-.08-.18-.15-.26-.22-.13-.11-.26-.2-.39-.3-.09-.06-.17-.12-.26-.17-.22-.14-.43-.26-.64-.36-1.55-.76-2.82-.63-2.82-.63.15.11.3.22.44.35.42.37.77.81,1.03,1.29.12.22.22.44.31.68-.07-.04-.14-.07-.21-.11-.56-.28-1.16-.45-1.77-.52-.23-.02-.46-.03-.69-.03-.08,0-.15,0-.23.01-.23.02-.46.05-.69.1l-.32.07s2.03.46,4.16,3c2.12,2.54,1.7,4.07,1.7,4.07,0,0-1.04-2.11-3.11-3.65-.04-.03-.09-.07-.13-.1-.22-.16-.46-.32-.71-.46-.2-.12-.4-.22-.62-.33-.11-.05-.21-.1-.32-.14-.28-.12-.56-.22-.86-.3-.36-.1-.71-.17-1.05-.21-.34-.04-.67-.05-.99-.04-.85.02-1.61.21-2.27.45-1.47.54-2.38,1.38-2.38,1.38,0,0,1.36-.15,2.97.08.46.06.94.16,1.41.29.39.11.78.25,1.15.43,1.29.62,2.05,1.04,2.48,1.29-.14-.02-.33-.03-.58-.02-.02,0-.05,0-.07,0-.05,0-.1.02-.15.03-.03,0-.05.02-.08.03-.05.02-.11.04-.16.06-.05.02-.1.04-.15.07s-.09.05-.13.07c-.12.06-.2.11-.2.11,0,0,.1.02.27.07.12.03.28.08.46.15.07.03.15.06.23.09.2.09.42.2.65.33.14.08.28.17.42.27.48.34.97.8,1.39,1.41,1.35,1.97,1.09,2.38,1.09,2.38,0,0-.76-1.32-2.4-2.63-.19-.15-.4-.31-.61-.46-.11-.08-.22-.15-.33-.23-.17-.11-.35-.22-.54-.33-.12-.07-.25-.14-.38-.21-.13-.07-.26-.14-.4-.2-.2-.1-.42-.19-.63-.28-.22-.09-.44-.17-.68-.25-.16-.05-.31-.1-.48-.15-.08-.02-.16-.05-.24-.07-.25-.07-.5-.13-.76-.18-.09-.02-.18-.03-.26-.05-.36-.06-.72-.11-1.11-.14-2.53-.21-3.9.86-4.63,1.94-.27.4-.45.79-.57,1.13-.08.23-.14.43-.17.58,0,.04-.02.07-.02.11-.03.15-.04.24-.04.24,0,0,.21-.22.56-.49.03-.02.05-.04.08-.07.06-.04.11-.09.18-.13.06-.05.13-.09.19-.14.1-.07.21-.14.31-.21.18-.11.38-.22.58-.32.24-.11.5-.21.75-.27.74-.18,1.24-.19,1.54-.17-.12.07-.29.21-.51.43-.1.1-.18.23-.24.37-.03.07-.06.14-.09.2-.12.34-.16.66-.16.66,0,0,.89-1,2.65-.98.31,0,.58.01.82.03-.04.03-.09.07-.13.12-.3.29-.41.68-.41.68,0,0,.05-.03.15-.07.03-.01.06-.03.09-.04.03-.01.07-.03.11-.04.04-.01.09-.03.13-.04.05-.01.1-.03.15-.04.34-.08.79-.13,1.29-.02.15.03.31.08.47.15.08.03.15.07.23.11.04.02.07.04.1.06.14.08.26.15.37.23.03.02.05.04.08.06.62.48.79.99.79.99,0,0-.99-.85-2.6-.76-.04,0-.08,0-.11,0-.11,0-.23.02-.35.04-.08.01-.16.03-.24.05-.17.04-.34.08-.51.14-.22.07-.44.16-.68.27-.09.04-.19.09-.28.14-.19.1-.38.22-.58.35-.63.42-1.06.97-1.36,1.55-.07.15-.14.29-.2.44-.03.07-.06.15-.08.22-.53,1.56-.27,3.14-.27,3.14,0,0,1.6-2.75,2.74-3.49.28-.18.52-.31.73-.41-.88,1.17-.35,3.06-.35,3.06,0,0,.21-.37.43-.75.07-.11.13-.22.2-.33.06-.1.12-.2.17-.27.02-.03.04-.06.06-.08.02-.02.03-.04.05-.06,0,0,.01-.02.02-.02.06-.07.11-.13.16-.18.07-.08.13-.13.18-.18.05-.05.09-.08.12-.11.09-.07.15-.09.27-.16.34-.2.93-.46,1.88-.11-.01,0-.02.01-.03.02-1.08.62-1.94,1.56-2.46,2.67-.17.37-.31.76-.4,1.17l-.13.58.93-1.08c.05-.06.1-.12.16-.17.11-.11.22-.22.33-.32.17-.15.35-.29.54-.42.06-.04.13-.08.19-.12.59-.35,1.24-.59,1.93-.69,0,0,.02,0,.03,0l1.11-.16-14.92,14.45-14.92-14.45,1.11.16s.02,0,.03,0c1,.14,1.92.57,2.67,1.23.11.1.23.21.33.32.05.06.1.11.16.17l.93,1.08-.13-.58c-.37-1.62-1.41-3.01-2.86-3.84-.01,0-.02-.01-.03-.02.95-.35,1.54-.09,1.88.11.12.07.18.09.27.16.01,0,.02.02.04.03.06.05.14.13.26.26.02.03.05.05.08.08.03.03.06.06.09.09.07.07.21.31.37.57.04.07.08.13.12.2.22.38.43.75.43.75,0,0,.52-1.89-.35-3.06.21.1.45.24.73.41,1.15.75,2.74,3.49,2.74,3.49,0,0,.26-1.58-.27-3.14-.03-.07-.05-.15-.08-.22-.06-.15-.12-.3-.2-.44-.3-.58-.73-1.13-1.36-1.55-.1-.07-.2-.13-.29-.19-.34-.21-.67-.36-.98-.49-.09-.03-.18-.07-.27-.1-.17-.06-.34-.1-.51-.14-.08-.02-.16-.03-.24-.05-.12-.02-.24-.03-.35-.04-.04,0-.08,0-.11,0-1.61-.09-2.6.76-2.6.76,0,0,.25-.74,1.23-1.28.03-.02.07-.04.1-.06.07-.04.15-.07.23-.11.04-.02.08-.03.12-.05.08-.03.16-.05.23-.08.04-.01.08-.02.11-.03.49-.11.95-.06,1.29.02.05.01.1.03.15.04.05.01.09.03.13.04.04.01.08.03.11.04.03.01.07.03.09.04.1.04.15.07.15.07,0,0-.06-.22-.22-.45-.05-.08-.12-.16-.19-.23-.04-.04-.09-.08-.13-.12.24-.01.51-.02.82-.03,1.77-.02,2.65.98,2.65.98,0,0-.09-.82-.49-1.23-.22-.23-.39-.36-.51-.43.3-.02.79,0,1.54.17.26.06.51.16.75.27.08.04.16.08.24.12.08.04.15.09.23.13.04.02.07.04.11.07.15.09.28.18.41.28.03.02.06.05.09.07.49.37.81.69.81.69,0,0-.08-.67-.47-1.47-.02-.03-.03-.06-.05-.1-.03-.06-.07-.13-.11-.19-.06-.1-.12-.2-.18-.3-.73-1.09-2.1-2.16-4.63-1.94-.38.03-.75.08-1.11.14-.09.02-.18.03-.26.05-.52.1-1.02.24-1.48.4-.23.08-.46.16-.68.25-.22.09-.43.18-.63.28-.14.07-.27.13-.4.2-.19.1-.38.21-.56.32-.12.07-.24.15-.35.22-.11.07-.23.15-.33.23-.22.15-.42.31-.61.46-1.63,1.31-2.4,2.63-2.4,2.63,0,0-.26-.41,1.09-2.38.8-1.17,1.86-1.77,2.58-2.07.04-.02.08-.03.11-.04.18-.07.34-.12.46-.15.17-.05.27-.07.27-.07,0,0-.08-.05-.2-.11-.04-.02-.08-.04-.13-.07s-.1-.05-.15-.07c-.15-.07-.32-.12-.46-.13-.24-.01-.43,0-.58.02.43-.25,1.2-.67,2.48-1.29,2.36-1.14,5.53-.8,5.53-.8,0,0-.91-.84-2.38-1.38-.65-.24-1.42-.42-2.27-.45-.32,0-.65,0-.99.04-.34.04-.69.11-1.05.21-.3.08-.59.19-.86.3-.11.05-.22.09-.32.14-.21.1-.42.21-.62.33-.25.14-.48.3-.71.46-.04.03-.09.06-.13.1-2.07,1.55-3.11,3.65-3.11,3.65,0,0-.42-1.53,1.7-4.07,2.12-2.54,4.16-3,4.16-3l-.32-.07c-.54-.11-1.08-.14-1.62-.08-.61.07-1.21.24-1.77.52-.07.03-.14.07-.21.11.09-.23.19-.46.31-.68.03-.05.06-.11.09-.16.06-.11.13-.21.2-.31.04-.05.07-.1.11-.15.3-.39.66-.73,1.07-1.02,0,0-1.27-.13-2.82.63-.04.02-.08.04-.13.06-.08.04-.17.09-.26.14-.09.05-.17.1-.26.16-.3.19-.61.42-.92.69-.04.04-.09.08-.13.12-.61.57-1.21,1.32-1.75,2.3-1.12,2.04-1.36,3.74-1.29,4.98-.88-.38-2.11-.66-3.83-.65-2.32,0-4.06.91-5.29,1.93-.13.11-.26.22-.38.33-.08.07-.16.15-.23.22-.04.04-.07.07-.11.11-.07.07-.14.15-.21.22-.24.25-.44.5-.61.73-.1.13-.19.25-.27.37-.06.09-.11.17-.16.24-.23.35-.34.58-.34.58,0,0,1.83-1.08,3.48-1.67.98-.35,2.26-.35,3.13-.3-.04.02-.08.04-.12.06-.26.15-.5.34-.71.53-.05.04-.09.09-.13.13-.04.04-.08.09-.12.13-.02.02-.04.04-.06.06-.04.04-.07.08-.11.12-.02.02-.03.04-.05.06-.03.04-.06.08-.09.11-.01.02-.03.04-.04.05-.16.21-.25.35-.25.35,0,0,1.37-.88,3.78-.57.08,0,.16.02.24.03.63.1,1.14.34,1.56.65-2.57-.3-5.46.13-7.77,2.54-.68.71-1.18,1.42-1.55,2.11-.08.15-.16.31-.22.46-.27.61-.44,1.2-.54,1.77-.03.21-.06.42-.07.63,0,.14-.01.27-.02.41,0,.2,0,.4.02.59.18,2.37,1.5,4.02,1.5,4.02,0,0,.03-1.79.71-4.13.33-1.12.73-1.87,1.04-2.33-.03.12-.06.26-.09.41-.05.25-.04.52,0,.78.02.11.05.23.08.33.15.51.38.91.38.91,0,0,.02-.94.6-2.07.02-.05.05-.09.07-.14.15-.27.33-.56.55-.84.7-.89,1.27-1.44,1.7-1.77-.1.16-.21.35-.32.59-.41.88-.23,1.53-.23,1.53,0,0,.18-.37.64-.85.05-.05.11-.11.17-.16.18-.16.39-.33.63-.5.08-.06.17-.11.26-.17.18-.11.38-.22.6-.32.39-.18.96-.21,1.6-.13-1.92,1-4.3,2.79-5.29,5.79-.08.25-.15.5-.2.74-1.06,4.93,3.97,7.95,3.97,7.95,0,0-.31-.48-.62-1.19-.03-.08-.07-.16-.1-.24-.2-.5-.38-1.09-.45-1.68-.12-1.07-.15-1.82-.15-2.26.04.14.12.32.26.53.45.63,1.62.88,1.62.88,0,0-.83-1.45-.92-3.26-.02-.48.16-1.06.36-1.53.03.12.06.26.1.42.17.62.76,1.36.76,1.36,0,0-.02-.24.03-.66,0-.03,0-.07.01-.1.08-.62.29-1.58.86-2.7.59-1.18,1.47-1.92,2.09-2.34-.73,1.45-1.3,3.6-.67,6.4.26,1.13.71,2.08,1.28,2.87.04.06.09.12.13.18.09.12.18.23.28.34.38.44.79.82,1.21,1.15,2.1,1.66,4.5,2.06,4.5,2.06,0,0-.18-.12-.47-.4-.35-.34-.86-.93-1.38-1.81-.1-.17-.2-.34-.29-.53-.57-1.1-.84-2.1-.96-2.83.49.45,2.16.62,2.16.62,0,0-.16-.14-.41-.39-.02-.02-.04-.04-.06-.07-.42-.43-1.03-1.13-1.51-1.97-.59-1.01-.8-2.37-.87-3.05.04.14.12.29.26.44.29.31.84.51,1.1.59.09.03.14.04.14.04,0,0,0-.01-.02-.04-.01-.02-.04-.06-.06-.11-.03-.05-.06-.1-.09-.16-.17-.31-.41-.79-.52-1.17-.27-.89-.09-1.56.09-1.95l15.34,14.86-13.12,12.7c-1.04-.99-2.16-2.08-3.34-3.26-.28-.51-.7-.94-1.23-1.24-.17-.17-.34-.35-.51-.52l.26-.3c1.15-1.31,1.02-3.32-.28-4.47l-.47-.42.52-.36c1.44-.98,1.82-2.96.84-4.4l-.36-.53.1-.04c-.36-.27-.7-.56-1.02-.87l-.89.32,1.19,1.77c.62.92.38,2.16-.53,2.79l-1.76,1.2,1.59,1.41c.83.73.91,2,.18,2.83l-.2.23c-.88-.91-1.78-1.87-2.7-2.87-4.94-5.36-9.34-10.78-13.07-16.08-3.87-5.5-7.02-10.91-9.4-16.11,0-3.27.01-6.54.02-9.82,1.34-.41,2.68-.8,4.02-1.18,6.85-1.92,8.92-9.82,8.95-15.95.02-5.53-1.74-13.7-8.87-13.72-3.13.02-6.25.04-9.38.06v26.6c-3.39-10.72-4.94-19.86-5.63-26.23-.87-7.92-.63-13.16-.54-14.45h116.03c.08,1.29.32,6.53-.54,14.45M18.34,42.56c0-4.53.02-9.06.02-13.59,1.1-.1,2.21-.19,3.31-.29,3.47-.28,4.06,3.37,4.05,6.07-.01,2.96-.75,6.38-4.09,7.09-1.1.23-2.2.47-3.3.71"/>
        <path class="cls-1" d="M43.56,19.7c-8.21,0-9.88,9.35-10,15.79-.03,7.07-.06,14.14-.09,21.21,1.77-.48,3.55-.93,5.33-1.35.01-3.08.03-6.16.04-9.24,3.04-.51,6.1-.94,9.16-1.29l-.03,8.79c1.78-.26,3.57-.49,5.36-.68.02-6.35.03-12.7.05-19.05-.09-6.24-2.21-14.18-9.83-14.19M48.05,34.18v3.74c-3.07.26-6.12.57-9.17.93,0-1.31.01-2.62.02-3.94.09-3.05.64-8.01,4.64-8.16,3.8-.15,4.54,4.57,4.52,7.42"/>
        <path class="cls-1" d="M62.15,45.71c0-8.49.01-16.99.02-25.48-1.78,0-3.55,0-5.33,0-.02,10.8-.04,21.6-.07,32.4,5.08-.35,10.14-.4,15.22-.15,0-2.22,0-4.45-.01-6.67-3.28-.13-6.56-.17-9.84-.1"/>
        <path class="cls-1" d="M92.06,20.27c-2.03,5.35-4.12,10.67-6.27,15.97-2.05-5.36-4.16-10.69-6.31-16.01-1.35,0-2.7,0-4.05,0-.48,10.79-.97,21.58-1.46,32.37,1.79.14,3.58.31,5.37.51.13-6.3.27-12.6.4-18.9,2.11,4.94,4.18,9.9,6.19,14.89,2.06-4.66,4.08-9.35,6.04-14.05.18,6.79.36,13.58.55,20.37,1.79.42,3.56.88,5.33,1.36-.55-12.16-1.11-24.33-1.68-36.49-1.37,0-2.74-.01-4.11-.02"/>
        <path class="cls-1" d="M72.9,73.73c-.17.26-.34.52-.47.75.24.11.49.19.75.23l-.27-.98Z"/>
        <path class="cls-1" d="M66.55,71.38l-.14-.18-.02.02v-.05s-1.15-1.48-1.15-1.48l-1.31,1.68c-.4.51-.99.77-1.59.77-.43,0-.86-.14-1.23-.42l-.68-.53-.2-.25.08.69c.06.36.08.7.1,1.01.56.43,1.23.65,1.93.65.99,0,1.9-.45,2.51-1.22l.39-.5.39.5c.61.78,1.52,1.22,2.51,1.22.52,0,1.03-.13,1.48-.37,0-.38.03-.83.1-1.31l.03-.26-.23.23-.15.12c-.37.28-.8.42-1.23.42-.6,0-1.19-.27-1.59-.77"/>
        <polyline class="cls-1" points="50.39 79.49 50.37 79.47 50.38 79.5 50.39 79.49"/>
        <path class="cls-1" d="M56.83,74.76c.29,0,.57-.06.84-.14-.17-.29-.36-.59-.56-.89l-.29,1.03Z"/>
        <path class="cls-1" d="M81.41,79.51s-.01-.02-.02-.03l-1.18.29c.12.25.28.47.46.68.23-.26.49-.58.74-.94"/>
        <path class="cls-1" d="M49.01,79.58c-.06.08-.13.15-.2.22.26.36.53.66.75.89.26-.24.47-.51.64-.82l-1.2-.29Z"/>
        <polygon class="cls-1" points="63.58 100.5 60.94 100.5 63.08 102.05 62.26 104.56 64.4 103.01 66.53 104.56 65.72 102.05 67.85 100.5 65.21 100.5 64.4 97.99 63.58 100.5"/>
        <path class="cls-1" d="M22.79,14.38c-.91,0-1.49-.7-1.49-1.8s.61-1.8,1.49-1.8c.56,0,.89.14,1.31.46l.53-.97c-.48-.46-1.26-.69-1.88-.69-1.76,0-2.82,1.2-2.82,3s1.01,3,2.66,3c.92,0,1.66-.25,2.25-.86l-.68-1c-.37.43-.86.65-1.37.65"/>
        <path class="cls-1" d="M33.58,15.49h1.31v-3.38c0-1.61-.91-2.52-2.43-2.52s-2.44.91-2.44,2.52v3.38h1.31v-1.53h2.25v1.53ZM31.34,12.76v-.65c0-.83.38-1.32,1.13-1.32s1.12.49,1.12,1.32v.65h-2.25Z"/>
        <polygon class="cls-1" points="44.1 14.29 41.69 14.29 41.69 9.68 40.38 9.68 40.38 15.49 44.1 15.49 44.1 14.29"/>
        <rect class="cls-1" x="49.3" y="9.68" width="1.31" height="5.81"/>
        <polygon class="cls-1" points="57.53 13.13 59.99 13.13 59.99 11.96 57.53 11.96 57.53 10.88 60.23 10.88 60.23 9.68 56.22 9.68 56.22 15.49 57.53 15.49 57.53 13.13"/>
        <path class="cls-1" d="M68.05,15.59c1.81,0,2.86-1.2,2.86-3s-1.05-3-2.86-3-2.86,1.2-2.86,3,1.05,3,2.86,3M68.05,10.79c1,0,1.49.71,1.49,1.8s-.49,1.8-1.49,1.8-1.49-.71-1.49-1.8.49-1.8,1.49-1.8"/>
        <path class="cls-1" d="M77.48,13.77h.98l.31.57c.49.91,1,1.18,2,1.18v-1.12c-.52-.12-.72-.27-.97-.75l-.13-.25c.62-.3,1.06-.9,1.06-1.67,0-1.34-.88-2.06-2.18-2.06h-2.38v5.81h1.31v-1.72ZM77.48,10.86h1.01c.47,0,.86.27.86.88s-.39.89-.88.89h-1v-1.77Z"/>
        <polygon class="cls-1" points="87.41 11.55 89.61 13.12 89.61 15.49 90.92 15.49 90.92 9.68 89.61 9.68 89.61 11.56 87 9.68 86.09 9.68 86.09 15.49 87.41 15.49 87.41 11.55"/>
        <rect class="cls-1" x="96.53" y="9.68" width="1.31" height="5.81"/>
        <path class="cls-1" d="M105.77,9.58c-1.54,0-2.44.91-2.44,2.52v3.38h1.31v-1.53h2.25v1.53h1.31v-3.38c0-1.61-.91-2.52-2.43-2.52M106.89,12.76h-2.25v-.65c0-.83.38-1.32,1.13-1.32s1.12.49,1.12,1.32v.65Z"/>
      </g>
    </g>
  </g>
</svg>