<?xml version="1.0" encoding="UTF-8"?>
<svg id="Layer_2" xmlns="http://www.w3.org/2000/svg" version="1.1" viewBox="0 0 118.1 117.9">
  <!-- Generator: Adobe Illustrator 30.1.0, SVG Export Plug-In . SVG Version: 2.1.1 Build 136)  -->
  <g id="Layer_9">
    <g id="WLL_x5F_CAL_x5F_ICON_x5F_1C_x5F_DK">
      <path d="M110.3,62.4l7.8-6.9-8.6-5.9,5.8-8.7-9.8-3.6,3.5-9.9-10.4-1,.9-10.4-10.3,1.6-1.7-10.3-9.6,4.1-4.2-9.6-8.3,6.4L59.1,0l-6.4,8.2-8.3-6.4-4.2,9.6-9.6-4.1-1.7,10.3-10.3-1.6,1,10.4-10.4,1,3.5,9.8-9.8,3.6,5.9,8.7L0,55.5l7.8,6.9-6.9,7.9,9.3,4.8-4.7,9.3,10.2,2.3-2.2,10.2,10.5-.3.4,10.4,10-2.9,3,10,9-5.3,5.3,9,7.4-7.4,7.4,7.4,5.3-9,9,5.3,2.9-10,10.1,2.9.4-10.4,10.5.3-2.2-10.2,10.2-2.3-4.7-9.3,9.3-4.8-6.9-7.9h0ZM104.8,75.7l3.3,6.6-7.2,1.6c-1.2.3-2,1.5-1.7,2.7l1.6,7.2-7.3-.2c-1.2,0-2.3.9-2.3,2.2l-.2,7.3-7.1-2c-1.2-.3-2.4.3-2.8,1.5l-2.1,7.1-6.3-3.7c-1.1-.6-2.4-.3-3.1.8l-3.8,6.3-5.2-5.2c-.9-.9-2.3-.9-3.2,0l-5.2,5.2-3.8-6.3c-.6-1.1-2-1.4-3.1-.8l-6.3,3.7-2.1-7.1c-.3-1.2-1.6-1.9-2.8-1.5l-7.1,2-.2-7.3c0-1.2-1.1-2.2-2.3-2.2l-7.4.2,1.6-7.2c.3-1.2-.5-2.4-1.7-2.7l-7.2-1.6,3.3-6.6c.6-1.1.1-2.5-1-3l-6.5-3.4,4.8-5.5c.8-.9.7-2.3-.2-3.2l-5.5-4.9,6.1-4.2c1-.7,1.3-2.1.6-3.1l-4.1-6.1,6.9-2.5c1.2-.4,1.8-1.7,1.4-2.9l-2.5-6.9,7.3-.7c1.2-.1,2.1-1.2,2-2.5l-.7-7.3,7.3,1.1c1.2.2,2.4-.6,2.6-1.9l1.2-7.2,6.8,2.9c1.1.5,2.5,0,3-1.2l2.9-6.7,5.8,4.5c1,.8,2.4.6,3.2-.4l4.5-5.8,4.5,5.8c.8,1,2.2,1.1,3.2.4l5.8-4.5,2.9,6.7c.5,1.1,1.8,1.7,3,1.2l6.8-2.9,1.2,7.2c.2,1.2,1.3,2.1,2.6,1.9l7.3-1.1-.7,7.3c-.1,1.2.8,2.3,2,2.5l7.3.7-2.5,6.9c-.4,1.2.2,2.5,1.3,2.9l6.9,2.5-4.1,6.1c-.7,1-.4,2.4.6,3.1l6.1,4.2-5.5,4.9c-.9.8-1,2.2-.2,3.2l4.8,5.5-6.5,3.4c-1.1.6-1.5,1.9-1,3h0Z"/>
      <polygon points="60.6 84.7 59.1 80.1 57.6 84.7 52.7 84.7 56.7 87.6 55.2 92.2 59.1 89.3 63 92.2 61.5 87.6 65.4 84.7 60.6 84.7"/>
      <path d="M94.7,41.2c-2.4-1.4-4.5-1.7-5.9-1.7.5-1,.8-2.5.9-4.6,0-6.4-5.5-9.2-5.5-9.2,0,0,1.2,2.2,1.9,4.2.4,1.2.4,2.7.3,3.8,0,0,0,0,0-.2-.6-1.1-1.8-1.9-1.8-1.9,0,0,1.1,1.8.6,4.8-.1.8-.4,1.3-.8,1.8.4-3.1,0-6.5-2.9-9.4-5.9-5.9-12-1.3-12-1.3,0,0,2.1,0,4.9,1,1.3.4,2.2.9,2.8,1.3-.1,0-.3,0-.5-.1-1.1-.2-2.4.5-2.4.5,0,0,1.8,0,3.6,1.5,1.1.9,1.7,1.6,2.1,2.1-.2-.1-.4-.3-.7-.4-1-.5-1.8-.3-1.8-.3,0,0,1.4.7,2.3,2.8.2.5.2,1.2.1,1.9-1.2-2.3-3.2-5.2-6.8-6.5-6.4-2.2-10.5,4.3-10.5,4.3,0,0,1.9-1.2,3.8-1.3,1.3-.1,2.2-.1,2.7-.1-.2,0-.4.1-.7.3-.8.5-1.1,1.9-1.1,1.9,0,0,1.8-1,3.9-1,.6,0,1.3.2,1.8.5-.2,0-.3,0-.5.1-.7.2-1.7.9-1.7.9,0,0,1.8,0,4.1,1.2,1.4.7,2.3,1.8,2.8,2.6-1.7-.9-4.3-1.6-7.7-1-6.7,1.4-8.1,8.7-8.1,8.7,0,0,.9-1.3,3.3-2.5,1.3-.7,2.5-1,3.4-1.1-.6.6-.8,2.6-.8,2.6,0,0,1.2-1.4,3-2.3,1.3-.7,2.9-.9,3.8-1-.2,0-.4.1-.6.3-.5.5-.8,1.5-.8,1.5,0,0,1.1-.6,1.8-.8,1.2-.3,2.1,0,2.5.2l-18.4,17.7-18.4-17.7c.4-.2,1.3-.6,2.5-.2.7.2,1.8.8,1.8.8,0,0-.3-1-.8-1.5-.2-.2-.4-.3-.6-.3.8,0,2.5.3,3.8,1,1.7,1,3,2.3,3,2.3,0,0-.2-2-.8-2.6.9.1,2.1.4,3.4,1.1,2.4,1.2,3.3,2.5,3.3,2.5,0,0-1.4-7.3-8.1-8.7-3.4-.7-5.9,0-7.7,1,.5-.8,1.3-1.8,2.8-2.6,2.4-1.2,4.1-1.2,4.1-1.2,0,0-.9-.7-1.7-.9-.2,0-.4,0-.5-.1.6-.2,1.2-.5,1.8-.5,2.2,0,3.9,1,3.9,1,0,0-.3-1.4-1.1-1.9-.3-.2-.5-.3-.7-.3.5,0,1.4,0,2.7.1,1.9.2,3.8,1.3,3.8,1.3,0,0-4.1-6.6-10.5-4.3-3.6,1.3-5.7,4.2-6.8,6.5,0-.8,0-1.4.1-1.9.9-2.1,2.3-2.8,2.3-2.8,0,0-.8-.2-1.8.3-.3.1-.5.3-.7.4.4-.5,1-1.2,2.1-2.1,1.8-1.5,3.6-1.5,3.6-1.5,0,0-1.4-.8-2.4-.5-.2,0-.3,0-.5.1.5-.4,1.4-.9,2.8-1.3,2.8-.9,4.9-1,4.9-1,0,0-6-4.6-12,1.3-2.8,2.8-3.3,6.3-2.9,9.4-.4-.5-.7-1.1-.8-1.8-.5-3.1.5-4.8.5-4.8,0,0-1.2.8-1.8,1.9,0,0,0,0,0,.2,0-1-.1-2.6.3-3.8.7-2,1.9-4.2,1.9-4.2,0,0-5.6,2.9-5.5,9.2,0,2.1.4,3.5.9,4.6-1.5,0-3.5.3-6,1.7-5.3,3-4.8,7.6-4.8,7.6.7-1,1.6-1.8,2.7-2.2-.7,1.3-.9,2.9-.6,4.3v.4c0,0,.6-2.5,3.6-5.1s4.8-2.1,4.8-2.1c0,0-4.6,2.4-5.8,7-1.2,4.6,2,8,2,8,0,0-.5-3.8.8-6.7.7-1.6,1.2-2.5,1.5-3,0,.2,0,.4,0,.7,0,.4.5,1.1.5,1.1,0,0,.4-2.5,2.7-4.2,2.3-1.7,2.8-1.4,2.8-1.4,0,0-5.5,3.4-6,10.7-.4,5.9,4.9,6.4,4.9,6.4,0,0-1.6-1.5-2-3.2-.2-.9-.3-1.5-.2-1.8,0,.2.2.3.5.6.5.5,1.5.6,1.5.6,0,0-1.2-1-1.2-3.2,0-.4,0-.7,0-1,0,0,0,.1.1.2.4.4.8.5.8.5,0,0-.8-1.3-.2-2.9.6-1.5,1.7-1.9,1.7-1.9,0,0-2.2,2.7.4,6.4,2.1,3,6.5,2.2,6.5,2.2,0,0-3.3-1.8-4.2-3.2-.2-.3-.4-.6-.5-.9,1.4,1,3.7.4,3.7.4,0,0-1.6-.9-1.8-1.1-.7-.6-.6-.6-.8-.9-.2-.4-.6-1.1-.2-2.2,0,0,0,0,0,0,1,1.7,2.7,2.9,4.7,3.3l.7.2-1.3-1.1c-1.1-1-1.6-2.1-2.1-3.8h0s-.3-1.9-.3-1.9l18.1,17.3-27.9,26.8,2.6,2.6,28-26.8,28,26.8,2.6-2.6-27.9-26.8,18.1-17.3-.3,1.9h0c-.5,1.7-1,2.8-2.1,3.8l-1.3,1.1.7-.2c2-.4,3.7-1.6,4.7-3.3,0,0,0,0,0,0,.4,1.1,0,1.8-.2,2.2-.2.3,0,.3-.8.9-.2.2-1.8,1.1-1.8,1.1,0,0,2.3.7,3.7-.4-.1.3-.3.5-.5.9-.9,1.4-4.2,3.2-4.2,3.2,0,0,4.4.8,6.5-2.2,2.6-3.8.4-6.4.4-6.4,0,0,1.1.4,1.7,1.9.6,1.5-.2,2.9-.2,2.9,0,0,.5-.1.8-.5,0,0,0-.1.1-.2,0,.3,0,.6,0,1,0,2.1-1.2,3.2-1.2,3.2,0,0,1,0,1.5-.6.3-.3.4-.5.5-.6,0,.4,0,1-.2,1.8-.4,1.6-2,3.2-2,3.2,0,0,5.3-.5,4.9-6.4-.5-7.3-6-10.7-6-10.7,0,0,.5-.3,2.8,1.4,2.3,1.7,2.7,4.2,2.7,4.2,0,0,.4-.7.5-1.1,0-.3,0-.5,0-.7.3.5.8,1.4,1.5,3,1.3,2.9.8,6.7.8,6.7,0,0,3.2-3.4,2-8s-5.8-7-5.8-7c0,0,1.8-.5,4.8,2.1s3.5,5.1,3.5,5.1v-.4c.4-1.5.2-3-.5-4.3,1.1.4,2.1,1.2,2.7,2.2,0,0,.5-4.6-4.8-7.6h0Z"/>
    </g>
  </g>
</svg>