<?xml version="1.0" encoding="UTF-8"?>
<svg id="Layer_2" xmlns="http://www.w3.org/2000/svg" xmlns:xlink="http://www.w3.org/1999/xlink" viewBox="0 0 599.18 535.33" width="599" height="535">
  <defs>
    <style>
      .cls-1, .cls-2 {
        fill: none;
      }

      .cls-2 {
        stroke: #004b37;
        stroke-miterlimit: 10;
        stroke-width: 3.04px;
      }

      .cls-3 {
        fill: url(#linear-gradient);
      }

      .cls-4 {
        clip-path: url(#clippath-1);
      }

      .cls-5 {
        fill: #ffd200;
      }

      .cls-6 {
        fill: #004b37;
      }

      .cls-7 {
        fill: #fff;
      }

      .cls-8 {
        clip-path: url(#clippath);
      }
    </style>
    <clipPath id="clippath">
      <path class="cls-1" d="M302.19,39.71H42.21s-8.78,98.73,44.9,231.72c48.81,120.92,176.54,225.52,176.54,225.52h77.09s127.73-104.6,176.54-225.52c53.68-132.99,44.9-231.72,44.9-231.72h-259.98Z"/>
    </clipPath>
    <linearGradient id="linear-gradient" x1="-116.34" y1="-1422.89" x2="-115.91" y2="-1422.89" gradientTransform="translate(-1499165.39 -122108.4) rotate(-90) scale(1053.82 -1053.82)" gradientUnits="userSpaceOnUse">
      <stop offset="0" stop-color="#ffd200"/>
      <stop offset=".21" stop-color="#ffd200"/>
      <stop offset=".52" stop-color="#ea6cb4"/>
      <stop offset=".87" stop-color="#004b37"/>
      <stop offset="1" stop-color="#004b37"/>
    </linearGradient>
    <clipPath id="clippath-1">
      <path class="cls-1" d="M302.63,40.58H42.64s-8.78,98.73,44.9,231.72c48.81,120.92,176.54,225.52,176.54,225.52h77.09s127.73-104.6,176.54-225.52c53.68-132.99,44.9-231.72,44.9-231.72h-259.98Z"/>
    </clipPath>
  </defs>
  <g id="PAGE2">
    <g id="WLL_x5F_CAL_x5F_PRI_x5F_FC">
      <g>
        <g>
          <path class="cls-5" d="M247.1,535.33l-10.79-8.84c-1.39-1.14-34.51-28.39-73.94-71.16-23.24-25.22-43.98-50.74-61.63-75.87-22.55-32.09-40.19-63.74-52.43-94.08C24.78,227.13,9.6,168.19,3.17,110.21-1.74,65.96.45,38.57.71,35.59L3.88,0h591.43l3.16,35.59c.27,2.98,2.45,30.37-2.46,74.62-6.43,57.98-21.61,116.92-45.12,175.17-12.25,30.34-29.89,62-52.43,94.08-17.65,25.12-38.39,50.65-61.64,75.87-39.45,42.8-72.55,70.02-73.94,71.16l-10.79,8.84h-104.98Z"/>
          <path class="cls-6" d="M251.75,522.32l-7.19-5.89c-1.36-1.11-33.79-27.79-72.62-69.91-22.86-24.8-43.23-49.88-60.56-74.53-21.97-31.27-39.14-62.05-51.01-91.47C4.98,143.29,13.29,41.03,13.68,36.74l2.11-23.73h567.61l2.11,23.73c.38,4.29,8.7,106.54-46.69,243.77-11.88,29.42-29.04,60.2-51.01,91.47-17.32,24.66-37.7,49.73-60.56,74.53-38.82,42.12-71.25,68.8-72.62,69.91l-7.19,5.89h-95.69Z"/>
        </g>
        <g class="cls-8">
          <rect class="cls-3" x="33.43" y="39.71" width="537.52" height="457.24"/>
        </g>
        <g class="cls-4">
          <path class="cls-7" d="M303.75,332.14l1.74,2.23c2.7,3.47,6.78,5.45,11.18,5.45,3.15,0,6.14-1.02,8.65-2.95l2.24-1.73,1.13,2.59c2.25,5.17,7.35,8.51,12.99,8.51,1.93,0,3.81-.39,5.59-1.15l2.6-1.12.45,2.79c1.11,6.9,6.99,11.91,13.98,11.91.73,0,1.46-.06,2.19-.17l2.8-.43-.26,2.82c-.71,7.74,5,14.64,12.74,15.4l2.82.27-.95,2.66c-2.61,7.32,1.21,15.43,8.51,18.08l2.66.97-1.58,2.34c-4.35,6.44-2.67,15.24,3.74,19.63l2.33,1.6-2.12,1.88c-5.81,5.15-6.37,14.1-1.25,19.94l1.86,2.13-2.52,1.29c-6.91,3.55-9.68,12.07-6.17,19l1.28,2.52-2.76.63c-7.58,1.72-12.38,9.28-10.71,16.87l.61,2.76-2.83-.08c-.14,0-.27,0-.41,0-3.69,0-7.18,1.41-9.83,3.97-2.66,2.57-4.2,6.02-4.32,9.71l-.1,2.83-2.72-.78c-1.28-.37-2.6-.55-3.92-.55-6.24,0-11.83,4.19-13.59,10.18l-.8,2.71-2.44-1.43c-2.18-1.28-4.65-1.95-7.17-1.95-4.97,0-9.64,2.65-12.18,6.92l-1.45,2.43-2.01-1.99c-2.67-2.66-6.22-4.12-9.99-4.12s-7.32,1.46-9.99,4.12l-2.01,1.99-1.45-2.43c-2.54-4.27-7.21-6.92-12.18-6.92-2.51,0-4.99.68-7.17,1.95l-2.44,1.43-.8-2.71c-1.76-5.99-7.35-10.18-13.59-10.18-1.32,0-2.64.19-3.92.55l-2.72.78-.1-2.83c-.13-3.7-1.66-7.14-4.32-9.71-2.66-2.56-6.15-3.97-9.83-3.97-.14,0-.27,0-.41,0l-2.83.08.61-2.76c1.67-7.59-3.13-15.15-10.71-16.87l-2.76-.63,1.28-2.52c3.51-6.93.74-15.46-6.17-19l-2.52-1.29,1.86-2.13c5.12-5.84,4.56-14.79-1.25-19.94l-2.12-1.88,2.33-1.6c6.41-4.39,8.09-13.19,3.74-19.63l-1.58-2.34,2.66-.97c7.3-2.65,11.12-10.76,8.51-18.08l-.95-2.66,2.82-.27c7.73-.75,13.44-7.66,12.74-15.4l-.26-2.82,2.8.43c.72.11,1.46.17,2.19.17,6.99,0,12.86-5.01,13.98-11.91l.45-2.79,2.6,1.12c1.78.76,3.66,1.15,5.59,1.15,5.64,0,10.74-3.34,12.99-8.51l1.13-2.59,2.24,1.73c2.5,1.93,5.49,2.95,8.65,2.95,4.4,0,8.47-1.99,11.18-5.45l1.74-2.23ZM303.75,323.67l-5.84,7.49c-1.77,2.26-4.41,3.45-7.07,3.45-1.91,0-3.84-.61-5.47-1.87l-7.52-5.8-3.8,8.71c-1.47,3.37-4.76,5.38-8.22,5.38-1.18,0-2.38-.23-3.53-.73l-8.73-3.75-1.51,9.38c-.71,4.4-4.51,7.54-8.84,7.54-.46,0-.92-.04-1.39-.11l-9.39-1.46.87,9.46c.45,4.91-3.15,9.26-8.06,9.74l-9.46.92,3.19,8.95c1.66,4.64-.75,9.75-5.38,11.44l-8.93,3.24,5.32,7.87c2.76,4.09,1.7,9.63-2.37,12.42l-7.84,5.36,7.11,6.3c3.69,3.27,4.04,8.91.79,12.61l-6.26,7.14,8.45,4.34c4.39,2.25,6.13,7.62,3.91,12.02l-4.29,8.48,9.27,2.1c4.81,1.09,7.83,5.86,6.77,10.67l-2.05,9.28,9.5-.27c.09,0,.17,0,.26,0,4.81,0,8.79,3.82,8.95,8.66l.33,9.5,9.13-2.62c.83-.24,1.66-.35,2.48-.35,3.88,0,7.45,2.54,8.6,6.44l2.68,9.12,8.19-4.81c1.43-.84,2.99-1.24,4.53-1.24,3.06,0,6.03,1.56,7.71,4.38l4.86,8.16,6.74-6.7c1.75-1.74,4.03-2.61,6.32-2.61s4.57.87,6.32,2.61l6.74,6.7,4.86-8.16c1.68-2.82,4.65-4.38,7.71-4.38,1.54,0,3.11.4,4.53,1.24l8.19,4.81,2.68-9.12c1.15-3.9,4.72-6.44,8.6-6.44.82,0,1.65.11,2.48.35l9.13,2.62.33-9.5c.17-4.84,4.14-8.66,8.95-8.66.09,0,.17,0,.26,0l9.5.27-2.05-9.28c-1.06-4.81,1.96-9.58,6.77-10.67l9.27-2.1-4.29-8.48c-2.23-4.4-.48-9.77,3.91-12.02l8.45-4.34-6.26-7.14c-3.25-3.71-2.89-9.34.79-12.61l7.11-6.3-7.84-5.36c-4.07-2.78-5.13-8.33-2.37-12.42l5.32-7.87-8.93-3.24c-4.63-1.68-7.04-6.79-5.38-11.44l3.19-8.95-9.46-.92c-4.91-.48-8.51-4.83-8.06-9.74l.87-9.46-9.39,1.46c-.47.07-.93.11-1.39.11-4.32,0-8.13-3.14-8.84-7.54l-1.51-9.38-8.73,3.75c-1.15.5-2.35.73-3.53.73-3.46,0-6.75-2.01-8.22-5.38l-3.8-8.71-7.52,5.8c-1.63,1.26-3.56,1.87-5.47,1.87-2.67,0-5.31-1.19-7.07-3.45l-5.84-7.49Z"/>
          <path class="cls-7" d="M71.16,104c13.93-.1,27.87-.19,41.8-.28,31.77.08,39.61,36.5,39.52,61.16-.1,27.3-9.34,62.51-39.88,71.07-5.99,1.7-11.97,3.45-17.93,5.26-.03,15.93-.05,31.86-.08,47.79-7.88,3.25-15.7,6.66-23.44,10.25V104M109.46,199.53c14.85-3.2,18.16-18.41,18.22-31.61.05-12.04-2.59-28.3-18.07-27.07-4.92.42-9.84.84-14.76,1.28-.03,20.19-.07,40.37-.1,60.56,4.9-1.08,9.81-2.13,14.72-3.15"/>
          <path class="cls-7" d="M162.62,171.23c.53-28.72,7.98-70.4,44.56-70.39,33.97,0,43.41,35.41,43.81,63.22-.08,28.29-.15,56.59-.23,84.88-7.99.87-15.95,1.88-23.9,3.04.05-13.06.09-26.13.14-39.19-13.66,1.57-27.27,3.49-40.84,5.74-.06,13.73-.12,27.47-.18,41.2-7.96,1.87-15.88,3.87-23.77,6.01.13-31.5.27-63.01.4-94.51M227.11,182.03c.02-5.56.04-11.12.06-16.68.09-12.71-3.21-33.72-20.12-33.06-17.83.69-20.27,22.79-20.66,36.37-.03,5.85-.05,11.69-.08,17.54,13.58-1.64,27.18-3.03,40.81-4.17"/>
          <path class="cls-7" d="M266.36,103.18c7.92,0,15.84-.02,23.76-.02-.03,37.86-.06,75.72-.09,113.57,14.63-.27,29.23-.12,43.85.46.02,9.91.03,19.81.05,29.72-22.66-1.13-45.22-.91-67.85.66.1-48.13.19-96.26.29-144.4"/>
          <path class="cls-7" d="M349.18,103.19c6.02,0,12.04.02,18.06.03,9.56,23.71,18.96,47.48,28.11,71.35,9.58-23.63,18.92-47.35,27.96-71.19,6.11.02,12.22.05,18.33.07,2.52,54.21,5.02,108.42,7.48,162.64-7.89-2.16-15.81-4.18-23.77-6.07-.81-30.27-1.62-60.53-2.43-90.8-8.75,20.98-17.74,41.85-26.93,62.63-8.97-22.22-18.19-44.32-27.6-66.35-.59,28.08-1.19,56.17-1.79,84.25-7.96-.9-15.93-1.66-23.92-2.27,2.19-48.09,4.36-96.19,6.51-144.29"/>
          <path class="cls-7" d="M459.88,251.31c3.53-8.82,7.01-17.66,10.45-26.52,7.34,11.52,16.89,20.66,29.91,25.01,9.28,3.09,14.91-3.97,14.92-12.66,0-11.06-9.08-20.03-17.45-26.16-21.43-15.54-34.65-33.04-35.26-60.16-.52-22.93,10.57-50.03,37.4-49.98,15.34.03,26.13,7.32,35.57,18.85-2.76,10.68-5.55,21.35-8.38,32.01-7.65-7.45-16.16-13.84-27.1-14.76-7.56-.64-13.73,5.42-13.51,12.92.3,10.19,8.76,16.97,16.71,22.18,24.5,16.5,35.74,40.13,35.8,68.92.05,22.82-7.82,57.22-38.62,44.94-17.11-6.82-30.6-19.02-40.45-34.58"/>
          <path class="cls-7" d="M71.16,104c13.93-.1,27.87-.19,41.8-.28,31.77.08,39.61,36.5,39.52,61.16-.1,27.3-9.34,62.51-39.88,71.07-5.99,1.7-11.97,3.45-17.93,5.26-.03,15.93-.05,31.86-.08,47.79-7.88,3.25-15.7,6.66-23.44,10.25V104M109.46,199.53c14.85-3.2,18.16-18.41,18.22-31.61.05-12.04-2.59-28.3-18.07-27.07-4.92.42-9.84.84-14.76,1.28-.03,20.19-.07,40.37-.1,60.56,4.9-1.08,9.81-2.13,14.72-3.15"/>
          <path class="cls-7" d="M162.62,171.23c.53-28.72,7.98-70.4,44.56-70.39,33.97,0,43.41,35.41,43.81,63.22-.08,28.29-.15,56.59-.23,84.88-7.99.87-15.95,1.88-23.9,3.04.05-13.06.09-26.13.14-39.19-13.66,1.57-27.27,3.49-40.84,5.74-.06,13.73-.12,27.47-.18,41.2-7.96,1.87-15.88,3.87-23.77,6.01.13-31.5.27-63.01.4-94.51M227.11,182.03c.02-5.56.04-11.12.06-16.68.09-12.71-3.21-33.72-20.12-33.06-17.83.69-20.27,22.79-20.66,36.37-.03,5.85-.05,11.69-.08,17.54,13.58-1.64,27.18-3.03,40.81-4.17"/>
          <path class="cls-7" d="M266.36,103.18c7.92,0,15.84-.02,23.76-.02-.03,37.86-.06,75.72-.09,113.57,14.63-.27,29.23-.12,43.85.46.02,9.91.03,19.81.05,29.72-22.66-1.13-45.22-.91-67.85.66.1-48.13.19-96.26.29-144.4"/>
          <path class="cls-7" d="M349.18,103.19c6.02,0,12.04.02,18.06.03,9.56,23.71,18.96,47.48,28.11,71.35,9.58-23.63,18.92-47.35,27.96-71.19,6.11.02,12.22.05,18.33.07,2.52,54.21,5.02,108.42,7.48,162.64-7.89-2.16-15.81-4.18-23.77-6.07-.81-30.27-1.62-60.53-2.43-90.8-8.75,20.98-17.74,41.85-26.93,62.63-8.97-22.22-18.19-44.32-27.6-66.35-.59,28.08-1.19,56.17-1.79,84.25-7.96-.9-15.93-1.66-23.92-2.27,2.19-48.09,4.36-96.19,6.51-144.29"/>
          <path class="cls-7" d="M459.88,251.31c3.53-8.82,7.01-17.66,10.45-26.52,7.34,11.52,16.89,20.66,29.91,25.01,9.28,3.09,14.91-3.97,14.92-12.66,0-11.06-9.08-20.03-17.45-26.16-21.43-15.54-34.65-33.04-35.26-60.16-.52-22.93,10.57-50.03,37.4-49.98,15.34.03,26.13,7.32,35.57,18.85-2.76,10.68-5.55,21.35-8.38,32.01-7.65-7.45-16.16-13.84-27.1-14.76-7.56-.64-13.73,5.42-13.51,12.92.3,10.19,8.76,16.97,16.71,22.18,24.5,16.5,35.74,40.13,35.8,68.92.05,22.82-7.82,57.22-38.62,44.94-17.11-6.82-30.6-19.02-40.45-34.58"/>
          <polygon class="cls-7" points="300.02 449.76 303.66 460.94 315.41 460.94 305.9 467.85 309.53 479.03 300.02 472.12 290.51 479.03 294.14 467.85 284.63 460.94 296.39 460.94 300.02 449.76"/>
          <path class="cls-6" d="M377.31,338.93l3.96,3.82s3.5,3.9,1.52,10.49c-.81,2.7-3.11,6.58-3.11,6.58,0,0,3.78-.93,5.51-2.8,1.73-1.86,1.3-3.94,1.3-3.94,0,0-.37,9.28-4.02,15.59-3.66,6.31-8.88,10.81-8.88,10.81,0,0,7.73-.79,9.73-2.87,2.01-2.08.29-5.63.29-5.63,0,0,.61,8.22-4.7,18.38-4.66,8.93-9.54,12.24-9.54,12.24,0,0,27.32-4.51,32.96-29.4,5.64-24.89-10.17-38.32-10.17-38.32l-14.85,5.05Z"/>
          <path class="cls-6" d="M396.05,341.8s8.12,3.42,12.61,12.3c4.49,8.89,3.99,15.43,3.99,15.43,0,0,2.63-3.32,3.38-6.06,2.28-8.32-1.4-5.61-1.4-5.61,0,0,3.67,6.2,3.46,10.57-.39,8.07-4.09,14.54-4.09,14.54,0,0,5.2-1.1,7.2-3.92,2.01-2.82,1.14-4.37,1.14-4.37,0,0,.28,4.08-.65,12.08-.81,7.05-5.21,13.86-5.21,13.86,0,0,24.69-14.81,16.79-38.75-7.9-23.93-35.77-30.59-35.77-30.59l-5.81,4.8,4.33,5.72Z"/>
          <path class="cls-6" d="M387.46,342.86s21.79-9.7,29.35-6.18c7.75,3.61,10.26,8.88,10.26,8.88,0,0,.79-2.92-1.03-6.84-3.35-7.16-5.64-4.95-5.64-4.95,0,0,4.11.46,11.78,10.2,5.27,6.69,5.43,13.56,5.43,13.56,0,0,2.89-5.02,2.07-9-1.95-9.39-2.3-4.28-2.3-4.28,0,0,3.87,3.77,6.52,12.82,3.05,10.45,3.17,18.41,3.17,18.41,0,0,17.6-22.03-3.9-44.56-24.23-25.39-63.15-1.56-63.15-1.56l7.43,13.48Z"/>
          <path class="cls-6" d="M400.72,333.47s2.16-14.78,14.8-16.76c11.4-1.78,17.89,2.38,17.89,2.38,0,0-2.85-4.61-7.02-6.97-5.28-2.99-4.97.19-4.97.19,0,0,11.06-1.79,18.42.85,7.36,2.64,15.5,7.46,15.5,7.46,0,0-10.33-20.98-33.92-21.07-23.59-.09-26.53,11.82-26.53,11.82l-17.47,14.63,1.23,6.47,10.19,1.26,11.89-.27Z"/>
          <path class="cls-6" d="M401.64,312.79s7.86-12.56-3.05-32.52c-10.91-19.96-27.88-18.27-27.88-18.27,3.64,2.54,6.41,6.14,7.93,10.31-4.89-2.71-10.58-3.57-16.06-2.44l-1.44.3s9.06,2.06,18.52,13.37c9.46,11.31,7.59,18.14,7.59,18.14,0,0-8.64-17.42-25.66-22.21-17.02-4.79-29.77,6.98-29.77,6.98,0,0,14.09-1.51,24.63,3.56,10.53,5.07,13.24,7.15,13.24,7.15,0,0,.08-1.73-4.74-1.47-1.64.09-4.18,1.68-4.18,1.68,0,0,9.24,1.63,15.25,10.39,6.01,8.76,4.84,10.6,4.84,10.6,0,0-12.06-20.77-39.33-23.07-21.85-1.84-24.24,17.82-24.24,17.82,0,0,5.72-5.81,11.83-7.25,6.2-1.47,8.52-.48,8.52-.48,0,0-.24-2.21-3.95,1.64-1.78,1.84-2.19,5.49-2.19,5.49,0,0,3.95-4.44,11.82-4.35,6.8.08,9.73.82,9.73.82,0,0-2.94-3.78-6.66-.18-1.35,1.31-1.85,3.05-1.85,3.05,0,0,5.05-2.9,10.69-.47,5.64,2.43,6.97,6.43,6.97,6.43,0,0-9.76-8.36-23.88,1.09-11.23,7.51-8.51,23.83-8.51,23.83,0,0,7.11-12.24,12.23-15.56,6.77-4.4,8.78-2.81,8.78-2.81,0,0-1.5-3.67-5.08.39-4.56,5.16-2.04,14.21-2.04,14.21,0,0,3.32-5.88,4.1-6.76,2.16-2.41,2.22-2.14,3.26-2.77,1.5-.91,4.14-2.07,8.36-.5-.05.03-.1.06-.15.09-6.44,3.69-11.07,9.88-12.74,17.11l-.6,2.6,4.17-4.81c3.61-4.17,8.61-6.88,14.08-7.66.04,0,.09-.01.13-.02l8.22-1.2,25.07-14.55,4.02-7.68Z"/>
          <polygon class="cls-6" points="179.07 519.69 380.94 324.19 391.74 335.48 189.87 530.98 179.07 519.69"/>
          <path class="cls-6" d="M228.21,338.93l-3.96,3.82s-3.5,3.9-1.52,10.49c.81,2.7,3.11,6.58,3.11,6.58,0,0-3.78-.93-5.51-2.8-1.73-1.86-1.3-3.94-1.3-3.94,0,0,.37,9.28,4.02,15.59,3.66,6.31,8.88,10.81,8.88,10.81,0,0-7.73-.79-9.73-2.87-2.01-2.08-.29-5.63-.29-5.63,0,0-.61,8.22,4.7,18.38,4.66,8.93,9.54,12.24,9.54,12.24,0,0-27.32-4.51-32.96-29.4-5.64-24.89,10.17-38.32,10.17-38.32l14.85,5.05Z"/>
          <path class="cls-6" d="M209.47,341.8s-8.12,3.42-12.61,12.3c-4.49,8.89-3.99,15.43-3.99,15.43,0,0-2.63-3.32-3.38-6.06-2.28-8.32,1.4-5.61,1.4-5.61,0,0-3.67,6.2-3.46,10.57.39,8.07,4.09,14.54,4.09,14.54,0,0-5.2-1.1-7.2-3.92-2.01-2.82-1.14-4.37-1.14-4.37,0,0-.28,4.08.65,12.08.81,7.05,5.21,13.86,5.21,13.86,0,0-24.69-14.81-16.79-38.75,7.9-23.93,35.77-30.59,35.77-30.59l5.81,4.8-4.33,5.72Z"/>
          <path class="cls-6" d="M218.06,342.86s-21.79-9.7-29.35-6.18c-7.75,3.61-10.26,8.88-10.26,8.88,0,0-.79-2.92,1.03-6.84,3.35-7.16,5.64-4.95,5.64-4.95,0,0-4.11.46-11.78,10.2-5.27,6.69-5.43,13.56-5.43,13.56,0,0-2.89-5.02-2.07-9,1.95-9.39,2.3-4.28,2.3-4.28,0,0-3.87,3.77-6.52,12.82-3.05,10.45-3.18,18.41-3.18,18.41,0,0-17.6-22.03,3.9-44.56,24.23-25.39,63.15-1.56,63.15-1.56l-7.43,13.48Z"/>
          <path class="cls-6" d="M204.81,333.47s-2.16-14.78-14.8-16.76c-11.4-1.78-17.89,2.38-17.89,2.38,0,0,2.85-4.61,7.02-6.97,5.28-2.99,4.97.19,4.97.19,0,0-11.06-1.79-18.42.85-7.36,2.64-15.5,7.46-15.5,7.46,0,0,10.33-20.98,33.92-21.07,23.59-.09,26.53,11.82,26.53,11.82l17.47,14.63-1.23,6.47-10.18,1.26-11.89-.27Z"/>
          <path class="cls-6" d="M203.88,312.79s-7.86-12.56,3.05-32.52c10.91-19.96,27.88-18.27,27.88-18.27-3.64,2.54-6.41,6.14-7.93,10.31,4.89-2.71,10.58-3.57,16.06-2.44l1.44.3s-9.06,2.06-18.52,13.37c-9.46,11.31-7.59,18.14-7.59,18.14,0,0,8.64-17.42,25.66-22.21,17.02-4.79,29.77,6.98,29.77,6.98,0,0-14.09-1.51-24.63,3.56-10.53,5.07-13.24,7.15-13.24,7.15,0,0-.08-1.73,4.74-1.47,1.64.09,4.18,1.68,4.18,1.68,0,0-9.24,1.63-15.25,10.39-6.01,8.76-4.84,10.6-4.84,10.6,0,0,12.06-20.77,39.33-23.07,21.85-1.84,24.24,17.82,24.24,17.82,0,0-5.72-5.81-11.83-7.25-6.2-1.47-8.52-.48-8.52-.48,0,0,.24-2.21,3.95,1.64,1.78,1.84,2.19,5.49,2.19,5.49,0,0-3.95-4.44-11.82-4.35-6.8.08-9.73.82-9.73.82,0,0,2.94-3.78,6.66-.18,1.35,1.31,1.85,3.05,1.85,3.05,0,0-5.05-2.9-10.69-.47-5.64,2.43-6.97,6.43-6.97,6.43,0,0,9.76-8.36,23.88,1.09,11.23,7.51,8.51,23.83,8.51,23.83,0,0-7.11-12.24-12.23-15.56-6.77-4.4-8.78-2.81-8.78-2.81,0,0,1.5-3.67,5.08.39,4.56,5.16,2.04,14.21,2.04,14.21,0,0-3.32-5.88-4.1-6.76-2.16-2.41-2.22-2.14-3.26-2.77-1.5-.91-4.14-2.07-8.36-.5.05.03.1.06.15.09,6.44,3.69,11.07,9.88,12.74,17.11l.6,2.6-4.17-4.81c-3.61-4.17-8.61-6.88-14.08-7.66-.04,0-.09-.01-.13-.02l-8.22-1.2-25.07-14.55-4.02-7.68Z"/>
          <polygon class="cls-6" points="426.46 519.69 224.58 324.19 213.78 335.48 415.65 530.98 426.46 519.69"/>
        </g>
        <g>
          <path class="cls-2" d="M562.17,39.71H42.21s-8.78,98.73,44.9,231.72c48.81,120.92,176.54,225.52,176.54,225.52h77.09s127.73-104.6,176.54-225.52c53.68-132.99,44.9-231.72,44.9-231.72Z"/>
          <path class="cls-5" d="M101.87,64.77c0-8.02,4.71-13.37,12.56-13.37,2.77,0,6.25,1.05,8.39,3.08l-2.37,4.34c-1.87-1.44-3.34-2.07-5.85-2.07-3.91,0-6.65,2.94-6.65,8.02s2.61,8.02,6.65,8.02c2.27,0,4.44-.98,6.11-2.91l3.04,4.45c-2.64,2.7-5.91,3.82-10.02,3.82-7.35,0-11.86-5.39-11.86-13.37"/>
          <path class="cls-5" d="M146.83,62.63c0-7.18,4.01-11.24,10.89-11.24s10.82,4.06,10.82,11.24v15.09h-5.85v-6.83h-10.02v6.83h-5.85v-15.09ZM162.7,65.54v-2.91c0-3.71-1.74-5.88-4.98-5.88s-5.04,2.17-5.04,5.88v2.91h10.02Z"/>
          <polygon class="cls-5" points="192.99 51.81 198.84 51.81 198.84 72.36 209.56 72.36 209.56 77.72 192.99 77.72 192.99 51.81"/>
          <rect class="cls-5" x="232.75" y="51.81" width="5.85" height="25.9"/>
          <polygon class="cls-5" points="263.58 51.81 281.45 51.81 281.45 57.17 269.42 57.17 269.42 62 280.38 62 280.38 67.18 269.42 67.18 269.42 77.72 263.58 77.72 263.58 51.81"/>
          <path class="cls-5" d="M303.56,64.77c0-8.02,4.68-13.37,12.76-13.37s12.76,5.36,12.76,13.37-4.68,13.37-12.76,13.37-12.76-5.36-12.76-13.37M322.97,64.77c0-4.87-2.2-8.02-6.65-8.02s-6.65,3.15-6.65,8.02,2.21,8.02,6.65,8.02,6.65-3.15,6.65-8.02"/>
          <path class="cls-5" d="M368.67,69.53c1.14,2.14,2.04,2.8,4.34,3.33v5.01c-4.44,0-6.75-1.19-8.92-5.25l-1.37-2.56h-4.38v7.67h-5.85v-25.9h10.59c5.81,0,9.72,3.19,9.72,9.17,0,3.43-1.97,6.09-4.74,7.42l.6,1.12ZM358.35,57.07v7.88h4.44c2.17,0,3.91-1.26,3.91-3.96s-1.74-3.92-3.84-3.92h-4.51Z"/>
          <polygon class="cls-5" points="396.73 51.81 400.77 51.81 412.4 60.18 412.4 51.81 418.24 51.81 418.24 77.72 412.4 77.72 412.4 67.15 402.57 60.15 402.57 77.72 396.73 77.72 396.73 51.81"/>
          <rect class="cls-5" x="443.23" y="51.81" width="5.85" height="25.9"/>
          <path class="cls-5" d="M473.53,62.63c0-7.18,4.01-11.24,10.89-11.24s10.82,4.06,10.82,11.24v15.09h-5.85v-6.83h-10.02v6.83h-5.85v-15.09ZM489.39,65.54v-2.91c0-3.71-1.74-5.88-4.98-5.88s-5.04,2.17-5.04,5.88v2.91h10.02Z"/>
        </g>
      </g>
    </g>
  </g>
</svg>