<?xml version="1.0" encoding="UTF-8"?>
<svg id="Layer_2" xmlns="http://www.w3.org/2000/svg" viewBox="0 0 108.33 108.11">
  <defs>
    <style>
      .cls-1 {
        fill: #fff;
      }
    </style>
  </defs>
  <g id="Layer_9">
    <g id="WLL_x5F_CAL_x5F_ICON_x5F_1C_x5F_LT">
      <path class="cls-1" d="M100.94,67.8l6.54-3.36-4.84-5.53c-.82-.93-.73-2.35.2-3.18l5.5-4.88-6.07-4.15c-1.02-.7-1.29-2.1-.6-3.13l4.11-6.09-6.91-2.51c-1.16-.42-1.77-1.71-1.35-2.88l2.47-6.92-7.31-.71c-1.23-.12-2.14-1.22-2.03-2.45l.67-7.32-7.26,1.13c-1.22.19-2.38-.65-2.57-1.87l-1.17-7.25-6.75,2.9c-1.14.49-2.46-.04-2.96-1.17l-2.94-6.74-5.82,4.49c-.98.76-2.4.58-3.16-.4l-4.52-5.79-4.52,5.79c-.76.98-2.18,1.15-3.16.4l-5.82-4.49-2.94,6.74c-.49,1.13-1.82,1.66-2.96,1.17l-6.75-2.9-1.17,7.25c-.2,1.22-1.35,2.06-2.57,1.87l-7.26-1.13.67,7.32c.11,1.23-.8,2.33-2.03,2.45l-7.31.71,2.47,6.92c.42,1.17-.19,2.46-1.35,2.88l-6.91,2.51,4.11,6.09c.69,1.03.42,2.43-.6,3.13l-6.07,4.15,5.5,4.88c.93.82,1.02,2.25.2,3.18l-4.84,5.53,6.54,3.36c1.1.56,1.54,1.92.98,3.03l-3.32,6.56,7.17,1.62c1.21.27,1.97,1.48,1.7,2.69l-1.58,7.18,7.35-.21c1.24-.03,2.28.94,2.32,2.18l.25,7.34,7.06-2.03c1.19-.34,2.44.35,2.79,1.53l2.07,7.05,6.34-3.72c1.07-.63,2.45-.27,3.08.79l3.76,6.31,5.21-5.18c.88-.87,2.3-.87,3.18,0l5.21,5.18,3.76-6.31c.63-1.06,2.01-1.42,3.08-.79l6.34,3.72,2.07-7.05c.35-1.19,1.6-1.87,2.79-1.53l7.06,2.03.25-7.34c.04-1.24,1.08-2.21,2.32-2.18l7.35.21-1.58-7.18c-.27-1.21.5-2.41,1.71-2.69l7.17-1.62-3.32-6.56c-.56-1.1-.12-2.46.98-3.03ZM58.07,87.24l-3.91-2.84-3.91,2.84,1.49-4.59-3.91-2.84h4.83l1.49-4.59,1.49,4.59h4.83l-3.91,2.84,1.49,4.59ZM94.58,43.88c-.67-.99-1.62-1.76-2.73-2.19.7,1.33.91,2.87.57,4.34l-.09.39s-.51-2.45-3.5-5.06c-2.99-2.61-4.84-2.14-4.84-2.14,0,0,4.64,2.42,5.84,7.02,1.2,4.61-2.04,7.98-2.04,7.98,0,0,.48-3.78-.83-6.65-.72-1.58-1.2-2.49-1.5-3.01.02.18.03.4.01.69-.03.44-.47,1.12-.47,1.12,0,0-.39-2.5-2.72-4.16-2.33-1.66-2.83-1.36-2.83-1.36,0,0,5.53,3.36,6,10.71.38,5.89-4.93,6.43-4.93,6.43,0,0,1.59-1.51,2.01-3.15.23-.89.26-1.48.24-1.84-.09.15-.25.34-.53.61-.51.47-1.49.56-1.49.56,0,0,1.22-1.04,1.23-3.16,0-.38,0-.71-.01-1.01-.05.06-.08.12-.14.18-.36.36-.83.48-.83.48,0,0,.81-1.35.18-2.88-.63-1.53-1.69-1.91-1.69-1.91,0,0,2.2,2.67-.42,6.42-2.08,2.98-6.46,2.16-6.46,2.16,0,0,3.33-1.85,4.25-3.21.23-.34.39-.63.52-.89-1.43,1.04-3.68.38-3.68.38,0,0,1.6-.86,1.84-1.07.66-.57.59-.59.76-.86.25-.4.58-1.1.18-2.25,0,.01-.02.03-.02.04-1.03,1.71-2.72,2.93-4.67,3.34l-.7.15,1.32-1.1c1.14-.95,1.62-2.1,2.14-3.75,0-.01,0-.02,0-.03l.32-1.92-18.07,17.33,27.92,26.78-2.6,2.6-27.97-26.83-27.97,26.83-2.6-2.6,27.92-26.78-18.07-17.33.32,1.92s0,.02,0,.03c.51,1.65.99,2.8,2.14,3.75l1.32,1.1-.7-.15c-1.96-.41-3.65-1.63-4.67-3.34,0-.01-.02-.03-.02-.04-.4,1.14-.07,1.85.18,2.25.18.28.1.29.76.86.24.21,1.84,1.07,1.84,1.07,0,0-2.26.66-3.68-.38.13.26.29.54.52.89.92,1.36,4.25,3.21,4.25,3.21,0,0-4.38.82-6.46-2.16-2.62-3.75-.42-6.42-.42-6.42,0,0-1.07.38-1.69,1.91-.62,1.53.18,2.88.18,2.88,0,0-.47-.12-.83-.48-.06-.06-.09-.12-.14-.18-.01.29-.02.62-.01,1.01.02,2.12,1.23,3.16,1.23,3.16,0,0-.98-.09-1.49-.56-.28-.26-.44-.46-.53-.61-.02.36.01.95.24,1.84.42,1.64,2.02,3.15,2.02,3.15,0,0-5.31-.54-4.93-6.43.48-7.35,6-10.71,6-10.71,0,0-.5-.31-2.83,1.36-2.33,1.66-2.72,4.16-2.72,4.16,0,0-.44-.68-.47-1.12-.02-.3-.01-.52.01-.69-.29.52-.78,1.44-1.5,3.01-1.31,2.86-.83,6.65-.83,6.65,0,0-3.24-3.37-2.04-7.98,1.2-4.61,5.84-7.02,5.84-7.02,0,0-1.85-.47-4.84,2.14-3,2.61-3.5,5.06-3.5,5.06l-.09-.39c-.33-1.47-.13-3.01.57-4.34-1.11.43-2.07,1.2-2.73,2.19,0,0-.54-4.56,4.77-7.6,2.43-1.39,4.46-1.71,5.95-1.66-.48-1.05-.85-2.51-.88-4.59-.1-6.35,5.49-9.24,5.49-9.24,0,0-1.25,2.22-1.93,4.21-.4,1.19-.37,2.73-.28,3.78.03-.05.04-.09.07-.15.61-1.14,1.84-1.93,1.84-1.93,0,0-1.09,1.77-.55,4.83.13.75.44,1.35.82,1.85-.42-3.07.03-6.55,2.86-9.37,5.95-5.91,11.97-1.28,11.97-1.28,0,0-2.14.08-4.94.95-1.33.42-2.22.92-2.76,1.3.14-.04.3-.08.49-.12,1.07-.24,2.43.51,2.43.51,0,0-1.85.08-3.62,1.53-1.06.87-1.69,1.56-2.08,2.08.19-.13.41-.26.7-.4,1.04-.51,1.83-.31,1.83-.31,0,0-1.41.7-2.34,2.81-.21.47-.22,1.15-.12,1.91,1.15-2.32,3.24-5.22,6.81-6.48,6.4-2.25,10.52,4.32,10.52,4.32,0,0-1.86-1.15-3.76-1.33-1.3-.12-2.2-.14-2.72-.13.18.04.39.13.65.3.77.53,1.09,1.92,1.09,1.92,0,0-1.76-.96-3.93-1.02-.58-.02-1.27.22-1.83.47.15.03.31.06.51.11.74.19,1.65.88,1.65.88,0,0-1.76-.1-4.13,1.16-1.4.74-2.27,1.8-2.75,2.56,1.72-.91,4.29-1.64,7.66-.95,6.73,1.39,8.09,8.72,8.09,8.72,0,0-.92-1.3-3.34-2.5-1.34-.67-2.54-.96-3.43-1.08.55.57.8,2.57.8,2.57,0,0-1.24-1.38-2.96-2.33-1.26-.7-2.94-.91-3.75-.97.18.04.39.12.6.3.51.46.78,1.47.78,1.47,0,0-1.06-.6-1.79-.8-1.22-.34-2.07,0-2.5.25l18.42,17.67,18.42-17.67c-.43-.25-1.28-.59-2.5-.25-.73.2-1.79.8-1.79.8,0,0,.27-1.01.78-1.47.21-.19.42-.26.6-.3-.8.06-2.49.28-3.75.97-1.72.95-2.96,2.33-2.96,2.33,0,0,.25-2,.8-2.57-.89.13-2.09.42-3.43,1.08-2.43,1.21-3.34,2.5-3.34,2.5,0,0,1.36-7.33,8.09-8.72,3.37-.69,5.93.04,7.66.95-.49-.75-1.35-1.82-2.75-2.56-2.37-1.25-4.13-1.16-4.13-1.16,0,0,.91-.69,1.65-.88.19-.05.36-.08.51-.11-.56-.25-1.25-.49-1.83-.47-2.17.06-3.93,1.02-3.93,1.02,0,0,.32-1.39,1.09-1.92.26-.18.48-.26.65-.3-.52,0-1.43,0-2.72.13-1.9.18-3.76,1.33-3.76,1.33,0,0,4.12-6.57,10.52-4.32,3.57,1.26,5.66,4.16,6.81,6.48.1-.76.09-1.44-.12-1.91-.93-2.11-2.34-2.81-2.34-2.81,0,0,.79-.2,1.83.31.29.14.52.28.7.4-.39-.52-1.03-1.22-2.08-2.08-1.77-1.45-3.62-1.53-3.62-1.53,0,0,1.37-.75,2.43-.51.18.04.34.08.49.12-.54-.37-1.43-.88-2.76-1.3-2.8-.88-4.94-.95-4.94-.95,0,0,6.02-4.62,11.97,1.28,2.84,2.82,3.29,6.29,2.86,9.37.38-.49.69-1.1.82-1.85.54-3.06-.55-4.83-.55-4.83,0,0,1.22.79,1.84,1.93.03.06.04.1.07.15.09-1.05.12-2.58-.28-3.78-.67-1.99-1.93-4.21-1.93-4.21,0,0,5.59,2.89,5.49,9.24-.03,2.08-.4,3.54-.88,4.59,1.49-.05,3.52.27,5.95,1.66,5.31,3.04,4.77,7.6,4.77,7.6Z"/>
    </g>
  </g>
</svg>