<?xml version="1.0" encoding="UTF-8"?>
<svg id="Layer_2" xmlns="http://www.w3.org/2000/svg" viewBox="0 0 103.11 123.07">
  <defs>
    <style>
      .cls-1 {
        fill: #fff;
      }
    </style>
  </defs>
  <g id="PAGE4">
    <g id="WLL_x5F_CAL_x5F_SEC_x5F_1C_x5F_Lt">
      <g>
        <path class="cls-1" d="M80.82,68.48c-.45-1.74-1.17-3.41-2.16-4.97-.63-.99-1.29-1.88-1.97-2.67.66.47.13.08.02,0,.17.07,2.01.81,4.02,3.26.84,1.03,2.46,4.86,2.46,4.86l2.36-3.66c.09-.14.28-.45.5-.88,1.51,2.01,2.64,4.63,2.65,4.65.46,1.43,1.53,4.65,1.53,4.65,0,0,1.53-3.22,1.79-4.37.81-3.63.83-3.44.32-7.41-.62-4.77-2.85-8.5-6.49-10.91l-.41-1.51c3.09,1.86,4.95,3.62,4.97,3.63l3.91,3.77-.62-5.39c-.02-.14-.43-3.55-2.7-6.98-2.12-3.2-6.29-7.04-14.13-7.2-.14,0-.27,0-.41,0-.89,0-1.77.06-2.63.18l-3.03-.7c.12-.07.24-.13.35-.18,2.86-1.36,6.67-2.36,6.7-2.37l6.33-1.65-6.19-2.09c-.1-.03-2.49-.83-5.81-.83-3.55,0-8.7.92-13.08,5.3-1.45,1.45-2.63,2.91-3.52,4.35-1.24-.98-2.65-1.83-4.24-2.53V0H4.76v12.46L0,26.72l4.76,4.76v11.95l7.97,7.97v3.39l7.97,11.95v4.15l11.95,15.93v15.52h15.83l16.04,9.62v11.11l38.6-5.51v-26.79l-22.29-22.29ZM82.46,63.53c.04.1.05.2.04.31l-.04-.31ZM101.16,115.87l-34.7,4.96v-9.97l-17.45-10.47h-14.42v-14.22l-11.95-15.93v-4.09l-7.97-11.95v-3.6l-7.97-7.97v-11.95l-4.47-4.47,4.47-13.42V1.95h42.67v36.21c.14.05.28.11.42.17.14.06.28.11.41.17.14.06.27.12.4.17.1.05.2.09.3.14.11.05.22.11.33.16.1.05.19.1.29.14.11.06.22.12.33.18.08.04.16.09.24.13.17.1.34.19.5.29.08.05.15.1.23.14.1.06.19.12.29.18.08.05.15.1.23.15.09.06.19.13.28.19.07.05.13.09.2.14.14.1.28.21.42.31.05.04.1.08.15.12.09.07.19.15.28.22.06.05.11.09.17.14.08.07.16.14.24.21.05.05.1.09.15.14.09.08.18.17.27.25.03.03.06.06.09.09.11.11.21.21.31.32.04.04.08.09.12.13.04.04.08.08.12.12.04-.1.08-.2.13-.31,0-.01.01-.03.02-.04.04-.1.09-.2.13-.29,0,0,0-.02.01-.02.1-.22.21-.44.33-.66.01-.02.02-.04.03-.06.05-.09.1-.19.16-.28.01-.02.02-.04.04-.06.13-.23.27-.46.42-.69.02-.02.03-.05.05-.07.06-.09.12-.19.19-.28.02-.03.04-.06.06-.09.07-.1.14-.21.22-.31.01-.02.02-.03.03-.05.09-.12.18-.24.27-.37.02-.03.04-.05.06-.08.07-.1.15-.19.23-.29.03-.04.06-.08.09-.11.08-.09.15-.19.23-.29.03-.03.05-.06.08-.09.11-.13.21-.25.33-.38.02-.02.04-.04.06-.07.09-.11.19-.21.29-.32.04-.04.08-.08.11-.12.09-.09.18-.19.27-.28.04-.04.08-.08.11-.12.13-.13.26-.26.39-.4,1.59-1.59,3.29-2.67,4.98-3.39.24-.1.48-.2.72-.29.12-.04.24-.09.36-.13.48-.16.96-.3,1.43-.42.12-.03.23-.06.35-.08.23-.05.47-.1.7-.14.11-.02.23-.04.34-.06.46-.07.9-.12,1.33-.16.11,0,.22-.02.32-.02.43-.03.84-.04,1.24-.04.8,0,1.54.06,2.19.13.24.03.48.06.69.09,1.38.21,2.23.5,2.23.5,0,0-3.5.91-6.46,2.22-.1.04-.2.09-.29.13-.1.04-.19.09-.29.14,0,0,0,0,0,0-.11.05-.21.1-.31.16-.03.02-.07.04-.1.06-.07.04-.14.08-.21.12-.04.02-.08.05-.12.07-.07.04-.13.08-.2.12-.04.03-.08.05-.12.08-.07.04-.14.09-.2.14-.03.02-.07.05-.1.07-.09.06-.17.12-.25.18-.02.01-.03.02-.05.03-.1.07-.2.15-.3.23-.03.02-.06.05-.09.07-.07.06-.14.11-.21.17-.04.03-.07.06-.11.09-.06.05-.12.1-.18.16-.04.03-.07.06-.11.09-.06.05-.12.11-.18.16-.03.03-.06.06-.1.09-.07.06-.14.13-.21.2-.02.02-.04.04-.06.05-.09.08-.17.17-.26.25-.02.02-.04.04-.06.06-.07.07-.13.13-.19.2-.03.03-.05.06-.08.09-.05.06-.11.11-.16.17-.03.03-.05.06-.08.09-.05.06-.1.11-.15.16-.02.03-.05.05-.07.08-.06.06-.11.12-.16.18-.02.02-.03.04-.05.05-.07.08-.14.16-.2.23,0,0,0,0,0,0h0c.08-.02.15-.05.24-.07,0,0,0,0,0,0,.44-.12.89-.19,1.33-.23.13-.01.25-.02.37-.02.31-.01.6,0,.88,0,.99.05,1.72.22,1.72.22,0,0-3.27.72-6.21,4.78-.1.13-.19.27-.27.4-.03.05-.05.09-.08.14-.05.09-.11.18-.15.27-.03.05-.06.11-.08.16-.04.08-.08.16-.12.24-.03.06-.05.12-.08.18-.03.08-.06.15-.09.23-.02.06-.05.12-.07.18-.03.07-.05.15-.07.22-.02.06-.04.12-.05.19-.02.07-.04.15-.05.22-.01.06-.03.13-.04.19-.02.07-.03.15-.04.22-.01.06-.02.12-.03.18,0,0,0,0,0,.01,0,0,0,0,0-.01.05-.06.09-.12.14-.17.06-.08.12-.15.18-.23.05-.06.1-.12.15-.18.06-.07.12-.14.18-.22.05-.06.11-.12.16-.18.06-.07.13-.14.19-.21.05-.06.11-.12.16-.18.07-.08.14-.15.21-.23.05-.05.1-.11.15-.16.11-.11.22-.23.33-.34.04-.04.08-.08.12-.12.09-.09.19-.18.28-.27.05-.05.1-.1.16-.15.08-.07.16-.14.24-.22.06-.05.11-.1.17-.15.08-.07.16-.14.24-.2.06-.05.12-.1.18-.15.08-.07.17-.14.25-.2.06-.04.11-.09.17-.13.1-.08.2-.16.31-.23.04-.03.08-.06.13-.09.14-.1.29-.21.43-.31.05-.03.1-.06.14-.1.1-.07.21-.14.31-.21.06-.04.12-.08.18-.11.1-.06.19-.12.29-.18.06-.04.13-.08.19-.11.1-.06.2-.11.3-.17.06-.03.13-.07.19-.1.11-.06.22-.11.33-.17.06-.03.11-.06.17-.09.17-.08.33-.16.5-.24.02,0,.03-.01.05-.02.16-.07.31-.14.47-.2.06-.02.12-.05.18-.07.12-.05.24-.09.36-.14.07-.03.14-.05.21-.07.11-.04.23-.08.34-.12.07-.02.14-.05.21-.07.12-.04.24-.07.36-.11.07-.02.13-.04.2-.06.14-.04.29-.07.44-.11.05-.01.09-.02.14-.03.19-.04.39-.08.59-.12.05,0,.1-.02.15-.03.15-.03.3-.05.45-.07.07-.01.15-.02.22-.03.13-.02.27-.03.4-.05.08,0,.16-.02.24-.02.13-.01.27-.02.4-.03.08,0,.16-.01.24-.02.15,0,.29-.01.44-.02.07,0,.14,0,.21,0,.22,0,.44,0,.66,0,1.75.04,3.3.27,4.67.66.28.08.56.16.83.25.2.07.4.14.59.22.62.24,1.2.52,1.74.82.12.07.24.14.36.21.2.12.4.25.59.37.59.4,1.12.82,1.61,1.27.19.18.38.36.56.55.18.18.35.37.51.56.24.28.47.57.68.86.07.1.14.19.21.29.54.77.97,1.54,1.31,2.27.09.18.17.36.24.54.86,2.03,1.04,3.6,1.04,3.6,0,0-2.49-2.4-6.65-4.66,0,0,0,0-.01,0-.11-.06-.23-.12-.34-.18-.04-.02-.08-.04-.12-.06-.07-.04-.15-.08-.22-.11-.05-.02-.09-.04-.14-.07-.07-.03-.13-.06-.2-.1-.05-.02-.09-.04-.14-.07-.06-.03-.13-.06-.19-.09-.05-.02-.09-.04-.14-.06-.06-.03-.12-.05-.18-.08-.04-.02-.09-.04-.13-.06-.06-.02-.12-.05-.18-.07-.04-.02-.08-.03-.13-.05-.06-.02-.12-.05-.18-.07-.04-.01-.08-.03-.11-.04-.06-.02-.12-.05-.18-.07-.03-.01-.07-.02-.1-.04-.07-.03-.14-.05-.21-.07-.02,0-.04-.01-.06-.02-.28-.09-.53-.17-.78-.24,0,0-.01,0-.02,0-.07-.02-.15-.04-.22-.06,0,0-.02,0-.02,0-.07-.02-.14-.03-.2-.05,0,0-.01,0-.02,0-.07-.02-.13-.03-.19-.04,0,0,0,0-.01,0-.07-.01-.13-.03-.19-.04,0,0,0,0,0,0,.01,0,.02.01.03.02.07.05.15.09.23.15.03.02.05.03.08.05.11.07.22.14.34.22.65.42,1.14,1.12,1.48,1.78.02.05.05.09.07.14.05.09.09.18.13.27.31.67.45,1.2.45,1.2,0,0,0,0-.03-.02,0,0-.02-.02-.03-.03-.03-.02-.06-.05-.1-.09-.08-.07-.2-.16-.34-.27-.18-.14-.41-.3-.69-.47-.06-.03-.11-.07-.17-.1-.89-.52-2.18-1.12-3.81-1.41-.22-.04-.44-.07-.67-.1-.15-.02-.3-.03-.45-.05-.05,0-.09,0-.14-.01-.1,0-.2-.02-.29-.03-.05,0-.1,0-.15-.01-.09,0-.18-.01-.27-.02-.05,0-.1,0-.14-.01-.1,0-.2-.01-.29-.02-.03,0-.06,0-.09,0-.13,0-.25-.01-.37-.02-.03,0-.06,0-.1,0-.09,0-.17,0-.26,0-.04,0-.09,0-.13,0-.07,0-.14,0-.21,0h-.13c-.07,0-.14,0-.21,0-.04,0-.07,0-.11,0-.1,0-.19,0-.28,0-.02,0-.04,0-.06,0-.08,0-.16,0-.23.01-.03,0-.07,0-.1,0-.05,0-.11,0-.16.01-.04,0-.07,0-.1,0-.05,0-.1,0-.15.01-.03,0-.07,0-.1,0-.05,0-.1.01-.15.02-.02,0-.05,0-.07,0,0,0,0,0,0,0,0,0,0,0,0,0,.08.02.17.04.26.06.02,0,.04,0,.05.01.07.02.15.04.22.06.03,0,.05.02.08.02.07.02.15.05.23.07.03,0,.06.02.09.03.11.03.21.07.33.11,0,0,0,0,0,0,.11.04.22.08.32.12.1.04.2.09.29.13.65.32,1.11.7,1.4,1,.06.07.12.13.17.18.03.03.05.06.08.09.12.15.17.24.17.24,0,0-1.35-.48-3.49-.17-.27.04-.55.09-.84.15-.19.04-.39.09-.6.15-.31.09-.62.19-.95.31-.09.03-.19.08-.28.12,0,0-.02,0-.02.01-.09.05-.18.1-.27.15-.01,0-.02.01-.03.02-.09.06-.18.12-.26.18-.01,0-.02.02-.04.03-.09.07-.18.14-.26.21-.01,0-.02.02-.03.03-.09.08-.18.16-.27.25,0,0-.02.02-.02.02-.09.09-.19.19-.28.29,0,0,0,0,0,0-.19.21-.39.44-.58.68,0,0,0,0,0,0,0,0,0,0,0,0,.12-.04.24-.08.36-.11.01,0,.03,0,.04-.01.11-.03.22-.07.33-.1l.06-.02c.11-.03.22-.06.33-.09.02,0,.04-.01.07-.02.11-.03.23-.06.34-.09.02,0,.04,0,.06-.01.13-.03.25-.06.38-.09,0,0,.01,0,.02,0,.41-.1.84-.19,1.28-.27.02,0,.05,0,.07-.01.12-.02.23-.04.35-.06.04,0,.08-.01.11-.02.11-.02.21-.03.32-.05.05,0,.09-.01.14-.02.1-.01.2-.03.3-.04.05,0,.1-.01.15-.02.1-.01.2-.02.3-.03.05,0,.1-.01.15-.02.11-.01.21-.02.32-.03.05,0,.09,0,.14-.01.12,0,.24-.02.36-.02.03,0,.07,0,.1,0,.31-.02.62-.03.93-.03.04,0,.08,0,.13,0,.11,0,.23,0,.34,0,.06,0,.11,0,.17,0,.1,0,.2,0,.3,0,.06,0,.12,0,.19,0,.1,0,.19,0,.29.02.06,0,.13,0,.19.01.1,0,.19.01.29.02.06,0,.13.01.19.02.1,0,.2.02.29.03.06,0,.13.01.19.02.1.01.21.03.31.04.06,0,.12.02.17.02.12.02.25.04.37.06.04,0,.08.01.11.02.16.03.32.06.49.09.04,0,.08.02.12.03.12.03.24.05.36.08.06.01.12.03.18.05.1.03.21.05.31.08.07.02.13.04.2.06.1.03.2.06.29.09.07.02.14.04.21.06.1.03.19.06.29.09.07.02.14.05.21.07.1.03.19.07.29.1.07.03.14.05.2.08.1.04.2.08.3.12.06.03.13.05.19.08.11.05.22.09.33.14.05.02.11.05.16.07.16.07.32.15.49.23,0,0,0,0,0,0,.92.46,1.72.98,2.43,1.55.12.1.23.19.34.29.34.29.65.6.94.91.19.21.38.42.55.64,1.39,1.73,2.16,3.69,2.57,5.58.05.24.1.47.14.7.26,1.51.29,2.94.24,4.14,0,.09,0,.18-.01.27-.1,1.78-.4,2.97-.4,2.97,0,0-.27-1.21-.88-2.7-.13-.31-.28-.64-.44-.97-.08-.16-.17-.33-.26-.5-.09-.17-.18-.33-.28-.49-.15-.25-.3-.49-.47-.73-.06-.08-.11-.16-.17-.23-.06-.08-.12-.15-.18-.23,0,0,0,0,0,0-.12-.15-.24-.3-.36-.44-.02-.03-.04-.05-.06-.08-.11-.14-.22-.27-.33-.4-.02-.02-.04-.05-.06-.07-.11-.13-.21-.26-.32-.38,0,0-.01-.01-.02-.02-.1-.12-.2-.23-.29-.34-.02-.02-.03-.04-.05-.05-.09-.11-.19-.21-.27-.31-.02-.02-.03-.04-.05-.06-.09-.1-.17-.19-.25-.28,0,0-.02-.02-.03-.03-.08-.08-.15-.16-.22-.24-.01-.01-.02-.02-.03-.04-.07-.08-.14-.15-.21-.22-.01-.01-.03-.03-.04-.04-.07-.07-.13-.13-.19-.19,0,0-.02-.02-.02-.02-.03-.03-.05-.05-.08-.08,0,0,0,.01,0,.02,0,.02.02.03.03.05.02.03.03.07.05.1,0,.01.01.02.02.04.02.05.04.1.06.15,0,.02.01.03.02.05.02.05.04.11.06.17,0,0,0,.01,0,.02.02.06.04.13.05.2,0,.02,0,.04.01.06.02.07.03.15.05.23.02.09.03.19.03.28.06,1.15-.64,2.47-.92,2.95-.07.12-.11.19-.11.19,0,0-.07-.25-.22-.66-.1-.28-.24-.62-.42-1.02-.06-.13-.12-.27-.19-.41-.07-.14-.14-.29-.22-.44-.08-.15-.16-.31-.25-.46-.09-.16-.18-.32-.28-.48-.05-.08-.1-.16-.15-.25-.31-.49-.67-1-1.08-1.5-.14-.17-.28-.33-.43-.49-.08-.08-.16-.17-.25-.25,0,0,0,0,0,0-.09-.08-.18-.16-.28-.23,0,0,0,0-.01,0-.1-.07-.2-.14-.3-.21,0,0,0,0-.01,0-.1-.07-.21-.13-.32-.2,0,0-.01,0-.02,0-.11-.06-.22-.12-.33-.18,0,0-.01,0-.02,0-.11-.06-.23-.12-.34-.17,0,0,0,0-.01,0-.12-.06-.23-.11-.35-.16,0,0,0,0,0,0-.12-.05-.23-.1-.35-.15.03.04.05.08.08.13.01.02.03.05.04.07.04.06.08.12.12.19.01.02.03.05.04.07.05.08.1.16.15.25,0,0,0,0,0,0,.12.2.22.43.31.67.15.4.26.82.34,1.19.03.15.06.29.08.41.07.38.1.63.1.63,0,0-.53-.61-1.64-1.38-.33-.23-.7-.47-1.13-.71-.17-.1-.35-.2-.54-.29-.75-.39-1.64-.78-2.67-1.11-.14-.05-.28-.09-.42-.13-.05-.01-.09-.02-.14-.04-.09-.03-.19-.05-.28-.07-.05-.01-.1-.02-.16-.04-.09-.02-.17-.04-.26-.06-.05-.01-.1-.02-.16-.03-.09-.02-.17-.03-.26-.05-.05,0-.1-.02-.14-.02-.1-.02-.2-.03-.29-.04-.03,0-.07,0-.1-.01-.13-.02-.26-.03-.39-.04-.03,0-.05,0-.08,0-.1,0-.2-.01-.3-.02-.04,0-.08,0-.13,0-.08,0-.16,0-.25,0-.04,0-.09,0-.13,0-.08,0-.16,0-.24,0-.04,0-.08,0-.12,0-.08,0-.17,0-.25,0-.03,0-.06,0-.1,0-.23.01-.45.03-.66.05-.02,0-.04,0-.05,0-.09,0-.17.02-.26.03-.03,0-.05,0-.08,0-.08,0-.15.02-.23.03-.02,0-.05,0-.07.01-.08.01-.15.02-.22.04-.02,0-.03,0-.05,0-.09.02-.17.03-.26.05.18.06.37.13.56.2,0,0,0,0,0,0,.09.03.18.07.27.1,0,0,.01,0,.02,0,.09.03.18.07.27.11,0,0,.02,0,.03.01.09.04.18.07.27.11.01,0,.02,0,.03.01.09.04.18.08.27.12.01,0,.02.01.03.02.09.04.18.08.26.12.01,0,.03.01.04.02.08.04.17.08.26.13.02,0,.03.02.05.02.08.04.17.09.25.13.02,0,.04.02.06.03.08.04.16.09.24.13.02.01.05.02.07.04.08.04.16.09.23.13.03.02.05.03.08.05.07.04.15.09.22.13.03.02.06.04.09.06.07.04.14.09.22.14.03.02.06.04.1.06.07.05.14.09.21.14.03.02.07.04.1.07.07.04.13.09.2.14.04.03.08.05.12.08.07.05.13.1.2.15.04.03.07.05.11.08.07.05.13.1.2.15.04.03.08.06.11.09.06.05.12.1.19.15.04.03.09.07.13.1.06.05.12.1.18.15.04.04.09.07.13.11.06.05.12.1.18.15.05.04.09.08.14.12.06.05.11.1.17.15.05.04.1.09.15.13.06.05.11.11.17.16.05.05.1.09.14.14.05.05.1.1.16.16.05.05.1.1.15.15.05.05.11.11.16.17.05.05.1.1.15.16.05.06.1.11.16.17.05.05.1.11.15.16.05.05.09.11.14.16.05.06.11.12.16.19.05.06.09.11.14.17.05.06.11.13.16.19.04.05.08.1.12.16.06.07.12.14.17.22.04.05.08.11.12.16.06.08.11.15.17.23.04.05.08.11.12.17.06.08.11.16.17.24.04.06.08.12.13.19.05.08.11.15.16.23.06.09.12.18.17.27.04.06.07.11.11.16,0,0,0,0,0,0,.12.18.23.37.33.55.03.05.06.1.09.15.09.15.17.3.25.45.02.04.04.07.06.11.1.19.19.37.27.56.01.03.03.06.04.09.07.16.14.32.21.49.02.04.03.07.05.11.16.38.29.77.41,1.15,0,.02.01.05.02.07.12.39.22.79.31,1.18l22.11,22.11v24.29Z"/>
        <path class="cls-1" d="M55.39,76.98c-1.24-.1-2.37-.7-3.14-1.69l-.55-.7-.55.7c-.85,1.09-2.13,1.71-3.51,1.71-.82,0-1.61-.22-2.3-.65.2.92.37,1.53.37,1.53,0,0-.83-.59-1.8-1.62l-.04.09c-.71,1.62-2.31,2.67-4.08,2.67-.6,0-1.19-.12-1.75-.36l-.82-.35-.14.88c-.17,1.07-.71,2-1.48,2.66l2.39,3.19v11.95h11.95l5.13,3.08.3-23.08Z"/>
        <path class="cls-1" d="M34.62,80.52c.44-.41.75-.96.86-1.6l.47-2.94,2.74,1.18c.36.16.74.23,1.11.23,1.08,0,2.12-.63,2.58-1.69l.37-.85c-1.25-1.74-2.31-4.13-1.78-6.89,1.42-7.25,6.98-7.7,6.98-7.7,0,0-1.64-.81-4.12.18-2.48.99-3.13,3.44-3.13,3.44,0,0-.38-.69-.37-1.5,0-.12.01-.23.02-.34-.35.31-.73.67-1.16,1.09-2.44,2.4-2.28,4.98-2.28,4.98,0,0-1-1.24-1.02-2.36-.01-.62.03-1.02.1-1.3-.44.38-1.09,1.09-1.86,2.35-1.42,2.33-1.39,5.87-1.39,5.87,0,0-5.33-6.76,1.93-12.93,9.07-7.7,19.16-5.05,19.16-5.05,0,0-.21-.92-4.75-1.76-4.54-.83-7.88,1.52-7.88,1.52,0,0,.29-1.27.77-1.8.31-.35.58-.6.81-.76-.94.25-2.56.72-5.17,1.64-4.79,1.69-8.64,6.5-8.64,6.5,0,0,.28-7.54,6.97-11.32,6.69-3.78,14.71-1.1,14.71-1.1,0,0-1.53-2.67-7.92-3.22-6.39-.55-9.8,1.61-9.8,1.61l.35-.54c1.33-2.03,3.34-3.52,5.67-4.2-1.75-.81-3.71-1.06-5.61-.72,0,0,4.17-5.12,12.61-3.38V5.36H10.12v7.97l-3.98,11.95,3.98,3.98v11.95l7.97,7.97v3.98l7.97,11.95v3.98l8.57,11.42Z"/>
        <path class="cls-1" d="M78.13,115.71c-.5-1.97.4-4.1,2.27-5.06l.79-.41-.59-.67c-1.61-1.83-1.43-4.64.39-6.26l.66-.59-.73-.5c-2.01-1.38-2.54-4.14-1.17-6.16l.5-.74-.83-.3c-2.29-.83-3.49-3.38-2.67-5.67l.3-.84-.88-.09c-2.43-.24-4.22-2.4-4-4.83l.08-.88-.88.14c-.23.04-.46.05-.69.05-2.19,0-4.04-1.57-4.39-3.74l-.14-.88-.82.35c-.56.24-1.15.36-1.75.36-.5,0-.98-.09-1.44-.24l-.33,25.33,8.04,4.83v7.97l8.27-1.18ZM68.45,102.97l-2.14,1.55.82-2.51-2.14-1.55h2.64l.82-2.51.82,2.51h2.64l-2.14,1.55.82,2.51-2.14-1.55Z"/>
        <path class="cls-1" d="M55.41,75.34l.16-11.83-1.29,1.74s-.02.03-.03.05c-1.43,1.92-2.13,4.29-1.95,6.69l.06.78,1.18,1.51c.48.61,1.16.97,1.88,1.06"/>
        <path class="cls-1" d="M47.64,75.36c.84,0,1.66-.37,2.22-1.08l1.36-1.74c-1.16-2.47-1.42-5.29-.71-7.95,0-.02.01-.05.02-.07-1.78.82-2.23,1.99-2.41,2.73-.13.52-.23.45-.15,1.85.03.51.83,3.34.83,3.34,0,0-3.31-1.86-3.72-4.67-.15.43-.29.94-.42,1.56-.24,1.15-.06,2.97.21,4.63l1.05.81c.51.39,1.12.59,1.72.59"/>
        <path class="cls-1" d="M75.97,83.73s.47-2.52-.85-6.69c-.73-2.29-1.73-4.01-2.58-5.19-.05,1.28-2.1,3.81-2.1,3.81,0,0,.21-2.99-.61-6.05-.59-2.19-2.16-4.32-3.01-5.36.13.25.24.56.26.95.04,1.1-.83,2.55-.83,2.55,0,0-.49-1.9-1.08-2.98-.85-1.58-2.01-2.25-2.81-2.53l-.19,14.76c.43.25.92.38,1.42.38.37,0,.75-.07,1.11-.23l2.74-1.18.47,2.94c.22,1.38,1.42,2.36,2.77,2.36.14,0,.29-.01.44-.03l2.95-.46-.27,2.97c-.14,1.54.99,2.91,2.53,3.06l2.97.29-1,2.81c-.52,1.46.23,3.06,1.69,3.59l2.8,1.02-1.67,2.47c-.87,1.28-.53,3.02.74,3.9l2.46,1.68-2.23,1.98c-1.16,1.03-1.27,2.79-.25,3.96l1.96,2.24-2.65,1.36c-1.25.64-1.81,2.08-1.39,3.38l17.98-2.57v-19.92l-18.44-18.44c-.55,5.25-3.34,9.17-3.34,9.17"/>
      </g>
    </g>
  </g>
</svg>