<?xml version="1.0" encoding="UTF-8"?>
<svg id="Layer_2" xmlns="http://www.w3.org/2000/svg" version="1.1" viewBox="0 0 102 122.6">
  <!-- Generator: Adobe Illustrator 30.1.0, SVG Export Plug-In . SVG Version: 2.1.1 Build 136)  -->
  <g id="PAGE4">
    <g id="WLL_x5F_CAL_x5F_SEC_x5F_1C_x5F_Dk">
      <g>
        <path d="M79.2,69.6h0c0-.4-.2-.8-.3-1.2,0,0,0,0,0,0-.1-.4-.3-.8-.4-1.2,0,0,0,0,0-.1,0-.2-.1-.3-.2-.5,0,0,0,0,0,0,0-.2-.2-.4-.3-.6,0,0,0,0,0-.1,0-.2-.2-.3-.2-.5,0,0,0,0,0-.2-.1-.2-.2-.4-.3-.6h0c0,0,0-.1-.1-.2,0,0-.1-.2-.2-.3,0,0-.1-.2-.2-.2,0,0,0-.1-.1-.2,0,0-.1-.2-.2-.2,0,0,0-.1-.1-.2,0,0-.1-.2-.2-.2,0,0,0-.1-.1-.2,0,0-.1-.2-.2-.2,0,0,0-.1-.1-.2,0,0-.1-.1-.2-.2,0,0,0-.1-.1-.2,0,0-.1-.1-.2-.2,0,0,0-.1-.1-.2,0,0,0-.1-.2-.2,0,0-.1-.1-.2-.2,0,0,0-.1-.2-.2,0,0-.1-.1-.2-.2s-.1-.1-.2-.2-.1-.1-.2-.2,0,0-.2-.1c0,0-.1-.1-.2-.2,0,0,0,0-.2-.1,0,0-.1-.1-.2-.2,0,0,0,0-.1-.1,0,0-.1-.1-.2-.2,0,0,0,0-.1-.1,0,0-.1-.1-.2-.2,0,0,0,0-.1-.1,0,0-.1,0-.2-.2,0,0,0,0-.1,0,0,0-.1-.1-.2-.2,0,0,0,0-.1,0,0,0-.1,0-.2-.2,0,0,0,0-.1,0,0,0-.1,0-.2-.1,0,0,0,0-.1,0,0,0-.2,0-.2-.1,0,0,0,0,0,0,0,0-.2,0-.2-.1,0,0,0,0,0,0,0,0-.2,0-.2-.1,0,0,0,0,0,0,0,0-.2,0-.2-.1,0,0,0,0,0,0,0,0-.2,0-.2-.1h0c0,0-.2-.1-.3-.2,0,0,0,0,0,0,0,0-.2,0-.3-.1,0,0,0,0,0,0,0,0-.2,0-.3-.1,0,0,0,0,0,0,0,0-.2,0-.3-.1,0,0,0,0,0,0,0,0-.2,0-.3-.1,0,0,0,0,0,0,0,0-.2,0-.3-.1h0c0,0-.2,0-.3-.1h0c-.2,0-.4-.1-.6-.2,0,0,.2,0,.3,0h0c0,0,.2,0,.2,0,0,0,0,0,0,0,0,0,.2,0,.2,0,0,0,0,0,0,0,0,0,.2,0,.3,0h0c.2,0,.4,0,.7,0h1.2c0,0,.2,0,.3,0h0c.1,0,.3,0,.4,0,0,0,0,0,0,0,0,0,.2,0,.3,0,0,0,0,0,.2,0,0,0,.2,0,.3,0,0,0,.1,0,.2,0,0,0,.2,0,.3,0,0,0,.1,0,.2,0,0,0,.2,0,.3,0,0,0,0,0,.1,0,.1,0,.3,0,.4.1,1.1.3,2,.7,2.8,1.2.2,0,.4.2.6.3.4.2.8.5,1.2.7,1.2.8,1.7,1.4,1.7,1.4h0s0-.3,0-.7c0-.1,0-.3,0-.4,0-.4-.2-.8-.3-1.2,0-.2-.2-.5-.3-.7h0c0,0,0-.2-.2-.3,0,0,0,0,0,0,0,0,0-.1-.1-.2,0,0,0,0,0,0,0,0,0,0,0-.1.1,0,.2,0,.4.2h0c.1,0,.2.1.4.2h0c.1,0,.2.1.3.2h0c.1,0,.2.1.3.2h0c.1,0,.2.1.3.2h0c.1,0,.2.1.3.2h0c0,0,.2.2.3.2h0c0,0,.2.2.3.3.2.2.3.3.4.5.4.5.8,1,1.1,1.5,0,0,.1.2.2.2,0,.2.2.3.3.5,0,.2.2.3.3.5s.2.3.2.5c0,.2.1.3.2.4.2.4.3.8.4,1,.2.4.2.7.2.7,0,0,0,0,.1-.2.3-.5,1-1.9.9-3,0,0,0-.2,0-.3s0-.2,0-.2c0,0,0,0,0,0,0,0,0-.1,0-.2h0c0,0,0-.1,0-.2,0,0,0,0,0,0,0,0,0-.1,0-.2,0,0,0,0,0,0,0,0,0,0,0-.1,0,0,0,0,0,0h0s0,0,0,0h0c0,0,.1.2.2.2,0,0,0,0,0,0,0,0,.1.2.2.2,0,0,0,0,0,0,0,0,.2.2.2.2,0,0,0,0,0,0,0,0,.2.2.3.3,0,0,0,0,0,0,0,0,.2.2.3.3,0,0,0,0,0,0,0,.1.2.2.3.3,0,0,0,0,0,0,.1.1.2.2.3.4,0,0,0,0,0,0,.1.1.2.3.3.4,0,0,0,0,0,0,.1.2.2.3.4.5h0c0,0,.1.2.2.2s.1.2.2.2c.2.2.3.5.5.8,0,.2.2.3.3.5,0,.2.2.3.3.5.2.3.3.7.4,1,.6,1.5.9,2.8.9,2.8h0s.3-1.2.4-3.1c0,0,0-.2,0-.3,0-1.2,0-2.7-.2-4.3,0-.2,0-.5-.1-.7-.4-1.9-1.2-4-2.7-5.8-.2-.2-.4-.4-.6-.7-.3-.3-.6-.6-1-.9-.1,0-.2-.2-.4-.3-.7-.6-1.6-1.1-2.5-1.6h0c-.2,0-.3-.2-.5-.2,0,0-.1,0-.2,0-.1,0-.2,0-.3-.2,0,0-.1,0-.2,0,0,0-.2,0-.3-.1,0,0-.1,0-.2,0,0,0-.2,0-.3-.1,0,0-.1,0-.2,0,0,0-.2,0-.3,0,0,0-.1,0-.2,0,0,0-.2,0-.3,0h-.2c-.1,0-.2-.1-.3-.1,0,0-.1,0-.2,0-.1,0-.2,0-.4,0,0,0,0,0-.1,0-.2,0-.3,0-.5,0,0,0,0,0-.1,0-.1,0-.3,0-.4,0,0,0-.1,0-.2,0-.1,0-.2,0-.3,0,0,0-.1,0-.2,0,0,0-.2,0-.3,0,0,0-.1,0-.2,0,0,0-.2,0-.3,0s-.1,0-.2,0c0,0-.2,0-.3,0h-1.1c-.3,0-.7,0-1,0h0c-.1,0-.2,0-.4,0s0,0-.1,0c-.1,0-.2,0-.3,0,0,0,0,0-.2,0,0,0-.2,0-.3,0,0,0,0,0-.2,0-.1,0-.2,0-.3,0,0,0,0,0-.1,0-.1,0-.2,0-.3,0,0,0,0,0-.1,0-.1,0-.2,0-.4,0,0,0,0,0,0,0-.4,0-.9.2-1.3.3h0c-.1,0-.3,0-.4,0,0,0,0,0,0,0-.1,0-.2,0-.3,0,0,0,0,0,0,0-.1,0-.2,0-.3,0,0,0,0,0,0,0-.1,0-.2,0-.3,0,0,0,0,0,0,0-.1,0-.2,0-.4.1h0c.2-.2.4-.5.6-.7h0c0,0,.2-.2.3-.3h0c0-.1.2-.2.3-.3,0,0,0,0,0,0,0,0,.2-.2.3-.2,0,0,0,0,0,0,0,0,.2-.1.3-.2,0,0,0,0,0,0,0,0,.2-.1.3-.2,0,0,0,0,0,0,0,0,.2,0,.3-.1.3-.1.7-.2,1-.3.2,0,.4-.1.6-.2.3,0,.6-.1.9-.2,2.2-.3,3.6.2,3.6.2,0,0,0,0-.2-.2,0,0,0,0,0,0,0,0,0-.1-.2-.2-.3-.3-.8-.7-1.4-1,0,0-.2,0-.3-.1-.1,0-.2,0-.3-.1h0c-.1,0-.2,0-.3-.1,0,0,0,0,0,0,0,0-.2,0-.2,0,0,0,0,0,0,0,0,0-.2,0-.2,0,0,0,0,0,0,0,0,0-.2,0-.3,0h0c0,0,0,0,.2,0,0,0,0,0,0,0,0,0,0,0,.2,0h.1c0,0,.1,0,.2,0h.1c0,0,.2,0,.2,0h1.5c.1,0,.2,0,.4,0h0c0,0,.2,0,.3,0,0,0,0,0,.2,0,0,0,.2,0,.3,0,0,0,.1,0,.2,0,0,0,.2,0,.3,0,0,0,0,0,.2,0,.2,0,.3,0,.5,0,.2,0,.5,0,.7,0,1.7.3,3,.9,3.9,1.5,0,0,.1,0,.2.1.3.2.5.3.7.5.2.1.3.2.3.3,0,0,0,0,0,0,0,0,0,0,0,0,0,0,0,0,0,0,0,0-.2-.5-.5-1.2,0,0,0-.2-.1-.3,0,0,0,0,0-.1-.4-.7-.9-1.4-1.5-1.8-.1,0-.2-.2-.4-.2,0,0,0,0,0,0,0,0-.2,0-.2-.2,0,0,0,0,0,0h0c0,0,.1,0,.2,0h0c0,0,.1,0,.2,0h0c0,0,.1,0,.2,0h0c0,0,.2,0,.2,0h0c.2,0,.5.2.8.2,0,0,0,0,0,0,0,0,.1,0,.2,0,0,0,0,0,0,0,0,0,.1,0,.2,0,0,0,0,0,.1,0,0,0,.1,0,.2,0,0,0,0,0,.1,0,0,0,.1,0,.2,0,0,0,0,0,.1,0,0,0,.1,0,.2,0,0,0,0,0,.1,0,0,0,.1,0,.2,0,0,0,0,0,.1,0,0,0,.1,0,.2,0,0,0,0,0,.1,0,0,0,.2,0,.2.1,0,0,0,0,.1,0,.1,0,.2.1.3.2h0c4.3,2.3,6.9,4.8,6.9,4.8,0,0-.2-1.6-1.1-3.7,0-.2-.2-.4-.2-.6-.3-.8-.8-1.5-1.3-2.3,0,0-.1-.2-.2-.3-.2-.3-.4-.6-.7-.9-.2-.2-.3-.4-.5-.6-.2-.2-.4-.4-.6-.6-.5-.5-1.1-.9-1.7-1.3-.2-.1-.4-.3-.6-.4-.1,0-.2-.1-.4-.2-.6-.3-1.2-.6-1.8-.8-.2,0-.4-.2-.6-.2-.3,0-.6-.2-.8-.3-1.4-.4-3-.6-4.8-.7h-.9c-.2,0-.3,0-.4,0,0,0-.2,0-.2,0-.1,0-.3,0-.4,0,0,0-.2,0-.2,0-.1,0-.3,0-.4,0,0,0-.2,0-.2,0-.2,0-.3,0-.5,0,0,0,0,0-.2,0-.2,0-.4,0-.6.1,0,0,0,0-.1,0-.2,0-.3,0-.4.1h-.2c-.1.1-.2.1-.4.2,0,0-.2,0-.2,0-.1,0-.2,0-.3.1,0,0-.1,0-.2,0-.1,0-.2,0-.4.1,0,0-.1,0-.2,0-.2,0-.3.1-.5.2,0,0,0,0,0,0-.2,0-.3.2-.5.2,0,0-.1,0-.2,0-.1,0-.2.1-.3.2,0,0-.1,0-.2.1,0,0-.2.1-.3.2,0,0-.1,0-.2.1,0,0-.2.1-.3.2,0,0-.1,0-.2.1-.1,0-.2.1-.3.2,0,0,0,0-.2,0-.2,0-.3.2-.4.3,0,0,0,0-.1,0-.1,0-.2.2-.3.2,0,0-.1,0-.2.1,0,0-.2.1-.3.2,0,0-.1,0-.2.2,0,0-.2.1-.2.2,0,0-.1,0-.2.2,0,0-.2.2-.2.2,0,0-.1,0-.2.2,0,0-.2.2-.3.3,0,0,0,0-.1.1-.1.1-.2.2-.3.3,0,0,0,.1-.2.2,0,0-.2.2-.2.2,0,0-.1.1-.2.2,0,0-.1.2-.2.2,0,0-.1.1-.2.2,0,0-.1.2-.2.2,0,0-.1.1-.2.2,0,0-.1.2-.2.2,0,0,0,.1-.1.2h0s0,0,0,0c0,0,0-.1,0-.2,0,0,0-.2,0-.2,0,0,0-.1,0-.2,0,0,0-.2,0-.2,0,0,0-.1,0-.2,0,0,0-.2,0-.2,0,0,0-.1,0-.2,0,0,0-.2,0-.2,0,0,0-.1,0-.2,0,0,0-.2.1-.2,0,0,0-.1,0-.2,0,0,0-.2.2-.3,0,0,0,0,0-.1,0-.1.2-.3.3-.4,3-4.2,6.4-4.9,6.4-4.9,0,0-.8-.2-1.8-.2-.3,0-.6,0-.9,0-.1,0-.2,0-.4,0-.4,0-.9.1-1.4.2h0c0,0-.2,0-.2,0h0c0,0,.1-.2.2-.2,0,0,0,0,0,0,0,0,.1-.1.2-.2,0,0,0,0,0,0,0,0,0-.1.2-.2,0,0,0,0,0,0,0,0,.1-.1.2-.2s0,0,0,0c0,0,.1-.1.2-.2,0,0,0,0,0,0,0,0,.2-.2.3-.3,0,0,0,0,0,0,0,0,.1-.1.2-.2,0,0,0,0,0,0,0,0,.1-.1.2-.2,0,0,0,0,.1,0,0,0,.1-.1.2-.2,0,0,0,0,.1,0,0,0,.1-.1.2-.2,0,0,0,0,0,0,0,0,.2-.2.3-.2,0,0,0,0,0,0,0,0,.2-.1.3-.2,0,0,0,0,.1,0,0,0,.1,0,.2-.1,0,0,0,0,.1,0,0,0,.1,0,.2-.1,0,0,0,0,.1,0,0,0,.2,0,.2-.1,0,0,0,0,.1,0,.1,0,.2-.1.3-.2h0c0,0,.2,0,.3-.1,0,0,.2,0,.3-.1,3.1-1.4,6.7-2.3,6.7-2.3,0,0-.9-.3-2.3-.5-.2,0-.5,0-.7-.1-.7,0-1.4-.1-2.2-.1-.4,0-.8,0-1.3,0-.1,0-.2,0-.3,0-.4,0-.9,0-1.4.2-.1,0-.2,0-.3,0-.2,0-.5,0-.7.1-.1,0-.2,0-.4,0-.5.1-1,.3-1.5.4-.1,0-.2,0-.4.1-.2,0-.5.2-.8.3-1.7.8-3.5,1.9-5.1,3.5-.1.1-.3.3-.4.4h-.1c0,.2-.2.3-.3.4,0,0,0,0-.1.1,0,.1-.2.2-.3.3,0,0,0,0,0,0-.1.1-.2.3-.3.4,0,0,0,0,0,0,0,0-.2.2-.2.3,0,0,0,0,0,.1,0,0-.2.2-.2.3,0,0,0,0,0,0,0,.1-.2.2-.3.4,0,0,0,0,0,0,0,.1-.2.2-.2.3,0,0,0,0,0,0,0,0-.1.2-.2.3,0,0,0,0,0,0-.2.2-.3.5-.4.7,0,0,0,0,0,0,0,0-.1.2-.2.3,0,0,0,0,0,0-.1.2-.2.5-.3.7,0,0,0,0,0,0,0,0,0,.2-.1.3,0,0,0,0,0,0,0,.1,0,.2-.1.3,0,0,0,0-.1-.1,0,0,0,0-.1-.1,0-.1-.2-.2-.3-.3s0,0,0,0c0,0-.2-.2-.3-.3s0,0-.2-.1c0,0-.2-.1-.2-.2,0,0-.1,0-.2-.2,0,0-.2-.2-.3-.2,0,0,0,0-.2-.1-.1-.1-.3-.2-.4-.3,0,0-.1,0-.2-.1,0,0-.2-.1-.3-.2,0,0-.2,0-.2-.2,0,0-.2-.1-.3-.2,0,0-.2,0-.2-.2-.2,0-.3-.2-.5-.3,0,0-.2,0-.2-.1-.1,0-.2-.1-.3-.2,0,0-.2,0-.3-.2-.1,0-.2-.1-.3-.2,0,0-.2,0-.3-.1-.1,0-.3-.1-.4-.2s-.3-.1-.4-.2c-.1,0-.3-.1-.4-.2V0H4.6v11.2L0,25l4.6,4.6v12.3l8.2,8.2v3.7l8.2,12.3v4.2l12.3,16.4v14.7h14.9l18,10.8v10.3l35.8-5.1v-25.1l-22.8-22.8h0ZM43.8,69.5c.1-.6.3-1.2.4-1.6.4,2.9,3.8,4.8,3.8,4.8,0,0-.8-2.9-.8-3.4,0-1.4,0-1.4.2-1.9.2-.8.7-2,2.5-2.8,0,0,0,0,0,0-.7,2.8-.5,5.7.7,8.2l-1.4,1.8c-.6.7-1.4,1.1-2.3,1.1s-1.2-.2-1.8-.6l-1.1-.8c-.3-1.7-.5-3.6-.2-4.8M51.7,73v-.8c-.2-2.5.5-4.9,1.9-6.9,0,0,0,0,0,0l1.3-1.8-.2,12.2c-.7,0-1.4-.5-1.9-1.1l-1.2-1.6h0ZM16.4,52.8v-4.1l-8.2-8.2v-12.3l-4.1-4.1,4.1-12.3V3.5h37v32.8c-8.7-1.8-13,3.5-13,3.5,2-.3,4,0,5.8.7-2.4.7-4.5,2.2-5.8,4.3l-.4.5s3.5-2.2,10.1-1.7,8.2,3.3,8.2,3.3c0,0-8.3-2.8-15.2,1.1-6.9,3.9-7.2,11.7-7.2,11.7,0,0,4-5,8.9-6.7,2.7-1,4.4-1.4,5.3-1.7-.2.2-.5.4-.8.8-.5.5-.8,1.9-.8,1.9,0,0,3.4-2.4,8.1-1.6,4.7.9,4.9,1.8,4.9,1.8,0,0-10.4-2.7-19.8,5.2-7.5,6.4-2,13.3-2,13.3,0,0,0-3.7,1.4-6.1.8-1.3,1.5-2,1.9-2.4,0,.3-.1.7,0,1.3,0,1.2,1,2.4,1,2.4,0,0-.2-2.7,2.3-5.1.4-.4.8-.8,1.2-1.1,0,.1,0,.2,0,.3,0,.8.4,1.5.4,1.5,0,0,.7-2.5,3.2-3.5,2.6-1,4.2-.2,4.2-.2,0,0-5.7.5-7.2,7.9-.6,2.8.5,5.3,1.8,7.1l-.4.9c-.5,1.1-1.5,1.7-2.7,1.7s-.8,0-1.1-.2l-2.8-1.2-.5,3c-.1.7-.4,1.2-.9,1.7l-8.8-11.8v-4.1l-8.2-12.3h0ZM36.9,98v-12.3l-2.5-3.3c.8-.7,1.3-1.6,1.5-2.7l.2-.9.8.4c.6.2,1.2.4,1.8.4,1.8,0,3.5-1.1,4.2-2.8h0c1,1,1.8,1.6,1.8,1.6,0,0-.2-.6-.4-1.6.7.4,1.5.7,2.4.7,1.4,0,2.7-.6,3.6-1.8l.6-.7.6.7c.8,1,2,1.7,3.2,1.8l-.3,23.8-5.3-3.2h-12.3ZM61.5,105.3l.3-26.1c.5.2,1,.2,1.5.2s1.2-.1,1.8-.4l.8-.4.2.9c.4,2.2,2.3,3.8,4.5,3.8s.5,0,.7,0h.9c0-.1,0,.8,0,.8-.2,2.5,1.6,4.7,4.1,5h.9c0,0-.3.9-.3.9-.8,2.4.4,5,2.8,5.8l.9.3-.5.8c-1.4,2.1-.9,4.9,1.2,6.3l.8.5-.7.6c-1.9,1.7-2.1,4.6-.4,6.4l.6.7-.8.4c-1.9,1-2.9,3.2-2.3,5.2l-8.5,1.2v-8.2l-8.3-5h0ZM98.5,114.4l-18.5,2.7c-.4-1.3.1-2.8,1.4-3.5l2.7-1.4-2-2.3c-1.1-1.2-.9-3,.3-4.1l2.3-2-2.5-1.7c-1.3-.9-1.7-2.7-.8-4l1.7-2.6-2.9-1.1c-1.5-.5-2.3-2.2-1.7-3.7l1-2.9-3.1-.3c-1.6-.2-2.8-1.6-2.6-3.2l.3-3.1-3,.5c-.2,0-.3,0-.4,0-1.4,0-2.6-1-2.9-2.4l-.5-3-2.8,1.2c-.4.2-.8.2-1.1.2s-1-.1-1.5-.4l.2-15.2c.8.3,2,1,2.9,2.6.6,1.1,1.1,3.1,1.1,3.1,0,0,.9-1.5.8-2.6,0-.4-.1-.7-.3-1,.9,1.1,2.5,3.3,3.1,5.5.8,3.2.6,6.2.6,6.2,0,0,2.1-2.6,2.2-3.9.9,1.2,1.9,3,2.7,5.3,1.4,4.3.9,6.9.9,6.9,0,0,2.9-4,3.4-9.5l19,19v20.5h0Z"/>
        <polygon points="69.7 103.2 71.8 101.6 69.1 101.6 68.3 99 67.4 101.6 64.7 101.6 66.9 103.2 66.1 105.8 68.3 104.2 70.5 105.8 69.7 103.2"/>
      </g>
    </g>
  </g>
</svg>