<?xml version="1.0" encoding="UTF-8"?>
<svg id="Layer_1" xmlns="http://www.w3.org/2000/svg" version="1.1" viewBox="0 0 2000 2000">
  <!-- Generator: Adobe Illustrator 30.1.0, SVG Export Plug-In . SVG Version: 2.1.1 Build 136)  -->
  <defs>
    <style>
      .st0 {
        stroke: #95c93d;
      }

      .st0, .st1 {
        stroke-linecap: round;
        stroke-linejoin: round;
      }

      .st1 {
        stroke: #fff;
      }
    </style>
  </defs>
  <polygon points="999.8 1700 999.8 1700 999.8 1700 999.8 1700"/>
  <path d="M381.5,300v823.5c0,0,0,.6,0,.6,5,155.2,71.7,300.2,187.9,408.4,116,108,268.8,167.5,430.3,167.5,161.5,0,314.4-59.5,430.4-167.5,116.1-108.2,182.8-253.2,187.8-408.4v-.6l.3-823.5H381.5ZM1579.7,1122.9c-9.6,299.1-265.6,538.8-579.9,538.8s-570.3-239.7-579.9-538.8V338.3h1160.1l-.3,784.6Z"/>
  <path d="M949.6,438.7c.2-.3.4-.5.6-.8-.2.3-.4.5-.6.8Z"/>
  <path d="M563.8,761.3h49.4c15.9,0,21.1-10.4,21.1-21.7v-25.9h-23.5v26h-45.4v-81.3h45.4v19.2h23.5v-16.9c0-15.1-5-24-20.4-24h-51.8c-12.6,0-20.2,6.3-20.2,21.7v81.3c0,15,8.9,21.7,22,21.7Z"/>
  <path d="M689.1,656.4v83.5h0c0,14.8,9.5,21.5,21.4,21.5h50.8c14.4,0,21.8-10.2,21.8-22.4v-78.3c0-14.8-5.4-24-19.2-24h-55.3c-11.2,0-19.4,6.5-19.4,19.8ZM712.6,658.3h47v81.3h-47c0,0,0-81.3,0-81.3Z"/>
  <polygon points="840.2 636.6 840.2 636.6 840.2 761.3 923.1 761.3 923.1 739.6 864.1 739.6 864.1 636.6 840.2 636.6"/>
  <polygon points="975.7 636.6 975.7 636.6 975.7 761.3 1058.7 761.3 1058.7 739.6 999.6 739.6 999.6 636.6 975.7 636.6"/>
  <line class="st1" x1="1111.3" y1="636.6" x2="1111.3" y2="636.6"/>
  <polygon points="1193.4 740.1 1135.2 740.1 1135.2 708.9 1175.2 708.9 1175.2 688 1135.2 688 1135.2 657.9 1193.4 657.9 1193.4 636.6 1111.3 636.6 1111.3 761.3 1193.4 761.3 1193.4 740.1"/>
  <polygon points="1316.1 673.6 1316.1 673.6 1316.1 673.6 1316.1 673.6"/>
  <path d="M1268.4,761.3h50.3c15.5,0,21-10.4,21-21.7v-48.3h-47v19h23.7v29.5h-46.4v-81.7h46.2v15.6h23.5v-15c0-14.4-5-22.1-19.6-22.1h-53.3c-11.8,0-20.2,5.2-20.2,19.8v83.3c0,15,8.9,21.7,21.9,21.7Z"/>
  <line class="st1" x1="1396.2" y1="636.6" x2="1396.2" y2="636.6"/>
  <polygon points="1396.2 761.3 1478.4 761.3 1478.4 740.1 1420.1 740.1 1420.1 708.9 1460.1 708.9 1460.1 688 1420.1 688 1420.1 657.9 1478.4 657.9 1478.4 636.6 1396.2 636.6 1396.2 761.3"/>
  <path d="M696.9,1216.2v-298.9c0-53.6-9.2-85.8-49.2-85.8h-108.1v464.8h101.8c42.3,0,55.5-40.1,55.5-80.1ZM593.4,895.8h50.3v336.1h-50.3v-336.1Z"/>
  <line class="st1" x1="745.5" y1="1184" x2="745.5" y2="1184"/>
  <path d="M745.5,1184h53.8v-115.6h26.8l31.5,115.6h53.8l-33.8-121c17.2-6.5,24.6-21.7,24.6-46.1v-129.1c0-40.1-13.7-56.4-48-56.4h-108.7v352.6ZM799.4,880.2h49.7v139.4h-49.7v-139.4Z"/>
  <path d="M991,1184l7.4-73.8h54.9l7.4,73.8h54.3l-40-352.5h-96.7l-41.2,352.5h53.8ZM1021.8,883.6h9.2l17.8,178.9h-45.2l18.3-178.9Z"/>
  <polygon points="1285.6 880.2 1285.6 831.4 1152.3 831.4 1152.2 831.4 1152.2 1184 1206 1184 1206 1041.9 1266.7 1041.9 1266.7 994.2 1206 994.2 1206 880.2 1285.6 880.2"/>
  <polygon points="1313.6 895.8 1369.1 895.8 1369.1 895.8 1369.1 1296.3 1422.8 1296.3 1422.8 895.8 1478.4 895.8 1478.4 831.4 1313.6 831.4 1313.6 895.8"/>
  <rect x="745.5" y="1254.1" width="538.4" height="42.1"/>
  <rect x="1272.5" y="468.6" width="205.8" height="42.1"/>
  <rect x="541.9" y="468.6" width="181.6" height="42.1"/>
  <path d="M1017,455l-2,6.8h12.7l-1.6-5.6v-4.7h18.6c6.9,0,12.5-5.6,12.5-12.5v-5.2c0-6.9-5.6-12.6-12.6-12.6h0c0,0-31.7,0-31.7,0l4.1,7v26.8ZM1042.1,431.4c2.7,0,4.9,2.2,5,4.9,0,2.7-2.2,4.9-4.9,5h-14.9v-5.4l-1.9-4.4h0s16.8,0,16.8,0Z"/>
  <polygon points="1027.2 533.7 1027.2 506.8 1013.1 506.8 1017 514.8 1017 543.9 1048.9 543.9 1052 531.6 1044.8 533.7 1027.2 533.7"/>
  <polygon points="1027.2 492.8 1027.2 465.9 1013.1 465.9 1017 473.9 1017 503 1051.1 503 1054.2 490.7 1047 492.8 1027.2 492.8"/>
  <path d="M953.3,434.1s0,0,0,0h0c-.2.2-.4.4-.6.6-.9,1-1.7,2-2.5,3.1-.2.3-.4.5-.6.8-.6.8-1.2,1.6-1.8,2.4-4.3,6.4-6.2,11.9-6.5,16.6-.3,4,.6,8,2.4,11.6,1.5,2.9,3.2,5.6,5.2,8.1.7.9,1.3,1.8,2,2.7,4.8,6.9,9.2,14,13.1,21.5.4.7.7,1.5,1,2.3,1.2,2.6,1.9,4.7,2,6,0,.1,0,.3.1.4l.4,3.4v21.2c0,.8,0,1.6.2,2.4v.9c.3,2.5.9,5,1.7,7.4.3.8.6,1.6,1,2.4,1.3,2.7,3.1,5.2,5.3,7.2,4.1,3.5,9.1,5.8,14.4,6.6l1.5,15.6,3.6,2.1v-25.7h-.1c-2,0-8.8-.5-13.6-4.8-.7-.7-1.4-1.4-1.9-2.2-1.8-2.7-2.9-5.8-3.2-9v-.4c-.1-.9-.2-1.8,0-2.7v-24.3c-.3-6-6.3-17.7-18-34.8-.7-1-1.4-1.9-2.1-2.9-6-8.2-11.2-15.3,3.5-32.5,8.2-9.5,18.3-13.5,35.4-13.9h.2v-8.3l-2.6.2c-4.1.1-8.1.5-12.1,1.2,0,0,0,0,0,0h0s0,.1,0,.1c-4,.7-7.8,1.9-11.5,3.4h0c-5.9,2.6-11.1,6.5-15.3,11.3Z"/>
  <path d="M981.9,463.1h0c-3.8,3.4-7.1,7.5-9.7,12l2.5,4.4c2.9-4.5,6.5-8.5,10.8-11.8,2.8-2.1,6-3.6,9.4-4.3v-7.1c-1.8.4-3.5.9-5.1,1.7-2.9,1.3-5.6,3.1-8,5.2Z"/>
  <path d="M975.5,446.9h0c-4.7,3.9-8.6,8.6-11.7,13.8l2.6,4.5c3.5-5.3,7.6-10.2,12.6-13.5,4.7-3.2,10.2-4.9,15.9-5v-7.5c-3.2.2-6.2.9-9.2,1.9-3.7,1.3-7.2,3.2-10.3,5.7Z"/>
  <path d="M999.4,592.4l76.3-45.2,3-141.9h-158.6q0,0,0,0l3,142,76.3,45.1ZM1069.7,414.1l-2.7,128.1-63.2,37.4v-165.5s0,0,0,0h65.9ZM953.8,414.1l14.9,8.6h0c3.7-1.5,7.6-2.7,11.5-3.4h0c0-.1,0-.1,0-.1l-8.9-5.2h23.7v165.4h0c0,.1-3.7-2-3.7-2l-60-35.3-.4-18.8,38.3,22.1c-.8-2.4-1.4-4.9-1.6-7.4l-.2-1.8c0-.6,0-1.2,0-1.8h0c0-.1-36.2-21.4-36.2-21.4l-.4-20.7,36.6,21.4-.4-3.6c0-.1,0-.3,0-.4-.1-1.3-.8-3.4-2-6-.3-.7-.7-1.5-1.1-2.3l-33.4-19.4-.4-20.7,13.6,7.9c-1.8-3.6-2.6-7.6-2.4-11.6l-11.5-6.7-.4-20.7,18.4,10.8s0,0,0,0c.6-.8,1.2-1.6,1.8-2.4.2-.3.4-.5.6-.8.8-1.1,1.7-2.1,2.5-3.1.2-.2.4-.4.6-.6h0s-24.1-14.1-24.1-14.1v-6c-.1,0,24.6,0,24.6,0Z"/>
  <polygon points="843.6 1404.2 762 1404.2 724.3 1469.6 788.7 1469.6 779 1452.7 755.1 1452.7 773.3 1421.1 812.7 1421.1 799.4 1444.2 782.6 1444.2 802.1 1478 818.9 1478 810 1462.5 843.6 1404.2"/>
  <line class="st0" x1="1070.6" y1="1404.2" x2="1070.6" y2="1404.2"/>
  <polygon points="1054.6 1455.8 1084.4 1404.2 1070.6 1404.2 1041 1455.6 1049 1469.6 1102.8 1469.6 1094.9 1455.8 1054.6 1455.8"/>
  <polygon points="993.3 1455.8 1023 1404.2 1009.3 1404.2 971.6 1469.6 1040.3 1469.6 1032.3 1455.8 993.3 1455.8"/>
  <polygon points="1210.4 1404.3 1210.4 1404.2 1172.7 1469.6 1186.5 1469.6 1194.3 1456 1194.8 1455.1 1202.3 1442.1 1210.3 1428.3 1213.3 1423.1 1215.1 1420 1216.2 1418 1257.5 1418 1251.5 1428.3 1228.3 1428.3 1227.3 1442.1 1225.1 1469.6 1241.5 1469.6 1243.6 1442.1 1257.3 1442.1 1279.2 1404.3 1210.4 1404.3"/>
  <polygon points="858.8 1418 913.8 1418 921.7 1404.2 853 1404.2 852.9 1404.2 819.3 1462.5 819.4 1462.5 823.5 1469.6 884 1469.6 891.9 1455.8 836.9 1455.8 858.8 1418"/>
  <path d="M1132.2,1404.2h0s-29.2,50.5-29.2,50.5l6.9,11.9,14.2-24.6h41.2l-15.9,27.5h13.8l37.7-65.3h-68.7ZM1132.1,1428.3l6-10.3h41.2l-6,10.3h-41.2Z"/>
  <polygon points="965.4 1464 999.9 1404.2 931.1 1404.2 931.1 1404.2 893.4 1469.6 959.8 1469.6 951.9 1455.8 915.1 1455.8 936.9 1418 978.2 1418 958.5 1452.1 965.4 1464"/>
  <path d="M1285.5,1404.2c-3.9,0-6.9,2.9-6.9,6.7s3,6.8,6.9,6.8,6.9-3,6.9-6.8-3-6.7-6.9-6.7ZM1285.6,1416.3c-3,0-5.2-2.4-5.2-5.4s2.2-5.4,5.2-5.4,5.2,2.5,5.2,5.4-2.1,5.3-5.1,5.3Z"/>
  <polygon points="1284.4 1414.5 1284.4 1414.5 1284.4 1414.5 1284.4 1414.5"/>
  <path d="M1287,1411.2h0c.8-.3,1.4-.9,1.4-1.6s-.3-1.2-.7-1.5c-.5-.3-1.1-.5-2.3-.5s-2,0-2.6.2v6.7h1.5v-2.7h.7c.9,0,1.3.3,1.4,1.1.2.8.3,1.4.5,1.6h1.7c-.2-.2-.3-.7-.5-1.7-.2-.9-.6-1.4-1.2-1.6ZM1285.2,1410.7h-.7v-1.9c.2,0,.4,0,.9,0,1,0,1.4.4,1.4,1s-.7,1-1.6,1Z"/>
  <path d="M784.2,470.6h16.6v6.2l-29.6,27.5v10.4h42.7,0v-10.8h-25.6l21.2-19.9c1.2-1.1,2.2-2,2.8-2.7.6-.7,1-1.5,1.2-2.4.2-.9.3-2,.3-3.2v-4.7c0-2.5-.3-4.6-.9-6.3-.6-1.7-1.7-2.9-3.3-3.7-1.6-.8-4-1.2-7.1-1.2h-21.6c-3.6,0-6.1.9-7.6,2.7-1.5,1.8-2.2,4.5-2.2,8.2v6.5h13.1v-6.5Z"/>
  <polygon points="830.3 514.7 830.3 514.6 830.3 514.6 830.3 514.7"/>
  <path d="M825.2,513.6c1.5.7,3.3,1.1,5.1,1.1h24.5c2.3,0,4.3-.5,5.8-1.5,1.6-1,2.8-2.3,3.6-4,.8-1.7,1.2-3.5,1.2-5.5v-32.6c0-3.6-.7-6.4-2-8.5s-3.8-3-7.2-3h-27c-2.8,0-5.1.8-6.8,2.4s-2.5,4-2.5,7.2v35c0,2.4.5,4.3,1.4,5.9s2.2,2.7,3.8,3.4ZM832.8,471.3h19.8v31.7h-19.8v-31.7Z"/>
  <path d="M1145.7,470.2h17.5v7.3l-29.9,26.3v10.5h42.9v-10.6h-27.3l23-19.7c3-2.6,3.8-4.2,3.8-7.6v-6.2c0-7.2-2.4-10.7-9.9-10.7h-23.5c-6.8,0-9.1,4-9.1,10.8v6.9h12.5v-6.9Z"/>
  <path d="M1192.7,514.2h22.8c7.8,0,9.9-5.6,9.9-11.2v-11.7c0-7.1-2.3-11-9.2-11h-21.4v-9.5h27.4v-11.4h-30.2c-6,0-9.8,3.1-9.8,10.5v34c0,6.6,3.7,10.4,10.5,10.4ZM1194.8,491h18.3v11.9h-18.3v-11.9Z"/>
</svg>