<?xml version="1.0" encoding="UTF-8"?>
<svg id="Layer_1" xmlns="http://www.w3.org/2000/svg" version="1.1" viewBox="0 0 2000 2000">
  <!-- Generator: Adobe Illustrator 30.1.0, SVG Export Plug-In . SVG Version: 2.1.1 Build 136)  -->
  <defs>
    <style>
      .st0 {
        fill: #ffc900;
      }

      .st1 {
        fill: #fff;
      }

      .st2 {
        fill: #95c93d;
      }

      .st3 {
        fill: #ffcb06;
      }
    </style>
  </defs>
  <g id="c">
    <g id="d">
      <path class="st3" d="M999.8,1700c-161.5,0-314.4-59.5-430.4-167.5-116.2-108.2-182.9-253.2-187.9-408.4V300c0,0,1236.7,0,1236.7,0l-.3,823.5v.6c-5,155.2-71.7,300.2-187.8,408.4-116,108-268.9,167.5-430.4,167.5h0Z"/>
      <path d="M419.8,338.3v784.6c9.6,299.1,265.6,538.8,579.9,538.8s570.3-239.7,579.9-538.8l.3-784.6H419.8Z"/>
    </g>
  </g>
  <g id="e">
    <path class="st1" d="M634.3,713.7v25.9c0,11.3-5.2,21.7-21.1,21.7h-49.4c-13,0-22-6.7-22-21.7v-81.3c0-15.3,7.6-21.7,20.2-21.7h51.8c15.3,0,20.4,8.8,20.4,24v16.9h-23.5v-19.2h-45.4v81.3h45.4v-26h23.5Z"/>
    <path class="st1" d="M689.1,739.8v-83.5c0-13.2,8.2-19.8,19.4-19.8h55.3c13.8,0,19.2,9.2,19.2,24v78.3c0,12.3-7.4,22.4-21.8,22.4h-50.8c-11.9,0-21.4-6.7-21.4-21.5h0ZM759.6,739.6v-81.3h-47v81.3h47Z"/>
    <path class="st1" d="M840.2,636.6h23.9v103h59v21.7h-82.9v-124.7h0Z"/>
    <path class="st1" d="M975.7,636.6h23.9v103h59v21.7h-82.9v-124.7h0Z"/>
    <path class="st1" d="M1111.3,636.6h82.2v21.3h-58.3v30.1h40v20.9h-40v31.1h58.3v21.3h-82.2v-124.8h0Z"/>
    <path class="st1" d="M1316.1,673.6v-15.6h-46.2v81.7h46.4v-29.5h-23.7v-19h47v48.3c0,11.3-5.4,21.7-21,21.7h-50.3c-13,0-21.9-6.7-21.9-21.7v-83.3c0-14.6,8.4-19.8,20.2-19.8h53.3c14.6,0,19.6,7.7,19.6,22.1v15h-23.5,0Z"/>
    <path class="st1" d="M1396.2,636.6h82.2v21.3h-58.3v30.1h40v20.9h-40v31.1h58.3v21.3h-82.2v-124.8h0Z"/>
    <path class="st1" d="M539.6,831.4h108.1c40,0,49.2,32.2,49.2,85.8v298.9c0,40-13.2,80.1-55.5,80.1h-101.8v-464.8h0ZM643.7,1231.9v-336.1h-50.3v336.1h50.3Z"/>
    <path class="st1" d="M745.5,1184v-352.6h108.7c34.3,0,48,16.3,48,56.4v129.1c0,24.4-7.4,39.6-24.6,46.1l33.8,121h-53.8l-31.5-115.6h-26.8v115.6h-53.8,0ZM849.1,1019.7v-139.4h-49.7v139.4h49.7Z"/>
    <path class="st1" d="M1053.3,1110.2h-54.9l-7.4,73.8h-53.8l41.2-352.5h96.7l40,352.5h-54.3l-7.4-73.8h0ZM1003.5,1062.5h45.2l-17.8-178.9h-9.2l-18.3,178.9h0Z"/>
    <path class="st1" d="M1152.3,831.4h133.3v48.8h-79.5v113.9h60.6v47.7h-60.6v142.2h-53.8v-352.6h0Z"/>
    <path class="st1" d="M1369.1,895.8h-55.5v-64.4h164.8v64.4h-55.6v400.5h-53.8v-400.5h0Z"/>
    <rect class="st0" x="745.5" y="1254.1" width="538.4" height="42.1"/>
  </g>
  <g>
    <rect class="st0" x="1272.5" y="468.6" width="205.8" height="42.1"/>
    <rect class="st0" x="541.9" y="468.6" width="181.6" height="42.1"/>
  </g>
  <g id="g">
    <path class="st1" d="M1025.3,431.5h16.8c2.7,0,4.9,2.2,5,4.9,0,2.7-2.2,4.9-4.9,5h-14.9v-5.4l-1.9-4.4h0ZM1044.6,421.2h-31.7l4.1,7v26.8l-2,6.8h12.7l-1.6-5.6v-4.7h18.6c6.9,0,12.5-5.6,12.5-12.5h0v-5.2c0-6.9-5.6-12.6-12.6-12.6"/>
    <polygon class="st1" points="1027.2 533.7 1027.2 506.8 1013.1 506.8 1017 514.8 1017 544 1048.9 544 1052 531.6 1044.8 533.7 1027.2 533.7"/>
    <polygon class="st1" points="1027.2 492.8 1027.2 465.9 1013.1 465.9 1017 473.9 1017 503 1051.1 503 1054.2 490.7 1047 492.8 1027.2 492.8"/>
    <path class="st1" d="M992.4,417.9c-4.1.1-8.1.5-12.1,1.2-4,.7-7.8,1.9-11.5,3.5-5.9,2.6-11.2,6.5-15.4,11.5-.2.2-.4.4-.6.6-1.7,2-3.4,4.1-4.9,6.4-4.4,6.5-6.2,11.9-6.5,16.6-.3,4,.6,8,2.4,11.6,1.5,2.9,3.2,5.6,5.2,8.1.7.9,1.3,1.8,2,2.7,4.8,6.9,9.2,14,13.1,21.5,1.3,2.8,2.4,5.7,3.1,8.7l.4,3.4v21.2c0,.8,0,1.6.2,2.4v.9c.3,2.5.9,5,1.7,7.4.3.8.6,1.6,1,2.4,1.3,2.7,3.1,5.2,5.3,7.2,4.1,3.5,9.1,5.8,14.4,6.6l1.5,15.6,3.6,2.2v-25.7h-.2c-2,0-8.8-.5-13.6-4.8-.7-.7-1.4-1.4-1.9-2.2-1.8-2.7-2.9-5.8-3.2-9v-.4c-.1-.9-.2-1.8,0-2.7v-24.3c-.3-6-6.3-17.7-18-34.8-.7-1-1.4-1.9-2.1-2.9-6-8.2-11.2-15.3,3.5-32.5,8.2-9.5,18.3-13.5,35.4-14h.2v-8.3"/>
    <path class="st1" d="M981.9,463.1c-3.8,3.5-7.1,7.5-9.7,12l2.5,4.4c2.9-4.5,6.5-8.5,10.8-11.8,2.8-2.1,6-3.6,9.4-4.4v-7.1c-1.8.4-3.5,1-5.1,1.7-2.9,1.3-5.6,3.1-8,5.2"/>
    <path class="st1" d="M975.6,446.9c-4.7,3.9-8.6,8.6-11.7,13.9l2.6,4.5c3.5-5.3,7.6-10.2,12.6-13.5,4.7-3.2,10.2-4.9,15.9-5v-7.5c-3.2.2-6.2.9-9.2,1.9-3.7,1.3-7.2,3.2-10.3,5.7"/>
    <path class="st3" d="M980.3,419.2l-8.9-5.2h23.7v165.5l-3.7-2.2-60-35.3-.4-18.8,38.3,22.1c-.8-2.4-1.4-4.9-1.6-7.4l-.2-1.8c0-.6,0-1.2,0-1.8h0c0-.1-36.2-21.4-36.2-21.4l-.4-20.7,36.6,21.4-.4-3.6c0-1.7-1.1-4.7-3.1-8.7l-33.4-19.5-.4-20.7,13.6,7.9c-1.8-3.6-2.6-7.5-2.4-11.6l-11.5-6.7-.4-20.7,18.4,10.8c1.5-2.2,3.2-4.3,4.9-6.4.2-.2.4-.4.6-.6l-24.1-14.1v-6c-.1,0,24.6,0,24.6,0l15,8.6c3.7-1.6,7.6-2.8,11.5-3.5M1003.7,414.1h65.9l-2.7,128.1-63.2,37.4v-165.5h0ZM920.1,405.4l3,142,76.3,45.1,76.3-45.2,3-142h-158.6q0,0,0,0Z"/>
  </g>
  <g>
    <polygon class="st2" points="762 1404.2 724.3 1469.6 788.7 1469.6 779 1452.7 755.1 1452.7 773.3 1421.1 812.7 1421.1 799.4 1444.2 782.6 1444.2 802.1 1478 818.9 1478 810 1462.5 843.6 1404.2 762 1404.2"/>
    <path class="st2" d="M852.9,1404.2l-33.6,58.2h0l4.1,7.1h60.5l7.9-13.8h-55l21.8-37.8h55l7.9-13.8h-68.8ZM931.1,1404.2l-37.7,65.3h66.4l-7.9-13.8h-36.8l21.8-37.8h41.2l-19.7,34.1,6.9,11.9,34.5-59.8h-68.7ZM1009.3,1404.2l-37.7,65.3h68.7l-7.9-13.8h-39l29.8-51.6h-13.8ZM1070.6,1404.2l-29.7,51.4,8,13.9h53.8l-7.9-13.8h-40.3l29.8-51.6h-13.8,0ZM1138.1,1418h41.2l-6,10.3h-41.2l6-10.3h0ZM1132.2,1404.2l-29.2,50.5,6.9,11.9,14.2-24.6h41.2l-15.9,27.5h13.8l37.7-65.3h-68.7ZM1210.4,1404.2l-37.7,65.3h13.8l7.8-13.6.5-.9,7.5-13,7.9-13.7,3-5.2,1.8-3.1,1.2-2h41.2l-6,10.3h-23.2l-1.1,13.7-2.1,27.5h16.3l2.1-27.5h13.8l21.8-37.8h-68.8Z"/>
    <path class="st2" d="M1284.5,1410.7h.7c.9,0,1.6-.3,1.6-1s-.4-1-1.4-1-.7,0-.9,0v1.9h0ZM1284.4,1414.5h-1.6v-6.7c.6-.1,1.5-.2,2.6-.2s1.8.2,2.3.5c.4.3.7.8.7,1.5s-.6,1.3-1.4,1.6h0c.7.3,1,.8,1.2,1.7.2,1,.3,1.4.5,1.7h-1.7c-.2-.2-.3-.9-.5-1.6-.1-.7-.5-1.1-1.4-1.1h-.7v2.7h0ZM1280.3,1411c0,3,2.2,5.4,5.2,5.4s5.1-2.4,5.1-5.3-2.2-5.4-5.2-5.4-5.2,2.4-5.2,5.4M1292.4,1411c0,3.8-3,6.8-6.9,6.8s-6.9-3-6.9-6.8,3.1-6.7,6.9-6.7,6.9,3,6.9,6.7"/>
  </g>
  <g>
    <path class="st1" d="M813.9,514.7h-42.7v-10.4l29.6-27.5v-6.2h-16.6v6.5h-13.1v-6.5c0-3.7.8-6.4,2.2-8.2s4-2.7,7.6-2.7h21.6c3.1,0,5.5.4,7.1,1.2s2.7,2.1,3.3,3.7c.6,1.7.9,3.8.9,6.3v4.6c0,1.2,0,2.3-.3,3.2s-.6,1.7-1.2,2.5-1.5,1.6-2.8,2.7l-21.2,19.9h25.6v10.8h0Z"/>
    <path class="st1" d="M830.3,514.7c-1.9,0-3.6-.3-5.1-1.1s-2.8-1.9-3.8-3.4-1.4-3.5-1.4-5.9v-35c0-3.2.8-5.6,2.5-7.2,1.7-1.6,4-2.4,6.8-2.4h27c3.4,0,5.8,1,7.2,3s2,4.9,2,8.5v32.6c0,2-.4,3.8-1.2,5.5s-2,3-3.6,4c-1.6,1-3.5,1.5-5.8,1.5h-24.5,0ZM832.8,503h19.8v-31.7h-19.8v31.7Z"/>
  </g>
  <g>
    <path class="st1" d="M1133.3,514.2v-10.5l29.9-26.3v-7.3h-17.5v6.9h-12.5v-6.9c0-6.7,2.3-10.8,9.1-10.8h23.5c7.5,0,9.9,3.5,9.9,10.7v6.2c0,3.4-.8,5-3.8,7.6l-23,19.7h27.3v10.6h-42.9Z"/>
    <path class="st1" d="M1182.3,503.9v-34c0-7.3,3.8-10.5,9.8-10.5h30.2v11.4h-27.4v9.5h21.4c6.9,0,9.2,3.9,9.2,11v11.7c0,5.6-2.1,11.2-9.9,11.2h-22.8c-6.7,0-10.5-3.8-10.5-10.4ZM1213.1,491h-18.3v11.9h18.3v-11.9Z"/>
  </g>
</svg>