<?xml version="1.0" encoding="UTF-8"?>
<svg id="Layer_1" xmlns="http://www.w3.org/2000/svg" version="1.1" viewBox="0 0 669.1 786.8">
  <!-- Generator: Adobe Illustrator 30.5.1, SVG Export Plug-In . SVG Version: 2.1.4 Build 3)  -->
  <defs>
    <style>
      .st0 {
        fill: #ffcc06;
      }

      .st1 {
        fill: #fff;
      }
    </style>
  </defs>
  <path d="M474.9,646.2l23.9-13.2c-41.7-9.9-83-34.2-83-34.2,19.3,23.3,41.6,38.2,59.1,47.3h0Z"/>
  <path d="M388,608.5c-.3,26.2,23.8,48.5,42.9,62l20.6-11.3c-45.3-17.6-63.4-50.6-63.4-50.6h0Z"/>
  <path d="M383.4,655.5c-1.3,14.1,4.6,26,11.4,34.8l12.1-6.6c-15.3-11.4-23.4-28.1-23.4-28.1h0Z"/>
  <circle cx="387.3" cy="468" r="5.9"/>
  <circle cx="388" cy="517.3" r="5.9"/>
  <circle cx="387.3" cy="580.7" r="5.9"/>
  <path d="M165.6,562.6s24.7-31.7-42.8-27.1c0,0-34.7,8.5-59.6-13.2v32.5c7.9,4.3,18.8,7.4,33,4.8,0,0,36.1-9.2,32.8,22.5,0,0-2,11.3-.6,23.8l31,16.8c-7.2-17.3-9.6-39.1,6.2-60.1Z"/>
  <g>
    <path class="st0" d="M323.7,248s-11.7-.5-32.7-8.6c0,0-19.6-7.5-46.4-10.7,0,0-8.9-2-11.3,4.5,0,0-3.3,6,3.3,12.9,0,0,17.2,22.7,30.7,48.6,0,0,8.2,17.7,15.2,25.8,0,0,6.5,13.2,19.6,5.2,0,0,23-15.6,30.8-58.4,0,0,4.7-17.7-9.3-19.3h0Z"/>
    <path class="st0" d="M145.7,276.8s24.7-27,38.7-37.5c0,0,6.1-3.1,5.3-8.3,0,0,0-4-16.5-6,0,0-30.7-4.8-84.2,7.3,0,0-10.9,3.2-9.1,17.6,0,0,3.2,33.5,18.9,55.3,0,0,7.2,11.4,17.1,1.7,0,0,21-20.4,29.8-30h0Z"/>
    <path class="st1" d="M523.3,533.7c-27.5.2-61-2.4-61-2.4-11.4-1.9-11.5-10.4-11.5-10.4-1.7-3.9-2.8-52.4-2.8-52.4-.2-21.1-3.4-41.1-3.4-41.1-19.5-3.1-30.6,0-30.6,0-1.7,1.8-.9,15.3-.9,15.3,1.7,22,5.3,114.5,5.3,114.5-.3,10.3,5.9,10,5.9,10,42.9,4.4,95.2,1.2,95.2,1.2,6.7.2,9.1-3.9,9.1-3.9,1.9-10.5,1.2-27.8,1.2-27.8,0-3.6-6.4-3.1-6.4-3.1h0Z"/>
    <path class="st0" d="M241.4,261s-9.2-18.5-17.9-17.9c0,0-7.3,0-10.3,12.7,0,0-11.3,34.6-8,84.1,0,0-.4,13.5,15,14.7,0,0,20.2,3.7,57.1-11.7,0,0,8.8-6.3,1.7-18.3,0,0-26-40.2-37.7-63.7h0Z"/>
    <path class="st1" d="M526.6,371.8c-54.4-2.2-79.4-5.8-79.4-5.8-7.7-2.5-7.1-22.9-7.1-22.9.8-38.8-1.6-70.2-1.6-70.2-.4-5.3-23.3-3.5-23.3-3.5-6.3-.2-7.1,4.9-7.1,4.9-3,17.1,2,75.5,2,75.5,2.2,25.8,1.8,40,1.8,40-.4,7.3,5.5,7.7,5.5,7.7,73.5,10.1,107,1.6,107,1.6,4.1-10.1,2.3-27.4,2.3-27.4h-.1Z"/>
    <path class="st0" d="M470.9,154.7c32.2,3.5,41.2-4.5,41.2-4.5,6.6-8.2,1.2-19.8,1.2-19.8-8.5-16.1-47.8-13.8-47.8-13.8-14.6.2-15.7,7.8-15.7,7.8-2.5,13.4,1,29.3,1,29.3,10.8.4,20,1,20,1h0Z"/>
    <path class="st0" d="M311.3,162.3s-10-14.6-34.5,5.5c0,0-24.4,17.9-41,43.8,0,0-5.5,6.7,1.9,10,0,0,10.5,4.6,37.6,8.4,0,0,9.7,1.1,31.8,7.4,0,0,12,3.5,16,3,0,0,13.5.2,12.5-11.9,0,0-2.1-34.8-24.4-66.1h.1Z"/>
    <path class="st0" d="M200,241.3s-7-5.8-20.8,8c0,0-32.7,32.2-57.2,62.5,0,0-9.1,9.7-1.3,14.9,0,0,29.2,26,64.3,27.9,0,0,14-1,14.8-17.9,0,0,1.6-48.6,6.4-77.4,0,0,3.3-14.3-6.2-18.1h0Z"/>
    <path class="st0" d="M213.3,209.5c-8.5,0-15.4,6.9-15.4,15.4s6.9,15.4,15.4,15.4,15.4-6.9,15.4-15.4-6.9-15.4-15.4-15.4Z"/>
    <path class="st0" d="M87.2,116.5c65.6-61.6,137.5-59.7,137.5-59.7,78.6.4,110,42.4,110,42.4,46.7,58.6,43.3,134.8,43.3,134.8,1,53.6-8.8,137.6-8.8,137.6-7,84.5-1.9,214.8-1.9,214.8,2.3,37.8,1.8,100,1.8,100,0,9.2.2,21.4.6,32l254.4-140.2V46.7H50.6v120.1c15.2-31.7,36.6-50.3,36.6-50.3ZM387.3,348.9c3.4,0,6.1,2.7,6.1,6.1s-2.7,6.1-6.1,6.1-6.1-2.7-6.1-6.1,2.7-6.1,6.1-6.1ZM384.4,299.1c0-2.5,2-4.5,4.5-4.5s4.5,2,4.5,4.5-2,4.5-4.5,4.5-4.5-2-4.5-4.5ZM393.2,468c0,3.3-2.6,5.9-5.9,5.9s-5.9-2.6-5.9-5.9,2.6-5.9,5.9-5.9,5.9,2.6,5.9,5.9ZM388,523.2c-3.3,0-5.9-2.6-5.9-5.9s2.6-5.9,5.9-5.9,5.9,2.6,5.9,5.9-2.6,5.9-5.9,5.9ZM393.2,580.7c0,3.3-2.6,5.9-5.9,5.9s-5.9-2.6-5.9-5.9,2.6-5.9,5.9-5.9,5.9,2.6,5.9,5.9ZM389.6,243.5c-2.6,0-4.8-2.1-4.8-4.8s2.1-4.8,4.8-4.8,4.8,2.1,4.8,4.8-2.1,4.8-4.8,4.8ZM387.1,182c-3.3,0-5.9-2.6-5.9-5.9s2.6-5.9,5.9-5.9,5.9,2.6,5.9,5.9-2.6,5.9-5.9,5.9ZM384.4,410c3.3,0,5.9,2.6,5.9,5.9s-2.6,5.9-5.9,5.9-5.9-2.6-5.9-5.9,2.6-5.9,5.9-5.9ZM394.8,690.3c-6.8-8.8-12.7-20.7-11.4-34.8,0,0,8.2,16.7,23.4,28.1l-12.1,6.6h0ZM430.9,670.4c-19.1-13.5-43.2-35.8-42.9-62,0,0,18.2,33,63.4,50.6l-20.6,11.3h0ZM403.4,77.2s2-5.3,68.7-4c0,0,71.7-2.3,90.2,24.1,0,0,9.9,10.2,6.6,47.6,0,0-3,33.7-26.4,42.9,0,0-25.4,10.3-82.3,10.9,0,0-13.5-1.3-14.2,24.8,0,0,.7,19.2-4.3,19.8,0,0-24.3,3.4-39.3,1,0,0-4.1-1.3-3.6-23.2,0,0,1.9-70-1.4-112.9,0,0-2.3-26.4,5.9-31.1h0ZM534.9,571.2s-22.9,5.4-109.2,3c0,0-9.7.3-11.8-.7,0,0-3,0-2.3-28.9,0,0-1.3-31.4-2.7-65.8,0,0-1.8-39.9-1.3-51,0,0,0-7.4,6.7-8,0,0,16.1-1.2,35.7.5,0,0,3.4,49.3,2.9,64.3,0,0,0,32.7,5.5,36.1,0,0,1.6,6.9,39.4,7.3,0,0,16.6,1.2,34.3-.2,0,0,5,0,5,3.4,0,0,0,26.2-2,40h-.2ZM402.3,402.5s3.2-22.1,0-72.3c0,0-2-50.7,1.4-65.8,0,0,.8-4.3,17-4.1,0,0,24.6-.4,25.8,10.8,0,0-1,43.6,0,63.9,0,0-1.8,22.7,12.8,25.2,0,0,26,6.1,66.2,3.7,0,0,6.5.4,7.7,7.3,0,0,1.2,7.1,0,32.7,0,0-1.6,3.2-9.7,3.5,0,0-83.1,2.4-121.2-4.9ZM456,341.3c0-2.5,2-4.4,4.4-4.4s4.4,2,4.4,4.4-2,4.4-4.4,4.4-4.4-2-4.4-4.4ZM467,283.1c0-3.4,2.7-6.1,6.1-6.1s6.1,2.7,6.1,6.1-2.7,6.1-6.1,6.1-6.1-2.7-6.1-6.1ZM474.9,646.2c-17.5-9.1-39.7-24-59.1-47.3,0,0,41.3,24.2,83,34.2l-23.9,13.2h0ZM611.7,449.3c-4,11.1-6.3,22.3-3.7,30.6,0,0,1.3,5,3.7,11.8v26.7c-3.7-5.9-7.9-12.2-13-18.6,0,0-27.6-26.3-8.5-53.9,0,0,10.8-14.9,21.5-32v35.4ZM611.7,383.2c-25.5,34.4-47.4,59-47.4,59-31.6,29.6,8.2,71.9,8.2,71.9,18.6,21,28.4,43.3,33.5,59.8l-32.9,18.1c7.8-70.5-51-90.9-51-90.9-21.3-9.1-21.9-22.3-21.9-22.3-.4-24.2,35.3-41.1,35.3-41.1,38.4-25.8,62-56.3,76.2-81.6v27.1h0ZM611.7,295.4c-27.5,21.3-79.8,53.8-135.2,47.2,0,0,81.9-15.5,135.2-82.3v35.1h0ZM611.7,213c-60.5,70.3-118.6,69.1-118.6,69.1,158.5-99.8,114.5-186.7,83.9-222.9h34.7v153.8h0ZM396.3,59.2c-9.2,10.3-16.7,27-12.5,53.7,0,0,3.3,26.5-2.1,42.9,0,0-5-59.6-59.5-96.6h74.1ZM63.2,67.1c3.2-2.9,6.6-5.5,10-7.9h46c-28.4,11.8-45.6,28.8-56,43.9v-36h0Z"/>
    <path class="st0" d="M224,206.4s7.5,4.5,16.4-6.8c0,0,19.2-25.8,45.4-48.4,0,0,8.1-7.5,0-15.4,0,0-23.9-24.8-52.9-28.8,0,0-13.2-2.6-11.9,11.7,0,0,1.7,44.6-1.5,71.3,0,0-3.6,12.8,4.5,16.4h0Z"/>
    <path class="st0" d="M106.3,224.1s56.8-6.3,70.4-4.3c0,0,9.7,1.5,12.4-3.9,0,0,3.2-4.6-5.8-15,0,0-28.2-35.8-56.8-53.7,0,0-9.5-7.8-18.5,3.2,0,0-20.9,26.2-25.5,60.9,0,0,.7,14.6,23.8,12.8Z"/>
    <path class="st1" d="M408.5,235.3c15.7,3.2,26.9,0,26.9,0,5.3-2.7,5.8-26.1,5.8-26.1,1.2-16.9,16.5-16.9,16.5-16.9,46,1.2,74-8.7,74-8.7,21.4-5.8,28.4-32.8,28.4-32.8,11.5-55-25.8-63.5-25.8-63.5-64.5-16.1-118.1-7.4-118.1-7.4-13.4,1.9-9.9,34-9.9,34,1,19.4-.7,63.6-.7,63.6-2.2,56.9,2.9,57.7,2.9,57.7h0ZM443.5,113.9s8-7,48.4-2.3c0,0,31.5,4.1,33.4,27.2,0,0-.6,19.2-20.2,21.6,0,0-27.8,2.7-54.2,0,0,0-4.9,1.2-7.4-4.9,0,0-4.5-29.5,0-41.6h0Z"/>
    <path class="st0" d="M133.2,143.4s33.9,29.6,47.6,46.8c0,0,12.7,19,22.4,17.1,0,0,7.4-.5,10.1-14.8,0,0,4.9-34.9-2.1-75.8,0,0-1.6-12.8-17.5-9.9,0,0-41.9,6.2-57.9,20,0,0-12.9,7.8-2.7,16.6h.1Z"/>
    <path d="M493.1,282.2s58.1,1.2,118.6-69.1V59.3h-34.7c30.5,36.2,74.6,123.1-83.9,222.9h0Z"/>
    <path d="M476.5,342.6c55.5,6.6,107.7-25.9,135.2-47.2v-35.1c-53.3,66.8-135.2,82.3-135.2,82.3Z"/>
    <path d="M381.7,155.8c5.4-16.5,2.1-42.9,2.1-42.9-4.2-26.6,3.3-43.4,12.5-53.7h-74.1c54.5,37,59.5,96.6,59.5,96.6Z"/>
    <path d="M119.2,59.2h-46c-3.4,2.3-6.8,5-10,7.9v36c10.4-15.1,27.7-32.1,56-43.9h0Z"/>
    <path d="M535.6,437.7s-35.7,16.8-35.3,41.1c0,0,.6,13.2,21.9,22.3,0,0,58.9,20.4,51,90.9l32.9-18.1c-5.1-16.5-15-38.8-33.5-59.8,0,0-39.8-42.3-8.2-71.9,0,0,21.9-24.6,47.4-59v-27.1c-14.2,25.3-37.7,55.8-76.2,81.6h0Z"/>
    <path d="M598.8,499.8c5,6.5,9.3,12.7,13,18.6v-26.7c-2.4-6.8-3.7-11.8-3.7-11.8-2.6-8.2-.3-19.5,3.7-30.6v-35.4c-10.7,17-21.5,32-21.5,32-19.1,27.6,8.5,53.9,8.5,53.9Z"/>
    <circle cx="473.1" cy="283.1" r="6.1"/>
    <path d="M464.9,341.3c0-2.5-2-4.4-4.4-4.4s-4.4,2-4.4,4.4,2,4.4,4.4,4.4,4.4-2,4.4-4.4Z"/>
    <circle cx="387.3" cy="355.1" r="6.1" transform="translate(-137.7 377.9) rotate(-45)"/>
    <path d="M393.5,299.1c0-2.5-2-4.5-4.5-4.5s-4.5,2-4.5,4.5,2,4.5,4.5,4.5,4.5-2,4.5-4.5Z"/>
    <circle cx="389.6" cy="238.7" r="4.8"/>
    <circle cx="387.1" cy="176" r="5.9"/>
    <circle cx="384.4" cy="415.9" r="5.9"/>
    <path d="M277.7,592.3s36.8-72.3,21.8-133.6c0,0-5-50-54.5-32.7,0,0-93.6,37.3-152.7-18.2,0,0-16.5-17.5-29-36.8v46.1c20.6,20.6,66.4,52.7,149.5,49.9,0,0,97.7-13.2,55.9,85,0,0-35.3,63.6-32.3,112.6l38.6,20.9c-9.7-23.3-15.7-56.6,2.8-93v-.2Z"/>
    <path d="M227.7,569.2s25.5-42.3,15.2-66.6c0,0-6.1-22.9-62.4-16.5,0,0-78.5,8.3-117.3-36.5v32.9c13.8,11.5,38.4,25.4,75,23,0,0,70.8-12.6,69.8,24.9,0,0,0,21.3-12,44.9,0,0-13.3,30.9-9.3,62.3l26.2,14.2c-4.8-19.5-4.7-47.6,14.7-82.6h0Z"/>
    <path class="st1" d="M0,603l337.1,183.8,332-183.9V0H0v603.1h0ZM12.5,12.5h644v583.1l-308.5,170.8-4.4,3-.5-.3-6.1,3.4L12.5,595.6V12.5Z"/>
    <path class="st1" d="M362.2,722.6c0-.8,0-1.7-.2-2.6,0,0-1-27.4-.6-49.5,0,0-1.9-60.7-4.3-96.6,0,0-4.1-154.9,2.9-212,0,0,12.9-119.2,8.3-156.1,0,0-8.7-85.2-69.1-120.2,0,0-75-47.9-178.6,15.7,0,0-84.2,47.9-73.2,157,0,0,12.4,86.1,92.1,122.9,0,0,36.8,23,123.4,9.2,0,0,47.4-12.9,60.3,32.2,0,0,10.1,54.8,5.1,132.1,0,0-6.3,122.8-4.1,171.5l15.8,8.6,22.2-12.3h0ZM327.2,305.6c-26,51.5-81.1,58-81.1,58-70.6,10.1-108.3-14.6-108.3-14.6-64.1-34.1-65.3-111.1-65.3-111.1.5-83.2,64.5-121.6,64.5-121.6,49.5-27.2,102.6-15.4,102.6-15.4,48.7,15,77.9,56.4,77.9,56.4,15.1,17.3,20.7,49.9,20.7,49.9,12.2,61.2-10.9,98.5-10.9,98.5h0Z"/>
    <path class="st1" d="M46.1,288.7c-1.2-3.8-2.3-7.4-3.3-10.9.5,2.9,1.1,5.7,2,8.6.3.9.7,1.7,1.3,2.3Z"/>
    <path class="st0" d="M315,654.6c3.2-59.7,3.6-129.8,3.6-129.8,2.3-40.1-7.7-99.3-7.7-99.3-11.4-37.3-78.8-22.3-78.8-22.3-63.3,11.4-111.6-20.5-111.6-20.5-37.2-19.4-58.2-52.1-69.9-81.6v277.1l262.6,142.2c-.4-29.1,1.8-65.8,1.8-65.8h0ZM128.4,606c-1.4-12.6.6-23.8.6-23.8,3.3-31.7-32.8-22.5-32.8-22.5-14.1,2.6-25.1-.5-33-4.8v-32.5c24.8,21.7,59.6,13.2,59.6,13.2,67.5-4.6,42.8,27.1,42.8,27.1-15.8,21-13.3,42.8-6.2,60.1l-31-16.8ZM186.7,637.6c-4-31.4,9.3-62.3,9.3-62.3,12-23.6,12-44.9,12-44.9,1-37.5-69.8-24.9-69.8-24.9-36.5,2.5-61.1-11.4-75-23v-32.9c38.8,44.9,117.3,36.5,117.3,36.5,56.2-6.5,62.4,16.5,62.4,16.5,10.3,24.2-15.2,66.6-15.2,66.6-19.4,35-19.5,63.1-14.7,82.6l-26.2-14.2h0ZM236.3,664.4c-3-48.9,32.3-112.6,32.3-112.6,41.8-98.2-55.9-85-55.9-85-83.1,2.8-128.9-29.3-149.5-49.9v-46.1c12.5,19.4,29,36.8,29,36.8,59.1,55.5,152.7,18.2,152.7,18.2,49.5-17.3,54.5,32.7,54.5,32.7,15,61.4-21.8,133.6-21.8,133.6-18.5,36.4-12.5,69.7-2.8,93l-38.6-20.9v.2Z"/>
    <path d="M346.1,770.2l.5.3,4.4-3,308.5-170.8V13.5H15.5v583.1l324.5,176.9,6.1-3.4h0ZM324.2,726.3c-2.3-48.6,4.1-171.5,4.1-171.5,5.1-77.3-5.1-132.1-5.1-132.1-12.9-45.1-60.3-32.2-60.3-32.2-86.6,13.8-123.4-9.2-123.4-9.2-79.6-36.8-92.1-122.9-92.1-122.9-11-109.1,73.2-157,73.2-157,103.6-63.5,178.6-15.7,178.6-15.7,60.3,35,69.1,120.2,69.1,120.2,4.6,36.8-8.3,156.1-8.3,156.1-6.9,57.1-2.9,212-2.9,212,2.5,35.9,4.3,96.6,4.3,96.6-.4,22.2.6,49.5.6,49.5,0,.9,0,1.7.2,2.6l-22.2,12.3-15.8-8.6h0ZM50.6,578.1v-277.1c11.7,29.4,32.7,62.2,69.9,81.6,0,0,48.3,31.9,111.6,20.5,0,0,67.4-15,78.8,22.3,0,0,10,59.2,7.7,99.3,0,0-.5,70.1-3.6,129.8,0,0-2.3,36.6-1.8,65.8L50.6,578.1h0ZM50.6,46.7h573.6v531.5l-254.4,140.2c-.4-10.6-.7-22.8-.6-32,0,0,.5-62.2-1.8-100,0,0-5.2-130.4,1.9-214.8,0,0,9.8-84,8.8-137.6,0,0,3.4-76.2-43.3-134.8,0,0-31.4-42-110-42.4,0,0-71.9-2-137.5,59.7,0,0-21.3,18.6-36.6,50.3V46.7h0ZM46.1,288.7c-.5-.6-1-1.4-1.3-2.3-.9-2.8-1.5-5.7-2-8.6,1,3.5,2.1,7.2,3.3,10.9Z"/>
    <path d="M338.2,207.1s-5.5-32.6-20.7-49.9c0,0-29.2-41.4-77.9-56.4,0,0-53.1-11.8-102.6,15.4,0,0-64,38.4-64.5,121.6,0,0,1.2,77,65.3,111.1,0,0,37.7,24.7,108.3,14.6,0,0,55.1-6.5,81.1-58,0,0,23.1-37.3,10.9-98.5h.1ZM219.5,190c3.2-26.7,1.5-71.3,1.5-71.3-1.3-14.3,11.9-11.7,11.9-11.7,29,4.1,52.9,28.8,52.9,28.8,8.1,7.9,0,15.4,0,15.4-26.3,22.6-45.4,48.4-45.4,48.4-9,11.3-16.4,6.8-16.4,6.8-8.1-3.6-4.5-16.4-4.5-16.4h0ZM228.7,224.9c0,8.5-6.9,15.4-15.4,15.4s-15.4-6.9-15.4-15.4,6.9-15.4,15.4-15.4,15.4,6.9,15.4,15.4ZM135.9,126.7c16-13.8,57.9-20,57.9-20,15.8-2.9,17.5,9.9,17.5,9.9,7,40.9,2.1,75.8,2.1,75.8-2.6,14.4-10.1,14.8-10.1,14.8-9.6,1.9-22.4-17.1-22.4-17.1-13.8-17.2-47.6-46.8-47.6-46.8-10.3-8.8,2.7-16.6,2.7-16.6h-.1ZM108,150.4c9-11.1,18.5-3.2,18.5-3.2,28.6,17.9,56.8,53.7,56.8,53.7,9,10.4,5.8,15,5.8,15-2.7,5.4-12.4,3.9-12.4,3.9-13.6-2-70.4,4.3-70.4,4.3-23.1,1.9-23.8-12.8-23.8-12.8,4.6-34.7,25.5-60.9,25.5-60.9ZM98.8,305.1c-15.8-21.8-18.9-55.3-18.9-55.3-1.9-14.4,9.1-17.6,9.1-17.6,53.5-12.1,84.2-7.3,84.2-7.3,16.6,2,16.5,6,16.5,6,.8,5.2-5.3,8.3-5.3,8.3-14,10.6-38.7,37.5-38.7,37.5-8.8,9.6-29.8,30-29.8,30-9.9,9.7-17.1-1.7-17.1-1.7h0ZM185,354.7c-35.1-1.9-64.3-27.9-64.3-27.9-7.8-5.2,1.3-14.9,1.3-14.9,24.5-30.3,57.2-62.5,57.2-62.5,13.8-13.8,20.8-8,20.8-8,9.6,3.8,6.2,18.1,6.2,18.1-4.8,28.7-6.4,77.4-6.4,77.4-.8,17-14.8,17.9-14.8,17.9h0ZM277.4,343c-36.9,15.4-57.1,11.7-57.1,11.7-15.4-1.2-15-14.7-15-14.7-3.3-49.5,8-84.1,8-84.1,3-12.7,10.3-12.7,10.3-12.7,8.7-.6,17.9,17.9,17.9,17.9,11.7,23.5,37.7,63.7,37.7,63.7,7.1,11.9-1.7,18.3-1.7,18.3h0ZM332.9,267.3c-7.9,42.8-30.8,58.4-30.8,58.4-13.1,8-19.6-5.2-19.6-5.2-7-8.1-15.2-25.8-15.2-25.8-13.5-25.8-30.7-48.6-30.7-48.6-6.6-6.9-3.3-12.9-3.3-12.9,2.4-6.6,11.3-4.5,11.3-4.5,26.8,3.1,46.4,10.7,46.4,10.7,21,8.2,32.7,8.6,32.7,8.6,13.9,1.6,9.3,19.3,9.3,19.3h0ZM323.2,240.4c-4,.5-16-3-16-3-22.2-6.3-31.8-7.4-31.8-7.4-27.1-3.9-37.6-8.4-37.6-8.4-7.4-3.3-1.9-10-1.9-10,16.5-25.8,41-43.8,41-43.8,24.4-20,34.5-5.5,34.5-5.5,22.3,31.3,24.4,66.1,24.4,66.1,1.1,12.2-12.5,11.9-12.5,11.9h-.1Z"/>
    <path d="M398.9,221.2c-.5,22,3.6,23.2,3.6,23.2,15,2.3,39.3-1,39.3-1,4.9-.6,4.3-19.8,4.3-19.8.7-26.1,14.2-24.8,14.2-24.8,56.8-.6,82.3-10.9,82.3-10.9,23.5-9.2,26.4-42.9,26.4-42.9,3.3-37.3-6.6-47.6-6.6-47.6-18.5-26.4-90.2-24.1-90.2-24.1-66.7-1.3-68.7,4-68.7,4-8.3,4.6-5.9,31.1-5.9,31.1,3.3,42.9,1.4,112.9,1.4,112.9h0ZM405.6,177.6s1.8-44.3.7-63.6c0,0-3.5-32.2,9.9-34,0,0,53.6-8.7,118.1,7.4,0,0,37.3,8.5,25.8,63.5,0,0-7,27-28.4,32.8,0,0-28,9.9-74,8.7,0,0-15.3,0-16.5,16.9,0,0-.5,23.4-5.8,26.1,0,0-11.2,3.2-26.9,0,0,0-5.1-.8-2.9-57.7h0Z"/>
    <path d="M450.9,160.5c26.4,2.7,54.2,0,54.2,0,19.6-2.5,20.2-21.6,20.2-21.6-1.9-23.1-33.4-27.2-33.4-27.2-40.4-4.7-48.4,2.3-48.4,2.3-4.5,12.2,0,41.6,0,41.6,2.5,6.2,7.4,4.9,7.4,4.9h0ZM449.9,124.4s1-7.6,15.7-7.8c0,0,39.4-2.3,47.8,13.8,0,0,5.4,11.5-1.2,19.8,0,0-9.1,8-41.2,4.5,0,0-9.2-.7-20-1,0,0-3.6-15.9-1-29.3h0Z"/>
    <path d="M533.2,403.9c1.2-25.6,0-32.7,0-32.7-1.2-6.9-7.7-7.3-7.7-7.3-40.2,2.4-66.2-3.7-66.2-3.7-14.6-2.4-12.8-25.2-12.8-25.2-1-20.3,0-63.9,0-63.9-1.2-11.2-25.8-10.8-25.8-10.8-16.2-.2-17,4.1-17,4.1-3.4,15-1.4,65.8-1.4,65.8,3.2,50.1,0,72.3,0,72.3,38.1,7.3,121.2,4.9,121.2,4.9,8.1-.2,9.7-3.5,9.7-3.5ZM417.3,397.6s-5.9-.4-5.5-7.7c0,0,.4-14.2-1.8-40,0,0-5.1-58.5-2-75.5,0,0,.8-5.1,7.1-4.9,0,0,22.9-1.8,23.3,3.5,0,0,2.4,31.5,1.6,70.2,0,0-.6,20.3,7.1,22.9,0,0,25,3.5,79.4,5.8,0,0,1.8,17.3-2.3,27.4,0,0-33.5,8.5-107-1.6h.1Z"/>
    <path d="M531.9,527.8c-17.7,1.4-34.3.2-34.3.2-37.8-.4-39.4-7.3-39.4-7.3-5.5-3.3-5.5-36.1-5.5-36.1.5-14.9-2.9-64.3-2.9-64.3-19.6-1.8-35.7-.5-35.7-.5-6.8.5-6.7,8-6.7,8-.4,11.1,1.3,51,1.3,51,1.3,34.3,2.7,65.8,2.7,65.8-.7,29,2.3,28.9,2.3,28.9,2.1.9,11.8.7,11.8.7,86.3,2.4,109.2-3,109.2-3,2-13.7,2-40,2-40,0-3.4-5-3.4-5-3.4h.2ZM528.5,564.6s-2.3,4.1-9.1,3.9c0,0-52.3,3.1-95.2-1.2,0,0-6.2.3-5.9-10,0,0-3.6-92.5-5.3-114.5,0,0-.8-13.5.9-15.3,0,0,11.1-3.1,30.6,0,0,0,3.3,20,3.4,41.1,0,0,1.1,48.4,2.8,52.4,0,0,.2,8.5,11.5,10.4,0,0,33.5,2.5,61,2.4,0,0,6.4-.5,6.4,3.1,0,0,.6,17.3-1.2,27.8h0Z"/>
  </g>
</svg>