<?xml version="1.0" encoding="UTF-8"?>
<svg id="Layer_1" data-name="Layer 1" xmlns="http://www.w3.org/2000/svg" version="1.1" viewBox="0 0 1080 1080">
  <defs>
    <style>
      .cls-1 {
        fill: #ef5726;
      }

      .cls-1, .cls-2, .cls-3, .cls-4, .cls-5 {
        stroke-width: 0px;
      }

      .cls-2 {
        fill: #cbcbca;
      }

      .cls-3 {
        fill: #0b2443;
      }

      .cls-4 {
        fill: #ff4d00;
      }

      .cls-5 {
        fill: #fff;
      }
    </style>
  </defs>
  <g>
    <path class="cls-4" d="M523.4,916.6c-40.1,0-68.2-2.7-74.7-3.4-28.8-1.1-112.5-16.6-123.5-18.7-13.5-1.9-23.3-9.6-26.3-20.5-3.1-11.3,2.2-23,14-31.4,3.5-3,10.4-11.2,14.8-17.3l.7-.9c9.8-12.4,29-29.4,33.5-33.4,4.4-4.5,4.5-11.5,3.7-16.8-5.2.8-11.1,2.6-13.5,3.6l-.6.2c-11.1,4.1-20.6,6-29.2,6-13.4,0-24.8-4.9-32.3-13.7-11.4-13.5-8.5-30.1-7.3-35.3,17.5-83.6,86.2-277.4,89.1-285.6l.3-.8.3-.7c81.9-187.7,139-256.6,141.4-259.4l20.9-24.8,20.4,25.1c42.8,52.6,92.2,140.9,146.8,262.4,40.5,90.1,68.9,165.5,69.1,166.3l.2.6.2.6c26.4,85.6,27.4,136,27.4,138.1l.3,18.9-19.8,4.7c-13.4,3.2-28.2,4.8-44.1,4.8s-28.7-1.5-38-2.9c20.6,9.2,33.7,25.2,38,31,11.6,11.9,29.9,25.9,30.1,26,13.7,10.3,14.2,21.9,13.2,27.9-1.8,11.3-10.6,18.4-18.2,21.2l-1.3.5-1.4.4c-4.3,1.1-12.3,4.8-16.7,7.1-23,12.6-51,14.5-65.7,14.5s-4.7,0-5.7-.1c-1.8,0-3.7,0-5.6,0-29.5,0-70.4,2.9-70.9,2.9-22.4,1.9-46,2.8-69.8,2.8Z"/>
    <path class="cls-5" d="M679.7,767.3c2.2,0,4.8.4,7.8,1.1.9.2,21.6,4.9,47.9,4.9s28.5-1.5,40.8-4.4l9.9-2.4v-9.5c-.2-2-1.1-50.8-27.1-134.9v-.3c-.1,0-.2-.3-.2-.3-.3-.8-28.6-76.1-68.9-165.6-54.2-120.6-103.1-207.9-145.2-259.7l-10.2-12.6-10.5,12.4c-2.3,2.8-58.4,70.3-139.6,256.5l-.2.4v.4c-3,8.2-71.6,201.6-88.9,284.3-.8,3.3-3.3,15.9,4.8,25.4,3.5,4.1,10.1,9.1,22,9.1s14.9-1.7,24.2-5.1h.4c3.4-1.5,14.2-5,22.7-5s5.5.2,6.7,1.5c1.4,4.1,7.4,23.8-5.2,36.2-2.6,2.3-22.7,20-32.2,32l-.3.4c-4,5.6-12.2,15.8-17.4,20-4.1,2.8-12.2,9.8-9.7,19.1,1,3.7,4.4,10,15.9,11.6,7.6,1.4,94.6,17.6,122.3,18.5,4.6.5,32.8,3.3,73.7,3.3s46.7-1,68.8-2.8c.4,0,42-2.9,71.9-2.9s4.1,0,6,0c.7,0,2.6.1,5.3.1,13.4,0,38.8-1.7,59.2-12.9,3.5-1.8,13.3-6.6,19.7-8.2l.7-.2.7-.3c4.3-1.6,9.2-5.6,10.2-11.8.7-4.2-.3-10.6-8.6-16.8-.2-.2-19.8-15.1-32.1-27.9-3-4.2-14.8-19.5-34-27.8h-.3c0-.1-.4-.3-.4-.3-1.6-.6-15.9-6.6-15.5-22h0s0-.6,0-.6c.1-2.1.9-2.9,4.8-2.9Z"/>
    <ellipse class="cls-5" cx="687.9" cy="530.6" rx="3.6" ry="3.3"/>
    <path class="cls-5" d="M549.7,852.6s-14.7-17.8-44.6-19.3c0,0-9.5-1.1-10.1,9.4,0,0-2.3,12.5,27.8,11.4,0,0,21.6-1.6,26.9-1.4Z"/>
    <path class="cls-5" d="M477.1,427.4s-18.3-3.9-17.5-19.9c0,0,2.7-30.3,63.1-60,0,0,3.6,19.5,6.6,24.6,0,0-39.5,31.8-52.2,55.3Z"/>
    <ellipse class="cls-5" cx="509.9" cy="371.8" rx="6.2" ry="5.7"/>
    <ellipse class="cls-5" cx="493.3" cy="386" rx="8.6" ry="8"/>
    <ellipse class="cls-5" cx="476.7" cy="405.2" rx="5.9" ry="5.5"/>
    <path class="cls-5" d="M748.9,858s-21.1-16.1-34.2-29.9c0,0-10.6-16.2-29.1-24.2,0,0-24.2-8.8-23.7-33.4,0,0-.8-20.8,28.8-13.8,0,0,42.9,9.9,82.3.5,0,0-.7-48.3-26.4-131.8,0,0-112.2-299.1-212.1-422,0,0-56.3,66.8-137.8,253.6,0,0-71.2,200.4-88.4,283.1,0,0-8.4,31,33.5,15.7,0,0,37-14.8,46.4,2.6,0,0,12.6,30.2-7.9,49.8,0,0-21.5,18.8-30.9,30.6,0,0-11.6,16.2-20.2,22.8,0,0-11.9,7.9.4,9.4,0,0,94.2,17.7,121.1,18.4,0,0,62.5,7.1,140.5.5,0,0,48.5-3.4,79.3-2.9,0,0,33.7,2,57.4-11.2,0,0,13.3-6.9,22.7-9.4,0,0,6.1-2.3-1.8-8.2Z"/>
  </g>
  <g>
    <path class="cls-4" d="M565.2,281s-24.2-34.6-29.6-44.6c0,0-11.1,15.6-13.9,22.5,0,0,3.9,22.1,43.5,22.1Z"/>
    <path class="cls-2" d="M345.7,679l-11.2,43.5s19.1,2.2,31.5-15c0,0,8.2-13.2-2.6-23.2,0,0-6-5.8-17.7-5.3Z"/>
    <path class="cls-2" d="M434.7,663.7s-11.1,13.5-23.6,17.3c0,0,15.6,37.3,2.9,62.9,0,0,25.3,7.5,47.2-15.8,0,0,10.7-16.1,34.9-23.2,0,0-24-30.6-61.4-41.1ZM444.6,719.5c-11.3-.5-20-9.3-19.5-19.7.5-10.4,10.1-18.5,21.3-18,11.3.5,20,9.3,19.5,19.7-.5,10.4-10.1,18.5-21.3,18Z"/>
    <path class="cls-4" d="M511.4,675.9s-8.3-12.9,1.9-37.7c0,0-46.8-17.3-58.9-34.3,0,0-29.8,42.5,57.1,72.1Z"/>
    <path class="cls-2" d="M567.3,303.4s7.2,15.2,20.5,18.5c0,0-5.9-17.4-10.5-18,0,0-5.4-.7-10-.5Z"/>
    <ellipse class="cls-1" cx="435.9" cy="777.5" rx="9.9" ry="9.2"/>
    <path class="cls-2" d="M439.7,830.5s5.1-18.5-21.5-17.4c0,0-15.8,1.7-29.5,17,0,0-6,9.5-16.3,18.9,0,0-14.2,10.4-6.5,11.4,0,0,6.8.8,12.1.5,0,0,11,0,27.5,4.7,0,0,22.7,5.2,28.4,1.2,0,0,4.4-2.2,2.9-14.4,0,0-1.2-9.6,2.9-22Z"/>
    <path class="cls-4" d="M646.5,748.5s-14.1-7.7-18.3-19.2c0,0-14.9,9.3-54.1,3.6,0,0,26,28.1,43.1,54.4,0,0,18.3,31.2,73.6,42.3,0,0-6.1-12.2-20.1-20.3,0,0-25-12.3-31.8-29.4,0,0-10.1-18.2,7.7-31.3Z"/>
    <path class="cls-2" d="M692.6,685s-17.9,20.7-40.4,32.1c0,0,17.8,20,39.3,24.3,0,0,14.4-17.3,1-56.4Z"/>
    <path class="cls-2" d="M609.3,434.1s35.2,11.1,48.7,42.3c0,0,5,11.7-5.6,18.3,0,0-16.4,8.4-40.8-.3,0,0-19.3-7.6-9.6-29.7,0,0,9.8-19.7,7.3-30.6Z"/>
    <ellipse class="cls-2" cx="687.9" cy="530.6" rx="3.6" ry="3.3"/>
    <path class="cls-2" d="M437,447.3s36.5,4.6,39.7,29.6c0,0,1.2,11.7-8.4,14.9,0,0-8.9,2.7-15.9-3.8,0,0-6.7-8.2-8.9-22.3,0,0-2.5-11.5-6.4-18.5Z"/>
    <path class="cls-1" d="M486.1,812.1s-11.6-1.1-8.1,10.4c0,0,4.3,13.1-3.5,29.2,0,0-6.5,10.4,11.7,17.4,0,0,16.2,4,47.1.3,0,0,54.6-5.7,68.1-2.1,0,0-41.1-47-115.4-55.3ZM490.1,859.7c-11.8-4.8-5.7-14.6-5.7-14.6,4.3-10.2,1.9-18.7,1.9-18.7-2.2-5.5,5.8-4.3,5.8-4.3,50.7,3.3,80,33.9,80,33.9-46.2,15.9-82,3.7-82,3.7Z"/>
    <path class="cls-3" d="M549.7,852.6s-14.7-17.8-44.6-19.3c0,0-9.5-1.1-10.1,9.4,0,0-2.3,12.5,27.8,11.4,0,0,21.6-1.6,26.9-1.4Z"/>
    <path class="cls-2" d="M588.9,803.1s-19.9-25.3-24.6-36.1c0,0-15.8-33.1-48.5-42.5,0,0-36.2,19.6-34.7,47.3,0,0,.9,10.3,11.1,9.5,0,0,38.3,2.4,74.7,20.8,0,0,17.3,8.1,33.9,24.5,0,0,27.1,23.6,54.4,35.1,0,0,30.7,15.3,53.4,2.3,0,0-77-4.1-119.7-61ZM515.7,777.2s-19.5-2.6-21.7-16.2c0,0-2.3-19.3,25-22.4,0,0,18.6-.9,33.4,23.5,0,0,14.4,26,23.9,36.6,0,0-25-14-60.6-21.5Z"/>
    <path class="cls-1" d="M553.4,778.3s-15.9-28.5-34.5-30.5c0,0-10.7-1.6-12.6,7.3,0,0-2.5,9.3,12.9,12.2,0,0,12.8.9,20.7,6.4,0,0,7.2,3.9,13.6,4.5Z"/>
    <path class="cls-4" d="M732.8,648.1s13.8,47.7,16,84.1c0,0,1.6,12.6-10.8,13.8,0,0-11,.2-13.6-16.3,0,0-1.8-8.6,1.1-21.3,0,0,5.9-23.2-8.7-37.7,0,0-7.9-3.9-1.5-9.5,0,0,15-18.6,17.5-13.1Z"/>
    <path class="cls-4" d="M552.2,396.5s-32.8,18.4-38,70.2c0,0-2.2,35.3,21.5,43.8,0,0-16.8-23.6,3.2-57.3,0,0,25.5-36.9,13.4-56.8Z"/>
    <path class="cls-4" d="M528.8,346.4s-.2-7.8-1.3-11.1c0,0-7.9,7.6-29.7,18.3,0,0-24.8,14.2-38.3,32.7,0,0-10.6,13.8-12.6,30,0,0,.1,12.6,7.8,12.7,0,0,11.4,1.6,18.1,6.3,0,0,10.9,6,13-5,0,0,14.3-36.3,51.5-56,0,0-8.3-14.7-8.5-28ZM477.1,427.4s-18.3-3.9-17.5-19.9c0,0,2.7-30.3,63.1-60,0,0,3.6,19.5,6.6,24.6,0,0-39.5,31.8-52.2,55.3Z"/>
    <ellipse class="cls-2" cx="509.9" cy="371.8" rx="6.2" ry="5.7"/>
    <ellipse class="cls-3" cx="493.3" cy="386" rx="8.6" ry="8"/>
    <ellipse class="cls-2" cx="476.7" cy="405.2" rx="5.9" ry="5.5"/>
    <path class="cls-2" d="M567.5,543s-8.6-7.7-28.4-8.1c0,0-28.4-1.3-41.5-14.3,0,0-18.1,23.1-49.4.8,0,0-10.4,47.1,73.1,91.2,0,0,20.8-18.7,40.2-31.3,0,0,23-17.7,33.9-30.2,0,0-13.1.6-28-8.2ZM523.7,602.5s-60.7-22.8-64.5-66c0,0,25.3,11.2,41.6-3.7,0,0,21.6,11.2,44.7,10.1,0,0,23.5-.7,30.1,13.6,0,0-9.1,18.2-52,46Z"/>
    <path class="cls-4" d="M559.8,555.8s-8.2,15.9-38.9,34.2c0,0-35.2-17.1-47.7-40.8,0,0,20,8.5,33-5.1,0,0,16.6,6,30.1,5.1,0,0,17.7.5,23.5,6.5Z"/>
    <path class="cls-3" d="M748.9,858s-21.1-16.1-34.2-29.9c0,0-10.6-16.2-29.1-24.2,0,0-24.2-8.8-23.7-33.4,0,0-.8-20.8,28.8-13.8,0,0,42.9,9.9,82.3.5,0,0-.7-48.3-26.4-131.8,0,0-112.2-299.1-212.1-422,0,0-56.3,66.8-137.8,253.6,0,0-71.2,200.4-88.4,283.1,0,0-8.4,31,33.5,15.7,0,0,37-14.8,46.4,2.6,0,0,12.6,30.2-7.9,49.8,0,0-21.5,18.8-30.9,30.6,0,0-11.6,16.2-20.2,22.8,0,0-11.9,7.9.4,9.4,0,0,94.2,17.7,121.1,18.4,0,0,62.5,7.1,140.5.5,0,0,48.5-3.4,79.3-2.9,0,0,33.7,2,57.4-11.2,0,0,13.3-6.9,22.7-9.4,0,0,6.1-2.3-1.8-8.2ZM676.4,807.3c30.7,18.6,36.1,34.6,36.1,34.6-16.5.3-33.8-3.5-33.8-3.5-52.8-9.5-92-68.5-92-68.5-19-32.9-39.3-51.2-39.3-51.2,40.8,16.4,85.2,1.7,85.2,1.7,7,10.7,29.8,29.8,29.8,29.8-13.3,7.6-12.7,17.4-12.7,17.4-3,23.2,26.7,39.6,26.7,39.6ZM707.2,726.3c-5.3,26.2-15.9,23.3-15.9,23.3-37.2-5.4-54.9-35.5-54.9-35.5,27-10.1,57.7-42.4,57.7-42.4,19.2,24.1,13,54.6,13,54.6ZM735.2,635.4s21.3,47.2,23.5,105c0,0,2.1,10.5-9.8,10.9,0,0-19.2,3.3-27.2-1.7,0,0-12.3-10.3-6-48.1,0,0,2.8-20.8-11.5-32.7,0,0-5.2-1.9-2.1-5.6,0,0,26.1-32.8,33.1-27.8ZM718.4,576.5c13.2,37.1-4.2,60.9-4.2,60.9-83.9,108-149.9,66.6-149.9,66.6-30.7-13.9-26.3-53.1-26.3-53.1.8-29.8,23-43.4,23-43.4,34.6-19.6,51-43.4,51-43.4,18-27.1,52.6-25.9,52.6-25.9,44,4.8,53.9,38.3,53.9,38.3ZM463.9,661.9s-26.3-12.4-27.8-30.4c0,0-4.7-23.8,17.5-39.7,0,0,19.1,21.9,73.7,41.6,0,0-16,24-1,64.7,0,0-46-27.6-62.4-36.3ZM514.2,706.7c-31.5,11.9-42.3,28.5-42.3,28.5-11.5,16.9-41.7,18.9-41.7,18.9-14.2.3-23.1,6.2-23.1,6.2-1.8-13.4-11.9-16.7-11.9-16.7,23.9-35.5,4.9-68.6,4.9-68.6,19.6-11.5,29.1-26.6,29.1-26.6,8.4,8.2,45.4,25.9,45.4,25.9,29.8,14.9,39.7,32.3,39.7,32.3ZM437.8,503.1c38.8,26.4,59,1.2,59,1.2,11.8,27.1,53.7,23.5,53.7,23.5,16.7-.7,26.2,6.7,26.2,6.7,12.6,7.9,35,8.6,35,8.6-3.5,23.1-35,40.9-35,40.9-38.9,21.2-46.9,42.2-46.9,42.2-115.2-33.5-92.1-123.1-92.1-123.1ZM550.5,519.7c-50.7,8.9-48.8-46.6-48.8-46.6,1.9-68.6,54.2-89.7,54.2-89.7,21.5,17.5,2.7,53.6,2.7,53.6-24.5,54-8.2,82.7-8.2,82.7ZM704.4,547c-15.1-10.6-30.3-12.5-30.3-12.5-16.4-2.2.4-8.4.4-8.4,8.5-2.9,15.7-7.5,15.7-7.5,8.2,7.9,14.2,28.4,14.2,28.4ZM676.9,490.8c-40.3,35.4-78.3,13.5-78.3,13.5-17.6-10.6-8.4-34.2-8.4-34.2,6.1-17.6,10.3-45.4,10.3-45.4,62.4-1.3,76.5,66.2,76.5,66.2ZM648,427.2c-5-6.4-30.2-8.2-30.2-8.2-10.8-.3-26-7.7-26-7.7,4,14.7-6.1,37.3-6.1,37.3-11.1,25.6-6.9,44.6-6.9,44.6,6.2,22.1,29.2,23.9,29.2,23.9,48.4,7.3,72-20.9,72-20.9,4.3,4.4,7.1,14.5,7.1,14.5-14.4,11.6-45.4,19.7-45.4,19.7-42.7,10.4-70-9.5-70-9.5-16.4-12.6-14.6-39.6-14.6-39.6,1.8-26.5,17.2-53.7,17.2-53.7,8.3-14.5,7.2-29.9,7.2-29.9,13.7,5.1,35.7,8.1,35.7,8.1,28.4,3.5,30.8,21.4,30.8,21.4ZM628.1,386.5c-52.5-5.9-64.7-43.5-64.7-43.5,21.4,17.2,52.7,21.7,52.7,21.7,3.5,5.5,12,21.8,12,21.8ZM550.8,321.8s-2.8,59.1,79.8,71.9c0,0,4,5.9,6.4,10,0,0-64-2.1-83.4-35.1,0,0-21.8-33.5-13.8-73.3,0,0,5.7,2.4,10.1,10.8,0,0,9.5,26.5,54.5,35.9,0,0,4.7,6.8,9.2,15.3,0,0-41.7-6.1-62.9-35.4ZM584.4,300.4s16.2,24.6,20.4,34.7c0,0-31.9-2.8-50.4-38.4,0,0,24.8-4.5,30,3.7ZM510.5,257.2c4.4-9,23.1-37,23.1-37,7.2,8.1,47.8,68.9,47.8,68.9-51.9,6.4-70.4-25.4-70.4-25.4-3-3.6-.6-6.6-.6-6.6ZM497.4,279c2.4,3.9,16.2,16.6,16.2,16.6-14.1,26.5-46.7,41.8-46.7,41.8,12.4-27.8,30.5-58.5,30.5-58.5ZM488.2,330.7c29.4-19.8,34.6-37.2,34.6-37.2-11-5.1-22.7-18.2-22.7-18.2,1.3-3.6,4-6.8,4-6.8,2.5,5,24.5,20.9,24.5,20.9,7.4,35.9-39.6,53.1-39.6,53.1-23.2,11.9-36.7,25.6-36.7,25.6,9.7-22.6,35.9-37.4,35.9-37.4ZM482.4,355s33.3-15.5,48.1-32.3c0,0,5.4,34.4,18.2,51.9,0,0-52.1,39.2-63.8,76,0,0-16-13.2-49.6-20.4,0,0-4.8-45.1,47.1-75.2ZM485.5,463.5s8.7,15.4,1.6,32.1c0,0-6.3,13.5-30.9,7,0,0-15.3-5.2-20.6-21.3,0,0-10.3-43.6-13.7-45.6,0,0,48.7,3.9,63.6,27.8ZM404.3,468.9s13.5,10,4.6,40c0,0-3.4,11.3-.7,19.4,0,0-13.2-.2-20-13.9,0,0,7.6-27.4,16.1-45.5ZM385.8,523.6s10.3,12.5,31.6,13.6c0,0-4.9-10.4.1-31.1,0,0,8-23.4-11-42.2,0,0,2.7-9.6,5.2-13.7,0,0,13.1,10.3,13.8,58.2,0,0-1,30.6,2.2,46.1,0,0-11.2-3.8-16.5-4,0,0-25-.8-29.4-13.3,0,0,2-8.5,3.9-13.5ZM376.2,551.4c58.4,4.4,70.2,36.7,70.2,36.7-19,15.1-31.7,56.7-31.7,56.7-10.9,35.8-43,14.8-43,14.8-12.5-5.3-26.9-8.9-26.9-8.9,8.7-46.2,31.4-99.3,31.4-99.3ZM339.3,668.6c36.3,5.6,39.1,21.9,39.1,21.9,5.5,19.1-7.8,27.1-7.8,27.1-22.3,18.8-46.5,18.9-46.5,18.9-.5-8.1,15.2-67.9,15.2-67.9ZM394.6,724.2c-9.6,16.2-27.8,16.8-27.8,16.8-10.7,1.2-15.6,3.7-15.6,3.7-16.1,6-30.5,4.1-30.5,4.1.2-1.4,2.1-6.9,2.1-6.9,39.5-3.4,57.4-23.3,57.4-23.3,10.4-13.1,5-28.5,5-28.5-7.2-20.9-44.2-25.9-44.2-25.9l1.9-7.3c40.4,7.2,51.4,27.2,51.4,27.2,10.9,18.6.3,40.2.3,40.2ZM451.3,879.6s-42,1-86.3-8.7c0,0-10.9-2.5-16.9-2.9,0,0-6.8.4-3.8-5.3,0,0,10.1-14.7,23.4-25.7,0,0,11.7-9.6,18.3-17.7,0,0,11.7-16.3,25.8-15.6,0,0,18.7.8,25.8.4,0,0,14.1-.8,16.3,5,0,0,3.1,11.9-.6,31,0,0-3.8,18.6.8,31.9,0,0,4.6,7-2.8,7.5ZM461.1,767.1s.2,12.6-3,20.4c0,0-4.8,12.2-22.4,9.5,0,0-21.8-3-34.2,2.8,0,0,4.2-38.4,30.8-39.3,0,0,19.1-.4,31-5.4,0,0-2,7-2.1,12.1ZM547.8,882.3s-62.1,5-76.4-.9c0,0-22-1.3-8.3-45.6,0,0,2.9-4.4,2.9-21.4,0,0-.2-9.7,4.1-11.7,0,0,16.5-7.5,74.8,12.5,0,0,27.7,9.3,55.7,33.8,0,0,25.4,22.9,38.4,31.7,0,0-47.2-.3-91.1,1.6ZM684.6,877.2s-28.7,4.6-70.4-28.1c0,0-47.5-34.5-78.9-47.5,0,0-27.2-13.9-62.5-8.4,0,0-20.3-50.8,44.7-80.9,0,0,33.9,13.5,59.2,53.9,0,0,38.7,66.6,94.3,81.2,0,0,35.8,9.7,55.1,11.9,0,0,1.9,17.3-41.5,17.8Z"/>
    <path class="cls-4" d="M698.9,567.2s-10-15.7-34.1-18.5c0,0-20,0-31.9,17.4,0,0-17.7,30.4-51.2,50.9,0,0-27.5,14.2-26.8,51.9,0,0,1.1,20.7,30.8,26.3,0,0,33.7,9.6,68.5-19.4,0,0,43.9-38.5,49.5-63.1,0,0,7.3-26.7-4.9-45.5ZM671.3,642.7c-41.9,51.1-73.9,43.8-73.9,43.8-26.6-2-27-23.3-27-23.3-2.6-20.7,17-34.5,17-34.5,34.4-23.8,49.6-44.8,49.6-44.8,16.6-22,31.3-18.9,31.3-18.9,22,1.1,25.9,22.6,25.9,22.6,2.8,28.2-22.8,55.2-22.8,55.2Z"/>
    <path class="cls-2" d="M672.9,579.9s-12.6-6.9-23.2,8.2c0,0-8.2,21.5-44.3,43,0,0-22.7,10.7-17.2,31.5,0,0,4.2,9.6,16.2,10.6,0,0,13.9,4.3,38.9-20.8,0,0,28.8-29.6,35.4-57.2,0,0,2.3-10.1-5.8-15.2Z"/>
    <path class="cls-4" d="M391,560.8s-8.4-1.2-14.8,15.7c0,0-13.9,36.4-16.8,57,0,0-3.2,10.5,7.4,15,0,0,9.6,4.8,21.2,4.9,0,0,13.3.9,21-18.6,0,0,2.6-4.6,5.1-14.3,0,0,6.8-20.9,15.6-29.6,0,0,2.7-2.4,5-6.5,0,0-11.3-19.9-43.7-23.6ZM418.6,597.1c-7.7,12.4-15,37.4-15,37.4-6.1,15.9-25.2,10.9-25.2,10.9-13.9-4.6-11.9-14.6-11.9-14.6,3.2-25.6,16.5-54.9,16.5-54.9,4.7-11.8,12.4-9.7,12.4-9.7,19.9,4.2,27.4,13.5,27.4,13.5,5.8,4.9-4.2,17.4-4.2,17.4Z"/>
    <path class="cls-2" d="M407.2,576.4s-12.1-4.7-16.4,4.1c0,0-11.1,26.7-13.2,39.1,0,0-3.1,11.3,6.5,14.9,0,0,11,5,19.4-16.3,0,0,4.2-17.5,7.6-23.3,0,0,9-14.6-3.9-18.5Z"/>
  </g>
</svg>