<?xml version="1.0" encoding="UTF-8"?>
<svg id="PRIMARY" xmlns="http://www.w3.org/2000/svg" version="1.1" viewBox="0 0 1080 1080">
  <!-- Generator: Adobe Illustrator 30.1.0, SVG Export Plug-In . SVG Version: 2.1.1 Build 136)  -->
  <defs>
    <style>
      .st0 {
        fill: #ff5216;
      }

      .st1 {
        fill: #024;
      }

      .st2 {
        fill: #ccc;
      }

      .st3 {
        fill: #fff;
      }
    </style>
  </defs>
  <g id="FULL_COLOR">
    <path class="st3" d="M284.2,378c0,10.3,2.7,17.1,8,20.4,5.4,3.3,13,3,23.1-.8,26.3-9.8,53.1-17.7,80.2-23.8v-166.8c-13.2,2.9-26.2,6.3-39.2,10.1v132.2c-9.5,2.8-18.8,5.8-28.2,9-3.9,1.4-5.8,0-5.8-3.9v-126.3c-15.5,5.6-30.9,11.8-46,18.6,2.6,4.8,5.3,9.5,8,14.3v116.7h0Z"/>
    <path class="st3" d="M450.9,364.1c13.3-1.7,26.7-3,40.1-3.9v-132.2c12.6-.8,25.2-1.2,37.8-1.3v-34.5c-38.6.1-77.2,3.9-115.2,11.2v34.5c12.4-2.4,24.9-4.4,37.4-6v132.2h0Z"/>
    <path class="st3" d="M521.9,359c13.8-.2,27.6,0,41.4.8,2.3-11.4,4.5-22.8,6.8-34.1,13.3.9,26.6,2.1,39.8,3.8,2.3,11.8,4.5,23.6,6.8,35.5,13.7,1.9,27.4,4.3,41,7.2-13.6-58.4-27.2-116.4-41-173.9-22-3.1-44.2-5-66.3-5.7,2.8,6.1,5.7,12.1,8.5,18.2-12.3,49.1-24.7,98.5-37,148.3h0ZM593.4,245.8c5.6.6,11.2,1.2,16.7,1.9,1.4,14.8,2.9,29.6,4.3,44.5-4.3-.5-8.7-1-13-1.4-5.7-.6-11.5-1.2-17.2-1.7-4.8-.4-9.7-.8-14.5-1.1,2.8-18.1,5.5-36.2,8.3-54.2,5.1.4,10.3.9,15.4,1.4v10.7h0Z"/>
    <path class="st3" d="M674.5,375.8c13.1,3.1,26.2,6.7,39.1,10.7v-68.9c11.4,3.5,22.7,7.4,33.9,11.6v68.9c12.8,4.8,25.4,10,37.9,15.6v-166.8c-12.5-5.6-25.1-10.9-37.9-15.6v63.4c-11.2-4.2-22.5-8-33.9-11.6v-63.4c-15.7-4.9-31.5-9.1-47.5-12.6,2.8,6.6,5.6,13.2,8.4,19.8v148.9h0Z"/>
    <path class="st1" d="M578,233.6c-2.8,18.1-5.5,36.1-8.3,54.2,4.8.3,9.7.7,14.5,1.1,5.8.5,11.5,1,17.2,1.7,4.3.4,8.7.9,13,1.4-1.4-14.8-2.9-29.6-4.3-44.4-5.6-.7-11.1-1.4-16.7-1.9v-10.7c-5.1-.6-10.3-1-15.4-1.4h0Z"/>
    <g>
      <path class="st0" d="M555.2,936.8c-2.1,1-13.1,6.5-15.5,7.7-63.5-29.2-119.2-73.5-159.4-130.6l-13,8.3c43,61.8,103.9,108.6,172.4,139.5,68.6-31,129.5-77.8,172.5-139.7l-13-8.3c-37,52.2-86.5,94.6-144.1,123.2h0Z"/>
      <path class="st0" d="M308.6,589.1v-130.4c141.9-77.1,320.3-77.1,462.2,0-.6,90.5,8.7,201.6-32.1,285l9.5,16.4c47.9-91.5,37.4-210.9,38-310.9-154.1-85-339-85-493,0,.6,100.6-9.9,219.4,38.2,311.4l9.5-16.4c-21.2-48.7-32.3-101.5-32.3-155.1h0Z"/>
      <path class="st0" d="M513.6,428.9c-61.4,3.5-122.2,19.5-177.4,47h0c.7,32.8-2,126.7,2.7,157.7,3.4,27.6,10.1,54.7,19.6,80.4l165.5-285.5c-3.5.1-7,.3-10.4.5h0Z"/>
      <path class="st0" d="M721.1,713.5c9.4-25.6,16-52.5,19.4-79.9,4.8-30.5,2.1-125.6,2.7-157.7-58.5-29-122.9-45.3-187.8-47.4l165.7,285.1h0Z"/>
      <path class="st3" d="M408.6,805.8c34.3,45.7,79.5,82.8,131.1,107.8,54.3-26.2,101.4-66,136.3-114.9l-73.3-46.9-62.9,62.7-63-62.7-73.3,47c1.7,2.3,3.4,4.7,5.1,6.9h0Z"/>
      <path class="st1" d="M346.5,835.5c8-5.1,26-16.7,33.8-21.7,40.2,57.1,95.9,101.5,159.4,130.6,63.6-29.2,119.4-73.6,159.5-130.8,3.3,2.1,120.5,77,127.4,81.4-6-10.4-84.1-144.7-88-151.4,40.8-83.2,31.5-194.7,32.1-285-141.9-77.2-320.3-77.1-462.2,0,.6,90.6-8.7,201.9,32.3,285.4-21.1,36.4-66,113.9-87.6,151.1l93.2-59.8h0ZM403.5,798.9l73.3-47,62.9,62.7,62.9-62.7,73.3,46.9h0c-34.8,48.8-82,88.6-136.3,114.9-54.3-26.2-101.4-66-136.2-114.8h0ZM358.5,713.9c-9.5-25.7-16.1-52.8-19.6-80.4-4.8-30.5-2.1-125.6-2.7-157.7h0c58.3-29,122.9-45.3,187.8-47.4l-165.5,285.5h0ZM578.9,429.8c56.8,4.8,113,20.5,164.3,46-.7,32.8,2,126.7-2.7,157.7-3.4,27.4-10,54.4-19.4,79.9l-165.7-285.1c7.8.3,15.7.7,23.5,1.4h0ZM539.7,452.7l212.2,365.1-153.1-97.8-59.2,58.9-59.2-58.9-152.5,97.8,211.7-365.1h0Z"/>
      <polygon class="st2" points="480.5 719.9 539.8 778.9 539.7 625.7 487.3 654.2 539.7 564.8 539.7 452.7 752 817.8 539.8 452.7 328 817.8 480.5 719.9"/>
      <polygon class="st3" points="539.7 452.7 539.7 564.8 539.7 564.8 539.7 564.8 539.7 564.8 539.7 564.8 539.7 564.8 592.4 654.2 539.7 625.7 539.7 625.7 539.8 778.9 598.9 719.9 752 817.8 539.7 452.7"/>
      <polygon class="st1" points="592.4 654.2 539.7 564.8 539.7 564.8 539.7 564.8 539.7 564.8 487.3 654.2 539.7 625.7 592.4 654.2"/>
    </g>
  </g>
</svg>