<?xml version="1.0" encoding="UTF-8"?>
<svg id="PRIMARY" xmlns="http://www.w3.org/2000/svg" version="1.1" viewBox="0 0 1080 1080">
  <!-- Generator: Adobe Illustrator 30.1.0, SVG Export Plug-In . SVG Version: 2.1.1 Build 136)  -->
  <defs>
    <style>
      .st0 {
        fill: #fff;
      }
    </style>
  </defs>
  <g id="_1_COLOR_LIGHT">
    <path class="st0" d="M284.2,362.8c0,10.3,2.7,17.1,8,20.4,5.4,3.3,13,3,23.1-.8,26.3-9.8,53.1-17.7,80.2-23.8v-166.8c-13.2,2.9-26.2,6.3-39.2,10.1v132.2c-9.5,2.8-18.8,5.8-28.2,9-3.9,1.4-5.8,0-5.8-3.9v-126.3c-15.5,5.6-30.9,11.8-46,18.6,2.6,4.8,5.3,9.5,8,14.3v116.7h0Z"/>
    <path class="st0" d="M450.9,348.9c13.3-1.7,26.7-3,40.1-3.9v-132.2c12.6-.8,25.2-1.2,37.8-1.3v-34.5c-38.6.1-77.2,3.9-115.2,11.2v34.5c12.4-2.4,24.9-4.4,37.4-6v132.2h0Z"/>
    <path class="st0" d="M521.9,343.8c13.8-.2,27.6,0,41.4.8,2.3-11.4,4.5-22.8,6.8-34.1,13.3.9,26.6,2.1,39.8,3.8,2.3,11.8,4.5,23.6,6.8,35.5,13.7,1.9,27.4,4.3,41,7.2-13.6-58.4-27.2-116.4-41-173.9-22-3.1-44.2-5-66.3-5.7,2.8,6.1,5.7,12.1,8.5,18.2-12.3,49.1-24.7,98.5-37,148.3h0ZM578,218.4c5.1.4,10.3.9,15.4,1.4v10.7c5.6.6,11.2,1.2,16.7,1.9,1.4,14.8,2.9,29.6,4.3,44.4-4.3-.5-8.7-1-13-1.4-5.7-.6-11.5-1.2-17.2-1.7-4.8-.4-9.7-.8-14.5-1.1,2.8-18.1,5.5-36.2,8.3-54.2h0Z"/>
    <path class="st0" d="M674.5,360.6c13.1,3.1,26.2,6.7,39.1,10.7v-68.9c11.4,3.5,22.7,7.4,33.9,11.6v68.9c12.8,4.8,25.4,10,37.9,15.6v-166.8c-12.5-5.6-25.1-10.9-37.9-15.6v63.4c-11.2-4.2-22.5-8-33.9-11.6v-63.4c-15.7-4.9-31.5-9.1-47.5-12.6,2.8,6.6,5.6,13.2,8.4,19.8v148.9Z"/>
    <path class="st0" d="M555.2,921.6l-3.2,1.6-12.2,6.1-12.2-6.1-3.2-1.6c-57.6-28.6-106.9-70.8-144-123l-13,8.3c38.6,54.5,90,98.7,150.1,128.5l3.2,1.6,19.1,9.5,19.1-9.5,3.2-1.6c60.2-29.8,111.7-74,150.2-128.7l-13-8.3c-37,52.2-86.5,94.6-144.1,123.2h0Z"/>
    <path class="st0" d="M308.6,573.9v-130.4l15.3-7.6c33.6-16.7,69.2-29.4,105.7-37.9,36-8.4,73.1-12.6,110.1-12.6s74.1,4.2,110.1,12.6c36.5,8.5,72.1,21.3,105.7,37.9l15.3,7.6v130.4c0,53.4-11,106-32.1,154.6l9.5,16.4c25-53.4,38-111.7,38-171v-139.9l-23.9-11.9c-34.7-17.2-71.4-30.4-109-39.1-37.2-8.7-75.4-13-113.6-13s-76.4,4.4-113.6,13c-37.7,8.8-74.4,21.9-109,39.1l-23.9,11.9v139.9c0,59.5,13.1,118,38.2,171.5l9.5-16.4c-21.2-48.7-32.3-101.5-32.3-155.1h0Z"/>
    <polygon class="st0" points="536.5 896.9 536.5 896.9 539.7 898.5 536.5 896.9 536.5 896.9"/>
    <path class="st0" d="M524,413.2c-3.5.1-7,.3-10.4.5-13,.8-26.1,2-39,3.9-23.8,3.4-47.3,8.7-70.5,15.9-6.3,2-12.6,4-18.8,6.3-2.1.8-4.2,1.5-6.2,2.3-6.2,2.3-12.4,4.8-18.5,7.4-4.1,1.7-8.2,3.5-12.2,5.4s-8.1,3.8-12.1,5.8h0v113.2h0c0,15,.9,29.8,2.7,44.5.3,2.1.5,4.2.8,6.3,3.6,25.5,9.9,50.3,18.7,74.1l165.5-285.5h0Z"/>
    <path class="st0" d="M739.7,624.6c.3-2.1.6-4.2.8-6.3,1.8-14.6,2.7-29.5,2.7-44.5h0v-113.2h0c-16-8-32.4-14.9-49-20.9-35.4-12.7-71.9-20.9-108.8-24.5-2.2-.2-4.3-.4-6.5-.6-7.8-.7-15.6-1.1-23.5-1.4l165.7,285.1c8.7-23.7,15-48.3,18.6-73.7Z"/>
    <path class="st0" d="M672.7,788.1c1.1-1.5,2.2-3,3.3-4.6h0c-1.1,1.5-2.2,3-3.3,4.6Z"/>
    <polygon class="st0" points="539.7 898.5 542.9 896.9 542.9 896.9 542.9 896.9 539.7 898.5"/>
    <path class="st0" d="M602.7,736.7l-62.9,62.7-63-62.7-73.3,47c1.1,1.5,2.1,3,3.2,4.4.6.8,1.2,1.7,1.9,2.5,1.5,2,3,3.9,4.5,5.9,2.2,2.8,4.4,5.5,6.7,8.3,1.7,2.1,3.5,4.1,5.3,6.2,2.2,2.5,4.4,5,6.6,7.4,1.9,2,3.8,4,5.7,6,.4.4.8.9,1.2,1.3,1.9,1.9,3.8,3.8,5.7,5.7.3.3.7.6,1,1,1.8,1.7,3.5,3.4,5.3,5.1.4.3.7.7,1,1,2,1.8,4,3.6,6,5.4.5.4.9.8,1.4,1.2,2,1.8,4.1,3.5,6.1,5.3,0,0,.1,0,.2.2,2.1,1.8,4.2,3.5,6.4,5.2.5.4,1,.8,1.5,1.2,2.1,1.7,4.2,3.3,6.4,5,.4.3.8.6,1.1.8,2,1.5,4,2.9,6,4.4.4.3.9.6,1.3,1,1,.7,2,1.4,3,2.1.7.5,1.4,1,2,1.4,1.1.8,2.2,1.5,3.3,2.2.6.4,1.1.8,1.7,1.2,1.7,1.1,3.4,2.2,5.1,3.3,0,0,0,0,0,0,2.4,1.5,4.8,3,7.2,4.4.6.4,1.2.7,1.8,1.1,2.4,1.4,4.9,2.9,7.3,4.3,0,0,0,0,0,0,2.5,1.4,5,2.7,7.5,4.1.6.3,1.3.7,1.9,1,2.5,1.3,5,2.6,7.6,3.9h0l3.2,1.6,3.2-1.6h0c2.5-1.3,5.1-2.6,7.6-3.9.6-.3,1.3-.7,1.9-1,2.5-1.3,5-2.7,7.5-4.1,0,0,0,0,0,0,2.5-1.4,4.9-2.8,7.3-4.3.6-.4,1.2-.7,1.8-1.1,2.4-1.5,4.8-2.9,7.2-4.4,0,0,0,0,0,0,1.7-1.1,3.4-2.2,5.1-3.3.6-.4,1.1-.8,1.7-1.2,1.1-.8,2.2-1.5,3.3-2.3.7-.5,1.4-1,2-1.4,1-.7,2-1.4,3-2.1.4-.3.9-.6,1.3-1,2-1.4,4-2.9,6-4.4.4-.3.8-.6,1.1-.8,2.2-1.6,4.3-3.3,6.4-5,.5-.4,1-.8,1.5-1.2,2.2-1.7,4.3-3.5,6.4-5.2,0,0,.1,0,.2-.2,2.1-1.7,4.1-3.5,6.1-5.3.5-.4.9-.8,1.4-1.2,2-1.8,4-3.6,6-5.4.3-.3.7-.7,1-1,1.8-1.7,3.6-3.4,5.3-5.1.3-.3.7-.6,1-1,1.9-1.9,3.8-3.8,5.7-5.7.4-.4.8-.8,1.2-1.3,1.9-2,3.8-4,5.7-6,2.2-2.4,4.4-4.9,6.6-7.4,1.8-2,3.5-4.1,5.3-6.2,2.3-2.7,4.5-5.5,6.7-8.3,1.5-2,3-3.9,4.5-5.9.6-.8,1.3-1.7,1.9-2.5,1.1-1.5,2.2-3,3.3-4.6l-73.3-46.9h0Z"/>
    <path class="st0" d="M539.8,437.4l-211.7,365.1,152.5-97.8,59.2,58.9,59.2-58.9,153.1,97.8-212.2-365.1h0ZM539.8,610.4h0l-52.4,28.5,52.4-89.4h0s52.6,89.4,52.6,89.4l-52.6-28.5Z"/>
  </g>
</svg>