<?xml version="1.0" encoding="UTF-8"?>
<svg id="ICON" xmlns="http://www.w3.org/2000/svg" version="1.1" viewBox="0 0 1080 1080">
  <!-- Generator: Adobe Illustrator 30.1.0, SVG Export Plug-In . SVG Version: 2.1.1 Build 136)  -->
  <defs>
    <style>
      .st0 {
        fill: #fff;
      }
    </style>
  </defs>
  <g id="_1_COLOR_LIGHT">
    <polygon class="st0" points="759.2 719.6 660.2 549.4 759.2 719.6 759.2 719.6"/>
    <polygon class="st0" points="363.8 719.6 363.8 719.6 462.6 549.4 363.8 719.6"/>
    <polygon class="st0" points="561.3 483.7 561.3 483.7 561.3 483.7 512.4 567 512.4 567 561.3 483.7 561.3 483.7"/>
    <polygon class="st0" points="561.3 540.4 561.3 540.4 536.8 553.7 561.3 540.4 561.3 540.4 585.8 553.7 561.3 540.4"/>
    <path class="st0" d="M561.2,295.2L241,847.6l259.1-166.3,61.2,60.9,61.1-60.9,259.6,166-320.8-552h0ZM619.9,658.2l-58.7,58.5-58.7-58.4-121.5,78-86.9,55.8,50.5-87.1,216.6-373.5,267.6,460.4-208.9-133.5h0v-.2Z"/>
    <path class="st0" d="M660.2,549.4l-99-170.2-98.7,170.2-98.7,170.2h0l142.2-91.2,55.2,55,55.2-55,142.7,91.2h0l-99-170.2h0ZM561.3,540.4h0l-24.5,13.3-24.5,13.3h0l48.9-83.4h0l49.1,83.4h0l-24.5-13.3-24.5-13.3h0Z"/>
  </g>
</svg>