<?xml version="1.0" encoding="UTF-8"?>
<svg id="PRIMARY" xmlns="http://www.w3.org/2000/svg" viewBox="0 0 1080 1080">
  <defs>
    <style>
      .cls-1 {
        fill: #024;
      }

      .cls-2 {
        fill: #ff5216;
      }

      .cls-3 {
        fill: #fff;
      }

      .cls-4 {
        fill: #ccc;
      }
    </style>
  </defs>
  <g id="FULL_COLOR" data-name="FULL COLOR">
    <path class="cls-3" d="m284.25,378.04c0,10.33,2.66,17.09,8.01,20.41,5.35,3.33,13.01,2.97,23.07-.77,26.3-9.78,53.1-17.7,80.21-23.78v-166.76c-13.16,2.95-26.24,6.33-39.23,10.15,0,44.07,0,88.15,0,132.22-9.45,2.78-18.84,5.79-28.18,9.03-3.89,1.35-5.83.07-5.83-3.9v-126.26c-15.52,5.56-30.87,11.76-46.02,18.6,2.65,4.76,5.31,9.54,7.97,14.34v116.73Z"/>
    <path class="cls-3" d="m450.93,364.11c13.32-1.73,26.68-3.03,40.07-3.9v-132.22c12.57-.81,25.17-1.24,37.76-1.28,0-11.51,0-23.03,0-34.54-38.59.13-77.18,3.87-115.23,11.22,0,11.51,0,23.03,0,34.54,12.42-2.4,24.89-4.41,37.41-6.04v132.22Z"/>
    <path class="cls-3" d="m521.93,358.99c13.81-.2,27.63.07,41.43.79,2.27-11.39,4.54-22.78,6.82-34.15,13.3.85,26.59,2.13,39.83,3.83,2.26,11.81,4.52,23.62,6.78,35.46,13.71,1.92,27.37,4.31,40.96,7.16-13.59-58.43-27.25-116.41-40.96-173.92-22.02-3.09-44.16-4.98-66.33-5.69,2.84,6.05,5.69,12.11,8.53,18.2-12.34,49.07-24.69,98.51-37.04,148.32Zm71.49-113.23c5.58.56,11.16,1.19,16.73,1.9,1.43,14.81,2.86,29.63,4.29,44.45-4.32-.52-8.65-1-12.99-1.43-5.74-.65-11.48-1.22-17.23-1.7-4.83-.44-9.66-.82-14.49-1.15,2.77-18.09,5.53-36.17,8.3-54.23,5.14.42,10.27.9,15.39,1.44,0,3.57,0,7.14,0,10.71Z"/>
    <path class="cls-3" d="m674.49,375.83c13.13,3.13,26.17,6.7,39.12,10.71v-68.85c11.38,3.52,22.68,7.38,33.89,11.57v68.85c12.76,4.77,25.39,9.98,37.89,15.62v-166.76c-12.5-5.64-25.13-10.85-37.89-15.62v63.37c-11.21-4.19-22.51-8.05-33.89-11.57v-63.37c-15.69-4.85-31.53-9.07-47.48-12.64,2.79,6.58,5.58,13.18,8.36,19.8v148.89Z"/>
    <path class="cls-2" d="m578.03,233.61c-2.77,18.06-5.53,36.13-8.3,54.23,4.83.33,9.66.71,14.49,1.15,5.75.49,11.49,1.05,17.23,1.7,4.33.43,8.66.91,12.99,1.43-1.43-14.82-2.86-29.64-4.29-44.45-5.57-.71-11.14-1.35-16.73-1.9,0-3.57,0-7.14,0-10.71-5.13-.55-10.26-1.03-15.39-1.44Z"/>
    <g>
      <path class="cls-2" d="m555.18,936.79c-2.07,1.03-13.14,6.52-15.45,7.66-63.55-29.16-119.24-73.52-159.41-130.64l-13,8.34c43,61.78,103.87,108.56,172.41,139.52,68.61-30.99,129.53-77.84,172.55-139.72l-13.01-8.32c-37.05,52.25-86.45,94.56-144.08,123.15Z"/>
      <path class="cls-2" d="m308.63,589.09c0-11.06,0-123.1,0-130.35,141.9-77.15,320.29-77.15,462.19,0-.63,90.47,8.66,201.58-32.13,284.97l9.53,16.4c47.86-91.45,37.42-210.86,38.03-310.93-154.06-85.05-339-85.04-493.05,0,.63,100.62-9.88,219.41,38.25,311.4l9.51-16.4c-21.25-48.73-32.33-101.46-32.33-155.07Z"/>
      <path class="cls-2" d="m513.6,428.88c-61.41,3.46-122.23,19.54-177.4,46.96h0c.66,32.79-2.04,126.7,2.74,157.71,3.41,27.57,10.06,54.67,19.56,80.37l165.54-285.51c-3.48.12-6.96.27-10.44.47Z"/>
      <path class="cls-2" d="m721.12,713.47c9.41-25.57,16-52.52,19.39-79.93,4.77-30.49,2.1-125.56,2.74-157.71-58.46-29.04-122.92-45.26-187.81-47.43l165.68,285.06Z"/>
      <path class="cls-3" d="m408.64,805.85c34.28,45.67,79.46,82.84,131.08,107.82,54.28-26.25,101.4-66.01,136.28-114.9l-73.35-46.88-62.9,62.68-62.95-62.66-73.26,47.01c1.67,2.33,3.37,4.65,5.1,6.94Z"/>
      <path class="cls-1" d="m346.53,835.49c8.01-5.14,25.95-16.65,33.79-21.68,40.17,57.12,95.86,101.48,159.41,130.64,63.61-29.19,119.36-73.62,159.53-130.82,3.3,2.11,120.48,77.01,127.41,81.44-6.04-10.4-84.12-144.73-87.98-151.37,40.77-83.22,31.51-194.66,32.13-284.97-141.9-77.16-320.29-77.15-462.19,0,.62,90.65-8.67,201.91,32.33,285.43-21.12,36.42-66.03,113.88-87.63,151.13l93.2-59.8Zm57.01-36.58l73.26-47.01,62.95,62.66,62.9-62.68,73.35,46.88h0c-34.82,48.83-81.95,88.63-136.28,114.9-54.28-26.25-101.36-66-136.18-114.76h0Zm-45.05-84.99c-9.5-25.7-16.15-52.81-19.56-80.37-4.77-30.49-2.1-125.56-2.74-157.71h0c58.3-28.97,122.86-45.28,187.84-47.43l-165.54,285.51Zm220.4-284.11c56.75,4.83,113,20.51,164.35,46.03-.66,32.79,2.04,126.7-2.74,157.71-3.39,27.41-9.98,54.36-19.39,79.93l-165.68-285.06c7.83.27,15.65.73,23.46,1.4Zm-39.15,22.85l212.21,365.12-153.06-97.84-59.15,58.94-59.22-58.94-152.49,97.84,211.7-365.12Z"/>
      <polygon class="cls-4" points="480.53 719.94 539.75 778.88 539.74 625.65 487.31 654.17 539.73 564.79 539.73 452.71 751.96 817.78 539.75 452.66 328.04 817.78 480.53 719.94"/>
      <polygon class="cls-3" points="539.73 452.71 539.73 564.79 539.74 564.77 539.74 564.77 539.74 564.77 539.74 564.77 539.74 564.77 592.36 654.17 539.74 625.65 539.74 625.65 539.75 778.88 598.9 719.94 751.96 817.78 539.73 452.71"/>
      <polygon class="cls-1" points="592.36 654.17 539.74 564.77 539.74 564.77 539.74 564.77 539.74 564.77 487.31 654.17 539.74 625.65 592.36 654.17"/>
    </g>
  </g>
</svg>