<?xml version="1.0" encoding="UTF-8"?>
<svg id="PRIMARY" xmlns="http://www.w3.org/2000/svg" viewBox="0 0 1080 1080">
  <defs>
    <style>
      .cls-1 {
        fill: #024;
      }
    </style>
  </defs>
  <g id="_1_COLOR_DARK" data-name="1 COLOR DARK">
    <path class="cls-1" d="m284.25,350.65c0,10.33,2.66,17.09,8.01,20.41,5.35,3.33,13.01,2.97,23.07-.77,26.3-9.78,53.1-17.7,80.21-23.78v-166.76c-13.16,2.95-26.24,6.33-39.23,10.15,0,44.07,0,88.15,0,132.22-9.45,2.78-18.84,5.79-28.18,9.03-3.89,1.35-5.83.07-5.83-3.9v-126.26c-15.52,5.56-30.87,11.76-46.02,18.6,2.65,4.76,5.31,9.54,7.97,14.34v116.73Z"/>
    <path class="cls-1" d="m450.93,336.72c13.32-1.73,26.68-3.03,40.07-3.9v-132.22c12.57-.81,25.17-1.24,37.76-1.28,0-11.51,0-23.03,0-34.54-38.59.13-77.18,3.87-115.23,11.22,0,11.51,0,23.03,0,34.54,12.42-2.4,24.89-4.41,37.41-6.04v132.22Z"/>
    <path class="cls-1" d="m521.93,331.6c13.81-.2,27.63.07,41.43.79,2.27-11.4,4.54-22.78,6.82-34.15,13.3.85,26.59,2.13,39.83,3.83,2.26,11.81,4.52,23.62,6.78,35.46,13.71,1.92,27.37,4.31,40.96,7.16-13.59-58.44-27.25-116.41-40.96-173.92-22.02-3.09-44.16-4.98-66.33-5.69,2.84,6.05,5.69,12.11,8.53,18.2-12.34,49.07-24.69,98.51-37.04,148.32Zm56.1-125.38c5.14.42,10.27.9,15.39,1.44,0,3.57,0,7.14,0,10.71,5.58.56,11.16,1.19,16.73,1.9,1.43,14.81,2.86,29.63,4.29,44.45-4.32-.52-8.65-1-12.99-1.43-5.74-.65-11.48-1.22-17.23-1.7-4.83-.44-9.66-.82-14.49-1.15,2.77-18.09,5.53-36.17,8.3-54.23Z"/>
    <path class="cls-1" d="m674.49,348.45c13.13,3.13,26.17,6.7,39.12,10.71v-68.85c11.38,3.52,22.68,7.38,33.89,11.57v68.85c12.76,4.77,25.39,9.98,37.89,15.62v-166.76c-12.5-5.64-25.13-10.85-37.89-15.62v63.37c-11.21-4.19-22.51-8.05-33.89-11.57v-63.37c-15.69-4.85-31.53-9.07-47.48-12.64,2.79,6.58,5.58,13.18,8.36,19.8v148.89Z"/>
    <path class="cls-1" d="m748.22,732.72l-9.53-16.4c40.77-83.22,31.51-194.66,32.13-284.97-141.9-77.16-320.29-77.15-462.19,0,.62,90.65-8.67,201.91,32.33,285.43-21.12,36.42-66.03,113.88-87.63,151.13,24.92-15.99,103.4-66.35,126.99-81.48,40.17,57.12,95.86,101.48,159.41,130.64,63.61-29.19,119.36-73.62,159.53-130.82,3.32,2.12,120.47,77.01,127.41,81.44l-78.45-134.97Zm-169.32-330.29c56.75,4.83,113,20.51,164.35,46.03-.58,72.02,6.47,170.38-22.13,237.64l-165.68-285.06c7.83.27,15.65.73,23.46,1.4Zm-239.12,209.99c-6.04-34.18-2.83-128.11-3.57-163.96,58.3-28.97,122.86-45.28,187.84-47.43l-165.54,285.51c-8.78-23.79-15.11-48.61-18.72-74.11Zm332.91,163.53c-34.51,46.85-80.59,85-132.96,110.34-54.02-26.13-101.32-65.91-136.18-114.76l73.26-47.01,62.95,62.66,62.9-62.68,73.35,46.88h0c-1.09,1.53-2.2,3.05-3.32,4.56Zm-73.79-83.39l-59.15,58.94-59.22-58.94-152.49,97.84,211.7-365.12,212.21,365.12-153.06-97.84Z"/>
    <polygon class="cls-1" points="539.74 537.39 539.74 537.39 539.74 537.39 539.73 537.4 487.31 626.78 539.74 598.27 539.74 598.26 592.36 626.78 539.74 537.39 539.74 537.39"/>
  </g>
</svg>