<?xml version="1.0" encoding="UTF-8"?>
<svg xmlns="http://www.w3.org/2000/svg" version="1.1" viewBox="0 0 800 800">
  <defs>
    <style>
      .cls-1 {
        fill: #fff;
      }
    </style>
  </defs>
  <!-- Generator: Adobe Illustrator 28.7.8, SVG Export Plug-In . SVG Version: 1.2.0 Build 200)  -->
  <g>
    <g id="Layer_1">
      <g>
        <path class="cls-1" d="M668.6,402.6l-23.6-42.1-28.8-47.1c-.7-1.1-5.5-8.8-14.4-14.4-10.8-6.8-19.6-8.3-25.1-8.3s-3.9.3-4.5.4l-8,1.8.9,3.9c-1.4-.1-2.8-.2-4.4-.2s-1.5,0-2.4,0c-9,.3-18.4,2-26.5,4.8-10.8,3.7-18.9,9-24.1,15.8-8.5,11-30.3,27.1-30.5,27.3l-2,1.5c1.2-7,2-13.8,2-19.2s-.4-7.8-1.1-10.7c1.8-.5,3.2-1.3,4.1-2,4.6-3.6,6.9-8.1,8.2-11.7l8.4-2.7-.7-6.6s-.4-3.8-.7-6.6c2.5,0,5.2-.2,8.1-.4,10.5-.8,23.6-3.8,24.1-3.9l6.5-1.5-.3-6.7c0-1.2-.8-12.6-12.1-27.4-10.2-13.4-19.4-13.7-24.3-13.8,0,0,0,0,0,0-4.4-4.8-13.4-14.7-38.7-14.7s-5.2,0-7.9.3c-38.8,2.8-57.5,31.7-58.3,32.9l-.9,1.5-8.1-2c-.6-.1-2.7-.6-5.7-.6-6.4,0-22,2.3-29,23.3-2.6,7.6-2.1,15.1,1.4,21.7,1.7,3.3,4.1,6,6.6,8.3-12.6,3.4-19.4,10.9-22.4,16.8l-17,7.5-1.1,17.4c-.9,1-2.5,2.8-5.4,5.7-7.4,7.4-9.1,14.5-9.2,19.3-1.6,1.7-3.8,4.2-6.6,7.6l-56.1-6.3-4.9-.8c-1-.3-2-.5-3-.6-.6,0-1.1,0-1.7,0s-.4,0-.6,0c-5.4.2-10.2,3.1-12.9,7.8-.9,1.6-2.2,4.3-2.8,7.8-.9,5.3.5,9.5,1.8,12.3-4.8,2.5-7.6,4.5-7.9,4.8l-8.1,6.2c-.3,0-.6,0-.9,0-23-2.3-30.6-9.2-31.6-10.3l-9-15.2-5.3,17.8c-.3.9-6.6,22.7,5.7,44.1,3.3,5.8,7.7,10.2,12.9,13l-5.4,3.7,15.6,5c.5.2,11.8,3.7,27,3.7s13.4-.7,19.7-2.1c6.1-1.4,12.3-3.7,18.2-6.4-2.2,4.7-4.1,9.5-5.6,13.6-.8,2.2-1.9,4.9-2.6,6.4-.1,0-.2,0-.4,0-1.4,0-2.9-.3-3.3-.4l-6.8-1.9-2.8,6.5c0,0-4.4,10.1-7.7,15.3-2.5,4-18.1,20.8-24.7,27.9-2.5,2.7-4.2,4.6-5.2,5.6,0,0,0,0,0,.1,0,0,0,0-.1,0s-.2,0-.2,0l-8.5-4.3-1.6,7.6-1-2.7-2.7-1.4c-1.2-.6-3.3-1.3-6.7-1.3-5,0-11.3,1.5-18.9,4.6-15.7,6.3-19.3,22-18.9,30.3l.3,6.4,6.3,1.2c.6.1,7.2,1.4,15.4,2.6-4,3.5-7.3,8.4-7.9,14.7-1.1,10.2.6,16.4,4.4,20.3l2.7,2.2,3.4-.4c4.4-.5,26.8-3.5,35.3-7.7.4-.2,43.6-21.5,50.6-29.6,3-3.5,21.4-17.8,33.6-26.9l6.3-4.7c5.1,2,9,4.7,11.4,6.6,4.4,3.7,10,5.7,15.7,5.7s1.3,0,2,0c4.9-.4,11.6-2.4,17.6-6.9.2.8.4,1.5.5,2l1.3,4.6,36,8.3.3-2.7c0,0,.1,0,.2,0,3.2,1.1,7,1.6,11.7,1.6s12.4-1.1,12.7-1.1l6.3-1.1.4-6.4c0-.9.1-4.1-1.2-7.9,5.8,1.7,12.6,3.7,18.6,5.4,4.8,1.4,10.8,2.1,17.6,2.1s16.9-1.1,20.6-1.7c3.6,1.2,11.8,3.7,22.5,6.4-4.3,2.1-9.9,5.3-16.4,10.3-14.9,11.4-16.4,24.1-16.5,25.5l-.7,8.2,8.2.5c.8,0,19.3,1.2,30.4,1.2s9.2-.4,11-1.4c.2,0,.3-.2.5-.3l.4.5h3.5c.5,0,13,0,21.7-2,9.4-2.1,24.8-16.6,29.3-21l3.5-3.4c8.7,3.9,17.9,8.9,27.5,14.9.4.2.7.4,1,.6l-1.8,13.3,1.7,5.5c.2.7,2.5,7.6,10.9,19.6,3.9,5.5,12,12.1,28.7,12.1s6.9-.4,7.2-.5l7.9-1.2-1-7.9c-.9-6.6-5.3-40.2-8.2-48-.3-.7-.3-1.1-.5-1.7-.8-4-2.2-6.3-6.4-10.4-3.8-3.7-10.8-9.9-24.9-22.1-1.3-1.2-2.7-2.3-4-3.4,4.2-3.6,10.3-9.4,12.7-14.4,2.5-5.2,2.4-11.5-.3-17.9-2.6-6.3-7.8-12.4-14.8-17.6-6.8-5-15-7.4-22.5-8.5,1.9-3.7,3.8-8.4,5.5-14.1,3-10.5,1.8-19.2-.6-25.8,4.8-.4,10.9-1,18.4-2.1,11-1.6,19.6-5,25.3-7.9,4.2,5.4,11,11.1,21.2,13.9,3.2.9,6.1,1.3,8.8,1.3h0c6.7,0,10.7-2.7,12.9-5.1,1.2-1.2,2.1-2.6,2.7-3.9,5.1-.5,10.4-1.8,13.6-4.4,6.5-5.4,3.6-13,1.7-16.9,1.1-1.3,2.4-3.2,3.2-5.7,2.8-8-2.5-15.3-4.9-18ZM232,572.1c-4.9,5.8-40.3,23.8-48,27.6-7.7,3.8-32.7,6.9-32.7,6.9,0,0-2.6-2.1-1.5-13.2.8-8,8.3-12.2,12.4-13.9,1.5-.6,2.6-.9,2.6-.9l1.6,1.4,5.1,4.4,8.4-.8,1.5-3.3v-.2c0,0,9.9-3.2,18-7,2.5-1.2,4.9-2.4,6.7-3.6,4.3-2.8,5.6-4.6,7.7-7.7,1.7-2.4,4-5.5,8.9-10.2,2.9-2.9,7.4-4.8,12.4-6,13.8-3.4,31.7-1.7,31.7-1.7,0,0-29.9,22.4-34.9,28.1ZM512.9,595.3c-7.9,1.8-19.9,1.8-19.9,1.8l-1.9-2c-.7-.7-1.9-.7-2.6,0-.8.9-2,1.9-3.5,2.7-3,1.5-37.3-.7-37.3-.7,0,0,.8-10.2,13.3-19.7s21.7-12.2,21.7-12.2l6.6,10.9,8.9.5s-1.7-9.4,2.7-10c.1,0,.3,0,.5,0,.9,0,2.7.3,5,.9,10.5,2.4,32.2,9,32.2,9,0,0-17.6,17.1-25.5,18.9ZM665.9,418c-1.7,4.9-5.6,4.7-4.7,7.7.8,3,5.4,8.6,2.2,11.3-3.2,2.7-14.6,2.9-14.6,2.9,0,0,.5,12.1-16,7.6-16.5-4.5-20.4-17.3-20.4-17.3,0,0-10.8,8.3-29.4,11-21.5,3.1-31.1,2.5-31.1,2.5,0,0,12.3,11.8,6.7,31.1-5.6,19.4-14,23.9-14,23.9,0,0,21-2.2,34,7.4,13,9.6,15.3,19.9,12.6,25.4-2.7,5.6-14,14.5-14,14.5,0,0-15-15.1-28.3-19.2-13.3-4-23.6-1.5-23.6-1.5,0,0,25.4,4.4,59.1,33.7,33.7,29.3,26.8,23.6,29.5,31,2.7,7.4,7.7,46.3,7.7,46.3,0,0-20.2,3-28.1-8.2-7.9-11.3-9.8-17.3-9.8-17.3l10.6-7.9-.3-8.2-9.8,1.5s2.4-4.9-2.8-8c-5.2-3.1-36.7-24.3-68.5-28-31.8-3.7-62.3-14.1-62.3-14.1,0,0-22.4,4.2-36.7.2-14.3-4-32.9-9.6-32.9-9.6,0,0-.3,2.2-2,4.2-1.7,2-3.3,2.7-3.3,2.7,0,0,4.6.3,7.6,4.1,3.1,3.8,2.8,8.4,2.8,8.4,0,0-13,2.3-20.3-.2-7.3-2.5-9.9-4.1-9.9-4.1l-.4,4.4-22.4-5.2s-2.9-10,.6-14.3c3.4-4.2,8.3-14.2,10.7-26,.4-1.8.7-3.3.9-4.7,1.3-7.1.3-14.4-3.2-20.7-.4-.7-.8-1.4-1.2-1.9-2.7-3.6-4.4-2.3-4.4-2.3,0,0,6.2,11.4,4,24.1-2.2,12.7-4.8,23-15.6,35.3-5.3,6.1-12.7,9.2-18.2,9.6-4.3.3-8.6-1-11.9-3.7-5-4.1-14.7-10.4-27.8-10.9-19.6-.7-32.1.7-32.1.7l-38.9,29.7s-4.5,5-15.1,6.6c-10.6,1.6-45-5-45-5,0,0-.7-16.6,13.8-22.4s18.9-3.6,18.9-3.6l4,10.3,8.8.7,2.1-9.7s5.3,2.1,9.3-2.3c3.9-4.4,26.9-28.7,30.7-34.6,3.7-5.9,8.3-16.5,8.3-16.5,0,0,9.4,2.6,12.2-2.1s7.5-21.9,15.1-32.1c7.6-10.2,13.6-19.2,13.6-19.2,0,0-24.5,19.5-46.8,24.5-22.3,5-42.4-1.4-42.4-1.4l10.4-7.2s-18.3,7.7-29-10.9c-10.7-18.6-5-37.8-5-37.8,0,0,7.5,10.5,37.3,13.5,29.8,3,34.2-1.8,34.2-1.8l-19.5-6s9.3-7.1,25-10.3h-1.3c0-.1-5.5-.5-5.5-.5-.3,0-.6,0-.9,0-.4,0-.7,0-1.1,0-2.4-.3-4.5-1.7-5.7-3.8,0,0,0,0,0-.1-.9-1.6-1.8-4.2-1.2-7.5.4-2.3,1.2-4,1.8-5.1,1.3-2.2,3.6-3.6,6.2-3.7.4,0,.7,0,1.1,0,.7,0,1.3.2,1.9.5l5.8.9,51.3,5.7,9.3,1c7.7-9.6,11.6-13.1,11.6-13.1,0,0-2.6-7.4,6.5-16.5,9.1-9.1,7.7-9.1,7.7-9.1l.9-14.3,15.5-6.8s2.6-11,18.6-15.1c16-4.1,17.9-5.5,17.9-5.5,0,0-28-7.9-20.7-29.6s25.1-17.4,25.1-17.4c0,0-12.8,5.1-9.8,12.9,3,7.8,6.4,8.9,6.4,8.9,0,0-1.9-5,.7-9.5,2.6-4.5,6.9-5.1,6.9-5.1,0,0-3,4.9-.5,8.6,2.5,3.7,4,3.1,4,3.1,0,0,.7-4.4,6.3-6.1,5.5-1.7,4.9,1.4,8.5,0s3-6.3,10.8-4.2c7.9,2.1,9.7,3.8,9.7,3.8l2.8-5.6-28.1-9.7s16.8-26.7,52-29.2,39.1,13.2,42.9,14.2c3.8,1,11-2.2,21.1,10.9,10.1,13.2,10.5,22.8,10.5,22.8,0,0-12.9,3-22.9,3.7-10,.7-14.2.4-14.2.4,0,0-1.8,4.7-1.5,7.6.3,2.9.8,8,.8,8l-6.4,2.1s-.7,7.2-6.4,11.6c-2.9,2.3-10.4-1.6-10.4-1.6l-2,4.6s6.3.2,6.3,16.1-3.7,27.6-6.2,38.2c-1.5,6.4-5.8,11.7-11.7,14.5,0,0-.1,0-.2,0-5.7,2.7-8.5,3.3-8.5,3.3,0,0,2.3,3.8,8.9,4.3,6.7.6,9.3-.8,9.3-.8,0,0-1.5,2-3.7,4.5.3,0,.6,0,.9,0,2.1.2,4.1.9,5.9,2,8-12.2,10.9-17,10.9-17h-.4c-3.1.6-6.2.7-9.3.3,0,0,12.5-7.4,20-15.2,6.4-6.7,6.8-10.1,6.8-10.1h-.2c-3.2.8-6.4.9-9.6.2h-.1s22.8-16.8,32.2-28.9c9.3-12.1,30-16.9,44.5-17.4,14.5-.5,17.7,4.5,17.7,4.5l-2.4-10.2s9.6-2.1,23.5,6.8c7.6,4.9,11.8,11.8,11.8,11.8l28.8,47,24,42.8s5.6,5.7,3.9,10.6Z"/>
        <path class="cls-1" d="M289.5,404.3h-.7c.6.5.6.8.6.8,0,0,0-.3.1-.8Z"/>
        <path class="cls-1" d="M478.9,241.5c5.4,4.5,9.7,11.5,13.6,17.4,2.2,3.2,4.6,6.8,8.2,9,3.4,2,7.7,1.7,11.5,1.4.8,0,3.6-1,4.5-1.2l-2-2.5-11.6-14.4-.6.4,6.8,13.5c-1.3.1-2.6.1-3.9,0-1.8,0-3.6-1.1-5.2-2.7-6.8-7.3-11.2-16.9-19.4-23.1-21.3-16.7-51.8-1.5-70.2,12.9l.3.4c4-3,8.3-5.7,12.6-8.1,16.4-9,39.4-16.3,55.3-2.9Z"/>
        <path class="cls-1" d="M517.5,392.5c-8.7,19.3-21.9,37.1-40,48.3-1.5.9-4.5,2.5-6.1,3.3,0,0,2.7,3.1,2.7,3.1,6.6,7.7,12.3,16.8,15.6,26.4,4.6,16.4,1.6,35.7-2.1,52.1h.4c2.2-6.7,3.9-13.6,5.2-20.7,1.3-7.1,2.1-14.2,2-21.5,0-11.1-4.4-21.8-9.8-31.3-1.2-2.1-2.4-4-3.8-6,.6-.4,1.3-.8,1.9-1.2,24.2-15.8,39.5-45.5,41.9-73.9,0,0-.5,0-.5,0-1.8,7.3-4.4,14.5-7.5,21.4Z"/>
        <path class="cls-1" d="M354.9,328.1s7.6-4.3,21.2-10.1c17.1-7.3,26.9-9.2,26.9-9.2,0,0-15.5.4-33.3,8.5-14.8,6.7-14.8,7.1-20.9,10l1.1,4.6-13.5,7.7,20.2-7-1.6-4.4Z"/>
        <path class="cls-1" d="M341.6,358.8c7.5,3,11.6,5.4,11.6,5.4l-2.9-6,6.1,1.3s-.5-8.5-10-10.8c-9.5-2.3-15.7,2.5-15.7,2.5l5.8,2-8.6,3.8s6.3-1.2,13.8,1.8Z"/>
        <path class="cls-1" d="M325.9,371.3s5.1-.4,10.9,1.6c5.8,2,9.4,3.6,9.4,3.6l-1.2-6,4.5,2.7s.4-8.2-8.4-10.5-13.6,2.8-13.6,2.8l4.7,1.3-6.2,4.1v.3Z"/>
        <path class="cls-1" d="M394.7,291c7,1.1,5.9,2.7,12.9,3.5,7,.8,9.2-1.6,9.2-1.6,0,0-3.5.3-5.9-1.1-2.4-1.3-3.2-3-3.2-3,0,0,2.7,1.6,6.7,1.9s5.7-1.3,5.7-1.3c0,0-4.6-1.3-6.5-2.4-1.9-1.1-1.6-2.4-1.6-2.4,0,0,6.2,3.8,11.1,3.5,4.9-.3,7.6-2.4,7.6-2.4,0,0-5.7-.8-7.8-2.7-2.2-1.9-2.4-2.7-2.4-2.7l11.1,2.4s-7.3-6.2-10.5-7.8c-3.2-1.6-7.8-1.9-9.7-1.1-4.6,2,.5,5.1.5,5.1,0,0-10.5-3-14-.5-3.5,2.4,3,4.9,3,4.9,0,0-5.4-.8-10,0-4.6.8-7.6,1.1-5.9,2.4,1.6,1.3,1.1,1.1,1.1,1.1,0,0-8.9,1.6-14.6-2.7-5.7-4.3-7-9.7-7-9.7,0,0-5.7,12.1,9.4,17.5,15.1,5.4,14-1.9,21-.8Z"/>
        <path class="cls-1" d="M434.1,271.5c-2.2-.5-3-1.1-3-1.1,0,0-1.1,5.1,4.6,7.8,5.7,2.7,11.6.8,11.6.8,0,0-4.9-1.5-5.9-2.4-1.1-.9-1.3-1.6-1.3-1.6,0,0,3,2.7,9.2,2.7s8.4-3.5,8.4-3.5l-7.6.2,5.5-2.6s-7.6-.8-12.1-2.4c-4.6-1.6-9.2-3.8-9.2-3.8l3.1,6s-1,.4-3.1-.1Z"/>
        <path class="cls-1" d="M480,284.5c.3-2.7.8-4.9-.8-4.9s-3.9.1-3.9.1l-.2,3.9s-5.7-2.4-5.1-3.5c.5-1.1,1.6-1.6.8-2.4s-1.2-2.4-1.2-2.4l5.8,2.2,1.6-1.2-10.7-5.3s-11.6,11.6-11.6,13.5,2.2,10.5,10,14.8c7.8,4.3,10,5.1,10.3,3.5s-1.1-2.4.3-3.8,1.9-1.7,1.1-2.3c-.8-.6-4.3-2-4.3-2,0,0,7.6,1.3,7-.8s-2.2-3.2-.8-3.2,4.6,1.6,3.8-1.1c-.8-2.7-2.2-2.4-1.9-5.1Z"/>
        <path class="cls-1" d="M362.2,468.2l-49.6-2.8c-1.8-4.7-7.6-21.6-5-38.8,1.6-11.1,2.8-13.4,2.9-13.5,0,.1-.1.2-.1.2l-3.7-2.8c-1.1,1.5-2.4,7.1-3.6,15.4-3.2,21.5,5.5,41.7,5.9,42.6l.6,1.3,52.8,2.9c.1-1.6,0-3.2,0-4.6Z"/>
        <path class="cls-1" d="M427.4,430.3c-1.3-.4-3.1-.8-4.9-1.1.9,5.1,1.9,11,2.3,16.5.9,10.4-.9,21.6-1.8,25.9l-18-1c-1,1.4-1.7,2.9-2.3,4.5l24,1.3.4-1.9c.1-.6,3.4-15.3,2.2-29.2-.4-5-1.2-10.3-2-15Z"/>
        <path class="cls-1" d="M357.4,515.4s3.4-13.7,12-25c1.8-2.4,3.4-4.6,4.8-6.5,5.3-7.2,7.8-11,7.8-11,0,0,1.2,1.2,3.6,2,2.4.8,4.6-.1,4.6-.1,0,0-7.5-6.7-12.1-11.5-2.1-2.1-4.3-4.3-6.1-6.1-2.4-2.4-4.2-4.1-4.2-4.1,0,0,.2,1.7.9,3.9.5,1.5,1.3,3.3,2.5,5.1,2.9,4.4,4.6,5.6,4.6,5.6,0,0-6.2,6.5-10.9,14.8-2.2,3.8-4,8-4.8,12.1-2.4,13-2.7,20.8-2.7,20.8Z"/>
        <path class="cls-1" d="M370.8,522.1s-1-.9-.3-8.7c.7-7.9,2.4-11.7,2.4-11.7,0,0-6.2,6-6.3,12.7v6.8s-8.8-1.6-13.9,6.1c-5,7.7-2.8,16.5-2.8,16.5,0,0,6.6-19.7,14.8-17.9,8.2,1.8,4.5,13.7,4.5,13.7,0,0,6.7.6,6.6-7-.1-7.6-5-10.5-5-10.5Z"/>
        <path class="cls-1" d="M359.8,538.3s-1.1,4.5,6.5,9.2c7.6,4.7,12.2,2.3,12.2,2.3,0,0-5.8-1.3-10.8-4.9s-7.9-6.7-7.9-6.7Z"/>
        <path class="cls-1" d="M401.1,439.6c-3.7-9.5-7.6-17.8-10.8-24l-1.9-.2h0s-29.2-3.3-29.2-3.3c8.3,14.2,23.1,28.9,23.1,28.9l-8.5,5.3h.2c2.9.4,5.7,1.5,8.1,3.1l-4.3,4.9,1.2-.3c2.7-.6,5.4-.5,8.1.1h.6c0,.1-2.8,3-2.8,3-.2.2-.4.5-.6.7-.8,1.4-.7,3.2.5,4.5l2.7,2.8s4-2.5,7.8-6.6c4.4-4.8,8.6-11.6,5.7-19.1Z"/>
        <path class="cls-1" d="M354,392.3l18.1,2c4.1-.9,11.8-2.7,20.1-5.5,6.8-2.3,10.3-5.1,10.3-5.1,0,0-32.5,4-39.9,5.2-3.8.7-7.1,1.2-8.6,3.3Z"/>
        <path class="cls-1" d="M573.4,349.4c-.8-2-3.1-3-5.2-2.2-2,.8-3,3.1-2.2,5.2.8,2,3.1,3,5.2,2.2,2-.8,3-3.1,2.2-5.2Z"/>
        <path class="cls-1" d="M566.7,393.3l1.5-13.4s2.1,5.3,4.9,9.2c2.9,3.9,9.7,5.8,9.7,5.8,0,0-8.9-9.3-11-16.9-2.2-7.6-3.7-12.2-3.7-12.2,0,0-4,5.6-3.9,13.5.1,6.2,2.5,14,2.5,14Z"/>
        <path class="cls-1" d="M564.2,358.6l-2.2-4.4s-5.4,2.6-8.1,19.8c-2.7,17.2,2.2,24.7,2.2,24.7l4.2,2.3s-3.2-3.8-2.5-20.5c.7-16.7,6.3-21.9,6.3-21.9Z"/>
        <path class="cls-1" d="M573.2,344.5l2.8,3.2s4.5-5.5,14.9-9.9c10.4-4.5,18.3-6.3,18.3-6.3l-1.5-3.7s-14.5,3.9-22.2,7.9c-8.1,4.2-12.3,8.9-12.3,8.9Z"/>
        <path class="cls-1" d="M576.1,354.7l-5.3,3.6s1.9,3.3,11.6,19c9.6,15.7,24.5,32.9,24.5,32.9l1.6-6.5s-9.3-11.4-14.5-19.1c-7.2-10.6-17.9-29.8-17.9-29.8Z"/>
        <polygon class="cls-1" points="645.8 391.7 623.4 404.5 626.7 407.3 647.9 395.2 645.8 391.7"/>
        <path class="cls-1" d="M584,348.2l1.4,2,3.9-2.6c1.6-1.1,3.5-1.6,5.4-1.4,0,0-.8,1.5-.4,5.6.4,4.1,5.5,5.8,5.5,5.8,0,0-1.1-8,.6-9.9,0,0,.8-1.4.9-1.5,2.8-2.8,7.4-3.6,10-.6l28.6,44.2,3.4-2.2s-21-34.2-24-39.9c-3-5.5-8-13.3-8-13.3,0,0-13,4.1-19.5,8.4-6.5,4.3-7.8,5.4-7.8,5.4Z"/>
        <path class="cls-1" d="M656.4,409.3l-6.9-11.5-3,1.8,4.6,7.4s-2.5,0-4.3,3.2c-3.1,5.4.4,10.3.4,10.3,0,0,2.7-9.6,5.6-8.9,2.7.7,2.6,4.1.4,7.1-2.7,3.8.2,9.7.2,9.7l5-10.5c1-2.1,1.3-3.6-.6-6.4l-1.3-2.2Z"/>
        <path class="cls-1" d="M618.4,406.9c-13-1.9-4.7,12.3-4.7,12.3,0,0,0-6.3,3.9-6.2,3.4.2,1.3,7.1,1.3,7.1,0,0,10.1-11.7-.6-13.2Z"/>
        <path class="cls-1" d="M611.7,356.3s2.1-4.7-3.4-6.3c-2.9-.9-6,0-6.1,4.7,0,6.2,7.1,4.9,7.1,4.9,0,0-4.6-2.5-2.5-4.7,2.1-2.3,4.9,1.5,4.9,1.5Z"/>
        <path class="cls-1" d="M630.1,422.8l-2.6-4.4-.3,4.1c-.6,7.1,4.3,13.6,11.3,15l3.4.7-3.7-4.2c-3.1-3.4-5.8-7.2-8.1-11.2Z"/>
        <path class="cls-1" d="M555.9,325c11.2-1.4,7.4,9.9,7.4,9.9,0,0,3.5-2.8,5.6-7.1,2.1-4.3-4.9-8-4.9-8,0,0,2.5-.4,6.4,0,4.2.5,9,4.8,9,4.8,0,0,1.4-8.4-11.8-11.7-9.8-2.5-24.8,3.4-24.8,3.4,0,0,6,9.5,13,8.6Z"/>
        <path class="cls-1" d="M585.7,312.7c2,3.8,1.5,6.9,1.5,6.9l5.9-4.1s-.2-4.5-5-7.3c-4.8-2.8-8.7-2.4-8.7-2.4,0,0,4.2,3.1,6.2,6.9Z"/>
        <path class="cls-1" d="M501.9,369.3c8.7-7.3,16.1-6.6,16.1-6.6,0,0,2.5-2,3.8-5.9,1.3-3.9,1-4.8,1-4.8,0,0-12.7-.9-19.6,7.3-6.9,8.3-19.6,9.9-19.6,9.9,0,0,8.6,8.1,18.2,0Z"/>
        <path class="cls-1" d="M486.7,394.2c5.1-2.5,4.3-5.5,9.6-5.4,5.3.1,7-.1,7-.1,0,0,1.1-2.7,1.7-5.1s0-4.5,0-4.5c0,0-8.7-1.6-15.5,4-6.8,5.5-4.4,6.4-8.5,8.5s-8.3,2.9-8.3,2.9c0,0,5.9,3.7,14-.3Z"/>
        <path class="cls-1" d="M513.2,337.7c-3.2,6.2-11.6,7.2-11.6,7.2,0,0,13.6,3.2,16.5-3.4,2.4-5.5,12.1-4.4,12.1-4.4,0,0,.9-3,1.1-3.8.4-1.9.6-4.3.6-4.3,0,0-12.3-3.5-18.7,8.7Z"/>
        <path class="cls-1" d="M450.1,345.4c-8,9.3-12.7,18.4-14.4,28-2,11.2-2.4,19.4-2.5,19.8l4.6.2c0,0,.4-8.3,2.4-19.2,1.6-8.8,6-17.3,13.4-25.9,6-7,10.1-20.4,10.2-21l-4.4-1.3c0,.1-3.9,13-9.3,19.3Z"/>
        <path class="cls-1" d="M578.9,416.4c-12.2-.6-16.2-8.7-16.2-8.7,0,0-3,3.9-6.5,8.3-3.5,4.4-8.1,15.4-8.1,15.4,0,0,3.2,1.7,21.7.8,18.6-.9,38.6-9,38.6-9l-13.8-9.3s-3.6,3.1-15.8,2.4Z"/>
        <path class="cls-1" d="M359.2,378.1c.2,0,1.7.1,4.1.1,7.9,0,25.9-1.4,42.1-12.7,20.7-14.5,24.8-36.9,25.6-43.4.6-4.8,1.3-15.8,1.3-16.3l-4.6-.3c0,.1-.7,11.3-1.3,16-.7,6-4.5,26.7-23.6,40.2-19.6,13.7-42.9,11.8-43.1,11.8l-.4,4.6Z"/>
        <path class="cls-1" d="M365,368.8c1.5,0,2.8-1.2,2.8-2.8s-1.2-2.8-2.8-2.8-2.8,1.2-2.8,2.8,1.2,2.8,2.8,2.8Z"/>
        <path class="cls-1" d="M424.7,311.6c0-1.5-1.2-2.8-2.8-2.8s-2.8,1.2-2.8,2.8,1.2,2.8,2.8,2.8,2.8-1.2,2.8-2.8Z"/>
        <path class="cls-1" d="M381.8,364.4c0-1.5-1.2-2.8-2.8-2.8s-2.8,1.2-2.8,2.8,1.2,2.8,2.8,2.8,2.8-1.2,2.8-2.8Z"/>
        <path class="cls-1" d="M395,361.3c0-1.5-1.2-2.8-2.8-2.8s-2.8,1.2-2.8,2.8,1.2,2.8,2.8,2.8,2.8-1.2,2.8-2.8Z"/>
        <path class="cls-1" d="M405.7,354.2c0-1.5-1.2-2.8-2.8-2.8s-2.8,1.2-2.8,2.8,1.2,2.8,2.8,2.8,2.8-1.2,2.8-2.8Z"/>
        <path class="cls-1" d="M413.7,345.7c0-1.5-1.2-2.8-2.8-2.8s-2.8,1.2-2.8,2.8,1.2,2.8,2.8,2.8,2.8-1.2,2.8-2.8Z"/>
        <path class="cls-1" d="M414.6,335.2c0,1.5,1.2,2.8,2.8,2.8s2.8-1.2,2.8-2.8-1.2-2.8-2.8-2.8-2.8,1.2-2.8,2.8Z"/>
        <path class="cls-1" d="M417.4,323.4c0,1.5,1.2,2.8,2.8,2.8s2.8-1.2,2.8-2.8-1.2-2.8-2.8-2.8-2.8,1.2-2.8,2.8Z"/>
        <path class="cls-1" d="M444.6,340.3c-9.6,8-18.6,16.1-28.5,23.5-12.4,9.6-27.9,13.8-42.8,18.2,0,0,0,.4,0,.4,14.4.1,29.3-3,41.7-10.8,9-6.1,16.8-13.9,23.4-22.4,2.2-2.9,4.3-5.8,6.1-8.9Z"/>
        <path class="cls-1" d="M425.1,379.9c-1.2,4.4.2,9.4,3.4,12.5,0,0,.4-.4.4-.4-1.6-2.7-2.3-6-1.5-9l.2-.7.3-.7c1.1-2.7,2.1-5.3,2.8-8.2.6-2.7,1.2-6.1-.4-8.7l-4.5,3.5s0-.1,0-.1c0,0,0,0,0,0,.6,1.4.5,3,.5,4.6-.1,2.3-.6,4.8-1.1,7.1Z"/>
        <path class="cls-1" d="M425.6,368s0,0,0,.1c0,0,0-.1,0-.2,0,0,0,0,0,0Z"/>
        <path class="cls-1" d="M451.8,321.9s.1,4.3-11.6,8.1c-5.9,1.9-4.6,11.2-4.6,11.2,0,0,3-6.2,12.2-9.4,7.1-2.4,4-9.9,4-9.9Z"/>
        <path class="cls-1" d="M443.8,324.4c4.3-.9,3.5-6.7,3.5-6.7,0,0-1.4,3.7-7.8,5.2-4.6,1.1-4.5,7.7-4.5,7.7,0,0,2.2-4.8,8.8-6.2Z"/>
        <path class="cls-1" d="M454.7,307.3c3.5.2,5.1-2.1,5.1-2.1,0,0-3.8.3-10.9-5.8s-7.2-9.5-7.2-9.5c0,0-1.1,1.1-1,4.4,0,3.3,1.6,5.9,1.6,5.9l-4.9-5.4s-1.1,3.5,1.1,10.3,7.6,8.4,7.6,8.4l-.3-4.9s.3,2.2,5.7,4c5.4,1.9,8.4-1,8.4-1,0,0-1.6,0-4.3-.8-2.7-.8-5.4-5.3-5.4-5.3,0,0,1.1,1.8,4.6,1.9Z"/>
        <path class="cls-1" d="M236.8,386.3l-7.2-1.1h0c-.2-.3-.6-.3-.7,0-.3.5-.7,1.4-.9,2.7-.2,1.3.1,2.4.5,2.9.1.3.5.3.7,0l7,.4,76,8.5c.2-1.4.5-3.1,1-5l-76.3-8.5Z"/>
        <path class="cls-1" d="M396.5,408.4l.4-2.9.2-1.2-49.3-5.5c-.2,1.5-.5,3.3-.9,5l49.5,5.5v-.8q.1,0,.1,0Z"/>
        <path class="cls-1" d="M313.1,394.8l-76.3-8.5,76.3,8.5s0,0,0,0Z"/>
        <path class="cls-1" d="M397.1,404.2l-.2,1.2-.4,2.9v.8c-.1,0-.1,0-.1,0,.8,0,1.5.4,2.1.9l.4.4s8.5,4.9,10,6.6c3.5,3.8,11.3,4.3,17.6,5.7.4,0,.8.2,1.2.3.1,0,.3,0,.4.1.4,0,.7.2,1.1.3.1,0,.3,0,.4.1.3.1.7.2,1,.4.1,0,.3,0,.4.1.4.2.9.4,1.2.6,2.3,1.3,4.4,2.8,6.4,3.9,1.4.7,2.7,1.3,4.1,1.6.7.1,1.4.2,2.2.2.4,0,.9,0,1.3-.1.3,0,.5-.1.8-.2.8-.2,1.7-.6,2.6-1,0,0,0,0,0,0,.4-.2.8-.4,1.2-.6.1,0,.2,0,.3-.1.3-.1.7-.3,1-.4,0,0,.1,0,.2,0,.9-.3,1.8-.7,2.7-1,9.1-2.9,19.3-3.8,14.2-15.9-6.1-14.4-12.8-13.2-13.6-13.2-4.8-.2-12.5,6.8-23.8,6.9-7.5,0-11.3-.9-15.1-2.7-3.8-1.8-6.4-2.6-8.9-1.3-1.9,1-7.3,1.8-9.6,2.1-.6,0-1.1.6-1.2,1.2l-49.3-5.5s0,0,0,0l49.3,5.5ZM413.3,405c.5-.2,1.3-.4,2.6-.5,2.4-.2,4.6,1.3,12.2,2.2,6.8.8,13.4-2.1,18.1-3.4.4-.1.6.5.2.7-1.2.6-2.7,1.4-4.3,2.1,1,0,1.9.3,2.7.7,2.7-1.4,5.6-3.1,9.4-4.8.7-.3,1.5-.3,2.1.1,2.1,1.3,5.9,4.1,8.3,8.9,1.4,2.8,1.9,5.1,1.9,6.7,0,1.9-1.1,3.7-2.9,4.4-1.5.7-2.7.7-4.7.9-1.9.2-4.2.5-6.5.6,0,0-.2,0-.2,0-.5,0-.9,0-1.4,0,0,0-.2,0-.3,0-.5,0-1,0-1.4,0,0,0-.2,0-.3,0-.3,0-.5,0-.7,0,0,0,0,0,0,0-.8,0-1.5-.1-2.1-.2-.9-.2-1.8-.4-2.7-.7-2.7-.8-5.4-2.2-8.5-3.6-1.3-.6-2.6-1.2-4-1.7-.1,0-.3,0-.4-.1-.7-.3-1.4-.6-2.2-.8,0,0,0,0,0,0-1.1-.4-2.2-.7-3.3-1.1-6.2-1.8-9.6-4.3-11.1-5.7-.3-.3,0-.8.4-.7,3.1.6,11,1.9,18.4,1.2.5-.7,1.2-1.4,1.9-2-.9.1-1.8.2-2.8.3-9.2.3-15.8-1.1-16.5-1.3,0,0,0,0-.1,0l-1.8-1.6c-.2-.2-.1-.5.1-.6ZM413.1,414.2c2.5.4,8.4,1.4,14.5,3.7.6.2,1.1.4,1.7.7.2,0,.4.2.6.2.4.2.9.4,1.3.6,0,0,0,0,.1,0,0,0,0,0,0,0,1.4.7,2.8,1.4,4,2.2.4.2.7.5,1.1.7,3.5,2,6.7,2.9,9.4,3.2.1,0,.3,0,.4,0,.8,0,1.5.1,2.2.1,0,0,0,0,0,0,.5,0,.9,0,1.3,0,0,0,.1,0,.2,0,.2,0,.3.2.3.3,0,0,0,.2,0,.3,0,0,0,0,0,.1s0,0-.1,0c-1.4.6-3.1,1.2-4.7,1.5-.9.2-1.7.2-2.5,0-1.2-.2-2.5-.7-4-1.6-.7-.4-1.4-.9-2.2-1.4-.6-.4-1.2-.8-1.8-1.2-.3-.2-.6-.4-1-.7-.3-.2-.7-.4-1.1-.7,0,0,0,0,0,0-.1,0-.2-.1-.4-.2,0,0,0,0-.1,0-.3-.1-.5-.3-.8-.4,0,0-.1,0-.2,0-.2-.1-.5-.2-.7-.3,0,0,0,0-.1,0-.3-.1-.6-.2-.9-.4,0,0,0,0,0,0-.3-.1-.6-.2-.9-.3,0,0,0,0,0,0-.6-.2-1.3-.4-2-.6,0,0,0,0,0,0h0c-5-1.4-10.2-2.2-11.2-2.3-.1,0-.2,0-.3-.1l-2.4-2.7c-.3-.3,0-.8.4-.7Z"/>
        <path class="cls-1" d="M437.7,410.3c-.3.2-.7.4-1,.7-.3.3-.7.6-.9.9-.1.2-.3.3-.4.5-.7,1.1-1.2,2.4-1.2,3.9,0-.3,0-.7,0-1,1,.4,1.9.8,2.7,1.2.3.1.5.2.8.4,3.3,1.5,6.2,2.9,8.9,3.3,0,0,0,0,0,0,0,0,0,0,0,0,0,0,0,0,0-.1.5-.7.8-1.5,1-2.4,0-.5.1-.9.1-1.4h0c0-1.4-.4-2.8-1.2-3.9-.1-.2-.3-.4-.4-.5-.3-.3-.6-.7-.9-.9-1.2-1-2.7-1.6-4.4-1.6s-2.4.3-3.4.9Z"/>
        <path class="cls-1" d="M318.4,406.1c.5.1.8.2,1.1.2,1.7,0,.9-2.1,2-2.1,0,0,.1,0,.2,0,1.7.3.7,2.5,3.1,3.2.3,0,.5.1.7.1,1.2,0,.3-1.6,1.6-1.6,0,0,.2,0,.3,0,2,.3,0,2.5,2.6,3,.2,0,.4,0,.6,0,1.8,0,1.3-2.1,2.9-2.1,0,0,0,0,0,0,1.6,0,1,2.5,4,2.8,0,0,.2,0,.2,0,2.9,0,4.4-5.3,5.5-12.9,1.1-7.8-.8-11.7-9.1-13.4,0,0-1.8-.6-4.1-.6-3.4,0-7.9,1.2-10.2,6.9-2.6,6.6-4.8,15.4-1.4,16.4Z"/>
        <path class="cls-1" d="M285.5,473.2c-.3-9.4,2.5-18,5.5-26.9-6.9,7.1-10.5,17.1-9.8,27,.4,9.3,2.9,17.2,11,22.6,1,.7,1.9,1.4,2.9,2.1-1.4-1.9-3-3.8-4.4-5.6-4.3-5.4-5.1-12.4-5.2-19.2Z"/>
      </g>
    </g>
  </g>
</svg>