<?xml version="1.0" encoding="UTF-8"?>
<svg id="Layer_1" xmlns="http://www.w3.org/2000/svg" version="1.1" viewBox="0 0 800 800">
  <!-- Generator: Adobe Illustrator 30.1.0, SVG Export Plug-In . SVG Version: 2.1.1 Build 136)  -->
  <g id="Layer_11" data-name="Layer_1">
    <g>
      <path d="M638,364.6l-28.8-47s-4.1-6.9-11.8-11.8c-14-8.9-23.5-6.8-23.5-6.8l2.4,10.2s-3.2-5-17.7-4.5-35.2,5.3-44.5,17.4-32.2,28.9-32.2,28.9h.1c3.2.7,6.5.6,9.6-.2h.2s-.5,3.3-6.8,10.1c-7.4,7.9-20,15.2-20,15.2,3.1.4,6.2.3,9.3-.2h.4s-2.9,4.7-10.9,16.9c-1.9-1.1-3.9-1.7-5.9-2h-.9c2.2-2.5,3.7-4.5,3.7-4.5,0,0-2.7,1.4-9.3.8-6.7-.6-8.9-4.3-8.9-4.3,0,0,2.8-.6,8.5-3.3h.2c5.9-2.8,10.2-8.2,11.7-14.5,2.5-10.6,6.2-27.8,6.2-38.2,0-15.9-6.3-16.1-6.3-16.1l2-4.6s7.5,3.9,10.4,1.6c5.7-4.5,6.4-11.6,6.4-11.6l6.4-2.1s-.6-5.1-.8-8c-.3-2.9,1.5-7.6,1.5-7.6,0,0,4.2.4,14.2-.4,10-.7,22.9-3.7,22.9-3.7,0,0-.4-9.6-10.5-22.8-10.1-13.2-17.3-9.9-21.1-10.9-3.8-1-7.8-16.7-42.9-14.2s-52,29.2-52,29.2l28.1,9.7-2.8,5.6s-1.9-1.8-9.7-3.8c-7.9-2.1-7.2,2.8-10.8,4.2s-3-1.7-8.5,0-6.3,6.1-6.3,6.1c0,0-1.5.7-4-3.1-2.5-3.7.5-8.6.5-8.6,0,0-4.3.7-6.9,5.1-2.6,4.5-.7,9.5-.7,9.5,0,0-3.4-1.1-6.4-8.9s9.8-12.9,9.8-12.9c0,0-17.8-4.4-25.1,17.4s20.7,29.6,20.7,29.6c0,0-1.9,1.4-17.9,5.5s-18.6,15.1-18.6,15.1l-15.5,6.8-.9,14.3s1.4,0-7.7,9.1-6.5,16.5-6.5,16.5c0,0-3.9,3.6-11.6,13.1l-9.3-1-51.3-5.7-5.8-.9c-.6-.2-1.3-.4-1.9-.5h-1.1c-2.6.1-4.9,1.5-6.2,3.7-.6,1-1.4,2.8-1.8,5.1-.6,3.3.3,5.9,1.2,7.5h0c1.2,2.2,3.3,3.6,5.7,3.9h2l5.5.3h1.3c-15.6,3.3-25,10.5-25,10.5l19.5,6s-4.4,4.8-34.2,1.8-37.3-13.5-37.3-13.5c0,0-5.7,19.2,5,37.8,10.7,18.6,29,10.9,29,10.9l-10.4,7.2s20.1,6.5,42.4,1.4c22.3-5,46.8-24.5,46.8-24.5,0,0-6,9-13.6,19.2s-12.2,27.4-15.1,32.1-12.2,2.1-12.2,2.1c0,0-4.6,10.6-8.3,16.5s-26.7,30.2-30.7,34.6c-3.9,4.4-9.3,2.3-9.3,2.3l-2.1,9.7-8.8-.7-4-10.3s-4.3-2.2-18.9,3.6-13.8,22.4-13.8,22.4c0,0,34.4,6.5,45,5,10.6-1.6,15.1-6.6,15.1-6.6l38.9-29.7s12.4-1.3,32.1-.7c13.2.4,22.9,6.8,27.8,10.9,3.3,2.8,7.6,4.1,11.9,3.7,5.5-.4,12.9-3.5,18.2-9.6,10.7-12.3,13.3-22.6,15.6-35.3,2.2-12.7-4-24.1-4-24.1,0,0,1.7-1.3,4.4,2.3.4.5.8,1.2,1.2,1.9,3.5,6.3,4.6,13.7,3.2,20.7-.3,1.4-.6,2.9-.9,4.7-2.3,11.8-7.2,21.7-10.7,26-3.4,4.2-.6,14.3-.6,14.3l22.4,5.2.4-4.4s2.6,1.6,9.9,4.1,20.3.2,20.3.2c0,0,.3-4.7-2.8-8.4-3.1-3.8-7.6-4.1-7.6-4.1,0,0,1.5-.7,3.3-2.7,1.7-2,2-4.2,2-4.2,0,0,18.5,5.5,32.9,9.6,14.3,4,36.7-.2,36.7-.2,0,0,30.5,10.4,62.3,14.1,31.8,3.7,63.3,24.9,68.5,28s2.8,8,2.8,8l9.8-1.5.3,8.2-10.6,7.9s1.9,6.1,9.8,17.3c7.9,11.3,28.1,8.2,28.1,8.2,0,0-5-38.9-7.7-46.3-2.7-7.4,4.2-1.7-29.5-31s-59.1-33.7-59.1-33.7c0,0,10.3-2.5,23.6,1.5s28.3,19.2,28.3,19.2c0,0,11.3-8.9,14-14.5s.3-15.8-12.6-25.4c-13-9.6-34-7.4-34-7.4,0,0,8.4-4.5,14-23.9s-6.7-31.1-6.7-31.1c0,0,9.7.5,31.1-2.5,18.7-2.7,29.4-11,29.4-11,0,0,3.9,12.7,20.4,17.3,16.5,4.5,16-7.6,16-7.6,0,0,11.4-.2,14.6-2.9,3.2-2.7-1.3-8.2-2.2-11.3-.8-3,3-2.9,4.7-7.7,1.7-4.9-3.9-10.6-3.9-10.6l-24-42.8h0ZM503.3,359.4c6.9-8.3,19.6-7.3,19.6-7.3,0,0,.2.9-1,4.8-1.3,3.9-3.8,5.9-3.8,5.9,0,0-7.4-.7-16.1,6.6-9.6,8.1-18.2,0-18.2,0,0,0,12.7-1.7,19.6-9.9h0ZM481,391.5c4.1-2.1,1.7-2.9,8.5-8.5,6.8-5.5,15.5-4,15.5-4,0,0,.5,2.1,0,4.5s-1.7,5.1-1.7,5.1c0,0-1.6.2-7,.1-5.3-.1-4.5,2.9-9.6,5.4-8,4-14,.3-14,.3,0,0,4.2-.8,8.3-2.9h0ZM364.8,482.4c4.7-8.3,10.9-14.8,10.9-14.8,0,0-1.7-1.2-4.6-5.6-1.2-1.8-2-3.6-2.5-5.1-.8-2.3-.9-3.9-.9-3.9,0,0,1.8,1.7,4.2,4.1,1.8,1.8,4.1,4,6.1,6.1,4.7,4.8,12.1,11.5,12.1,11.5,0,0-2.3.9-4.6.1-2.4-.8-3.6-2-3.6-2,0,0-2.6,3.8-7.8,11-1.4,1.9-3,4.1-4.8,6.5-8.5,11.4-12,25-12,25,0,0,.3-7.8,2.7-20.8.8-4.1,2.6-8.3,4.8-12.1h0ZM236.1,391.3l-7-.4c-.2.3-.6.2-.7,0-.3-.6-.7-1.6-.5-2.9s.6-2.2.9-2.7c.2-.3.5-.3.7,0h0l7.2,1.2,76.3,8.5h0c-.5,1.9-.8,3.5-1,5l-76-8.5v-.2ZM402.8,361.8c19.2-13.4,22.9-34.1,23.6-40.2.5-4.7,1.3-15.9,1.3-16l4.6.3c0,.5-.7,11.4-1.3,16.3-.8,6.5-4.8,28.9-25.6,43.4-16.2,11.3-34.2,12.7-42.1,12.7s-3.8-.1-4.1-.1l.4-4.6c.2,0,23.5,2,43.1-11.8h.1ZM362.2,366c0-1.5,1.2-2.8,2.8-2.8s2.8,1.2,2.8,2.8-1.2,2.8-2.8,2.8-2.8-1.2-2.8-2.8ZM376.3,364.4c0-1.5,1.2-2.8,2.8-2.8s2.8,1.2,2.8,2.8-1.2,2.8-2.8,2.8-2.8-1.2-2.8-2.8ZM389.5,361.3c0-1.5,1.2-2.8,2.8-2.8s2.8,1.2,2.8,2.8-1.2,2.8-2.8,2.8-2.8-1.2-2.8-2.8ZM400.1,354.2c0-1.5,1.2-2.8,2.8-2.8s2.8,1.2,2.8,2.8-1.2,2.8-2.8,2.8-2.8-1.2-2.8-2.8ZM408.1,345.7c0-1.5,1.2-2.8,2.8-2.8s2.8,1.2,2.8,2.8-1.2,2.8-2.8,2.8-2.8-1.2-2.8-2.8ZM420.2,320.6c1.5,0,2.8,1.2,2.8,2.8s-1.2,2.8-2.8,2.8-2.8-1.2-2.8-2.8,1.2-2.8,2.8-2.8ZM419.1,311.6c0-1.5,1.2-2.8,2.8-2.8s2.8,1.2,2.8,2.8-1.2,2.8-2.8,2.8-2.8-1.2-2.8-2.8ZM420.2,335.2c0,1.5-1.2,2.8-2.8,2.8s-2.8-1.2-2.8-2.8,1.2-2.8,2.8-2.8,2.8,1.2,2.8,2.8ZM434.1,265.6s4.6,2.2,9.2,3.8c4.6,1.6,12.1,2.4,12.1,2.4l-5.5,2.6,7.6-.2s-3,3.5-8.4,3.5-9.2-2.7-9.2-2.7c0,0,.3.7,1.3,1.6,1.1.9,5.9,2.4,5.9,2.4,0,0-5.9,1.9-11.6-.8-5.7-2.7-4.6-7.8-4.6-7.8,0,0,.8.5,3,1.1,2.2.5,3.1.1,3.1.1l-3.1-6h.2ZM455.6,310.7c2.7.8,4.3.8,4.3.8,0,0-3,2.9-8.4,1s-5.7-4-5.7-4l.3,4.9s-5.4-1.6-7.6-8.4-1.1-10.3-1.1-10.3l4.9,5.4s-1.5-2.5-1.6-5.9c0-3.3,1-4.4,1-4.4,0,0,.1,3.4,7.2,9.5s10.9,5.8,10.9,5.8c0,0-1.7,2.2-5.1,2.1s-4.6-1.9-4.6-1.9c0,0,2.7,4.5,5.4,5.3h.1ZM425.7,368.1h0c0-.1,0,0,0,.1h0c0,.1,4.5-3.4,4.5-3.4,1.6,2.6,1,6,.4,8.7-.7,2.9-1.7,5.5-2.8,8.2l-.3.7-.2.7c-.8,3,0,6.3,1.5,9l-.4.4c-3.2-3.1-4.6-8.1-3.4-12.5.5-2.4,1-4.8,1.1-7.1,0-1.6.1-3.2-.5-4.6v-.2ZM397.1,404.2c0-.6.6-1.1,1.2-1.2,2.3-.3,7.7-1.1,9.6-2.1,2.5-1.3,5.1-.5,8.9,1.3s7.6,2.8,15.1,2.7c11.3,0,19-7.1,23.8-6.9.8,0,7.6-1.2,13.6,13.2,5.1,12.1-5.1,13-14.2,15.9-.9.3-1.8.6-2.7,1h-.2c-.3.1-.7.3-1,.4-.1,0-.2,0-.3.1-.4.2-.8.4-1.2.6h0c-.9.5-1.8.8-2.6,1-.3,0-.6.1-.8.2-.5,0-.9.1-1.3.1-.7,0-1.5,0-2.2-.2-1.4-.3-2.8-.9-4.1-1.6-2-1.1-4.1-2.6-6.4-3.9-.4-.2-.8-.4-1.2-.6-.1,0-.3,0-.4-.1-.3-.1-.7-.3-1-.4-.1,0-.3,0-.4-.1-.3-.1-.7-.2-1.1-.3-.1,0-.3,0-.4-.1-.4,0-.8-.2-1.2-.3-6.3-1.4-14.1-1.9-17.6-5.7-1.6-1.7-10-6.6-10-6.6l-.4-.4c-.6-.5-1.3-.9-2.1-.9h0l-49.5-5.5c.4-1.7.7-3.4.9-5h0l49.3,5.5h0ZM415.1,371.6c-12.4,7.8-27.3,10.9-41.7,10.8v-.4c14.9-4.3,30.3-8.6,42.8-18.2,9.9-7.5,18.9-15.6,28.5-23.5-1.8,3.1-3.9,6-6.1,8.9-6.7,8.5-14.5,16.3-23.4,22.4h0ZM435.6,341.2s-1.3-9.3,4.6-11.2c11.7-3.8,11.6-8.1,11.6-8.1,0,0,3.1,7.5-4,9.9-9.2,3.2-12.2,9.4-12.2,9.4h0ZM435,330.6s0-6.6,4.5-7.7c6.4-1.6,7.8-5.2,7.8-5.2,0,0,.8,5.8-3.5,6.7-6.6,1.4-8.8,6.2-8.8,6.2ZM362.6,389c7.4-1.3,39.9-5.2,39.9-5.2,0,0-3.4,2.8-10.3,5.1-8.3,2.8-16,4.6-20.1,5.5l-18.1-2c1.5-2.2,4.8-2.7,8.6-3.3h0ZM330,382.9c2.4,0,4.1.6,4.1.6,8.4,1.6,10.3,5.5,9.1,13.4-1.1,7.6-2.6,12.9-5.5,12.9s-.2,0-.2,0c-3-.3-2.4-2.8-4-2.8h0c-1.5,0-1.1,2.1-2.9,2.1s-.4,0-.6,0c-2.5-.5-.5-2.7-2.6-3h-.3c-1.3,0-.4,1.6-1.6,1.6s-.4,0-.7-.1c-2.4-.7-1.4-2.8-3.1-3.2h-.2c-1.1,0-.2,2.1-2,2.1s-.7,0-1.1-.2c-3.4-1-1.2-9.8,1.4-16.4,2.3-5.7,6.8-6.9,10.2-6.9h0ZM387.6,465.2l-2.7-2.8c-1.2-1.2-1.3-3.1-.5-4.5.2-.3.3-.5.6-.7l2.8-2.9h-.6c-2.6-.8-5.4-.8-8.1-.3l-1.2.3,4.3-4.9c-2.4-1.6-5.2-2.7-8.1-3.1h-.2l8.5-5.3s-14.8-14.6-23.1-28.9l29.2,3.3h0l1.9.2c3.2,6.2,7,14.4,10.8,24,2.9,7.4-1.2,14.3-5.7,19.1-3.8,4.1-7.8,6.6-7.8,6.6h0ZM463.8,327.4c-.2.6-4.2,14-10.2,21-7.4,8.6-11.8,17.1-13.4,25.9-2,10.9-2.4,19.1-2.4,19.2l-4.6-.2c0-.3.4-8.6,2.5-19.8,1.7-9.6,6.5-18.8,14.4-28,5.4-6.3,9.3-19.2,9.3-19.3l4.4,1.3h0ZM478.1,290.7c-1.3,0,.3,1.1.8,3.2s-7,.8-7,.8c0,0,3.5,1.3,4.3,2,.8.6.3,1-1.1,2.3s0,2.2-.3,3.8-2.4.8-10.3-3.5c-7.8-4.3-10-12.9-10-14.8s11.6-13.5,11.6-13.5l10.7,5.3-1.6,1.2-5.8-2.2s.4,1.6,1.2,2.4-.3,1.3-.8,2.4,5.1,3.5,5.1,3.5l.2-3.9s2.2-.1,3.9-.1,1.1,2.2.8,4.9,1.1,2.4,1.9,5.1-2.4,1.1-3.8,1.1h.2ZM423.5,244.4c-4.4,2.4-8.6,5.1-12.6,8.1l-.3-.4c18.4-14.4,48.9-29.5,70.2-12.9,8.2,6.2,12.6,15.8,19.4,23.1,1.6,1.6,3.4,2.7,5.2,2.7h3.9l-6.8-13.5.6-.4,11.6,14.4,2,2.5c-.9.2-3.6,1.1-4.5,1.2-3.8.4-8.2.7-11.5-1.4-3.6-2.2-5.9-5.7-8.2-9-3.9-5.9-8.2-12.9-13.6-17.4-15.9-13.5-38.9-6.1-55.3,2.9h-.1ZM373.6,291.8c-15.1-5.4-9.4-17.5-9.4-17.5,0,0,1.3,5.4,7,9.7,5.7,4.3,14.6,2.7,14.6,2.7,0,0,.5.3-1.1-1.1-1.6-1.3,1.3-1.6,5.9-2.4s10,0,10,0c0,0-6.5-2.4-3-4.9,3.5-2.4,14,.5,14,.5,0,0-5.2-3.1-.5-5.1s6.5-.5,9.7,1.1,10.5,7.8,10.5,7.8l-11.1-2.4s.3.8,2.4,2.7c2.2,1.9,7.8,2.7,7.8,2.7,0,0-2.7,2.2-7.6,2.4-4.9.3-11.1-3.5-11.1-3.5,0,0-.3,1.3,1.6,2.4s6.5,2.4,6.5,2.4c0,0-1.6,1.6-5.7,1.3s-6.7-1.9-6.7-1.9c0,0,.8,1.6,3.2,3,2.4,1.3,5.9,1.1,5.9,1.1,0,0-2.2,2.4-9.2,1.6s-5.9-2.4-12.9-3.5-5.9,6.2-21,.8h.2ZM349.8,331.8l-1.1-4.6c6.1-2.9,6.1-3.2,20.9-10,17.8-8.1,33.3-8.5,33.3-8.5,0,0-9.8,1.9-26.9,9.2-13.5,5.8-21.2,10.1-21.2,10.1l1.6,4.4-20.2,7,13.5-7.7h.1ZM330.7,351.3s6.2-4.8,15.7-2.5,10,10.8,10,10.8l-6.1-1.3,2.9,6s-4.1-2.4-11.6-5.4-13.8-1.8-13.8-1.8l8.6-3.8-5.8-2h0ZM327.4,365.6s4.9-5.1,13.6-2.8,8.4,10.5,8.4,10.5l-4.5-2.7,1.2,6s-3.6-1.6-9.4-3.6-10.9-1.6-10.9-1.6v-.3l6.2-4.1-4.7-1.3h0ZM292.2,495.9c-8.1-5.4-10.6-13.3-11-22.6-.7-9.9,3-19.9,9.8-27-3,8.9-5.9,17.5-5.5,26.9,0,6.7.9,13.7,5.2,19.2,1.4,1.8,3,3.7,4.4,5.6-1-.7-2-1.4-2.9-2.1ZM309.4,469.9l-.6-1.3c-.4-.9-9-21.1-5.9-42.6,1.2-8.3,2.5-13.9,3.6-15.4l3.7,2.8v-.2c.1,0-1.2,2.4-2.8,13.5-2.5,17.2,3.2,34.1,5,38.8l49.6,2.8c.1,1.4.2,3,0,4.6l-52.8-2.9h.2ZM378.5,549.9s-4.6,2.4-12.2-2.3-6.5-9.2-6.5-9.2c0,0,2.9,3.1,7.9,6.7s10.8,4.9,10.8,4.9h0ZM369.3,539.6s3.7-11.9-4.5-13.7-14.8,17.9-14.8,17.9c0,0-2.2-8.9,2.8-16.5,5-7.7,13.8-6.1,13.8-6.1v-6.8c0-6.8,6.3-12.7,6.3-12.7,0,0-1.7,3.8-2.4,11.7-.7,7.8.3,8.7.3,8.7,0,0,4.9,2.9,5,10.5s-6.6,7-6.6,7h.1ZM427.2,474.5l-.4,1.9-24-1.3c.6-1.5,1.3-3.1,2.3-4.5l18,1c.8-4.4,2.6-15.6,1.8-25.9-.5-5.5-1.4-11.4-2.3-16.5,1.8.3,3.5.7,4.9,1.1.8,4.7,1.6,10,2,15,1.2,13.9-2.1,28.6-2.2,29.2h0ZM483.6,445.1c-.6.4-1.3.8-1.9,1.2,1.3,1.9,2.5,3.9,3.8,6,5.4,9.5,9.9,20.2,9.8,31.3.2,7.3-.7,14.5-2,21.5-1.3,7.1-3,14-5.2,20.8h-.4c3.7-16.5,6.7-35.8,2.1-52.2-3.3-9.7-9-18.7-15.6-26.4l-2.7-3.1c1.6-.8,4.6-2.4,6.1-3.3,18.1-11.3,31.2-29.1,40-48.3,3.1-6.9,5.7-14,7.5-21.4h.5c-2.4,28.4-17.8,58.1-41.9,73.9h0ZM531.2,333.3c0,.8-1.1,3.8-1.1,3.8,0,0-9.8-1.1-12.1,4.4-2.9,6.6-16.5,3.4-16.5,3.4,0,0,8.4-1,11.6-7.2,6.4-12.2,18.7-8.7,18.7-8.7,0,0-.3,2.4-.6,4.3h0ZM611.3,334.4s5,7.8,8,13.3c3.1,5.7,24,39.9,24,39.9l-3.4,2.2-28.6-44.2c-2.6-3-7.2-2.2-10,.6,0,0-.8,1.4-.9,1.5-1.7,1.9-.6,9.9-.6,9.9,0,0-5.1-1.7-5.5-5.8-.4-4.1.4-5.6.4-5.6-1.9-.2-3.8.3-5.4,1.4l-3.9,2.6-1.4-2s1.3-1.1,7.8-5.4,19.5-8.4,19.5-8.4h0ZM607.8,327.8l1.5,3.7s-7.9,1.8-18.3,6.3c-10.4,4.5-14.9,9.9-14.9,9.9l-2.8-3.2s4.2-4.7,12.3-8.9c7.7-4,22.2-7.9,22.2-7.9h0ZM566,352.3c-.8-2,.2-4.3,2.2-5.2,2-.8,4.3.2,5.2,2.2.8,2-.2,4.3-2.2,5.2-2,.8-4.3-.2-5.2-2.2ZM571.8,378c2.2,7.6,11,16.9,11,16.9,0,0-6.8-1.9-9.7-5.8s-4.9-9.2-4.9-9.2l-1.5,13.4s-2.3-7.8-2.5-14c-.2-7.9,3.9-13.5,3.9-13.5,0,0,1.6,4.6,3.7,12.2ZM588.2,308.3c4.8,2.8,5,7.3,5,7.3l-5.9,4.1s.5-3.1-1.5-6.9-6.2-6.9-6.2-6.9c0,0,3.8-.3,8.7,2.4h0ZM542.9,316.4s15-5.9,24.8-3.4c13.2,3.4,11.8,11.7,11.8,11.7,0,0-4.7-4.3-9-4.8-3.9-.4-6.4,0-6.4,0,0,0,6.9,3.7,4.9,8-2.1,4.3-5.6,7.1-5.6,7.1,0,0,3.8-11.3-7.4-9.9-7,.9-13-8.6-13-8.6h0ZM560.4,401.1l-4.2-2.3s-4.9-7.6-2.2-24.7c2.7-17.2,8.1-19.8,8.1-19.8l2.2,4.4s-5.6,5.2-6.3,21.9c-.7,16.7,2.5,20.5,2.5,20.5h0ZM569.9,432.2c-18.6.9-21.7-.8-21.7-.8,0,0,4.6-11,8.1-15.4s6.5-8.3,6.5-8.3c0,0,3.9,8,16.2,8.7,12.2.6,15.8-2.4,15.8-2.4l13.8,9.3s-20,8.1-38.6,9h0ZM606.9,410.1s-14.9-17.2-24.5-32.9c-9.6-15.7-11.6-19-11.6-19l5.3-3.6s10.7,19.2,17.9,29.8c5.2,7.6,14.5,19.1,14.5,19.1l-1.6,6.5h0ZM609.4,359.6s-7.2,1.3-7.1-4.9c0-4.6,3.2-5.6,6.1-4.7,5.5,1.6,3.4,6.3,3.4,6.3,0,0-2.8-3.7-4.9-1.5-2.1,2.3,2.5,4.7,2.5,4.7h0ZM619,420.2s2.1-6.9-1.3-7.1c-4-.2-3.9,6.2-3.9,6.2,0,0-8.3-14.2,4.7-12.3,10.7,1.6.6,13.2.6,13.2h0ZM623.4,404.5l22.4-12.8,2.1,3.5-21.2,12.1-3.3-2.7h0ZM638.5,437.4c-7-1.4-11.9-7.8-11.3-15l.3-4.1,2.6,4.4c2.3,4,5,7.7,8.1,11.2l3.7,4.2-3.4-.7h0ZM658.3,417.9l-5,10.5s-2.9-5.9-.2-9.7c2.2-3,2.3-6.4-.4-7.1-2.8-.7-5.6,8.9-5.6,8.9,0,0-3.5-4.8-.4-10.3,1.8-3.2,4.3-3.2,4.3-3.2l-4.6-7.4,3-1.8,6.9,11.5,1.3,2.2c1.9,2.8,1.6,4.3.6,6.4h.1Z"/>
      <path d="M235.2,545.7c-5,1.2-9.5,3.1-12.4,6-4.8,4.8-7.1,7.9-8.9,10.2-2.2,3-3.4,4.9-7.7,7.7-1.8,1.2-4.2,2.4-6.7,3.6-8.1,3.7-17.9,7-17.9,7v.2l-1.6,3.3-8.4.8-5.1-4.4-1.6-1.4s-1.1.3-2.6.9c-4.1,1.7-11.5,5.9-12.4,13.9-1.2,11,1.5,13.2,1.5,13.2,0,0,25-3.1,32.7-6.9,7.7-3.8,43.1-21.9,48-27.6,4.9-5.8,34.9-28.1,34.9-28.1,0,0-17.8-1.7-31.7,1.7h-.1Z"/>
      <path d="M501.2,566.5h-.5c-4.4.6-2.7,10-2.7,10l-8.9-.5-6.6-10.9s-9.2,2.6-21.7,12.2-13.3,19.7-13.3,19.7c0,0,34.4,2.1,37.3.7,1.5-.8,2.7-1.8,3.5-2.7.7-.7,1.9-.7,2.6,0l1.9,2s12,0,19.9-1.8,25.5-18.9,25.5-18.9c0,0-21.6-6.6-32.2-9-2.3-.5-4.1-.9-5-.9h.2Z"/>
      <path d="M415,407.2h.1c.8.2,7.3,1.6,16.5,1.3,1,0,1.9-.1,2.8-.3-.7.6-1.3,1.3-1.9,2-7.4.6-15.3-.7-18.4-1.2-.4,0-.7.4-.4.7,1.5,1.4,4.9,3.9,11.1,5.7,1.2.3,2.3.7,3.3,1.1h0c.8.3,1.5.5,2.2.8.1,0,.3,0,.4.1,1.4.6,2.7,1.2,4,1.7,3.1,1.4,5.8,2.8,8.5,3.6.9.3,1.8.5,2.7.7.7.1,1.4.2,2.1.2h4.3c2.3-.1,4.6-.4,6.5-.6,2-.2,3.2-.3,4.7-.9,1.8-.8,2.9-2.5,2.9-4.4s-.5-3.9-1.9-6.7c-2.5-4.8-6.2-7.6-8.3-8.9-.6-.4-1.4-.4-2.1-.1-3.8,1.7-6.6,3.4-9.4,4.8-.9-.3-1.8-.6-2.7-.7,1.7-.7,3.1-1.5,4.3-2.1.4-.2.2-.8-.2-.7-4.7,1.3-11.3,4.2-18.1,3.4-7.6-.9-9.9-2.4-12.2-2.2-1.3.1-2.1.3-2.6.5-.2,0-.3.4-.1.6l1.8,1.6h.1ZM445.5,411c.3.3.7.6.9.9.1.2.3.3.4.5.7,1.1,1.2,2.4,1.2,3.9h0c0,.5,0,.9-.1,1.4-.2.9-.5,1.7-1,2.4h0c-2.7-.4-5.6-1.7-8.9-3.2-.2-.1-.5-.2-.8-.4-.9-.4-1.8-.8-2.7-1.2v1c0-1.4.4-2.8,1.2-3.9.1-.2.3-.4.4-.5.3-.3.6-.7.9-.9.3-.3.6-.5,1-.7,1-.6,2.2-.9,3.4-.9s3.2.6,4.4,1.6h-.3Z"/>
      <path d="M415.1,417.6s.2.1.3.1c1,.1,6.2.9,11.2,2.3h0c.7.2,1.3.4,2,.6h0c.3.1.6.2.9.3h0c.3.1.6.2.9.4h.1c.2.1.5.2.7.3h.2c.3.1.5.2.8.4h.1c.1,0,.2.1.4.2h0c.4.2.7.4,1.1.7.3.2.7.5,1,.7.6.4,1.2.8,1.8,1.2.8.5,1.5,1,2.2,1.4,1.5.9,2.7,1.4,4,1.6.8.1,1.6.1,2.5,0,1.5-.3,3.3-.9,4.7-1.5h.1v-.4c0-.1-.1-.3-.3-.3h-1.5c-.7,0-1.4,0-2.2-.1h-.4c-2.7-.3-5.9-1.2-9.4-3.2-.4-.2-.7-.4-1.1-.7-1.3-.8-2.6-1.6-4-2.2h-.1c-.4-.2-.9-.4-1.3-.6-.2,0-.4-.2-.6-.2-.6-.2-1.1-.5-1.7-.7-6.1-2.3-12-3.3-14.5-3.7-.4,0-.7.4-.4.7l2.4,2.7h0Z"/>
      <polygon points="396.5 408.4 396.9 405.4 396.5 408.4 396.5 408.4"/>
    </g>
  </g>
</svg>