<?xml version="1.0" encoding="UTF-8"?>
<svg id="Layer_1" xmlns="http://www.w3.org/2000/svg" xmlns:xlink="http://www.w3.org/1999/xlink" version="1.1" viewBox="0 0 1074.4 1074.4">
  <!-- Generator: Adobe Illustrator 30.1.0, SVG Export Plug-In . SVG Version: 2.1.1 Build 136)  -->
  <defs>
    <style>
      .st0, .st1 {
        fill: none;
      }

      .st2, .st3 {
        fill: #fff;
      }

      .st2, .st4 {
        display: none;
      }

      .st5 {
        clip-path: url(#clippath-1);
      }

      .st6 {
        fill: #001f44;
      }

      .st1 {
        stroke: #adb6bc;
        stroke-miterlimit: 10;
        stroke-width: 3.4px;
      }

      .st7 {
        fill: #adb6bc;
      }

      .st8 {
        clip-path: url(#clippath);
      }

      .st9 {
        fill: #d80028;
      }
    </style>
    <clipPath id="clippath">
      <polygon class="st0" points="518.7 915.9 894.6 653.6 751 229.2 286.3 229.2 142.7 653.6 518.7 915.9"/>
    </clipPath>
    <clipPath id="clippath-1">
      <circle class="st0" cx="559" cy="689" r="6.9"/>
    </clipPath>
  </defs>
  <g>
    <polygon class="st3" points="80.6 674 248.8 176.9 788.5 176.9 956.7 674 518.7 979.7 80.6 674"/>
    <polygon class="st6" points="111.6 663.8 267.5 203.1 769.8 203.1 925.7 663.8 518.7 947.8 111.6 663.8"/>
    <polygon class="st9" points="518.7 915.9 894.6 653.6 751 229.2 286.3 229.2 142.7 653.6 518.7 915.9"/>
    <g class="st8">
      <polygon class="st2" points="256.4 784 772.8 782.7 598.4 1063.5 322.5 1021.3 256.4 784"/>
    </g>
    <g>
      <path class="st6" d="M366.4,248.8h12.1c5.2,0,9.9.8,9.9,9.2v1.6c0,4.6-1.4,6.7-3.5,7.7,2.2,1,3.8,3.1,3.8,7.7v2.2c0,8.4-5,9.5-10.2,9.5h-12.2v-7.1h1.3v-23.6h-1.3v-7.1h.1ZM377.9,263.3c1.9,0,2.6-.6,2.6-2.6v-2.1c0-2-.7-2.6-2.6-2.6h-2v7.4h2ZM375.9,270.4v9.1h2c1.9,0,2.6-.9,2.6-2.8v-3.6c0-2-.7-2.6-2.6-2.6h-2Z"/>
      <path class="st6" d="M423.2,259.1c0-7.4,3.7-11,10.6-11s10.5,3.6,10.5,11v17.2c0,7.4-3.7,11-10.5,11s-10.6-3.6-10.6-11v-17.2ZM433.8,280.2c1.6,0,2.4-.9,2.4-2.8v-19.5c0-1.8-.8-2.8-2.4-2.8s-2.4.9-2.4,2.8v19.5c0,1.8.7,2.8,2.4,2.8Z"/>
      <path class="st6" d="M478.9,257.6c0-6.9,3-9.5,7.6-9.5s4.6,1,5.7,3.3v-2.6h6.6v12.5h-7.2v-3.3c0-1.8-.8-2.8-2.2-2.8s-2.3.9-2.3,2.8v.3c0,7.1,12.2,5.5,12.2,18.5v1.1c0,6.9-3.1,9.5-7.7,9.5s-4.6-1-5.7-3.4v2.7h-7v-13.4h7.6v4.2c0,1.8.8,2.8,2.3,2.8s2.4-.9,2.4-2.7v-.9c0-7-12.2-5.4-12.2-18.4v-.7Z"/>
      <path class="st6" d="M539.8,279.5h1.6v-23.6h-2.2v6.1h-6.4v-13.2h25.2v13.2h-6.4v-6.1h-2.1v23.6h1.5v7.1h-11.2v-7.1h0Z"/>
      <path class="st6" d="M592,259.1c0-7.4,3.7-11,10.6-11s10.5,3.6,10.5,11v17.2c0,7.4-3.7,11-10.5,11s-10.6-3.6-10.6-11v-17.2ZM602.6,280.2c1.6,0,2.4-.9,2.4-2.8v-19.5c0-1.8-.8-2.8-2.4-2.8s-2.4.9-2.4,2.8v19.5c0,1.8.7,2.8,2.4,2.8Z"/>
      <path class="st6" d="M655.1,260.6c.2,2.6.4,6.6.4,9.4v9.5h1.3v7.1h-9.5v-7.1h1.3v-23.6h-1.3v-7.1h12l3.5,13.4c.7,2.9,1.5,6.6,2,9.4,0-2.8-.3-6.7-.3-8.9v-6.7h-1.4v-7.1h9.5v7.1h-1.3v30.7h-9.9l-4.2-16.7c-.9-3.5-1.5-6.6-2.1-9.3h0Z"/>
    </g>
    <g>
      <path class="st3" d="M370.5,311c-6.4,26.9-12.9,54-19.6,81.4-10.5.6-21,1.3-31.4,2,4.3-15.3,8.5-30.5,12.7-45.5,2.1-7.7-.4-11.7-6.2-11.6-6.6.2-10.3,4.1-12.7,11.9-18.3,60.9-37.3,124.2-56.8,190.5-3.8,12.9-2,18.6,6.7,16.5,8.3-1.9,13.8-9.2,17.3-21.6,7.9-28.4,15.7-56.4,23.3-83.9-3.6.4-7.1.9-10.7,1.3,3.8-13,7.5-25.9,11.2-38.7,16.3-1.5,32.7-2.8,49.1-3.9-2.9,12.2-5.8,24.5-8.7,36.8-2,.2-4,.4-6,.6-11.5,47.3-23.3,95.5-35.5,144.9-7.6,1.7-15.2,3.5-22.7,5.4.8-7.3,1.6-14.6,2.5-21.9-11.8,20.7-28,34-45.8,39.4-26.6,8.7-38-9.8-17.7-74.3,21.2-66.6,42-129.6,62.1-189.7,10.2-30.6,24.5-42.6,42.5-42.6s16.2,4.7,17.7,14.5c1.1-3.9,2.1-7.7,3.2-11.6h25.6-.1Z"/>
      <path class="st3" d="M379.7,519.4c-2.1,11.3.4,16.2,9.2,15.1,8.4-1,13.1-6.5,14.7-17.6,9.2-60,17.9-119.4,26.3-178.4h-5.2c1.4-9.2,2.8-18.4,4.1-27.6h38c-.8,9.1-1.6,18.2-2.3,27.3h-5.2c-5.4,57-11.1,114.2-17,171.7-4.4,43.7-26.6,67.9-63.3,73.2-36.3,5.6-50.2-15.1-39.5-62.5,13.9-61.8,27.4-122.1,40.2-181.3h-5.2c2.1-9.5,4.2-18.9,6.3-28.4h39.9c-1.5,9.2-3,18.5-4.5,27.7h-4.9c-10.1,59.5-20.8,119.6-31.8,180.7h.2Z"/>
      <path class="st3" d="M516.9,522.8h11.1c-.9-7.1-1.7-14.2-2.6-21.2-9.5,0-19.1,0-28.6.1-1,7.1-1.9,14.2-2.9,21.3,3.7,0,7.4,0,11.1-.2-.2,15.2-.5,30.3-.7,45.5-20.4.2-40.7,1.1-61,2.6,1.5-15.4,3-30.8,4.4-46.2,2.7-.2,5.3-.3,8-.5,13.4-71.8,25.9-142.8,37.6-213.5h39.1c11.5,70.7,24,141.5,37.2,213.2,2.8,0,5.6.3,8.4.4,1.3,15.3,2.6,30.7,4,46-21.7-1.5-43.4-2.2-65.1-2.3v-45.5.3ZM501.7,463.5h19c-.4-4.6-.7-9.1-1.1-13.7-2.5-29-5.9-65.9-7.3-97.8-2,31.9-6.3,68.8-9.3,97.8-.4,4.6-.9,9.1-1.3,13.7h0Z"/>
      <path class="st3" d="M564,310.9h44.3c19,0,38.8,4.2,46.3,38.3,2.8,12.9,5.6,25.8,8.5,38.8,5.1,23.3-.2,33.7-10.1,37.8,12,6.1,22.5,18.5,28.8,46.8,4.4,19.7,8.9,39.6,13.4,59.6.9,3.9,2.4,5.6,5.4,6.1.9,0,1.8.3,2.6.4,3.9,16.6,7.7,33.3,11.7,50.1-10.3-2.2-20.6-4.1-30.9-6-16.1-2.8-22.3-12.8-26-33.1-4.9-26.7-9.7-53.3-14.4-79.7-4-22.4-9.2-27.8-21.1-28.5-1.6,0-3.1-.2-4.7-.3,4.3,29,8.7,58.1,13.2,87.3,2.3.2,4.6.5,6.9.7,2.6,15.8,5.1,31.7,7.8,47.6-19.5-2.6-39.2-4.7-58.8-6.1-1.4-15.4-2.9-30.8-4.3-46.1,2.2,0,4.3.3,6.5.4-6.3-62.6-12.2-124.9-17.9-186.9h-4.9c-.8-9.1-1.5-18.2-2.3-27.3h0ZM621.3,406.5c8.3.4,10.6-2.7,9-12.2-2.6-14.9-5.2-29.8-7.7-44.6-1.4-8.3-4.5-11-12-11.1h-7.8c3.2,22.5,6.5,45,9.8,67.7,2.9.1,5.8.2,8.7.4v-.2Z"/>
      <path class="st3" d="M655.7,311h43.2c19,0,41.4,6.8,53.9,44.2,19.8,59.2,40.2,121.1,61,186.6,21,66.7-2.7,72.3-30.1,64.1-20.7-5.9-41.5-11.2-62.4-15.7-4.1-17.1-8.1-34.1-12.1-50.9,2.1.4,4.3.7,6.4,1.1-16.8-69-33-135.7-48.4-200.9-1.6,0-3.3,0-4.9-.1-2.2-9.5-4.4-19-6.5-28.5h-.1ZM698.8,340.3c18.6,66.8,38,135.9,58.1,208.3,3.2.7,6.5,1.4,9.7,2.2,9.7,2.2,11.8-2.3,7.6-16.7-18.5-62.9-36.6-123.1-54-181.2-2.7-8.9-6.5-12.2-14-12.4-2.5,0-5-.1-7.5-.2h.1Z"/>
    </g>
  </g>
  <g>
    <path class="st3" d="M562.7,718.4c-.9,0-1.7,0-2.6,0-6.4-.7-11.2-3.8-14.8-6-.8-.5-1.7-1.1-2.5-1.5-1-.4-4-.9-5.6-1.2-6.6-1.2-14.8-2.7-20.9-8.8-.9-.6-3.4-2.3-6.6-4.2l-12.8-1.4h0l-144.3-16.2-4.5-.3h-3.2c-5.1-.5-9.6-3.6-12.1-8.1-1.5-2.7-3-7.1-2-12.6.6-3.5,1.8-6.1,2.8-7.8,2.7-4.6,7.5-7.5,12.9-7.8h2.3c1,0,2,.3,3,.6l4.9.8,154.6,17.3c.9-.3,1.9-.5,2.8-.6,3.2-.4,4.9-.8,5.5-1,2.5-1.2,5.1-1.8,7.9-1.9h.9c.8,0,1.6,0,2.4,0,4,.4,7.6,1.9,10.5,3.3,1.3.6,2.2.9,3.9,1,1.1,0,2.5.2,4.2.2h.9c3.3,0,6.5-1.6,9.9-3.1,3.8-1.7,7.8-3.5,12.6-3.7h1.6c.8,0,1.6,0,2.4,0,7.2.8,17.4,5.3,24.5,22.4,3.3,7.7,3.4,14.8.4,21-4.6,9.6-14,12.3-20.9,14.3-2.2.6-4.7,1.3-6,2-3.6,2-7.3,3-11.1,3.1h-1Z"/>
    <path class="st3" d="M264.1,885.6c-3.9-3.8-5.5-10.1-4.4-20.3,1.4-13,13.8-19.8,20.9-21.8l4.1-1.1,7.4,6.3h.4l1.2-2.5,3.3-1.1c4.4-1.5,17.2-6.1,22.8-9.7,2.8-1.8,3.4-2.6,5.2-5.1,1.9-2.6,4.4-6.2,10.1-11.7,7.1-7,20.2-10.5,39.2-10.5s11.1.4,11.3.5l20.9,2-16.8,12.6c-12.1,9.1-30.6,23.4-33.6,26.9-7,8.2-50.2,29.4-50.6,29.6-8.5,4.2-30.9,7.1-35.3,7.7l-3.4.4-2.7-2.2h0Z"/>
    <path class="st3" d="M595.4,879c-11.1,0-29.6-1.1-30.4-1.2l-8.2-.5.7-8.2c0-1.4,1.5-14.1,16.5-25.5,13.3-10.2,23.3-13.2,24.4-13.5l6-1.7,5.2,8.5c.4-.7.8-1.3,1.3-1.9,2.1-2.5,5.1-3.9,8.4-3.9,5.3,0,27.1,6.4,39.5,10.2l13.1,4-9.8,9.6c-4.5,4.4-19.9,18.8-29.3,21-8.7,2-21.2,2-21.7,2h-3.5l-.4-.5c-.2,0-.3.2-.5.3-1.9.9-4,1.4-11,1.4h-.3Z"/>
    <path class="st3" d="M786.5,675.2l-23.6-42.1-28.8-47.1c-.7-1.1-5.5-8.8-14.4-14.4-10.8-6.8-19.6-8.3-25.1-8.3s-3.9.3-4.5.4l-8,1.8.9,3.9c-1.4,0-2.8-.2-4.4-.2h-2.4c-9,.3-18.4,2-26.5,4.8-10.8,3.7-18.9,9-24.1,15.8-8.5,11-30.3,27.1-30.5,27.3l-2,1.5c1.2-7,2-13.8,2-19.2s-.4-7.8-1.1-10.7c1.8-.5,3.2-1.3,4.1-2,4.6-3.6,6.9-8.1,8.2-11.7l8.4-2.7-.7-6.6s-.4-3.8-.7-6.6c2.5,0,5.2-.2,8.1-.4,10.5-.8,23.6-3.8,24.1-3.9l6.5-1.5-.3-6.7c0-1.2-.8-12.6-12.1-27.4-10.2-13.4-19.4-13.7-24.3-13.8h0c-4.4-4.8-13.4-14.7-38.7-14.7s-5.2,0-7.9.3c-38.8,2.8-57.5,31.7-58.3,32.9l-.9,1.5-8.1-2c-.6,0-2.7-.6-5.7-.6-6.4,0-22,2.3-29,23.3-2.6,7.6-2.1,15.1,1.4,21.7,1.7,3.3,4.1,6,6.6,8.3-12.6,3.4-19.4,10.9-22.4,16.8l-17,7.5-1.1,17.4c-.9,1-2.5,2.8-5.4,5.7-7.4,7.4-9.1,14.5-9.2,19.3-2.1,2.3-5.4,6-9.9,11.5-3.4,4.3-5.7,8.4-7.3,11.9-5.7-1.7-13.5-3-23.5-4.1-3-.3-6-.5-9-.5-27,0-44.2,13-44.9,13.5l-8.1,6.2h-.9c-23-2.3-30.6-9.2-31.6-10.3l-9-15.2-5.3,17.8c-.3.9-6.6,22.7,5.7,44.1,3.3,5.8,7.7,10.2,12.9,13l-5.4,3.7,15.6,5c.5.2,11.8,3.7,27,3.7s13.4-.7,19.7-2.1c6.1-1.4,12.3-3.7,18.2-6.4-2.2,4.7-4.1,9.5-5.6,13.6-.8,2.2-1.9,4.9-2.6,6.4h-.4c-1.4,0-2.9-.3-3.3-.4l-6.8-1.9-2.8,6.5s-4.4,10.1-7.7,15.3c-2.5,4-18.1,20.8-24.7,27.9-2.5,2.7-4.2,4.6-5.2,5.6h0q0,0-.1,0h-.2l-8.5-4.3-1.6,7.6-1-2.7-2.7-1.4c-1.2-.6-3.3-1.3-6.7-1.3-5,0-11.3,1.5-18.9,4.6-15.7,6.3-19.3,22-18.9,30.3l.3,6.4,6.3,1.2c1.1.2,28.3,5.3,42.3,5.3s3.9,0,5.4-.3c11-1.7,17.1-6.6,19.2-8.5l36.6-28c3.1-.2,9.5-.6,18.2-.6s7,0,10.6.2c10.9.4,19.1,5.8,22.9,9,4.4,3.7,10,5.7,15.7,5.7s1.3,0,2,0c4.9-.4,11.6-2.4,17.6-6.9.2.8.4,1.5.5,2l1.3,4.6,36,8.3.3-2.7h.2c3.2,1.1,7,1.6,11.7,1.6s12.4-1.1,12.7-1.1l6.3-1.1.4-6.4c0-.9,0-4.1-1.2-7.9,5.8,1.7,12.6,3.7,18.6,5.4,4.8,1.4,10.8,2.1,17.6,2.1s16.9-1.1,20.6-1.7c7.4,2.4,34,10.6,62,13.9,18,2.1,39.3,10.7,63.2,25.6.4.2.7.4,1,.6l-1.8,13.3,1.7,5.5c.2.7,2.5,7.6,10.9,19.6,3.9,5.5,12,12.1,28.7,12.1s6.9-.4,7.2-.5l7.9-1.2-1-7.9c-.9-6.6-5.3-40.2-8.2-48-.3-.7-.3-1.1-.5-1.7-.8-4-2.2-6.3-6.4-10.4-3.8-3.7-10.8-9.9-24.9-22.1-1.3-1.2-2.7-2.3-4-3.4,4.2-3.6,10.3-9.4,12.7-14.4,2.5-5.2,2.4-11.5-.3-17.9-2.6-6.3-7.8-12.4-14.8-17.6-6.8-5-15-7.4-22.5-8.5,1.9-3.7,3.8-8.4,5.5-14.1,3-10.5,1.8-19.2-.6-25.8,4.8-.4,10.9-1,18.4-2.1,11-1.6,19.6-5,25.3-7.9,4.2,5.4,11,11.1,21.2,13.9,3.2.9,6.1,1.3,8.8,1.3h0c6.7,0,10.7-2.7,12.9-5.1,1.2-1.2,2.1-2.6,2.7-3.9,5.1-.5,10.4-1.8,13.6-4.4,6.5-5.4,3.6-13,1.7-16.9,1.1-1.3,2.4-3.2,3.2-5.7,2.8-8-2.5-15.3-4.9-18l-.4-.2Z"/>
    <path class="st3" d="M514.7,535.5l.5.2h-.6v-.2h0ZM609.6,837.2c0,0,0,.3-.2.4l-.3-.5h.5Z"/>
    <g>
      <path class="st6" d="M783.7,690.6c1.7-4.9-3.9-10.6-3.9-10.6l-24-42.8-28.8-47s-4.1-6.9-11.8-11.8c-14-8.9-23.5-6.8-23.5-6.8l2.4,10.2s-3.2-5-17.7-4.5-35.2,5.3-44.5,17.4c-9.3,12.1-32.2,28.9-32.2,28.9h0c3.2.7,6.5.6,9.6-.2h.2s-.5,3.3-6.8,10.1c-7.4,7.9-20,15.2-20,15.2,3.1.4,6.2.3,9.3-.2h.4s-2.9,4.8-11.1,17.2c-8.1,12.4-19.3,16.4-19.3,16.4,5.6,1.7,11.5.7,17.2-.7l2.1-.5s.5,4.4-4.8,11.9c-10.1,14.3-19,11-19,11l2.5-1.9c4.6-3.4,8.5-7.6,11.6-12.4,0,0-3.3.4-12.5-.9-9.2-1.3-13.5-11.2-13.5-11.2,0,0,8.9-.7,15.6-2.8,6.8-2.1,17.1-15.8,17.1-15.8,0,0-2.7,1.4-9.3.8-6.7-.6-8.9-4.3-8.9-4.3,0,0,2.8-.6,8.5-3.3h.2c5.9-2.8,10.2-8.2,11.7-14.5,2.5-10.6,6.2-27.8,6.2-38.2,0-15.9-6.3-16.1-6.3-16.1l2-4.6s7.5,3.9,10.4,1.6c5.7-4.5,6.4-11.6,6.4-11.6l6.4-2.1s-.6-5.1-.8-8c-.3-2.9,1.5-7.6,1.5-7.6,0,0,4.2.4,14.2-.4,10-.7,22.9-3.7,22.9-3.7,0,0-.4-9.6-10.5-22.8s-17.3-9.9-21.1-10.9-7.8-16.7-42.9-14.2c-35.2,2.5-52,29.2-52,29.2l28.1,9.7-2.8,5.6s-1.9-1.8-9.7-3.8c-7.9-2.1-7.2,2.8-10.8,4.2s-3-1.7-8.5,0-6.3,6.1-6.3,6.1c0,0-1.5.7-4-3.1-2.5-3.7.5-8.6.5-8.6,0,0-4.3.7-6.9,5.1-2.6,4.5-.7,9.5-.7,9.5,0,0-3.4-1.1-6.4-8.9-3-7.8,9.8-12.9,9.8-12.9,0,0-17.8-4.4-25.1,17.4-7.3,21.8,20.7,29.6,20.7,29.6,0,0-1.9,1.4-17.9,5.5s-18.6,15.1-18.6,15.1l-15.5,6.8-.9,14.3s1.4,0-7.7,9.1-6.5,16.5-6.5,16.5c0,0-4,3.7-12,13.6-7.9,9.9-8.6,18.6-8.6,18.6,0,0,0-4.7-29.4-7.8-29.3-3.1-48.2,11.4-48.2,11.4l19.5,6s-4.4,4.8-34.2,1.8c-29.8-3-37.3-13.5-37.3-13.5,0,0-5.7,19.2,5,37.8s29,10.9,29,10.9l-10.4,7.2s20.1,6.5,42.4,1.4c22.3-5,46.8-24.5,46.8-24.5,0,0-6,9-13.6,19.2s-12.2,27.4-15.1,32.1c-2.9,4.7-12.2,2.1-12.2,2.1,0,0-4.6,10.6-8.3,16.5-3.7,5.9-26.7,30.2-30.7,34.6s-9.3,2.3-9.3,2.3l-2.1,9.7-8.8-.7-4-10.3s-4.3-2.2-18.9,3.6-13.8,22.4-13.8,22.4c0,0,34.4,6.5,45,5,10.6-1.6,15.1-6.6,15.1-6.6l38.9-29.7s12.4-1.3,32.1-.7c13.2.4,22.9,6.8,27.8,10.9,3.3,2.8,7.6,4.1,11.9,3.7s12.9-3.5,18.2-9.6c10.7-12.3,13.3-22.6,15.6-35.3,2.2-12.7-4-24.1-4-24.1,0,0,1.7-1.3,4.4,2.3.4.5.8,1.2,1.2,1.9,3.5,6.3,4.6,13.7,3.2,20.7s-.6,2.9-.9,4.7c-2.3,11.8-7.2,21.7-10.7,26-3.4,4.2-.6,14.3-.6,14.3l22.4,5.2.4-4.4s2.6,1.6,9.9,4.1,20.3.2,20.3.2c0,0,.3-4.7-2.8-8.4-3.1-3.8-7.6-4.1-7.6-4.1,0,0,1.5-.7,3.3-2.7,1.7-2,2-4.2,2-4.2,0,0,18.5,5.5,32.9,9.6,14.3,4,36.7-.2,36.7-.2,0,0,30.5,10.4,62.3,14.1,31.8,3.7,63.3,24.9,68.5,28s2.8,8,2.8,8l9.8-1.5.3,8.2-10.6,7.9s1.9,6.1,9.8,17.3c7.9,11.3,28.1,8.2,28.1,8.2,0,0-5-38.9-7.7-46.3-2.7-7.4,4.2-1.7-29.5-31s-59.1-33.7-59.1-33.7c0,0,10.3-2.5,23.6,1.5s28.3,19.2,28.3,19.2c0,0,11.3-8.9,14-14.5s.3-15.8-12.6-25.4c-13-9.6-34-7.4-34-7.4,0,0,8.4-4.5,14-23.9s-6.7-31.1-6.7-31.1c0,0,9.7.5,31.1-2.5,18.7-2.7,29.4-11,29.4-11,0,0,3.9,12.7,20.4,17.3,16.5,4.5,16-7.6,16-7.6,0,0,11.4-.2,14.6-2.9,3.2-2.7-1.3-8.2-2.2-11.3-.8-3,3-2.9,4.7-7.7v.4Z"/>
      <path class="st6" d="M289.4,857.1l-6.7-5.8s-13.8,3.8-15,14.8,1.5,13.2,1.5,13.2c0,0,25-3.1,32.7-6.9,7.7-3.8,43.1-21.9,48-27.6,4.9-5.8,34.9-28.1,34.9-28.1,0,0-33-3.1-44.1,7.7-11,10.9-8.9,13-16.6,17.9s-24.7,10.5-24.7,10.5l-1.6,3.5-8.4.8h0Z"/>
      <path class="st6" d="M565.5,869.7s.8-10.2,13.3-19.7,21.7-12.2,21.7-12.2l6.6,10.9,8.9.5s-1.8-10,3.1-10,37.2,9.9,37.2,9.9c0,0-17.6,17.1-25.5,18.9-7.9,1.8-19.9,1.8-19.9,1.8l-1.9-2c-.7-.7-1.9-.7-2.6,0s-2,1.9-3.5,2.7c-3,1.5-37.3-.7-37.3-.7h0Z"/>
      <path class="st9" d="M528.4,524.7c18.4-14.4,48.9-29.5,70.2-12.9,8.2,6.2,12.6,15.8,19.4,23.1,1.6,1.6,3.4,2.7,5.2,2.7s4.6,0,6.8-.5l-1.3,3.5-8.3-16.5.6-.4,11.6,14.4,2,2.5c-.9.2-3.6,1.1-4.5,1.2-3.8.4-8.2.7-11.5-1.4-3.6-2.2-5.9-5.7-8.2-9-3.9-5.9-8.2-12.9-13.6-17.4-15.9-13.5-38.9-6.1-55.3,2.9-4.4,2.4-8.6,5.1-12.6,8.1l-.3-.4h-.2Z"/>
      <path class="st3" d="M605.6,798.4c3.7-16.4,6.7-35.7,2.1-52.1-3.3-9.7-9-18.7-15.6-26.4l-2.7-3.1c1.6-.8,4.6-2.4,6.1-3.3,18.1-11.3,31.2-29.1,40-48.3,3.1-6.9,5.7-14,7.5-21.4h.5c-2.4,28.4-17.8,58.1-41.9,73.9-1.8,1.1-3.5,2.1-5.4,3l1.1-5.2c2.3,3,4.2,6,6.1,9.3,5.4,9.5,9.9,20.2,9.8,31.3.2,7.3-.7,14.5-2,21.5-1.3,7.1-3,14-5.2,20.8h-.4,0Z"/>
      <g>
        <path class="st3" d="M454.1,612.1l20.2-7-1.6-4.4s7.6-4.3,21.2-10.1c17.1-7.3,26.9-9.2,26.9-9.2,0,0-15.5.4-33.3,8.5-14.8,6.7-14.8,7.1-20.9,10l1.1,4.6-13.5,7.7h-.1Z"/>
        <path class="st9" d="M445.7,629.7s6.3-1.2,13.8,1.8,11.6,5.4,11.6,5.4l-2.9-6,6.1,1.3s-.5-8.5-10-10.8-15.7,2.5-15.7,2.5l5.8,2-8.6,3.8h0Z"/>
        <path class="st9" d="M443.8,644s5.1-.4,10.9,1.6,9.4,3.6,9.4,3.6l-1.2-6,4.5,2.7s.4-8.2-8.4-10.5-13.6,2.8-13.6,2.8l4.7,1.3-6.2,4.1"/>
      </g>
      <g>
        <path class="st3" d="M482.1,546.9s-5.7,12.1,9.4,17.5,14-1.9,21-.8,5.9,2.7,12.9,3.5,9.2-1.6,9.2-1.6c0,0-3.5.3-5.9-1.1s-3.2-3-3.2-3c0,0,2.7,1.6,6.7,1.9s5.7-1.3,5.7-1.3c0,0-4.6-1.3-6.5-2.4s-1.6-2.4-1.6-2.4c0,0,6.2,3.8,11.1,3.5s7.6-2.4,7.6-2.4c0,0-5.7-.8-7.8-2.7s-2.4-2.7-2.4-2.7l11.1,2.4s-7.3-6.2-10.5-7.8-7.8-1.9-9.7-1.1c-4.6,2,.5,5.1.5,5.1,0,0-10.5-3-14-.5s3,4.9,3,4.9c0,0-5.4-.8-10,0-4.6.8-7.6,1.1-5.9,2.4s1.1,1.1,1.1,1.1c0,0-8.9,1.6-14.6-2.7s-7-9.7-7-9.7h-.2Z"/>
        <path class="st3" d="M549,543.1s-1.1,5.1,4.6,7.8c5.7,2.7,11.6.8,11.6.8,0,0-4.9-1.5-5.9-2.4s-1.3-1.6-1.3-1.6c0,0,3,2.7,9.2,2.7s8.4-3.5,8.4-3.5l-7.6.2,5.5-2.6s-7.6-.8-12.1-2.4c-4.6-1.6-9.2-3.8-9.2-3.8l3.1,6s-1,.4-3.1,0-3-1.1-3-1.1h-.2Z"/>
        <path class="st3" d="M594.9,548.9l-10.7-5.3s-11.6,11.6-11.6,13.5,2.2,10.5,10,14.8,10,5.1,10.3,3.5-1.1-2.4.3-3.8,1.9-1.7,1.1-2.3-4.3-2-4.3-2c0,0,7.6,1.3,7-.8s-2.2-3.2-.8-3.2,4.6,1.6,3.8-1.1c-.8-2.7-2.2-2.4-1.9-5.1.3-2.7.8-4.9-.8-4.9s-3.9,0-3.9,0l-.2,3.9s-5.7-2.4-5.1-3.5,1.6-1.6.8-2.4-1.2-2.4-1.2-2.4l5.8,2.2,1.6-1.2h-.2Z"/>
      </g>
      <path class="st9" d="M544.7,749.1l-117.4-6.5-.6-1.3c-.4-.9-9-21.1-5.9-42.6,1.2-8.3,2.5-13.9,3.6-15.4l3.7,2.8v-.2c.1,0-1.2,2.4-2.8,13.5-2.5,17.2,3.2,34.1,5,38.8l110.6,6.1c.8-4.4,2.6-15.6,1.8-25.9-1.1-13.4-5-29.2-5-29.3l4.5-1.1c.2.7,4,16.3,5.1,30.1,1.2,13.9-2.1,28.6-2.2,29.2l-.4,1.9h0Z"/>
      <path class="st6" d="M479.5,737.2s2.2,9.6-1.3,14.8,40.6,6,40.6,6c0,0,0-11.6,6.2-17.1s9.6-8.2,9.6-8.2l-61.9-4,6.8,8.6h0Z"/>
      <g id="pants">
        <path class="st3" d="M508.1,747.3s-7.5-6.7-12.1-11.5c-4.8-4.9-10.4-10.3-10.4-10.3,0,0,.5,4.6,3.4,9s4.6,5.6,4.6,5.6c0,0-13.3,13.9-15.7,26.9-2.4,13-2.7,20.8-2.7,20.8,0,0,3.4-13.7,12-25,8.5-11.4,12.7-17.5,12.7-17.5,0,0,1.2,1.2,3.6,2s4.6,0,4.6,0h0Z"/>
        <path class="st7" d="M490.8,774.4s-6.2,6-6.3,12.7v6.8s-8.8-1.6-13.9,6.1-2.8,16.5-2.8,16.5c0,0,6.6-19.7,14.8-17.9,8.2,1.8,4.5,13.7,4.5,13.7,0,0,6.7.6,6.6-7s-5-10.5-5-10.5c0,0-1-.9-.3-8.7.7-7.9,2.4-11.7,2.4-11.7h0Z"/>
        <path class="st3" d="M477.7,811s-1.1,4.5,6.5,9.2,12.2,2.3,12.2,2.3c0,0-5.8-1.3-10.8-4.9-5-3.6-7.9-6.7-7.9-6.7h0Z"/>
        <path class="st3" d="M520.4,656.4s-32.5,4-39.9,5.2-13.3,2-6.2,17.7,26,34.3,26,34.3l-8.5,5.3h.2c2.9.4,5.7,1.5,8.1,3.1h0l-4.3,4.9,1.2-.3c2.7-.6,5.4-.5,8.1,0h.6c0,0-2.8,3-2.8,3-1.4,1.4-1.4,3.7,0,5.2l2.7,2.8s18.9-11.9,13.5-25.7c-7.5-19-15.3-33-17.9-35.6s-7.2-4.4-7.2-4.4l9.1-1.9s-4-1-8.9-1.7-7.1-1.1-7.1-1.1c0,0,11-2,23.2-6.1,6.8-2.3,10.3-5.1,10.3-5.1l-.2.3Z"/>
      </g>
      <g id="horse_head">
        <g>
          <circle class="st9" cx="687.5" cy="623.5" r="4"/>
          <path class="st3" d="M684.6,665.9l1.5-13.4s2.1,5.3,4.9,9.2c2.9,3.9,9.7,5.8,9.7,5.8,0,0-8.9-9.3-11-16.9s-3.7-12.2-3.7-12.2c0,0-4,5.6-3.9,13.5,0,6.2,2.5,14,2.5,14h0Z"/>
          <path class="st7" d="M679.9,626.9l2.2,4.4s-5.6,5.2-6.3,21.9,2.5,20.5,2.5,20.5l-4.2-2.3s-4.9-7.6-2.2-24.7c2.7-17.2,8.1-19.8,8.1-19.8h0Z"/>
          <path class="st7" d="M691.1,617.2l2.8,3.2s4.5-5.5,14.9-9.9c10.4-4.5,18.3-6.3,18.3-6.3l-1.5-3.7s-14.5,3.9-22.2,7.9c-8.1,4.2-12.3,8.9-12.3,8.9h0Z"/>
          <path class="st7" d="M688.7,630.9l5.3-3.6s10.7,19.2,17.9,29.8c5.2,7.6,14.5,19.1,14.5,19.1l-1.6,6.5s-14.9-17.2-24.5-32.9-11.6-19-11.6-19h0Z"/>
          <polygon class="st7" points="741.3 677.2 744.6 679.9 765.7 667.8 763.7 664.3 741.3 677.2"/>
          <path class="st3" d="M737.2,620.3c-3-5.5-8-13.3-8-13.3,0,0-13,4.1-19.5,8.4-6.5,4.3-7.8,5.4-7.8,5.4l1.4,2,3.9-2.6c1.6-1.1,3.5-1.6,5.4-1.4h0s-.8,1.5-.4,5.6c.4,4.1,5.5,5.8,5.5,5.8,0,0-1.1-8,.6-9.9,0,0,.8-1.4.9-1.5,2.8-2.8,7.4-3.6,10-.6l28.6,44.2,3.4-2.2s-21-34.2-24-39.9h0Z"/>
          <path class="st3" d="M767.3,670.4l6.9,11.5,1.3,2.2c1.9,2.8,1.6,4.3.6,6.4l-5,10.5s-2.9-5.9-.2-9.7c2.2-3,2.3-6.4-.4-7.1s-5.6,8.9-5.6,8.9c0,0-3.5-4.8-.4-10.3,1.8-3.2,4.3-3.2,4.3-3.2l-4.6-7.4,3-1.8h.1Z"/>
          <path class="st9" d="M731.6,691.8s0-6.3,3.9-6.2,1.3,7.1,1.3,7.1c0,0,10.1-11.7-.6-13.2-13-1.9-4.7,12.3-4.7,12.3h0Z"/>
          <path class="st9" d="M727.3,632.2s-7.2,1.3-7.1-4.9c0-4.6,3.2-5.6,6.1-4.7,5.5,1.6,3.4,6.3,3.4,6.3,0,0-2.8-3.7-4.9-1.5-2.1,2.3,2.5,4.7,2.5,4.7h0Z"/>
        </g>
        <path class="st3" d="M759.7,710.7l-3.7-4.2c-3.1-3.4-5.8-7.2-8.1-11.2l-2.6-4.4-.3,4.1c-.6,7.1,4.3,13.6,11.3,15l3.4.7h0Z"/>
        <path class="st3" d="M681.1,607.5s3.8-11.3-7.4-9.9c-7,.9-13-8.6-13-8.6,0,0,15-5.9,24.8-3.4,13.2,3.4,11.8,11.7,11.8,11.7,0,0-4.7-4.3-9-4.8s-6.4,0-6.4,0c0,0,6.9,3.7,4.9,8-2.1,4.3-5.6,7.1-5.6,7.1h0Z"/>
        <path class="st3" d="M705.1,592.2l5.9-4.1s-.2-4.5-5-7.3-8.7-2.4-8.7-2.4c0,0,4.2,3.1,6.2,6.9s1.5,6.9,1.5,6.9h0Z"/>
        <path class="st3" d="M635.9,635.4s2.5-2,3.8-5.9,1-4.8,1-4.8c0,0-12.7-.9-19.6,7.3-6.9,8.3-19.6,9.9-19.6,9.9,0,0,8.6,8.1,18.2,0s16.1-6.6,16.1-6.6h0Z"/>
        <path class="st3" d="M621.2,661.3s1.1-2.7,1.7-5.1,0-4.5,0-4.5c0,0-8.7-1.6-15.5,4s-4.4,6.4-8.5,8.5-8.3,2.9-8.3,2.9c0,0,5.9,3.7,14-.3,5.1-2.5,4.3-5.5,9.6-5.4s7,0,7,0h0Z"/>
        <path class="st3" d="M619.4,617.5s8.4-1,11.6-7.2c6.4-12.2,18.7-8.7,18.7-8.7,0,0-.3,2.4-.6,4.3s-1.1,3.8-1.1,3.8c0,0-9.8-1.1-12.1,4.4s-16.5,3.4-16.5,3.4h0Z"/>
      </g>
      <path class="st9" d="M555.6,666.1l-4.6-.2c0-.3.4-8.6,2.5-19.8,1.7-9.6,6.5-18.8,14.4-28,5.4-6.3,9.3-19.2,9.3-19.3l4.4,1.3c-.2.6-4.2,14-10.2,21-7.4,8.6-11.8,17.1-13.4,25.9-2,10.9-2.4,19.1-2.4,19.2h0Z"/>
      <g id="jacket">
        <path class="st3" d="M666.1,704s4.6-11,8.1-15.4,6.5-8.3,6.5-8.3c0,0,3.9,8,16.2,8.7,12.2.6,15.8-2.4,15.8-2.4l13.8,9.3s-20,8.1-38.6,9-21.7-.8-21.7-.8h0Z"/>
        <path class="st9" d="M481.2,650.9c-2.4,0-3.8,0-4.1,0l.4-4.6c.2,0,23.5,2,43.1-11.8,19.2-13.4,22.9-34.1,23.6-40.2.5-4.7,1.3-15.9,1.3-16l4.6.3c0,.5-.7,11.4-1.3,16.3-.8,6.5-4.8,28.9-25.6,43.4-16.2,11.3-34.2,12.7-42.1,12.7h.1Z"/>
        <g id="buttons">
          <circle class="st7" cx="482.9" cy="638.6" r="2.8"/>
          <circle class="st7" cx="539.8" cy="584.2" r="2.8"/>
          <circle class="st7" cx="496.9" cy="637" r="2.8"/>
          <circle class="st7" cx="510.1" cy="633.9" r="2.8" transform="translate(-197.3 1035.9) rotate(-80.8)"/>
          <circle class="st7" cx="520.8" cy="626.9" r="2.8"/>
          <circle class="st7" cx="528.8" cy="618.3" r="2.8"/>
          <circle class="st7" cx="535.3" cy="607.8" r="2.8"/>
          <circle class="st7" cx="538.1" cy="596" r="2.8"/>
          <path class="st0" d="M539.8,584.2s0,30.8-18.5,43.6c-18.6,12.8-38.4,10.8-38.4,10.8"/>
        </g>
        <path class="st3" d="M491.2,654.6c14.9-4.3,30.3-8.6,42.8-18.2,9.9-7.5,18.9-15.6,28.5-23.5-1.8,3.1-3.9,6-6.1,8.9-6.7,8.5-14.5,16.3-23.4,22.4-12.4,7.8-27.3,10.9-41.7,10.8v-.4h0Z"/>
        <path class="st3" d="M548.2,637.4c1.6,2.6,1,6,.4,8.7-.7,2.9-1.7,5.5-2.8,8.2l-.3.7-.2.7c-.8,3,0,6.3,1.5,9l-.4.4c-3.2-3.1-4.6-8.1-3.4-12.5.5-2.4,1-4.8,1.1-7.1,0-1.6.2-3.3-.5-4.8h0v.2h0c0,0,4.5-3.4,4.5-3.4h.1Z"/>
        <path class="st3" d="M553.5,613.8s-1.3-9.3,4.6-11.2c11.7-3.8,11.6-8.1,11.6-8.1,0,0,3.1,7.5-4,9.9-9.2,3.2-12.2,9.4-12.2,9.4h0Z"/>
        <path class="st3" d="M552.8,603.2s0-6.6,4.5-7.7,7.8-5.2,7.8-5.2c0,0,.8,5.8-3.5,6.7-6.6,1.4-8.8,6.2-8.8,6.2Z"/>
        <path class="st3" d="M564,586s-5.4-1.6-7.6-8.4c-2.2-6.7-1.1-10.3-1.1-10.3l4.9,5.4s-1.5-2.5-1.6-5.9,1-4.4,1-4.4c0,0,0,3.4,7.2,9.5,7.1,6.1,10.9,5.8,10.9,5.8,0,0-1.7,2.2-5.1,2.1s-4.6-1.9-4.6-1.9c0,0,2.7,4.5,5.4,5.3s4.3.8,4.3.8c0,0-3,2.9-8.4,1s-5.7-4-5.7-4l.3,4.9h0Z"/>
      </g>
      <g>
        <path class="st6" d="M563.4,710.2h-2.4c-4.5-.5-8.1-2.8-11.3-4.8-1-.6-2-1.2-2.9-1.8-1.6-.9-5-1.5-8-2.1-5.9-1.1-12.6-2.3-16.9-6.9-.7-.6-4.4-3-8.5-5.4l-.6-.4-.2-.2-6.2-.7h0l-152.9-17.1-5.5-.3h-2c-2.5-.3-4.6-1.7-5.8-3.9-.9-1.6-1.8-4.2-1.2-7.5.4-2.3,1.2-4,1.8-5.1,1.3-2.2,3.6-3.6,6.2-3.7s.7,0,1.1,0c.7,0,1.3.2,1.9.5l5.8.9,156.8,17.6c.9-.5,1.8-.8,2.8-.9,5.3-.7,7.1-1.3,7.4-1.4,1.6-.8,3.4-1.3,5.2-1.4s1.3,0,2,0c2.8.3,5.4,1.4,7.9,2.6,2.1,1,3.9,1.5,6.5,1.8,1.6.2,3.4.2,5.5.2h.7c4.9-.2,9.2-2.1,12.9-3.9,3.4-1.5,6.3-2.9,9.5-3s.5,0,.7,0h2.2c7.3.8,13.5,6.8,17.9,17.5,2.3,5.6,2.5,10.3.6,14.3-3,6.3-9.8,8.3-15.8,10-2.7.8-5.5,1.6-7.6,2.7-2.5,1.4-5,2.1-7.6,2.2v.2Z"/>
        <path class="st6" d="M561.3,706.8c-3.7-.4-6.8-2.4-9.9-4.3-1-.6-2-1.3-3.1-1.9-2.1-1.2-5.7-1.8-9.1-2.5-5.7-1-11.6-2.1-15.1-5.9-.6-.7-5-3.5-9.2-5.9l-.3-.2-.7-.6h0l-3.8-.4h0l-156.5-17.5-6-.4c-.5,0-1,.2-1.4,0-1.3,0-2.5-.9-3.2-2.1-.6-1.1-1.2-3-.8-5.3.3-1.8.9-3.1,1.4-3.9.8-1.4,2.4-2.2,4-2s.9.2,1.3.4l6.3,1,158.1,17.7c.7-.5,1.5-.9,2.4-1,5.4-.7,7.9-1.5,8.4-1.7,1.7-.9,3.4-1.2,5.4-1s4.6,1.2,6.8,2.3c2.5,1.2,4.7,1.8,7.6,2.1,1.7.2,3.6.3,5.9.2,5.9,0,11-2.3,15-4.2,3.4-1.6,6.1-2.8,8.9-2.7h1.8c7.5.8,12.4,8.8,15.2,15.4,2,4.6,2.2,8.4.7,11.6-2.4,4.9-8.1,6.6-13.7,8.2-2.9.8-5.9,1.7-8.2,2.9-2.7,1.4-5.3,2-8,1.7h-.2Z"/>
        <path class="st6" d="M561.5,705c-3.3-.4-6.1-2.1-9.1-4-1-.6-2.1-1.3-3.1-1.9-2.4-1.3-6.1-2-9.7-2.7-5.4-1-11-2-14.1-5.4-.9-1-6.2-4.3-9.6-6.3h-.2l-.6-.6c-.3-.3-.7-.4-1.1-.5l-1.9-.2h0l-158.4-17.7-6.4-.4c-.3,0-.7.2-1,0-.7,0-1.4-.5-1.8-1.2-.5-.9-1-2.3-.7-4.1.3-1.5.8-2.7,1.2-3.3.4-.8,1.3-1.2,2.2-1.1s.7,0,.9.3l6.6,1,158.9,17.8c.5-.6,1.2-1,2-1.1,4.4-.6,7.9-1.3,9-1.9,1.3-.7,2.8-1,4.4-.8s4.2,1.1,6.2,2.1c2.7,1.3,5,1.9,8.2,2.3,1.8.2,3.8.3,6.1.3,6.3,0,11.5-2.4,15.7-4.4,3.2-1.5,5.7-2.6,8.1-2.5h1.5c3.7.4,9,3.2,13.7,14.3,1.7,4.1,2,7.4.7,10.1-2,4.2-7.1,5.7-12.6,7.2-3,.9-6.1,1.7-8.6,3.1-2.4,1.3-4.7,1.8-7,1.5h.5Z"/>
        <g class="st4">
          <path class="st9" d="M578,676.5c-5.6,4.1-11.7,7.3-18.5,8.8-6.7,1.4-13.5.3-20.1-.7,3.3.3,6.7.4,10,.4,10,.4,19.1-4.8,26.3-11.2l2.3,2.7h0Z"/>
          <path class="st9" d="M543.8,687c15.5,2.4,24,1,37-8.1l2,3c-6,3.4-12.1,6.5-19,7.4-3.4.3-6.8,0-10.2-.3-3.3-.4-6.6-1.1-9.8-1.9v-.2h0Z"/>
          <path class="st9" d="M585.3,687.8c-4.9,2-9.6,4-14.8,5.1-5.2,1-10.5-.2-15.5-1.2,4.9.4,10.3.7,15.1-.7,4.7-1.6,9.3-4,13.7-6.4l1.5,3.1h0Z"/>
        </g>
        <g class="st4">
          <path class="st9" d="M581.5,675.3c-2,3.1-5.5,4.8-8.7,6.1-8.7,4-18.6,4.9-28,3.5,6.1-.3,12.3-1.2,18.1-3,4.3-1.2,8.2-3.5,11.5-6.5.9-.8,1.7-1.6,2.4-2.5,0,0,0,0,0,0l4.7,2.4h0Z"/>
          <path class="st9" d="M547.5,686.8c11.6.8,25.3,1.5,34-7.5l3,2c-8.9,10.8-25,8.8-37.1,5.5h0Z"/>
          <path class="st9" d="M587.6,687.9c-2.2,2.4-5.4,3.6-8.4,4.5-8.6,2.6-17.7,1.3-25.8-2.1,2.8.5,5.7.9,8.5,1.1,5.6.6,11.1-.3,16.4-2.1,2.3-.8,4.6-1.8,6.4-3.3l.2-.2,2.7,2.1h0Z"/>
        </g>
        <g class="st4">
          <path class="st1" d="M579.5,675.4s-3.7,5-11.3,7.8c-19,7-39.4,1.5-39.4,1.5"/>
          <path class="st1" d="M528.7,688.7s22.1,6,37.2,1.8c13.6-3.7,18-9.5,18-9.5"/>
        </g>
        <g>
          <path class="st7" d="M515,676.8l-160.2-17.9h0l-7.2-1.1h0c-.2-.3-.6-.3-.7,0-.3.5-.7,1.4-.9,2.7-.2,1.3.1,2.4.5,2.9.1.3.5.3.7,0h0l7,.4,161.5,18-1.1-1,.6-4.1h-.2Z"/>
          <g>
            <path class="st0" d="M567.7,698.3c-3.3.2-8.6-.2-14.5-4-7.9-5.1-18.7-6.9-22.2-7.4-.4,0-.7.4-.4.7l2.4,2.7s.2,0,.3,0c1.5.2,13.4,1.9,18.5,5.4,5.4,3.8,8,5.5,11.4,4.8,1.5-.3,3.3-.9,4.7-1.5.5-.2.3-.9-.2-.9h0Z"/>
            <path class="st0" d="M533.1,679.9c.8.2,7.3,1.6,16.5,1.3,6.9-.2,11.5-3.1,14.8-4.7.4-.2.2-.8-.2-.7-4.7,1.3-11.3,4.2-18.1,3.4-7.6-.9-9.9-2.4-12.2-2.2-1.3,0-2.1.3-2.6.5-.2,0-.3.4,0,.6l1.8,1.6h0v.2Z"/>
            <path class="st3" d="M587.3,683.8c-6.1-14.4-12.8-13.2-13.6-13.2-4.8-.2-12.5,6.8-23.8,6.9-7.5,0-11.3-.9-15.1-2.7s-6.4-2.6-8.9-1.3-7.3,1.8-9.6,2.1-1.1.6-1.2,1.2h0l-160.2-17.9h0l160.3,17.9-.7,5h0c.8,0,1.5.4,2.1.9l.4.4s8.5,4.9,10,6.6c4.7,5.1,17.2,4.2,23.3,7.7s10.6,8.1,17.4,4.4c9.7-5.2,25.7-3.5,19.6-18.1h0ZM531.2,677.6c.5-.2,1.3-.4,2.6-.5,2.4-.2,4.6,1.3,12.2,2.2,6.8.8,13.4-2.1,18.1-3.4.4,0,.6.5.2.7-3.3,1.6-7.9,4.4-14.8,4.7-9.2.3-15.8-1.1-16.5-1.3h0l-1.8-1.6c-.2-.2,0-.5,0-.6v-.2ZM567.9,699.1c-1.4.6-3.1,1.2-4.7,1.5-3.4.7-6-1.1-11.4-4.8-5.1-3.5-17-5.2-18.5-5.4,0,0-.2,0-.3,0l-2.4-2.7c-.3-.3,0-.8.4-.7,3.6.5,14.3,2.4,22.2,7.4,5.9,3.8,11.2,4.2,14.5,4,.5,0,.7.7.2.9h0ZM584.6,690.4c0,1.9-1.1,3.7-2.9,4.4s-2.7.7-4.7.9c-3.8.4-9.4,1.1-13,.5-6.1-1.1-12.1-5.5-21.1-8.1-6.2-1.8-9.6-4.3-11.1-5.7s0-.8.4-.7c3.7.7,14.3,2.4,22.7.6,6.3-1.4,10-4.5,17.3-7.8s1.5-.3,2.1,0c2.1,1.3,5.9,4.1,8.3,8.9,1.4,2.8,1.9,5.1,1.9,6.7v.2Z"/>
          </g>
        </g>
        <g>
          <g>
            <path class="st3" d="M559,697.6c-4.8,0-8.6-3.9-8.6-8.6s3.9-8.6,8.6-8.6,8.6,3.9,8.6,8.6-3.9,8.6-8.6,8.6Z"/>
            <path class="st6" d="M559,682c3.8,0,6.9,3.1,6.9,6.9s-3.1,6.9-6.9,6.9-6.9-3.1-6.9-6.9,3.1-6.9,6.9-6.9M559,678.7c-5.7,0-10.3,4.6-10.3,10.3s4.6,10.3,10.3,10.3,10.3-4.6,10.3-10.3-4.6-10.3-10.3-10.3h0Z"/>
          </g>
          <circle class="st2" cx="559" cy="689" r="6.9"/>
          <g>
            <circle class="st3" cx="559" cy="689" r="6.9"/>
            <g class="st5">
              <g>
                <circle class="st3" cx="561.4" cy="686.8" r="6.9"/>
                <g>
                  <path class="st3" d="M562.7,704.9c-3.8,0-6.9-2-10.2-4.1-1-.6-2.1-1.3-3.2-1.9-1.2-.7-2.9-1.3-5.3-1.8l-1.3-.3v-6.4l.6.2.4-.9c.2-.5.6-.9.9-1.2,0,0,0-.2.2-.3l.8-.9,1.1.4c3,1.1,5.8,2.3,8.2,3.5,3.4,1.6,6.4,3,9.3,3.5.9,0,2,.2,3.2.2s2.4,0,3.8-.2h1.1l.5.9c.6,1.1,1.1,2.2,1.7,3.5l.7,1.7-1.8.6c-2.1.7-3.8,1.3-5.1,2.1-2,1.1-3.8,1.6-5.8,1.6l.2-.2Z"/>
                  <path class="st6" d="M546.2,689.2c7.2,2.6,12.4,6.1,17.8,7,1,.2,2.2.2,3.5.2s2.6,0,4-.2c.6,1.1,1.1,2.2,1.6,3.4-1.9.6-3.7,1.3-5.4,2.2-1.8,1-3.4,1.4-5,1.4-4.3,0-7.9-3.2-12.5-5.8-1.6-.9-3.6-1.5-5.7-2v-2.8c2.8.8,5.5,1.8,7.3,3.1,4.7,3.2,7.2,5,10,5s.9,0,1.4,0c1.5-.3,3.3-.9,4.7-1.5.5-.2.3-.9-.2-.9s0,0,0,0h-1.3c-3.3,0-8-.8-13.2-4.1-2.5-1.6-5.2-2.8-7.9-3.8.2-.4.6-.8.9-1.2M545.1,685.2l-1.5,1.9-.2.2c-.3.3-.6.7-.9,1.2l-1.4-.4v3.2l-.4.9.4.2v5.7l2.6.6c2.2.5,3.7,1,4.8,1.6s2.1,1.3,3.1,1.9c3.4,2.1,6.8,4.3,11.1,4.3s4.3-.6,6.6-1.8c1.3-.7,2.8-1.3,4.8-1.9l3.6-1.1-1.5-3.4c-.6-1.3-1.1-2.4-1.7-3.6l-1-2-2.2.2c-1.4,0-2.6.2-3.7.2s-2.2,0-3-.2c-2.7-.5-5.6-1.8-8.9-3.3-2.4-1.1-5.2-2.4-8.3-3.5l-2.3-.8h0Z"/>
                </g>
              </g>
            </g>
          </g>
        </g>
        <path class="st3" d="M564,696.2c-5.3-.9-10.6-4.4-17.8-7-.3.4-.7.7-.9,1.2,2.7,1,5.4,2.3,7.9,3.8,5.9,3.8,11.2,4.2,14.5,4,.5,0,.7.7.2.9-1.4.6-3.1,1.2-4.7,1.5-3.4.7-6-1.1-11.4-4.8-1.8-1.3-4.5-2.3-7.3-3.1v2.8c2.2.5,4.2,1.1,5.7,2,6.2,3.5,10.6,8.1,17.4,4.4,1.7-.9,3.5-1.6,5.4-2.2-.5-1.1-1-2.2-1.6-3.4-2.7.2-5.4.3-7.5,0h0Z"/>
      </g>
      <g id="lamp">
        <g>
          <path class="st3" d="M455.7,684.8h-.5c-2-.2-3.1-1.1-3.8-1.9-.6.6-1.5,1.2-2.9,1.2h0c-.3,0-.7,0-1.1,0-1.4-.3-2.2-1-2.7-1.7-.5.2-1,.3-1.4.3s-.9,0-1.3-.2c-1.2-.4-2-1-2.5-1.6-.7.5-1.4.6-2.1.6s-1.1,0-1.8-.3c-1.2-.4-2.1-1.2-2.7-2.4-2.1-4.3,1.1-13.4,2.6-17.1,2.1-5.4,6.6-8.3,12.4-8.3s4.2.5,4.7.6c9.1,1.8,12.3,6.5,10.9,16-1.1,7.2-2.6,14.9-7.8,14.9h0Z"/>
          <path class="st6" d="M447.9,655.5c2.4,0,4.1.6,4.1.6,8.4,1.6,10.3,5.5,9.1,13.4-1.1,7.6-2.6,12.9-5.5,12.9s-.2,0-.2,0c-3-.3-2.4-2.8-4-2.8h0c-1.5,0-1.1,2.1-2.9,2.1s-.4,0-.6,0c-2.5-.5-.5-2.7-2.6-3h-.3c-1.3,0-.4,1.6-1.6,1.6s-.4,0-.7,0c-2.4-.7-1.4-2.8-3.1-3.2h-.2c-1.1,0-.2,2.1-2,2.1s-.7,0-1.1-.2c-3.4-1-1.2-9.8,1.4-16.4,2.3-5.7,6.8-6.9,10.2-6.9M447.9,650.8h0c-6.8,0-12.1,3.6-14.6,9.8-4.4,11-3.8,16.4-2.5,19.1.9,1.8,2.3,3.1,4.2,3.6.9.3,1.7.4,2.5.4s.9,0,1.6-.2c.6.5,1.4.9,2.4,1.1.7.2,1.4.3,2,.3h.6c1,.8,2.2,1.2,3,1.4.5,0,1,.2,1.5.2,1,0,1.9-.2,2.7-.6.9.6,2.1,1.1,3.7,1.3h.7c7.7,0,9.3-10.6,10.2-17,.5-3.6.8-8.3-1.7-12.2-2.7-4.3-7.5-5.7-11-6.4-.8-.2-2.8-.7-5.3-.7h0Z"/>
        </g>
        <path class="st3" d="M409,718.9c-3,8.9-5.9,17.5-5.5,26.9,0,6.7.9,13.7,5.2,19.2,1.4,1.8,3,3.7,4.4,5.6-1-.7-2-1.4-2.9-2.1-8.1-5.4-10.6-13.3-11-22.6-.7-9.9,3-19.9,9.8-27h0Z"/>
      </g>
    </g>
  </g>
</svg>