<?xml version="1.0" encoding="UTF-8"?>
<svg id="Layer_1" xmlns="http://www.w3.org/2000/svg" version="1.1" viewBox="0 0 1074.4 1074.4">
  <!-- Generator: Adobe Illustrator 30.1.0, SVG Export Plug-In . SVG Version: 2.1.1 Build 136)  -->
  <defs>
    <style>
      .st0, .st1 {
        fill: #fff;
      }

      .st0, .st2 {
        display: none;
      }

      .st3 {
        fill: #adb6bc;
      }

      .st4 {
        fill: #d80028;
      }
    </style>
  </defs>
  <g>
    <g class="st2">
      <path class="st4" d="M578,676.5c-5.6,4.1-11.7,7.3-18.5,8.8-6.7,1.4-13.5.3-20.1-.7,3.3.3,6.7.4,10,.4,10,.4,19.1-4.8,26.3-11.2l2.3,2.7h0Z"/>
      <path class="st4" d="M543.8,687c15.5,2.4,24,1,37-8.1l2,3c-6,3.4-12.1,6.5-19,7.4-3.4.3-6.8,0-10.2-.3-3.3-.4-6.6-1.1-9.8-1.9v-.2h0Z"/>
      <path class="st4" d="M585.3,687.8c-4.9,2-9.6,4-14.8,5.1-5.2,1-10.5-.2-15.5-1.2,4.9.4,10.3.7,15.1-.7,4.7-1.6,9.3-4,13.7-6.4l1.5,3.1h0Z"/>
    </g>
    <g class="st2">
      <path class="st4" d="M581.5,675.3c-2,3.1-5.5,4.8-8.7,6.1-8.7,4-18.6,4.9-28,3.5,6.1-.3,12.3-1.2,18.1-3,4.3-1.2,8.2-3.5,11.5-6.5.9-.8,1.7-1.6,2.4-2.5,0,0,0,0,0,0l4.7,2.4h0Z"/>
      <path class="st4" d="M547.5,686.8c11.6.8,25.3,1.5,34-7.5l3,2c-8.9,10.8-25,8.8-37.1,5.5h0Z"/>
      <path class="st4" d="M587.6,687.9c-2.2,2.4-5.4,3.6-8.4,4.5-8.6,2.6-17.7,1.3-25.8-2.1,2.8.5,5.7.9,8.5,1.1,5.6.6,11.1-.3,16.4-2.1,2.3-.8,4.6-1.8,6.4-3.3l.2-.2,2.7,2.1h0Z"/>
    </g>
    <g class="st2">
      <path class="st3" d="M546.5,688.4c-10.1,0-17.7-1.9-18.2-2.1l.9-3.3c.2,0,20.2,5.2,38.4-1.5,7-2.6,10.5-7.1,10.5-7.2l2.7,2c-.2.2-4.1,5.4-12.1,8.3-7.7,2.8-15.5,3.7-22.3,3.7h0Z"/>
      <path class="st3" d="M553.2,693.7c-12.4,0-24.3-3.2-24.9-3.3l.9-3.3c.2,0,21.8,5.8,36.3,1.8,12.8-3.5,17.1-8.9,17.1-8.9l2.7,2.1c-.2.3-4.9,6.3-18.9,10.1-4.1,1.1-8.7,1.6-13.2,1.6h0Z"/>
    </g>
    <circle class="st0" cx="559" cy="689" r="6.9"/>
  </g>
  <g>
    <path class="st1" d="M388.8,277.1v-2.2c0-4.5-1.6-6.6-3.8-7.7,2.1-1,3.5-3.1,3.5-7.7v-1.6c0-8.4-4.7-9.2-9.9-9.2h-12.1v7.1h1.3v23.6h-1.3v7.1h12.2c5.2,0,10.2-1.1,10.2-9.5h-.1ZM375.9,255.9h2c1.9,0,2.6.6,2.6,2.6v2.1c0,2-.7,2.6-2.6,2.6h-2v-7.4h0ZM375.9,279.5v-9.1h2c1.9,0,2.6.6,2.6,2.6v3.6c0,1.9-.7,2.8-2.6,2.8h-2Z"/>
    <path class="st1" d="M433.8,287.3c6.8,0,10.5-3.6,10.5-11v-17.2c0-7.4-3.7-11-10.5-11s-10.6,3.6-10.6,11v17.2c0,7.4,3.7,11,10.6,11ZM431.4,258c0-1.8.7-2.8,2.4-2.8s2.4.9,2.4,2.8v19.5c0,1.8-.8,2.8-2.4,2.8s-2.4-.9-2.4-2.8v-19.5Z"/>
    <path class="st1" d="M485.8,283.9c1.1,2.3,3,3.4,5.7,3.4,4.5,0,7.7-2.5,7.7-9.5v-1.1c0-13-12.2-11.4-12.2-18.5v-.3c0-1.8.5-2.8,2.3-2.8s2.2.9,2.2,2.8v3.3h7.2v-12.5h-6.6v2.6c-1.1-2.3-3-3.3-5.7-3.3-4.5,0-7.6,2.5-7.6,9.5v.5c0,13,12.2,11.4,12.2,18.4v.9c0,1.8-.6,2.7-2.4,2.7s-2.3-.9-2.3-2.8v-4.2h-7.6v13.4h7v-2.7.2Z"/>
    <polygon class="st1" points="539.2 255.9 541.3 255.9 541.3 279.5 539.8 279.5 539.8 286.6 551 286.6 551 279.5 549.5 279.5 549.5 255.9 551.6 255.9 551.6 262 558 262 558 248.8 532.8 248.8 532.8 262 539.2 262 539.2 255.9"/>
    <path class="st1" d="M602.6,287.3c6.8,0,10.5-3.6,10.5-11v-17.2c0-7.4-3.7-11-10.5-11s-10.6,3.6-10.6,11v17.2c0,7.4,3.7,11,10.6,11ZM600.2,258c0-1.8.7-2.8,2.4-2.8s2.4.9,2.4,2.8v19.5c0,1.8-.8,2.8-2.4,2.8s-2.4-.9-2.4-2.8v-19.5Z"/>
    <path class="st1" d="M656.7,279.5h-1.3v-9.5c0-2.7-.2-6.7-.4-9.4.6,2.6,1.2,5.8,2.1,9.3l4.2,16.7h9.9v-30.7h1.3v-7.1h-9.5v7.1h1.4v6.7c0,2.2.2,6.1.3,8.9-.5-2.8-1.3-6.5-2-9.4l-3.5-13.4h-12v7.1h1.3v23.6h-1.3v7.1h9.5v-7.1h0Z"/>
    <path class="st1" d="M280.5,597.2c7.6-1.9,15.1-3.7,22.7-5.4,12.1-49.4,24-97.7,35.5-144.9,2-.2,4-.4,6-.6,2.9-12.3,5.8-24.6,8.7-36.8-16.4,1.1-32.8,2.4-49.1,3.9-3.7,12.8-7.4,25.7-11.2,38.7,3.6-.5,7.1-.9,10.7-1.3-7.7,27.5-15.5,55.4-23.3,83.9-3.5,12.5-9,19.7-17.3,21.6-8.6,2-10.5-3.6-6.7-16.5,19.5-66.3,38.5-129.5,56.8-190.5,2.4-7.8,6.1-11.8,12.7-11.9,5.7-.1,8.3,3.9,6.2,11.6-4.2,15.1-8.4,30.2-12.7,45.5,10.5-.7,20.9-1.4,31.4-2,6.6-27.4,13.2-54.6,19.6-81.4h-25.6c-1.1,3.8-2.1,7.7-3.2,11.6-1.5-9.8-7.5-14.4-17.7-14.5-18.1,0-32.3,12-42.5,42.6-20.1,60.1-40.9,123.1-62.1,189.7-20.3,64.5-8.9,82.9,17.7,74.3,17.8-5.5,34-18.7,45.8-39.4-.8,7.3-1.6,14.6-2.5,21.9h.1Z"/>
    <path class="st1" d="M411.5,338.7h4.9c1.5-9.3,3-18.5,4.5-27.7h-39.9c-2.1,9.4-4.2,18.9-6.3,28.4h5.2c-12.9,59.2-26.3,119.5-40.2,181.3-10.7,47.4,3.2,68.2,39.5,62.5,36.7-5.3,58.9-29.5,63.3-73.2,5.9-57.5,11.6-114.7,17-171.7h5.2c.8-9.1,1.6-18.2,2.3-27.3h-38c-1.4,9.2-2.7,18.4-4.1,27.6h5.2c-8.4,58.9-17.1,118.4-26.3,178.4-1.7,11.1-6.3,16.7-14.7,17.6-8.8,1-11.3-3.8-9.2-15.1,11.1-61.1,21.7-121.2,31.8-180.7h-.2Z"/>
    <path class="st1" d="M739.3,859.9c-.3-.7-.3-1.1-.5-1.7-.8-4-2.2-6.3-6.4-10.4-2.2-2.2-5.5-5.2-10.7-9.7-3.7-3.3-8.3-7.3-14.2-12.4-1.3-1.2-2.7-2.3-4-3.4,3.2-2.7,7.4-6.7,10.3-10.6l211.8-147.8-155.9-460.8h-502.2l-155.9,460.8,197.9,138.1c-2.4,2.6-4.2,4.5-5.1,5.5h0q0,0-.1,0h-.2l-8.5-4.3-1.6,7.6-1-2.7-2.7-1.4c-1.2-.6-3.3-1.3-6.7-1.3s-7.2.7-11.6,2c-2.3.7-4.7,1.5-7.3,2.5-15.7,6.3-19.3,22-18.9,30.3l.3,6.4,6.3,1.2c.6,0,7.2,1.4,15.4,2.6-4,3.5-7.3,8.4-7.9,14.7-1.1,10.2.6,16.4,4.4,20.3l2.7,2.2,3.4-.4c4.4-.5,26.8-3.5,35.3-7.7.3-.2,24.2-11.9,39.3-21.3,5.3-3.3,9.5-6.2,11.3-8.3,1.2-1.4,5.1-4.7,10-8.7l152.6,106.4,100.7-70.2c4.1-.3,9.1-.8,13.2-1.7,9.4-2.1,24.8-16.6,29.3-21l3.5-3.4c6.8,3.1,13.9,6.8,21.2,11.1,2.1,1.2,4.2,2.5,6.4,3.8.4.2.7.4,1,.6l-1.8,13.3,1.7,5.5c.2.7,2.5,7.6,10.9,19.6,3.9,5.5,12,12.1,28.7,12.1s6.9-.4,7.2-.5l7.9-1.2-1-7.9c-.9-6.6-5.3-40.2-8.2-48h-.3ZM142.7,653.6l143.6-424.4h464.7l143.6,424.4-183.6,128.1c-2.6-3.3-6-6.5-9.9-9.4-6.8-5-15-7.4-22.5-8.5,1.9-3.7,3.8-8.4,5.5-14.1,3-10.5,1.8-19.2-.6-25.8,4.8-.4,10.9-1,18.4-2.1,11-1.6,19.6-5,25.3-7.9,4.2,5.4,11,11.1,21.2,13.9,3.2.9,6.1,1.3,8.8,1.3h0c6.7,0,10.7-2.7,12.9-5.1,1.2-1.2,2.1-2.6,2.7-3.9,5.1-.5,10.4-1.8,13.6-4.4,6.5-5.4,3.6-13,1.7-16.9,1.1-1.3,2.4-3.2,3.2-5.7,2.8-8-2.5-15.3-4.9-18l-23.6-42.1-23.8-38.8c14.9,3.5,29.8,7.4,44.6,11.7,27.3,8.3,51,2.7,30.1-64.1-20.8-65.5-41.2-127.5-61-186.6-12.5-37.4-34.9-44.1-53.9-44.2h-43.2c2.2,9.5,4.3,18.9,6.5,28.5,1.6,0,3.3,0,4.9.1,15.5,65.1,31.6,131.9,48.4,200.9-2.1-.4-4.3-.8-6.4-1.1,2.4,10.1,4.8,20.2,7.2,30.4-2.4-1.3-4.6-2.4-6.7-3.2-2.2-9.3-4.3-18.5-6.4-27.7-.9,0-1.8-.3-2.6-.4-3-.5-4.5-2.2-5.4-6.1-4.5-20-9-39.9-13.4-59.6-6.3-28.3-16.9-40.8-28.8-46.8,9.8-4.1,15.2-14.5,10.1-37.8-2.8-13-5.7-25.9-8.5-38.8-7.4-34.1-27.3-38.3-46.3-38.3h-44.3c.7,9.1,1.5,18.2,2.3,27.3h4.9c4.6,50.8,9.5,101.8,14.5,152.9-2.8-.3-5.9-.5-9.3-.5s-5.2,0-7.9.3c-1.7.1-3.3.3-4.9.5-11-60.5-21.5-120.6-31.3-180.5h-39.1c-11.7,70.7-24.2,141.7-37.6,213.5-2.7,0-5.3.3-8,.5-1.5,15.4-2.9,30.8-4.4,46.2,8.6-.6,17.1-1.2,25.7-1.6,1.6,2.5,3.5,4.7,5.6,6.6-12.6,3.4-19.4,10.9-22.4,16.8l-17,7.5-1.1,17.4c-.9,1-2.5,2.8-5.4,5.7-7.4,7.4-9.1,14.5-9.2,19.3-1.6,1.7-3.8,4.2-6.6,7.6l-56.1-6.3-4.9-.8c-1-.3-2-.5-3-.6h-2.3c-5.4.2-10.2,3.1-12.9,7.8-.9,1.6-2.2,4.3-2.8,7.8-.9,5.3.5,9.5,1.8,12.3-4.8,2.5-7.6,4.5-7.9,4.8l-8.1,6.2h-.9c-23-2.3-30.6-9.2-31.6-10.3l-9-15.2-5.3,17.8c-.3.9-6.6,22.7,5.7,44.1,3.3,5.8,7.7,10.2,12.9,13l-5.4,3.7,15.6,5c.5.2,11.8,3.7,27,3.7s13.4-.7,19.7-2.1c6.1-1.4,12.3-3.7,18.2-6.4-2.2,4.7-4.1,9.5-5.6,13.6-.8,2.2-1.9,4.9-2.6,6.4h-.4c-1.4,0-2.9-.3-3.3-.4l-6.8-1.9-2.8,6.5s-4.4,10.1-7.7,15.3c-.9,1.5-3.6,4.7-7,8.5l-184.6-128.8v-.7ZM698.8,340.3c2.5,0,5,.1,7.5.2,7.5.2,11.3,3.5,14,12.4,17.4,58.1,35.5,118.3,54,181.2,4.2,14.4,2.1,18.9-7.6,16.7-3.2-.7-6.5-1.5-9.7-2.2-20.1-72.4-39.5-141.5-58.1-208.3h-.1ZM594,588.8c1.8-.5,3.2-1.3,4.1-2,4.6-3.6,6.9-8.1,8.2-11.7l6.2-2c10.3,1,20.6,2.2,30.9,3.6-7.6,3.4-13.5,7.9-17.7,13.2-8.5,11-30.3,27.1-30.5,27.3l-2,1.5c1.2-7,2-13.8,2-19.2s-.4-7.8-1.1-10.7h-.1ZM642.2,555.6c1.9-.4,3.1-.7,3.3-.7l6.5-1.5-.3-6.7c0-1.2-.8-12.6-12.1-27.4-4.1-5.4-8-8.6-11.6-10.6-3.4-22.5-6.8-44.9-10.1-67.3,1.6,0,3.1.2,4.7.3,11.8.7,17.1,6.1,21.1,28.5,4.7,26.4,9.5,52.9,14.4,79.7,1.6,8.7,3.6,15.5,6.7,20.7-5.2.8-10.3,2.1-15,3.6-1.5.5-2.9,1-4.3,1.6-1.1-6.7-2.2-13.5-3.3-20.2h0ZM602.9,338.5h7.8c7.5,0,10.5,2.9,12,11.1,2.5,14.8,5.1,29.7,7.7,44.6,1.7,9.5-.7,12.6-9,12.2-2.9-.1-5.8-.3-8.7-.4-3.3-22.6-6.6-45.2-9.8-67.7v.2ZM510.3,523.8l-.9,1.5-4.4-1.1v-1.4h-5.9c-.9,0-2.1-.2-3.5-.2h-1.6c1-7,1.9-14,2.9-21,9.5-.1,19.1-.2,28.6-.1.2,1.9.5,3.8.7,5.7-10.2,8-15.4,15.9-15.8,16.6h-.1ZM501.7,463.5c.4-4.6.9-9.1,1.3-13.7,2.9-29.1,7.2-65.9,9.3-97.8,1.3,31.9,4.8,68.7,7.3,97.8.4,4.6.7,9.1,1.1,13.7h-19,0ZM349.9,844.7c-4.9,5.8-40.3,23.8-48,27.6s-32.7,6.9-32.7,6.9c0,0-2.6-2.1-1.5-13.2.8-8,8.3-12.2,12.4-13.9,1.5-.6,2.6-.9,2.6-.9l1.6,1.4,5.1,4.4,8.4-.8,1.5-3.3v-.2s9.9-3.2,18-7c2.5-1.2,4.9-2.4,6.7-3.6,4.3-2.8,5.6-4.6,7.7-7.7,1.7-2.4,4-5.5,8.9-10.2,2.9-2.9,7.4-4.8,12.4-6,13.8-3.4,31.7-1.7,31.7-1.7,0,0-29.9,22.4-34.9,28.1h0ZM518.7,915.9l-130.9-91.4c.7-.5,1.3-1,1.9-1.4l6.3-4.7c5.1,2,9,4.7,11.4,6.6,4.4,3.7,10,5.7,15.7,5.7s1.3,0,2,0c4.9-.4,11.6-2.4,17.6-6.9.2.8.4,1.5.5,2l1.3,4.6,36,8.3.3-2.7h.2c3.2,1.1,7,1.6,11.7,1.6s12.4-1.1,12.7-1.1l6.3-1.1.4-6.4c0-.9,0-4.1-1.2-7.9,5.8,1.7,12.6,3.7,18.6,5.4,4.8,1.4,10.8,2.1,17.6,2.1s16.9-1.1,20.6-1.7c3.6,1.2,11.8,3.7,22.5,6.4-4.3,2.1-9.9,5.3-16.4,10.3-14.9,11.4-16.4,24.1-16.5,25.5l-.7,8.2,8.2.5c.3,0,3.4.2,7.7.4l-54,37.7h.2ZM630.8,867.9c-7.9,1.8-19.9,1.8-19.9,1.8l-1.9-2c-.7-.7-1.9-.7-2.6,0-.8.9-2,1.9-3.5,2.7-3,1.5-37.3-.7-37.3-.7,0,0,.8-10.2,13.3-19.7s21.7-12.2,21.7-12.2l6.6,10.9,8.9.5s-1.7-9.4,2.7-10h.5c.9,0,2.7.3,5,.9,10.5,2.4,32.2,9,32.2,9,0,0-17.6,17.1-25.5,18.9h-.2ZM711.3,900.7c-7.9-11.3-9.8-17.3-9.8-17.3l10.6-7.9-.3-8.2-9.8,1.5s2.4-4.9-2.8-8-36.7-24.3-68.5-28-62.3-14.1-62.3-14.1c0,0-22.4,4.2-36.7.2s-32.9-9.6-32.9-9.6c0,0-.3,2.2-2,4.2s-3.3,2.7-3.3,2.7c0,0,4.6.3,7.6,4.1,3.1,3.8,2.8,8.4,2.8,8.4,0,0-13,2.3-20.3-.2s-9.9-4.1-9.9-4.1l-.4,4.4-22.4-5.2s-2.9-10,.6-14.3c3.4-4.2,8.3-14.2,10.7-26,.4-1.8.7-3.3.9-4.7,1.3-7.1.3-14.4-3.2-20.7-.4-.7-.8-1.4-1.2-1.9-2.7-3.6-4.4-2.3-4.4-2.3,0,0,6.2,11.4,4,24.1s-4.8,23-15.6,35.3c-5.3,6.1-12.7,9.2-18.2,9.6-4.3.3-8.6-1-11.9-3.7-5-4.1-14.7-10.4-27.8-10.9-19.6-.7-32.1.7-32.1.7l-38.9,29.7s-4.5,5-15.1,6.6-45-5-45-5c0,0-.7-16.6,13.8-22.4,14.6-5.8,18.9-3.6,18.9-3.6l4,10.3,8.8.7,2.1-9.7s5.3,2.1,9.3-2.3,26.9-28.7,30.7-34.6c3.7-5.9,8.3-16.5,8.3-16.5,0,0,9.4,2.6,12.2-2.1,2.9-4.7,7.5-21.9,15.1-32.1,7.6-10.2,13.6-19.2,13.6-19.2,0,0-24.5,19.5-46.8,24.5s-42.4-1.4-42.4-1.4l10.4-7.2s-18.3,7.7-29-10.9c-10.7-18.6-5-37.8-5-37.8,0,0,7.5,10.5,37.3,13.5s34.2-1.8,34.2-1.8l-19.5-6s9.3-7.1,25-10.3h-1.3c0,0-5.5-.5-5.5-.5h-2c-2.4-.3-4.5-1.7-5.7-3.8h0c-.9-1.7-1.8-4.3-1.2-7.6.4-2.3,1.2-4,1.8-5.1,1.3-2.2,3.6-3.6,6.2-3.7h1.1c.7,0,1.3.2,1.9.5l5.8.9,51.3,5.7,9.3,1c7.7-9.6,11.6-13.1,11.6-13.1,0,0-2.6-7.4,6.5-16.5s7.7-9.1,7.7-9.1l.9-14.3,15.5-6.8s2.6-11,18.6-15.1,17.9-5.5,17.9-5.5c0,0-28-7.9-20.7-29.6,7.3-21.8,25.1-17.4,25.1-17.4,0,0-12.8,5.1-9.8,12.9,3,7.8,6.4,8.9,6.4,8.9,0,0-1.9-5,.7-9.5s6.9-5.1,6.9-5.1c0,0-3,4.9-.5,8.6,2.5,3.7,4,3.1,4,3.1,0,0,.7-4.4,6.3-6.1,5.5-1.7,4.9,1.4,8.5,0s3-6.3,10.8-4.2c7.9,2.1,9.7,3.8,9.7,3.8l2.8-5.6-28.1-9.7s16.8-26.7,52-29.2,39.1,13.2,42.9,14.2c3.8,1,11-2.2,21.1,10.9,10.1,13.2,10.5,22.8,10.5,22.8,0,0-12.9,3-22.9,3.7s-14.2.4-14.2.4c0,0-1.8,4.7-1.5,7.6.3,2.9.8,8,.8,8l-6.4,2.1s-.7,7.2-6.4,11.6c-2.9,2.3-10.4-1.6-10.4-1.6l-2,4.6s6.3.2,6.3,16.1-3.7,27.6-6.2,38.2c-1.5,6.4-5.8,11.7-11.7,14.5h-.2c-5.7,2.7-8.5,3.3-8.5,3.3,0,0,2.3,3.8,8.9,4.3,6.7.6,9.3-.8,9.3-.8,0,0-1.5,2-3.7,4.5h.9c2.1.2,4.1.9,5.9,2,8-12.2,10.9-17,10.9-17h-.4c-3.1.6-6.2.7-9.3.3,0,0,12.5-7.4,20-15.2,6.4-6.7,6.8-10.1,6.8-10.1h-.2c-3.2.8-6.4.9-9.6.2h0s22.8-16.8,32.2-28.9c9.3-12.1,30-16.9,44.5-17.4s17.7,4.5,17.7,4.5l-2.4-10.2s9.6-2.1,23.5,6.8c7.6,4.9,11.8,11.8,11.8,11.8l28.8,47,24,42.8s5.6,5.7,3.9,10.6c-1.7,4.9-5.6,4.7-4.7,7.7.8,3,5.4,8.6,2.2,11.3s-14.6,2.9-14.6,2.9c0,0,.5,12.1-16,7.6s-20.4-17.3-20.4-17.3c0,0-10.8,8.3-29.4,11-21.5,3.1-31.1,2.5-31.1,2.5,0,0,12.3,11.8,6.7,31.1-5.6,19.4-14,23.9-14,23.9,0,0,21-2.2,34,7.4,13,9.6,15.3,19.9,12.6,25.4-2.7,5.6-14,14.5-14,14.5,0,0-15-15.1-28.3-19.2-13.3-4-23.6-1.5-23.6-1.5,0,0,25.4,4.4,59.1,33.7,33.7,29.3,26.8,23.6,29.5,31s7.7,46.3,7.7,46.3c0,0-20.2,3-28.1-8.2h0Z"/>
    <path class="st1" d="M407.4,677h-.7c.6.5.6.8.6.8,0,0,0-.3.1-.8Z"/>
    <path class="st1" d="M596.8,514.1c5.4,4.5,9.7,11.5,13.6,17.4,2.2,3.2,4.6,6.8,8.2,9,3.4,2,7.7,1.7,11.5,1.4.8,0,3.6-1,4.5-1.2l-2-2.5-11.6-14.4-.6.4,6.8,13.5c-1.3,0-2.6,0-3.9,0-1.8,0-3.6-1.1-5.2-2.7-6.8-7.3-11.2-16.9-19.4-23.1-21.3-16.7-51.8-1.5-70.2,12.9l.3.4c4-3,8.3-5.7,12.6-8.1,16.4-9,39.4-16.3,55.3-2.9h.1Z"/>
    <path class="st1" d="M642.9,643.7c-1.8,7.3-4.4,14.5-7.5,21.4-8.7,19.3-21.9,37.1-40,48.3-1.5.9-4.5,2.5-6.1,3.3l2.7,3.1c6.6,7.7,12.3,16.8,15.6,26.4,4.6,16.4,1.6,35.7-2.1,52.1h.4c2.2-6.7,3.9-13.6,5.2-20.7,1.3-7.1,2.1-14.2,2-21.5,0-11.1-4.4-21.8-9.8-31.3-1.2-2.1-2.4-4-3.8-6,.6-.4,1.3-.8,1.9-1.2,24.2-15.8,39.5-45.5,41.9-73.9h-.5,0Z"/>
    <path class="st1" d="M472.7,600.7s7.6-4.3,21.2-10.1c17.1-7.3,26.9-9.2,26.9-9.2,0,0-15.5.4-33.3,8.5-14.8,6.7-14.8,7.1-20.9,10l1.1,4.6-13.5,7.7,20.2-7-1.6-4.4h-.1Z"/>
    <path class="st1" d="M459.5,631.5c7.5,3,11.6,5.4,11.6,5.4l-2.9-6,6.1,1.3s-.5-8.5-10-10.8-15.7,2.5-15.7,2.5l5.8,2-8.6,3.8s6.3-1.2,13.8,1.8h0Z"/>
    <path class="st1" d="M443.8,644s5.1-.4,10.9,1.6,9.4,3.6,9.4,3.6l-1.2-6,4.5,2.7s.4-8.2-8.4-10.5-13.6,2.8-13.6,2.8l4.7,1.3-6.2,4.1v.3h0Z"/>
    <path class="st1" d="M512.6,563.6c7,1.1,5.9,2.7,12.9,3.5s9.2-1.6,9.2-1.6c0,0-3.5.3-5.9-1.1-2.4-1.3-3.2-3-3.2-3,0,0,2.7,1.6,6.7,1.9s5.7-1.3,5.7-1.3c0,0-4.6-1.3-6.5-2.4-1.9-1.1-1.6-2.4-1.6-2.4,0,0,6.2,3.8,11.1,3.5,4.9-.3,7.6-2.4,7.6-2.4,0,0-5.7-.8-7.8-2.7s-2.4-2.7-2.4-2.7l11.1,2.4s-7.3-6.2-10.5-7.8-7.8-1.9-9.7-1.1c-4.6,2,.5,5.1.5,5.1,0,0-10.5-3-14-.5-3.5,2.4,3,4.9,3,4.9,0,0-5.4-.8-10,0-4.6.8-7.6,1.1-5.9,2.4,1.6,1.3,1.1,1.1,1.1,1.1,0,0-8.9,1.6-14.6-2.7s-7-9.7-7-9.7c0,0-5.7,12.1,9.4,17.5s14-1.9,21-.8h-.2Z"/>
    <path class="st1" d="M552,544.2c-2.2-.5-3-1.1-3-1.1,0,0-1.1,5.1,4.6,7.8,5.7,2.7,11.6.8,11.6.8,0,0-4.9-1.5-5.9-2.4-1.1-.9-1.3-1.6-1.3-1.6,0,0,3,2.7,9.2,2.7s8.4-3.5,8.4-3.5l-7.6.2,5.5-2.6s-7.6-.8-12.1-2.4-9.2-3.8-9.2-3.8l3.1,6s-1,.4-3.1,0h-.2Z"/>
    <path class="st1" d="M597.9,557.1c.3-2.7.8-4.9-.8-4.9s-3.9,0-3.9,0l-.2,3.9s-5.7-2.4-5.1-3.5c.5-1.1,1.6-1.6.8-2.4-.8-.8-1.2-2.4-1.2-2.4l5.8,2.2,1.6-1.2-10.7-5.3s-11.6,11.6-11.6,13.5,2.2,10.5,10,14.8,10,5.1,10.3,3.5-1.1-2.4.3-3.8,1.9-1.7,1.1-2.3c-.8-.6-4.3-2-4.3-2,0,0,7.6,1.3,7-.8-.5-2.2-2.2-3.2-.8-3.2s4.6,1.6,3.8-1.1-2.2-2.4-1.9-5.1h-.2Z"/>
    <path class="st1" d="M545.3,703c-1.3-.4-3.1-.8-4.9-1.1.9,5.1,1.9,11,2.3,16.5.9,10.4-.9,21.6-1.8,25.9l-18-1c-1,1.4-1.7,2.9-2.3,4.5l24,1.3.4-1.9c0-.6,3.4-15.3,2.2-29.2-.4-5-1.2-10.3-2-15h0Z"/>
    <path class="st1" d="M480.1,740.9l-49.6-2.8c-1.8-4.7-7.6-21.6-5-38.8,1.6-11.1,2.8-13.4,2.9-13.5,0,0-.1.2-.1.2l-3.7-2.8c-1.1,1.5-2.4,7.1-3.6,15.4-3.2,21.5,5.5,41.7,5.9,42.6l.6,1.3,52.8,2.9c.1-1.6,0-3.2,0-4.6h-.2Z"/>
    <path class="st1" d="M475.3,788s3.4-13.7,12-25c1.8-2.4,3.4-4.6,4.8-6.5,5.3-7.2,7.8-11,7.8-11,0,0,1.2,1.2,3.6,2s4.6,0,4.6,0c0,0-7.5-6.7-12.1-11.5-2.1-2.1-4.3-4.3-6.1-6.1-2.4-2.4-4.2-4.1-4.2-4.1,0,0,.2,1.7.9,3.9.5,1.5,1.3,3.3,2.5,5.1,2.9,4.4,4.6,5.6,4.6,5.6,0,0-6.2,6.5-10.9,14.8-2.2,3.8-4,8-4.8,12.1-2.4,13-2.7,20.8-2.7,20.8h0Z"/>
    <path class="st1" d="M488.7,794.8s-1-.9-.3-8.7c.7-7.9,2.4-11.7,2.4-11.7,0,0-6.2,6-6.3,12.7v6.8s-8.8-1.6-13.9,6.1c-5,7.7-2.8,16.5-2.8,16.5,0,0,6.6-19.7,14.8-17.9,8.2,1.8,4.5,13.7,4.5,13.7,0,0,6.7.6,6.6-7s-5-10.5-5-10.5h0Z"/>
    <path class="st1" d="M477.7,811s-1.1,4.5,6.5,9.2,12.2,2.3,12.2,2.3c0,0-5.8-1.3-10.8-4.9-5-3.6-7.9-6.7-7.9-6.7h0Z"/>
    <path class="st1" d="M519,712.2c-3.7-9.5-7.6-17.8-10.8-24l-1.9-.2h0l-29.2-3.3c8.3,14.2,23.1,28.9,23.1,28.9l-8.5,5.3h.2c2.9.4,5.7,1.5,8.1,3.1l-4.3,4.9,1.2-.3c2.7-.6,5.4-.5,8.1,0h.6c0,0-2.8,3-2.8,3-.2.2-.4.5-.6.7-.8,1.4-.7,3.2.5,4.5l2.7,2.8s4-2.5,7.8-6.6c4.4-4.8,8.6-11.6,5.7-19.1v.2Z"/>
    <path class="st1" d="M471.9,664.9l18.1,2c4.1-.9,11.8-2.7,20.1-5.5,6.8-2.3,10.3-5.1,10.3-5.1,0,0-32.5,4-39.9,5.2-3.8.7-7.1,1.2-8.6,3.3h0Z"/>
    <path class="st1" d="M689,627.2c2-.8,3-3.1,2.2-5.2-.8-2-3.1-3-5.2-2.2-2,.8-3,3.1-2.2,5.2.8,2,3.1,3,5.2,2.2Z"/>
    <path class="st1" d="M684.6,665.9l1.5-13.4s2.1,5.3,4.9,9.2c2.9,3.9,9.7,5.8,9.7,5.8,0,0-8.9-9.3-11-16.9-2.2-7.6-3.7-12.2-3.7-12.2,0,0-4,5.6-3.9,13.5,0,6.2,2.5,14,2.5,14h0Z"/>
    <path class="st1" d="M682.1,631.3l-2.2-4.4s-5.4,2.6-8.1,19.8c-2.7,17.2,2.2,24.7,2.2,24.7l4.2,2.3s-3.2-3.8-2.5-20.5,6.3-21.9,6.3-21.9h0Z"/>
    <path class="st1" d="M691.1,617.2l2.8,3.2s4.5-5.5,14.9-9.9c10.4-4.5,18.3-6.3,18.3-6.3l-1.5-3.7s-14.5,3.9-22.2,7.9c-8.1,4.2-12.3,8.9-12.3,8.9h0Z"/>
    <path class="st1" d="M694,627.3l-5.3,3.6s1.9,3.3,11.6,19c9.6,15.7,24.5,32.9,24.5,32.9l1.6-6.5s-9.3-11.4-14.5-19.1c-7.2-10.6-17.9-29.8-17.9-29.8h0Z"/>
    <polygon class="st1" points="744.6 679.9 765.7 667.8 763.7 664.3 741.3 677.2 744.6 679.9"/>
    <path class="st1" d="M701.8,620.8l1.4,2,3.9-2.6c1.6-1.1,3.5-1.6,5.4-1.4,0,0-.8,1.5-.4,5.6.4,4.1,5.5,5.8,5.5,5.8,0,0-1.1-8,.6-9.9,0,0,.8-1.4.9-1.5,2.8-2.8,7.4-3.6,10-.6l28.6,44.2,3.4-2.2s-21-34.2-24-39.9c-3-5.5-8-13.3-8-13.3,0,0-13,4.1-19.5,8.4-6.5,4.3-7.8,5.4-7.8,5.4h0Z"/>
    <path class="st1" d="M768.9,679.7s-2.5,0-4.3,3.2c-3.1,5.4.4,10.3.4,10.3,0,0,2.7-9.6,5.6-8.9,2.7.7,2.6,4.1.4,7.1-2.7,3.8.2,9.7.2,9.7l5-10.5c1-2.1,1.3-3.6-.6-6.4l-1.3-2.2-6.9-11.5-3,1.8,4.6,7.4h-.1Z"/>
    <path class="st1" d="M736.3,679.6c-13-1.9-4.7,12.3-4.7,12.3,0,0,0-6.3,3.9-6.2,3.4.2,1.3,7.1,1.3,7.1,0,0,10.1-11.7-.6-13.2h0Z"/>
    <path class="st1" d="M729.6,628.9s2.1-4.7-3.4-6.3c-2.9-.9-6,0-6.1,4.7,0,6.2,7.1,4.9,7.1,4.9,0,0-4.6-2.5-2.5-4.7,2.1-2.3,4.9,1.5,4.9,1.5h0Z"/>
    <path class="st1" d="M748,695.4l-2.6-4.4-.3,4.1c-.6,7.1,4.3,13.6,11.3,15l3.4.7-3.7-4.2c-3.1-3.4-5.8-7.2-8.1-11.2h0Z"/>
    <path class="st1" d="M673.8,597.6c11.2-1.4,7.4,9.9,7.4,9.9,0,0,3.5-2.8,5.6-7.1s-4.9-8-4.9-8c0,0,2.5-.4,6.4,0,4.2.5,9,4.8,9,4.8,0,0,1.4-8.4-11.8-11.7-9.8-2.5-24.8,3.4-24.8,3.4,0,0,6,9.5,13,8.6h0Z"/>
    <path class="st1" d="M703.6,585.4c2,3.8,1.5,6.9,1.5,6.9l5.9-4.1s-.2-4.5-5-7.3-8.7-2.4-8.7-2.4c0,0,4.2,3.1,6.2,6.9h0Z"/>
    <path class="st1" d="M619.8,642c8.7-7.3,16.1-6.6,16.1-6.6,0,0,2.5-2,3.8-5.9s1-4.8,1-4.8c0,0-12.7-.9-19.6,7.3-6.9,8.3-19.6,9.9-19.6,9.9,0,0,8.6,8.1,18.2,0h0Z"/>
    <path class="st1" d="M604.6,666.8c5.1-2.5,4.3-5.5,9.6-5.4s7,0,7,0c0,0,1.1-2.7,1.7-5.1.5-2.4,0-4.5,0-4.5,0,0-8.7-1.6-15.5,4-6.8,5.5-4.4,6.4-8.5,8.5s-8.3,2.9-8.3,2.9c0,0,5.9,3.7,14-.3h0Z"/>
    <path class="st1" d="M635.9,614.1c2.4-5.5,12.1-4.4,12.1-4.4,0,0,.9-3,1.1-3.8.4-1.9.6-4.3.6-4.3,0,0-12.3-3.5-18.7,8.7-3.2,6.2-11.6,7.2-11.6,7.2,0,0,13.6,3.2,16.5-3.4h0Z"/>
    <path class="st1" d="M568,618c-8,9.3-12.7,18.4-14.4,28-2,11.2-2.4,19.4-2.5,19.8l4.6.2s.4-8.3,2.4-19.2c1.6-8.8,6-17.3,13.4-25.9,6-7,10.1-20.4,10.2-21l-4.4-1.3c0,0-3.9,13-9.3,19.3h0Z"/>
    <path class="st1" d="M696.8,689c-12.2-.6-16.2-8.7-16.2-8.7,0,0-3,3.9-6.5,8.3-3.5,4.4-8.1,15.4-8.1,15.4,0,0,3.2,1.7,21.7.8s38.6-9,38.6-9l-13.8-9.3s-3.6,3.1-15.8,2.4h0Z"/>
    <path class="st1" d="M477.1,650.7c.2,0,1.7,0,4.1,0,7.9,0,25.9-1.4,42.1-12.7,20.7-14.5,24.8-36.9,25.6-43.4.6-4.8,1.3-15.8,1.3-16.3l-4.6-.3c0,0-.7,11.3-1.3,16-.7,6-4.5,26.7-23.6,40.2-19.6,13.7-42.9,11.8-43.1,11.8l-.4,4.6h-.1Z"/>
    <path class="st1" d="M482.9,641.4c1.5,0,2.8-1.2,2.8-2.8s-1.2-2.8-2.8-2.8-2.8,1.2-2.8,2.8,1.2,2.8,2.8,2.8Z"/>
    <path class="st1" d="M542.5,584.2c0-1.5-1.2-2.8-2.8-2.8s-2.8,1.2-2.8,2.8,1.2,2.8,2.8,2.8,2.8-1.2,2.8-2.8Z"/>
    <path class="st1" d="M499.7,637c0-1.5-1.2-2.8-2.8-2.8s-2.8,1.2-2.8,2.8,1.2,2.8,2.8,2.8,2.8-1.2,2.8-2.8Z"/>
    <path class="st1" d="M512.9,633.9c0-1.5-1.2-2.8-2.8-2.8s-2.8,1.2-2.8,2.8,1.2,2.8,2.8,2.8,2.8-1.2,2.8-2.8Z"/>
    <path class="st1" d="M523.6,626.9c0-1.5-1.2-2.8-2.8-2.8s-2.8,1.2-2.8,2.8,1.2,2.8,2.8,2.8,2.8-1.2,2.8-2.8Z"/>
    <path class="st1" d="M531.6,618.3c0-1.5-1.2-2.8-2.8-2.8s-2.8,1.2-2.8,2.8,1.2,2.8,2.8,2.8,2.8-1.2,2.8-2.8Z"/>
    <path class="st1" d="M532.5,607.8c0,1.5,1.2,2.8,2.8,2.8s2.8-1.2,2.8-2.8-1.2-2.8-2.8-2.8-2.8,1.2-2.8,2.8Z"/>
    <path class="st1" d="M535.3,596c0,1.5,1.2,2.8,2.8,2.8s2.8-1.2,2.8-2.8-1.2-2.8-2.8-2.8-2.8,1.2-2.8,2.8Z"/>
    <path class="st1" d="M562.5,612.9c-9.6,8-18.6,16.1-28.5,23.5-12.4,9.6-27.9,13.8-42.8,18.2v.4c14.4,0,29.3-3,41.7-10.8,9-6.1,16.8-13.9,23.4-22.4,2.2-2.9,4.3-5.8,6.1-8.9h0Z"/>
    <path class="st1" d="M542.9,652.5c-1.2,4.4.2,9.4,3.4,12.5l.4-.4c-1.6-2.7-2.3-6-1.5-9l.2-.7.3-.7c1.1-2.7,2.1-5.3,2.8-8.2.6-2.7,1.2-6.1-.4-8.7l-4.5,3.5h0v-.2c.6,1.4.5,3,.5,4.6,0,2.3-.6,4.8-1.1,7.1v.2Z"/>
    <path class="st1" d="M543.5,640.6h0c0,0,0,0,0-.1h0Z"/>
    <path class="st1" d="M569.7,594.5s0,4.3-11.6,8.1c-5.9,1.9-4.6,11.2-4.6,11.2,0,0,3-6.2,12.2-9.4,7.1-2.4,4-9.9,4-9.9h0Z"/>
    <path class="st1" d="M561.7,597c4.3-.9,3.5-6.7,3.5-6.7,0,0-1.4,3.7-7.8,5.2-4.6,1.1-4.5,7.7-4.5,7.7,0,0,2.2-4.8,8.8-6.2Z"/>
    <path class="st1" d="M572.6,579.9c3.5.2,5.1-2.1,5.1-2.1,0,0-3.8.3-10.9-5.8s-7.2-9.5-7.2-9.5c0,0-1.1,1.1-1,4.4,0,3.3,1.6,5.9,1.6,5.9l-4.9-5.4s-1.1,3.5,1.1,10.3,7.6,8.4,7.6,8.4l-.3-4.9s.3,2.2,5.7,4c5.4,1.9,8.4-1,8.4-1,0,0-1.6,0-4.3-.8s-5.4-5.3-5.4-5.3c0,0,1.1,1.8,4.6,1.9h0Z"/>
    <path class="st1" d="M464.8,676.3l49.5,5.5h0c.8,0,1.5.4,2.1.9l.4.4s8.5,4.9,10,6.6c3.5,3.8,11.3,4.3,17.6,5.7.4,0,.8.2,1.1.3,0,0,.3,0,.4,0,.4,0,.7.2,1.1.3,0,0,.3,0,.4,0,.3,0,.7.2,1,.4,0,0,.3,0,.4,0,.4.2.9.4,1.2.6.4.2.8.4,1.1.7,2.2,1.4,4.3,2.8,6.3,3.8,1.7.8,3.4,1.4,5.2,1.3.4,0,.9,0,1.3,0,.3,0,.5,0,.8-.2.8-.2,1.7-.6,2.6-1h0c.4-.2.8-.4,1.2-.6,0,0,.2,0,.3,0,.3,0,.7-.3,1-.4h.2c.9-.3,1.8-.7,2.7-1,9.1-2.9,19.3-3.8,14.2-15.9-6.1-14.4-12.8-13.2-13.6-13.2-4.8-.2-12.5,6.8-23.8,6.9-7.5,0-11.3-.9-15.1-2.7s-6.4-2.6-8.9-1.3c-1.9,1-7.3,1.8-9.6,2.1-.6,0-1.1.6-1.2,1.2l-49.3-5.5h0c-.2,1.5-.5,3.3-.9,5h.3ZM531.2,677.6c.5-.2,1.3-.4,2.6-.5,2.4-.2,4.6,1.3,12.2,2.2,6.8.8,13.4-2.1,18.1-3.4.4,0,.6.5.2.7-1.2.6-2.7,1.4-4.3,2.1,1,0,1.9.3,2.7.7,2.7-1.4,5.6-3.1,9.4-4.8.7-.3,1.5-.3,2.1,0,2.1,1.3,5.9,4.1,8.3,8.9,1.4,2.8,1.9,5.1,1.9,6.7s-1.1,3.7-2.9,4.4c-1.5.7-2.7.7-4.7.9-1.9.2-4.2.5-6.5.6h-4.3c-.8,0-1.5,0-2.1-.2-.9-.2-1.8-.4-2.7-.7-2.7-.8-5.4-2.2-8.5-3.6-1.3-.6-2.6-1.2-4-1.7,0,0-.3,0-.4-.2-.7-.3-1.4-.6-2.2-.8h0c-1.1-.4-2.2-.7-3.3-1.1-6.2-1.8-9.6-4.3-11.1-5.7-.3-.3,0-.8.4-.7,3.1.6,11,1.9,18.4,1.2.5-.7,1.2-1.4,1.9-2-.9,0-1.8.2-2.8.3-9.2.3-15.8-1.1-16.5-1.3h0l-1.8-1.6c-.2-.2,0-.5,0-.6h-.1ZM531,686.8c2.5.4,8.4,1.4,14.5,3.7.6.2,1.1.4,1.7.7.2,0,.4.2.6.2.4.2.9.4,1.3.6h0c1.4.7,2.8,1.4,4,2.2.4.2.7.5,1.1.7,3.5,2,6.7,2.9,9.4,3.2,1.5.2,2.9.2,4,0,.3,0,.5.2.5.5h0c0,0,0,.3-.2.3-.7.3-1.5.6-2.3.8-.8.3-1.6.5-2.4.6-1.1.2-2.1.2-3.1,0-.4,0-.8-.2-1.2-.4s-.9-.4-1.3-.6c-.3,0-.5-.3-.8-.5-.4-.3-.9-.5-1.4-.9-.8-.5-1.7-1.1-2.6-1.8-.3-.2-.6-.4-1-.7-.3-.2-.7-.4-1.1-.7h0c0,0-.2,0-.4-.2h0c-.3,0-.5-.3-.8-.4h-.2c-.2,0-.5-.2-.7-.3h0c-.3,0-.6-.2-.9-.4h0c-.3,0-.6-.2-.9-.3h0c-.6-.2-1.3-.4-2-.6h0c-5-1.4-10.2-2.2-11.2-2.3,0,0-.2,0-.3,0l-2.4-2.7c-.3-.3,0-.8.4-.7h-.2Z"/>
    <path class="st1" d="M431,667.4l-76.3-8.5-7.2-1.1h0c-.2-.3-.6-.3-.7,0-.3.5-.7,1.4-.9,2.7-.2,1.3.1,2.4.5,2.9.1.3.5.3.7,0l7,.4,76,8.5c.2-1.4.5-3.1,1-5h-.1Z"/>
    <path class="st1" d="M555.6,683h0c-.5.3-1,.7-1.5,1.1-.3.3-.6.7-.8,1-.7,1.1-1.2,2.4-1.2,3.9v-1c1,.4,1.9.8,2.7,1.2.3,0,.5.2.8.4,3.3,1.5,6.2,2.9,8.9,3.3h0c-.2.3-.5.7-.8,1,.3-.3.6-.7.9-1.1h0c.2-.2.3-.5.4-.8v-.2c0-.3.2-.6.3-.9h0c0-.3,0-.6.2-.9v-1.1c0-1.2-.3-2.3-.8-3.3s-.7-1.1-1.2-1.6c-1.3-1.3-3-2-4.9-2s-2.4.3-3.4.9h.4Z"/>
    <path class="st1" d="M436.3,678.8c.5,0,.8.2,1.1.2,1.7,0,.9-2.1,2-2.1h.2c1.7.3.7,2.5,3.1,3.2.3,0,.5,0,.7,0,1.2,0,.3-1.6,1.6-1.6h.3c2,.3,0,2.5,2.6,3h.6c1.8,0,1.3-2.1,2.9-2.1h0c1.6,0,1,2.5,4,2.8h.2c2.9,0,4.4-5.3,5.5-12.9,1.1-7.8-.8-11.7-9.1-13.4,0,0-1.8-.6-4.1-.6-3.4,0-7.9,1.2-10.2,6.9-2.6,6.6-4.8,15.4-1.4,16.4h0Z"/>
    <path class="st1" d="M403.4,745.8c-.3-9.4,2.5-18,5.5-26.9-6.9,7.1-10.5,17.1-9.8,27,.4,9.3,2.9,17.2,11,22.6,1,.7,1.9,1.4,2.9,2.1-1.4-1.9-3-3.8-4.4-5.6-4.3-5.4-5.1-12.4-5.2-19.2h0Z"/>
  </g>
</svg>