<?xml version="1.0" encoding="UTF-8"?>
<svg id="Layer_1" xmlns="http://www.w3.org/2000/svg" xmlns:xlink="http://www.w3.org/1999/xlink" version="1.1" viewBox="0 0 1074.4 1074.4">
  <!-- Generator: Adobe Illustrator 30.1.0, SVG Export Plug-In . SVG Version: 2.1.1 Build 136)  -->
  <defs>
    <style>
      .st0 {
        fill: none;
      }

      .st1, .st2 {
        fill: #fff;
      }

      .st1, .st3 {
        display: none;
      }

      .st4 {
        fill: #001f44;
      }

      .st5 {
        fill: #adb6bc;
      }

      .st6 {
        clip-path: url(#clippath);
      }

      .st7 {
        fill: #d80028;
      }
    </style>
    <clipPath id="clippath">
      <circle class="st0" cx="559" cy="689" r="6.9"/>
    </clipPath>
  </defs>
  <g id="Layer_11" data-name="Layer_1">
    <g>
      <g>
        <polygon class="st1" points="256.4 784 772.8 782.7 598.4 1063.5 322.5 1021.3 256.4 784"/>
        <g class="st3">
          <path class="st2" d="M296.7,317.8h64.4c27.6,0,54.4,4.6,48.4,40.6-2.3,13.7-4.6,27.4-7,41.2-4.2,24.7-17.6,36.7-34.5,43,14.7,5,24.2,16.9,18.9,46.8-3.7,21-7.4,42-11.2,63.1-.7,4.2.6,5.6,5.1,5.1,1.3,0,2.6-.2,3.9-.4-2.9,17.4-5.9,34.8-8.9,52.2-15.3,1.8-30.5,3.8-45.7,6.1-23.7,3.8-27.5-5.9-21.8-29.3,7.5-30.6,14.8-60.9,22-90.9,6.1-25.3,1-30.5-16.2-29-2.3.2-4.6.4-6.9.6-9.2,33.9-18.6,68.4-28.2,103.4,3.3-.5,6.6-1.1,10-1.6-5,18.8-10,37.7-15.1,56.9-28.5,5.7-56.8,12.4-85,20.1,6.7-20.9,13.4-41.6,20-62,3.1-.7,6.2-1.3,9.3-2,25.8-81,50.8-158,74.7-231.9-2.4,0-4.7.1-7.1.2,3.6-10.8,7.1-21.5,10.7-32.2h.2ZM331.1,425.5c12.1-.7,17.2-4.6,19.7-15.2,3.9-16.6,7.8-33.2,11.6-49.6,2.1-9.2-.9-12.1-11.8-11.9-3.8,0-7.5.1-11.3.2-6.8,25.5-13.7,51.3-20.8,77.3,4.2-.3,8.4-.5,12.6-.8h0Z"/>
          <path class="st2" d="M465,551.7c3.4,0,6.7-.2,10.1-.3-1,16.9-2,33.9-3,50.9-28.9,1.1-57.8,3.2-86.5,6.3,2.8-17.5,5.6-35,8.4-52.5,3.2-.3,6.3-.5,9.5-.8,10.2-69.7,20-138.9,29.3-207.6h-7.1c1.5-10,2.9-20,4.3-29.9h58c-.5,9.9-1,19.7-1.5,29.6h-7.5c-4.4,68-9,136.1-13.8,204.3h-.2Z"/>
          <path class="st2" d="M495.5,317.8h62.8c27.6,0,57.8,6.9,63.4,43.2,9,58,18.3,116.3,28.1,175.3,10.1,60.1-31.1,68.2-72.5,66.3-31.3-1.4-62.6-1.7-93.9-.8.8-16.9,1.5-33.8,2.3-50.8,3.2,0,6.4,0,9.5-.2,2.2-67.9,4.3-135.7,6.2-203.5h-7.1c.4-9.8.8-19.7,1.2-29.5ZM547.6,347.4c3,67.9,6.1,135.8,9.3,203.8,4.9,0,9.7.3,14.6.4,14.6.5,19.7-4.2,18.5-17.6-5.3-58.3-10.5-116.4-15.4-174.5-.7-8.8-5.2-12.1-16.1-12.1h-10.9,0Z"/>
          <path class="st2" d="M726.7,404.5c-5.3-18.6-10.5-37.1-15.6-55.4-8.9-.2-17.9-.3-26.8-.5,5.8,23.6,11.7,47.3,17.6,71.2,13.4.8,26.9,1.6,40.3,2.5,3.7,12.7,7.5,25.5,11.3,38.3-14.1-1.3-28.2-2.6-42.3-3.7,9.1,36.2,18.4,72.8,27.8,110,11.8,1.8,23.7,3.7,35.5,5.8-9.1-31.8-18-63.1-26.8-94,16.9,1.8,33.8,3.7,50.6,5.9,17.1,51.9,34.6,105.4,52.4,161-56.9-15.6-114.5-27-172.6-34.4-3.3-17.8-6.6-35.5-9.8-53.2,3.2.3,6.3.6,9.5,1-13.8-71.4-27-141.6-39.6-211.1h-7.1c-1.7-10.1-3.4-20.1-5.1-30.1h117.2c9.7,29.3,19.6,59.1,29.6,89.4-15.4-1-30.7-1.9-46.1-2.8h0Z"/>
        </g>
        <g class="st3">
          <path class="st2" d="M324.8,349.4c-2,0-3.9,0-5.9.1-4.7,15-9.5,30.2-14.3,45.5-8.9,28.4-22.7,68.1-34.7,102.4,14.6-34.6,31.5-74.4,44.8-102.9,11.6-25.1,23.1-49.6,34.3-73.8h26.1c-5.7,23.9-11.5,47.9-17.4,72.1-6.8,27.5-17.1,65.6-25.9,98.1,11.7-32.8,25.2-71,35.7-98.5,5.7-14.8,11.3-29.4,16.8-43.9h-5.3c2.9-9.3,5.7-18.6,8.5-27.9h35.8c-2.2,9.2-4.4,18.3-6.6,27.5h-5.1c-29.1,85.2-60.3,173-93.2,265.5-17.8,2.7-35.5,5.8-53.2,9.3,12-41.6,23.7-82.4,35.2-122.5,7.6-26.1,16.9-55.8,24.4-79.5-9.7,23.9-21.7,53.8-32.9,80.5-17.4,41-35.2,83.2-53.3,127-17.3,3.8-34.5,7.9-51.7,12.3,35.7-103.7,70.1-199.7,102.8-290.7-1.7,0-3.4,0-5,.1,4.5-9.9,8.9-19.7,13.3-29.4h38.1c-3.7,9.5-7.5,19.1-11.3,28.7h0Z"/>
          <path class="st2" d="M421.9,548.7c3.6-.2,7.3-.4,10.9-.6.6-8.1,1.2-16.2,1.8-24.3-9.3.5-18.6,1-27.9,1.6-2.5,8.3-4.9,16.6-7.4,24.9,3.6-.3,7.3-.5,10.9-.8-3.6,18.1-7.2,36.2-10.8,54.3-20.2,1.8-40.4,4.1-60.6,6.9,5.1-18.9,10.2-37.7,15.3-56.4,2.6-.3,5.2-.5,7.8-.8,27.4-80.1,53.4-157.3,77.7-233h36.1c-.7,75.3-1.3,150.6-1.9,225.8,2.8,0,5.5,0,8.3-.2-1.6,17.6-3.3,35.3-5,52.9-21.7.7-43.4,1.9-65.1,3.6,3.3-18.1,6.6-36.1,9.9-54h0ZM419.5,481.8c6.1-.3,12.2-.5,18.3-.8.5-5,1.1-10.1,1.6-15.1,3.2-31.6,6.7-70.7,11-103.8-7.5,33.1-18.4,72.4-26.9,104.4-1.3,5.1-2.7,10.2-4,15.3h0Z"/>
          <path class="st2" d="M503.7,545.8h7.9c3.2-66.1,6.3-132.1,9.1-198.2h-8.1c-1,16.7-2,33.4-3,50.1-8.4,0-16.7,0-25.1.1,2.7-25.8,5.4-51.6,8-77.3h86.7c1.9,25.9,3.8,51.8,5.8,77.7-8.4-.1-16.8-.2-25.2-.3-.5-16.7-1-33.5-1.5-50.2h-8.1c.9,66.2,1.9,132.3,2.9,198.5,2.6,0,5.3,0,7.9.2.5,17.6,1,35.2,1.4,52.9-20.7-.7-41.5-.9-62.2-.6,1.1-17.6,2.2-35.2,3.2-52.7l.3-.2Z"/>
          <path class="st2" d="M704.4,534.9c13.2,56.2,1.1,82.9-36.2,78.2-37.2-4.4-59.8-33.5-64.6-86.3-5.3-57.1-10.4-114-15.3-170.8-2.3-27.2,6.2-38.1,22.9-38.1s17,4.4,22.5,13.7c-.6-3.6-1.3-7.3-1.9-10.9h23.8c6.6,29.9,13.3,60,20.2,90.3-10.2-.4-20.3-.8-30.5-1.2-3.2-17.8-6.3-35.5-9.4-53.2-1.3-7.4-5.5-11.3-10.8-11.3s-8.1,3.5-7.1,10.8c8.5,60.1,17.4,120.6,26.7,181.5,1.9,12.5,6.7,19.3,15.5,20.1,8.4.8,11-5.3,8.6-18.1-5.2-28-10.3-55.9-15.3-83.6,11,.6,22,1.3,33,2,5.9,25.5,11.8,51.2,17.9,77h0Z"/>
          <path class="st2" d="M785.6,568.9c2.1.4,4.3.8,6.4,1.1-12.5-38.6-24.7-76.4-36.7-113.5-6.9-.6-13.8-1.2-20.7-1.8,10.8,36.4,21.9,73.4,33.2,111.1,2.3.4,4.5.7,6.8,1.1,6.1,20,12.3,40.3,18.6,60.7-19.6-4.2-39.4-8-59.1-11.3-4.8-19.3-9.6-38.5-14.3-57.6,2.1.3,4.3.6,6.4.9-18.3-72-35.9-142.1-52.6-211h-4.6c-2.2-9.4-4.4-18.7-6.6-28.1h37.2c2.9,9.5,5.7,19.1,8.6,28.7h-4.9c6.5,22,13,44.3,19.7,66.7,6.5.4,13,.8,19.4,1.2-7.4-22.8-14.6-45.3-21.8-67.6h-4.6c-3-9.6-6-19.2-9-28.8h37.3c3.7,9.8,7.3,19.6,11,29.5-1.6,0-3.3,0-4.9-.1,26.5,72.3,54.2,147.8,82.9,227.9,2.3.5,4.5.9,6.8,1.4,7.8,21.5,15.7,43.4,23.6,65.6-19.5-5.4-39.1-10.3-58.8-14.7-6.5-20.7-13-41.2-19.4-61.5h0Z"/>
        </g>
        <g class="st3">
          <path class="st2" d="M379.5,552.7c-2.6-1.8-4.6-3.5-5.9-5s-2.5-3.8-3.7-6.8c-4.4-17.5-7.9-38.2-11.5-61-1.3-8.6-3.1-15.6-5.5-20.8-1.5-3.3-3.3-6.7-5.5-10,4.2-1.4,8.3-3,12.1-4.9,11.7-6,21.1-14.5,28.1-25.7,6.7-10.9,11.1-24.4,12.8-40.3,1.5-13.9.3-25.5-3.6-34.8-3.8-9.1-9.9-16-18.3-20.7-8.3-4.7-18.7-7.1-30.9-7.5-19.6-.5-39.3-1.2-58.9-1.9-4.5-.2-9-.3-13.5-.5-.5,3.8-1,7.6-1.5,11.4-.5,3.4-.5,6,.1,7.7s1.8,3.4,3.7,5.3c2.1,1.7,3.3,3.4,3.7,5.2.4,1.8.3,4.5-.4,8.2-12.2,71.4-40.7,142.1-60.8,212.1-1.6,6-3.2,10.7-4.9,14s-4.4,6.8-8.1,10.5c-3.6,4-6.3,7.9-8,11.4-1.8,3.5-3.3,8.8-4.4,15.8-1.2,8.2-2.1,16.4-2.6,24.8,6.2-2.9,12.5-5.6,18.6-8.3,13.6-5.9,27.2-11.4,40.6-16.4,7.2-2.7,14.5-5.3,21.7-7.8.3-5.9,1-11.9,1.8-17.9.8-5.2.9-8.9.1-11.1-.8-2.2-2.7-4.2-5.7-6-2.7-1.6-4.4-3.7-5-6.1-.6-2.4-.2-6.3,1.2-11.7,6.8-26.2,15.4-53.6,23.5-81.9,1.7-6,4-10.4,6.8-13.3s6.2-4.3,10.2-4.4c1.5,0,3.1,0,4.6-.1,3.2,34.3,5.3,66.1,9.6,92.6.2.7.4,1.3.5,1.8.6,3.4.5,6-.3,7.9s-2.5,3.9-5.3,6.1c-3.7,2.9-6.2,5.6-7.6,8s-2.5,6.1-3.2,10.7c-.8,5.5-1.3,10.8-1.6,15.9,5.9-1.8,11.9-3.5,17.8-5.1,15.3-4.2,30.6-7.9,45.8-11.1,6-1.3,12-2.4,18-3.6.2-3.6.6-7.6,1.1-11.7.4-3.6.3-6.3-.6-7.9-.8-1.6-2.6-3.3-5.3-4.9l.2-.2ZM302,423.4c6.9-28.2,12.7-56.9,16.5-85.6,5.7.2,11.5.3,17.2.5,9.9.3,17.2,3.7,21.7,10.4,4.5,6.8,6,16.8,4.1,30-2,13.7-6.7,24.5-13.7,32.4-7.2,8.1-16.2,12.2-26.8,12.2h-19Z"/>
          <path class="st2" d="M437.5,316.9c-4.5,0-9-.1-13.5-.2-.2,3.8-.4,7.5-.6,11.3-.2,3.4,0,5.9.8,7.5.7,1.6,2.2,3.3,4.4,5.1,2.1,1.6,3.4,3.2,4,5s.8,4.4.5,8c-4.3,69.3-14.3,136-21.3,181.9-.6,3.9-1.4,6.8-2.6,8.8s-3.3,3.9-6.3,5.9c-3.3,2.2-5.6,4.2-6.9,6.1-1.3,1.9-2.3,4.7-2.7,8.2-.5,4.1-.8,7.9-1,11.4,6-1,12-2,18-2.9,13.5-2,27-3.6,40.5-4.9,5.9-.5,11.8-1,17.7-1.4,0-2.8.2-6,.4-9.5.2-3-.2-5.3-1.1-6.8s-2.9-3-5.9-4.6c-2.7-1.4-4.3-2.9-4.9-4.7-.6-1.7-.8-4.4-.4-8.1,4.1-43.6,9.9-110,12.5-179,.1-3.6.5-6.2,1.2-7.9.7-1.7,2.1-3.4,4.4-4.9,2.5-1.7,4.2-3.4,5-5s1.3-4.1,1.3-7.4.2-7.5.2-11.2h-13.3c-10.2,0-20.3-.2-30.5-.3v-.4Z"/>
          <path class="st2" d="M598,329.4c-12.4-8.2-26.9-12.1-43.4-12-16.5,0-33,.1-49.5,0h-13.5c0,3.7-.1,7.5-.2,11.2,0,3.4.3,5.9,1.1,7.5.8,1.6,2.3,3.3,4.4,5,2.3,1.5,3.8,3.2,4.5,4.9.7,1.8,1,4.4.9,7.9-.9,69-2.8,135.2-4.3,177.7-.1,3.6-.6,6.3-1.6,8-.9,1.8-2.9,3.4-6,4.9-2.9,1.7-4.9,3.4-6,4.9-1.2,1.6-1.8,3.9-2,6.9-.1,3.4-.3,6.6-.3,9.3,6-.3,12-.5,18-.7,21.5-.6,43.1-.2,64.6,1.1,23.3,1.3,42.8.5,58.2-7.6,14.8-7.8,24.3-21.8,28.1-43.8,3.6-20.6,2.2-46.5-2.5-76.1-4.5-28.4-10.8-52.3-19.5-70.6-8.3-17.6-18.5-30.4-31.2-38.7l.2.2ZM608,499.4c-2.3,16.7-7.4,28.2-15.3,35.7-8.1,7.7-19,10.5-32.5,10.1-5.4-.2-11.1-.6-17.3-1.3-1.5-43.7-4.2-122.4-5.1-203.1,6-.4,11.4-.6,16-.6,9.9,0,18.4,3.8,25.4,11.8,7.2,8.1,12.9,19.6,17.5,34.6,4.8,15.5,8.2,33.8,10.5,54.2,2.5,23,3,42.7.8,58.6h0Z"/>
          <path class="st2" d="M811.3,529.6c-2.5-.4-4.2.5-5,2.6s-1.2,4.8-1,8.1.5,7.9,1,13.7c.9,5.9,1.4,10.8,1.4,14.5s-.5,6.6-1.6,8.6c-1.2,2-3.2,2.7-6,2-20.5-5.2-40.9-9.7-61.1-13.6-7-33.9-18.7-72.6-28.5-114.1,9.2.2,18.5.4,27.7.6,2.3,0,4.2.6,5.9,1.7s3.1,2.4,4.1,4.1c1.1,1.7,2.4,3.6,3.8,5.7,1.3,2.6,2.6,4.7,3.9,6.3,1.4,1.6,2.9,3.1,4.6,4.3,1.7,1.3,3.6,2,5.8,2.1,3.4.2,6.8.4,10.3.5-7.8-24.9-15.2-50.2-21.4-75.6h-9.4c-2,0-3.5.5-4.5,1.4s-1.8,2.1-2.3,3.5-.8,3.1-.8,5.2c-.3,2.4-.5,4.3-.7,5.8s-.9,2.8-2,3.7c-1.1,1-2.8,1.4-4.9,1.4h-26.7c-5.7-27.3-10.5-55.5-13.7-83.6,13.3-.3,26.6-.7,40-1,2.2,0,4,.5,5.6,1.8,1.6,1.2,2.8,2.9,3.7,5.1s2,4.9,3.3,8.1c1.4,3.7,2.7,6.6,3.8,8.8,1.1,2.2,2.5,4,4.2,5.5,1.6,1.5,3.6,2.2,5.8,2.1,3,0,6-.1,9.1-.2-4-18.9-7.2-37.8-9.4-56.5-5,.7-10.3,1.2-15.9,1.4-28.3,1-56.7,1.8-85,2.4-4.5,0-9,.2-13.5.3.2,3.8.5,7.5.8,11.3.2,3.4.9,5.9,1.8,7.5,1,1.6,2.6,3.3,4.9,5,2.5,1.5,4.1,3.1,5,4.9s1.5,4.4,1.9,8c6.8,69.7,22.7,137.4,33.8,188.5.9,4.4,1.1,7.6.6,9.6s-2,3.8-4.7,5.2c-2.4,1.7-4,3.4-4.8,5.1-.8,1.7-.9,4.6-.4,8.5.6,4.5,1,8.8,1.3,12.9,6,1.3,12,2.8,18,4.2,48.4,12,97,29.1,147.2,52.2-2.1-37-12.4-72.6-23.7-107.7-4.2-.6-8.3-1.2-12.4-1.8h.1Z"/>
        </g>
        <g class="st3">
          <path class="st2" d="M373.6,688.9c-2.5-5.2-4.2-9.4-5.4-12.7-1.1-3.3-2.1-7.9-2.8-13.9l-10-79.5c-1.5-12.5-3.6-22.3-6.3-29.3-2-5.3-4.7-10.6-7.9-16,1.4-.5,2.8-1.1,4.2-1.7,12.3-5.8,22.5-16.2,30.4-31.2s13.2-34.1,15.9-57,1.7-37.9-2-52c-3.6-13.7-9.9-23.9-18.7-30.7-8.5-6.6-19.1-9.7-31.7-9.5l-58.4,1-9.8.2-3.4,17.5c-.8,4.2-1.1,7.4-1,9.8.2,2.4.8,4.6,2,6.8,1.2,2.2,1.8,4.3,1.9,6.3,0,2.1-.4,5.4-1.2,10l-38.9,207.8c-1.1,5.7-2.1,9.8-3,12.2s-2.5,4.7-4.7,6.8-4,4.6-5.2,7.4c-1.2,2.8-2.4,7-3.4,12.5l-4.6,23.9,10.7,4.6,39.5,17.1,14.8,6.4,4.2-26.4c1-6.1,1.3-11,.9-14.7s-1.5-7.5-3.4-11.3c-1.8-3.8-2.9-7.1-3.1-10-.2-2.8.2-7.5,1.3-13.9l12.1-73.7c1.1-6.5,2.8-11.2,5.3-14,2.1-2.4,4.7-3.5,7.8-3.2l7.4,103.5c.2,1.5.2,2.5,0,3.2.5,5.5.5,9.4.1,11.6-.4,2.2-1.7,4.3-3.9,6.4-2.6,2.3-4.5,5-5.8,8.2-1.3,3.1-2.4,7.8-3.4,14.1l-4.1,27,13.3,5.8,55,23.9,15.7,6.8,3.3-30.3c.8-7,.9-12.6.3-16.8-.5-4.2-1.9-8.5-4-12.8v-.2ZM296.9,493l16.5-100.4,7.5.2c7.8.2,13.2,4.5,16.4,13,3.2,8.7,3.6,21.3,1.2,38-2.5,17-6.8,30-12.7,39-6,8.9-13.1,12.7-21.1,11.5l-7.8-1.2h0Z"/>
          <path class="st2" d="M420.8,355.6h-10.8v19.6c-.1,4.7.2,8.4.8,11.1.7,2.7,1.9,5.3,3.7,7.8,1.8,2.5,3,5,3.4,7.3.5,2.4.7,6.2.7,11.5l.4,262.4c0,7.9-.3,13.6-.8,16.9-.6,3.4-2,6.5-4.3,9.3s-3.9,6.2-4.8,10.1c-.9,3.9-1.3,9.8-1.4,17.7l-.2,34.4,14.7,7.6,55.7,28.7,17.4,9-1.9-39.2c-.4-9-1.3-16.1-2.6-21.4-1.3-5.3-3.4-10.7-6.3-16.2-2.9-5.4-4.7-10.2-5.6-14.4-.8-4.2-1.4-10.6-1.8-19.2l-11.4-282.2c-.2-5.6-.1-9.6.3-12.1.4-2.4,1.6-4.9,3.6-7.4s3.3-5.2,3.9-8,.8-6.8.6-11.9l-1-21.1h-52.5l.2-.3Z"/>
          <path class="st2" d="M614.8,372.8c-12.7-12.2-27-18.4-43.3-18.4l-67.1-.5h-13l1.4,23.6c.3,5.6,1,10,2,13.2,1,3.1,2.7,6.1,5.1,8.9s3.9,5.5,4.6,8.2,1.3,7.1,1.7,13.2l18.7,287.6c.5,8.2.6,14.3.2,18.2-.4,3.9-1.7,8.3-4,13.2s-3.8,9.8-4.5,14.6c-.7,4.9-.8,11.4-.3,19.7l2.1,35.8,15.9-6.6,71-29.5c20-8.3,35.1-26.2,45.6-53,10-25.5,15.5-56.2,17-91.7,1.4-34-.7-70-6-108.2-5.3-38.3-10.5-69.7-19.9-94.4-9.2-24.3-14.4-41.6-27-53.8h-.2ZM621.1,616.3c0,26.1-2,47.8-6.2,64.7-4.3,17.3-11,27.8-20.1,30.9-3.9,1.4-7.8,2.1-11.8,2.2l-28.8-315.6c5.6-1.1,10.3-1.8,14-1.9,7.3-.3,14,5.5,20,17.4,6.1,12,11.4,28.1,16,48.5,4.7,20.8,8.5,44.2,11.6,70.5,3.5,30.1,5.3,57.9,5.3,83.2h0Z"/>
          <path class="st2" d="M802.8,572.1c-2,.5-3.3,2.1-3.9,4.9-.6,2.8-.7,6.1-.4,9.9.3,3.8.9,9.2,1.7,16.3.9,6.8,1.5,12.3,1.7,16.6s0,8.1-.6,11.4c-.7,3.4-2.1,5.4-4.3,6.1l-36.5,11.5-26.8-128.5,16.8-2.8c2.1-.3,3.9,0,5.3.9,1.5,1,2.7,2.2,3.6,3.7,1,1.5,2.1,3.5,3.5,6,1.2,2.5,2.4,4.6,3.4,6.3,1.1,1.6,2.4,2.9,3.9,3.9,1.5.9,3.3,1.2,5.2.9l10.2-2-21.4-85.3-9.7.9c-1.8.2-3.2.8-4.1,2-1,1.1-1.6,2.4-1.9,3.9-.3,1.5-.5,3.4-.5,5.8,0,2.7-.3,4.8-.5,6.3s-.8,2.9-1.7,4.1-2.4,1.9-4.4,2.2l-16.3,2-19.1-91.6,24.3-.5c1.9,0,3.6.8,5.2,2.4s3,3.7,4.1,6c1.1,2.4,2.6,5.7,4.4,10,1.7,4.4,3.3,7.8,4.6,10.4s2.7,4.7,4.3,6.4c1.6,1.7,3.3,2.5,5.2,2.4l10.1-.6-18.3-70c-4.8.7-9.9,1.1-15.4,1l-74.4-1-11.1-.2,2.8,17.6c.7,4.2,1.5,7.6,2.6,9.9,1.1,2.4,2.7,4.6,5,6.8,2.2,2.1,3.7,4.2,4.5,6.3.8,2.1,1.6,5.4,2.4,10.1l39.1,236.3c1.2,7.2,1.8,12.6,1.8,16.1s-.9,7.4-2.6,11.6c-1.7,4.3-2.7,8.7-2.9,13-.2,4.4.2,10.3,1.4,17.8l5.1,32.8,14.5-5.6,121.6-46.8-29.6-110.1-11.9,2.9v-.4Z"/>
        </g>
      </g>
      <g>
        <g class="st3">
          <path class="st4" d="M563.4,710.2h-2.4c-4.5-.5-8.1-2.8-11.3-4.8-1-.6-2-1.2-2.9-1.8-1.6-.9-5-1.5-8-2.1-5.9-1.1-12.6-2.3-16.9-6.9-.7-.6-4.4-3-8.5-5.4l-.6-.4-.2-.2-6.2-.7h0l-152.9-17.1-5.5-.3h-2c-2.5-.3-4.6-1.7-5.8-3.9-.9-1.6-1.8-4.2-1.2-7.5.4-2.3,1.2-4,1.8-5.1,1.3-2.2,3.6-3.6,6.2-3.7s.7,0,1.1,0c.7,0,1.3.2,1.9.5l5.8.9,156.8,17.6c.9-.5,1.8-.8,2.8-.9,5.3-.7,7.1-1.3,7.4-1.4,1.6-.8,3.4-1.3,5.2-1.4s1.3,0,2,0c2.8.3,5.4,1.4,7.9,2.6,2.1,1,3.9,1.5,6.5,1.8,1.6.2,3.4.2,5.5.2h.7c4.9-.2,9.2-2.1,12.9-3.9,3.4-1.5,6.3-2.9,9.5-3s.5,0,.7,0h2.2c7.3.8,13.5,6.8,17.9,17.5,2.3,5.6,2.5,10.3.6,14.3-3,6.3-9.8,8.3-15.8,10-2.7.8-5.5,1.6-7.6,2.7-2.5,1.4-5,2.1-7.6,2.2v.2Z"/>
          <path class="st4" d="M561.3,706.8c-3.7-.4-6.8-2.4-9.9-4.3-1-.6-2-1.3-3.1-1.9-2.1-1.2-5.7-1.8-9.1-2.5-5.7-1-11.6-2.1-15.1-5.9-.6-.7-5-3.5-9.2-5.9l-.3-.2-.7-.6h0l-3.8-.4h0l-156.5-17.5-6-.4c-.5,0-1,.2-1.4,0-1.3,0-2.5-.9-3.2-2.1-.6-1.1-1.2-3-.8-5.3.3-1.8.9-3.1,1.4-3.9.8-1.4,2.4-2.2,4-2s.9.2,1.3.4l6.3,1,158.1,17.7c.7-.5,1.5-.9,2.4-1,5.4-.7,7.9-1.5,8.4-1.7,1.7-.9,3.4-1.2,5.4-1s4.6,1.2,6.8,2.3c2.5,1.2,4.7,1.8,7.6,2.1,1.7.2,3.6.3,5.9.2,5.9,0,11-2.3,15-4.2,3.4-1.6,6.1-2.8,8.9-2.7h1.8c7.5.8,12.4,8.8,15.2,15.4,2,4.6,2.2,8.4.7,11.6-2.4,4.9-8.1,6.6-13.7,8.2-2.9.8-5.9,1.7-8.2,2.9-2.7,1.4-5.3,2-8,1.7h-.2Z"/>
          <path class="st4" d="M561.5,705c-3.3-.4-6.1-2.1-9.1-4-1-.6-2.1-1.3-3.1-1.9-2.4-1.3-6.1-2-9.7-2.7-5.4-1-11-2-14.1-5.4-.9-1-6.2-4.3-9.6-6.3h-.2l-.6-.6c-.3-.3-.7-.4-1.1-.5l-1.9-.2h0l-158.4-17.7-6.4-.4c-.3,0-.7.2-1,0-.7,0-1.4-.5-1.8-1.2-.5-.9-1-2.3-.7-4.1.3-1.5.8-2.7,1.2-3.3.4-.8,1.3-1.2,2.2-1.1s.7,0,.9.3l6.6,1,158.9,17.8c.5-.6,1.2-1,2-1.1,4.4-.6,7.9-1.3,9-1.9,1.3-.7,2.8-1,4.4-.8s4.2,1.1,6.2,2.1c2.7,1.3,5,1.9,8.2,2.3,1.8.2,3.8.3,6.1.3,6.3,0,11.5-2.4,15.7-4.4,3.2-1.5,5.7-2.6,8.1-2.5h1.5c3.7.4,9,3.2,13.7,14.3,1.7,4.1,2,7.4.7,10.1-2,4.2-7.1,5.7-12.6,7.2-3,.9-6.1,1.7-8.6,3.1-2.4,1.3-4.7,1.8-7,1.5h.5Z"/>
          <g class="st3">
            <path class="st7" d="M578,676.5c-5.6,4.1-11.7,7.3-18.5,8.8-6.7,1.4-13.5.3-20.1-.7,3.3.3,6.7.4,10,.4,10,.4,19.1-4.8,26.3-11.2l2.3,2.7h0Z"/>
            <path class="st7" d="M543.8,687c15.5,2.4,24,1,37-8.1l2,3c-6,3.4-12.1,6.5-19,7.4-3.4.3-6.8,0-10.2-.3-3.3-.4-6.6-1.1-9.8-1.9v-.2h0Z"/>
            <path class="st7" d="M585.3,687.8c-4.9,2-9.6,4-14.8,5.1-5.2,1-10.5-.2-15.5-1.2,4.9.4,10.3.7,15.1-.7,4.7-1.6,9.3-4,13.7-6.4l1.5,3.1h0Z"/>
          </g>
          <g class="st3">
            <path class="st7" d="M581.5,675.3c-2,3.1-5.5,4.8-8.7,6.1-8.7,4-18.6,4.9-28,3.5,6.1-.3,12.3-1.2,18.1-3,4.3-1.2,8.2-3.5,11.5-6.5.9-.8,1.7-1.6,2.4-2.5,0,0,0,0,0,0l4.7,2.4h0Z"/>
            <path class="st7" d="M547.5,686.8c11.6.8,25.3,1.5,34-7.5l3,2c-8.9,10.8-25,8.8-37.1,5.5h0Z"/>
            <path class="st7" d="M587.6,687.9c-2.2,2.4-5.4,3.6-8.4,4.5-8.6,2.6-17.7,1.3-25.8-2.1,2.8.5,5.7.9,8.5,1.1,5.6.6,11.1-.3,16.4-2.1,2.3-.8,4.6-1.8,6.4-3.3l.2-.2,2.7,2.1h0Z"/>
          </g>
          <g class="st3">
            <path class="st5" d="M546.5,688.4c-10.1,0-17.7-1.9-18.2-2.1l.9-3.3c.2,0,20.2,5.2,38.4-1.5,7-2.6,10.5-7.1,10.5-7.2l2.7,2c-.2.2-4.1,5.4-12.1,8.3-7.7,2.8-15.5,3.7-22.3,3.7h0Z"/>
            <path class="st5" d="M553.2,693.7c-12.4,0-24.3-3.2-24.9-3.3l.9-3.3c.2,0,21.8,5.8,36.3,1.8,12.8-3.5,17.1-8.9,17.1-8.9l2.7,2.1c-.2.3-4.9,6.3-18.9,10.1-4.1,1.1-8.7,1.6-13.2,1.6h0Z"/>
          </g>
          <g>
            <path class="st5" d="M515,676.8l-160.2-17.9h0l-7.2-1.1h0c-.2-.3-.6-.3-.7,0-.3.5-.7,1.4-.9,2.7-.2,1.3.1,2.4.5,2.9.1.3.5.3.7,0h0l7,.4,161.5,18-1.1-1,.6-4.1h-.2Z"/>
            <g>
              <path class="st0" d="M567.7,698.3c-3.3.2-8.6-.2-14.5-4-7.9-5.1-18.7-6.9-22.2-7.4-.4,0-.7.4-.4.7l2.4,2.7s.2,0,.3,0c1.5.2,13.4,1.9,18.5,5.4,5.4,3.8,8,5.5,11.4,4.8,1.5-.3,3.3-.9,4.7-1.5.5-.2.3-.9-.2-.9h0Z"/>
              <path class="st0" d="M533.1,679.9c.8.2,7.3,1.6,16.5,1.3,6.9-.2,11.5-3.1,14.8-4.7.4-.2.2-.8-.2-.7-4.7,1.3-11.3,4.2-18.1,3.4-7.6-.9-9.9-2.4-12.2-2.2-1.3,0-2.1.3-2.6.5-.2,0-.3.4,0,.6l1.8,1.6h0v.2Z"/>
              <path class="st2" d="M587.3,683.8c-6.1-14.4-12.8-13.2-13.6-13.2-4.8-.2-12.5,6.8-23.8,6.9-7.5,0-11.3-.9-15.1-2.7s-6.4-2.6-8.9-1.3-7.3,1.8-9.6,2.1-1.1.6-1.2,1.2h0l-160.2-17.9h0l160.3,17.9-.7,5h0c.8,0,1.5.4,2.1.9l.4.4s8.5,4.9,10,6.6c4.7,5.1,17.2,4.2,23.3,7.7s10.6,8.1,17.4,4.4c9.7-5.2,25.7-3.5,19.6-18.1h0ZM531.2,677.6c.5-.2,1.3-.4,2.6-.5,2.4-.2,4.6,1.3,12.2,2.2,6.8.8,13.4-2.1,18.1-3.4.4,0,.6.5.2.7-3.3,1.6-7.9,4.4-14.8,4.7-9.2.3-15.8-1.1-16.5-1.3h0l-1.8-1.6c-.2-.2,0-.5,0-.6v-.2ZM567.9,699.1c-1.4.6-3.1,1.2-4.7,1.5-3.4.7-6-1.1-11.4-4.8-5.1-3.5-17-5.2-18.5-5.4,0,0-.2,0-.3,0l-2.4-2.7c-.3-.3,0-.8.4-.7,3.6.5,14.3,2.4,22.2,7.4,5.9,3.8,11.2,4.2,14.5,4,.5,0,.7.7.2.9h0ZM584.6,690.4c0,1.9-1.1,3.7-2.9,4.4s-2.7.7-4.7.9c-3.8.4-9.4,1.1-13,.5-6.1-1.1-12.1-5.5-21.1-8.1-6.2-1.8-9.6-4.3-11.1-5.7s0-.8.4-.7c3.7.7,14.3,2.4,22.7.6,6.3-1.4,10-4.5,17.3-7.8s1.5-.3,2.1,0c2.1,1.3,5.9,4.1,8.3,8.9,1.4,2.8,1.9,5.1,1.9,6.7v.2Z"/>
            </g>
          </g>
          <g>
            <g>
              <circle class="st2" cx="559" cy="689" r="8.6"/>
              <path class="st4" d="M559,682c3.8,0,6.9,3.1,6.9,6.9s-3.1,6.9-6.9,6.9-6.9-3.1-6.9-6.9,3.1-6.9,6.9-6.9M559,678.7c-5.7,0-10.3,4.6-10.3,10.3s4.6,10.3,10.3,10.3,10.3-4.6,10.3-10.3-4.6-10.3-10.3-10.3h0Z"/>
            </g>
            <circle class="st1" cx="559" cy="689" r="6.9"/>
            <g>
              <circle class="st2" cx="559" cy="689" r="6.9"/>
              <g class="st6">
                <g>
                  <circle class="st2" cx="561.4" cy="686.8" r="6.9"/>
                  <g>
                    <path class="st2" d="M562.7,704.9c-3.8,0-6.9-2-10.2-4.1-1-.6-2.1-1.3-3.2-1.9-1.2-.7-2.9-1.3-5.3-1.8l-1.3-.3v-6.4l.6.2.4-.9c.2-.5.6-.9.9-1.2,0,0,0-.2.2-.3l.8-.9,1.1.4c3,1.1,5.8,2.3,8.2,3.5,3.4,1.6,6.4,3,9.3,3.5.9,0,2,.2,3.2.2s2.4,0,3.8-.2h1.1l.5.9c.6,1.1,1.1,2.2,1.7,3.5l.7,1.7-1.8.6c-2.2.7-3.8,1.3-5.1,2.1-2,1-3.8,1.6-5.8,1.6l.2-.2Z"/>
                    <path class="st4" d="M546.2,689.2c7.2,2.6,12.4,6.1,17.8,7,1,.2,2.2.2,3.5.2s2.6,0,4-.2c.6,1.1,1.1,2.2,1.6,3.4-1.9.6-3.7,1.3-5.4,2.2-1.8,1-3.4,1.4-5,1.4-4.3,0-7.9-3.2-12.5-5.8-1.6-.9-3.6-1.5-5.7-2v-2.8c2.8.8,5.5,1.8,7.3,3.1,4.7,3.2,7.2,5,10,5s.9,0,1.4,0c1.5-.3,3.3-.9,4.7-1.5.5-.2.3-.9-.2-.9s0,0,0,0h-1.3c-3.3,0-8-.8-13.2-4.1-2.5-1.6-5.2-2.8-7.9-3.8.2-.4.6-.8.9-1.2M545.1,685.2l-1.5,1.9-.2.2c-.3.3-.6.7-.9,1.2l-1.4-.4v3.2l-.4.9.4.2v5.7l2.6.6c2.2.5,3.7,1,4.8,1.6s2.1,1.3,3.1,1.9c3.4,2.1,6.8,4.3,11.1,4.3s4.3-.6,6.6-1.8c1.3-.7,2.8-1.3,4.8-1.9l3.6-1.1-1.5-3.4c-.6-1.3-1.1-2.4-1.7-3.6l-1-2-2.2.2c-1.4,0-2.6.2-3.7.2s-2.2,0-3-.2c-2.7-.5-5.6-1.8-8.9-3.3-2.4-1.1-5.2-2.4-8.3-3.5l-2.3-.8h0Z"/>
                  </g>
                </g>
              </g>
            </g>
          </g>
          <path class="st2" d="M564,696.2c-5.3-.9-10.6-4.4-17.8-7-.3.4-.7.7-.9,1.2,2.7,1,5.4,2.3,7.9,3.8,5.9,3.8,11.2,4.2,14.5,4,.5,0,.7.7.2.9-1.4.6-3.1,1.2-4.7,1.5-3.4.7-6-1.1-11.4-4.8-1.8-1.3-4.5-2.3-7.3-3.1v2.8c2.2.5,4.2,1.1,5.7,2,6.2,3.5,10.6,8.1,17.4,4.4,1.7-.9,3.5-1.6,5.4-2.2-.5-1.1-1-2.2-1.6-3.4-2.7.2-5.4.3-7.5,0h0Z"/>
        </g>
        <g>
          <g class="st3">
            <path class="st7" d="M578,676.5c-5.6,4.1-11.7,7.3-18.5,8.8-6.7,1.4-13.5.3-20.1-.7,3.3.3,6.7.4,10,.4,10,.4,19.1-4.8,26.3-11.2l2.3,2.7h0Z"/>
            <path class="st7" d="M543.8,687c15.5,2.4,24,1,37-8.1l2,3c-6,3.4-12.1,6.5-19,7.4-3.4.3-6.8,0-10.2-.3-3.3-.4-6.6-1.1-9.8-1.9v-.2h0Z"/>
            <path class="st7" d="M585.3,687.8c-4.9,2-9.6,4-14.8,5.1-5.2,1-10.5-.2-15.5-1.2,4.9.4,10.3.7,15.1-.7,4.7-1.6,9.3-4,13.7-6.4l1.5,3.1h0Z"/>
          </g>
          <g class="st3">
            <path class="st7" d="M581.5,675.3c-2,3.1-5.5,4.8-8.7,6.1-8.7,4-18.6,4.9-28,3.5,6.1-.3,12.3-1.2,18.1-3,4.3-1.2,8.2-3.5,11.5-6.5.9-.8,1.7-1.6,2.4-2.5,0,0,0,0,0,0l4.7,2.4h0Z"/>
            <path class="st7" d="M547.5,686.8c11.6.8,25.3,1.5,34-7.5l3,2c-8.9,10.8-25,8.8-37.1,5.5h0Z"/>
            <path class="st7" d="M587.6,687.9c-2.2,2.4-5.4,3.6-8.4,4.5-8.6,2.6-17.7,1.3-25.8-2.1,2.8.5,5.7.9,8.5,1.1,5.6.6,11.1-.3,16.4-2.1,2.3-.8,4.6-1.8,6.4-3.3l.2-.2,2.7,2.1h0Z"/>
          </g>
          <g class="st3">
            <path class="st5" d="M546.5,688.4c-10.1,0-17.7-1.9-18.2-2.1l.9-3.3c.2,0,20.2,5.2,38.4-1.5,7-2.6,10.5-7.1,10.5-7.2l2.7,2c-.2.2-4.1,5.4-12.1,8.3-7.7,2.8-15.5,3.7-22.3,3.7h0Z"/>
            <path class="st5" d="M553.2,693.7c-12.4,0-24.3-3.2-24.9-3.3l.9-3.3c.2,0,21.8,5.8,36.3,1.8,12.8-3.5,17.1-8.9,17.1-8.9l2.7,2.1c-.2.3-4.9,6.3-18.9,10.1-4.1,1.1-8.7,1.6-13.2,1.6h0Z"/>
          </g>
          <circle class="st1" cx="559" cy="689" r="6.9"/>
        </g>
        <g>
          <path d="M290.1,806.8l2.7,1.4,1,2.7,1.6-7.6,8.5,4.3h.3c.9-1.1,2.7-3,5.1-5.6l-197.9-138.1,155.9-460.8h502.2l155.9,460.8-211.8,147.8c-2.9,3.9-7.1,7.8-10.3,10.6,1.3,1.1,2.7,2.2,4,3.4,5.9,5.1,10.5,9.1,14.2,12.4l235-163.9-168.2-497.1H248.8l-168.2,497.1,191.2,133.4c4.5-1.3,8.4-2,11.6-2s5.5.7,6.7,1.3h0Z"/>
          <path d="M661.9,854.8c-4.5,4.4-19.9,18.8-29.3,21-4.1.9-9.1,1.4-13.2,1.7l-100.7,70.2-152.6-106.4c-4.9,4-8.8,7.2-10,8.7-1.8,2.1-6,5.1-11.3,8.3l173.9,121.3,167.9-117.2c-7.3-4.3-14.4-8-21.2-11.1l-3.5,3.4h0Z"/>
          <path d="M526.1,507.3c-.2-1.9-.5-3.8-.7-5.7-9.5,0-19.1,0-28.6.1-.9,7-1.9,14-2.9,21h1.6c1.4,0,2.6,0,3.5.2h5.9v1.4l4.4,1.1.9-1.5c.4-.6,5.6-8.6,15.8-16.6h.1Z"/>
          <path d="M433.8,280.2c1.6,0,2.4-.9,2.4-2.8v-19.5c0-1.8-.8-2.8-2.4-2.8s-2.4.9-2.4,2.8v19.5c0,1.8.7,2.8,2.4,2.8Z"/>
          <path d="M520.7,463.4c-.4-4.6-.7-9.1-1.1-13.7-2.5-29-5.9-65.9-7.3-97.8-2,31.9-6.3,68.8-9.3,97.8-.4,4.6-.9,9.1-1.3,13.7h19,0Z"/>
          <path d="M664.7,570.5c-3.1-5.2-5.1-12-6.7-20.7-4.9-26.7-9.7-53.3-14.4-79.7-4-22.4-9.2-27.8-21.1-28.5-1.6,0-3.1-.2-4.7-.3,3.3,22.3,6.7,44.8,10.1,67.3,3.6,2,7.5,5.3,11.6,10.6,11.3,14.8,12.1,26.2,12.1,27.4l.3,6.7-6.5,1.5c-.2,0-1.4.3-3.3.7,1.1,6.7,2.2,13.4,3.3,20.2,1.4-.6,2.8-1.1,4.3-1.6,4.7-1.6,9.8-2.8,15-3.6h0Z"/>
          <path d="M630.3,394.3c-2.6-14.9-5.2-29.8-7.7-44.6-1.4-8.3-4.5-11-12-11.1h-7.8c3.2,22.5,6.5,45,9.8,67.7,2.9.1,5.8.2,8.7.4,8.3.4,10.6-2.7,9-12.2v-.2Z"/>
          <path d="M766.7,550.8c9.7,2.2,11.8-2.3,7.6-16.7-18.5-62.9-36.6-123.1-54-181.2-2.7-8.9-6.5-12.2-14-12.4-2.5,0-5-.1-7.5-.2,18.6,66.8,38,135.9,58.1,208.3,3.2.7,6.5,1.4,9.7,2.2h.1Z"/>
          <path d="M380.6,260.6v-2.1c0-2-.7-2.6-2.6-2.6h-2v7.4h2c1.9,0,2.6-.6,2.6-2.6h0Z"/>
          <path d="M334.3,773.9c3.4-5.3,7.7-15.2,7.7-15.3l2.8-6.5,6.8,1.9c.4,0,1.9.4,3.3.4s.3,0,.4,0c.7-1.6,1.7-4.2,2.6-6.4,1.5-4,3.4-8.8,5.6-13.6-5.9,2.7-12.1,5.1-18.2,6.4-6.2,1.4-12.8,2.1-19.7,2.1-15.2,0-26.5-3.6-27-3.7l-15.6-5,5.4-3.7c-5.2-2.8-9.6-7.2-12.9-13-12.2-21.4-6-43.2-5.7-44.1l5.3-17.8,9,15.2c1,1,8.6,8,31.6,10.3h.9l8.1-6.2c.3-.2,3-2.3,7.9-4.8-1.4-2.7-2.7-7-1.8-12.3.6-3.5,1.8-6.1,2.8-7.8,2.7-4.6,7.5-7.5,12.9-7.8h2.3c1,0,2,.3,3,.6l4.9.8,56.1,6.3c2.8-3.4,5.1-5.9,6.6-7.6,0-4.7,1.7-11.8,9.2-19.3s4.6-4.7,5.4-5.7l1.1-17.4,17-7.5c3-5.9,9.7-13.4,22.4-16.8-2.1-1.9-4-4.1-5.6-6.6-8.6.4-17.2.9-25.7,1.6,1.5-15.4,3-30.8,4.4-46.2,2.7-.2,5.3-.3,8-.5,13.4-71.8,25.9-142.8,37.6-213.5h39.1c9.8,59.9,20.2,120,31.3,180.5,1.6-.2,3.2-.4,4.9-.5,2.7-.2,5.4-.3,7.9-.3s6.4.2,9.3.5c-5-51.1-9.9-102.1-14.5-152.9h-4.9c-.8-9.1-1.5-18.2-2.3-27.3h44.3c19,0,38.8,4.2,46.3,38.3,2.8,12.9,5.6,25.8,8.5,38.8,5.1,23.3-.2,33.7-10.1,37.8,12,6.1,22.5,18.5,28.8,46.8,4.4,19.7,8.9,39.6,13.4,59.6.9,3.9,2.4,5.6,5.4,6.1.9,0,1.8.3,2.6.4,2.1,9.2,4.3,18.4,6.4,27.7,2.1.8,4.4,1.9,6.7,3.2-2.4-10.2-4.8-20.3-7.2-30.4,2.1.4,4.3.7,6.4,1.1-16.8-69-33-135.7-48.4-200.9-1.6,0-3.3,0-4.9-.1-2.2-9.5-4.4-19-6.5-28.5h43.2c19,0,41.4,6.8,53.9,44.2,19.8,59.2,40.2,121.1,61,186.6,21,66.7-2.7,72.3-30.1,64.1-14.8-4.3-29.7-8.1-44.6-11.7l23.8,38.8,23.6,42.1c2.4,2.7,7.7,10,4.9,18-.9,2.5-2.1,4.3-3.2,5.7,1.9,3.9,4.7,11.5-1.7,16.9s-8.4,3.9-13.6,4.4c-.7,1.3-1.5,2.6-2.7,3.9-2.2,2.3-6.3,5.1-12.9,5.1h0c-2.7,0-5.6-.4-8.8-1.3-10.2-2.8-17.1-8.5-21.2-13.9-5.7,2.9-14.3,6.3-25.3,7.9-7.5,1.1-13.6,1.7-18.4,2.1,2.4,6.6,3.6,15.3.6,25.8-1.6,5.7-3.5,10.3-5.5,14.1,7.6,1.1,15.8,3.5,22.5,8.5,3.9,2.9,7.2,6.1,9.9,9.4l183.6-128.1-143.6-424.4h-464.7l-143.6,424.4,184.6,128.8c3.4-3.8,6.1-7.1,7-8.5v.7ZM647.3,279.5h1.3v-23.6h-1.3v-7.1h12l3.5,13.4c.7,2.9,1.5,6.6,2,9.4,0-2.8-.3-6.7-.3-8.9v-6.7h-1.4v-7.1h9.5v7.1h-1.3v30.7h-9.9l-4.2-16.7c-.9-3.5-1.5-6.6-2.1-9.3.2,2.6.4,6.6.4,9.4v9.5h1.3v7.1h-9.5v-7.1h0ZM592,259.1c0-7.4,3.7-11,10.6-11s10.5,3.6,10.5,11v17.2c0,7.4-3.7,11-10.5,11s-10.6-3.6-10.6-11v-17.2ZM532.8,248.8h25.2v13.2h-6.4v-6.1h-2.1v23.6h1.5v7.1h-11.2v-7.1h1.6v-23.6h-2.2v6.1h-6.4v-13.2h0ZM478.9,273.2h7.6v4.2c0,1.8.8,2.8,2.3,2.8s2.4-.9,2.4-2.7v-.9c0-7-12.2-5.4-12.2-18.4v-.5c0-6.9,3-9.5,7.6-9.5s4.6,1,5.7,3.3v-2.6h6.6v12.5h-7.2v-3.3c0-1.8-.8-2.8-2.2-2.8s-2.3.9-2.3,2.8v.3c0,7.1,12.2,5.5,12.2,18.5v1.1c0,6.9-3.1,9.5-7.7,9.5s-4.6-1-5.7-3.4v2.7h-7v-13.6ZM423.2,259.1c0-7.4,3.7-11,10.6-11s10.5,3.6,10.5,11v17.2c0,7.4-3.7,11-10.5,11s-10.6-3.6-10.6-11v-17.2ZM388.9,534.5c8.4-1,13.1-6.5,14.7-17.6,9.2-60,17.9-119.4,26.3-178.4h-5.2c1.4-9.2,2.8-18.4,4.1-27.6h38c-.8,9.1-1.6,18.2-2.3,27.3h-5.2c-5.4,57-11.1,114.2-17,171.7-4.4,43.7-26.6,67.9-63.3,73.2-36.3,5.6-50.2-15.1-39.5-62.5,13.9-61.8,27.4-122.1,40.2-181.3h-5.2c2.1-9.5,4.2-18.9,6.3-28.4h39.9c-1.5,9.2-3,18.5-4.5,27.7h-4.9c-10.1,59.5-20.8,119.6-31.8,180.7-2.1,11.3.4,16.2,9.2,15.1h.2ZM366.4,279.5h1.3v-23.6h-1.3v-7.1h12.1c5.2,0,9.9.8,9.9,9.2v1.6c0,4.6-1.4,6.7-3.5,7.7,2.2,1,3.8,3.1,3.8,7.7v2.2c0,8.4-5,9.5-10.2,9.5h-12.2v-7.1h.1ZM237.1,614.8c-26.6,8.7-38-9.8-17.7-74.3,21.2-66.6,42-129.6,62.1-189.7,10.2-30.6,24.5-42.6,42.5-42.6s16.2,4.7,17.7,14.5c1.1-3.9,2.1-7.7,3.2-11.6h25.6c-6.4,26.9-12.9,54-19.6,81.4-10.5.6-21,1.3-31.4,2,4.3-15.3,8.5-30.5,12.7-45.5,2.1-7.7-.4-11.7-6.2-11.6-6.6.2-10.3,4.1-12.7,11.9-18.3,60.9-37.3,124.2-56.8,190.5-3.8,12.9-2,18.6,6.7,16.5,8.3-1.9,13.8-9.2,17.3-21.6,7.9-28.4,15.7-56.4,23.3-83.9-3.6.4-7.1.9-10.7,1.3,3.8-13,7.5-25.9,11.2-38.7,16.3-1.5,32.7-2.8,49.1-3.9-2.9,12.2-5.8,24.5-8.7,36.8-2,.2-4,.4-6,.6-11.5,47.3-23.3,95.5-35.5,144.9-7.6,1.7-15.2,3.5-22.7,5.4.8-7.3,1.6-14.6,2.5-21.9-11.8,20.7-28,34-45.8,39.4h0Z"/>
          <path d="M380.6,276.7v-3.6c0-2-.7-2.6-2.6-2.6h-2v9.1h2c1.9,0,2.6-.9,2.6-2.8h0Z"/>
          <path d="M556.7,877.3l.7-8.2c0-1.4,1.5-14.1,16.5-25.5,6.5-4.9,12.1-8.2,16.4-10.3-10.7-2.7-18.9-5.2-22.5-6.4-3.7.6-11.9,1.7-20.6,1.7s-12.8-.7-17.6-2.1c-6-1.7-12.8-3.7-18.6-5.4,1.3,3.8,1.2,7,1.2,7.9l-.4,6.4-6.3,1.1c-.3,0-6.2,1.1-12.7,1.1s-8.6-.5-11.7-1.6h-.2l-.3,2.7-36-8.3-1.3-4.6c-.1-.5-.3-1.2-.5-2-6.1,4.4-12.7,6.5-17.6,6.9h-2c-5.7,0-11.3-2-15.7-5.7-2.3-1.9-6.2-4.7-11.4-6.6l-6.3,4.7c-.6.5-1.3,1-1.9,1.4l130.9,91.4,54-37.7c-4.3-.2-7.3-.4-7.7-.4l-8.2-.5h-.2Z"/>
          <path d="M602.6,280.2c1.6,0,2.4-.9,2.4-2.8v-19.5c0-1.8-.8-2.8-2.4-2.8s-2.4.9-2.4,2.8v19.5c0,1.8.7,2.8,2.4,2.8Z"/>
          <path d="M595.1,617.2c.2-.2,22-16.2,30.5-27.3,4.1-5.4,10.1-9.8,17.7-13.2-10.3-1.4-20.6-2.6-30.9-3.6l-6.2,2c-1.2,3.6-3.6,8.1-8.2,11.7-.9.7-2.3,1.5-4.1,2,.7,2.9,1.1,6.4,1.1,10.7s-.8,12.2-2,19.2l2-1.5h.1Z"/>
          <path d="M702.3,831.7c-33.7-29.3-59.1-33.7-59.1-33.7,0,0,10.3-2.5,23.6,1.5s28.3,19.2,28.3,19.2c0,0,11.3-8.9,14-14.5s.3-15.8-12.6-25.4c-13-9.6-34-7.4-34-7.4,0,0,8.4-4.5,14-23.9s-6.7-31.1-6.7-31.1c0,0,9.7.5,31.1-2.5,18.7-2.7,29.4-11,29.4-11,0,0,3.9,12.7,20.4,17.3,16.5,4.5,16-7.6,16-7.6,0,0,11.4-.2,14.6-2.9,3.2-2.7-1.3-8.2-2.2-11.3-.8-3,3-2.9,4.7-7.7,1.7-4.9-3.9-10.6-3.9-10.6l-24-42.8-28.8-47s-4.1-6.9-11.8-11.8c-14-8.9-23.5-6.8-23.5-6.8l2.4,10.2s-3.2-5-17.7-4.5-35.2,5.3-44.5,17.4c-9.3,12.1-32.2,28.9-32.2,28.9h0c3.2.7,6.5.6,9.6-.2h.2s-.5,3.3-6.8,10.1c-7.4,7.9-20,15.2-20,15.2,3.1.4,6.2.3,9.3-.2h.4s-2.9,4.7-10.9,16.9c-1.9-1.1-3.9-1.7-5.9-2h-.9c2.2-2.5,3.7-4.5,3.7-4.5,0,0-2.7,1.4-9.3.8-6.7-.6-8.9-4.3-8.9-4.3,0,0,2.8-.6,8.5-3.3h.2c5.9-2.8,10.2-8.2,11.7-14.5,2.5-10.6,6.2-27.8,6.2-38.2,0-15.9-6.3-16.1-6.3-16.1l2-4.6s7.5,3.9,10.4,1.6c5.7-4.5,6.4-11.6,6.4-11.6l6.4-2.1s-.6-5.1-.8-8c-.3-2.9,1.5-7.6,1.5-7.6,0,0,4.2.4,14.2-.4s22.9-3.7,22.9-3.7c0,0-.4-9.6-10.5-22.8s-17.3-9.9-21.1-10.9-7.8-16.7-42.9-14.2c-35.2,2.5-52,29.2-52,29.2l28.1,9.7-2.8,5.6s-1.9-1.8-9.7-3.8c-7.9-2.1-7.2,2.8-10.8,4.2s-3-1.7-8.5,0-6.3,6.1-6.3,6.1c0,0-1.5.7-4-3.1-2.5-3.7.5-8.6.5-8.6,0,0-4.3.7-6.9,5.1-2.6,4.5-.7,9.5-.7,9.5,0,0-3.4-1.1-6.4-8.9-3-7.8,9.8-12.9,9.8-12.9,0,0-17.8-4.4-25.1,17.4-7.3,21.8,20.7,29.6,20.7,29.6,0,0-1.9,1.4-17.9,5.5s-18.6,15.1-18.6,15.1l-15.5,6.8-.9,14.3s1.4,0-7.7,9.1-6.5,16.5-6.5,16.5c0,0-3.9,3.6-11.6,13.1l-9.3-1-51.3-5.7-5.8-.9c-.6-.2-1.3-.4-1.9-.5h-1.1c-2.6,0-4.9,1.5-6.2,3.7-.6,1-1.4,2.8-1.8,5.1-.6,3.3.3,5.9,1.2,7.5h0c1.2,2.2,3.3,3.6,5.7,3.9h2l5.5.3h1.3c-15.6,3.3-25,10.5-25,10.5l19.5,6s-4.4,4.8-34.2,1.8c-29.8-3-37.3-13.5-37.3-13.5,0,0-5.7,19.2,5,37.8s29,10.9,29,10.9l-10.4,7.2s20.1,6.5,42.4,1.4c22.3-5,46.8-24.5,46.8-24.5,0,0-6,9-13.6,19.2s-12.2,27.4-15.1,32.1c-2.9,4.7-12.2,2.1-12.2,2.1,0,0-4.6,10.6-8.3,16.5-3.7,5.9-26.7,30.2-30.7,34.6s-9.3,2.3-9.3,2.3l-2.1,9.7-8.8-.7-4-10.3s-4.3-2.2-18.9,3.6-13.8,22.4-13.8,22.4c0,0,34.4,6.5,45,5s15.1-6.6,15.1-6.6l38.9-29.7s12.4-1.3,32.1-.7c13.2.4,22.9,6.8,27.8,10.9,3.3,2.8,7.6,4.1,11.9,3.7,5.5-.4,12.9-3.5,18.2-9.6,10.7-12.3,13.3-22.6,15.6-35.3s-4-24.1-4-24.1c0,0,1.7-1.3,4.4,2.3.4.5.8,1.2,1.2,1.9,3.5,6.3,4.6,13.7,3.2,20.7-.3,1.4-.6,2.9-.9,4.7-2.3,11.8-7.2,21.7-10.7,26-3.4,4.2-.6,14.3-.6,14.3l22.4,5.2.4-4.4s2.6,1.6,9.9,4.1,20.3.2,20.3.2c0,0,.3-4.7-2.8-8.4-3.1-3.8-7.6-4.1-7.6-4.1,0,0,1.5-.7,3.3-2.7,1.7-2,2-4.2,2-4.2,0,0,18.5,5.5,32.9,9.6,14.3,4,36.7-.2,36.7-.2,0,0,30.5,10.4,62.3,14.1,31.8,3.7,63.3,24.9,68.5,28s2.8,8,2.8,8l9.8-1.5.3,8.2-10.6,7.9s1.9,6.1,9.8,17.3c7.9,11.3,28.1,8.2,28.1,8.2,0,0-5-38.9-7.7-46.3-2.7-7.4,4.2-1.7-29.5-31h0ZM687.8,704.8c-18.6.9-21.7-.8-21.7-.8,0,0,4.6-11,8.1-15.4s6.5-8.3,6.5-8.3c0,0,3.9,8,16.2,8.7s15.8-2.4,15.8-2.4l13.8,9.3s-20,8.1-38.6,9h0ZM678.3,673.7l-4.2-2.3s-4.9-7.6-2.2-24.7c2.7-17.2,8.1-19.8,8.1-19.8l2.2,4.4s-5.6,5.2-6.3,21.9,2.5,20.5,2.5,20.5h0ZM686,638.4s1.6,4.6,3.7,12.2c2.2,7.6,11,16.9,11,16.9,0,0-6.8-1.9-9.7-5.8-2.9-3.9-4.9-9.2-4.9-9.2l-1.5,13.4s-2.3-7.8-2.5-14c-.2-7.9,3.9-13.5,3.9-13.5h0ZM686.1,619.8c2-.8,4.3.2,5.2,2.2.8,2-.2,4.3-2.2,5.2-2,.8-4.3-.2-5.2-2.2-.8-2,.2-4.3,2.2-5.2ZM724.8,682.7s-14.9-17.2-24.5-32.9-11.6-19-11.6-19l5.3-3.6s10.7,19.2,17.9,29.8c5.2,7.6,14.5,19.1,14.5,19.1l-1.6,6.5h0ZM727.3,632.2s-7.2,1.3-7.1-4.9c0-4.6,3.2-5.6,6.1-4.7,5.5,1.6,3.4,6.3,3.4,6.3,0,0-2.8-3.7-4.9-1.5-2.1,2.3,2.5,4.7,2.5,4.7h0ZM736.8,692.8s2.1-6.9-1.3-7.1c-4-.2-3.9,6.2-3.9,6.2,0,0-8.3-14.2,4.7-12.3,10.7,1.6.6,13.2.6,13.2h0ZM756.3,710.1c-7-1.4-11.9-7.8-11.3-15l.3-4.1,2.6,4.4c2.3,4,5,7.7,8.1,11.2l3.7,4.2-3.4-.7h0ZM774.2,681.9l1.3,2.2c1.9,2.8,1.6,4.3.6,6.4l-5,10.5s-2.9-5.9-.2-9.7c2.2-3,2.3-6.4-.4-7.1-2.8-.7-5.6,8.9-5.6,8.9,0,0-3.5-4.8-.4-10.3,1.8-3.2,4.3-3.2,4.3-3.2l-4.6-7.4,3-1.8,6.9,11.5h.1ZM765.7,667.8l-21.2,12.1-3.3-2.7,22.4-12.8,2.1,3.5h0ZM729.1,607s5,7.8,8,13.3c3.1,5.7,24,39.9,24,39.9l-3.4,2.2-28.6-44.2c-2.6-3-7.2-2.2-10,.6,0,0-.8,1.4-.9,1.5-1.7,1.9-.6,9.9-.6,9.9,0,0-5.1-1.7-5.5-5.8s.4-5.6.4-5.6c-1.9-.2-3.8.3-5.4,1.4l-3.9,2.6-1.4-2s1.3-1.1,7.8-5.4c6.5-4.3,19.5-8.4,19.5-8.4h0ZM725.7,600.4l1.5,3.7s-7.9,1.8-18.3,6.3c-10.4,4.5-14.9,9.9-14.9,9.9l-2.8-3.2s4.2-4.7,12.3-8.9c7.7-4,22.2-7.9,22.2-7.9h0ZM706,580.9c4.8,2.8,5,7.3,5,7.3l-5.9,4.1s.5-3.1-1.5-6.9c-2-3.8-6.2-6.9-6.2-6.9,0,0,3.8-.3,8.7,2.4h0ZM685.5,585.6c13.2,3.4,11.8,11.7,11.8,11.7,0,0-4.7-4.3-9-4.8-3.9-.4-6.4,0-6.4,0,0,0,6.9,3.7,4.9,8s-5.6,7.1-5.6,7.1c0,0,3.8-11.3-7.4-9.9-7,.9-13-8.6-13-8.6,0,0,15-5.9,24.8-3.4h0ZM631,610.3c6.4-12.2,18.7-8.7,18.7-8.7,0,0-.3,2.4-.6,4.3,0,.8-1.1,3.8-1.1,3.8,0,0-9.8-1.1-12.1,4.4-2.9,6.6-16.5,3.4-16.5,3.4,0,0,8.4-1,11.6-7.2h0ZM621.1,632.1c6.9-8.3,19.6-7.3,19.6-7.3,0,0,.2.9-1,4.8-1.3,3.9-3.8,5.9-3.8,5.9,0,0-7.4-.7-16.1,6.6-9.6,8.1-18.2,0-18.2,0,0,0,12.7-1.7,19.6-9.9h0ZM598.9,664.2c4.1-2.1,1.7-2.9,8.5-8.5,6.8-5.5,15.5-4,15.5-4,0,0,.5,2.1,0,4.5s-1.7,5.1-1.7,5.1c0,0-1.6.2-7,0-5.3,0-4.5,2.9-9.6,5.4-8,4-14,.3-14,.3,0,0,4.2-.8,8.3-2.9h0ZM482.7,755c4.7-8.3,10.9-14.8,10.9-14.8,0,0-1.7-1.2-4.6-5.6-1.2-1.8-2-3.6-2.5-5.1-.8-2.3-.9-3.9-.9-3.9,0,0,1.8,1.7,4.2,4.1,1.8,1.8,4.1,4,6.1,6.1,4.7,4.8,12.1,11.5,12.1,11.5,0,0-2.3.9-4.6,0-2.4-.8-3.6-2-3.6-2,0,0-2.6,3.8-7.8,11-1.4,1.9-3,4.1-4.8,6.5-8.5,11.4-12,25-12,25,0,0,.3-7.8,2.7-20.8.8-4.1,2.6-8.3,4.8-12.1h0ZM354,663.9l-7-.4c-.2.3-.6.2-.7,0-.3-.6-.7-1.6-.5-2.9.2-1.3.6-2.2.9-2.7.2-.3.5-.3.7,0h0l7.2,1.2,76.3,8.5h0c-.5,1.9-.8,3.5-1,5l-76-8.5v-.2ZM520.7,634.4c19.2-13.4,22.9-34.1,23.6-40.2.5-4.7,1.3-15.9,1.3-16l4.6.3c0,.5-.7,11.4-1.3,16.3-.8,6.5-4.8,28.9-25.6,43.4-16.2,11.3-34.2,12.7-42.1,12.7s-3.8,0-4.1,0l.4-4.6c.2,0,23.5,2,43.1-11.8h.1ZM480.1,638.6c0-1.5,1.2-2.8,2.8-2.8s2.8,1.2,2.8,2.8-1.2,2.8-2.8,2.8-2.8-1.2-2.8-2.8ZM494.2,637c0-1.5,1.2-2.8,2.8-2.8s2.8,1.2,2.8,2.8-1.2,2.8-2.8,2.8-2.8-1.2-2.8-2.8ZM507.4,633.9c0-1.5,1.2-2.8,2.8-2.8s2.8,1.2,2.8,2.8-1.2,2.8-2.8,2.8-2.8-1.2-2.8-2.8h0ZM518,626.9c0-1.5,1.2-2.8,2.8-2.8s2.8,1.2,2.8,2.8-1.2,2.8-2.8,2.8-2.8-1.2-2.8-2.8ZM526,618.3c0-1.5,1.2-2.8,2.8-2.8s2.8,1.2,2.8,2.8-1.2,2.8-2.8,2.8-2.8-1.2-2.8-2.8ZM538.1,593.2c1.5,0,2.8,1.2,2.8,2.8s-1.2,2.8-2.8,2.8-2.8-1.2-2.8-2.8,1.2-2.8,2.8-2.8ZM537,584.2c0-1.5,1.2-2.8,2.8-2.8s2.8,1.2,2.8,2.8-1.2,2.8-2.8,2.8-2.8-1.2-2.8-2.8ZM538.1,607.8c0,1.5-1.2,2.8-2.8,2.8s-2.8-1.2-2.8-2.8,1.2-2.8,2.8-2.8,2.8,1.2,2.8,2.8ZM552,538.2s4.6,2.2,9.2,3.8,12.1,2.4,12.1,2.4l-5.5,2.6,7.6-.2s-3,3.5-8.4,3.5-9.2-2.7-9.2-2.7c0,0,.3.7,1.3,1.6,1.1.9,5.9,2.4,5.9,2.4,0,0-5.9,1.9-11.6-.8-5.7-2.7-4.6-7.8-4.6-7.8,0,0,.8.5,3,1.1s3.1,0,3.1,0l-3.1-6h.2ZM573.4,583.3c2.7.8,4.3.8,4.3.8,0,0-3,2.9-8.4,1s-5.7-4-5.7-4l.3,4.9s-5.4-1.6-7.6-8.4-1.1-10.3-1.1-10.3l4.9,5.4s-1.5-2.5-1.6-5.9c0-3.3,1-4.4,1-4.4,0,0,0,3.4,7.2,9.5s10.9,5.8,10.9,5.8c0,0-1.7,2.2-5.1,2.1-3.5-.2-4.6-1.9-4.6-1.9,0,0,2.7,4.5,5.4,5.3h0ZM543.6,640.8h0c0,0,0,0,0,.1h0c0,0,4.5-3.4,4.5-3.4,1.6,2.6,1,6,.4,8.7-.7,2.9-1.7,5.5-2.8,8.2l-.3.7-.2.7c-.8,3,0,6.3,1.5,9l-.4.4c-3.2-3.1-4.6-8.1-3.4-12.5.5-2.4,1-4.8,1.1-7.1,0-1.6,0-3.2-.5-4.6v-.2ZM515,676.8c0-.6.6-1.1,1.2-1.2,2.3-.3,7.7-1.1,9.6-2.1,2.5-1.3,5.1-.5,8.9,1.3,3.8,1.8,7.6,2.8,15.1,2.7,11.3,0,19-7.1,23.8-6.9.8,0,7.6-1.2,13.6,13.2,5.1,12.1-5.1,13-14.2,15.9-.9.3-1.8.6-2.7,1h-.2c-.3,0-.7.3-1,.4,0,0-.2,0-.3,0-.4.2-.8.4-1.2.6h0c-.9.5-1.8.8-2.6,1-.3,0-.6,0-.8.2-.5,0-.9,0-1.3,0-1.8,0-3.5-.5-5.2-1.3-2-1-4.1-2.4-6.3-3.8-.4-.2-.8-.4-1.1-.7-.4-.2-.8-.4-1.2-.6,0,0-.3,0-.4,0-.3,0-.7-.3-1-.4,0,0-.3,0-.4,0-.3,0-.7-.2-1.1-.3,0,0-.3,0-.4,0-.4,0-.8-.2-1.1-.3-6.3-1.4-14.1-1.9-17.6-5.7-1.6-1.7-10-6.6-10-6.6l-.4-.4c-.6-.5-1.3-.9-2.1-.9h0l-49.5-5.5c.4-1.7.7-3.4.9-5h0l49.3,5.5h-.3ZM532.9,644.2c-12.4,7.8-27.3,10.9-41.7,10.8v-.4c14.9-4.3,30.3-8.6,42.8-18.2,9.9-7.5,18.9-15.6,28.5-23.5-1.8,3.1-3.9,6-6.1,8.9-6.7,8.5-14.5,16.3-23.4,22.4h0ZM553.5,613.8s-1.3-9.3,4.6-11.2c11.7-3.8,11.6-8.1,11.6-8.1,0,0,3.1,7.5-4,9.9-9.2,3.2-12.2,9.4-12.2,9.4h0ZM552.8,603.2s0-6.6,4.5-7.7c6.4-1.6,7.8-5.2,7.8-5.2,0,0,.8,5.8-3.5,6.7-6.6,1.4-8.8,6.2-8.8,6.2ZM480.5,661.6c7.4-1.3,39.9-5.2,39.9-5.2,0,0-3.4,2.8-10.3,5.1-8.3,2.8-16,4.6-20.1,5.5l-18.1-2c1.5-2.2,4.8-2.7,8.6-3.3h0ZM447.9,655.5c2.4,0,4.1.6,4.1.6,8.4,1.6,10.3,5.5,9.1,13.4-1.1,7.6-2.6,12.9-5.5,12.9s-.2,0-.2,0c-3-.3-2.4-2.8-4-2.8h0c-1.5,0-1.1,2.1-2.9,2.1s-.4,0-.6,0c-2.5-.5-.5-2.7-2.6-3h-.3c-1.3,0-.4,1.6-1.6,1.6s-.4,0-.7,0c-2.4-.7-1.4-2.8-3.1-3.2h-.2c-1.1,0-.2,2.1-2,2.1s-.7,0-1.1-.2c-3.4-1-1.2-9.8,1.4-16.4,2.3-5.7,6.8-6.9,10.2-6.9h0ZM505.5,737.9l-2.7-2.8c-1.2-1.2-1.3-3.1-.5-4.5.2-.3.3-.5.6-.7l2.8-2.9h-.6c-2.6-.8-5.4-.8-8.1-.3l-1.2.3,4.3-4.9c-2.4-1.6-5.2-2.7-8.1-3.1h-.2l8.5-5.3s-14.8-14.6-23.1-28.9l29.2,3.3h0l1.9.2c3.2,6.2,7,14.4,10.8,24,2.9,7.4-1.2,14.3-5.7,19.1-3.8,4.1-7.8,6.6-7.8,6.6h0ZM581.7,600.1c-.2.6-4.2,14-10.2,21-7.4,8.6-11.8,17.1-13.4,25.9-2,10.9-2.4,19.1-2.4,19.2l-4.6-.2c0-.3.4-8.6,2.5-19.8,1.7-9.6,6.5-18.8,14.4-28,5.4-6.3,9.3-19.2,9.3-19.3l4.4,1.3h0ZM596,563.3c-1.3,0,.3,1.1.8,3.2.5,2.2-7,.8-7,.8,0,0,3.5,1.3,4.3,2,.8.6.3,1-1.1,2.3-1.3,1.3,0,2.2-.3,3.8s-2.4.8-10.3-3.5c-7.8-4.3-10-12.9-10-14.8s11.6-13.5,11.6-13.5l10.7,5.3-1.6,1.2-5.8-2.2s.4,1.6,1.2,2.4c.8.8-.3,1.3-.8,2.4-.5,1.1,5.1,3.5,5.1,3.5l.2-3.9s2.2,0,3.9,0,1.1,2.2.8,4.9,1.1,2.4,1.9,5.1-2.4,1.1-3.8,1.1h.2ZM541.4,517c-4.4,2.4-8.6,5.1-12.6,8.1l-.3-.4c18.4-14.4,48.9-29.5,70.2-12.9,8.2,6.2,12.6,15.8,19.4,23.1,1.6,1.6,3.4,2.7,5.2,2.7h3.9l-6.8-13.5.6-.4,11.6,14.4,2,2.5c-.9.2-3.6,1.1-4.5,1.2-3.8.4-8.2.7-11.5-1.4-3.6-2.2-5.9-5.7-8.2-9-3.9-5.9-8.2-12.9-13.6-17.4-15.9-13.5-38.9-6.1-55.3,2.9h-.1ZM491.5,564.4c-15.1-5.4-9.4-17.5-9.4-17.5,0,0,1.3,5.4,7,9.7s14.6,2.7,14.6,2.7c0,0,.5.3-1.1-1.1-1.6-1.3,1.3-1.6,5.9-2.4,4.6-.8,10,0,10,0,0,0-6.5-2.4-3-4.9,3.5-2.4,14,.5,14,.5,0,0-5.2-3.1-.5-5.1,1.9-.8,6.5-.5,9.7,1.1s10.5,7.8,10.5,7.8l-11.1-2.4s.3.8,2.4,2.7,7.8,2.7,7.8,2.7c0,0-2.7,2.2-7.6,2.4-4.9.3-11.1-3.5-11.1-3.5,0,0-.3,1.3,1.6,2.4,1.9,1.1,6.5,2.4,6.5,2.4,0,0-1.6,1.6-5.7,1.3s-6.7-1.9-6.7-1.9c0,0,.8,1.6,3.2,3,2.4,1.3,5.9,1.1,5.9,1.1,0,0-2.2,2.4-9.2,1.6s-5.9-2.4-12.9-3.5-5.9,6.2-21,.8h.2ZM467.7,604.4l-1.1-4.6c6.1-2.9,6.1-3.2,20.9-10,17.8-8.1,33.3-8.5,33.3-8.5,0,0-9.8,1.9-26.9,9.2-13.5,5.8-21.2,10.1-21.2,10.1l1.6,4.4-20.2,7,13.5-7.7h.1ZM448.6,623.9s6.2-4.8,15.7-2.5,10,10.8,10,10.8l-6.1-1.3,2.9,6s-4.1-2.4-11.6-5.4-13.8-1.8-13.8-1.8l8.6-3.8-5.8-2h0ZM445.3,638.2s4.9-5.1,13.6-2.8,8.4,10.5,8.4,10.5l-4.5-2.7,1.2,6s-3.6-1.6-9.4-3.6-10.9-1.6-10.9-1.6v-.3l6.2-4.1-4.7-1.3h0ZM407.4,677c0,.5-.1.8-.1.8,0,0,0-.3-.6-.9h.7ZM410.1,768.5c-8.1-5.4-10.6-13.3-11-22.6-.7-9.9,3-19.9,9.8-27-3,8.9-5.9,17.5-5.5,26.9,0,6.7.9,13.7,5.2,19.2,1.4,1.8,3,3.7,4.4,5.6-1-.7-2-1.4-2.9-2.1h0ZM427.3,742.5l-.6-1.3c-.4-.9-9-21.1-5.9-42.6,1.2-8.3,2.5-13.9,3.6-15.4l3.7,2.8v-.2c.1,0-1.2,2.4-2.8,13.5-2.5,17.2,3.2,34.1,5,38.8l49.6,2.8c.1,1.4.2,3,0,4.6l-52.8-2.9h.2ZM496.4,822.5s-4.6,2.4-12.2-2.3-6.5-9.2-6.5-9.2c0,0,2.9,3.1,7.9,6.7,5,3.6,10.8,4.9,10.8,4.9h0ZM487.2,812.2s3.7-11.9-4.5-13.7-14.8,17.9-14.8,17.9c0,0-2.2-8.9,2.8-16.5,5-7.7,13.8-6.1,13.8-6.1v-6.8c0-6.8,6.3-12.7,6.3-12.7,0,0-1.7,3.8-2.4,11.7-.7,7.8.3,8.7.3,8.7,0,0,4.9,2.9,5,10.5s-6.6,7-6.6,7h.1ZM545.1,747.2l-.4,1.9-24-1.3c.6-1.5,1.3-3.1,2.3-4.5l18,1c.8-4.4,2.6-15.6,1.8-25.9-.5-5.5-1.4-11.4-2.3-16.5,1.8.3,3.5.7,4.9,1.1.8,4.7,1.6,10,2,15,1.2,13.9-2.1,28.6-2.2,29.2h0ZM601.4,717.7c-.6.4-1.3.8-1.9,1.2,1.3,1.9,2.5,3.9,3.8,6,5.4,9.5,9.9,20.2,9.8,31.3.2,7.3-.7,14.5-2,21.5-1.3,7.1-3,14-5.2,20.8h-.4c3.7-16.5,6.7-35.8,2.1-52.2-3.3-9.7-9-18.7-15.6-26.4l-2.7-3.1c1.6-.8,4.6-2.4,6.1-3.3,18.1-11.3,31.2-29.1,40-48.3,3.1-6.9,5.7-14,7.5-21.4h.5c-2.4,28.4-17.8,58.2-41.9,74h0Z"/>
          <path d="M353.1,818.4c-5,1.2-9.5,3.1-12.4,6-4.8,4.8-7.1,7.9-8.9,10.2-2.2,3-3.4,4.9-7.7,7.7-1.8,1.2-4.2,2.4-6.7,3.6-8.1,3.7-17.9,7-17.9,7v.2l-1.6,3.3-8.4.8-5.1-4.4-1.6-1.4s-1.1.3-2.6.9c-4.1,1.7-11.5,5.9-12.4,13.9-1.2,11,1.5,13.2,1.5,13.2,0,0,25-3.1,32.7-6.9,7.7-3.8,43.1-21.9,48-27.6,4.9-5.8,34.9-28.1,34.9-28.1,0,0-17.8-1.7-31.7,1.7h0Z"/>
          <path d="M619.1,839.1h-.5c-4.4.6-2.7,10-2.7,10l-8.9-.5-6.6-10.9s-9.2,2.6-21.7,12.2c-12.5,9.5-13.3,19.7-13.3,19.7,0,0,34.4,2.1,37.3.7,1.5-.8,2.7-1.8,3.5-2.7.7-.7,1.9-.7,2.6,0l1.9,2s12,0,19.9-1.8,25.5-18.9,25.5-18.9c0,0-21.6-6.6-32.2-9-2.3-.5-4.1-.9-5-.9h.2Z"/>
          <path d="M532.9,679.9h0c.8.2,7.3,1.6,16.5,1.3,1,0,1.9,0,2.8-.3-.7.6-1.3,1.3-1.9,2-7.4.6-15.3-.7-18.4-1.2-.4,0-.7.4-.4.7,1.5,1.4,4.9,3.9,11.1,5.7,1.2.3,2.3.7,3.3,1.1h0c.7.3,1.5.5,2.2.8,0,0,.3,0,.4.2,1.4.6,2.7,1.2,4,1.7,3.1,1.4,5.8,2.8,8.5,3.6.9.3,1.8.5,2.7.7.7,0,1.4.2,2.1.2h4.3c2.3,0,4.6-.4,6.5-.6,2-.2,3.2-.3,4.7-.9,1.8-.8,2.9-2.5,2.9-4.4s-.5-3.9-1.9-6.7c-2.5-4.8-6.2-7.6-8.3-8.9-.6-.4-1.4-.4-2.1,0-3.8,1.7-6.6,3.4-9.4,4.8-.9-.3-1.8-.6-2.7-.7,1.7-.7,3.1-1.5,4.3-2.1.4-.2.2-.8-.2-.7-4.7,1.3-11.3,4.2-18.1,3.4-7.6-.9-9.9-2.4-12.2-2.2-1.3,0-2.1.3-2.6.5-.2,0-.3.4,0,.6l1.8,1.6h.1ZM563.9,684.1c.5.5.9,1,1.2,1.6.5,1,.8,2.1.8,3.3s0,.6,0,.9v.2c0,.3,0,.6-.2.9h0c0,.3-.2.6-.3.9v.2c0,.3-.3.5-.4.8h0c-.3.4-.6.7-.9,1.1.3-.3.6-.6.8-1h0c-2.7-.5-5.6-1.8-8.9-3.3-.2,0-.5-.2-.8-.4-.9-.4-1.8-.8-2.7-1.2v1c0-1.4.4-2.8,1.2-3.9.2-.4.5-.7.8-1s.9-.8,1.5-1.1h0c1-.6,2.2-.9,3.4-.9,1.9,0,3.7.8,4.9,2h-.4Z"/>
          <path d="M533,690.2s.2,0,.3,0c1,0,6.2.9,11.2,2.3h0c.7.2,1.3.4,2,.6h0c.3,0,.6.2.9.3h0c.3,0,.6.2.9.4h0c.2,0,.5.2.7.3h.2c.3,0,.5.2.8.4h0c0,0,.2,0,.4.2h0c.4.2.7.4,1.1.7.3.2.7.5,1,.7,1,.7,1.8,1.2,2.6,1.8.5.3.9.6,1.4.9.3.2.5.3.8.5.5.2.9.4,1.3.6.4.2.8.3,1.2.4,1,.3,2,.3,3.1,0,.8,0,1.6-.4,2.4-.6.8-.3,1.6-.6,2.3-.8,0,0,.2,0,.2-.2h0c0-.3-.2-.6-.5-.6-1.1,0-2.4,0-4,0-2.7-.3-5.9-1.2-9.4-3.2-.4-.2-.7-.4-1.1-.7-1.3-.8-2.6-1.6-4-2.2h0c-.4-.2-.9-.4-1.3-.6-.2,0-.4-.2-.6-.2-.6-.2-1.1-.5-1.7-.7-6.1-2.3-12-3.3-14.5-3.7-.4,0-.7.4-.4.7l2.4,2.7h.2Z"/>
        </g>
      </g>
    </g>
  </g>
</svg>