<?xml version="1.0" encoding="UTF-8"?>
<svg id="Layer_2" data-name="Layer 2" xmlns="http://www.w3.org/2000/svg" xmlns:xlink="http://www.w3.org/1999/xlink" viewBox="0 0 472.66 479.61">
  <defs>
    <style>
      .cls-1 {
        fill: none;
      }

      .cls-2 {
        fill: #d8e2ea;
      }

      .cls-3 {
        fill: #001d2b;
      }

      .cls-4 {
        clip-path: url(#clippath-1);
      }

      .cls-5 {
        fill: #fff;
      }

      .cls-6 {
        opacity: .2;
      }

      .cls-7 {
        fill: #0b4eaf;
      }

      .cls-8 {
        fill: red;
      }

      .cls-9 {
        fill: #071c2a;
      }

      .cls-10 {
        fill: #ffcb06;
      }

      .cls-11 {
        clip-path: url(#clippath);
      }
    </style>
    <clipPath id="clippath">
      <path class="cls-1" d="M379.2,294.19l-.03.02v-60.21l-43.84,35.57,25.57-.56v41.08l-115.45,87.15.11-263.15,80.61-.1-.06,18.64,46.29-45.72h-126.84v-17.1c12.04-3.91,20.75-15.22,20.75-28.57,0-16.59-13.45-30.04-30.04-30.04s-30.04,13.45-30.04,30.04c0,13.4,8.78,24.75,20.9,28.62v17.05H98.45l48.2,45.67-.44-18.59,80.92.1.24,263.44-6.82-5.08-109.1-82.36v-41.08l25.57.56-43.84-35.57v60.21l-.03-.02v25.3l143.03,107.71.04-.03,142.99-107.68v-25.3ZM220.28,61.25c0-8.83,7.16-15.99,15.99-15.99s15.99,7.16,15.99,15.99-7.16,15.99-15.99,15.99-15.99-7.16-15.99-15.99Z"/>
    </clipPath>
    <clipPath id="clippath-1">
      <polygon class="cls-1" points="324.46 264.45 379.82 221.76 380.51 185.65 209.54 190.22 93.17 190.22 93.22 223.66 149.04 265.32 161.19 280.56 324.46 264.45"/>
    </clipPath>
  </defs>
  <g id="Layer_1-2" data-name="Layer 1">
    <g>
      <path class="cls-5" d="M50.92,340.71V121.08c0-16.21-6.3-31.46-17.74-42.95L0,44.81h120.83c5.12-14.41,18.9-24.76,35.05-24.76h35.06C202.49,7.23,218.66,0,236.27,0s33.77,7.23,45.33,20.04h34.34c16.15,0,29.93,10.35,35.05,24.76h121.68l-33.18,33.32c-11.44,11.49-17.74,26.74-17.74,42.95v219.64l-185.41,138.9L50.92,340.71Z"/>
      <path class="cls-8" d="M63.94,334.2V121.08c0-19.68-7.65-38.19-21.53-52.14l-11.06-11.11h100.37v-.61c0-13.32,10.84-24.15,24.15-24.15h41.27c9.07-12.62,23.44-20.04,39.12-20.04s30.05,7.43,39.12,20.04h40.55c13.32,0,24.15,10.84,24.15,24.15v.61h101.22l-11.06,11.11c-13.89,13.94-21.53,32.46-21.53,52.14v213.12l-172.38,129.14L63.94,334.2Z"/>
      <path class="cls-9" d="M333.58,64.34v-7.12c0-9.74-7.9-17.64-17.64-17.64h-44.04c-7.33-12.01-20.56-20.04-35.63-20.04s-28.3,8.03-35.63,20.04h-44.76c-9.74,0-17.64,7.9-17.64,17.64v7.12H47.03c15.01,15.07,23.43,35.47,23.43,56.73v209.86l165.87,124.26h0l165.87-124.26V121.08c0-21.27,8.42-41.67,23.43-56.73h-92.05Z"/>
      <g id="logos">
        <path class="cls-5" d="M313,56.45c-1.3-1.61-3.02-3.05-4.58-3.85-3.22-1.68-10.63-1.75-13.93,0-2.4,1.27-4.8,3.59-6.15,6.25.67.41,1.51.86,2.53,1.33.3-.63.72-1.28,1.25-1.94,2.67-3.13,4.69-3.99,9.32-4.11,4.75.12,6.61.9,9.33,4.11,1.17,1.45,1.82,2.89,1.82,4.06.02,1.25-1.6,3.3-2.6,4.77-.97,1.4-2.06,2.85-2.83,4.26-.97-1.22-2.12-2.2-3.48-3.03,1.88-.86,3.18-2.75,3.18-4.95,0-3-2.43-5.43-5.43-5.43s-5.43,2.43-5.43,5.43c0,.77.16,1.5.45,2.17-4.36-1.38-10.53-3.61-12.99-6.86.14,1.25,1.22,5.29,4.57,6.73h0c3.27,1.55,6.84,2.65,9.48,3.45,1.15.35,2.14.66,2.65.87,2.64,1.09,5.71,3.31,5.81,5.99v.26c-1.44-.95-3.34-1.61-5.05-2.32-4.31-1.54-9.91-2.78-14.62-5.68.91,2.68,3.01,4.8,5.67,5.76,2.68.99,5.63,1.75,7.85,2.56,2.8,1.14,6.1,2.21,6.14,4.32-.01.83.06,1.19-.13,2.2-1.45-1.27-3.25-2.36-5-3.09-3.33-1.18-7.37-1.95-11.33-3.56.69,1.53,2.07,3.65,4.55,4.54,1.72.52,4.45,1.18,5.68,1.66,1.71.72,3.4,1.8,4.68,3.04-.68.61-1.63.66-2.98,2.86-2.26-3.63-4.46-3.74-6.94-4.28.56,1.55,1.38,2.91,2.79,3.88,1.66,1.13,3,2.65,3.98,4.4l.17.31c1.03-1.85,2.5-3.41,4.26-4.58.77-.51,1.41-1.17,1.87-1.91,1.12-1.77,1.24-3.75,1.24-4.52v-5.91c-.11-1.88,1.27-3.73,2.83-5.97,1.49-2.26,3.78-4.75,3.8-7.38,0-2.34-1.33-4.48-2.45-5.86Z"/>
        <path class="cls-5" d="M158.28,56.08c.17,8.62.4,17.25.59,25.87.01.6-.04,1.2.04,1.79,5.48,3.31,11.04,6.52,16.53,9.83h.07c5.49-3.31,11.05-6.52,16.53-9.83,0-.12.04-.24.04-.36.07-1.01.01-2.13.03-3.15.19-8.51.46-17.02.55-25.54,0-.06-.02-.16.04-.2v-1.61h-34.46c.01,1.07.01,2.14.04,3.2ZM176.46,54.81h14.23c-.01,1.03-.01,2.06-.04,3.09-.14,6.91-.32,13.83-.48,20.74-.03,1.3,0,2.61-.08,3.91-4.07,2.47-8.19,4.85-12.28,7.3l-1.36.78v-35.82ZM160.4,61.97c-.02-.64-.07-1.3-.08-1.94,0-.53,0-1.06,0-1.59l3.88,2.23c-.69,1.06-1.27,2.23-1.39,3.51-.82-.41-1.59-.94-2.41-1.36-.02-.28,0-.57,0-.86ZM160.55,68.81c-.03-.65-.07-1.32-.08-1.97,0-.55.04-1.12-.03-1.67l2.91,1.69c.83,1.47,1.88,2.78,2.78,4.21.53.84,1.06,1.7,1.48,2.59l-7.05-4.11c-.02-.25,0-.5,0-.74ZM160.6,71.9l7.88,4.63v4.3s-.31-.15-.35-.18c-2.49-1.42-4.93-2.93-7.42-4.36-.04-.22,0-.45-.02-.68-.05-1.13-.02-2.27-.07-3.4,0-.04-.07-.32-.02-.31ZM160.79,82.62l-.06-.09c-.07-1.23-.03-2.47-.07-3.7,0-.07-.03-.13-.04-.2l8.19,4.7c.2.27.3.62.47.92.85,1.52,2.4,2.4,4.1,2.65l.27,3.29-12.87-7.58ZM174.48,54.81v.77c-1.06.04-2.11.1-3.16.29l-1.78-1.05h4.94ZM174.48,57.45v2.78c-2.98.21-5.36,2.17-6.77,4.7l.54.98s.06.03.09.02c.09-.03.51-.68.61-.82,1.39-1.78,3.15-3.15,5.52-3.17v1.98c-1.69.35-3.11,1.53-4.13,2.87-.13.17-.8,1.1-.81,1.25,0,.06.47.93.52.96.03.02.08.01.12,0,.07-.03.74-1,.88-1.17.88-1.03,2.07-2,3.42-2.27v19.54c-1.85-.06-3.44-.93-3.9-2.82-.07-.29-.17-.79-.17-1.08,0-1.78.15-3.72.04-5.49-.14-2.14-2.79-5.96-4.03-7.79-.78-1.14-1.74-2.08-1.64-3.59.12-1.92,2.45-4.62,4.05-5.57,1.69-1.01,3.71-1.24,5.65-1.32ZM160.27,54.81h5.23l3.2,1.85c-1.26.55-2.36,1.41-3.27,2.43l-5.14-3.01c-.08-.09-.03-.77-.04-.95,0-.06-.08-.31.02-.31Z"/>
        <path class="cls-5" d="M185.37,80.76h-3.82v-5.85h-3.11c0,.17.11.34.18.5.08.19.66,1.27.66,1.35v6.31h6.97l.68-2.74s-.08,0-.12,0c-.34.06-1.19.43-1.44.43Z"/>
        <path class="cls-5" d="M179.28,57.98v5.6c-.12.55-.36,1.07-.44,1.63h2.82c.01-.11-.02-.2-.05-.3-.05-.2-.28-.79-.28-.93v-1.01h4.3c.94,0,1.99-.95,2.29-1.81.24-.71.23-2.47-.06-3.17-.33-.8-1.33-1.68-2.23-1.68h-7.23c0,.06,0,.11.03.17.2.48.67.99.85,1.49ZM184.93,58.62c.05,0,.27.11.34.14.69.38.7,1.35.02,1.76-.05.03-.29.15-.32.15h-3.42v-1.23l-.37-.82h3.75Z"/>
        <path class="cls-5" d="M185.84,71.86h-4.3v-5.82h-3.11c.03.15.11.32.18.46.08.19.66,1.27.66,1.35v6.31h7.45l.68-2.74c-.1,0-.2.03-.29.05-.25.07-1.09.38-1.26.38Z"/>
      </g>
      <g>
        <g id="anchor">
          <g>
            <g>
              <path class="cls-2" d="M379.2,294.19l-.03.02v-60.21l-43.84,35.57,25.57-.56v41.08l-115.45,87.15.11-263.15,80.61-.1-.06,18.64,46.29-48.62h-126.84v-14.19c12.04-3.91,20.75-15.22,20.75-28.57,0-16.59-13.45-30.04-30.04-30.04s-30.04,13.45-30.04,30.04c0,13.4,8.78,24.75,20.9,28.62v14.14H98.45l48.2,48.57-.44-18.59,80.92.1.24,263.44-6.82-5.08-109.1-82.36v-41.08l25.57.56-43.84-35.57v60.21l-.03-.02v25.3l143.03,107.71.04-.03,142.99-107.68v-25.3ZM220.28,61.25c0-8.83,7.16-15.99,15.99-15.99s15.99,7.16,15.99,15.99-7.16,15.99-15.99,15.99-15.99-7.16-15.99-15.99Z"/>
              <circle class="cls-3" cx="236.27" cy="61.25" r="15.99"/>
            </g>
            <g class="cls-11">
              <g class="cls-6">
                <polygon points="103.2 314.58 102.97 257.58 84.47 240.38 56.94 227.83 74.89 329.99 236.12 439.32 236.17 416 103.2 314.58"/>
                <polyline points="148.38 281.98 139.29 266.95 174.29 281.1 166.29 285.67"/>
                <polygon points="222.21 386.63 236.17 416 236.17 160.98 221.04 185.81 222.21 386.63"/>
                <polygon points="223.21 104.02 236.17 103.96 236.17 85.83 233.92 84.47 223.27 95.66 223.21 104.02"/>
                <polygon points="95.39 105.05 129.2 124.1 135.34 155.45 86.61 117.93 95.39 105.05"/>
                <polygon points="373.13 106.03 340.91 124.29 335.98 149.12 380.55 117.93 373.13 106.03"/>
                <path d="M238.45,84.98l17.13,9.97,21.33-36.24-18.01.19s2.06,13.32-7.13,19.32c-9.19,6-13.32,6.75-13.32,6.75Z"/>
                <path d="M212.34,66.01l-13.93.48-5.9-8.61,14.36-20.37,29.31-17.07v17.74s-12.17-1.46-18.57,7.47c-6.39,8.93-5.26,20.37-5.26,20.37Z"/>
                <path d="M249.5,60.23l9.4-1.32s-.63-10.74-8.7-16.21c-8.07-5.47-14.03-4.51-14.03-4.51v9.9l11.42,8.25,1.91,3.91Z"/>
                <path d="M222.83,64.26l-10.5,1.76s2.32,9.12,10.39,14.59c8.07,5.47,13.44,5.71,13.44,5.71v-9.9l-11.42-8.25-1.91-3.91Z"/>
                <polygon points="369.95 313.27 236.17 416 235.75 438.78 391.53 327.5 369.95 313.27"/>
                <polygon points="355.47 308.11 369.95 313.27 370.58 255.85 331.34 271.3 354.22 274.55 355.47 308.11"/>
              </g>
            </g>
          </g>
        </g>
        <polygon class="cls-3" points="120.08 132.89 352.83 132.89 352.83 152.1 122.91 152.1 120.08 132.89"/>
        <g>
          <polygon class="cls-3" points="406.26 206.51 406.26 206.51 406.26 206.51 406.26 206.51"/>
          <rect class="cls-3" x="216.03" y="136.82" width="39.15" height="199.92"/>
          <g>
            <g>
              <path class="cls-5" d="M119.11,144.47c0,1.13.4,2.85.8,4.2l12.56,44.61c.56,1.5,1.51,3.82,2.15,4.5h-11.6c.08-.15.08-.3.08-.6,0-2.17-1.27-7.65-1.59-8.62l-.08-.3h-14.23l-.08.3c-.32.97-1.67,6.52-1.67,8.62,0,.22,0,.45.08.6h-11.6c.64-.67,1.59-3,2.15-4.5l12.64-44.61c.4-1.27.72-3,.72-4.12,0-.3,0-.53-.08-.75h9.86c-.08.15-.08.45-.08.67ZM119.34,179.78l-4.85-20.32h-.64l-4.69,20.32h10.17Z"/>
              <path class="cls-5" d="M139.13,191.48v-41.31c0-1.65-.32-4.95-.64-6.37h10.89c-.4,1.5-.64,5.25-.64,6.75v38.91h13.04c1.75,0,5.25-.22,6.76-.6v8.92h-30.04c.4-1.35.64-4.57.64-6.3Z"/>
              <path class="cls-5" d="M175.54,191.48v-41.31c0-1.65-.32-4.95-.64-6.37h10.89c-.4,1.5-.64,5.25-.64,6.75v38.91h13.04c1.75,0,5.25-.22,6.75-.6v8.92h-30.04c.4-1.35.64-4.57.64-6.3Z"/>
              <path class="cls-5" d="M227.67,188.63c-.08-2.47-.32-5.77-.64-7.2h10.89c-.4,1.42-.56,2.77-.64,4.57,0,2.02,1.99,3.45,3.9,3.45h5.4c1.91,0,3.9-1.42,3.9-3.45v-3.9c0-.98-1.43-2.02-2.62-2.85-5.01-3.52-10.57-7.12-16.45-10.8-2.15-1.35-3.74-4.42-3.74-7.57v-7.95c0-5.4,5.17-9.15,10.41-9.15h11.53c5.32,0,10.49,3.75,10.49,9.15,0,2.62.24,5.85.64,7.2h-10.89c.4-1.5.56-3,.64-4.5,0-2.1-1.99-3.52-3.97-3.52h-5.41c-1.59,0-3.82,1.42-3.82,3.45v4.2c0,1.27,1.11,1.95,2.31,2.7l16.85,11.1c2.23,1.35,3.66,4.12,3.66,7.12v7.95c0,5.4-5.25,9.15-10.49,9.15h-11.53c-5.25,0-10.41-3.75-10.41-9.15Z"/>
              <path class="cls-5" d="M278.14,191.03v-38.92h-5.96c-1.83,0-5.25.22-6.68.6v-8.92h34.81v8.92c-1.43-.38-4.85-.6-6.68-.6h-5.88v39.37c0,1.72.24,4.95.64,6.3h-10.89c.4-1.5.64-5.25.64-6.75Z"/>
              <path class="cls-5" d="M321.3,144.47c0,1.13.4,2.85.8,4.2l12.56,44.61c.56,1.5,1.51,3.82,2.15,4.5h-11.6c.08-.15.08-.3.08-.6,0-2.17-1.27-7.65-1.59-8.62l-.08-.3h-14.23l-.08.3c-.32.97-1.67,6.52-1.67,8.62,0,.22,0,.45.08.6h-11.6c.64-.67,1.59-3,2.15-4.5l12.64-44.61c.4-1.27.72-3,.72-4.12,0-.3,0-.53-.08-.75h9.86c-.08.15-.08.45-.08.67ZM321.54,179.78l-4.85-20.32h-.64l-4.69,20.32h10.17Z"/>
              <path class="cls-5" d="M365.49,197.1c0-1.5-.64-4.42-.95-5.85l-4.29-16.87h-9.3v17.1c0,1.72.24,4.95.64,6.3h-10.89c.4-1.35.64-4.57.64-6.3v-41.31c0-1.65-.32-4.95-.64-6.37h23.76c5.33,0,10.49,3.75,10.49,9.15v12.3c0,3.52-2.15,6.3-5.17,7.87l5.17,20.4c.24.6.95,2.62,1.67,3.75l.4.53h-11.6c.08-.22.08-.38.08-.67ZM365.33,162.61v-7.05c0-2.02-1.99-3.45-3.97-3.45h-10.41v13.95h10.41c1.99,0,3.97-1.42,3.97-3.45Z"/>
              <path class="cls-5" d="M160.98,309.38v-38.19c0-5.78,4.8-9.79,9.82-9.79h12c5.02,0,9.82,4.01,9.82,9.79v.88c0,1.85.22,5.37.6,6.82h-10.27c.37-1.6.52-3.21.6-4.81,0-2.25-1.8-3.77-3.67-3.77h-6.22c-1.8,0-3.6,1.52-3.6,3.69v32.57c0,2.17,1.8,3.69,3.6,3.69h6.3c1.8,0,3.6-1.52,3.6-3.69v-9.63h-.67c-1.72,0-3.82.32-4.87.56v-10.19c1.05.32,3.15.56,4.87.56h10.2c-.45,1.77-.45,3.37-.45,5.22v16.29c0,5.78-4.8,9.79-9.82,9.79h-12c-5.02,0-9.82-4.01-9.82-9.79Z"/>
              <path class="cls-5" d="M220.66,262.12c0,1.2.38,3.05.75,4.49l11.85,47.74c.52,1.6,1.42,4.09,2.02,4.81h-10.95c.07-.16.07-.32.07-.64,0-2.33-1.2-8.18-1.5-9.23l-.07-.32h-13.42l-.07.32c-.3,1.04-1.58,6.98-1.58,9.23,0,.24,0,.48.08.64h-10.95c.6-.72,1.5-3.21,2.02-4.81l11.92-47.74c.38-1.36.67-3.21.67-4.41,0-.32,0-.56-.07-.8h9.3c-.08.16-.08.48-.08.72ZM220.88,299.91l-4.57-21.74h-.6l-4.42,21.74h9.6Z"/>
              <path class="cls-5" d="M239.48,313.95v-47.25c0-1.85-.3-4.17-.53-5.3h11.85l6.82,21.9h.6l6.82-21.9h11.85c-.3,1.12-.52,3.45-.52,5.3v45.73c0,1.85.22,5.29.6,6.74h-10.27c.38-1.44.6-4.89.6-6.74v-32.57h-.67l-5.25,17.65h-6.9l-5.25-17.65h-.6v32.57c0,1.85.22,5.29.6,6.74h-10.27c.22-1.12.53-3.37.53-5.21Z"/>
              <path class="cls-5" d="M285.22,311.95v-43.81c0-1.85-.22-5.29-.6-6.74h29.84v9.55c-1.5-.4-5.25-.64-6.75-.64h-13.42v14.12h9.45c1.72,0,4.95-.24,6.3-.64v10.19c-1.35-.4-4.57-.64-6.3-.64h-9.45v16.93h13.87c1.72,0,4.95-.24,6.3-.64v9.55h-29.84c.38-1.6.6-5.62.6-7.22Z"/>
            </g>
            <g>
              <path class="cls-5" d="M119.11,144.47c0,1.13.4,2.85.8,4.2l12.56,44.61c.56,1.5,1.51,3.82,2.15,4.5h-11.6c.08-.15.08-.3.08-.6,0-2.17-1.27-7.65-1.59-8.62l-.08-.3h-14.23l-.08.3c-.32.97-1.67,6.52-1.67,8.62,0,.22,0,.45.08.6h-11.6c.64-.67,1.59-3,2.15-4.5l12.64-44.61c.4-1.27.72-3,.72-4.12,0-.3,0-.53-.08-.75h9.86c-.08.15-.08.45-.08.67ZM119.34,179.78l-4.85-20.32h-.64l-4.69,20.32h10.17Z"/>
              <path class="cls-5" d="M139.13,191.48v-41.31c0-1.65-.32-4.95-.64-6.37h10.89c-.4,1.5-.64,5.25-.64,6.75v38.91h13.04c1.75,0,5.25-.22,6.76-.6v8.92h-30.04c.4-1.35.64-4.57.64-6.3Z"/>
              <path class="cls-5" d="M175.54,191.48v-41.31c0-1.65-.32-4.95-.64-6.37h10.89c-.4,1.5-.64,5.25-.64,6.75v38.91h13.04c1.75,0,5.25-.22,6.75-.6v8.92h-30.04c.4-1.35.64-4.57.64-6.3Z"/>
              <path class="cls-5" d="M227.67,188.63c-.08-2.47-.32-5.77-.64-7.2h10.89c-.4,1.42-.56,2.77-.64,4.57,0,2.02,1.99,3.45,3.9,3.45h5.4c1.91,0,3.9-1.42,3.9-3.45v-3.9c0-.98-1.43-2.02-2.62-2.85-5.01-3.52-10.57-7.12-16.45-10.8-2.15-1.35-3.74-4.42-3.74-7.57v-7.95c0-5.4,5.17-9.15,10.41-9.15h11.53c5.32,0,10.49,3.75,10.49,9.15,0,2.62.24,5.85.64,7.2h-10.89c.4-1.5.56-3,.64-4.5,0-2.1-1.99-3.52-3.97-3.52h-5.41c-1.59,0-3.82,1.42-3.82,3.45v4.2c0,1.27,1.11,1.95,2.31,2.7l16.85,11.1c2.23,1.35,3.66,4.12,3.66,7.12v7.95c0,5.4-5.25,9.15-10.49,9.15h-11.53c-5.25,0-10.41-3.75-10.41-9.15Z"/>
              <path class="cls-5" d="M278.14,191.03v-38.92h-5.96c-1.83,0-5.25.22-6.68.6v-8.92h34.81v8.92c-1.43-.38-4.85-.6-6.68-.6h-5.88v39.37c0,1.72.24,4.95.64,6.3h-10.89c.4-1.5.64-5.25.64-6.75Z"/>
              <path class="cls-5" d="M321.3,144.47c0,1.13.4,2.85.8,4.2l12.56,44.61c.56,1.5,1.51,3.82,2.15,4.5h-11.6c.08-.15.08-.3.08-.6,0-2.17-1.27-7.65-1.59-8.62l-.08-.3h-14.23l-.08.3c-.32.97-1.67,6.52-1.67,8.62,0,.22,0,.45.08.6h-11.6c.64-.67,1.59-3,2.15-4.5l12.64-44.61c.4-1.27.72-3,.72-4.12,0-.3,0-.53-.08-.75h9.86c-.08.15-.08.45-.08.67ZM321.54,179.78l-4.85-20.32h-.64l-4.69,20.32h10.17Z"/>
              <path class="cls-5" d="M365.49,197.1c0-1.5-.64-4.42-.95-5.85l-4.29-16.87h-9.3v17.1c0,1.72.24,4.95.64,6.3h-10.89c.4-1.35.64-4.57.64-6.3v-41.31c0-1.65-.32-4.95-.64-6.37h23.76c5.33,0,10.49,3.75,10.49,9.15v12.3c0,3.52-2.15,6.3-5.17,7.87l5.17,20.4c.24.6.95,2.62,1.67,3.75l.4.53h-11.6c.08-.22.08-.38.08-.67ZM365.33,162.61v-7.05c0-2.02-1.99-3.45-3.97-3.45h-10.41v13.95h10.41c1.99,0,3.97-1.42,3.97-3.45Z"/>
              <path class="cls-5" d="M160.98,309.38v-38.19c0-5.78,4.8-9.79,9.82-9.79h12c5.02,0,9.82,4.01,9.82,9.79v.88c0,1.85.22,5.37.6,6.82h-10.27c.37-1.6.52-3.21.6-4.81,0-2.25-1.8-3.77-3.67-3.77h-6.22c-1.8,0-3.6,1.52-3.6,3.69v32.57c0,2.17,1.8,3.69,3.6,3.69h6.3c1.8,0,3.6-1.52,3.6-3.69v-9.63h-.67c-1.72,0-3.82.32-4.87.56v-10.19c1.05.32,3.15.56,4.87.56h10.2c-.45,1.77-.45,3.37-.45,5.22v16.29c0,5.78-4.8,9.79-9.82,9.79h-12c-5.02,0-9.82-4.01-9.82-9.79Z"/>
              <path class="cls-5" d="M220.66,262.12c0,1.2.38,3.05.75,4.49l11.85,47.74c.52,1.6,1.42,4.09,2.02,4.81h-10.95c.07-.16.07-.32.07-.64,0-2.33-1.2-8.18-1.5-9.23l-.07-.32h-13.42l-.07.32c-.3,1.04-1.58,6.98-1.58,9.23,0,.24,0,.48.08.64h-10.95c.6-.72,1.5-3.21,2.02-4.81l11.92-47.74c.38-1.36.67-3.21.67-4.41,0-.32,0-.56-.07-.8h9.3c-.08.16-.08.48-.08.72ZM220.88,299.91l-4.57-21.74h-.6l-4.42,21.74h9.6Z"/>
              <path class="cls-5" d="M239.48,313.95v-47.25c0-1.85-.3-4.17-.53-5.3h11.85l6.82,21.9h.6l6.82-21.9h11.85c-.3,1.12-.52,3.45-.52,5.3v45.73c0,1.85.22,5.29.6,6.74h-10.27c.38-1.44.6-4.89.6-6.74v-32.57h-.67l-5.25,17.65h-6.9l-5.25-17.65h-.6v32.57c0,1.85.22,5.29.6,6.74h-10.27c.22-1.12.53-3.37.53-5.21Z"/>
              <path class="cls-5" d="M285.22,311.95v-43.81c0-1.85-.22-5.29-.6-6.74h29.84v9.55c-1.5-.4-5.25-.64-6.75-.64h-13.42v14.12h9.45c1.72,0,4.95-.24,6.3-.64v10.19c-1.35-.4-4.57-.64-6.3-.64h-9.45v16.93h13.87c1.72,0,4.95-.24,6.3-.64v9.55h-29.84c.38-1.6.6-5.62.6-7.22Z"/>
            </g>
          </g>
          <polygon class="cls-8" points="209.09 156.23 212.02 165.06 221.52 165.06 213.84 170.51 216.77 179.33 209.09 173.88 201.4 179.33 204.34 170.51 196.65 165.06 206.15 165.06 209.09 156.23"/>
        </g>
        <g id="LOGOS">
          <g id="ICON_1C_B">
            <path class="cls-5" d="M315.45,62.31c0-2.34-1.33-4.48-2.45-5.86-1.3-1.61-3.02-3.05-4.58-3.85-3.22-1.68-10.63-1.75-13.93,0-2.4,1.27-4.8,3.59-6.15,6.25.67.41,1.51.86,2.53,1.33.3-.63.72-1.28,1.25-1.94,2.67-3.13,4.69-3.99,9.32-4.11,4.75.12,6.61.9,9.34,4.11,1.17,1.45,1.82,2.89,1.82,4.06.02,1.25-1.6,3.3-2.6,4.77-.97,1.4-2.06,2.85-2.83,4.26-.97-1.22-2.12-2.2-3.48-3.03,1.88-.86,3.18-2.75,3.18-4.95,0-3-2.43-5.43-5.43-5.43s-5.43,2.43-5.43,5.43c0,.77.16,1.5.45,2.17-4.36-1.38-10.53-3.61-12.99-6.86.14,1.25,1.22,5.29,4.57,6.73h0c3.27,1.55,6.84,2.65,9.48,3.45,1.15.35,2.14.66,2.65.87,2.64,1.09,5.71,3.31,5.81,5.99v.26c-1.44-.95-3.34-1.61-5.05-2.32-4.31-1.54-9.91-2.78-14.62-5.68.91,2.68,3.01,4.8,5.67,5.76,2.68.99,5.63,1.75,7.85,2.56,2.8,1.14,6.1,2.21,6.14,4.32-.01.83.06,1.19-.13,2.2-1.45-1.27-3.25-2.36-5-3.09-3.33-1.18-7.37-1.95-11.33-3.56.69,1.53,2.07,3.65,4.55,4.54,1.72.52,4.45,1.18,5.68,1.66,1.71.72,3.4,1.8,4.68,3.04-.68.61-1.63.66-2.98,2.86-2.26-3.63-4.46-3.74-6.94-4.28.56,1.55,1.38,2.91,2.79,3.88,1.66,1.13,3,2.65,3.98,4.4l.17.31c1.03-1.85,2.5-3.41,4.26-4.58.77-.51,1.41-1.17,1.87-1.91,1.12-1.77,1.24-3.75,1.24-4.52v-5.91c-.11-1.88,1.27-3.73,2.83-5.97,1.49-2.26,3.78-4.75,3.8-7.38"/>
          </g>
          <g id="PLL_Logo_-_Black" data-name="PLL Logo - Black">
            <g>
              <path class="cls-5" d="M192.7,52.87v1.61c-.06.04-.04.14-.04.2-.09,8.52-.36,17.03-.55,25.54-.02,1.02.03,2.14-.03,3.15,0,.12-.05.24-.04.36-5.48,3.31-11.04,6.52-16.53,9.83h-.07c-5.49-3.31-11.05-6.52-16.53-9.83-.08-.59-.03-1.19-.04-1.79-.19-8.62-.42-17.25-.59-25.87-.02-1.07-.02-2.14-.04-3.2h34.46ZM165.5,54.81h-5.23c-.1,0-.02.25-.02.31,0,.18-.04.86.04.95l5.14,3.01c.91-1.02,2.02-1.88,3.27-2.43l-3.2-1.85ZM174.48,54.81h-4.94l1.78,1.05c1.04-.18,2.1-.25,3.16-.29v-.77ZM190.69,54.81h-14.23v35.82l1.36-.78c4.08-2.45,8.21-4.83,12.28-7.3.07-1.3.05-2.61.08-3.91.16-6.91.34-13.83.48-20.74.02-1.03.02-2.06.04-3.09ZM174.48,57.45c-1.94.09-3.95.32-5.65,1.32-1.6.95-3.93,3.66-4.05,5.57-.1,1.51.86,2.45,1.64,3.59,1.24,1.82,3.9,5.64,4.03,7.79.11,1.77-.05,3.71-.04,5.49,0,.29.1.79.17,1.08.46,1.89,2.04,2.76,3.9,2.82v-19.54c-1.35.27-2.54,1.24-3.42,2.27-.14.16-.82,1.14-.88,1.17-.03.01-.09.02-.12,0-.05-.03-.52-.9-.52-.96,0-.14.67-1.07.81-1.25,1.02-1.34,2.44-2.52,4.13-2.87v-1.98c-2.38.02-4.13,1.39-5.52,3.17-.11.14-.52.78-.61.82-.03.01-.07.02-.09-.02l-.54-.98c1.4-2.53,3.79-4.49,6.77-4.7v-2.78ZM164.2,60.67l-3.88-2.23c0,.53,0,1.06,0,1.59,0,.64.05,1.3.08,1.94.01.28-.02.57,0,.86.82.42,1.58.95,2.41,1.36.12-1.28.7-2.46,1.39-3.51ZM167.61,73.66c-.43-.9-.95-1.75-1.48-2.59-.9-1.43-1.95-2.74-2.78-4.21l-2.91-1.69c.07.55.03,1.11.03,1.67.01.65.05,1.32.08,1.97.01.25-.02.5,0,.74l7.05,4.11ZM168.48,80.83v-4.3l-7.88-4.63s.02.27.02.31c.05,1.13.02,2.28.07,3.4.01.22-.02.45.02.68,2.49,1.43,4.93,2.94,7.42,4.36.05.03.33.2.35.18ZM173.39,86.9c-1.7-.25-3.26-1.13-4.1-2.65-.17-.3-.27-.65-.47-.92l-8.19-4.7c0,.07.04.13.04.2.04,1.23,0,2.47.07,3.7l.06.09,12.87,7.58-.27-3.29Z"/>
              <g>
                <path class="cls-5" d="M181.55,74.9v5.85h3.82c.25,0,1.09-.37,1.44-.43.04,0,.08-.01.12,0l-.68,2.74h-6.97v-6.31c0-.08-.58-1.16-.67-1.35-.07-.16-.17-.34-.18-.5h3.11Z"/>
                <g>
                  <path class="cls-5" d="M181.33,62.97v1.01c0,.14.23.73.28.93.02.1.06.2.05.3h-2.82c.08-.55.32-1.08.44-1.63v-5.6c-.18-.5-.65-1.01-.85-1.49-.02-.06-.04-.11-.03-.17h7.23c.9,0,1.91.88,2.23,1.68.28.7.3,2.46.06,3.17-.29.86-1.34,1.81-2.29,1.81h-4.3ZM181.55,60.67h3.42s.27-.12.32-.15c.67-.41.67-1.37-.02-1.76-.06-.04-.28-.14-.34-.14h-3.75l.37.82v1.23Z"/>
                  <path class="cls-5" d="M181.55,66.05v5.82h4.3c.17,0,1.01-.32,1.26-.38.1-.03.19-.06.29-.05l-.68,2.74h-7.45v-6.31c0-.08-.58-1.16-.67-1.35-.07-.14-.15-.31-.18-.46h3.11Z"/>
                </g>
              </g>
            </g>
          </g>
        </g>
        <g>
          <path class="cls-10" d="M124.63,297.77l4.03-4.6c.51-.58,2.69-2.72,2.69-3.32v-1.12c0-.54-.64-.92-1.1-.92h-1.56c-.58,0-1.15.38-1.15.94.02.4.07.8.18,1.2h-3.15c.12-.36.19-1.22.19-1.92,0-1.44,1.5-2.44,3.04-2.44h3.34c1.52,0,3.01,1,3.01,2.44v2.12c0,.84-.46,1.22-1.08,2.02l-5.06,5.6h4.49c.53,0,1.52-.06,1.93-.16v2.38h-9.78v-2.22Z"/>
          <path class="cls-10" d="M136.99,297.15v-8.72c0-1.44,1.47-2.84,3.48-2.84h2.78c2,0,3.48,1.4,3.48,2.84v8.72c0,1.44-1.5,2.84-3.5,2.84h-2.76c-2,0-3.48-1.4-3.48-2.84ZM143.94,296.85v-8.12c0-.54-.58-.92-1.15-.92h-1.91c-.55,0-1.1.38-1.1.92v8.12c0,.54.55.92,1.1.92h1.93c.55,0,1.13-.38,1.13-.92Z"/>
        </g>
        <g>
          <path class="cls-10" d="M328.97,297.77l4.03-4.6c.51-.58,2.69-2.72,2.69-3.32v-1.12c0-.54-.64-.92-1.1-.92h-1.56c-.58,0-1.15.38-1.15.94.02.4.07.8.18,1.2h-3.15c.11-.36.18-1.22.18-1.92,0-1.44,1.5-2.44,3.04-2.44h3.34c1.52,0,3.02,1,3.02,2.44v2.12c0,.84-.46,1.22-1.08,2.02l-5.06,5.6h4.49c.53,0,1.52-.06,1.93-.16v2.38h-9.78v-2.22Z"/>
          <path class="cls-10" d="M341.32,297.15v-8.72c0-1.44,1.47-2.84,3.48-2.84h2.12c2,0,3.48,1.38,3.48,2.82,0,.38.02,1.32.12,1.74h-3.08c.11-.48.18-.96.18-1.44,0-.54-.48-.9-1.04-.9h-1.31c-.57,0-1.15.38-1.15.92v3.56c.23-.06.46-.7,1.59-.7h1.54c2,0,3.5,1.4,3.5,2.84v2.72c0,1.44-1.47,2.84-3.48,2.84h-2.46c-2,0-3.48-1.4-3.48-2.84ZM347.95,296.85v-2.12c0-.54-.57-.92-1.13-.92h-1.59c-.55,0-1.13.38-1.13.92v2.12c0,.54.48.92,1.04.92h1.66c.58,0,1.15-.38,1.15-.92Z"/>
        </g>
        <g class="cls-4">
          <g>
            <g>
              <polygon class="cls-8" points="380.24 219.16 204.43 219.16 207.93 212.84 383.75 212.84 380.24 219.16"/>
              <polygon class="cls-5" points="376.73 225.5 200.92 225.5 204.42 219.18 380.24 219.18 376.73 225.5"/>
              <polygon class="cls-8" points="373.29 231.71 197.48 231.71 200.98 225.39 376.8 225.39 373.29 231.71"/>
              <polygon class="cls-5" points="369.78 238.06 193.96 238.06 197.46 231.74 373.28 231.74 369.78 238.06"/>
              <polygon class="cls-8" points="366.34 244.27 190.52 244.27 194.02 237.95 369.84 237.95 366.34 244.27"/>
            </g>
            <g>
              <polygon class="cls-7" points="68.12 251.98 89.89 204.37 230.66 204.37 208.88 251.98 68.12 251.98"/>
              <path class="cls-3" d="M226.1,207.3l-19.1,41.75H72.68l19.1-41.75h134.32M235.22,201.43H88.01l-1.57,3.42-19.1,41.75-3.8,8.3h147.21l1.57-3.42,19.1-41.75,3.8-8.3h0Z"/>
            </g>
            <g>
              <polygon class="cls-5" points="170.43 221.24 170.83 225.21 175.76 225.21 171.08 227.66 171.48 231.63 168.18 229.18 163.5 231.63 166.15 227.66 162.85 225.21 167.78 225.21 170.43 221.24"/>
              <polygon class="cls-5" points="194.18 221.22 194.59 225.19 199.51 225.19 194.83 227.64 195.24 231.61 191.94 229.16 187.26 231.61 189.91 227.64 186.61 225.19 191.54 225.19 194.18 221.22"/>
              <polygon class="cls-5" points="146.48 221.24 146.88 225.21 151.81 225.21 147.13 227.66 147.53 231.63 144.24 229.18 139.56 231.63 142.2 227.66 138.91 225.21 143.84 225.21 146.48 221.24"/>
              <polygon class="cls-5" points="124.37 221.24 124.78 225.21 129.71 225.21 125.03 227.66 125.43 231.63 122.13 229.18 117.45 231.63 120.1 227.66 116.8 225.21 121.73 225.21 124.37 221.24"/>
              <polygon class="cls-5" points="137.72 210.87 138.12 214.84 143.05 214.84 138.37 217.29 138.77 221.26 135.48 218.81 130.8 221.26 133.44 217.29 130.15 214.84 135.07 214.84 137.72 210.87"/>
              <polygon class="cls-5" points="113.7 210.87 114.11 214.84 119.03 214.84 114.35 217.29 114.76 221.26 111.46 218.81 106.78 221.26 109.43 217.29 106.13 214.84 111.06 214.84 113.7 210.87"/>
              <polygon class="cls-5" points="185.61 210.87 186.01 214.84 190.94 214.84 186.26 217.29 186.66 221.26 183.37 218.81 178.69 221.26 181.33 217.29 178.04 214.84 182.96 214.84 185.61 210.87"/>
              <polygon class="cls-5" points="161.66 210.87 162.07 214.84 167 214.84 162.31 217.29 162.72 221.26 159.42 218.81 154.74 221.26 157.39 217.29 154.09 214.84 159.02 214.84 161.66 210.87"/>
              <polygon class="cls-5" points="134.63 231.71 135.04 235.68 139.96 235.68 135.28 238.13 135.69 242.1 132.39 239.65 127.71 242.1 130.36 238.13 127.06 235.68 131.99 235.68 134.63 231.71"/>
              <polygon class="cls-5" points="182.52 231.71 182.93 235.68 187.85 235.68 183.17 238.13 183.58 242.1 180.28 239.65 175.6 242.1 178.25 238.13 174.95 235.68 179.88 235.68 182.52 231.71"/>
              <polygon class="cls-5" points="205.45 210.87 205.85 214.84 210.78 214.84 206.1 217.29 206.5 221.26 203.21 218.81 198.53 221.26 201.17 217.29 197.88 214.84 202.8 214.84 205.45 210.87"/>
              <polygon class="cls-5" points="202.36 231.71 202.77 235.68 207.69 235.68 203.01 238.13 203.42 242.1 200.12 239.65 195.44 242.1 198.09 238.13 194.79 235.68 199.72 235.68 202.36 231.71"/>
              <polygon class="cls-5" points="158.58 231.71 158.98 235.68 163.91 235.68 159.23 238.13 159.63 242.1 156.34 239.65 151.66 242.1 154.3 238.13 151.01 235.68 155.93 235.68 158.58 231.71"/>
            </g>
          </g>
        </g>
        <rect class="cls-3" x="187.42" y="326.9" width="98.56" height="30.04"/>
        <g>
          <path class="cls-10" d="M199.78,331.3c0,.3.09.76.19,1.11l2.94,11.85c.13.4.35,1.01.5,1.19h-2.72s.02-.08.02-.16c0-.58-.3-2.03-.37-2.29l-.02-.08h-3.33l-.02.08c-.07.26-.39,1.73-.39,2.29,0,.06,0,.12.02.16h-2.72c.15-.18.37-.8.5-1.19l2.96-11.85c.09-.34.17-.8.17-1.09,0-.08,0-.14-.02-.2h2.31s-.02.12-.02.18ZM199.84,340.68l-1.14-5.4h-.15l-1.1,5.4h2.38Z"/>
          <path class="cls-10" d="M204.47,343.79v-10.97c0-.44-.07-1.31-.15-1.69h2.59l4.11,9.82h.15v-8.12c0-.44-.07-1.31-.15-1.69h2.55c-.09.4-.15,1.39-.15,1.79v10.85c0,.46.06,1.33.15,1.69h-2.59l-4.1-9.76h-.17v8.09c0,.46.06,1.31.15,1.67h-2.55c.09-.36.15-1.21.15-1.67Z"/>
          <path class="cls-10" d="M215.63,343.79v-10.97c0-.44-.08-1.31-.15-1.69h2.59l4.12,9.82h.15v-8.12c0-.44-.08-1.31-.15-1.69h2.55c-.09.4-.15,1.39-.15,1.79v10.85c0,.46.05,1.33.15,1.69h-2.59l-4.1-9.76h-.17v8.09c0,.46.05,1.31.15,1.67h-2.55c.09-.36.15-1.21.15-1.67Z"/>
          <path class="cls-10" d="M231.55,331.3c0,.3.09.76.19,1.11l2.94,11.85c.13.4.35,1.01.5,1.19h-2.72s.02-.08.02-.16c0-.58-.3-2.03-.37-2.29l-.02-.08h-3.33l-.02.08c-.07.26-.39,1.73-.39,2.29,0,.06,0,.12.02.16h-2.72c.15-.18.37-.8.5-1.19l2.96-11.85c.09-.34.17-.8.17-1.09,0-.08,0-.14-.02-.2h2.31s-.02.12-.02.18ZM231.61,340.68l-1.14-5.4h-.15l-1.1,5.4h2.38Z"/>
          <path class="cls-10" d="M236.24,343.79v-10.97c0-.44-.08-1.31-.15-1.69h5.57c1.25,0,2.46,1,2.46,2.43v3.27c0,1.43-1.21,2.43-2.46,2.43h-3.16v4.54c0,.46.05,1.31.15,1.67h-2.55c.09-.36.15-1.21.15-1.67ZM241.87,336.12v-1.87c0-.54-.47-.92-.93-.92h-2.44v3.7h2.44c.47,0,.93-.38.93-.92Z"/>
          <path class="cls-10" d="M245.7,343.03v-9.48c0-1.43,1.19-2.43,2.44-2.43h3c1.25,0,2.44,1,2.44,2.43v9.48c0,1.43-1.21,2.43-2.46,2.43h-2.98c-1.25,0-2.44-1-2.44-2.43ZM251.32,342.33v-8.09c0-.54-.47-.92-.93-.92h-1.55c-.45,0-.89.38-.89.92v8.09c0,.54.45.92.89.92h1.56c.45,0,.91-.38.91-.92Z"/>
          <path class="cls-10" d="M255.63,343.79v-10.97c0-.44-.08-1.31-.15-1.69h2.55c-.09.4-.15,1.39-.15,1.79v10.34h3.05c.41,0,1.23-.06,1.58-.16v2.37h-7.04c.09-.36.15-1.21.15-1.67Z"/>
          <path class="cls-10" d="M264.16,343.67v-10.83c0-.44-.08-1.33-.15-1.71h2.55c-.09.4-.15,1.41-.15,1.81v10.85c0,.46.05,1.31.15,1.67h-2.55c.09-.4.15-1.39.15-1.79Z"/>
          <path class="cls-10" d="M268.61,343.03c-.02-.66-.07-1.53-.15-1.91h2.55c-.09.38-.13.74-.15,1.21,0,.54.47.92.91.92h1.27c.45,0,.91-.38.91-.92v-1.04c0-.26-.33-.54-.61-.76-1.17-.94-2.48-1.89-3.85-2.87-.5-.36-.88-1.17-.88-2.01v-2.11c0-1.43,1.21-2.43,2.44-2.43h2.7c1.25,0,2.46,1,2.46,2.43,0,.7.06,1.55.15,1.91h-2.55c.09-.4.13-.8.15-1.2,0-.56-.47-.94-.93-.94h-1.27c-.37,0-.89.38-.89.92v1.12c0,.34.26.52.54.72l3.95,2.95c.52.36.86,1.1.86,1.89v2.11c0,1.43-1.23,2.43-2.46,2.43h-2.7c-1.23,0-2.44-1-2.44-2.43Z"/>
        </g>
      </g>
      <g>
        <path d="M186.71,124.7c2.17,1.56,5.32,2.43,8.81,2.43s6.63-.87,8.81-2.43c2.39-1.72,3.57-3.93,3.57-6.34v-.02c0-2.42-1.21-4.64-3.57-6.32-2.13-1.51-5.2-2.45-8.81-2.45s-6.68.93-8.81,2.45c-2.36,1.68-3.57,3.9-3.57,6.32v.02c0,2.41,1.19,4.62,3.57,6.34h0ZM199.84,111.37c.16.01.43.07.91.24h0c.98.34,1.85.78,2.57,1.29,2.13,1.5,3.08,3.35,3.08,5.43,0,.88-.19,1.73-.56,2.54h0c-.07.15-.1.19-.15.26-4.06.05-8.79.06-11.57,0-.55-.01-.81-.14-.91-.38-.12-.28-.03-.5.45-1.24,1.35-2.12,4.44-6.14,6.18-8.12h0ZM187.71,112.9c1.54-1.09,3.75-1.83,6.19-2.06h0c.76-.06,1.23-.05,1.34.16.11.18-.01.47-.42.97-1.14,1.39-3.95,5.08-5.41,7.25-.7,1.03-.86,1.88-.47,2.59.4.73,1.1,1.07,3.12,1.13,2.79.09,7.89.06,12.31-.01h0s-.47.48-1.17.95c-1.86,1.25-4.28,2.02-7.68,2.02h0c-3.39,0-5.82-.76-7.68-2.02-2.08-1.41-3.21-3.42-3.21-5.56s.95-3.92,3.08-5.43h0Z"/>
        <path d="M215.73,123h23.12l4.75-2.99,4.09,2.99h4.88l-6.35-4.64,5.16-3.25v4.92c0,1.52,1.97,2.98,3.77,2.98h23.1c4.01,0,3.99-5.3-.02-5.3h-8.01c.26-1.02,1.06-1.73,2.54-1.73h7.66v-1.72h-8.14c-4.64,0-5.75,3.3-5.75,5.17h9.92c1.36,0,1.36,1.83.05,1.83s-10.96,0-10.96,0v-7.01h-3.3v7h-5.48c-1.47,0-2.08-.71-2.08-1.79v-5.21h-5.29l-4.73,2.98-4.07-2.98h-11.72c-3.39,0-5.81,1.98-6.09,4.46h2.2c-.89.57-1.57,1.51-1.95,2.56h-6.93c-1.31,0-1.92-.68-1.92-1.96v-5.06h-3.31v4.3c0,2.73,1.49,4.45,4.85,4.45h0ZM229.41,115.97h7.36v-.95l5.28,3.86-3.79,2.39h-11.22c.12-.94.6-1.87,2.13-1.87h6.95v-1.71h-9.26c.16-.71.88-1.72,2.55-1.72h0Z"/>
      </g>
    </g>
  </g>
</svg>