<?xml version="1.0" encoding="UTF-8"?>
<svg id="Layer_2" data-name="Layer 2" xmlns="http://www.w3.org/2000/svg" viewBox="0 0 472.66 479.61">
  <defs>
    <style>
      .cls-1 {
        fill: none;
      }

      .cls-2 {
        fill: #fff;
      }
    </style>
  </defs>
  <g id="Layer_2-2" data-name="Layer 2">
    <g>
      <path class="cls-1" d="M168.21,59.21c-.43.34-.89.76-1.32,1.24-.43.48-.84,1-1.18,1.54-.51.81-.87,1.64-.91,2.35-.05.76.17,1.37.49,1.94.32.57.76,1.09,1.15,1.66.08.11.16.24.25.36.18.26.37.54.57.85.41.61.86,1.3,1.29,2.02.22.36.43.72.62,1.09.1.18.2.36.29.54.18.36.35.72.5,1.06s.26.68.35.99c.09.31.14.61.16.87.06.89.04,1.81.02,2.74-.03.93-.06,1.86-.06,2.75,0,.07,0,.16.02.25.02.18.06.4.1.58.02.09.04.18.06.25.46,1.89,2.04,2.76,3.9,2.82v-19.54c-1.35.27-2.54,1.24-3.42,2.27-.14.16-.82,1.14-.88,1.17-.03.01-.09.02-.12,0-.01,0-.05-.07-.1-.15-.15-.26-.42-.76-.42-.81h0s.02-.07.06-.14c.03-.06.08-.14.14-.23.04-.06.08-.12.12-.18.03-.04.06-.09.09-.13.1-.14.19-.28.27-.39.06-.08.11-.15.14-.18,1.02-1.34,2.44-2.52,4.13-2.87v-1.98c-1.49,0-2.73.55-3.79,1.39-.64.5-1.21,1.11-1.73,1.78-.07.08-.25.37-.41.58-.03.04-.06.08-.09.11-.05.07-.1.11-.12.12-.02,0-.03.01-.05.01-.02,0-.03,0-.04-.03l-.54-.98c.18-.32.37-.62.57-.92.41-.59.88-1.14,1.4-1.62.78-.73,1.68-1.31,2.68-1.69.33-.13.68-.23,1.03-.31s.72-.13,1.09-.16v-2.78c-1.69.08-3.45.26-5,.98-.22.1-.44.22-.65.34-.2.12-.41.27-.63.43Z"/>
      <path class="cls-1" d="M215.73,123h0s23.12,0,23.12,0l4.75-2.99,4.09,2.99h4.88l-6.35-4.64,5.16-3.25v4.92c0,1.52,1.97,2.98,3.77,2.98h23.1c4.01,0,3.99-5.3-.02-5.3h-8.01c.26-1.02,1.06-1.73,2.54-1.73h7.66v-1.72h-8.14c-4.64,0-5.75,3.3-5.75,5.17h9.92c1.36,0,1.36,1.83.05,1.83s-10.96,0-10.96,0v-7.01h-3.3v7h-5.48c-1.47,0-2.08-.71-2.08-1.79v-5.21h-5.29l-4.73,2.98-4.07-2.98h-11.72c-3.39,0-5.81,1.98-6.09,4.46h2.2c-.89.57-1.57,1.51-1.95,2.56h-6.93c-1.31,0-1.92-.68-1.92-1.96v-5.06h-3.31v4.3c0,2.73,1.49,4.45,4.85,4.45ZM229.41,115.97h7.36v-.95l5.28,3.86-3.79,2.39h-11.22c.11-.94.6-1.87,2.13-1.87h6.95v-1.71h-9.26c.16-.71.88-1.72,2.55-1.72Z"/>
      <path class="cls-1" d="M239.49,76.91c7.29-1.49,12.77-7.94,12.77-15.66,0-.47-.03-.94-.07-1.4-.1-1.16-.31-2.28-.65-3.35-.31-1-.72-1.96-1.21-2.87-.25-.45-.51-.89-.8-1.32-.57-.85-1.23-1.64-1.95-2.37-1.81-1.81-4.05-3.19-6.55-3.96-.79-.25-1.62-.43-2.46-.55-.75-.11-1.52-.17-2.3-.17,0,0,0,0,0,0-.03,0-.06,0-.09,0h0c-1.21,0-2.4.15-3.53.41-.38.09-.75.19-1.12.3-2.5.78-4.74,2.16-6.55,3.96-.72.72-1.38,1.52-1.95,2.37-.29.43-.55.87-.8,1.32-.49.91-.9,1.87-1.21,2.87-.47,1.5-.72,3.1-.72,4.75,0,1.16.13,2.29.36,3.37.77,3.58,2.73,6.71,5.45,8.96,1.18.98,2.51,1.79,3.95,2.39.96.4,1.96.72,3,.93,1.01.21,2.05.31,3.12.32.03,0,.07,0,.1,0,1.1,0,2.18-.11,3.22-.32Z"/>
      <path class="cls-1" d="M160.29,56.07l5.14,3.01c.91-1.02,2.02-1.88,3.27-2.43l-3.2-1.85h-5.23c-.1,0-.02.25-.02.31,0,.18-.04.86.04.95Z"/>
      <path class="cls-1" d="M186.71,124.7c2.17,1.56,5.32,2.43,8.81,2.43s6.63-.87,8.81-2.43c2.39-1.72,3.57-3.93,3.57-6.34v-.02c0-2.42-1.21-4.64-3.57-6.32-2.13-1.51-5.2-2.45-8.81-2.45s-6.68.93-8.81,2.45c-2.36,1.68-3.57,3.9-3.57,6.32v.02c0,2.41,1.19,4.62,3.57,6.34ZM199.84,111.37h0c.16.01.43.07.91.24.98.34,1.85.78,2.57,1.29,2.13,1.5,3.08,3.35,3.08,5.43,0,.88-.19,1.73-.56,2.54-.07.15-.1.19-.15.26-4.06.05-8.79.06-11.57,0-.55-.01-.81-.14-.91-.38-.12-.28-.03-.5.45-1.24,1.35-2.12,4.44-6.14,6.18-8.12ZM187.7,112.9h0c1.54-1.09,3.75-1.83,6.19-2.06.76-.06,1.23-.05,1.34.16.11.18-.01.47-.42.97-1.14,1.39-3.95,5.08-5.41,7.25-.7,1.03-.86,1.88-.47,2.59.4.73,1.1,1.07,3.12,1.13,2.79.09,7.89.06,12.31-.01-.03.03-.47.48-1.17.95-1.86,1.25-4.28,2.02-7.68,2.02s-5.82-.76-7.68-2.02c-2.08-1.41-3.21-3.42-3.21-5.56s.95-3.92,3.08-5.43Z"/>
      <polygon class="cls-1" points="230.32 335.28 229.22 340.68 231.61 340.68 230.47 335.28 230.32 335.28"/>
      <path class="cls-1" d="M241.87,336.12v-1.87c0-.54-.47-.92-.93-.92h-2.44v3.7h2.44c.47,0,.93-.38.93-.92Z"/>
      <path class="cls-1" d="M250.39,333.33h-1.55c-.45,0-.89.38-.89.92v8.09c0,.54.45.92.89.92h1.56c.45,0,.91-.38.91-.92v-8.09c0-.54-.47-.92-.93-.92Z"/>
      <polygon class="cls-1" points="316.05 159.46 311.36 179.78 321.54 179.78 316.69 159.46 316.05 159.46"/>
      <path class="cls-1" d="M350.95,152.11v13.95h10.41c1.99,0,3.97-1.42,3.97-3.45v-7.05c0-2.02-1.99-3.45-3.97-3.45h-10.41Z"/>
      <path class="cls-1" d="M181.55,59.44v1.23h3.42s.08-.03.15-.07c.07-.03.14-.07.17-.09.08-.05.16-.11.22-.18.19-.2.28-.45.28-.71,0-.11-.03-.22-.06-.32-.05-.14-.12-.27-.23-.38-.06-.06-.14-.12-.23-.17-.06-.04-.28-.14-.34-.14h-3.75l.37.82h0Z"/>
      <path class="cls-1" d="M183.97,86.22c2.05-1.21,4.1-2.42,6.13-3.66.07-1.3.05-2.61.08-3.91.16-6.91.34-13.83.48-20.74.02-1.03.02-2.06.04-3.09h-14.23v35.82l1.36-.78c2.04-1.22,4.09-2.43,6.14-3.64ZM186.25,83.06h-6.97v-6.31s-.02-.05-.04-.12c-.03-.06-.07-.14-.11-.23-.02-.04-.05-.09-.07-.14-.06-.12-.13-.25-.19-.37-.08-.15-.15-.28-.19-.38-.02-.05-.04-.09-.05-.11-.07-.16-.17-.34-.18-.5h3.11v5.85h3.82s.11-.01.2-.03.18-.05.28-.09c.2-.07.43-.15.63-.22.13-.04.25-.08.33-.09.04,0,.08-.01.12,0l-.68,2.74ZM186.72,74.17h-7.45v-6.31c0-.08-.58-1.16-.66-1.35-.03-.07-.07-.15-.1-.23-.03-.08-.06-.16-.07-.23h3.11v5.82h4.3s.13-.02.23-.05c.07-.02.14-.04.22-.07.24-.08.51-.17.69-.23.05-.02.09-.03.12-.04.1-.03.19-.06.29-.05l-.68,2.74ZM185.62,56.31c.9,0,1.91.88,2.23,1.68.21.52.27,1.64.19,2.47-.03.28-.07.52-.13.7-.15.43-.48.88-.9,1.23s-.92.58-1.39.58h-4.3v1.01c0,.14.23.73.28.93.01.05.03.1.04.15.01.05.02.1.01.15h0s-2.82,0-2.82,0h0c.02-.14.05-.28.09-.41.11-.41.26-.81.35-1.22v-5.6c-.13-.37-.44-.76-.66-1.13-.07-.12-.14-.24-.19-.36-.02-.06-.04-.11-.03-.17h7.23Z"/>
      <polygon class="cls-1" points="198.55 335.28 197.45 340.68 199.84 340.68 198.7 335.28 198.55 335.28"/>
      <path class="cls-1" d="M174.48,55.58v-.77h-4.94l1.78,1.05c1.04-.18,2.1-.25,3.16-.29Z"/>
      <path class="cls-1" d="M169.28,84.26c-.08-.15-.15-.31-.22-.47-.07-.16-.15-.31-.25-.45l-8.19-4.7c0,.07.04.13.04.2.04,1.23,0,2.47.07,3.7l.06.09,12.87,7.58-.27-3.29c-1.7-.25-3.26-1.13-4.1-2.65Z"/>
      <path class="cls-1" d="M160.4,62.82c.41.21.81.45,1.2.68s.79.47,1.21.67c.12-1.28.7-2.46,1.39-3.51l-3.88-2.23c0,.53,0,1.06,0,1.59,0,.64.05,1.3.08,1.94,0,.14,0,.29,0,.43,0,.14,0,.29,0,.43Z"/>
      <path class="cls-1" d="M160.69,75.62c0,.11,0,.23,0,.34s0,.23.02.34c1.24.71,2.48,1.45,3.71,2.18,1.23.73,2.47,1.47,3.71,2.18.05.03.33.2.35.18v-4.3l-7.88-4.63s-.02.01-.02.04,0,.06,0,.1c.01.07.03.16.03.18.05,1.13.02,2.28.07,3.4Z"/>
      <path class="cls-1" d="M166.12,71.06c-.67-1.07-1.44-2.08-2.12-3.13-.23-.35-.45-.71-.66-1.08l-2.91-1.69c.07.55.03,1.11.03,1.67.01.65.05,1.32.08,1.97h0c0,.12,0,.25,0,.37s0,.25,0,.37l7.05,4.11c-.43-.9-.95-1.75-1.48-2.59Z"/>
      <polygon class="cls-1" points="216.03 278.17 215.71 278.17 211.29 299.91 216.03 299.91 220.88 299.91 216.31 278.17 216.03 278.17"/>
      <path class="cls-1" d="M340.09,57.83v-.61c0-13.32-10.84-24.15-24.15-24.15h-40.55c-9.07-12.62-23.44-20.04-39.12-20.04s-30.05,7.43-39.12,20.04h-41.27c-13.32,0-24.15,10.84-24.15,24.15v.61H31.35l11.06,11.11c13.89,13.94,21.53,32.46,21.53,52.14v213.12l172.38,129.14,172.38-129.14V121.08c0-19.68,7.65-38.2,21.53-52.14l11.06-11.11h-101.22ZM374.95,152.94v12.3c0,3.52-2.15,6.3-5.17,7.87l5.17,20.4c.24.6.95,2.62,1.67,3.75l.4.53h-11.6c.08-.22.08-.38.08-.67,0-1.5-.64-4.42-.95-5.85l-4.29-16.87h-9.3v17.1c0,1.72.24,4.95.64,6.3h-10.89c.4-1.35.64-4.57.64-6.3v-41.31c0-1.65-.32-4.95-.64-6.37h23.76c5.33,0,10.49,3.75,10.49,9.15ZM296.43,65.53c-.29-.66-.45-1.4-.45-2.17,0-.94.24-1.82.66-2.59.17-.31.36-.6.58-.87.66-.81,1.56-1.42,2.58-1.73.51-.16,1.05-.24,1.62-.24,1.5,0,2.86.61,3.84,1.59.98.98,1.59,2.34,1.59,3.84,0,.82-.18,1.61-.51,2.3-.55,1.17-1.5,2.11-2.67,2.64.34.21.67.42.98.65.94.68,1.78,1.46,2.5,2.38.44-.79.97-1.6,1.53-2.4.19-.27.37-.54.56-.8.25-.36.5-.71.74-1.06.25-.37.54-.77.83-1.19.15-.21.29-.42.44-.64.54-.8,1.03-1.62,1.23-2.31.07-.23.1-.44.1-.64,0-.44-.09-.92-.27-1.42-.12-.33-.27-.68-.46-1.03s-.42-.71-.68-1.07c-.13-.18-.27-.36-.41-.54-.51-.6-.99-1.12-1.47-1.56-.47-.44-.94-.81-1.43-1.12-.65-.41-1.34-.71-2.11-.92-.19-.05-.39-.1-.6-.15-.83-.18-1.76-.28-2.86-.33-.28-.01-.56-.02-.86-.03-3.47.09-5.48.6-7.39,2.16-.48.39-.95.85-1.44,1.38-.16.18-.33.36-.49.56-.53.65-.95,1.31-1.25,1.94-.26-.12-.5-.23-.73-.35-.23-.11-.45-.23-.66-.34-.42-.22-.8-.44-1.13-.64h0c.51-1,1.16-1.95,1.91-2.82.99-1.15,2.15-2.15,3.34-2.91.3-.19.6-.37.9-.52,1.03-.55,2.46-.92,4.04-1.11.95-.12,1.95-.18,2.95-.17.67,0,1.33.03,1.98.09,1.95.17,3.75.57,4.95,1.2.78.4,1.6.96,2.39,1.62.79.66,1.54,1.42,2.19,2.23.21.26.43.54.64.85.21.31.43.64.63.99.27.47.51.97.7,1.5s.34,1.08.42,1.65c.04.29.06.57.06.87h0c0,.33-.04.66-.11.98-.47,2.27-2.39,4.42-3.69,6.4-1.17,1.69-2.24,3.15-2.66,4.56-.07.24-.12.47-.15.71-.03.23-.04.47-.03.7v5.91c0,.77-.12,2.75-1.24,4.52-.23.37-.5.72-.82,1.04-.16.16-.32.31-.5.46s-.36.28-.55.41c-.44.29-.86.61-1.27.95-.4.34-.78.7-1.14,1.09-.72.77-1.34,1.62-1.86,2.54l-.17-.31c-.98-1.75-2.32-3.27-3.98-4.4-.35-.24-.67-.51-.95-.79s-.54-.6-.76-.92c-.23-.33-.43-.67-.6-1.03s-.33-.74-.47-1.12h0c.62.13,1.22.24,1.81.38.15.04.29.07.44.11.29.08.58.18.87.29,1.29.52,2.54,1.45,3.82,3.49.17-.27.33-.52.49-.73.31-.43.6-.74.87-.98.67-.61,1.2-.77,1.62-1.15-.96-.93-2.15-1.77-3.41-2.44-.42-.22-.84-.42-1.27-.6-.31-.12-.71-.25-1.17-.39-.68-.21-1.49-.43-2.29-.64-.53-.15-1.06-.29-1.54-.43-.24-.07-.47-.14-.69-.2-1.24-.45-2.21-1.2-2.95-2.03-.74-.83-1.26-1.75-1.6-2.51h0c1.48.6,2.98,1.09,4.45,1.53.49.14.97.28,1.45.42,1.44.41,2.84.78,4.15,1.19.44.14.86.28,1.28.42,1.75.73,3.55,1.82,5,3.09.19-1.01.11-1.37.13-2.2,0-.13-.02-.26-.04-.38-.08-.37-.27-.71-.54-1.02-.18-.21-.4-.4-.64-.59-.49-.37-1.09-.7-1.76-1.01-.17-.08-.33-.15-.51-.23-.86-.38-1.78-.73-2.66-1.08-.49-.18-1.01-.35-1.56-.53-.39-.12-.78-.25-1.19-.38-1.64-.51-3.42-1.04-5.1-1.66-1-.36-1.92-.88-2.73-1.54-.81-.65-1.5-1.44-2.05-2.33-.37-.59-.67-1.23-.9-1.9,1.18.73,2.41,1.35,3.66,1.9,2.51,1.1,5.1,1.9,7.51,2.66,1.2.38,2.36.75,3.44,1.13.85.35,1.76.7,2.62,1.07.87.37,1.7.77,2.42,1.25v-.26c-.1-2.68-3.18-4.9-5.81-5.99-.51-.21-1.5-.52-2.65-.87-2.63-.81-6.21-1.9-9.48-3.45h0c-.42-.18-.8-.4-1.15-.65-.35-.25-.67-.53-.96-.83-.29-.3-.54-.62-.77-.95-1.15-1.64-1.6-3.52-1.69-4.3,2.46,3.25,8.63,5.48,12.99,6.86ZM192.7,52.87v1.61c-.06.04-.04.14-.04.2-.09,8.52-.36,17.03-.55,25.54-.02,1.02.03,2.14-.03,3.15,0,.12-.05.24-.04.36-5.48,3.31-11.04,6.52-16.53,9.83h-.07c-5.49-3.31-11.05-6.52-16.53-9.83-.08-.59-.03-1.19-.04-1.79-.19-8.62-.42-17.25-.59-25.87-.02-1.07-.02-2.14-.04-3.2h34.46ZM227.13,104.01h0v-14.14c-10.59-3.38-18.63-12.47-20.49-23.66-.27-1.61-.41-3.27-.41-4.96,0-16.56,13.4-29.98,29.94-30.04.03,0,.07,0,.1,0,15.77,0,28.7,12.16,29.93,27.61.06.8.11,1.61.11,2.43,0,13.07-8.36,24.16-20.01,28.3-.25.09-.49.19-.74.27v14.19h126.84l-26.3,28.88H125.86l-27.42-28.88h128.68ZM323.68,188.56l-.08-.3h-14.23l-.08.3c-.32.97-1.67,6.52-1.67,8.62,0,.22,0,.45.08.6h-11.6c.64-.67,1.59-3,2.15-4.5l11.67-41.18.97-3.43c.4-1.27.72-3,.72-4.12,0-.3,0-.53-.08-.75h9.86c-.08.15-.08.45-.08.67,0,1.13.4,2.85.8,4.2l.97,3.43,11.59,41.18c.56,1.5,1.51,3.83,2.15,4.5h-11.6c.08-.15.08-.3.08-.6,0-2.17-1.27-7.65-1.59-8.62ZM288.4,197.78h-10.89c.4-1.5.64-5.25.64-6.75v-38.92h-5.96c-1.83,0-5.25.22-6.68.6v-8.92h34.81v8.92c-1.43-.38-4.85-.6-6.68-.6h-5.88v39.37c0,1.72.24,4.95.64,6.3ZM326.1,152.64v-.54h.51l-.51.54ZM246.51,152.11h-5.41c-1.59,0-3.82,1.42-3.82,3.45v4.2c0,1.27,1.11,1.95,2.31,2.7l15.59,10.27,1.26.83c2.23,1.35,3.66,4.12,3.66,7.12v7.95c0,3.39-2.07,6.13-4.92,7.7-1.68.93-3.63,1.44-5.57,1.44h-11.53c-5.25,0-10.41-3.75-10.41-9.15-.08-2.47-.32-5.77-.64-7.2h10.89c-.4,1.42-.56,2.77-.64,4.57,0,2.02,1.99,3.45,3.9,3.45h5.4c1.91,0,3.9-1.42,3.9-3.45v-3.9c0-.98-1.43-2.02-2.62-2.85-5.01-3.52-10.57-7.12-16.45-10.8-2.15-1.35-3.74-4.42-3.74-7.57v-7.95c0-5.4,5.17-9.15,10.41-9.15h11.53c1.96,0,3.9.51,5.57,1.43,2.62,1.43,4.56,3.86,4.87,6.88.03.28.05.55.05.84,0,2.62.24,5.85.64,7.2h-10.89c.4-1.5.56-3,.64-4.5,0-2.1-1.99-3.52-3.97-3.52ZM336.81,297.77c.53,0,1.52-.06,1.93-.16v2.38h-9.78v-2.22l4.03-4.6c.51-.58,2.69-2.72,2.69-3.32v-1.12c0-.54-.64-.92-1.1-.92h-1.56c-.58,0-1.15.38-1.15.94.02.4.07.8.18,1.2h-3.15c.11-.36.18-1.22.18-1.92,0-1.44,1.5-2.44,3.04-2.44h3.34c1.52,0,3.02,1,3.02,2.44v2.12c0,.84-.46,1.22-1.08,2.02l-5.06,5.6h4.49ZM255.18,244.27h-39.55l2.89-6.32h140.3l-8.2,6.32h-95.44ZM303.74,284.43c1.72,0,4.95-.24,6.3-.64v10.19c-1.35-.4-4.57-.64-6.3-.64h-9.45v16.93h13.87c1.72,0,4.95-.24,6.3-.64v9.55h-29.84c.38-1.6.6-5.62.6-7.22v-43.81c0-1.85-.22-5.29-.6-6.74h29.84v9.55c-1.5-.4-5.25-.64-6.75-.64h-13.42v14.12h9.45ZM273.02,333.33h-1.27c-.37,0-.89.38-.89.92v1.12c0,.34.26.52.54.72l3.95,2.95c.52.36.86,1.1.86,1.89v2.11c0,1.43-1.23,2.43-2.46,2.43h-2.7c-1.23,0-2.44-1-2.44-2.43-.02-.66-.07-1.53-.15-1.91h2.55c-.09.38-.13.74-.15,1.21,0,.54.47.92.91.92h1.27c.45,0,.91-.38.91-.92v-1.04c0-.26-.33-.54-.61-.76-1.17-.94-2.48-1.89-3.85-2.87-.5-.36-.88-1.17-.88-2.01v-2.11c0-1.43,1.21-2.43,2.44-2.43h2.7c1.25,0,2.46,1,2.46,2.43,0,.7.06,1.55.15,1.91h-2.55c.09-.4.13-.8.15-1.2,0-.56-.47-.94-.93-.94ZM266.7,319.17c.38-1.44.6-4.89.6-6.74v-32.57h-.67l-5.25,17.65h-6.9l-5.25-17.65h-.6v32.57c0,1.85.22,5.29.6,6.74h-10.27c.22-1.12.53-3.37.53-5.21v-47.25c0-1.85-.3-4.17-.53-5.3h11.85l4.38,14.07,2.44,7.84h.6l6.82-21.9h11.85c-.3,1.12-.52,3.45-.52,5.3v45.73c0,1.85.22,5.29.6,6.74h-10.27ZM266.56,345.46h-2.55c.09-.4.15-1.39.15-1.79v-10.83c0-.44-.08-1.33-.15-1.71h2.55c-.09.4-.15,1.41-.15,1.81v10.85c0,.46.05,1.31.15,1.67ZM255.48,331.12h2.55c-.09.4-.15,1.39-.15,1.79v10.34h3.05c.41,0,1.23-.06,1.58-.16v2.37h-7.04c.09-.36.15-1.21.15-1.67v-10.97c0-.44-.08-1.31-.15-1.69ZM253.58,333.55v9.48c0,1.43-1.21,2.43-2.46,2.43h-2.98c-1.25,0-2.44-1-2.44-2.43v-9.48c0-1.43,1.19-2.43,2.44-2.43h3c1.25,0,2.44,1,2.44,2.43ZM238.65,345.46h-2.55c.09-.36.15-1.21.15-1.67v-10.97c0-.44-.08-1.31-.15-1.69h5.57c1.25,0,2.46,1,2.46,2.43v3.27c0,1.43-1.21,2.43-2.46,2.43h-3.16v4.54c0,.46.05,1.31.15,1.67ZM232.11,343.01l-.02-.08h-3.33l-.02.08c-.07.26-.39,1.73-.39,2.29,0,.06,0,.12.02.16h-2.72c.15-.18.37-.8.5-1.19l2.96-11.85c.09-.34.17-.8.17-1.09,0-.08,0-.14-.02-.2h2.31s-.02.12-.02.18c0,.3.09.76.19,1.11l2.94,11.85c.13.4.35,1.01.5,1.19h-2.72s.02-.08.02-.16c0-.58-.3-2.03-.37-2.29ZM224.33,319.17c.07-.16.07-.32.07-.64,0-2.33-1.2-8.18-1.5-9.23l-.07-.32h-13.42l-.07.32c-.3,1.04-1.58,6.98-1.58,9.23,0,.24,0,.48.08.64h-10.95c.6-.72,1.5-3.21,2.02-4.81l11.92-47.73c.38-1.36.67-3.21.67-4.41,0-.32,0-.56-.07-.8h9.3c-.08.16-.08.48-.08.72,0,1.2.38,3.05.75,4.49l11.85,47.73c.52,1.6,1.42,4.09,2.02,4.81h-10.95ZM224.73,345.46h-2.59l-4.1-9.76h-.17v8.09c0,.46.05,1.31.15,1.67h-2.55c.09-.36.15-1.21.15-1.67v-10.97c0-.44-.08-1.31-.15-1.69h2.59l4.12,9.82h.15v-8.12c0-.44-.08-1.31-.15-1.69h2.55c-.09.4-.15,1.39-.15,1.79v10.85c0,.46.05,1.33.15,1.69ZM213.58,345.46h-2.59l-4.1-9.76h-.17v8.09c0,.46.06,1.31.15,1.67h-2.55c.09-.36.15-1.21.15-1.67v-10.97c0-.44-.07-1.31-.15-1.69h2.59l4.11,9.82h.15v-8.12c0-.44-.07-1.31-.15-1.69h2.55c-.09.4-.15,1.39-.15,1.79v10.85c0,.46.06,1.33.15,1.69ZM200.34,343.01l-.02-.08h-3.33l-.02.08c-.07.26-.39,1.73-.39,2.29,0,.06,0,.12.02.16h-2.72c.15-.18.37-.8.5-1.19l2.96-11.85c.09-.34.17-.8.17-1.09,0-.08,0-.14-.02-.2h2.31s-.02.12-.02.18c0,.3.09.76.19,1.11l2.94,11.85c.13.4.35,1.01.5,1.19h-2.72s.02-.08.02-.16c0-.58-.3-2.03-.37-2.29ZM179.87,270.31h-6.22c-1.8,0-3.6,1.52-3.6,3.69v32.57c0,2.17,1.8,3.69,3.6,3.69h6.3c1.8,0,3.6-1.52,3.6-3.69v-9.63h-.67c-1.72,0-3.82.32-4.87.56v-10.19c1.05.32,3.15.56,4.87.56h10.2c-.45,1.77-.45,3.37-.45,5.22v16.29c0,5.78-4.8,9.79-9.82,9.79h-12c-5.02,0-9.82-4.01-9.82-9.79v-38.19c0-5.78,4.8-9.79,9.82-9.79h12c5.02,0,9.82,4.01,9.82,9.79v.88c0,1.85.22,5.37.6,6.82h-10.27c.37-1.6.52-3.21.6-4.81,0-2.25-1.8-3.77-3.67-3.77ZM159.63,242.1l-3.3-2.45-4.68,2.45,2.64-3.97-3.3-2.45h4.93l2.64-3.97.4,3.97h4.93l-4.68,2.45.4,3.97ZM147.53,231.63l-3.3-2.45-4.68,2.45,2.64-3.97-3.3-2.45h4.93l2.64-3.97.4,3.97h4.93l-4.68,2.45.4,3.97ZM135.69,242.1l-3.3-2.45-4.68,2.45,2.64-3.97-3.3-2.45h4.93l2.64-3.97.4,3.97h4.93l-4.68,2.45.4,3.97ZM125.43,231.63l-3.3-2.45-4.68,2.45,2.64-3.97-3.3-2.45h4.93l2.64-3.97.4,3.97h4.93l-4.68,2.45.4,3.97ZM114.76,221.26l-3.3-2.45-4.68,2.45,2.64-3.97-3.3-2.45h4.93l2.64-3.97.4,3.97h4.93l-4.68,2.45.4,3.97ZM138.5,143.79h10.89c-.4,1.5-.64,5.25-.64,6.75v38.91h13.04c1.75,0,5.25-.22,6.76-.6v8.92h-30.04c.4-1.35.64-4.57.64-6.3v-41.31c0-1.65-.32-4.95-.64-6.37ZM174.9,143.79h10.89c-.4,1.5-.64,5.25-.64,6.75v38.91h13.04c1.75,0,5.25-.22,6.75-.6v8.92h-30.04c.4-1.35.64-4.57.64-6.3v-41.31c0-1.65-.32-4.95-.64-6.37ZM216.03,177.11l.74,2.22-.74-.52-6.95-4.93-7.68,5.45,2.93-8.82-7.68-5.45h9.5l2.93-8.82,2.93,8.82h9.5l-5.49,3.89-2.2,1.56,2.2,6.6ZM203.42,242.1l-3.3-2.45-4.68,2.45,2.64-3.97-3.3-2.45h4.93l2.64-3.97.4,3.97h4.93l-4.68,2.45.4,3.97ZM206.5,221.26l-3.3-2.45-4.68,2.45,2.64-3.97-3.3-2.45h4.93l2.64-3.97.4,3.97h4.93l-4.68,2.45.4,3.97ZM186.66,221.26l-3.3-2.45-4.68,2.45,2.64-3.97-3.3-2.45h4.93l2.64-3.97.4,3.97h4.93l-4.68,2.45.4,3.97ZM183.58,242.1l-3.3-2.45-4.68,2.45,2.64-3.97-3.3-2.45h4.93l2.64-3.97.4,3.97h4.93l-4.68,2.45.4,3.97ZM175.76,225.21l-4.68,2.45.4,3.97-3.3-2.45-4.68,2.45,2.64-3.97-3.3-2.45h4.93l2.64-3.97.4,3.97h4.93ZM162.72,221.26l-3.3-2.45-4.68,2.45,2.64-3.97-3.3-2.45h4.93l2.64-3.97.4,3.97h4.93l-4.68,2.45.4,3.97ZM143.05,214.84l-4.68,2.45.4,3.97-3.3-2.45-4.68,2.45,2.64-3.97-3.3-2.45h4.93l2.64-3.97.4,3.97h4.93ZM140.46,285.58h2.78c2,0,3.48,1.4,3.48,2.84v8.72c0,1.44-1.5,2.84-3.5,2.84h-2.76c-2,0-3.48-1.4-3.48-2.84v-8.72c0-1.44,1.47-2.84,3.48-2.84ZM191.94,229.16l-4.68,2.45,2.64-3.97-3.3-2.45h4.93l2.64-3.97.4,3.97h4.93l-4.68,2.45.4,3.97-3.3-2.45ZM255.18,231.71h-33.81l2.89-6.32h150.85l-8.2,6.32h-111.73ZM96.06,193.28l12.64-44.61c.4-1.27.72-3,.72-4.12,0-.3,0-.53-.08-.75h9.86c-.08.15-.08.45-.08.67,0,1.13.4,2.85.8,4.2l12.56,44.61c.56,1.5,1.51,3.83,2.15,4.5h-11.6c.08-.15.08-.3.08-.6,0-2.17-1.27-7.65-1.59-8.62l-.08-.3h-14.23l-.08.3c-.32.97-1.67,6.52-1.67,8.62,0,.22,0,.45.08.6h-11.6c.64-.67,1.59-3,2.15-4.5ZM379.2,319.38v.12l-142.99,107.68-.04.03-.2-.15-142.83-107.56v-25.3l.03.02v-60.21l43.84,35.57-25.57-.56v41.08l109.1,82.36,6.82,5.08v-.05s-.04-40.55-.04-40.55h18.13l-.02,40.31,115.45-87.15v-41.08l-25.14.55h-.43s43.84-35.56,43.84-35.56v60.21l.03-.02v25.18ZM130.24,287.8h-1.56c-.58,0-1.15.38-1.15.94.02.4.07.8.18,1.2h-3.15c.12-.36.19-1.22.19-1.92,0-1.44,1.5-2.44,3.04-2.44h3.34c1.52,0,3.01,1,3.01,2.44v2.12c0,.84-.46,1.22-1.08,2.02l-5.06,5.6h4.49c.53,0,1.52-.06,1.93-.16v2.38h-9.78v-2.22l4.03-4.6c.51-.58,2.69-2.72,2.69-3.32v-1.12c0-.54-.64-.92-1.1-.92ZM346.57,287.8h-1.31c-.57,0-1.15.38-1.15.92v3.56c.23-.06.46-.7,1.59-.7h1.54c2,0,3.5,1.4,3.5,2.84v2.72c0,1.44-1.47,2.84-3.48,2.84h-2.46c-2,0-3.48-1.4-3.48-2.84v-8.72c0-1.44,1.47-2.84,3.48-2.84h2.12c2,0,3.48,1.38,3.48,2.82,0,.38.02,1.32.12,1.74h-3.08c.11-.48.18-.96.18-1.44,0-.54-.48-.9-1.04-.9ZM379.87,219.16h-152.75l2.89-6.32h149.98l-.12,6.32Z"/>
      <path class="cls-1" d="M344.11,296.85c0,.54.48.92,1.04.92h1.66c.58,0,1.15-.38,1.15-.92v-2.12c0-.54-.57-.92-1.13-.92h-1.59c-.55,0-1.13.38-1.13.92v2.12Z"/>
      <path class="cls-1" d="M140.87,297.77h1.93c.55,0,1.13-.38,1.13-.92v-8.12c0-.54-.58-.92-1.15-.92h-1.91c-.55,0-1.1.38-1.1.92v8.12c0,.54.55.92,1.1.92Z"/>
      <polygon class="cls-1" points="114.5 159.46 113.86 159.46 109.17 179.78 119.34 179.78 114.5 159.46"/>
      <polygon class="cls-2" points="221.52 165.06 216.03 165.06 212.02 165.06 209.09 156.23 206.15 165.06 196.65 165.06 204.34 170.51 201.4 179.33 209.09 173.88 216.03 178.81 216.77 179.33 216.03 177.11 213.84 170.51 216.03 168.95 221.52 165.06"/>
      <polygon class="cls-2" points="230.01 212.84 227.12 219.16 255.18 219.16 379.87 219.16 379.99 212.84 255.18 212.84 230.01 212.84"/>
      <polygon class="cls-2" points="375.11 225.39 224.27 225.39 221.38 231.71 255.18 231.71 366.92 231.71 375.11 225.39"/>
      <polygon class="cls-2" points="358.83 237.95 218.52 237.95 215.63 244.27 216.03 244.27 255.18 244.27 350.63 244.27 358.83 237.95"/>
      <path class="cls-2" d="M350.98,44.81c-5.12-14.41-18.9-24.76-35.05-24.76h-34.34C270.04,7.23,253.87,0,236.27,0s-33.77,7.23-45.33,20.04h-35.06c-16.15,0-29.93,10.35-35.05,24.76H0l33.18,33.32c11.44,11.49,17.74,26.74,17.74,42.95v219.64l185.41,138.9,185.41-138.9V121.08c0-16.21,6.3-31.46,17.74-42.95l33.18-33.32h-121.68ZM430.24,68.94c-13.89,13.94-21.53,32.46-21.53,52.14v213.12l-172.38,129.14L63.94,334.2V121.08c0-19.68-7.65-38.19-21.53-52.14l-11.06-11.11h100.37v-.61c0-13.32,10.84-24.15,24.15-24.15h41.27c9.07-12.62,23.44-20.04,39.12-20.04s30.05,7.43,39.12,20.04h40.55c13.32,0,24.15,10.84,24.15,24.15v.61h101.22l-11.06,11.11Z"/>
      <path class="cls-2" d="M236.12,119.39h-6.95c-1.53,0-2.02.93-2.13,1.87h11.22l3.79-2.39-5.28-3.86v.95h-7.36c-1.66,0-2.39,1.01-2.55,1.72h9.26v1.71Z"/>
      <path class="cls-2" d="M187.83,123.88c1.86,1.25,4.28,2.02,7.68,2.02s5.82-.76,7.68-2.02c.7-.48,1.15-.93,1.17-.95-4.41.07-9.52.1-12.31.01-2.03-.06-2.73-.4-3.12-1.13-.39-.71-.23-1.56.47-2.59,1.47-2.17,4.28-5.87,5.41-7.25.41-.5.53-.79.42-.97-.12-.21-.59-.22-1.34-.16-2.44.23-4.66.97-6.19,2.06h0c-2.13,1.5-3.08,3.28-3.08,5.43s1.13,4.15,3.21,5.56Z"/>
      <path class="cls-2" d="M193.22,120.73c.1.25.35.37.91.38,2.78.06,7.51.06,11.57,0,.05-.07.08-.11.15-.26.37-.8.56-1.66.56-2.54,0-2.07-.95-3.92-3.08-5.43-.72-.51-1.6-.94-2.57-1.29-.48-.17-.75-.22-.91-.24h0c-1.74,1.97-4.83,6-6.18,8.12-.48.75-.56.96-.45,1.24Z"/>
      <polygon class="cls-2" points="326.1 152.64 326.61 152.1 326.1 152.1 326.1 152.64"/>
      <path class="cls-2" d="M130.92,132.89h215.17l26.3-28.88h-126.84v-14.19c.25-.08.49-.19.74-.27,11.65-4.13,20.01-15.23,20.01-28.3,0-.82-.04-1.63-.11-2.43-1.24-15.45-14.16-27.61-29.93-27.61-.03,0-.07,0-.1,0-16.54.05-29.94,13.48-29.94,30.04,0,1.69.14,3.35.41,4.96,1.86,11.19,9.9,20.28,20.49,23.66v14.13h0s-128.68,0-128.68,0l27.42,28.88h5.06ZM233.04,76.91c-1.04-.21-2.04-.53-3-.93-1.43-.61-2.76-1.42-3.95-2.39-2.72-2.25-4.68-5.38-5.45-8.96-.23-1.09-.36-2.22-.36-3.37,0-1.66.25-3.25.72-4.75.31-1,.72-1.96,1.21-2.87.25-.45.51-.89.8-1.32.57-.85,1.23-1.64,1.95-2.37,1.81-1.81,4.05-3.19,6.55-3.96.37-.11.74-.22,1.12-.3,1.14-.26,2.32-.4,3.53-.41h0s.06,0,.09,0c0,0,0,0,0,0,.78,0,1.55.06,2.3.17.84.12,1.66.3,2.46.55,2.5.78,4.74,2.16,6.55,3.96.72.72,1.38,1.52,1.95,2.37.29.43.55.87.8,1.32.49.91.9,1.87,1.21,2.87.33,1.07.55,2.19.65,3.35.04.46.07.93.07,1.4,0,7.73-5.48,14.17-12.77,15.66-1.04.21-2.12.32-3.22.32-.03,0-.07,0-.1,0-1.07,0-2.11-.11-3.12-.32ZM210.88,114.25h3.31v5.06c0,1.28.61,1.96,1.92,1.96h6.93c.38-1.04,1.06-1.98,1.95-2.56h-2.2c.28-2.48,2.69-4.46,6.09-4.46h11.72l4.07,2.98,4.73-2.98h5.29v5.21c0,1.09.62,1.79,2.08,1.79h5.48v-7h3.3v7.01s9.65,0,10.96,0,1.31-1.83-.05-1.83h-9.92c0-1.87,1.11-5.17,5.75-5.17h8.14v1.72h-7.66c-1.49,0-2.28.71-2.54,1.73h8.01c4.01,0,4.03,5.3.02,5.3h-23.1c-1.8,0-3.77-1.45-3.77-2.98v-4.92l-5.16,3.25,6.35,4.64h-4.88l-4.09-2.99-4.75,2.99h-23.12,0c-3.36,0-4.85-1.72-4.85-4.45v-4.3ZM183.14,118.34c0-2.42,1.21-4.64,3.57-6.32,2.13-1.51,5.2-2.45,8.81-2.45s6.68.93,8.81,2.45c2.36,1.68,3.57,3.9,3.57,6.32v.02c0,2.41-1.18,4.62-3.57,6.34-2.17,1.56-5.32,2.43-8.81,2.43s-6.63-.87-8.81-2.43c-2.39-1.72-3.57-3.93-3.57-6.34v-.02Z"/>
      <polygon class="cls-2" points="379.17 234 335.33 269.58 335.75 269.57 360.89 269.02 360.89 310.05 360.89 310.1 245.44 397.25 245.46 356.94 236.17 356.94 227.33 356.94 227.37 397.49 227.37 397.54 220.55 392.46 111.45 310.1 111.45 269.02 137.01 269.58 93.17 234.01 93.17 248.47 93.17 294.22 93.14 294.2 93.14 319.49 235.97 427.05 236.17 427.2 236.21 427.17 379.2 319.49 379.2 319.38 379.2 294.19 379.17 294.22 379.17 234"/>
      <path class="cls-2" d="M105.44,197.18c0-2.1,1.35-7.65,1.67-8.62l.08-.3h14.23l.08.3c.32.97,1.59,6.45,1.59,8.62,0,.3,0,.45-.08.6h11.6c-.64-.67-1.59-3-2.15-4.5l-12.56-44.61c-.4-1.35-.8-3.07-.8-4.2,0-.22,0-.52.08-.67h-9.86c.08.22.08.45.08.75,0,1.12-.32,2.85-.72,4.12l-12.64,44.61c-.56,1.5-1.51,3.83-2.15,4.5h11.6c-.08-.15-.08-.38-.08-.6ZM113.86,159.46h.64l4.85,20.32h-10.17l4.69-20.32Z"/>
      <path class="cls-2" d="M139.13,191.48c0,1.72-.24,4.95-.64,6.3h30.04v-8.92c-1.51.38-5.01.6-6.76.6h-13.04v-38.91c0-1.5.24-5.25.64-6.75h-10.89c.32,1.42.64,4.72.64,6.37v41.31Z"/>
      <path class="cls-2" d="M175.54,191.48c0,1.72-.24,4.95-.64,6.3h30.04v-8.92c-1.51.38-5.01.6-6.75.6h-13.04v-38.91c0-1.5.24-5.25.64-6.75h-10.89c.32,1.42.64,4.72.64,6.37v41.31Z"/>
      <path class="cls-2" d="M255.18,160.14h5.55c-.4-1.35-.64-4.57-.64-7.2,0-.29-.02-.56-.05-.84-.31-3.02-2.25-5.45-4.87-6.88-1.67-.91-3.61-1.43-5.57-1.43h-11.53c-5.25,0-10.41,3.75-10.41,9.15v7.95c0,3.15,1.59,6.22,3.74,7.57,5.88,3.67,11.45,7.27,16.45,10.8,1.19.82,2.62,1.87,2.62,2.85v3.9c0,2.02-1.99,3.45-3.9,3.45h-5.4c-1.91,0-3.9-1.42-3.9-3.45.08-1.8.24-3.15.64-4.57h-10.89c.32,1.42.56,4.72.64,7.2,0,5.4,5.17,9.15,10.41,9.15h11.53c1.95,0,3.89-.52,5.57-1.44,2.84-1.57,4.92-4.31,4.92-7.7v-7.95c0-3-1.43-5.77-3.66-7.12l-1.26-.83-15.59-10.27c-1.19-.75-2.31-1.42-2.31-2.7v-4.2c0-2.02,2.23-3.45,3.82-3.45h5.41c1.99,0,3.97,1.42,3.97,3.52-.08,1.5-.24,3-.64,4.5h5.34Z"/>
      <path class="cls-2" d="M293.64,152.11c1.83,0,5.25.22,6.68.6v-8.92h-34.81v8.92c1.43-.38,4.85-.6,6.68-.6h5.96v38.92c0,1.5-.24,5.25-.64,6.75h10.89c-.4-1.35-.64-4.57-.64-6.3v-39.37h5.88Z"/>
      <path class="cls-2" d="M336.8,197.78c-.64-.67-1.59-3-2.15-4.5l-11.59-41.18-.97-3.43c-.4-1.35-.8-3.07-.8-4.2,0-.22,0-.52.08-.67h-9.86c.08.22.08.45.08.75,0,1.12-.32,2.85-.72,4.12l-.97,3.43-11.67,41.18c-.56,1.5-1.51,3.83-2.15,4.5h11.6c-.08-.15-.08-.38-.08-.6,0-2.1,1.35-7.65,1.67-8.62l.08-.3h14.23l.08.3c.32.97,1.59,6.45,1.59,8.62,0,.3,0,.45-.08.6h11.6ZM311.36,179.78l4.69-20.32h.64l4.85,20.32h-10.17Z"/>
      <path class="cls-2" d="M352.83,143.79h-12.14c.32,1.42.64,4.72.64,6.37v41.31c0,1.72-.24,4.95-.64,6.3h10.89c-.4-1.35-.64-4.57-.64-6.3v-17.1h9.3l4.29,16.87c.32,1.42.95,4.35.95,5.85,0,.3,0,.45-.08.67h11.6l-.4-.53c-.72-1.12-1.43-3.15-1.67-3.75l-5.17-20.4c3.02-1.58,5.17-4.35,5.17-7.87v-12.3c0-5.4-5.17-9.15-10.49-9.15h-11.63ZM365.33,155.56v7.05c0,2.02-1.99,3.45-3.97,3.45h-10.41v-13.95h10.41c1.99,0,3.97,1.42,3.97,3.45Z"/>
      <path class="cls-2" d="M193.22,278.89c-.38-1.44-.6-4.97-.6-6.82v-.88c0-5.78-4.8-9.79-9.82-9.79h-12c-5.02,0-9.82,4.01-9.82,9.79v38.19c0,5.78,4.8,9.79,9.82,9.79h12c5.02,0,9.82-4.01,9.82-9.79v-16.29c0-1.85,0-3.45.45-5.22h-10.2c-1.72,0-3.82-.24-4.87-.56v10.19c1.05-.24,3.15-.56,4.87-.56h.67v9.63c0,2.17-1.8,3.69-3.6,3.69h-6.3c-1.8,0-3.6-1.52-3.6-3.69v-32.57c0-2.17,1.8-3.69,3.6-3.69h6.22c1.87,0,3.67,1.52,3.67,3.77-.07,1.6-.22,3.21-.6,4.81h10.27Z"/>
      <path class="cls-2" d="M233.26,314.35l-11.85-47.73c-.38-1.44-.75-3.29-.75-4.49,0-.24,0-.56.08-.72h-9.3c.07.24.07.48.07.8,0,1.2-.3,3.05-.67,4.41l-11.92,47.73c-.53,1.6-1.42,4.09-2.02,4.81h10.95c-.08-.16-.08-.4-.08-.64,0-2.25,1.27-8.18,1.58-9.23l.07-.32h13.42l.07.32c.3,1.04,1.5,6.9,1.5,9.23,0,.32,0,.48-.07.64h10.95c-.6-.72-1.5-3.21-2.02-4.81ZM216.03,299.91h-4.75l4.42-21.74h.6l4.57,21.74h-4.85Z"/>
      <path class="cls-2" d="M276.37,312.43v-45.73c0-1.85.22-4.17.52-5.3h-11.85l-6.82,21.9h-.6l-2.44-7.84-4.38-14.07h-11.85c.22,1.12.53,3.45.53,5.3v47.25c0,1.85-.3,4.09-.53,5.21h10.27c-.38-1.44-.6-4.89-.6-6.74v-32.57h.6l5.25,17.65h6.9l5.25-17.65h.67v32.57c0,1.85-.22,5.29-.6,6.74h10.27c-.37-1.44-.6-4.89-.6-6.74Z"/>
      <path class="cls-2" d="M307.71,270.31c1.5,0,5.25.24,6.75.64v-9.55h-29.84c.38,1.44.6,4.89.6,6.74v43.81c0,1.6-.22,5.62-.6,7.22h29.84v-9.55c-1.35.4-4.57.64-6.3.64h-13.87v-16.93h9.45c1.72,0,4.95.24,6.3.64v-10.19c-1.35.4-4.57.64-6.3.64h-9.45v-14.12h13.42Z"/>
      <path class="cls-2" d="M285.91,63.92c.29.3.6.58.96.83.35.25.73.47,1.15.65h0c3.27,1.55,6.84,2.65,9.48,3.45,1.15.35,2.14.66,2.65.87,2.64,1.09,5.71,3.31,5.81,5.99v.26c-.72-.47-1.56-.88-2.42-1.25-.87-.37-1.77-.71-2.62-1.07-1.08-.39-2.24-.75-3.44-1.13-2.41-.76-5.01-1.56-7.51-2.66-1.25-.55-2.49-1.17-3.66-1.9.23.67.53,1.31.9,1.9.55.89,1.24,1.67,2.05,2.33.81.65,1.73,1.18,2.73,1.54,1.67.62,3.46,1.15,5.1,1.66.41.13.81.25,1.19.38.55.18,1.07.35,1.56.53.88.36,1.8.7,2.66,1.08.17.08.34.15.51.23.66.31,1.27.64,1.76,1.01.24.19.46.38.64.59.27.31.46.65.54,1.02.03.12.04.25.04.38-.01.83.06,1.19-.13,2.2-1.45-1.27-3.25-2.36-5-3.09-.42-.15-.84-.29-1.28-.42-1.31-.41-2.71-.79-4.15-1.19-.48-.14-.97-.27-1.45-.42-1.47-.43-2.96-.92-4.45-1.53h0c.35.77.86,1.68,1.6,2.51.74.83,1.7,1.59,2.95,2.03.22.07.45.13.69.2.48.14,1.01.28,1.54.43.8.22,1.6.44,2.29.64.46.14.86.27,1.17.39.43.18.85.38,1.27.6,1.26.66,2.44,1.5,3.41,2.44-.42.38-.96.55-1.62,1.15-.27.24-.56.55-.87.98-.16.21-.32.45-.49.73-1.27-2.04-2.52-2.97-3.82-3.49-.29-.11-.58-.21-.87-.29-.15-.04-.29-.08-.44-.11-.59-.14-1.19-.25-1.81-.38h0c.14.39.3.76.47,1.12s.38.71.6,1.03c.23.33.48.64.76.92s.6.55.95.79c1.66,1.13,3,2.65,3.98,4.4l.17.31c.52-.92,1.14-1.78,1.86-2.54.36-.38.74-.75,1.14-1.09.4-.34.82-.66,1.27-.95.19-.13.38-.26.55-.41s.34-.3.5-.46c.31-.32.59-.67.82-1.04,1.12-1.77,1.24-3.75,1.24-4.52v-5.91c-.01-.23,0-.47.03-.7.03-.23.08-.47.15-.71.42-1.42,1.49-2.88,2.66-4.56,1.3-1.97,3.22-4.13,3.69-6.4.07-.32.11-.65.11-.98h0c0-.29-.02-.58-.06-.87-.08-.57-.23-1.12-.42-1.65s-.44-1.03-.7-1.5c-.2-.35-.41-.68-.63-.99-.21-.31-.43-.59-.64-.85-.65-.8-1.41-1.57-2.19-2.23-.79-.66-1.61-1.22-2.39-1.62-1.21-.63-3.01-1.03-4.95-1.2-.65-.06-1.32-.08-1.98-.09-1,0-2,.05-2.95.17-1.58.2-3.01.57-4.04,1.11-.3.16-.6.33-.9.52-1.19.76-2.35,1.76-3.34,2.91-.75.86-1.4,1.82-1.91,2.82h0c.34.21.71.42,1.13.64.21.11.43.22.66.34.23.11.48.23.73.35.3-.63.72-1.28,1.25-1.94.17-.2.33-.38.49-.56.49-.53.96-.99,1.44-1.38,1.91-1.57,3.92-2.08,7.39-2.16.3,0,.58.02.86.03,1.1.05,2.04.15,2.86.33.21.04.41.09.6.15.78.22,1.46.51,2.11.92.49.31.96.68,1.43,1.12.47.44.96.96,1.47,1.56.15.18.28.36.41.54.26.36.49.72.68,1.07s.34.7.46,1.03c.18.5.27.98.27,1.42,0,.2-.03.41-.1.64-.2.69-.69,1.5-1.23,2.31-.14.21-.29.43-.44.64-.29.42-.58.82-.83,1.19-.24.35-.49.7-.74,1.06-.19.27-.38.53-.56.8-.56.8-1.09,1.61-1.53,2.4-.73-.92-1.56-1.7-2.5-2.38-.31-.23-.64-.44-.98-.65,1.17-.54,2.12-1.48,2.67-2.64.33-.7.51-1.48.51-2.3,0-1.5-.61-2.86-1.59-3.84-.98-.98-2.34-1.59-3.84-1.59-.56,0-1.11.09-1.62.24-1.02.32-1.91.93-2.58,1.73-.22.27-.42.56-.58.87-.42.77-.66,1.65-.66,2.59,0,.77.16,1.5.45,2.17-4.36-1.38-10.53-3.61-12.99-6.86.09.78.54,2.65,1.69,4.3.23.33.49.65.77.95Z"/>
      <path class="cls-2" d="M158.86,81.94c.01.6-.04,1.2.04,1.79,5.48,3.31,11.04,6.52,16.53,9.83h.07c5.49-3.31,11.05-6.52,16.53-9.83,0-.12.04-.24.04-.36.07-1.01.01-2.13.03-3.15.19-8.51.46-17.02.55-25.54,0-.06-.02-.16.04-.2v-1.61h-34.46c.01,1.07.01,2.14.04,3.2.17,8.62.4,17.25.59,25.87ZM176.46,54.81h14.23c-.01,1.03-.01,2.06-.04,3.09-.14,6.91-.32,13.83-.48,20.74-.03,1.3,0,2.61-.08,3.91-2.03,1.23-4.08,2.45-6.13,3.66-2.05,1.21-4.1,2.42-6.14,3.64l-1.36.78v-35.82ZM160.32,60.03c0-.53,0-1.06,0-1.59l3.88,2.23c-.69,1.06-1.27,2.23-1.39,3.51-.41-.2-.81-.44-1.21-.67s-.79-.48-1.2-.68c-.01-.14,0-.28,0-.43,0-.14,0-.29,0-.43-.02-.64-.07-1.3-.08-1.94ZM160.54,69.18c0-.12,0-.25,0-.37h0c-.03-.65-.07-1.32-.08-1.97,0-.55.04-1.12-.03-1.67l2.91,1.69c.21.37.43.72.66,1.08.69,1.06,1.45,2.06,2.12,3.13.53.84,1.06,1.7,1.48,2.59l-7.05-4.11c-.01-.12-.01-.25,0-.37ZM160.58,71.94s0-.04.02-.04l7.88,4.63v4.3s-.31-.15-.35-.18c-1.25-.71-2.48-1.44-3.71-2.18-1.23-.73-2.47-1.47-3.71-2.18-.02-.11-.02-.22-.02-.34s0-.23,0-.34c-.05-1.13-.02-2.27-.07-3.4,0-.02-.02-.1-.03-.18,0-.04,0-.07,0-.1ZM160.79,82.62l-.06-.09c-.07-1.23-.03-2.47-.07-3.7,0-.07-.03-.13-.04-.2l8.19,4.7c.1.13.18.29.25.45.07.16.14.32.22.47.85,1.52,2.4,2.4,4.1,2.65l.27,3.29-12.87-7.58ZM174.48,54.81v.77c-1.06.04-2.11.1-3.16.29l-1.78-1.05h4.94ZM174.48,57.45v2.78c-.37.03-.74.08-1.09.16s-.7.18-1.03.31c-1,.38-1.9.96-2.68,1.69-.52.48-.99,1.03-1.4,1.62-.21.3-.4.6-.57.92l.54.98s.02.03.04.03c.02,0,.04,0,.05-.01.02,0,.06-.05.12-.12.03-.03.06-.07.09-.11.15-.21.34-.49.41-.58.52-.67,1.09-1.28,1.73-1.78,1.06-.84,2.31-1.38,3.79-1.39v1.98c-1.69.35-3.11,1.53-4.13,2.87-.03.03-.08.1-.14.18-.08.11-.17.24-.27.39-.03.04-.06.09-.09.13-.04.06-.08.12-.12.18-.05.09-.1.16-.14.23-.03.06-.06.11-.06.14h0s.26.55.42.81c.05.09.09.15.1.15.03.02.08.01.12,0,.07-.03.74-1,.88-1.17.88-1.03,2.07-2,3.42-2.27v19.54c-1.85-.06-3.44-.93-3.9-2.82-.02-.07-.04-.16-.06-.25-.04-.18-.07-.4-.1-.58-.01-.09-.02-.18-.02-.25,0-.89.03-1.82.06-2.75.03-.93.04-1.86-.02-2.74-.02-.27-.07-.56-.16-.87-.09-.31-.21-.64-.35-.99s-.31-.7-.5-1.06c-.09-.18-.19-.36-.29-.54-.2-.36-.41-.73-.62-1.09-.43-.72-.88-1.41-1.29-2.02-.2-.31-.4-.59-.57-.85-.09-.13-.17-.25-.25-.36-.39-.57-.82-1.09-1.15-1.66-.32-.57-.54-1.18-.49-1.94.05-.72.4-1.55.91-2.35.34-.54.75-1.06,1.18-1.54.43-.48.89-.9,1.32-1.24.22-.17.43-.31.63-.43.21-.13.43-.24.65-.34,1.55-.72,3.3-.91,5-.98ZM160.27,54.81h5.23l3.2,1.85c-1.26.55-2.36,1.41-3.27,2.43l-5.14-3.01c-.08-.09-.03-.77-.04-.95,0-.06-.08-.31.02-.31Z"/>
      <path class="cls-2" d="M186.47,80.42c-.2.07-.43.15-.63.22-.1.03-.2.06-.28.09s-.15.03-.2.03h-3.82v-5.85h-3.11c0,.17.11.34.18.5.01.02.03.06.05.11.05.1.12.23.19.38.06.12.13.25.19.37.02.05.05.09.07.14.04.09.08.17.11.23.03.06.04.1.04.12v6.31h6.97l.68-2.74s-.08,0-.12,0c-.09.02-.2.05-.33.09Z"/>
      <path class="cls-2" d="M178.62,56.85c.22.37.52.75.66,1.13v5.6c-.09.41-.25.81-.36,1.22-.04.14-.07.27-.09.41h0s2.82,0,2.82,0h0c0-.05,0-.1-.01-.15-.01-.05-.02-.1-.04-.15-.05-.2-.28-.79-.28-.93v-1.01h4.3c.47,0,.97-.24,1.39-.58s.75-.8.9-1.23c.06-.18.1-.42.13-.7.08-.83.02-1.95-.19-2.47-.33-.8-1.33-1.68-2.23-1.68h-7.23c0,.06,0,.11.03.17.05.12.12.24.19.36ZM184.93,58.62c.05,0,.27.11.34.14.09.05.16.1.23.17.11.11.18.24.23.38.04.1.06.21.06.32,0,.26-.09.51-.28.71-.06.07-.14.13-.22.18-.02.01-.1.05-.17.09-.07.03-.14.07-.15.07h-3.42v-1.23h0s-.37-.82-.37-.82h3.75Z"/>
      <path class="cls-2" d="M186.99,71.52c-.18.06-.45.15-.69.23-.08.03-.15.05-.22.07-.11.03-.19.05-.23.05h-4.3v-5.82h-3.11c.01.08.04.16.07.23.03.08.07.16.1.23.08.19.66,1.27.66,1.35v6.31h7.45l.68-2.74c-.1,0-.2.03-.29.05-.03,0-.07.02-.12.04Z"/>
      <polygon class="cls-2" points="170.43 221.24 167.78 225.21 162.85 225.21 166.15 227.66 163.5 231.63 168.18 229.18 171.48 231.63 171.08 227.66 175.76 225.21 170.83 225.21 170.43 221.24"/>
      <polygon class="cls-2" points="194.83 227.64 199.51 225.19 194.59 225.19 194.18 221.22 191.54 225.19 186.61 225.19 189.91 227.64 187.26 231.61 191.94 229.16 195.24 231.61 194.83 227.64"/>
      <polygon class="cls-2" points="146.88 225.21 146.48 221.24 143.84 225.21 138.91 225.21 142.2 227.66 139.56 231.63 144.24 229.18 147.53 231.63 147.13 227.66 151.81 225.21 146.88 225.21"/>
      <polygon class="cls-2" points="124.78 225.21 124.37 221.24 121.73 225.21 116.8 225.21 120.1 227.66 117.45 231.63 122.13 229.18 125.43 231.63 125.03 227.66 129.71 225.21 124.78 225.21"/>
      <polygon class="cls-2" points="137.72 210.87 135.07 214.84 130.15 214.84 133.44 217.29 130.8 221.26 135.48 218.81 138.77 221.26 138.37 217.29 143.05 214.84 138.12 214.84 137.72 210.87"/>
      <polygon class="cls-2" points="114.11 214.84 113.7 210.87 111.06 214.84 106.13 214.84 109.43 217.29 106.78 221.26 111.46 218.81 114.76 221.26 114.35 217.29 119.03 214.84 114.11 214.84"/>
      <polygon class="cls-2" points="186.01 214.84 185.61 210.87 182.96 214.84 178.04 214.84 181.33 217.29 178.69 221.26 183.37 218.81 186.66 221.26 186.26 217.29 190.94 214.84 186.01 214.84"/>
      <polygon class="cls-2" points="162.07 214.84 161.66 210.87 159.02 214.84 154.09 214.84 157.39 217.29 154.74 221.26 159.42 218.81 162.72 221.26 162.31 217.29 167 214.84 162.07 214.84"/>
      <polygon class="cls-2" points="135.04 235.68 134.63 231.71 131.99 235.68 127.06 235.68 130.36 238.13 127.71 242.1 132.39 239.65 135.69 242.1 135.28 238.13 139.96 235.68 135.04 235.68"/>
      <polygon class="cls-2" points="182.93 235.68 182.52 231.71 179.88 235.68 174.95 235.68 178.25 238.13 175.6 242.1 180.28 239.65 183.58 242.1 183.17 238.13 187.85 235.68 182.93 235.68"/>
      <polygon class="cls-2" points="205.85 214.84 205.45 210.87 202.8 214.84 197.88 214.84 201.17 217.29 198.53 221.26 203.21 218.81 206.5 221.26 206.1 217.29 210.78 214.84 205.85 214.84"/>
      <polygon class="cls-2" points="202.77 235.68 202.36 231.71 199.72 235.68 194.79 235.68 198.09 238.13 195.44 242.1 200.12 239.65 203.42 242.1 203.01 238.13 207.69 235.68 202.77 235.68"/>
      <polygon class="cls-2" points="158.98 235.68 158.58 231.71 155.93 235.68 151.01 235.68 154.3 238.13 151.66 242.1 156.34 239.65 159.63 242.1 159.23 238.13 163.91 235.68 158.98 235.68"/>
      <path class="cls-2" d="M128.66,293.17l-4.03,4.6v2.22h9.78v-2.38c-.41.1-1.4.16-1.93.16h-4.49l5.06-5.6c.62-.8,1.08-1.18,1.08-2.02v-2.12c0-1.44-1.5-2.44-3.01-2.44h-3.34c-1.54,0-3.04,1-3.04,2.44,0,.7-.07,1.56-.19,1.92h3.15c-.12-.4-.16-.8-.18-1.2,0-.56.57-.94,1.15-.94h1.56c.46,0,1.1.38,1.1.92v1.12c0,.6-2.19,2.74-2.69,3.32Z"/>
      <path class="cls-2" d="M136.99,297.15c0,1.44,1.47,2.84,3.48,2.84h2.76c2,0,3.5-1.4,3.5-2.84v-8.72c0-1.44-1.47-2.84-3.48-2.84h-2.78c-2,0-3.48,1.4-3.48,2.84v8.72ZM139.77,288.73c0-.54.55-.92,1.1-.92h1.91c.57,0,1.15.38,1.15.92v8.12c0,.54-.58.92-1.13.92h-1.93c-.55,0-1.1-.38-1.1-.92v-8.12Z"/>
      <path class="cls-2" d="M338.47,290.15v-2.12c0-1.44-1.5-2.44-3.02-2.44h-3.34c-1.54,0-3.04,1-3.04,2.44,0,.7-.07,1.56-.18,1.92h3.15c-.12-.4-.16-.8-.18-1.2,0-.56.57-.94,1.15-.94h1.56c.46,0,1.1.38,1.1.92v1.12c0,.6-2.19,2.74-2.69,3.32l-4.03,4.6v2.22h9.78v-2.38c-.41.1-1.4.16-1.93.16h-4.49l5.06-5.6c.62-.8,1.08-1.18,1.08-2.02Z"/>
      <path class="cls-2" d="M350.5,290.15c-.09-.42-.12-1.36-.12-1.74,0-1.44-1.47-2.82-3.48-2.82h-2.12c-2,0-3.48,1.4-3.48,2.84v8.72c0,1.44,1.47,2.84,3.48,2.84h2.46c2,0,3.48-1.4,3.48-2.84v-2.72c0-1.44-1.5-2.84-3.5-2.84h-1.54c-1.13,0-1.36.64-1.59.7v-3.56c0-.54.57-.92,1.15-.92h1.31c.55,0,1.04.36,1.04.9,0,.48-.07.96-.18,1.44h3.08ZM345.23,293.81h1.59c.55,0,1.13.38,1.13.92v2.12c0,.54-.57.92-1.15.92h-1.66c-.55,0-1.04-.38-1.04-.92v-2.12c0-.54.57-.92,1.13-.92Z"/>
      <path class="cls-2" d="M203.41,345.46c-.15-.18-.37-.8-.5-1.19l-2.94-11.85c-.09-.36-.19-.82-.19-1.11,0-.06,0-.14.02-.18h-2.31c.02.06.02.12.02.2,0,.3-.07.76-.17,1.09l-2.96,11.85c-.13.4-.35,1.01-.5,1.19h2.72s-.02-.1-.02-.16c0-.56.32-2.03.39-2.29l.02-.08h3.33l.02.08c.07.26.37,1.71.37,2.29,0,.08,0,.12-.02.16h2.72ZM197.45,340.68l1.1-5.4h.15l1.14,5.4h-2.38Z"/>
      <path class="cls-2" d="M213.58,331.12h-2.55c.08.38.15,1.25.15,1.69v8.12h-.15l-4.11-9.82h-2.59c.08.38.15,1.25.15,1.69v10.97c0,.46-.05,1.31-.15,1.67h2.55c-.09-.36-.15-1.21-.15-1.67v-8.09h.17l4.1,9.76h2.59c-.09-.36-.15-1.24-.15-1.69v-10.85c0-.4.06-1.39.15-1.79Z"/>
      <path class="cls-2" d="M224.73,331.12h-2.55c.07.38.15,1.25.15,1.69v8.12h-.15l-4.12-9.82h-2.59c.07.38.15,1.25.15,1.69v10.97c0,.46-.06,1.31-.15,1.67h2.55c-.09-.36-.15-1.21-.15-1.67v-8.09h.17l4.1,9.76h2.59c-.09-.36-.15-1.24-.15-1.69v-10.85c0-.4.05-1.39.15-1.79Z"/>
      <path class="cls-2" d="M235.18,345.46c-.15-.18-.37-.8-.5-1.19l-2.94-11.85c-.09-.36-.19-.82-.19-1.11,0-.06,0-.14.02-.18h-2.31c.02.06.02.12.02.2,0,.3-.07.76-.17,1.09l-2.96,11.85c-.13.4-.35,1.01-.5,1.19h2.72s-.02-.1-.02-.16c0-.56.32-2.03.39-2.29l.02-.08h3.33l.02.08c.07.26.37,1.71.37,2.29,0,.08,0,.12-.02.16h2.72ZM229.22,340.68l1.1-5.4h.15l1.14,5.4h-2.38Z"/>
      <path class="cls-2" d="M241.66,339.24c1.25,0,2.46-.99,2.46-2.43v-3.27c0-1.43-1.21-2.43-2.46-2.43h-5.57c.07.38.15,1.25.15,1.69v10.97c0,.46-.06,1.31-.15,1.67h2.55c-.09-.36-.15-1.21-.15-1.67v-4.54h3.16ZM238.5,333.33h2.44c.47,0,.93.38.93.92v1.87c0,.54-.47.92-.93.92h-2.44v-3.7Z"/>
      <path class="cls-2" d="M248.14,331.12c-1.25,0-2.44,1-2.44,2.43v9.48c0,1.43,1.19,2.43,2.44,2.43h2.98c1.25,0,2.46-1,2.46-2.43v-9.48c0-1.43-1.19-2.43-2.44-2.43h-3ZM251.32,342.33c0,.54-.47.92-.91.92h-1.56c-.45,0-.89-.38-.89-.92v-8.09c0-.54.45-.92.89-.92h1.55c.47,0,.93.38.93.92v8.09Z"/>
      <path class="cls-2" d="M255.48,345.46h7.04v-2.37c-.35.1-1.17.16-1.58.16h-3.05v-10.34c0-.4.05-1.39.15-1.79h-2.55c.07.38.15,1.25.15,1.69v10.97c0,.46-.06,1.31-.15,1.67Z"/>
      <path class="cls-2" d="M266.56,331.12h-2.55c.07.38.15,1.27.15,1.71v10.83c0,.4-.06,1.39-.15,1.79h2.55c-.09-.36-.15-1.21-.15-1.67v-10.85c0-.4.05-1.41.15-1.81Z"/>
      <path class="cls-2" d="M276.35,335.46c-.09-.36-.15-1.22-.15-1.91,0-1.43-1.21-2.43-2.46-2.43h-2.7c-1.23,0-2.44,1-2.44,2.43v2.11c0,.84.37,1.65.88,2.01,1.38.98,2.68,1.93,3.85,2.87.28.22.61.5.61.76v1.04c0,.54-.47.92-.91.92h-1.27c-.45,0-.91-.38-.91-.92.02-.48.06-.84.15-1.21h-2.55c.08.38.13,1.25.15,1.91,0,1.43,1.21,2.43,2.44,2.43h2.7c1.23,0,2.46-1,2.46-2.43v-2.11c0-.8-.33-1.53-.86-1.89l-3.95-2.95c-.28-.2-.54-.38-.54-.72v-1.12c0-.54.52-.92.89-.92h1.27c.47,0,.93.38.93.94-.02.4-.05.8-.15,1.2h2.55Z"/>
    </g>
  </g>
</svg>