<?xml version="1.0" encoding="UTF-8"?>
<svg id="ICON" xmlns="http://www.w3.org/2000/svg" viewBox="0 0 1080 1080">
  <defs>
    <style>
      .cls-1 {
        fill: none;
      }
    </style>
  </defs>
  <path class="cls-1" d="m558.19,680.56c3.68-1.58,7.44-2.9,11.42-3.99l-7.39-.47c-1.17,1.53-2.48,3.03-4.02,4.45Z"/>
  <path d="m425.34,565.13c5.61-3.61,8.97-9.96,12.03-16.59.36-.78.72-1.56,1.07-2.35.36-.78.71-1.57,1.07-2.35.36-.78.72-1.56,1.08-2.32,2.33-4.89,5.15-12.37,4.67-18.26,12.25,10.15,25.87,13.72,41.92,15.85-1.8-9.63-3.59-19.26-5.39-28.9-14.75-7.1-27.22-11.77-37.98,2.73-.08.11-.15.24-.21.37-.11.27-.18.57-.21.88-.02.16-.03.32-.03.48-.02.64.04,1.29.01,1.77-.24-.13-.46-.26-.66-.41-.42-.29-.78-.61-1.12-.95s-.64-.69-.93-1.05-.57-.71-.85-1.06c-.28-.34-.57-.68-.89-.98-1.1-1.06-2.51-1.79-5.03-1.53-14.81,1.53-19.28,17.76-23.47,29.81-1.13,3.24-2.94,8.44-3.45,12.15-1.01-.75-2.03-1.49-3.05-2.24-2.55-1.87-5.1-3.74-7.54-5.71-.49-.39-.97-.79-1.45-1.19-3.84-3.21-7.36-6.71-10.15-10.82-1.32-1.95-2.51-3.94-3.6-5.96-1.82-3.37-3.35-6.82-4.76-10.32-.56-1.4-1.1-2.81-1.63-4.22-.27-.71-.53-1.41-.79-2.12-.52-1.42-1.03-2.84-1.55-4.26-.26-.71-.52-1.42-.78-2.13-.52-1.42-1.05-2.84-1.59-4.26-.55,2.01-1.02,4.01-1.42,5.99-.93,4.63-1.46,9.18-1.53,13.66-.01.64-.01,1.28,0,1.91.04,3.81.42,7.57,1.15,11.25.12.61.25,1.23.4,1.84,1.71,7.32,4.86,14.36,9.65,21.07.8,1.12,1.64,2.23,2.53,3.33,3.27,4.03,6.71,6.78,10.41,8.85,3.08,1.72,6.33,2.97,9.8,4.08.69.22,1.4.44,2.11.66,1.42.43,2.88.85,4.38,1.28,1.5.43,3.03.87,4.61,1.35,0-1.92.03-3.7.01-5.49,0-.6-.02-1.2-.03-1.81.62.09.82.48,1.17.75.21.16.47.29.91.29,1.01,0,1.97-.06,2.89-.17,2.76-.33,5.13-1.13,7.21-2.29.35-.19.68-.4,1.01-.61Z"/>
  <path d="m687.88,528.42c-5.44,8.31-13.82,14.17-21.83,20.26-.54-3.69-2.42-8.89-3.57-12.1-4.27-11.95-8.86-28.16-23.63-29.5-5.75-.52-5.63,4.03-9.35,6.09-.06-.96.22-2.59-.46-3.5-10.81-14.41-23.05-9.42-37.6-2.21-.92,9.82-1.82,19.64-2.73,29.46,15.17-2.65,27.77-6.86,38.97-16.92-.42,5.86,2.43,13.31,4.79,18.17,5.94,12.2,10.48,26.51,26.56,26.37,1.17-.01,1.08-.91,2.07-1.06-.03,2.44.03,4.75.07,7.31,12.53-3.98,22.46-5.73,31-16.6,13.97-17.79,16.02-37.89,9.9-59.26-4.17,11.4-7.32,23.01-14.18,33.49Z"/>
  <path d="m643.27,599.32c-5.13-10.47-10.98-16.53-23.84-15.73-10.46-9.46-22.24-12.98-36.48-15.01-1.39,9.85-2.67,19.71-3.59,29.61,11.5,3.93,21.54,5.37,33.58,2.66,2,4.6,4.97,10.39,7.22,14.55,3.89,7.2,6.84,11.47,14.7,14.69-4.73,5.7-9.27,11.93-15.15,16.63-9.98,7.97-21.3,13.47-32.62,19.33,23.81,1.5,44.66-4.74,60.72-20.58,9.81-9.67,10.33-17.99,12.36-29.93-4.11.95-7.9,1.93-11.87,2.85-.86-6.38-2.18-13.29-5.01-19.07Z"/>
  <path d="m487.02,669.5c-1.47-.63-2.94-1.26-4.4-1.88-10.24-4.36-20.25-8.61-29.51-15.06-3.12-2.18-5.96-4.84-8.65-7.65-2.69-2.81-5.25-5.76-7.81-8.51,3.08-1.7,5.36-3.51,7.2-5.55.92-1.02,1.74-2.09,2.49-3.24.5-.76.98-1.56,1.44-2.39.23-.42.46-.84.69-1.27.91-1.73,1.79-3.62,2.76-5.68.56-1.19,1.19-2.53,1.85-3.94.33-.71.67-1.43,1.02-2.17,1.72-3.69,3.52-7.68,4.81-11,12.74,2.11,24.11,1.15,36.52-2.02-1.8-10.26-3.59-20.52-5.41-30.77-.92.12-1.82.24-2.72.37-10.76,1.55-20.16,4.12-28.69,9.7-2.13,1.4-4.21,2.98-6.24,4.78-7.03.21-11.96,2.03-15.76,5.27-3.8,3.24-6.49,7.91-9.05,13.81-.71,1.63-1.33,3.38-1.87,5.2-.54,1.82-1,3.71-1.4,5.62-.79,3.82-1.31,7.73-1.64,11.34-3.06-.36-6.02-.88-9.07-1.34-1.02-.16-2.05-.31-3.1-.45.48,2.67.9,5.2,1.37,7.62.14.69.28,1.38.43,2.05.3,1.35.62,2.67,1,3.96.47,1.61,1.03,3.18,1.7,4.72.4.92.85,1.83,1.35,2.73.33.6.69,1.19,1.08,1.78,1.73,2.66,3.98,5.24,7.01,7.81,2.2,1.86,4.46,3.56,6.78,5.1,3.47,2.3,7.06,4.25,10.76,5.85,3.7,1.61,7.52,2.87,11.45,3.83,1.31.32,2.63.6,3.96.85,9.33,1.74,19.23,1.82,29.64.54Z"/>
  <path d="m717.18,259.4c-1.76-6.25-3.98-12.24-6.69-17.91-.77-1.62-1.59-3.22-2.44-4.79-1.71-3.14-3.58-6.18-5.61-9.11-1.02-1.46-2.08-2.9-3.18-4.3-7.71-9.83-17.46-18.24-29.43-24.85-5.13-2.83-10.67-5.34-16.62-7.49-.99-.36-2-.71-3.01-1.04-8.13-2.71-17.01-4.77-26.68-6.12,18.17,13.76,27.32,37.75,37.48,55.35,5.39,9.35,11.4,27.21,13.3,43.42.79,6.67.88,13.07-.06,18.47-.27,1.54-.62,3.01-1.06,4.37-1.32,4.1-3.47,7.32-6.64,9.21-14.44,8.64-17.02-7.38-21.55-15.59-3.71-6.71-5.23-14.04-5.7-21.6-.1-1.62-.16-3.25-.17-4.89-.03-3.27.08-6.58.24-9.88.25-4.95.63-9.89.83-14.71-9.51,14.87-17.49,25.53-22,38.26-.5,1.41-.96,2.85-1.37,4.33-.41,1.47-.78,2.98-1.1,4.53-1.6,7.75-2,16.56-.87,27.51,1.77,17.13,24.34,48.99,45.78,56.63-2.57,5.38-10.57,11.17-16.28,10.32-23.32-3.48-36.14-14.53-50.53-30.54,3.86-10.47,6.18-21.06,1.49-31.5-7.04-15.67-19.36-24.37-34.12-33.48,10.14,16.51,21.49,33.6,7.09,50.56-.88,1.03-2.59.67-3.63,1.46-4.15-3.19-8.29-6.36-12.43-9.53-4.14-3.17-8.28-6.33-12.42-9.51-7.95,6.27-15.9,12.48-23.87,18.77-.11-.08-.23-.15-.36-.21-.89-.41-2.1-.27-2.75-1.05-14.38-16.99-3.12-33.98,7.07-50.49-14.81,9.03-27.01,17.65-34.14,33.29-1.13,2.48-1.85,5-2.24,7.53-.19,1.27-.31,2.54-.35,3.81-.02.64-.02,1.27,0,1.91.05,1.91.24,3.83.56,5.75.31,1.92.74,3.84,1.25,5.75.51,1.91,1.1,3.82,1.74,5.71-7.7,8.83-15.01,16.23-23.73,21.84-.51.33-1.03.65-1.55.97-1.05.63-2.11,1.24-3.21,1.83-1.64.88-3.33,1.69-5.09,2.45-5.27,2.27-11.11,4.01-17.8,5.15-4.89.84-11.7-3.35-15.02-7.96-.47-.66-.88-1.32-1.19-1.98,21.44-7.44,44.05-38.8,45.83-55.91,1.59-15.31.17-26.46-3.34-36.37-4.52-12.74-12.5-23.44-21.97-38.32.41,9.64,1.52,19.74.9,29.45-.03.54-.07,1.08-.12,1.61-.23,2.68-.6,5.34-1.16,7.94-.11.52-.23,1.04-.36,1.55-.26,1.03-.55,2.05-.88,3.07-.82,2.53-1.87,5-3.19,7.4-.71,1.28-1.37,2.75-2.04,4.28-.27.61-.53,1.24-.81,1.87s-.55,1.26-.83,1.88c-.28.62-.58,1.24-.88,1.85-.91,1.82-1.91,3.52-3.1,4.88-.4.46-.82.87-1.26,1.25-2.88,2.43-6.77,2.98-12.61-.54-10.52-6.33-9.54-27.25-4.82-46.31,2.83-11.44,7.01-22.2,10.86-28.74,10.26-17.45,19.53-41.35,37.72-54.95-56.7,7.38-86.76,39.52-96.11,82.78-.2.92-.39,1.85-.57,2.78-.72,3.72-1.29,7.52-1.72,11.39-.11.97-.2,1.94-.29,2.92-.97,10.74-.85,21.99.28,33.58,2.47,25.19,10.42,54.54,39.55,64.91,2.67,6.7,5.57,12.96,9.5,18,.6.77,1.23,1.52,1.89,2.23,5.57,6.07,13.1,9.82,24.34,9.49,25.94-.76,37.96-17.31,48.94-37.01-.78,4.7-1.57,9.42-2.35,14.15-2.35,14.19-4.69,28.5-6.97,42.7-3.59-1.08-6.97-1.97-10.14-2.42-1.41-.2-2.78-.32-4.1-.33-.33,0-.66,0-.98.01-.65.02-1.29.08-1.92.16-.31.04-.63.09-.93.15-.62.12-1.22.26-1.82.45s-1.18.4-1.75.66c-1.72.77-3.33,1.88-4.84,3.41-1.26,1.27-2.44,2.84-3.54,4.73-.65,1.11-.35,2.51-.4,3.6-1.2-.61-2.01-1.48-2.74-2.35-1.17-1.4-2.12-2.83-4.1-3.31-.74-.18-1.62-.22-2.71-.08-.93.12-1.82.3-2.67.53-.43.12-.84.24-1.25.39-4.06,1.42-7.16,4.1-9.63,7.46-.49.67-.96,1.37-1.41,2.09-.45.72-.87,1.47-1.27,2.23-.6,1.14-1.16,2.33-1.68,3.54-1.91,4.43-3.33,9.19-4.69,13.5-.12.39-.25.78-.37,1.16-.26.83-.57,1.78-.9,2.8-.97,3.05-2.05,6.72-2.4,9.54-3.6-2.52-7.28-4.97-10.77-7.61-4.48-3.39-8.63-7.08-11.86-11.63-7.24-10.19-10.74-21.58-15.29-32.77-1.2,4.68-2.01,9.29-2.4,13.81-.05.65-.1,1.29-.14,1.93-.07,1.28-.11,2.56-.12,3.83,0,1.91.07,3.79.24,5.66.11,1.25.26,2.49.44,3.72,1.58,10.47,5.96,20.36,13.73,29.52,2.23,2.63,4.54,4.69,6.94,6.36,1.2.83,2.42,1.56,3.67,2.22,6.24,3.28,13.14,4.63,21.06,6.8-.02-1.91-.03-3.69-.07-5.48-.01-.6-.03-1.19-.06-1.8.25.03.43.11.59.21.46.3.64.8,1.52.78,1.01-.03,1.98-.12,2.9-.26.46-.07.91-.15,1.35-.24,1.32-.28,2.54-.67,3.68-1.16.38-.16.75-.34,1.11-.52.72-.37,1.41-.78,2.07-1.22,1.64-1.12,3.07-2.46,4.36-3.98.51-.61,1-1.24,1.47-1.9,1.64-2.31,3.03-4.9,4.3-7.61,1.64-3.49,3.08-7.17,4.64-10.7.96-2.18,2.02-4.89,2.86-7.75.96-3.26,1.65-6.71,1.59-9.78,0-.38-.03-.76-.06-1.13,10.27,9.19,21.68,13.26,35.58,15.81.14-3.38.17-6.88.35-10.18.93.98,1.87,2,2.81,3.06,5.17,5.84,10.45,12.74,15.64,18.41.47.52.94,1.02,1.41,1.51.94.99,1.87,1.92,2.81,2.8,7.44,7.01,14.33,9.45,21.73,15.56-2.42-1.03-4.84-2.04-7.25-3.03-7.25-2.97-14.51-5.78-21.76-8.74-2.25,2.16-4.56,4.19-6.77,6.44.34,1.58.7,3.26,1.06,4.99s.73,3.49,1.1,5.25c.18.88.36,1.75.54,2.62.54,2.6,1.05,5.11,1.51,7.34.08.37.15.73.23,1.06.08.34.16.65.24.96.33,1.21.69,2.17,1.15,2.98,1.15,2.03,2.92,3.16,6.22,5.06.4.23.07-.05,2.1.6.89.28,2.82.85,4.95,1.48.61.18,1.24.36,1.86.55,2.19.64,4.35,1.28,5.67,1.68,1,1.03,1.98,2.05,2.93,3.08,2.86,3.08,5.55,6.15,8.4,9.24-8.41-4.5-16.81-8.98-25.24-13.43-.5.61-1.01,1.21-1.52,1.81s-1.02,1.19-1.53,1.78c-1.02,1.19-2.04,2.39-3.02,3.67.7,4.73,1.54,10.6,2.26,15.87.33,2.39.63,4.66.88,6.64.81,6.33,1.67,7.88,6.44,11.45.23.17.46.32.7.46,1.41.82,2.93,1.07,4.55,1.73.27.11.54.23.82.37,2.22,1.12,5.36,2.1,7.74,3.2,1.58,1.77,3.15,3.54,4.71,5.3,1.56,1.77,3.12,3.53,4.7,5.29-3.27-1.79-6.53-3.6-9.79-5.42-3.25-1.82-6.5-3.65-9.75-5.47-1.59,1.86-3.27,3.52-4.83,5.49.04.33.08.67.12,1.02.51,4.21,1.2,9.82,1.79,14.1.05.36.1.7.15,1.04.1.67.19,1.3.28,1.87.7,4.56,2.22,4.89,3.29,8.54,4.98,3.9,10.06,7.69,15.12,11.49-6.6-1.08-13.15-2.3-19.76-3.33-.95,1.71-1.91,3.13-2.85,5.02-.41,6.47-.93,15.34-1.76,22.88-.38,3.43-.82,6.58-1.34,9.11-.83,4.05-1.38,6.09-1.49,7.99-.05.95,0,1.86.2,2.98.05.28.1.57.17.87.19.92.46,1.98.82,3.29.02.09.03.13.03.15,0-.01.01-.03.04-.03.02,0,.06.01.1.05.05.03.12.08.2.17.17.16.44.44.83.92,1.56,1.89,7.26,8.75,9.29,11.76-4.83-1.86-9.65-4.11-14.44-6.38-1.6-.76-3.19-1.52-4.79-2.26-.37.48-.81,1.01-1.27,1.56-.23.28-.47.56-.71.84-1.2,1.42-2.46,2.89-3.26,4.05-2.13,3.08-3.71,6.2-4.82,9.39-1.85,5.31-2.4,10.79-2.05,16.56.11,1.79.6,2.77,1.13,3.76.19.36.39.71.58,1.05.39.67.79,1.29,1.19,1.88,1,1.49,2.02,2.83,3.04,4.49-1.95-.49-3.84-1.1-5.85-1.38-.1.29-.2.59-.3.9-.1.31-.21.63-.32.95-.55,1.63-1.18,3.45-1.8,5.28-.37,1.1-.74,2.2-1.08,3.27-.69,2.14-1.3,4.14-1.69,5.7-.26,1.04-.51,2.05-.75,3.04-.71,2.95-1.29,5.62-1.55,7.87-.74,6.49-.67,12.57.05,18.44.12.98.26,1.95.41,2.92.31,1.94.69,3.85,1.14,5.76,1.56,6.67,3.9,13.21,6.8,19.96.58,1.35,1.15,2.36,1.67,3.12.17.25.34.48.5.69,4.21,5.4,8.06,10.6,11.88,15.85,2.29,3.15,4.58,6.31,6.92,9.55-1.98,2.15-3.89,4.37-5.85,6.55,3.46,3.14,6.94,6.24,10.41,9.35,3.48,3.11,6.95,6.23,10.42,9.39,2.58.63,5.68,1.81,8.41,2.69.91.29,1.78.55,2.58.75,6.32,1.55,12.1,2.76,17.73,3.56,2.25.32,4.48.58,6.7.76,2.23.19,4.45.31,6.7.35,7.88.16,16.05-.56,25.58-2.34,2.53-.47,15.82-3.57,19.45-5.83,2.36-2.98,3.5-5.93,5.25-8.98,2.07,1.27,4.2,2.48,6.31,3.7,16.59-15.76,30.44-33.59,47.94-48.53-1.41-16.74-1.37-33.16-.46-49.92-4.74-5.18-9.25-10.54-13.83-15.83,2.83-3.68,5.44-7.03,5.91-11.69-15.56-16.22-38.19-25.2-60.54-24.27-5.59.23-10.55.81-15.12,1.72-2.28.46-4.47,1-6.58,1.62-.53.16-1.05.32-1.57.48-2.08.66-4.09,1.41-6.06,2.23-1.48.62-2.94,1.28-4.39,1.99-3.86,1.89-7.65,4.1-11.59,6.62-.98.63-1.98,1.28-2.98,1.95s-2.02,1.35-3.06,2.06c13.45-1.5,43.03-8.04,49.96,5.26,10.72,20.58,6.26,27.72,34.09,24.19,3.3-2.5,7.36-4.19,11.3-6.01-3.36,5.67-7.51,10.68-11.1,16.2-.83,11.33-.52,21.83,1.75,33.04-8.65,12.73-17.17,25.4-26.66,37.63,1.54,3.49,2.9,7.07,4.29,10.61-3.38-2.49-6.95-4.92-10.21-7.44-4.51.23-6.61.62-11.57.79-15.51.51-30.23-3.71-44.42-10.62-2.67-1.3-7.47-4.04-10.07-5.39s-4.17-1.64-6.6-2.71c-3.75,2.13-7.59,4.19-11.38,6.28,3.4-5.85,6.78-11.72,10.01-17.64-.03-.51-.07-1.01-.13-1.51-.11-1-.27-1.99-.46-2.98-.18-.98-.39-1.96-.6-2.94-.31-1.47-.63-2.95-.87-4.45-.99-6.16-1.81-11.93-1.96-17.7-.02-.72-.03-1.44-.02-2.17,0-1.44.06-2.89.17-4.35.27-3.64.87-7.34,1.94-11.2.71-2.58,2.36-5.91,3.37-8.55-.24-.98-.49-1.94-.75-2.9-.26-.96-.53-1.91-.8-2.88-6.42-2.01-12.59-4.57-18.75-7.18,2.81.11,5.62.16,8.42.25s5.61.22,8.41.47c-.03-.05-.01-.17-.05-.23-.01-.02-.03-.03-.06-.03.95-1.43,1.32-2.5,1.6-3.66s.44-2.38.98-4.12c1.82-5.94,4.55-10.91,9.62-16.12.68-.7,1.51-1.5,2.43-2.35,2.74-2.54,6.25-5.5,8.91-7.51.46-1.16.64-2.21.95-3.34-3.08-.26-6.14-.58-9.21-.91-3.07-.32-6.13-.65-9.21-.92,2.78-.89,5.55-1.79,8.33-2.66,3.7-1.16,7.41-2.27,11.19-3.24.94-.24,1.89-.48,2.84-.7,1.56-1.17,2.87-2.48,4-3.89,1.51-1.88,2.72-3.95,3.81-6.13.27-.55.54-1.1.8-1.66,5.11-10.96,8.66-22.09,11.56-33.69-.87-4.19-1.7-8.39-2.45-12.6-3.2.07-6.44.17-9.66.27-3.22.1-6.44.2-9.6.25,2.64-1.47,5.84-3.17,8.98-4.84,3.14-1.67,6.21-3.31,8.62-4.67,4.8-2.71,4.84-4.48,5.91-8.7,1.56-6.14,2.12-12.23,3.52-18.37-1.61-2-3.16-4-4.75-6-3.47,1.74-6.93,3.48-10.41,5.22-3.47,1.73-6.95,3.46-10.44,5.16,1.59-1.6,3.16-3.2,4.73-4.81,1.57-1.6,3.15-3.21,4.76-4.81,2.71-.98,6.35-2.21,8.84-3.18,2.49-.97,4.75-1.47,6.78-2.5,4.84-2.44,6.02-5.9,6.93-10.52,1.55-7.89,3.1-15.59,4.55-23.45-2.06-2.62-4.12-5.25-6.16-7.89-8.9,4.39-17.8,8.76-26.72,13.13,1.03-1.04,2.05-2.07,3.06-3.11,3.03-3.11,6.01-6.21,9.25-9.32,2.77-.72,9.9-2.68,11.71-3.15,1.81-.47,1.21-.3,1.39-.38,5.13-2.1,6.87-4.78,7.92-9.46,1.58-7.06,3.23-13.92,4.88-20.93-2.11-2.12-4.24-4.24-6.35-6.36-9.54,3.66-19.09,7.33-28.64,10.97,6.69-4.42,13.38-8.84,20.07-13.26-.01,0-.02,0-.04,0,6.76-7.89,13.54-15.76,20.31-23.64.04,2.01.09,4.02.13,6.03,14.03-2.69,25.39-7.07,35.65-16.46-.5,5.88,2.27,13.37,4.57,18.27,5.79,12.31,10.14,26.69,26.24,26.85,1.17.01,1.09-.89,2.08-1.02-.07,2.43-.05,4.74-.04,7.3,12.58-3.74,22.55-5.3,31.27-16.01,14.26-17.53,16.59-37.51,10.78-58.89-4.34,11.29-7.65,22.8-14.68,33.14-5.57,8.19-14.06,13.86-22.16,19.79-.51-3.71-2.31-8.92-3.42-12.17-4.13-12.06-8.5-28.31-23.29-29.94-5.76-.63-5.7,3.89-9.46,5.91-.04-1.09.2-2.46-.41-3.58-5.86-10.72-14.39-10.58-25.98-7.8-2.36-16.97-4.72-34.14-7.12-50.98,11.26,17.42,23.2,31.76,46.87,31.81,21.22.05,29.2-13.43,35.74-30.22,29.13-10.42,37.2-39.86,39.73-65.1,1.9-19.01,1.12-37.11-2.72-53.56-.43-1.83-.89-3.63-1.39-5.42Zm-80.14,65.05c-2.63-8.56-5.11-17.12-7.68-25.69-2.54,7.88-5.08,15.76-7.62,23.64.42-9.45.85-18.9,1.27-28.35,2.92-6.97,5.75-13.97,8.74-20.91,1.41,8.64,4.48,17.39,5.37,26.01.89,8.61-.46,16.76-.09,25.3Zm-193.21-23.79c.89-8.6,3.97-17.34,5.38-25.95,2.98,6.95,5.81,13.97,8.72,20.95.42,9.43.84,18.87,1.26,28.3-2.53-7.88-5.07-15.76-7.6-23.64-2.56,8.53-5.05,17.06-7.69,25.58.37-8.52-.97-16.65-.07-25.24Zm-46.56-44.03c2.44-10.55,5.03-21.27,7.53-31.88-8.91,7.34-17.82,14.68-26.73,22.03,6.85-9.55,13.71-19.11,20.57-28.65,10.99-5.48,21.94-10.82,32.96-16.39-5.42,8.67-9.57,15.31-15.29,24.46-5.72,9.15-13.02,20.81-19.04,30.43Zm193.49,441.48c-7.22-.4-18.13-1.52-24.71-2.1,3.4-2.16,8.22-4.33,12.41-5.65,4.2-1.32,8.38-1.3,12.57-2.37-4.29,1.93-8.61,3.72-12.95,5.53,4.19,1.54,8.6,3.07,12.67,4.58Zm24.51,31.18c-6.46-.31-10.53-6.17-12.12-11.68,9.94,5.06,18.42,6.12,29.65,4.16.67-.12,1.73-.6,2.51-.66-6.21,4.28-11.61,8.59-20.03,8.18Zm-93.44-370.11c-.86,3.67-1.72,7.35-2.58,11.02-1.4-3.68-2.8-7.35-4.2-11.03,4.71-3.18,9.43-6.37,14.14-9.55-2.46,3.19-4.91,6.37-7.37,9.56Zm40.24,11.07c-.86-3.68-1.72-7.36-2.59-11.04-2.46-3.19-4.91-6.38-7.37-9.57,4.71,3.19,9.43,6.39,14.14,9.59-1.4,3.67-2.79,7.35-4.18,11.02Zm113.53-147.17c2.45,10.66,4.97,21.42,7.34,32.02-5.96-9.71-13.18-21.46-18.85-30.68-5.67-9.22-9.78-15.9-15.15-24.63,10.98,5.69,21.89,11.14,32.85,16.73,6.8,9.62,13.61,19.24,20.41,28.87-8.86-7.43-17.73-14.87-26.59-22.3Z"/>
  <path d="m510.33,604.97s0,0,0,0c0-.01,0-.03-.01-.04,0,0,0,0,0,0-.05-.04-.01.03,0,.05Z"/>
</svg>