<?xml version="1.0" encoding="UTF-8"?>
<svg id="PRIMARY" xmlns="http://www.w3.org/2000/svg" xmlns:xlink="http://www.w3.org/1999/xlink" viewBox="0 0 1080 1080">
  <defs>
    <style>
      .cls-1 {
        fill: none;
      }

      .cls-2 {
        clip-path: url(#clippath);
      }

      .cls-3 {
        fill: #fff;
      }

      .cls-4 {
        fill: #ff0e11;
      }
    </style>
    <clipPath id="clippath">
      <path class="cls-1" d="m304.32,182.52v277.24c0,184.12,86.93,357.43,234.51,467.52h0s0,0,0,0c147.58-110.09,234.51-283.4,234.51-467.52V182.52h-469.02Z"/>
    </clipPath>
  </defs>
  <g id="FULL_COLOR" data-name="FULL COLOR">
    <g>
      <path class="cls-4" d="m519.33,953.42c-38.52-28.74-73.65-61.99-104.43-98.84-30.38-36.37-56.56-76.3-77.81-118.68-21.26-42.38-37.61-87.24-48.6-133.33-11.13-46.7-16.78-94.74-16.78-142.8V149.93h534.21v309.84c0,48.06-5.64,96.1-16.78,142.8-10.99,46.09-27.34,90.95-48.6,133.33-21.26,42.38-47.44,82.31-77.81,118.68-30.77,36.85-65.91,70.1-104.43,98.84l-19.49,14.54-19.49-14.54Z"/>
      <path d="m529.08,940.35c-37.5-27.98-71.71-60.35-101.66-96.22-29.57-35.41-55.06-74.28-75.75-115.54-20.69-41.26-36.61-84.93-47.31-129.8-10.84-45.46-16.33-92.24-16.33-139.02V166.22h501.61v293.54c0,46.79-5.5,93.56-16.33,139.02-10.7,44.87-26.62,88.55-47.31,129.8-20.69,41.26-46.18,80.13-75.75,115.54-29.96,35.87-64.16,68.24-101.66,96.22l-9.75,7.27-9.75-7.27Z"/>
      <path class="cls-4" d="m304.32,182.52v277.24c0,184.12,86.93,357.43,234.51,467.52h0s0,0,0,0c147.58-110.09,234.51-283.4,234.51-467.52V182.52h-469.02Z"/>
    </g>
    <rect x="297.59" y="178.37" width="488.04" height="247.77"/>
    <g id="CHAOS">
      <g>
        <path class="cls-3" d="m319.06,267.13c6.83-2.03,21.96-11.81,25.65-17.34,3.14,1.29,7.57,1.84,12.92,1.84h2.58c5.35,0,9.78-.74,12.92-1.84,4.06,9.41,13.84,20.11,23.99,23.06-1.48,2.4-2.77,4.8-2.77,11.44v11.81l-23.06,4.24c1.29-3.14,1.85-7.2,1.85-12.18v-6.83c-3.69-3.69-6.09-6.46-7.93-10.33h-16.05c-2.03,2.03-4.43,4.06-7.01,5.72v31.18c0,4.06.18,6.09,2.4,8.86-2.21,2.77-2.4,4.8-2.4,8.86v29.34c2.58,1.66,4.98,3.69,7.01,5.72h16.05c1.85-3.87,4.24-6.64,7.93-10.33v-6.83c0-4.98-.55-9.04-1.85-12.18l23.06,4.24v11.81c0,6.64,1.29,9.04,2.77,11.44-10.15,2.95-19.93,13.65-23.99,23.06-3.14-1.11-7.56-1.85-12.92-1.85h-2.58c-5.35,0-9.78.55-12.92,1.85-3.69-5.54-18.82-15.31-25.65-17.34,1.29-6.09,1.85-10.7,1.85-16.61v-22.32c0-4.06-.18-6.09-2.4-8.86,2.21-2.77,2.4-4.8,2.4-8.86v-24.17c0-5.9-.55-10.52-1.85-16.61Z"/>
        <path class="cls-3" d="m408,259.02l7.38-9.22c2.77,1.29,6.83,1.84,11.62,1.84s8.86-.55,11.81-1.84l7.38,9.22c-4.61,2.77-8.49,7.01-8.49,11.99v34.32h28.97v-34.32c0-4.98-3.88-9.22-8.49-11.99l7.38-9.22c2.77,1.29,6.83,1.84,11.62,1.84s8.86-.55,11.81-1.84l7.38,9.22c-4.61,2.77-8.49,7.01-8.49,11.99v36.9c0,4.06.18,6.09,2.4,8.86-2.21,2.77-2.4,4.8-2.4,8.86v35.06c0,4.98,3.87,9.23,8.49,11.99l-7.38,9.22c-2.95-1.29-6.83-1.85-11.81-1.85s-8.86.55-11.62,1.85l-7.38-9.22c4.61-2.77,8.49-7.01,8.49-11.99v-36.9h-28.97v36.9c0,4.98,3.88,9.23,8.49,11.99l-7.38,9.22c-2.95-1.29-6.83-1.85-11.81-1.85s-8.86.55-11.62,1.85l-7.38-9.22c4.61-2.77,8.49-7.01,8.49-11.99v-35.06c0-4.06-.18-6.09-2.4-8.86,2.22-2.77,2.4-4.8,2.4-8.86v-36.9c0-4.98-3.87-9.22-8.49-11.99Z"/>
        <path class="cls-3" d="m523.13,259.02l7.38-9.22c2.95,1.11,9.41,1.84,16.05,1.84,6.27,0,11.99-.55,16.24-1.84l7.38,9.22c-3.51,3.69-4.8,8.49-4.06,12.73l6.27,34.69c.74,4.24,1.66,6.46,4.06,8.49-1.66,2.95-1.66,4.98-.92,9.04l6.27,36.72c.92,5.35,4.61,8.67,9.04,11.99l-7.38,9.22c-5.35-1.48-8.3-1.85-12.91-1.85-5.35,0-9.78.55-12.92,1.85l-7.38-9.22c5.9-3.32,10.7-6.83,9.78-11.99l-4.24-25.28h-22.14l-4.24,25.28c-.92,5.17,3.88,8.67,9.78,11.99l-7.38,9.22c-3.87-1.29-6.09-1.85-10.7-1.85-3.88,0-5.9.37-10.52,1.85l-7.38-9.22c4.43-3.32,7.38-6.64,8.3-11.99l6.46-36.72c.74-4.06.74-6.09-.92-9.04,2.4-2.03,3.32-4.24,4.06-8.49l6.09-34.69c.74-4.24-.55-9.04-4.06-12.73Zm29.89,59.78l-7.75-45.2h-1.29l-7.56,45.2h16.6Z"/>
        <path class="cls-3" d="m595.46,265.29c6.83-2.03,21.96-11.81,25.65-17.34,3.14,1.29,7.56,1.85,12.91,1.85h.37c5.35,0,9.78-.55,12.92-1.85,3.69,5.53,18.82,15.31,25.65,17.34-1.29,6.09-1.85,10.7-1.85,16.61v26.02c0,4.06.18,6.09,2.4,8.86-2.21,2.77-2.4,4.8-2.4,8.86v24.17c0,5.9.55,10.52,1.85,16.61-6.83,2.03-21.96,11.81-25.65,17.34-3.14-1.29-7.57-1.85-12.92-1.85h-.37c-5.35,0-9.78.55-12.91,1.85-3.69-5.54-18.82-15.31-25.65-17.34,1.29-6.09,1.85-10.7,1.85-16.61v-24.17c0-4.06-.18-6.09-2.4-8.86,2.21-2.77,2.4-4.8,2.4-8.86v-26.02c0-5.9-.55-10.52-1.85-16.61Zm30.07,97.23h17.34c2.03-2.03,4.43-4.06,7.01-5.72v-31.18c0-4.06-.18-6.09-2.4-8.86,2.22-2.77,2.4-4.8,2.4-8.86v-33.03c-2.58-1.66-4.98-3.69-7.01-5.72h-17.34c-2.03,2.03-4.43,4.06-7.01,5.72v33.03c0,4.06.18,6.09,2.4,8.86-2.21,2.77-2.4,4.8-2.4,8.86v31.18c2.58,1.66,4.98,3.69,7.01,5.72Z"/>
        <path class="cls-3" d="m684.21,265.29c6.83-2.03,21.96-11.81,25.65-17.34,3.14,1.29,7.57,1.85,12.92,1.85h2.58c5.35,0,9.78-.74,12.92-1.85,4.06,9.41,13.84,20.11,23.99,23.06-1.48,2.4-2.77,4.8-2.77,11.44v11.81l-23.06,4.24c1.29-3.14,1.85-7.2,1.85-12.18v-6.83c-3.69-3.69-6.09-6.46-7.93-10.33h-16.05c-2.03,2.03-4.43,4.06-7.01,5.72v22.51l54.06,24.91c-1.48,4.8-1.85,7.93-1.85,14.39v13.1c0,5.9.55,10.52,1.85,16.61-6.83,2.03-21.96,11.81-25.65,17.34-3.14-1.29-7.56-1.85-12.91-1.85h-3.51c-5.35,0-9.78.74-12.92,1.85-4.06-9.41-13.84-20.11-23.99-23.06,1.48-2.4,2.77-4.8,2.77-11.44v-11.81l23.06-4.24c-1.29,3.14-1.85,7.2-1.85,12.18v6.83c3.69,3.69,6.09,6.46,7.93,10.33h16.97c2.03-2.03,4.43-4.06,7.01-5.72v-23.25l-44.1-19.74c-3.32-1.48-6.09-2.58-9.96-3.32,1.48-5.17,1.85-8.12,1.85-14.58v-14.02c0-5.9-.55-10.52-1.85-16.61Z"/>
      </g>
      <g>
        <path class="cls-4" d="m381.75,202.51c1.5-.45,4.83-2.6,5.64-3.82.69.28,1.66.41,2.84.41h.57c1.18,0,2.15-.16,2.84-.41.89,2.07,3.05,4.43,5.28,5.07-.33.53-.61,1.06-.61,2.52v2.6l-5.08.93c.28-.69.41-1.58.41-2.68v-1.5c-.81-.81-1.34-1.42-1.75-2.27h-3.53c-.45.45-.97.89-1.54,1.26v6.86c0,.89.04,1.34.53,1.95-.49.61-.53,1.06-.53,1.95v6.45c.57.37,1.1.81,1.54,1.26h3.53c.41-.85.93-1.46,1.75-2.27v-1.5c0-1.1-.12-1.99-.41-2.68l5.08.93v2.6c0,1.46.28,1.99.61,2.52-2.23.65-4.39,3-5.28,5.07-.69-.24-1.66-.41-2.84-.41h-.57c-1.18,0-2.15.12-2.84.41-.81-1.22-4.14-3.37-5.64-3.82.28-1.34.41-2.35.41-3.65v-4.91c0-.89-.04-1.34-.53-1.95.49-.61.53-1.06.53-1.95v-5.32c0-1.3-.12-2.31-.41-3.65Z"/>
        <path class="cls-4" d="m428.96,200.72l1.62-2.03c.65.24,2.07.41,3.53.41,1.38,0,2.64-.12,3.57-.41l1.62,2.03c-.77.81-1.06,1.87-.89,2.8l1.38,7.63c.16.93.37,1.42.89,1.87-.37.65-.37,1.1-.2,1.99l1.38,8.08c.2,1.18,1.02,1.91,1.99,2.64l-1.62,2.03c-1.18-.32-1.83-.41-2.84-.41-1.18,0-2.15.12-2.84.41l-1.62-2.03c1.3-.73,2.35-1.5,2.15-2.64l-.93-5.56h-4.87l-.93,5.56c-.2,1.14.85,1.91,2.15,2.64l-1.62,2.03c-.85-.28-1.34-.41-2.35-.41-.85,0-1.3.08-2.31.41l-1.62-2.03c.97-.73,1.62-1.46,1.83-2.64l1.42-8.08c.16-.89.16-1.34-.2-1.99.53-.45.73-.93.89-1.87l1.34-7.63c.16-.93-.12-1.99-.89-2.8Zm6.58,13.15l-1.71-9.95h-.28l-1.66,9.95h3.65Z"/>
        <path class="cls-4" d="m471.34,223.09v-7.71c0-.89-.04-1.34-.53-1.95.49-.61.53-1.06.53-1.95v-8.12c0-1.1-.85-2.03-1.87-2.64l1.62-2.03c.69.28,1.66.41,2.84.41h4.75c1.18,0,2.15-.12,2.84-.41.81,1.22,4.14,3.37,5.64,3.82-.28,1.34-.41,2.35-.41,3.65v2.52c0,1.3.12,2.31.41,3.61-.97.28-2.72,1.3-4.06,2.31l.93.77,2.15,7.71c.33,1.14,1.02,1.91,1.99,2.64l-1.62,2.03c-1.18-.32-1.83-.41-2.84-.41s-1.83.12-2.4.41l-1.62-2.03c1.26-.85,1.75-1.5,1.42-2.64l-1.87-6.7-.69-.69h-2.56v7.39c0,1.1.85,2.03,1.87,2.64l-1.62,2.03c-.65-.28-1.5-.41-2.6-.41s-1.95.12-2.56.41l-1.62-2.03c1.02-.61,1.87-1.54,1.87-2.64Zm9.21-19.73h-4.55v8.08h4.55c.45-.45.98-.89,1.54-1.26v-5.56c-.57-.37-1.1-.81-1.54-1.26Z"/>
        <path class="cls-4" d="m514.24,202.1c1.5-.45,4.83-2.6,5.64-3.82.69.28,1.66.41,2.84.41h.08c1.18,0,2.15-.12,2.84-.41.81,1.22,4.14,3.37,5.64,3.82-.28,1.34-.41,2.35-.41,3.65v5.72c0,.89.04,1.34.53,1.95-.49.61-.53,1.06-.53,1.95v5.32c0,1.3.12,2.31.41,3.65-1.5.45-4.83,2.6-5.64,3.82-.69-.28-1.66-.41-2.84-.41h-.08c-1.18,0-2.15.12-2.84.41-.81-1.22-4.14-3.37-5.64-3.82.28-1.34.41-2.35.41-3.65v-5.32c0-.89-.04-1.34-.53-1.95.49-.61.53-1.06.53-1.95v-5.72c0-1.3-.12-2.31-.41-3.65Zm6.62,21.4h3.82c.45-.45.97-.89,1.54-1.26v-6.86c0-.89-.04-1.34-.53-1.95.49-.61.53-1.06.53-1.95v-7.27c-.57-.37-1.1-.81-1.54-1.26h-3.82c-.45.45-.97.89-1.54,1.26v7.27c0,.89.04,1.34.53,1.95-.49.61-.53,1.06-.53,1.95v6.86c.57.37,1.1.81,1.54,1.26Z"/>
        <path class="cls-4" d="m559.47,227.76l-1.62-2.03c1.02-.61,1.87-1.54,1.87-2.64v-7.71c0-.89-.04-1.34-.53-1.95.49-.61.53-1.06.53-1.95v-8.12c0-1.1-.85-2.03-1.87-2.64l1.62-2.03c.77.28,1.87.41,3.21.41,1.26,0,2.27-.12,3-.41l1.62,2.03c-1.58.61-2.92,1.54-2.92,2.64v8.12c0,.89.04,1.34.53,1.95-.49.61-.53,1.06-.53,1.95v7.71h4.55c1.79,0,2.19-2.11,2.27-3.78h2.11v3.69c0,.97.08,2.07.4,2.72l-1.62,2.03c-.77-.28-1.83-.41-3.17-.41h-6.62c-1.18,0-2.15.12-2.84.41Z"/>
        <path class="cls-4" d="m599.57,200.72l1.62-2.03c.61.28,1.5.41,2.56.41s1.95-.12,2.6-.41l1.62,2.03c-1.02.61-1.87,1.54-1.87,2.64v8.12c0,.89.04,1.34.53,1.95-.49.61-.53,1.06-.53,1.95v7.71c0,1.1.85,2.03,1.87,2.64l-1.62,2.03c-.65-.28-1.5-.41-2.6-.41s-1.95.12-2.56.41l-1.62-2.03c1.02-.61,1.87-1.54,1.87-2.64v-7.71c0-.89-.04-1.34-.53-1.95.49-.61.53-1.06.53-1.95v-8.12c0-1.1-.85-2.03-1.87-2.64Z"/>
        <path class="cls-4" d="m634.36,200.72l1.62-2.03c.61.28,1.5.41,2.84.41,1.22,0,1.79-.08,2.84-.41-.08.81,0,1.54.24,2.27l6.13,17.9h.2v-3.9c0-.89-.04-1.34-.53-1.95.49-.61.53-1.06.53-1.95v-7.71c0-1.1-.85-2.03-1.87-2.64l1.62-2.03c.49.28,1.22.41,2.27.41s1.71-.12,2.27-.41l1.62,2.03c-1.02.61-1.87,1.54-1.87,2.64v7.71c0,.89.04,1.34.53,1.95-.49.61-.53,1.06-.53,1.95v8.12c0,1.1,0,2.03.41,2.64l-1.62,2.03c-.45-.28-1.1-.41-2.11-.41-.93,0-1.34.08-2.15.41.12-1.06-.08-1.83-.41-2.72l-5.93-17.25h-.2v3.29c0,.89.04,1.34.53,1.95-.49.61-.53,1.06-.53,1.95v8.12c0,1.1.85,2.03,1.87,2.64l-1.62,2.03c-.57-.28-1.26-.41-2.27-.41s-1.79.12-2.27.41l-1.62-2.03c1.02-.61,1.87-1.54,1.87-2.64v-8.12c0-.89-.04-1.34-.53-1.95.49-.61.53-1.06.53-1.95v-7.71c0-1.1-.85-2.03-1.87-2.64Z"/>
        <path class="cls-4" d="m683.47,200.72l1.62-2.03c.65.24,2.07.41,3.53.41,1.38,0,2.64-.12,3.57-.41l1.62,2.03c-.77.81-1.06,1.87-.89,2.8l1.38,7.63c.16.93.37,1.42.89,1.87-.37.65-.37,1.1-.2,1.99l1.38,8.08c.2,1.18,1.02,1.91,1.99,2.64l-1.62,2.03c-1.18-.32-1.83-.41-2.84-.41-1.18,0-2.15.12-2.84.41l-1.62-2.03c1.3-.73,2.35-1.5,2.15-2.64l-.93-5.56h-4.87l-.93,5.56c-.2,1.14.85,1.91,2.15,2.64l-1.62,2.03c-.85-.28-1.34-.41-2.35-.41-.85,0-1.3.08-2.31.41l-1.62-2.03c.97-.73,1.62-1.46,1.83-2.64l1.42-8.08c.16-.89.16-1.34-.2-1.99.53-.45.73-.93.89-1.87l1.34-7.63c.16-.93-.12-1.99-.89-2.8Zm6.58,13.15l-1.71-9.95h-.28l-1.66,9.95h3.65Z"/>
      </g>
    </g>
    <g class="cls-2">
      <g>
        <polygon class="cls-3" points="461.51 455.02 457.89 503.19 466.68 500.25 467.95 490.35 470.2 501.48 477.3 497.46 474.39 472.92 465.23 452.66 461.51 455.02"/>
        <polygon class="cls-3" points="589.01 819 597.51 831.37 609.89 831.37 622.11 823.62 589.01 819"/>
        <polygon class="cls-3" points="614.39 453.05 604.81 478.24 607.95 499.8 627.12 501.48 622.46 470.84 617.53 450.72 614.39 453.05"/>
        <polygon class="cls-3" points="630.28 401.25 659.08 445.37 659.08 427.61 677.65 437.99 671.02 417.86 652.16 402.03 628.44 391.64 630.28 401.25"/>
        <polygon class="cls-3" points="559.79 804.56 585.43 806.92 580.22 800.4 584.55 794.95 561 800.27 559.79 804.56"/>
        <polygon class="cls-3" points="415.7 430.33 418.43 449.55 431.91 439.94 460.57 390.07 433.08 399.01 411.39 421.12 407.74 433.74 415.7 430.33"/>
        <g>
          <path class="cls-1" d="m495.33,536.74c3.51.3,7.03.6,10.54.91-2.57-3.58-5.14-7.18-7.71-10.76-.81,3.32-1.75,6.6-2.83,9.86Z"/>
          <path class="cls-1" d="m451.72,396.74c-9.05,4.58-18.05,8.96-27.08,13.47-5.63,7.84-11.27,15.69-16.9,23.54,7.32-6.03,14.64-12.07,21.96-18.1-2.05,8.72-4.19,17.52-6.19,26.19,4.95-7.91,10.95-17.49,15.65-25,4.7-7.52,8.11-12.98,12.57-20.1Z"/>
          <path class="cls-1" d="m561.83,802.61c-1.79.7-.13.05,0,0,6.69.97,13.93,1.44,20.86,1.96-3.55-1.22-7.08-2.52-10.62-3.79,3.56-1.48,7.11-2.96,10.62-4.53-3.35.79-6.91.94-10.24,1.89-3.33.96-7.72,3.32-10.62,4.46Z"/>
          <path class="cls-1" d="m608.99,472.59c-.35,7.76-.7,15.53-1.04,23.29,2.09-6.47,4.17-12.95,6.26-19.42,2.1,7.04,4.15,14.07,6.31,21.11-.3-7.01.8-13.71.07-20.79-.73-7.08-3.26-14.27-4.41-21.37-2.45,5.7-4.78,11.46-7.18,17.18Z"/>
          <path class="cls-1" d="m468.14,477.73c2.08,6.47,4.17,12.95,6.25,19.42-.34-7.75-.69-15.5-1.03-23.25-2.39-5.73-4.72-11.5-7.16-17.21-1.16,7.08-3.69,14.26-4.42,21.32-.73,7.06.37,13.74.06,20.74,2.17-7.01,4.21-14.01,6.32-21.02Z"/>
          <path class="cls-1" d="m576.75,537.74c3.1-.26,6.21-.53,9.31-.79-.96-2.85-1.81-5.72-2.55-8.62-2.25,3.14-4.5,6.28-6.76,9.42Z"/>
          <path class="cls-1" d="m592.66,820.58c1.31,4.52,4.65,9.34,9.96,9.59,6.92.33,11.35-3.21,16.46-6.72-.64.06-1.51.45-2.06.54-9.23,1.61-16.19.74-24.36-3.41Z"/>
          <path class="cls-1" d="m652.19,414.27c7.28,6.1,14.57,12.21,21.85,18.32-5.59-7.91-11.18-15.81-16.77-23.72-9-4.59-17.97-9.07-26.99-13.74,4.41,7.18,7.79,12.67,12.45,20.24,4.66,7.57,10.59,17.23,15.49,25.2-1.95-8.71-4.02-17.55-6.03-26.3Z"/>
          <path d="m459.11,675.91c1.91-4.02,4.23-10.16,3.84-15,10.06,8.34,21.26,11.27,34.44,13.02-1.48-7.91-2.95-15.83-4.43-23.74-12.12-5.84-22.37-9.67-31.21,2.25-.56.75-.31,2.09-.36,2.88-3.1-1.66-3.04-5.39-7.78-4.9-12.17,1.26-15.84,14.59-19.28,24.49-.93,2.67-2.42,6.94-2.84,9.98-6.66-4.92-13.65-9.64-18.24-16.4-5.78-8.53-8.5-18.02-12.08-27.34-4.78,17.6-2.86,34.05,8.86,48.51,7.15,8.83,15.36,10.19,25.72,13.32.01-2.1.04-4-.02-6,.82.12.75.86,1.71.85,13.24-.04,16.86-11.83,21.66-21.92Z"/>
          <path d="m662.28,665.14c-4.47,6.83-11.35,11.64-17.94,16.65-.44-3.03-1.99-7.3-2.93-9.94-3.51-9.81-7.28-23.13-19.42-24.23-4.72-.43-4.63,3.31-7.68,5-.05-.79.18-2.13-.38-2.87-8.88-11.84-18.94-7.74-30.89-1.81-.75,8.07-1.49,16.14-2.24,24.2,12.47-2.18,22.81-5.64,32.02-13.9-.35,4.82,1.99,10.94,3.94,14.93,4.88,10.02,8.61,21.78,21.82,21.66.96,0,.88-.75,1.7-.87-.03,2,.02,3.9.06,6.01,10.3-3.27,18.46-4.71,25.47-13.64,11.48-14.62,13.16-31.13,8.13-48.69-3.43,9.37-6.01,18.9-11.65,27.52Z"/>
          <path d="m579.45,778.21c19.56,1.23,36.7-3.89,49.89-16.91,8.06-7.95,8.49-14.78,10.15-24.59-3.38.78-6.49,1.59-9.75,2.34-.71-5.24-1.79-10.92-4.12-15.67-4.22-8.6-9.02-13.58-19.59-12.93-8.59-7.77-18.27-10.67-29.97-12.33-1.15,8.09-2.19,16.19-2.95,24.33,9.45,3.23,17.7,4.41,27.59,2.19,1.64,3.78,4.08,8.54,5.93,11.96,3.2,5.92,5.62,9.43,12.07,12.07-3.88,4.68-7.61,9.8-12.45,13.66-8.2,6.55-17.5,11.07-26.8,15.88Z"/>
          <path d="m469.4,767.13c-5.13-3.58-9.32-8.76-13.53-13.28,6.75-3.72,8.79-8.11,11.98-14.9,1.84-3.92,4.61-9.7,6.31-14.06,10.46,1.74,19.81.95,30-1.66-1.47-8.43-2.95-16.86-4.45-25.28-12.03,1.52-22.04,4.3-30.93,12.2-11.56.34-16.18,5.98-20.38,15.68-2.32,5.36-3.48,12.26-4.03,18.2-3.36-.39-6.55-1.02-10-1.47,1.79,10.02,2.61,17.71,11.46,25.19,14.49,12.26,31.88,15.7,51.43,13.29-9.67-4.17-19.17-7.86-27.86-13.92Z"/>
          <path d="m627.72,570.89c17.44.04,23.99-11.03,29.37-24.83,23.93-8.56,30.56-32.75,32.64-53.48,5.56-55.52-16.81-101.68-80.33-110.58,14.93,11.31,22.45,31.02,30.79,45.48,8.34,14.46,18.46,53.7,4.56,62.02-11.86,7.1-13.98-6.06-17.71-12.81-6.96-12.6-4.53-27.86-3.94-41.96-13.9,21.71-23.8,32.52-20.83,61.31,1.45,14.08,20,40.25,37.62,46.53-2.11,4.42-8.68,9.17-13.37,8.48-19.16-2.86-29.69-11.94-41.51-25.09,3.17-8.6,5.08-17.3,1.22-25.88-5.79-12.87-15.91-20.03-28.03-27.5,8.33,13.56,17.65,27.6,5.83,41.54-.72.85-2.13.55-2.98,1.2-6.82-5.24-13.61-10.42-20.41-15.64-6.54,5.15-13.07,10.25-19.61,15.42-.73-.56-1.94-.31-2.55-1.04-11.82-13.96-2.57-27.92,5.81-41.48-12.17,7.42-22.19,14.5-28.05,27.35-3.72,8.17-2.01,16.72.79,25.03-11.91,13.66-22.68,23.15-42.21,26.49-4.6.79-11.24-3.82-13.32-8.17,17.62-6.11,36.19-31.88,37.65-45.94,2.99-28.75-6.96-39.64-20.8-61.36.6,14.08,3.01,29.34-3.95,41.91-3.73,6.73-5.88,19.82-17.69,12.71-13.83-8.32-3.47-47.33,4.96-61.66,8.43-14.33,16.04-33.97,30.99-45.14-63.44,8.26-86.28,54.23-80.85,109.64,2.03,20.69,8.56,44.81,32.5,53.33,5.39,13.55,11.96,24.94,29.35,24.42,21.32-.63,31.19-14.22,40.21-30.41-2.57,15.44-5.16,31.15-7.65,46.71-10.48-3.15-18.86-4.36-24.68,5.6-.53.92-.29,2.06-.33,2.96-3.14-1.61-3.07-5.34-7.84-4.72-12.26,1.59-15.64,15.29-18.87,25.39-.87,2.72-2.32,7.05-2.71,10.13-6.76-4.74-13.88-9.17-18.59-15.81-5.95-8.37-8.82-17.73-12.56-26.93-4.51,17.58-2.36,33.88,9.66,48.04,7.34,8.65,15.61,9.78,26.02,12.64-.02-2.1-.03-3.99-.11-5.98.82.09.76.84,1.73.81,13.3-.43,16.72-12.38,21.26-22.68,1.81-4.1,4.03-10.46,3.62-15.33,8.44,7.55,17.81,10.89,29.23,12.99.12-2.77.14-5.65.29-8.37,6.12,6.42,12.5,15.43,18.62,21.19,6.12,5.76,11.77,7.76,17.85,12.78-7.95-3.4-15.89-6.42-23.84-9.67-1.85,1.78-3.74,3.44-5.56,5.29,1.12,5.19,2.46,11.7,3.47,16.59,1,4.89,2.1,5.76,6.45,8.26.33.19.05-.04,1.73.49s7.78,2.3,10.26,3.05c3.3,3.37,6.18,6.74,9.31,10.12-6.91-3.7-13.81-7.38-20.74-11.03-1.65,2.01-3.36,3.87-4.99,5.96.84,5.65,1.92,13.3,2.58,18.49.67,5.2,1.37,6.47,5.29,9.41,1.51,1.13,3.17,1.19,4.99,2.11,1.82.92,4.4,1.72,6.36,2.63,2.6,2.9,5.14,5.82,7.73,8.71-5.38-2.94-10.71-5.95-16.05-8.95-1.31,1.53-2.69,2.89-3.97,4.51.53,4.33,1.34,11.05,1.92,14.81.58,3.76,1.84,4.02,2.71,7.05.01.04-.07-.08-.01-.03,4.09,3.2,8.26,6.32,12.43,9.44-5.42-.88-10.8-1.89-16.23-2.74-.78,1.4-1.57,2.57-2.34,4.13-.49,7.74-1.18,19.63-2.55,26.28-1.37,6.65-1.81,6.71-.25,12.43.12.45-.29-.53.99,1.02,1.28,1.56,5.97,7.19,7.63,9.66-5.29-2.03-10.56-4.65-15.8-7.1-1.23,1.59-3.26,3.78-4.31,5.3-4.68,6.76-6.1,13.73-5.65,21.32.09,1.47.5,2.28.93,3.09,1.27,2.4,2.61,3.92,3.95,6.09-1.61-.4-3.15-.91-4.8-1.13-1.27,3.81-3.42,9.81-4.26,13.23s-1.6,6.5-1.88,8.96c-1.61,14.22,1.46,26.01,6.9,38.68.64,1.48,1.25,2.46,1.78,3.13,5.54,7.1,10.3,13.78,15.45,20.87-1.63,1.77-3.2,3.59-4.8,5.38,5.69,5.16,11.42,10.2,17.11,15.4,2.82.69,6.41,2.18,9.03,2.82,16.62,4.08,28.71,5.26,46.6,1.92,2.08-.39,13-2.93,15.98-4.79,1.94-2.45,2.88-4.88,4.32-7.38,1.7,1.04,3.45,2.04,5.18,3.04,13.63-12.95,25.01-27.6,39.39-39.87-1.16-13.75-1.12-27.25-.38-41.01-3.9-4.26-7.6-8.66-11.36-13.01,2.32-3.02,4.47-5.78,4.85-9.6-12.78-13.32-31.38-20.7-49.74-19.94-18.36.76-28.58,6.07-42.19,15.34,11.05-1.23,35.36-6.61,41.05,4.32,8.81,16.91,5.14,22.77,28.01,19.87,2.71-2.05,6.05-3.45,9.28-4.94-2.76,4.65-6.17,8.78-9.12,13.31-.68,9.31-.43,17.94,1.44,27.15-7.11,10.46-14.11,20.87-21.9,30.91,1.26,2.87,2.38,5.81,3.52,8.72-2.77-2.05-5.71-4.05-8.39-6.11-3.7.19-5.43.51-9.51.65-12.74.42-24.84-3.05-36.5-8.72-2.19-1.07-6.14-3.32-8.27-4.43-2.14-1.11-3.43-1.35-5.42-2.23-3.08,1.75-6.24,3.44-9.35,5.16,2.8-4.8,5.57-9.63,8.22-14.5-.2-3.34-1.17-6.47-1.69-9.76-1.62-10.12-2.7-18.96.1-29.1.59-2.12,1.94-4.86,2.77-7.03-.39-1.61-.83-3.17-1.27-4.75-5.27-1.66-10.35-3.75-15.41-5.9,4.61.17,9.23.19,13.83.59-.03-.06,0-.21-.09-.21,1.55-2.34,1.24-3.54,2.11-6.39,1.49-4.88,3.74-8.96,7.9-13.25,2.25-2.31,6.41-5.9,9.32-8.1.38-.96.53-1.81.78-2.74-5.06-.42-10.08-1.06-15.14-1.5,6.1-1.95,12.11-3.95,18.37-5.42,3.42-2.57,5.36-5.93,7.07-9.6,4.19-9.01,7.11-18.15,9.5-27.68-.71-3.44-1.4-6.89-2.02-10.36-5.26.11-10.62.35-15.82.43,4.34-2.42,10.51-5.59,14.46-7.81,3.95-2.23,3.98-3.68,4.86-7.15,1.28-5.04,1.74-10.05,2.89-15.09-1.32-1.64-2.59-3.29-3.9-4.93-5.7,2.86-11.39,5.73-17.13,8.53,2.61-2.63,5.16-5.27,7.8-7.9,2.23-.8,5.22-1.81,7.26-2.61,2.04-.8,3.9-1.21,5.57-2.05,3.98-2,4.95-4.85,5.69-8.65,1.27-6.48,2.54-12.81,3.74-19.27-1.69-2.15-3.38-4.32-5.06-6.48-7.31,3.61-14.63,7.19-21.95,10.79,3.39-3.41,6.56-6.8,10.11-10.21,2.27-.59,8.13-2.2,9.62-2.59,1.48-.39,1-.25,1.15-.31,4.21-1.73,5.64-3.93,6.51-7.77,1.3-5.8,2.65-11.44,4.01-17.2-1.74-1.74-3.48-3.48-5.22-5.22-7.84,3.01-15.68,6.02-23.53,9.02,5.5-3.63,10.99-7.26,16.49-10.9,0,0-.02,0-.03,0,5.55-6.48,11.12-12.95,16.69-19.42.04,1.65.08,3.3.11,4.95,11.53-2.21,20.86-5.81,29.29-13.53-.41,4.83,1.87,10.98,3.76,15.01,4.75,10.11,8.33,21.93,21.56,22.06.96,0,.9-.73,1.71-.84-.06,2-.04,3.89-.03,5.99,10.34-3.08,18.53-4.35,25.69-13.15,11.72-14.4,13.63-30.82,8.86-48.39-3.56,9.28-6.29,18.74-12.06,27.23-4.58,6.73-11.55,11.38-18.2,16.26-.42-3.04-1.89-7.33-2.81-10-3.39-9.91-6.99-23.26-19.13-24.6-4.73-.52-4.68,3.2-7.77,4.86-.03-.9.16-2.02-.34-2.94-4.82-8.8-11.82-8.69-21.35-6.41-1.94-13.94-3.88-28.05-5.85-41.88,9.25,14.31,19.06,26.09,38.51,26.14Zm15.01-155.51c-4.66-7.57-8.04-13.06-12.45-20.24,9.02,4.67,17.98,9.15,26.99,13.74,5.59,7.9,11.18,15.81,16.77,23.72-7.28-6.11-14.57-12.22-21.85-18.32,2.01,8.76,4.09,17.6,6.03,26.3-4.9-7.97-10.83-17.63-15.49-25.2Zm-22.22,82.19c-2.16-7.04-4.2-14.07-6.31-21.11-2.08,6.47-4.17,12.95-6.26,19.42.35-7.76.7-15.53,1.04-23.29,2.4-5.73,4.72-11.48,7.18-17.18,1.16,7.09,3.68,14.29,4.41,21.37.73,7.08-.37,13.77-.07,20.79Zm-154.32-40.87c2.45,5.71,4.77,11.48,7.16,17.21.34,7.75.69,15.5,1.03,23.25-2.08-6.47-4.17-12.95-6.25-19.42-2.1,7.01-4.15,14.01-6.32,21.02.31-7-.79-13.68-.06-20.74.74-7.06,3.26-14.24,4.42-21.32Zm-42.68-14.85c2-8.67,4.14-17.47,6.19-26.19-7.32,6.03-14.64,12.06-21.96,18.1,5.63-7.85,11.27-15.7,16.9-23.54,9.03-4.5,18.03-8.89,27.08-13.47-4.46,7.12-7.87,12.58-12.57,20.1-4.7,7.52-10.7,17.09-15.65,25Zm102.34,84.25c-.71,3.02-1.41,6.04-2.12,9.06-1.15-3.02-2.3-6.04-3.45-9.06,3.87-2.62,7.74-5.24,11.62-7.85-2.02,2.62-4.03,5.24-6.05,7.86Zm46.22,274.7c3.45,1.26,7.07,2.52,10.41,3.77-5.93-.33-14.89-1.25-20.3-1.72-3.35-.29-.22,0,0,0,2.79-1.78,6.75-3.56,10.2-4.64,3.45-1.09,6.89-1.07,10.33-1.95-3.52,1.58-7.08,3.06-10.64,4.54Zm30.54,29.39c-5.31-.26-8.65-5.07-9.96-9.59,8.17,4.16,15.13,5.03,24.36,3.42.55-.1,1.42-.49,2.06-.54-5.11,3.51-9.54,7.06-16.46,6.72Zm-43.71-294.99c-.71-3.02-1.42-6.05-2.12-9.07-2.02-2.62-4.04-5.24-6.06-7.86,3.87,2.62,7.75,5.25,11.62,7.88-1.15,3.02-2.29,6.04-3.44,9.06Z"/>
          <path class="cls-3" d="m523.73,535.14c.71-3.02,1.41-6.04,2.12-9.06,2.02-2.62,4.03-5.24,6.05-7.86-3.87,2.61-7.75,5.23-11.62,7.85,1.15,3.02,2.3,6.04,3.45,9.06Z"/>
          <path class="cls-3" d="m556.79,526.12c.71,3.02,1.42,6.05,2.12,9.07,1.14-3.02,2.29-6.04,3.44-9.06-3.87-2.63-7.74-5.25-11.62-7.88,2.02,2.62,4.04,5.24,6.06,7.86Z"/>
        </g>
      </g>
    </g>
  </g>
</svg>