<?xml version="1.0" encoding="UTF-8"?>
<svg id="ICON" xmlns="http://www.w3.org/2000/svg" version="1.1" viewBox="0 0 1080 1080">
  <!-- Generator: Adobe Illustrator 30.1.0, SVG Export Plug-In . SVG Version: 2.1.1 Build 136)  -->
  <defs>
    <style>
      .st0 {
        fill: #fff;
      }
    </style>
  </defs>
  <g id="ONE_COLOR_LIGHT">
    <path class="st0" d="M714.7,240.2c-18.7-28.5-48.2-51.7-89.3-51.5-8.7,0-34.3,5.2-34.3,5.2l24.5,15.3c10.3,7.8,17.6,20.3,24.3,33l-10.5,16.3c-1.9,3-3.7,5.8-5.5,8.4-12.6,19.2-22.8,34.8-22.2,63-8.6-13.1-20.8-21.3-33.5-29.2l-20.2-12.4-7.3-4.5-7.5,4.6-20.2,12.3c-13.4,8.1-26.1,16.7-34.9,31.1.7-28.3-9.5-44-22.1-63.3-1.8-2.7-3.6-5.5-5.5-8.5l-10-15.7c6.8-12.7,14.1-25.1,24.5-32.9l19.7-14.7s-21.9-5.5-29.4-5.8c-40.4-1.3-71,22.7-89.6,50.6-16.5,24.8-23.3,57.7-19.6,95.4,1.4,14.1,5.5,55.9,42.2,72.5,5.5,13,16.6,32.7,44.2,32.7s1.2,0,1.8,0c2.4,0,4.8-.2,7-.5-.9.6-1.7,1.4-2.6,2.1-1.2-.2-2.5-.4-4-.4s-2,0-3,.2c-20.8,2.7-27.6,21.1-31.8,34.5-1.9-1.7-3.5-3.4-4.9-5.3-4.9-6.9-7.9-14.8-11.1-23.1-.9-2.4-1.9-4.9-2.9-7.3l-14.5-35.6-9.5,37c-5.2,20.2-3.6,38.5,4.8,54.5l-4,14.8c-7.1,26.3-2.8,49.4,12.9,68.8,10,12.4,21.6,15.7,32.8,18.9,1.5.4,3,.9,4.6,1.3l12.1,3.7c-1.8,2.8-3.2,5.8-4.5,8.8-1.6,3.8-3,8.2-4,13.1l-16.6-2.2,3.2,17.9c2,11.7,4.2,23.8,17.5,35,14.7,12.4,32.4,19.1,52.8,20-2.2,6.4-3.1,13.3-2.6,20.8.1,1.9.5,3.6.9,4.9l-.3.9c-.4,1-.8,2.2-1.2,3.5-1.6,4.6-3.3,9.8-4.2,13.5-1.2,5-2.1,8.8-2.5,12.3-2.5,21.7,3.3,38.7,9.2,52.6,1,2.5,2.2,4.5,3.6,6.3,4.7,6.1,9,11.9,13.4,17.9l-7.2,8.1,8.2,7.5c3.1,2.9,6.3,5.7,9.5,8.5,3.8,3.4,7.6,6.8,11.3,10.2l2.4,2.2,3.2.8c1.2.3,2.9.9,4.6,1.5,2.1.7,4.3,1.5,6.4,2,14.5,3.6,25.5,5.1,36.5,5.1s16.6-.8,25.9-2.6c.2,0,17.4-3.5,24-7.6l1.8-1.1.9-1.1,3.8,2.2,7.1-6.7c7.3-6.9,14.1-14.2,20.6-21.3,8.9-9.6,17.3-18.6,26.8-26.8l4.5-3.8-.5-5.6c-1.2-14.9-1.4-30.8-.4-48.4l.2-4.6-3.2-3.5c-2.7-3-5.4-6.1-8.1-9.1,1.5-2.8,2.7-6,3.1-9.8l.5-5-3.6-3.8c-12.5-13.1-28.8-22.1-46.5-26,15.5-3.5,29-10.9,40.2-22,11.6-11.4,13.3-21.9,15.1-32.9.2-1,.3-2.1.5-3.2l3-17.3-17.3,4c-.9-3.2-2-6.4-3.5-9.5-1.3-2.6-2.8-5.4-4.6-8l15.1-4.8c1.6-.5,3.1-1,4.6-1.4,11.1-3.4,22.7-6.8,32.5-19.3,15.4-19.6,19.4-42.8,11.9-69l-2.5-8.7c9.8-17.1,11.9-36.7,5.9-58.6l-10.1-37.3-13.9,36.2c-.9,2.4-1.8,4.9-2.7,7.3-3.1,8.5-6,16.5-10.8,23.5-1.3,1.9-2.9,3.7-4.6,5.4-4.4-13-11.6-30.8-32.1-33-.9,0-1.7-.1-2.5-.1-1.5,0-2.8.1-4,.4-1.3-1.2-2.6-2.2-4-3,4,.8,8.4,1.3,13.1,1.3h0c28.9,0,40.1-20.1,45.6-33.2,13.6-6.2,24.1-16.5,31.3-30.7,5.7-11.3,9.3-25,11-42,3.8-37.7-2.8-70.8-19.1-95.6h0ZM540.6,300.3l10.7,17.4c7.9,12.8,12.2,20.9,11.2,27.9-1.4-1.1-22.7-17.4-22.7-17.4l-8,6.3c-3.2,2.5-11.9,9.4-13,10.2-.6-6.9,3.7-14.9,11.3-27.2l10.7-17.3h0ZM417.1,584.4c-.9.1-1.9.2-2.9.2s-.7-.1-.9-.3c-.4-.3-.5-.7-1.2-.8,0,.6,0,1.2,0,1.8,0,1.8,0,3.6,0,5.5-1.6-.5-3.1-.9-4.6-1.3s-3-.8-4.4-1.3c-.7-.2-1.4-.4-2.1-.7-3.5-1.1-6.7-2.4-9.8-4.1-3.7-2.1-7.1-4.8-10.4-8.8-.9-1.1-1.7-2.2-2.5-3.3-4.8-6.7-7.9-13.8-9.6-21.1-.1-.6-.3-1.2-.4-1.8-.7-3.7-1.1-7.4-1.1-11.2v-1.9c0-4.5.6-9,1.5-13.7.4-2,.9-4,1.4-6,.5,1.4,1.1,2.8,1.6,4.3.3.7.5,1.4.8,2.1.5,1.4,1,2.8,1.5,4.3.3.7.5,1.4.8,2.1.5,1.4,1.1,2.8,1.6,4.2,1.4,3.5,3,7,4.8,10.3,1.1,2,2.3,4,3.6,6,2.8,4.1,6.3,7.6,10.1,10.8.5.4,1,.8,1.5,1.2,2.4,2,5,3.8,7.5,5.7,1,.8,2,1.5,3,2.2.5-3.7,2.3-8.9,3.5-12.2,4.2-12,8.7-28.3,23.5-29.8,2.5-.3,3.9.5,5,1.5.3.3.6.6.9,1,.3.3.6.7.9,1.1s.6.7.9,1c.3.3.7.7,1.1,1,.2.1.4.3.7.4,0-.5,0-1.1,0-1.8,0-.2,0-.3,0-.5,0-.3.1-.6.2-.9,0-.1.1-.3.2-.4,10.8-14.5,23.2-9.8,38-2.7,1.8,9.6,3.6,19.3,5.4,28.9-16-2.1-29.7-5.7-41.9-15.8.5,5.9-2.4,13.4-4.7,18.3-.4.8-.7,1.5-1.1,2.3s-.7,1.6-1.1,2.3c-.4.8-.7,1.6-1.1,2.3-3.1,6.6-6.4,13-12,16.6-.3.2-.7.4-1,.6-2.1,1.2-4.5,2-7.2,2.3h0ZM386.3,523.7c6,3,12.2,4.6,18.2,6.2,1.1.3,2.3.6,3.5.9-3.6,5.6-6,11.9-7.9,17.4-1.8-1.8-3.4-3.6-4.7-5.5-3.9-5.7-6.5-12.2-9.1-19ZM477.3,511.4c0,.1,0,.3,0,.4-5.4-2.1-11.1-3.5-16.9-3.5s-14.7,2.5-20.6,7.6c-.5-.1-1.1-.2-1.6-.3,6.1-6.3,9.6-14.5,12.3-21,.6-1.4,1.1-2.7,1.7-4,.5-1,.9-2.1,1.4-3.2,8.5,4,16.9,6,24.5,7.4l6.2,1.1c.2.3.5.6.7.9,0,0-.2.1-.2.2-1.5,1.4-3,2.8-4.6,4.4l-4.3,4.3,1.2,5.7h0ZM486.9,573.4c-12.6,1.7-26.9,4.9-39.8,14.9-10.4,1.3-17.4,5.7-22.4,11.4v-5c14.9-4.5,21.1-18.3,25.5-28,.6-1.4,1.3-2.8,1.9-4.1.5-1.2,1.1-2.4,1.7-3.8,10.5,4.7,21.3,6.8,31.6,8.2h.7c.3,2.4.6,4.5.9,6.5h0ZM457.4,685.3c-1.3-.2-2.6-.5-4-.8-3.9-1-7.7-2.2-11.5-3.8-3.7-1.6-7.3-3.5-10.8-5.8-2.3-1.5-4.6-3.2-6.8-5.1-3-2.6-5.3-5.2-7-7.8-.4-.6-.7-1.2-1.1-1.8-.5-.9-1-1.8-1.4-2.7-.7-1.5-1.2-3.1-1.7-4.7-.4-1.3-.7-2.6-1-4-.1-.7-.3-1.4-.4-2-.5-2.4-.9-5-1.4-7.6,1,.1,2.1.3,3.1.5,3.1.5,6,1,9.1,1.3.3-3.6.9-7.5,1.6-11.3.4-1.9.9-3.8,1.4-5.6s1.2-3.6,1.9-5.2c2.6-5.9,5.2-10.6,9-13.8s8.7-5.1,15.8-5.3c2-1.8,4.1-3.4,6.2-4.8,8.5-5.6,17.9-8.2,28.7-9.7.9-.1,1.8-.2,2.7-.4,1.8,10.2,3.6,20.5,5.4,30.8-12.4,3.2-23.8,4.1-36.5,2-1.3,3.3-3.1,7.3-4.8,11-.3.7-.7,1.5-1,2.2-.7,1.4-1.3,2.8-1.9,3.9-1,2.1-1.9,4-2.8,5.7-.2.4-.5.9-.7,1.3-.5.8-.9,1.6-1.4,2.4-.8,1.2-1.6,2.2-2.5,3.2-1.8,2-4.1,3.8-7.2,5.5,2.6,2.8,5.1,5.7,7.8,8.5s5.5,5.5,8.6,7.7c9.3,6.5,19.3,10.7,29.5,15.1,1.5.6,2.9,1.2,4.4,1.9-10.4,1.3-20.3,1.2-29.6-.5h0ZM492.2,628.2c-.2.5-.5.9-.8,1.5l-1,2-.2,3.9c-.5,8.7-1.4,21.9-2.8,28.8-.2,1-.4,2-.6,2.8-.4,2-.8,3.7-1,5.2l-.2.3c-9-3.8-17.4-7.6-25-12.8-2.2-1.5-4.4-3.5-6.5-5.8,3.9-4.5,6.2-9.5,8.6-14.6l.9-2c1-2.2,2.2-4.7,3.3-7.2,1.8,0,3.5.2,5.3.2,6.4,0,13-.7,19.9-2.1h0ZM660.2,631.9c-2,11.9-2.5,20.3-12.4,29.9-16.1,15.8-36.9,22.1-60.7,20.6,11.3-5.9,22.6-11.4,32.6-19.3,5.9-4.7,10.4-10.9,15.2-16.6-7.8-3.2-10.8-7.5-14.7-14.7-2.2-4.2-5.2-10-7.2-14.5-12,2.7-22.1,1.3-33.6-2.7.9-9.9,2.2-19.8,3.6-29.6,14.2,2,26,5.5,36.5,15,12.9-.8,18.7,5.3,23.8,15.7,2.8,5.8,4.2,12.7,5,19.1,4-.9,7.8-1.9,11.9-2.8h0ZM580.1,642.6c-1-4.8-1.8-8.7-2.4-12.3l-.5-2.8c.3-.4.6-.7.8-1.1,8.2,2.6,15.6,3.8,22.8,3.8s3,0,4.5-.2c1.5,3,2.8,5.5,3.6,6.9,2.3,4.3,4.7,8.3,8.2,11.9-1.8,2.1-3.7,3.9-5.6,5.5-8,6.4-17.3,11.2-27.1,16.2l-3.4,1.8-10.9,5.6c3.9-9.1,7.1-19,10-30.5l.6-2.4-.5-2.4h0ZM592.3,574.7l.7-3.7c.5-2.3.9-4.6,1.4-6.9,8-1.5,16.6-3.8,25.2-8,.5,1.1,1,2.2,1.5,3.2.7,1.3,1.3,2.7,1.9,4.1,4.5,9.7,10.9,23.4,25.7,27.8l.2,10.1c-5.1-6.6-12.6-12.2-24.6-12.9-10.4-8-21.5-11.6-32-13.6h0ZM692.2,570.6c-8.5,10.9-18.5,12.6-31,16.6,0-2.6-.1-4.9,0-7.3-1,.2-.9,1-2.1,1.1-16.1.1-20.6-14.2-26.6-26.4-2.4-4.9-5.2-12.3-4.8-18.2-11.2,10.1-23.8,14.3-39,16.9.9-9.8,1.8-19.6,2.7-29.5,14.5-7.2,26.8-12.2,37.6,2.2.7.9.4,2.5.5,3.5,3.7-2.1,3.6-6.6,9.3-6.1,14.8,1.3,19.4,17.5,23.6,29.5,1.2,3.2,3,8.4,3.6,12.1,8-6.1,16.4-12,21.8-20.3,6.9-10.5,10-22.1,14.2-33.5,6.1,21.4,4.1,41.5-9.9,59.3h0ZM597.1,500.8l13.1-8.7c4.3-1.3,8.3-2.9,12-4.7.4,1,.9,2,1.3,3,.6,1.4,1.3,2.7,1.9,4.1,2.4,5.3,5.4,11.9,10,17.5-1,.1-1.8.3-2.7.5-5.8-4.8-12.5-7.3-20-7.3s-6.6.5-9.9,1.3l-5.8-5.8h0ZM666.4,530.1l.8-.2c1.6-.5,3.2-.9,4.7-1.3,4-1.1,8.1-2.3,12.2-3.9-1.9,5-4.1,9.8-7,14.2-1.3,1.9-2.8,3.7-4.5,5.5-1.6-4.5-3.5-9.5-6.2-14.2h0ZM721.3,334.8c-2.5,25.2-10.6,54.7-39.7,65.1-6.5,16.8-14.5,30.3-35.7,30.2-23.7,0-35.6-14.4-46.9-31.8,2.4,16.8,4.8,34,7.1,51,11.6-2.8,20.1-2.9,26,7.8.6,1.1.4,2.5.4,3.6,3.8-2,3.7-6.5,9.5-5.9,14.8,1.6,19.2,17.9,23.3,29.9,1.1,3.2,2.9,8.5,3.4,12.2,8.1-5.9,16.6-11.6,22.2-19.8,7-10.3,10.3-21.8,14.7-33.1,5.8,21.4,3.5,41.4-10.8,58.9-8.7,10.7-18.7,12.3-31.3,16,0-2.6,0-4.9,0-7.3-1,.1-.9,1-2.1,1-16.1-.2-20.5-14.5-26.2-26.9-2.3-4.9-5.1-12.4-4.6-18.3-10.3,9.4-21.6,13.8-35.7,16.5,0-2,0-4-.1-6-6.8,7.9-13.5,15.8-20.3,23.6h0c-6.7,4.4-13.4,8.8-20.1,13.3,9.5-3.6,19.1-7.3,28.6-11,2.1,2.1,4.2,4.2,6.3,6.4-1.7,7-3.3,13.9-4.9,20.9-1,4.7-2.8,7.3-7.9,9.5-.2,0,.4,0-1.4.4-1.8.5-8.9,2.4-11.7,3.2-3.2,3.1-6.2,6.2-9.2,9.3-1,1-2,2.1-3.1,3.1,8.9-4.4,17.8-8.7,26.7-13.1,2,2.6,4.1,5.3,6.2,7.9-1.5,7.9-3,15.6-4.5,23.5-.9,4.6-2.1,8.1-6.9,10.5-2,1-4.3,1.5-6.8,2.5-2.5,1-6.1,2.2-8.8,3.2-1.6,1.6-3.2,3.2-4.8,4.8s-3.1,3.2-4.7,4.8c3.5-1.7,7-3.4,10.4-5.2,3.5-1.7,6.9-3.5,10.4-5.2,1.6,2,3.1,4,4.8,6-1.4,6.1-2,12.2-3.5,18.4-1.1,4.2-1.1,6-5.9,8.7-2.4,1.3-5.5,3-8.6,4.7s-6.3,3.4-9,4.8c3.2,0,6.4-.2,9.6-.2s6.5-.2,9.7-.3c.8,4.2,1.6,8.4,2.5,12.6-2.9,11.6-6.5,22.7-11.6,33.7-.3.6-.5,1.1-.8,1.7-1.1,2.2-2.3,4.2-3.8,6.1-1.1,1.4-2.4,2.7-4,3.9-1,.2-1.9.5-2.8.7-3.8,1-7.5,2.1-11.2,3.2-2.8.9-5.5,1.8-8.3,2.7,3.1.3,6.1.6,9.2.9s6.1.7,9.2.9c-.3,1.1-.5,2.2-1,3.3-2.7,2-6.2,5-8.9,7.5-.9.8-1.7,1.7-2.4,2.3-5.1,5.2-7.8,10.2-9.6,16.1-.5,1.7-.7,3-1,4.1-.3,1.2-.7,2.2-1.6,3.7,0,0,0,0,0,0,0,0,0,.2,0,.2-2.8-.2-5.6-.4-8.4-.5-2.8,0-5.6-.2-8.4-.2,6.2,2.6,12.3,5.2,18.8,7.2.3,1,.5,1.9.8,2.9s.5,1.9.8,2.9c-1,2.6-2.7,6-3.4,8.5-1.1,3.8-1.7,7.5-1.9,11.2-.1,1.5-.2,2.9-.2,4.3,0,.7,0,1.4,0,2.2.2,5.8,1,11.5,2,17.7.2,1.5.6,3,.9,4.5.2,1,.4,2,.6,2.9s.3,2,.5,3c0,.5,0,1,.1,1.5-3.2,5.9-6.6,11.8-10,17.6,3.8-2.1,7.6-4.2,11.4-6.3,2.4,1.1,4,1.4,6.6,2.7s7.4,4.1,10.1,5.4c14.2,6.9,28.9,11.1,44.4,10.6,5-.2,7.1-.5,11.6-.8,3.3,2.5,6.8,5,10.2,7.4-1.4-3.5-2.8-7.1-4.3-10.6,9.5-12.2,18-24.9,26.7-37.6-2.3-11.2-2.6-21.7-1.8-33,3.6-5.5,7.7-10.5,11.1-16.2-3.9,1.8-8,3.5-11.3,6-27.8,3.5-23.4-3.6-34.1-24.2-6.9-13.3-36.5-6.8-50-5.3,1-.7,2-1.4,3.1-2.1s2-1.3,3-2c3.9-2.5,7.7-4.7,11.6-6.6,1.5-.7,2.9-1.4,4.4-2,2-.8,4-1.6,6.1-2.2.5-.2,1-.3,1.6-.5,2.1-.6,4.3-1.2,6.6-1.6,4.6-.9,9.5-1.5,15.1-1.7,22.3-.9,45,8.1,60.5,24.3-.5,4.7-3.1,8-5.9,11.7,4.6,5.3,9.1,10.7,13.8,15.8-.9,16.8-1,33.2.5,49.9-17.5,14.9-31.4,32.8-47.9,48.5-2.1-1.2-4.2-2.4-6.3-3.7-1.8,3-2.9,6-5.2,9-3.6,2.3-16.9,5.4-19.5,5.8-9.5,1.8-17.7,2.5-25.6,2.3-2.2,0-4.5-.2-6.7-.3s-4.5-.4-6.7-.8c-5.6-.8-11.4-2-17.7-3.6-.8-.2-1.7-.5-2.6-.8-2.7-.9-5.8-2-8.4-2.7-3.5-3.2-6.9-6.3-10.4-9.4s-7-6.2-10.4-9.3c2-2.2,3.9-4.4,5.9-6.5-2.4-3.2-4.6-6.4-6.9-9.5-3.8-5.2-7.7-10.5-11.9-15.8-.2-.2-.3-.4-.5-.7-.5-.8-1.1-1.8-1.7-3.1-2.9-6.7-5.2-13.3-6.8-20-.4-1.9-.8-3.8-1.1-5.8-.2-1-.3-1.9-.4-2.9-.7-5.9-.8-12,0-18.4.3-2.2.8-4.9,1.5-7.9.2-1,.5-2,.8-3,.4-1.6,1-3.6,1.7-5.7.4-1.1.7-2.2,1.1-3.3.6-1.8,1.2-3.7,1.8-5.3.1-.3.2-.6.3-1s.2-.6.3-.9c2,.3,3.9.9,5.9,1.4-1-1.7-2-3-3-4.5-.4-.6-.8-1.2-1.2-1.9-.2-.3-.4-.7-.6-1-.5-1-1-2-1.1-3.8-.3-5.8.2-11.3,2-16.6s2.7-6.3,4.8-9.4c.8-1.2,2.1-2.6,3.3-4,.2-.3.5-.6.7-.8.5-.5.9-1.1,1.3-1.6,1.6.8,3.2,1.5,4.8,2.3,4.8,2.3,9.6,4.5,14.4,6.4-2-3-7.7-9.9-9.3-11.8-.4-.5-.6-.8-.8-.9,0,0-.1-.1-.2-.2,0,0,0,0-.1,0,0,0,0,0,0,0,0,0,0,0,0-.2-.4-1.3-.6-2.4-.8-3.3,0-.3-.1-.6-.2-.9-.2-1.1-.2-2-.2-3,.1-1.9.7-3.9,1.5-8,.5-2.5,1-5.7,1.3-9.1.8-7.5,1.4-16.4,1.8-22.9.9-1.9,1.9-3.3,2.9-5,6.6,1,13.2,2.3,19.8,3.3-5.1-3.8-10.2-7.6-15.1-11.5,0,0,0,0,0,0t0,0s0,0,0,0h0c-1.1-3.7-2.6-4-3.3-8.5,0-.6-.2-1.2-.3-1.9,0-.3-.1-.7-.1-1-.6-4.3-1.3-9.9-1.8-14.1,0-.3,0-.7-.1-1,1.6-2,3.2-3.6,4.8-5.5,3.2,1.8,6.5,3.7,9.7,5.5,3.2,1.8,6.5,3.6,9.8,5.4-1.6-1.8-3.1-3.5-4.7-5.3-1.6-1.8-3.1-3.5-4.7-5.3-2.4-1.1-5.5-2.1-7.7-3.2-.3-.1-.5-.3-.8-.4-1.6-.7-3.1-.9-4.5-1.7-.2-.1-.5-.3-.7-.5-4.8-3.6-5.6-5.1-6.4-11.5-.2-2-.6-4.2-.9-6.6-.7-5.3-1.6-11.1-2.3-15.9,1-1.3,2-2.5,3-3.7.5-.6,1-1.2,1.5-1.8s1-1.2,1.5-1.8c8.4,4.5,16.8,8.9,25.2,13.4-2.8-3.1-5.5-6.2-8.4-9.2-1-1-1.9-2-2.9-3.1-1.3-.4-3.5-1-5.7-1.7-.6-.2-1.2-.4-1.9-.5-2.1-.6-4.1-1.2-5-1.5-2-.7-1.7-.4-2.1-.6-3.3-1.9-5.1-3-6.2-5.1-.5-.8-.8-1.8-1.1-3,0-.3-.2-.6-.2-1s-.2-.7-.2-1.1c-.5-2.2-1-4.7-1.5-7.3-.2-.9-.4-1.7-.5-2.6-.4-1.8-.7-3.5-1.1-5.2s-.7-3.4-1.1-5c2.2-2.2,4.5-4.3,6.8-6.4,7.3,3,14.5,5.8,21.8,8.7,2.4,1,4.8,2,7.2,3-7.4-6.1-14.3-8.5-21.7-15.6-.9-.9-1.9-1.8-2.8-2.8-.5-.5-.9-1-1.4-1.5-5.2-5.7-10.5-12.6-15.6-18.4-.9-1.1-1.9-2.1-2.8-3.1-.2,3.3-.2,6.8-.4,10.2-13.9-2.5-25.3-6.6-35.6-15.8,0,.4,0,.8,0,1.1,0,3.1-.6,6.5-1.6,9.8-.8,2.9-1.9,5.6-2.9,7.8-1.5,3.5-3,7.2-4.6,10.7-1.3,2.7-2.7,5.3-4.3,7.6-.5.7-1,1.3-1.5,1.9-1.3,1.5-2.7,2.9-4.4,4-.6.5-1.3.9-2.1,1.2-.4.2-.7.4-1.1.5-1.1.5-2.4.9-3.7,1.2-.4,0-.9.2-1.4.2-.9.1-1.9.2-2.9.3-.9,0-1.1-.5-1.5-.8-.1,0-.3-.2-.6-.2,0,.6,0,1.2,0,1.8,0,1.8,0,3.6,0,5.5-7.9-2.2-14.8-3.5-21.1-6.8-1.2-.7-2.5-1.4-3.7-2.2-2.4-1.7-4.7-3.7-6.9-6.4-7.8-9.2-12.1-19-13.7-29.5-.2-1.2-.3-2.5-.4-3.7-.2-1.9-.2-3.8-.2-5.7s0-2.5.1-3.8c0-.6,0-1.3.1-1.9.4-4.5,1.2-9.1,2.4-13.8,4.5,11.2,8,22.6,15.3,32.8,3.2,4.5,7.4,8.2,11.9,11.6,3.5,2.6,7.2,5.1,10.8,7.6.4-2.8,1.4-6.5,2.4-9.5.3-1,.6-2,.9-2.8.1-.4.2-.8.4-1.2,1.4-4.3,2.8-9.1,4.7-13.5.5-1.2,1.1-2.4,1.7-3.5.4-.8.8-1.5,1.3-2.2.5-.7.9-1.4,1.4-2.1,2.5-3.4,5.6-6,9.6-7.5.4-.1.8-.3,1.2-.4.9-.2,1.7-.4,2.7-.5,1.1-.1,2-.1,2.7,0,2,.5,2.9,1.9,4.1,3.3.7.9,1.5,1.7,2.7,2.4,0-1.1-.2-2.5.4-3.6,1.1-1.9,2.3-3.5,3.5-4.7,1.5-1.5,3.1-2.6,4.8-3.4.6-.3,1.2-.5,1.8-.7.6-.2,1.2-.3,1.8-.5.3,0,.6-.1.9-.1.6,0,1.3-.1,1.9-.2.3,0,.6,0,1,0,1.3,0,2.7.1,4.1.3,3.2.5,6.6,1.4,10.1,2.4,2.3-14.2,4.6-28.5,7-42.7.8-4.7,1.6-9.5,2.4-14.1-11,19.7-23,36.2-48.9,37-11.2.3-18.8-3.4-24.3-9.5-.7-.7-1.3-1.5-1.9-2.2-3.9-5-6.8-11.3-9.5-18-29.1-10.4-37.1-39.7-39.5-64.9-1.1-11.6-1.3-22.9-.3-33.6,0-1,.2-2,.3-2.9.4-3.9,1-7.7,1.7-11.4.2-.9.4-1.9.6-2.8,9.4-43.3,39.4-75.4,96.1-82.8-18.2,13.6-27.5,37.5-37.7,55-3.9,6.5-8,17.3-10.9,28.7-4.7,19.1-5.7,40,4.8,46.3,5.8,3.5,9.7,3,12.6.5.4-.4.9-.8,1.3-1.2,1.2-1.4,2.2-3.1,3.1-4.9.3-.6.6-1.2.9-1.9.3-.6.6-1.2.8-1.9s.5-1.2.8-1.9c.7-1.5,1.3-3,2-4.3,1.3-2.4,2.4-4.9,3.2-7.4.3-1,.6-2,.9-3.1.1-.5.2-1,.4-1.5.6-2.6.9-5.2,1.2-7.9,0-.5,0-1.1.1-1.6.6-9.7-.5-19.8-.9-29.5,9.5,14.9,17.5,25.6,22,38.3,3.5,9.9,4.9,21.1,3.3,36.4-1.8,17.1-24.4,48.5-45.8,55.9.3.7.7,1.3,1.2,2,3.3,4.6,10.1,8.8,15,8,6.7-1.1,12.5-2.9,17.8-5.1,1.8-.8,3.5-1.6,5.1-2.5,1.1-.6,2.2-1.2,3.2-1.8.5-.3,1-.6,1.5-1,8.7-5.6,16-13,23.7-21.8-.6-1.9-1.2-3.8-1.7-5.7-.5-1.9-.9-3.8-1.2-5.8s-.5-3.8-.6-5.8c0-.6,0-1.3,0-1.9,0-1.3.1-2.5.4-3.8.4-2.5,1.1-5,2.2-7.5,7.1-15.6,19.3-24.3,34.1-33.3-10.2,16.5-21.5,33.5-7.1,50.5.7.8,1.9.6,2.8,1,.1,0,.2.1.4.2,8-6.3,15.9-12.5,23.9-18.8,4.1,3.2,8.3,6.3,12.4,9.5,4.1,3.2,8.3,6.3,12.4,9.5,1-.8,2.8-.4,3.6-1.5,14.4-17,3-34.1-7.1-50.6,14.8,9.1,27.1,17.8,34.1,33.5,4.7,10.4,2.4,21-1.5,31.5,14.4,16,27.2,27.1,50.5,30.5,5.7.9,13.7-4.9,16.3-10.3-21.4-7.6-44-39.5-45.8-56.6-1.1-11-.7-19.8.9-27.5.3-1.5.7-3.1,1.1-4.5s.9-2.9,1.4-4.3c4.5-12.7,12.5-23.4,22-38.3-.2,4.8-.6,9.8-.8,14.7-.2,3.3-.3,6.6-.2,9.9,0,1.6,0,3.3.2,4.9.5,7.6,2,14.9,5.7,21.6,4.5,8.2,7.1,24.2,21.5,15.6,3.2-1.9,5.3-5.1,6.6-9.2.4-1.4.8-2.8,1.1-4.4.9-5.4.8-11.8,0-18.5-1.9-16.2-7.9-34.1-13.3-43.4-10.2-17.6-19.3-41.6-37.5-55.3,9.7,1.4,18.5,3.4,26.7,6.1,1,.3,2,.7,3,1,6,2.1,11.5,4.6,16.6,7.5,12,6.6,21.7,15,29.4,24.9,1.1,1.4,2.2,2.8,3.2,4.3,2,2.9,3.9,6,5.6,9.1.8,1.6,1.7,3.2,2.4,4.8,2.7,5.7,4.9,11.7,6.7,17.9.5,1.8,1,3.6,1.4,5.4,3.8,16.5,4.6,34.5,2.7,53.6h0ZM569.6,693c-4,1.1-7.7,2.4-11.4,4,1.5-1.4,2.9-2.9,4-4.5l7.4.5h0ZM614.8,790.1c-7.5,11-14.7,21.5-22.5,31.8-1.1,0-2,.2-3,.2-1.8.2-3.5.3-5.9.4-.7,0-1.4,0-2.1,0-11.4,0-23.2-3-36-9.3-1.3-.6-3.6-1.9-5.6-3-1.6-.9-3.1-1.7-4.2-2.3-.6-.3-1.2-.6-1.7-.8l.3-.7-.2-3.1c-.2-3.4-.8-6.4-1.4-9.1-.3-1.3-.6-2.6-.8-3.8-1.9-11.6-3-20.6-.1-30.8.3-.9,1-2.6,1.6-4.1.5-1.2,1-2.4,1.4-3.5l1.1-3,5.4.5-8.2-14.5c.2-.7.3-1.4.4-2,0-.2,0-.4.1-.6l10-1.1c2.1-.2,4.5-.6,7-.9,6.1-.9,13.6-1.9,20.2-1.9s10,1.6,10,1.6c2,3.8,3.4,7.2,4.7,10.2,4.2,9.8,9,21,28.2,21.5-.6,10.2-.2,19.4,1.3,28.3h0ZM423.6,311.6c-1.1,2-2.1,4.2-3,6.3-.4.9-.9,2.1-1.5,3.3-1.2-2.8-2.6-9.6-.5-22.9,1.7-10.7,5.2-21.5,8.5-29.1.1,1.9.2,3.8.3,5.6.9,13.7,1.7,26.7-3.9,36.8ZM652.3,273.4c.1-2.3.3-4.6.4-6.8,3.4,7.7,7,19,8.7,30.2,2.1,13.5.6,20.4-.7,23.1-.5-1.2-1.1-2.4-1.5-3.4-.9-2.1-1.8-4.3-3-6.3-5.6-10.1-4.8-23-3.9-36.8h0Z"/>
    <path class="st0" d="M443.9,342.3c2.6-8.5,5.1-17,7.7-25.6,2.5,7.9,5.1,15.8,7.6,23.6-.4-9.4-.8-18.9-1.3-28.3-2.9-7-5.7-14-8.7-21-1.4,8.6-4.5,17.4-5.4,26-.9,8.6.5,16.7,0,25.2h0Z"/>
    <path class="st0" d="M603.1,734c1.6,5.5,5.7,11.4,12.1,11.7,8.4.4,13.8-3.9,20-8.2-.8,0-1.8.5-2.5.7-11.2,2-19.7.9-29.7-4.2h0Z"/>
    <path class="st0" d="M637.1,315.5c-.9-8.6-4-17.4-5.4-26-3,6.9-5.8,13.9-8.7,20.9-.4,9.5-.8,18.9-1.3,28.4,2.5-7.9,5.1-15.8,7.6-23.6,2.6,8.6,5,17.1,7.7,25.7-.4-8.5,1-16.7,0-25.3h0Z"/>
    <path class="st0" d="M648.9,216.2c5.4,8.7,9.5,15.4,15.2,24.6,5.7,9.2,12.9,21,18.8,30.7-2.4-10.6-4.9-21.4-7.3-32,8.9,7.4,17.7,14.9,26.6,22.3-6.8-9.6-13.6-19.2-20.4-28.9-11-5.6-21.9-11-32.8-16.7h0Z"/>
    <path class="st0" d="M578.5,706.7c-4.2,1.3-9,3.5-12.4,5.7,6.6.6,17.5,1.7,24.7,2.1-4.1-1.5-8.5-3-12.7-4.6,4.3-1.8,8.7-3.6,13-5.5-4.2,1.1-8.4,1-12.6,2.4h0Z"/>
    <path class="st0" d="M431.6,218.1c-11,5.6-22,10.9-33,16.4-6.9,9.6-13.7,19.1-20.6,28.7,8.9-7.3,17.8-14.7,26.7-22-2.5,10.6-5.1,21.3-7.5,31.9,6-9.6,13.3-21.3,19-30.4s9.9-15.8,15.3-24.5h0Z"/>
    <path class="st0" d="M510.3,621.3h0s0,0,0,0h0s0,0,0,0h0Z"/>
    <path class="st0" d="M519.2,386.6c.9-3.7,1.7-7.4,2.6-11,2.5-3.2,4.9-6.4,7.4-9.6-4.7,3.2-9.4,6.4-14.1,9.5,1.4,3.7,2.8,7.4,4.2,11h0Z"/>
    <path class="st0" d="M559.5,375.6c.9,3.7,1.7,7.4,2.6,11,1.4-3.7,2.8-7.4,4.2-11-4.7-3.2-9.4-6.4-14.1-9.6,2.5,3.2,4.9,6.4,7.4,9.6h0Z"/>
  </g>
</svg>