<?xml version="1.0" encoding="UTF-8"?>
<svg id="Layer_1" data-name="Layer 1" xmlns="http://www.w3.org/2000/svg" version="1.1" viewBox="0 0 1080 1080">
  <defs>
    <style>
      .cls-1 {
        fill: #010101;
      }

      .cls-1, .cls-2, .cls-3 {
        stroke-width: 0px;
      }

      .cls-2 {
        fill: #ed2926;
      }

      .cls-3 {
        fill: #fff;
      }
    </style>
  </defs>
  <g>
    <path class="cls-2" d="M543.9,800.5c-7-.3-12.5-6.3-12.2-13.4.3-6.8,5.9-12.2,12.8-12.2h.6c7.1.3,12.5,6.4,12.2,13.4-.3,6.8-5.9,12.2-12.8,12.2h-.6Z"/>
    <path class="cls-2" d="M548.2,813.6c-2.7-.1-5.3-1.3-7.1-3.3-1.8-2-2.8-4.6-2.7-7.4.3-5.5,4.8-9.8,10.2-9.8h.5c2.7.1,5.3,1.3,7.1,3.4,1.8,2,2.8,4.6,2.7,7.4-.3,5.5-4.8,9.8-10.2,9.8s-.5,0-.5,0Z"/>
    <path class="cls-2" d="M563.3,817.9c-5.4-.2-9.5-4.8-9.3-10.2.2-5.2,4.5-9.3,9.7-9.3h.5c5.4.3,9.5,4.8,9.3,10.2-.2,5.2-4.5,9.3-9.7,9.3s-.5,0-.5,0Z"/>
    <path class="cls-1" d="M532.3,541c-3-3.6-12.4-13.4-19.4-16-.7-.3-14.3-5.8-20.1-18.4l-4.2-9.2h10.1c1.2.2,30.5,1,44.4,37.2l-10.8,6.4Z"/>
    <path class="cls-3" d="M537.2,536.9c-12.4-32.6-38.5-33-38.5-33,4.8,10.5,16.5,15.1,16.5,15.1,10.1,3.8,22,17.9,22,17.9Z"/>
    <path class="cls-1" d="M468.9,500.6c-3.4-.2-6.5-1.6-8.8-4.1-2.3-2.5-3.4-5.7-3.3-9.1.3-6.8,5.9-12,12.6-12h.6c3.4.2,6.5,1.6,8.8,4.1,2.3,2.5,3.4,5.7,3.3,9.1-.3,6.8-5.9,12-12.6,12h-.6Z"/>
    <path class="cls-3" d="M475.8,488.3c.2-3.5-2.5-6.4-6-6.6-3.5-.2-6.4,2.5-6.6,6-.2,3.5,2.5,6.4,6,6.6,3.5.2,6.4-2.5,6.6-6Z"/>
    <path class="cls-1" d="M607,495.8c-3.1-.1-6-1.5-8.1-3.8-2.1-2.3-3.2-5.3-3-8.4.3-6.3,5.4-11.1,11.7-11.1h.6c3.1.2,6,1.5,8.1,3.8,2.1,2.3,3.2,5.3,3,8.4-.3,6.2-5.4,11.1-11.7,11.1h-.6Z"/>
    <path class="cls-3" d="M602.3,483.9c-.1,2.9,2.1,5.4,5.1,5.6,2.9.1,5.4-2.1,5.6-5.1.1-2.9-2.1-5.4-5.1-5.6-2.9-.1-5.4,2.1-5.6,5.1Z"/>
    <path class="cls-3" d="M544.8,781.2c-3.6-.2-6.6,2.6-6.7,6.1-.2,3.6,2.6,6.6,6.1,6.7,3.6.2,6.6-2.6,6.7-6.1.2-3.6-2.6-6.6-6.1-6.7Z"/>
    <path class="cls-3" d="M544.7,803.2c-.1,2.1,1.6,4,3.7,4.1,2.1.1,4-1.6,4.1-3.7.1-2.1-1.6-4-3.7-4.1-2.1-.1-4,1.6-4.1,3.7Z"/>
    <path class="cls-3" d="M567.1,808.3c0-1.9-1.4-3.4-3.2-3.5-1.9,0-3.4,1.4-3.5,3.2,0,1.9,1.4,3.4,3.2,3.5,1.9,0,3.4-1.4,3.5-3.2Z"/>
    <path class="cls-1" d="M598.3,918.8c-2.9-.1-5.5-1.4-7.5-3.5-1.9-2.1-2.9-4.9-2.8-7.8.3-5.8,5-10.3,10.8-10.3h.5c2.9.1,5.5,1.4,7.5,3.5,1.9,2.1,2.9,4.9,2.8,7.8-.3,5.8-5,10.3-10.8,10.3h-.5Z"/>
    <circle class="cls-3" cx="598.8" cy="908" r="4.5"/>
    <path class="cls-1" d="M606.5,896.4c11.3-9.1,19.5-25.8,20.3-27.5,4.8-12,10.5-15.7,11.6-16.3l.3-.2h.3c2.4-1.2,4.8-1.7,7-1.7,4.6,0,7.9,2.3,9.5,4.5,5.1,6.5,2.4,13.9.2,17-21.4,29.8-30.2,33.1-40.2,34.6-1.2.2-2.3.3-3.3.6l-5.7-11.1Z"/>
    <path class="cls-3" d="M650.6,868.6s3.6-5-.1-9.5c0,0-2.3-3.7-8.9-.9,0,0-4.7,2.6-8.9,13.3,0,0-9,19.2-22.2,29.9,8.7-2.5,14.5,2.9,40.1-32.8Z"/>
    <path class="cls-2" d="M545,949.8c-7.7,0-15.4-.7-23-2.2-.6,0-17.4-3.1-26-17.5-5.4-9.1-6.4-20.3-2.8-33.3-13.7-13.1-65.3-68.6-24.9-125-2.9-6.9-7.1-22.1.5-42.7,1.5-4.1,3.3-11,3.6-16.9l-5.1,3.6c-.4.3-9.6,6.7-23.5,6.7s-23.5-4.5-34.5-13.5c-1-.8-22.1-19-23.5-49-.2-3.7-1.1-11.1-2.5-14.5l10.6-6.7c1.6,1.8,3.5,3.6,5.2,5.1.8-9.6,3.8-23.3,13-34.9l-12.9-.7c-1.4,0-35.4-2.2-56.6-29.2-15.1-19.2-19.6-45.6-13.4-78.6l12.4-.6c0,.3,8.2,27.3,28.3,50.5,2.9,3.5,8.5,8.2,11.5,8.2s2.7-2.7,3.2-4.1c1.2-4.2,8.1-26.8,21.5-36.7l-11.6-1.9c-1-.2-96-16.9-80-115.8l3.6-22.4,8.5,21.1c6.5,16,27.1,55.6,50.7,65,.6-12,4.2-32.9,21.9-40.1.6-.3,3.4-1.3,8.7-1.3s7.9.5,12.4,1.6l.9.2.8.5c.4.2,1,.5,1.5.6,2.3-6.9,10.1-18,26.2-18s3.2.1,4.8.3c-.7-4.7-1.2-10.7-.6-17.2-8.3,4.9-19.9,10-33.9,11.8,0,0-1.2.2-3.3.2-6.3,0-22.5-1.5-37.3-15.5-2.8-1.8-12.4-8.6-13.5-18.2,0,0-1.4-7.4-11.4-12.7l-.3-.2c-1.7-1-41-26.1-38.2-99.1v-.3s0-.3,0-.3c.3-2.8,8.6-69,46.5-103.5.8-.7,21.3-19.9,56.8-21.5l15.3-.7-10.3,11.3c-.2.2-17.6,19.9-30.8,64.1v.3c0,0-.2.3-.2.3,0,.2-8.9,23.2-4.5,53.9,1,2.7,3.6,7.3,6.2,7.3s4-1.4,6.6-3.7l.2-.2.2-.2c0,0,16.2-14.1,12.4-61.5l-1.1-13.1,11,7.3c1.6,1.1,39.6,27.1,38.6,82.9,0,1.4-.8,37-39.3,69.2-2.5,2-5.2,5.2-5.2,6.8,0,.4.6.9.9,1.1,0,0,2.7,2,7.7,2s18.5-3.6,34.5-20.5c1-1.8,4.8-9.7,3.6-22.1-.1-1.4-2.1-32,15.4-50.7,8.7-9.3,20.4-14,34.9-14s8.8.4,13.6,1.3l16.7,2.9-14.4,8.8c-1,.6-23,14.5-21.4,39.9,19.2-12.7,31.2-19.3,35.5-19.5h1.6c0,0,1.5.6,1.5.6.6.3,12.8,6,23.8,12.4,1.6-8,1.9-21.4-10-32.6l-16.5-15.5,22.1,4.6c.6.1,61.6,13.6,51.3,73.2v.3s-.1.3-.1.3c-.8,3.1-1.2,7.5-.7,9.5,1.5,1.8,4.3,5.7,6.3,11.5,2.3,2.8,12.2,13.9,28.7,18.6,0,0,1.9.5,4.2.5,5.5,0,7.2-2.5,8.1-4.7.4-1.1-.2-2.3-1.9-3.5l-.3-.2c-.8-.6-75.2-61.3-7-149.8l12.8-16.6-1.4,20.9c0,.3-1.9,32.2,13.6,51.8l.2.3c1.2,1.7,4,4.2,6,4.2s1,0,2.1-.9c9.3-12.7,13.9-55.1-33.9-127l-7.5-11.3,13.4,1.4c3.2.3,79.2,9.5,104,116,.5,1.7,11.8,46.6-19.8,97.2-1,1.8-7.6,12.8-22,21.1-.8.9-2.6,3.3-3.6,6.9v.3c0,0-.2.3-.2.3-.6,1.6-15.6,38.8-51.4,38.8s-24.2-4.2-37.3-12.4c0,3.9,0,8.2-.5,12.3.9,0,1.9-.1,2.9-.1,11.7,0,19.9,5.2,23,14.4,2.9-2.4,7.1-4.7,12.6-4.7s14,4.1,20.4,12.2c.5.6,11.2,14.3,10.5,33.1,10.9-10.8,30.9-34.8,22.1-59.1l-5.7-18.1,16.1,11.3c1.2,1.1,28.8,28.4,9.6,75.1l-.2.4c-.3.6-3,6-7.8,12.7l8.4,12.2c.3.4,28,42-26.9,85.5l-.3.3-.4.2c-5.1,3.1-19.7,12.3-25.2,17.7l-14.2,14.1c1.2,3.5,2.1,7.4,2.4,11.9.3-.7.7-1.5,1.1-2.3l6.9-15.5,4.9,16.2c.5,1.5,11,37.6-21,70.8-2,2.2-17.5,18.8-48.4,18.8s-10.1-.4-15.3-1.3l-16.3-2.7,13.8-9c.3-.2,34.1-22.3,47.5-44-5.1-2.9-14.7-10.8-21.3-30.8-2.9,2.3-8.5,5.2-18.8,5.2s-11.1-.7-17.6-2.2h-.5,0c0-.1-.8-.3-2.2-.3-3.7,0-10,1.3-17.4,8.3,3.4-.3,4.9-1,5.3-1.4l9.6,8.3s-6.1,9.3-6.6,28.2c.2,3.6.5,30.7-25.5,41.7l-.5.2c-1.7.6-3.8,1.4-5.9,2.4,3.1,1.7,5.9,4.1,7.5,7.7l3.8,8.5-7.9.3c-1.4.8-7.9,5.2-17.1,23.4-1,2.2-5.8,12.5-14.4,18.4,4.9,7.7,6,19.3,3.2,34.5v.4c0,0-.2.4-.2.4,0,0-2.9,10.5.3,29.5,1.5,5.8,4.1,16.9,3.9,26,7.7.9,17.1,5.2,28.1,12.7,1.6.8,10,4.5,20.3,4.5,16.6,0,29.7-9.5,38.7-28.3,1.1-3.1,8.1-21.1,22.2-25.5-2.3-8.4-4.9-22.3-2.3-35.9-.7,0-1.4,0-2.2,0-13.8,0-24.9-7.3-31.4-20.6-.3-.6-6.2-12.9-19.3-12.9s-18.9,5.1-30.4,15.3l-9.8,8.6-.8-13c-.1-1.8-1.8-44.5,73.8-56.5.6,0,3.1-.3,7.2-.3,13.7,0,39,2.9,55.2,22.4,4.8,4.9,11.3,16.2,6.1,28.5,7.6,8.4,23.2,31,14.9,67.5v.4c-.3.7-5,16.3-19.5,20.6h-.3c0,.1-.4.2-.4.2,0,0-6,1.6-9.1,12.3v.3c-.7,1.6-14.1,38.8-63.8,61.8-3.6,2.3-28,16.7-62.4,16.7ZM455.6,634.3c-.3,0-.8.6-1.3,2-.2.7-5.9,19.6-20.1,29-1.5,1-6.1,5-2,13.2l.2.4c.3.8,8.8,20.3,32.5,25.4l7,1.5c0-.2,0-.3-.1-.4l-6.5-21.2,16.8,14.6c1.7,1.5,3.5,3,5.4,4.5-1.9-8.7-2.5-20,1-33.2,1.3-4.9,3.7-19-.5-26.2l-6.5-11c-5.5,1.5-11.6,2.7-17.2,2.7s-4.1-.2-5.9-.5l-.9-.2-.8-.4s-.6-.2-1.1-.2ZM494.8,634.5c2.1.5,4.6,1,7.1,1.5-2.5-4-5-7-6.6-7.7-1.8.7-6,2.3-11.1,3.9l10.6,2.3ZM645.6,593.5c5.9,0,12.2,2.7,18.7,8.1.3.3,7.6,6,11.7,16.9l3.7-18.9c.7-3.5,1.3-7.1,1.7-10.3-1.3.3-2.7.5-4.3.5-3.9,0-8-1.3-12.3-3.8l-.3-.2c-.6-.4-13.7-9.4-20.9-35.1-2.2,1.9-12.9,10.2-29.3,11.8h-.3s-.3,0-.3,0c-.4,0-11.8.4-13.8,9.4v.4c-.3.6-3.5,11-10.4,20.7,2.7-.5,5.3-1.4,7.8-2.6.9-.4,8.2-3.7,17.1-3.7s16.1,3.4,21.2,9.7c2.6-1.7,5.9-2.9,9.9-2.9ZM401.7,594c.7,1.3,1.6,2.6,2.6,3.8l8.8,10c2.8-4,9.9-10,20.6-10s4.1.2,6.3.6l.8.2.7.3c.8.4,3.3,1.3,5.4,1.3s1.3-.2,1.5-.4c1.4-3.1,9-17.6,30.3-17.6s1.6,0,2.5,0c.4,0,8.1.4,16,4.1-2.7-2.1-5.6-4.8-7.6-8.1-.2-.3-3.4-5.6-11.3-6.2h-.2c-4.1,0-23.8-.9-38.6-17.7-.3.6-.6,1.3-.9,2.1-1,2.7-9.7,24.9-20.3,32.1-1.4,1-7.7,5.4-15.9,5.4s-.4,0-.6,0ZM671.6,517.8c1.8,1.3,10.9,8.5,18.7,28.5.9,2.5,2.7,4.9,3.5,5.1,5.3-2.9,35.5-20.4,37.9-46.7l1.2-12.6c-9.1,11.8-24.1,26.1-43.6,26.3h-10.1c0,0,4.3-9.1,4.3-9.1.7-1.5,1.3-3.2,1.7-4.7,0,0-.2,0-.3.1-1.2.7-4.3,2-8.5,2-6.1,0-14.8-2.9-21.7-16.5-.2-.4-5.3-10.6-7.5-25.8-4.8,4.4-14.7,10.9-32,12.1-.3,0-3.1.2-7.3,1.5l-2.5,12.1c0,.1-2.1,10.4-2.5,16.3,0,.4-.2,7-3.5,14.3,6.9-6.6,16.6-13.1,29.2-14.7h.3s.3,0,.3,0c1.5,0,11.7.3,19.2,9.5,2.5-1.5,5.7-2.7,9.6-2.7s9.1,1.7,13.5,5ZM495.9,534c.3.3.9.8,2.3,1h.4s.4.1.4.1c.8.2,4.8,1.2,9.4,2.7-1.6-1.5-3.7-3-6.6-4.2-.7-.3-20.6-8.2-21.9-30.8-.6-4.1-2.4-8.8-3.7-9.7l4.9-11.4c1.2.2,3.1.5,5.4.9-6-4.8-14.9-9.5-27.2-10.5-1-.1-18.7-2.4-30.7-14.5-.1,0-.3-.2-.4-.3,0,.1,0,.3,0,.4-2.1,16.9-5.9,38.2-12.2,43.5-.3.3-5.2,4.6-12.1,4.6s-2.1,0-3.3-.3c.2.3.3.5.5.8l6.9,10.5c3.4-2.1,7.1-3.4,11.2-3.5.3,0,.6,0,1.2,0,2.8,0,12.3.7,18.3,9.2,3.3-3.5,10.2-8.8,21.3-8.8s11.2,1.3,17.2,3.8c1.7.7,8.1,3.8,17.9,15.4l.8,1v.3Z"/>
    <path class="cls-3" d="M695.8,557.5c-7.7,2.1-11.5-8.9-11.5-8.9-7.7-19.8-16.5-25.7-16.5-25.7-12.8-9.8-20.8,2.3-20.8,2.3-5.8-13.1-17.7-12.9-17.7-12.9-24.1,3-36.8,27.5-36.8,27.5-10.6,7.1-26.8,6.2-26.8,6.2,1.3-10.2,12-13.6,12-13.6,18.3-6,18.8-26.4,18.8-26.4.4-6.4,2.6-17.2,2.6-17.2-7,5.4-16.3,5.6-16.3,5.6-8.9.5-13.1,3.4-13.1,3.4,20.7-26.4,44.9-27.6,44.9-27.6,23.2-1.6,30.8-13.4,30.8-13.4,6.2-9.6,7.4,2.1,7.4,2.1,1.5,16.9,7.4,28.4,7.4,28.4,9.5,19,21.7,11.6,21.7,11.6,16.8-7.3,7.1,13,7.1,13,29-.2,47.8-38.1,47.8-38.1,17.8-43.3-8.1-68.1-8.1-68.1,13.4,37.4-30.6,72.1-30.6,72.1-5.1-3.9-3.9-9.5-3.9-9.5,1.3-17.4-9.1-30.5-9.1-30.5-15.9-20-27.2-3-27.2-3-2.8,3.2-5.7.6-5.7.6-.4-24-28.7-15.5-28.7-15.5,2.9-11.4,1.3-32.6,1.3-32.6,63.7,49.8,89.5-16.1,89.5-16.1,1.9-6.6,5.7-10.2,5.7-10.2,14.5-8.1,20.5-19.2,20.5-19.2,30.6-48.9,19.1-92.6,19.1-92.6-24.1-103.3-98.5-111.1-98.5-111.1,64.4,97,33.2,135,33.2,135-9.3,8.2-17.9-4-17.9-4-17.3-21.8-15-56.1-15-56.1-65.1,84.5,6,140.9,6,140.9,6.8,4.8,4.1,11.1,4.1,11.1-5,12.3-19.9,7.9-19.9,7.9-21.5-6-32.6-21.7-32.6-21.7-2.3-7.4-6.2-11.2-6.2-11.2-2.4-5,.1-14.5.1-14.5,9.4-54.2-46.3-65.9-46.3-65.9,21.6,20.4,9.3,47,9.3,47-11.7-7.8-30.1-16.3-30.1-16.3-5.7.3-40.5,23.9-40.5,23.9-9.8-36.2,22.7-56,22.7-56-61.3-10.7-56.4,56.6-56.4,56.6,1.6,16.6-4.8,26.5-4.8,26.5-32.8,35.1-51.3,19.7-51.3,19.7-9.3-7.4,4.2-17.7,4.2-17.7,36.8-30.7,37-64.5,37-64.5.9-52.9-35.8-77.5-35.8-77.5,4.3,52.4-14.8,67.1-14.8,67.1-16.6,15.3-23.3-6.8-23.3-6.8-4.9-33.2,4.8-57.7,4.8-57.7,13.9-46.3,32.2-66.5,32.2-66.5-33.6,1.5-52.9,19.8-52.9,19.8-36.6,33.3-44.5,99.6-44.5,99.6-2.6,70.2,35.2,93.5,35.2,93.5,13.3,7.1,14.7,17.6,14.7,17.6.9,7.7,11.1,13.8,11.1,13.8,17,16.4,35.9,14.1,35.9,14.1,27.2-3.6,44.7-20.5,44.7-20.5-8.1,20.5-.8,40.7-.8,40.7-28.3-9.7-33.7,12-33.7,12-2.3,6.8-10.5,2-10.5,2-12.1-2.9-17.3-.6-17.3-.6-20.8,8.5-17.9,42.4-17.9,42.4-36.1-4.2-63-70.8-63-70.8-15.2,93.7,74.7,108.5,74.7,108.5-6.8-10.3-1.7-15.9-1.7-15.9,8.6,10.9,17.8,2.4,17.8,2.4,5.7-4.8,10-39.5,10-39.5,1.5-11.5,11-4.2,11-4.2,10.5,11,27,13,27,13,29.9,2.4,42.1,24.6,42.1,24.6-6.5.4-21.8-2.4-21.8-2.4,4.8,3.5,6.2,14.2,6.2,14.2.9,19,18,25.6,18,25.6,16.5,7,14.6,21.4,14.6,21.4-6.4-4.2-21.5-7.8-21.5-7.8-5.5-.7-7.2-4.5-7.2-4.5-9.8-11.5-15.5-13.6-15.5-13.6-23.6-10-33.1,5.5-33.1,5.5-4,5.7-7.9-2.3-7.9-2.3-5.1-7.8-14.3-6.9-14.3-6.9-18.5,0-28.6,36.9-28.6,36.9-7.5,20.2-25.6-1.9-25.6-1.9-21.3-24.7-29.6-52.9-29.6-52.9-18,95.8,64,100.3,64,100.3-6.6-7.5-7.3-18.1-7.3-18.1,10.6,8.6,22.3-.5,22.3-.5,9.3-6.2,18-29,18-29,2.9-8.3,7.8-9.2,7.8-9.2,14.4,21.5,38.1,20.6,38.1,20.6,11.9.8,16.6,9.3,16.6,9.3,3.9,6.5,12.8,10.3,12.8,10.3,10,5.5,10.2,18.8,10.2,18.8-9.6-.7-15.6-6.3-15.6-6.3-7.7-8.7-21.5-9.2-21.5-9.2-20.9-1.1-26.7,14-26.7,14-3.8,7.4-15.3,2-15.3,2-14.5-2.8-20.7,7.1-20.7,7.1-15.5,18.2-12.7,43.5-12.7,43.5-6-1-16.2-12.2-16.2-12.2,2.3,5.7,3,16.6,3,16.6,1.3,27.5,21.2,44.4,21.2,44.4,27.6,22.5,50.3,6.6,50.3,6.6-27.5-5.9-37.1-29.2-37.1-29.2-7.1-14.2,4.2-21.3,4.2-21.3,12.4-8.2,17.5-25.6,17.5-25.6,3.1-9.8,11.3-5.6,11.3-5.6,12.5,2.4,34.2-6.8,34.2-6.8,9.1-2.7,19.5,22,19.5,22-4.7,0-19.8-3.3-19.8-3.3,6.6,11.1,1.2,31.1,1.2,31.1-7.6,28.3,5.9,47.1,5.9,47.1-7-1.6-22.7-15.3-22.7-15.3,3.2,10.4-3.1,27.7-3.1,27.7-9.3,25.3,1,41.1,1,41.1-47.8,61.2,24.7,122.3,24.7,122.3-13.4,40.4,22.8,46.6,22.8,46.6,46.4,8.9,81.1-13.8,81.1-13.8,48.2-22.1,60.8-58.3,60.8-58.3,4.3-15.1,14.1-16.8,14.1-16.8,11.3-3.3,15.1-16.3,15.1-16.3,9.8-43.1-16.6-65-16.6-65,9.1-13.6-2.9-25.3-2.9-25.3-19.9-24.2-56.7-20.1-56.7-20.1-70.8,11.2-68.5,49.8-68.5,49.8,42.7-37.7,59.6-.4,59.6-.4,12.1,25,37.1,15.1,37.1,15.1-9.7,21.3,1.5,49.7,1.5,49.7-16.6-2.2-24.8,22.3-24.8,22.3-23.9,50-68.1,26.8-68.1,26.8-24.6-16.9-32.7-11-32.7-11,4.2-7.3-2.4-31.8-2.4-31.8-3.6-21.2-.2-32.7-.2-32.7,5.9-33.2-9.3-35.5-9.3-35.5,13-.6,21-19.1,21-19.1,12.7-25,21.2-26.9,21.2-26.9-3.3-7.5-16.6-7.5-16.6-7.5,4.7-6.5,18.9-11.2,18.9-11.2,23.4-9.9,21.6-35.7,21.6-35.7.6-21.6,7.8-32,7.8-32-5.4,5.1-22.8,2.8-22.8,2.8,17.1-25.5,34.5-20.3,34.5-20.3,26.5,5.8,32.2-2.9,32.2-2.9,6.6-7.2,8.2,1.9,8.2,1.9,8,26.3,21.1,30.4,21.1,30.4,3.6,1.4,1,6.6,1,6.6-13.8,23.7-50.2,47.3-50.2,47.3,39.7,6.5,58-15.5,58-15.5,29.9-31,19.6-64.7,19.6-64.7-10.3,23-13.6,9.2-13.6,9.2,3.4-22.7-11.8-34.3-11.8-34.3-18.1-15.1-25.8.3-25.8.3-9-22.4-34.3-10.6-34.3-10.6-13.5,6.5-25.5,3-25.5,3,13.2-8.8,19.1-28.6,19.1-28.6,3.2-14.1,19.9-14.3,19.9-14.3,16.2-1.5,26-10.5,26-10.5,5.9-8.9,9.5,1.7,9.5,1.7,6.6,25,18.8,33.1,18.8,33.1,14.7,8.6,19.5-4.7,19.5-4.7,2.5,4.3-1.6,25-1.6,25,7.2-7.2,26.4-18.6,26.4-18.6,50.9-40.3,25.6-76.9,25.6-76.9-3,32.7-42.2,52.2-42.2,52.2Z"/>
  </g>
  <g>
    <path class="cls-2" d="M385,164.5s-26.5,20.1-36.6,60.3c0,0-10.5,36.6-1,73.2,0,0,9.8,27.4,37.5,34.9,0,0,20.8,6.9,42.4-23.4,0,0,19.5-26,12.1-60.9,0,0,.6,35.8-35.8,48.4,0,0-29.7,5.4-38.4-29.7,0,0-12.1-59.6,19.8-102.8Z"/>
    <path class="cls-2" d="M554,532s9.9-25.1,29.7-26.3c0,0-.5,8.7-9.2,12.1,0,0-10.5,4.3-20.6,14.2Z"/>
    <path class="cls-2" d="M498.7,503.9s26.1.4,38.5,33c0,0-11.9-14.1-22-17.9,0,0-11.7-4.6-16.5-15.1Z"/>
    <circle class="cls-2" cx="469.5" cy="488" r="6.3"/>
    <circle class="cls-2" cx="607.6" cy="484.1" r="5.3"/>
    <circle class="cls-1" cx="548.3" cy="311.9" r="2.8"/>
    <circle class="cls-1" cx="593.9" cy="361.4" r="3.4"/>
    <circle class="cls-1" cx="603.3" cy="371.1" r="2.2"/>
    <circle class="cls-1" cx="499.5" cy="357" r="3.9"/>
    <circle class="cls-1" cx="488.2" cy="364.2" r="3"/>
    <circle class="cls-1" cx="544.5" cy="787.7" r="6.4"/>
    <circle class="cls-1" cx="548.6" cy="803.4" r="3.9"/>
    <circle class="cls-1" cx="563.7" cy="808.2" r="3.4"/>
    <ellipse class="cls-2" cx="427.9" cy="634.4" rx="15" ry="6.3" transform="translate(-337.1 652) rotate(-57.3)"/>
    <ellipse class="cls-2" cx="412.3" cy="554.9" rx="14.2" ry="6.6" transform="translate(-261.5 709.5) rotate(-66.3)"/>
    <path class="cls-2" d="M408.5,443.1s-7.2-1.9-10.6,12.8c0,0-4.1,17.4,2.2,20.3,0,0,5.8,2,6.5-6.5,0,0,0-10.4,3.5-16.7,0,0,5.3-7.2-1.7-9.9Z"/>
    <path class="cls-2" d="M471.2,451.6s-8.7-17.8-16.6-20.1c0,0-8.2-3.5-11.2,3.4,0,0-4,8.9,12,11.8,0,0,10,1.5,15.8,4.9Z"/>
    <path class="cls-2" d="M484.7,553.5s-5.1-14.8-20.4-19.1c0,0-6.4-1.9-8.4,5,0,0-2.4,7.7,9.2,11.6,0,0,11.5,4.2,19.6,2.6Z"/>
    <path class="cls-2" d="M492.8,611.4s-5-11.3-19.3-9.3c0,0-6.8,1.5-4,8.8,0,0,1.9,3,9.9,1.4,0,0,7.9-1.6,13.4-.9Z"/>
    <ellipse class="cls-2" cx="668.9" cy="551.6" rx="4.2" ry="17.2" transform="translate(-169.2 329.5) rotate(-24.7)"/>
    <path class="cls-2" d="M604.1,546.1s6.5-16.6,19.9-19c0,0,8.7-2.3,8,5.3,0,0-.5,9.9-10.7,10.7,0,0-10.7.2-17.3,3Z"/>
    <path class="cls-2" d="M596.6,618.4s4.2-10.4,17-11.6c0,0,7.2,0,6.9,5.4,0,0-.2,5-5.4,6.2,0,0-5.8,1.7-11,.3,0,0-5-1.1-7.5-.4Z"/>
    <path class="cls-2" d="M655.4,617.4s-2.6-3.8-6.8-2.6c0,0-4.5,1.3-1.2,9.8,0,0,5.7,15.2,8.5,16.9,0,0,5.5,3.7,5.4-8.4,0,0-.6-8.5-5.9-15.8Z"/>
    <path class="cls-2" d="M533.5,681.8s-4.6-18.7-21.9-21.8c0,0,4.1,9.8-.6,21.6,0,0-4.7,10.6,1,22.3,0,0,3.3,5.3,3.2,7.8,0,0,6.4-8.3,20.4-11.2,0,0,29.6-4.2,26.7-33.9,0,0-14.1.8-24.2,11.7,0,0-1.4,2.7-4.7,3.5Z"/>
    <path class="cls-2" d="M588.5,746.5s17.9-12,50.6-.9c0,0,14.5,5.6,12.9,18.4,0,0-2.1,9.7-14.2,7.8,0,0-9.4,1-17.8-11.8,0,0-9.4-16.6-31.6-13.4Z"/>
    <path class="cls-2" d="M535.8,629s-5.8-9.4-21.1-11.5c0,0-1.4,9.4,12.9,18.3,0,0,9.1,4.4,9.8,12,0,0,2.7-8.5,13.6-14.4,0,0,15.7-5.7,20.7-20.6,0,0-17.3-1.7-29.2,16.9,0,0-3.1,3.3-3.3,4.2,0,0-2.8-4.5-3.4-4.8Z"/>
    <path class="cls-2" d="M504.9,752s-4.8-17.8-16.2-23.9c0,0,.2,5.5-1,11.5,0,0-4.2,16.4,3.6,22.3,0,0,12.3,7.7,20.9-2,0,0,11.8-15.7,17.3-19.1,0,0-14.7-1.8-24.6,11.1Z"/>
    <path class="cls-2" d="M538.5,599.4s-4.3-11.7-13.1-16.4c0,0-18.4-4.6-19.2-25.9,0,0,24.9,3.1,33.2,35.6,0,0,12.1-25.9,26.8-31.8,0,0,11.5-2.9,14.1-4.7,0,0,3.8,17.6-23.1,30.1,0,0-14.4,6.4-18.7,13Z"/>
    <ellipse class="cls-2" cx="675.4" cy="462.1" rx="6.7" ry="19.6" transform="translate(-73.8 132.9) rotate(-10.7)"/>
    <path class="cls-2" d="M623.2,456.4s8.7-1.2,14.3-11.3c0,0,2.6-5.2-.2-9.6,0,0-1.9-2.4-5.9-1.3,0,0-5.1,1.3-5.2,6.4,0,0-.3,7-3,11.4,0,0-4.9,6.2,0,4.4Z"/>
    <path class="cls-1" d="M508.3,337.4s-1.4,6.4-4.7,13.2c0,0,10.6-4.9,13.5-4.6,0,0,17.2-4.2,19.4-20.6,0,0,.9-7.5,2-10.5,0,0-23.7,4.3-30.2,22.5ZM511.8,341.7c.8-17.3,21.6-19.9,21.6-19.9-.2,18.7-21.6,19.9-21.6,19.9Z"/>
    <path class="cls-1" d="M587.9,343.5c.5-5.9-1.8-10-1.8-10-9.3-13.7-29.2-16.1-29.2-16.1,1.6,1.1,3.3,7.3,3.3,7.3,3.2,20.6,14,21.3,14,21.3,4.6,1.5,7.5,4.5,7.5,4.5,3.3,3.2,7.5,4.3,7.5,4.3-1.8-4.5-1.4-11.3-1.4-11.3ZM582.8,344.4s-13.5,5.5-19.6-21.2c1.5-.5,23.7,6.3,19.6,21.2Z"/>
    <ellipse class="cls-2" cx="670.8" cy="811.9" rx="13.5" ry="22.5" transform="translate(-151.5 153.9) rotate(-11.8)"/>
    <circle class="cls-1" cx="598.8" cy="908" r="4.5"/>
    <path class="cls-2" d="M610.5,901.4c8.7-2.5,14.5,2.9,40.1-32.8,0,0,3.6-5-.1-9.5,0,0-2.3-3.7-8.9-.9,0,0-4.7,2.6-8.9,13.3,0,0-9,19.2-22.2,29.9Z"/>
    <path class="cls-2" d="M585.9,912.9s-21.6,5.4-47.4-9.6c0,0-9.2-6.5-18-1.7,0,0-6.4,3.3-6.3,14.6,0,0-.8,7,16.6,10.2,0,0,26.6,6.6,55.1-13.5Z"/>
    <path class="cls-2" d="M501.2,875.4s-12.3,1.7-20.9-31c0,0-7.9-27.6-.7-44.3,0,0,3.1-7.5,12.4-3.3,0,0,12,3.7,11.5,29.8,0,0-1.5,17.1,1.1,29.6,0,0,6.7,17.6-3.4,19.1Z"/>
    <path class="cls-2" d="M580.9,365.5c-29.7-18.5-32.4-44.1-32.4-44.1-2.7,39.1-46.3,47.3-46.3,47.3-21.5,2.8-20,17.7-20,17.7-2.2,15.4,3.4,33.2,3.4,33.2,12.5,38.3,41.5,69.7,41.5,69.7,10.8,10,16.1,20.5,16.1,20.5,2.7-14,32.3-39.3,32.3-39.3,28.1-27.4,30.6-69,30.6-69,.2-20.8-25.2-36-25.2-36ZM563,472.3s-17.1,13.7-19.7,23.4c0,0-40.6-34.4-50.5-78.6,0,0-8.1-32.6,10.8-41.1,0,0,5.1-2.9,12.9-5.2,0,0,24.3-6.7,33.1-27.3,0,0,5,13,21,24.7,0,0,28.4,17.3,25.3,48.8,0,0-1.8,29.6-33,55.3Z"/>
    <path class="cls-1" d="M549.5,363.2s-46.1,26.8-40.4,55.5c0,0,9,32.4,33.1,60.9,0,0,12.6-17.6,21.9-25.5,0,0,17.4-14.5,18.4-38.7,0,0,6.5-13.7-33-52.2Z"/>
    <path class="cls-1" d="M695.8,557.5c-7.7,2.1-11.5-8.9-11.5-8.9-7.7-19.8-16.5-25.7-16.5-25.7-12.8-9.8-20.8,2.3-20.8,2.3-5.8-13.1-17.7-12.9-17.7-12.9-24.1,3-36.8,27.5-36.8,27.5-10.6,7.1-26.8,6.2-26.8,6.2,1.3-10.2,12-13.6,12-13.6,18.3-6,18.8-26.4,18.8-26.4.4-6.4,2.6-17.2,2.6-17.2-7,5.4-16.3,5.6-16.3,5.6-8.9.5-13.1,3.4-13.1,3.4,20.7-26.4,44.9-27.6,44.9-27.6,23.2-1.6,30.8-13.4,30.8-13.4,6.2-9.6,7.4,2.1,7.4,2.1,1.5,16.9,7.4,28.4,7.4,28.4,9.5,19,21.7,11.6,21.7,11.6,16.8-7.3,7.1,13,7.1,13,29-.2,47.8-38.1,47.8-38.1,17.8-43.3-8.1-68.1-8.1-68.1,13.4,37.4-30.6,72.1-30.6,72.1-5.1-3.9-3.9-9.5-3.9-9.5,1.3-17.4-9.1-30.5-9.1-30.5-15.9-20-27.2-3-27.2-3-2.8,3.2-5.7.6-5.7.6-.4-24-28.7-15.5-28.7-15.5,2.9-11.4,1.3-32.6,1.3-32.6,63.7,49.8,89.5-16.1,89.5-16.1,1.9-6.6,5.7-10.2,5.7-10.2,14.5-8.1,20.5-19.2,20.5-19.2,30.6-48.9,19.1-92.6,19.1-92.6-24.1-103.3-98.5-111.1-98.5-111.1,64.4,97,33.2,135,33.2,135-9.3,8.2-17.9-4-17.9-4-17.3-21.8-15-56.1-15-56.1-65.1,84.5,6,140.9,6,140.9,6.8,4.8,4.1,11.1,4.1,11.1-5,12.3-19.9,7.9-19.9,7.9-21.5-6-32.6-21.7-32.6-21.7-2.3-7.4-6.2-11.2-6.2-11.2-2.4-5,.1-14.5.1-14.5,9.4-54.2-46.3-65.9-46.3-65.9,21.6,20.4,9.3,47,9.3,47-11.7-7.8-30.1-16.3-30.1-16.3-5.7.3-40.5,23.9-40.5,23.9-9.8-36.2,22.7-56,22.7-56-61.3-10.7-56.4,56.6-56.4,56.6,1.6,16.6-4.8,26.5-4.8,26.5-32.8,35.1-51.3,19.7-51.3,19.7-9.3-7.4,4.2-17.7,4.2-17.7,36.8-30.7,37-64.5,37-64.5.9-52.9-35.8-77.5-35.8-77.5,4.3,52.4-14.8,67.1-14.8,67.1-16.6,15.3-23.3-6.8-23.3-6.8-4.9-33.2,4.8-57.7,4.8-57.7,13.9-46.3,32.2-66.5,32.2-66.5-33.6,1.5-52.9,19.8-52.9,19.8-36.6,33.3-44.5,99.6-44.5,99.6-2.6,70.2,35.2,93.5,35.2,93.5,13.3,7.1,14.7,17.6,14.7,17.6.9,7.7,11.1,13.8,11.1,13.8,17,16.4,35.9,14.1,35.9,14.1,27.2-3.6,44.7-20.5,44.7-20.5-8.1,20.5-.8,40.7-.8,40.7-28.3-9.7-33.7,12-33.7,12-2.3,6.8-10.5,2-10.5,2-12.1-2.9-17.3-.6-17.3-.6-20.8,8.5-17.9,42.4-17.9,42.4-36.1-4.2-63-70.8-63-70.8-15.2,93.7,74.7,108.5,74.7,108.5-6.8-10.3-1.7-15.9-1.7-15.9,8.6,10.9,17.8,2.4,17.8,2.4,5.7-4.8,10-39.5,10-39.5,1.5-11.5,11-4.2,11-4.2,10.5,11,27,13,27,13,29.9,2.4,42.1,24.6,42.1,24.6-6.5.4-21.8-2.4-21.8-2.4,4.8,3.5,6.2,14.2,6.2,14.2.9,19,18,25.6,18,25.6,16.5,7,14.6,21.4,14.6,21.4-6.4-4.2-21.5-7.8-21.5-7.8-5.5-.7-7.2-4.5-7.2-4.5-9.8-11.5-15.5-13.6-15.5-13.6-23.6-10-33.1,5.5-33.1,5.5-4,5.7-7.9-2.3-7.9-2.3-5.1-7.8-14.3-6.9-14.3-6.9-18.5,0-28.6,36.9-28.6,36.9-7.5,20.2-25.6-1.9-25.6-1.9-21.3-24.7-29.6-52.9-29.6-52.9-18,95.8,64,100.3,64,100.3-6.6-7.5-7.3-18.1-7.3-18.1,10.6,8.6,22.3-.5,22.3-.5,9.3-6.2,18-29,18-29,2.9-8.3,7.8-9.2,7.8-9.2,14.4,21.5,38.1,20.6,38.1,20.6,11.9.8,16.6,9.3,16.6,9.3,3.9,6.5,12.8,10.3,12.8,10.3,10,5.5,10.2,18.8,10.2,18.8-9.6-.7-15.6-6.3-15.6-6.3-7.7-8.7-21.5-9.2-21.5-9.2-20.9-1.1-26.7,14-26.7,14-3.8,7.4-15.3,2-15.3,2-14.5-2.8-20.7,7.1-20.7,7.1-15.5,18.2-12.7,43.5-12.7,43.5-6-1-16.2-12.2-16.2-12.2,2.3,5.7,3,16.6,3,16.6,1.3,27.5,21.2,44.4,21.2,44.4,27.6,22.5,50.3,6.6,50.3,6.6-27.5-5.9-37.1-29.2-37.1-29.2-7.1-14.2,4.2-21.3,4.2-21.3,12.4-8.2,17.5-25.6,17.5-25.6,3.1-9.8,11.3-5.6,11.3-5.6,12.5,2.4,34.2-6.8,34.2-6.8,9.1-2.7,19.5,22,19.5,22-4.7,0-19.8-3.3-19.8-3.3,6.6,11.1,1.2,31.1,1.2,31.1-7.6,28.3,5.9,47.1,5.9,47.1-7-1.6-22.7-15.3-22.7-15.3,3.2,10.4-3.1,27.7-3.1,27.7-9.3,25.3,1,41.1,1,41.1-47.8,61.2,24.7,122.3,24.7,122.3-13.4,40.4,22.8,46.6,22.8,46.6,46.4,8.9,81.1-13.8,81.1-13.8,48.2-22.1,60.8-58.3,60.8-58.3,4.3-15.1,14.1-16.8,14.1-16.8,11.3-3.3,15.1-16.3,15.1-16.3,9.8-43.1-16.6-65-16.6-65,9.1-13.6-2.9-25.3-2.9-25.3-19.9-24.2-56.7-20.1-56.7-20.1-70.8,11.2-68.5,49.8-68.5,49.8,42.7-37.7,59.6-.4,59.6-.4,12.1,25,37.1,15.1,37.1,15.1-9.7,21.3,1.5,49.7,1.5,49.7-16.6-2.2-24.8,22.3-24.8,22.3-23.9,50-68.1,26.8-68.1,26.8-24.6-16.9-32.7-11-32.7-11,4.2-7.3-2.4-31.8-2.4-31.8-3.6-21.2-.2-32.7-.2-32.7,5.9-33.2-9.3-35.5-9.3-35.5,13-.6,21-19.1,21-19.1,12.7-25,21.2-26.9,21.2-26.9-3.3-7.5-16.6-7.5-16.6-7.5,4.7-6.5,18.9-11.2,18.9-11.2,23.4-9.9,21.6-35.7,21.6-35.7.6-21.6,7.8-32,7.8-32-5.4,5.1-22.8,2.8-22.8,2.8,17.1-25.5,34.5-20.3,34.5-20.3,26.5,5.8,32.2-2.9,32.2-2.9,6.6-7.2,8.2,1.9,8.2,1.9,8,26.3,21.1,30.4,21.1,30.4,3.6,1.4,1,6.6,1,6.6-13.8,23.7-50.2,47.3-50.2,47.3,39.7,6.5,58-15.5,58-15.5,29.9-31,19.6-64.7,19.6-64.7-10.3,23-13.6,9.2-13.6,9.2,3.4-22.7-11.8-34.3-11.8-34.3-18.1-15.1-25.8.3-25.8.3-9-22.4-34.3-10.6-34.3-10.6-13.5,6.5-25.5,3-25.5,3,13.2-8.8,19.1-28.6,19.1-28.6,3.2-14.1,19.9-14.3,19.9-14.3,16.2-1.5,26-10.5,26-10.5,5.9-8.9,9.5,1.7,9.5,1.7,6.6,25,18.8,33.1,18.8,33.1,14.7,8.6,19.5-4.7,19.5-4.7,2.5,4.3-1.6,25-1.6,25,7.2-7.2,26.4-18.6,26.4-18.6,50.9-40.3,25.6-76.9,25.6-76.9-3,32.7-42.2,52.2-42.2,52.2ZM702.9,484.2s25.7-22,33.5-52.3c0,0,15.7,41.8-39.2,74.9,0,0-5.3-11.7,5.7-22.6ZM667.1,434.7c15.5-2.8,21.3,21.1,21.3,21.1,6.5,31.4-7.6,37.1-7.6,37.1-12.5,6.2-22.1-32.7-22.1-32.7-6-20.5,8.3-25.5,8.3-25.5ZM323.6,419.9s21,41.8,48.1,54.4c0,0,15.4,5,15.4,15.7,0,0-.2,12.1,1.2,15.2,0,0-63.2-29.6-64.6-85.3ZM419,450.8c-4.3,9.8-7.4,26.1-7.4,26.1-4.8,15.7-13.2,11.8-13.2,11.8-8.7-1.3-7.2-26.9-7.2-26.9,0-31.8,21.6-26.4,21.6-26.4,13.5,2.3,6.2,15.5,6.2,15.5ZM388.3,593.5c-57.9-11.9-52-75.3-52-75.3,27.5,61.8,46,57.1,46,57.1,7.3,2.3,6,18.2,6,18.2ZM422.8,561.3c-7.2,14.3-18.4,23.2-24.9,19.9-6.5-3.3-5.9-17.6,1.3-31.9,7.2-14.3,18.4-23.2,24.9-19.9,6.5,3.3,5.9,17.6-1.3,31.9ZM491.2,561.9c-4.5-1.7-16.9-3.6-16.9-3.6-20-1.7-26.2-11.5-26.2-11.5-7-10,.8-16.7.8-16.7,13.2-8.8,25.6,1.2,25.6,1.2,21.1,14,16.6,30.6,16.6,30.6ZM446.5,709.5c-48.2,3.8-48.3-51.9-48.3-51.9,15.6,4.5,17.8,12.4,17.8,12.4,3.5,26.3,30.5,39.6,30.5,39.6ZM440.1,641.3c-7.3,11.4-18.5,17.3-25,13.2-6.5-4.2-5.8-16.8,1.5-28.2,7.3-11.4,18.5-17.3,25-13.2,6.5,4.2,5.8,16.8-1.5,28.2ZM500.3,618.5s-8.6-3.4-22.2,0c0,0-13.3,4.8-18.6.9,0,0-6.3-5.7-.3-15.2,0,0,5.5-13.4,24.3-9.8,0,0,15.1,3,16.6,14.3,0,0,.9,4.8.2,9.8ZM683.8,644.8c-4.6,62.4-60.8,63.7-60.8,63.7,4.1-2.6,12.7-11,12.7-11,27.2-20.5,28.4-35.5,28.4-35.5,1.1-9.3,19.7-17.1,19.7-17.1ZM642.2,607.3c7.1-6,14.8,3.4,14.8,3.4,12.9,15.1,8.8,30,8.8,30-3,14.9-11.2,9.6-11.2,9.6-5.3-1.5-13.3-23.1-13.3-23.1-5.2-14.4.9-19.9.9-19.9ZM642.5,287.7s-2.6-32.5,14.1-57.3c0,0-5,34.6,23.2,51.5,0,0,22.2,12.2,29.9-17.1,0,0,11.8-51.8-26.3-106,0,0,60,17.1,69.6,99.9,0,0,4,38.1-21.3,73.4,0,0-19.5,26.3-56.9,9.7,0,0-27.5-8.1-32.3-54.2ZM645.4,378c26.8,8.8,32.8-6.4,32.8-6.4,5.7-10.7,16.7-7.8,16.7-7.8,9.3,1,6.9,11.2,6.9,11.2-3.7,15.9-18.2,19-18.2,19-50.3,13.7-62.9-31.7-62.9-31.7,7.1,8.5,24.8,15.7,24.8,15.7ZM619.7,434.3c-.5-4.6,5.3-7,5.3-7,13.5-5.1,17.9,2.6,17.9,2.6,7.2,9.6,0,19.4,0,19.4-9.1,16.8-30.7,15.7-30.7,15.7-3-2.5,1-9.4,1-9.4,5.5-6.8,6.4-21.3,6.4-21.3ZM602.7,325s-18.8-10.1-18.1-18.8c0,0,4.1-20.2-2.5-33.7,0,0,34.9,17.5,20.6,52.5ZM484.8,281.5s10.7-20.4,30.7-18.5c0,0-21.4,17.6-17.4,46,0,0,.8,12.3-15.5,19.6,0,0-10.3-21.9,2.2-47.1ZM358.4,334.2s-36.9-30.1-20.1-100.2c0,0,15.2-80.2,68.2-88,0,0-26.1,40.8-32.9,78.8,0,0-5.3,26.5,5.8,47.3,0,0,10.9,19.7,31.9,8,0,0,22.2-8.5,20.3-60.3,0,0,29.1,30.2,13.2,77.8,0,0-7,23.1-34.1,44.6,0,0-23.6,16.2-52.2-8ZM431.6,386.7c-22.3,5.5-38.3-7.5-38.3-7.5-11.2-9.7-9.8-15.6-9.8-15.6.7-7,8.5-8,8.5-8,6.8-1.8,8.8,3.3,8.8,3.3,4.4,11.5,17.3,11.3,17.3,11.3,32.7,1.4,51.5-24.2,51.5-24.2-2.2,31-38.1,40.8-38.1,40.8ZM452.5,455.3c-23.5-3.5-17.8-23.8-17.8-23.8,2.6-11.5,15.4-10.1,15.4-10.1,18,2.7,21.9,14.4,21.9,14.4,6,18.7,16,30.5,16,30.5-7.5-5.6-35.5-11-35.5-11ZM483.3,443.2c-24.7-48.5-6.8-88.2-6.8-88.2,13.7-34.2,69.7-56.3,69.7-56.3,41.8,16,58,44.4,58,44.4,20,36.4,7.1,90.4,7.1,90.4-8.7,32.8-33.1,47.5-33.1,47.5-21.5,16.6-35.4,43.7-35.4,43.7-6.3-11-23.6-29.4-23.6-29.4-19.1-18-35.9-52.1-35.9-52.1ZM499.9,516.5c-10.2-5.8-7-20.1-7-20.1,15.6-2.2,21.7,2.5,21.7,2.5,12.7,10.1,29.2,39.2,29.2,39.2,10.1-26.8,23.7-34.7,23.7-34.7,7.4-5.6,26.3-6.7,26.3-6.7-1.2,1.8-4.2,13.1-4.2,13.1-3.2,10.7-19.3,17.6-19.3,17.6-20.8,11.6-29,27-29,27-4.2-17.1-41.4-37.9-41.4-37.9ZM618.9,773s-12.8-23.7-53.1-18.9c0,0,19.8-23.6,68.8-21.6,0,0,29.8,2.3,34.1,25.2,0,0,2.7,16.5-17,23.1,0,0-20.9,7-32.8-7.9ZM654.1,787.9c14.2-2.1,20.2-10.4,20.2-10.4,20.2,20.6,14.9,46.8,14.9,46.8-2.3,19.5-18.5,18.5-18.5,18.5-13.3-.1-19-18.4-19-18.4-6.9-23.4,2.4-36.5,2.4-36.5ZM541.1,892.4c19.3,9.6,30.9,8.8,30.9,8.8,41-1.5,51.9-30.6,51.9-30.6,14.1-30.8,29.3-18,29.3-18,6.6,4,5.7,9.5,5.7,9.5-3.9,19.2-24.3,35.6-24.3,35.6-38.2,35.4-89.5,36.3-89.5,36.3-30.6,1.7-39-13.2-39-13.2-8.4-15.2,3.5-27.6,3.5-27.6,13-11.5,31.5-.8,31.5-.8ZM511.1,803.9s.9,12.9-.1,23.5c0,0-1.7,14.8,3.6,27.5,0,0,5.1,11.1-1.8,25.3,0,0-4.9,15.3-16.8,2.5,0,0-19.5-20-25.8-44,0,0-6.2-27.9.9-46.3,0,0,5-12.8,19.6-11.3,0,0,19,.7,20.5,22.8ZM543.6,733c-6.3,3.2-13.6,18.1-13.6,18.1-6.6,14.3-17.1,18.3-17.1,18.3-12.7,6-26.9.4-26.9.4-9.8-4.4-10.3-16.6-10.3-16.6-.3-9.8,4.2-18.3,4.2-18.3,4.3-9.8,4.4-16.8,4.4-16.8,20.8,7.5,23.1,23.7,23.1,23.7,10.3-16.3,36.2-8.8,36.2-8.8ZM574.6,654.4c-3.1,5.8-3,25.5-3,25.5-.2,22.9-32.4,29.5-32.4,29.5-19.9,4.8-27.3,14.5-27.3,14.5-18.8-19.3-10.8-47.4-10.8-47.4,2.5-11.7,1.3-27.7,1.3-27.7,29.9.4,33.3,22.5,33.3,22.5,3.3,0,7.5-5.6,7.5-5.6,4.8-5.7,15.1-6.5,15.1-6.5,8.8-.9,16.4-4.6,16.4-4.6ZM613.4,599.6s13.6-1.3,14.9,12.4c0,0,.8,11.5-15,13.6,0,0-3.1,1.1-14.5-1.7,0,0-8.9-1.8-13.8.4,0,0,2.7-19.7,28.5-24.6ZM584.3,605.5c.7,19.1-25.8,33.5-25.8,33.5-12.6,6-21.7,22.2-21.7,22.2-2.2-10.7-20.9-25.8-20.9-25.8-13.9-11.8-10.3-27.8-10.3-27.8,5.9,3.4,17.8,4,17.8,4,11.6,0,15.2,11.3,15.2,11.3,10.2-24.4,45.7-17.5,45.7-17.5ZM585,572.1c-3.1,22.8-30.2,24.6-30.2,24.6-13,1.8-17.6,13.7-17.6,13.7-5.2-14.7-24.7-27.1-24.7-27.1-14.2-6-13.7-18.5-13.7-18.5.4-6.6-.7-15.8-.7-15.8,36.5,1.1,41.7,29.8,41.7,29.8,5.8-26.4,25-26.7,25-26.7,15.5-.8,24.9-5.5,24.9-5.5-2.5,4.9-4.8,25.5-4.8,25.5ZM624.7,548.4s-5.4,1.6-12.7,2.2c0,0-10.3,1.2-15.8,6.5,0,0-2.7-27.7,23.6-35.9,0,0,15.3-5.9,19.2,4.9,0,0,6.1,16.5-14.3,22.3ZM679.6,577.1c-6.1,2.8-16.2-6-22.6-19.6-6.3-13.7-6.5-27.1-.4-29.9,6.1-2.8,16.2,6,22.6,19.6,6.3,13.7,6.5,27.1.4,29.9ZM693.4,586.8s.9-5.1.6-11.9c0,0-1.7-9,8.9-15.8,0,0,27.8-18.5,35.5-34.4,0,0,5.4,41.5-44.9,62Z"/>
    <path class="cls-2" d="M706.6,181.4s39,32.3,35.1,93.3c0,0-1.7,36.2-25.8,52.6,0,0-20.1,11.8-42.5-2.6,0,0-24.6-11.8-20.3-58.9,0,0,6.5,33.7,32,37.4,0,0,26.7.5,35.6-32.5,0,0,13.4-31.3-14.1-89.3Z"/>
  </g>
</svg>