<?xml version="1.0" encoding="UTF-8"?>
<svg id="PRIMARY" xmlns="http://www.w3.org/2000/svg" version="1.1" viewBox="0 0 1080 1080">
  <!-- Generator: Adobe Illustrator 30.1.0, SVG Export Plug-In . SVG Version: 2.1.1 Build 136)  -->
  <defs>
    <style>
      .st0 {
        fill: #fff;
      }
    </style>
  </defs>
  <g id="ONE_COLOR_LIGHT">
    <path class="st0" d="M271.7,131v309.8c0,48.1,5.6,96.1,16.8,142.8,11,46.1,27.3,91,48.6,133.3s47.4,82.3,77.8,118.7c30.8,36.8,65.9,70.1,104.4,98.8l19.5,14.5,19.5-14.5c38.5-28.7,73.7-62,104.4-98.8,30.4-36.4,56.6-76.3,77.8-118.7,21.3-42.4,37.6-87.2,48.6-133.3,11.1-46.7,16.8-94.8,16.8-142.8V131H271.7ZM789.6,440.8c0,46.8-5.5,93.6-16.3,139-10.7,44.9-26.6,88.5-47.3,129.8-20.7,41.3-46.2,80.1-75.8,115.5-30,35.9-64.2,68.2-101.7,96.2l-9.8,7.3-9.8-7.3c-37.5-28-71.7-60.3-101.7-96.2-29.6-35.4-55.1-74.3-75.8-115.5-20.7-41.3-36.6-84.9-47.3-129.8-10.8-45.5-16.3-92.2-16.3-139V147.3h501.6v293.5h0Z"/>
    <path class="st0" d="M508.4,881.7c-5.1-7.1-9.9-13.8-15.5-20.9-.5-.7-1.1-1.7-1.8-3.1-5.4-12.7-8.5-24.5-6.9-38.7.3-2.5,1-5.5,1.9-9,.9-3.4,3-9.4,4.3-13.2,1.6.2,3.2.7,4.8,1.1-1.3-2.2-2.7-3.7-4-6.1-.4-.8-.8-1.6-.9-3.1-.5-7.6,1-14.6,5.6-21.3,1-1.5,3.1-3.7,4.3-5.3,5.2,2.5,10.5,5.1,15.8,7.1-1.7-2.5-6.4-8.1-7.6-9.7-.9-1.1-1-.9-1-.9,0,0,0,0,0,0,0,0,0,0,0-.1-1.6-5.7-1.1-5.8.2-12.4s2.1-18.5,2.5-26.3c.8-1.6,1.5-2.7,2.3-4.1,5.4.8,10.8,1.8,16.2,2.7-4.2-3.1-8.3-6.2-12.4-9.4,0,0,0,0,0,0,0,0,0,0,0,0h0c-.9-3-2.1-3.3-2.7-7-.6-3.8-1.4-10.5-1.9-14.8,1.3-1.6,2.7-3,4-4.5,5.3,3,10.7,6,16,9-2.6-2.9-5.1-5.8-7.7-8.7-2-.9-4.5-1.7-6.4-2.6s-3.5-1-5-2.1c-3.9-2.9-4.6-4.2-5.3-9.4s-1.8-12.8-2.6-18.5c1.6-2.1,3.3-4,5-6,6.9,3.7,13.8,7.3,20.7,11-3.1-3.4-6-6.8-9.3-10.1-2.5-.8-8.6-2.5-10.3-3-1.7-.5-1.4-.3-1.7-.5-4.4-2.5-5.4-3.4-6.5-8.3-1-4.9-2.3-11.4-3.5-16.6,1.8-1.8,3.7-3.5,5.6-5.3,8,3.2,15.9,6.3,23.8,9.7-6.1-5-11.7-7-17.9-12.8-6.1-5.8-12.5-14.8-18.6-21.2-.1,2.7-.2,5.6-.3,8.4-11.4-2.1-20.8-5.4-29.2-13,.4,4.9-1.8,11.2-3.6,15.3-4.5,10.3-8,22.3-21.3,22.7-1,0-.9-.7-1.7-.8,0,2,0,3.9.1,6-10.4-2.9-18.7-4-26-12.6-12-14.2-14.2-30.5-9.7-48,3.7,9.2,6.6,18.6,12.6,26.9,4.7,6.6,11.8,11.1,18.6,15.8.4-3.1,1.8-7.4,2.7-10.1,3.2-10.1,6.6-23.8,18.9-25.4,4.8-.6,4.7,3.1,7.8,4.7,0-.9-.2-2,.3-3,5.8-10,14.2-8.8,24.7-5.6,2.5-15.6,5.1-31.3,7.6-46.7-9,16.2-18.9,29.8-40.2,30.4-17.4.5-24-10.9-29.4-24.4-23.9-8.5-30.5-32.6-32.5-53.3-2.5-25.3.9-48.6,11.4-67.3h-98.9v33.6c0,170.6,74.6,331.8,202.9,442.2.4-.4.8-.9,1.2-1.3h0ZM410,670.7c-11.7-14.5-13.6-30.9-8.9-48.5,3.6,9.3,6.3,18.8,12.1,27.3,4.6,6.8,11.6,11.5,18.2,16.4.4-3,1.9-7.3,2.8-10,3.4-9.9,7.1-23.2,19.3-24.5,4.7-.5,4.7,3.2,7.8,4.9,0-.8-.2-2.1.4-2.9,8.8-11.9,19.1-8.1,31.2-2.2,1.5,7.9,3,15.8,4.4,23.7-13.2-1.8-24.4-4.7-34.4-13,.4,4.8-1.9,11-3.8,15-4.8,10.1-8.4,21.9-21.7,21.9-1,0-.9-.7-1.7-.8,0,2,0,3.9,0,6-10.4-3.1-18.6-4.5-25.7-13.3h0ZM445.8,748.8c-8.9-7.5-9.7-15.2-11.5-25.2,3.5.5,6.6,1.1,10,1.5.5-5.9,1.7-12.8,4-18.2,4.2-9.7,8.8-15.3,20.4-15.7,8.9-7.9,18.9-10.7,30.9-12.2,1.5,8.4,3,16.8,4.5,25.3-10.2,2.6-19.5,3.4-30,1.7-1.7,4.4-4.5,10.1-6.3,14.1-3.2,6.8-5.2,11.2-12,14.9,4.2,4.5,8.4,9.7,13.5,13.3,8.7,6.1,18.2,9.8,27.9,13.9-19.5,2.4-36.9-1-51.4-13.3h0Z"/>
    <path class="st0" d="M644.8,470.5c13.9-8.3,3.8-47.5-4.6-62-.2-.4-.5-.9-.8-1.3h-196.2c-.5,1-1.1,1.9-1.6,2.8-8.4,14.3-18.8,53.3-5,61.7,11.8,7.1,14-6,17.7-12.7,7-12.6,4.5-27.8,4-41.9,13.8,21.7,23.8,32.6,20.8,61.4-1.5,14.1-20,39.8-37.6,45.9,2.1,4.3,8.7,9,13.3,8.2,19.5-3.3,30.3-12.8,42.2-26.5-2.8-8.3-4.5-16.9-.8-25,5.9-12.9,15.9-19.9,28.1-27.4-8.4,13.6-17.6,27.5-5.8,41.5.6.7,1.8.5,2.5,1,6.5-5.2,13.1-10.3,19.6-15.4,6.8,5.2,13.6,10.4,20.4,15.6.8-.6,2.3-.4,3-1.2,11.8-13.9,2.5-28-5.8-41.5,12.1,7.5,22.2,14.6,28,27.5,3.9,8.6,2,17.3-1.2,25.9,11.8,13.2,22.3,22.2,41.5,25.1,4.7.7,11.3-4.1,13.4-8.5-17.6-6.3-36.2-32.5-37.6-46.5-3-28.8,6.9-39.6,20.8-61.3-.6,14.1-3,29.4,3.9,42,3.7,6.7,5.8,19.9,17.7,12.8h0Z"/>
    <path class="st0" d="M679.2,407.2c9.9,18.6,13,41.6,10.5,66.4-2.1,20.7-8.7,44.9-32.6,53.5-5.4,13.8-11.9,24.9-29.4,24.8-19.5,0-29.3-11.8-38.5-26.1,2,13.8,3.9,27.9,5.8,41.9,9.5-2.3,16.5-2.4,21.3,6.4.5.9.3,2,.3,2.9,3.1-1.7,3-5.4,7.8-4.9,12.2,1.3,15.7,14.7,19.1,24.6.9,2.7,2.4,7,2.8,10,6.7-4.9,13.6-9.5,18.2-16.3,5.8-8.5,8.5-18,12.1-27.2,4.8,17.6,2.9,34-8.9,48.4-7.2,8.8-15.3,10.1-25.7,13.2,0-2.1,0-4,0-6-.8.1-.8.8-1.7.8-13.2-.1-16.8-12-21.6-22.1-1.9-4-4.2-10.2-3.8-15-8.4,7.7-17.8,11.3-29.3,13.5,0-1.7,0-3.3-.1-5-5.6,6.5-11.1,12.9-16.7,19.4h0c-5.5,3.6-11,7.3-16.5,10.9,7.8-3,15.7-6,23.5-9l5.2,5.2c-1.3,5.8-2.7,11.4-4,17.2-.9,3.8-2.3,6-6.5,7.8-.2,0,.3,0-1.2.3-1.5.4-7.3,2-9.6,2.6-3.6,3.4-6.7,6.8-10.1,10.2,7.3-3.6,14.6-7.2,22-10.8,1.7,2.2,3.4,4.3,5.1,6.5-1.2,6.5-2.5,12.8-3.7,19.3-.8,3.8-1.7,6.7-5.7,8.7-1.7.8-3.5,1.2-5.6,2s-5,1.8-7.3,2.6c-2.6,2.6-5.2,5.3-7.8,7.9,5.7-2.8,11.4-5.7,17.1-8.5,1.3,1.6,2.6,3.3,3.9,4.9-1.2,5-1.6,10-2.9,15.1-.9,3.5-.9,4.9-4.9,7.2-4,2.2-10.1,5.4-14.5,7.8,5.2,0,10.6-.3,15.8-.4.6,3.5,1.3,6.9,2,10.4-2.4,9.5-5.3,18.7-9.5,27.7-1.7,3.7-3.7,7-7.1,9.6-6.3,1.5-12.3,3.5-18.4,5.4,5,.4,10.1,1.1,15.1,1.5-.3.9-.4,1.8-.8,2.7-2.9,2.2-7.1,5.8-9.3,8.1-4.2,4.3-6.4,8.4-7.9,13.2-.9,2.8-.6,4-2.1,6.4,0,0,0,.2,0,.2-4.6-.4-9.2-.4-13.8-.6,5.1,2.2,10.1,4.2,15.4,5.9.4,1.6.9,3.1,1.3,4.8-.8,2.2-2.2,4.9-2.8,7-2.8,10.1-1.7,19,0,29.1.5,3.3,1.5,6.4,1.7,9.8-2.7,4.9-5.4,9.7-8.2,14.5,3.1-1.7,6.3-3.4,9.3-5.2,2,.9,3.3,1.1,5.4,2.2,2.1,1.1,6.1,3.4,8.3,4.4,9.5,4.6,19.2,7.8,29.3,8.5,14.9-12.7,29-26.2,42.4-40.2-.9-7-.9-13.7-.4-20.9,3-4.5,6.4-8.7,9.1-13.3-3.2,1.5-6.6,2.9-9.3,4.9-22.9,2.9-19.2-3-28-19.9-5.7-10.9-30-5.6-41-4.3,13.6-9.3,23.8-14.6,42.2-15.3s37,6.6,49.7,19.9c-.4,3.8-2.5,6.6-4.8,9.6,2.9,3.3,5.8,6.7,8.7,10,86.5-103.8,135.2-235.5,135.2-373.4v-33.6h-94.1ZM629.4,742.4c-13.2,13-30.3,18.1-49.9,16.9,9.3-4.8,18.6-9.3,26.8-15.9,4.8-3.9,8.6-9,12.5-13.7-6.5-2.6-8.9-6.2-12.1-12.1-1.8-3.4-4.3-8.2-5.9-12-9.9,2.2-18.1,1-27.6-2.2.8-8.1,1.8-16.2,3-24.3,11.7,1.7,21.4,4.6,30,12.3,10.6-.7,15.4,4.3,19.6,12.9,2.3,4.8,3.4,10.4,4.1,15.7,3.3-.8,6.4-1.6,9.8-2.3-1.7,9.8-2.1,16.6-10.2,24.6h0ZM665.8,667.4c-7,8.9-15.2,10.4-25.5,13.6,0-2.1,0-4,0-6-.8.1-.7.9-1.7.9-13.2.1-16.9-11.6-21.8-21.7-1.9-4-4.3-10.1-3.9-14.9-9.2,8.3-19.5,11.7-32,13.9.8-8.1,1.5-16.1,2.2-24.2,12-5.9,22-10,30.9,1.8.6.7.3,2.1.4,2.9,3.1-1.7,3-5.4,7.7-5,12.1,1.1,15.9,14.4,19.4,24.2,1,2.6,2.5,6.9,2.9,9.9,6.6-5,13.5-9.8,17.9-16.7,5.6-8.6,8.2-18.2,11.7-27.5,5,17.5,3.3,34.1-8.1,48.7h0Z"/>
    <path class="st0" d="M371.3,281.4l23.1-4.2v-11.8c0-6.6,1.3-9,2.8-11.4-10.1-2.9-19.9-13.6-24-23.1-3.1,1.1-7.6,1.8-12.9,1.8h-2.6c-5.4,0-9.8-.6-12.9-1.8-3.7,5.5-18.8,15.3-25.6,17.3,1.3,6.1,1.8,10.7,1.8,16.6v24.2c0,4.1-.2,6.1-2.4,8.9,2.2,2.8,2.4,4.8,2.4,8.9v22.3c0,5.9-.5,10.5-1.8,16.6,6.8,2,22,11.8,25.6,17.3,3.1-1.3,7.6-1.8,12.9-1.8h2.6c5.4,0,9.8.7,12.9,1.8,4.1-9.4,13.8-20.1,24-23.1-1.5-2.4-2.8-4.8-2.8-11.4v-11.8l-23.1-4.2c1.3,3.1,1.9,7.2,1.9,12.2v6.8c-3.7,3.7-6.1,6.5-7.9,10.3h-16c-2-2-4.4-4.1-7-5.7v-29.3c0-4.1.2-6.1,2.4-8.9-2.2-2.8-2.4-4.8-2.4-8.9v-31.2c2.6-1.7,5-3.7,7-5.7h16c1.9,3.9,4.2,6.6,7.9,10.3v6.8c0,5-.5,9-1.9,12.2h0Z"/>
    <path class="st0" d="M408,353.7l7.4,9.2c2.8-1.3,6.8-1.8,11.6-1.8s8.9.5,11.8,1.8l7.4-9.2c-4.6-2.8-8.5-7-8.5-12v-36.9h29v36.9c0,5-3.9,9.2-8.5,12l7.4,9.2c2.8-1.3,6.8-1.8,11.6-1.8s8.9.5,11.8,1.8l7.4-9.2c-4.6-2.8-8.5-7-8.5-12v-35.1c0-4.1.2-6.1,2.4-8.9-2.2-2.8-2.4-4.8-2.4-8.9v-36.9c0-5,3.9-9.2,8.5-12l-7.4-9.2c-3,1.3-6.8,1.8-11.8,1.8s-8.9-.6-11.6-1.8l-7.4,9.2c4.6,2.8,8.5,7,8.5,12v34.3h-29v-34.3c0-5,3.9-9.2,8.5-12l-7.4-9.2c-3,1.3-6.8,1.8-11.8,1.8s-8.9-.6-11.6-1.8l-7.4,9.2c4.6,2.8,8.5,7,8.5,12v36.9c0,4.1-.2,6.1-2.4,8.9,2.2,2.8,2.4,4.8,2.4,8.9v35.1c0,5-3.9,9.2-8.5,12Z"/>
    <path class="st0" d="M503.2,353.7l7.4,9.2c4.6-1.5,6.6-1.8,10.5-1.8s6.8.5,10.7,1.8l7.4-9.2c-5.9-3.3-10.7-6.8-9.8-12l4.2-25.3h22.1l4.2,25.3c.9,5.2-3.9,8.7-9.8,12l7.4,9.2c3.1-1.3,7.6-1.8,12.9-1.8s7.6.4,12.9,1.8l7.4-9.2c-4.4-3.3-8.1-6.6-9-12l-6.3-36.7c-.7-4.1-.7-6.1.9-9-2.4-2-3.3-4.2-4.1-8.5l-6.3-34.7c-.7-4.2.5-9,4.1-12.7l-7.4-9.2c-4.2,1.3-10,1.8-16.2,1.8s-13.1-.7-16-1.8l-7.4,9.2c3.5,3.7,4.8,8.5,4.1,12.7l-6.1,34.7c-.7,4.2-1.7,6.5-4.1,8.5,1.7,3,1.7,5,.9,9l-6.5,36.7c-.9,5.4-3.9,8.7-8.3,12h0ZM544,254.7h1.3l7.8,45.2h-16.6l7.6-45.2Z"/>
    <path class="st0" d="M594.9,297.8c2.2,2.8,2.4,4.8,2.4,8.9v24.2c0,5.9-.5,10.5-1.8,16.6,6.8,2,22,11.8,25.7,17.3,3.1-1.3,7.6-1.9,12.9-1.9h.4c5.3,0,9.8.5,12.9,1.9,3.7-5.5,18.8-15.3,25.7-17.3-1.3-6.1-1.8-10.7-1.8-16.6v-24.2c0-4.1.2-6.1,2.4-8.9-2.2-2.8-2.4-4.8-2.4-8.9v-26c0-5.9.5-10.5,1.8-16.6-6.8-2-22-11.8-25.7-17.3-3.1,1.3-7.6,1.9-12.9,1.9h-.4c-5.3,0-9.8-.6-12.9-1.9-3.7,5.5-18.8,15.3-25.7,17.3,1.3,6.1,1.8,10.7,1.8,16.6v26c0,4.1-.2,6.1-2.4,8.9ZM618.5,306.7c0-4.1.2-6.1,2.4-8.9-2.2-2.8-2.4-4.8-2.4-8.9v-33c2.6-1.7,5-3.7,7-5.7h17.3c2,2,4.4,4.1,7,5.7v33c0,4.1-.2,6.1-2.4,8.9,2.2,2.8,2.4,4.8,2.4,8.9v31.2c-2.6,1.7-5,3.7-7,5.7h-17.3c-2-2-4.4-4.1-7-5.7v-31.2Z"/>
    <path class="st0" d="M736.4,279.6l23.1-4.2v-11.8c0-6.6,1.3-9,2.8-11.4-10.2-2.9-19.9-13.6-24-23.1-3.1,1.1-7.6,1.9-12.9,1.9h-2.6c-5.3,0-9.8-.6-12.9-1.9-3.7,5.5-18.8,15.3-25.7,17.3,1.3,6.1,1.8,10.7,1.8,16.6v14c0,6.5-.4,9.4-1.8,14.6,3.9.7,6.6,1.9,10,3.3l44.1,19.7v23.2c-2.6,1.7-5,3.7-7,5.7h-17c-1.8-3.9-4.2-6.6-7.9-10.3v-6.8c0-5,.5-9,1.8-12.2l-23.1,4.2v11.8c0,6.6-1.3,9-2.8,11.4,10.2,3,19.9,13.6,24,23.1,3.1-1.1,7.6-1.9,12.9-1.9h3.5c5.3,0,9.8.5,12.9,1.9,3.7-5.5,18.8-15.3,25.7-17.3-1.3-6.1-1.8-10.7-1.8-16.6v-13.1c0-6.5.4-9.6,1.8-14.4l-54.1-24.9v-22.5c2.6-1.7,5-3.7,7-5.7h16c1.8,3.9,4.2,6.6,7.9,10.3v6.8c0,5-.5,9-1.8,12.2Z"/>
    <path class="st0" d="M393.2,190.9l5.1-.9v-2.6c0-1.5.3-2,.6-2.5-2.2-.6-4.4-3-5.3-5.1-.7.2-1.7.4-2.8.4h-.6c-1.2,0-2.1-.1-2.8-.4-.8,1.2-4.1,3.4-5.6,3.8.3,1.3.4,2.4.4,3.6v5.3c0,.9,0,1.3-.5,1.9.5.6.5,1.1.5,1.9v4.9c0,1.3-.1,2.3-.4,3.6,1.5.4,4.8,2.6,5.6,3.8.7-.3,1.7-.4,2.8-.4h.6c1.2,0,2.1.2,2.8.4.9-2.1,3-4.4,5.3-5.1-.3-.5-.6-1.1-.6-2.5v-2.6l-5.1-.9c.3.7.4,1.6.4,2.7v1.5c-.8.8-1.3,1.4-1.8,2.3h-3.5c-.5-.4-1-.9-1.5-1.3v-6.4c0-.9,0-1.3.5-1.9-.5-.6-.5-1.1-.5-1.9v-6.9c.6-.4,1.1-.8,1.5-1.3h3.5c.4.9.9,1.5,1.8,2.3v1.5c0,1.1-.1,2-.4,2.7Z"/>
    <path class="st0" d="M426.4,204.1c-.2,1.2-.9,1.9-1.8,2.6l1.6,2c1-.3,1.5-.4,2.3-.4s1.5.1,2.4.4l1.6-2c-1.3-.7-2.4-1.5-2.1-2.6l.9-5.6h4.9l.9,5.6c.2,1.1-.9,1.9-2.1,2.6l1.6,2c.7-.3,1.7-.4,2.8-.4s1.7,0,2.8.4l1.6-2c-1-.7-1.8-1.5-2-2.6l-1.4-8.1c-.2-.9-.2-1.3.2-2-.5-.4-.7-.9-.9-1.9l-1.4-7.6c-.2-.9.1-2,.9-2.8l-1.6-2c-.9.3-2.2.4-3.6.4s-2.9-.2-3.5-.4l-1.6,2c.8.8,1,1.9.9,2.8l-1.3,7.6c-.2.9-.4,1.4-.9,1.9.4.6.4,1.1.2,2l-1.4,8.1h0ZM433.5,185h.3l1.7,9.9h-3.6l1.7-9.9Z"/>
    <path class="st0" d="M469.5,206.8l1.6,2c.6-.3,1.5-.4,2.6-.4s2,.1,2.6.4l1.6-2c-1-.6-1.9-1.5-1.9-2.6v-7.4h2.6l.7.7,1.9,6.7c.3,1.1-.2,1.8-1.4,2.6l1.6,2c.6-.3,1.4-.4,2.4-.4s1.7,0,2.8.4l1.6-2c-1-.7-1.7-1.5-2-2.6l-2.1-7.7-.9-.8c1.3-1,3.1-2,4.1-2.3-.3-1.3-.4-2.3-.4-3.6v-2.5c0-1.3.1-2.3.4-3.6-1.5-.4-4.8-2.6-5.6-3.8-.7.3-1.7.4-2.8.4h-4.8c-1.2,0-2.1-.1-2.8-.4l-1.6,2c1,.6,1.9,1.5,1.9,2.6v8.1c0,.9,0,1.3-.5,1.9.5.6.5,1.1.5,1.9v7.7c0,1.1-.9,2-1.9,2.6h0ZM476,184.4h4.5c.5.4,1,.9,1.5,1.3v5.6c-.6.4-1.1.8-1.5,1.3h-4.5v-8.1h0Z"/>
    <path class="st0" d="M514.1,194.5c.5.6.5,1.1.5,1.9v5.3c0,1.3-.1,2.3-.4,3.6,1.5.4,4.8,2.6,5.6,3.8.7-.3,1.7-.4,2.8-.4h0c1.2,0,2.2.1,2.8.4.8-1.2,4.1-3.4,5.6-3.8-.3-1.3-.4-2.4-.4-3.6v-5.3c0-.9,0-1.3.5-1.9-.5-.6-.5-1.1-.5-1.9v-5.7c0-1.3.1-2.3.4-3.6-1.5-.4-4.8-2.6-5.6-3.8-.7.3-1.7.4-2.8.4h0c-1.2,0-2.2-.1-2.8-.4-.8,1.2-4.1,3.4-5.6,3.8.3,1.3.4,2.4.4,3.6v5.7c0,.9,0,1.3-.5,1.9ZM519.3,196.4c0-.9,0-1.3.5-1.9-.5-.6-.5-1.1-.5-1.9v-7.3c.6-.4,1.1-.8,1.5-1.3h3.8c.5.4,1,.9,1.5,1.3v7.3c0,.9,0,1.3-.5,1.9.5.6.5,1.1.5,1.9v6.9c-.6.4-1.1.8-1.5,1.3h-3.8c-.5-.4-1-.9-1.5-1.3v-6.9Z"/>
    <path class="st0" d="M557.8,206.8l1.6,2c.7-.3,1.7-.4,2.8-.4h6.6c1.3,0,2.4.1,3.2.4l1.6-2c-.3-.6-.4-1.8-.4-2.7v-3.7h-2.1c0,1.7-.5,3.8-2.3,3.8h-4.5v-7.7c0-.9,0-1.3.5-1.9-.5-.6-.5-1.1-.5-1.9v-8.1c0-1.1,1.3-2,2.9-2.6l-1.6-2c-.7.3-1.8.4-3,.4s-2.4-.1-3.2-.4l-1.6,2c1,.6,1.9,1.5,1.9,2.6v8.1c0,.9,0,1.3-.5,1.9.5.6.5,1.1.5,1.9v7.7c0,1.1-.8,2-1.9,2.6h0Z"/>
    <path class="st0" d="M599.6,206.8l1.6,2c.6-.3,1.5-.4,2.6-.4s2,.1,2.6.4l1.6-2c-1-.6-1.9-1.5-1.9-2.6v-7.7c0-.9,0-1.3.5-1.9-.5-.6-.5-1.1-.5-1.9v-8.1c0-1.1.8-2,1.9-2.6l-1.6-2c-.7.3-1.5.4-2.6.4s-2-.1-2.6-.4l-1.6,2c1,.6,1.9,1.5,1.9,2.6v8.1c0,.9,0,1.3-.5,1.9.5.6.5,1.1.5,1.9v7.7c0,1.1-.8,2-1.9,2.6Z"/>
    <path class="st0" d="M634.4,206.8l1.6,2c.5-.3,1.2-.4,2.3-.4s1.7.1,2.3.4l1.6-2c-1-.6-1.9-1.5-1.9-2.6v-8.1c0-.9,0-1.3.5-1.9-.5-.6-.5-1.1-.5-1.9v-3.3h.2l5.9,17.2c.3.9.5,1.7.4,2.7.8-.3,1.2-.4,2.2-.4s1.7.1,2.1.4l1.6-2c-.4-.6-.4-1.5-.4-2.6v-8.1c0-.9,0-1.3.5-1.9-.5-.6-.5-1.1-.5-1.9v-7.7c0-1.1.8-2,1.9-2.6l-1.6-2c-.6.3-1.3.4-2.3.4s-1.8-.1-2.3-.4l-1.6,2c1,.6,1.9,1.5,1.9,2.6v7.7c0,.9,0,1.3-.5,1.9.5.6.5,1.1.5,1.9v3.9h-.2l-6.1-17.9c-.2-.7-.3-1.5-.2-2.3-1,.3-1.6.4-2.8.4s-2.2-.1-2.8-.4l-1.6,2c1,.6,1.9,1.5,1.9,2.6v7.7c0,.9,0,1.3-.5,1.9.5.6.5,1.1.5,1.9v8.1c0,1.1-.8,2-1.9,2.6h0Z"/>
    <path class="st0" d="M680.9,204.1c-.2,1.2-.8,1.9-1.8,2.6l1.6,2c1-.3,1.5-.4,2.3-.4s1.5.1,2.3.4l1.6-2c-1.3-.7-2.3-1.5-2.2-2.6l.9-5.6h4.9l.9,5.6c.2,1.1-.8,1.9-2.2,2.6l1.6,2c.7-.3,1.7-.4,2.8-.4s1.7,0,2.8.4l1.6-2c-1-.7-1.8-1.5-2-2.6l-1.4-8.1c-.2-.9-.2-1.3.2-2-.5-.4-.7-.9-.9-1.9l-1.4-7.6c-.2-.9.1-2,.9-2.8l-1.6-2c-.9.3-2.2.4-3.6.4s-2.9-.2-3.5-.4l-1.6,2c.8.8,1,1.9.9,2.8l-1.3,7.6c-.2.9-.4,1.4-.9,1.9.4.6.4,1.1.2,2l-1.4,8.1h0ZM688.1,185h.3l1.7,9.9h-3.7l1.7-9.9Z"/>
    <path class="st0" d="M468.1,458.8c2.1,6.5,4.2,13,6.2,19.4-.3-7.8-.7-15.5-1-23.2-2.4-5.7-4.7-11.5-7.2-17.2-1.2,7.1-3.7,14.3-4.4,21.3-.7,7.1.4,13.7,0,20.7,2.2-7,4.2-14,6.3-21h0Z"/>
    <path class="st0" d="M592.7,801.6c1.3,4.5,4.7,9.3,10,9.6,6.9.3,11.3-3.2,16.5-6.7-.6,0-1.5.5-2.1.5-9.2,1.6-16.2.7-24.4-3.4h0Z"/>
    <path class="st0" d="M620.6,457.8c-.7-7.1-3.3-14.3-4.4-21.4-2.5,5.7-4.8,11.5-7.2,17.2-.3,7.8-.7,15.5-1,23.3,2.1-6.5,4.2-13,6.3-19.4,2.1,7,4.2,14.1,6.3,21.1-.3-7,.8-13.7,0-20.8h0Z"/>
    <path class="st0" d="M674,413.6c-5.6-7.9-11.2-15.8-16.8-23.7-9-4.6-18-9.1-27-13.7,4.4,7.2,7.8,12.7,12.5,20.2,4.7,7.6,10.6,17.2,15.5,25.2-2-8.7-4-17.5-6-26.3,7.3,6.1,14.6,12.2,21.8,18.3h0Z"/>
    <path class="st0" d="M582.7,777.3c-3.5.9-6.9.9-10.3,2s-7.4,2.9-10.2,4.6c5.4.5,14.4,1.4,20.3,1.7-3.3-1.2-7-2.5-10.4-3.8,3.6-1.5,7.1-3,10.6-4.5Z"/>
    <path class="st0" d="M429.7,396.7c-2,8.7-4.2,17.5-6.2,26.2,5-7.9,11-17.5,15.6-25,4.7-7.5,8.1-13,12.6-20.1-9,4.6-18,9-27.1,13.5-5.6,7.8-11.3,15.7-16.9,23.5,7.3-6,14.6-12.1,22-18.1h0Z"/>
    <path class="st0" d="M507.5,758.7s0,0,0,0h0Z"/>
    <path class="st0" d="M516.4,709.1s0,0,0,0h0c0,0,0,0,0,0Z"/>
    <path class="st0" d="M523.7,516.2c.7-3,1.4-6,2.1-9.1,2-2.6,4-5.2,6-7.9-3.9,2.6-7.8,5.2-11.6,7.9,1.2,3,2.3,6,3.5,9.1h0Z"/>
    <path class="st0" d="M556.8,507.2c.7,3,1.4,6,2.1,9.1,1.1-3,2.3-6,3.4-9.1-3.9-2.6-7.7-5.2-11.6-7.9,2,2.6,4,5.2,6.1,7.9h0Z"/>
  </g>
</svg>