<?xml version="1.0" encoding="UTF-8"?>
<svg id="SECONDARY" xmlns="http://www.w3.org/2000/svg" version="1.1" viewBox="0 0 1080 1080">
  <!-- Generator: Adobe Illustrator 30.1.0, SVG Export Plug-In . SVG Version: 2.1.1 Build 136)  -->
  <defs>
    <style>
      .st0 {
        fill: #fff;
      }
    </style>
  </defs>
  <g id="ONE_COLOR_LIGHT">
    <path class="st0" d="M867.1,343.7l-40.5-54.8-457.7-1.9,16.5,65.8-2.5,4.6-43.3,28.4-31.3,27.2h-36.6l-58.6,137h96.9l-.4,8.1,33.7,22.3,80.9,115.2,19.4,15.9,13.3,113.6,94.9-27.2,51-69.9,60.8-45.6v-25.2l15.7-24.7h35.8l27.3-53.5,28.4-36.1,22.2-18.2,11-32.6,10.5-24.7,52.6-62.4-17.5-20,17.6-41.4h0ZM843.9,405.3l-44.2,52.5-11.9,27.9-9.5,28.4-19.7,16.2-30.7,39-23.2,45.5h-34.7l-23.6,37.2v21.5l-55.7,41.8-49,67.2-70,20-11.8-100.3-23.1-19-81.4-115.9-28-18.5.8-16.5h-88.5l43.4-101.4h31.7l35.2-30.6,45.9-30.1,8.1-14.7-12.6-50.4,426.9,1.8,29.2,39.5-18,42.4,14.7,16.8h0Z"/>
    <path class="st0" d="M809.5,324.5l-396-1.6,8.8,35-13.7,24.8-48.6,31.9-39.1,34h-26.8l-28.1,65.7h80.1l-1.1,24.8,22.4,14.8,81.9,116.7,26.8,22,10.2,87,45-12.9,47.1-64.5,44-33c-1.9-1.2-3.9-2.6-6.5-4.4-.7-.5.2-1-.8-3.8-1-2.8-4-12.4-5.8-16.3-2.8,9-4.7,18.6-7.1,27.8-3.9.2-9.6,1.2-13.2,1-15.9-.8-28.5-4.8-41.1-11.1-2.5-1.2-3-2.6-3.9-3.9-2.5-3.8-3.1-7.1-5-10.9-1.3,2.5-2.5,5-4.5,7.3-7.6-1.7-18.3-4-24.9-6.4-6.6-2.3-12.4-4.1-16.6-7.5-24.2-19.5-37.2-43.6-50.1-67.9-1.5-2.8-2.2-5.7-2.6-7.4-4.4-18.6-8.4-35.7-15.8-53.3-4.5.9-9.1,1.6-13.6,2.4-3.6-11.5-8-22.7-13.1-33.9.9-4.3.2-10,1.1-14,5.9-25.4,14.6-46,31.9-69.3,2-2.7,11.4-14.5,16.3-17.2,5.5-1.4,10.5-1.1,16-1.6-.9-3.2-1.8-6.3-2.7-9.5,29.4-11.7,58.3-23.6,85.8-37.9,23.8,6.6,47.7,11.8,72.5,15.7,6.7,7.2,13.5,14.4,20.3,21.5,6.7-2.3,12.8-4.5,20.3-4.1,19.1,25.2,27.4,58.6,21.3,86.5s-23.5,43.3-42.7,64.9c8.3-20,22.1-48.8,3.8-66.1-28.4-26.7-38.6-19.1-28.8-56.2,5.1-3.6,9.1-8.2,13.2-12.7-9.4,3.1-18.5,6.9-27.6,10.4-17.4-2.3-33.5-6-49.6-11.7-21.3,6-42.8,11.3-64.3,16.7-3.9-3.8-8.2-7.4-12.6-10.9,2,5.4,4.1,11,6.5,16.2-2.2,5.5-4.6,8.1-6.9,14.2-7.3,18.8-10,38.4-8.8,58.6.2,3.8,1.6,10.3,1.8,14.2.2,3.9-.2,6.7-.4,10.4-5.7,2.9-11.5,5.7-17.4,8.2,11.9,1.1,22.3,4.8,33.3,8,5.2,5.4,9.8,11.6,14.2,17.2,13.6,17.4,26.2,34.4,45.1,48.5,4,3,9.1,3.7,13.5,6,2,2.3,3.9,4.7,5.8,7.1-3.4,9.4-6.3,18.9-9.1,28.5,5-6.4,10.1-12.8,15.2-19.2,0,.1.4.2,0,.3,5.3.6,7.6,2.4,13.3,3.3,9.7,1.6,18.7,2.1,29.6.1,5.9-1,15.5-3.8,21.8-5.8,2,.2,3.6.8,5.5,1.2-5,7.4-9.6,14.9-14.4,22.3,9.8-6.8,19.4-13.8,28.6-21.2,2.7-.5,5.3-1,8-1.3l3.7-5.8h33.7l19.2-37.6,32.9-41.9,17.3-14.2,8.1-24.1,13.2-31,35.9-42.6-12-13.6,18.5-43.3-17.8-24.1h0Z"/>
    <path class="st0" d="M615.9,409.9c-1.5,8.4,6.2,14.6,14.7,19.3-3.4-14.1-2.5-26.8,2.4-40.9.3-.8,1.4-2,1.6-3-7.8,8.2-16.7,13.7-18.7,24.6h0Z"/>
    <path class="st0" d="M675.3,455.5c-4.2,5.1-8.3,10.3-12.3,15.5-1.3-6.2-2.6-12.4-4-18.6-1.2,11.3-2.2,22.6-3.1,34,4.5-4.7,9-9.5,12.2-14.7s4.7-10.8,7.3-16.1Z"/>
  </g>
</svg>