<?xml version="1.0" encoding="UTF-8"?>
<svg id="SECONDARY" xmlns="http://www.w3.org/2000/svg" xmlns:xlink="http://www.w3.org/1999/xlink" viewBox="0 0 1080 1080">
  <defs>
    <style>
      .cls-1 {
        fill: none;
      }

      .cls-2 {
        clip-path: url(#clippath);
      }

      .cls-3 {
        fill: #fff;
      }

      .cls-4 {
        fill: #ff0e11;
      }
    </style>
    <clipPath id="clippath">
      <polygon class="cls-1" points="827.3 357.7 809.46 333.57 413.43 331.93 422.2 366.98 408.47 391.81 359.91 423.67 320.79 457.73 294.03 457.73 265.89 523.47 345.95 523.47 344.82 548.3 367.21 563.11 449.14 679.78 475.9 701.77 486.12 788.78 531.17 775.9 578.24 711.42 628.95 673.4 628.95 655.66 660.53 606 694.17 606 713.37 568.4 746.32 526.54 763.6 512.38 771.71 488.23 784.91 457.24 820.81 414.64 808.86 401.01 827.3 357.7"/>
    </clipPath>
  </defs>
  <g id="FULL_COLOR" data-name="FULL COLOR">
    <polygon class="cls-4" points="443.38 720.58 424 704.65 343.14 589.49 309.43 567.2 309.81 559.1 212.93 559.1 271.58 422.09 308.21 422.09 339.48 394.87 382.78 366.46 385.32 361.88 368.87 296.11 826.55 298.01 867.07 352.78 849.42 394.2 866.93 414.16 814.35 476.56 803.82 501.28 792.87 533.87 770.68 552.05 742.27 588.15 714.96 641.63 679.12 641.63 663.43 666.32 663.43 691.57 602.66 737.14 551.64 807.02 456.72 834.17 443.38 720.58"/>
    <polygon points="459.64 711.18 436.57 692.22 355.17 576.3 327.12 557.75 327.88 541.28 239.41 541.28 282.8 439.91 314.5 439.91 349.7 409.27 395.63 379.13 403.76 364.43 391.15 314.02 818 315.79 847.18 355.24 829.14 397.61 843.87 414.4 799.63 466.9 787.77 494.75 778.24 523.13 758.5 539.3 727.82 578.28 704.57 623.82 669.82 623.82 646.19 660.99 646.19 682.48 590.45 724.28 541.41 791.46 471.42 811.48 459.64 711.18"/>
    <polygon class="cls-4" points="827.3 357.7 809.46 333.57 413.43 331.93 422.2 366.98 408.47 391.81 359.91 423.67 320.79 457.73 294.03 457.73 265.89 523.47 345.95 523.47 344.82 548.3 367.21 563.11 449.14 679.78 475.9 701.77 486.12 788.78 531.17 775.9 578.24 711.42 628.95 673.4 628.95 655.66 660.53 606 694.17 606 713.37 568.4 746.32 526.54 763.6 512.38 771.71 488.23 784.91 457.24 820.81 414.64 808.86 401.01 827.3 357.7"/>
    <g class="cls-2">
      <g>
        <path class="cls-3" d="m632.76,444.86c-7.39-6.16-15.03-12.15-22.25-18.44,1.75-6.71,3.59-13.41,5.17-20.14,6.62-5.57,13.2-11.16,19.72-16.81-.84,18.47-2.17,36.92-2.65,55.39Z"/>
        <path class="cls-3" d="m651.7,498.66c1.22-14.33,2.42-28.65,3.62-42.98,3.69,3.76,7.39,7.5,11.08,11.25,4.01-1.61,8.02-3.22,12.03-4.83-5.99,12.12-11.99,24.24-17.98,36.36-2.92.06-5.84.13-8.76.19Z"/>
        <g>
          <path class="cls-1" d="m656.27,496.02c-2.23,2.98,0,.23,0,0,.44-11.62,1.61-23.24,2.75-34.86,1.31,6.33,2.64,12.65,3.99,18.97,4.04-5.19,8.09-10.37,12.29-15.49-2.56,5.29-4.17,10.79-7.21,15.98-3.03,5.19-8.21,10.57-11.83,15.4Z"/>
          <path class="cls-1" d="m630.56,438.2c-8.47-4.63-16.23-10.91-14.69-19.28,2-10.9,10.86-16.4,18.7-24.65-.14,1.01-1.26,2.21-1.56,3.05-4.99,14.05-5.85,26.74-2.44,40.87Z"/>
          <path d="m545.99,340.7c-27.51,14.27-56.36,26.21-85.77,37.88.85,3.17,1.81,6.32,2.68,9.48-5.42.51-10.43.16-15.97,1.57-4.94,2.74-14.31,14.5-16.31,17.2-17.2,23.25-25.98,43.92-31.85,69.29-.92,3.99-.25,9.71-1.11,14.01,5.09,11.21,9.45,22.4,13.09,33.91,4.53-.83,9.1-1.52,13.6-2.42,7.33,17.61,11.36,34.7,15.75,53.31.41,1.75,1.15,4.6,2.65,7.44,12.88,24.29,25.85,48.39,50.09,67.93,4.19,3.38,10.01,5.19,16.6,7.51,6.59,2.31,17.33,4.63,24.91,6.36,1.94-2.3,3.16-4.78,4.5-7.3,1.86,3.77,2.5,7.07,4.97,10.9.84,1.3,1.43,2.66,3.88,3.89,12.69,6.33,25.27,10.35,41.14,11.1,3.57.17,9.29-.81,13.16-1,2.37-9.28,4.27-18.84,7.09-27.85,1.87,3.89,4.81,13.59,5.84,16.33,1.03,2.75.16,3.26.85,3.76,8.8,6.35,11.43,7.46,23.42,11.97,12,4.51,30.91,12.52,43.45,18.79,3.51.43,6.52.41,9.85.6,4.48-8.39,8.88-16.82,13.33-25.21.05.14-.16.83.08.83.24,0-.35.6.16-.15.51-.75-1.1,1.64.57-.91,1.11-1.69-1.46,2.06,2.13-3.35,3.6-5.41,15.88-22.9,24.08-30.16,2.94-2.61,6.89-8.53,9.77-11.5-4.79-4.3-9.98-8.18-14.88-12.36-18.43-4.54-36.74-8.64-55.93-10.95-7.82-.94-15.31,0-22.96,1.52-9.2,7.38-18.79,14.35-28.61,21.2,4.81-7.44,9.42-14.95,14.43-22.32-1.84-.45-3.45-1-5.48-1.23-6.25,1.95-15.86,4.7-21.77,5.75-10.96,1.95-19.89,1.43-29.62-.14-5.69-.92-7.99-2.7-13.33-3.31.34-.15.02-.18-.04-.32-5.08,6.38-10.15,12.76-15.17,19.16,2.78-9.55,5.74-19.04,9.11-28.48-1.89-2.37-3.74-4.8-5.77-7.08-4.41-2.31-9.5-3.02-13.47-5.97-18.94-14.07-31.49-31.1-45.13-48.49-4.44-5.66-8.98-11.87-14.2-17.23-11.04-3.27-21.47-6.93-33.33-8.04,5.99-2.52,11.77-5.3,17.44-8.22.19-3.67.64-6.49.43-10.4-.21-3.91-1.59-10.41-1.8-14.22-1.16-20.27,1.51-39.79,8.79-58.64,2.33-6.03,4.7-8.64,6.9-14.19-2.41-5.22-4.48-10.76-6.5-16.17,4.35,3.53,8.66,7.05,12.57,10.88,21.52-5.41,43.08-10.69,64.34-16.73,16.01,5.7,32.15,9.42,49.56,11.68,9.17-3.56,18.2-7.33,27.64-10.44-4.01,4.48-8.01,9.14-13.15,12.71-9.8,37.14.44,29.49,28.81,56.23,18.34,17.29,4.51,46.14-3.78,66.09,19.21-21.6,36.7-36.91,42.71-64.87,6.02-27.96-2.22-61.34-21.35-86.54-7.49-.41-13.56,1.86-20.27,4.13-6.83-7.12-13.61-14.28-20.29-21.49-24.81-3.9-48.75-9.11-72.54-15.74Zm117.03,139.41c4.06-5.2,8.12-10.39,12.33-15.52-2.65,5.37-4.19,10.86-7.33,16.13-3.15,5.27-7.67,10.06-12.15,14.74.93-11.33,1.95-22.65,3.14-33.97,1.38,6.2,2.69,12.41,4.01,18.62Zm-28.45-85.84c-.14,1.01-1.27,2.21-1.57,3.05-4.99,14.05-5.85,26.74-2.44,40.87-8.48-4.63-16.22-10.91-14.69-19.28,1.99-10.9,10.86-16.4,18.69-24.65Z"/>
        </g>
      </g>
    </g>
  </g>
</svg>