<?xml version="1.0" encoding="UTF-8"?>
<svg id="SECONDARY" xmlns="http://www.w3.org/2000/svg" version="1.1" viewBox="0 0 1080 1080">
  <!-- Generator: Adobe Illustrator 30.1.0, SVG Export Plug-In . SVG Version: 2.1.1 Build 136)  -->
  <path d="M818,290.6l-426.9-1.8,12.6,50.4-8.1,14.7-45.9,30.1-35.2,30.6h-31.7l-43.4,101.4h88.5l-.8,16.5,28,18.5,81.4,115.9,23.1,19,11.8,100.3,70-20,49-67.2,55.7-41.8v-21.5l23.6-37.2h34.7l23.2-45.5,30.7-39,19.7-16.2,9.5-28.4,11.9-27.9,44.2-52.5-14.7-16.8,18-42.4-29.2-39.5h0ZM820.8,389.5l-35.9,42.6-13.2,31-8.1,24.1-17.3,14.2-32.9,41.9-19.2,37.6h-33.7l-3.7,5.8-27.9,43.9v17.7l-6.7,5-44,33-47.1,64.5-45,12.9-10.2-87-26.8-22-81.9-116.7-22.4-14.8,1.1-24.8h-80.1l28.1-65.7h26.8l39.1-34,48.6-31.9,13.7-24.8-8.8-35,396,1.6,17.8,24.1-18.5,43.3,12,13.6h0Z"/>
  <path d="M620.3,609.2c4.8-7.4,9.4-15,14.4-22.3-1.8-.5-3.5-1-5.5-1.2-6.2,2-15.9,4.7-21.8,5.8-11,2-19.9,1.4-29.6-.1-5.7-.9-8-2.7-13.3-3.3.3-.2,0-.2,0-.3-5.1,6.4-10.2,12.8-15.2,19.2,2.8-9.5,5.7-19,9.1-28.5-1.9-2.4-3.7-4.8-5.8-7.1-4.4-2.3-9.5-3-13.5-6-18.9-14.1-31.5-31.1-45.1-48.5-4.4-5.7-9-11.9-14.2-17.2-11-3.3-21.5-6.9-33.3-8,6-2.5,11.8-5.3,17.4-8.2.2-3.7.6-6.5.4-10.4-.2-3.9-1.6-10.4-1.8-14.2-1.2-20.3,1.5-39.8,8.8-58.6,2.3-6,4.7-8.6,6.9-14.2-2.4-5.2-4.5-10.8-6.5-16.2,4.4,3.5,8.7,7,12.6,10.9,21.5-5.4,43.1-10.7,64.3-16.7,16,5.7,32.2,9.4,49.6,11.7,9.2-3.6,18.2-7.3,27.6-10.4-4,4.5-8,9.1-13.2,12.7-9.8,37.1.4,29.5,28.8,56.2,18.3,17.3,4.5,46.1-3.8,66.1,19.2-21.6,36.7-36.9,42.7-64.9s-2.2-61.3-21.3-86.5c-7.5-.4-13.6,1.9-20.3,4.1-6.8-7.1-13.6-14.3-20.3-21.5-24.8-3.9-48.8-9.1-72.5-15.7-27.5,14.3-56.4,26.2-85.8,37.9.9,3.2,1.8,6.3,2.7,9.5-5.4.5-10.4.2-16,1.6-4.9,2.7-14.3,14.5-16.3,17.2-17.2,23.2-26,43.9-31.9,69.3-.9,4-.2,9.7-1.1,14,5.1,11.2,9.5,22.4,13.1,33.9,4.5-.8,9.1-1.5,13.6-2.4,7.3,17.6,11.4,34.7,15.8,53.3.4,1.8,1.1,4.6,2.6,7.4,12.9,24.3,25.9,48.4,50.1,67.9,4.2,3.4,10,5.2,16.6,7.5,6.6,2.3,17.3,4.6,24.9,6.4,1.9-2.3,3.2-4.8,4.5-7.3,1.9,3.8,2.5,7.1,5,10.9.8,1.3,1.4,2.7,3.9,3.9,12.7,6.3,25.3,10.3,41.1,11.1,3.6.2,9.3-.8,13.2-1,2.4-9.3,4.3-18.8,7.1-27.8,1.9,3.9,4.8,13.6,5.8,16.3,1,2.8.2,3.3.8,3.8,2.6,1.8,4.6,3.2,6.5,4.4l6.7-5v-17.7l27.9-43.9c-2.7.3-5.3.8-8,1.3-9.2,7.4-18.8,14.3-28.6,21.2h0ZM659,436.4c1.4,6.2,2.7,12.4,4,18.6,4.1-5.2,8.1-10.4,12.3-15.5-2.7,5.4-4.2,10.9-7.3,16.1-3.2,5.3-7.7,10.1-12.2,14.7.9-11.3,2-22.6,3.1-34ZM633,372.2c-5,14-5.8,26.7-2.4,40.9-8.5-4.6-16.2-10.9-14.7-19.3,2-10.9,10.9-16.4,18.7-24.6-.1,1-1.3,2.2-1.6,3h0Z"/>
</svg>