<?xml version="1.0" encoding="UTF-8"?>
<svg id="Layer_2" data-name="Layer 2" xmlns="http://www.w3.org/2000/svg" viewBox="0 0 590.76 346.34">
  <g id="Layer_2-2" data-name="Layer 2">
    <g id="uuid-029b358a-2acc-46bd-9add-6cca813b513e" data-name="Layer 2-2">
      <g>
        <g>
          <path d="M115.94,134.38v8.55c0,3.31-.98,5.93-2.95,7.86-1.97,1.94-4.77,2.91-8.42,2.91h-30.26c-1.94,0-3.75-.36-5.43-1.07s-3.02-1.82-4.02-3.33-1.5-3.46-1.5-5.85v-9.4h14.1v8.03h24.27v-7.44l-31.97-7.95c-1.65-.4-2.95-.98-3.89-1.75s-1.6-1.77-1.97-2.99c-.37-1.22-.55-2.75-.55-4.57v-10.34c0-3.19.87-5.47,2.61-6.84,1.74-1.37,4.15-2.05,7.22-2.05h32.31c2.91,0,5.1.47,6.58,1.41s2.49,2.29,3.03,4.06.81,3.85.81,6.24v7.01h-14.19v-7.18h-24.27v6.67l32.05,7.86c1.77.46,3.09,1.06,3.97,1.79.88.74,1.51,1.78,1.88,3.12.37,1.34.56,3.09.56,5.26h.03Z"/>
          <path d="M163.72,153.69l-4.19-12.99,3.33,2.56h-28.04l3.33-2.48-4.19,12.91h-14.7l18.8-55.56h21.8l18.55,55.56h-14.7,0ZM148.17,109.5l-8.04,24.87-1.79-2.31h21.03l-1.71,2.48-8.03-25.04h-1.46Z"/>
          <path d="M192.78,153.69v-43.42h-19.06v-12.14h52.57v12.14h-19.06v43.42h-14.45Z"/>
          <path d="M269.79,98.14h14.19v44.62c0,1.77-.41,3.5-1.24,5.21s-2.05,3.09-3.67,4.15c-1.62,1.05-3.66,1.58-6.11,1.58h-30.6c-1.94,0-3.75-.36-5.43-1.07s-3.02-1.82-4.02-3.33-1.5-3.46-1.5-5.85v-45.3h14.1v43.16h24.27v-43.16h0Z"/>
          <path d="M306.38,153.69h-14.36v-55.56h43.51c3.13,0,5.36.9,6.67,2.69,1.31,1.79,1.97,4.32,1.97,7.56v19.92c0,3.25-.7,5.63-2.09,7.14-1.4,1.51-3.72,2.27-6.97,2.27h-3.08l2.31-7.09,9.23,23.08h-14.45l-6.07-15.98h-16.67v15.98h0ZM306.38,126.34h23.59v-15.73h-23.59v15.73Z"/>
          <path d="M351.51,153.69v-55.56h43.76c3.59,0,5.98,1.04,7.18,3.12,1.2,2.08,1.79,4.91,1.79,8.5v32.99c0,1.77-.43,3.5-1.28,5.21-.86,1.71-2.14,3.09-3.85,4.15-1.71,1.05-3.79,1.58-6.24,1.58h-41.37,0ZM365.87,141.3h24.27v-30.69h-24.27v30.69Z"/>
          <path d="M452.19,153.69l-4.19-12.99,3.33,2.56h-28.04l3.33-2.48-4.19,12.91h-14.7l18.8-55.56h21.8l18.55,55.56h-14.7.01ZM436.64,109.5l-8.04,24.87-1.79-2.31h21.03l-1.71,2.48-8.03-25.04h-1.46Z"/>
          <path d="M495.96,153.69h-14.45v-21.88l-21.2-33.68h15.21l13.33,21.97h.08l13.42-21.97h15.3l-21.71,33.59v21.97h.02Z"/>
          <path d="M120.47,226.24h-18.97l-17.78-27.95c-.8-1.2-1.61-2.49-2.44-3.89s-1.71-2.92-2.65-4.57c-.94-1.65-2.01-3.5-3.21-5.56l1.28-.26v42.22h-12.99v-55.56h18.21l17.52,28.04c.97,1.48,1.92,3.03,2.86,4.66s1.95,3.35,3.03,5.17c1.08,1.82,2.25,3.82,3.5,5.98l-1.2.34c-.06-3.42-.1-6.38-.13-8.89s-.04-4.67-.04-6.5v-28.8h12.99v55.56h.02Z"/>
          <path d="M129.36,226.24v-55.56h14.36v55.56h-14.36Z"/>
          <path d="M205.09,187.77h-13.93v-4.87h-24.7v31.2h24.62v-9.66h-14.79v-10.6h28.8v21.54c0,1.77-.36,3.49-1.07,5.17s-1.94,3.05-3.68,4.1c-1.74,1.05-4.03,1.58-6.88,1.58h-28.89c-3.93,0-6.92-1.04-8.97-3.12s-3.08-4.92-3.08-8.5v-32.65c0-4.39.97-7.36,2.91-8.93,1.94-1.57,4.53-2.35,7.78-2.35h31.2c3.82,0,6.55.91,8.21,2.73,1.65,1.82,2.48,4.7,2.48,8.63v5.73h-.01Z"/>
          <path d="M212.95,226.24v-55.56h14.36v22.22h25.47v-22.22h14.27v55.56h-14.27v-21.45h-25.47v21.45h-14.36,0Z"/>
          <path d="M291.16,226.24v-43.42h-19.06v-12.14h52.57v12.14h-19.06v43.42h-14.45Z"/>
          <path d="M63.72,298.78v-55.56h14.36v43.16h33.59v12.39h-47.95,0Z"/>
          <path d="M159.96,298.78l-4.19-12.99,3.33,2.56h-28.04l3.33-2.48-4.19,12.91h-14.7l18.8-55.56h21.8l18.55,55.56h-14.7,0ZM144.41,254.59l-8.04,24.87-1.79-2.31h21.03l-1.71,2.48-8.03-25.04h-1.46Z"/>
          <path d="M216.54,276.38h14.19v11.54c0,1.77-.37,3.49-1.11,5.17-.74,1.68-1.97,3.05-3.67,4.1-1.71,1.05-4.02,1.58-6.92,1.58h-28.8c-3.93,0-6.92-1.04-8.97-3.12s-3.08-4.92-3.08-8.5v-32.39c0-4.39.95-7.41,2.86-9.06s4.52-2.48,7.82-2.48h31.2c3.82,0,6.55.94,8.21,2.82,1.65,1.88,2.48,4.84,2.48,8.89v7.35h-14.19v-6.58h-24.36v30.69h24.36v-10h-.02Z"/>
          <path d="M252.19,298.78h-14.36v-55.56h43.51c3.13,0,5.36.9,6.67,2.69,1.31,1.79,1.97,4.32,1.97,7.56v19.92c0,3.25-.7,5.63-2.09,7.14-1.4,1.51-3.72,2.27-6.97,2.27h-3.08l2.31-7.09,9.23,23.08h-14.45l-6.07-15.98h-16.67v15.98h0ZM252.19,271.43h23.59v-15.73h-23.59v15.73Z"/>
          <path d="M308.17,298.78c-1.94,0-3.73-.36-5.38-1.07-1.65-.71-2.99-1.82-4.02-3.33-1.03-1.51-1.54-3.46-1.54-5.85v-36.41c0-3.19.85-5.47,2.56-6.84s3.99-2.05,6.84-2.05h36.24c3.53,0,5.93,1.04,7.18,3.12s1.88,4.94,1.88,8.59v32.91c0,1.77-.44,3.5-1.33,5.21-.88,1.71-2.18,3.09-3.89,4.15-1.71,1.05-3.79,1.58-6.24,1.58h-32.31.01ZM311.25,286.38h26.5v-30.69h-26.5v30.69Z"/>
          <path d="M412.02,279.46v8.55c0,3.3-.98,5.93-2.95,7.86-1.97,1.94-4.77,2.91-8.42,2.91h-30.26c-1.94,0-3.75-.36-5.43-1.07-1.68-.71-3.02-1.82-4.02-3.33-1-1.51-1.5-3.46-1.5-5.85v-9.4h14.1v8.03h24.27v-7.44l-31.97-7.95c-1.65-.4-2.95-.98-3.89-1.75s-1.6-1.77-1.97-2.99-.55-2.75-.55-4.57v-10.34c0-3.19.87-5.47,2.61-6.84s4.15-2.05,7.22-2.05h32.31c2.91,0,5.1.47,6.58,1.41,1.48.94,2.49,2.29,3.03,4.06s.81,3.85.81,6.24v7.01h-14.19v-7.18h-24.27v6.67l32.05,7.86c1.77.46,3.09,1.05,3.97,1.79.88.74,1.51,1.78,1.88,3.12s.56,3.09.56,5.26h.03Z"/>
          <path d="M471.85,279.46v8.55c0,3.3-.98,5.93-2.95,7.86-1.97,1.94-4.77,2.91-8.42,2.91h-30.26c-1.94,0-3.75-.36-5.43-1.07-1.68-.71-3.02-1.82-4.02-3.33-1-1.51-1.5-3.46-1.5-5.85v-9.4h14.1v8.03h24.27v-7.44l-31.97-7.95c-1.65-.4-2.95-.98-3.89-1.75s-1.6-1.77-1.97-2.99-.55-2.75-.55-4.57v-10.34c0-3.19.87-5.47,2.61-6.84s4.15-2.05,7.22-2.05h32.31c2.91,0,5.1.47,6.58,1.41,1.48.94,2.49,2.29,3.03,4.06s.81,3.85.81,6.24v7.01h-14.19v-7.18h-24.27v6.67l32.05,7.86c1.77.46,3.09,1.05,3.97,1.79.88.74,1.51,1.78,1.88,3.12s.56,3.09.56,5.26h.03Z"/>
          <path d="M479.46,298.78v-55.56h47.18v11.54h-32.82v10.17h23.85v11.37h-23.85v10.94h32.82v11.54h-47.18,0Z"/>
        </g>
        <path d="M548.55,346.34H42.21c-23.27,0-42.21-18.94-42.21-42.21V42.21C0,18.94,18.94,0,42.21,0h506.34c23.28,0,42.21,18.94,42.21,42.21v261.92c0,23.28-18.94,42.21-42.21,42.21ZM42.21,15.49c-14.73,0-26.72,11.99-26.72,26.72v261.92c0,14.73,11.99,26.72,26.72,26.72h506.34c14.73,0,26.72-11.99,26.72-26.72V42.21c0-14.73-11.98-26.72-26.72-26.72H42.21Z"/>
        <g>
          <path d="M168.07,41.36h-55.53c-5.69,0-9.46,2.99-9.99,7.47-.2,1.65-.39,3.11-.39,3.11h73.99s.14-1.09.25-1.97c.56-4.51-1.35-8.61-8.33-8.61"/>
          <path d="M175.65,55.97s-.17,1.49-.39,3.12c-.45,3.23-2.85,5.63-7.32,5.63h-15.75l-1.79,14.33h-12.54l2.84-23.08h34.95Z"/>
          <polygon points="67.38 41.35 100.94 41.36 99.63 51.94 66.08 51.94 67.38 41.35"/>
          <polygon points="65.58 55.97 99.13 55.97 98.04 64.72 77.03 64.72 76.5 69.03 97.51 69.03 96.26 79.05 62.71 79.05 65.58 55.97"/>
          <path d="M180.01,41.36h27.36c4.32,0,8.83,2.01,7.93,8.95-.16,1.24-.21,1.63-.21,1.63h-36.4l1.31-10.58h.01Z"/>
          <polygon points="178.2 55.97 190.75 55.97 187.88 79.04 175.33 79.05 178.2 55.97"/>
          <polygon points="202.04 55.97 214.58 55.97 211.72 79.04 199.17 79.05 202.04 55.97"/>
          <path d="M129.22,55.97h-27.56c-.93,6.02,2.09,8.75,6.36,8.75h16.98l-.53,4.33h-24.42l-1.24,10.02h27.66c.89-.07,7.11-.23,9.23-5.32.69-1.65,1.3-7.57,1.47-8.81.99-7.22-4.01-8.94-7.94-8.94"/>
        </g>
      </g>
    </g>
    <g id="ICON_3C">
      <g>
        <path d="M364.2,187.54c0-4.28,3.47-7.76,7.76-7.76s7.76,3.47,7.76,7.76-3.47,7.76-7.76,7.76-7.76-3.47-7.76-7.76"/>
        <path d="M381.94,172.17h0c-4.6-2.4-15.17-2.5-19.88,0-3.42,1.82-6.85,5.12-8.78,8.93.96.59,2.15,1.23,3.61,1.9.43-.9,1.03-1.83,1.79-2.76,3.82-4.46,6.7-5.7,13.31-5.86,6.78.18,9.43,1.29,13.33,5.86,1.67,2.06,2.59,4.12,2.59,5.8.03,1.79-2.28,4.72-3.72,6.81-1.38,1.99-2.94,4.08-4.04,6.08-2.14-2.7-4.93-4.59-8.45-6.08-.91-.38-2.34-.82-4.16-1.37-6.04-1.85-17.19-5.26-21.24-10.63.21,1.78,1.73,7.56,6.53,9.6h0c4.66,2.21,9.77,3.78,13.53,4.93,1.64.5,3.06.94,3.79,1.24,3.76,1.56,8.15,4.72,8.3,8.56v.37c-2.06-1.36-4.77-2.3-7.21-3.31-6.16-2.21-14.15-3.97-20.87-8.11,1.3,3.83,4.29,6.85,8.09,8.22,3.82,1.42,8.04,2.5,11.21,3.66,4,1.63,8.71,3.15,8.77,6.17-.02,1.18.09,1.69-.18,3.14-2.07-1.81-4.63-3.37-7.13-4.41-4.75-1.68-10.52-2.78-16.17-5.09.99,2.18,2.95,5.22,6.5,6.49,2.46.74,6.35,1.69,8.11,2.37,2.44,1.02,4.85,2.56,6.68,4.34-.97.87-2.33.95-4.25,4.08-3.23-5.18-6.36-5.34-9.9-6.11.8,2.21,1.97,4.16,3.99,5.53,2.36,1.61,4.29,3.79,5.68,6.28l.25.44c1.47-2.64,3.56-4.87,6.08-6.53,1.1-.73,2.01-1.67,2.66-2.73,1.6-2.53,1.77-5.35,1.77-6.45v-8.44c-.16-2.68,1.81-5.32,4.05-8.53,2.13-3.22,5.4-6.77,5.43-10.53,0-3.34-1.9-6.39-3.5-8.36-1.86-2.29-4.31-4.35-6.54-5.5"/>
      </g>
    </g>
  </g>
</svg>