<?xml version="1.0" encoding="UTF-8"?>
<svg id="Layer_2" data-name="Layer 2" xmlns="http://www.w3.org/2000/svg" viewBox="0 0 673.71 35.87">
  <defs>
    <style>
      .cls-1 {
        fill: #010101;
      }

      .cls-2 {
        fill: #ef4135;
      }

      .cls-3 {
        fill: #fff;
      }

      .cls-4 {
        fill: #fdce18;
      }
    </style>
  </defs>
  <g id="Layer_2-2" data-name="Layer 2">
    <g id="Layer_1-2" data-name="Layer 1-2">
      <g>
        <g>
          <path class="cls-2" d="M96.47,0h-50.84c-5.21,0-8.66,2.74-9.15,6.84-.18,1.51-.35,2.84-.35,2.84h67.75s.13-1,.23-1.8c.5-4.12-1.25-7.88-7.64-7.88"/>
          <path class="cls-2" d="M103.42,13.38s-.15,1.37-.36,2.86c-.41,2.95-2.61,5.15-6.7,5.15h-14.42l-1.63,13.12h-11.48l2.61-21.13h32-.02Z"/>
          <polygon class="cls-2" points="4.28 0 35.01 0 33.81 9.69 3.08 9.69 4.28 0"/>
          <polygon class="cls-2" points="2.62 13.38 33.35 13.38 32.36 21.39 13.12 21.39 12.63 25.35 31.86 25.35 30.72 34.52 0 34.52 2.62 13.38"/>
          <path class="cls-2" d="M107.41,0h25.06c3.96,0,8.08,1.84,7.26,8.2-.15,1.14-.19,1.49-.19,1.49h-33.33l1.2-9.69Z"/>
          <polygon class="cls-2" points="105.75 13.38 117.24 13.38 114.62 34.51 103.13 34.52 105.75 13.38"/>
          <polygon class="cls-2" points="127.58 13.38 139.07 13.38 136.44 34.51 124.95 34.52 127.58 13.38"/>
          <path class="cls-2" d="M60.9,13.39h-25.24c-.85,5.52,1.91,8.01,5.82,8.01h15.54l-.49,3.96h-22.36l-1.13,9.17h25.33c.81-.06,6.51-.21,8.45-4.87.63-1.51,1.19-6.93,1.35-8.07.9-6.61-3.67-8.19-7.27-8.19"/>
        </g>
        <g>
          <path d="M175.94,22.6v5.46c0,2.16-.5,3.84-1.49,5.04s-2.49,1.8-4.51,1.8h-7.85c-1.24,0-2.3-.25-3.18-.74s-1.58-1.25-2.09-2.28-.77-2.28-.77-3.77v-5.14h7.27v5.3h5.36v-5.25l-9.23-5.09c-.85-.46-1.52-.94-2.01-1.43-.5-.49-.85-1.1-1.06-1.8-.21-.71-.32-1.61-.32-2.71v-5.52c0-2.23.54-3.79,1.62-4.69,1.08-.9,2.55-1.35,4.43-1.35h7.58c1.56,0,2.79.26,3.71.77.92.51,1.57,1.28,1.96,2.31s.58,2.37.58,4.03v4.4h-7.27v-4.88h-5.36v4.61l9.23,4.88c.92.46,1.61.94,2.07,1.43.46.5.8,1.11,1.01,1.83.21.73.32,1.65.32,2.78h0Z"/>
          <path d="M192.17,34.9l-1.01-8.01,1.75,1.59h-9.02l1.75-1.49-1.01,7.9h-7.48L182.15.43h12.68l4.83,34.48h-7.49ZM188.03,7.11l-1.96,16.39-1.43-1.43h7.48l-1.38,1.27-1.86-16.23h-.85,0Z"/>
          <path d="M204.69,34.9V7.16h-6.63V.43h20.63v6.74h-6.52v27.74h-7.48Z"/>
          <path d="M233.49.43h7.37v27.63c0,1.41-.22,2.63-.66,3.66s-1.11,1.81-1.99,2.36-2,.82-3.34.82h-8.38c-1.17,0-2.2-.25-3.1-.74-.9-.5-1.6-1.24-2.1-2.23s-.74-2.23-.74-3.71V.43h7.32v27.79h5.62V.43h0Z"/>
          <path d="M251.26,34.9h-7.37V.43h15.38c1.7,0,2.91.5,3.63,1.48.72.99,1.09,2.6,1.09,4.83v11.51c0,2.16-.36,3.7-1.09,4.64-.73.94-1.94,1.41-3.63,1.41h-.9l2.39-1.75,3.61,12.36h-7.42l-2.81-10.24h-2.86v10.24h-.02ZM251.26,18.14h5.41V7.16h-5.41v10.98h0Z"/>
          <path d="M266.69,34.9V.43h14.75c2.23,0,3.72.65,4.48,1.94.76,1.29,1.14,3.05,1.14,5.28v20.47c0,1.1-.18,2.17-.53,3.24-.35,1.06-.97,1.92-1.86,2.57-.88.66-2.09.98-3.61.98h-14.37ZM274.06,28.22h5.68V7.16h-5.68v21.06Z"/>
          <path d="M303.5,34.9l-1.01-8.01,1.75,1.59h-9.02l1.75-1.49-1.01,7.9h-7.48L293.47.43h12.68l4.83,34.48h-7.48,0ZM299.36,7.11l-1.96,16.39-1.43-1.43h7.48l-1.38,1.27-1.86-16.23h-.85Z"/>
          <path d="M323.44,34.9h-7.48v-13.21l-7.37-21.27h7.64l3.5,13.47h.21l3.66-13.47h7.58l-7.74,21.22v13.26Z"/>
          <path d="M365.08,34.9h-9.49l-3.92-11.4c-.32-.99-.64-2.22-.95-3.69-.32-1.47-.67-3.13-1.06-4.99-.39-1.86-.79-3.86-1.22-6.02l.27-.05c.11,1.98.19,3.83.24,5.54.05,1.72.1,3.22.13,4.51.04,1.29.05,2.34.05,3.16v12.94h-6.21V.43h8.8l4.35,13.63c.39,1.27.77,2.71,1.14,4.32.37,1.61.78,3.36,1.22,5.25s.89,3.84,1.35,5.86l-.21.11c-.25-2.86-.43-5.41-.56-7.64-.12-2.23-.19-4.1-.19-5.62V.43h6.26v34.48h0Z"/>
          <path d="M368.21,34.9V.43h7.42v34.48h-7.42Z"/>
          <path d="M398.86,11.57h-7.32v-4.4h-5.52v21.06h5.62v-7.16h-3.02v-5.83h10.24v12.84c0,1.17-.17,2.28-.5,3.34-.34,1.06-.94,1.91-1.8,2.55-.87.64-2.06.96-3.58.96h-8.17c-1.84,0-3.31-.53-4.4-1.59-1.1-1.06-1.64-2.72-1.64-4.99V6.26c0-2.12.53-3.62,1.59-4.51,1.06-.88,2.49-1.33,4.3-1.33h8.33c2.3,0,3.85.61,4.67,1.83.81,1.22,1.22,2.96,1.22,5.22v4.08l-.02.02Z"/>
          <path d="M401.83,34.9V.43h7.37v14.11h5.94V.43h7.37v34.48h-7.37v-13.68h-5.94v13.68h-7.37Z"/>
          <path d="M430.95,34.9V7.16h-6.63V.43h20.63v6.74h-6.52v27.74h-7.48Z"/>
          <path d="M457.31,34.9V.43h7.37v27.79h9.97v6.68h-17.34Z"/>
          <path d="M490.72,34.9l-1.01-8.01,1.75,1.59h-9.02l1.75-1.49-1.01,7.9h-7.48L480.7.43h12.68l4.83,34.48h-7.49ZM486.59,7.11l-1.96,16.39-1.43-1.43h7.48l-1.38,1.27-1.86-16.23h-.85Z"/>
          <path d="M512.31,21.01h7.32v7.05c0,1.17-.18,2.28-.53,3.34-.35,1.06-.97,1.91-1.86,2.55-.88.64-2.14.96-3.77.96h-7.74c-1.84,0-3.31-.53-4.4-1.59-1.1-1.06-1.64-2.72-1.64-4.99V6.31c0-2.16.52-3.68,1.56-4.56,1.04-.88,2.48-1.33,4.32-1.33h7.8c2.47,0,4.14.61,4.99,1.83s1.27,2.98,1.27,5.28v5.14h-7.32v-5.52h-5.36v21.06h5.36v-7.21h0Z"/>
          <path d="M529.65,34.9h-7.37V.43h15.38c1.7,0,2.91.5,3.63,1.48.72.99,1.09,2.6,1.09,4.83v11.51c0,2.16-.36,3.7-1.09,4.64-.73.94-1.94,1.41-3.63,1.41h-.9l2.39-1.75,3.61,12.36h-7.42l-2.81-10.24h-2.86v10.24h-.02ZM529.65,18.14h5.41V7.16h-5.41v10.98Z"/>
          <path d="M551.08,34.9c-1.2,0-2.25-.25-3.13-.74-.88-.5-1.57-1.24-2.07-2.23s-.74-2.23-.74-3.71V7.16c0-2.16.51-3.82,1.54-4.99,1.03-1.17,2.42-1.75,4.19-1.75h8.86c2.09,0,3.61.62,4.56,1.86.95,1.24,1.43,2.99,1.43,5.25v20.53c0,1.41-.23,2.63-.69,3.66s-1.13,1.81-2.02,2.36c-.88.55-2,.82-3.34.82h-8.59,0ZM552.41,28.22h5.99V7.16h-5.99v21.06Z"/>
          <path d="M588.42,22.6v5.46c0,2.16-.5,3.84-1.49,5.04s-2.49,1.8-4.51,1.8h-7.85c-1.24,0-2.3-.25-3.18-.74s-1.58-1.25-2.09-2.28-.77-2.28-.77-3.77v-5.14h7.27v5.3h5.36v-5.25l-9.23-5.09c-.85-.46-1.52-.94-2.01-1.43-.5-.49-.85-1.1-1.06-1.8-.21-.71-.32-1.61-.32-2.71v-5.52c0-2.23.54-3.79,1.62-4.69,1.08-.9,2.55-1.35,4.43-1.35h7.58c1.56,0,2.79.26,3.71.77.92.51,1.57,1.28,1.96,2.31s.58,2.37.58,4.03v4.4h-7.27v-4.88h-5.36v4.61l9.23,4.88c.92.46,1.61.94,2.07,1.43.46.5.8,1.11,1.01,1.83.21.73.32,1.65.32,2.78h0Z"/>
          <path d="M610.86,22.6v5.46c0,2.16-.5,3.84-1.49,5.04s-2.49,1.8-4.51,1.8h-7.85c-1.24,0-2.3-.25-3.18-.74s-1.58-1.25-2.09-2.28-.77-2.28-.77-3.77v-5.14h7.27v5.3h5.36v-5.25l-9.23-5.09c-.85-.46-1.52-.94-2.01-1.43-.5-.49-.85-1.1-1.06-1.8-.21-.71-.32-1.61-.32-2.71v-5.52c0-2.23.54-3.79,1.62-4.69,1.08-.9,2.55-1.35,4.43-1.35h7.58c1.56,0,2.79.26,3.71.77.92.51,1.57,1.28,1.96,2.31s.58,2.37.58,4.03v4.4h-7.27v-4.88h-5.36v4.61l9.23,4.88c.92.46,1.61.94,2.07,1.43.46.5.8,1.11,1.01,1.83.21.73.32,1.65.32,2.78h0Z"/>
          <path d="M613.61,34.9V.43h17.18v6.63h-9.81v7.37h7.16v6.58h-7.16v7.32h9.81v6.58h-17.18Z"/>
        </g>
      </g>
    </g>
    <g id="ICON_3C">
      <g>
        <path class="cls-1" d="M660.03,33.06c-.62-1.11-1.47-2.05-2.46-2.73-1.23-.84-2.12-2.05-2.71-3.7l-.78-2.18c-1.49-.98-1.94-1.45-2.85-2.98-.9-1.53-1.73-3.87-1.73-3.87l1.24.4c-.79-.71-1.84-2.07-2.47-3.37-.73-1.52-.99-3.26-.99-3.26l1.19.43c-.96-1.13-1.72-2.89-1.96-4.44-.4-2.49.29-4.71.29-4.71,0,0,.47,1.26,1.77,2.43.62.56,1.31,1.06,1.87,1.4h0c1.12-2.22,2.99-4.14,5.18-5.3,1.38-.73,3.55-1.15,5.94-1.15s4.6.42,6,1.15c1.38.71,2.82,1.91,3.94,3.3,1,1.24,2.2,3.18,2.2,5.41-.02,2.09-1.27,3.84-2.39,5.38-.26.36-.51.71-.73,1.04l-.24.35c-.85,1.22-1.65,2.36-1.6,3.11v.05s0,4.46,0,4.46c0,.72-.12,2.57-1.18,4.25-.47.75-1.12,1.42-1.88,1.92-1.1.73-2.02,1.71-2.65,2.85l-1.44,2.58-1.57-2.81h0Z"/>
        <path class="cls-3" d="M657.59,10.56c0-2.24,1.82-4.06,4.06-4.06s4.06,1.82,4.06,4.06-1.82,4.06-4.06,4.06-4.06-1.82-4.06-4.06"/>
        <path class="cls-4" d="M666.87,2.52h0c-2.41-1.26-7.94-1.31-10.4,0-1.79.95-3.58,2.68-4.59,4.67.5.31,1.12.64,1.89,1,.23-.47.54-.96.94-1.45,2-2.33,3.5-2.98,6.96-3.07,3.55.09,4.93.68,6.97,3.07.87,1.08,1.36,2.16,1.36,3.03.02.94-1.19,2.47-1.94,3.56-.72,1.04-1.54,2.13-2.11,3.18-1.12-1.41-2.58-2.4-4.42-3.18-.48-.2-1.23-.43-2.17-.72-3.16-.97-8.99-2.75-11.11-5.56.11.93.91,3.95,3.41,5.02h0c2.44,1.16,5.11,1.98,7.08,2.58.86.26,1.6.49,1.98.65,1.97.82,4.26,2.47,4.34,4.48v.2c-1.08-.71-2.49-1.2-3.77-1.73-3.22-1.15-7.4-2.08-10.92-4.24.68,2,2.25,3.59,4.23,4.3,2,.74,4.21,1.31,5.87,1.91,2.09.85,4.56,1.65,4.59,3.23-.01.62.04.89-.1,1.64-1.08-.95-2.42-1.76-3.73-2.31-2.48-.88-5.51-1.46-8.46-2.66.52,1.14,1.54,2.73,3.4,3.39,1.29.39,3.32.88,4.24,1.24,1.28.53,2.54,1.34,3.5,2.27-.51.46-1.22.5-2.22,2.13-1.69-2.71-3.33-2.79-5.18-3.19.42,1.16,1.03,2.18,2.09,2.89,1.24.84,2.24,1.98,2.97,3.29l.13.23c.77-1.38,1.86-2.55,3.18-3.42.58-.38,1.05-.87,1.39-1.43.84-1.32.93-2.8.93-3.37v-4.41c-.08-1.4.95-2.78,2.12-4.46,1.11-1.69,2.83-3.54,2.84-5.51,0-1.75-1-3.34-1.83-4.38-.97-1.2-2.25-2.28-3.42-2.88"/>
      </g>
    </g>
  </g>
</svg>